<svg viewBox="0 0 16 16"
  style="color: var(--spinnerColor, currentcolor); fill:currentcolor; width: var(--spinnerSize, 28px); height: var(--spinnerSize, 28px)">
  <g fill="none" fill-rule="evenodd">
    <path fill-opacity=".27"
      d="M8,11 C8.55228475,11 9,11.4477153 9,12 L9,15 C9,15.5522847 8.55228475,16 8,16 C7.44771525,16 7,15.5522847 7,15 L7,12 C7,11.4477153 7.44771525,11 8,11 Z" />
    <path fill-opacity=".34"
      d="M5.87867966,10.1213203 C6.26920395,10.5118446 6.26920395,11.1450096 5.87867966,11.5355339 L3.75735931,13.6568542 C3.36683502,14.0473785 2.73367004,14.0473785 2.34314575,13.6568542 C1.95262146,13.26633 1.95262146,12.633165 2.34314575,12.2426407 L4.46446609,10.1213203 C4.85499039,9.73079605 5.48815536,9.73079605 5.87867966,10.1213203 Z" />
    <path fill-opacity=".2"
      d="M11.5355339,10.1213203 L13.6568542,12.2426407 C14.0473785,12.633165 14.0473785,13.26633 13.6568542,13.6568542 C13.26633,14.0473785 12.633165,14.0473785 12.2426407,13.6568542 L10.1213203,11.5355339 C9.73079605,11.1450096 9.73079605,10.5118446 10.1213203,10.1213203 C10.5118446,9.73079605 11.1450096,9.73079605 11.5355339,10.1213203 Z" />
    <path fill-opacity=".41"
      d="M4,7 C4.55228475,7 5,7.44771525 5,8 C5,8.55228475 4.55228475,9 4,9 L1,9 C0.44771525,9 0,8.55228475 0,8 C0,7.44771525 0.44771525,7 1,7 L4,7 Z" />
    <path fill-opacity=".2"
      d="M15,7 C15.5522847,7 16,7.44771525 16,8 C16,8.55228475 15.5522847,9 15,9 L12,9 C11.4477153,9 11,8.55228475 11,8 C11,7.44771525 11.4477153,7 12,7 L15,7 Z" />
    <path fill-opacity=".48"
      d="M3.75735931,2.34314575 L5.87867966,4.46446609 C6.26920395,4.85499039 6.26920395,5.48815536 5.87867966,5.87867966 C5.48815536,6.26920395 4.85499039,6.26920395 4.46446609,5.87867966 L2.34314575,3.75735931 C1.95262146,3.36683502 1.95262146,2.73367004 2.34314575,2.34314575 C2.73367004,1.95262146 3.36683502,1.95262146 3.75735931,2.34314575 Z" />
    <path fill-opacity=".06"
      d="M13.6568542,2.34314575 C14.0473785,2.73367004 14.0473785,3.36683502 13.6568542,3.75735931 L11.5355339,5.87867966 C11.1450096,6.26920395 10.5118446,6.26920395 10.1213203,5.87867966 C9.73079605,5.48815536 9.73079605,4.85499039 10.1213203,4.46446609 L12.2426407,2.34314575 C12.633165,1.95262146 13.26633,1.95262146 13.6568542,2.34314575 Z" />
    <path fill-opacity=".55"
      d="M8,0 C8.55228475,0 9,0.44771525 9,1 L9,4 C9,4.55228475 8.55228475,5 8,5 C7.44771525,5 7,4.55228475 7,4 L7,1 C7,0.44771525 7.44771525,0 8,0 Z" />
  </g>
</svg>