<svg width="22.8711" height="17.6855">
       <g>
              <rect height="17.6855" opacity="0" width="22.8711" x="0" y="0" />
              <path d="M2.88086 17.6855L19.9902 17.6855Q21.4258 17.6855 22.1484 16.9629Q22.8711 16.2402 22.8711 14.834L22.8711 2.85156Q22.8711 1.44531 22.1484 0.722656Q21.4258 0 19.9902 0L2.88086 0Q1.44531 0 0.722656 0.717773Q0 1.43555 0 2.85156L0 14.834Q0 16.25 0.722656 16.9678Q1.44531 17.6855 2.88086 17.6855Z"
                     fill="rgba(255,255,255,0.55)" />
              <path d="M5.51758 12.998Q5.26367 12.998 5.11719 12.8418Q4.9707 12.6855 4.9707 12.4121L4.9707 5.83008L4.91211 5.83008L3.53516 6.71875Q3.39844 6.81641 3.32031 6.83594Q3.24219 6.85547 3.16406 6.85547Q3.00781 6.85547 2.89062 6.7334Q2.77344 6.61133 2.77344 6.44531Q2.77344 6.21094 2.98828 6.05469L4.73633 4.89258Q4.96094 4.74609 5.11719 4.68262Q5.27344 4.61914 5.46875 4.61914Q5.74219 4.61914 5.89844 4.77539Q6.05469 4.93164 6.05469 5.22461L6.05469 12.4121Q6.05469 12.6953 5.9082 12.8467Q5.76172 12.998 5.51758 12.998ZM8.33008 12.8809Q8.0957 12.8809 7.94922 12.7539Q7.80273 12.627 7.80273 12.4023Q7.80273 12.1777 7.98828 11.9629L10.9668 8.74023Q11.4062 8.26172 11.7041 7.82715Q12.002 7.39258 12.002 6.91406Q12.002 6.28906 11.5723 5.91309Q11.1426 5.53711 10.4395 5.53711Q9.72656 5.53711 9.29199 5.93262Q8.85742 6.32812 8.73047 6.83594Q8.65234 7.01172 8.53027 7.11426Q8.4082 7.2168 8.21289 7.2168Q7.98828 7.2168 7.86621 7.08984Q7.74414 6.96289 7.74414 6.74805Q7.74414 6.66016 7.75391 6.5918Q7.76367 6.52344 7.7832 6.42578Q7.96875 5.64453 8.70605 5.12695Q9.44336 4.60938 10.4004 4.60938Q11.582 4.60938 12.2998 5.22461Q13.0176 5.83984 13.0176 6.8457Q13.0176 7.51953 12.666 8.09082Q12.3145 8.66211 11.6699 9.36523L9.33594 11.9043L9.33594 11.9434L12.9102 11.9434Q13.1348 11.9434 13.2666 12.0703Q13.3984 12.1973 13.3984 12.4023Q13.3984 12.6074 13.2666 12.7441Q13.1348 12.8809 12.9102 12.8809ZM17.041 13.0078Q16.3672 13.0078 15.7764 12.7881Q15.1855 12.5684 14.7803 12.1777Q14.375 11.7871 14.2773 11.2793Q14.2578 11.1426 14.2578 11.0254Q14.2578 10.8008 14.3799 10.6592Q14.502 10.5176 14.7363 10.5176Q15.0977 10.5176 15.2344 10.8984Q15.4004 11.4551 15.8838 11.7773Q16.3672 12.0996 17.0605 12.0996Q17.9004 12.0996 18.418 11.6797Q18.9355 11.2598 18.9355 10.6055Q18.9355 9.96094 18.4277 9.5459Q17.9199 9.13086 17.1289 9.13086L16.4258 9.13086Q16.2305 9.13086 16.1035 9.00391Q15.9766 8.87695 15.9766 8.68164Q15.9766 8.47656 16.1035 8.35449Q16.2305 8.23242 16.4258 8.23242L17.0605 8.23242Q17.7441 8.23242 18.2031 7.82715Q18.6621 7.42188 18.6621 6.82617Q18.6621 6.23047 18.2227 5.87402Q17.7832 5.51758 17.0703 5.51758Q16.4258 5.51758 15.9717 5.84473Q15.5176 6.17188 15.3906 6.70898Q15.2832 7.09961 14.9023 7.09961Q14.6875 7.09961 14.5557 6.96777Q14.4238 6.83594 14.4238 6.63086Q14.4238 6.5332 14.4336 6.46484Q14.4434 6.39648 14.4434 6.30859Q14.5996 5.53711 15.332 5.06836Q16.0645 4.59961 17.0801 4.59961Q18.2227 4.59961 18.96 5.19531Q19.6973 5.79102 19.6973 6.70898Q19.6973 7.41211 19.2432 7.9541Q18.7891 8.49609 18.1152 8.62305L18.1152 8.64258Q18.916 8.73047 19.4531 9.29199Q19.9902 9.85352 19.9902 10.6348Q19.9902 11.6992 19.1699 12.3535Q18.3496 13.0078 17.041 13.0078Z"
                     fill="#ffffff" />
       </g>
</svg>