<svg width="23.7891" height="19.4043">
       <g>
              <rect height="19.4043" opacity="0" width="23.7891" x="0" y="0" />
              <path d="M2.28516 16.4258L21.5039 16.4258Q22.6465 16.4258 23.2178 15.8643Q23.7891 15.3027 23.7891 14.1406L23.7891 2.89062Q23.7891 1.72852 23.2178 1.16699Q22.6465 0.605469 21.5039 0.605469L2.28516 0.605469Q1.15234 0.605469 0.576172 1.16699Q0 1.72852 0 2.89062L0 14.1406Q0 15.3027 0.576172 15.8643Q1.15234 16.4258 2.28516 16.4258ZM7.08984 19.4043L16.6992 19.4043Q16.9434 19.4043 17.1289 19.2285Q17.3145 19.0527 17.3145 18.7891Q17.3145 18.5449 17.1289 18.3643Q16.9434 18.1836 16.6992 18.1836L7.08984 18.1836Q6.83594 18.1836 6.65527 18.3643Q6.47461 18.5449 6.47461 18.7891Q6.47461 19.0527 6.65527 19.2285Q6.83594 19.4043 7.08984 19.4043Z"
                     fill="rgba(255,255,255,0.55)" />
              <path d="M8.92578 12.9297Q8.67188 12.9297 8.53027 12.7637Q8.38867 12.5977 8.38867 12.3145L8.38867 10.9863L4.84375 10.9863Q4.46289 10.9863 4.24805 10.7861Q4.0332 10.5859 4.0332 10.2441Q4.0332 10.0781 4.07715 9.92188Q4.12109 9.76562 4.23828 9.59961Q4.52148 9.11133 4.92676 8.49609Q5.33203 7.88086 5.77637 7.21191Q6.2207 6.54297 6.65527 5.89844Q7.08984 5.25391 7.45117 4.72656Q7.67578 4.38477 7.93945 4.2334Q8.20312 4.08203 8.58398 4.08203Q8.98438 4.08203 9.2334 4.30176Q9.48242 4.52148 9.48242 4.88281L9.48242 10.0098L10.3809 10.0098Q10.5957 10.0098 10.7324 10.1465Q10.8691 10.2832 10.8691 10.498Q10.8691 10.7227 10.7324 10.8545Q10.5957 10.9863 10.3809 10.9863L9.48242 10.9863L9.48242 12.3145Q9.48242 12.5977 9.33594 12.7637Q9.18945 12.9297 8.92578 12.9297ZM8.38867 10.0098L8.38867 5.09766L8.32031 5.09766Q8.05664 5.48828 7.72461 5.99121Q7.39258 6.49414 7.02637 7.04102Q6.66016 7.58789 6.30859 8.125Q5.95703 8.66211 5.6543 9.13574Q5.35156 9.60938 5.15625 9.95117L5.15625 10.0098ZM12.8906 12.8906Q12.6367 12.8906 12.4902 12.7246Q12.3438 12.5586 12.3438 12.2754L12.3438 4.76562Q12.3438 4.48242 12.4902 4.31641Q12.6367 4.15039 12.8906 4.15039Q13.1641 4.15039 13.3057 4.31152Q13.4473 4.47266 13.4473 4.76562L13.4473 8.45703L13.5449 8.45703L17.5781 4.39453Q17.7051 4.25781 17.8027 4.2041Q17.9004 4.15039 18.0371 4.15039Q18.2422 4.15039 18.3887 4.28223Q18.5352 4.41406 18.5352 4.61914Q18.5352 4.73633 18.4961 4.83398Q18.457 4.93164 18.3594 5.01953L15.5078 7.92969L18.6133 11.9238Q18.6816 12.0215 18.7305 12.1338Q18.7793 12.2461 18.7793 12.3633Q18.7793 12.5879 18.6279 12.7393Q18.4766 12.8906 18.2422 12.8906Q18.0957 12.8906 17.9736 12.8223Q17.8516 12.7539 17.7344 12.5977L14.6973 8.64258L13.4473 9.93164L13.4473 12.2754Q13.4473 12.5684 13.3057 12.7295Q13.1641 12.8906 12.8906 12.8906Z"
                     fill="#ffffff" />
       </g>
</svg>