<svg width="19.5898" height="19.5996">
       <g>
              <rect height="19.5996" opacity="0" width="19.5898" x="0" y="0" />
              <path d="M9.79492 19.5898Q11.8066 19.5898 13.5791 18.8232Q15.3516 18.0566 16.7041 16.7041Q18.0566 15.3516 18.8232 13.5791Q19.5898 11.8066 19.5898 9.79492Q19.5898 7.7832 18.8232 6.01074Q18.0566 4.23828 16.7041 2.88574Q15.3516 1.5332 13.5742 0.766602Q11.7969 0 9.78516 0Q7.77344 0 6.00098 0.766602Q4.22852 1.5332 2.88086 2.88574Q1.5332 4.23828 0.766602 6.01074Q0 7.7832 0 9.79492Q0 11.8066 0.766602 13.5791Q1.5332 15.3516 2.88574 16.7041Q4.23828 18.0566 6.01074 18.8232Q7.7832 19.5898 9.79492 19.5898Z"
                     fill="rgba(255,255,255,0.55)" />
              <path d="M6.52344 14.3945Q6.25 14.3945 6.09375 14.2432Q5.9375 14.0918 5.9375 13.8574Q5.9375 13.7695 5.95215 13.6768Q5.9668 13.584 6.01562 13.457L8.92578 5.69336Q9.16016 5.07812 9.78516 5.07812Q10.4199 5.07812 10.6543 5.69336L13.5645 13.457Q13.6133 13.584 13.6279 13.6768Q13.6426 13.7695 13.6426 13.8574Q13.6426 14.0918 13.4814 14.2432Q13.3203 14.3945 13.0664 14.3945Q12.8516 14.3945 12.7002 14.2822Q12.5488 14.1699 12.4609 13.8965L11.6309 11.582L7.94922 11.582L7.12891 13.8965Q7.03125 14.1797 6.88477 14.2871Q6.73828 14.3945 6.52344 14.3945ZM8.28125 10.6055L11.2988 10.6055L9.83398 6.49414L9.74609 6.49414Z"
                     fill="#ffffff" />
       </g>
</svg>