<svg width="23.1621" height="18.5724">
       <g>
              <rect height="18.5724" opacity="0" width="23.1621" x="0" y="0" />
              <path d="M7.34146 15.3703L6.81366 14.6162Q6.3063 14.9289 5.71167 15.0996Q5.11703 15.2704 4.46075 15.2704Q3.55133 15.2704 2.85446 14.9524Q2.15759 14.6344 1.76666 14.0645Q1.37573 13.4946 1.37573 12.7322Q1.37573 11.6393 2.22626 10.9687Q3.07678 10.2982 4.69177 10.1823L5.32288 10.1366L5.10864 9.05655L4.5192 9.10919Q2.32361 9.2923 1.1618 10.226Q0 11.1597 0 12.767Q0 13.8605 0.531082 14.6843Q1.06216 15.5081 2.00554 15.9731Q2.94891 16.438 4.19128 16.438Q5.0708 16.438 5.88539 16.153Q6.69998 15.8681 7.34146 15.3703ZM6.58783 4.7261L7.31537 3.67111Q6.45493 3.36395 5.35645 3.36395Q4.23004 3.36395 3.30162 3.70064Q2.3732 4.03732 1.71654 4.63371Q1.05988 5.2301 0.748291 6.01456Q0.662079 6.21124 0.606155 6.42189Q0.550232 6.63254 0.550232 6.79092Q0.550232 7.07718 0.718842 7.24579Q0.887451 7.4144 1.15128 7.4144Q1.56296 7.4144 1.7276 7.02133Q2.16507 5.74829 3.07625 5.15671Q3.98743 4.56512 5.32944 4.56512Q5.99182 4.56512 6.58783 4.7261Z"
                     fill="rgba(255,255,255,0.55)" />
              <path d="M13.8809 18.5626Q15.7849 18.5626 17.4621 17.834Q19.1393 17.1054 20.4221 15.8225Q21.705 14.5396 22.4335 12.8591Q23.1621 11.1786 23.1621 9.28131Q23.1621 7.38403 22.4302 5.70496Q21.6983 4.02588 20.4139 2.74155Q19.1295 1.45721 17.449 0.728607Q15.7684 0 13.8712 0Q11.9739 0 10.2948 0.728607Q8.61572 1.45721 7.3362 2.7401Q6.05667 4.02298 5.32814 5.70015Q4.59961 7.37732 4.59961 9.28131Q4.59961 11.1786 5.32814 12.8591Q6.05667 14.5396 7.33955 15.8225Q8.62244 17.1054 10.303 17.834Q11.9836 18.5626 13.8809 18.5626ZM13.8809 17.337Q12.2009 17.337 10.7418 16.7165Q9.28268 16.0959 8.1794 14.9925Q7.07611 13.8892 6.45546 12.4252Q5.83481 10.9613 5.83481 9.28131Q5.83481 7.60132 6.45546 6.13739Q7.07611 4.67346 8.17451 3.5701Q9.27292 2.46674 10.732 1.8428Q12.1912 1.21887 13.8712 1.21887Q15.5481 1.21887 17.012 1.8428Q18.476 2.46674 19.5808 3.5701Q20.6856 4.67346 21.3096 6.13739Q21.9336 7.60132 21.9434 9.28131Q21.9434 10.9583 21.3242 12.4223Q20.7051 13.8863 19.6003 14.9911Q18.4955 16.0959 17.0282 16.7165Q15.5609 17.337 13.8809 17.337ZM14.8045 17.8108L16.3918 17.7974L16.3918 6.83167Q16.3918 5.31433 15.7917 4.1748Q15.1917 3.03528 14.0656 2.35405Q12.9396 1.67282 11.3692 1.53732Q11.0587 1.51337 10.7457 1.51054Q10.4327 1.50772 10.1239 1.51917L8.42026 3.2135Q8.72833 3.1134 9.05563 3.05061Q9.38293 2.98782 9.73618 2.95555Q10.0894 2.92328 10.4854 2.92328Q12.4861 2.92328 13.6064 4.00017Q14.7267 5.07706 14.7267 6.98654L14.7267 8.42209L9.45282 8.77335Q7.02011 8.94028 5.62057 9.91806L5.96039 11.6522Q6.29944 11.2097 6.83044 10.8829Q7.36145 10.5562 8.07434 10.3563Q8.78723 10.1564 9.67178 10.0888L14.7267 9.73083L14.7267 11.8068Q14.7267 12.7136 14.3883 13.5157Q14.0498 14.3178 13.4431 14.9551Q12.8365 15.5923 12.015 16.0092Q11.1935 16.4261 10.2342 16.5623L11.5669 17.6003Q12.6669 17.2018 13.4951 16.4852Q14.3233 15.7686 14.7139 14.836L14.8045 14.836Z"
                     fill="rgba(255,255,255,0.55)" />
       </g>
</svg>