<svg width="17.6855" height="17.7051">
       <g>
              <rect height="17.7051" opacity="0" width="17.6855" x="0" y="0" />
              <path d="M2.88086 17.7051L14.8047 17.7051Q16.2305 17.7051 16.958 16.9873Q17.6855 16.2695 17.6855 14.8535L17.6855 2.88086Q17.6855 1.46484 16.958 0.742188Q16.2305 0.0195312 14.8047 0.0195312L2.88086 0.0195312Q1.44531 0.0195312 0.722656 0.737305Q0 1.45508 0 2.88086L0 14.8535Q0 16.2695 0.722656 16.9873Q1.44531 17.7051 2.88086 17.7051Z"
                     fill="rgba(255,255,255,0.55)" />
              <path d="M5.57617 13.4473Q5.30273 13.4473 5.14648 13.2959Q4.99023 13.1445 4.99023 12.9102Q4.99023 12.8223 5.00488 12.7295Q5.01953 12.6367 5.06836 12.5098L7.97852 4.74609Q8.21289 4.13086 8.83789 4.13086Q9.47266 4.13086 9.70703 4.74609L12.6172 12.5098Q12.666 12.6367 12.6807 12.7295Q12.6953 12.8223 12.6953 12.9102Q12.6953 13.1445 12.5342 13.2959Q12.373 13.4473 12.1191 13.4473Q11.9043 13.4473 11.7529 13.335Q11.6016 13.2227 11.5137 12.9492L10.6836 10.6348L7.00195 10.6348L6.18164 12.9492Q6.08398 13.2324 5.9375 13.3398Q5.79102 13.4473 5.57617 13.4473ZM7.33398 9.6582L10.3516 9.6582L8.88672 5.54688L8.79883 5.54688Z"
                     fill="#ffffff" />
       </g>
</svg>