<svg width="19.7609" height="19.7736">
       <g>
              <rect height="19.7736" opacity="0" width="19.7609" x="0" y="0" />
              <path d="M3.62106 18.8097Q3.44193 19.0053 3.52997 19.2322Q3.61801 19.4591 3.89328 19.4591L15.8299 19.4591Q16.105 19.4591 16.1916 19.2307Q16.2782 19.0024 16.1089 18.8097L10.2104 12.1397Q10.0716 11.9807 9.86153 11.9807Q9.65149 11.9807 9.51279 12.1397Z"
                     fill="rgba(255,255,255,0.55)" />
              <path d="M5.68359 9.8819Q5.68359 10.6413 5.94238 11.329Q6.20117 12.0166 6.66687 12.5679Q6.82449 12.7585 6.98959 12.5648L7.32742 12.2043Q7.46918 12.0566 7.34085 11.8689Q7.01401 11.4632 6.82983 10.9528Q6.64566 10.4425 6.64566 9.8819Q6.64566 8.99902 7.0871 8.26378Q7.52853 7.52853 8.26378 7.08855Q8.99902 6.64856 9.8819 6.64856Q10.7619 6.64856 11.4971 7.08855Q12.2324 7.52853 12.6738 8.26378Q13.1152 8.99902 13.1152 9.8819Q13.1152 10.4425 12.9311 10.9528Q12.7469 11.4632 12.4199 11.8719Q12.2885 12.0566 12.4304 12.2171L12.7652 12.5679Q12.9364 12.7652 13.091 12.5708Q13.5597 12.0166 13.8185 11.3304Q14.0773 10.6442 14.0773 9.8819Q14.0773 8.73352 13.508 7.77931Q12.9387 6.8251 11.9878 6.25435Q11.037 5.68359 9.8819 5.68359Q8.72375 5.68359 7.77298 6.25435Q6.8222 6.8251 6.2529 7.77931Q5.68359 8.73352 5.68359 9.8819Z"
                     fill="rgba(255,255,255,0.55)" />
              <path d="M2.8418 9.8819Q2.8418 11.2859 3.35938 12.5271Q3.87695 13.7683 4.7821 14.72Q4.94049 14.8978 5.11459 14.7169L5.43594 14.3558Q5.59052 14.2079 5.42618 14.0234Q4.67026 13.2045 4.23706 12.1424Q3.80386 11.0803 3.80386 9.8819Q3.80386 8.63693 4.27834 7.5367Q4.75281 6.43646 5.58975 5.59792Q6.4267 4.75937 7.52701 4.28307Q8.62732 3.80676 9.8819 3.80676Q11.1269 3.80676 12.2272 4.28307Q13.3275 4.75937 14.1678 5.59792Q15.0081 6.43646 15.4826 7.5367Q15.957 8.63693 15.957 9.8819Q15.957 11.0803 15.5238 12.1409Q15.0906 13.2014 14.3347 14.0137Q14.183 14.1914 14.328 14.3491L14.653 14.7169Q14.8174 14.9008 14.9847 14.72Q15.8839 13.7714 16.4015 12.5286Q16.9191 11.2859 16.9191 9.8819Q16.9191 8.43155 16.3715 7.15874Q15.824 5.88593 14.8543 4.91631Q13.8846 3.94669 12.6085 3.39424Q11.3324 2.8418 9.8819 2.8418Q8.42178 2.8418 7.14905 3.39424Q5.87631 3.94669 4.90662 4.91631Q3.93692 5.88593 3.38936 7.15874Q2.8418 8.43155 2.8418 9.8819Z"
                     fill="rgba(255,255,255,0.55)" />
              <path d="M0 9.8819Q0 11.9206 0.776367 13.7218Q1.55273 15.5231 2.88834 16.8617Q3.06839 17.0395 3.22006 16.852L3.54141 16.478Q3.68927 16.3136 3.53165 16.1554Q2.33932 14.9428 1.64581 13.3241Q0.952301 11.7053 0.952301 9.8819Q0.952301 8.05099 1.64986 6.43806Q2.34741 4.82513 3.57986 3.59108Q4.81232 2.35703 6.43021 1.65802Q8.0481 0.959015 9.8819 0.959015Q11.7128 0.959015 13.3307 1.65802Q14.9486 2.35703 16.181 3.59108Q17.4135 4.82513 18.111 6.43806Q18.8086 8.05099 18.8086 9.8819Q18.8086 11.7053 18.1117 13.3225Q17.4149 14.9397 16.2292 16.1493Q16.0686 16.3167 16.2195 16.478L16.5408 16.8459Q16.7015 17.0364 16.8665 16.8587Q18.2013 15.5261 18.9811 13.7234Q19.7609 11.9206 19.7609 9.8819Q19.7609 7.84866 18.9936 6.06163Q18.2263 4.2746 16.866 2.911Q15.5057 1.54739 13.7154 0.773697Q11.925 0 9.8819 0Q7.83585 0 6.04553 0.773697Q4.25522 1.54739 2.8949 2.911Q1.53458 4.2746 0.767288 6.06163Q0 7.84866 0 9.8819Z"
                     fill="rgba(255,255,255,0.55)" />
       </g>
</svg>