<svg width="19.5898" height="19.5996">
       <g>
              <rect height="19.5996" opacity="0" width="19.5898" x="0" y="0" />
              <path d="M9.79492 19.5996Q11.8066 19.5996 13.5791 18.833Q15.3516 18.0664 16.7041 16.7139Q18.0566 15.3613 18.8232 13.5889Q19.5898 11.8164 19.5898 9.80469Q19.5898 7.79297 18.8232 6.02051Q18.0566 4.24805 16.7041 2.89551Q15.3516 1.54297 13.5742 0.776367Q11.7969 0.00976562 9.78516 0.00976562Q7.77344 0.00976562 6.00098 0.776367Q4.22852 1.54297 2.88086 2.89551Q1.5332 4.24805 0.766602 6.02051Q0 7.79297 0 9.80469Q0 11.8164 0.766602 13.5889Q1.5332 15.3613 2.88574 16.7139Q4.23828 18.0664 6.01074 18.833Q7.7832 19.5996 9.79492 19.5996Z"
                     fill="rgba(255,255,255,0.55)" />
              <path d="M12.7637 14.9316L6.80664 14.9316Q6.5918 14.9316 6.51367 14.7461Q6.43555 14.5605 6.57227 14.4043L9.52148 11.0645Q9.62891 10.957 9.79492 10.957Q9.96094 10.957 10.0586 11.0645L12.998 14.4043Q13.1445 14.5605 13.0615 14.7461Q12.9785 14.9316 12.7637 14.9316ZM14.4531 5.5957Q14.9414 5.5957 15.2197 5.86914Q15.498 6.14258 15.498 6.63086L15.498 12.0312Q15.498 12.5195 15.2148 12.793Q14.9316 13.0664 14.4531 13.0664L12.7734 13.0664L12.0312 12.2266L14.375 12.2266Q14.6191 12.2266 14.6191 11.9727L14.6191 6.68945Q14.6191 6.43555 14.375 6.43555L5.20508 6.43555Q4.96094 6.43555 4.96094 6.68945L4.96094 11.9727Q4.96094 12.2266 5.20508 12.2266L7.54883 12.2266L6.80664 13.0664L5.11719 13.0664Q4.63867 13.0664 4.36035 12.793Q4.08203 12.5195 4.08203 12.0312L4.08203 6.63086Q4.08203 6.15234 4.36035 5.87402Q4.63867 5.5957 5.11719 5.5957Z"
                     fill="#ffffff" />
       </g>
</svg>