<svg width="19.5898" height="19.5996">
       <g>
              <rect height="19.5996" opacity="0" width="19.5898" x="0" y="0" />
              <path d="M9.79492 19.5898Q11.8066 19.5898 13.5791 18.8232Q15.3516 18.0566 16.7041 16.7041Q18.0566 15.3516 18.8232 13.5791Q19.5898 11.8066 19.5898 9.79492Q19.5898 7.7832 18.8232 6.01074Q18.0566 4.23828 16.7041 2.88574Q15.3516 1.5332 13.5742 0.766602Q11.7969 0 9.78516 0Q7.77344 0 6.00098 0.766602Q4.22852 1.5332 2.88086 2.88574Q1.5332 4.23828 0.766602 6.01074Q0 7.7832 0 9.79492Q0 11.8066 0.766602 13.5791Q1.5332 15.3516 2.88574 16.7041Q4.23828 18.0566 6.01074 18.8232Q7.7832 19.5898 9.79492 19.5898ZM9.79492 18.3203Q8.02734 18.3203 6.47949 17.6611Q4.93164 17.002 3.75977 15.8301Q2.58789 14.6582 1.92871 13.1104Q1.26953 11.5625 1.26953 9.79492Q1.26953 8.02734 1.92871 6.47949Q2.58789 4.93164 3.75977 3.75488Q4.93164 2.57812 6.47461 1.91895Q8.01758 1.25977 9.78516 1.25977Q11.5625 1.25977 13.1104 1.91895Q14.6582 2.57812 15.8301 3.75488Q17.002 4.93164 17.666 6.47949Q18.3301 8.02734 18.3301 9.79492Q18.3301 11.5625 17.666 13.1104Q17.002 14.6582 15.8301 15.8301Q14.6582 17.002 13.1152 17.6611Q11.5723 18.3203 9.79492 18.3203Z"
                     fill="rgba(255,255,255,0.55)" />
              <path d="M6.88477 14.7852L12.7148 14.7852Q12.9297 14.7852 13.0078 14.6045Q13.0859 14.4238 12.9492 14.2676L10.0586 11.0059Q9.9707 10.8887 9.80469 10.8887Q9.63867 10.8887 9.54102 11.0059L6.65039 14.2676Q6.51367 14.4238 6.5918 14.6045Q6.66992 14.7852 6.88477 14.7852Z"
                     fill="rgba(255,255,255,0.55)" />
              <path d="M9.80469 7.58789Q9.19922 7.58789 8.70117 7.89062Q8.20312 8.19336 7.90527 8.69141Q7.60742 9.18945 7.60742 9.79492Q7.60742 10.2148 7.75879 10.5957Q7.91016 10.9766 8.19336 11.2988L8.67188 10.752Q8.30078 10.332 8.30078 9.79492Q8.30078 9.17969 8.74023 8.73535Q9.17969 8.29102 9.80469 8.29102Q10.4199 8.29102 10.8594 8.73535Q11.2988 9.17969 11.2988 9.79492Q11.2988 10.332 10.9277 10.7422L11.4062 11.2891Q12.002 10.6348 12.002 9.79492Q12.002 9.18945 11.7041 8.69141Q11.4062 8.19336 10.9033 7.89062Q10.4004 7.58789 9.80469 7.58789Z"
                     fill="rgba(255,255,255,0.55)" />
              <path d="M9.80469 6.18164Q8.80859 6.18164 7.99316 6.66992Q7.17773 7.1582 6.68457 7.97852Q6.19141 8.79883 6.19141 9.79492Q6.19141 10.5078 6.46973 11.1719Q6.74805 11.8359 7.26562 12.3438L7.73438 11.8164Q7.32422 11.4062 7.10938 10.8838Q6.89453 10.3613 6.89453 9.79492Q6.89453 8.99414 7.29004 8.33008Q7.68555 7.66602 8.34473 7.27051Q9.00391 6.875 9.80469 6.875Q10.5957 6.875 11.2549 7.27051Q11.9141 7.66602 12.3145 8.33008Q12.7148 8.99414 12.7148 9.79492Q12.7148 10.3613 12.4951 10.8887Q12.2754 11.416 11.8652 11.8164L12.334 12.3438Q12.8516 11.8262 13.1299 11.167Q13.4082 10.5078 13.4082 9.79492Q13.4082 8.79883 12.9199 7.97852Q12.4316 7.1582 11.6113 6.66992Q10.791 6.18164 9.80469 6.18164Z"
                     fill="rgba(255,255,255,0.55)" />
              <path d="M9.80469 4.77539Q8.75977 4.77539 7.85645 5.16602Q6.95312 5.55664 6.25977 6.25Q5.56641 6.94336 5.17578 7.85156Q4.78516 8.75977 4.78516 9.79492Q4.78516 10.8203 5.18555 11.7627Q5.58594 12.7051 6.32812 13.4082L6.78711 12.8906Q6.16211 12.2754 5.82031 11.4697Q5.47852 10.6641 5.47852 9.79492Q5.47852 8.61328 6.06445 7.62695Q6.65039 6.64062 7.63184 6.0498Q8.61328 5.45898 9.80469 5.45898Q10.9863 5.45898 11.9678 6.0498Q12.9492 6.64062 13.54 7.62695Q14.1309 8.61328 14.1309 9.79492Q14.1309 10.6641 13.7891 11.4697Q13.4473 12.2754 12.8125 12.8906L13.2715 13.4082Q14.0137 12.7051 14.4189 11.7627Q14.8242 10.8203 14.8242 9.79492Q14.8242 8.75977 14.4287 7.85156Q14.0332 6.94336 13.3447 6.25Q12.6562 5.55664 11.7432 5.16602Q10.8301 4.77539 9.80469 4.77539Z"
                     fill="rgba(255,255,255,0.55)" />
       </g>
</svg>