<svg width="19.5898" height="19.5996">
       <g>
              <rect height="19.5996" opacity="0" width="19.5898" x="0" y="0" />
              <path d="M9.79492 19.5996Q11.8066 19.5996 13.5791 18.833Q15.3516 18.0664 16.7041 16.7139Q18.0566 15.3613 18.8232 13.5889Q19.5898 11.8164 19.5898 9.80469Q19.5898 7.79297 18.8232 6.02051Q18.0566 4.24805 16.7041 2.89551Q15.3516 1.54297 13.5742 0.776367Q11.7969 0.00976562 9.78516 0.00976562Q7.77344 0.00976562 6.00098 0.776367Q4.22852 1.54297 2.88086 2.89551Q1.5332 4.24805 0.766602 6.02051Q0 7.79297 0 9.80469Q0 11.8164 0.766602 13.5889Q1.5332 15.3613 2.88574 16.7139Q4.23828 18.0664 6.01074 18.833Q7.7832 19.5996 9.79492 19.5996Z"
                     fill="rgba(255,255,255,0.55)" />
              <path d="M6.81641 14.8926Q6.60156 14.8926 6.52344 14.707Q6.44531 14.5215 6.58203 14.3652L9.53125 11.0449Q9.63867 10.9277 9.80469 10.9277Q9.9707 10.9277 10.0684 11.0449L13.0078 14.3652Q13.1543 14.5215 13.0713 14.707Q12.9883 14.8926 12.7734 14.8926Z"
                     fill="#ffffff" />
              <path d="M9.79492 7.55859Q10.4102 7.55859 10.918 7.86133Q11.4258 8.16406 11.7334 8.67676Q12.041 9.18945 12.041 9.80469Q12.041 10.6641 11.4355 11.3281L10.9473 10.7715Q11.3184 10.3613 11.3184 9.80469Q11.3184 9.16992 10.8691 8.7207Q10.4199 8.27148 9.79492 8.27148Q9.16992 8.27148 8.7207 8.7207Q8.27148 9.16992 8.27148 9.80469Q8.27148 10.3613 8.64258 10.7715L8.1543 11.3379Q7.86133 11.0156 7.70996 10.6299Q7.55859 10.2441 7.55859 9.80469Q7.55859 9.18945 7.86133 8.67676Q8.16406 8.16406 8.67188 7.86133Q9.17969 7.55859 9.79492 7.55859Z"
                     fill="#ffffff" />
              <path d="M9.79492 6.12305Q10.8105 6.12305 11.6455 6.62109Q12.4805 7.11914 12.9834 7.9541Q13.4863 8.78906 13.4863 9.80469Q13.4863 10.5371 13.1982 11.2061Q12.9102 11.875 12.3926 12.4121L11.9043 11.8652Q12.3242 11.4551 12.5439 10.918Q12.7637 10.3809 12.7637 9.80469Q12.7637 8.98438 12.3584 8.31055Q11.9531 7.63672 11.2793 7.23633Q10.6055 6.83594 9.79492 6.83594Q8.98438 6.83594 8.31055 7.23633Q7.63672 7.63672 7.23145 8.31055Q6.82617 8.98438 6.82617 9.80469Q6.82617 10.3809 7.0459 10.918Q7.26562 11.4551 7.68555 11.8652L7.19727 12.4121Q6.66992 11.8848 6.3916 11.2109Q6.11328 10.5371 6.11328 9.80469Q6.11328 8.78906 6.61133 7.9541Q7.10938 7.11914 7.94922 6.62109Q8.78906 6.12305 9.79492 6.12305Z"
                     fill="#ffffff" />
              <path d="M9.79492 4.67773Q10.8496 4.67773 11.7773 5.07812Q12.7051 5.47852 13.4131 6.18652Q14.1211 6.89453 14.5215 7.82227Q14.9219 8.75 14.9219 9.80469Q14.9219 10.8496 14.5068 11.8115Q14.0918 12.7734 13.3398 13.4863L12.8711 12.959Q13.5059 12.334 13.8574 11.5088Q14.209 10.6836 14.209 9.80469Q14.209 8.60352 13.6084 7.59766Q13.0078 6.5918 12.0068 5.99121Q11.0059 5.39062 9.79492 5.39062Q8.58398 5.39062 7.58301 5.99121Q6.58203 6.5918 5.98633 7.59766Q5.39062 8.60352 5.39062 9.80469Q5.39062 10.6836 5.7373 11.5088Q6.08398 12.334 6.71875 12.959L6.25 13.4863Q5.49805 12.7734 5.08789 11.8115Q4.67773 10.8496 4.67773 9.80469Q4.67773 8.39844 5.37109 7.23145Q6.06445 6.06445 7.22656 5.37109Q8.38867 4.67773 9.79492 4.67773Z"
                     fill="#ffffff" />
       </g>
</svg>