<svg width="19.5898" height="19.5996">
       <g>
              <rect height="19.5996" opacity="0" width="19.5898" x="0" y="0" />
              <path d="M9.79492 19.5996Q11.8066 19.5996 13.5791 18.833Q15.3516 18.0664 16.7041 16.7139Q18.0566 15.3613 18.8232 13.5889Q19.5898 11.8164 19.5898 9.80469Q19.5898 7.79297 18.8232 6.02051Q18.0566 4.24805 16.7041 2.89551Q15.3516 1.54297 13.5742 0.776367Q11.7969 0.00976562 9.78516 0.00976562Q7.77344 0.00976562 6.00098 0.776367Q4.22852 1.54297 2.88086 2.89551Q1.5332 4.24805 0.766602 6.02051Q0 7.79297 0 9.80469Q0 11.8164 0.766602 13.5889Q1.5332 15.3613 2.88574 16.7139Q4.23828 18.0664 6.01074 18.833Q7.7832 19.5996 9.79492 19.5996Z"
                     fill="#ff9f0a" />
              <path d="M16.2793 9.80469Q16.2793 10.2832 15.7227 10.6006Q15.166 10.918 14.3848 10.918L12.2363 10.918Q12.041 10.918 11.9434 10.9619Q11.8457 11.0059 11.7188 11.1426L8.22266 14.9512Q8.03711 15.1562 7.79297 15.1562L7.17773 15.1562Q7.05078 15.1562 6.98242 15.0488Q6.91406 14.9414 6.97266 14.7949L8.73047 10.9082L6.14258 10.6348L5.22461 12.3145Q5.08789 12.5293 4.81445 12.5293L4.58008 12.5293Q4.45312 12.5293 4.375 12.4561Q4.29688 12.3828 4.29688 12.2461L4.29688 7.37305Q4.29688 7.23633 4.375 7.1582Q4.45312 7.08008 4.58008 7.08008L4.81445 7.08008Q5.08789 7.08008 5.22461 7.30469L6.14258 8.98438L8.73047 8.70117L6.97266 4.81445Q6.91406 4.66797 6.98242 4.56055Q7.05078 4.45312 7.17773 4.45312L7.79297 4.45312Q8.03711 4.45312 8.22266 4.6582L11.7188 8.4668Q11.8457 8.60352 11.9434 8.64746Q12.041 8.69141 12.2363 8.69141L14.3848 8.69141Q15.166 8.69141 15.7227 9.00879Q16.2793 9.32617 16.2793 9.80469Z"
                     fill="#ffffff" />
       </g>
</svg>