<svg width="25.2293" height="16.8201">
       <g>
              <rect height="16.8201" opacity="0" width="25.2293" x="0" y="0" />
              <path d="M8.40515 16.8073Q10.1303 16.8073 11.6501 16.1482Q13.1699 15.4892 14.3295 14.3295Q15.489 13.1699 16.1481 11.6501Q16.8071 10.1303 16.8071 8.40515Q16.8071 6.67999 16.1481 5.16022Q15.489 3.64044 14.3328 2.48077Q13.1766 1.32111 11.6568 0.660553Q10.137 0 8.41187 0Q6.68365 0 5.16197 0.660553Q3.64029 1.32111 2.47917 2.48077Q1.31805 3.64044 0.659027 5.16022Q0 6.67999 0 8.40515Q0 10.1303 0.659027 11.6501Q1.31805 13.1699 2.47917 14.3295Q3.64029 15.4892 5.15854 16.1482Q6.67679 16.8073 8.40515 16.8073ZM8.48999 11.3409Q8.05359 11.3409 7.81921 11.4972Q7.58484 11.6534 7.23328 11.6534Q6.87195 11.6534 6.59996 11.3736Q6.32797 11.0938 6.04477 10.6934Q5.7225 10.2209 5.48813 9.54559Q5.25375 8.87024 5.25375 8.17307Q5.25375 7.43774 5.53207 6.93138Q5.81039 6.42502 6.2484 6.16776Q6.6864 5.91049 7.16492 5.91049Q7.53601 5.91049 7.84698 6.07986Q8.15796 6.24924 8.39233 6.24924Q8.62 6.24924 8.96027 6.07498Q9.30054 5.90073 9.73022 5.90073Q9.83765 5.90073 10.1013 5.93338Q10.365 5.96603 10.676 6.12228Q10.9869 6.27853 11.2378 6.64291Q11.2183 6.66916 11.0147 6.82541Q10.8112 6.98166 10.6174 7.29416Q10.4236 7.60666 10.4236 8.10181Q10.4236 8.66135 10.6711 8.99681Q10.9186 9.33228 11.171 9.48212Q11.4233 9.63196 11.4362 9.64172Q11.4362 9.65149 11.3141 9.98352Q11.192 10.3156 10.9186 10.7129Q10.6744 11.0577 10.3961 11.3507Q10.1178 11.6437 9.73022 11.6437Q9.4696 11.6437 9.30695 11.5704Q9.14429 11.4972 8.96851 11.4191Q8.79272 11.3409 8.48999 11.3409ZM9.46655 5.26596Q9.27429 5.50034 8.98468 5.65659Q8.69507 5.81284 8.43445 5.81284Q8.40515 5.81284 8.37921 5.80795Q8.35327 5.80307 8.32703 5.80307Q8.32703 5.78354 8.32214 5.74448Q8.31726 5.70541 8.31726 5.66635Q8.31726 5.36362 8.4491 5.09506Q8.58093 4.82651 8.73718 4.63425Q8.94897 4.39011 9.25659 4.22745Q9.56421 4.06479 9.85718 4.05807Q9.86694 4.09714 9.86694 4.20456Q9.86694 4.50424 9.75464 4.77768Q9.64233 5.05112 9.46655 5.26596Z"
                     fill="rgba(255,255,255,0.55)" />
              <path d="M19.0584 12.1594Q19.245 12.3692 19.5317 12.3628Q19.8184 12.3564 20.0148 12.1092Q20.6616 11.3574 21.0226 10.4078Q21.3837 9.45816 21.3837 8.40515Q21.3837 7.35214 21.0226 6.40099Q20.6616 5.44983 20.0148 4.70108Q19.8184 4.45084 19.5317 4.44595Q19.245 4.44107 19.0584 4.65088Q18.8815 4.85107 18.9284 5.09239Q18.9752 5.33371 19.1582 5.57434Q19.6642 6.12427 19.9142 6.85814Q20.1642 7.59201 20.1642 8.40515Q20.1642 9.21829 19.9142 9.95216Q19.6642 10.686 19.1582 11.236Q18.9752 11.4668 18.9284 11.713Q18.8815 11.9592 19.0584 12.1594Z"
                     fill="rgba(255,255,255,0.55)" />
              <path d="M21.7413 14.9002Q21.9212 15.107 22.1978 15.0987Q22.4744 15.0905 22.6842 14.8634Q23.8928 13.5808 24.5611 11.9236Q25.2293 10.2664 25.2293 8.40515Q25.2293 6.54388 24.5611 4.88182Q23.8928 3.21976 22.6842 1.94687Q22.4744 1.7131 22.1978 1.7067Q21.9212 1.70029 21.7413 1.9101Q21.5645 2.11029 21.6061 2.35832Q21.6476 2.60635 21.8477 2.8334Q22.8795 3.93631 23.4431 5.35851Q24.0068 6.7807 24.0068 8.40515Q24.0068 10.0198 23.4431 11.4469Q22.8795 12.874 21.8477 13.9769Q21.6476 14.2009 21.6061 14.4505Q21.5645 14.7 21.7413 14.9002Z"
                     fill="rgba(255,255,255,0.55)" />
       </g>
</svg>