<svg width="25.2293" height="16.8201">
       <g>
              <rect height="16.8201" opacity="0" width="25.2293" x="0" y="0" />
              <path d="M8.40515 16.8073Q10.1303 16.8073 11.6501 16.1482Q13.1699 15.4892 14.3295 14.3295Q15.489 13.1699 16.1481 11.6501Q16.8071 10.1303 16.8071 8.40515Q16.8071 6.67999 16.1481 5.16022Q15.489 3.64044 14.3328 2.48077Q13.1766 1.32111 11.6568 0.660553Q10.137 0 8.41187 0Q6.68365 0 5.16197 0.660553Q3.64029 1.32111 2.47917 2.48077Q1.31805 3.64044 0.659027 5.16022Q0 6.67999 0 8.40515Q0 10.1303 0.659027 11.6501Q1.31805 13.1699 2.47917 14.3295Q3.64029 15.4892 5.15854 16.1482Q6.67679 16.8073 8.40515 16.8073ZM8.41187 15.6079Q6.91299 15.6079 5.60799 15.049Q4.30298 14.4901 3.31497 13.5005Q2.32697 12.511 1.77132 11.2041Q1.21567 9.89731 1.21277 8.40515Q1.21277 6.90628 1.77322 5.60127Q2.33368 4.29626 3.32169 3.30826Q4.30969 2.32025 5.6147 1.76468Q6.91971 1.20911 8.41553 1.20911Q9.90768 1.20911 11.2093 1.76468Q12.511 2.32025 13.4956 3.30826Q14.4801 4.29626 15.0407 5.60127Q15.6012 6.90628 15.6012 8.40515Q15.6012 9.89731 15.044 11.2041Q14.4868 12.511 13.4989 13.5005Q12.511 14.4901 11.2059 15.049Q9.90082 15.6079 8.41187 15.6079ZM8.48328 11.2631Q8.92563 11.2631 9.12735 11.4111Q9.32907 11.559 9.70322 11.559Q10.0871 11.559 10.3587 11.2695Q10.6303 10.9799 10.8676 10.6418Q11.1411 10.2512 11.2598 9.92584Q11.3785 9.60052 11.3785 9.59076Q11.3589 9.58099 11.1133 9.43787Q10.8676 9.29474 10.6254 8.96461Q10.3831 8.63449 10.3831 8.08151Q10.3831 7.59995 10.5751 7.29424Q10.7671 6.98853 10.9638 6.83228Q11.1606 6.67603 11.1801 6.65649Q10.9331 6.29883 10.6288 6.14594Q10.3246 5.99304 10.0691 5.95886Q9.81369 5.92468 9.70322 5.92468Q9.29001 5.92468 8.955 6.09375Q8.62 6.26282 8.39233 6.26282Q8.15796 6.26282 7.85706 6.09863Q7.55615 5.93445 7.18201 5.93445Q6.49231 5.93445 5.90523 6.502Q5.31815 7.06955 5.31815 8.15292Q5.31815 8.83286 5.54581 9.49806Q5.77347 10.1633 6.08902 10.6223Q6.37222 11.019 6.63887 11.2939Q6.90552 11.5688 7.26013 11.5688Q7.59521 11.5688 7.82776 11.4159Q8.0603 11.2631 8.48328 11.2631ZM9.44626 5.3064Q9.61533 5.09827 9.72763 4.82674Q9.83994 4.55521 9.83994 4.26224Q9.83994 4.16153 9.83017 4.12247Q9.54391 4.12247 9.23965 4.28513Q8.93539 4.44778 8.73718 4.68506Q8.58093 4.87061 8.45245 5.13733Q8.32397 5.40405 8.32397 5.69702Q8.32397 5.73608 8.32886 5.77667Q8.33374 5.81726 8.33374 5.82703Q8.35327 5.82703 8.37921 5.83344Q8.40515 5.83984 8.43445 5.83984Q8.68835 5.83984 8.97453 5.69031Q9.26071 5.54077 9.44626 5.3064Z"
                     fill="rgba(255,255,255,0.55)" />
              <path d="M19.0584 12.1594Q19.245 12.3692 19.5317 12.3628Q19.8184 12.3564 20.0148 12.1092Q20.6616 11.3574 21.0226 10.4078Q21.3837 9.45816 21.3837 8.40515Q21.3837 7.35214 21.0226 6.40099Q20.6616 5.44983 20.0148 4.70108Q19.8184 4.45084 19.5317 4.44595Q19.245 4.44107 19.0584 4.65088Q18.8815 4.85107 18.9284 5.09239Q18.9752 5.33371 19.1582 5.57434Q19.6642 6.12427 19.9142 6.85814Q20.1642 7.59201 20.1642 8.40515Q20.1642 9.21829 19.9142 9.95216Q19.6642 10.686 19.1582 11.236Q18.9752 11.4668 18.9284 11.713Q18.8815 11.9592 19.0584 12.1594Z"
                     fill="rgba(255,255,255,0.55)" />
              <path d="M21.7413 14.9002Q21.9212 15.107 22.1978 15.0987Q22.4744 15.0905 22.6842 14.8634Q23.8928 13.5808 24.5611 11.9236Q25.2293 10.2664 25.2293 8.40515Q25.2293 6.54388 24.5611 4.88182Q23.8928 3.21976 22.6842 1.94687Q22.4744 1.7131 22.1978 1.7067Q21.9212 1.70029 21.7413 1.9101Q21.5645 2.11029 21.6061 2.35832Q21.6476 2.60635 21.8477 2.8334Q22.8795 3.93631 23.4431 5.35851Q24.0068 6.7807 24.0068 8.40515Q24.0068 10.0198 23.4431 11.4469Q22.8795 12.874 21.8477 13.9769Q21.6476 14.2009 21.6061 14.4505Q21.5645 14.7 21.7413 14.9002Z"
                     fill="rgba(255,255,255,0.55)" />
       </g>
</svg>