<svg width="34.0817" height="21.6049">
       <g>
              <rect height="21.6049" opacity="0" width="34.0817" x="0" y="0" />
              <path d="M17.0375 20.0171Q18.9468 20.0171 20.6215 19.302Q22.2961 18.5869 23.5652 17.3164Q24.8343 16.0458 25.5509 14.3712Q26.2675 12.6965 26.2675 10.7872Q26.2675 8.88077 25.5509 7.20947Q24.8343 5.53818 23.5652 4.26765Q22.2961 2.99713 20.6215 2.27715Q18.9468 1.55716 17.0375 1.55716Q15.1282 1.55716 13.4569 2.27715Q11.7856 2.99713 10.515 4.26765Q9.24438 5.53818 8.52592 7.20947Q7.80746 8.88077 7.80746 10.7872Q7.80746 12.6965 8.52592 14.3712Q9.24438 16.0458 10.515 17.3164Q11.7856 18.5869 13.4569 19.302Q15.1282 20.0171 17.0375 20.0171ZM12.2945 11.747Q12.0688 11.747 11.9173 11.5926Q11.7659 11.4381 11.7659 11.2057Q11.7659 10.986 11.9173 10.8331Q12.0688 10.6802 12.2945 10.6802L16.5053 10.6802L16.5053 4.92752Q16.5053 4.70474 16.6582 4.55338Q16.8111 4.40201 17.0308 4.40201Q17.2632 4.40201 17.4176 4.55338Q17.572 4.70474 17.572 4.92752L17.572 11.2057Q17.572 11.4381 17.4176 11.5926Q17.2632 11.747 17.0308 11.747ZM9.34692 3.87314Q9.45129 3.87314 9.53613 3.84384Q9.62097 3.81454 9.72534 3.73947L12.8818 1.436Q13.123 1.25946 13.123 1.01166Q13.123 0.734558 12.8563 0.493317Q12.5829 0.245514 12.1529 0.122757Q11.723 0 11.2964 0Q10.5492 0 9.95476 0.348053Q9.36035 0.696106 9.00894 1.29082Q8.65753 1.88553 8.65753 2.60422Q8.65753 2.84744 8.69545 3.08502Q8.73337 3.3226 8.80844 3.48557Q8.88351 3.65829 9.02092 3.76572Q9.15833 3.87314 9.34692 3.87314ZM24.7348 3.87314Q24.9167 3.87314 25.0541 3.76236Q25.1915 3.65158 25.2704 3.48557Q25.3455 3.3226 25.3815 3.08502Q25.4175 2.84744 25.4175 2.60422Q25.4175 1.88553 25.0679 1.29082Q24.7183 0.696106 24.1206 0.348053Q23.5228 0 22.7823 0Q22.3489 0 21.9225 0.122757Q21.496 0.245514 21.2225 0.493317Q20.9491 0.734558 20.9491 1.01166Q20.9491 1.25946 21.1969 1.436L24.3533 3.73947Q24.454 3.81454 24.5374 3.84384Q24.6207 3.87314 24.7348 3.87314ZM9.09744 19.7588Q9.27063 19.9319 9.50897 19.9286Q9.74731 19.9252 9.92035 19.752L11.7268 17.9434L10.9264 17.1399L9.10416 18.9523Q8.93402 19.1158 8.93257 19.3526Q8.93112 19.5894 9.09744 19.7588ZM24.9843 19.7588Q25.1508 19.5894 25.1492 19.3526Q25.1477 19.1158 24.9776 18.9523L23.1554 17.1399L22.352 17.9434L24.1516 19.752Q24.3344 19.9252 24.5712 19.9286Q24.808 19.9319 24.9843 19.7588Z"
                     fill="rgba(255,255,255,0.55)" />
              <path d="M6.17096 14.5518Q6.34781 14.3517 6.30096 14.1055Q6.25412 13.8593 6.06812 13.6284Q5.56213 13.0785 5.317 12.3446Q5.07187 11.6107 5.07187 10.7976Q5.07187 9.98444 5.317 9.25056Q5.56213 8.51669 6.06812 7.96677Q6.25412 7.72614 6.30096 7.48482Q6.34781 7.2435 6.17096 7.0433Q5.98434 6.8335 5.69763 6.83838Q5.41092 6.84326 5.21454 7.09351Q4.56467 7.84225 4.20853 8.79341Q3.85239 9.74457 3.85239 10.7976Q3.85239 11.8506 4.20853 12.8002Q4.56467 13.7498 5.21454 14.5016Q5.41092 14.7488 5.69763 14.7552Q5.98434 14.7617 6.17096 14.5518ZM27.9041 14.5518Q28.0907 14.7617 28.3774 14.7552Q28.6641 14.7488 28.8672 14.5016Q29.514 13.7498 29.8717 12.8002Q30.2293 11.8506 30.2293 10.7976Q30.2293 9.74457 29.8717 8.79341Q29.514 7.84225 28.8672 7.09351Q28.6641 6.84326 28.3774 6.83838Q28.0907 6.8335 27.9041 7.0433Q27.7272 7.2435 27.7774 7.48482Q27.8276 7.72614 28.0038 7.96677Q28.5098 8.51669 28.7583 9.25056Q29.0068 9.98444 29.0068 10.7976Q29.0068 11.6107 28.7583 12.3446Q28.5098 13.0785 28.0038 13.6284Q27.8276 13.8593 27.7774 14.1055Q27.7272 14.3517 27.9041 14.5518Z"
                     fill="rgba(255,255,255,0.55)" />
              <path d="M3.48801 17.2926Q3.66486 17.0924 3.62328 16.8429Q3.5817 16.5933 3.3815 16.3693Q2.34985 15.2664 1.78467 13.8393Q1.21948 12.4123 1.21948 10.7976Q1.21948 9.17313 1.78467 7.75093Q2.34985 6.32874 3.3815 5.22583Q3.5817 4.99878 3.62328 4.75075Q3.66486 4.50272 3.48801 4.30252Q3.30811 4.09271 3.0349 4.09912Q2.76169 4.10553 2.54517 4.33929Q1.33652 5.61218 0.668259 7.27425Q0 8.93631 0 10.7976Q0 12.6588 0.668259 14.316Q1.33652 15.9732 2.54517 17.2559Q2.76169 17.4829 3.0349 17.4911Q3.30811 17.4994 3.48801 17.2926ZM30.584 17.2926Q30.7706 17.4994 31.0453 17.4911Q31.32 17.4829 31.5366 17.2559Q32.7452 15.9732 33.4135 14.316Q34.0817 12.6588 34.0817 10.7976Q34.0817 8.93631 33.4135 7.27425Q32.7452 5.61218 31.5366 4.33929Q31.32 4.10553 31.0453 4.09912Q30.7706 4.09271 30.584 4.30252Q30.4071 4.50272 30.4502 4.75075Q30.4933 4.99878 30.7002 5.22583Q31.7252 6.32874 32.2923 7.75093Q32.8593 9.17313 32.8593 10.7976Q32.8593 12.4123 32.2923 13.8393Q31.7252 15.2664 30.7002 16.3693Q30.4933 16.5933 30.4502 16.8429Q30.4071 17.0924 30.584 17.2926Z"
                     fill="rgba(255,255,255,0.55)" />
       </g>
</svg>