<svg width="18.4599" height="21.6635">
       <g>
              <rect height="21.6635" opacity="0" width="18.4599" x="0" y="0" />
              <path d="M9.23004 20.0269Q11.1394 20.0269 12.814 19.3069Q14.4887 18.5869 15.7592 17.3164Q17.0297 16.0458 17.7448 14.3761Q18.4599 12.7063 18.4599 10.797Q18.4599 8.88748 17.7448 7.21283Q17.0297 5.53818 15.7592 4.26918Q14.4887 3.00018 12.814 2.2802Q11.1394 1.56021 9.23004 1.56021Q7.32056 1.56021 5.65079 2.2802Q3.98102 3.00018 2.71049 4.26918Q1.43997 5.53818 0.719986 7.21283Q0 8.88748 0 10.797Q0 12.7063 0.719986 14.3761Q1.43997 16.0458 2.71049 17.3164Q3.98102 18.5869 5.65079 19.3069Q7.32056 20.0269 9.23004 20.0269ZM9.23004 18.7445Q7.58072 18.7445 6.1425 18.1276Q4.70428 17.5107 3.61023 16.4182Q2.51617 15.3256 1.89781 13.8825Q1.27945 12.4394 1.27945 10.797Q1.27945 9.14764 1.89781 7.70943Q2.51617 6.27121 3.61023 5.17715Q4.70428 4.0831 6.1425 3.46474Q7.58072 2.84637 9.23004 2.84637Q10.8725 2.84637 12.3141 3.46474Q13.7556 4.0831 14.8497 5.17715Q15.9438 6.27121 16.5622 7.70943Q17.1806 9.14764 17.1806 10.797Q17.1806 12.4394 16.5622 13.8825Q15.9438 15.3256 14.8497 16.4182Q13.7556 17.5107 12.3141 18.1276Q10.8725 18.7445 9.23004 18.7445ZM1.53931 3.87314Q1.64673 3.87314 1.73012 3.84872Q1.81351 3.82431 1.92093 3.74619L5.07431 1.43906Q5.31845 1.25946 5.31845 1.01166Q5.31845 0.737457 5.04868 0.493317Q4.77158 0.248566 4.34509 0.124283Q3.91861 0 3.48511 0Q2.7446 0 2.14531 0.35141Q1.54602 0.70282 1.19804 1.29417Q0.850067 1.88553 0.850067 2.61398Q0.850067 2.85416 0.887909 3.0899Q0.925751 3.32565 1.00388 3.48862Q1.07605 3.66501 1.21338 3.76907Q1.35071 3.87314 1.53931 3.87314ZM16.9206 3.87314Q17.1092 3.87314 17.2466 3.76572Q17.384 3.65829 17.4658 3.48862Q17.5378 3.33237 17.5739 3.09326Q17.61 2.85416 17.61 2.61398Q17.61 1.88553 17.262 1.29417Q16.9139 0.70282 16.3146 0.35141Q15.7153 0 14.9779 0Q14.5444 0 14.1164 0.124283Q13.6884 0.248566 13.4113 0.493317Q13.1445 0.737457 13.1445 1.01166Q13.1445 1.25946 13.3923 1.43906L16.539 3.74619Q16.6464 3.82431 16.7313 3.84872Q16.8163 3.87314 16.9206 3.87314ZM1.28998 19.7588Q1.4563 19.9319 1.698 19.9319Q1.9397 19.9319 2.11288 19.752L3.92227 17.9434L3.1189 17.1468L1.29669 18.9523Q1.12656 19.1225 1.12503 19.3608Q1.1235 19.5992 1.28998 19.7588ZM17.17 19.7588Q17.3364 19.5992 17.3383 19.3608Q17.3401 19.1225 17.1632 18.9523L15.3412 17.1468L14.5444 17.9434L16.347 19.752Q16.5202 19.9319 16.7619 19.9319Q17.0036 19.9319 17.17 19.7588Z"
                     fill="#ff9f0a" />
              <path d="M4.48685 11.747L9.22318 11.747Q9.45572 11.747 9.61014 11.5926Q9.76456 11.4381 9.76456 11.2125L9.76456 4.93423Q9.76456 4.70474 9.61014 4.55338Q9.45572 4.40201 9.22318 4.40201Q9.0036 4.40201 8.85071 4.55338Q8.69781 4.70474 8.69781 4.93423L8.69781 10.6802L4.48685 10.6802Q4.26422 10.6802 4.11133 10.8347Q3.95844 10.9891 3.95844 11.2125Q3.95844 11.4381 4.11133 11.5926Q4.26422 11.747 4.48685 11.747Z"
                     fill="rgba(255,255,255,0.85)" />
       </g>
</svg>