<svg width="21.9435" height="18.11">
       <g>
              <rect height="18.11" opacity="0" width="21.9435" x="0" y="0" />
              <path d="M0.535278 9.62891L2.98218 9.62891L2.98218 8.5112L0.535278 8.5112Q0.308838 8.5112 0.154419 8.6776Q0 8.84399 0 9.06662Q0 9.28925 0.154419 9.45908Q0.308838 9.62891 0.535278 9.62891ZM9.30161 9.62891L12.6132 9.62891L12.6132 8.5112L9.30161 8.5112ZM18.9641 9.62891L21.4119 9.62891Q21.6345 9.62891 21.789 9.45908Q21.9435 9.28925 21.9435 9.06662Q21.9435 8.84399 21.789 8.6776Q21.6345 8.5112 21.4119 8.5112L18.9641 8.5112Z"
                     fill="rgba(255,255,255,0.55)" />
              <path d="M4.38858 18.11L8.05344 18.11Q8.95142 18.11 9.44366 17.6077Q9.93591 17.1053 9.93591 16.1902L9.93591 1.94305Q9.93591 1.02798 9.44366 0.530853Q8.95142 0.0337219 8.05344 0.0337219L4.38858 0.0337219Q3.4906 0.0337219 2.99835 0.530853Q2.5061 1.02798 2.5061 1.94305L2.5061 16.1902Q2.5061 17.1053 2.99835 17.6077Q3.4906 18.11 4.38858 18.11ZM13.9186 14.7575L17.5835 14.7575Q18.4814 14.7575 18.9752 14.2604Q19.469 13.7633 19.469 12.8482L19.469 5.28503Q19.469 4.36996 18.9752 3.87283Q18.4814 3.3757 17.5835 3.3757L13.9186 3.3757Q13.0139 3.3757 12.5217 3.87283Q12.0294 4.36996 12.0294 5.28503L12.0294 12.8482Q12.0294 13.7633 12.5217 14.2604Q13.0139 14.7575 13.9186 14.7575Z"
                     fill="rgba(255,255,255,0.55)" />
       </g>
</svg>