<svg width="18.0696" height="21.9577">
       <g>
              <rect height="21.9577" opacity="0" width="18.0696" x="0" y="0" />
              <path d="M8.47748 2.92831L9.59518 2.92831L9.59518 0.528564Q9.59518 0.30899 9.42726 0.154495Q9.25934 0 9.0329 0Q8.81027 0 8.64388 0.154495Q8.47748 0.30899 8.47748 0.528564ZM8.47748 12.6581L9.59518 12.6581L9.59518 9.3959L8.47748 9.3959ZM9.0329 21.9435Q9.25934 21.9435 9.42726 21.7891Q9.59518 21.6347 9.59518 21.4119L9.59518 19.0039L8.47748 19.0039L8.47748 21.4119Q8.47748 21.6347 8.64388 21.7891Q8.81027 21.9435 9.0329 21.9435Z"
                     fill="rgba(255,255,255,0.55)" />
              <path d="M5.25131 9.92081L12.8212 9.92081Q13.7296 9.92081 14.2285 9.42703Q14.7275 8.93326 14.7275 8.03833L14.7275 4.37042Q14.7275 3.47549 14.2285 2.9818Q13.7296 2.4881 12.8212 2.4881L5.25131 2.4881Q4.3399 2.4881 3.84094 2.9818Q3.34198 3.47549 3.34198 4.37042L3.34198 8.03833Q3.34198 8.93326 3.84094 9.42703Q4.3399 9.92081 5.25131 9.92081ZM1.90933 19.4441L16.1601 19.4441Q17.0715 19.4441 17.5706 18.9537Q18.0696 18.4633 18.0696 17.5616L18.0696 13.8937Q18.0696 12.9988 17.5706 12.5051Q17.0715 12.0114 16.1601 12.0114L1.90933 12.0114Q0.997925 12.0114 0.498962 12.5051Q0 12.9988 0 13.8937L0 17.5616Q0 18.4633 0.498962 18.9537Q0.997925 19.4441 1.90933 19.4441Z"
                     fill="rgba(255,255,255,0.55)" />
       </g>
</svg>