<svg width="24.507" height="24.7903">
       <g>
              <rect height="24.7903" opacity="0" width="24.507" x="0" y="0" />
              <path d="M15.7726 2.02423Q16.1949 2.02423 16.4898 1.72752Q16.7847 1.43082 16.7847 1.01212Q16.7847 0.5867 16.4898 0.29335Q16.1949 0 15.7726 0Q15.3539 0 15.0556 0.29335Q14.7574 0.5867 14.7574 1.01212Q14.7574 1.43082 15.0556 1.72752Q15.3539 2.02423 15.7726 2.02423ZM21.4391 4.35059Q21.8578 4.35059 22.1545 4.05571Q22.4512 3.76083 22.4512 3.33847Q22.4512 2.91977 22.1545 2.62154Q21.8578 2.3233 21.4391 2.3233Q21.0136 2.3233 20.7169 2.62154Q20.4202 2.91977 20.4202 3.33847Q20.4202 3.76083 20.7169 4.05571Q21.0136 4.35059 21.4391 4.35059ZM23.4949 9.776Q23.9136 9.776 24.2103 9.47769Q24.507 9.17938 24.507 8.75702Q24.507 8.33847 24.2103 8.04024Q23.9136 7.742 23.4949 7.742Q23.0763 7.742 22.7795 8.04024Q22.4828 8.33847 22.4828 8.75702Q22.4828 9.17938 22.7795 9.47769Q23.0763 9.776 23.4949 9.776ZM21.1522 15.4259Q21.5776 15.4259 21.8743 15.1276Q22.171 14.8294 22.171 14.4138Q22.171 13.9885 21.8743 13.6902Q21.5776 13.3919 21.1522 13.3919Q20.7335 13.3919 20.4368 13.6902Q20.1401 13.9885 20.1401 14.4138Q20.1401 14.8294 20.4368 15.1276Q20.7335 15.4259 21.1522 15.4259ZM15.7726 17.2408Q16.1949 17.2408 16.4898 16.9424Q16.7847 16.6441 16.7847 16.2256Q16.7847 15.8032 16.4898 15.5083Q16.1949 15.2135 15.7726 15.2135Q15.3539 15.2135 15.0556 15.5083Q14.7574 15.8032 14.7574 16.2256Q14.7574 16.6441 15.0556 16.9424Q15.3539 17.2408 15.7726 17.2408ZM13.5469 22.2034Q13.9626 22.2034 14.2608 21.9051Q14.559 21.6069 14.559 21.1913Q14.559 20.7726 14.2608 20.4743Q13.9626 20.1761 13.5469 20.1761Q13.1284 20.1761 12.8301 20.4743Q12.5319 20.7726 12.5319 21.1913Q12.5319 21.6069 12.8301 21.9051Q13.1284 22.2034 13.5469 22.2034ZM8.30109 24.5462Q8.71979 24.5462 9.01802 24.248Q9.31625 23.9497 9.31625 23.531Q9.31625 23.1087 9.01802 22.8104Q8.71979 22.5122 8.30109 22.5122Q7.87872 22.5122 7.58385 22.8104Q7.28897 23.1087 7.28897 23.531Q7.28897 23.9497 7.58385 24.248Q7.87872 24.5462 8.30109 24.5462ZM3.35495 22.4609Q3.7735 22.4609 4.07028 22.1642Q4.36707 21.8675 4.36707 21.4488Q4.36707 21.0236 4.07028 20.7268Q3.7735 20.43 3.35495 20.43Q2.92953 20.43 2.63618 20.7268Q2.34283 21.0236 2.34283 21.4488Q2.34283 21.8675 2.63618 22.1642Q2.92953 22.4609 3.35495 22.4609ZM1.01212 17.2572Q1.43753 17.2572 1.73241 16.9624Q2.02728 16.6675 2.02728 16.2451Q2.02728 15.8264 1.73241 15.5282Q1.43753 15.2299 1.01212 15.2299Q0.596466 15.2299 0.298233 15.5282Q0 15.8264 0 16.2451Q0 16.6675 0.298233 16.9624Q0.596466 17.2572 1.01212 17.2572ZM3.35495 12.0503Q3.7735 12.0503 4.07028 11.7536Q4.36707 11.4569 4.36707 11.0382Q4.36707 10.6128 4.07028 10.3161Q3.7735 10.0194 3.35495 10.0194Q2.92953 10.0194 2.63618 10.3161Q2.34283 10.6128 2.34283 11.0382Q2.34283 11.4569 2.63618 11.7536Q2.92953 12.0503 3.35495 12.0503ZM8.30109 9.73694Q8.71979 9.73694 9.01802 9.44016Q9.31625 9.14337 9.31625 8.72482Q9.31625 8.29941 9.01802 8.00262Q8.71979 7.70584 8.30109 7.70584Q7.87872 7.70584 7.58385 8.00262Q7.28897 8.29941 7.28897 8.72482Q7.28897 9.14337 7.58385 9.44016Q7.87872 9.73694 8.30109 9.73694ZM10.39 4.08691Q10.8086 4.08691 11.1068 3.78868Q11.405 3.49045 11.405 3.06808Q11.405 2.64938 11.1068 2.35115Q10.8086 2.05292 10.39 2.05292Q9.96765 2.05292 9.67278 2.35115Q9.3779 2.64938 9.3779 3.06808Q9.3779 3.49045 9.67278 3.78868Q9.96765 4.08691 10.39 4.08691Z"
                     fill="#98989d" />
              <path d="M8.30109 20.2715Q9.41544 20.2715 10.3304 19.7289Q11.2454 19.1864 11.7895 18.2681Q12.3335 17.3497 12.3335 16.2256Q12.3335 15.1241 11.7895 14.2139Q11.2454 13.3038 10.3271 12.7598Q9.40872 12.2157 8.30109 12.2157Q7.18979 12.2157 6.27632 12.7598Q5.36285 13.3038 4.82178 14.2139Q4.2807 15.1241 4.2807 16.2256Q4.2807 17.3466 4.82178 18.265Q5.36285 19.1833 6.27632 19.7274Q7.18979 20.2715 8.30109 20.2715ZM15.7756 13.3932Q17.0627 13.3932 18.1197 12.761Q19.1766 12.1288 19.8055 11.0654Q20.4344 10.0021 20.4344 8.72482Q20.4344 7.44064 19.8055 6.3871Q19.1766 5.33356 18.1197 4.70467Q17.0627 4.07578 15.7756 4.07578Q14.4983 4.07578 13.4398 4.70467Q12.3813 5.33356 11.749 6.3871Q11.1168 7.44064 11.1168 8.72482Q11.1168 10.0021 11.749 11.0654Q12.3813 12.1288 13.4398 12.761Q14.4983 13.3932 15.7756 13.3932Z"
                     fill="#5ac8f5" />
              <path d="M8.30109 18.947Q7.55722 18.947 6.94336 18.5799Q6.3295 18.2129 5.96733 17.5941Q5.60516 16.9754 5.60516 16.2256Q5.60516 15.4884 5.97069 14.8779Q6.33621 14.2674 6.94519 13.9037Q7.55417 13.54 8.30109 13.54Q9.04114 13.54 9.65652 13.9037Q10.2719 14.2674 10.6405 14.8779Q11.0091 15.4884 11.0091 16.2256Q11.0091 16.9821 10.642 17.5975Q10.275 18.2129 9.66293 18.5799Q9.0509 18.947 8.30109 18.947ZM15.7756 12.0689Q14.8627 12.0689 14.1054 11.6155Q13.3481 11.1621 12.8947 10.3999Q12.4413 9.6376 12.4413 8.72482Q12.4413 7.80823 12.8947 7.05612Q13.3481 6.30402 14.1054 5.85548Q14.8627 5.40695 15.7756 5.40695Q16.6953 5.40695 17.4507 5.85548Q18.2062 6.30402 18.6581 7.05612Q19.11 7.80823 19.11 8.72482Q19.11 9.6376 18.6581 10.3999Q18.2062 11.1621 17.4507 11.6155Q16.6953 12.0689 15.7756 12.0689Z"
                     fill="rgba(255,255,255,0.65)" />
       </g>
</svg>