<svg width="19.5898" height="19.5996">
       <g>
              <rect height="19.5996" opacity="0" width="19.5898" x="0" y="0" />
              <path d="M9.79492 19.5996Q11.8066 19.5996 13.5791 18.833Q15.3516 18.0664 16.7041 16.7139Q18.0566 15.3613 18.8232 13.5889Q19.5898 11.8164 19.5898 9.80469Q19.5898 7.79297 18.8232 6.02051Q18.0566 4.24805 16.7041 2.89551Q15.3516 1.54297 13.5742 0.776367Q11.7969 0.00976562 9.78516 0.00976562Q7.77344 0.00976562 6.00098 0.776367Q4.22852 1.54297 2.88086 2.89551Q1.5332 4.24805 0.766602 6.02051Q0 7.79297 0 9.80469Q0 11.8164 0.766602 13.5889Q1.5332 15.3613 2.88574 16.7139Q4.23828 18.0664 6.01074 18.833Q7.7832 19.5996 9.79492 19.5996Z"
                     fill="rgba(255,255,255,0.55)" />
              <path d="M5.48828 12.4023Q5.41016 11.9238 5.62012 11.6406Q5.83008 11.3574 6.34766 11.2207L8.49609 10.7324Q8.34961 10.6348 8.22266 10.459Q8.0957 10.2832 8.03711 10.0488L6.66992 9.85352Q6.14258 9.77539 5.90332 9.50684Q5.66406 9.23828 5.66406 8.73047L5.66406 6.92383Q5.66406 6.54297 6.04492 6.54297Q6.41602 6.54297 6.41602 6.92383L6.41602 8.60352Q6.41602 8.87695 6.54785 8.99902Q6.67969 9.12109 6.95312 9.15039L8.07617 9.30664Q8.14453 9.05273 8.32031 8.89648Q7.68555 8.75977 7.35352 8.36426Q7.02148 7.96875 7.02148 7.35352Q7.02148 6.26953 7.76367 5.46875L7.74414 5.44922Q6.96289 4.85352 7.51953 3.94531L7.92969 3.33984Q8.05664 3.10547 8.29102 3.10547Q8.44727 3.10547 8.54004 3.20312Q8.63281 3.30078 8.63281 3.4375Q8.63281 3.56445 8.56445 3.68164L8.1543 4.24805Q8.02734 4.45312 8.0127 4.61426Q7.99805 4.77539 8.16406 4.89258L8.28125 5Q8.62305 4.77539 9.02344 4.6582Q9.42383 4.54102 9.80469 4.54102Q10.1758 4.54102 10.5762 4.6582Q10.9766 4.77539 11.3184 5L11.4453 4.89258Q11.6016 4.77539 11.5869 4.61426Q11.5723 4.45312 11.4453 4.24805L11.0352 3.68164Q10.9668 3.56445 10.9668 3.4375Q10.9668 3.29102 11.0645 3.19824Q11.1621 3.10547 11.3184 3.10547Q11.5332 3.10547 11.6797 3.33984L12.0801 3.94531Q12.6562 4.84375 11.8555 5.44922L11.8359 5.46875Q12.5781 6.26953 12.5781 7.35352Q12.5781 7.96875 12.2461 8.36914Q11.9141 8.76953 11.2793 8.89648Q11.4551 9.0625 11.5332 9.30664L12.6465 9.15039Q12.9199 9.11133 13.0566 8.99414Q13.1934 8.87695 13.1934 8.60352L13.1934 6.92383Q13.1934 6.54297 13.5547 6.54297Q13.9453 6.54297 13.9453 6.92383L13.9453 8.73047Q13.9453 9.23828 13.7061 9.50684Q13.4668 9.77539 12.9395 9.85352L11.5625 10.0488Q11.5137 10.2832 11.3867 10.4639Q11.2598 10.6445 11.1133 10.7324L13.252 11.2207Q13.7695 11.3574 13.9795 11.6406Q14.1895 11.9238 14.1113 12.4023L13.6719 15.2051Q13.6133 15.5957 13.291 15.5957Q13.1152 15.5957 13.0029 15.4688Q12.8906 15.3418 12.9297 15.1465L13.3301 12.5195Q13.4082 12.0508 12.9199 11.9238Q12.8125 11.8945 12.7002 11.8652Q12.5879 11.8359 12.4805 11.8066Q12.5684 11.9727 12.6025 12.168Q12.6367 12.3633 12.6367 12.5977Q12.6367 13.4766 12.2461 14.248Q11.8555 15.0195 11.2061 15.5029Q10.5566 15.9863 9.80469 15.9863Q9.04297 15.9863 8.39355 15.5029Q7.74414 15.0195 7.35352 14.248Q6.96289 13.4766 6.96289 12.5977Q6.96289 12.3633 7.00195 12.168Q7.04102 11.9727 7.11914 11.8066Q7.01172 11.8359 6.89941 11.8652Q6.78711 11.8945 6.68945 11.9238Q6.20117 12.0508 6.2793 12.5195L6.67969 15.1465Q6.70898 15.3418 6.59668 15.4688Q6.48438 15.5957 6.30859 15.5957Q5.98633 15.5957 5.92773 15.2051Z"
                     fill="#ffffff" />
       </g>
</svg>