<svg width="19.5898" height="19.5996">
       <g>
              <rect height="19.5996" opacity="0" width="19.5898" x="0" y="0" />
              <path d="M9.79492 19.5996Q11.8066 19.5996 13.5791 18.833Q15.3516 18.0664 16.7041 16.7139Q18.0566 15.3613 18.8232 13.5889Q19.5898 11.8164 19.5898 9.80469Q19.5898 7.79297 18.8232 6.02051Q18.0566 4.24805 16.7041 2.89551Q15.3516 1.54297 13.5742 0.776367Q11.7969 0.00976562 9.78516 0.00976562Q7.77344 0.00976562 6.00098 0.776367Q4.22852 1.54297 2.88086 2.89551Q1.5332 4.24805 0.766602 6.02051Q0 7.79297 0 9.80469Q0 11.8164 0.766602 13.5889Q1.5332 15.3613 2.88574 16.7139Q4.23828 18.0664 6.01074 18.833Q7.7832 19.5996 9.79492 19.5996Z"
                     fill="#32d74b" />
              <path d="M8.74023 9.43359Q8.74023 8.99414 9.04785 8.69141Q9.35547 8.38867 9.79492 8.38867Q10.2441 8.38867 10.5518 8.69141Q10.8594 8.99414 10.8594 9.43359Q10.8594 9.75586 10.6934 10.0049Q10.5273 10.2539 10.2539 10.3809L10.2539 15.8984Q10.2539 16.1133 10.1318 16.2549Q10.0098 16.3965 9.79492 16.3965Q9.59961 16.3965 9.47266 16.2549Q9.3457 16.1133 9.3457 15.8984L9.3457 10.3906Q9.07227 10.2637 8.90625 10.0098Q8.74023 9.75586 8.74023 9.43359Z"
                     fill="#ffffff" />
              <path d="M6.02539 9.43359Q6.02539 8.0957 6.88477 7.09961Q7.04102 6.9043 7.26074 6.89941Q7.48047 6.89453 7.63672 7.07031Q7.75391 7.20703 7.73438 7.3877Q7.71484 7.56836 7.57812 7.76367Q7.28516 8.13477 7.13379 8.55957Q6.98242 8.98438 6.98242 9.43359Q6.98242 10.4492 7.56836 11.123Q7.72461 11.3184 7.73926 11.499Q7.75391 11.6797 7.63672 11.8359Q7.49023 11.9922 7.26562 11.9873Q7.04102 11.9824 6.88477 11.7969Q6.02539 10.791 6.02539 9.43359ZM12.627 9.43359Q12.627 8.98438 12.4707 8.55957Q12.3145 8.13477 12.0312 7.76367Q11.8848 7.56836 11.8652 7.3877Q11.8457 7.20703 11.9629 7.07031Q12.1191 6.89453 12.3438 6.89941Q12.5684 6.9043 12.7148 7.09961Q13.5742 8.0957 13.5742 9.43359Q13.5742 10.791 12.7148 11.7969Q12.5684 11.9824 12.3389 11.9873Q12.1094 11.9922 11.9629 11.8359Q11.709 11.5234 12.041 11.123Q12.3242 10.791 12.4756 10.3711Q12.627 9.95117 12.627 9.43359Z"
                     fill="#ffffff" />
              <path d="M3.57422 9.43359Q3.57422 8.30078 3.98926 7.25586Q4.4043 6.21094 5.17578 5.40039Q5.33203 5.21484 5.54688 5.20996Q5.76172 5.20508 5.9082 5.38086Q6.02539 5.51758 6.01074 5.71289Q5.99609 5.9082 5.84961 6.08398Q5.20508 6.74805 4.86328 7.6123Q4.52148 8.47656 4.52148 9.43359Q4.52148 11.4258 5.84961 12.8125Q6.18164 13.2031 5.89844 13.5156Q5.75195 13.6816 5.54199 13.6719Q5.33203 13.6621 5.17578 13.5059Q4.39453 12.6758 3.98438 11.6309Q3.57422 10.5859 3.57422 9.43359ZM15.0781 9.43359Q15.0781 8.47656 14.7412 7.6123Q14.4043 6.74805 13.7598 6.08398Q13.6035 5.9082 13.5889 5.71289Q13.5742 5.51758 13.7012 5.38086Q13.8477 5.20508 14.0576 5.20996Q14.2676 5.21484 14.4238 5.40039Q15.1953 6.21094 15.6104 7.25586Q16.0254 8.30078 16.0254 9.43359Q16.0254 10.5859 15.6152 11.6309Q15.2051 12.6758 14.4238 13.5059Q14.2676 13.6621 14.0625 13.6719Q13.8574 13.6816 13.7012 13.5156Q13.418 13.2031 13.7598 12.8125Q15.0781 11.4258 15.0781 9.43359Z"
                     fill="#ffffff" />
       </g>
</svg>