<svg width="19.5898" height="19.5996">
       <g>
              <rect height="19.5996" opacity="0" width="19.5898" x="0" y="0" />
              <path d="M9.79492 19.5898Q11.8066 19.5898 13.5791 18.8232Q15.3516 18.0566 16.7041 16.7041Q18.0566 15.3516 18.8232 13.5791Q19.5898 11.8066 19.5898 9.79492Q19.5898 7.7832 18.8232 6.01074Q18.0566 4.23828 16.7041 2.88574Q15.3516 1.5332 13.5742 0.766602Q11.7969 0 9.78516 0Q7.77344 0 6.00098 0.766602Q4.22852 1.5332 2.88086 2.88574Q1.5332 4.23828 0.766602 6.01074Q0 7.7832 0 9.79492Q0 11.8066 0.766602 13.5791Q1.5332 15.3516 2.88574 16.7041Q4.23828 18.0566 6.01074 18.8232Q7.7832 19.5898 9.79492 19.5898ZM9.79492 18.3203Q8.02734 18.3203 6.47949 17.6611Q4.93164 17.002 3.75977 15.8301Q2.58789 14.6582 1.92871 13.1104Q1.26953 11.5625 1.26953 9.79492Q1.26953 8.02734 1.92871 6.47949Q2.58789 4.93164 3.75977 3.75488Q4.93164 2.57812 6.47461 1.91895Q8.01758 1.25977 9.78516 1.25977Q11.5625 1.25977 13.1104 1.91895Q14.6582 2.57812 15.8301 3.75488Q17.002 4.93164 17.666 6.47949Q18.3301 8.02734 18.3301 9.79492Q18.3301 11.5625 17.666 13.1104Q17.002 14.6582 15.8301 15.8301Q14.6582 17.002 13.1152 17.6611Q11.5723 18.3203 9.79492 18.3203Z"
                     fill="#32d74b" />
              <path d="M8.75977 9.43359Q8.75977 9.74609 8.9209 9.99023Q9.08203 10.2344 9.3457 10.3613L9.3457 15.7715Q9.3457 15.9863 9.46777 16.1182Q9.58984 16.25 9.78516 16.25Q9.99023 16.25 10.1123 16.1182Q10.2344 15.9863 10.2344 15.7715L10.2344 10.3613Q10.498 10.2344 10.6592 9.99023Q10.8203 9.74609 10.8203 9.43359Q10.8203 9.00391 10.5225 8.70605Q10.2246 8.4082 9.78516 8.4082Q9.35547 8.4082 9.05762 8.70605Q8.75977 9.00391 8.75977 9.43359Z"
                     fill="#32d74b" />
              <path d="M6.09375 9.43359Q6.09375 10.7617 6.94336 11.748Q7.08008 11.9238 7.2998 11.9287Q7.51953 11.9336 7.66602 11.7773Q7.7832 11.6309 7.76367 11.4551Q7.74414 11.2793 7.59766 11.084Q7.02148 10.4492 7.02148 9.43359Q7.02148 8.98438 7.16797 8.56445Q7.31445 8.14453 7.60742 7.7832Q7.74414 7.59766 7.76367 7.42188Q7.7832 7.24609 7.66602 7.10938Q7.50977 6.93359 7.29492 6.94336Q7.08008 6.95312 6.94336 7.13867Q6.09375 8.11523 6.09375 9.43359ZM12.5586 9.43359Q12.5586 9.93164 12.4121 10.3467Q12.2656 10.7617 11.9824 11.084Q11.8359 11.2793 11.8164 11.4551Q11.7969 11.6309 11.9141 11.7773Q12.0605 11.9336 12.2754 11.9287Q12.4902 11.9238 12.6367 11.748Q13.4863 10.7617 13.4863 9.43359Q13.4863 8.11523 12.6367 7.13867Q12.4902 6.95312 12.2803 6.94336Q12.0703 6.93359 11.9141 7.10938Q11.7969 7.24609 11.8164 7.42188Q11.8359 7.59766 11.9727 7.7832Q12.2559 8.14453 12.4072 8.56445Q12.5586 8.98438 12.5586 9.43359Z"
                     fill="#32d74b" />
              <path d="M3.69141 9.43359Q3.69141 11.7578 5.26367 13.418Q5.41016 13.5742 5.61523 13.584Q5.82031 13.5938 5.9668 13.4277Q6.23047 13.1152 5.9082 12.7441Q4.61914 11.3965 4.61914 9.43359Q4.61914 7.49023 5.9082 6.14258Q6.05469 5.9668 6.06934 5.78125Q6.08398 5.5957 5.9668 5.44922Q5.83008 5.2832 5.62012 5.29297Q5.41016 5.30273 5.26367 5.46875Q4.50195 6.26953 4.09668 7.29492Q3.69141 8.32031 3.69141 9.43359ZM14.9609 9.43359Q14.9609 11.3965 13.6719 12.7441Q13.3496 13.1152 13.6133 13.4277Q13.7598 13.5938 13.96 13.584Q14.1602 13.5742 14.3164 13.418Q15.8887 11.7578 15.8887 9.43359Q15.8887 8.32031 15.4834 7.29492Q15.0781 6.26953 14.3164 5.46875Q14.1602 5.30273 13.9551 5.29297Q13.75 5.2832 13.6035 5.44922Q13.4961 5.5957 13.5107 5.78125Q13.5254 5.9668 13.6719 6.14258Q14.9609 7.49023 14.9609 9.43359Z"
                     fill="#32d74b" />
       </g>
</svg>