<svg width="19.8969" height="17.868">
       <g>
              <rect height="17.868" opacity="0" width="19.8969" x="0" y="0" />
              <path d="M8.39828 6.69859Q8.39828 7.18962 8.66905 7.57658Q8.93982 7.96354 9.37088 8.12925L9.37088 17.1387Q9.37088 17.4249 9.53239 17.6063Q9.69391 17.7878 9.95331 17.7878Q10.2164 17.7878 10.3712 17.6097Q10.526 17.4316 10.526 17.1387L10.526 8.12925Q10.9503 7.96354 11.2244 7.57658Q11.4986 7.18962 11.4986 6.69859Q11.4986 6.26478 11.2914 5.91131Q11.0843 5.55784 10.7342 5.34735Q10.3841 5.13685 9.95331 5.13685Q9.51279 5.13685 9.16267 5.34735Q8.81256 5.55784 8.60542 5.91131Q8.39828 6.26478 8.39828 6.69859Z"
                     fill="#32d74b" />
              <path d="M3.98117 6.69859Q3.98117 7.7516 4.33876 8.70428Q4.69635 9.65696 5.34332 10.4086Q5.5397 10.6558 5.82634 10.6592Q6.11298 10.6627 6.29959 10.4527Q6.47644 10.2527 6.4296 10.0113Q6.38275 9.76988 6.19995 9.5294Q5.69382 8.97947 5.44724 8.2456Q5.20065 7.51173 5.20065 6.69859Q5.20065 5.88529 5.46608 5.16844Q5.73151 4.45158 6.19995 3.86763Q6.37985 3.62409 6.42815 3.3843Q6.47644 3.14451 6.29959 2.94432Q6.11298 2.73451 5.82634 2.73786Q5.5397 2.74122 5.34332 2.98857Q4.69635 3.74021 4.33876 4.6929Q3.98117 5.64558 3.98117 6.69859ZM13.5973 10.4527Q13.7839 10.6627 14.0706 10.6592Q14.3573 10.6558 14.5537 10.4086Q15.2036 9.65696 15.5596 8.70428Q15.9157 7.7516 15.9157 6.69859Q15.9157 5.64558 15.5596 4.6929Q15.2036 3.74021 14.5537 2.98857Q14.3573 2.74122 14.0706 2.73786Q13.7839 2.73451 13.5973 2.94432Q13.4204 3.14451 13.4688 3.3843Q13.5172 3.62409 13.7 3.86763Q14.1653 4.45158 14.4308 5.16844Q14.6964 5.88529 14.6964 6.69859Q14.6964 7.51173 14.4512 8.2456Q14.2061 8.97947 13.7 9.5294Q13.5141 9.76988 13.4673 10.0113Q13.4204 10.2527 13.5973 10.4527Z"
                     fill="#32d74b" />
              <path d="M0 6.69859Q0 8.55986 0.668259 10.2234Q1.33652 11.8869 2.54517 13.1599Q2.76169 13.3967 3.0349 13.3986Q3.30811 13.4004 3.48801 13.1936Q3.66486 12.9934 3.62328 12.7438Q3.5817 12.4942 3.3815 12.2702Q2.34985 11.1674 1.78467 9.74035Q1.21948 8.31327 1.21948 6.69859Q1.21948 5.0839 1.78467 3.65682Q2.34985 2.22975 3.3815 1.12684Q3.5817 0.902842 3.62328 0.653209Q3.66486 0.403575 3.48801 0.203532Q3.30811-0.00337719 3.0349 5.60374e-05Q2.76169 0.00348926 2.54517 0.237254Q1.74057 1.0858 1.17271 2.11515Q0.604858 3.14451 0.302429 4.29884Q0 5.45317 0 6.69859ZM16.4088 13.1936Q16.5887 13.4004 16.8668 13.3986Q17.1449 13.3967 17.3518 13.1599Q18.5634 11.8869 19.2301 10.2234Q19.8969 8.55986 19.8969 6.69859Q19.8969 5.45317 19.596 4.29884Q19.2952 3.14451 18.7257 2.11515Q18.1563 1.0858 17.3518 0.237254Q17.1449 0.00348926 16.8668 5.60374e-05Q16.5887-0.00337719 16.4088 0.203532Q16.232 0.403575 16.2751 0.653209Q16.3182 0.902842 16.5154 1.12684Q17.55 2.22975 18.1138 3.65682Q18.6775 5.0839 18.6775 6.69859Q18.6775 8.31327 18.1138 9.74035Q17.55 11.1674 16.5154 12.2702Q16.3182 12.4942 16.2751 12.7438Q16.232 12.9934 16.4088 13.1936Z"
                     fill="#32d74b" />
       </g>
</svg>