<svg width="16.873" height="20.733">
       <g>
              <rect height="20.733" opacity="0" width="16.873" x="0" y="0" />
              <path d="M2.37442 6.48697Q2.37442 9.27475 5.71274 10.2339L10.7793 11.7145Q13.2751 12.4442 13.2751 14.3086L13.2751 15.0406L14.4812 15.0406L14.4812 14.3086Q14.4812 11.5208 11.1458 10.5655L6.07925 9.08783Q3.58337 8.36502 3.58337 6.48697L3.58337 5.76172L2.37442 5.76172Z"
                     fill="rgba(255,255,255,0.55)" />
              <path d="M5.64285 0.426636Q5.40268 0.189514 5.06798 0.117798Q4.73328 0.0460815 4.28101 0.0460815L1.71997 0.0460815Q1.28357 0.0460815 0.950317 0.117798Q0.617065 0.189514 0.376892 0.426636Q0.139771 0.669861 0.0698853 0.996704Q0 1.32355 0 1.763L0 4.32098Q0 4.77631 0.0698853 5.11108Q0.139771 5.44586 0.376892 5.67612Q0.617065 5.91324 0.950317 5.98648Q1.28357 6.05972 1.73874 6.05972L4.28101 6.05972Q4.73328 6.05972 5.06798 5.98648Q5.40268 5.91324 5.64285 5.67612Q5.87326 5.44586 5.94345 5.11108Q6.01364 4.77631 6.01364 4.32098L6.01364 1.78192Q6.01364 1.3266 5.94345 0.996704Q5.87326 0.666809 5.64285 0.426636ZM16.5059 15.1067Q16.2659 14.8695 15.9326 14.7978Q15.5994 14.7261 15.1471 14.7261L12.583 14.7261Q12.1466 14.7261 11.8149 14.7978Q11.4832 14.8695 11.243 15.1067Q11.0028 15.3499 10.9344 15.6767Q10.8661 16.0036 10.8661 16.443L10.8661 19.001Q10.8661 19.4495 10.9344 19.7876Q11.0028 20.1257 11.243 20.3561Q11.4832 20.5865 11.8149 20.6598Q12.1466 20.733 12.5951 20.733L15.1471 20.733Q15.5994 20.733 15.9326 20.6598Q16.2659 20.5865 16.5059 20.3561Q16.7393 20.1257 16.8062 19.7876Q16.873 19.4495 16.873 19.001L16.873 16.4551Q16.873 16.0066 16.8062 15.6734Q16.7393 15.3401 16.5059 15.1067Z"
                     fill="rgba(255,255,255,0.55)" />
       </g>
</svg>