<svg width="19.1115" height="19.086">
       <g>
              <rect height="19.086" opacity="0" width="19.1115" x="0" y="0" />
              <path d="M5.02045 19.086L14.0843 19.086Q15.41 19.086 16.3755 18.8734Q17.341 18.6607 18.0203 17.9852Q18.6958 17.3059 18.9037 16.3502Q19.1115 15.3944 19.1115 14.059L19.1115 5.04593Q19.1115 3.71719 18.9037 2.75658Q18.6958 1.79596 18.0203 1.1264Q17.338 0.450745 16.374 0.238113Q15.41 0.0254822 14.0843 0.0254822L4.9646 0.0254822Q3.68866 0.0254822 2.73102 0.241165Q1.77338 0.456848 1.09421 1.12946Q0.418549 1.81168 0.209274 2.76138Q0 3.71109 0 4.99313L0 14.059Q0 15.3944 0.204391 16.3517Q0.408783 17.309 1.0881 17.9852Q1.77338 18.6607 2.73407 18.8734Q3.69476 19.086 5.02045 19.086Z"
                     fill="rgba(255,255,255,0.55)" />
              <path d="M5.04898 7.38998Q5.04227 6.82663 5.43816 6.36429Q5.83405 5.90195 6.43951 5.87265Q6.46881 6.22787 6.28815 6.59744Q6.10748 6.96701 5.78178 7.19955Q5.45609 7.4321 5.04898 7.38998ZM7.82013 10.8643Q7.70966 11.2549 7.46368 11.6763Q7.21771 12.0976 6.88934 12.4176Q6.78802 12.5085 6.64307 12.572Q6.49811 12.6355 6.31256 12.6355Q6.13678 12.6355 6.01318 12.5863Q5.88959 12.5371 5.73334 12.4823Q5.64163 12.453 5.50835 12.4042Q5.37506 12.3553 5.215 12.3553Q4.84695 12.3553 4.62234 12.5037Q4.39774 12.652 4.09134 12.652Q3.72162 12.652 3.28079 12.1472Q2.85706 11.6656 2.58888 10.9686Q2.32071 10.2715 2.32071 9.61044Q2.32071 9.2131 2.43301 8.8356Q2.54532 8.4581 2.79922 8.1517Q3.24844 7.56882 4.04617 7.56882Q4.42032 7.56882 4.65652 7.72354Q4.89273 7.87827 5.08499 7.87827Q5.31937 7.87827 5.61386 7.71713Q5.90836 7.556 6.36429 7.556Q7.22076 7.556 7.65411 8.2103Q7.36725 8.37936 7.23083 8.57651Q7.09442 8.77365 7.04193 8.94333Q6.95328 9.20029 6.93748 9.49173Q6.92169 9.78317 7.04193 10.083Q7.15607 10.3534 7.34161 10.5434Q7.52716 10.7335 7.82013 10.8643ZM10.562 6.3707L10.562 7.556L11.5257 7.556L11.5257 8.35373L10.562 8.35373L10.562 11.1504Q10.562 11.7792 11.1734 11.7792Q11.2485 11.7792 11.3627 11.7758Q11.4769 11.7725 11.5031 11.7499L11.5031 12.5964Q11.4438 12.6062 11.2827 12.6208Q11.1215 12.6355 10.9488 12.6355Q10.1773 12.6355 9.85016 12.3279Q9.52301 12.0203 9.52301 11.2616L9.52301 8.35373L8.80646 8.35373L8.80646 7.556L9.52301 7.556L9.52301 6.3707ZM14.9376 12.5964L13.8469 12.5964L11.9975 7.556L13.098 7.556L14.3944 11.6064L15.6279 7.556L16.7577 7.556Z"
                     fill="#ffffff" />
       </g>
</svg>