<svg width="29.6191" height="19.9512">
       <g>
              <rect height="19.9512" opacity="0" width="29.6191" x="0" y="0" />
              <path d="M8.28125 13.6426Q8.28125 14.7656 8.69629 15.5518Q9.11133 16.3379 9.93164 16.7969Q10.3027 17.002 10.5225 17.251Q10.7422 17.5 10.8789 17.959L11.2402 19.1309Q11.4844 19.9512 12.3633 19.9512L16.6992 19.9512Q17.5781 19.9512 17.8223 19.1309L18.1934 17.959Q18.3301 17.5 18.5449 17.251Q18.7598 17.002 19.1406 16.7969Q19.9512 16.3379 20.3662 15.5518Q20.7812 14.7656 20.7812 13.6426L20.7812 6.33789Q20.7812 5.21484 20.3662 4.42383Q19.9512 3.63281 19.1406 3.17383Q18.7598 2.97852 18.5449 2.72461Q18.3301 2.4707 18.1934 2.02148L17.8223 0.839844Q17.5879 0.0195312 16.6992 0.0195312L12.3633 0.0195312Q11.4844 0.0195312 11.2402 0.839844L10.8789 2.02148Q10.7422 2.4707 10.5273 2.72461Q10.3125 2.97852 9.93164 3.17383Q9.11133 3.62305 8.69629 4.41406Q8.28125 5.20508 8.28125 6.33789ZM9.39453 13.4961L9.39453 6.48438Q9.39453 5.2832 10.0586 4.60449Q10.7227 3.92578 11.9141 3.92578L17.1484 3.92578Q18.3398 3.92578 19.0088 4.60449Q19.6777 5.2832 19.6777 6.48438L19.6777 13.4961Q19.6777 14.6875 19.0088 15.3662Q18.3398 16.0449 17.1484 16.0449L11.9141 16.0449Q10.7227 16.0449 10.0586 15.3662Q9.39453 14.6875 9.39453 13.4961ZM20.5273 9.3457L20.9082 9.3457Q21.2598 9.3457 21.4746 9.12109Q21.6895 8.89648 21.6895 8.50586L21.6895 7.1582Q21.6895 6.77734 21.4746 6.55273Q21.2598 6.32812 20.9082 6.32812L20.5273 6.32812Z"
                     fill="rgba(255,255,255,0.55)" />
              <path d="M6.17188 13.7207Q6.34766 13.5254 6.29883 13.2812Q6.25 13.0371 6.06445 12.8027Q5.56641 12.2559 5.31738 11.5186Q5.06836 10.7812 5.06836 9.9707Q5.06836 9.16016 5.31738 8.42285Q5.56641 7.68555 6.06445 7.13867Q6.25 6.89453 6.29883 6.65527Q6.34766 6.41602 6.17188 6.2207Q5.98633 6.00586 5.69824 6.01074Q5.41016 6.01562 5.21484 6.26953Q4.56055 7.01172 4.2041 7.96387Q3.84766 8.91602 3.84766 9.9707Q3.84766 11.0254 4.2041 11.9727Q4.56055 12.9199 5.21484 13.6719Q5.41016 13.9258 5.69824 13.9307Q5.98633 13.9355 6.17188 13.7207ZM23.457 13.7207Q23.6426 13.9355 23.9307 13.9307Q24.2188 13.9258 24.4141 13.6719Q25.0684 12.9199 25.4248 11.9727Q25.7812 11.0254 25.7812 9.9707Q25.7812 8.91602 25.4248 7.96387Q25.0684 7.01172 24.4141 6.26953Q24.2188 6.01562 23.9307 6.01074Q23.6426 6.00586 23.457 6.2207Q23.2812 6.41602 23.3252 6.65527Q23.3691 6.89453 23.5547 7.13867Q24.0625 7.68555 24.3115 8.42285Q24.5605 9.16016 24.5605 9.9707Q24.5605 10.7812 24.3115 11.5186Q24.0625 12.2559 23.5547 12.8027Q23.3691 13.0371 23.3252 13.2812Q23.2812 13.5254 23.457 13.7207Z"
                     fill="rgba(255,255,255,0.55)" />
              <path d="M3.48633 16.4648Q3.66211 16.2695 3.62305 16.0156Q3.58398 15.7617 3.37891 15.5469Q2.35352 14.4434 1.78711 13.0127Q1.2207 11.582 1.2207 9.9707Q1.2207 8.34961 1.78711 6.92383Q2.35352 5.49805 3.37891 4.39453Q3.58398 4.16992 3.62305 3.9209Q3.66211 3.67188 3.48633 3.47656Q3.31055 3.26172 3.03711 3.27148Q2.76367 3.28125 2.54883 3.51562Q1.33789 4.78516 0.668945 6.44531Q0 8.10547 0 9.9707Q0 11.8359 0.668945 13.4912Q1.33789 15.1465 2.54883 16.4258Q2.76367 16.6602 3.03711 16.665Q3.31055 16.6699 3.48633 16.4648ZM26.1328 16.4648Q26.3184 16.6699 26.5967 16.665Q26.875 16.6602 27.0898 16.4258Q28.291 15.1465 28.9551 13.4912Q29.6191 11.8359 29.6191 9.9707Q29.6191 8.10547 28.9551 6.44531Q28.291 4.78516 27.0898 3.51562Q26.875 3.28125 26.5967 3.27148Q26.3184 3.26172 26.1328 3.47656Q25.957 3.67188 26.001 3.9209Q26.0449 4.16992 26.2402 4.39453Q27.2754 5.49805 27.8418 6.92383Q28.4082 8.34961 28.4082 9.9707Q28.4082 11.582 27.8418 13.0127Q27.2754 14.4434 26.2402 15.5469Q26.0449 15.7617 26.001 16.0156Q25.957 16.2695 26.1328 16.4648Z"
                     fill="rgba(255,255,255,0.55)" />
       </g>
</svg>