<svg width="20.2264" height="23.2498">
       <g>
              <rect height="23.2498" opacity="0" width="20.2264" x="0" y="0" />
              <path d="M10.1312 13.1087Q10.7475 13.1087 11.1837 12.6759Q11.6199 12.243 11.6199 11.62Q11.6199 11.2102 11.4149 10.8723Q11.21 10.5345 10.8755 10.3329Q10.5411 10.1314 10.1312 10.1314Q9.72137 10.1314 9.38698 10.3364Q9.05258 10.5414 8.84766 10.8791Q8.64273 11.2169 8.64273 11.62Q8.64273 12.0299 8.8443 12.3643Q9.04587 12.6987 9.38515 12.9037Q9.72443 13.1087 10.1312 13.1087Z"
                     fill="rgba(255,255,255,0.55)" />
              <path d="M10.1312 7.53906Q10.659 7.53906 11.0265 7.17163Q11.3939 6.8042 11.3939 6.26968Q11.3939 5.75485 11.0249 5.38101Q10.656 5.00717 10.1312 5.00717Q9.61639 5.00717 9.2392 5.38101Q8.862 5.75485 8.862 6.26968Q8.862 6.79443 9.23576 7.16675Q9.60953 7.53906 10.1312 7.53906ZM5.52383 10.2109Q6.0614 10.2109 6.42731 9.84192Q6.79321 9.47296 6.79321 8.93845Q6.79321 8.41385 6.4209 8.04153Q6.04858 7.66922 5.52383 7.66922Q5.0119 7.66922 4.63661 8.04642Q4.26132 8.42361 4.26132 8.93845Q4.26132 9.4632 4.6302 9.83704Q4.99908 10.2109 5.52383 10.2109ZM14.7319 10.2109Q15.2695 10.2109 15.6354 9.84192Q16.0013 9.47296 16.0013 8.93845Q16.0013 8.41385 15.629 8.04153Q15.2567 7.66922 14.7319 7.66922Q14.2171 7.66922 13.8432 8.04642Q13.4694 8.42361 13.4694 8.93845Q13.4694 9.4632 13.8368 9.83704Q14.2043 10.2109 14.7319 10.2109ZM5.52383 15.5708Q6.05835 15.5708 6.42578 15.202Q6.79321 14.8331 6.79321 14.3016Q6.79321 13.7738 6.4209 13.4015Q6.04858 13.0292 5.52383 13.0292Q5.00885 13.0292 4.63509 13.4064Q4.26132 13.7836 4.26132 14.3016Q4.26132 14.8262 4.63173 15.1985Q5.00214 15.5708 5.52383 15.5708ZM14.7319 15.5708Q15.2664 15.5708 15.6339 15.202Q16.0013 14.8331 16.0013 14.3016Q16.0013 13.7738 15.629 13.4015Q15.2567 13.0292 14.7319 13.0292Q14.214 13.0292 13.8417 13.4064Q13.4694 13.7836 13.4694 14.3016Q13.4694 14.8262 13.8383 15.1985Q14.2073 15.5708 14.7319 15.5708ZM10.1312 18.2298Q10.659 18.2298 11.0265 17.8624Q11.3939 17.495 11.3939 16.9606Q11.3939 16.4456 11.0249 16.0718Q10.656 15.6979 10.1312 15.6979Q9.61929 15.6979 9.24065 16.0767Q8.862 16.4554 8.862 16.9606Q8.862 17.4883 9.23431 17.859Q9.60663 18.2298 10.1312 18.2298Z"
                     fill="rgba(255,255,255,0.55)" />
              <path d="M10.1312 1.85242Q10.5254 1.85242 10.788 1.58783Q11.0507 1.32324 11.0507 0.92926Q11.0507 0.54184 10.7847 0.27092Q10.5186 0 10.1312 0Q9.75677 0 9.48242 0.27092Q9.20807 0.54184 9.20807 0.92926Q9.20807 1.31348 9.47754 1.58295Q9.74701 1.85242 10.1312 1.85242ZM5.52383 4.5076Q5.92087 4.5076 6.18546 4.24156Q6.45004 3.97552 6.45004 3.57849Q6.45004 3.19412 6.18057 2.9232Q5.9111 2.65228 5.52383 2.65228Q5.14938 2.65228 4.87503 2.92809Q4.60068 3.20389 4.60068 3.57849Q4.60068 3.96576 4.87015 4.23668Q5.13962 4.5076 5.52383 4.5076ZM14.7319 4.5076Q15.126 4.5076 15.3921 4.24156Q15.6581 3.97552 15.6581 3.57849Q15.6581 3.19412 15.3872 2.9232Q15.1163 2.65228 14.7319 2.65228Q14.3575 2.65228 14.0816 2.92809Q13.8058 3.20389 13.8058 3.57849Q13.8058 3.96576 14.0768 4.23668Q14.3477 4.5076 14.7319 4.5076ZM0.926208 7.19589Q1.32019 7.19589 1.58142 6.93138Q1.84265 6.66687 1.84265 6.26968Q1.84265 5.88547 1.57654 5.61943Q1.31042 5.35339 0.926208 5.35339Q0.53894 5.35339 0.26947 5.62279Q0 5.89218 0 6.26968Q0 6.6571 0.26947 6.9265Q0.53894 7.19589 0.926208 7.19589ZM19.3004 7.19589Q19.6944 7.19589 19.9604 6.93138Q20.2264 6.66687 20.2264 6.26968Q20.2264 5.88242 19.957 5.6179Q19.6877 5.35339 19.3004 5.35339Q18.9258 5.35339 18.65 5.62431Q18.3742 5.89523 18.3742 6.26968Q18.3742 6.6571 18.6451 6.9265Q18.916 7.19589 19.3004 7.19589ZM0.926208 12.5432Q1.31348 12.5432 1.57806 12.2752Q1.84265 12.0073 1.84265 11.62Q1.84265 11.2358 1.57654 10.9648Q1.31042 10.6938 0.926208 10.6938Q0.53894 10.6938 0.26947 10.9633Q0 11.2328 0 11.62Q0 12.0042 0.26947 12.2737Q0.53894 12.5432 0.926208 12.5432ZM19.3004 12.5432Q19.6944 12.5432 19.9604 12.2786Q20.2264 12.014 20.2264 11.62Q20.2264 11.2297 19.957 10.9618Q19.6877 10.6938 19.3004 10.6938Q18.9258 10.6938 18.65 10.9682Q18.3742 11.2425 18.3742 11.62Q18.3742 12.0042 18.6451 12.2737Q18.916 12.5432 19.3004 12.5432ZM0.926208 17.8867Q1.32019 17.8867 1.58142 17.6221Q1.84265 17.3576 1.84265 16.9606Q1.84265 16.5762 1.57654 16.3102Q1.31042 16.0442 0.926208 16.0442Q0.548706 16.0442 0.274353 16.3151Q0 16.586 0 16.9606Q0 17.3576 0.264587 17.6221Q0.529175 17.8867 0.926208 17.8867ZM19.3004 17.8867Q19.6974 17.8867 19.9619 17.627Q20.2264 17.3674 20.2264 16.9606Q20.2264 16.5762 19.9555 16.3102Q19.6846 16.0442 19.3004 16.0442Q18.9258 16.0442 18.65 16.3151Q18.3742 16.586 18.3742 16.9606Q18.3742 17.3546 18.6451 17.6206Q18.916 17.8867 19.3004 17.8867ZM5.52383 20.578Q5.92087 20.578 6.18546 20.3168Q6.45004 20.0557 6.45004 19.6616Q6.45004 19.2743 6.18057 19.0034Q5.9111 18.7325 5.52383 18.7325Q5.14938 18.7325 4.87503 19.0034Q4.60068 19.2743 4.60068 19.6616Q4.60068 20.0459 4.87015 20.312Q5.13962 20.578 5.52383 20.578ZM14.7319 20.578Q15.126 20.578 15.3921 20.3168Q15.6581 20.0557 15.6581 19.6616Q15.6581 19.2743 15.3872 19.0034Q15.1163 18.7325 14.7319 18.7325Q14.3575 18.7325 14.0816 19.0034Q13.8058 19.2743 13.8058 19.6616Q13.8058 20.0459 14.0768 20.312Q14.3477 20.578 14.7319 20.578ZM10.1312 23.2401Q10.5254 23.2401 10.788 22.974Q11.0507 22.708 11.0507 22.3108Q11.0507 21.9266 10.7847 21.6557Q10.5186 21.3847 10.1312 21.3847Q9.75677 21.3847 9.48242 21.6605Q9.20807 21.9363 9.20807 22.3108Q9.20807 22.6982 9.47754 22.9691Q9.74701 23.2401 10.1312 23.2401Z"
                     fill="rgba(255,255,255,0.55)" />
       </g>
</svg>