<svg width="25.0224" height="23.7576">
       <g>
              <rect height="23.7576" opacity="0" width="25.0224" x="0" y="0" />
              <path d="M10.3754 13.6067Q10.8633 13.6067 11.2564 13.3759Q11.6495 13.145 11.8837 12.7486Q12.1179 12.3521 12.1179 11.8739Q12.1179 11.3957 11.8822 11.0027Q11.6464 10.6097 11.25 10.3754Q10.8536 10.1411 10.3754 10.1411Q9.90692 10.1411 9.51393 10.3754Q9.12094 10.6097 8.88184 11.0061Q8.64273 11.4024 8.64273 11.8739Q8.64273 12.3521 8.87848 12.7451Q9.11423 13.1381 9.51057 13.3724Q9.90692 13.6067 10.3754 13.6067Z"
                     fill="rgba(255,255,255,0.55)" />
              <path d="M10.3754 8.04688Q11.0173 8.04688 11.458 7.60468Q11.8987 7.16248 11.8987 6.52359Q11.8987 5.90134 11.4531 5.45578Q11.0075 5.01022 10.3754 5.01022Q9.96918 5.01022 9.62196 5.21667Q9.27475 5.42313 9.0683 5.77034Q8.86185 6.11755 8.86185 6.52359Q8.86185 7.15271 9.3074 7.59979Q9.75296 8.04688 10.3754 8.04688ZM5.77774 10.712Q6.41968 10.712 6.85547 10.2698Q7.29126 9.82758 7.29126 9.19235Q7.29126 8.56323 6.8457 8.11958Q6.40015 7.67593 5.77774 7.67593Q5.36484 7.67593 5.02098 7.88383Q4.67712 8.09174 4.46915 8.43559Q4.26117 8.77945 4.26117 9.19235Q4.26117 9.81781 4.70337 10.2649Q5.14557 10.712 5.77774 10.712ZM14.9828 10.712Q15.6247 10.712 16.062 10.2698Q16.4993 9.82758 16.4993 9.19235Q16.4993 8.56323 16.0522 8.11958Q15.6052 7.67593 14.9828 7.67593Q14.5699 7.67593 14.2275 7.88383Q13.8852 8.09174 13.6773 8.43559Q13.4694 8.77945 13.4694 9.19235Q13.4694 9.81781 13.9101 10.2649Q14.3507 10.712 14.9828 10.712ZM5.77774 16.0719Q6.40686 16.0719 6.84906 15.6297Q7.29126 15.1875 7.29126 14.5555Q7.29126 13.9233 6.8457 13.4763Q6.40015 13.0292 5.77774 13.0292Q5.36179 13.0292 5.01793 13.2405Q4.67407 13.4518 4.46762 13.7957Q4.26117 14.1396 4.26117 14.5555Q4.26117 15.1778 4.70825 15.6248Q5.15533 16.0719 5.77774 16.0719ZM14.9828 16.0719Q15.4158 16.0719 15.757 15.8417L16.4859 14.5355L16.4859 14.42Q16.4417 13.8388 16.0096 13.434Q15.5775 13.0292 14.9828 13.0292Q14.3605 13.0292 13.9149 13.4811Q13.4694 13.9331 13.4694 14.5555Q13.4694 15.1778 13.9149 15.6248Q14.3605 16.0719 14.9828 16.0719ZM10.3754 18.7376Q11.0173 18.7376 11.458 18.2955Q11.8987 17.8534 11.8987 17.2145Q11.8987 16.5921 11.4531 16.1465Q11.0075 15.701 10.3754 15.701Q9.96918 15.701 9.62349 15.909Q9.2778 16.1169 9.06982 16.4626Q8.86185 16.8083 8.86185 17.2145Q8.86185 17.8496 9.30595 18.2936Q9.75006 18.7376 10.3754 18.7376Z"
                     fill="rgba(255,255,255,0.55)" />
              <path d="M10.3754 2.35336Q10.8769 2.35336 11.2162 2.01561Q11.5555 1.67786 11.5555 1.18317Q11.5555 0.691376 11.2113 0.345688Q10.8672 0 10.3754 0Q9.90326 0 9.55414 0.349045Q9.20502 0.69809 9.20502 1.18317Q9.20502 1.66809 9.54926 2.01073Q9.89349 2.35336 10.3754 2.35336ZM5.77774 5.01236Q6.27625 5.01236 6.61217 4.67461Q6.94809 4.33685 6.94809 3.8324Q6.94809 3.34061 6.60873 3.00133Q6.26938 2.66205 5.77774 2.66205Q5.29587 2.66205 4.95163 3.00621Q4.60739 3.35037 4.60739 3.8324Q4.60739 4.32709 4.94675 4.66972Q5.2861 5.01236 5.77774 5.01236ZM14.9828 5.01236Q15.4843 5.01236 15.8187 4.67461Q16.1531 4.33685 16.1531 3.8324Q16.1531 3.34061 15.8138 3.00133Q15.4745 2.66205 14.9828 2.66205Q14.5009 2.66205 14.1567 3.00621Q13.8126 3.35037 13.8126 3.8324Q13.8126 4.32709 14.1518 4.66972Q14.4911 5.01236 14.9828 5.01236ZM1.17706 7.70065Q1.67175 7.70065 2.00958 7.3629Q2.34741 7.02515 2.34741 6.52359Q2.34741 6.03867 2.0047 5.69603Q1.66199 5.35339 1.17706 5.35339Q0.692139 5.35339 0.346069 5.69603Q0 6.03867 0 6.52359Q0 7.01538 0.342712 7.35802Q0.685425 7.70065 1.17706 7.70065ZM19.5512 7.70065Q20.0459 7.70065 20.3837 7.3629Q20.7214 7.02515 20.7214 6.52359Q20.7214 6.0289 20.3837 5.69115Q20.0459 5.35339 19.5512 5.35339Q19.0692 5.35339 18.7217 5.70091Q18.3742 6.04843 18.3742 6.52359Q18.3742 7.01538 18.7168 7.35802Q19.0594 7.70065 19.5512 7.70065ZM1.17706 13.0443Q1.67175 13.0443 2.00958 12.7065Q2.34741 12.3686 2.34741 11.8739Q2.34741 11.3823 2.0047 11.0429Q1.66199 10.7036 1.17706 10.7036Q0.692139 10.7036 0.346069 11.0463Q0 11.389 0 11.8739Q0 12.3656 0.342712 12.7049Q0.685425 13.0443 1.17706 13.0443ZM20.5959 12.3938Q20.7214 12.1301 20.7214 11.8739Q20.7214 11.3792 20.3837 11.0414Q20.0459 10.7036 19.5512 10.7036Q19.0692 10.7036 18.7217 11.0478Q18.3742 11.3921 18.3742 11.8739Q18.3742 12.1332 18.4998 12.3901Q19.0056 12.15 19.5512 12.15Q20.0967 12.15 20.5959 12.3938ZM1.17706 18.3945Q1.67175 18.3945 2.00958 18.0552Q2.34741 17.7159 2.34741 17.2145Q2.34741 16.7325 2.0047 16.3883Q1.66199 16.0442 1.17706 16.0442Q0.69519 16.0442 0.347595 16.3917Q0 16.7392 0 17.2145Q0 17.7092 0.341187 18.0518Q0.682373 18.3945 1.17706 18.3945ZM5.77774 21.0858Q6.27625 21.0858 6.61217 20.7481Q6.94809 20.4103 6.94809 19.9155Q6.94809 19.4238 6.60873 19.0781Q6.26938 18.7325 5.77774 18.7325Q5.29587 18.7325 4.95163 19.0815Q4.60739 19.4305 4.60739 19.9155Q4.60739 20.4005 4.94675 20.7432Q5.2861 21.0858 5.77774 21.0858ZM10.3754 23.7381Q10.8769 23.7381 11.2162 23.4037Q11.5555 23.0693 11.5555 22.5647Q11.5555 22.0731 11.2113 21.7338Q10.8672 21.3945 10.3754 21.3945Q9.90326 21.3945 9.55414 21.7387Q9.20502 22.0828 9.20502 22.5647Q9.20502 23.0595 9.54926 23.3988Q9.89349 23.7381 10.3754 23.7381Z"
                     fill="rgba(255,255,255,0.55)" />
              <path d="M15.3462 23.3131L23.7427 23.3131Q24.321 23.3131 24.6717 22.9417Q25.0224 22.5703 25.0224 22.0439Q25.0224 21.7143 24.8459 21.4078L20.6409 13.9279Q20.4614 13.611 20.1644 13.448Q19.8674 13.2851 19.5512 13.2851Q19.2245 13.2851 18.9211 13.448Q18.6177 13.611 18.445 13.9279L14.2436 21.4206Q14.0703 21.7143 14.0703 22.0439Q14.0703 22.5703 14.4206 22.9417Q14.771 23.3131 15.3462 23.3131Z"
                     fill="#ffd60a" />
              <path d="M19.5415 21.8228Q19.2307 21.8228 19.0047 21.5953Q18.7787 21.3678 18.7787 21.0503Q18.7787 20.7423 19.0061 20.5149Q19.2336 20.2875 19.5415 20.2875Q19.8657 20.2875 20.0914 20.5164Q20.3171 20.7454 20.314 21.0503Q20.311 21.3678 20.0835 21.5953Q19.856 21.8228 19.5415 21.8228ZM19.5512 19.5978Q19.3208 19.5978 19.1779 19.4551Q19.0349 19.3124 19.0282 19.0858L18.959 16.1967Q18.9523 15.9303 19.1152 15.7659Q19.2781 15.6015 19.5512 15.6015Q19.8177 15.6015 19.9805 15.7659Q20.1433 15.9303 20.1396 16.1967L20.0705 19.0858Q20.0638 19.3124 19.9208 19.4551Q19.7778 19.5978 19.5512 19.5978Z"
                     fill="#ffffff" />
       </g>
</svg>