<svg width="19.7812" height="22.8174">
       <g>
              <rect height="22.8174" opacity="0" width="19.7812" x="0" y="0" />
              <path d="M9.91501 12.104Q10.2174 12.104 10.4148 11.9067Q10.6122 11.7093 10.6122 11.4038Q10.6122 11.1081 10.4099 10.9025Q10.2077 10.6969 9.91501 10.6969Q9.61929 10.6969 9.41368 10.9025Q9.20807 11.1081 9.20807 11.4038Q9.20807 11.6995 9.41032 11.9018Q9.61258 12.104 9.91501 12.104Z"
                     fill="rgba(255,255,255,0.55)" />
              <path d="M9.91501 6.76041Q10.2174 6.76041 10.4148 6.56303Q10.6122 6.36566 10.6122 6.05347Q10.6122 5.75775 10.4099 5.55557Q10.2077 5.35339 9.91501 5.35339Q9.61929 5.35339 9.41368 5.55901Q9.20807 5.76462 9.20807 6.05347Q9.20807 6.3559 9.41032 6.55815Q9.61258 6.76041 9.91501 6.76041ZM5.30762 9.43222Q5.6131 9.43222 5.81383 9.22997Q6.01456 9.02771 6.01456 8.72223Q6.01456 8.42651 5.80894 8.2209Q5.60333 8.01529 5.30762 8.01529Q5.02167 8.01529 4.81117 8.22578Q4.60068 8.43628 4.60068 8.72223Q4.60068 9.021 4.80629 9.22661Q5.0119 9.43222 5.30762 9.43222ZM14.5126 9.43222Q14.8181 9.43222 15.0188 9.22997Q15.2196 9.02771 15.2196 8.72223Q15.2196 8.42651 15.014 8.2209Q14.8083 8.01529 14.5126 8.01529Q14.2267 8.01529 14.0162 8.22578Q13.8057 8.43628 13.8057 8.72223Q13.8057 9.021 14.0113 9.22661Q14.2169 9.43222 14.5126 9.43222ZM5.30762 14.7856Q5.6131 14.7856 5.81383 14.5882Q6.01456 14.3909 6.01456 14.0854Q6.01456 13.7897 5.80894 13.5825Q5.60333 13.3754 5.30762 13.3754Q5.02167 13.3754 4.81117 13.5825Q4.60068 13.7897 4.60068 14.0854Q4.60068 14.3811 4.80629 14.5834Q5.0119 14.7856 5.30762 14.7856ZM14.5126 14.7856Q14.8181 14.7856 15.0188 14.5882Q15.2196 14.3909 15.2196 14.0854Q15.2196 13.7897 15.014 13.5825Q14.8083 13.3754 14.5126 13.3754Q14.2267 13.3754 14.0162 13.5825Q13.8057 13.7897 13.8057 14.0854Q13.8057 14.3811 14.0113 14.5834Q14.2169 14.7856 14.5126 14.7856ZM9.91501 17.4513Q10.2174 17.4513 10.4148 17.254Q10.6122 17.0566 10.6122 16.7444Q10.6122 16.4487 10.4099 16.2464Q10.2077 16.0442 9.91501 16.0442Q9.62234 16.0442 9.41521 16.2513Q9.20807 16.4584 9.20807 16.7444Q9.20807 17.0499 9.4088 17.2506Q9.60953 17.4513 9.91501 17.4513Z"
                     fill="rgba(255,255,255,0.55)" />
              <path d="M9.91501 1.41312Q10.2174 1.41312 10.4148 1.21582Q10.6122 1.01852 10.6122 0.713043Q10.6122 0.417328 10.4099 0.208664Q10.2077 0 9.91501 0Q9.62234 0 9.41521 0.208664Q9.20807 0.417328 9.20807 0.713043Q9.20807 1.00876 9.41032 1.21094Q9.61258 1.41312 9.91501 1.41312ZM5.30762 4.07211Q5.6131 4.07211 5.81383 3.86986Q6.01456 3.6676 6.01456 3.36227Q6.01456 3.06656 5.80894 2.86095Q5.60333 2.65533 5.30762 2.65533Q5.02167 2.65533 4.81117 2.86583Q4.60068 3.07632 4.60068 3.36227Q4.60068 3.66089 4.80629 3.8665Q5.0119 4.07211 5.30762 4.07211ZM14.5126 4.07211Q14.8181 4.07211 15.0188 3.86986Q15.2196 3.6676 15.2196 3.36227Q15.2196 3.06656 15.014 2.86095Q14.8083 2.65533 14.5126 2.65533Q14.2267 2.65533 14.0162 2.86583Q13.8057 3.07632 13.8057 3.36227Q13.8057 3.66089 14.0113 3.8665Q14.2169 4.07211 14.5126 4.07211ZM0.70694 6.76041Q1.01242 6.76041 1.20979 6.56303Q1.40717 6.36566 1.40717 6.05347Q1.40717 5.75775 1.20491 5.55557Q1.00266 5.35339 0.70694 5.35339Q0.411224 5.35339 0.205612 5.55901Q0 5.76462 0 6.05347Q0 6.3559 0.202255 6.55815Q0.40451 6.76041 0.70694 6.76041ZM19.0811 6.76041Q19.3866 6.76041 19.5839 6.56303Q19.7812 6.36566 19.7812 6.05347Q19.7812 5.75485 19.5805 5.55412Q19.3797 5.35339 19.0811 5.35339Q18.7885 5.35339 18.5813 5.56046Q18.3742 5.76752 18.3742 6.05347Q18.3742 6.3559 18.5798 6.55815Q18.7854 6.76041 19.0811 6.76041ZM0.70694 12.104Q1.01242 12.104 1.20979 11.9067Q1.40717 11.7093 1.40717 11.4038Q1.40717 11.1081 1.20491 10.9025Q1.00266 10.6969 0.70694 10.6969Q0.411224 10.6969 0.205612 10.9025Q0 11.1081 0 11.4038Q0 11.6995 0.202255 11.9018Q0.40451 12.104 0.70694 12.104ZM19.0811 12.104Q19.3866 12.104 19.5839 11.9067Q19.7812 11.7093 19.7812 11.4038Q19.7812 11.0983 19.5805 10.8976Q19.3797 10.6969 19.0811 10.6969Q18.7885 10.6969 18.5813 10.9074Q18.3742 11.1179 18.3742 11.4038Q18.3742 11.6995 18.5798 11.9018Q18.7854 12.104 19.0811 12.104ZM0.70694 17.4513Q1.01242 17.4513 1.20979 17.254Q1.40717 17.0566 1.40717 16.7444Q1.40717 16.4487 1.20491 16.2464Q1.00266 16.0442 0.70694 16.0442Q0.414276 16.0442 0.207138 16.2513Q0 16.4584 0 16.7444Q0 17.0499 0.200729 17.2506Q0.401459 17.4513 0.70694 17.4513ZM19.0811 17.4513Q19.3895 17.4513 19.5853 17.2555Q19.7812 17.0596 19.7812 16.7444Q19.7812 16.4487 19.579 16.2464Q19.3768 16.0442 19.0811 16.0442Q18.7885 16.0442 18.5813 16.2513Q18.3742 16.4584 18.3742 16.7444Q18.3742 17.0468 18.5798 17.2491Q18.7854 17.4513 19.0811 17.4513ZM5.30762 20.1456Q5.6131 20.1456 5.81383 19.9482Q6.01456 19.7508 6.01456 19.4453Q6.01456 19.1429 5.80894 18.9377Q5.60333 18.7325 5.30762 18.7325Q5.02167 18.7325 4.81117 18.9411Q4.60068 19.1498 4.60068 19.4453Q4.60068 19.7411 4.80629 19.9433Q5.0119 20.1456 5.30762 20.1456ZM14.5126 20.1456Q14.8181 20.1456 15.0188 19.9482Q15.2196 19.7508 15.2196 19.4453Q15.2196 19.1429 15.014 18.9377Q14.8083 18.7325 14.5126 18.7325Q14.2267 18.7325 14.0162 18.9411Q13.8057 19.1498 13.8057 19.4453Q13.8057 19.7411 14.0113 19.9433Q14.2169 20.1456 14.5126 20.1456ZM9.91501 22.8046Q10.2174 22.8046 10.4148 22.6023Q10.6122 22.4001 10.6122 22.0946Q10.6122 21.7989 10.4099 21.5932Q10.2077 21.3876 9.91501 21.3876Q9.62234 21.3876 9.41521 21.5981Q9.20807 21.8086 9.20807 22.0946Q9.20807 22.3933 9.41032 22.599Q9.61258 22.8046 9.91501 22.8046Z"
                     fill="rgba(255,255,255,0.55)" />
       </g>
</svg>