<svg width="19.5898" height="19.5996">
       <g>
              <rect height="19.5996" opacity="0" width="19.5898" x="0" y="0" />
              <path d="M9.79492 19.5996Q11.8066 19.5996 13.5791 18.833Q15.3516 18.0664 16.7041 16.7139Q18.0566 15.3613 18.8232 13.5889Q19.5898 11.8164 19.5898 9.80469Q19.5898 7.79297 18.8232 6.02051Q18.0566 4.24805 16.7041 2.89551Q15.3516 1.54297 13.5742 0.776367Q11.7969 0.00976562 9.78516 0.00976562Q7.77344 0.00976562 6.00098 0.776367Q4.22852 1.54297 2.88086 2.89551Q1.5332 4.24805 0.766602 6.02051Q0 7.79297 0 9.80469Q0 11.8164 0.766602 13.5889Q1.5332 15.3613 2.88574 16.7139Q4.23828 18.0664 6.01074 18.833Q7.7832 19.5996 9.79492 19.5996Z"
                     fill="rgba(255,255,255,0.55)" />
              <path d="M6.80664 14.7852Q6.05469 14.7852 5.65918 14.3994Q5.26367 14.0137 5.26367 13.252L5.26367 8.07617L14.3262 8.07617L14.3262 13.252Q14.3262 14.0137 13.9307 14.3994Q13.5352 14.7852 12.7832 14.7852ZM7.98828 9.94141L11.6113 9.94141Q11.7676 9.94141 11.8604 9.83887Q11.9531 9.73633 11.9531 9.58008L11.9531 9.41406Q11.9531 9.25781 11.8604 9.16504Q11.7676 9.07227 11.6113 9.07227L7.98828 9.07227Q7.83203 9.07227 7.73438 9.16504Q7.63672 9.25781 7.63672 9.41406L7.63672 9.58008Q7.63672 9.73633 7.73438 9.83887Q7.83203 9.94141 7.98828 9.94141ZM5.33203 7.37305Q4.92188 7.37305 4.70215 7.13379Q4.48242 6.89453 4.48242 6.48438L4.48242 5.92773Q4.48242 5.50781 4.71191 5.26855Q4.94141 5.0293 5.33203 5.0293L14.2578 5.0293Q14.6777 5.0293 14.8926 5.26855Q15.1074 5.50781 15.1074 5.92773L15.1074 6.48438Q15.1074 6.89453 14.8926 7.13379Q14.6777 7.37305 14.2578 7.37305Z"
                     fill="#ffffff" />
       </g>
</svg>