<svg width="17.6855" height="17.7051">
       <g>
              <rect height="17.7051" opacity="0" width="17.6855" x="0" y="0" />
              <path d="M2.88086 17.7051L14.8047 17.7051Q16.2305 17.7051 16.958 16.9873Q17.6855 16.2695 17.6855 14.8535L17.6855 2.88086Q17.6855 1.46484 16.958 0.742188Q16.2305 0.0195312 14.8047 0.0195312L2.88086 0.0195312Q1.44531 0.0195312 0.722656 0.737305Q0 1.45508 0 2.88086L0 14.8535Q0 16.2695 0.722656 16.9873Q1.44531 17.7051 2.88086 17.7051Z"
                     fill="rgba(255,255,255,0.55)" />
              <path d="M5.60547 6.41602Q5.86914 6.41602 6.02539 6.57715Q6.18164 6.73828 6.18164 7.03125L6.18164 9.19922L6.08398 10.8301L7.35352 9.50195L11.6211 5.21484Q11.709 5.12695 11.8213 5.07812Q11.9336 5.0293 12.0801 5.0293Q12.3438 5.0293 12.5 5.18555Q12.6562 5.3418 12.6562 5.61523Q12.6562 5.84961 12.4609 6.04492L8.18359 10.3223L6.82617 11.6016L8.27148 11.4941L10.6445 11.4941Q10.9277 11.4941 11.0986 11.6553Q11.2695 11.8164 11.2695 12.0703Q11.2695 12.3242 11.1035 12.4805Q10.9375 12.6367 10.6641 12.6367L5.67383 12.6367Q5.38086 12.6367 5.20996 12.4854Q5.03906 12.334 5.03906 11.9922L5.03906 7.04102Q5.03906 6.75781 5.19531 6.58691Q5.35156 6.41602 5.60547 6.41602Z"
                     fill="#ffffff" />
       </g>
</svg>