<svg width="19.5898" height="19.5996">
       <g>
              <rect height="19.5996" opacity="0" width="19.5898" x="0" y="0" />
              <path d="M9.79492 19.5996Q11.8066 19.5996 13.5791 18.833Q15.3516 18.0664 16.7041 16.7139Q18.0566 15.3613 18.8232 13.5889Q19.5898 11.8164 19.5898 9.80469Q19.5898 7.79297 18.8232 6.02051Q18.0566 4.24805 16.7041 2.89551Q15.3516 1.54297 13.5742 0.776367Q11.7969 0.00976562 9.78516 0.00976562Q7.77344 0.00976562 6.00098 0.776367Q4.22852 1.54297 2.88086 2.89551Q1.5332 4.24805 0.766602 6.02051Q0 7.79297 0 9.80469Q0 11.8164 0.766602 13.5889Q1.5332 15.3613 2.88574 16.7139Q4.23828 18.0664 6.01074 18.833Q7.7832 19.5996 9.79492 19.5996Z"
                     fill="#0a84ff" />
              <path d="M7.5 13.9941Q7.33398 13.9941 7.19727 13.916Q7.06055 13.8379 6.9043 13.7012L2.65625 9.72656Q2.48047 9.56055 2.42676 9.42383Q2.37305 9.28711 2.37305 9.16992Q2.37305 9.0332 2.42676 8.90137Q2.48047 8.76953 2.65625 8.60352L6.9043 4.63867Q7.06055 4.48242 7.19238 4.40918Q7.32422 4.33594 7.5 4.33594Q7.74414 4.33594 7.88574 4.46777Q8.02734 4.59961 8.02734 4.78516L8.02734 5.30273L4.91211 8.16406Q4.6582 8.39844 4.53613 8.65234Q4.41406 8.90625 4.41406 9.16992Q4.41406 9.43359 4.53613 9.68262Q4.6582 9.93164 4.91211 10.166L8.02734 13.0371L8.02734 13.5645Q8.02734 13.7402 7.88574 13.8672Q7.74414 13.9941 7.5 13.9941ZM10.1758 13.9941Q10.0195 13.9941 9.87305 13.9209Q9.72656 13.8477 9.58008 13.7012L5.3418 9.72656Q5.15625 9.56055 5.10254 9.42383Q5.04883 9.28711 5.04883 9.16992Q5.04883 9.0332 5.10254 8.90137Q5.15625 8.76953 5.3418 8.60352L9.58008 4.63867Q9.74609 4.49219 9.87793 4.41406Q10.0098 4.33594 10.166 4.33594Q10.4102 4.33594 10.5566 4.50195Q10.7031 4.66797 10.7031 4.89258L10.7031 7.06055L10.8887 7.06055Q12.7148 7.06055 13.9453 7.78809Q15.1758 8.51562 15.7959 9.92676Q16.416 11.3379 16.416 13.4082Q16.416 13.6914 16.2793 13.8428Q16.1426 13.9941 15.957 13.9941Q15.8008 13.9941 15.6543 13.9258Q15.5078 13.8574 15.3906 13.6328Q14.7754 12.3242 13.6816 11.8164Q12.5879 11.3086 10.8887 11.3086L10.7031 11.3086L10.7031 13.457Q10.7031 13.6914 10.5566 13.8428Q10.4102 13.9941 10.1758 13.9941Z"
                     fill="#ffffff" />
       </g>
</svg>