<svg width="17.6855" height="17.7051">
       <g>
              <rect height="17.7051" opacity="0" width="17.6855" x="0" y="0" />
              <path d="M2.88086 17.7051L14.8047 17.7051Q16.2305 17.7051 16.958 16.9873Q17.6855 16.2695 17.6855 14.8535L17.6855 2.88086Q17.6855 1.46484 16.958 0.742188Q16.2305 0.0195312 14.8047 0.0195312L2.88086 0.0195312Q1.44531 0.0195312 0.722656 0.737305Q0 1.45508 0 2.88086L0 14.8535Q0 16.2695 0.722656 16.9873Q1.44531 17.7051 2.88086 17.7051Z"
                     fill="rgba(255,255,255,0.55)" />
              <path d="M5.33203 11.8555Q5.00977 11.8555 4.89258 11.5527Q4.77539 11.25 4.95117 10.957L8.35938 5.27344Q8.53516 4.98047 8.85742 4.97559Q9.17969 4.9707 9.35547 5.27344L12.7441 10.957Q12.9199 11.2695 12.8027 11.5625Q12.6855 11.8555 12.3633 11.8555Z"
                     fill="#ffffff" />
       </g>
</svg>