<svg width="19.5898" height="19.5996">
       <g>
              <rect height="19.5996" opacity="0" width="19.5898" x="0" y="0" />
              <path d="M9.79492 19.5898Q11.8066 19.5898 13.5791 18.8232Q15.3516 18.0566 16.7041 16.7041Q18.0566 15.3516 18.8232 13.5791Q19.5898 11.8066 19.5898 9.79492Q19.5898 7.7832 18.8232 6.01074Q18.0566 4.23828 16.7041 2.88574Q15.3516 1.5332 13.5742 0.766602Q11.7969 0 9.78516 0Q7.77344 0 6.00098 0.766602Q4.22852 1.5332 2.88086 2.88574Q1.5332 4.23828 0.766602 6.01074Q0 7.7832 0 9.79492Q0 11.8066 0.766602 13.5791Q1.5332 15.3516 2.88574 16.7041Q4.23828 18.0566 6.01074 18.8232Q7.7832 19.5898 9.79492 19.5898Z"
                     fill="rgba(255,255,255,0.55)" />
              <path d="M13.0273 7.36328Q13.2812 7.36328 13.4375 7.53418Q13.5938 7.70508 13.5938 7.98828L13.5938 12.9395Q13.5938 13.2812 13.4229 13.4326Q13.252 13.584 12.959 13.584L7.96875 13.584Q7.69531 13.584 7.5293 13.4277Q7.36328 13.2715 7.36328 13.0176Q7.36328 12.7637 7.53418 12.6025Q7.70508 12.4414 7.97852 12.4414L10.3613 12.4414L11.8066 12.5488L10.459 11.2695L6.16211 6.99219Q5.97656 6.79688 5.97656 6.5625Q5.97656 6.28906 6.13281 6.13281Q6.28906 5.97656 6.54297 5.97656Q6.68945 5.97656 6.80664 6.02539Q6.92383 6.07422 7.00195 6.16211L11.2793 10.4492L12.5391 11.7773L12.4414 10.1465L12.4414 7.97852Q12.4414 7.68555 12.6025 7.52441Q12.7637 7.36328 13.0273 7.36328Z"
                     fill="#ffffff" />
       </g>
</svg>