<svg width="23.9648" height="17.8223">
       <g>
              <rect height="17.8223" opacity="0" width="23.9648" x="0" y="0" />
              <path d="M18.9062 16.4453Q19.9707 16.4453 20.8936 16.0938Q21.8164 15.7422 22.5049 15.1123Q23.1934 14.4824 23.5791 13.6426Q23.9648 12.8027 23.9648 11.8457Q23.9648 10.8496 23.6084 9.9707Q23.252 9.0918 22.5732 8.41797Q21.8945 7.74414 20.9277 7.38281Q20.9473 5.78125 20.4395 4.43359Q19.9316 3.08594 18.9893 2.08984Q18.0469 1.09375 16.792 0.546875Q15.5371 0 14.0723 0Q12.7441 0 11.6895 0.43457Q10.6348 0.869141 9.83398 1.59668Q9.0332 2.32422 8.49609 3.20312Q7.61719 2.90039 6.74316 3.05664Q5.86914 3.21289 5.14648 3.74023Q4.42383 4.26758 3.98438 5.08301Q3.54492 5.89844 3.54492 6.9043Q2.4707 7.03125 1.66992 7.65137Q0.869141 8.27148 0.43457 9.23828Q0 10.2051 0 11.377Q0 12.4219 0.424805 13.3398Q0.849609 14.2578 1.61133 14.9512Q2.37305 15.6445 3.39844 16.04Q4.42383 16.4355 5.625 16.4355Z"
                     fill="rgba(255,255,255,0.55)" />
              <path d="M8.66211 9.45312Q8.66211 8.37891 9.18945 7.50488Q9.7168 6.63086 10.5811 6.11816Q11.4453 5.60547 12.4609 5.60547Q12.5879 5.60547 12.7051 5.61523Q12.8223 5.625 12.9297 5.64453L12.0215 4.7168Q11.9629 4.6582 11.9238 4.56543Q11.8848 4.47266 11.8848 4.38477Q11.8848 4.18945 12.0215 4.05273Q12.1582 3.91602 12.3535 3.91602Q12.4512 3.91602 12.5488 3.95508Q12.6465 3.99414 12.7051 4.07227L14.4727 5.88867Q14.6191 6.02539 14.6143 6.24512Q14.6094 6.46484 14.4727 6.60156L12.6758 8.42773Q12.5391 8.55469 12.3633 8.55469Q12.168 8.55469 12.0312 8.42285Q11.8945 8.29102 11.8945 8.0957Q11.8945 7.89062 12.0508 7.74414L13.1738 6.62109Q12.9297 6.5625 12.5781 6.5625Q11.7578 6.5625 11.0986 6.95312Q10.4395 7.34375 10.0439 8.00293Q9.64844 8.66211 9.64844 9.47266Q9.64844 10.293 10.0439 10.9619Q10.4395 11.6309 11.0986 12.0264Q11.7578 12.4219 12.5781 12.4219Q13.3887 12.4219 14.0527 12.0264Q14.7168 11.6309 15.1074 10.9619Q15.498 10.293 15.498 9.47266Q15.498 9.27734 15.6445 9.13574Q15.791 8.99414 16.0059 8.99414Q16.2012 8.99414 16.3477 9.13574Q16.4941 9.27734 16.4941 9.47266Q16.4941 10.5762 15.9668 11.4648Q15.4395 12.3535 14.5557 12.8809Q13.6719 13.4082 12.5781 13.4082Q11.4941 13.4082 10.6055 12.8809Q9.7168 12.3535 9.18945 11.4551Q8.66211 10.5566 8.66211 9.45312Z"
                     fill="#ffffff" />
       </g>
</svg>