<svg width="17.6855" height="17.7051">
       <g>
              <rect height="17.7051" opacity="0" width="17.6855" x="0" y="0" />
              <path d="M2.88086 17.7051L14.8047 17.7051Q16.2305 17.7051 16.958 16.9873Q17.6855 16.2695 17.6855 14.8535L17.6855 2.88086Q17.6855 1.46484 16.958 0.742188Q16.2305 0.0195312 14.8047 0.0195312L2.88086 0.0195312Q1.44531 0.0195312 0.722656 0.737305Q0 1.45508 0 2.88086L0 14.8535Q0 16.2695 0.722656 16.9873Q1.44531 17.7051 2.88086 17.7051Z"
                     fill="rgba(255,255,255,0.55)" />
              <path d="M12.0898 6.41602Q12.3438 6.41602 12.5 6.58691Q12.6562 6.75781 12.6562 7.04102L12.6562 11.9922Q12.6562 12.334 12.4854 12.4854Q12.3145 12.6367 12.0215 12.6367L7.03125 12.6367Q6.75781 12.6367 6.5918 12.4805Q6.42578 12.3242 6.42578 12.0703Q6.42578 11.8164 6.59668 11.6553Q6.76758 11.4941 7.04102 11.4941L9.42383 11.4941L10.8691 11.6016L9.52148 10.3223L5.22461 6.04492Q5.03906 5.84961 5.03906 5.61523Q5.03906 5.3418 5.19531 5.18555Q5.35156 5.0293 5.60547 5.0293Q5.75195 5.0293 5.86914 5.07812Q5.98633 5.12695 6.06445 5.21484L10.3418 9.50195L11.6016 10.8301L11.5039 9.19922L11.5039 7.03125Q11.5039 6.73828 11.665 6.57715Q11.8262 6.41602 12.0898 6.41602Z"
                     fill="#ffffff" />
       </g>
</svg>