<svg width="19.5898" height="19.5996">
       <g>
              <rect height="19.5996" opacity="0" width="19.5898" x="0" y="0" />
              <path d="M9.79492 19.5898Q11.8066 19.5898 13.5791 18.8232Q15.3516 18.0566 16.7041 16.7041Q18.0566 15.3516 18.8232 13.5791Q19.5898 11.8066 19.5898 9.79492Q19.5898 7.7832 18.8232 6.01074Q18.0566 4.23828 16.7041 2.88574Q15.3516 1.5332 13.5742 0.766602Q11.7969 0 9.78516 0Q7.77344 0 6.00098 0.766602Q4.22852 1.5332 2.88086 2.88574Q1.5332 4.23828 0.766602 6.01074Q0 7.7832 0 9.79492Q0 11.8066 0.766602 13.5791Q1.5332 15.3516 2.88574 16.7041Q4.23828 18.0566 6.01074 18.8232Q7.7832 19.5898 9.79492 19.5898Z"
                     fill="rgba(255,255,255,0.55)" />
              <path d="M4.67773 9.77539Q4.67773 9.54102 4.90234 9.32617L8.4375 5.78125Q8.59375 5.61523 8.84766 5.61523Q9.0918 5.61523 9.25293 5.77637Q9.41406 5.9375 9.41406 6.17188Q9.41406 6.39648 9.21875 6.60156L7.67578 8.14453L6.44531 9.24805L8.29102 9.17969L14.3555 9.17969Q14.6094 9.17969 14.7754 9.3457Q14.9414 9.51172 14.9414 9.77539Q14.9414 10.0293 14.7754 10.1953Q14.6094 10.3613 14.3555 10.3613L8.29102 10.3613L6.43555 10.293L7.67578 11.4062L9.21875 12.9492Q9.41406 13.125 9.41406 13.3789Q9.41406 13.6133 9.25293 13.7793Q9.0918 13.9453 8.84766 13.9453Q8.60352 13.9453 8.4375 13.7695L4.90234 10.2246Q4.67773 10.0098 4.67773 9.77539Z"
                     fill="#ffffff" />
       </g>
</svg>