<svg width="23.8281" height="15.8105">
       <g>
              <rect height="15.8105" opacity="0" width="23.8281" x="0" y="0" />
              <path d="M3.1543 15.8008L13.8086 15.8008Q15.3027 15.8008 16.1328 14.9854Q16.9629 14.1699 16.9629 12.6758L16.9629 3.11523Q16.9629 1.63086 16.167 0.81543Q15.3711 0 13.8672 0L3.1543 0Q1.69922 0 0.849609 0.81543Q0 1.63086 0 3.11523L0 12.6758Q0 14.1699 0.825195 14.9854Q1.65039 15.8008 3.1543 15.8008ZM18.0859 10.7715L21.6211 13.75Q21.8848 13.9648 22.1484 14.0918Q22.4121 14.2188 22.6758 14.2188Q23.1934 14.2188 23.5107 13.8721Q23.8281 13.5254 23.8281 12.959L23.8281 2.8418Q23.8281 2.27539 23.5107 1.92871Q23.1934 1.58203 22.6758 1.58203Q22.4121 1.58203 22.1484 1.70898Q21.8848 1.83594 21.6211 2.05078L18.0859 5.00977Z"
                     fill="rgba(255,255,255,0.55)" />
              <path d="M5.07812 11.9824Q4.83398 11.9824 4.66797 11.8262Q4.50195 11.6699 4.50195 11.4355Q4.50195 11.3184 4.55078 11.2109Q4.59961 11.1035 4.69727 11.0059L9.13086 6.5625L10.8008 5.00977L7.97852 5.14648L6.09375 5.14648Q5.86914 5.14648 5.70312 4.99512Q5.53711 4.84375 5.53711 4.60938Q5.53711 4.36523 5.69824 4.19922Q5.85938 4.0332 6.09375 4.0332L11.8555 4.0332Q12.1582 4.0332 12.3145 4.18457Q12.4707 4.33594 12.4707 4.63867L12.4707 10.3516Q12.4707 10.5859 12.2998 10.7471Q12.1289 10.9082 11.8848 10.9082Q11.6504 10.9082 11.499 10.7422Q11.3477 10.5762 11.3477 10.3516L11.3477 8.51562L11.4941 5.71289L9.93164 7.36328L5.49805 11.8164Q5.41016 11.8945 5.3125 11.9385Q5.21484 11.9824 5.07812 11.9824Z"
                     fill="#ffffff" />
       </g>
</svg>