<svg width="19.5898" height="19.5996">
       <g>
              <rect height="19.5996" opacity="0" width="19.5898" x="0" y="0" />
              <path d="M9.79492 19.5898Q11.8066 19.5898 13.5791 18.8232Q15.3516 18.0566 16.7041 16.7041Q18.0566 15.3516 18.8232 13.5791Q19.5898 11.8066 19.5898 9.79492Q19.5898 7.7832 18.8232 6.01074Q18.0566 4.23828 16.7041 2.88574Q15.3516 1.5332 13.5742 0.766602Q11.7969 0 9.78516 0Q7.77344 0 6.00098 0.766602Q4.22852 1.5332 2.88086 2.88574Q1.5332 4.23828 0.766602 6.01074Q0 7.7832 0 9.79492Q0 11.8066 0.766602 13.5791Q1.5332 15.3516 2.88574 16.7041Q4.23828 18.0566 6.01074 18.8232Q7.7832 19.5898 9.79492 19.5898Z"
                     fill="rgba(255,255,255,0.55)" />
              <path d="M3.75 9.78516Q3.75 9.56055 3.90137 9.41406Q4.05273 9.26758 4.28711 9.26758L9.22852 9.26758L11.0645 9.33594L9.08203 7.50977L8.22266 6.66992Q8.13477 6.5918 8.0957 6.48438Q8.05664 6.37695 8.05664 6.26953Q8.05664 6.03516 8.21289 5.89355Q8.36914 5.75195 8.58398 5.75195Q8.82812 5.75195 8.98438 5.92773L12.4707 9.38477Q12.5586 9.47266 12.6074 9.5752Q12.6562 9.67773 12.6562 9.78516Q12.6562 9.90234 12.6123 10Q12.5684 10.0977 12.4707 10.1855L9.00391 13.6133Q8.92578 13.6914 8.80859 13.7549Q8.69141 13.8184 8.57422 13.8184Q8.34961 13.8184 8.20312 13.6719Q8.05664 13.5254 8.05664 13.291Q8.05664 13.1641 8.0957 13.0664Q8.13477 12.9688 8.22266 12.8906L9.10156 12.0508L11.0742 10.2344L9.22852 10.332L4.28711 10.332Q4.05273 10.332 3.90137 10.1807Q3.75 10.0293 3.75 9.78516ZM14.0332 14.0332Q13.8086 14.0332 13.6621 13.8867Q13.5156 13.7402 13.5156 13.5156L13.5156 6.05469Q13.5156 5.82031 13.6621 5.67383Q13.8086 5.52734 14.0332 5.52734Q14.2676 5.52734 14.4189 5.67383Q14.5703 5.82031 14.5703 6.05469L14.5703 13.5156Q14.5703 13.7402 14.4189 13.8867Q14.2676 14.0332 14.0332 14.0332Z"
                     fill="#ffffff" />
       </g>
</svg>