<svg width="19.5898" height="19.5996">
       <g>
              <rect height="19.5996" opacity="0" width="19.5898" x="0" y="0" />
              <path d="M9.79492 19.5898Q11.8066 19.5898 13.5791 18.8232Q15.3516 18.0566 16.7041 16.7041Q18.0566 15.3516 18.8232 13.5791Q19.5898 11.8066 19.5898 9.79492Q19.5898 7.7832 18.8232 6.01074Q18.0566 4.23828 16.7041 2.88574Q15.3516 1.5332 13.5742 0.766602Q11.7969 0 9.78516 0Q7.77344 0 6.00098 0.766602Q4.22852 1.5332 2.88086 2.88574Q1.5332 4.23828 0.766602 6.01074Q0 7.7832 0 9.79492Q0 11.8066 0.766602 13.5791Q1.5332 15.3516 2.88574 16.7041Q4.23828 18.0566 6.01074 18.8232Q7.7832 19.5898 9.79492 19.5898Z"
                     fill="rgba(255,255,255,0.55)" />
              <path d="M6.54297 12.1973Q6.28906 12.1973 6.13281 12.0264Q5.97656 11.8555 5.97656 11.5723L5.97656 6.62109Q5.97656 6.2793 6.14746 6.12793Q6.31836 5.97656 6.61133 5.97656L11.6016 5.97656Q11.875 5.97656 12.041 6.13281Q12.207 6.28906 12.207 6.54297Q12.207 6.79688 12.0361 6.95801Q11.8652 7.11914 11.582 7.11914L9.20898 7.11914L7.76367 7.01172L9.12109 8.29102L13.3984 12.5684Q13.5938 12.7637 13.5938 12.998Q13.5938 13.2715 13.4375 13.4277Q13.2812 13.584 13.0176 13.584Q12.8711 13.584 12.7588 13.5352Q12.6465 13.4863 12.5586 13.3984L8.29102 9.11133L7.02148 7.7832L7.11914 9.41406L7.11914 11.582Q7.11914 11.875 6.96289 12.0361Q6.80664 12.1973 6.54297 12.1973Z"
                     fill="#ffffff" />
       </g>
</svg>