<svg width="17.6855" height="17.7051">
       <g>
              <rect height="17.7051" opacity="0" width="17.6855" x="0" y="0" />
              <path d="M2.88086 17.7051L14.8047 17.7051Q16.2305 17.7051 16.958 16.9873Q17.6855 16.2695 17.6855 14.8535L17.6855 2.88086Q17.6855 1.46484 16.958 0.742188Q16.2305 0.0195312 14.8047 0.0195312L2.88086 0.0195312Q1.44531 0.0195312 0.722656 0.737305Q0 1.45508 0 2.88086L0 14.8535Q0 16.2695 0.722656 16.9873Q1.44531 17.7051 2.88086 17.7051Z"
                     fill="rgba(255,255,255,0.55)" />
              <path d="M14.8047 8.83789Q14.8047 9.05273 14.5801 9.27734L11.6602 12.207Q11.5039 12.373 11.2402 12.373Q11.0059 12.373 10.8496 12.2119Q10.6934 12.0508 10.6934 11.8164Q10.6934 11.6797 10.7422 11.5771Q10.791 11.4746 10.8691 11.3867L11.8066 10.4688L13.0371 9.35547L11.1816 9.42383L6.50391 9.42383L4.6582 9.35547L5.88867 10.4688L6.81641 11.3867Q6.89453 11.4746 6.94336 11.5771Q6.99219 11.6797 6.99219 11.8164Q6.99219 12.0508 6.83594 12.2119Q6.67969 12.373 6.43555 12.373Q6.19141 12.373 6.02539 12.207L3.11523 9.27734Q2.89062 9.05273 2.89062 8.83789Q2.89062 8.60352 3.11523 8.37891L6.02539 5.45898Q6.19141 5.29297 6.43555 5.29297Q6.67969 5.29297 6.83594 5.4541Q6.99219 5.61523 6.99219 5.85938Q6.99219 5.98633 6.94824 6.08887Q6.9043 6.19141 6.81641 6.2793L5.88867 7.19727L4.64844 8.31055L6.50391 8.24219L11.1816 8.24219L13.0371 8.31055L11.8066 7.19727L10.8691 6.2793Q10.7812 6.19141 10.7373 6.08887Q10.6934 5.98633 10.6934 5.85938Q10.6934 5.61523 10.8496 5.4541Q11.0059 5.29297 11.2402 5.29297Q11.4941 5.29297 11.6602 5.45898L14.5801 8.37891Q14.8047 8.60352 14.8047 8.83789Z"
                     fill="#ffffff" />
       </g>
</svg>