<svg width="23.8281" height="15.8105">
       <g>
              <rect height="15.8105" opacity="0" width="23.8281" x="0" y="0" />
              <path d="M3.1543 15.8008L13.8086 15.8008Q15.3027 15.8008 16.1328 14.9854Q16.9629 14.1699 16.9629 12.6758L16.9629 3.11523Q16.9629 1.63086 16.167 0.81543Q15.3711 0 13.8672 0L3.1543 0Q1.69922 0 0.849609 0.81543Q0 1.63086 0 3.11523L0 12.6758Q0 14.1699 0.825195 14.9854Q1.65039 15.8008 3.1543 15.8008ZM18.0859 10.7715L21.6211 13.75Q21.8848 13.9648 22.1484 14.0918Q22.4121 14.2188 22.6758 14.2188Q23.1934 14.2188 23.5107 13.8721Q23.8281 13.5254 23.8281 12.959L23.8281 2.8418Q23.8281 2.27539 23.5107 1.92871Q23.1934 1.58203 22.6758 1.58203Q22.4121 1.58203 22.1484 1.70898Q21.8848 1.83594 21.6211 2.05078L18.0859 5.00977Z"
                     fill="rgba(255,255,255,0.55)" />
              <path d="M11.8848 4.0332Q12.1289 4.0332 12.2998 4.18457Q12.4707 4.33594 12.4707 4.57031Q12.4707 4.69727 12.417 4.80957Q12.3633 4.92188 12.2656 5.01953L7.83203 9.45312L6.17188 11.0156L8.98438 10.8691L10.8691 10.8691Q11.1035 10.8691 11.2695 11.0205Q11.4355 11.1719 11.4355 11.4062Q11.4355 11.6406 11.2744 11.8115Q11.1133 11.9824 10.8691 11.9824L5.11719 11.9824Q4.80469 11.9824 4.65332 11.8311Q4.50195 11.6797 4.50195 11.377L4.50195 5.6543Q4.50195 5.42969 4.66797 5.26855Q4.83398 5.10742 5.07812 5.10742Q5.3125 5.10742 5.46387 5.27344Q5.61523 5.43945 5.61523 5.6543L5.61523 7.5L5.47852 10.3125L7.03125 8.65234L11.4648 4.20898Q11.5527 4.12109 11.6504 4.07715Q11.748 4.0332 11.8848 4.0332Z"
                     fill="#ffffff" />
       </g>
</svg>