<svg width="19.5898" height="19.5996">
       <g>
              <rect height="19.5996" opacity="0" width="19.5898" x="0" y="0" />
              <path d="M9.79492 19.5898Q11.8066 19.5898 13.5791 18.8232Q15.3516 18.0566 16.7041 16.7041Q18.0566 15.3516 18.8232 13.5791Q19.5898 11.8066 19.5898 9.79492Q19.5898 7.7832 18.8232 6.01074Q18.0566 4.23828 16.7041 2.88574Q15.3516 1.5332 13.5742 0.766602Q11.7969 0 9.78516 0Q7.77344 0 6.00098 0.766602Q4.22852 1.5332 2.88086 2.88574Q1.5332 4.23828 0.766602 6.01074Q0 7.7832 0 9.79492Q0 11.8066 0.766602 13.5791Q1.5332 15.3516 2.88574 16.7041Q4.23828 18.0566 6.01074 18.8232Q7.7832 19.5898 9.79492 19.5898Z"
                     fill="rgba(255,255,255,0.55)" />
              <path d="M13.0273 12.1973Q12.7637 12.1973 12.6025 12.0361Q12.4414 11.875 12.4414 11.582L12.4414 9.41406L12.5391 7.7832L11.2793 9.11133L7.00195 13.3984Q6.92383 13.4863 6.80664 13.5352Q6.68945 13.584 6.54297 13.584Q6.28906 13.584 6.13281 13.4277Q5.97656 13.2715 5.97656 12.998Q5.97656 12.7637 6.16211 12.5684L10.459 8.29102L11.8066 7.01172L10.3613 7.11914L7.97852 7.11914Q7.70508 7.11914 7.53418 6.95801Q7.36328 6.79688 7.36328 6.54297Q7.36328 6.28906 7.5293 6.13281Q7.69531 5.97656 7.96875 5.97656L12.959 5.97656Q13.252 5.97656 13.4229 6.12793Q13.5938 6.2793 13.5938 6.62109L13.5938 11.5723Q13.5938 11.8555 13.4375 12.0264Q13.2812 12.1973 13.0273 12.1973Z"
                     fill="#ffffff" />
       </g>
</svg>