<svg width="23.584" height="18.8965">
       <g>
              <rect height="18.8965" opacity="0" width="23.584" x="0" y="0" />
              <path d="M2.88086 18.3008L20.7031 18.3008Q22.1289 18.3008 22.8564 17.583Q23.584 16.8652 23.584 15.4492L23.584 5.18555Q23.584 3.78906 22.8564 3.06641Q22.1289 2.34375 20.7031 2.34375L17.8418 2.34375Q17.4512 2.34375 17.2119 2.29492Q16.9727 2.24609 16.7871 2.10938Q16.6016 1.97266 16.3672 1.70898L15.5566 0.791016Q15.1758 0.380859 14.7656 0.19043Q14.3555 0 13.623 0L9.81445 0Q9.08203 0 8.67676 0.19043Q8.27148 0.380859 7.88086 0.791016L7.07031 1.70898Q6.72852 2.08984 6.45508 2.2168Q6.18164 2.34375 5.5957 2.34375L2.88086 2.34375Q1.44531 2.34375 0.722656 3.06641Q0 3.78906 0 5.18555L0 15.4492Q0 16.8652 0.722656 17.583Q1.44531 18.3008 2.88086 18.3008Z"
                     fill="rgba(255,255,255,0.55)" />
              <path d="M5.19531 9.9707L6.64062 7.86133Q6.82617 7.58789 7.08008 7.59277Q7.33398 7.59766 7.51953 7.86133L8.98438 9.9707Q9.14062 10.1855 9.07715 10.3906Q9.01367 10.5957 8.73047 10.5957L7.65625 10.5957Q7.86133 11.5527 8.45215 12.3047Q9.04297 13.0566 9.90723 13.4912Q10.7715 13.9258 11.8066 13.9258Q12.5488 13.9258 13.1836 13.6719Q13.8184 13.418 14.4434 12.8906Q14.6777 12.7051 14.9219 12.6953Q15.166 12.6855 15.3613 12.8906Q15.5566 13.0957 15.5029 13.3691Q15.4492 13.6426 15.1758 13.8672Q14.5215 14.4531 13.6279 14.7852Q12.7344 15.1172 11.8066 15.1172Q10.4492 15.1172 9.33105 14.5459Q8.21289 13.9746 7.47559 12.959Q6.73828 11.9434 6.51367 10.5957L5.42969 10.5957Q5.15625 10.5957 5.09766 10.3906Q5.03906 10.1855 5.19531 9.9707ZM8.23242 6.71875Q8.03711 6.51367 8.08594 6.24512Q8.13477 5.97656 8.4082 5.75195Q9.07227 5.16602 9.96582 4.8291Q10.8594 4.49219 11.7969 4.49219Q13.1445 4.49219 14.2627 5.06348Q15.3809 5.63477 16.1182 6.65039Q16.8555 7.66602 17.0703 9.01367L18.1152 9.01367Q18.3984 9.01367 18.4521 9.21875Q18.5059 9.42383 18.3594 9.63867L16.9141 11.748Q16.7285 12.0215 16.4697 12.0166Q16.2109 12.0117 16.0254 11.748L14.5703 9.63867Q14.4043 9.42383 14.4727 9.21875Q14.541 9.01367 14.8145 9.01367L15.9375 9.01367Q15.7324 8.05664 15.1416 7.30469Q14.5508 6.55273 13.6865 6.11816Q12.8223 5.68359 11.7969 5.68359Q11.0449 5.68359 10.4053 5.9375Q9.76562 6.19141 9.14062 6.71875Q8.91602 6.89453 8.67676 6.91406Q8.4375 6.93359 8.23242 6.71875Z"
                     fill="#ffffff" />
       </g>
</svg>