<svg width="17.6855" height="17.7051">
       <g>
              <rect height="17.7051" opacity="0" width="17.6855" x="0" y="0" />
              <path d="M2.88086 17.7051L14.8047 17.7051Q16.2305 17.7051 16.958 16.9873Q17.6855 16.2695 17.6855 14.8535L17.6855 2.88086Q17.6855 1.46484 16.958 0.742188Q16.2305 0.0195312 14.8047 0.0195312L2.88086 0.0195312Q1.44531 0.0195312 0.722656 0.737305Q0 1.45508 0 2.88086L0 14.8535Q0 16.2695 0.722656 16.9873Q1.44531 17.7051 2.88086 17.7051Z"
                     fill="rgba(255,255,255,0.55)" />
              <path d="M5.60547 11.25Q5.35156 11.25 5.19531 11.0791Q5.03906 10.9082 5.03906 10.625L5.03906 5.67383Q5.03906 5.33203 5.20996 5.18066Q5.38086 5.0293 5.67383 5.0293L10.6641 5.0293Q10.9375 5.0293 11.1035 5.18555Q11.2695 5.3418 11.2695 5.5957Q11.2695 5.84961 11.0986 6.01074Q10.9277 6.17188 10.6445 6.17188L8.27148 6.17188L6.82617 6.06445L8.18359 7.34375L12.4609 11.6211Q12.6562 11.8164 12.6562 12.0508Q12.6562 12.3242 12.5 12.4805Q12.3438 12.6367 12.0801 12.6367Q11.9336 12.6367 11.8213 12.5879Q11.709 12.5391 11.6211 12.4512L7.35352 8.16406L6.08398 6.83594L6.18164 8.4668L6.18164 10.6348Q6.18164 10.9277 6.02539 11.0889Q5.86914 11.25 5.60547 11.25Z"
                     fill="#ffffff" />
       </g>
</svg>