<svg width="17.6855" height="17.7051">
       <g>
              <rect height="17.7051" opacity="0" width="17.6855" x="0" y="0" />
              <path d="M2.88086 17.7051L14.8047 17.7051Q16.2305 17.7051 16.958 16.9873Q17.6855 16.2695 17.6855 14.8535L17.6855 2.88086Q17.6855 1.46484 16.958 0.742188Q16.2305 0.0195312 14.8047 0.0195312L2.88086 0.0195312Q1.44531 0.0195312 0.722656 0.737305Q0 1.45508 0 2.88086L0 14.8535Q0 16.2695 0.722656 16.9873Q1.44531 17.7051 2.88086 17.7051Z"
                     fill="rgba(255,255,255,0.55)" />
              <path d="M8.85742 13.7891Q8.60352 13.7891 8.4375 13.623Q8.27148 13.457 8.27148 13.1934L8.27148 7.45117L8.33008 5.5957L7.23633 6.81641L5.81055 8.25195Q5.63477 8.42773 5.39062 8.42773Q5.14648 8.42773 4.98535 8.2666Q4.82422 8.10547 4.82422 7.87109Q4.82422 7.62695 4.98047 7.46094L8.4082 4.04297Q8.62305 3.82812 8.85742 3.82812Q9.0918 3.82812 9.30664 4.04297L12.7441 7.46094Q12.9004 7.62695 12.9004 7.87109Q12.9004 8.10547 12.7344 8.2666Q12.5684 8.42773 12.334 8.42773Q12.0801 8.42773 11.9141 8.25195L10.4883 6.81641L9.38477 5.58594L9.44336 7.45117L9.44336 13.1934Q9.44336 13.457 9.28223 13.623Q9.12109 13.7891 8.85742 13.7891Z"
                     fill="#ffffff" />
       </g>
</svg>