<svg width="17.6855" height="17.7051">
       <g>
              <rect height="17.7051" opacity="0" width="17.6855" x="0" y="0" />
              <path d="M2.88086 17.7051L14.8047 17.7051Q16.2305 17.7051 16.958 16.9873Q17.6855 16.2695 17.6855 14.8535L17.6855 2.88086Q17.6855 1.46484 16.958 0.742188Q16.2305 0.0195312 14.8047 0.0195312L2.88086 0.0195312Q1.44531 0.0195312 0.722656 0.737305Q0 1.45508 0 2.88086L0 14.8535Q0 16.2695 0.722656 16.9873Q1.44531 17.7051 2.88086 17.7051Z"
                     fill="rgba(255,255,255,0.55)" />
              <path d="M13.623 9.94141Q13.623 11.0254 13.1543 11.8359Q12.6855 12.6465 11.8408 13.0957Q10.9961 13.5449 9.88281 13.5449L8.48633 13.5449Q8.22266 13.5449 8.05664 13.3887Q7.89062 13.2324 7.89062 12.9785Q7.89062 12.7246 8.05176 12.5684Q8.21289 12.4121 8.47656 12.4121L9.88281 12.4121Q11.0547 12.4121 11.7725 11.7334Q12.4902 11.0547 12.4902 9.94141Q12.4902 8.88672 11.7773 8.23242Q11.0645 7.57812 9.89258 7.57812L6.71875 7.57812L5.74219 7.54883L6.18164 7.88086L7.59766 9.25781Q7.7832 9.45312 7.7832 9.6875Q7.7832 9.93164 7.62207 10.1025Q7.46094 10.2734 7.2168 10.2734Q6.97266 10.2734 6.79688 10.1074L4.26758 7.51953Q4.05273 7.29492 4.05273 7.01172Q4.05273 6.73828 4.26758 6.50391L6.78711 3.93555Q6.96289 3.76953 7.20703 3.76953Q7.46094 3.76953 7.62207 3.94043Q7.7832 4.11133 7.7832 4.35547Q7.7832 4.59961 7.59766 4.77539L6.30859 6.02539L5.73242 6.49414L6.71875 6.45508L9.89258 6.45508Q11.0059 6.45508 11.8506 6.88965Q12.6953 7.32422 13.1592 8.11035Q13.623 8.89648 13.623 9.94141Z"
                     fill="#ffffff" />
       </g>
</svg>