<svg width="19.5898" height="19.5996">
       <g>
              <rect height="19.5996" opacity="0" width="19.5898" x="0" y="0" />
              <path d="M9.79492 19.5898Q11.8066 19.5898 13.5791 18.8232Q15.3516 18.0566 16.7041 16.7041Q18.0566 15.3516 18.8232 13.5791Q19.5898 11.8066 19.5898 9.79492Q19.5898 7.7832 18.8232 6.01074Q18.0566 4.23828 16.7041 2.88574Q15.3516 1.5332 13.5742 0.766602Q11.7969 0 9.78516 0Q7.77344 0 6.00098 0.766602Q4.22852 1.5332 2.88086 2.88574Q1.5332 4.23828 0.766602 6.01074Q0 7.7832 0 9.79492Q0 11.8066 0.766602 13.5791Q1.5332 15.3516 2.88574 16.7041Q4.23828 18.0566 6.01074 18.8232Q7.7832 19.5898 9.79492 19.5898Z"
                     fill="rgba(255,255,255,0.55)" />
              <path d="M9.30664 13.5059L5.88867 7.82227Q5.72266 7.5293 5.83984 7.22168Q5.95703 6.91406 6.2793 6.91406L13.3008 6.91406Q13.623 6.91406 13.7451 7.21191Q13.8672 7.50977 13.6816 7.82227L10.3027 13.5059Q10.127 13.8086 9.80469 13.8037Q9.48242 13.7988 9.30664 13.5059Z"
                     fill="#ffffff" />
       </g>
</svg>