<svg width="19.5898" height="19.5996">
       <g>
              <rect height="19.5996" opacity="0" width="19.5898" x="0" y="0" />
              <path d="M9.79492 19.5898Q11.8066 19.5898 13.5791 18.8232Q15.3516 18.0566 16.7041 16.7041Q18.0566 15.3516 18.8232 13.5791Q19.5898 11.8066 19.5898 9.79492Q19.5898 7.7832 18.8232 6.01074Q18.0566 4.23828 16.7041 2.88574Q15.3516 1.5332 13.5742 0.766602Q11.7969 0 9.78516 0Q7.77344 0 6.00098 0.766602Q4.22852 1.5332 2.88086 2.88574Q1.5332 4.23828 0.766602 6.01074Q0 7.7832 0 9.79492Q0 11.8066 0.766602 13.5791Q1.5332 15.3516 2.88574 16.7041Q4.23828 18.0566 6.01074 18.8232Q7.7832 19.5898 9.79492 19.5898Z"
                     fill="#0a84ff" />
              <path d="M5.58594 12.9297L5.58594 10Q5.58594 8.62305 6.24023 7.96875Q6.89453 7.31445 8.25195 7.31445L11.2305 7.31445L11.2305 5.94727Q11.2305 5.51758 11.5723 5.38086Q11.9141 5.24414 12.2363 5.49805L14.5117 7.28516Q14.8926 7.57812 14.8926 7.93457Q14.8926 8.29102 14.5117 8.58398L12.2363 10.3809Q11.9141 10.625 11.5723 10.4883Q11.2305 10.3516 11.2305 9.92188L11.2305 8.55469L8.28125 8.56445Q7.51953 8.56445 7.16797 8.91602Q6.81641 9.26758 6.81641 10.0586L6.81641 12.9297Q6.81641 13.252 6.65527 13.4375Q6.49414 13.623 6.20117 13.623Q5.9082 13.623 5.74707 13.4375Q5.58594 13.252 5.58594 12.9297Z"
                     fill="#ffffff" />
       </g>
</svg>