<svg width="17.6855" height="17.7051">
       <g>
              <rect height="17.7051" opacity="0" width="17.6855" x="0" y="0" />
              <path d="M2.88086 17.7051L14.8047 17.7051Q16.2305 17.7051 16.958 16.9873Q17.6855 16.2695 17.6855 14.8535L17.6855 2.88086Q17.6855 1.46484 16.958 0.742188Q16.2305 0.0195312 14.8047 0.0195312L2.88086 0.0195312Q1.44531 0.0195312 0.722656 0.737305Q0 1.45508 0 2.88086L0 14.8535Q0 16.2695 0.722656 16.9873Q1.44531 17.7051 2.88086 17.7051Z"
                     fill="rgba(255,255,255,0.55)" />
              <path d="M4.90234 9.36523Q4.61914 9.17969 4.61914 8.85742Q4.61914 8.53516 4.90234 8.36914L10.5957 4.96094Q10.8887 4.78516 11.1914 4.90234Q11.4941 5.01953 11.4941 5.3418L11.4941 12.3633Q11.4941 12.6855 11.2012 12.8125Q10.9082 12.9395 10.5957 12.7539Z"
                     fill="#ffffff" />
       </g>
</svg>