<svg width="19.5898" height="19.5996">
       <g>
              <rect height="19.5996" opacity="0" width="19.5898" x="0" y="0" />
              <path d="M9.79492 19.5898Q11.8066 19.5898 13.5791 18.8232Q15.3516 18.0566 16.7041 16.7041Q18.0566 15.3516 18.8232 13.5791Q19.5898 11.8066 19.5898 9.79492Q19.5898 7.7832 18.8232 6.01074Q18.0566 4.23828 16.7041 2.88574Q15.3516 1.5332 13.5742 0.766602Q11.7969 0 9.78516 0Q7.77344 0 6.00098 0.766602Q4.22852 1.5332 2.88086 2.88574Q1.5332 4.23828 0.766602 6.01074Q0 7.7832 0 9.79492Q0 11.8066 0.766602 13.5791Q1.5332 15.3516 2.88574 16.7041Q4.23828 18.0566 6.01074 18.8232Q7.7832 19.5898 9.79492 19.5898Z"
                     fill="rgba(255,255,255,0.55)" />
              <path d="M15.752 9.78516Q15.752 10 15.5273 10.2246L12.6074 13.1543Q12.4512 13.3203 12.1875 13.3203Q11.9531 13.3203 11.7969 13.1592Q11.6406 12.998 11.6406 12.7637Q11.6406 12.627 11.6895 12.5244Q11.7383 12.4219 11.8164 12.334L12.7539 11.416L13.9844 10.3027L12.1289 10.3711L7.45117 10.3711L5.60547 10.3027L6.83594 11.416L7.76367 12.334Q7.8418 12.4219 7.89062 12.5244Q7.93945 12.627 7.93945 12.7637Q7.93945 12.998 7.7832 13.1592Q7.62695 13.3203 7.38281 13.3203Q7.13867 13.3203 6.97266 13.1543L4.0625 10.2246Q3.83789 10 3.83789 9.78516Q3.83789 9.55078 4.0625 9.32617L6.97266 6.40625Q7.13867 6.24023 7.38281 6.24023Q7.62695 6.24023 7.7832 6.40137Q7.93945 6.5625 7.93945 6.80664Q7.93945 6.93359 7.89551 7.03613Q7.85156 7.13867 7.76367 7.22656L6.83594 8.14453L5.5957 9.25781L7.45117 9.18945L12.1289 9.18945L13.9844 9.25781L12.7539 8.14453L11.8164 7.22656Q11.7285 7.13867 11.6846 7.03613Q11.6406 6.93359 11.6406 6.80664Q11.6406 6.5625 11.7969 6.40137Q11.9531 6.24023 12.1875 6.24023Q12.4414 6.24023 12.6074 6.40625L15.5273 9.32617Q15.752 9.55078 15.752 9.78516Z"
                     fill="#ffffff" />
       </g>
</svg>