<svg width="16.1473" height="20.8188">
       <g>
              <rect height="20.8188" opacity="0" width="16.1473" x="0" y="0" />
              <path d="M2.85477 20.8188L13.2925 20.8188Q14.7124 20.8188 15.4298 20.0945Q16.1473 19.3703 16.1473 17.9437L16.1473 8.74054L9.16779 8.74054Q7.47955 8.74054 7.47955 7.0462L7.47955 0.00534058L2.85477 0.00534058Q1.44104 0.00534058 0.72052 0.732956Q0 1.46057 0 2.88712L0 17.9437Q0 19.3771 0.717468 20.098Q1.43494 20.8188 2.85477 20.8188ZM9.22424 7.60239L16.015 7.60239Q15.9752 7.35718 15.8035 7.11655Q15.6317 6.87592 15.3558 6.59637L9.62372 0.796967Q9.3576 0.523987 9.10721 0.348892Q8.85681 0.173798 8.6145 0.133972L8.6145 6.99936Q8.6145 7.60239 9.22424 7.60239Z"
                     fill="rgba(255,255,255,0.55)" />
              <path d="M8.07358 18.325Q7.84424 18.325 7.6812 18.1639Q7.51816 18.0028 7.51816 17.7831L7.51816 13.6995L7.5647 11.9536L6.30539 13.2355L5.47699 14.0834Q5.39673 14.1599 5.29213 14.2063Q5.18753 14.2528 5.07812 14.2528Q4.84879 14.2528 4.70108 14.1085Q4.55338 13.9642 4.55338 13.7386Q4.55338 13.5944 4.61685 13.4901Q4.68033 13.3859 4.77249 13.3003L7.66129 10.5568Q7.77145 10.4533 7.86934 10.4102Q7.96722 10.3671 8.07358 10.3671Q8.18008 10.3671 8.27797 10.4102Q8.37585 10.4533 8.48587 10.5568L11.3747 13.3003Q11.467 13.3859 11.5305 13.4901Q11.5939 13.5944 11.5939 13.7386Q11.5939 13.9642 11.4429 14.1085Q11.2918 14.2528 11.0692 14.2528Q10.9596 14.2528 10.855 14.2063Q10.7504 14.1599 10.6703 14.0834L9.84192 13.2355L8.58261 11.9536L8.63586 13.6995L8.63586 17.7831Q8.63586 18.0028 8.46947 18.1639Q8.30307 18.325 8.07358 18.325Z"
                     fill="#ffffff" />
       </g>
</svg>