<svg width="17.6855" height="17.7051">
       <g>
              <rect height="17.7051" opacity="0" width="17.6855" x="0" y="0" />
              <path d="M2.88086 17.7051L14.8047 17.7051Q16.2305 17.7051 16.958 16.9873Q17.6855 16.2695 17.6855 14.8535L17.6855 2.88086Q17.6855 1.46484 16.958 0.742188Q16.2305 0.0195312 14.8047 0.0195312L2.88086 0.0195312Q1.44531 0.0195312 0.722656 0.737305Q0 1.45508 0 2.88086L0 14.8535Q0 16.2695 0.722656 16.9873Q1.44531 17.7051 2.88086 17.7051Z"
                     fill="rgba(255,255,255,0.55)" />
              <path d="M3.73047 8.82812Q3.73047 8.59375 3.95508 8.37891L7.49023 4.83398Q7.64648 4.66797 7.90039 4.66797Q8.14453 4.66797 8.30566 4.8291Q8.4668 4.99023 8.4668 5.22461Q8.4668 5.44922 8.27148 5.6543L6.72852 7.19727L5.49805 8.30078L7.34375 8.23242L13.4082 8.23242Q13.6621 8.23242 13.8281 8.39844Q13.9941 8.56445 13.9941 8.82812Q13.9941 9.08203 13.8281 9.24805Q13.6621 9.41406 13.4082 9.41406L7.34375 9.41406L5.48828 9.3457L6.72852 10.459L8.27148 12.002Q8.4668 12.1777 8.4668 12.4316Q8.4668 12.666 8.30566 12.832Q8.14453 12.998 7.90039 12.998Q7.65625 12.998 7.49023 12.8223L3.95508 9.27734Q3.73047 9.0625 3.73047 8.82812Z"
                     fill="#ffffff" />
       </g>
</svg>