<svg width="17.6855" height="17.9395">
       <g>
              <rect height="17.9395" opacity="0" width="17.6855" x="0" y="0" />
              <path d="M2.88086 17.6855L14.8047 17.6855Q16.2305 17.6855 16.958 16.9678Q17.6855 16.25 17.6855 14.834L17.6855 2.86133Q17.6855 1.44531 16.958 0.722656Q16.2305 0 14.8047 0L2.88086 0Q1.44531 0 0.722656 0.717773Q0 1.43555 0 2.86133L0 14.834Q0 16.25 0.722656 16.9678Q1.44531 17.6855 2.88086 17.6855Z"
                     fill="rgba(255,255,255,0.55)" />
              <path d="M4.05273 9.92188Q4.05273 8.87695 4.52148 8.09082Q4.99023 7.30469 5.83008 6.87012Q6.66992 6.43555 7.79297 6.43555L10.9668 6.43555L11.9434 6.47461L11.3672 6.00586L10.0879 4.75586Q9.90234 4.58008 9.90234 4.33594Q9.90234 4.0918 10.0586 3.9209Q10.2148 3.75 10.4688 3.75Q10.7129 3.75 10.8887 3.91602L13.4082 6.48438Q13.623 6.71875 13.623 6.99219Q13.623 7.27539 13.4082 7.5L10.8789 10.0879Q10.7129 10.2539 10.459 10.2539Q10.2148 10.2539 10.0586 10.083Q9.90234 9.91211 9.90234 9.66797Q9.90234 9.43359 10.0879 9.23828L11.4941 7.86133L11.9434 7.5293L10.9668 7.55859L7.79297 7.55859Q6.61133 7.55859 5.89844 8.21289Q5.18555 8.86719 5.18555 9.92188Q5.18555 11.0352 5.9082 11.7139Q6.63086 12.3926 7.80273 12.3926L9.19922 12.3926Q9.46289 12.3926 9.62891 12.5488Q9.79492 12.7051 9.79492 12.959Q9.79492 13.2129 9.62891 13.3691Q9.46289 13.5254 9.18945 13.5254L7.80273 13.5254Q6.67969 13.5254 5.83496 13.0762Q4.99023 12.627 4.52148 11.8164Q4.05273 11.0059 4.05273 9.92188Z"
                     fill="#ffffff" />
       </g>
</svg>