<svg width="19.5898" height="19.5996">
       <g>
              <rect height="19.5996" opacity="0" width="19.5898" x="0" y="0" />
              <path d="M9.79492 19.5898Q11.8066 19.5898 13.5791 18.8232Q15.3516 18.0566 16.7041 16.7041Q18.0566 15.3516 18.8232 13.5791Q19.5898 11.8066 19.5898 9.79492Q19.5898 7.7832 18.8232 6.01074Q18.0566 4.23828 16.7041 2.88574Q15.3516 1.5332 13.5742 0.766602Q11.7969 0 9.78516 0Q7.77344 0 6.00098 0.766602Q4.22852 1.5332 2.88086 2.88574Q1.5332 4.23828 0.766602 6.01074Q0 7.7832 0 9.79492Q0 11.8066 0.766602 13.5791Q1.5332 15.3516 2.88574 16.7041Q4.23828 18.0566 6.01074 18.8232Q7.7832 19.5898 9.79492 19.5898Z"
                     fill="rgba(255,255,255,0.55)" />
              <path d="M5.42969 9.55078Q5.19531 9.55078 5.0293 9.38477Q4.86328 9.21875 4.86328 8.97461L4.86328 5.50781Q4.86328 5.16602 5.03418 5.00977Q5.20508 4.85352 5.51758 4.85352L8.98438 4.85352Q9.21875 4.85352 9.38477 5.01953Q9.55078 5.18555 9.55078 5.42969Q9.55078 5.67383 9.38477 5.83984Q9.21875 6.00586 8.98438 6.00586L8.33008 5.98633L6.70898 5.92773L9.21875 8.34961Q9.39453 8.51562 9.39941 8.76953Q9.4043 9.02344 9.21875 9.20898Q9.05273 9.38477 8.79883 9.38965Q8.54492 9.39453 8.35938 9.19922L5.9375 6.67969L6.00586 8.37891L6.00586 8.97461Q6.00586 9.21875 5.83984 9.38477Q5.67383 9.55078 5.42969 9.55078ZM10.6055 14.7168Q10.3613 14.7168 10.1953 14.5508Q10.0293 14.3848 10.0293 14.1504Q10.0293 13.9062 10.1953 13.7402Q10.3613 13.5742 10.6055 13.5742L11.2598 13.584L12.8711 13.6426L10.3711 11.2305Q10.1953 11.0547 10.1904 10.8008Q10.1855 10.5469 10.3711 10.3711Q10.5371 10.1953 10.791 10.1904Q11.0449 10.1855 11.2305 10.3711L13.6523 12.9004L13.584 11.1914L13.584 10.5957Q13.584 10.3516 13.75 10.1855Q13.916 10.0195 14.1504 10.0195Q14.3945 10.0195 14.5605 10.1855Q14.7266 10.3516 14.7266 10.5957L14.7266 14.0625Q14.7266 14.4043 14.5508 14.5605Q14.375 14.7168 14.0625 14.7168Z"
                     fill="#ffffff" />
       </g>
</svg>