<svg width="17.6855" height="17.7051">
       <g>
              <rect height="17.7051" opacity="0" width="17.6855" x="0" y="0" />
              <path d="M2.88086 17.7051L14.8047 17.7051Q16.2305 17.7051 16.958 16.9873Q17.6855 16.2695 17.6855 14.8535L17.6855 2.88086Q17.6855 1.46484 16.958 0.742188Q16.2305 0.0195312 14.8047 0.0195312L2.88086 0.0195312Q1.44531 0.0195312 0.722656 0.737305Q0 1.45508 0 2.88086L0 14.8535Q0 16.2695 0.722656 16.9873Q1.44531 17.7051 2.88086 17.7051Z"
                     fill="rgba(255,255,255,0.55)" />
              <path d="M13.9746 8.82812Q13.9746 9.0625 13.7598 9.27734L10.2148 12.8223Q10.0488 12.998 9.80469 12.998Q9.56055 12.998 9.39941 12.832Q9.23828 12.666 9.23828 12.4316Q9.23828 12.1777 9.43359 12.002L10.9766 10.459L12.2168 9.3457L10.3613 9.41406L4.30664 9.41406Q4.04297 9.41406 3.87695 9.24805Q3.71094 9.08203 3.71094 8.82812Q3.71094 8.56445 3.87695 8.39844Q4.04297 8.23242 4.30664 8.23242L10.3613 8.23242L12.207 8.30078L10.9766 7.19727L9.43359 5.6543Q9.23828 5.44922 9.23828 5.22461Q9.23828 4.99023 9.39941 4.8291Q9.56055 4.66797 9.80469 4.66797Q10.0586 4.66797 10.2148 4.83398L13.7598 8.37891Q13.9746 8.59375 13.9746 8.82812Z"
                     fill="#ffffff" />
       </g>
</svg>