<svg width="19.5898" height="19.5996">
       <g>
              <rect height="19.5996" opacity="0" width="19.5898" x="0" y="0" />
              <path d="M9.79492 19.5996Q11.8066 19.5996 13.5791 18.833Q15.3516 18.0664 16.7041 16.7139Q18.0566 15.3613 18.8232 13.5889Q19.5898 11.8164 19.5898 9.80469Q19.5898 7.79297 18.8232 6.02051Q18.0566 4.24805 16.7041 2.89551Q15.3516 1.54297 13.5742 0.776367Q11.7969 0.00976562 9.78516 0.00976562Q7.77344 0.00976562 6.00098 0.776367Q4.22852 1.54297 2.88086 2.89551Q1.5332 4.24805 0.766602 6.02051Q0 7.79297 0 9.80469Q0 11.8164 0.766602 13.5889Q1.5332 15.3613 2.88574 16.7139Q4.23828 18.0664 6.01074 18.833Q7.7832 19.5996 9.79492 19.5996Z"
                     fill="rgba(255,255,255,0.55)" />
              <path d="M5.43945 10.2637Q5.43945 9.0625 6.02051 8.08594Q6.60156 7.10938 7.56836 6.53809Q8.53516 5.9668 9.66797 5.9668Q9.80469 5.9668 9.94141 5.98145Q10.0781 5.99609 10.1855 6.01562L9.16992 4.99023Q9.10156 4.91211 9.06738 4.81445Q9.0332 4.7168 9.0332 4.60938Q9.0332 4.39453 9.17969 4.23828Q9.32617 4.08203 9.55078 4.08203Q9.6582 4.08203 9.75586 4.13574Q9.85352 4.18945 9.93164 4.26758L11.9141 6.29883Q12.0605 6.45508 12.0605 6.68945Q12.0605 6.92383 11.9141 7.07031L9.90234 9.11133Q9.74609 9.26758 9.55078 9.26758Q9.33594 9.26758 9.18457 9.11621Q9.0332 8.96484 9.0332 8.75Q9.0332 8.52539 9.20898 8.35938L10.4688 7.09961Q10.2051 7.04102 9.79492 7.04102Q8.88672 7.04102 8.14941 7.47559Q7.41211 7.91016 6.97754 8.64746Q6.54297 9.38477 6.54297 10.293Q6.54297 11.2109 6.97754 11.9482Q7.41211 12.6855 8.14941 13.125Q8.88672 13.5645 9.79492 13.5645Q10.7031 13.5645 11.4404 13.125Q12.1777 12.6855 12.6172 11.9434Q13.0566 11.2012 13.0566 10.293Q13.0566 10.0684 13.2178 9.90723Q13.3789 9.74609 13.6133 9.74609Q13.8184 9.74609 13.9844 9.90723Q14.1504 10.0684 14.1504 10.293Q14.1504 11.5039 13.5693 12.4951Q12.9883 13.4863 11.9971 14.0771Q11.0059 14.668 9.79492 14.668Q8.58398 14.668 7.59766 14.0771Q6.61133 13.4863 6.02539 12.4854Q5.43945 11.4844 5.43945 10.2637Z"
                     fill="#ffffff" />
       </g>
</svg>