<svg width="17.6855" height="17.7832">
       <g>
              <rect height="17.7832" opacity="0" width="17.6855" x="0" y="0" />
              <path d="M2.88086 17.6855L14.8047 17.6855Q16.2305 17.6855 16.958 16.9678Q17.6855 16.25 17.6855 14.834L17.6855 2.86133Q17.6855 1.44531 16.958 0.722656Q16.2305 0 14.8047 0L2.88086 0Q1.44531 0 0.722656 0.717773Q0 1.43555 0 2.86133L0 14.834Q0 16.25 0.722656 16.9678Q1.44531 17.6855 2.88086 17.6855Z"
                     fill="rgba(255,255,255,0.55)" />
              <path d="M13.623 9.92188Q13.623 11.0059 13.1543 11.8164Q12.6855 12.627 11.8408 13.0762Q10.9961 13.5254 9.88281 13.5254L8.48633 13.5254Q8.22266 13.5254 8.05664 13.3691Q7.89062 13.2129 7.89062 12.959Q7.89062 12.7051 8.05176 12.5488Q8.21289 12.3926 8.47656 12.3926L9.88281 12.3926Q11.0547 12.3926 11.7725 11.7139Q12.4902 11.0352 12.4902 9.92188Q12.4902 8.86719 11.7773 8.21289Q11.0645 7.55859 9.89258 7.55859L6.71875 7.55859L5.74219 7.5293L6.18164 7.86133L7.59766 9.23828Q7.7832 9.43359 7.7832 9.66797Q7.7832 9.91211 7.62207 10.083Q7.46094 10.2539 7.2168 10.2539Q6.97266 10.2539 6.79688 10.0879L4.26758 7.5Q4.05273 7.27539 4.05273 6.99219Q4.05273 6.71875 4.26758 6.48438L6.78711 3.91602Q6.96289 3.75 7.20703 3.75Q7.46094 3.75 7.62207 3.9209Q7.7832 4.0918 7.7832 4.33594Q7.7832 4.58008 7.59766 4.75586L6.30859 6.00586L5.73242 6.47461L6.71875 6.43555L9.89258 6.43555Q11.0059 6.43555 11.8506 6.87012Q12.6953 7.30469 13.1592 8.09082Q13.623 8.87695 13.623 9.92188Z"
                     fill="#ffffff" />
       </g>
</svg>