<svg width="19.5898" height="19.5996">
       <g>
              <rect height="19.5996" opacity="0" width="19.5898" x="0" y="0" />
              <path d="M9.79492 19.5996Q11.8066 19.5996 13.5791 18.833Q15.3516 18.0664 16.7041 16.7139Q18.0566 15.3613 18.8232 13.5889Q19.5898 11.8164 19.5898 9.80469Q19.5898 7.79297 18.8232 6.02051Q18.0566 4.24805 16.7041 2.89551Q15.3516 1.54297 13.5742 0.776367Q11.7969 0.00976562 9.78516 0.00976562Q7.77344 0.00976562 6.00098 0.776367Q4.22852 1.54297 2.88086 2.89551Q1.5332 4.24805 0.766602 6.02051Q0 7.79297 0 9.80469Q0 11.8164 0.766602 13.5889Q1.5332 15.3613 2.88574 16.7139Q4.23828 18.0664 6.01074 18.833Q7.7832 19.5996 9.79492 19.5996Z"
                     fill="rgba(255,255,255,0.55)" />
              <path d="M14.1504 10.2637Q14.1504 11.4844 13.5645 12.4854Q12.9785 13.4863 11.9922 14.0771Q11.0059 14.668 9.79492 14.668Q8.57422 14.668 7.59277 14.0771Q6.61133 13.4863 6.02539 12.4951Q5.43945 11.5039 5.43945 10.293Q5.43945 10.0684 5.60059 9.90723Q5.76172 9.74609 5.98633 9.74609Q6.21094 9.74609 6.37695 9.90723Q6.54297 10.0684 6.54297 10.293Q6.54297 11.2012 6.97754 11.9434Q7.41211 12.6855 8.14941 13.125Q8.88672 13.5645 9.79492 13.5645Q10.7031 13.5645 11.4404 13.125Q12.1777 12.6855 12.6172 11.9482Q13.0566 11.2109 13.0566 10.293Q13.0566 9.38477 12.6172 8.64746Q12.1777 7.91016 11.4404 7.47559Q10.7031 7.04102 9.79492 7.04102Q9.38477 7.04102 9.12109 7.09961L10.3906 8.35938Q10.5566 8.52539 10.5566 8.75Q10.5566 8.96484 10.4102 9.11621Q10.2637 9.26758 10.0293 9.26758Q9.83398 9.26758 9.6875 9.11133L7.68555 7.07031Q7.5293 6.92383 7.5293 6.68945Q7.5293 6.45508 7.68555 6.29883L9.6582 4.26758Q9.73633 4.18945 9.83398 4.13574Q9.93164 4.08203 10.0391 4.08203Q10.2637 4.08203 10.415 4.23828Q10.5664 4.39453 10.5664 4.60938Q10.5664 4.7168 10.5273 4.81445Q10.4883 4.91211 10.4102 4.99023L9.4043 6.01562Q9.51172 5.99609 9.64844 5.98145Q9.78516 5.9668 9.92188 5.9668Q11.0645 5.9668 12.0215 6.53809Q12.9785 7.10938 13.5645 8.08594Q14.1504 9.0625 14.1504 10.2637Z"
                     fill="#ffffff" />
       </g>
</svg>