<svg width="21.7969" height="19.8926">
       <g>
              <rect height="19.8926" opacity="0" width="21.7969" x="0" y="0" />
              <path d="M3.89648 19.8828Q4.30664 19.8828 4.95117 19.6973Q5.5957 19.5117 6.35254 19.1943Q7.10938 18.877 7.87109 18.4863Q8.63281 18.0957 9.27734 17.6758Q9.4043 17.5879 9.50684 17.5586Q9.60938 17.5293 9.70703 17.5293Q9.90234 17.5488 10.0928 17.5635Q10.2832 17.5781 10.4785 17.5781Q12.4707 17.5781 14.2041 17.1289Q15.9375 16.6797 17.334 15.8691Q18.7305 15.0586 19.7314 13.96Q20.7324 12.8613 21.2646 11.5479Q21.7969 10.2344 21.7969 8.78906Q21.7969 6.96289 20.957 5.37109Q20.1172 3.7793 18.623 2.57324Q17.1289 1.36719 15.1514 0.683594Q13.1738 0 10.8984 0Q8.62305 0 6.64551 0.683594Q4.66797 1.36719 3.17383 2.57324Q1.67969 3.7793 0.839844 5.37109Q0 6.96289 0 8.78906Q0 10.332 0.600586 11.7285Q1.20117 13.125 2.31445 14.2773Q3.42773 15.4297 4.95117 16.2207Q5.06836 16.2891 5.10254 16.3916Q5.13672 16.4941 5.06836 16.6113Q4.83398 17.0215 4.51172 17.4463Q4.18945 17.8711 3.88672 18.2373Q3.58398 18.6035 3.38867 18.8379Q3.10547 19.1992 3.2373 19.541Q3.36914 19.8828 3.89648 19.8828Z"
                     fill="rgba(255,255,255,0.55)" />
              <path d="M10.9082 13.7988Q10.6543 13.7988 10.4883 13.6328Q10.3223 13.4668 10.3223 13.2031L10.3223 7.46094L10.3809 5.60547L9.28711 6.82617L7.86133 8.26172Q7.68555 8.4375 7.44141 8.4375Q7.19727 8.4375 7.03613 8.27637Q6.875 8.11523 6.875 7.88086Q6.875 7.63672 7.03125 7.4707L10.459 4.05273Q10.6738 3.83789 10.9082 3.83789Q11.1426 3.83789 11.3574 4.05273L14.7949 7.4707Q14.9512 7.63672 14.9512 7.88086Q14.9512 8.11523 14.7852 8.27637Q14.6191 8.4375 14.3848 8.4375Q14.1309 8.4375 13.9648 8.26172L12.5391 6.82617L11.4355 5.5957L11.4941 7.46094L11.4941 13.2031Q11.4941 13.4668 11.333 13.6328Q11.1719 13.7988 10.9082 13.7988Z"
                     fill="#ffffff" />
       </g>
</svg>