<svg width="19.5898" height="19.8145">
       <g>
              <rect height="19.8145" opacity="0" width="19.5898" x="0" y="0" />
              <path d="M9.79492 19.5898Q11.8066 19.5898 13.5791 18.8232Q15.3516 18.0566 16.7041 16.7041Q18.0566 15.3516 18.8232 13.5791Q19.5898 11.8066 19.5898 9.79492Q19.5898 7.7832 18.8232 6.01074Q18.0566 4.23828 16.7041 2.88574Q15.3516 1.5332 13.5742 0.766602Q11.7969 0 9.78516 0Q7.77344 0 6.00098 0.766602Q4.22852 1.5332 2.88086 2.88574Q1.5332 4.23828 0.766602 6.01074Q0 7.7832 0 9.79492Q0 11.8066 0.766602 13.5791Q1.5332 15.3516 2.88574 16.7041Q4.23828 18.0566 6.01074 18.8232Q7.7832 19.5898 9.79492 19.5898Z"
                     fill="rgba(255,255,255,0.55)" />
              <path d="M10.8203 4.93164Q11.9141 4.93164 12.7197 5.40039Q13.5254 5.86914 13.9746 6.71387Q14.4238 7.55859 14.4238 8.67188L14.4238 10.0684Q14.4238 10.332 14.2676 10.498Q14.1113 10.6641 13.8574 10.6641Q13.6035 10.6641 13.4473 10.5029Q13.291 10.3418 13.291 10.0781L13.291 8.67188Q13.291 7.5 12.6123 6.78223Q11.9336 6.06445 10.8203 6.06445Q9.75586 6.06445 9.10645 6.77734Q8.45703 7.49023 8.45703 8.66211L8.45703 11.8359L8.42773 12.8125L8.75 12.373L10.127 10.957Q10.3125 10.7715 10.5664 10.7715Q10.8008 10.7715 10.9766 10.9326Q11.1523 11.0938 11.1523 11.3379Q11.1523 11.5918 10.9766 11.7578L8.39844 14.2871Q8.17383 14.502 7.89062 14.502Q7.60742 14.502 7.38281 14.2871L4.82422 11.7676Q4.64844 11.6016 4.64844 11.3379Q4.64844 11.0938 4.82422 10.9326Q5 10.7715 5.23438 10.7715Q5.47852 10.7715 5.64453 10.957L6.9043 12.2461L7.37305 12.8223L7.33398 11.8359L7.33398 8.66211Q7.33398 7.54883 7.76367 6.70898Q8.19336 5.86914 8.97949 5.40039Q9.76562 4.93164 10.8203 4.93164Z"
                     fill="#ffffff" />
       </g>
</svg>