<svg width="19.5898" height="19.8145">
       <g>
              <rect height="19.8145" opacity="0" width="19.5898" x="0" y="0" />
              <path d="M9.79492 19.5898Q11.8066 19.5898 13.5791 18.8232Q15.3516 18.0566 16.7041 16.7041Q18.0566 15.3516 18.8232 13.5791Q19.5898 11.8066 19.5898 9.79492Q19.5898 7.7832 18.8232 6.01074Q18.0566 4.23828 16.7041 2.88574Q15.3516 1.5332 13.5742 0.766602Q11.7969 0 9.78516 0Q7.77344 0 6.00098 0.766602Q4.22852 1.5332 2.88086 2.88574Q1.5332 4.23828 0.766602 6.01074Q0 7.7832 0 9.79492Q0 11.8066 0.766602 13.5791Q1.5332 15.3516 2.88574 16.7041Q4.23828 18.0566 6.01074 18.8232Q7.7832 19.5898 9.79492 19.5898Z"
                     fill="rgba(255,255,255,0.55)" />
              <path d="M5 10.8887Q5 9.84375 5.46875 9.05762Q5.9375 8.27148 6.77734 7.83691Q7.61719 7.40234 8.74023 7.40234L11.9141 7.40234L12.8906 7.44141L12.3145 6.97266L11.0352 5.72266Q10.8496 5.54688 10.8496 5.30273Q10.8496 5.05859 11.0059 4.8877Q11.1621 4.7168 11.416 4.7168Q11.6602 4.7168 11.8359 4.88281L14.3555 7.45117Q14.5703 7.68555 14.5703 7.95898Q14.5703 8.24219 14.3555 8.4668L11.8262 11.0547Q11.6602 11.2207 11.4062 11.2207Q11.1621 11.2207 11.0059 11.0498Q10.8496 10.8789 10.8496 10.6348Q10.8496 10.4004 11.0352 10.2051L12.4414 8.82812L12.8906 8.49609L11.9141 8.52539L8.74023 8.52539Q7.55859 8.52539 6.8457 9.17969Q6.13281 9.83398 6.13281 10.8887Q6.13281 12.002 6.85547 12.6807Q7.57812 13.3594 8.75 13.3594L10.1465 13.3594Q10.4102 13.3594 10.5762 13.5156Q10.7422 13.6719 10.7422 13.9258Q10.7422 14.1797 10.5762 14.3359Q10.4102 14.4922 10.1367 14.4922L8.75 14.4922Q7.62695 14.4922 6.78223 14.043Q5.9375 13.5938 5.46875 12.7832Q5 11.9727 5 10.8887Z"
                     fill="#ffffff" />
       </g>
</svg>