<svg width="22.8711" height="17.6855">
       <g>
              <rect height="17.6855" opacity="0" width="22.8711" x="0" y="0" />
              <path d="M2.88086 17.6855L19.9902 17.6855Q21.4258 17.6855 22.1484 16.9629Q22.8711 16.2402 22.8711 14.834L22.8711 2.85156Q22.8711 1.44531 22.1484 0.722656Q21.4258 0 19.9902 0L2.88086 0Q1.44531 0 0.722656 0.717773Q0 1.43555 0 2.85156L0 14.834Q0 16.25 0.722656 16.9678Q1.44531 17.6855 2.88086 17.6855Z"
                     fill="rgba(255,255,255,0.55)" />
              <path d="M3.48633 10.332Q3.48633 10.1172 3.69141 9.91211L7.95898 5.64453L8.97461 4.6875L6.13281 4.76562L5.07812 4.76562Q4.84375 4.76562 4.67773 4.61426Q4.51172 4.46289 4.51172 4.21875Q4.51172 3.95508 4.67285 3.80371Q4.83398 3.65234 5.07812 3.65234L10.1562 3.65234Q10.4102 3.65234 10.5713 3.81348Q10.7324 3.97461 10.7324 4.22852L10.7324 8.98438Q10.7324 9.24805 10.5811 9.4043Q10.4297 9.56055 10.1758 9.56055Q9.93164 9.56055 9.77539 9.4043Q9.61914 9.24805 9.61914 8.98438L9.61914 7.94922L9.69727 5.40039L8.73047 6.42578L4.47266 10.6934Q4.26758 10.8984 4.05273 10.8984Q3.81836 10.8984 3.65234 10.7275Q3.48633 10.5566 3.48633 10.332ZM19.6777 7.34375Q19.6777 7.56836 19.4727 7.76367L15.2051 12.0312L14.1895 12.998L17.0312 12.9102L18.0859 12.9102Q18.3203 12.9102 18.4863 13.0615Q18.6523 13.2129 18.6523 13.4668Q18.6523 13.7207 18.4912 13.8721Q18.3301 14.0234 18.0859 14.0234L13.0078 14.0234Q12.7539 14.0234 12.5928 13.8672Q12.4316 13.7109 12.4316 13.457L12.4316 8.69141Q12.4316 8.42773 12.5879 8.27148Q12.7441 8.11523 12.9883 8.11523Q13.2324 8.11523 13.3887 8.27148Q13.5449 8.42773 13.5449 8.69141L13.5449 9.72656L13.4668 12.2754L14.4238 11.2598L18.6914 6.98242Q18.8965 6.78711 19.1113 6.78711Q19.3457 6.78711 19.5117 6.95312Q19.6777 7.11914 19.6777 7.34375Z"
                     fill="#ffffff" />
       </g>
</svg>