<svg width="19.5898" height="19.5996">
       <g>
              <rect height="19.5996" opacity="0" width="19.5898" x="0" y="0" />
              <path d="M9.79492 19.5898Q11.8066 19.5898 13.5791 18.8232Q15.3516 18.0566 16.7041 16.7041Q18.0566 15.3516 18.8232 13.5791Q19.5898 11.8066 19.5898 9.79492Q19.5898 7.7832 18.8232 6.01074Q18.0566 4.23828 16.7041 2.88574Q15.3516 1.5332 13.5742 0.766602Q11.7969 0 9.78516 0Q7.77344 0 6.00098 0.766602Q4.22852 1.5332 2.88086 2.88574Q1.5332 4.23828 0.766602 6.01074Q0 7.7832 0 9.79492Q0 11.8066 0.766602 13.5791Q1.5332 15.3516 2.88574 16.7041Q4.23828 18.0566 6.01074 18.8232Q7.7832 19.5898 9.79492 19.5898Z"
                     fill="rgba(255,255,255,0.55)" />
              <path d="M9.80469 14.7363Q9.55078 14.7363 9.38477 14.5703Q9.21875 14.4043 9.21875 14.1406L9.21875 8.39844L9.27734 6.54297L8.18359 7.76367L6.75781 9.19922Q6.58203 9.375 6.33789 9.375Q6.09375 9.375 5.93262 9.21387Q5.77148 9.05273 5.77148 8.81836Q5.77148 8.57422 5.92773 8.4082L9.35547 4.99023Q9.57031 4.77539 9.80469 4.77539Q10.0391 4.77539 10.2539 4.99023L13.6914 8.4082Q13.8477 8.57422 13.8477 8.81836Q13.8477 9.05273 13.6816 9.21387Q13.5156 9.375 13.2812 9.375Q13.0273 9.375 12.8613 9.19922L11.4355 7.76367L10.332 6.5332L10.3906 8.39844L10.3906 14.1406Q10.3906 14.4043 10.2295 14.5703Q10.0684 14.7363 9.80469 14.7363Z"
                     fill="#ffffff" />
       </g>
</svg>