<svg width="19.5898" height="19.5996">
       <g>
              <rect height="19.5996" opacity="0" width="19.5898" x="0" y="0" />
              <path d="M9.79492 19.5898Q11.8066 19.5898 13.5791 18.8232Q15.3516 18.0566 16.7041 16.7041Q18.0566 15.3516 18.8232 13.5791Q19.5898 11.8066 19.5898 9.79492Q19.5898 7.7832 18.8232 6.01074Q18.0566 4.23828 16.7041 2.88574Q15.3516 1.5332 13.5742 0.766602Q11.7969 0 9.78516 0Q7.77344 0 6.00098 0.766602Q4.22852 1.5332 2.88086 2.88574Q1.5332 4.23828 0.766602 6.01074Q0 7.7832 0 9.79492Q0 11.8066 0.766602 13.5791Q1.5332 15.3516 2.88574 16.7041Q4.23828 18.0566 6.01074 18.8232Q7.7832 19.5898 9.79492 19.5898Z"
                     fill="rgba(255,255,255,0.55)" />
              <path d="M9.80469 3.82812Q10.0293 3.82812 10.2539 4.04297L13.1738 6.96289Q13.3398 7.11914 13.3398 7.38281Q13.3398 7.61719 13.1787 7.77344Q13.0176 7.92969 12.7832 7.92969Q12.6465 7.92969 12.5439 7.88086Q12.4414 7.83203 12.3633 7.75391L11.4355 6.82617L10.332 5.58594L10.4004 7.44141L10.4004 12.1191L10.332 13.9746L11.4355 12.7344L12.3633 11.8066Q12.4414 11.7285 12.5439 11.6797Q12.6465 11.6309 12.7832 11.6309Q13.0176 11.6309 13.1787 11.7871Q13.3398 11.9434 13.3398 12.1777Q13.3398 12.4414 13.1738 12.5977L10.2539 15.5176Q10.0293 15.7324 9.80469 15.7324Q9.57031 15.7324 9.35547 15.5176L6.43555 12.5977Q6.25977 12.4316 6.25977 12.1777Q6.25977 11.9434 6.4209 11.7871Q6.58203 11.6309 6.82617 11.6309Q6.96289 11.6309 7.06543 11.6797Q7.16797 11.7285 7.24609 11.8066L8.16406 12.7344L9.28711 13.9746L9.20898 12.1191L9.20898 7.44141L9.28711 5.58594L8.16406 6.82617L7.24609 7.75391Q7.16797 7.83203 7.06543 7.88086Q6.96289 7.92969 6.82617 7.92969Q6.58203 7.92969 6.4209 7.77344Q6.25977 7.61719 6.25977 7.38281Q6.25977 7.12891 6.43555 6.96289L9.35547 4.04297Q9.57031 3.82812 9.80469 3.82812Z"
                     fill="#ffffff" />
       </g>
</svg>