<svg width="17.6855" height="17.7051">
       <g>
              <rect height="17.7051" opacity="0" width="17.6855" x="0" y="0" />
              <path d="M2.88086 17.7051L14.8047 17.7051Q16.2305 17.7051 16.958 16.9873Q17.6855 16.2695 17.6855 14.8535L17.6855 2.88086Q17.6855 1.46484 16.958 0.742188Q16.2305 0.0195312 14.8047 0.0195312L2.88086 0.0195312Q1.44531 0.0195312 0.722656 0.737305Q0 1.45508 0 2.88086L0 14.8535Q0 16.2695 0.722656 16.9873Q1.44531 17.7051 2.88086 17.7051Z"
                     fill="rgba(255,255,255,0.55)" />
              <path d="M5.41016 4.10156Q5.57617 3.93555 5.79102 3.94043Q6.00586 3.94531 6.16211 4.10156L8.75977 6.72852Q8.91602 6.88477 8.91602 7.10938Q8.91602 7.33398 8.77441 7.47559Q8.63281 7.61719 8.41797 7.61719Q8.19336 7.61719 8.03711 7.46094L6.86523 6.25L6.2793 5.6543L6.30859 6.2793L6.30859 13.252Q6.30859 13.4668 6.16211 13.6084Q6.01562 13.75 5.79102 13.75Q5.56641 13.75 5.41504 13.6084Q5.26367 13.4668 5.26367 13.252L5.26367 6.2793L5.29297 5.6543L4.70703 6.25L3.53516 7.45117Q3.36914 7.61719 3.1543 7.61719Q2.93945 7.61719 2.79297 7.4707Q2.64648 7.32422 2.64648 7.10938Q2.64648 7.01172 2.69043 6.90918Q2.73438 6.80664 2.8125 6.72852ZM12.2949 13.6035Q12.1289 13.7598 11.9043 13.7598Q11.6797 13.7598 11.5234 13.6035L8.92578 10.9863Q8.76953 10.8105 8.76953 10.5957Q8.76953 10.3711 8.91113 10.2295Q9.05273 10.0879 9.27734 10.0879Q9.50195 10.0879 9.64844 10.2441L10.8301 11.4453L11.4062 12.0508L11.377 11.4355L11.377 4.45312Q11.377 4.23828 11.5283 4.0918Q11.6797 3.94531 11.9043 3.94531Q12.1191 3.94531 12.2705 4.0918Q12.4219 4.23828 12.4219 4.45312L12.4219 11.4258L12.4121 12.041L12.9883 11.4453L14.1602 10.2441Q14.3262 10.0879 14.5312 10.0879Q14.7559 10.0879 14.9023 10.2344Q15.0488 10.3809 15.0488 10.5957Q15.0488 10.8008 14.8828 10.9863Z"
                     fill="#ffffff" />
       </g>
</svg>