<svg width="19.0379" height="17.9865">
       <g>
              <rect height="17.9865" opacity="0" width="19.0379" x="0" y="0" />
              <path d="M9.51569 17.9865Q9.65073 17.9865 9.81911 17.9186Q9.98749 17.8508 10.1195 17.7652Q12.8008 16.0286 14.8053 14.1362Q16.8098 12.2438 17.9239 10.2515Q19.0379 8.25928 19.0379 6.22467Q19.0379 4.96826 18.635 3.92242Q18.2321 2.87659 17.5096 2.10983Q16.7871 1.34308 15.8201 0.925446Q14.8531 0.507812 13.7219 0.507812Q12.3506 0.507812 11.2485 1.2233Q10.1463 1.93878 9.51569 3.13446Q8.89465 1.9455 7.79099 1.22665Q6.68732 0.507812 5.31235 0.507812Q4.18793 0.507812 3.21938 0.925446Q2.25082 1.34308 1.52832 2.10983Q0.805817 2.87659 0.402908 3.92242Q0 4.96826 0 6.22467Q0 8.25928 1.11412 10.2515Q2.22824 12.2438 4.23271 14.1362Q6.23718 16.0286 8.92151 17.7652Q9.0535 17.8508 9.22043 17.9186Q9.38736 17.9865 9.51569 17.9865Z"
                     fill="rgba(255,255,255,0.55)" />
              <path d="M9.93729 6.06827L9.93729 10.2672L9.88403 12.0773L11.1598 10.7686L11.9698 9.94278Q12.0499 9.86252 12.1578 9.8127Q12.2658 9.76288 12.3888 9.76288Q12.6219 9.76288 12.7831 9.9173Q12.9442 10.0717 12.9442 10.3177Q12.9442 10.4723 12.8789 10.5798Q12.8136 10.6874 12.7115 10.7797L9.77386 13.5519Q9.66003 13.6659 9.55544 13.7106Q9.45084 13.7552 9.33762 13.7552Q9.2244 13.7552 9.12315 13.7106Q9.02191 13.6659 8.90137 13.5519L5.96375 10.7797Q5.86472 10.6874 5.79781 10.5798Q5.7309 10.4723 5.7309 10.3177Q5.7309 10.0717 5.88875 9.9173Q6.0466 9.76288 6.28647 9.76288Q6.40259 9.76288 6.51398 9.8127Q6.62537 9.86252 6.70547 9.94278L7.51541 10.7686L8.7912 12.0773L8.74466 10.2672L8.74466 6.06827Q8.74466 5.8284 8.9212 5.65712Q9.09775 5.48584 9.33762 5.48584Q9.57748 5.48584 9.75739 5.65712Q9.93729 5.8284 9.93729 6.06827Z"
                     fill="#ffffff" />
       </g>
</svg>