<svg width="19.5898" height="19.8145">
       <g>
              <rect height="19.8145" opacity="0" width="19.5898" x="0" y="0" />
              <path d="M9.79492 19.5898Q11.8066 19.5898 13.5791 18.8232Q15.3516 18.0566 16.7041 16.7041Q18.0566 15.3516 18.8232 13.5791Q19.5898 11.8066 19.5898 9.79492Q19.5898 7.7832 18.8232 6.01074Q18.0566 4.23828 16.7041 2.88574Q15.3516 1.5332 13.5742 0.766602Q11.7969 0 9.78516 0Q7.77344 0 6.00098 0.766602Q4.22852 1.5332 2.88086 2.88574Q1.5332 4.23828 0.766602 6.01074Q0 7.7832 0 9.79492Q0 11.8066 0.766602 13.5791Q1.5332 15.3516 2.88574 16.7041Q4.23828 18.0566 6.01074 18.8232Q7.7832 19.5898 9.79492 19.5898Z"
                     fill="rgba(255,255,255,0.55)" />
              <path d="M14.5703 10.8887Q14.5703 11.9727 14.1016 12.7832Q13.6328 13.5938 12.7881 14.043Q11.9434 14.4922 10.8301 14.4922L9.43359 14.4922Q9.16992 14.4922 9.00391 14.3359Q8.83789 14.1797 8.83789 13.9258Q8.83789 13.6719 8.99902 13.5156Q9.16016 13.3594 9.42383 13.3594L10.8301 13.3594Q12.002 13.3594 12.7197 12.6807Q13.4375 12.002 13.4375 10.8887Q13.4375 9.83398 12.7246 9.17969Q12.0117 8.52539 10.8398 8.52539L7.66602 8.52539L6.68945 8.49609L7.12891 8.82812L8.54492 10.2051Q8.73047 10.4004 8.73047 10.6348Q8.73047 10.8789 8.56934 11.0498Q8.4082 11.2207 8.16406 11.2207Q7.91992 11.2207 7.74414 11.0547L5.21484 8.4668Q5 8.24219 5 7.95898Q5 7.68555 5.21484 7.45117L7.73438 4.88281Q7.91016 4.7168 8.1543 4.7168Q8.4082 4.7168 8.56934 4.8877Q8.73047 5.05859 8.73047 5.30273Q8.73047 5.54688 8.54492 5.72266L7.25586 6.97266L6.67969 7.44141L7.66602 7.40234L10.8398 7.40234Q11.9531 7.40234 12.7979 7.83691Q13.6426 8.27148 14.1064 9.05762Q14.5703 9.84375 14.5703 10.8887Z"
                     fill="#ffffff" />
       </g>
</svg>