<svg width="19.0379" height="17.7966">
       <g>
              <rect height="17.7966" opacity="0" width="19.0379" x="0" y="0" />
              <path d="M9.51569 17.7966Q9.65073 17.7966 9.81911 17.7272Q9.98749 17.6578 10.1195 17.5752Q12.8008 15.8386 14.8053 13.9462Q16.8098 12.0538 17.9239 10.0601Q19.0379 8.06641 19.0379 6.03165Q19.0379 4.77524 18.635 3.731Q18.2321 2.68677 17.5096 1.91994Q16.7871 1.15311 15.8201 0.734024Q14.8531 0.314941 13.7219 0.314941Q12.3506 0.314941 11.2485 1.03188Q10.1463 1.74881 9.51569 2.94464Q8.89465 1.75552 7.79099 1.03523Q6.68732 0.314941 5.31235 0.314941Q4.18793 0.314941 3.21938 0.734024Q2.25082 1.15311 1.52832 1.91994Q0.805817 2.68677 0.402908 3.731Q0 4.77524 0 6.03165Q0 8.06641 1.11412 10.0601Q2.22824 12.0538 4.23271 13.9462Q6.23718 15.8386 8.92151 17.5752Q9.0535 17.6578 9.22043 17.7272Q9.38736 17.7966 9.51569 17.7966Z"
                     fill="rgba(255,255,255,0.55)" />
              <path d="M5.97 9.75952Q5.97 8.94012 6.33156 8.24776Q6.69312 7.55539 7.30583 7.0871Q7.91855 6.6188 8.67935 6.48651L8.67935 5.53909Q8.67935 5.29816 8.87466 5.22842Q9.06998 5.15869 9.2485 5.30792L10.9642 6.72195Q11.136 6.86752 11.1375 7.06032Q11.1389 7.25311 10.9642 7.40158L9.2485 8.82904Q9.06998 8.97522 8.87466 8.90701Q8.67935 8.83881 8.67935 8.59802L8.67935 7.49191Q7.93152 7.70615 7.44377 8.32993Q6.95602 8.9537 6.95602 9.77295Q6.95602 10.4433 7.27692 10.9844Q7.59781 11.5256 8.13736 11.8431Q8.67691 12.1606 9.33762 12.1606Q10.005 12.1606 10.5461 11.8416Q11.0872 11.5225 11.4032 10.978Q11.7192 10.4335 11.7192 9.77295Q11.7192 9.57047 11.8654 9.42276Q12.0116 9.27505 12.2171 9.27505Q12.4098 9.27505 12.5575 9.42276Q12.7052 9.57047 12.7052 9.77295Q12.7052 10.7155 12.2531 11.4841Q11.801 12.2528 11.0406 12.7049Q10.2802 13.157 9.33762 13.157Q8.39798 13.157 7.63611 12.7016Q6.87424 12.2461 6.42212 11.4774Q5.97 10.7088 5.97 9.75952Z"
                     fill="#ffffff" />
       </g>
</svg>