<svg width="17.6855" height="17.8027">
       <g>
              <rect height="17.8027" opacity="0" width="17.6855" x="0" y="0" />
              <path d="M2.88086 17.6855L14.8047 17.6855Q16.2305 17.6855 16.958 16.9678Q17.6855 16.25 17.6855 14.834L17.6855 2.86133Q17.6855 1.44531 16.958 0.722656Q16.2305 0 14.8047 0L2.88086 0Q1.44531 0 0.722656 0.717773Q0 1.43555 0 2.86133L0 14.834Q0 16.25 0.722656 16.9678Q1.44531 17.6855 2.88086 17.6855Z"
                     fill="rgba(255,255,255,0.55)" />
              <path d="M7.85156 13.5352Q6.76758 13.5352 5.95215 13.0664Q5.13672 12.5977 4.69238 11.7529Q4.24805 10.9082 4.24805 9.79492L4.24805 8.39844Q4.24805 8.13477 4.39941 7.96875Q4.55078 7.80273 4.81445 7.80273Q5.06836 7.80273 5.22461 7.96387Q5.38086 8.125 5.38086 8.38867L5.38086 9.79492Q5.38086 10.957 6.05957 11.6797Q6.73828 12.4023 7.85156 12.4023Q8.90625 12.4023 9.55566 11.6895Q10.2051 10.9766 10.2051 9.79492L10.2051 6.62109L10.2441 5.64453L9.91211 6.09375L8.53516 7.50977Q8.34961 7.69531 8.10547 7.69531Q7.86133 7.69531 7.69043 7.53418Q7.51953 7.37305 7.51953 7.12891Q7.51953 6.875 7.68555 6.70898L10.2734 4.17969Q10.498 3.96484 10.7812 3.96484Q11.0547 3.96484 11.2891 4.17969L13.8477 6.69922Q14.0234 6.86523 14.0234 7.12891Q14.0234 7.37305 13.8477 7.53418Q13.6719 7.69531 13.4375 7.69531Q13.1934 7.69531 13.0176 7.50977L11.7578 6.2207L11.2988 5.64453L11.3379 6.62109L11.3379 9.79492Q11.3379 10.918 10.9033 11.7578Q10.4688 12.5977 9.68262 13.0664Q8.89648 13.5352 7.85156 13.5352Z"
                     fill="#ffffff" />
       </g>
</svg>