<svg width="16.1473" height="20.8188">
       <g>
              <rect height="20.8188" opacity="0" width="16.1473" x="0" y="0" />
              <path d="M2.85477 20.8188L13.2925 20.8188Q14.7124 20.8188 15.4298 20.0945Q16.1473 19.3703 16.1473 17.9437L16.1473 8.74054L9.16779 8.74054Q7.47955 8.74054 7.47955 7.0462L7.47955 0.00534058L2.85477 0.00534058Q1.44104 0.00534058 0.72052 0.732956Q0 1.46057 0 2.88712L0 17.9437Q0 19.3771 0.717468 20.098Q1.43494 20.8188 2.85477 20.8188ZM9.22424 7.60239L16.015 7.60239Q15.9752 7.35718 15.8035 7.11655Q15.6317 6.87592 15.3558 6.59637L9.62372 0.796967Q9.3576 0.523987 9.10721 0.348892Q8.85681 0.173798 8.6145 0.133972L8.6145 6.99936Q8.6145 7.60239 9.22424 7.60239Z"
                     fill="rgba(255,255,255,0.55)" />
              <path d="M8.07358 10.4315Q8.30307 10.4315 8.46947 10.5911Q8.63586 10.7507 8.63586 10.9735L8.63586 15.0542L8.58261 16.7963L9.84192 15.5211L10.6703 14.6701Q10.7504 14.5967 10.855 14.5502Q10.9596 14.5038 11.0692 14.5038Q11.2918 14.5038 11.4429 14.6481Q11.5939 14.7923 11.5939 15.0182Q11.5939 15.1622 11.5305 15.265Q11.467 15.3677 11.3747 15.4562L8.48587 18.1969Q8.37585 18.3002 8.27797 18.3448Q8.18008 18.3894 8.07358 18.3894Q7.96722 18.3894 7.86934 18.3448Q7.77145 18.3002 7.66129 18.1969L4.77249 15.4562Q4.68033 15.3677 4.61685 15.265Q4.55338 15.1622 4.55338 15.0182Q4.55338 14.7923 4.70108 14.6481Q4.84879 14.5038 5.07812 14.5038Q5.18753 14.5038 5.29213 14.5502Q5.39673 14.5967 5.47699 14.6701L6.30539 15.5211L7.5647 16.7963L7.51816 15.0542L7.51816 10.9735Q7.51816 10.7507 7.6812 10.5911Q7.84424 10.4315 8.07358 10.4315Z"
                     fill="#ffffff" />
       </g>
</svg>