<svg width="19.5898" height="19.5996">
       <g>
              <rect height="19.5996" opacity="0" width="19.5898" x="0" y="0" />
              <path d="M9.79492 19.5898Q11.8066 19.5898 13.5791 18.8232Q15.3516 18.0566 16.7041 16.7041Q18.0566 15.3516 18.8232 13.5791Q19.5898 11.8066 19.5898 9.79492Q19.5898 7.7832 18.8232 6.01074Q18.0566 4.23828 16.7041 2.88574Q15.3516 1.5332 13.5742 0.766602Q11.7969 0 9.78516 0Q7.77344 0 6.00098 0.766602Q4.22852 1.5332 2.88086 2.88574Q1.5332 4.23828 0.766602 6.01074Q0 7.7832 0 9.79492Q0 11.8066 0.766602 13.5791Q1.5332 15.3516 2.88574 16.7041Q4.23828 18.0566 6.01074 18.8232Q7.7832 19.5898 9.79492 19.5898Z"
                     fill="rgba(255,255,255,0.55)" />
              <path d="M5.03906 6.43555L7.66602 3.85742Q7.83203 3.68164 8.04688 3.68164Q8.27148 3.68164 8.41309 3.82812Q8.55469 3.97461 8.55469 4.18945Q8.55469 4.41406 8.38867 4.57031L7.19727 5.75195L6.60156 6.31836L7.2168 6.29883L14.1895 6.29883Q14.4141 6.29883 14.5605 6.4502Q14.707 6.60156 14.707 6.81641Q14.707 7.04102 14.5605 7.19238Q14.4141 7.34375 14.1895 7.34375L7.2168 7.34375L6.5918 7.31445L7.19727 7.90039L8.38867 9.07227Q8.55469 9.22852 8.55469 9.45312Q8.55469 9.66797 8.41309 9.80957Q8.27148 9.95117 8.04688 9.95117Q7.8418 9.95117 7.66602 9.80469L5.03906 7.19727Q4.88281 7.04102 4.88281 6.81641Q4.88281 6.5918 5.03906 6.43555ZM14.5508 13.1738L11.9238 15.7715Q11.7383 15.9375 11.5332 15.9375Q11.3281 15.9375 11.1816 15.791Q11.0352 15.6445 11.0352 15.4395Q11.0352 15.2344 11.2012 15.0488L12.3926 13.877L12.998 13.3105L12.3633 13.3301L5.40039 13.3301Q5.17578 13.3301 5.0293 13.1787Q4.88281 13.0273 4.88281 12.8027Q4.88281 12.5781 5.03418 12.4316Q5.18555 12.2852 5.40039 12.2852L12.373 12.2852L12.998 12.3145L12.3926 11.7285L11.1816 10.5566Q11.0352 10.4004 11.0352 10.1758Q11.0352 9.96094 11.1768 9.81934Q11.3184 9.67773 11.5332 9.67773Q11.7676 9.67773 11.9238 9.83398L14.5508 12.4316Q14.707 12.5879 14.7119 12.8027Q14.7168 13.0176 14.5508 13.1738Z"
                     fill="#ffffff" />
       </g>
</svg>