<svg width="23.2227" height="17.7051">
       <g>
              <rect height="17.7051" opacity="0" width="23.2227" x="0" y="0" />
              <path d="M6.55273 17.7051L16.6602 17.7051Q18.0371 17.7051 18.6816 16.9873Q19.3262 16.2695 19.5215 14.9316L20.9473 5.52734L2.27539 5.52734L3.70117 14.9316Q3.90625 16.2891 4.5459 16.9971Q5.18555 17.7051 6.55273 17.7051ZM1.54297 4.39453L21.6797 4.39453Q22.4316 4.39453 22.8271 3.96484Q23.2227 3.53516 23.2227 2.7832L23.2227 1.64062Q23.2227 0.888672 22.8271 0.454102Q22.4316 0.0195312 21.6797 0.0195312L1.54297 0.0195312Q0.820312 0.0195312 0.410156 0.454102Q0 0.888672 0 1.64062L0 2.7832Q0 3.53516 0.395508 3.96484Q0.791016 4.39453 1.54297 4.39453Z"
                     fill="rgba(255,255,255,0.55)" />
              <path d="M12.2168 14.9609Q12.2168 15.2051 12.041 15.3711Q11.8652 15.5371 11.6113 15.5371Q11.3672 15.5371 11.1914 15.3711Q11.0156 15.2051 11.0156 14.9609L11.0156 10.8203L11.0645 9.01367L9.79492 10.3125L8.98438 11.1426Q8.90625 11.2305 8.79395 11.2744Q8.68164 11.3184 8.56445 11.3184Q8.32031 11.3184 8.16406 11.167Q8.00781 11.0156 8.00781 10.7715Q8.00781 10.6152 8.07129 10.5127Q8.13477 10.4102 8.24219 10.3125L11.1719 7.53906Q11.2988 7.42188 11.4014 7.37305Q11.5039 7.32422 11.6113 7.32422Q11.7383 7.32422 11.8359 7.37305Q11.9336 7.42188 12.0508 7.53906L14.9902 10.3125Q15.0879 10.4102 15.1562 10.5127Q15.2246 10.6152 15.2246 10.7715Q15.2246 11.0156 15.0635 11.167Q14.9023 11.3184 14.668 11.3184Q14.5508 11.3184 14.4385 11.2744Q14.3262 11.2305 14.248 11.1426L13.4375 10.3125L12.1582 9.01367L12.2168 10.8203Z"
                     fill="#ffffff" />
       </g>
</svg>