<svg width="19.7559" height="24.3262">
       <g>
              <rect height="24.3262" opacity="0" width="19.7559" x="0" y="0" />
              <path d="M4.73633 5.42969L12.334 5.42969Q12.9004 5.42969 13.3789 5.68359Q13.8574 5.9375 14.1455 6.43066Q14.4336 6.92383 14.4336 7.65625L14.4336 19.5703L16.9043 19.5703Q18.3203 19.5703 19.0381 18.8428Q19.7559 18.1152 19.7559 16.6895L19.7559 2.88086Q19.7559 1.45508 19.0381 0.727539Q18.3203 0 16.9043 0L7.58789 0Q6.17188 0 5.4541 0.722656Q4.73633 1.44531 4.73633 2.88086ZM9.4043 2.61719L9.4043 2.44141Q9.4043 2.23633 9.54102 2.08008Q9.67773 1.92383 9.9707 1.92383L14.5215 1.92383Q14.8047 1.92383 14.9463 2.08008Q15.0879 2.23633 15.0879 2.44141L15.0879 2.61719Q15.0879 2.82227 14.9463 2.9834Q14.8047 3.14453 14.5215 3.14453L9.9707 3.14453Q9.67773 3.14453 9.54102 2.9834Q9.4043 2.82227 9.4043 2.61719Z"
                     fill="rgba(255,255,255,0.55)" />
              <path d="M0 21.4258Q0 22.8516 0.717773 23.5791Q1.43555 24.3066 2.85156 24.3066L12.168 24.3066Q13.584 24.3066 14.3018 23.5791Q15.0195 22.8516 15.0195 21.4258L15.0195 7.61719Q15.0195 6.19141 14.3018 5.46387Q13.584 4.73633 12.168 4.73633L2.85156 4.73633Q1.43555 4.73633 0.717773 5.45898Q0 6.18164 0 7.61719ZM1.21094 21.3965L1.21094 7.63672Q1.21094 6.81641 1.64062 6.37695Q2.07031 5.9375 2.91016 5.9375L12.1094 5.9375Q12.9492 5.9375 13.3789 6.37695Q13.8086 6.81641 13.8086 7.63672L13.8086 21.3965Q13.8086 22.2168 13.3789 22.6562Q12.9492 23.0957 12.1094 23.0957L2.91016 23.0957Q2.07031 23.0957 1.64062 22.6562Q1.21094 22.2168 1.21094 21.3965ZM7.22656 18.9648Q7.94922 18.9648 8.65234 18.7061Q9.35547 18.4473 9.87305 17.9883Q10.0879 17.8027 10.127 17.5928Q10.166 17.3828 10.0195 17.2168Q9.86328 17.0605 9.67285 17.0703Q9.48242 17.0801 9.30664 17.2266Q8.80859 17.6367 8.30566 17.8369Q7.80273 18.0371 7.22656 18.0371Q6.41602 18.0371 5.7373 17.6953Q5.05859 17.3535 4.59473 16.7627Q4.13086 16.1719 3.96484 15.4199L4.81445 15.4199Q5.0293 15.4199 5.08301 15.2588Q5.13672 15.0977 5.01953 14.9316L3.86719 13.2715Q3.7207 13.0762 3.51562 13.0713Q3.31055 13.0664 3.16406 13.2715L2.03125 14.9316Q1.91406 15.0977 1.95801 15.2588Q2.00195 15.4199 2.22656 15.4199L3.07617 15.4199Q3.24219 16.4746 3.82324 17.2754Q4.4043 18.0762 5.2832 18.5205Q6.16211 18.9648 7.22656 18.9648ZM7.2168 10.625Q6.48438 10.625 5.78125 10.8887Q5.07812 11.1523 4.56055 11.6113Q4.3457 11.7871 4.30664 12.002Q4.26758 12.2168 4.41406 12.373Q4.58008 12.5391 4.76562 12.5244Q4.95117 12.5098 5.13672 12.3633Q5.625 11.9629 6.12793 11.7627Q6.63086 11.5625 7.2168 11.5625Q8.01758 11.5625 8.69629 11.9043Q9.375 12.2461 9.84375 12.8369Q10.3125 13.4277 10.4688 14.1797L9.58984 14.1797Q9.375 14.1797 9.32617 14.3408Q9.27734 14.502 9.39453 14.668L10.5469 16.3281Q10.6934 16.5332 10.8936 16.5381Q11.0938 16.543 11.2402 16.3281L12.373 14.668Q12.5 14.502 12.4561 14.3408Q12.4121 14.1797 12.1875 14.1797L11.377 14.1797Q11.1914 13.1152 10.6104 12.3193Q10.0293 11.5234 9.15039 11.0742Q8.27148 10.625 7.2168 10.625Z"
                     fill="rgba(255,255,255,0.55)" />
       </g>
</svg>