<svg width="17.6855" height="17.7051">
       <g>
              <rect height="17.7051" opacity="0" width="17.6855" x="0" y="0" />
              <path d="M2.88086 17.7051L14.8047 17.7051Q16.2305 17.7051 16.958 16.9873Q17.6855 16.2695 17.6855 14.8535L17.6855 2.88086Q17.6855 1.46484 16.958 0.742188Q16.2305 0.0195312 14.8047 0.0195312L2.88086 0.0195312Q1.44531 0.0195312 0.722656 0.737305Q0 1.45508 0 2.88086L0 14.8535Q0 16.2695 0.722656 16.9873Q1.44531 17.7051 2.88086 17.7051Z"
                     fill="rgba(255,255,255,0.55)" />
              <path d="M8.85742 3.82812Q9.12109 3.82812 9.28223 3.98926Q9.44336 4.15039 9.44336 4.41406L9.44336 10.166L9.38477 12.0312L10.4883 10.791L11.9141 9.35547Q12.0801 9.17969 12.334 9.17969Q12.5684 9.17969 12.7344 9.34082Q12.9004 9.50195 12.9004 9.73633Q12.9004 9.98047 12.7441 10.1465L9.30664 13.5742Q9.0918 13.7891 8.85742 13.7891Q8.62305 13.7891 8.4082 13.5742L4.98047 10.1465Q4.82422 9.99023 4.82422 9.73633Q4.82422 9.50195 4.98535 9.34082Q5.14648 9.17969 5.39062 9.17969Q5.63477 9.17969 5.81055 9.35547L7.23633 10.791L8.33008 12.0215L8.27148 10.166L8.27148 4.41406Q8.27148 4.15039 8.4375 3.98926Q8.60352 3.82812 8.85742 3.82812Z"
                     fill="#ffffff" />
       </g>
</svg>