<svg width="19.5898" height="19.5996">
       <g>
              <rect height="19.5996" opacity="0" width="19.5898" x="0" y="0" />
              <path d="M9.79492 19.5898Q11.8066 19.5898 13.5791 18.8232Q15.3516 18.0566 16.7041 16.7041Q18.0566 15.3516 18.8232 13.5791Q19.5898 11.8066 19.5898 9.79492Q19.5898 7.7832 18.8232 6.01074Q18.0566 4.23828 16.7041 2.88574Q15.3516 1.5332 13.5742 0.766602Q11.7969 0 9.78516 0Q7.77344 0 6.00098 0.766602Q4.22852 1.5332 2.88086 2.88574Q1.5332 4.23828 0.766602 6.01074Q0 7.7832 0 9.79492Q0 11.8066 0.766602 13.5791Q1.5332 15.3516 2.88574 16.7041Q4.23828 18.0566 6.01074 18.8232Q7.7832 19.5898 9.79492 19.5898Z"
                     fill="rgba(255,255,255,0.55)" />
              <path d="M5.54688 9.55078Q5.3125 9.55078 5.15137 9.38965Q4.99023 9.22852 4.99023 8.99414Q4.99023 8.75977 5.15137 8.59863Q5.3125 8.4375 5.54688 8.4375L6.19141 8.44727L7.7832 8.51562L4.89258 5.71289Q4.72656 5.54688 4.7168 5.29785Q4.70703 5.04883 4.89258 4.88281Q5.05859 4.70703 5.30273 4.70703Q5.54688 4.70703 5.72266 4.88281L8.52539 7.7832L8.45703 6.11328L8.45703 5.52734Q8.45703 5.29297 8.62305 5.12695Q8.78906 4.96094 9.01367 4.96094Q9.24805 4.96094 9.40918 5.12695Q9.57031 5.29297 9.57031 5.52734L9.57031 8.91602Q9.57031 9.24805 9.39941 9.39941Q9.22852 9.55078 8.93555 9.55078ZM10.5762 14.5898Q10.3418 14.5898 10.1807 14.4287Q10.0195 14.2676 10.0195 14.0332L10.0195 10.6348Q10.0195 10.3027 10.1904 10.1562Q10.3613 10.0098 10.6543 10.0098L14.043 10.0098Q14.2773 10.0098 14.4385 10.1709Q14.5996 10.332 14.5996 10.5664Q14.5996 10.791 14.4385 10.957Q14.2773 11.123 14.043 11.123L13.3984 11.1035L11.8066 11.0449L14.6973 13.8477Q14.8633 14.0137 14.873 14.2578Q14.8828 14.502 14.6973 14.6777Q14.5312 14.8535 14.2871 14.8486Q14.043 14.8438 13.8672 14.668L11.0645 11.7676L11.1328 13.4473L11.1328 14.0332Q11.1328 14.2676 10.9668 14.4287Q10.8008 14.5898 10.5762 14.5898Z"
                     fill="#ffffff" />
       </g>
</svg>