<svg width="19.5898" height="19.5996">
       <g>
              <rect height="19.5996" opacity="0" width="19.5898" x="0" y="0" />
              <path d="M9.79492 19.5898Q11.8066 19.5898 13.5791 18.8232Q15.3516 18.0566 16.7041 16.7041Q18.0566 15.3516 18.8232 13.5791Q19.5898 11.8066 19.5898 9.79492Q19.5898 7.7832 18.8232 6.01074Q18.0566 4.23828 16.7041 2.88574Q15.3516 1.5332 13.5742 0.766602Q11.7969 0 9.78516 0Q7.77344 0 6.00098 0.766602Q4.22852 1.5332 2.88086 2.88574Q1.5332 4.23828 0.766602 6.01074Q0 7.7832 0 9.79492Q0 11.8066 0.766602 13.5791Q1.5332 15.3516 2.88574 16.7041Q4.23828 18.0566 6.01074 18.8232Q7.7832 19.5898 9.79492 19.5898Z"
                     fill="rgba(255,255,255,0.55)" />
              <path d="M5.56641 14.0332Q5.32227 14.0332 5.1709 13.8867Q5.01953 13.7402 5.01953 13.5156L5.01953 6.05469Q5.01953 5.82031 5.1709 5.67383Q5.32227 5.52734 5.56641 5.52734Q5.78125 5.52734 5.93262 5.67383Q6.08398 5.82031 6.08398 6.05469L6.08398 13.5156Q6.08398 13.7402 5.93262 13.8867Q5.78125 14.0332 5.56641 14.0332ZM15.8398 9.78516Q15.8398 10.0293 15.6885 10.1807Q15.5371 10.332 15.3125 10.332L10.3613 10.332L8.51562 10.2344L10.4883 12.0508L11.3672 12.8906Q11.4551 12.9688 11.4941 13.0664Q11.5332 13.1641 11.5332 13.291Q11.5332 13.5254 11.3867 13.6719Q11.2402 13.8184 11.0156 13.8184Q10.8984 13.8184 10.7812 13.7549Q10.6641 13.6914 10.5859 13.6133L7.11914 10.1855Q7.02148 10.0977 6.97754 10Q6.93359 9.90234 6.93359 9.78516Q6.93359 9.67773 6.9873 9.5752Q7.04102 9.47266 7.11914 9.38477L10.6055 5.92773Q10.7617 5.75195 11.0059 5.75195Q11.2305 5.75195 11.3818 5.89355Q11.5332 6.03516 11.5332 6.26953Q11.5332 6.37695 11.4941 6.48438Q11.4551 6.5918 11.3672 6.66992L10.5078 7.50977L8.52539 9.33594L10.3613 9.26758L15.3125 9.26758Q15.5371 9.26758 15.6885 9.41406Q15.8398 9.56055 15.8398 9.78516Z"
                     fill="#ffffff" />
       </g>
</svg>