<svg width="17.6855" height="17.7051">
       <g>
              <rect height="17.7051" opacity="0" width="17.6855" x="0" y="0" />
              <path d="M2.88086 17.7051L14.8047 17.7051Q16.2305 17.7051 16.958 16.9873Q17.6855 16.2695 17.6855 14.8535L17.6855 2.88086Q17.6855 1.46484 16.958 0.742188Q16.2305 0.0195312 14.8047 0.0195312L2.88086 0.0195312Q1.44531 0.0195312 0.722656 0.737305Q0 1.45508 0 2.88086L0 14.8535Q0 16.2695 0.722656 16.9873Q1.44531 17.7051 2.88086 17.7051Z"
                     fill="rgba(255,255,255,0.55)" />
              <path d="M8.85742 2.88086Q9.08203 2.88086 9.30664 3.0957L12.2266 6.01562Q12.3926 6.17188 12.3926 6.43555Q12.3926 6.66992 12.2314 6.82617Q12.0703 6.98242 11.8359 6.98242Q11.6992 6.98242 11.5967 6.93359Q11.4941 6.88477 11.416 6.80664L10.4883 5.87891L9.38477 4.63867L9.45312 6.49414L9.45312 11.1719L9.38477 13.0273L10.4883 11.7871L11.416 10.8594Q11.4941 10.7812 11.5967 10.7324Q11.6992 10.6836 11.8359 10.6836Q12.0703 10.6836 12.2314 10.8398Q12.3926 10.9961 12.3926 11.2305Q12.3926 11.4941 12.2266 11.6504L9.30664 14.5703Q9.08203 14.7852 8.85742 14.7852Q8.62305 14.7852 8.4082 14.5703L5.48828 11.6504Q5.3125 11.4844 5.3125 11.2305Q5.3125 10.9961 5.47363 10.8398Q5.63477 10.6836 5.87891 10.6836Q6.01562 10.6836 6.11816 10.7324Q6.2207 10.7812 6.29883 10.8594L7.2168 11.7871L8.33984 13.0273L8.26172 11.1719L8.26172 6.49414L8.33984 4.63867L7.2168 5.87891L6.29883 6.80664Q6.2207 6.88477 6.11816 6.93359Q6.01562 6.98242 5.87891 6.98242Q5.63477 6.98242 5.47363 6.82617Q5.3125 6.66992 5.3125 6.43555Q5.3125 6.18164 5.48828 6.01562L8.4082 3.0957Q8.62305 2.88086 8.85742 2.88086Z"
                     fill="#ffffff" />
       </g>
</svg>