<svg width="19.5898" height="19.5996">
       <g>
              <rect height="19.5996" opacity="0" width="19.5898" x="0" y="0" />
              <path d="M9.79492 19.5996Q11.8066 19.5996 13.5791 18.833Q15.3516 18.0664 16.7041 16.7139Q18.0566 15.3613 18.8232 13.5889Q19.5898 11.8164 19.5898 9.80469Q19.5898 7.79297 18.8232 6.02051Q18.0566 4.24805 16.7041 2.89551Q15.3516 1.54297 13.5742 0.776367Q11.7969 0.00976562 9.78516 0.00976562Q7.77344 0.00976562 6.00098 0.776367Q4.22852 1.54297 2.88086 2.89551Q1.5332 4.24805 0.766602 6.02051Q0 7.79297 0 9.80469Q0 11.8164 0.766602 13.5889Q1.5332 15.3613 2.88574 16.7139Q4.23828 18.0664 6.01074 18.833Q7.7832 19.5996 9.79492 19.5996Z"
                     fill="#0a84ff" />
              <path d="M4.69727 14.1113Q4.52148 14.1113 4.37012 13.9551Q4.21875 13.7988 4.21875 13.5059Q4.21875 11.4062 4.85352 9.96582Q5.48828 8.52539 6.74316 7.77832Q7.99805 7.03125 9.85352 7.03125L10.0488 7.03125L10.0488 4.82422Q10.0488 4.59961 10.1953 4.43359Q10.3418 4.26758 10.5859 4.26758Q10.7617 4.26758 10.8984 4.3457Q11.0352 4.42383 11.2012 4.58008L15.5273 8.61328Q15.7129 8.7793 15.7715 8.91602Q15.8301 9.05273 15.8301 9.18945Q15.8301 9.31641 15.7666 9.45801Q15.7031 9.59961 15.5273 9.76562L11.2012 13.8184Q11.0547 13.9551 10.9082 14.0332Q10.7617 14.1113 10.5762 14.1113Q10.3418 14.1113 10.1953 13.9551Q10.0488 13.7988 10.0488 13.5645L10.0488 11.377L9.85352 11.377Q8.125 11.377 7.02637 11.8994Q5.92773 12.4219 5.26367 13.7402Q5.15625 13.9746 5.00977 14.043Q4.86328 14.1113 4.69727 14.1113Z"
                     fill="#ffffff" />
       </g>
</svg>