<svg width="17.4609" height="17.4512">
       <g>
              <rect height="17.4512" opacity="0" width="17.4609" x="0" y="0" />
              <path d="M16.3672 1.09375Q15.6836 0.419922 14.7217 0.209961Q13.7598 0 12.4316 0L4.96094 0Q3.69141 0 2.73438 0.209961Q1.77734 0.419922 1.09375 1.10352Q0.419922 1.77734 0.209961 2.72461Q0 3.67188 0 4.96094L0 12.4316Q0 13.7598 0.205078 14.7217Q0.410156 15.6836 1.08398 16.3477Q1.77734 17.0312 2.73438 17.2412Q3.69141 17.4512 5.01953 17.4512L12.4316 17.4512Q13.7598 17.4512 14.7266 17.2412Q15.6934 17.0312 16.3672 16.3477Q17.0508 15.6836 17.2559 14.7217Q17.4609 13.7598 17.4609 12.4316L17.4609 5.01953Q17.4609 3.69141 17.2559 2.72949Q17.0508 1.76758 16.3672 1.09375Z"
                     fill="rgba(255,255,255,0.55)" />
              <path d="M8.74023 3.70117Q9.00391 3.70117 9.16504 3.8623Q9.32617 4.02344 9.32617 4.28711L9.32617 10.0391L9.26758 11.9043L10.3711 10.6641L11.7969 9.22852Q11.9629 9.05273 12.2168 9.05273Q12.4512 9.05273 12.6172 9.21387Q12.7832 9.375 12.7832 9.60938Q12.7832 9.85352 12.627 10.0195L9.18945 13.4473Q8.97461 13.6621 8.74023 13.6621Q8.50586 13.6621 8.29102 13.4473L4.86328 10.0195Q4.70703 9.86328 4.70703 9.60938Q4.70703 9.375 4.86816 9.21387Q5.0293 9.05273 5.27344 9.05273Q5.51758 9.05273 5.69336 9.22852L7.11914 10.6641L8.21289 11.8945L8.1543 10.0391L8.1543 4.28711Q8.1543 4.02344 8.32031 3.8623Q8.48633 3.70117 8.74023 3.70117Z"
                     fill="#ffffff" />
       </g>
</svg>