<svg width="19.0379" height="17.9865">
       <g>
              <rect height="17.9865" opacity="0" width="19.0379" x="0" y="0" />
              <path d="M9.51569 17.9865Q9.65073 17.9865 9.81911 17.9186Q9.98749 17.8508 10.1195 17.7652Q12.8008 16.0286 14.8053 14.1362Q16.8098 12.2438 17.9239 10.2515Q19.0379 8.25928 19.0379 6.22467Q19.0379 4.96826 18.635 3.92242Q18.2321 2.87659 17.5096 2.10983Q16.7871 1.34308 15.8201 0.925446Q14.8531 0.507812 13.7219 0.507812Q12.3506 0.507812 11.2485 1.2233Q10.1463 1.93878 9.51569 3.13446Q8.89465 1.9455 7.79099 1.22665Q6.68732 0.507812 5.31235 0.507812Q4.18793 0.507812 3.21938 0.925446Q2.25082 1.34308 1.52832 2.10983Q0.805817 2.87659 0.402908 3.92242Q0 4.96826 0 6.22467Q0 8.25928 1.11412 10.2515Q2.22824 12.2438 4.23271 14.1362Q6.23718 16.0286 8.92151 17.7652Q9.0535 17.8508 9.22043 17.9186Q9.38736 17.9865 9.51569 17.9865Z"
                     fill="rgba(255,255,255,0.55)" />
              <path d="M9.93729 13.1842Q9.93729 13.4241 9.75739 13.5938Q9.57748 13.7636 9.33762 13.7636Q9.09775 13.7636 8.9212 13.5938Q8.74466 13.4241 8.74466 13.1842L8.74466 9.04114L8.7912 7.2348L7.51541 8.53683L6.70547 9.36935Q6.62537 9.44946 6.51398 9.49593Q6.40259 9.54239 6.28647 9.54239Q6.0466 9.54239 5.88875 9.38797Q5.7309 9.23355 5.7309 8.99063Q5.7309 8.83987 5.79781 8.73375Q5.86472 8.62762 5.96375 8.53226L8.90137 5.75638Q9.02191 5.64621 9.12315 5.59822Q9.2244 5.55023 9.33762 5.55023Q9.45084 5.55023 9.55544 5.59822Q9.66003 5.64621 9.77386 5.75638L12.7115 8.53226Q12.8136 8.62762 12.8789 8.73375Q12.9442 8.83987 12.9442 8.99063Q12.9442 9.23355 12.7831 9.38797Q12.6219 9.54239 12.3888 9.54239Q12.2658 9.54239 12.1578 9.49593Q12.0499 9.44946 11.9698 9.36935L11.1598 8.53683L9.88403 7.2348L9.93729 9.04114Z"
                     fill="#ffffff" />
       </g>
</svg>