<svg width="19.5898" height="19.5996">
       <g>
              <rect height="19.5996" opacity="0" width="19.5898" x="0" y="0" />
              <path d="M9.79492 19.5898Q11.8066 19.5898 13.5791 18.8232Q15.3516 18.0566 16.7041 16.7041Q18.0566 15.3516 18.8232 13.5791Q19.5898 11.8066 19.5898 9.79492Q19.5898 7.7832 18.8232 6.01074Q18.0566 4.23828 16.7041 2.88574Q15.3516 1.5332 13.5742 0.766602Q11.7969 0 9.78516 0Q7.77344 0 6.00098 0.766602Q4.22852 1.5332 2.88086 2.88574Q1.5332 4.23828 0.766602 6.01074Q0 7.7832 0 9.79492Q0 11.8066 0.766602 13.5791Q1.5332 15.3516 2.88574 16.7041Q4.23828 18.0566 6.01074 18.8232Q7.7832 19.5898 9.79492 19.5898Z"
                     fill="rgba(255,255,255,0.55)" />
              <path d="M9.80469 4.77539Q10.0684 4.77539 10.2295 4.93652Q10.3906 5.09766 10.3906 5.36133L10.3906 11.1133L10.332 12.9785L11.4355 11.7383L12.8613 10.3027Q13.0273 10.127 13.2812 10.127Q13.5156 10.127 13.6816 10.2881Q13.8477 10.4492 13.8477 10.6836Q13.8477 10.9277 13.6914 11.0938L10.2539 14.5215Q10.0391 14.7363 9.80469 14.7363Q9.57031 14.7363 9.35547 14.5215L5.92773 11.0938Q5.77148 10.9375 5.77148 10.6836Q5.77148 10.4492 5.93262 10.2881Q6.09375 10.127 6.33789 10.127Q6.58203 10.127 6.75781 10.3027L8.18359 11.7383L9.27734 12.9688L9.21875 11.1133L9.21875 5.36133Q9.21875 5.09766 9.38477 4.93652Q9.55078 4.77539 9.80469 4.77539Z"
                     fill="#ffffff" />
       </g>
</svg>