<svg width="19.5898" height="19.5996">
       <g>
              <rect height="19.5996" opacity="0" width="19.5898" x="0" y="0" />
              <path d="M9.79492 19.5898Q11.8066 19.5898 13.5791 18.8232Q15.3516 18.0566 16.7041 16.7041Q18.0566 15.3516 18.8232 13.5791Q19.5898 11.8066 19.5898 9.79492Q19.5898 7.7832 18.8232 6.01074Q18.0566 4.23828 16.7041 2.88574Q15.3516 1.5332 13.5742 0.766602Q11.7969 0 9.78516 0Q7.77344 0 6.00098 0.766602Q4.22852 1.5332 2.88086 2.88574Q1.5332 4.23828 0.766602 6.01074Q0 7.7832 0 9.79492Q0 11.8066 0.766602 13.5791Q1.5332 15.3516 2.88574 16.7041Q4.23828 18.0566 6.01074 18.8232Q7.7832 19.5898 9.79492 19.5898Z"
                     fill="rgba(255,255,255,0.55)" />
              <path d="M6.54297 7.36328Q6.80664 7.36328 6.96289 7.52441Q7.11914 7.68555 7.11914 7.97852L7.11914 10.1465L7.02148 11.7773L8.29102 10.4492L12.5586 6.16211Q12.6465 6.07422 12.7588 6.02539Q12.8711 5.97656 13.0176 5.97656Q13.2812 5.97656 13.4375 6.13281Q13.5938 6.28906 13.5938 6.5625Q13.5938 6.79688 13.3984 6.99219L9.12109 11.2695L7.76367 12.5488L9.20898 12.4414L11.582 12.4414Q11.8652 12.4414 12.0361 12.6025Q12.207 12.7637 12.207 13.0176Q12.207 13.2715 12.041 13.4277Q11.875 13.584 11.6016 13.584L6.61133 13.584Q6.31836 13.584 6.14746 13.4326Q5.97656 13.2812 5.97656 12.9395L5.97656 7.98828Q5.97656 7.70508 6.13281 7.53418Q6.28906 7.36328 6.54297 7.36328Z"
                     fill="#ffffff" />
       </g>
</svg>