<svg width="19.5898" height="19.5996">
       <g>
              <rect height="19.5996" opacity="0" width="19.5898" x="0" y="0" />
              <path d="M9.79492 19.5898Q11.8066 19.5898 13.5791 18.8232Q15.3516 18.0566 16.7041 16.7041Q18.0566 15.3516 18.8232 13.5791Q19.5898 11.8066 19.5898 9.79492Q19.5898 7.7832 18.8232 6.01074Q18.0566 4.23828 16.7041 2.88574Q15.3516 1.5332 13.5742 0.766602Q11.7969 0 9.78516 0Q7.77344 0 6.00098 0.766602Q4.22852 1.5332 2.88086 2.88574Q1.5332 4.23828 0.766602 6.01074Q0 7.7832 0 9.79492Q0 11.8066 0.766602 13.5791Q1.5332 15.3516 2.88574 16.7041Q4.23828 18.0566 6.01074 18.8232Q7.7832 19.5898 9.79492 19.5898Z"
                     fill="rgba(255,255,255,0.55)" />
              <path d="M6.35742 5.04883Q6.52344 4.88281 6.73828 4.8877Q6.95312 4.89258 7.10938 5.04883L9.70703 7.67578Q9.86328 7.83203 9.86328 8.05664Q9.86328 8.28125 9.72168 8.42285Q9.58008 8.56445 9.36523 8.56445Q9.14062 8.56445 8.98438 8.4082L7.8125 7.19727L7.22656 6.60156L7.25586 7.22656L7.25586 14.1992Q7.25586 14.4141 7.10938 14.5557Q6.96289 14.6973 6.73828 14.6973Q6.51367 14.6973 6.3623 14.5557Q6.21094 14.4141 6.21094 14.1992L6.21094 7.22656L6.24023 6.60156L5.6543 7.19727L4.48242 8.39844Q4.31641 8.56445 4.10156 8.56445Q3.88672 8.56445 3.74023 8.41797Q3.59375 8.27148 3.59375 8.05664Q3.59375 7.95898 3.6377 7.85645Q3.68164 7.75391 3.75977 7.67578ZM13.2422 14.5508Q13.0762 14.707 12.8516 14.707Q12.627 14.707 12.4707 14.5508L9.87305 11.9336Q9.7168 11.7578 9.7168 11.543Q9.7168 11.3184 9.8584 11.1768Q10 11.0352 10.2246 11.0352Q10.4492 11.0352 10.5957 11.1914L11.7773 12.3926L12.3535 12.998L12.3242 12.3828L12.3242 5.40039Q12.3242 5.18555 12.4756 5.03906Q12.627 4.89258 12.8516 4.89258Q13.0664 4.89258 13.2178 5.03906Q13.3691 5.18555 13.3691 5.40039L13.3691 12.373L13.3594 12.9883L13.9355 12.3926L15.1074 11.1914Q15.2734 11.0352 15.4785 11.0352Q15.7031 11.0352 15.8496 11.1816Q15.9961 11.3281 15.9961 11.543Q15.9961 11.748 15.8301 11.9336Z"
                     fill="#ffffff" />
       </g>
</svg>