<svg width="21.7969" height="19.8926">
       <g>
              <rect height="19.8926" opacity="0" width="21.7969" x="0" y="0" />
              <path d="M3.89648 19.8828Q4.30664 19.8828 4.95117 19.6973Q5.5957 19.5117 6.35254 19.1943Q7.10938 18.877 7.87109 18.4863Q8.63281 18.0957 9.27734 17.6758Q9.4043 17.5879 9.50684 17.5586Q9.60938 17.5293 9.70703 17.5293Q9.90234 17.5488 10.0928 17.5635Q10.2832 17.5781 10.4785 17.5781Q12.4707 17.5781 14.2041 17.1289Q15.9375 16.6797 17.334 15.8691Q18.7305 15.0586 19.7314 13.96Q20.7324 12.8613 21.2646 11.5479Q21.7969 10.2344 21.7969 8.78906Q21.7969 6.96289 20.957 5.37109Q20.1172 3.7793 18.623 2.57324Q17.1289 1.36719 15.1514 0.683594Q13.1738 0 10.8984 0Q8.62305 0 6.64551 0.683594Q4.66797 1.36719 3.17383 2.57324Q1.67969 3.7793 0.839844 5.37109Q0 6.96289 0 8.78906Q0 10.332 0.600586 11.7285Q1.20117 13.125 2.31445 14.2773Q3.42773 15.4297 4.95117 16.2207Q5.06836 16.2891 5.10254 16.3916Q5.13672 16.4941 5.06836 16.6113Q4.83398 17.0215 4.51172 17.4463Q4.18945 17.8711 3.88672 18.2373Q3.58398 18.6035 3.38867 18.8379Q3.10547 19.1992 3.2373 19.541Q3.36914 19.8828 3.89648 19.8828Z"
                     fill="rgba(255,255,255,0.55)" />
              <path d="M10.9082 3.83789Q11.1719 3.83789 11.333 3.99902Q11.4941 4.16016 11.4941 4.42383L11.4941 10.1758L11.4355 12.041L12.5391 10.8008L13.9648 9.36523Q14.1309 9.18945 14.3848 9.18945Q14.6191 9.18945 14.7852 9.35059Q14.9512 9.51172 14.9512 9.74609Q14.9512 9.99023 14.7949 10.1562L11.3574 13.584Q11.1426 13.7988 10.9082 13.7988Q10.6738 13.7988 10.459 13.584L7.03125 10.1562Q6.875 10 6.875 9.74609Q6.875 9.51172 7.03613 9.35059Q7.19727 9.18945 7.44141 9.18945Q7.68555 9.18945 7.86133 9.36523L9.28711 10.8008L10.3809 12.0312L10.3223 10.1758L10.3223 4.42383Q10.3223 4.16016 10.4883 3.99902Q10.6543 3.83789 10.9082 3.83789Z"
                     fill="#ffffff" />
       </g>
</svg>