<svg width="23.9648" height="17.8223">
       <g>
              <rect height="17.8223" opacity="0" width="23.9648" x="0" y="0" />
              <path d="M18.9062 16.4453Q19.9707 16.4453 20.8936 16.0938Q21.8164 15.7422 22.5049 15.1123Q23.1934 14.4824 23.5791 13.6426Q23.9648 12.8027 23.9648 11.8457Q23.9648 10.8496 23.6084 9.9707Q23.252 9.0918 22.5732 8.41797Q21.8945 7.74414 20.9277 7.38281Q20.9473 5.78125 20.4395 4.43359Q19.9316 3.08594 18.9893 2.08984Q18.0469 1.09375 16.792 0.546875Q15.5371 0 14.0723 0Q12.7441 0 11.6895 0.43457Q10.6348 0.869141 9.83398 1.59668Q9.0332 2.32422 8.49609 3.20312Q7.61719 2.90039 6.74316 3.05664Q5.86914 3.21289 5.14648 3.74023Q4.42383 4.26758 3.98438 5.08301Q3.54492 5.89844 3.54492 6.9043Q2.4707 7.03125 1.66992 7.65137Q0.869141 8.27148 0.43457 9.23828Q0 10.2051 0 11.377Q0 12.4219 0.424805 13.3398Q0.849609 14.2578 1.61133 14.9512Q2.37305 15.6445 3.39844 16.04Q4.42383 16.4355 5.625 16.4355Z"
                     fill="rgba(255,255,255,0.55)" />
              <path d="M16.25 9.44336Q16.25 10.5469 15.7227 11.4453Q15.1953 12.3438 14.3066 12.8711Q13.418 13.3984 12.3242 13.3984Q11.2402 13.3984 10.3516 12.8711Q9.46289 12.3438 8.94043 11.4551Q8.41797 10.5664 8.41797 9.46289Q8.41797 9.26758 8.56445 9.12598Q8.71094 8.98438 8.90625 8.98438Q9.11133 8.98438 9.25781 9.12598Q9.4043 9.26758 9.4043 9.46289Q9.4043 10.2832 9.7998 10.9521Q10.1953 11.6211 10.8545 12.0166Q11.5137 12.4121 12.3242 12.4121Q13.1445 12.4121 13.8086 12.0166Q14.4727 11.6211 14.8633 10.9521Q15.2539 10.2832 15.2539 9.46289Q15.2539 8.65234 14.8633 7.99316Q14.4727 7.33398 13.8086 6.94336Q13.1445 6.55273 12.3242 6.55273Q11.9824 6.55273 11.7383 6.61133L12.8613 7.73438Q13.0078 7.88086 13.0078 8.08594Q13.0078 8.28125 12.876 8.41309Q12.7441 8.54492 12.5488 8.54492Q12.3633 8.54492 12.2363 8.41797L10.4297 6.5918Q10.293 6.45508 10.293 6.23535Q10.293 6.01562 10.4297 5.87891L12.207 4.0625Q12.2656 3.98438 12.3633 3.94531Q12.4609 3.90625 12.5586 3.90625Q12.7441 3.90625 12.8809 4.04297Q13.0176 4.17969 13.0176 4.375Q13.0176 4.46289 12.9834 4.55566Q12.9492 4.64844 12.8809 4.70703L11.9824 5.63477Q12.0898 5.61523 12.207 5.60547Q12.3242 5.5957 12.4414 5.5957Q13.4668 5.5957 14.3311 6.1084Q15.1953 6.62109 15.7227 7.49512Q16.25 8.36914 16.25 9.44336Z"
                     fill="#ffffff" />
       </g>
</svg>