<svg width="19.5898" height="19.5996">
       <g>
              <rect height="19.5996" opacity="0" width="19.5898" x="0" y="0" />
              <path d="M9.79492 19.5996Q11.8066 19.5996 13.5791 18.833Q15.3516 18.0664 16.7041 16.7139Q18.0566 15.3613 18.8232 13.5889Q19.5898 11.8164 19.5898 9.80469Q19.5898 7.79297 18.8232 6.02051Q18.0566 4.24805 16.7041 2.89551Q15.3516 1.54297 13.5742 0.776367Q11.7969 0.00976562 9.78516 0.00976562Q7.77344 0.00976562 6.00098 0.776367Q4.22852 1.54297 2.88086 2.89551Q1.5332 4.24805 0.766602 6.02051Q0 7.79297 0 9.80469Q0 11.8164 0.766602 13.5889Q1.5332 15.3613 2.88574 16.7139Q4.23828 18.0664 6.01074 18.833Q7.7832 19.5996 9.79492 19.5996Z"
                     fill="rgba(255,255,255,0.55)" />
              <path d="M9.78516 15.5566Q9.54102 15.5566 9.38965 15.4053Q9.23828 15.2539 9.23828 15.0293L9.23828 10.0781L9.33594 8.23242L7.49023 10.2148L6.67969 11.0742Q6.60156 11.1621 6.50391 11.2061Q6.40625 11.25 6.2793 11.25Q6.03516 11.25 5.89355 11.0986Q5.75195 10.9473 5.75195 10.7227Q5.75195 10.4883 5.9375 10.3223L9.38477 6.82617Q9.47266 6.73828 9.57031 6.69434Q9.66797 6.65039 9.78516 6.65039Q9.89258 6.65039 9.99023 6.69922Q10.0879 6.74805 10.1855 6.82617L13.6133 10.293Q13.7207 10.3906 13.7695 10.498Q13.8184 10.6055 13.8184 10.7227Q13.8184 10.9473 13.6768 11.0986Q13.5352 11.25 13.3008 11.25Q13.1836 11.25 13.0811 11.2061Q12.9785 11.1621 12.9004 11.0742L12.0312 10.1953L10.2344 8.23242L10.3027 10.0781L10.3027 15.0293Q10.3027 15.2539 10.1562 15.4053Q10.0098 15.5566 9.78516 15.5566ZM6.05469 5.79102Q5.83008 5.79102 5.68359 5.64453Q5.53711 5.49805 5.53711 5.27344Q5.53711 5.03906 5.68359 4.8877Q5.83008 4.73633 6.05469 4.73633L13.5156 4.73633Q13.7402 4.73633 13.8867 4.8877Q14.0332 5.03906 14.0332 5.27344Q14.0332 5.49805 13.8867 5.64453Q13.7402 5.79102 13.5156 5.79102Z"
                     fill="#ffffff" />
       </g>
</svg>