<svg width="19.5898" height="19.6973">
       <g>
              <rect height="19.6973" opacity="0" width="19.5898" x="0" y="0" />
              <path d="M9.79492 19.5898Q11.8066 19.5898 13.5791 18.8232Q15.3516 18.0566 16.7041 16.7041Q18.0566 15.3516 18.8232 13.5791Q19.5898 11.8066 19.5898 9.79492Q19.5898 7.7832 18.8232 6.01074Q18.0566 4.23828 16.7041 2.88574Q15.3516 1.5332 13.5742 0.766602Q11.7969 0 9.78516 0Q7.77344 0 6.00098 0.766602Q4.22852 1.5332 2.88086 2.88574Q1.5332 4.23828 0.766602 6.01074Q0 7.7832 0 9.79492Q0 11.8066 0.766602 13.5791Q1.5332 15.3516 2.88574 16.7041Q4.23828 18.0566 6.01074 18.8232Q7.7832 19.5898 9.79492 19.5898Z"
                     fill="rgba(255,255,255,0.55)" />
              <path d="M8.79883 14.502Q7.71484 14.502 6.89941 14.0332Q6.08398 13.5645 5.63965 12.7197Q5.19531 11.875 5.19531 10.7617L5.19531 9.36523Q5.19531 9.10156 5.34668 8.93555Q5.49805 8.76953 5.76172 8.76953Q6.01562 8.76953 6.17188 8.93066Q6.32812 9.0918 6.32812 9.35547L6.32812 10.7617Q6.32812 11.9238 7.00684 12.6465Q7.68555 13.3691 8.79883 13.3691Q9.85352 13.3691 10.5029 12.6562Q11.1523 11.9434 11.1523 10.7617L11.1523 7.58789L11.1914 6.61133L10.8594 7.06055L9.48242 8.47656Q9.29688 8.66211 9.05273 8.66211Q8.80859 8.66211 8.6377 8.50098Q8.4668 8.33984 8.4668 8.0957Q8.4668 7.8418 8.63281 7.67578L11.2207 5.14648Q11.4453 4.93164 11.7285 4.93164Q12.002 4.93164 12.2363 5.14648L14.7949 7.66602Q14.9707 7.83203 14.9707 8.0957Q14.9707 8.33984 14.7949 8.50098Q14.6191 8.66211 14.3848 8.66211Q14.1406 8.66211 13.9648 8.47656L12.7051 7.1875L12.2461 6.61133L12.2852 7.58789L12.2852 10.7617Q12.2852 11.8848 11.8506 12.7246Q11.416 13.5645 10.6299 14.0332Q9.84375 14.502 8.79883 14.502Z"
                     fill="#ffffff" />
       </g>
</svg>