<svg width="19.5898" height="19.5996">
       <g>
              <rect height="19.5996" opacity="0" width="19.5898" x="0" y="0" />
              <path d="M9.79492 19.5996Q11.8066 19.5996 13.5791 18.833Q15.3516 18.0664 16.7041 16.7139Q18.0566 15.3613 18.8232 13.5889Q19.5898 11.8164 19.5898 9.80469Q19.5898 7.79297 18.8232 6.02051Q18.0566 4.24805 16.7041 2.89551Q15.3516 1.54297 13.5742 0.776367Q11.7969 0.00976562 9.78516 0.00976562Q7.77344 0.00976562 6.00098 0.776367Q4.22852 1.54297 2.88086 2.89551Q1.5332 4.24805 0.766602 6.02051Q0 7.79297 0 9.80469Q0 11.8164 0.766602 13.5889Q1.5332 15.3613 2.88574 16.7139Q4.23828 18.0664 6.01074 18.833Q7.7832 19.5996 9.79492 19.5996Z"
                     fill="rgba(255,255,255,0.55)" />
              <path d="M9.78516 13.1934Q9.66797 13.1934 9.57031 13.1494Q9.47266 13.1055 9.38477 13.0176L5.9375 9.52148Q5.85938 9.44336 5.80566 9.33105Q5.75195 9.21875 5.75195 9.13086Q5.75195 8.88672 5.89355 8.74023Q6.03516 8.59375 6.2793 8.59375Q6.40625 8.59375 6.50391 8.6377Q6.60156 8.68164 6.67969 8.76953L7.49023 9.62891L9.33594 11.6113L9.23828 9.76562L9.23828 4.82422Q9.23828 4.58984 9.38965 4.43848Q9.54102 4.28711 9.78516 4.28711Q10.0098 4.28711 10.1562 4.43848Q10.3027 4.58984 10.3027 4.82422L10.3027 9.76562L10.2344 11.6016L12.0312 9.63867L12.9004 8.76953Q12.9785 8.68164 13.0811 8.6377Q13.1836 8.59375 13.3008 8.59375Q13.5352 8.59375 13.6768 8.75Q13.8184 8.90625 13.8184 9.12109Q13.8184 9.23828 13.7646 9.3457Q13.7109 9.45312 13.6133 9.55078L10.1855 13.0176Q10.0977 13.1055 9.99512 13.1494Q9.89258 13.1934 9.78516 13.1934ZM6.05469 15.1074Q5.83008 15.1074 5.68359 14.9609Q5.53711 14.8145 5.53711 14.5703Q5.53711 14.3555 5.68359 14.2041Q5.83008 14.0527 6.05469 14.0527L13.5156 14.0527Q13.7402 14.0527 13.8867 14.2041Q14.0332 14.3555 14.0332 14.5703Q14.0332 14.8145 13.8867 14.9609Q13.7402 15.1074 13.5156 15.1074Z"
                     fill="#ffffff" />
       </g>
</svg>