<svg width="21.7432" height="21.7579">
       <g>
              <rect height="21.7579" opacity="0" width="21.7432" x="0" y="0" />
              <path d="M1.02053 12.9053L8.85256 20.7276Q9.85842 21.7432 10.8789 21.7481Q11.8994 21.753 12.9053 20.7471L20.7471 12.8955Q21.7432 11.8994 21.7432 10.874Q21.7432 9.84866 20.7373 8.83303L12.9248 1.02053Q11.8994 0.00490618 10.8838 2.33627e-05Q9.86819-0.00485945 8.86233 1.01077L1.001 8.85256Q-0.00485922 9.86819 2.35885e-05 10.8789Q0.0049064 11.8897 1.02053 12.9053Z"
                     fill="rgba(255,255,255,0.55)" />
              <path d="M6.6553 14.0088L6.6553 11.0791Q6.6553 9.70217 7.30959 9.04787Q7.96389 8.39358 9.32131 8.39358L12.2998 8.39358L12.2998 7.02639Q12.2998 6.5967 12.6416 6.45998Q12.9834 6.32327 13.3057 6.57717L15.5811 8.36428Q15.9619 8.65725 15.9619 9.0137Q15.9619 9.37014 15.5811 9.66311L13.3057 11.46Q12.9834 11.7041 12.6416 11.5674Q12.2998 11.4307 12.2998 11.001L12.2998 9.63381L9.35061 9.64358Q8.58889 9.64358 8.23733 9.99514Q7.88577 10.3467 7.88577 11.1377L7.88577 14.0088Q7.88577 14.3311 7.72463 14.5166Q7.5635 14.7022 7.27053 14.7022Q6.97756 14.7022 6.81643 14.5166Q6.6553 14.3311 6.6553 14.0088Z"
                     fill="#ffffff" />
       </g>
</svg>