<svg width="19.7559" height="24.3262">
       <g>
              <rect height="24.3262" opacity="0" width="19.7559" x="0" y="0" />
              <path d="M4.73633 5.42969L12.334 5.42969Q12.9004 5.42969 13.3789 5.68359Q13.8574 5.9375 14.1455 6.43066Q14.4336 6.92383 14.4336 7.65625L14.4336 19.5703L16.9043 19.5703Q18.3203 19.5703 19.0381 18.8428Q19.7559 18.1152 19.7559 16.6895L19.7559 2.88086Q19.7559 1.45508 19.0381 0.727539Q18.3203 0 16.9043 0L7.58789 0Q6.17188 0 5.4541 0.722656Q4.73633 1.44531 4.73633 2.88086ZM9.4043 2.61719L9.4043 2.44141Q9.4043 2.23633 9.54102 2.08008Q9.67773 1.92383 9.9707 1.92383L14.5215 1.92383Q14.8047 1.92383 14.9463 2.08008Q15.0879 2.23633 15.0879 2.44141L15.0879 2.61719Q15.0879 2.82227 14.9463 2.9834Q14.8047 3.14453 14.5215 3.14453L9.9707 3.14453Q9.67773 3.14453 9.54102 2.9834Q9.4043 2.82227 9.4043 2.61719Z"
                     fill="rgba(255,255,255,0.55)" />
              <path d="M0 21.4258Q0 22.8516 0.717773 23.5791Q1.43555 24.3066 2.85156 24.3066L12.168 24.3066Q13.584 24.3066 14.3018 23.5791Q15.0195 22.8516 15.0195 21.4258L15.0195 7.61719Q15.0195 6.19141 14.3018 5.46387Q13.584 4.73633 12.168 4.73633L2.85156 4.73633Q1.43555 4.73633 0.717773 5.45898Q0 6.18164 0 7.61719ZM1.21094 21.3965L1.21094 7.63672Q1.21094 6.81641 1.64062 6.37695Q2.07031 5.9375 2.91016 5.9375L12.1094 5.9375Q12.9492 5.9375 13.3789 6.37695Q13.8086 6.81641 13.8086 7.63672L13.8086 21.3965Q13.8086 22.2168 13.3789 22.6562Q12.9492 23.0957 12.1094 23.0957L2.91016 23.0957Q2.07031 23.0957 1.64062 22.6562Q1.21094 22.2168 1.21094 21.3965ZM7.51953 18.8477Q7.73438 18.8477 7.87109 18.7061Q8.00781 18.5645 8.00781 18.3496L8.00781 13.3691L7.95898 11.7773L8.96484 12.8809L10.0977 14.0234Q10.2441 14.1699 10.4492 14.1699Q10.6543 14.1699 10.791 14.043Q10.9277 13.916 10.9277 13.7012Q10.9277 13.5059 10.7812 13.3691L7.89062 10.4688Q7.70508 10.2832 7.50977 10.2832Q7.32422 10.2832 7.13867 10.4688L4.23828 13.3691Q4.10156 13.5059 4.10156 13.7012Q4.10156 13.916 4.23828 14.043Q4.375 14.1699 4.57031 14.1699Q4.76562 14.1699 4.92188 14.0234L6.06445 12.8809L7.07031 11.7676L7.02148 13.3691L7.02148 18.3496Q7.02148 18.5547 7.1582 18.7012Q7.29492 18.8477 7.51953 18.8477Z"
                     fill="rgba(255,255,255,0.55)" />
       </g>
</svg>