<svg width="17.6855" height="17.7051">
       <g>
              <rect height="17.7051" opacity="0" width="17.6855" x="0" y="0" />
              <path d="M2.88086 17.7051L14.8047 17.7051Q16.2305 17.7051 16.958 16.9873Q17.6855 16.2695 17.6855 14.8535L17.6855 2.88086Q17.6855 1.46484 16.958 0.742188Q16.2305 0.0195312 14.8047 0.0195312L2.88086 0.0195312Q1.44531 0.0195312 0.722656 0.737305Q0 1.45508 0 2.88086L0 14.8535Q0 16.2695 0.722656 16.9873Q1.44531 17.7051 2.88086 17.7051Z"
                     fill="rgba(255,255,255,0.55)" />
              <path d="M4.0918 5.48828L6.71875 2.91016Q6.88477 2.73438 7.09961 2.73438Q7.32422 2.73438 7.46582 2.88086Q7.60742 3.02734 7.60742 3.24219Q7.60742 3.4668 7.44141 3.62305L6.25 4.80469L5.6543 5.37109L6.26953 5.35156L13.2422 5.35156Q13.4668 5.35156 13.6133 5.50293Q13.7598 5.6543 13.7598 5.86914Q13.7598 6.09375 13.6133 6.24512Q13.4668 6.39648 13.2422 6.39648L6.26953 6.39648L5.64453 6.36719L6.25 6.95312L7.44141 8.125Q7.60742 8.28125 7.60742 8.50586Q7.60742 8.7207 7.46582 8.8623Q7.32422 9.00391 7.09961 9.00391Q6.89453 9.00391 6.71875 8.85742L4.0918 6.25Q3.93555 6.09375 3.93555 5.86914Q3.93555 5.64453 4.0918 5.48828ZM13.6035 12.2266L10.9766 14.8242Q10.791 14.9902 10.5859 14.9902Q10.3809 14.9902 10.2344 14.8438Q10.0879 14.6973 10.0879 14.4922Q10.0879 14.2871 10.2539 14.1016L11.4453 12.9297L12.0508 12.3633L11.416 12.3828L4.45312 12.3828Q4.22852 12.3828 4.08203 12.2314Q3.93555 12.0801 3.93555 11.8555Q3.93555 11.6309 4.08691 11.4844Q4.23828 11.3379 4.45312 11.3379L11.4258 11.3379L12.0508 11.3672L11.4453 10.7812L10.2344 9.60938Q10.0879 9.45312 10.0879 9.22852Q10.0879 9.01367 10.2295 8.87207Q10.3711 8.73047 10.5859 8.73047Q10.8203 8.73047 10.9766 8.88672L13.6035 11.4844Q13.7598 11.6406 13.7646 11.8555Q13.7695 12.0703 13.6035 12.2266Z"
                     fill="#ffffff" />
       </g>
</svg>