<svg width="19.5898" height="19.5996">
       <g>
              <rect height="19.5996" opacity="0" width="19.5898" x="0" y="0" />
              <path d="M9.79492 19.5898Q11.8066 19.5898 13.5791 18.8232Q15.3516 18.0566 16.7041 16.7041Q18.0566 15.3516 18.8232 13.5791Q19.5898 11.8066 19.5898 9.79492Q19.5898 7.7832 18.8232 6.01074Q18.0566 4.23828 16.7041 2.88574Q15.3516 1.5332 13.5742 0.766602Q11.7969 0 9.78516 0Q7.77344 0 6.00098 0.766602Q4.22852 1.5332 2.88086 2.88574Q1.5332 4.23828 0.766602 6.01074Q0 7.7832 0 9.79492Q0 11.8066 0.766602 13.5791Q1.5332 15.3516 2.88574 16.7041Q4.23828 18.0566 6.01074 18.8232Q7.7832 19.5898 9.79492 19.5898Z"
                     fill="rgba(255,255,255,0.55)" />
              <path d="M9.82422 15.2148Q8.44727 15.2148 7.30957 14.6338Q6.17188 14.0527 5.41016 13.0127Q4.64844 11.9727 4.42383 10.5957L3.32031 10.5957Q3.03711 10.5957 2.97852 10.3857Q2.91992 10.1758 3.07617 9.95117L4.56055 7.80273Q4.75586 7.51953 5.01953 7.52441Q5.2832 7.5293 5.46875 7.80273L6.96289 9.95117Q7.11914 10.1758 7.05566 10.3857Q6.99219 10.5957 6.70898 10.5957L5.60547 10.5957Q5.81055 11.5723 6.41113 12.3389Q7.01172 13.1055 7.90039 13.5449Q8.78906 13.9844 9.82422 13.9844Q10.5859 13.9844 11.2354 13.7305Q11.8848 13.4766 12.5195 12.9395Q12.7637 12.7539 13.0078 12.7393Q13.252 12.7246 13.457 12.9395Q13.6621 13.1445 13.6084 13.4229Q13.5547 13.7012 13.2715 13.9453Q12.6074 14.5312 11.6943 14.873Q10.7812 15.2148 9.82422 15.2148ZM9.81445 4.35547Q11.2012 4.35547 12.3389 4.94141Q13.4766 5.52734 14.2383 6.56738Q15 7.60742 15.2246 8.97461L16.2891 8.97461Q16.582 8.97461 16.6357 9.18457Q16.6895 9.39453 16.5332 9.61914L15.0586 11.7773Q14.8633 12.0508 14.5947 12.0459Q14.3262 12.041 14.1406 11.7773L12.6465 9.61914Q12.4805 9.4043 12.5488 9.18945Q12.6172 8.97461 12.9102 8.97461L14.043 8.97461Q13.8379 8.00781 13.2373 7.24121Q12.6367 6.47461 11.7529 6.03516Q10.8691 5.5957 9.81445 5.5957Q9.0625 5.5957 8.41309 5.84961Q7.76367 6.10352 7.12891 6.63086Q6.89453 6.81641 6.64551 6.83105Q6.39648 6.8457 6.19141 6.63086Q5.98633 6.42578 6.04004 6.14746Q6.09375 5.86914 6.37695 5.63477Q7.04102 5.03906 7.9541 4.69727Q8.86719 4.35547 9.81445 4.35547Z"
                     fill="#ffffff" />
       </g>
</svg>