<svg width="17.6855" height="17.9395">
       <g>
              <rect height="17.9395" opacity="0" width="17.6855" x="0" y="0" />
              <path d="M2.88086 17.6855L14.8047 17.6855Q16.2305 17.6855 16.958 16.9678Q17.6855 16.25 17.6855 14.834L17.6855 2.86133Q17.6855 1.44531 16.958 0.722656Q16.2305 0 14.8047 0L2.88086 0Q1.44531 0 0.722656 0.717773Q0 1.43555 0 2.86133L0 14.834Q0 16.25 0.722656 16.9678Q1.44531 17.6855 2.88086 17.6855Z"
                     fill="rgba(255,255,255,0.55)" />
              <path d="M9.86328 3.96484Q10.957 3.96484 11.7627 4.43359Q12.5684 4.90234 13.0176 5.74707Q13.4668 6.5918 13.4668 7.70508L13.4668 9.10156Q13.4668 9.36523 13.3105 9.53125Q13.1543 9.69727 12.9004 9.69727Q12.6465 9.69727 12.4902 9.53613Q12.334 9.375 12.334 9.11133L12.334 7.70508Q12.334 6.5332 11.6553 5.81543Q10.9766 5.09766 9.86328 5.09766Q8.79883 5.09766 8.14941 5.81055Q7.5 6.52344 7.5 7.69531L7.5 10.8691L7.4707 11.8457L7.79297 11.4062L9.16992 9.99023Q9.35547 9.80469 9.60938 9.80469Q9.84375 9.80469 10.0195 9.96582Q10.1953 10.127 10.1953 10.3711Q10.1953 10.625 10.0195 10.791L7.44141 13.3203Q7.2168 13.5352 6.93359 13.5352Q6.65039 13.5352 6.42578 13.3203L3.86719 10.8008Q3.69141 10.6348 3.69141 10.3711Q3.69141 10.127 3.86719 9.96582Q4.04297 9.80469 4.27734 9.80469Q4.52148 9.80469 4.6875 9.99023L5.94727 11.2793L6.41602 11.8555L6.37695 10.8691L6.37695 7.69531Q6.37695 6.58203 6.80664 5.74219Q7.23633 4.90234 8.02246 4.43359Q8.80859 3.96484 9.86328 3.96484Z"
                     fill="#ffffff" />
       </g>
</svg>