<svg width="17.6855" height="17.7051">
       <g>
              <rect height="17.7051" opacity="0" width="17.6855" x="0" y="0" />
              <path d="M2.88086 17.7051L14.8047 17.7051Q16.2305 17.7051 16.958 16.9873Q17.6855 16.2695 17.6855 14.8535L17.6855 2.88086Q17.6855 1.46484 16.958 0.742188Q16.2305 0.0195312 14.8047 0.0195312L2.88086 0.0195312Q1.44531 0.0195312 0.722656 0.737305Q0 1.45508 0 2.88086L0 14.8535Q0 16.2695 0.722656 16.9873Q1.44531 17.7051 2.88086 17.7051Z"
                     fill="rgba(255,255,255,0.55)" />
              <path d="M8.35938 12.5586L4.94141 6.875Q4.77539 6.58203 4.89258 6.27441Q5.00977 5.9668 5.33203 5.9668L12.3535 5.9668Q12.6758 5.9668 12.7979 6.26465Q12.9199 6.5625 12.7344 6.875L9.35547 12.5586Q9.17969 12.8613 8.85742 12.8564Q8.53516 12.8516 8.35938 12.5586Z"
                     fill="#ffffff" />
       </g>
</svg>