<svg width="19.5898" height="19.5996">
       <g>
              <rect height="19.5996" opacity="0" width="19.5898" x="0" y="0" />
              <path d="M9.79492 19.5898Q11.8066 19.5898 13.5791 18.8232Q15.3516 18.0566 16.7041 16.7041Q18.0566 15.3516 18.8232 13.5791Q19.5898 11.8066 19.5898 9.79492Q19.5898 7.7832 18.8232 6.01074Q18.0566 4.23828 16.7041 2.88574Q15.3516 1.5332 13.5742 0.766602Q11.7969 0 9.78516 0Q7.77344 0 6.00098 0.766602Q4.22852 1.5332 2.88086 2.88574Q1.5332 4.23828 0.766602 6.01074Q0 7.7832 0 9.79492Q0 11.8066 0.766602 13.5791Q1.5332 15.3516 2.88574 16.7041Q4.23828 18.0566 6.01074 18.8232Q7.7832 19.5898 9.79492 19.5898Z"
                     fill="rgba(255,255,255,0.55)" />
              <path d="M14.9219 9.77539Q14.9219 10.0098 14.707 10.2246L11.1621 13.7695Q10.9961 13.9453 10.752 13.9453Q10.5078 13.9453 10.3467 13.7793Q10.1855 13.6133 10.1855 13.3789Q10.1855 13.125 10.3809 12.9492L11.9238 11.4062L13.1641 10.293L11.3086 10.3613L5.25391 10.3613Q4.99023 10.3613 4.82422 10.1953Q4.6582 10.0293 4.6582 9.77539Q4.6582 9.51172 4.82422 9.3457Q4.99023 9.17969 5.25391 9.17969L11.3086 9.17969L13.1543 9.24805L11.9238 8.14453L10.3809 6.60156Q10.1855 6.39648 10.1855 6.17188Q10.1855 5.9375 10.3467 5.77637Q10.5078 5.61523 10.752 5.61523Q11.0059 5.61523 11.1621 5.78125L14.707 9.32617Q14.9219 9.54102 14.9219 9.77539Z"
                     fill="#ffffff" />
       </g>
</svg>