<svg width="19.5898" height="19.5996">
       <g>
              <rect height="19.5996" opacity="0" width="19.5898" x="0" y="0" />
              <path d="M9.79492 19.5996Q11.8066 19.5996 13.5791 18.833Q15.3516 18.0664 16.7041 16.7139Q18.0566 15.3613 18.8232 13.5889Q19.5898 11.8164 19.5898 9.80469Q19.5898 7.79297 18.8232 6.02051Q18.0566 4.24805 16.7041 2.89551Q15.3516 1.54297 13.5742 0.776367Q11.7969 0.00976562 9.78516 0.00976562Q7.77344 0.00976562 6.00098 0.776367Q4.22852 1.54297 2.88086 2.89551Q1.5332 4.24805 0.766602 6.02051Q0 7.79297 0 9.80469Q0 11.8164 0.766602 13.5889Q1.5332 15.3613 2.88574 16.7139Q4.23828 18.0664 6.01074 18.833Q7.7832 19.5996 9.79492 19.5996Z"
                     fill="#0a84ff" />
              <path d="M8.86719 14.1113Q8.69141 14.1113 8.54492 14.0332Q8.39844 13.9551 8.25195 13.8184L3.91602 9.76562Q3.74023 9.59961 3.68164 9.45801Q3.62305 9.31641 3.62305 9.18945Q3.62305 9.05273 3.68164 8.91602Q3.74023 8.7793 3.91602 8.61328L8.25195 4.58008Q8.4082 4.42383 8.5498 4.3457Q8.69141 4.26758 8.85742 4.26758Q9.11133 4.26758 9.25781 4.43359Q9.4043 4.59961 9.4043 4.82422L9.4043 7.03125L9.59961 7.03125Q11.4453 7.03125 12.7051 7.77832Q13.9648 8.52539 14.5996 9.96582Q15.2344 11.4062 15.2344 13.5059Q15.2344 13.7988 15.083 13.9551Q14.9316 14.1113 14.7461 14.1113Q14.5801 14.1113 14.4385 14.043Q14.2969 13.9746 14.1797 13.7402Q13.5156 12.4219 12.417 11.8994Q11.3184 11.377 9.59961 11.377L9.4043 11.377L9.4043 13.5645Q9.4043 13.7988 9.25781 13.9551Q9.11133 14.1113 8.86719 14.1113Z"
                     fill="#ffffff" />
       </g>
</svg>