<svg width="17.4609" height="17.4512">
       <g>
              <rect height="17.4512" opacity="0" width="17.4609" x="0" y="0" />
              <path d="M16.3672 1.09375Q15.6836 0.419922 14.7217 0.209961Q13.7598 0 12.4316 0L4.96094 0Q3.69141 0 2.73438 0.209961Q1.77734 0.419922 1.09375 1.10352Q0.419922 1.77734 0.209961 2.72461Q0 3.67188 0 4.96094L0 12.4316Q0 13.7598 0.205078 14.7217Q0.410156 15.6836 1.08398 16.3477Q1.77734 17.0312 2.73438 17.2412Q3.69141 17.4512 5.01953 17.4512L12.4316 17.4512Q13.7598 17.4512 14.7266 17.2412Q15.6934 17.0312 16.3672 16.3477Q17.0508 15.6836 17.2559 14.7217Q17.4609 13.7598 17.4609 12.4316L17.4609 5.01953Q17.4609 3.69141 17.2559 2.72949Q17.0508 1.76758 16.3672 1.09375Z"
                     fill="rgba(255,255,255,0.55)" />
              <path d="M11.9727 11.123Q11.709 11.123 11.5479 10.9619Q11.3867 10.8008 11.3867 10.5078L11.3867 8.33984L11.4844 6.70898L10.2246 8.03711L5.94727 12.3242Q5.86914 12.4121 5.75195 12.4609Q5.63477 12.5098 5.48828 12.5098Q5.23438 12.5098 5.07812 12.3535Q4.92188 12.1973 4.92188 11.9238Q4.92188 11.6895 5.10742 11.4941L9.4043 7.2168L10.752 5.9375L9.30664 6.04492L6.92383 6.04492Q6.65039 6.04492 6.47949 5.88379Q6.30859 5.72266 6.30859 5.46875Q6.30859 5.21484 6.47461 5.05859Q6.64062 4.90234 6.91406 4.90234L11.9043 4.90234Q12.1973 4.90234 12.3682 5.05371Q12.5391 5.20508 12.5391 5.54688L12.5391 10.498Q12.5391 10.7812 12.3828 10.9521Q12.2266 11.123 11.9727 11.123Z"
                     fill="#ffffff" />
       </g>
</svg>