<svg width="17.6855" height="17.7051">
       <g>
              <rect height="17.7051" opacity="0" width="17.6855" x="0" y="0" />
              <path d="M2.88086 17.7051L14.8047 17.7051Q16.2305 17.7051 16.958 16.9873Q17.6855 16.2695 17.6855 14.8535L17.6855 2.88086Q17.6855 1.46484 16.958 0.742188Q16.2305 0.0195312 14.8047 0.0195312L2.88086 0.0195312Q1.44531 0.0195312 0.722656 0.737305Q0 1.45508 0 2.88086L0 14.8535Q0 16.2695 0.722656 16.9873Q1.44531 17.7051 2.88086 17.7051Z"
                     fill="rgba(255,255,255,0.55)" />
              <path d="M12.0898 11.25Q11.8262 11.25 11.665 11.0889Q11.5039 10.9277 11.5039 10.6348L11.5039 8.4668L11.6016 6.83594L10.3418 8.16406L6.06445 12.4512Q5.98633 12.5391 5.86914 12.5879Q5.75195 12.6367 5.60547 12.6367Q5.35156 12.6367 5.19531 12.4805Q5.03906 12.3242 5.03906 12.0508Q5.03906 11.8164 5.22461 11.6211L9.52148 7.34375L10.8691 6.06445L9.42383 6.17188L7.04102 6.17188Q6.76758 6.17188 6.59668 6.01074Q6.42578 5.84961 6.42578 5.5957Q6.42578 5.3418 6.5918 5.18555Q6.75781 5.0293 7.03125 5.0293L12.0215 5.0293Q12.3145 5.0293 12.4854 5.18066Q12.6562 5.33203 12.6562 5.67383L12.6562 10.625Q12.6562 10.9082 12.5 11.0791Q12.3438 11.25 12.0898 11.25Z"
                     fill="#ffffff" />
       </g>
</svg>