<svg width="19.5898" height="19.5996">
       <g>
              <rect height="19.5996" opacity="0" width="19.5898" x="0" y="0" />
              <path d="M9.79492 19.5898Q11.8066 19.5898 13.5791 18.8232Q15.3516 18.0566 16.7041 16.7041Q18.0566 15.3516 18.8232 13.5791Q19.5898 11.8066 19.5898 9.79492Q19.5898 7.7832 18.8232 6.01074Q18.0566 4.23828 16.7041 2.88574Q15.3516 1.5332 13.5742 0.766602Q11.7969 0 9.78516 0Q7.77344 0 6.00098 0.766602Q4.22852 1.5332 2.88086 2.88574Q1.5332 4.23828 0.766602 6.01074Q0 7.7832 0 9.79492Q0 11.8066 0.766602 13.5791Q1.5332 15.3516 2.88574 16.7041Q4.23828 18.0566 6.01074 18.8232Q7.7832 19.5898 9.79492 19.5898Z"
                     fill="rgba(255,255,255,0.55)" />
              <path d="M9.79492 14.6094Q9.48242 14.6094 9.31152 14.4336Q9.14062 14.2578 9.14062 13.9453L9.19922 10.7812L6.39648 12.5781Q6.20117 12.6953 5.9668 12.6953Q5.73242 12.6953 5.54199 12.5244Q5.35156 12.3535 5.35156 12.0508Q5.35156 11.6895 5.73242 11.4844L8.63281 9.80469L5.73242 8.1543Q5.53711 8.04688 5.44434 7.91016Q5.35156 7.77344 5.35156 7.57812Q5.35156 7.27539 5.54688 7.09961Q5.74219 6.92383 5.97656 6.92383Q6.21094 6.92383 6.39648 7.04102L9.19922 8.80859L9.14062 5.60547Q9.14062 5.29297 9.31152 5.10742Q9.48242 4.92188 9.79492 4.92188Q10.0977 4.92188 10.2588 5.10254Q10.4199 5.2832 10.4199 5.60547L10.3613 8.80859L13.1836 7.01172Q13.3691 6.89453 13.6035 6.89453Q13.8574 6.89453 14.043 7.07031Q14.2285 7.24609 14.2285 7.54883Q14.2285 7.73438 14.1406 7.87598Q14.0527 8.01758 13.8477 8.13477L10.918 9.80469L13.8477 11.5039Q14.043 11.6016 14.1357 11.7383Q14.2285 11.875 14.2285 12.0703Q14.2285 12.373 14.0332 12.5488Q13.8379 12.7246 13.6035 12.7246Q13.3789 12.7246 13.1836 12.5977L10.3613 10.7812L10.4199 13.9453Q10.4297 14.2578 10.2686 14.4336Q10.1074 14.6094 9.79492 14.6094Z"
                     fill="#ffffff" />
       </g>
</svg>