<svg width="19.5898" height="19.5996">
       <g>
              <rect height="19.5996" opacity="0" width="19.5898" x="0" y="0" />
              <path d="M9.79492 19.5898Q11.8066 19.5898 13.5791 18.8232Q15.3516 18.0566 16.7041 16.7041Q18.0566 15.3516 18.8232 13.5791Q19.5898 11.8066 19.5898 9.79492Q19.5898 7.7832 18.8232 6.01074Q18.0566 4.23828 16.7041 2.88574Q15.3516 1.5332 13.5742 0.766602Q11.7969 0 9.78516 0Q7.77344 0 6.00098 0.766602Q4.22852 1.5332 2.88086 2.88574Q1.5332 4.23828 0.766602 6.01074Q0 7.7832 0 9.79492Q0 11.8066 0.766602 13.5791Q1.5332 15.3516 2.88574 16.7041Q4.23828 18.0566 6.01074 18.8232Q7.7832 19.5898 9.79492 19.5898ZM9.79492 18.3203Q8.02734 18.3203 6.47949 17.6611Q4.93164 17.002 3.75977 15.8301Q2.58789 14.6582 1.92871 13.1104Q1.26953 11.5625 1.26953 9.79492Q1.26953 8.02734 1.92871 6.47949Q2.58789 4.93164 3.75977 3.75488Q4.93164 2.57812 6.47461 1.91895Q8.01758 1.25977 9.78516 1.25977Q11.5625 1.25977 13.1104 1.91895Q14.6582 2.57812 15.8301 3.75488Q17.002 4.93164 17.666 6.47949Q18.3301 8.02734 18.3301 9.79492Q18.3301 11.5625 17.666 13.1104Q17.002 14.6582 15.8301 15.8301Q14.6582 17.002 13.1152 17.6611Q11.5723 18.3203 9.79492 18.3203Z"
                     fill="#0a84ff" />
              <path d="M9.87305 15.6543Q10.6055 15.6543 11.2012 15.5859Q11.7969 15.5176 12.1875 15.3809Q12.6758 15.2246 12.6758 14.834Q12.6758 14.6387 12.5439 14.5117Q12.4121 14.3848 12.2168 14.3848Q12.1484 14.3848 12.0703 14.4043Q11.9922 14.4238 11.9043 14.4336Q11.4746 14.5312 11.0156 14.5947Q10.5566 14.6582 9.99023 14.6582Q8.50586 14.6582 7.40723 14.0576Q6.30859 13.457 5.70312 12.3633Q5.09766 11.2695 5.09766 9.78516Q5.09766 8.33984 5.70801 7.23145Q6.31836 6.12305 7.39258 5.49316Q8.4668 4.86328 9.87305 4.86328Q11.2598 4.86328 12.3047 5.41992Q13.3496 5.97656 13.9404 6.96289Q14.5312 7.94922 14.5312 9.25781Q14.5312 10.5176 14.1504 11.2402Q13.7695 11.9629 13.1348 11.9629Q12.7051 11.9629 12.4756 11.6943Q12.2461 11.4258 12.2461 10.9473L12.2461 7.28516Q12.2461 7.04102 12.1045 6.89453Q11.9629 6.74805 11.7285 6.74805Q11.5137 6.74805 11.377 6.88965Q11.2402 7.03125 11.2402 7.1875L11.2402 7.58789Q10.9668 7.20703 10.5176 6.97754Q10.0684 6.74805 9.55078 6.74805Q8.44727 6.74805 7.73438 7.60742Q7.02148 8.4668 7.02148 9.81445Q7.02148 11.1719 7.72949 12.0312Q8.4375 12.8906 9.57031 12.8906Q10.791 12.8906 11.3867 11.8457Q11.5723 12.334 12.0068 12.6172Q12.4414 12.9004 13.0469 12.9004Q14.1895 12.9004 14.8633 11.8994Q15.5371 10.8984 15.5371 9.22852Q15.5371 7.64648 14.8193 6.44043Q14.1016 5.23438 12.8271 4.55566Q11.5527 3.87695 9.88281 3.87695Q8.16406 3.87695 6.85059 4.62891Q5.53711 5.38086 4.79004 6.70898Q4.04297 8.03711 4.04297 9.76562Q4.04297 11.5234 4.78027 12.8467Q5.51758 14.1699 6.83105 14.9121Q8.14453 15.6543 9.87305 15.6543ZM9.7168 11.875Q9.01367 11.875 8.5791 11.3086Q8.14453 10.7422 8.14453 9.79492Q8.14453 8.85742 8.58887 8.28613Q9.0332 7.71484 9.72656 7.71484Q10.4395 7.71484 10.8594 8.25684Q11.2793 8.79883 11.2793 9.74609Q11.2793 10.7324 10.8545 11.3037Q10.4297 11.875 9.7168 11.875Z"
                     fill="#0a84ff" />
       </g>
</svg>