<svg width="19.5898" height="19.5996">
       <g>
              <rect height="19.5996" opacity="0" width="19.5898" x="0" y="0" />
              <path d="M9.79492 19.5898Q11.8066 19.5898 13.5791 18.8232Q15.3516 18.0566 16.7041 16.7041Q18.0566 15.3516 18.8232 13.5791Q19.5898 11.8066 19.5898 9.79492Q19.5898 7.7832 18.8232 6.01074Q18.0566 4.23828 16.7041 2.88574Q15.3516 1.5332 13.5742 0.766602Q11.7969 0 9.78516 0Q7.77344 0 6.00098 0.766602Q4.22852 1.5332 2.88086 2.88574Q1.5332 4.23828 0.766602 6.01074Q0 7.7832 0 9.79492Q0 11.8066 0.766602 13.5791Q1.5332 15.3516 2.88574 16.7041Q4.23828 18.0566 6.01074 18.8232Q7.7832 19.5898 9.79492 19.5898Z"
                     fill="#0a84ff" />
              <path d="M9.89258 15.7715Q8.11523 15.7715 6.77246 15.0146Q5.42969 14.2578 4.68262 12.9053Q3.93555 11.5527 3.93555 9.76562Q3.93555 8.00781 4.69238 6.65039Q5.44922 5.29297 6.79199 4.52637Q8.13477 3.75977 9.89258 3.75977Q11.5918 3.75977 12.8906 4.45312Q14.1895 5.14648 14.9219 6.37695Q15.6543 7.60742 15.6543 9.21875Q15.6543 10.918 14.9707 11.9434Q14.2871 12.9688 13.125 12.9688Q12.5 12.9688 12.0557 12.6758Q11.6113 12.3828 11.416 11.8848Q10.8203 12.959 9.57031 12.959Q8.41797 12.959 7.69531 12.085Q6.97266 11.2109 6.97266 9.81445Q6.97266 8.4375 7.69531 7.55859Q8.41797 6.67969 9.55078 6.67969Q10.0879 6.67969 10.542 6.91406Q10.9961 7.14844 11.2793 7.53906L11.2793 7.13867Q11.2793 6.97266 11.4209 6.82617Q11.5625 6.67969 11.7773 6.67969Q12.0117 6.67969 12.1582 6.83594Q12.3047 6.99219 12.3047 7.23633L12.3047 10.9668Q12.3047 11.4648 12.5391 11.7285Q12.7734 11.9922 13.2129 11.9922Q13.8574 11.9922 14.2432 11.2598Q14.6289 10.5273 14.6289 9.24805Q14.6289 7.91016 14.0283 6.9043Q13.4277 5.89844 12.3584 5.33691Q11.2891 4.77539 9.88281 4.77539Q8.44727 4.77539 7.35352 5.41504Q6.25977 6.05469 5.63965 7.18262Q5.01953 8.31055 5.01953 9.78516Q5.01953 11.2891 5.63477 12.4072Q6.25 13.5254 7.36816 14.1357Q8.48633 14.7461 10 14.7461Q10.5859 14.7461 11.0498 14.6777Q11.5137 14.6094 11.9629 14.5215Q12.0508 14.502 12.1289 14.4873Q12.207 14.4727 12.2754 14.4727Q12.4805 14.4727 12.6123 14.5996Q12.7441 14.7266 12.7441 14.9316Q12.7441 15.332 12.2461 15.498Q11.8457 15.6348 11.2354 15.7031Q10.625 15.7715 9.89258 15.7715ZM9.72656 11.9043Q10.4492 11.9043 10.8838 11.3232Q11.3184 10.7422 11.3184 9.74609Q11.3184 8.78906 10.8887 8.2373Q10.459 7.68555 9.73633 7.68555Q9.02344 7.68555 8.5791 8.2666Q8.13477 8.84766 8.13477 9.79492Q8.13477 10.7617 8.56934 11.333Q9.00391 11.9043 9.72656 11.9043Z"
                     fill="#ffffff" />
       </g>
</svg>