<svg width="20.2084" height="21.4526">
       <g>
              <rect height="21.4526" opacity="0" width="20.2084" x="0" y="0" />
              <path d="M0 11.0745Q0 13.4503 0.755997 15.3644Q1.51199 17.2784 2.89337 18.6394Q4.27475 20.0003 6.15227 20.7265Q8.02979 21.4526 10.2698 21.4526Q11.5323 21.4526 12.6097 21.3179Q13.6871 21.1832 14.3546 20.9669Q14.7322 20.8501 14.8803 20.6646Q15.0284 20.4791 15.0284 20.2632Q15.0284 20.054 14.8852 19.9109Q14.742 19.7678 14.523 19.7678Q14.4261 19.7678 14.3077 19.793Q14.1893 19.8183 14.0399 19.8512Q13.2353 20.0359 12.381 20.1543Q11.5266 20.2728 10.4764 20.2728Q8.43201 20.2728 6.74377 19.6385Q5.05554 19.0042 3.83385 17.8082Q2.61215 16.6121 1.94611 14.9198Q1.28006 13.2275 1.28006 11.115Q1.28006 9.08707 1.93161 7.39952Q2.58316 5.71198 3.77838 4.47479Q4.9736 3.23761 6.61774 2.5576Q8.26187 1.87759 10.2567 1.87759Q12.0966 1.87759 13.6862 2.44209Q15.2759 3.00659 16.4747 4.07906Q17.6735 5.15152 18.3433 6.68182Q19.0131 8.21213 19.0131 10.1405Q19.0131 11.7332 18.6729 12.9056Q18.3328 14.0779 17.6984 14.7211Q17.0641 15.3642 16.1876 15.3642Q15.2718 15.3642 14.7597 14.7958Q14.2476 14.2273 14.2476 13.2237L14.2476 6.57227Q14.2476 6.27258 14.0861 6.09604Q13.9246 5.91949 13.6412 5.91949Q13.3578 5.91949 13.1948 6.09604Q13.0318 6.27258 13.0318 6.57227L13.0318 8.07922L12.9591 8.07922Q12.5934 7.08984 11.7071 6.50467Q10.8208 5.91949 9.67621 5.91949Q8.41644 5.91949 7.44934 6.58539Q6.48224 7.25128 5.93651 8.43781Q5.39078 9.62433 5.39078 11.1734Q5.39078 12.7298 5.93651 13.9155Q6.48224 15.1012 7.45277 15.7674Q8.42331 16.4337 9.70322 16.4337Q10.8815 16.4337 11.7368 15.8175Q12.5922 15.2013 13.037 14.0663L13.1097 14.0663Q13.2646 15.1764 14.0544 15.8145Q14.8442 16.4526 16.0185 16.4526Q17.3251 16.4526 18.26 15.6577Q19.1948 14.8627 19.7016 13.4337Q20.2084 12.0047 20.2084 10.0995Q20.2084 7.98935 19.4757 6.26122Q18.743 4.53308 17.413 3.28865Q16.0831 2.04422 14.2667 1.37444Q12.4503 0.704651 10.2731 0.704651Q8.01895 0.704651 6.13838 1.45287Q4.25781 2.20108 2.88239 3.57803Q1.50696 4.95499 0.753479 6.86066Q0 8.76633 0 11.0745ZM9.8761 15.2541Q8.92456 15.2541 8.21678 14.7433Q7.509 14.2325 7.11502 13.3151Q6.72104 12.3978 6.72104 11.1667Q6.72104 9.95514 7.12143 9.03206Q7.52182 8.10898 8.23105 7.59399Q8.94028 7.07901 9.88281 7.07901Q11.3304 7.07901 12.1759 8.15834Q13.0214 9.23767 13.0214 11.0822Q13.0214 12.3434 12.6295 13.2797Q12.2375 14.216 11.5314 14.735Q10.8253 15.2541 9.8761 15.2541Z"
                     fill="#0a84ff" />
       </g>
</svg>