<svg width="19.5898" height="19.5996">
       <g>
              <rect height="19.5996" opacity="0" width="19.5898" x="0" y="0" />
              <path d="M9.79492 19.5898Q11.8066 19.5898 13.5791 18.8232Q15.3516 18.0566 16.7041 16.7041Q18.0566 15.3516 18.8232 13.5791Q19.5898 11.8066 19.5898 9.79492Q19.5898 7.7832 18.8232 6.01074Q18.0566 4.23828 16.7041 2.88574Q15.3516 1.5332 13.5742 0.766602Q11.7969 0 9.78516 0Q7.77344 0 6.00098 0.766602Q4.22852 1.5332 2.88086 2.88574Q1.5332 4.23828 0.766602 6.01074Q0 7.7832 0 9.79492Q0 11.8066 0.766602 13.5791Q1.5332 15.3516 2.88574 16.7041Q4.23828 18.0566 6.01074 18.8232Q7.7832 19.5898 9.79492 19.5898Z"
                     fill="rgba(255,255,255,0.55)" />
              <path d="M7.32422 14.2578Q7.00195 14.2578 6.82129 14.0771Q6.64062 13.8965 6.64062 13.5645L6.64062 5.9082Q6.64062 5.21484 7.32422 5.21484L10.2344 5.21484Q11.4648 5.21484 12.2217 5.83008Q12.9785 6.44531 12.9785 7.44141Q12.9785 8.19336 12.5537 8.74023Q12.1289 9.28711 11.4258 9.46289L11.4258 9.51172Q12.3926 9.63867 12.9541 10.2344Q13.5156 10.8301 13.5156 11.7383Q13.5156 12.9004 12.627 13.5791Q11.7383 14.2578 10.2441 14.2578ZM7.85156 9.16016L9.6582 9.16016Q10.6445 9.16016 11.2061 8.75Q11.7676 8.33984 11.7676 7.64648Q11.7676 6.95312 11.2988 6.5625Q10.8301 6.17188 9.99023 6.17188L7.85156 6.17188ZM7.85156 13.3008L9.73633 13.3008Q11.0156 13.3008 11.6357 12.9053Q12.2559 12.5098 12.2559 11.6992Q12.2559 10.9277 11.7188 10.4932Q11.1816 10.0586 10.2246 10.0586L7.85156 10.0586Z"
                     fill="#ffffff" />
       </g>
</svg>