<svg width="17.6855" height="17.7051">
       <g>
              <rect height="17.7051" opacity="0" width="17.6855" x="0" y="0" />
              <path d="M2.88086 17.7051L14.8047 17.7051Q16.2305 17.7051 16.958 16.9873Q17.6855 16.2695 17.6855 14.8535L17.6855 2.88086Q17.6855 1.46484 16.958 0.742188Q16.2305 0.0195312 14.8047 0.0195312L2.88086 0.0195312Q1.44531 0.0195312 0.722656 0.737305Q0 1.45508 0 2.88086L0 14.8535Q0 16.2695 0.722656 16.9873Q1.44531 17.7051 2.88086 17.7051Z"
                     fill="rgba(255,255,255,0.55)" />
              <path d="M6.37695 13.3105Q6.05469 13.3105 5.87402 13.1299Q5.69336 12.9492 5.69336 12.6172L5.69336 4.96094Q5.69336 4.26758 6.37695 4.26758L9.28711 4.26758Q10.5176 4.26758 11.2744 4.88281Q12.0312 5.49805 12.0312 6.49414Q12.0312 7.24609 11.6064 7.79297Q11.1816 8.33984 10.4785 8.51562L10.4785 8.56445Q11.4453 8.69141 12.0068 9.28711Q12.5684 9.88281 12.5684 10.791Q12.5684 11.9531 11.6797 12.6318Q10.791 13.3105 9.29688 13.3105ZM6.9043 8.21289L8.71094 8.21289Q9.69727 8.21289 10.2588 7.80273Q10.8203 7.39258 10.8203 6.69922Q10.8203 6.00586 10.3516 5.61523Q9.88281 5.22461 9.04297 5.22461L6.9043 5.22461ZM6.9043 12.3535L8.78906 12.3535Q10.0684 12.3535 10.6885 11.958Q11.3086 11.5625 11.3086 10.752Q11.3086 9.98047 10.7715 9.5459Q10.2344 9.11133 9.27734 9.11133L6.9043 9.11133Z"
                     fill="#ffffff" />
       </g>
</svg>