<svg width="19.5898" height="19.5996">
       <g>
              <rect height="19.5996" opacity="0" width="19.5898" x="0" y="0" />
              <path d="M9.79492 19.5898Q11.8066 19.5898 13.5791 18.8232Q15.3516 18.0566 16.7041 16.7041Q18.0566 15.3516 18.8232 13.5791Q19.5898 11.8066 19.5898 9.79492Q19.5898 7.7832 18.8232 6.01074Q18.0566 4.23828 16.7041 2.88574Q15.3516 1.5332 13.5742 0.766602Q11.7969 0 9.78516 0Q7.77344 0 6.00098 0.766602Q4.22852 1.5332 2.88086 2.88574Q1.5332 4.23828 0.766602 6.01074Q0 7.7832 0 9.79492Q0 11.8066 0.766602 13.5791Q1.5332 15.3516 2.88574 16.7041Q4.23828 18.0566 6.01074 18.8232Q7.7832 19.5898 9.79492 19.5898Z"
                     fill="rgba(255,255,255,0.55)" />
              <path d="M2.63672 9.81445Q2.63672 9.62891 2.73926 9.47754Q2.8418 9.32617 3.04688 9.20898L7.98828 6.29883Q8.23242 6.15234 8.47656 6.15234Q8.73047 6.15234 8.91113 6.32812Q9.0918 6.50391 9.0918 6.875L9.0918 9.56055Q9.13086 9.45312 9.21875 9.37012Q9.30664 9.28711 9.42383 9.20898L14.375 6.29883Q14.6191 6.15234 14.873 6.15234Q15.1074 6.15234 15.293 6.32812Q15.4785 6.50391 15.4785 6.875L15.4785 12.7539Q15.4785 13.1152 15.293 13.2959Q15.1074 13.4766 14.873 13.4766Q14.6191 13.4766 14.375 13.3301L9.42383 10.4199Q9.17969 10.2734 9.0918 10.0684L9.0918 12.7539Q9.0918 13.1152 8.91113 13.2959Q8.73047 13.4766 8.47656 13.4766Q8.23242 13.4766 7.98828 13.3301L3.04688 10.4199Q2.8418 10.293 2.73926 10.1416Q2.63672 9.99023 2.63672 9.81445Z"
                     fill="#ffffff" />
       </g>
</svg>