<svg width="19.5898" height="19.5996">
       <g>
              <rect height="19.5996" opacity="0" width="19.5898" x="0" y="0" />
              <path d="M9.79492 19.5898Q11.8066 19.5898 13.5791 18.8232Q15.3516 18.0566 16.7041 16.7041Q18.0566 15.3516 18.8232 13.5791Q19.5898 11.8066 19.5898 9.79492Q19.5898 7.7832 18.8232 6.01074Q18.0566 4.23828 16.7041 2.88574Q15.3516 1.5332 13.5742 0.766602Q11.7969 0 9.78516 0Q7.77344 0 6.00098 0.766602Q4.22852 1.5332 2.88086 2.88574Q1.5332 4.23828 0.766602 6.01074Q0 7.7832 0 9.79492Q0 11.8066 0.766602 13.5791Q1.5332 15.3516 2.88574 16.7041Q4.23828 18.0566 6.01074 18.8232Q7.7832 19.5898 9.79492 19.5898Z"
                     fill="rgba(255,255,255,0.55)" />
              <path d="M5.50781 13.0566L5.50781 6.5332Q5.50781 5.9668 6.07422 5.9668L7.14844 5.9668Q7.70508 5.9668 7.70508 6.5332L7.70508 9.53125Q7.8125 9.33594 8.03711 9.20898L12.9785 6.29883Q13.0957 6.23047 13.2227 6.18652Q13.3496 6.14258 13.4668 6.14258Q13.7207 6.14258 13.9014 6.32324Q14.082 6.50391 14.082 6.86523L14.082 12.7637Q14.082 13.125 13.9014 13.3057Q13.7207 13.4863 13.4668 13.4863Q13.3496 13.4863 13.2227 13.4424Q13.0957 13.3984 12.9785 13.3301L8.03711 10.4199Q7.8125 10.293 7.70508 10.0977L7.70508 13.0566Q7.70508 13.623 7.14844 13.623L6.07422 13.623Q5.50781 13.623 5.50781 13.0566Z"
                     fill="#ffffff" />
       </g>
</svg>