<svg width="19.5898" height="19.5996">
       <g>
              <rect height="19.5996" opacity="0" width="19.5898" x="0" y="0" />
              <path d="M9.79492 19.5996Q11.8066 19.5996 13.5791 18.833Q15.3516 18.0664 16.7041 16.7139Q18.0566 15.3613 18.8232 13.5889Q19.5898 11.8164 19.5898 9.80469Q19.5898 7.79297 18.8232 6.02051Q18.0566 4.24805 16.7041 2.89551Q15.3516 1.54297 13.5742 0.776367Q11.7969 0.00976562 9.78516 0.00976562Q7.77344 0.00976562 6.00098 0.776367Q4.22852 1.54297 2.88086 2.89551Q1.5332 4.24805 0.766602 6.02051Q0 7.79297 0 9.80469Q0 11.8164 0.766602 13.5889Q1.5332 15.3613 2.88574 16.7139Q4.23828 18.0664 6.01074 18.833Q7.7832 19.5996 9.79492 19.5996Z"
                     fill="rgba(255,255,255,0.55)" />
              <path d="M6.77734 14.6289Q6.00586 14.6289 5.61035 14.2432Q5.21484 13.8574 5.21484 13.0957L5.21484 7.58789Q5.21484 6.82617 5.61035 6.44531Q6.00586 6.06445 6.77734 6.06445L7.71484 6.06445Q7.73438 5.2832 8.31543 4.69727Q8.89648 4.11133 9.79492 4.11133Q10.6934 4.11133 11.2793 4.69727Q11.8652 5.2832 11.875 6.06445L12.8125 6.06445Q13.584 6.06445 13.9795 6.44531Q14.375 6.82617 14.375 7.58789L14.375 13.0957Q14.375 13.8477 13.9941 14.2383Q13.6133 14.6289 12.9199 14.6289ZM8.50586 6.06445L11.084 6.06445Q11.0645 5.50781 10.7227 5.18555Q10.3809 4.86328 9.79492 4.86328Q9.20898 4.86328 8.86719 5.18555Q8.52539 5.50781 8.50586 6.06445Z"
                     fill="#ffffff" />
       </g>
</svg>