<svg width="18.0836" height="25.6677">
       <g>
              <rect height="25.6677" opacity="0" width="18.0836" x="0" y="0" />
              <path d="M9.50562 12.6067L8.46664 12.0728Q8.00842 13.4871 7.09114 14.378Q6.17386 15.2689 4.98383 15.2689Q3.88901 15.2689 3.01941 14.5161Q2.14981 13.7633 1.64909 12.5008Q1.14838 11.2384 1.14838 9.71497Q1.14838 8.59619 1.63109 7.67776Q2.1138 6.75934 2.98004 6.21315Q3.84628 5.66696 4.98383 5.66696Q5.3804 5.66696 5.73616 5.7402Q6.09192 5.81345 6.43005 5.93674L6.54938 4.75906Q6.19476 4.6553 5.80078 4.59183Q5.4068 4.52835 4.98383 4.52835Q3.50433 4.52835 2.38327 5.21019Q1.26221 5.89203 0.631104 7.06528Q0 8.23853 0 9.71497Q0 11.1118 0.379181 12.3299Q0.758362 13.548 1.43494 14.4678Q2.11151 15.3877 3.01674 15.9025Q3.92197 16.4172 4.98383 16.4172Q6.00052 16.424 6.88354 15.9412Q7.76657 15.4584 8.44009 14.5998Q9.11362 13.7411 9.50562 12.6067ZM3.74207 15.8963L3.37112 17.3224Q3.30521 17.5436 3.42407 17.7262Q3.54294 17.9088 3.8121 17.9088L5.90179 17.9088Q6.18073 17.9088 6.29135 17.7262Q6.40198 17.5436 6.34262 17.3224L5.96512 15.8963ZM4.70367 25.6677Q4.90982 25.6677 5.05905 25.5219Q5.20828 25.376 5.20828 25.1765Q5.20828 24.4673 5.44518 23.9966Q5.68207 23.5258 5.9922 23.1374Q6.30234 22.749 6.53923 22.3085Q6.77612 21.868 6.77612 21.2231Q6.77612 20.5263 6.5596 20.0832Q6.34308 19.64 6.06087 19.2861Q5.77866 18.9322 5.56358 18.5148Q5.34851 18.0974 5.35828 17.462L4.37607 17.462Q4.36935 18.1348 4.51385 18.5839Q4.65836 19.0331 4.87 19.3477Q5.08163 19.6623 5.29671 19.929Q5.51178 20.1958 5.6562 20.4956Q5.80063 20.7954 5.80063 21.2231Q5.80063 21.7235 5.56374 22.056Q5.32684 22.3886 5.01335 22.7477Q4.69986 23.1068 4.46289 23.6678Q4.22592 24.2288 4.22592 25.1765Q4.22592 25.376 4.36508 25.5219Q4.50424 25.6677 4.70367 25.6677Z"
                     fill="rgba(255,255,255,0.55)" />
              <path d="M12.0529 14.3465Q13.3235 14.3465 14.4196 13.7225Q15.5156 13.0984 16.3405 11.9848Q17.1654 10.8711 17.6245 9.39056Q18.0836 7.91 18.0836 6.19995Q18.0836 4.86465 17.6489 3.73444Q17.2142 2.60422 16.4103 1.76773Q15.6064 0.931244 14.5007 0.467148Q13.3949 0.00305176 12.0529 0.00305176Q10.714 0.00305176 9.60823 0.467148Q8.5025 0.931244 7.70538 1.76773Q6.90826 2.60422 6.47346 3.73444Q6.03867 4.86465 6.03867 6.19995Q6.03867 7.91 6.49933 9.39056Q6.95999 10.8711 7.78008 11.9848Q8.60016 13.0984 9.69124 13.7225Q10.7823 14.3465 12.0529 14.3465ZM12.0529 13.2146Q11.0124 13.2146 10.1278 12.6598Q9.24316 12.1051 8.57948 11.1353Q7.9158 10.1654 7.54807 8.8974Q7.18033 7.62939 7.18033 6.19995Q7.18033 4.79126 7.80159 3.64449Q8.42285 2.49771 9.52385 1.82274Q10.6248 1.14777 12.0529 1.14777Q13.481 1.14777 14.5869 1.82274Q15.6927 2.49771 16.319 3.64449Q16.9452 4.79126 16.9452 6.19995Q16.9452 7.62939 16.5726 8.8974Q16.2 10.1654 15.5362 11.1353Q14.8724 12.1051 13.9796 12.6598Q13.0867 13.2146 12.0529 13.2146ZM10.8644 13.8361L10.4599 15.3668Q10.3871 15.6084 10.518 15.8096Q10.6488 16.0109 10.9383 16.0109L13.1834 16.0109Q13.4729 16.0109 13.6037 15.8096Q13.7346 15.6084 13.6649 15.3668L13.2536 13.8361ZM11.8358 25.5582Q12.0586 25.5582 12.2216 25.3936Q12.3846 25.229 12.3846 25.0064Q12.3846 24.1875 12.6806 23.6157Q12.9765 23.044 13.3604 22.5578Q13.7444 22.0717 14.0437 21.5163Q14.3431 20.9608 14.3431 20.1746Q14.3431 19.5468 14.1618 19.0725Q13.9804 18.5982 13.7123 18.2048Q13.4442 17.8114 13.178 17.4268Q12.9118 17.0421 12.7354 16.5987Q12.5589 16.1554 12.5656 15.5695L11.4786 15.5762Q11.4786 16.337 11.6566 16.8739Q11.8346 17.4109 12.0993 17.8135Q12.364 18.2161 12.6336 18.567Q12.9031 18.9178 13.083 19.297Q13.2628 19.6762 13.2628 20.1746Q13.2628 20.6856 13.0626 21.058Q12.8624 21.4305 12.5728 21.778Q12.2832 22.1254 11.9887 22.5457Q11.6942 22.966 11.4974 23.5551Q11.3007 24.1443 11.3007 25.0064Q11.3007 25.229 11.4584 25.3936Q11.6162 25.5582 11.8358 25.5582Z"
                     fill="rgba(255,255,255,0.55)" />
       </g>
</svg>