<svg width="26.9296" height="14.0264">
       <g>
              <rect height="14.0264" opacity="0" width="26.9296" x="0" y="0" />
              <path d="M15.9748 10.6569L20.4213 13.7495Q20.783 13.9995 21.2274 13.9968Q21.6717 13.9941 22.0382 13.7388L26.4752 10.6569Q26.777 10.4437 26.8787 10.1773Q26.9804 9.91086 26.8787 9.64109Q26.777 9.37131 26.4752 9.15815L22.0382 6.07617Q21.6717 5.82395 21.2341 5.81304Q20.7965 5.80213 20.4519 6.03849L15.9748 9.15815Q15.6634 9.37131 15.5617 9.64109Q15.46 9.91086 15.5617 10.1773Q15.6634 10.4437 15.9748 10.6569Z"
                     fill="rgba(255,255,255,0.55)" />
              <path d="M8.20812 4.84571L12.698 7.95865Q13.0395 8.20478 13.4855 8.18715Q13.9314 8.16953 14.315 7.90067L18.7213 4.84571Q19.0231 4.63254 19.1248 4.36612Q19.2265 4.0997 19.1248 3.82993Q19.0231 3.56015 18.7213 3.35004L14.2843 0.268069Q13.9178 0.00973811 13.4787 0.000353956Q13.0395-0.0090302 12.698 0.23038L8.20812 3.35004Q7.90646 3.56015 7.80476 3.82993Q7.70306 4.0997 7.80476 4.36612Q7.90646 4.63254 8.20812 4.84571Z"
                     fill="rgba(255,255,255,0.55)" />
              <path d="M0.461082 10.6569L4.93801 13.7698Q5.28255 14.0129 5.72849 13.9967Q6.17443 13.9805 6.5678 13.7185L10.9613 10.6569Q11.2661 10.4437 11.3678 10.1773Q11.4695 9.91086 11.3678 9.64109Q11.2661 9.37131 10.9613 9.15815L6.53408 6.07617Q6.1639 5.82395 5.72323 5.81304Q5.28255 5.80213 4.93801 6.03849L0.461082 9.15815Q0.15255 9.37131 0.0508499 9.64109Q-0.0508499 9.91086 0.0508499 10.1773Q0.15255 10.4437 0.461082 10.6569Z"
                     fill="rgba(255,255,255,0.55)" />
       </g>
</svg>