<svg width="28.0469" height="13.3986">
       <g>
              <rect height="13.3986" opacity="0" width="28.0469" x="0" y="0" />
              <path d="M5.01953 13.0421L9.49219 13.0421Q9.44336 12.8468 9.44824 12.6661Q9.45312 12.4855 9.50195 12.2853Q9.55078 12.0851 9.63867 11.8312L4.76562 11.8312Q3.89648 11.8312 3.15918 11.6651Q2.42188 11.4991 1.97266 11.0597Q1.52344 10.6007 1.36719 9.87315Q1.21094 9.14561 1.21094 8.27647L1.21094 5.19053Q1.21094 4.28233 1.36719 3.54014Q1.52344 2.79796 1.97266 2.34874Q2.41211 1.89952 3.16895 1.73839Q3.92578 1.57725 4.82422 1.57725L11.6602 1.57725L12.627 0.37608L4.96094 0.37608Q3.69141 0.37608 2.73438 0.586041Q1.77734 0.796002 1.09375 1.4796Q0.419922 2.15342 0.209961 3.10557Q0 4.05772 0 5.32725L0 8.02256Q0 9.35069 0.205078 10.3126Q0.410156 11.2745 1.08398 11.9386Q1.77734 12.6222 2.73438 12.8321Q3.69141 13.0421 5.01953 13.0421ZM12.8125 13.0421L20.1855 13.0421Q21.5137 13.0421 22.4756 12.8321Q23.4375 12.6222 24.1211 11.9386Q24.7949 11.2648 25.0049 10.3077Q25.2148 9.35069 25.2148 8.02256L25.2148 5.39561Q25.2148 4.05772 25.0049 3.10069Q24.7949 2.14366 24.1211 1.46983Q23.4375 0.786237 22.4756 0.581159Q21.5137 0.37608 20.1855 0.37608L15.9375 0.37608Q15.9863 0.551862 15.9814 0.732526Q15.9766 0.91319 15.9326 1.11827Q15.8887 1.32335 15.8008 1.57725L20.4492 1.57725Q21.3086 1.57725 22.0459 1.74327Q22.7832 1.90928 23.2324 2.3585Q23.6816 2.80772 23.8428 3.53526Q24.0039 4.2628 24.0039 5.12217L24.0039 8.27647Q24.0039 9.14561 23.8428 9.87315Q23.6816 10.6007 23.2324 11.0597Q22.7832 11.5089 22.0459 11.67Q21.3086 11.8312 20.4492 11.8312L13.7793 11.8312ZM26.3477 9.08702Q26.709 9.05772 27.1045 8.75987Q27.5 8.46202 27.7734 7.93467Q28.0469 7.40733 28.0469 6.70421Q28.0469 6.00108 27.7734 5.47374Q27.5 4.94639 27.1045 4.64366Q26.709 4.34092 26.3477 4.32139Z"
                     fill="rgba(255,255,255,0.55)" />
              <path d="M4.42383 10.8351L10.0195 10.8351L10.7031 8.98936L8.92578 8.98936Q8.30078 8.98936 7.85645 8.55479Q7.41211 8.12022 7.41211 7.48546Q7.41211 6.92881 7.79297 6.44053L10.8594 2.58311L4.48242 2.58311Q3.7793 2.58311 3.35449 2.69053Q2.92969 2.79796 2.68555 3.0421Q2.44141 3.296 2.3291 3.72081Q2.2168 4.14561 2.2168 4.83897L2.2168 8.62803Q2.2168 9.2921 2.3291 9.70225Q2.44141 10.1124 2.68555 10.3663Q2.92969 10.6105 3.34961 10.7228Q3.76953 10.8351 4.42383 10.8351ZM14.5703 10.8351L20.791 10.8351Q21.4551 10.8351 21.8652 10.7228Q22.2754 10.6105 22.5293 10.3663Q22.998 9.8878 22.998 8.62803L22.998 4.78038Q22.998 4.11631 22.8857 3.70616Q22.7734 3.296 22.5293 3.05186Q22.2754 2.80772 21.8652 2.69542Q21.4551 2.58311 20.791 2.58311L15.4199 2.58311L14.7363 4.42881L16.5039 4.42881Q17.1387 4.42881 17.583 4.8585Q18.0273 5.28819 18.0273 5.92296Q18.0273 6.4796 17.6367 6.96788Z"
                     fill="#32d74b" />
              <path d="M8.54492 7.48546Q8.54492 7.65147 8.65723 7.74913Q8.76953 7.84678 8.93555 7.84678L12.3438 7.84678L10.5078 12.7687Q10.4102 13.0519 10.5273 13.2228Q10.6445 13.3937 10.8594 13.3985Q11.0742 13.4034 11.2402 13.1788L16.748 6.27452Q16.8945 6.07921 16.8945 5.92296Q16.8945 5.75694 16.7822 5.65928Q16.6699 5.56163 16.5039 5.56163L13.0957 5.56163L14.9316 0.639752Q15.0391 0.366315 14.917 0.195416Q14.7949 0.024518 14.585 0.0196351Q14.375 0.0147523 14.1992 0.229596L8.69141 7.13389Q8.54492 7.33897 8.54492 7.48546Z"
                     fill="rgba(255,255,255,0.85)" />
       </g>
</svg>