<svg width="28.0469" height="12.6855">
       <g>
              <rect height="12.6855" opacity="0" width="28.0469" x="0" y="0" />
              <path d="M5.01953 12.6855L20.1855 12.6855Q21.5137 12.6855 22.4756 12.4756Q23.4375 12.2656 24.1211 11.582Q24.7949 10.9082 25.0049 9.95117Q25.2148 8.99414 25.2148 7.66602L25.2148 5.03906Q25.2148 3.70117 25.0049 2.74414Q24.7949 1.78711 24.1211 1.11328Q23.4375 0.429688 22.4756 0.224609Q21.5137 0.0195312 20.1855 0.0195312L4.96094 0.0195312Q3.69141 0.0195312 2.73438 0.229492Q1.77734 0.439453 1.09375 1.12305Q0.419922 1.79688 0.209961 2.74902Q0 3.70117 0 4.9707L0 7.66602Q0 8.99414 0.205078 9.95605Q0.410156 10.918 1.08398 11.582Q1.77734 12.2656 2.73438 12.4756Q3.69141 12.6855 5.01953 12.6855ZM4.76562 11.4746Q3.89648 11.4746 3.15918 11.3086Q2.42188 11.1426 1.97266 10.7031Q1.52344 10.2441 1.36719 9.5166Q1.21094 8.78906 1.21094 7.91992L1.21094 4.83398Q1.21094 3.92578 1.36719 3.18359Q1.52344 2.44141 1.97266 1.99219Q2.41211 1.54297 3.16895 1.38184Q3.92578 1.2207 4.82422 1.2207L20.4492 1.2207Q21.3086 1.2207 22.0459 1.38672Q22.7832 1.55273 23.2324 2.00195Q23.6816 2.45117 23.8428 3.17871Q24.0039 3.90625 24.0039 4.76562L24.0039 7.91992Q24.0039 8.78906 23.8428 9.5166Q23.6816 10.2441 23.2324 10.7031Q22.7832 11.1523 22.0459 11.3135Q21.3086 11.4746 20.4492 11.4746ZM26.3477 8.73047Q26.709 8.70117 27.1045 8.40332Q27.5 8.10547 27.7734 7.57812Q28.0469 7.05078 28.0469 6.34766Q28.0469 5.64453 27.7734 5.11719Q27.5 4.58984 27.1045 4.28711Q26.709 3.98438 26.3477 3.96484Z"
                     fill="rgba(255,255,255,0.55)" />
              <path d="M4.42383 10.4785L15.5957 10.4785Q16.2598 10.4785 16.6748 10.3662Q17.0898 10.2539 17.334 10.0098Q17.8027 9.53125 17.8027 8.27148L17.8027 4.42383Q17.8027 3.75977 17.6953 3.34961Q17.5879 2.93945 17.334 2.69531Q17.0898 2.45117 16.6699 2.33887Q16.25 2.22656 15.5957 2.22656L4.48242 2.22656Q3.76953 2.22656 3.34473 2.33398Q2.91992 2.44141 2.68555 2.68555Q2.43164 2.93945 2.32422 3.36426Q2.2168 3.78906 2.2168 4.48242L2.2168 8.27148Q2.2168 8.93555 2.32422 9.3457Q2.43164 9.75586 2.68555 10.0098Q2.92969 10.2539 3.34961 10.3662Q3.76953 10.4785 4.42383 10.4785Z"
                     fill="rgba(255,255,255,0.85)" />
       </g>
</svg>