<svg width="19.5898" height="19.5996">
       <g>
              <rect height="19.5996" opacity="0" width="19.5898" x="0" y="0" />
              <path d="M9.79492 19.5898Q11.8066 19.5898 13.5791 18.8232Q15.3516 18.0566 16.7041 16.7041Q18.0566 15.3516 18.8232 13.5791Q19.5898 11.8066 19.5898 9.79492Q19.5898 7.7832 18.8232 6.01074Q18.0566 4.23828 16.7041 2.88574Q15.3516 1.5332 13.5742 0.766602Q11.7969 0 9.78516 0Q7.77344 0 6.00098 0.766602Q4.22852 1.5332 2.88086 2.88574Q1.5332 4.23828 0.766602 6.01074Q0 7.7832 0 9.79492Q0 11.8066 0.766602 13.5791Q1.5332 15.3516 2.88574 16.7041Q4.23828 18.0566 6.01074 18.8232Q7.7832 19.5898 9.79492 19.5898ZM9.79492 18.3203Q8.02734 18.3203 6.47949 17.6611Q4.93164 17.002 3.75977 15.8301Q2.58789 14.6582 1.92871 13.1104Q1.26953 11.5625 1.26953 9.79492Q1.26953 8.02734 1.92871 6.47949Q2.58789 4.93164 3.75977 3.75488Q4.93164 2.57812 6.47461 1.91895Q8.01758 1.25977 9.78516 1.25977Q11.5625 1.25977 13.1104 1.91895Q14.6582 2.57812 15.8301 3.75488Q17.002 4.93164 17.666 6.47949Q18.3301 8.02734 18.3301 9.79492Q18.3301 11.5625 17.666 13.1104Q17.002 14.6582 15.8301 15.8301Q14.6582 17.002 13.1152 17.6611Q11.5723 18.3203 9.79492 18.3203Z"
                     fill="#32d74b" />
              <path d="M6.20117 12.7344L12.7734 12.7344Q13.3594 12.7344 13.8086 12.6367Q14.2578 12.5391 14.5801 12.2266Q14.8926 11.9043 14.9951 11.4502Q15.0977 10.9961 15.0977 10.4199L15.0977 9.16992Q15.0977 8.59375 14.9951 8.13965Q14.8926 7.68555 14.5801 7.36328Q14.2578 7.05078 13.7988 6.94824Q13.3398 6.8457 12.7734 6.8457L6.20117 6.8457Q5.625 6.8457 5.16602 6.94824Q4.70703 7.05078 4.38477 7.36328Q4.07227 7.68555 3.97461 8.13477Q3.87695 8.58398 3.87695 9.16992L3.87695 10.4199Q3.87695 10.9961 3.97461 11.4502Q4.07227 11.9043 4.38477 12.2266Q4.70703 12.5391 5.15625 12.6367Q5.60547 12.7344 6.20117 12.7344ZM6.07422 11.8457Q5.32227 11.8457 5.03906 11.5723Q4.90234 11.4355 4.83887 11.1768Q4.77539 10.918 4.77539 10.5371L4.77539 9.04297Q4.77539 8.67188 4.83887 8.4082Q4.90234 8.14453 5.03906 8.01758Q5.19531 7.87109 5.4541 7.80273Q5.71289 7.73438 6.07422 7.73438L12.9004 7.73438Q13.6426 7.73438 13.9355 8.02734Q14.0723 8.1543 14.1406 8.42285Q14.209 8.69141 14.209 9.04297L14.209 10.5371Q14.209 10.8984 14.1406 11.1621Q14.0723 11.4258 13.9355 11.5625Q13.6523 11.8457 12.9004 11.8457ZM6.10352 11.3379L12.8711 11.3379Q13.3594 11.3379 13.5254 11.1719Q13.7109 10.9961 13.7109 10.5176L13.7109 9.05273Q13.7109 8.58398 13.5254 8.4082Q13.3398 8.23242 12.8711 8.23242L6.10352 8.23242Q5.625 8.23242 5.43945 8.4082Q5.2832 8.57422 5.2832 9.05273L5.2832 10.5176Q5.2832 11.0059 5.43945 11.1719Q5.625 11.3379 6.10352 11.3379ZM15.5469 10.9863Q15.8203 10.9668 16.1084 10.6445Q16.3965 10.3223 16.3965 9.79492Q16.3965 9.26758 16.1084 8.94531Q15.8203 8.62305 15.5469 8.60352Z"
                     fill="#32d74b" />
       </g>
</svg>