<svg width="19.5898" height="19.5996">
       <g>
              <rect height="19.5996" opacity="0" width="19.5898" x="0" y="0" />
              <path d="M9.79492 19.5898Q11.8066 19.5898 13.5791 18.8232Q15.3516 18.0566 16.7041 16.7041Q18.0566 15.3516 18.8232 13.5791Q19.5898 11.8066 19.5898 9.79492Q19.5898 7.7832 18.8232 6.01074Q18.0566 4.23828 16.7041 2.88574Q15.3516 1.5332 13.5742 0.766602Q11.7969 0 9.78516 0Q7.77344 0 6.00098 0.766602Q4.22852 1.5332 2.88086 2.88574Q1.5332 4.23828 0.766602 6.01074Q0 7.7832 0 9.79492Q0 11.8066 0.766602 13.5791Q1.5332 15.3516 2.88574 16.7041Q4.23828 18.0566 6.01074 18.8232Q7.7832 19.5898 9.79492 19.5898Z"
                     fill="#32d74b" />
              <path d="M6.12305 12.793Q5.51758 12.793 5.05859 12.6953Q4.59961 12.5977 4.25781 12.2754Q3.93555 11.9434 3.83789 11.4795Q3.74023 11.0156 3.74023 10.4297L3.74023 9.16016Q3.74023 8.56445 3.83789 8.10547Q3.93555 7.64648 4.25781 7.31445Q4.59961 6.98242 5.06348 6.88477Q5.52734 6.78711 6.12305 6.78711L12.832 6.78711Q13.418 6.78711 13.8818 6.88477Q14.3457 6.98242 14.6777 7.31445Q14.9902 7.64648 15.0977 8.11035Q15.2051 8.57422 15.2051 9.16016L15.2051 10.4297Q15.2051 11.0156 15.0977 11.4795Q14.9902 11.9434 14.6777 12.2754Q14.3457 12.5977 13.8818 12.6953Q13.418 12.793 12.832 12.793ZM5.98633 11.8848L12.959 11.8848Q13.7207 11.8848 14.0137 11.6016Q14.1504 11.4648 14.2236 11.1914Q14.2969 10.918 14.2969 10.5469L14.2969 9.0332Q14.2969 8.66211 14.2236 8.39355Q14.1504 8.125 14.0137 7.98828Q13.7109 7.69531 12.959 7.69531L5.98633 7.69531Q5.61523 7.69531 5.35156 7.76855Q5.08789 7.8418 4.93164 7.97852Q4.79492 8.11523 4.73145 8.38379Q4.66797 8.65234 4.66797 9.0332L4.66797 10.5469Q4.66797 10.9375 4.73145 11.2012Q4.79492 11.4648 4.93164 11.6016Q5.22461 11.8848 5.98633 11.8848ZM6.01562 11.3672Q5.52734 11.3672 5.35156 11.2012Q5.18555 11.0254 5.18555 10.5371L5.18555 9.04297Q5.18555 8.56445 5.35156 8.37891Q5.53711 8.21289 6.01562 8.21289L12.9297 8.21289Q13.3984 8.21289 13.5938 8.37891Q13.7793 8.56445 13.7793 9.04297L13.7793 10.5371Q13.7793 11.0156 13.5938 11.2012Q13.418 11.3672 12.9297 11.3672ZM15.6641 11.0059L15.6641 8.58398Q15.9375 8.60352 16.2354 8.93066Q16.5332 9.25781 16.5332 9.79492Q16.5332 10.3223 16.2354 10.6543Q15.9375 10.9863 15.6641 11.0059Z"
                     fill="#ffffff" />
       </g>
</svg>