<svg width="28.0435" height="12.6862">
       <g>
              <rect height="12.6862" opacity="0" width="28.0435" x="0" y="0" />
              <path d="M5.02045 12.6862L20.1843 12.6862Q21.51 12.6862 22.4755 12.4769Q23.441 12.2676 24.1203 11.5852Q24.7958 10.9097 25.0037 9.95209Q25.2115 8.99445 25.2115 7.66571L25.2115 5.03555Q25.2115 3.70377 25.0037 2.74467Q24.7958 1.78558 24.1203 1.11298Q23.438 0.433655 22.474 0.22438Q21.51 0.0151062 20.1843 0.0151062L4.9646 0.0151062Q3.68866 0.0151062 2.73102 0.229263Q1.77338 0.44342 1.09421 1.11908Q0.418549 1.7984 0.209274 2.74963Q0 3.70087 0 4.97299L0 7.66571Q0 8.99445 0.204391 9.95506Q0.408783 10.9157 1.0881 11.5852Q1.77338 12.2676 2.73407 12.4769Q3.69476 12.6862 5.02045 12.6862ZM4.76273 11.4772Q3.89877 11.4772 3.16216 11.3113Q2.42554 11.1455 1.97327 10.7001Q1.52786 10.2478 1.36841 9.52095Q1.20895 8.7941 1.20895 7.92328L1.20895 4.83078Q1.20895 3.92914 1.36841 3.18497Q1.52786 2.4408 1.97037 1.99524Q2.41577 1.53992 3.16978 1.38054Q3.9238 1.22116 4.82239 1.22116L20.4486 1.22116Q21.3095 1.22116 22.0461 1.38695Q22.7827 1.55273 23.2283 1.99829Q23.6806 2.45056 23.8415 3.17741Q24.0024 3.90427 24.0024 4.76822L24.0024 7.92328Q24.0024 8.7941 23.84 9.52095Q23.6775 10.2478 23.2283 10.7001Q22.7827 11.1485 22.0461 11.3129Q21.3095 11.4772 20.4486 11.4772ZM26.3428 8.72818Q26.7061 8.70193 27.1018 8.40271Q27.4976 8.10349 27.7705 7.57866Q28.0435 7.05383 28.0435 6.34735Q28.0435 5.64743 27.7705 5.12108Q27.4976 4.59473 27.1018 4.29214Q26.7061 3.98956 26.3428 3.97003Z"
                     fill="rgba(255,255,255,0.55)" />
       </g>
</svg>