<svg width="24.248" height="15.8105">
       <g>
              <rect height="15.8105" opacity="0" width="24.248" x="0" y="0" />
              <path d="M0 15.0488Q0 15.4004 0.195312 15.6006Q0.390625 15.8008 0.751953 15.8008L1.26953 15.8008Q1.61133 15.8008 1.81152 15.6006Q2.01172 15.4004 2.01172 15.0488L2.01172 13.5352Q2.09961 13.5449 2.25098 13.5547Q2.40234 13.5645 2.53906 13.5645L21.7188 13.5645Q21.8555 13.5645 22.0068 13.5547Q22.1582 13.5449 22.2363 13.5352L22.2363 15.0488Q22.2363 15.4004 22.4365 15.6006Q22.6367 15.8008 22.9785 15.8008L23.5059 15.8008Q23.8574 15.8008 24.0527 15.6006Q24.248 15.4004 24.248 15.0488L24.248 9.00391Q24.248 7.80273 23.5889 7.13867Q22.9297 6.47461 21.7285 6.47461L2.51953 6.47461Q1.32812 6.47461 0.664062 7.13867Q0 7.80273 0 9.00391Z"
                     fill="#66d4cf" />
              <path d="M2.35352 5.2832L4.6582 5.2832L4.6582 3.99414Q4.6582 3.34961 5.01953 2.98828Q5.38086 2.62695 6.02539 2.62695L9.80469 2.62695Q10.459 2.62695 10.8154 2.98828Q11.1719 3.34961 11.1719 3.99414L11.1719 5.2832L13.3496 5.2832L13.3496 3.99414Q13.3496 3.34961 13.7256 2.98828Q14.1016 2.62695 14.8438 2.62695L18.1152 2.62695Q18.8574 2.62695 19.2334 2.98828Q19.6094 3.34961 19.6094 3.99414L19.6094 5.2832L21.9238 5.2832L21.9238 2.56836Q21.9238 1.26953 21.2695 0.634766Q20.6152 0 19.4434 0L4.83398 0Q3.65234 0 3.00293 0.634766Q2.35352 1.26953 2.35352 2.56836Z"
                     fill="rgba(102,212,207,0.55)" />
       </g>
</svg>