<svg width="19.5898" height="19.5996">
       <g>
              <rect height="19.5996" opacity="0" width="19.5898" x="0" y="0" />
              <path d="M9.79492 19.5898Q11.8066 19.5898 13.5791 18.8232Q15.3516 18.0566 16.7041 16.7041Q18.0566 15.3516 18.8232 13.5791Q19.5898 11.8066 19.5898 9.79492Q19.5898 7.7832 18.8232 6.01074Q18.0566 4.23828 16.7041 2.88574Q15.3516 1.5332 13.5742 0.766602Q11.7969 0 9.78516 0Q7.77344 0 6.00098 0.766602Q4.22852 1.5332 2.88086 2.88574Q1.5332 4.23828 0.766602 6.01074Q0 7.7832 0 9.79492Q0 11.8066 0.766602 13.5791Q1.5332 15.3516 2.88574 16.7041Q4.23828 18.0566 6.01074 18.8232Q7.7832 19.5898 9.79492 19.5898ZM9.79492 18.3203Q8.02734 18.3203 6.47949 17.6611Q4.93164 17.002 3.75977 15.8301Q2.58789 14.6582 1.92871 13.1104Q1.26953 11.5625 1.26953 9.79492Q1.26953 8.02734 1.92871 6.47949Q2.58789 4.93164 3.75977 3.75488Q4.93164 2.57812 6.47461 1.91895Q8.01758 1.25977 9.78516 1.25977Q11.5625 1.25977 13.1104 1.91895Q14.6582 2.57812 15.8301 3.75488Q17.002 4.93164 17.666 6.47949Q18.3301 8.02734 18.3301 9.79492Q18.3301 11.5625 17.666 13.1104Q17.002 14.6582 15.8301 15.8301Q14.6582 17.002 13.1152 17.6611Q11.5723 18.3203 9.79492 18.3203Z"
                     fill="#66d4cf" />
              <path d="M3.86719 13.2812Q3.86719 13.6328 4.23828 13.6328L4.48242 13.6328Q4.84375 13.6328 4.84375 13.2812L4.84375 12.5391Q4.88281 12.5488 4.95605 12.5488Q5.0293 12.5488 5.09766 12.5488L14.4922 12.5488Q14.5605 12.5488 14.6289 12.5488Q14.6973 12.5488 14.7363 12.5391L14.7363 13.2812Q14.7363 13.6328 15.0977 13.6328L15.3516 13.6328Q15.7129 13.6328 15.7129 13.2812L15.7129 10.3223Q15.7129 9.73633 15.3906 9.41406Q15.0684 9.0918 14.4922 9.0918L5.08789 9.0918Q4.51172 9.0918 4.18945 9.41406Q3.86719 9.73633 3.86719 10.3223ZM5.01953 8.52539L6.13281 8.52539L6.13281 7.90039Q6.13281 7.57812 6.31348 7.39746Q6.49414 7.2168 6.81641 7.2168L8.66211 7.2168Q8.97461 7.2168 9.15527 7.39746Q9.33594 7.57812 9.33594 7.90039L9.33594 8.52539L10.3906 8.52539L10.3906 7.90039Q10.3906 7.2168 11.1133 7.2168L12.7148 7.2168Q13.4473 7.2168 13.4473 7.90039L13.4473 8.52539L14.5605 8.52539L14.5605 7.1875Q14.5605 6.5625 14.248 6.25488Q13.9355 5.94727 13.3691 5.94727L6.2207 5.94727Q5.6543 5.94727 5.33691 6.25488Q5.01953 6.5625 5.01953 7.1875Z"
                     fill="#66d4cf" />
       </g>
</svg>