<svg width="24.2496" height="15.8099">
       <g>
              <rect height="15.8099" opacity="0" width="24.2496" x="0" y="0" />
              <path d="M0.748291 15.7965L1.27075 15.7965Q1.61148 15.7965 1.81374 15.5976Q2.01599 15.3987 2.01599 15.0452L2.01599 13.5301Q2.09488 13.5466 2.24663 13.5567Q2.39838 13.5669 2.53479 13.5669L21.7148 13.5669Q21.8512 13.5669 22.0064 13.5567Q22.1616 13.5466 22.2336 13.5301L22.2336 15.0452Q22.2336 15.3987 22.4358 15.5976Q22.6381 15.7965 22.979 15.7965L23.5013 15.7965Q23.8548 15.7965 24.0522 15.5976Q24.2496 15.3987 24.2496 15.0452L24.2496 8.38593Q24.2496 7.17102 23.6122 6.51848Q22.9749 5.86594 21.7744 5.86594L2.47513 5.86594Q1.28159 5.86594 0.640793 6.51848Q0 7.17102 0 8.38593L0 15.0452Q0 15.3987 0.197372 15.5976Q0.394745 15.7965 0.748291 15.7965ZM1.54739 12.4559Q1.23962 12.4559 1.23962 12.1024L1.23962 8.2309Q1.23962 7.65305 1.56929 7.31499Q1.89896 6.97693 2.45941 6.97693L21.797 6.97693Q22.3573 6.97693 22.6836 7.31499Q23.0099 7.65305 23.0099 8.2309L23.0099 12.1024Q23.0099 12.4559 22.7022 12.4559ZM2.47543 6.00143L4.97421 6.00143L4.97421 4.00177Q4.97421 3.36136 5.33318 2.99965Q5.69214 2.63794 6.34018 2.63794L9.80728 2.63794Q10.4485 2.63794 10.8089 2.99965Q11.1694 3.36136 11.1694 4.00177L11.1694 6.00143L13.0801 6.00143L13.0801 4.00177Q13.0801 3.36136 13.4406 2.99965Q13.8011 2.63794 14.4424 2.63794L17.9095 2.63794Q18.5574 2.63794 18.9164 2.99965Q19.2754 3.36136 19.2754 4.00177L19.2754 6.00143L21.7741 6.00143L21.7741 2.56485Q21.7741 1.27396 21.124 0.636978Q20.4738 0 19.2978 0L4.95483 0Q3.7825 0 3.12897 0.636978Q2.47543 1.27396 2.47543 2.56485Z"
                     fill="#66d4cf" />
       </g>
</svg>