<svg width="19.5898" height="19.5996">
       <g>
              <rect height="19.5996" opacity="0" width="19.5898" x="0" y="0" />
              <path d="M9.79492 19.5996Q11.8066 19.5996 13.5791 18.833Q15.3516 18.0664 16.7041 16.7139Q18.0566 15.3613 18.8232 13.5889Q19.5898 11.8164 19.5898 9.80469Q19.5898 7.79297 18.8232 6.02051Q18.0566 4.24805 16.7041 2.89551Q15.3516 1.54297 13.5742 0.776367Q11.7969 0.00976562 9.78516 0.00976562Q7.77344 0.00976562 6.00098 0.776367Q4.22852 1.54297 2.88086 2.89551Q1.5332 4.24805 0.766602 6.02051Q0 7.79297 0 9.80469Q0 11.8164 0.766602 13.5889Q1.5332 15.3613 2.88574 16.7139Q4.23828 18.0664 6.01074 18.833Q7.7832 19.5996 9.79492 19.5996Z"
                     fill="#66d4cf" />
              <path d="M3.75 13.3594L3.75 10.3418Q3.75 9.74609 4.08203 9.41406Q4.41406 9.08203 5 9.08203L14.5898 9.08203Q15.1855 9.08203 15.5127 9.41406Q15.8398 9.74609 15.8398 10.3418L15.8398 13.3594Q15.8398 13.7305 15.4688 13.7305L15.2148 13.7305Q14.834 13.7305 14.834 13.3594L14.834 12.6074Q14.8047 12.6172 14.7314 12.6172Q14.6582 12.6172 14.5898 12.6172L5.01953 12.6172Q4.95117 12.6172 4.86816 12.6172Q4.78516 12.6172 4.75586 12.6074L4.75586 13.3594Q4.75586 13.7305 4.375 13.7305L4.13086 13.7305Q3.75 13.7305 3.75 13.3594ZM4.92188 8.50586L4.92188 7.14844Q4.92188 6.50391 5.24902 6.19141Q5.57617 5.87891 6.15234 5.87891L13.4473 5.87891Q14.0234 5.87891 14.3457 6.19141Q14.668 6.50391 14.668 7.14844L14.668 8.50586L13.5254 8.50586L13.5254 7.86133Q13.5254 7.16797 12.7734 7.16797L11.1523 7.16797Q10.4102 7.16797 10.4102 7.86133L10.4102 8.50586L9.32617 8.50586L9.32617 7.86133Q9.32617 7.53906 9.14551 7.35352Q8.96484 7.16797 8.63281 7.16797L6.75781 7.16797Q6.42578 7.16797 6.25 7.35352Q6.07422 7.53906 6.07422 7.86133L6.07422 8.50586Z"
                     fill="#ffffff" />
       </g>
</svg>