<svg width="19.5898" height="19.5996">
       <g>
              <rect height="19.5996" opacity="0" width="19.5898" x="0" y="0" />
              <path d="M9.79492 19.5996Q11.8066 19.5996 13.5791 18.833Q15.3516 18.0664 16.7041 16.7139Q18.0566 15.3613 18.8232 13.5889Q19.5898 11.8164 19.5898 9.80469Q19.5898 7.79297 18.8232 6.02051Q18.0566 4.24805 16.7041 2.89551Q15.3516 1.54297 13.5742 0.776367Q11.7969 0.00976562 9.78516 0.00976562Q7.77344 0.00976562 6.00098 0.776367Q4.22852 1.54297 2.88086 2.89551Q1.5332 4.24805 0.766602 6.02051Q0 7.79297 0 9.80469Q0 11.8164 0.766602 13.5889Q1.5332 15.3613 2.88574 16.7139Q4.23828 18.0664 6.01074 18.833Q7.7832 19.5996 9.79492 19.5996Z"
                     fill="#ff453a" />
              <path d="M5.27344 13.4082Q4.98047 13.4082 4.81445 13.2617Q4.64844 13.1152 4.64844 12.8809Q4.64844 12.4512 4.97559 12.0801Q5.30273 11.709 5.64453 11.3379Q5.86914 11.0938 5.97656 10.7031Q6.08398 10.3125 6.12793 9.86328Q6.17188 9.41406 6.2207 8.98438Q6.29883 7.57812 6.76758 6.61621Q7.23633 5.6543 8.29102 5.30273Q8.4375 4.75586 8.83301 4.38477Q9.22852 4.01367 9.80469 4.01367Q10.3809 4.01367 10.7764 4.38477Q11.1719 4.75586 11.3184 5.30273Q12.3633 5.6543 12.8369 6.61621Q13.3105 7.57812 13.3789 8.98438Q13.4277 9.41406 13.4717 9.86816Q13.5156 10.3223 13.6182 10.708Q13.7207 11.0938 13.9551 11.3379Q14.3164 11.709 14.6387 12.0801Q14.9609 12.4512 14.9609 12.8809Q14.9609 13.1152 14.79 13.2617Q14.6191 13.4082 14.3262 13.4082ZM9.80469 15.6152Q9.12109 15.6152 8.68652 15.2002Q8.25195 14.7852 8.18359 14.1797L11.416 14.1797Q11.3574 14.7852 10.918 15.2002Q10.4785 15.6152 9.80469 15.6152Z"
                     fill="#ffffff" />
       </g>
</svg>