<svg width="17.6855" height="17.7051">
       <g>
              <rect height="17.7051" opacity="0" width="17.6855" x="0" y="0" />
              <path d="M2.88086 17.7051L14.8047 17.7051Q16.2305 17.7051 16.958 16.9873Q17.6855 16.2695 17.6855 14.8535L17.6855 2.88086Q17.6855 1.46484 16.958 0.742188Q16.2305 0.0195312 14.8047 0.0195312L2.88086 0.0195312Q1.44531 0.0195312 0.722656 0.737305Q0 1.45508 0 2.88086L0 14.8535Q0 16.2695 0.722656 16.9873Q1.44531 17.7051 2.88086 17.7051ZM2.90039 16.4941Q2.07031 16.4941 1.64062 16.0645Q1.21094 15.6348 1.21094 14.7949L1.21094 2.93945Q1.21094 2.08984 1.64062 1.66016Q2.07031 1.23047 2.90039 1.23047L14.7852 1.23047Q15.5859 1.23047 16.0303 1.66016Q16.4746 2.08984 16.4746 2.93945L16.4746 14.7949Q16.4746 15.6348 16.0303 16.0645Q15.5859 16.4941 14.7852 16.4941Z"
                     fill="#ff453a" />
              <path d="M4.4043 12.3828L13.291 12.3828Q13.5742 12.3828 13.7354 12.2363Q13.8965 12.0898 13.8965 11.8652Q13.8965 11.4453 13.5791 11.084Q13.2617 10.7227 12.9199 10.3516Q12.6953 10.1172 12.5879 9.73145Q12.4805 9.3457 12.4414 8.90137Q12.4023 8.45703 12.3535 8.02734Q12.2852 6.66016 11.8213 5.72266Q11.3574 4.78516 10.332 4.44336Q10.1953 3.90625 9.80469 3.54492Q9.41406 3.18359 8.84766 3.18359Q8.28125 3.18359 7.89551 3.54492Q7.50977 3.90625 7.37305 4.44336Q6.34766 4.78516 5.88379 5.72266Q5.41992 6.66016 5.3418 8.02734Q5.30273 8.45703 5.25391 8.90137Q5.20508 9.3457 5.10254 9.73145Q5 10.1172 4.77539 10.3516Q4.44336 10.7227 4.12109 11.084Q3.79883 11.4453 3.79883 11.8652Q3.79883 12.0898 3.95996 12.2363Q4.12109 12.3828 4.4043 12.3828ZM8.84766 14.5312Q9.51172 14.5312 9.94141 14.1309Q10.3711 13.7305 10.4395 13.125L7.26562 13.125Q7.32422 13.7305 7.75879 14.1309Q8.19336 14.5312 8.84766 14.5312Z"
                     fill="#ff453a" />
       </g>
</svg>