<svg width="19.5898" height="19.5996">
       <g>
              <rect height="19.5996" opacity="0" width="19.5898" x="0" y="0" />
              <path d="M9.79492 19.5996Q11.8066 19.5996 13.5791 18.833Q15.3516 18.0664 16.7041 16.7139Q18.0566 15.3613 18.8232 13.5889Q19.5898 11.8164 19.5898 9.80469Q19.5898 7.79297 18.8232 6.02051Q18.0566 4.24805 16.7041 2.89551Q15.3516 1.54297 13.5742 0.776367Q11.7969 0.00976562 9.78516 0.00976562Q7.77344 0.00976562 6.00098 0.776367Q4.22852 1.54297 2.88086 2.89551Q1.5332 4.24805 0.766602 6.02051Q0 7.79297 0 9.80469Q0 11.8164 0.766602 13.5889Q1.5332 15.3613 2.88574 16.7139Q4.23828 18.0664 6.01074 18.833Q7.7832 19.5996 9.79492 19.5996Z"
                     fill="rgba(255,255,255,0.55)" />
              <path d="M7.37305 5.83984Q7.72461 5.47852 8.28125 5.30273Q8.41797 4.75586 8.81836 4.38477Q9.21875 4.01367 9.79492 4.01367Q10.3711 4.01367 10.7666 4.38477Q11.1621 4.75586 11.2988 5.30273Q12.3535 5.6543 12.8271 6.61621Q13.3008 7.57812 13.3691 8.98438Q13.418 9.41406 13.4619 9.86816Q13.5059 10.3223 13.6084 10.708Q13.7109 11.0938 13.9551 11.3379Q14.3066 11.709 14.6289 12.0801Q14.9512 12.4512 14.9512 12.8711Q14.9512 13.1152 14.7266 13.2129ZM11.8652 13.4082L5.26367 13.4082Q4.9707 13.4082 4.80469 13.2617Q4.63867 13.1152 4.63867 12.8809Q4.63867 12.4512 4.96582 12.0801Q5.29297 11.709 5.63477 11.3379Q5.85938 11.0938 5.9668 10.7031Q6.07422 10.3125 6.11816 9.86328Q6.16211 9.41406 6.21094 8.98438Q6.2207 8.68164 6.25 8.39844Q6.2793 8.11523 6.31836 7.86133ZM9.79492 15.6152Q9.12109 15.6152 8.67676 15.2002Q8.23242 14.7852 8.17383 14.1797L11.4062 14.1797Q11.3477 14.7852 10.9033 15.2002Q10.459 15.6152 9.79492 15.6152ZM14.6289 15.1953L4.38477 4.95117Q4.27734 4.84375 4.27734 4.68262Q4.27734 4.52148 4.38477 4.4043Q4.50195 4.27734 4.66797 4.27734Q4.83398 4.27734 4.95117 4.4043L15.1855 14.6484Q15.3027 14.7656 15.3027 14.9219Q15.3027 15.0781 15.1855 15.1953Q15.0781 15.3125 14.9121 15.3076Q14.7461 15.3027 14.6289 15.1953Z"
                     fill="#ffffff" />
       </g>
</svg>