<svg width="17.6855" height="17.7051">
       <g>
              <rect height="17.7051" opacity="0" width="17.6855" x="0" y="0" />
              <path d="M2.88086 17.7051L14.8047 17.7051Q16.2305 17.7051 16.958 16.9873Q17.6855 16.2695 17.6855 14.8535L17.6855 2.88086Q17.6855 1.46484 16.958 0.742188Q16.2305 0.0195312 14.8047 0.0195312L2.88086 0.0195312Q1.44531 0.0195312 0.722656 0.737305Q0 1.45508 0 2.88086L0 14.8535Q0 16.2695 0.722656 16.9873Q1.44531 17.7051 2.88086 17.7051Z"
                     fill="#ff453a" />
              <path d="M4.32617 12.4512Q4.0332 12.4512 3.86719 12.3047Q3.70117 12.1582 3.70117 11.9238Q3.70117 11.4941 4.02832 11.123Q4.35547 10.752 4.69727 10.3809Q4.92188 10.1367 5.0293 9.74609Q5.13672 9.35547 5.18066 8.90625Q5.22461 8.45703 5.27344 8.02734Q5.35156 6.62109 5.82031 5.65918Q6.28906 4.69727 7.34375 4.3457Q7.49023 3.79883 7.88574 3.42773Q8.28125 3.05664 8.85742 3.05664Q9.43359 3.05664 9.8291 3.42773Q10.2246 3.79883 10.3711 4.3457Q11.416 4.69727 11.8896 5.65918Q12.3633 6.62109 12.4316 8.02734Q12.4805 8.45703 12.5244 8.91113Q12.5684 9.36523 12.6709 9.75098Q12.7734 10.1367 13.0078 10.3809Q13.3691 10.752 13.6914 11.123Q14.0137 11.4941 14.0137 11.9238Q14.0137 12.1582 13.8428 12.3047Q13.6719 12.4512 13.3789 12.4512ZM8.85742 14.6582Q8.17383 14.6582 7.73926 14.2432Q7.30469 13.8281 7.23633 13.2227L10.4688 13.2227Q10.4102 13.8281 9.9707 14.2432Q9.53125 14.6582 8.85742 14.6582Z"
                     fill="#ffffff" />
       </g>
</svg>