<svg width="33.9864" height="19.8526">
       <g>
              <rect height="19.8526" opacity="0" width="33.9864" x="0" y="0" />
              <path d="M7.9155 15.5589Q7.9155 15.9901 8.21983 16.2488Q8.52417 16.5074 9.05411 16.5074L13.6717 16.5074Q13.7016 17.4275 14.1344 18.1814Q14.5673 18.9352 15.3044 19.389Q16.0416 19.8428 16.9882 19.8428Q17.9448 19.8428 18.6819 19.3924Q19.4191 18.942 19.8519 18.1847Q20.2847 17.4275 20.3146 16.5074L24.9323 16.5074Q25.4622 16.5074 25.7665 16.2488Q26.0709 15.9901 26.0709 15.5589Q26.0709 15.0676 25.7983 14.6132Q25.5257 14.1588 25.1175 13.7238Q24.7093 13.2889 24.3045 12.8525Q23.9066 12.4266 23.7138 11.7426Q23.521 11.0587 23.4331 10.267Q23.3452 9.4754 23.2608 8.70316Q23.186 7.03369 22.7979 5.73265Q22.4098 4.43161 21.6415 3.55194Q20.8733 2.67227 19.632 2.27005Q19.4272 1.28876 18.718 0.644379Q18.0087 0 16.9882 0Q15.9746 0 15.2669 0.644379Q14.5592 1.28876 14.3544 2.27005Q13.1131 2.67227 12.3399 3.55194Q11.5668 4.43161 11.1835 5.73265Q10.8003 7.03369 10.7225 8.70316Q10.6412 9.4754 10.5518 10.267Q10.4623 11.0587 10.2711 11.7426Q10.0798 12.4266 9.68185 12.8525Q9.27399 13.2889 8.86589 13.7238Q8.45779 14.1588 8.18665 14.6132Q7.9155 15.0676 7.9155 15.5589ZM9.35593 15.3659L9.35593 15.2547Q9.4136 15.0635 9.62624 14.781Q9.83887 14.4986 10.1234 14.1843Q10.4079 13.8699 10.686 13.5686Q11.0193 13.2091 11.2283 12.7128Q11.4372 12.2165 11.5649 11.6041Q11.6925 10.9917 11.7691 10.2915Q11.8457 9.59137 11.918 8.82401Q12.0116 7.01599 12.3984 5.88715Q12.7852 4.7583 13.4269 4.16153Q14.0686 3.56476 14.9174 3.33038Q15.1334 3.27927 15.2507 3.17215Q15.368 3.06503 15.3899 2.85828Q15.4463 2.10876 15.8652 1.61324Q16.2842 1.11771 16.9882 1.11771Q17.7022 1.11771 18.121 1.61324Q18.5399 2.10876 18.5965 2.85828Q18.6153 3.06503 18.7341 3.17215Q18.853 3.27927 19.0659 3.33038Q19.911 3.56476 20.5527 4.16153Q21.1945 4.7583 21.5845 5.88715Q21.9746 7.01599 22.0653 8.82401Q22.1339 9.59137 22.2139 10.2915Q22.2939 10.9917 22.4166 11.6041Q22.5394 12.2165 22.7498 12.7128Q22.9602 13.2091 23.2936 13.5686Q23.5754 13.8699 23.8599 14.1843Q24.1444 14.4986 24.3537 14.781Q24.563 15.0635 24.6207 15.2547L24.6207 15.3659ZM14.847 16.5074L19.1364 16.5074Q19.0808 17.549 18.4879 18.1603Q17.8951 18.7717 16.9882 18.7717Q16.0912 18.7717 15.495 18.1603Q14.8988 17.549 14.847 16.5074Z"
                     fill="rgba(255,255,255,0.55)" />
              <path d="M6.17096 13.6757Q6.34781 13.4755 6.30096 13.2293Q6.25412 12.9831 6.06812 12.7522Q5.56213 12.2023 5.317 11.4684Q5.07187 10.7346 5.07187 9.92142Q5.07187 9.10828 5.317 8.3744Q5.56213 7.64053 6.06812 7.09061Q6.25412 6.84998 6.30096 6.60866Q6.34781 6.36734 6.17096 6.16714Q5.98434 5.95734 5.69763 5.96222Q5.41092 5.9671 5.21454 6.21735Q4.56467 6.96609 4.20853 7.91725Q3.85239 8.86841 3.85239 9.92142Q3.85239 10.9744 4.20853 11.9241Q4.56467 12.8737 5.21454 13.6255Q5.41092 13.8727 5.69763 13.8791Q5.98434 13.8855 6.17096 13.6757ZM27.8087 13.6757Q27.9953 13.8855 28.282 13.8791Q28.5687 13.8727 28.7718 13.6255Q29.4186 12.8737 29.7762 11.9241Q30.1338 10.9744 30.1338 9.92142Q30.1338 8.86841 29.7762 7.91725Q29.4186 6.96609 28.7718 6.21735Q28.5687 5.9671 28.282 5.96222Q27.9953 5.95734 27.8087 6.16714Q27.6385 6.36734 27.6854 6.60866Q27.7322 6.84998 27.9152 7.09061Q28.4145 7.64053 28.6629 8.3744Q28.9114 9.10828 28.9114 9.92142Q28.9114 10.7346 28.6629 11.4684Q28.4145 12.2023 27.9152 12.7522Q27.7322 12.9831 27.6854 13.2293Q27.6385 13.4755 27.8087 13.6757Z"
                     fill="rgba(255,255,255,0.55)" />
              <path d="M3.48801 16.4165Q3.66486 16.2163 3.62328 15.9667Q3.5817 15.7172 3.3815 15.4932Q2.34985 14.3903 1.78467 12.9632Q1.21948 11.5361 1.21948 9.92142Q1.21948 8.29697 1.78467 6.87477Q2.34985 5.45258 3.3815 4.34967Q3.5817 4.12262 3.62328 3.87459Q3.66486 3.62656 3.48801 3.42636Q3.30811 3.21655 3.0349 3.22296Q2.76169 3.22937 2.54517 3.46313Q1.33652 4.73602 0.668259 6.39809Q0 8.06015 0 9.92142Q0 11.7827 0.668259 13.4399Q1.33652 15.097 2.54517 16.3797Q2.76169 16.6068 3.0349 16.615Q3.30811 16.6232 3.48801 16.4165ZM30.4953 16.4165Q30.6783 16.6232 30.9515 16.615Q31.2247 16.6068 31.4412 16.3797Q32.6498 15.097 33.3181 13.4399Q33.9864 11.7827 33.9864 9.92142Q33.9864 8.06015 33.3181 6.39809Q32.6498 4.73602 31.4412 3.46313Q31.2247 3.22937 30.9515 3.22296Q30.6783 3.21655 30.4953 3.42636Q30.3185 3.62656 30.3616 3.87459Q30.4047 4.12262 30.6049 4.34967Q31.6298 5.45258 32.1968 6.87477Q32.7638 8.29697 32.7638 9.92142Q32.7638 11.5361 32.1968 12.9632Q31.6298 14.3903 30.6049 15.4932Q30.4047 15.7172 30.3616 15.9667Q30.3185 16.2163 30.4953 16.4165Z"
                     fill="rgba(255,255,255,0.55)" />
       </g>
</svg>