<svg width="18.1554" height="19.8526">
       <g>
              <rect height="19.8526" opacity="0" width="18.1554" x="0" y="0" />
              <path d="M0 15.5589Q0 15.9901 0.304413 16.2488Q0.608826 16.5074 1.13861 16.5074L5.75623 16.5074Q5.78613 17.4275 6.21895 18.1814Q6.65176 18.9352 7.38899 19.389Q8.12622 19.8428 9.07593 19.8428Q10.0293 19.8428 10.7665 19.3924Q11.5038 18.942 11.9365 18.1847Q12.3692 17.4275 12.3991 16.5074L17.0168 16.5074Q17.5467 16.5074 17.851 16.2488Q18.1554 15.9901 18.1554 15.5589Q18.1554 15.0676 17.8828 14.6132Q17.6102 14.1588 17.202 13.7238Q16.7938 13.2889 16.389 12.8525Q15.9911 12.4266 15.7983 11.7426Q15.6055 11.0587 15.5176 10.267Q15.4297 9.4754 15.3453 8.70316Q15.2705 7.03369 14.884 5.73265Q14.4974 4.43161 13.7276 3.55194Q12.9578 2.67227 11.7165 2.27005Q11.5117 1.28876 10.804 0.644379Q10.0963 0 9.07593 0Q8.05908 0 7.35138 0.644379Q6.64368 1.28876 6.4389 2.27005Q5.1976 2.67227 4.42444 3.55194Q3.65128 4.43161 3.26805 5.73265Q2.88483 7.03369 2.81006 8.70316Q2.72568 9.4754 2.63779 10.267Q2.5499 11.0587 2.3571 11.7426Q2.16431 12.4266 1.76636 12.8525Q1.36154 13.2889 0.953445 13.7238Q0.545349 14.1588 0.272675 14.6132Q0 15.0676 0 15.5589ZM1.44043 15.3659L1.44043 15.2547Q1.50116 15.0635 1.71227 14.781Q1.92337 14.4986 2.20795 14.1843Q2.49252 13.8699 2.77054 13.5686Q3.10394 13.2091 3.31284 12.7128Q3.52173 12.2165 3.64937 11.6041Q3.77701 10.9917 3.85361 10.2915Q3.93021 9.59137 4.00269 8.82401Q4.09622 7.01599 4.48296 5.88715Q4.86969 4.7583 5.5114 4.16153Q6.15311 3.56476 7.005 3.33038Q7.21786 3.27927 7.33673 3.17215Q7.4556 3.06503 7.47437 2.85828Q7.53098 2.10876 7.94983 1.61324Q8.36868 1.11771 9.07593 1.11771Q9.78668 1.11771 10.2056 1.61324Q10.6245 2.10876 10.681 2.85828Q10.6932 3.06503 10.8154 3.17215Q10.9375 3.27927 11.1436 3.33038Q11.9955 3.56476 12.6373 4.16153Q13.279 4.7583 13.6691 5.88715Q14.0593 7.01599 14.1528 8.82401Q14.2184 9.59137 14.2984 10.2915Q14.3784 10.9917 14.5026 11.6041Q14.6269 12.2165 14.8359 12.7128Q15.0449 13.2091 15.3781 13.5686Q15.663 13.8699 15.9475 14.1843Q16.232 14.4986 16.4397 14.781Q16.6475 15.0635 16.7082 15.2547L16.7082 15.3659ZM6.93146 16.5074L11.2239 16.5074Q11.1653 17.549 10.5725 18.1603Q9.97971 18.7717 9.07593 18.7717Q8.17581 18.7717 7.57957 18.1603Q6.98334 17.549 6.93146 16.5074Z"
                     fill="#ff453a" />
       </g>
</svg>