<svg width="19.541" height="23.0762">
       <g>
              <rect height="23.0762" opacity="0" width="19.541" x="0" y="0" />
              <path d="M9.08203 21.582Q9.87305 21.582 10.4883 21.2451Q11.1035 20.9082 11.4893 20.3516Q11.875 19.7949 11.9629 19.1309L6.20117 19.1309Q6.28906 19.7949 6.66992 20.3516Q7.05078 20.9082 7.6709 21.2451Q8.29102 21.582 9.08203 21.582ZM1.14258 17.998L17.0215 17.998Q17.5488 17.998 17.8516 17.7393Q18.1543 17.4805 18.1543 17.0508Q18.1543 16.5527 17.8809 16.0986Q17.6074 15.6445 17.2021 15.21Q16.7969 14.7754 16.3867 14.3457Q15.8789 13.7988 15.6885 12.8711Q15.498 11.9434 15.4395 11.0059Q15.4297 10.8594 15.4248 10.7227Q15.4199 10.5859 15.4102 10.4492Q15.1074 10.6836 14.6875 10.6836Q14.0137 10.6836 13.5156 10.2686Q13.0176 9.85352 12.9102 9.23828L12.8906 8.91602Q12.8027 8.95508 12.7002 8.98926Q12.5977 9.02344 12.4902 9.02344Q11.8359 9.02344 11.333 8.60352Q10.8301 8.18359 10.7129 7.56836L10.6934 7.29492Q10.6055 7.35352 10.5029 7.38281Q10.4004 7.41211 10.293 7.41211Q9.78516 7.41211 9.36523 7.1582Q8.94531 6.9043 8.70117 6.48926Q8.45703 6.07422 8.45703 5.56641L8.45703 3.73047Q8.45703 3.21289 8.70117 2.79785Q8.94531 2.38281 9.36523 2.13379Q9.78516 1.88477 10.293 1.88477Q10.3223 1.88477 10.3662 1.88477Q10.4102 1.88477 10.4395 1.89453L10.4492 1.85547Q10.1562 1.68945 9.80957 1.5918Q9.46289 1.49414 9.08203 1.49414Q8.05664 1.49414 7.36328 2.13867Q6.66992 2.7832 6.44531 3.75977Q5.19531 4.16016 4.42871 5.05371Q3.66211 5.94727 3.27637 7.25098Q2.89062 8.55469 2.8125 10.1953Q2.72461 10.9668 2.6416 11.7578Q2.55859 12.5488 2.36328 13.2324Q2.16797 13.916 1.77734 14.3457Q1.36719 14.7754 0.957031 15.21Q0.546875 15.6445 0.273438 16.0986Q0 16.5527 0 17.0508Q0 17.4805 0.307617 17.7393Q0.615234 17.998 1.14258 17.998Z"
                     fill="rgba(255,255,255,0.55)" />
              <path d="M10.293 6.01562Q10.498 6.01562 10.6348 5.88379Q10.7715 5.75195 10.7715 5.56641L10.7715 3.73047Q10.7715 3.52539 10.6348 3.39355Q10.498 3.26172 10.293 3.26172Q10.1074 3.26172 9.97559 3.39355Q9.84375 3.52539 9.84375 3.73047L9.84375 5.56641Q9.84375 5.75195 9.97559 5.88379Q10.1074 6.01562 10.293 6.01562Z"
                     fill="rgba(255,255,255,0.55)" />
              <path d="M12.5 7.62695Q12.6953 7.62695 12.8271 7.49512Q12.959 7.36328 12.959 7.1582L12.959 2.11914Q12.959 1.92383 12.8271 1.78711Q12.6953 1.65039 12.5 1.65039Q12.3047 1.65039 12.168 1.78711Q12.0312 1.92383 12.0312 2.11914L12.0312 7.1582Q12.0312 7.36328 12.168 7.49512Q12.3047 7.62695 12.5 7.62695Z"
                     fill="rgba(255,255,255,0.55)" />
              <path d="M14.6875 9.28711Q14.8828 9.28711 15.0195 9.16016Q15.1562 9.0332 15.1562 8.83789L15.1562 0.46875Q15.1562 0.263672 15.0195 0.131836Q14.8828 0 14.6875 0Q14.502 0 14.3652 0.131836Q14.2285 0.263672 14.2285 0.46875L14.2285 8.83789Q14.2285 9.0332 14.3604 9.16016Q14.4922 9.28711 14.6875 9.28711Z"
                     fill="rgba(255,255,255,0.55)" />
              <path d="M16.8848 8.29102Q17.0801 8.29102 17.2119 8.1543Q17.3438 8.01758 17.3438 7.82227L17.3438 1.45508Q17.3438 1.25977 17.2119 1.13281Q17.0801 1.00586 16.8848 1.00586Q16.6895 1.00586 16.5576 1.13281Q16.4258 1.25977 16.4258 1.45508L16.4258 7.82227Q16.4258 8.01758 16.5576 8.1543Q16.6895 8.29102 16.8848 8.29102Z"
                     fill="rgba(255,255,255,0.55)" />
              <path d="M19.082 6.55273Q19.2773 6.55273 19.4092 6.4209Q19.541 6.28906 19.541 6.09375L19.541 3.19336Q19.541 2.99805 19.4092 2.86621Q19.2773 2.73438 19.082 2.73438Q18.8867 2.73438 18.7549 2.86621Q18.623 2.99805 18.623 3.19336L18.623 6.09375Q18.623 6.28906 18.7549 6.4209Q18.8867 6.55273 19.082 6.55273Z"
                     fill="rgba(255,255,255,0.165)" />
       </g>
</svg>