<svg width="33.9864" height="20.0964">
       <g>
              <rect height="20.0964" opacity="0" width="33.9864" x="0" y="0" />
              <path d="M9.05411 16.5074L24.9323 16.5074Q25.4622 16.5074 25.7665 16.2487Q26.0709 15.99 26.0709 15.5589Q26.0709 15.0676 25.7983 14.6131Q25.5257 14.1586 25.1175 13.7238Q24.7093 13.2889 24.3045 12.8525Q23.9066 12.4266 23.7138 11.7426Q23.521 11.0587 23.4331 10.267Q23.3452 9.4754 23.2608 8.70316Q23.186 7.06421 22.7979 5.75981Q22.4098 4.45541 21.6415 3.56377Q20.8733 2.67212 19.632 2.27005Q19.4069 1.28876 18.7078 0.644379Q18.0087 0 16.9882 0Q15.9746 0 15.277 0.644379Q14.5795 1.28876 14.3544 2.27005Q13.1131 2.67212 12.3399 3.56377Q11.5668 4.45541 11.1835 5.75981Q10.8003 7.06421 10.7225 8.70316Q10.6412 9.4754 10.5518 10.267Q10.4623 11.0587 10.2711 11.7426Q10.0798 12.4266 9.68185 12.8525Q9.27399 13.2889 8.86589 13.7238Q8.45779 14.1586 8.18665 14.6131Q7.9155 15.0676 7.9155 15.5589Q7.9155 15.99 8.21983 16.2487Q8.52417 16.5074 9.05411 16.5074ZM16.9882 20.0934Q17.782 20.0934 18.4015 19.7548Q19.021 19.4162 19.4048 18.859Q19.7885 18.3018 19.8714 17.6454L14.115 17.6454Q14.1948 18.3018 14.5801 18.859Q14.9654 19.4162 15.5849 19.7548Q16.2044 20.0934 16.9882 20.0934Z"
                     fill="rgba(255,255,255,0.55)" />
              <path d="M6.17096 13.7976Q6.34781 13.5974 6.30096 13.3512Q6.25412 13.105 6.06812 12.8741Q5.56213 12.3242 5.317 11.5903Q5.07187 10.8565 5.07187 10.0433Q5.07187 9.23019 5.317 8.49632Q5.56213 7.76245 6.06812 7.21252Q6.25412 6.97189 6.30096 6.73058Q6.34781 6.48926 6.17096 6.28906Q5.98434 6.07925 5.69763 6.08414Q5.41092 6.08902 5.21454 6.33926Q4.56467 7.08801 4.20853 8.03917Q3.85239 8.99033 3.85239 10.0433Q3.85239 11.0963 4.20853 12.046Q4.56467 12.9956 5.21454 13.7474Q5.41092 13.9946 5.69763 14.001Q5.98434 14.0074 6.17096 13.7976ZM27.8087 13.7976Q27.9953 14.0074 28.282 14.001Q28.5687 13.9946 28.7718 13.7474Q29.4186 12.9956 29.7762 12.046Q30.1338 11.0963 30.1338 10.0433Q30.1338 8.99033 29.7762 8.03917Q29.4186 7.08801 28.7718 6.33926Q28.5687 6.08902 28.282 6.08414Q27.9953 6.07925 27.8087 6.28906Q27.6385 6.48926 27.6854 6.73058Q27.7322 6.97189 27.9152 7.21252Q28.4145 7.76245 28.6629 8.49632Q28.9114 9.23019 28.9114 10.0433Q28.9114 10.8565 28.6629 11.5903Q28.4145 12.3242 27.9152 12.8741Q27.7322 13.105 27.6854 13.3512Q27.6385 13.5974 27.8087 13.7976Z"
                     fill="rgba(255,255,255,0.55)" />
              <path d="M3.48801 16.5384Q3.66486 16.3382 3.62328 16.0886Q3.5817 15.8391 3.3815 15.6151Q2.34985 14.5122 1.78467 13.0851Q1.21948 11.658 1.21948 10.0433Q1.21948 8.41888 1.78467 6.99669Q2.34985 5.57449 3.3815 4.47159Q3.5817 4.24454 3.62328 3.99651Q3.66486 3.74847 3.48801 3.54828Q3.30811 3.33847 3.0349 3.34488Q2.76169 3.35129 2.54517 3.58505Q1.33652 4.85794 0.668259 6.52Q0 8.18207 0 10.0433Q0 11.9046 0.668259 13.5618Q1.33652 15.219 2.54517 16.5016Q2.76169 16.7287 3.0349 16.7369Q3.30811 16.7451 3.48801 16.5384ZM30.4953 16.5384Q30.6783 16.7451 30.9515 16.7369Q31.2247 16.7287 31.4412 16.5016Q32.6498 15.219 33.3181 13.5618Q33.9864 11.9046 33.9864 10.0433Q33.9864 8.18207 33.3181 6.52Q32.6498 4.85794 31.4412 3.58505Q31.2247 3.35129 30.9515 3.34488Q30.6783 3.33847 30.4953 3.54828Q30.3185 3.74847 30.3616 3.99651Q30.4047 4.24454 30.6049 4.47159Q31.6298 5.57449 32.1968 6.99669Q32.7638 8.41888 32.7638 10.0433Q32.7638 11.658 32.1968 13.0851Q31.6298 14.5122 30.6049 15.6151Q30.4047 15.8391 30.3616 16.0886Q30.3185 16.3382 30.4953 16.5384Z"
                     fill="rgba(255,255,255,0.55)" />
       </g>
</svg>