<svg width="18.1554" height="20.0964">
       <g>
              <rect height="20.0964" opacity="0" width="18.1554" x="0" y="0" />
              <path d="M1.13861 16.5074L17.0168 16.5074Q17.5467 16.5074 17.851 16.2487Q18.1554 15.99 18.1554 15.5589Q18.1554 15.0676 17.8828 14.6131Q17.6102 14.1586 17.202 13.7238Q16.7938 13.2889 16.389 12.8525Q15.9911 12.4266 15.7983 11.7426Q15.6055 11.0587 15.5176 10.267Q15.4297 9.4754 15.3453 8.70316Q15.2705 7.06421 14.884 5.75981Q14.4974 4.45541 13.7276 3.56377Q12.9578 2.67212 11.7165 2.27005Q11.4915 1.28876 10.7939 0.644379Q10.0963 0 9.07593 0Q8.05908 0 7.36153 0.644379Q6.66397 1.28876 6.4389 2.27005Q5.1976 2.67212 4.42444 3.56377Q3.65128 4.45541 3.26805 5.75981Q2.88483 7.06421 2.81006 8.70316Q2.72568 9.4754 2.63779 10.267Q2.5499 11.0587 2.3571 11.7426Q2.16431 12.4266 1.76636 12.8525Q1.36154 13.2889 0.953445 13.7238Q0.545349 14.1586 0.272675 14.6131Q0 15.0676 0 15.5589Q0 15.99 0.304413 16.2487Q0.608826 16.5074 1.13861 16.5074ZM9.07593 20.0934Q9.86664 20.0934 10.4861 19.7548Q11.1055 19.4162 11.4874 18.859Q11.8694 18.3018 11.9559 17.6454L6.19965 17.6454Q6.2793 18.3018 6.66458 18.859Q7.04987 19.4162 7.66937 19.7548Q8.28888 20.0934 9.07593 20.0934Z"
                     fill="#ff453a" />
       </g>
</svg>