<svg width="19.5312" height="22.8223">
       <g>
              <rect height="22.8223" opacity="0" width="19.5312" x="0" y="0" />
              <path d="M9.07227 21.3281Q10.0293 21.3281 10.7666 20.8789Q11.5039 20.4297 11.9336 19.6729Q12.3633 18.916 12.3926 17.9883L17.0117 17.9883Q17.5391 17.9883 17.8467 17.7295Q18.1543 17.4707 18.1543 17.041Q18.1543 16.5527 17.8809 16.0986Q17.6074 15.6445 17.1973 15.21Q16.7871 14.7754 16.3867 14.3359Q15.8789 13.7988 15.6836 12.876Q15.4883 11.9531 15.4297 11.0059Q15.4297 10.8594 15.4199 10.7227Q15.4102 10.5859 15.4004 10.4492Q15.0977 10.5371 14.8047 10.5469Q14.5117 10.5566 14.2188 10.4102Q14.2285 10.5859 14.2334 10.7666Q14.2383 10.9473 14.248 11.1328Q14.2871 12.0312 14.4092 12.7686Q14.5312 13.5059 14.7705 14.0771Q15.0098 14.6484 15.3711 15.0488Q15.6543 15.3516 15.9424 15.6689Q16.2305 15.9863 16.4355 16.2695Q16.6406 16.5527 16.6992 16.7383L16.6992 16.8555L1.43555 16.8555L1.43555 16.7383Q1.49414 16.5527 1.70898 16.2695Q1.92383 15.9863 2.20703 15.6689Q2.49023 15.3516 2.76367 15.0488Q3.0957 14.6973 3.30566 14.1992Q3.51562 13.7012 3.64258 13.0908Q3.76953 12.4805 3.84766 11.7773Q3.92578 11.0742 3.99414 10.3125Q4.0918 8.49609 4.47754 7.36816Q4.86328 6.24023 5.50781 5.64453Q6.15234 5.04883 7.00195 4.81445Q7.2168 4.76562 7.33887 4.6582Q7.46094 4.55078 7.4707 4.3457Q7.5293 3.63281 7.9248 3.20801Q8.32031 2.7832 8.81836 2.74414Q8.95508 2.49023 9.17969 2.29492Q9.4043 2.09961 9.68262 1.9873Q9.96094 1.875 10.2832 1.875Q10.3906 1.875 10.4883 1.89453Q10.4883 1.88477 10.4883 1.87988Q10.4883 1.875 10.4883 1.86523Q10.1953 1.68945 9.8291 1.58691Q9.46289 1.48438 9.07227 1.48438Q8.05664 1.48438 7.34863 2.12891Q6.64062 2.77344 6.43555 3.75Q5.19531 4.16016 4.41895 5.03906Q3.64258 5.91797 3.26172 7.2168Q2.88086 8.51562 2.80273 10.1855Q2.72461 10.957 2.63672 11.748Q2.54883 12.5391 2.35352 13.2275Q2.1582 13.916 1.75781 14.3359Q1.35742 14.7754 0.947266 15.21Q0.537109 15.6445 0.268555 16.0986Q0 16.5527 0 17.041Q0 17.4707 0.302734 17.7295Q0.605469 17.9883 1.13281 17.9883L5.75195 17.9883Q5.78125 18.916 6.21582 19.668Q6.65039 20.4199 7.3877 20.874Q8.125 21.3281 9.07227 21.3281ZM9.07227 20.2539Q8.17383 20.2539 7.57812 19.6436Q6.98242 19.0332 6.92383 17.9883L11.2207 17.9883Q11.1621 19.0332 10.5664 19.6436Q9.9707 20.2539 9.07227 20.2539Z"
                     fill="rgba(255,255,255,0.55)" />
              <path d="M10.2832 6.01562Q10.4883 6.01562 10.625 5.88379Q10.7617 5.75195 10.7617 5.56641L10.7617 3.73047Q10.7617 3.52539 10.625 3.39355Q10.4883 3.26172 10.2832 3.26172Q10.0977 3.26172 9.96582 3.39355Q9.83398 3.52539 9.83398 3.73047L9.83398 5.56641Q9.83398 5.75195 9.96582 5.88379Q10.0977 6.01562 10.2832 6.01562Z"
                     fill="rgba(255,255,255,0.55)" />
              <path d="M12.4902 7.62695Q12.6855 7.62695 12.8174 7.49512Q12.9492 7.36328 12.9492 7.1582L12.9492 2.11914Q12.9492 1.92383 12.8174 1.78711Q12.6855 1.65039 12.4902 1.65039Q12.2949 1.65039 12.1582 1.78711Q12.0215 1.92383 12.0215 2.11914L12.0215 7.1582Q12.0215 7.36328 12.1582 7.49512Q12.2949 7.62695 12.4902 7.62695Z"
                     fill="rgba(255,255,255,0.55)" />
              <path d="M14.6777 9.28711Q14.873 9.28711 15.0098 9.16016Q15.1465 9.0332 15.1465 8.83789L15.1465 0.46875Q15.1465 0.263672 15.0098 0.131836Q14.873 0 14.6777 0Q14.4922 0 14.3555 0.131836Q14.2188 0.263672 14.2188 0.46875L14.2188 8.83789Q14.2188 9.0332 14.3506 9.16016Q14.4824 9.28711 14.6777 9.28711Z"
                     fill="rgba(255,255,255,0.55)" />
              <path d="M16.875 8.29102Q17.0703 8.29102 17.2021 8.1543Q17.334 8.01758 17.334 7.82227L17.334 1.45508Q17.334 1.25977 17.2021 1.13281Q17.0703 1.00586 16.875 1.00586Q16.6797 1.00586 16.5479 1.13281Q16.416 1.25977 16.416 1.45508L16.416 7.82227Q16.416 8.01758 16.5479 8.1543Q16.6797 8.29102 16.875 8.29102Z"
                     fill="rgba(255,255,255,0.55)" />
              <path d="M19.0723 6.55273Q19.2676 6.55273 19.3994 6.4209Q19.5312 6.28906 19.5312 6.09375L19.5312 3.19336Q19.5312 2.99805 19.3994 2.86621Q19.2676 2.73438 19.0723 2.73438Q18.877 2.73438 18.7451 2.86621Q18.6133 2.99805 18.6133 3.19336L18.6133 6.09375Q18.6133 6.28906 18.7451 6.4209Q18.877 6.55273 19.0723 6.55273Z"
                     fill="rgba(255,255,255,0.165)" />
       </g>
</svg>