<svg width="19.5898" height="19.5996">
       <g>
              <rect height="19.5996" opacity="0" width="19.5898" x="0" y="0" />
              <path d="M9.79492 19.5898Q11.8066 19.5898 13.5791 18.8232Q15.3516 18.0566 16.7041 16.7041Q18.0566 15.3516 18.8232 13.5791Q19.5898 11.8066 19.5898 9.79492Q19.5898 7.7832 18.8232 6.01074Q18.0566 4.23828 16.7041 2.88574Q15.3516 1.5332 13.5742 0.766602Q11.7969 0 9.78516 0Q7.77344 0 6.00098 0.766602Q4.22852 1.5332 2.88086 2.88574Q1.5332 4.23828 0.766602 6.01074Q0 7.7832 0 9.79492Q0 11.8066 0.766602 13.5791Q1.5332 15.3516 2.88574 16.7041Q4.23828 18.0566 6.01074 18.8232Q7.7832 19.5898 9.79492 19.5898ZM9.79492 18.3203Q8.02734 18.3203 6.47949 17.6611Q4.93164 17.002 3.75977 15.8301Q2.58789 14.6582 1.92871 13.1104Q1.26953 11.5625 1.26953 9.79492Q1.26953 8.02734 1.92871 6.47949Q2.58789 4.93164 3.75977 3.75488Q4.93164 2.57812 6.47461 1.91895Q8.01758 1.25977 9.78516 1.25977Q11.5625 1.25977 13.1104 1.91895Q14.6582 2.57812 15.8301 3.75488Q17.002 4.93164 17.666 6.47949Q18.3301 8.02734 18.3301 9.79492Q18.3301 11.5625 17.666 13.1104Q17.002 14.6582 15.8301 15.8301Q14.6582 17.002 13.1152 17.6611Q11.5723 18.3203 9.79492 18.3203Z"
                     fill="#ff453a" />
              <path d="M5.35156 13.3301L14.2383 13.3301Q14.5215 13.3301 14.6826 13.1836Q14.8438 13.0371 14.8438 12.8125Q14.8438 12.3926 14.5264 12.0312Q14.209 11.6699 13.8672 11.2988Q13.6426 11.0645 13.5352 10.6787Q13.4277 10.293 13.3887 9.84863Q13.3496 9.4043 13.3008 8.97461Q13.2324 7.60742 12.7686 6.66992Q12.3047 5.73242 11.2793 5.39062Q11.1426 4.85352 10.752 4.49219Q10.3613 4.13086 9.79492 4.13086Q9.22852 4.13086 8.84277 4.49219Q8.45703 4.85352 8.32031 5.39062Q7.29492 5.73242 6.83105 6.66992Q6.36719 7.60742 6.28906 8.97461Q6.25 9.4043 6.20117 9.84863Q6.15234 10.293 6.0498 10.6787Q5.94727 11.0645 5.72266 11.2988Q5.39062 11.6699 5.06836 12.0312Q4.74609 12.3926 4.74609 12.8125Q4.74609 13.0371 4.90723 13.1836Q5.06836 13.3301 5.35156 13.3301ZM9.79492 15.4785Q10.459 15.4785 10.8887 15.0781Q11.3184 14.6777 11.3867 14.0723L8.21289 14.0723Q8.27148 14.6777 8.70605 15.0781Q9.14062 15.4785 9.79492 15.4785Z"
                     fill="#ff453a" />
       </g>
</svg>