<svg width="19.5898" height="19.5996">
       <g>
              <rect height="19.5996" opacity="0" width="19.5898" x="0" y="0" />
              <path d="M9.79492 19.5996Q11.8066 19.5996 13.5791 18.833Q15.3516 18.0664 16.7041 16.7139Q18.0566 15.3613 18.8232 13.5889Q19.5898 11.8164 19.5898 9.80469Q19.5898 7.79297 18.8232 6.02051Q18.0566 4.24805 16.7041 2.89551Q15.3516 1.54297 13.5742 0.776367Q11.7969 0.00976562 9.78516 0.00976562Q7.77344 0.00976562 6.00098 0.776367Q4.22852 1.54297 2.88086 2.89551Q1.5332 4.24805 0.766602 6.02051Q0 7.79297 0 9.80469Q0 11.8164 0.766602 13.5889Q1.5332 15.3613 2.88574 16.7139Q4.23828 18.0664 6.01074 18.833Q7.7832 19.5996 9.79492 19.5996Z"
                     fill="rgba(255,255,255,0.55)" />
              <path d="M2.57812 10.9961Q2.57812 10.2246 2.9541 9.59473Q3.33008 8.96484 3.96484 8.58887Q4.59961 8.21289 5.37109 8.21289Q6.23047 8.21289 6.93359 8.69141L7.64648 7.85156L6.91406 6.55273L6.26953 6.55273Q6.12305 6.55273 6.02051 6.4502Q5.91797 6.34766 5.91797 6.20117Q5.91797 6.04492 6.02051 5.94238Q6.12305 5.83984 6.26953 5.83984L8.125 5.83984Q8.28125 5.83984 8.38867 5.94238Q8.49609 6.04492 8.49609 6.20117Q8.49609 6.34766 8.38379 6.4502Q8.27148 6.55273 8.125 6.55273L7.72461 6.55273L8.34961 7.66602L12.2852 7.17773L11.6406 5.53711L10.4785 5.53711Q10.3223 5.53711 10.2148 5.43457Q10.1074 5.33203 10.1074 5.19531Q10.1074 5.03906 10.2148 4.94141Q10.3223 4.84375 10.4785 4.84375L11.7285 4.84375Q12.0898 4.84375 12.2168 5.14648L13.4863 8.31055Q13.8281 8.21289 14.1992 8.21289Q14.9707 8.21289 15.6055 8.58887Q16.2402 8.96484 16.6162 9.59473Q16.9922 10.2246 16.9922 10.9961Q16.9922 11.7676 16.6162 12.3975Q16.2402 13.0273 15.6055 13.4033Q14.9707 13.7793 14.1992 13.7793Q13.4375 13.7793 12.8027 13.4033Q12.168 13.0273 11.792 12.3975Q11.416 11.7676 11.416 10.9961Q11.416 10.2051 11.8115 9.56543Q12.207 8.92578 12.8418 8.57422L12.5879 7.95898L10.0195 10.9473Q9.85352 11.1328 9.68262 11.1963Q9.51172 11.2598 9.21875 11.2598L8.14453 11.2598Q8.07617 11.9727 7.69043 12.5439Q7.30469 13.1152 6.69434 13.4473Q6.08398 13.7793 5.37109 13.7793Q4.59961 13.7793 3.96484 13.4033Q3.33008 13.0273 2.9541 12.3975Q2.57812 11.7676 2.57812 10.9961ZM3.30078 10.9863Q3.30078 11.8555 3.90625 12.4609Q4.51172 13.0664 5.38086 13.0664Q6.24023 13.0664 6.8457 12.4609Q7.45117 11.8555 7.45117 10.9863Q7.45117 10.2637 7.01172 9.69727L5.98633 10.8594Q5.99609 10.9375 5.99609 10.9961Q5.99609 11.2695 5.81055 11.4551Q5.625 11.6406 5.37109 11.6406Q5.09766 11.6406 4.91211 11.4551Q4.72656 11.2695 4.72656 10.9961Q4.72656 10.7129 4.94141 10.5225Q5.15625 10.332 5.46875 10.3711L6.46484 9.21875Q6.23047 9.08203 5.95215 8.99414Q5.67383 8.90625 5.38086 8.90625Q4.50195 8.90625 3.90137 9.51172Q3.30078 10.1172 3.30078 10.9863ZM12.1387 10.9863Q12.1387 11.8555 12.7441 12.4609Q13.3496 13.0664 14.2188 13.0664Q15.0684 13.0664 15.6787 12.4609Q16.2891 11.8555 16.2891 10.9863Q16.2891 10.127 15.6787 9.5166Q15.0684 8.90625 14.2188 8.90625Q13.9746 8.90625 13.7598 8.96484L14.3262 10.3711Q14.541 10.4102 14.6973 10.5811Q14.8535 10.752 14.8535 10.9961Q14.8535 11.2695 14.668 11.4551Q14.4824 11.6406 14.2188 11.6406Q13.9453 11.6406 13.7598 11.4551Q13.5742 11.2695 13.5742 10.9961Q13.5742 10.8301 13.6816 10.6641L13.1055 9.23828Q12.666 9.51172 12.4023 9.96582Q12.1387 10.4199 12.1387 10.9863ZM8.7207 8.33984L9.76562 10.1953L11.7773 7.86133ZM7.48047 9.17969Q7.72461 9.47266 7.89551 9.8291Q8.06641 10.1855 8.125 10.5859L9.17969 10.5859L8.03711 8.54492Z"
                     fill="#ffffff" />
       </g>
</svg>