<svg width="11.248" height="14.0109">
       <g>
              <rect height="14.0109" opacity="0" width="11.248" x="0" y="0" />
              <path d="M1.39908 14.0073L6.37192 14.0073Q7.87521 14.0073 8.96896 13.5201Q10.0627 13.033 10.6554 12.1425Q11.248 11.252 11.248 10.038Q11.248 9.08096 10.8232 8.33878Q10.3984 7.59659 9.6431 7.14432Q8.88779 6.69205 7.8978 6.62506L7.8978 6.54999Q8.68713 6.42975 9.29482 6.00258Q9.9025 5.57541 10.2443 4.92821Q10.5861 4.28101 10.5861 3.50952Q10.5861 2.43469 10.0554 1.6452Q9.52469 0.855713 8.55865 0.427856Q7.59262 0 6.26862 0L1.39908 0Q0.738983 0 0.369492 0.3759Q0 0.751801 0 1.43509L0 12.5818Q0 13.2555 0.369492 13.6314Q0.738983 14.0073 1.39908 14.0073ZM2.75955 11.9844L2.75955 7.74429L5.49515 7.74429Q6.92352 7.74429 7.68318 8.28247Q8.44284 8.82065 8.44284 9.84604Q8.44284 10.8847 7.71027 11.4346Q6.97769 11.9844 5.59692 11.9844ZM2.75955 5.90378L2.75955 2.04971L5.47668 2.04971Q6.59897 2.04971 7.22809 2.54128Q7.85721 3.03284 7.85721 3.91235Q7.85721 4.85275 7.15248 5.37827Q6.44775 5.90378 5.17807 5.90378Z"
                     fill="rgba(255,255,255,0.85)" />
       </g>
</svg>