<svg width="36.4349" height="20.1865">
       <g>
              <rect height="20.1865" opacity="0" width="36.4349" x="0" y="0" />
              <path d="M25.8128 20.1865L35.9579 20.1865Q36.1658 20.1865 36.3004 20.0538Q36.4349 19.9211 36.4349 19.7253Q36.4349 19.5229 36.3004 19.3902Q36.1658 19.2575 35.9579 19.2575L25.8128 19.2575Q25.6215 19.2575 25.4805 19.3902Q25.3395 19.5229 25.3395 19.7253Q25.3395 19.9211 25.4805 20.0538Q25.6215 20.1865 25.8128 20.1865Z"
                     fill="#ff453a" />
              <path d="M1.39908 17.095L6.37192 17.095Q7.87521 17.095 8.96896 16.6079Q10.0627 16.1208 10.6554 15.2303Q11.248 14.3398 11.248 13.1258Q11.248 12.1687 10.8232 11.4265Q10.3984 10.6844 9.6431 10.2321Q8.88779 9.77982 7.8978 9.71283L7.8978 9.63776Q8.68713 9.51752 9.29482 9.09035Q9.9025 8.66318 10.2443 8.01598Q10.5861 7.36877 10.5861 6.59729Q10.5861 5.52246 10.0554 4.73297Q9.52469 3.94348 8.55865 3.51562Q7.59262 3.08777 6.26862 3.08777L1.39908 3.08777Q0.738983 3.08777 0.369492 3.46367Q0 3.83957 0 4.52286L0 15.6696Q0 16.3432 0.369492 16.7191Q0.738983 17.095 1.39908 17.095ZM2.75955 15.0722L2.75955 10.8321L5.49515 10.8321Q6.92352 10.8321 7.68318 11.3702Q8.44284 11.9084 8.44284 12.9338Q8.44284 13.9725 7.71027 14.5223Q6.97769 15.0722 5.59692 15.0722ZM2.75955 8.99155L2.75955 5.13748L5.47668 5.13748Q6.59897 5.13748 7.22809 5.62904Q7.85721 6.12061 7.85721 7.00012Q7.85721 7.94052 7.15248 8.46603Q6.44775 8.99155 5.17807 8.99155ZM13.2234 17.092L19.4739 17.092Q19.7371 17.092 19.9038 16.9357Q20.0705 16.7793 20.0705 16.5193Q20.0705 16.263 19.9072 16.1131Q19.7438 15.9631 19.4807 15.9631L17.0261 15.9631L19.5474 4.21356L21.9954 4.21356Q22.2554 4.21356 22.4236 4.05876Q22.5919 3.90396 22.5919 3.64395Q22.5919 3.38455 22.427 3.23463Q22.2621 3.08472 22.0021 3.08472L15.7381 3.08472Q15.4749 3.08472 15.3115 3.23463Q15.1482 3.38455 15.1482 3.64395Q15.1482 3.90396 15.3149 4.05876Q15.4817 4.21356 15.7417 4.21356L18.1859 4.21356L15.6645 15.9631L13.2166 15.9631Q12.9498 15.9631 12.785 16.1131Q12.6201 16.263 12.6201 16.5193Q12.6201 16.7793 12.7883 16.9357Q12.9565 17.092 13.2234 17.092ZM30.8839 17.3428Q32.5999 17.3428 33.8441 16.6958Q35.0883 16.0487 35.7616 14.8942Q36.4349 13.7396 36.4349 12.2034L36.4349 3.57086Q36.4349 3.26065 36.2465 3.07556Q36.058 2.89047 35.7507 2.89047Q35.4338 2.89047 35.2536 3.07556Q35.0734 3.26065 35.0734 3.57086L35.0734 12.1024Q35.0734 13.9027 33.962 14.9937Q32.8506 16.0846 30.8839 16.0846Q29.5815 16.0846 28.6475 15.5893Q27.7136 15.094 27.2074 14.1962Q26.7012 13.2983 26.7012 12.1024L26.7012 3.57086Q26.7012 3.26065 26.5142 3.07556Q26.3272 2.89047 26.017 2.89047Q25.7098 2.89047 25.5247 3.07556Q25.3395 3.26065 25.3395 3.57086L25.3395 12.2034Q25.3395 13.7396 26.0178 14.8942Q26.696 16.0487 27.9353 16.6958Q29.1745 17.3428 30.8839 17.3428Z"
                     fill="rgba(255,255,255,0.85)" />
       </g>
</svg>