<svg width="25.6659" height="20.1865">
       <g>
              <rect height="20.1865" opacity="0" width="25.6659" x="0" y="0" />
              <path d="M15.0536 20.1865L25.1987 20.1865Q25.3967 20.1865 25.5313 20.0538Q25.6659 19.9211 25.6659 19.7253Q25.6659 19.5229 25.5313 19.3902Q25.3967 19.2575 25.1987 19.2575L15.0536 19.2575Q14.8524 19.2575 14.7163 19.3902Q14.5802 19.5229 14.5802 19.7253Q14.5802 19.9211 14.7163 20.0538Q14.8524 20.1865 15.0536 20.1865Z"
                     fill="#ff453a" />
              <path d="M1.39908 17.095L6.37192 17.095Q7.87521 17.095 8.96896 16.6079Q10.0627 16.1208 10.6554 15.2303Q11.248 14.3398 11.248 13.1258Q11.248 12.1687 10.8232 11.4265Q10.3984 10.6844 9.6431 10.2321Q8.88779 9.77982 7.8978 9.71283L7.8978 9.63776Q8.68713 9.51752 9.29482 9.09035Q9.9025 8.66318 10.2443 8.01598Q10.5861 7.36877 10.5861 6.59729Q10.5861 5.52246 10.0554 4.73297Q9.52469 3.94348 8.55865 3.51562Q7.59262 3.08777 6.26862 3.08777L1.39908 3.08777Q0.738983 3.08777 0.369492 3.46367Q0 3.83957 0 4.52286L0 15.6696Q0 16.3432 0.369492 16.7191Q0.738983 17.095 1.39908 17.095ZM2.75955 15.0722L2.75955 10.8321L5.49515 10.8321Q6.92352 10.8321 7.68318 11.3702Q8.44284 11.9084 8.44284 12.9338Q8.44284 13.9725 7.71027 14.5223Q6.97769 15.0722 5.59692 15.0722ZM2.75955 8.99155L2.75955 5.13748L5.47668 5.13748Q6.59897 5.13748 7.22809 5.62904Q7.85721 6.12061 7.85721 7.00012Q7.85721 7.94052 7.15248 8.46603Q6.44775 8.99155 5.17807 8.99155ZM20.1247 17.3428Q21.8309 17.3428 23.0751 16.6958Q24.3193 16.0487 24.9926 14.8942Q25.6659 13.7396 25.6659 12.2034L25.6659 3.57086Q25.6659 3.26065 25.479 3.07556Q25.2921 2.89047 24.9817 2.89047Q24.6745 2.89047 24.4894 3.07556Q24.3044 3.26065 24.3044 3.57086L24.3044 12.1024Q24.3044 13.9027 23.193 14.9937Q22.0816 16.0846 20.1247 16.0846Q18.8222 16.0846 17.8834 15.5893Q16.9446 15.094 16.4433 14.1962Q15.9419 13.2983 15.9419 12.1024L15.9419 3.57086Q15.9419 3.26065 15.75 3.07556Q15.5582 2.89047 15.251 2.89047Q14.9408 2.89047 14.7605 3.07556Q14.5802 3.26065 14.5802 3.57086L14.5802 12.2034Q14.5802 13.7396 15.2536 14.8942Q15.927 16.0487 17.1711 16.6958Q18.4152 17.3428 20.1247 17.3428Z"
                     fill="rgba(255,255,255,0.85)" />
       </g>
</svg>