<svg width="22.7051" height="17.8809">
       <g>
              <rect height="17.8809" opacity="0" width="22.7051" x="0" y="0" />
              <path d="M11.3574 15.2637Q12.5586 15.2637 13.9111 15.2344Q15.2637 15.2051 16.5723 15.1514Q17.8809 15.0977 18.9746 15.0293Q20.0684 14.9609 20.7617 14.8828Q21.6895 14.7754 22.1973 14.2822Q22.7051 13.7891 22.7051 12.8809L22.7051 11.1621Q22.7051 10.3125 22.583 9.69727Q22.4609 9.08203 22.1924 8.56445Q21.9238 8.04688 21.5039 7.5L20.6543 6.41602Q20.4785 5.53711 20.2344 4.67773Q19.9902 3.81836 19.7412 3.13477Q19.4922 2.45117 19.3262 2.08984Q18.9355 1.25977 18.2129 0.805664Q17.4902 0.351562 16.5918 0.234375Q16.2598 0.185547 15.4785 0.15625Q14.6973 0.126953 13.623 0.112305Q12.5488 0.0976562 11.3574 0.0976562Q10.1562 0.0976562 9.08691 0.117188Q8.01758 0.136719 7.23633 0.166016Q6.45508 0.195312 6.12305 0.234375Q5.21484 0.341797 4.49707 0.800781Q3.7793 1.25977 3.38867 2.08984Q3.22266 2.45117 2.97363 3.13477Q2.72461 3.81836 2.47559 4.67773Q2.22656 5.53711 2.05078 6.41602L1.21094 7.5Q0.791016 8.04688 0.522461 8.56445Q0.253906 9.08203 0.126953 9.69727Q0 10.3125 0 11.1621L0 12.8809Q0 13.7891 0.512695 14.2822Q1.02539 14.7754 1.94336 14.8828Q2.63672 14.9609 3.73047 15.0293Q4.82422 15.0977 6.13281 15.1514Q7.44141 15.2051 8.79395 15.2344Q10.1465 15.2637 11.3574 15.2637ZM1.26953 17.8809L2.38281 17.8809Q2.91992 17.8809 3.28125 17.5195Q3.64258 17.1582 3.64258 16.6211L3.64258 14.248L0 12.5098L0 16.6211Q0 17.1582 0.361328 17.5195Q0.722656 17.8809 1.26953 17.8809ZM20.3223 17.8809L21.4453 17.8809Q21.9824 17.8809 22.3438 17.5195Q22.7051 17.1582 22.7051 16.6211L22.7051 12.5098L19.0723 14.248L19.0723 16.6211Q19.0723 17.1582 19.4336 17.5195Q19.7949 17.8809 20.3223 17.8809Z"
                     fill="#32d74b" />
              <path d="M8.22266 8.28125Q8.22266 8.1543 8.33984 8.01758L12.4316 2.86133Q12.5684 2.68555 12.7295 2.69043Q12.8906 2.69531 12.9785 2.82227Q13.0664 2.94922 12.9883 3.16406L11.6211 6.82617L14.1602 6.82617Q14.2871 6.82617 14.3701 6.9043Q14.4531 6.98242 14.4531 7.09961Q14.4531 7.22656 14.3359 7.36328L10.2441 12.5195Q10.1074 12.6855 9.94629 12.6807Q9.78516 12.6758 9.69727 12.5488Q9.60938 12.4219 9.6875 12.207L11.0645 8.53516L8.50586 8.53516Q8.39844 8.53516 8.31055 8.46191Q8.22266 8.38867 8.22266 8.28125Z"
                     fill="#ffffff" />
       </g>
</svg>