<svg width="23.9648" height="17.8223">
       <g>
              <rect height="17.8223" opacity="0" width="23.9648" x="0" y="0" />
              <path d="M18.9062 16.4453Q19.9707 16.4453 20.8936 16.0938Q21.8164 15.7422 22.5049 15.1123Q23.1934 14.4824 23.5791 13.6426Q23.9648 12.8027 23.9648 11.8457Q23.9648 10.8496 23.6084 9.9707Q23.252 9.0918 22.5732 8.41797Q21.8945 7.74414 20.9277 7.38281Q20.9473 5.78125 20.4395 4.43359Q19.9316 3.08594 18.9893 2.08984Q18.0469 1.09375 16.792 0.546875Q15.5371 0 14.0723 0Q12.7441 0 11.6895 0.43457Q10.6348 0.869141 9.83398 1.59668Q9.0332 2.32422 8.49609 3.20312Q7.61719 2.90039 6.74316 3.05664Q5.86914 3.21289 5.14648 3.74023Q4.42383 4.26758 3.98438 5.08301Q3.54492 5.89844 3.54492 6.9043Q2.4707 7.03125 1.66992 7.65137Q0.869141 8.27148 0.43457 9.23828Q0 10.2051 0 11.377Q0 12.4219 0.424805 13.3398Q0.849609 14.2578 1.61133 14.9512Q2.37305 15.6445 3.39844 16.04Q4.42383 16.4355 5.625 16.4355Z"
                     fill="rgba(255,255,255,0.55)" />
              <path d="M5.625 10.918L9.02344 6.5332Q9.25781 6.25 9.52148 6.25Q9.61914 6.25 9.72656 6.28906Q9.83398 6.32812 9.94141 6.38672L14.4336 8.78906L17.7832 6.94336Q18.0371 6.81641 18.2275 6.89453Q18.418 6.97266 18.4717 7.16797Q18.5254 7.36328 18.3594 7.59766L14.9609 11.9824Q14.7363 12.2754 14.4531 12.2754Q14.2773 12.2754 14.0332 12.1387L9.55078 9.72656L6.19141 11.582Q5.95703 11.709 5.75684 11.6357Q5.55664 11.5625 5.49805 11.3623Q5.43945 11.1621 5.625 10.918Z"
                     fill="#ffffff" />
       </g>
</svg>