<svg width="19.5898" height="19.5996">
       <g>
              <rect height="19.5996" opacity="0" width="19.5898" x="0" y="0" />
              <path d="M9.79492 19.5996Q11.8066 19.5996 13.5791 18.833Q15.3516 18.0664 16.7041 16.7139Q18.0566 15.3613 18.8232 13.5889Q19.5898 11.8164 19.5898 9.80469Q19.5898 7.79297 18.8232 6.02051Q18.0566 4.24805 16.7041 2.89551Q15.3516 1.54297 13.5742 0.776367Q11.7969 0.00976562 9.78516 0.00976562Q7.77344 0.00976562 6.00098 0.776367Q4.22852 1.54297 2.88086 2.89551Q1.5332 4.24805 0.766602 6.02051Q0 7.79297 0 9.80469Q0 11.8164 0.766602 13.5889Q1.5332 15.3613 2.88574 16.7139Q4.23828 18.0664 6.01074 18.833Q7.7832 19.5996 9.79492 19.5996Z"
                     fill="#32d74b" />
              <path d="M4.26758 13.2227L4.26758 10.5664Q4.26758 9.96094 4.40918 9.5752Q4.55078 9.18945 4.86328 8.79883L5.27344 8.26172Q5.40039 7.61719 5.5957 7.0166Q5.79102 6.41602 5.91797 6.15234Q6.10352 5.75195 6.45508 5.53223Q6.80664 5.3125 7.24609 5.25391Q7.49023 5.22461 8.20801 5.20996Q8.92578 5.19531 9.79492 5.19531Q10.6641 5.19531 11.3818 5.20996Q12.0996 5.22461 12.3438 5.25391Q12.7832 5.32227 13.1348 5.53711Q13.4863 5.75195 13.6719 6.15234Q13.7988 6.41602 13.9941 7.0166Q14.1895 7.61719 14.3262 8.26172L14.7363 8.79883Q15.0293 9.18945 15.1758 9.5752Q15.3223 9.96094 15.3223 10.5664L15.3223 13.2227Q15.3223 13.4863 15.1465 13.6621Q14.9707 13.8379 14.707 13.8379L14.1504 13.8379Q13.8965 13.8379 13.7207 13.6621Q13.5449 13.4863 13.5449 13.2227L13.5449 12.4512Q12.7539 12.5 11.7236 12.5293Q10.6934 12.5586 9.79492 12.5586Q8.89648 12.5586 7.86621 12.5293Q6.83594 12.5 6.04492 12.4512L6.04492 13.2227Q6.04492 13.4863 5.86914 13.6621Q5.69336 13.8379 5.42969 13.8379L4.87305 13.8379Q4.61914 13.8379 4.44336 13.6621Q4.26758 13.4863 4.26758 13.2227ZM8.20312 9.20898Q8.20312 9.36523 8.35938 9.36523L9.62891 9.36523L8.98438 11.0938Q8.90625 11.2891 9.05273 11.3623Q9.19922 11.4355 9.31641 11.2793L11.3281 8.68164Q11.3867 8.60352 11.3867 8.51562Q11.3867 8.34961 11.2207 8.34961L9.96094 8.34961L10.6152 6.62109Q10.6836 6.43555 10.542 6.3623Q10.4004 6.28906 10.2832 6.45508L8.26172 9.0625Q8.20312 9.13086 8.20312 9.20898Z"
                     fill="#ffffff" />
       </g>
</svg>