<svg width="13.2089" height="21.4135">
       <g>
              <rect height="21.4135" opacity="0" width="13.2089" x="0" y="0" />
              <path d="M0 11.8679Q0 12.0755 0.142365 12.2205Q0.284729 12.3655 0.536652 12.3655L6.10275 12.3655L3.14713 20.3634Q3.03085 20.6686 3.10249 20.8845Q3.17413 21.1004 3.35365 21.1953Q3.53317 21.2901 3.76068 21.2305Q3.98819 21.1709 4.18396 20.9288L12.9913 9.89849Q13.2089 9.6217 13.2089 9.37954Q13.2089 9.17507 13.0666 9.02851Q12.9242 8.88195 12.6723 8.88195L7.10922 8.88195L10.0618 0.886957Q10.181 0.585596 10.1094 0.369684Q10.0378 0.153772 9.8568 0.0589389Q9.67575-0.0358944 9.44824 0.0218601Q9.22073 0.0796146 9.02802 0.325434L0.21759 11.349Q0 11.6356 0 11.8679Z"
                     fill="#ffd60a" />
       </g>
</svg>