<svg width="22.7051" height="17.8809">
       <g>
              <rect height="17.8809" opacity="0" width="22.7051" x="0" y="0" />
              <path d="M11.3574 15.2637Q12.5586 15.2637 13.9111 15.2344Q15.2637 15.2051 16.5723 15.1514Q17.8809 15.0977 18.9746 15.0293Q20.0684 14.9609 20.7617 14.8828Q21.6895 14.7754 22.1973 14.2822Q22.7051 13.7891 22.7051 12.8809L22.7051 11.1621Q22.7051 10.3125 22.583 9.69727Q22.4609 9.08203 22.1924 8.56445Q21.9238 8.04688 21.5039 7.5L20.6543 6.41602Q20.4785 5.53711 20.2344 4.67773Q19.9902 3.81836 19.7412 3.13477Q19.4922 2.45117 19.3262 2.08984Q18.9355 1.25977 18.2129 0.805664Q17.4902 0.351562 16.5918 0.234375Q16.2598 0.185547 15.4785 0.15625Q14.6973 0.126953 13.623 0.112305Q12.5488 0.0976562 11.3574 0.0976562Q10.1562 0.0976562 9.08691 0.117188Q8.01758 0.136719 7.23633 0.166016Q6.45508 0.195312 6.12305 0.234375Q5.21484 0.341797 4.49707 0.800781Q3.7793 1.25977 3.38867 2.08984Q3.22266 2.45117 2.97363 3.13477Q2.72461 3.81836 2.47559 4.67773Q2.22656 5.53711 2.05078 6.41602L1.21094 7.5Q0.791016 8.04688 0.522461 8.56445Q0.253906 9.08203 0.126953 9.69727Q0 10.3125 0 11.1621L0 12.8809Q0 13.7891 0.512695 14.2822Q1.02539 14.7754 1.94336 14.8828Q2.63672 14.9609 3.73047 15.0293Q4.82422 15.0977 6.13281 15.1514Q7.44141 15.2051 8.79395 15.2344Q10.1465 15.2637 11.3574 15.2637ZM11.3574 14.248Q10.1465 14.248 8.80371 14.2188Q7.46094 14.1895 6.18164 14.1455Q4.90234 14.1016 3.85742 14.0332Q2.8125 13.9648 2.1875 13.8867Q1.55273 13.8086 1.28418 13.4961Q1.01562 13.1836 1.01562 12.627L1.01562 11.1621Q1.01562 10.4785 1.10352 9.99023Q1.19141 9.50195 1.41113 9.06738Q1.63086 8.63281 2.02148 8.125L2.99805 6.8457Q3.10547 6.26953 3.2666 5.64453Q3.42773 5.01953 3.61328 4.42871Q3.79883 3.83789 3.98438 3.34473Q4.16992 2.85156 4.31641 2.53906Q4.57031 2.00195 5.05371 1.6748Q5.53711 1.34766 6.24023 1.26953Q6.55273 1.23047 7.28516 1.19141Q8.01758 1.15234 9.06738 1.13281Q10.1172 1.11328 11.3574 1.11328Q12.6074 1.11328 13.6523 1.13281Q14.6973 1.15234 15.4346 1.19141Q16.1719 1.23047 16.4551 1.26953Q17.1777 1.35742 17.6611 1.68457Q18.1445 2.01172 18.3984 2.53906Q18.5449 2.85156 18.7305 3.34473Q18.916 3.83789 19.1016 4.42871Q19.2871 5.01953 19.4482 5.64453Q19.6094 6.26953 19.7168 6.8457L20.6934 8.125Q21.0938 8.63281 21.3086 9.06738Q21.5234 9.50195 21.6113 9.99023Q21.6992 10.4785 21.6992 11.1621L21.6992 12.627Q21.6992 13.1836 21.4307 13.501Q21.1621 13.8184 20.5176 13.8867Q19.9023 13.9648 18.8574 14.0234Q17.8125 14.082 16.5332 14.1357Q15.2539 14.1895 13.9111 14.2188Q12.5684 14.248 11.3574 14.248ZM1.76758 17.8809L2.88086 17.8809Q3.41797 17.8809 3.7793 17.5195Q4.14062 17.1582 4.14062 16.6211L4.14062 14.4922L0.498047 13.9844L0.498047 16.6211Q0.498047 17.1484 0.859375 17.5146Q1.2207 17.8809 1.76758 17.8809ZM19.8242 17.8809L20.9473 17.8809Q21.4844 17.8809 21.8457 17.5195Q22.207 17.1582 22.207 16.6211L22.207 13.9844L18.5742 14.4922L18.5742 16.6211Q18.5742 17.1582 18.9355 17.5195Q19.2969 17.8809 19.8242 17.8809Z"
                     fill="rgba(255,255,255,0.55)" />
              <path d="M8.28125 8.25195Q8.28125 8.35938 8.36426 8.43262Q8.44727 8.50586 8.56445 8.50586L11.0645 8.50586L9.7168 12.1094Q9.63867 12.3145 9.72656 12.4414Q9.81445 12.5684 9.9707 12.5732Q10.127 12.5781 10.2637 12.4121L14.2676 7.36328Q14.3848 7.22656 14.3848 7.09961Q14.3848 6.98242 14.3018 6.90918Q14.2188 6.83594 14.1016 6.83594L11.6113 6.83594L12.9395 3.25195Q13.0273 3.03711 12.9395 2.91504Q12.8516 2.79297 12.6953 2.78809Q12.5391 2.7832 12.4121 2.94922L8.38867 7.99805Q8.28125 8.14453 8.28125 8.25195Z"
                     fill="#32d74b" />
       </g>
</svg>