<svg width="19.5898" height="19.5996">
       <g>
              <rect height="19.5996" opacity="0" width="19.5898" x="0" y="0" />
              <path d="M9.79492 19.5898Q11.8066 19.5898 13.5791 18.8232Q15.3516 18.0566 16.7041 16.7041Q18.0566 15.3516 18.8232 13.5791Q19.5898 11.8066 19.5898 9.79492Q19.5898 7.7832 18.8232 6.01074Q18.0566 4.23828 16.7041 2.88574Q15.3516 1.5332 13.5742 0.766602Q11.7969 0 9.78516 0Q7.77344 0 6.00098 0.766602Q4.22852 1.5332 2.88086 2.88574Q1.5332 4.23828 0.766602 6.01074Q0 7.7832 0 9.79492Q0 11.8066 0.766602 13.5791Q1.5332 15.3516 2.88574 16.7041Q4.23828 18.0566 6.01074 18.8232Q7.7832 19.5898 9.79492 19.5898ZM9.79492 18.3203Q8.02734 18.3203 6.47949 17.6611Q4.93164 17.002 3.75977 15.8301Q2.58789 14.6582 1.92871 13.1104Q1.26953 11.5625 1.26953 9.79492Q1.26953 8.02734 1.92871 6.47949Q2.58789 4.93164 3.75977 3.75488Q4.93164 2.57812 6.47461 1.91895Q8.01758 1.25977 9.78516 1.25977Q11.5625 1.25977 13.1104 1.91895Q14.6582 2.57812 15.8301 3.75488Q17.002 4.93164 17.666 6.47949Q18.3301 8.02734 18.3301 9.79492Q18.3301 11.5625 17.666 13.1104Q17.002 14.6582 15.8301 15.8301Q14.6582 17.002 13.1152 17.6611Q11.5723 18.3203 9.79492 18.3203Z"
                     fill="#32d74b" />
              <path d="M4.375 13.1445Q4.375 13.3984 4.5459 13.5693Q4.7168 13.7402 4.9707 13.7402L5.51758 13.7402Q5.76172 13.7402 5.9375 13.5693Q6.11328 13.3984 6.11328 13.1445L6.11328 12.3828Q6.88477 12.4316 7.90039 12.4609Q8.91602 12.4902 9.79492 12.4902Q10.6738 12.4902 11.6846 12.4609Q12.6953 12.4316 13.4668 12.3828L13.4668 13.1445Q13.4668 13.3984 13.6426 13.5693Q13.8184 13.7402 14.0723 13.7402L14.6094 13.7402Q14.8633 13.7402 15.0391 13.5693Q15.2148 13.3984 15.2148 13.1445L15.2148 10.5371Q15.2148 9.94141 15.0732 9.56543Q14.9316 9.18945 14.6289 8.79883L14.2383 8.28125Q14.1016 7.64648 13.9062 7.05566Q13.7109 6.46484 13.5938 6.21094Q13.4082 5.82031 13.0664 5.60547Q12.7246 5.39062 12.2949 5.33203Q12.0508 5.30273 11.3477 5.2832Q10.6445 5.26367 9.79492 5.26367Q8.94531 5.26367 8.24219 5.2832Q7.53906 5.30273 7.29492 5.33203Q6.86523 5.39062 6.52344 5.60547Q6.18164 5.82031 5.99609 6.21094Q5.87891 6.46484 5.67871 7.05566Q5.47852 7.64648 5.36133 8.28125L4.95117 8.79883Q4.6582 9.18945 4.5166 9.56543Q4.375 9.94141 4.375 10.5371ZM8.23242 9.20898Q8.23242 9.13086 8.29102 9.05273L10.2734 6.50391Q10.3906 6.33789 10.5273 6.41113Q10.6641 6.48438 10.5957 6.66992L9.95117 8.35938L11.1816 8.35938Q11.3574 8.35938 11.3574 8.53516Q11.3574 8.60352 11.2891 8.68164L9.31641 11.2305Q9.20898 11.3867 9.06738 11.3135Q8.92578 11.2402 8.99414 11.0547L9.62891 9.35547L8.38867 9.35547Q8.23242 9.35547 8.23242 9.20898Z"
                     fill="#32d74b" />
       </g>
</svg>