<svg width="19.0379" height="17.9865">
       <g>
              <rect height="17.9865" opacity="0" width="19.0379" x="0" y="0" />
              <path d="M9.51569 17.9865Q9.65073 17.9865 9.81911 17.9186Q9.98749 17.8508 10.1195 17.7652Q12.8008 16.0286 14.8053 14.1362Q16.8098 12.2438 17.9239 10.2515Q19.0379 8.25928 19.0379 6.22467Q19.0379 4.96826 18.635 3.92242Q18.2321 2.87659 17.5096 2.10983Q16.7871 1.34308 15.8201 0.925446Q14.8531 0.507812 13.7219 0.507812Q12.3506 0.507812 11.2485 1.2233Q10.1463 1.93878 9.51569 3.13446Q8.89465 1.9455 7.79099 1.22665Q6.68732 0.507812 5.31235 0.507812Q4.18793 0.507812 3.21938 0.925446Q2.25082 1.34308 1.52832 2.10983Q0.805817 2.87659 0.402908 3.92242Q0 4.96826 0 6.22467Q0 8.25928 1.11412 10.2515Q2.22824 12.2438 4.23271 14.1362Q6.23718 16.0286 8.92151 17.7652Q9.0535 17.8508 9.22043 17.9186Q9.38736 17.9865 9.51569 17.9865Z"
                     fill="rgba(255,255,255,0.55)" />
              <path d="M6.19263 10.3145Q6.19263 10.1891 6.30447 10.0487L10.4044 4.89853Q10.5424 4.72748 10.7004 4.73083Q10.8583 4.73419 10.9472 4.86252Q11.0361 4.99084 10.9573 5.20477L9.59595 8.86612L12.1315 8.86612Q12.2501 8.86612 12.3409 8.94371Q12.4316 9.0213 12.4316 9.13681Q12.4316 9.2659 12.307 9.40262L8.21701 14.5528Q8.07892 14.7171 7.91756 14.7137Q7.7562 14.7104 7.66731 14.5821Q7.57843 14.4537 7.66022 14.2496L9.02847 10.5754L6.48605 10.5754Q6.36749 10.5754 6.28006 10.4993Q6.19263 10.4233 6.19263 10.3145Z"
                     fill="#ffffff" />
       </g>
</svg>