<svg width="19.5898" height="19.5996">
       <g>
              <rect height="19.5996" opacity="0" width="19.5898" x="0" y="0" />
              <path d="M9.79492 19.5996Q11.8066 19.5996 13.5791 18.833Q15.3516 18.0664 16.7041 16.7139Q18.0566 15.3613 18.8232 13.5889Q19.5898 11.8164 19.5898 9.80469Q19.5898 7.79297 18.8232 6.02051Q18.0566 4.24805 16.7041 2.89551Q15.3516 1.54297 13.5742 0.776367Q11.7969 0.00976562 9.78516 0.00976562Q7.77344 0.00976562 6.00098 0.776367Q4.22852 1.54297 2.88086 2.89551Q1.5332 4.24805 0.766602 6.02051Q0 7.79297 0 9.80469Q0 11.8164 0.766602 13.5889Q1.5332 15.3613 2.88574 16.7139Q4.23828 18.0664 6.01074 18.833Q7.7832 19.5996 9.79492 19.5996Z"
                     fill="rgba(255,255,255,0.55)" />
              <path d="M3.4375 11.8262L6.83594 7.44141Q7.07031 7.1582 7.33398 7.1582Q7.43164 7.1582 7.53906 7.19727Q7.64648 7.23633 7.75391 7.29492L12.2461 9.69727L15.5957 7.85156Q15.8496 7.72461 16.04 7.80273Q16.2305 7.88086 16.2842 8.07617Q16.3379 8.27148 16.1719 8.50586L12.7734 12.8906Q12.5488 13.1836 12.2656 13.1836Q12.0898 13.1836 11.8457 13.0469L7.36328 10.6348L4.00391 12.4902Q3.76953 12.6172 3.56934 12.5439Q3.36914 12.4707 3.31055 12.2705Q3.25195 12.0703 3.4375 11.8262Z"
                     fill="#ffffff" />
       </g>
</svg>