<svg width="17.6855" height="17.7051">
       <g>
              <rect height="17.7051" opacity="0" width="17.6855" x="0" y="0" />
              <path d="M2.88086 17.7051L14.8047 17.7051Q16.2305 17.7051 16.958 16.9873Q17.6855 16.2695 17.6855 14.8535L17.6855 2.88086Q17.6855 1.46484 16.958 0.742188Q16.2305 0.0195312 14.8047 0.0195312L2.88086 0.0195312Q1.44531 0.0195312 0.722656 0.737305Q0 1.45508 0 2.88086L0 14.8535Q0 16.2695 0.722656 16.9873Q1.44531 17.7051 2.88086 17.7051Z"
                     fill="#ffd60a" />
              <path d="M4.43359 9.58008Q4.43359 9.41406 4.58008 9.22852L10.1953 2.1875Q10.3809 1.95312 10.6006 1.95801Q10.8203 1.96289 10.9424 2.13867Q11.0645 2.31445 10.9473 2.59766L9.08203 7.61719L12.5586 7.61719Q12.7246 7.61719 12.8369 7.72461Q12.9492 7.83203 12.9492 7.99805Q12.9492 8.16406 12.8027 8.34961L7.19727 15.3906Q7.01172 15.625 6.79199 15.6201Q6.57227 15.6152 6.4502 15.4346Q6.32812 15.2539 6.43555 14.9707L8.31055 9.95117L4.82422 9.95117Q4.6582 9.95117 4.5459 9.84863Q4.43359 9.74609 4.43359 9.58008Z"
                     fill="#ffffff" />
       </g>
</svg>