<svg width="19.5898" height="19.5996">
       <g>
              <rect height="19.5996" opacity="0" width="19.5898" x="0" y="0" />
              <path d="M9.79492 19.5996Q11.8066 19.5996 13.5791 18.833Q15.3516 18.0664 16.7041 16.7139Q18.0566 15.3613 18.8232 13.5889Q19.5898 11.8164 19.5898 9.80469Q19.5898 7.79297 18.8232 6.02051Q18.0566 4.24805 16.7041 2.89551Q15.3516 1.54297 13.5742 0.776367Q11.7969 0.00976562 9.78516 0.00976562Q7.77344 0.00976562 6.00098 0.776367Q4.22852 1.54297 2.88086 2.89551Q1.5332 4.24805 0.766602 6.02051Q0 7.79297 0 9.80469Q0 11.8164 0.766602 13.5889Q1.5332 15.3613 2.88574 16.7139Q4.23828 18.0664 6.01074 18.833Q7.7832 19.5996 9.79492 19.5996Z"
                     fill="rgba(255,255,255,0.55)" />
              <path d="M11.8848 3.56445L10.0195 8.54492L8.25195 6.77734L11.1426 3.1543Q11.3184 2.91992 11.5332 2.9248Q11.748 2.92969 11.8701 3.10547Q11.9922 3.28125 11.8848 3.56445ZM10.1367 8.64258L13.4473 8.64258Q13.6133 8.64258 13.7305 8.75Q13.8477 8.85742 13.8477 9.02344Q13.8477 9.17969 13.7012 9.38477L12.4512 10.957ZM9.19922 10.6445L5.99609 10.6445Q5.82031 10.6445 5.70801 10.542Q5.5957 10.4395 5.5957 10.2734Q5.5957 10.127 5.74219 9.91211L6.96289 8.39844ZM11.1426 12.5781L8.13477 16.3574Q7.94922 16.5918 7.73438 16.5869Q7.51953 16.582 7.39746 16.4014Q7.27539 16.2207 7.38281 15.9375L9.30664 10.7422ZM14.6387 15.1953L4.39453 4.94141Q4.28711 4.83398 4.28711 4.67285Q4.28711 4.51172 4.39453 4.39453Q4.51172 4.27734 4.67773 4.27734Q4.84375 4.27734 4.96094 4.39453L15.1953 14.6484Q15.3125 14.7559 15.3125 14.9121Q15.3125 15.0684 15.1953 15.1953Q15.0879 15.3027 14.9219 15.2979Q14.7559 15.293 14.6387 15.1953Z"
                     fill="#ffffff" />
       </g>
</svg>