<svg width="22.8699" height="17.7075">
       <g>
              <rect height="17.7075" opacity="0" width="22.8699" x="0" y="0" />
              <path d="M2.87872 17.7075L19.9883 17.7075Q21.4282 17.7075 22.149 16.987Q22.8699 16.2665 22.8699 14.8528L22.8699 5.37064Q22.8699 3.95996 22.149 3.23792Q21.4282 2.51587 19.9883 2.51587L2.87872 2.51587Q1.44836 2.51587 0.724182 3.23486Q0 3.95386 0 5.37064L0 14.8528Q0 16.2726 0.724182 16.9901Q1.44836 17.7075 2.87872 17.7075ZM4.1153 3.08182L9.35638 3.08182L9.35638 1.1171Q9.35638 0.602264 9.07112 0.31395Q8.78586 0.0256348 8.25943 0.0256348L5.21515 0.0256348Q4.68872 0.0256348 4.40201 0.31395Q4.1153 0.602264 4.1153 1.1171ZM13.5068 3.08182L18.7411 3.08182L18.7411 1.1171Q18.7411 0.602264 18.4578 0.31395Q18.1744 0.0256348 17.6413 0.0256348L14.597 0.0256348Q14.0706 0.0256348 13.7887 0.31395Q13.5068 0.602264 13.5068 1.1171Z"
                     fill="rgba(255,255,255,0.55)" />
              <path d="M8.28705 10.8157Q8.28705 10.6941 8.40179 10.5501L12.5017 5.39993Q12.6367 5.2356 12.7946 5.23895Q12.9526 5.24231 13.0431 5.37064Q13.1335 5.49896 13.0547 5.70312L11.6902 9.37119L14.229 9.37119Q14.3475 9.37119 14.4382 9.4503Q14.529 9.52942 14.529 9.63821Q14.529 9.77097 14.4044 9.90402L10.3113 15.054Q10.1762 15.2252 10.015 15.2218Q9.85367 15.2184 9.76471 15.09Q9.67575 14.9617 9.75464 14.7479L11.1258 11.0835L8.58337 11.0835Q8.46176 11.0835 8.3744 11.0074Q8.28705 10.9312 8.28705 10.8157Z"
                     fill="#ffffff" />
       </g>
</svg>