<svg width="17.6855" height="17.7051">
       <g>
              <rect height="17.7051" opacity="0" width="17.6855" x="0" y="0" />
              <path d="M2.88086 17.7051L14.8047 17.7051Q16.2305 17.7051 16.958 16.9873Q17.6855 16.2695 17.6855 14.8535L17.6855 2.88086Q17.6855 1.46484 16.958 0.742188Q16.2305 0.0195312 14.8047 0.0195312L2.88086 0.0195312Q1.44531 0.0195312 0.722656 0.737305Q0 1.45508 0 2.88086L0 14.8535Q0 16.2695 0.722656 16.9873Q1.44531 17.7051 2.88086 17.7051ZM2.90039 16.4941Q2.07031 16.4941 1.64062 16.0645Q1.21094 15.6348 1.21094 14.7949L1.21094 2.93945Q1.21094 2.08984 1.64062 1.66016Q2.07031 1.23047 2.90039 1.23047L14.7852 1.23047Q15.5859 1.23047 16.0303 1.66016Q16.4746 2.08984 16.4746 2.93945L16.4746 14.7949Q16.4746 15.6348 16.0303 16.0645Q15.5859 16.4941 14.7852 16.4941Z"
                     fill="#ffd60a" />
              <path d="M4.52148 9.57031Q4.52148 9.72656 4.63379 9.8291Q4.74609 9.93164 4.91211 9.93164L8.32031 9.93164L6.48438 14.8535Q6.37695 15.127 6.49414 15.2979Q6.61133 15.4688 6.82617 15.4785Q7.04102 15.4883 7.2168 15.2637L12.7246 8.35938Q12.8711 8.16406 12.8711 8.00781Q12.8711 7.85156 12.7588 7.74902Q12.6465 7.64648 12.4805 7.64648L9.07227 7.64648L10.9082 2.71484Q11.0156 2.44141 10.8984 2.27051Q10.7812 2.09961 10.5664 2.09473Q10.3516 2.08984 10.1758 2.31445L4.66797 9.21875Q4.52148 9.4043 4.52148 9.57031Z"
                     fill="#ffd60a" />
       </g>
</svg>