<svg width="19.5898" height="19.5996">
       <g>
              <rect height="19.5996" opacity="0" width="19.5898" x="0" y="0" />
              <path d="M9.79492 19.5996Q11.8066 19.5996 13.5791 18.833Q15.3516 18.0664 16.7041 16.7139Q18.0566 15.3613 18.8232 13.5889Q19.5898 11.8164 19.5898 9.80469Q19.5898 7.79297 18.8232 6.02051Q18.0566 4.24805 16.7041 2.89551Q15.3516 1.54297 13.5742 0.776367Q11.7969 0.00976562 9.78516 0.00976562Q7.77344 0.00976562 6.00098 0.776367Q4.22852 1.54297 2.88086 2.89551Q1.5332 4.24805 0.766602 6.02051Q0 7.79297 0 9.80469Q0 11.8164 0.766602 13.5889Q1.5332 15.3613 2.88574 16.7139Q4.23828 18.0664 6.01074 18.833Q7.7832 19.5996 9.79492 19.5996Z"
                     fill="#ffd60a" />
              <path d="M5.38086 10.5469Q5.38086 10.3809 5.52734 10.1953L11.1426 3.1543Q11.3281 2.91992 11.5479 2.9248Q11.7676 2.92969 11.8896 3.10547Q12.0117 3.28125 11.8945 3.56445L10.0293 8.58398L13.5059 8.58398Q13.6719 8.58398 13.7842 8.69141Q13.8965 8.79883 13.8965 8.96484Q13.8965 9.13086 13.75 9.31641L8.14453 16.3574Q7.95898 16.5918 7.73926 16.5869Q7.51953 16.582 7.39746 16.4014Q7.27539 16.2207 7.38281 15.9375L9.25781 10.918L5.77148 10.918Q5.60547 10.918 5.49316 10.8154Q5.38086 10.7129 5.38086 10.5469Z"
                     fill="#ffffff" />
       </g>
</svg>