<svg width="19.5898" height="19.5996">
       <g>
              <rect height="19.5996" opacity="0" width="19.5898" x="0" y="0" />
              <path d="M9.79492 19.5898Q11.8066 19.5898 13.5791 18.8232Q15.3516 18.0566 16.7041 16.7041Q18.0566 15.3516 18.8232 13.5791Q19.5898 11.8066 19.5898 9.79492Q19.5898 7.7832 18.8232 6.01074Q18.0566 4.23828 16.7041 2.88574Q15.3516 1.5332 13.5742 0.766602Q11.7969 0 9.78516 0Q7.77344 0 6.00098 0.766602Q4.22852 1.5332 2.88086 2.88574Q1.5332 4.23828 0.766602 6.01074Q0 7.7832 0 9.79492Q0 11.8066 0.766602 13.5791Q1.5332 15.3516 2.88574 16.7041Q4.23828 18.0566 6.01074 18.8232Q7.7832 19.5898 9.79492 19.5898ZM9.79492 18.3203Q8.02734 18.3203 6.47949 17.6611Q4.93164 17.002 3.75977 15.8301Q2.58789 14.6582 1.92871 13.1104Q1.26953 11.5625 1.26953 9.79492Q1.26953 8.02734 1.92871 6.47949Q2.58789 4.93164 3.75977 3.75488Q4.93164 2.57812 6.47461 1.91895Q8.01758 1.25977 9.78516 1.25977Q11.5625 1.25977 13.1104 1.91895Q14.6582 2.57812 15.8301 3.75488Q17.002 4.93164 17.666 6.47949Q18.3301 8.02734 18.3301 9.79492Q18.3301 11.5625 17.666 13.1104Q17.002 14.6582 15.8301 15.8301Q14.6582 17.002 13.1152 17.6611Q11.5723 18.3203 9.79492 18.3203Z"
                     fill="#ffd60a" />
              <path d="M5.45898 10.5176Q5.45898 10.6738 5.57129 10.7764Q5.68359 10.8789 5.84961 10.8789L9.25781 10.8789L7.42188 15.8008Q7.31445 16.0742 7.43164 16.2451Q7.54883 16.416 7.76367 16.4258Q7.97852 16.4355 8.1543 16.2109L13.6621 9.30664Q13.8086 9.11133 13.8086 8.95508Q13.8086 8.79883 13.6963 8.69629Q13.584 8.59375 13.418 8.59375L10.0098 8.59375L11.8457 3.66211Q11.9531 3.38867 11.8359 3.21777Q11.7188 3.04688 11.5039 3.04199Q11.2891 3.03711 11.1133 3.26172L5.60547 10.166Q5.45898 10.3516 5.45898 10.5176Z"
                     fill="#ffd60a" />
       </g>
</svg>