<svg width="21.3289" height="19.8343">
       <g>
              <rect height="19.8343" opacity="0" width="21.3289" x="0" y="0" />
              <path d="M0 5.14236Q0 6.34323 0.709686 7.49832Q1.41937 8.65341 2.7668 9.58992Q4.11423 10.5264 6.04546 11.0811Q7.97668 11.6357 10.4169 11.6357Q12.7473 11.6357 14.7498 11.0755Q16.7523 10.5153 18.2079 9.46991Q17.4069 9.09744 16.927 8.32733Q15.8545 9.35242 14.1782 9.88937Q12.5018 10.4263 10.4169 10.4263Q8.27789 10.4263 6.78131 9.93584Q5.28473 9.44534 4.3541 8.68752Q3.42346 7.92969 2.995 7.10342Q2.56653 6.27716 2.56653 5.60577Q2.56653 4.9585 2.76917 4.45969Q2.11823 4.08417 1.71982 3.42834Q1.32141 2.77252 1.28082 2.02011Q0 3.2373 0 5.14236ZM15.6087 13.7691Q15.6087 12.5583 15.1712 11.1599Q14.7337 9.76151 13.952 8.34366Q13.1702 6.92581 12.1226 5.62721Q11.075 4.32861 9.84932 3.29628Q8.62366 2.26395 7.30865 1.65787Q7.31537 1.70135 7.31537 1.7482Q7.31537 1.79504 7.31537 1.83533Q7.31537 2.59003 6.9519 3.27881Q7.9892 3.60413 8.9727 4.30977Q9.95621 5.01541 10.806 5.99365Q11.6557 6.97189 12.2952 8.11012Q12.9347 9.24835 13.2952 10.4568Q13.6557 11.6653 13.6557 12.8264Q13.6557 13.9388 13.2546 14.7973Q12.8535 15.6558 12.1735 16.1459Q11.4935 16.636 10.6381 16.636Q10.7364 17.0625 10.7364 17.4379Q10.7364 18.4088 10.1666 19.202Q10.2199 19.2087 10.2802 19.2087Q10.3404 19.2087 10.4004 19.2087Q11.9115 19.2087 13.0879 18.5053Q14.2644 17.802 14.9365 16.5767Q15.6087 15.3514 15.6087 13.7691ZM16.3135 0.997467Q14.9857 0.997467 13.653 1.59454Q12.3203 2.19162 11.0757 3.21754Q9.83124 4.24347 8.76778 5.5484Q7.70432 6.85333 6.90331 8.28712Q6.10229 9.72092 5.65544 11.1317Q5.20859 12.5426 5.20859 13.7691Q5.20859 14.5961 5.43518 15.4356Q5.75821 15.0079 6.3031 14.7346Q6.84799 14.4614 7.38815 14.4147Q7.27631 14.0579 7.21405 13.6547Q7.15179 13.2515 7.15179 12.8264Q7.15179 11.5451 7.61147 10.1789Q8.07114 8.81271 8.8797 7.53624Q9.68826 6.25977 10.7446 5.24086Q11.801 4.22195 13.0023 3.62221Q14.2036 3.02246 15.4362 3.02246Q17.1622 3.02246 17.8908 4.1716Q18.6156 3.71353 19.4965 3.71353Q20.1181 3.71353 20.6947 3.95737Q20.3438 2.57431 19.1862 1.78589Q18.0286 0.997467 16.3135 0.997467Z"
                     fill="#98989d" />
              <path d="M4.29199 3.66776Q4.80118 3.66776 5.21606 3.42445Q5.63095 3.18115 5.87761 2.76627Q6.12427 2.35138 6.12427 1.83533Q6.12427 1.07468 5.58701 0.537338Q5.04974 0 4.29199 0Q3.52753 0 2.98874 0.537338Q2.44995 1.07468 2.44995 1.83533Q2.44995 2.34833 2.69814 2.76321Q2.94632 3.1781 3.36273 3.42293Q3.77914 3.66776 4.29199 3.66776ZM19.4965 8.57285Q20.0093 8.57285 20.4257 8.32619Q20.8421 8.07953 21.0855 7.66312Q21.3289 7.2467 21.3289 6.74057Q21.3289 6.22772 21.0806 5.81131Q20.8324 5.3949 20.4175 5.14671Q20.0026 4.89853 19.4965 4.89853Q18.9903 4.89853 18.5739 5.14671Q18.1575 5.3949 17.9093 5.81131Q17.6611 6.22772 17.6611 6.74057Q17.6611 7.2467 17.9093 7.66159Q18.1575 8.07648 18.5739 8.32466Q18.9903 8.57285 19.4965 8.57285ZM7.71301 19.2673Q8.2193 19.2673 8.63571 19.0255Q9.05212 18.7837 9.29878 18.3673Q9.54544 17.9509 9.54544 17.4379Q9.54544 16.9318 9.29726 16.5138Q9.04907 16.0959 8.63419 15.8492Q8.2193 15.6026 7.71301 15.6026Q7.20016 15.6026 6.78375 15.8492Q6.36734 16.0959 6.12251 16.5138Q5.87769 16.9318 5.87769 17.4379Q5.87769 17.9411 6.12251 18.3575Q6.36734 18.774 6.78375 19.0206Q7.20016 19.2673 7.71301 19.2673Z"
                     fill="#ff9f0a" />
       </g>
</svg>