<svg width="17.6855" height="17.8223">
       <g>
              <rect height="17.8223" opacity="0" width="17.6855" x="0" y="0" />
              <path d="M2.88086 17.8223L14.8047 17.8223Q16.2305 17.8223 16.958 17.1045Q17.6855 16.3867 17.6855 14.9707L17.6855 2.99805Q17.6855 1.58203 16.958 0.859375Q16.2305 0.136719 14.8047 0.136719L2.88086 0.136719Q1.44531 0.136719 0.722656 0.854492Q0 1.57227 0 2.99805L0 14.9707Q0 16.3867 0.722656 17.1045Q1.44531 17.8223 2.88086 17.8223ZM2.90039 16.6113Q2.07031 16.6113 1.64062 16.1816Q1.21094 15.752 1.21094 14.9121L1.21094 3.05664Q1.21094 2.20703 1.64062 1.77734Q2.07031 1.34766 2.90039 1.34766L14.7852 1.34766Q15.5859 1.34766 16.0303 1.77734Q16.4746 2.20703 16.4746 3.05664L16.4746 14.9121Q16.4746 15.752 16.0303 16.1816Q15.5859 16.6113 14.7852 16.6113Z"
                     fill="#ff453a" />
              <path d="M5.9082 14.1309Q6.07422 14.1309 6.20605 14.0332Q6.33789 13.9355 6.5918 13.6914L8.80859 11.4551Q8.84766 11.4062 8.88672 11.4551L11.1133 13.6914Q11.3574 13.9355 11.4893 14.0332Q11.6211 14.1309 11.7773 14.1309Q11.9922 14.1309 12.1191 13.9893Q12.2461 13.8477 12.2461 13.5938L12.2461 5.30273Q12.2461 4.61914 11.8945 4.2627Q11.543 3.90625 10.8691 3.90625L6.82617 3.90625Q6.15234 3.90625 5.80078 4.2627Q5.44922 4.61914 5.44922 5.30273L5.44922 13.5938Q5.44922 13.8477 5.57617 13.9893Q5.70312 14.1309 5.9082 14.1309Z"
                     fill="#ff453a" />
       </g>
</svg>