<svg width="12.7402" height="20.5261">
       <g>
              <rect height="20.5261" opacity="0" width="12.7402" x="0" y="0" />
              <path d="M0.883789 20.4962Q1.16882 20.4962 1.4238 20.3145Q1.67877 20.1328 2.17026 19.6516L6.29135 15.5014Q6.37009 15.4158 6.44897 15.5014L10.5701 19.6516Q11.0616 20.123 11.3116 20.3096Q11.5617 20.4962 11.8564 20.4962Q12.269 20.4962 12.5046 20.2291Q12.7402 19.962 12.7402 19.4894L12.7402 2.621Q12.7402 1.32141 12.0862 0.660706Q11.4322 0 10.1491 0L2.59109 0Q1.30798 0 0.653992 0.660706Q0 1.32141 0 2.621L0 19.4894Q0 19.962 0.235596 20.2291Q0.471191 20.4962 0.883789 20.4962Z"
                     fill="#ff453a" />
       </g>
</svg>