<svg width="19.5898" height="19.5996">
       <g>
              <rect height="19.5996" opacity="0" width="19.5898" x="0" y="0" />
              <path d="M9.79492 19.5996Q11.8066 19.5996 13.5791 18.833Q15.3516 18.0664 16.7041 16.7139Q18.0566 15.3613 18.8232 13.5889Q19.5898 11.8164 19.5898 9.80469Q19.5898 7.79297 18.8232 6.02051Q18.0566 4.24805 16.7041 2.89551Q15.3516 1.54297 13.5742 0.776367Q11.7969 0.00976562 9.78516 0.00976562Q7.77344 0.00976562 6.00098 0.776367Q4.22852 1.54297 2.88086 2.89551Q1.5332 4.24805 0.766602 6.02051Q0 7.79297 0 9.80469Q0 11.8164 0.766602 13.5889Q1.5332 15.3613 2.88574 16.7139Q4.23828 18.0664 6.01074 18.833Q7.7832 19.5996 9.79492 19.5996Z"
                     fill="rgba(255,255,255,0.55)" />
              <path d="M7.10938 5.51758Q7.82227 5.51758 8.42285 5.78613Q9.02344 6.05469 9.41406 6.54297Q9.49219 6.66016 9.49219 6.79688L9.49219 13.7988Q9.49219 13.9844 9.32617 13.9844Q9.25781 13.9844 9.16992 13.9062Q8.75 13.5547 8.24707 13.374Q7.74414 13.1934 7.20703 13.1934Q5.83984 13.1934 4.95117 13.9941Q4.89258 14.043 4.8291 14.0674Q4.76562 14.0918 4.6875 14.0918Q4.38477 14.0918 4.38477 13.8184L4.38477 7.08984Q4.38477 6.97266 4.39941 6.92383Q4.41406 6.875 4.44336 6.79688Q4.81445 6.18164 5.56641 5.84961Q6.31836 5.51758 7.10938 5.51758ZM12.4902 5.51758Q13.2812 5.51758 14.0332 5.84961Q14.7852 6.18164 15.1562 6.79688Q15.1855 6.86523 15.2002 6.91895Q15.2148 6.97266 15.2148 7.08984L15.2148 13.8184Q15.2148 14.0918 14.9219 14.0918Q14.834 14.0918 14.7705 14.0674Q14.707 14.043 14.6484 13.9941Q13.7793 13.1934 12.3926 13.1934Q11.8555 13.1934 11.3574 13.374Q10.8594 13.5547 10.4395 13.9062Q10.3418 13.9844 10.2734 13.9844Q10.0977 13.9844 10.0977 13.7988L10.0977 6.79688Q10.0977 6.66016 10.1855 6.54297Q10.5762 6.05469 11.1816 5.78613Q11.7871 5.51758 12.4902 5.51758Z"
                     fill="#ffffff" />
       </g>
</svg>