<svg width="17.6855" height="17.7051">
       <g>
              <rect height="17.7051" opacity="0" width="17.6855" x="0" y="0" />
              <path d="M2.88086 17.7051L14.8047 17.7051Q16.2305 17.7051 16.958 16.9873Q17.6855 16.2695 17.6855 14.8535L17.6855 2.88086Q17.6855 1.46484 16.958 0.742188Q16.2305 0.0195312 14.8047 0.0195312L2.88086 0.0195312Q1.44531 0.0195312 0.722656 0.737305Q0 1.45508 0 2.88086L0 14.8535Q0 16.2695 0.722656 16.9873Q1.44531 17.7051 2.88086 17.7051Z"
                     fill="#ff453a" />
              <path d="M5.85938 14.1211Q5.64453 14.1211 5.5127 13.9746Q5.38086 13.8281 5.38086 13.5742L5.38086 5.10742Q5.38086 4.4043 5.74219 4.04297Q6.10352 3.68164 6.79688 3.68164L10.9082 3.68164Q11.6016 3.68164 11.9629 4.04297Q12.3242 4.4043 12.3242 5.10742L12.3242 13.5742Q12.3242 13.8281 12.1924 13.9746Q12.0605 14.1211 11.8359 14.1211Q11.6797 14.1211 11.5479 14.0186Q11.416 13.916 11.1523 13.6621L8.88672 11.3965Q8.84766 11.3477 8.80859 11.3965L6.55273 13.6621Q6.28906 13.916 6.15723 14.0186Q6.02539 14.1211 5.85938 14.1211Z"
                     fill="#ffffff" />
       </g>
</svg>