<svg width="19.5898" height="19.5996">
       <g>
              <rect height="19.5996" opacity="0" width="19.5898" x="0" y="0" />
              <path d="M9.79492 19.5898Q11.8066 19.5898 13.5791 18.8232Q15.3516 18.0566 16.7041 16.7041Q18.0566 15.3516 18.8232 13.5791Q19.5898 11.8066 19.5898 9.79492Q19.5898 7.7832 18.8232 6.01074Q18.0566 4.23828 16.7041 2.88574Q15.3516 1.5332 13.5742 0.766602Q11.7969 0 9.78516 0Q7.77344 0 6.00098 0.766602Q4.22852 1.5332 2.88086 2.88574Q1.5332 4.23828 0.766602 6.01074Q0 7.7832 0 9.79492Q0 11.8066 0.766602 13.5791Q1.5332 15.3516 2.88574 16.7041Q4.23828 18.0566 6.01074 18.8232Q7.7832 19.5898 9.79492 19.5898ZM9.79492 18.3203Q8.02734 18.3203 6.47949 17.6611Q4.93164 17.002 3.75977 15.8301Q2.58789 14.6582 1.92871 13.1104Q1.26953 11.5625 1.26953 9.79492Q1.26953 8.02734 1.92871 6.47949Q2.58789 4.93164 3.75977 3.75488Q4.93164 2.57812 6.47461 1.91895Q8.01758 1.25977 9.78516 1.25977Q11.5625 1.25977 13.1104 1.91895Q14.6582 2.57812 15.8301 3.75488Q17.002 4.93164 17.666 6.47949Q18.3301 8.02734 18.3301 9.79492Q18.3301 11.5625 17.666 13.1104Q17.002 14.6582 15.8301 15.8301Q14.6582 17.002 13.1152 17.6611Q11.5723 18.3203 9.79492 18.3203Z"
                     fill="#ff453a" />
              <path d="M6.85547 14.9609Q7.02148 14.9609 7.15332 14.8633Q7.28516 14.7656 7.53906 14.5215L9.75586 12.2852Q9.79492 12.2363 9.83398 12.2852L12.0605 14.5215Q12.3047 14.7656 12.4365 14.8633Q12.5684 14.9609 12.7246 14.9609Q12.9395 14.9609 13.0664 14.8193Q13.1934 14.6777 13.1934 14.4238L13.1934 6.13281Q13.1934 5.44922 12.8418 5.09277Q12.4902 4.73633 11.8164 4.73633L7.77344 4.73633Q7.09961 4.73633 6.74805 5.09277Q6.39648 5.44922 6.39648 6.13281L6.39648 14.4238Q6.39648 14.6777 6.52344 14.8193Q6.65039 14.9609 6.85547 14.9609Z"
                     fill="#ff453a" />
       </g>
</svg>