<svg width="18.3691" height="20.5176">
       <g>
              <rect height="20.5176" opacity="0" width="18.3691" x="0" y="0" />
              <path d="M15.3125 13.8086L15.3125 2.61719Q15.3125 1.31836 14.6582 0.65918Q14.0039 0 12.7148 0L5.15625 0Q3.33984 0 2.88086 1.38672ZM2.56836 5.55664L2.56836 19.4824Q2.56836 19.9609 2.80273 20.2246Q3.03711 20.4883 3.45703 20.4883Q3.74023 20.4883 3.99414 20.3076Q4.24805 20.127 4.73633 19.6484L8.85742 15.498Q8.93555 15.4102 9.01367 15.498L13.1445 19.6484Q13.6328 20.1172 13.8818 20.3027Q14.1309 20.4883 14.4238 20.4883Q14.834 20.4883 15.0732 20.2246Q15.3125 19.9609 15.3125 19.4824L15.3125 18.3105Z"
                     fill="#ff453a" />
              <path d="M17.373 18.9062Q17.5391 19.082 17.7881 19.082Q18.0371 19.082 18.2031 18.9062Q18.3691 18.7305 18.3691 18.4912Q18.3691 18.252 18.2031 18.0762L0.996094 0.869141Q0.830078 0.703125 0.585938 0.698242Q0.341797 0.693359 0.166016 0.869141Q0 1.03516 0 1.2793Q0 1.52344 0.166016 1.68945Z"
                     fill="#ff453a" />
       </g>
</svg>