<svg width="19.5898" height="19.5996">
       <g>
              <rect height="19.5996" opacity="0" width="19.5898" x="0" y="0" />
              <path d="M9.79492 19.5996Q11.8066 19.5996 13.5791 18.833Q15.3516 18.0664 16.7041 16.7139Q18.0566 15.3613 18.8232 13.5889Q19.5898 11.8164 19.5898 9.80469Q19.5898 7.79297 18.8232 6.02051Q18.0566 4.24805 16.7041 2.89551Q15.3516 1.54297 13.5742 0.776367Q11.7969 0.00976562 9.78516 0.00976562Q7.77344 0.00976562 6.00098 0.776367Q4.22852 1.54297 2.88086 2.89551Q1.5332 4.24805 0.766602 6.02051Q0 7.79297 0 9.80469Q0 11.8164 0.766602 13.5889Q1.5332 15.3613 2.88574 16.7139Q4.23828 18.0664 6.01074 18.833Q7.7832 19.5996 9.79492 19.5996Z"
                     fill="rgba(255,255,255,0.55)" />
              <path d="M4.24805 14.1504L4.24805 6.2793Q4.24805 5.99609 4.39941 5.84473Q4.55078 5.69336 4.85352 5.69336L5.6543 5.69336Q5.94727 5.69336 6.09863 5.84473Q6.25 5.99609 6.25 6.2793L6.25 14.1504Q6.25 14.4238 6.09863 14.5801Q5.94727 14.7363 5.6543 14.7363L4.85352 14.7363Q4.55078 14.7363 4.39941 14.5801Q4.24805 14.4238 4.24805 14.1504ZM6.86523 14.1504L6.86523 7.87109Q6.86523 7.27539 7.46094 7.27539L9.27734 7.27539Q9.58008 7.27539 9.7168 7.43652Q9.85352 7.59766 9.85352 7.87109L9.85352 14.1504Q9.85352 14.4238 9.7168 14.5801Q9.58008 14.7363 9.27734 14.7363L7.46094 14.7363Q6.86523 14.7363 6.86523 14.1504ZM7.55859 13.4473Q7.55859 13.7207 7.82227 13.7207L8.91602 13.7207Q9.17969 13.7207 9.17969 13.4473Q9.17969 13.1836 8.91602 13.1836L7.82227 13.1836Q7.55859 13.1836 7.55859 13.4473ZM7.55859 8.57422Q7.55859 8.68164 7.62695 8.75977Q7.69531 8.83789 7.82227 8.83789L8.91602 8.83789Q9.04297 8.83789 9.11133 8.75488Q9.17969 8.67188 9.17969 8.57422Q9.17969 8.45703 9.11133 8.38379Q9.04297 8.31055 8.91602 8.31055L7.82227 8.31055Q7.70508 8.31055 7.63184 8.38379Q7.55859 8.45703 7.55859 8.57422ZM10.4883 14.1504L10.4883 5.07812Q10.4883 4.48242 11.084 4.48242L12.1191 4.48242Q12.7148 4.48242 12.7148 5.07812L12.7148 6.10352L13.4375 5.92773Q13.7207 5.85938 13.8916 5.99121Q14.0625 6.12305 14.1211 6.41602L15.5957 13.8867Q15.6445 14.1699 15.5273 14.3555Q15.4102 14.541 15.1172 14.5801L14.4727 14.7266Q14.1895 14.7852 14.0137 14.668Q13.8379 14.5508 13.7891 14.2773L12.7148 8.86719L12.7148 14.1504Q12.7148 14.7363 12.1191 14.7363L11.084 14.7363Q10.4883 14.7363 10.4883 14.1504Z"
                     fill="#ffffff" />
       </g>
</svg>