<svg width="19.5898" height="19.5996">
       <g>
              <rect height="19.5996" opacity="0" width="19.5898" x="0" y="0" />
              <path d="M9.79492 19.5996Q11.8066 19.5996 13.5791 18.833Q15.3516 18.0664 16.7041 16.7139Q18.0566 15.3613 18.8232 13.5889Q19.5898 11.8164 19.5898 9.80469Q19.5898 7.79297 18.8232 6.02051Q18.0566 4.24805 16.7041 2.89551Q15.3516 1.54297 13.5742 0.776367Q11.7969 0.00976562 9.78516 0.00976562Q7.77344 0.00976562 6.00098 0.776367Q4.22852 1.54297 2.88086 2.89551Q1.5332 4.24805 0.766602 6.02051Q0 7.79297 0 9.80469Q0 11.8164 0.766602 13.5889Q1.5332 15.3613 2.88574 16.7139Q4.23828 18.0664 6.01074 18.833Q7.7832 19.5996 9.79492 19.5996Z"
                     fill="rgba(255,255,255,0.55)" />
              <path d="M7.09961 15.1465Q6.38672 15.1465 6.01074 14.7754Q5.63477 14.4043 5.63477 13.6914L5.63477 5.97656Q5.63477 5.22461 6.01074 4.84375Q6.38672 4.46289 7.13867 4.46289L12.4414 4.46289Q13.1934 4.46289 13.5742 4.84375Q13.9551 5.22461 13.9551 5.97656L13.9551 11.7285Q13.9551 12.0703 13.8281 12.3047Q13.7012 12.5391 13.5449 12.7148Q13.1055 13.1738 13.1689 13.6865Q13.2324 14.1992 13.7207 14.4434Q13.8184 14.4922 13.8867 14.585Q13.9551 14.6777 13.9551 14.7852Q13.9551 14.9414 13.8477 15.0439Q13.7402 15.1465 13.5938 15.1465ZM7.13867 14.4336L12.6855 14.4336Q12.2363 13.7402 12.5586 12.9395Q12.5195 12.9395 12.4756 12.9443Q12.4316 12.9492 12.373 12.9492L7.16797 12.9492Q6.79688 12.9492 6.57715 13.1494Q6.35742 13.3496 6.35742 13.6816Q6.35742 14.0332 6.55762 14.2334Q6.75781 14.4336 7.13867 14.4336ZM6.96289 12.0996Q7.08984 12.0996 7.17773 12.0166Q7.26562 11.9336 7.26562 11.8164L7.26562 5.61523Q7.26562 5.50781 7.17773 5.41992Q7.08984 5.33203 6.96289 5.33203Q6.8457 5.33203 6.76758 5.41504Q6.68945 5.49805 6.68945 5.61523L6.68945 11.8164Q6.68945 11.9434 6.76758 12.0215Q6.8457 12.0996 6.96289 12.0996Z"
                     fill="#ffffff" />
       </g>
</svg>