<svg width="19.5898" height="19.5996">
       <g>
              <rect height="19.5996" opacity="0" width="19.5898" x="0" y="0" />
              <path d="M9.79492 19.5996Q11.8066 19.5996 13.5791 18.833Q15.3516 18.0664 16.7041 16.7139Q18.0566 15.3613 18.8232 13.5889Q19.5898 11.8164 19.5898 9.80469Q19.5898 7.79297 18.8232 6.02051Q18.0566 4.24805 16.7041 2.89551Q15.3516 1.54297 13.5742 0.776367Q11.7969 0.00976562 9.78516 0.00976562Q7.77344 0.00976562 6.00098 0.776367Q4.22852 1.54297 2.88086 2.89551Q1.5332 4.24805 0.766602 6.02051Q0 7.79297 0 9.80469Q0 11.8164 0.766602 13.5889Q1.5332 15.3613 2.88574 16.7139Q4.23828 18.0664 6.01074 18.833Q7.7832 19.5996 9.79492 19.5996Z"
                     fill="#ff453a" />
              <path d="M6.80664 15.0879Q6.5918 15.0879 6.45996 14.9414Q6.32812 14.7949 6.32812 14.541L6.32812 6.07422Q6.32812 5.37109 6.68945 5.00977Q7.05078 4.64844 7.74414 4.64844L11.8555 4.64844Q12.5488 4.64844 12.9102 5.00977Q13.2715 5.37109 13.2715 6.07422L13.2715 14.541Q13.2715 14.7949 13.1396 14.9414Q13.0078 15.0879 12.7832 15.0879Q12.627 15.0879 12.4951 14.9854Q12.3633 14.8828 12.0996 14.6289L9.83398 12.3633Q9.79492 12.3145 9.75586 12.3633L7.5 14.6289Q7.23633 14.8828 7.10449 14.9854Q6.97266 15.0879 6.80664 15.0879Z"
                     fill="#ffffff" />
       </g>
</svg>