<svg width="18.3691" height="20.5176">
       <g>
              <rect height="20.5176" opacity="0" width="18.3691" x="0" y="0" />
              <path d="M15.3125 13.8086L15.3125 2.61719Q15.3125 1.31836 14.6582 0.65918Q14.0039 0 12.7148 0L5.15625 0Q3.33984 0 2.88086 1.37695L3.83789 2.33398Q3.96484 1.18164 5.21484 1.18164L12.666 1.18164Q13.3887 1.18164 13.7549 1.54785Q14.1211 1.91406 14.1211 2.63672L14.1211 12.627ZM3.45703 20.4883Q3.74023 20.4883 3.99414 20.3076Q4.24805 20.127 4.73633 19.6484L8.85742 15.498Q8.93555 15.4102 9.01367 15.498L13.1445 19.6484Q13.6328 20.1172 13.8818 20.3027Q14.1309 20.4883 14.4238 20.4883Q14.834 20.4883 15.0732 20.2393Q15.3125 19.9902 15.293 19.6094L15.293 18.4766L13.9746 17.1582L13.9746 18.4863Q13.9746 18.5645 13.9209 18.5791Q13.8672 18.5938 13.7988 18.5254L9.375 14.1113Q9.18945 13.9258 8.94043 13.9258Q8.69141 13.9258 8.49609 14.1113L4.07227 18.5352Q3.95508 18.6426 3.85742 18.6182Q3.75977 18.5938 3.75977 18.4375L3.75977 6.80664L2.56836 5.61523L2.56836 19.4824Q2.56836 19.9609 2.80273 20.2246Q3.03711 20.4883 3.45703 20.4883Z"
                     fill="#ff453a" />
              <path d="M17.373 18.9062Q17.5391 19.082 17.7881 19.082Q18.0371 19.082 18.2031 18.9062Q18.3691 18.7305 18.3691 18.4912Q18.3691 18.252 18.2031 18.0762L0.996094 0.869141Q0.830078 0.703125 0.585938 0.698242Q0.341797 0.693359 0.166016 0.869141Q0 1.03516 0 1.2793Q0 1.52344 0.166016 1.68945Z"
                     fill="#ff453a" />
       </g>
</svg>