<svg width="21.1517" height="20.5045">
       <g>
              <rect height="20.5045" opacity="0" width="21.1517" x="0" y="0" />
              <path d="M10.5792 9.24728Q12.4313 9.24728 14.1899 9.07051Q15.9485 8.89374 17.6762 8.48Q19.4038 8.06625 21.1517 7.36038L21.1517 6.22437Q21.1517 4.83536 20.4588 4.15558Q19.7658 3.4758 18.3733 3.4758L15.3821 3.4758L15.3821 2.38647Q15.3821 1.19125 14.7392 0.595627Q14.0962 0 12.9141 0L8.23151 0Q7.09961 0 6.43799 0.595627Q5.77637 1.19125 5.77637 2.38647L5.77637 3.4758L2.78137 3.4758Q1.39252 3.4758 0.696259 4.15558Q0 4.83536 0 6.22437L0 7.36038Q1.75446 8.06625 3.47885 8.48Q5.20325 8.89374 6.96175 9.07051Q8.72025 9.24728 10.5792 9.24728ZM6.94489 3.4758L6.94489 2.31537Q6.94489 1.74057 7.27859 1.42578Q7.6123 1.11099 8.21198 1.11099L12.9366 1.11099Q13.5461 1.11099 13.8798 1.42578Q14.2134 1.74057 14.2134 2.31537L14.2134 3.4758ZM2.78137 18.6079L18.3733 18.6079Q19.7658 18.6079 20.4588 17.9247Q21.1517 17.2415 21.1517 15.8565L21.1517 8.62595Q19.7501 9.11926 18.4 9.45267Q17.05 9.78607 15.7256 9.98543Q14.4011 10.1848 13.0769 10.2734L13.0769 11.0583Q13.0769 12.0593 12.0625 12.0593L9.0921 12.0593Q8.08151 12.0593 8.08151 11.0583L8.08151 10.2734Q6.75354 10.1848 5.42763 9.98543Q4.10172 9.78607 2.75162 9.45267Q1.40152 9.11926 0 8.62595L0 15.8565Q0 17.2415 0.696259 17.9247Q1.39252 18.6079 2.78137 18.6079Z"
                     fill="#ac8e68" />
       </g>
</svg>