<svg width="21.1517" height="20.5045">
       <g>
              <rect height="20.5045" opacity="0" width="21.1517" x="0" y="0" />
              <path d="M2.78137 18.6079L18.3733 18.6079Q19.7658 18.6079 20.4588 17.9247Q21.1517 17.2415 21.1517 15.8565L21.1517 6.22437Q21.1517 4.83536 20.4588 4.15558Q19.7658 3.4758 18.3733 3.4758L2.78137 3.4758Q1.39252 3.4758 0.696259 4.15558Q0 4.83536 0 6.22437L0 15.8565Q0 17.2415 0.696259 17.9247Q1.39252 18.6079 2.78137 18.6079ZM2.7919 17.4147Q1.99722 17.4147 1.60309 17.021Q1.20895 16.6272 1.20895 15.8055L1.20895 6.27823Q1.20895 5.4567 1.60309 5.06287Q1.99722 4.66904 2.7919 4.66904L18.3598 4.66904Q19.1611 4.66904 19.5534 5.06287Q19.9457 5.4567 19.9457 6.27823L19.9457 15.8055Q19.9457 16.6272 19.5534 17.021Q19.1611 17.4147 18.3598 17.4147ZM0.680389 8.8681Q2.97318 9.6434 5.45662 10.0128Q7.94006 10.3822 10.5792 10.3822Q13.2214 10.3822 15.7014 10.0128Q18.1815 9.6434 20.4744 8.8681L20.4744 7.57065Q18.2666 8.41187 15.7866 8.81279Q13.3066 9.21371 10.5792 9.21371Q7.84515 9.21371 5.36514 8.81279Q2.88513 8.41187 0.680389 7.57065ZM9.0921 12.0764L12.0625 12.0764Q13.0769 12.0764 13.0769 11.0786L13.0769 9.74792L8.08151 9.74792L8.08151 11.0786Q8.08151 12.0764 9.0921 12.0764ZM5.77637 4.14688L6.94489 4.14688L6.94489 2.31537Q6.94489 1.74057 7.27859 1.42578Q7.6123 1.11099 8.21198 1.11099L12.9366 1.11099Q13.5461 1.11099 13.8798 1.42578Q14.2134 1.74057 14.2134 2.31537L14.2134 4.13345L15.3821 4.13345L15.3821 2.38647Q15.3821 1.19125 14.7392 0.595627Q14.0962 0 12.9141 0L8.23151 0Q7.09961 0 6.43799 0.595627Q5.77637 1.19125 5.77637 2.38647Z"
                     fill="#ac8e68" />
       </g>
</svg>