<svg width="19.5898" height="19.5996">
       <g>
              <rect height="19.5996" opacity="0" width="19.5898" x="0" y="0" />
              <path d="M9.79492 19.5996Q11.8066 19.5996 13.5791 18.833Q15.3516 18.0664 16.7041 16.7139Q18.0566 15.3613 18.8232 13.5889Q19.5898 11.8164 19.5898 9.80469Q19.5898 7.79297 18.8232 6.02051Q18.0566 4.24805 16.7041 2.89551Q15.3516 1.54297 13.5742 0.776367Q11.7969 0.00976562 9.78516 0.00976562Q7.77344 0.00976562 6.00098 0.776367Q4.22852 1.54297 2.88086 2.89551Q1.5332 4.24805 0.766602 6.02051Q0 7.79297 0 9.80469Q0 11.8164 0.766602 13.5889Q1.5332 15.3613 2.88574 16.7139Q4.23828 18.0664 6.01074 18.833Q7.7832 19.5996 9.79492 19.5996Z"
                     fill="#ac8e68" />
              <path d="M4.16992 12.8809L4.16992 9.0918Q5.29297 9.49219 6.35254 9.69238Q7.41211 9.89258 8.47656 9.96094L8.47656 10.3809Q8.47656 10.918 9.00391 10.918L10.6055 10.918Q11.1328 10.918 11.1328 10.3809L11.1328 9.96094Q12.1973 9.89258 13.2568 9.69238Q14.3164 9.49219 15.4395 9.0918L15.4395 12.8809Q15.4395 13.6328 15.0732 13.9941Q14.707 14.3555 13.9551 14.3555L5.6543 14.3555Q4.90234 14.3555 4.53613 13.9941Q4.16992 13.6328 4.16992 12.8809ZM4.16992 8.30078L4.16992 7.75391Q4.16992 7.01172 4.53613 6.65039Q4.90234 6.28906 5.6543 6.28906L6.85547 6.28906L6.85547 5.625Q6.85547 5.05859 7.19727 4.73145Q7.53906 4.4043 8.13477 4.4043L11.4746 4.4043Q12.0605 4.4043 12.4072 4.73145Q12.7539 5.05859 12.7539 5.625L12.7539 6.28906L13.9551 6.28906Q14.707 6.28906 15.0732 6.65039Q15.4395 7.01172 15.4395 7.75391L15.4395 8.30078Q14.0332 8.85742 12.6611 9.08203Q11.2891 9.30664 9.80469 9.30664Q8.32031 9.30664 6.94824 9.08203Q5.57617 8.85742 4.16992 8.30078ZM7.66602 6.28906L11.9434 6.28906L11.9434 5.6543Q11.9434 5.18555 11.4258 5.18555L8.17383 5.18555Q7.66602 5.18555 7.66602 5.6543Z"
                     fill="#ffffff" />
       </g>
</svg>