<svg width="19.5898" height="19.5996">
       <g>
              <rect height="19.5996" opacity="0" width="19.5898" x="0" y="0" />
              <path d="M9.79492 19.5898Q11.8066 19.5898 13.5791 18.8232Q15.3516 18.0566 16.7041 16.7041Q18.0566 15.3516 18.8232 13.5791Q19.5898 11.8066 19.5898 9.79492Q19.5898 7.7832 18.8232 6.01074Q18.0566 4.23828 16.7041 2.88574Q15.3516 1.5332 13.5742 0.766602Q11.7969 0 9.78516 0Q7.77344 0 6.00098 0.766602Q4.22852 1.5332 2.88086 2.88574Q1.5332 4.23828 0.766602 6.01074Q0 7.7832 0 9.79492Q0 11.8066 0.766602 13.5791Q1.5332 15.3516 2.88574 16.7041Q4.23828 18.0566 6.01074 18.8232Q7.7832 19.5898 9.79492 19.5898ZM9.79492 18.3203Q8.02734 18.3203 6.47949 17.6611Q4.93164 17.002 3.75977 15.8301Q2.58789 14.6582 1.92871 13.1104Q1.26953 11.5625 1.26953 9.79492Q1.26953 8.02734 1.92871 6.47949Q2.58789 4.93164 3.75977 3.75488Q4.93164 2.57812 6.47461 1.91895Q8.01758 1.25977 9.78516 1.25977Q11.5625 1.25977 13.1104 1.91895Q14.6582 2.57812 15.8301 3.75488Q17.002 4.93164 17.666 6.47949Q18.3301 8.02734 18.3301 9.79492Q18.3301 11.5625 17.666 13.1104Q17.002 14.6582 15.8301 15.8301Q14.6582 17.002 13.1152 17.6611Q11.5723 18.3203 9.79492 18.3203Z"
                     fill="#ac8e68" />
              <path d="M5.72266 14.2285L13.8672 14.2285Q14.5898 14.2285 14.9512 13.8721Q15.3125 13.5156 15.3125 12.793L15.3125 7.75391Q15.3125 7.03125 14.9512 6.6748Q14.5898 6.31836 13.8672 6.31836L5.72266 6.31836Q5 6.31836 4.63867 6.6748Q4.27734 7.03125 4.27734 7.75391L4.27734 12.793Q4.27734 13.5156 4.63867 13.8721Q5 14.2285 5.72266 14.2285ZM9.01367 10.8496Q8.49609 10.8496 8.49609 10.332L8.49609 9.92188Q7.45117 9.85352 6.41113 9.65332Q5.37109 9.45312 4.27734 9.07227L4.27734 8.30078Q5.6543 8.84766 6.99707 9.0625Q8.33984 9.27734 9.79492 9.27734Q11.25 9.27734 12.5977 9.0625Q13.9453 8.84766 15.3125 8.30078L15.3125 9.07227Q14.2188 9.45312 13.1787 9.65332Q12.1387 9.85352 11.0938 9.92188L11.0938 10.332Q11.0938 10.8496 10.5762 10.8496ZM6.91406 6.69922L7.70508 6.69922L7.70508 5.70312Q7.70508 5.23438 8.20312 5.23438L11.3867 5.23438Q11.8945 5.23438 11.8945 5.70312L11.8945 6.69922L12.6758 6.69922L12.6758 5.66406Q12.6758 5.11719 12.3389 4.7998Q12.002 4.48242 11.4258 4.48242L8.16406 4.48242Q7.58789 4.48242 7.25098 4.7998Q6.91406 5.11719 6.91406 5.66406Z"
                     fill="#ac8e68" />
       </g>
</svg>