<svg width="26.5234" height="21.6113">
       <g>
              <rect height="21.6113" opacity="0" width="26.5234" x="0" y="0" />
              <path d="M5.6543 20.0586Q5.87891 20.0586 6.0791 19.9365Q6.2793 19.8145 6.54297 19.5703L9.52148 16.7969Q9.22852 16.5039 9.02832 16.0059Q8.82812 15.5078 8.82812 14.5801L8.82812 8.34961Q8.82812 6.94336 9.36035 5.95215Q9.89258 4.96094 10.8887 4.43359Q11.8848 3.90625 13.291 3.90625L20.2246 3.90625L20.2246 3.27148Q20.166 2.25586 19.7461 1.52344Q19.3262 0.791016 18.5498 0.395508Q17.7734 0 16.6895 0L3.53516 0Q1.89453 0 0.947266 0.913086Q0 1.82617 0 3.50586L0 12.8223Q0 14.4922 0.947266 15.4541Q1.89453 16.416 3.53516 16.416L4.95117 16.416L4.95117 19.2578Q4.95117 19.6191 5.13672 19.8389Q5.32227 20.0586 5.6543 20.0586Z"
                     fill="rgba(255,255,255,0.55)" />
              <path d="M21.5039 21.6113Q21.8262 21.6113 22.0166 21.3916Q22.207 21.1719 22.207 20.8105L22.207 17.9785L22.9883 17.9785Q24.6191 17.9785 25.5713 17.0117Q26.5234 16.0449 26.5234 14.375L26.5234 8.54492Q26.5234 6.86523 25.5713 5.95703Q24.6191 5.04883 22.9883 5.04883L13.4961 5.04883Q11.8164 5.04883 10.8936 5.96191Q9.9707 6.875 9.9707 8.55469L9.9707 14.375Q9.9707 16.0449 10.8936 17.0117Q11.8164 17.9785 13.4961 17.9785L17.0801 17.9785L20.6152 21.1328Q20.8789 21.3672 21.0742 21.4893Q21.2695 21.6113 21.5039 21.6113Z"
                     fill="rgba(255,255,255,0.55)" />
              <path d="M18.3105 12.998Q17.7539 12.998 17.7441 12.4023L17.6465 8.50586Q17.6367 8.21289 17.8223 8.03223Q18.0078 7.85156 18.3105 7.85156Q18.6133 7.85156 18.7988 8.03711Q18.9844 8.22266 18.9844 8.50586L18.877 12.4023Q18.8574 12.998 18.3105 12.998ZM18.3105 15.8887Q17.9883 15.8887 17.7393 15.6543Q17.4902 15.4199 17.4902 15.0879Q17.4902 14.7461 17.7393 14.5117Q17.9883 14.2773 18.3105 14.2773Q18.6426 14.2773 18.8867 14.5117Q19.1309 14.7461 19.1309 15.0879Q19.1309 15.4297 18.8818 15.6592Q18.6328 15.8887 18.3105 15.8887Z"
                     fill="#ffffff" />
       </g>
</svg>