<svg width="26.8178" height="21.5012">
       <g>
              <rect height="21.5012" opacity="0" width="26.8178" x="0" y="0" />
              <path d="M6.06812 20.356Q6.36414 20.356 6.6153 20.23Q6.86646 20.1041 7.211 19.8029L11.1673 16.1552L10.419 15.2037L6.37161 19.0143L6.37161 16.1426Q6.37161 15.8293 6.20033 15.67Q6.02905 15.5107 5.77332 15.5107L4.03854 15.5107Q2.67319 15.5107 1.94107 14.7928Q1.20895 14.0749 1.20895 12.6714L1.20895 4.00192Q1.20895 2.59537 1.9426 1.87408Q2.67624 1.1528 4.03854 1.1528L17.4425 1.1528Q18.8049 1.1528 19.5385 1.87408Q20.2721 2.59537 20.2721 4.00192L20.2721 5.54764L21.481 5.54764L21.481 3.91907Q21.481 2.68234 21.0175 1.81145Q20.5539 0.940552 19.6748 0.480347Q18.7956 0.0201416 17.5493 0.0201416L3.93188 0.0201416Q2.72278 0.0201416 1.84029 0.480347Q0.957794 0.940552 0.478897 1.81145Q0 2.68234 0 3.91907L0 12.7376Q0 13.9839 0.478897 14.8563Q0.957794 15.7288 1.84029 16.1841Q2.72278 16.6394 3.93188 16.6394L5.2269 16.6394L5.2269 19.409Q5.2269 19.8544 5.44769 20.1052Q5.66849 20.356 6.06812 20.356Z"
                     fill="rgba(255,255,255,0.55)" />
              <path d="M21.8643 21.5012Q22.2479 21.5012 22.4578 21.2494Q22.6677 20.9976 22.6677 20.5771L22.6677 18.2333L23.2262 18.2333Q24.3228 18.2333 25.1288 17.8154Q25.9348 17.3975 26.3763 16.605Q26.8178 15.8125 26.8178 14.6754L26.8178 8.58612Q26.8178 7.45209 26.3763 6.65627Q25.9348 5.86044 25.1288 5.43945Q24.3228 5.01846 23.2262 5.01846L13.4924 5.01846Q12.3555 5.01846 11.5514 5.43945Q10.7472 5.86044 10.3244 6.65627Q9.90158 7.45209 9.90158 8.58612L9.90158 14.6846Q9.90158 15.8185 10.3244 16.6129Q10.7472 17.4072 11.5514 17.8203Q12.3555 18.2333 13.4924 18.2333L17.6729 18.2333L20.8257 20.9325Q21.1508 21.2105 21.3757 21.3558Q21.6005 21.5012 21.8643 21.5012ZM21.5419 20.1271L18.5616 17.4721Q18.317 17.2606 18.1265 17.1792Q17.9361 17.0978 17.6173 17.0978L13.5901 17.0978Q12.3997 17.0978 11.7487 16.4768Q11.0977 15.8559 11.0977 14.6146L11.1105 8.65311Q11.1105 7.42157 11.7551 6.7878Q12.3997 6.15402 13.5901 6.15402L23.1293 6.15402Q24.3227 6.15402 24.9687 6.7878Q25.6148 7.42157 25.6148 8.65311L25.6148 14.6054Q25.6148 15.84 24.9638 16.4689Q24.3129 17.0978 23.1293 17.0978L22.1213 17.0978Q21.8784 17.0978 21.7101 17.2462Q21.5419 17.3946 21.5419 17.7019Z"
                     fill="rgba(255,255,255,0.55)" />
       </g>
</svg>