<svg width="26.8164" height="21.4941">
       <g>
              <rect height="21.4941" opacity="0" width="26.8164" x="0" y="0" />
              <path d="M6.06445 20.3516Q6.36719 20.3516 6.61621 20.2246Q6.86523 20.0977 7.20703 19.7949L11.1719 16.1523L10.4199 15.2051L6.36719 19.0137L6.36719 16.1426Q6.36719 15.8301 6.19629 15.6689Q6.02539 15.5078 5.77148 15.5078L4.04297 15.5078Q2.67578 15.5078 1.94336 14.79Q1.21094 14.0723 1.21094 12.666L1.21094 3.99414Q1.21094 2.58789 1.94336 1.87012Q2.67578 1.15234 4.04297 1.15234L17.4414 1.15234Q18.8086 1.15234 19.541 1.87012Q20.2734 2.58789 20.2734 3.99414L20.2734 5.54688L21.4844 5.54688L21.4844 3.91602Q21.4844 2.67578 21.0205 1.80664Q20.5566 0.9375 19.6777 0.478516Q18.7988 0.0195312 17.5488 0.0195312L3.93555 0.0195312Q2.72461 0.0195312 1.84082 0.478516Q0.957031 0.9375 0.478516 1.80664Q0 2.67578 0 3.91602L0 12.7344Q0 13.9844 0.478516 14.8535Q0.957031 15.7227 1.84082 16.1816Q2.72461 16.6406 3.93555 16.6406L5.22461 16.6406L5.22461 19.4043Q5.22461 19.8535 5.44434 20.1025Q5.66406 20.3516 6.06445 20.3516Z"
                     fill="rgba(255,255,255,0.55)" />
              <path d="M21.8652 21.4941Q22.2461 21.4941 22.4561 21.2451Q22.666 20.9961 22.666 20.5762L22.666 18.2324L23.2227 18.2324Q24.3262 18.2324 25.1318 17.8125Q25.9375 17.3926 26.377 16.6016Q26.8164 15.8105 26.8164 14.668L26.8164 8.58398Q26.8164 7.45117 26.377 6.65527Q25.9375 5.85938 25.1318 5.43945Q24.3262 5.01953 23.2227 5.01953L13.4961 5.01953Q12.3535 5.01953 11.5527 5.43945Q10.752 5.85938 10.3271 6.65527Q9.90234 7.45117 9.90234 8.58398L9.90234 14.6777Q9.90234 15.8105 10.3271 16.6064Q10.752 17.4023 11.5527 17.8174Q12.3535 18.2324 13.4961 18.2324L17.6758 18.2324L20.8301 20.9277Q21.1523 21.2109 21.377 21.3525Q21.6016 21.4941 21.8652 21.4941ZM21.543 20.127L18.5645 17.4707Q18.3203 17.2559 18.1299 17.1729Q17.9395 17.0898 17.6172 17.0898L13.5938 17.0898Q12.4023 17.0898 11.748 16.4697Q11.0938 15.8496 11.0938 14.6094L11.1133 8.65234Q11.1133 7.42188 11.7578 6.78711Q12.4023 6.15234 13.5938 6.15234L23.125 6.15234Q24.3262 6.15234 24.9707 6.78711Q25.6152 7.42188 25.6152 8.65234L25.6152 14.5996Q25.6152 15.8398 24.9658 16.4648Q24.3164 17.0898 23.125 17.0898L22.1191 17.0898Q21.875 17.0898 21.709 17.2412Q21.543 17.3926 21.543 17.6953ZM18.3691 12.9297Q18.916 12.9297 18.9258 12.3145L19.043 8.57422Q19.0527 8.27148 18.8574 8.08105Q18.6621 7.89062 18.3594 7.89062Q18.0566 7.89062 17.8662 8.08105Q17.6758 8.27148 17.6855 8.56445L17.7832 12.3145Q17.8027 12.9297 18.3691 12.9297ZM18.3594 15.6934Q18.7207 15.6934 18.9746 15.4492Q19.2285 15.2051 19.2285 14.8535Q19.2285 14.4922 18.9746 14.2529Q18.7207 14.0137 18.3594 14.0137Q18.0078 14.0137 17.7539 14.2578Q17.5 14.502 17.5 14.8535Q17.5 15.1953 17.7539 15.4443Q18.0078 15.6934 18.3594 15.6934Z"
                     fill="rgba(255,255,255,0.55)" />
       </g>
</svg>