<svg width="19.5898" height="19.5996">
       <g>
              <rect height="19.5996" opacity="0" width="19.5898" x="0" y="0" />
              <path d="M9.79492 19.5996Q11.8066 19.5996 13.5791 18.833Q15.3516 18.0664 16.7041 16.7139Q18.0566 15.3613 18.8232 13.5889Q19.5898 11.8164 19.5898 9.80469Q19.5898 7.79297 18.8232 6.02051Q18.0566 4.24805 16.7041 2.89551Q15.3516 1.54297 13.5742 0.776367Q11.7969 0.00976562 9.78516 0.00976562Q7.77344 0.00976562 6.00098 0.776367Q4.22852 1.54297 2.88086 2.89551Q1.5332 4.24805 0.766602 6.02051Q0 7.79297 0 9.80469Q0 11.8164 0.766602 13.5889Q1.5332 15.3613 2.88574 16.7139Q4.23828 18.0664 6.01074 18.833Q7.7832 19.5996 9.79492 19.5996Z"
                     fill="rgba(255,255,255,0.55)" />
              <path d="M12.4512 15.5273Q12.2461 15.5273 11.9922 15.3027L10.166 13.6719L6.45508 13.6719Q5.43945 13.6719 4.87793 13.1055Q4.31641 12.5391 4.31641 11.5234L4.31641 7.4707Q4.31641 6.47461 4.87793 5.9082Q5.43945 5.3418 6.45508 5.3418L13.1348 5.3418Q14.1504 5.3418 14.7119 5.90332Q15.2734 6.46484 15.2734 7.4707L15.2734 11.5234Q15.2734 12.5391 14.7119 13.1055Q14.1504 13.6719 13.1348 13.6719L12.8125 13.6719L12.8125 15.1367Q12.8125 15.5273 12.4512 15.5273Z"
                     fill="#ffffff" />
       </g>
</svg>