<svg width="19.5898" height="19.5996">
       <g>
              <rect height="19.5996" opacity="0" width="19.5898" x="0" y="0" />
              <path d="M9.79492 19.5996Q11.8066 19.5996 13.5791 18.833Q15.3516 18.0664 16.7041 16.7139Q18.0566 15.3613 18.8232 13.5889Q19.5898 11.8164 19.5898 9.80469Q19.5898 7.79297 18.8232 6.02051Q18.0566 4.24805 16.7041 2.89551Q15.3516 1.54297 13.5742 0.776367Q11.7969 0.00976562 9.78516 0.00976562Q7.77344 0.00976562 6.00098 0.776367Q4.22852 1.54297 2.88086 2.89551Q1.5332 4.24805 0.766602 6.02051Q0 7.79297 0 9.80469Q0 11.8164 0.766602 13.5889Q1.5332 15.3613 2.88574 16.7139Q4.23828 18.0664 6.01074 18.833Q7.7832 19.5996 9.79492 19.5996Z"
                     fill="rgba(255,255,255,0.55)" />
              <path d="M9.79492 18.3301Q7.94922 18.3301 6.35254 17.6123Q4.75586 16.8945 3.59375 15.6641L3.59375 6.5625Q3.59375 6.02539 3.87695 5.71777Q4.16016 5.41016 4.69727 5.41016L11.1719 5.41016Q11.7188 5.41016 11.9971 5.71777Q12.2754 6.02539 12.2754 6.5625L12.2754 17.9688Q11.6895 18.1445 11.0645 18.2373Q10.4395 18.3301 9.79492 18.3301ZM5.91797 16.3184L7.02148 16.3184Q7.2168 16.3184 7.2168 16.123L7.2168 15.0488Q7.2168 14.8438 7.02148 14.8438L5.91797 14.8438Q5.72266 14.8438 5.72266 15.0488L5.72266 16.123Q5.72266 16.3184 5.91797 16.3184ZM8.80859 16.3184L9.90234 16.3184Q10.0977 16.3184 10.0977 16.123L10.0977 15.0488Q10.0977 14.8438 9.90234 14.8438L8.80859 14.8438Q8.61328 14.8438 8.61328 15.0488L8.61328 16.123Q8.61328 16.3184 8.80859 16.3184ZM5.91797 13.75L7.02148 13.75Q7.2168 13.75 7.2168 13.5547L7.2168 12.4805Q7.2168 12.2754 7.02148 12.2754L5.91797 12.2754Q5.72266 12.2754 5.72266 12.4805L5.72266 13.5547Q5.72266 13.75 5.91797 13.75ZM8.80859 13.75L9.90234 13.75Q10.0977 13.75 10.0977 13.5547L10.0977 12.4805Q10.0977 12.2754 9.90234 12.2754L8.80859 12.2754Q8.61328 12.2754 8.61328 12.4805L8.61328 13.5547Q8.61328 13.6328 8.66699 13.6914Q8.7207 13.75 8.80859 13.75ZM5.91797 11.1816L7.02148 11.1816Q7.2168 11.1816 7.2168 10.9863L7.2168 9.91211Q7.2168 9.70703 7.02148 9.70703L5.91797 9.70703Q5.72266 9.70703 5.72266 9.91211L5.72266 10.9863Q5.72266 11.1816 5.91797 11.1816ZM8.80859 11.1816L9.90234 11.1816Q10.0977 11.1816 10.0977 10.9863L10.0977 9.91211Q10.0977 9.70703 9.90234 9.70703L8.80859 9.70703Q8.7207 9.70703 8.66699 9.76562Q8.61328 9.82422 8.61328 9.91211L8.61328 10.9863Q8.61328 11.1816 8.80859 11.1816ZM5.91797 8.64258L7.02148 8.64258Q7.2168 8.64258 7.2168 8.4375L7.2168 7.36328Q7.2168 7.1582 7.02148 7.1582L5.91797 7.1582Q5.72266 7.1582 5.72266 7.36328L5.72266 8.4375Q5.72266 8.64258 5.91797 8.64258ZM8.80859 8.64258L9.90234 8.64258Q10.0977 8.64258 10.0977 8.4375L10.0977 7.36328Q10.0977 7.1582 9.90234 7.1582L8.80859 7.1582Q8.61328 7.1582 8.61328 7.36328L8.61328 8.4375Q8.61328 8.64258 8.80859 8.64258ZM12.9492 17.7344L12.9492 7.93945L15.7324 7.93945Q16.2695 7.93945 16.5527 8.2373Q16.8359 8.53516 16.8359 9.0918L16.8359 14.5801Q16.3672 15.2832 15.7666 15.8789Q15.166 16.4746 14.4531 16.9482Q13.7402 17.4219 12.9492 17.7344ZM14.4043 15.5176L15.3711 15.5176Q15.5273 15.5176 15.5273 15.3516L15.5273 14.4141Q15.5273 14.2383 15.3711 14.2383L14.4043 14.2383Q14.2285 14.2383 14.2285 14.4141L14.2285 15.3516Q14.2285 15.5176 14.4043 15.5176ZM14.4043 13.2031L15.3711 13.2031Q15.5273 13.2031 15.5273 13.0273L15.5273 12.0898Q15.5273 11.9238 15.3711 11.9238L14.4043 11.9238Q14.2285 11.9238 14.2285 12.0898L14.2285 13.0273Q14.2285 13.2031 14.4043 13.2031ZM14.4043 10.8887L15.3711 10.8887Q15.5273 10.8887 15.5273 10.7129L15.5273 9.77539Q15.5273 9.60938 15.3711 9.60938L14.4043 9.60938Q14.2285 9.60938 14.2285 9.77539L14.2285 10.7129Q14.2285 10.8887 14.4043 10.8887Z"
                     fill="#ffffff" />
       </g>
</svg>