<svg width="19.5898" height="19.5996">
       <g>
              <rect height="19.5996" opacity="0" width="19.5898" x="0" y="0" />
              <path d="M9.79492 19.5898Q11.8066 19.5898 13.5791 18.8232Q15.3516 18.0566 16.7041 16.7041Q18.0566 15.3516 18.8232 13.5791Q19.5898 11.8066 19.5898 9.79492Q19.5898 7.7832 18.8232 6.01074Q18.0566 4.23828 16.7041 2.88574Q15.3516 1.5332 13.5742 0.766602Q11.7969 0 9.78516 0Q7.77344 0 6.00098 0.766602Q4.22852 1.5332 2.88086 2.88574Q1.5332 4.23828 0.766602 6.01074Q0 7.7832 0 9.79492Q0 11.8066 0.766602 13.5791Q1.5332 15.3516 2.88574 16.7041Q4.23828 18.0566 6.01074 18.8232Q7.7832 19.5898 9.79492 19.5898Z"
                     fill="rgba(255,255,255,0.55)" />
              <path d="M4.38477 7.03125Q4.38477 6.81641 4.60938 6.68945L9.17969 4.07227Q9.48242 3.88672 9.79492 3.88672Q10.1074 3.88672 10.4199 4.07227L14.9707 6.68945Q15.2148 6.81641 15.2148 7.03125Q15.2148 7.17773 15.1074 7.29004Q15 7.40234 14.8145 7.40234L4.76562 7.40234Q4.58008 7.40234 4.48242 7.29004Q4.38477 7.17773 4.38477 7.03125ZM5.04883 13.2227L5.04883 13.1152Q5.04883 12.8125 5.35156 12.8125L5.68359 12.8125L5.68359 8.68164L5.35156 8.68164Q5.04883 8.68164 5.04883 8.38867L5.04883 8.28125Q5.04883 8.14453 5.12695 8.06152Q5.20508 7.97852 5.35156 7.97852L6.70898 7.97852Q6.8457 7.97852 6.92871 8.06152Q7.01172 8.14453 7.01172 8.28125L7.01172 8.38867Q7.01172 8.68164 6.70898 8.68164L6.39648 8.68164L6.39648 12.8125L6.70898 12.8125Q7.01172 12.8125 7.01172 13.1152L7.01172 13.2227Q7.01172 13.3594 6.93359 13.4375Q6.85547 13.5156 6.70898 13.5156L5.35156 13.5156Q5.20508 13.5156 5.12695 13.4375Q5.04883 13.3594 5.04883 13.2227ZM7.56836 13.2227L7.56836 13.1152Q7.56836 12.8125 7.86133 12.8125L8.20312 12.8125L8.20312 8.68164L7.86133 8.68164Q7.56836 8.68164 7.56836 8.38867L7.56836 8.28125Q7.56836 8.14453 7.65137 8.06152Q7.73438 7.97852 7.86133 7.97852L9.21875 7.97852Q9.36523 7.97852 9.45312 8.06152Q9.54102 8.14453 9.54102 8.28125L9.54102 8.38867Q9.54102 8.68164 9.21875 8.68164L8.90625 8.68164L8.90625 12.8125L9.21875 12.8125Q9.54102 12.8125 9.54102 13.1152L9.54102 13.2227Q9.54102 13.3594 9.45312 13.4375Q9.36523 13.5156 9.21875 13.5156L7.86133 13.5156Q7.72461 13.5156 7.64648 13.4375Q7.56836 13.3594 7.56836 13.2227ZM10.0977 13.2227L10.0977 13.1152Q10.0977 12.8125 10.3906 12.8125L10.7227 12.8125L10.7227 8.68164L10.3906 8.68164Q10.0977 8.68164 10.0977 8.38867L10.0977 8.28125Q10.0977 8.14453 10.1758 8.06152Q10.2539 7.97852 10.3906 7.97852L11.7578 7.97852Q11.8848 7.97852 11.9727 8.06152Q12.0605 8.14453 12.0605 8.28125L12.0605 8.38867Q12.0605 8.68164 11.7578 8.68164L11.4258 8.68164L11.4258 12.8125L11.7578 12.8125Q12.0605 12.8125 12.0605 13.1152L12.0605 13.2227Q12.0605 13.3594 11.9727 13.4375Q11.8848 13.5156 11.7578 13.5156L10.3906 13.5156Q10.2539 13.5156 10.1758 13.4375Q10.0977 13.3594 10.0977 13.2227ZM12.6172 13.2227L12.6172 13.1152Q12.6172 12.8125 12.9102 12.8125L13.252 12.8125L13.252 8.68164L12.9102 8.68164Q12.6172 8.68164 12.6172 8.38867L12.6172 8.28125Q12.6172 8.14453 12.6953 8.06152Q12.7734 7.97852 12.9102 7.97852L14.2773 7.97852Q14.4141 7.97852 14.4971 8.06152Q14.5801 8.14453 14.5801 8.28125L14.5801 8.38867Q14.5801 8.68164 14.2773 8.68164L13.9551 8.68164L13.9551 12.8125L14.2773 12.8125Q14.5801 12.8125 14.5801 13.1152L14.5801 13.2227Q14.5801 13.3594 14.4971 13.4375Q14.4141 13.5156 14.2773 13.5156L12.9102 13.5156Q12.7637 13.5156 12.6904 13.4375Q12.6172 13.3594 12.6172 13.2227ZM4.20898 14.4824Q4.20898 14.3164 4.31152 14.209Q4.41406 14.1016 4.57031 14.1016L15.0195 14.1016Q15.1758 14.1016 15.2783 14.209Q15.3809 14.3164 15.3809 14.4824Q15.3809 14.6289 15.2734 14.7314Q15.166 14.834 15.0195 14.834L4.57031 14.834Q4.42383 14.834 4.31641 14.7314Q4.20898 14.6289 4.20898 14.4824Z"
                     fill="#ffffff" />
       </g>
</svg>