<svg width="22.112" height="20.582">
       <g>
              <rect height="20.582" opacity="0" width="22.112" x="0" y="0" />
              <path d="M13.4119 20.582L20.6248 20.582Q21.3307 20.582 21.7213 20.1591Q22.112 19.7362 22.112 18.9862L22.112 6.90369Q22.112 6.15372 21.7213 5.73082Q21.3307 5.30792 20.6248 5.30792L14.1301 5.30792L14.1301 6.51398L20.2827 6.51398Q20.6084 6.51398 20.7557 6.6613Q20.903 6.80862 20.903 7.14386L20.903 18.746Q20.903 19.0813 20.7557 19.2286Q20.6084 19.3759 20.2827 19.3759L13.4119 19.3759ZM17.0589 10.3279L18.7401 10.3279Q19.0327 10.3279 19.0327 10.0322L19.0327 8.39066Q19.0327 8.09494 18.7401 8.09494L17.0589 8.09494Q16.776 8.09494 16.776 8.39066L16.776 10.0322Q16.776 10.3279 17.0589 10.3279ZM17.0589 14.0614L18.7401 14.0614Q19.0327 14.0614 19.0327 13.7657L19.0327 12.1242Q19.0327 11.8285 18.7401 11.8285L17.0589 11.8285Q16.776 11.8285 16.776 12.1242L16.776 13.7657Q16.776 14.0614 17.0589 14.0614ZM17.0589 17.795L18.7401 17.795Q19.0327 17.795 19.0327 17.4992L19.0327 15.8577Q19.0327 15.562 18.7401 15.562L17.0589 15.562Q16.776 15.562 16.776 15.8577L16.776 17.4992Q16.776 17.795 17.0589 17.795Z"
                     fill="rgba(255,255,255,0.55)" />
              <path d="M0 18.9862Q0 19.7362 0.390701 20.1591Q0.781403 20.582 1.49399 20.582L13.4119 20.582Q14.1177 20.582 14.5084 20.1591Q14.899 19.7362 14.899 18.9862L14.899 1.61469Q14.899 0.857849 14.5084 0.438385Q14.1177 0.0189209 13.4119 0.0189209L1.49399 0.0189209Q0.781403 0.0189209 0.390701 0.438385Q0 0.857849 0 1.61469ZM1.20895 18.746L1.20895 1.85486Q1.20895 1.51947 1.35628 1.37215Q1.5036 1.22482 1.83594 1.22482L13.0698 1.22482Q13.3954 1.22482 13.5427 1.37215Q13.69 1.51947 13.69 1.85486L13.69 18.746Q13.69 19.0813 13.5427 19.2286Q13.3954 19.3759 13.0698 19.3759L1.83594 19.3759Q1.5036 19.3759 1.35628 19.2286Q1.20895 19.0813 1.20895 18.746ZM4.08737 19.9486L5.10025 19.9486L5.10025 16.8111Q5.10025 16.4349 5.47638 16.4349L9.42566 16.4349Q9.80179 16.4349 9.80179 16.8111L9.80179 19.9486L10.8147 19.9486L10.8147 16.5707Q10.8147 15.9784 10.5466 15.6987Q10.2785 15.419 9.70337 15.419L5.19867 15.419Q4.63333 15.419 4.36035 15.6987Q4.08737 15.9784 4.08737 16.5707ZM4.22546 5.70435L6.25092 5.70435Q6.60583 5.70435 6.60583 5.34637L6.60583 3.36441Q6.60583 3.00644 6.25092 3.00644L4.22546 3.00644Q3.88397 3.00644 3.88397 3.36441L3.88397 5.34637Q3.88397 5.70435 4.22546 5.70435ZM8.64517 5.70435L10.6668 5.70435Q11.0217 5.70435 11.0217 5.34637L11.0217 3.36441Q11.0217 3.00644 10.6668 3.00644L8.64517 3.00644Q8.29987 3.00644 8.29987 3.36441L8.29987 5.34637Q8.29987 5.70435 8.64517 5.70435ZM4.22546 9.73801L6.25092 9.73801Q6.60583 9.73801 6.60583 9.38004L6.60583 7.40112Q6.60583 7.04315 6.25092 7.04315L4.22546 7.04315Q3.88397 7.04315 3.88397 7.40112L3.88397 9.38004Q3.88397 9.73801 4.22546 9.73801ZM8.64517 9.73801L10.6668 9.73801Q11.0217 9.73801 11.0217 9.38004L11.0217 7.40112Q11.0217 7.04315 10.6668 7.04315L8.64517 7.04315Q8.29987 7.04315 8.29987 7.40112L8.29987 9.38004Q8.29987 9.73801 8.64517 9.73801ZM4.22546 13.7747L6.25092 13.7747Q6.60583 13.7747 6.60583 13.4167L6.60583 11.4348Q6.60583 11.0799 6.25092 11.0799L4.22546 11.0799Q3.88397 11.0799 3.88397 11.4348L3.88397 13.4167Q3.88397 13.7747 4.22546 13.7747ZM8.64517 13.7747L10.6668 13.7747Q11.0217 13.7747 11.0217 13.4167L11.0217 11.4348Q11.0217 11.0799 10.6668 11.0799L8.64517 11.0799Q8.29987 11.0799 8.29987 11.4348L8.29987 13.4167Q8.29987 13.7747 8.64517 13.7747Z"
                     fill="rgba(255,255,255,0.55)" />
       </g>
</svg>