<svg width="17.6819" height="17.7075">
       <g>
              <rect height="17.7075" opacity="0" width="17.6819" x="0" y="0" />
              <path d="M2.87872 17.7075L14.8001 17.7075Q16.2334 17.7075 16.9576 16.987Q17.6819 16.2665 17.6819 14.8528L17.6819 2.8804Q17.6819 1.46667 16.9576 0.746155Q16.2334 0.0256348 14.8001 0.0256348L2.87872 0.0256348Q1.44836 0.0256348 0.724182 0.743103Q0 1.46057 0 2.8804L0 14.8528Q0 16.2726 0.724182 16.9901Q1.44836 17.7075 2.87872 17.7075Z"
                     fill="rgba(255,255,255,0.55)" />
              <path d="M8.92349 14.404Q7.80075 14.404 6.79703 13.9651Q5.7933 13.5262 5.02808 12.7608Q4.26285 11.9955 3.82385 10.9918Q3.38486 9.9881 3.38486 8.85864Q3.38486 7.72919 3.81897 6.72394Q4.25308 5.71869 5.01831 4.95338Q5.78354 4.18808 6.78726 3.74916Q7.79099 3.31024 8.92349 3.31024Q10.0531 3.31024 11.0553 3.74916Q12.0575 4.18808 12.8227 4.95674Q13.588 5.7254 14.0269 6.72729Q14.4659 7.72919 14.4659 8.85864Q14.4659 9.9881 14.0318 10.9918Q13.5977 11.9955 12.8291 12.7608Q12.0604 13.5262 11.0601 13.9651Q10.0598 14.404 8.92349 14.404ZM8.92349 13.287Q10.1355 13.287 11.1411 12.6826Q12.1468 12.0782 12.7528 11.071Q13.3588 10.0638 13.3588 8.85864Q13.3588 7.65045 12.7509 6.6433Q12.1431 5.63614 11.1359 5.03014Q10.1288 4.42413 8.92349 4.42413Q7.7153 4.42413 6.70815 5.03014Q5.70099 5.63614 5.09651 6.6433Q4.49203 7.65045 4.49203 8.85864Q4.49203 10.0638 5.10139 11.071Q5.71075 12.0782 6.71638 12.6826Q7.72202 13.287 8.92349 13.287ZM8.92349 12.3518Q7.98111 12.3518 7.18559 11.8705Q6.39008 11.3892 5.91362 10.5985Q5.43716 9.80789 5.43716 8.85864Q5.43716 7.90939 5.91362 7.11388Q6.39008 6.31836 7.18071 5.84038Q7.97134 5.3624 8.92349 5.3624Q9.86969 5.3624 10.6652 5.84373Q11.4607 6.32507 11.9372 7.11723Q12.4136 7.90939 12.4136 8.85864Q12.4136 9.80789 11.9372 10.6019Q11.4607 11.3959 10.6686 11.8739Q9.8764 12.3518 8.92349 12.3518Z"
                     fill="#ffffff" />
       </g>
</svg>