<svg width="19.5898" height="19.5996">
       <g>
              <rect height="19.5996" opacity="0" width="19.5898" x="0" y="0" />
              <path d="M9.79492 19.5898Q11.8066 19.5898 13.5791 18.8232Q15.3516 18.0566 16.7041 16.7041Q18.0566 15.3516 18.8232 13.5791Q19.5898 11.8066 19.5898 9.79492Q19.5898 7.7832 18.8232 6.01074Q18.0566 4.23828 16.7041 2.88574Q15.3516 1.5332 13.5742 0.766602Q11.7969 0 9.78516 0Q7.77344 0 6.00098 0.766602Q4.22852 1.5332 2.88086 2.88574Q1.5332 4.23828 0.766602 6.01074Q0 7.7832 0 9.79492Q0 11.8066 0.766602 13.5791Q1.5332 15.3516 2.88574 16.7041Q4.23828 18.0566 6.01074 18.8232Q7.7832 19.5898 9.79492 19.5898Z"
                     fill="rgba(255,255,255,0.55)" />
              <path d="M9.84375 14.4238Q8.59375 14.4238 7.6709 13.8428Q6.74805 13.2617 6.24023 12.2119Q5.73242 11.1621 5.73242 9.73633Q5.73242 8.33008 6.24023 7.27539Q6.74805 6.2207 7.67578 5.63477Q8.60352 5.04883 9.84375 5.04883Q10.7031 5.04883 11.4307 5.33203Q12.1582 5.61523 12.6758 6.12305Q13.1934 6.63086 13.3887 7.30469Q13.4277 7.44141 13.4424 7.52441Q13.457 7.60742 13.457 7.69531Q13.457 7.95898 13.3105 8.11035Q13.1641 8.26172 12.9102 8.26172Q12.7246 8.26172 12.5977 8.15918Q12.4707 8.05664 12.373 7.8418Q12.1387 7.03125 11.4697 6.56738Q10.8008 6.10352 9.85352 6.10352Q9.00391 6.10352 8.35938 6.56738Q7.71484 7.03125 7.35352 7.84668Q6.99219 8.66211 6.99219 9.73633Q6.99219 10.8203 7.35352 11.6406Q7.71484 12.4609 8.35938 12.915Q9.00391 13.3691 9.85352 13.3691Q10.8008 13.3691 11.4648 12.9102Q12.1289 12.4512 12.373 11.6406Q12.5488 11.2207 12.9102 11.2207Q13.1641 11.2207 13.3105 11.3672Q13.457 11.5137 13.457 11.7773Q13.457 11.8652 13.4424 11.9531Q13.4277 12.041 13.3887 12.1777Q13.1934 12.8516 12.6855 13.3545Q12.1777 13.8574 11.4453 14.1406Q10.7129 14.4238 9.84375 14.4238Z"
                     fill="#ffffff" />
       </g>
</svg>