<svg width="17.6855" height="17.7051">
       <g>
              <rect height="17.7051" opacity="0" width="17.6855" x="0" y="0" />
              <path d="M2.88086 17.7051L14.8047 17.7051Q16.2305 17.7051 16.958 16.9873Q17.6855 16.2695 17.6855 14.8535L17.6855 2.88086Q17.6855 1.46484 16.958 0.742188Q16.2305 0.0195312 14.8047 0.0195312L2.88086 0.0195312Q1.44531 0.0195312 0.722656 0.737305Q0 1.45508 0 2.88086L0 14.8535Q0 16.2695 0.722656 16.9873Q1.44531 17.7051 2.88086 17.7051Z"
                     fill="rgba(255,255,255,0.55)" />
              <path d="M8.88672 13.4766Q7.63672 13.4766 6.71387 12.8955Q5.79102 12.3145 5.2832 11.2646Q4.77539 10.2148 4.77539 8.78906Q4.77539 7.38281 5.2832 6.32812Q5.79102 5.27344 6.71875 4.6875Q7.64648 4.10156 8.88672 4.10156Q9.74609 4.10156 10.4736 4.38477Q11.2012 4.66797 11.7188 5.17578Q12.2363 5.68359 12.4316 6.35742Q12.4707 6.49414 12.4854 6.57715Q12.5 6.66016 12.5 6.74805Q12.5 7.01172 12.3535 7.16309Q12.207 7.31445 11.9531 7.31445Q11.7676 7.31445 11.6406 7.21191Q11.5137 7.10938 11.416 6.89453Q11.1816 6.08398 10.5127 5.62012Q9.84375 5.15625 8.89648 5.15625Q8.04688 5.15625 7.40234 5.62012Q6.75781 6.08398 6.39648 6.89941Q6.03516 7.71484 6.03516 8.78906Q6.03516 9.87305 6.39648 10.6934Q6.75781 11.5137 7.40234 11.9678Q8.04688 12.4219 8.89648 12.4219Q9.84375 12.4219 10.5078 11.9629Q11.1719 11.5039 11.416 10.6934Q11.5918 10.2734 11.9531 10.2734Q12.207 10.2734 12.3535 10.4199Q12.5 10.5664 12.5 10.8301Q12.5 10.918 12.4854 11.0059Q12.4707 11.0938 12.4316 11.2305Q12.2363 11.9043 11.7285 12.4072Q11.2207 12.9102 10.4883 13.1934Q9.75586 13.4766 8.88672 13.4766Z"
                     fill="#ffffff" />
       </g>
</svg>