<svg width="19.3359" height="17.7051">
       <g>
              <rect height="17.7051" opacity="0" width="19.3359" x="0" y="0" />
              <path d="M2.88086 17.7051L16.4648 17.7051Q17.9004 17.7051 18.6182 16.9873Q19.3359 16.2695 19.3359 14.8535L19.3359 2.88086Q19.3359 1.46484 18.6182 0.742188Q17.9004 0.0195312 16.4648 0.0195312L2.88086 0.0195312Q1.44531 0.0195312 0.722656 0.737305Q0 1.45508 0 2.88086L0 14.8535Q0 16.2695 0.722656 16.9873Q1.44531 17.7051 2.88086 17.7051ZM2.79297 16.4941Q2.02148 16.4941 1.61621 16.0938Q1.21094 15.6934 1.21094 14.9023L1.21094 5.9668Q1.21094 5.17578 1.61621 4.77051Q2.02148 4.36523 2.79297 4.36523L16.543 4.36523Q17.3047 4.36523 17.7148 4.77051Q18.125 5.17578 18.125 5.9668L18.125 14.9023Q18.125 15.6934 17.7148 16.0938Q17.3047 16.4941 16.543 16.4941ZM7.73438 7.8418L8.31055 7.8418Q8.53516 7.8418 8.61816 7.76367Q8.70117 7.68555 8.70117 7.46094L8.70117 6.88477Q8.70117 6.66016 8.61816 6.58691Q8.53516 6.51367 8.31055 6.51367L7.73438 6.51367Q7.50977 6.51367 7.42676 6.58691Q7.34375 6.66016 7.34375 6.88477L7.34375 7.46094Q7.34375 7.68555 7.42676 7.76367Q7.50977 7.8418 7.73438 7.8418ZM11.0449 7.8418L11.6211 7.8418Q11.8555 7.8418 11.9336 7.76367Q12.0117 7.68555 12.0117 7.46094L12.0117 6.88477Q12.0117 6.66016 11.9336 6.58691Q11.8555 6.51367 11.6211 6.51367L11.0449 6.51367Q10.8203 6.51367 10.7373 6.58691Q10.6543 6.66016 10.6543 6.88477L10.6543 7.46094Q10.6543 7.68555 10.7373 7.76367Q10.8203 7.8418 11.0449 7.8418ZM14.3555 7.8418L14.9316 7.8418Q15.166 7.8418 15.2441 7.76367Q15.3223 7.68555 15.3223 7.46094L15.3223 6.88477Q15.3223 6.66016 15.2441 6.58691Q15.166 6.51367 14.9316 6.51367L14.3555 6.51367Q14.1211 6.51367 14.043 6.58691Q13.9648 6.66016 13.9648 6.88477L13.9648 7.46094Q13.9648 7.68555 14.043 7.76367Q14.1211 7.8418 14.3555 7.8418ZM4.42383 11.1035L5 11.1035Q5.22461 11.1035 5.30762 11.0254Q5.39062 10.9473 5.39062 10.7227L5.39062 10.1562Q5.39062 9.92188 5.30762 9.84863Q5.22461 9.77539 5 9.77539L4.42383 9.77539Q4.18945 9.77539 4.11133 9.84863Q4.0332 9.92188 4.0332 10.1562L4.0332 10.7227Q4.0332 10.9473 4.11133 11.0254Q4.18945 11.1035 4.42383 11.1035ZM7.73438 11.1035L8.31055 11.1035Q8.53516 11.1035 8.61816 11.0254Q8.70117 10.9473 8.70117 10.7227L8.70117 10.1562Q8.70117 9.92188 8.61816 9.84863Q8.53516 9.77539 8.31055 9.77539L7.73438 9.77539Q7.50977 9.77539 7.42676 9.84863Q7.34375 9.92188 7.34375 10.1562L7.34375 10.7227Q7.34375 10.9473 7.42676 11.0254Q7.50977 11.1035 7.73438 11.1035ZM11.0449 11.1035L11.6211 11.1035Q11.8555 11.1035 11.9336 11.0254Q12.0117 10.9473 12.0117 10.7227L12.0117 10.1562Q12.0117 9.92188 11.9336 9.84863Q11.8555 9.77539 11.6211 9.77539L11.0449 9.77539Q10.8203 9.77539 10.7373 9.84863Q10.6543 9.92188 10.6543 10.1562L10.6543 10.7227Q10.6543 10.9473 10.7373 11.0254Q10.8203 11.1035 11.0449 11.1035ZM14.3555 11.1035L14.9316 11.1035Q15.166 11.1035 15.2441 11.0254Q15.3223 10.9473 15.3223 10.7227L15.3223 10.1562Q15.3223 9.92188 15.2441 9.84863Q15.166 9.77539 14.9316 9.77539L14.3555 9.77539Q14.1211 9.77539 14.043 9.84863Q13.9648 9.92188 13.9648 10.1562L13.9648 10.7227Q13.9648 10.9473 14.043 11.0254Q14.1211 11.1035 14.3555 11.1035ZM4.42383 14.3652L5 14.3652Q5.22461 14.3652 5.30762 14.292Q5.39062 14.2188 5.39062 13.9844L5.39062 13.418Q5.39062 13.1836 5.30762 13.1104Q5.22461 13.0371 5 13.0371L4.42383 13.0371Q4.18945 13.0371 4.11133 13.1104Q4.0332 13.1836 4.0332 13.418L4.0332 13.9844Q4.0332 14.2188 4.11133 14.292Q4.18945 14.3652 4.42383 14.3652ZM7.73438 14.3652L8.31055 14.3652Q8.53516 14.3652 8.61816 14.292Q8.70117 14.2188 8.70117 13.9844L8.70117 13.418Q8.70117 13.1836 8.61816 13.1104Q8.53516 13.0371 8.31055 13.0371L7.73438 13.0371Q7.50977 13.0371 7.42676 13.1104Q7.34375 13.1836 7.34375 13.418L7.34375 13.9844Q7.34375 14.2188 7.42676 14.292Q7.50977 14.3652 7.73438 14.3652ZM11.0449 14.3652L11.6211 14.3652Q11.8555 14.3652 11.9336 14.292Q12.0117 14.2188 12.0117 13.9844L12.0117 13.418Q12.0117 13.1836 11.9336 13.1104Q11.8555 13.0371 11.6211 13.0371L11.0449 13.0371Q10.8203 13.0371 10.7373 13.1104Q10.6543 13.1836 10.6543 13.418L10.6543 13.9844Q10.6543 14.2188 10.7373 14.292Q10.8203 14.3652 11.0449 14.3652Z"
                     fill="#ff453a" />
       </g>
</svg>