<svg width="19.5898" height="19.5996">
       <g>
              <rect height="19.5996" opacity="0" width="19.5898" x="0" y="0" />
              <path d="M9.79492 19.5996Q11.8066 19.5996 13.5791 18.833Q15.3516 18.0664 16.7041 16.7139Q18.0566 15.3613 18.8232 13.5889Q19.5898 11.8164 19.5898 9.80469Q19.5898 7.79297 18.8232 6.02051Q18.0566 4.24805 16.7041 2.89551Q15.3516 1.54297 13.5742 0.776367Q11.7969 0.00976562 9.78516 0.00976562Q7.77344 0.00976562 6.00098 0.776367Q4.22852 1.54297 2.88086 2.89551Q1.5332 4.24805 0.766602 6.02051Q0 7.79297 0 9.80469Q0 11.8164 0.766602 13.5889Q1.5332 15.3613 2.88574 16.7139Q4.23828 18.0664 6.01074 18.833Q7.7832 19.5996 9.79492 19.5996Z"
                     fill="#ff453a" />
              <path d="M6.12305 14.5996Q5.35156 14.5996 4.95605 14.209Q4.56055 13.8184 4.56055 13.0469L4.56055 6.5625Q4.56055 5.79102 4.95605 5.40039Q5.35156 5.00977 6.12305 5.00977L13.4766 5.00977Q14.248 5.00977 14.6436 5.40039Q15.0391 5.79102 15.0391 6.5625L15.0391 13.0469Q15.0391 13.8184 14.6436 14.209Q14.248 14.5996 13.4766 14.5996ZM6.09375 13.8379L13.4961 13.8379Q13.877 13.8379 14.0674 13.6523Q14.2578 13.4668 14.2578 13.0762L14.2578 8.22266Q14.2578 7.36328 13.3984 7.36328L6.19141 7.36328Q5.3418 7.36328 5.3418 8.22266L5.3418 13.0762Q5.3418 13.4668 5.52734 13.6523Q5.71289 13.8379 6.09375 13.8379ZM8.7207 9.32617Q8.56445 9.32617 8.51562 9.27734Q8.4668 9.22852 8.4668 9.08203L8.4668 8.70117Q8.4668 8.55469 8.51562 8.50098Q8.56445 8.44727 8.7207 8.44727L9.08203 8.44727Q9.23828 8.44727 9.29199 8.50098Q9.3457 8.55469 9.3457 8.70117L9.3457 9.08203Q9.3457 9.22852 9.29199 9.27734Q9.23828 9.32617 9.08203 9.32617ZM10.5176 9.32617Q10.3613 9.32617 10.3076 9.27734Q10.2539 9.22852 10.2539 9.08203L10.2539 8.70117Q10.2539 8.55469 10.3076 8.50098Q10.3613 8.44727 10.5176 8.44727L10.8789 8.44727Q11.0254 8.44727 11.0791 8.50098Q11.1328 8.55469 11.1328 8.70117L11.1328 9.08203Q11.1328 9.22852 11.0791 9.27734Q11.0254 9.32617 10.8789 9.32617ZM12.3047 9.32617Q12.1484 9.32617 12.0947 9.27734Q12.041 9.22852 12.041 9.08203L12.041 8.70117Q12.041 8.44727 12.3047 8.44727L12.666 8.44727Q12.9297 8.44727 12.9297 8.70117L12.9297 9.08203Q12.9297 9.32617 12.666 9.32617ZM6.93359 11.084Q6.66992 11.084 6.66992 10.8398L6.66992 10.4688Q6.66992 10.2148 6.93359 10.2148L7.28516 10.2148Q7.55859 10.2148 7.55859 10.4688L7.55859 10.8398Q7.55859 10.9863 7.50488 11.0352Q7.45117 11.084 7.28516 11.084ZM8.7207 11.084Q8.56445 11.084 8.51562 11.0352Q8.4668 10.9863 8.4668 10.8398L8.4668 10.4688Q8.4668 10.3125 8.51562 10.2637Q8.56445 10.2148 8.7207 10.2148L9.08203 10.2148Q9.23828 10.2148 9.29199 10.2637Q9.3457 10.3125 9.3457 10.4688L9.3457 10.8398Q9.3457 10.9863 9.29199 11.0352Q9.23828 11.084 9.08203 11.084ZM10.5176 11.084Q10.3613 11.084 10.3076 11.0352Q10.2539 10.9863 10.2539 10.8398L10.2539 10.4688Q10.2539 10.3125 10.3076 10.2637Q10.3613 10.2148 10.5176 10.2148L10.8789 10.2148Q11.0254 10.2148 11.0791 10.2637Q11.1328 10.3125 11.1328 10.4688L11.1328 10.8398Q11.1328 10.9863 11.0791 11.0352Q11.0254 11.084 10.8789 11.084ZM12.3047 11.084Q12.1484 11.084 12.0947 11.0352Q12.041 10.9863 12.041 10.8398L12.041 10.4688Q12.041 10.2148 12.3047 10.2148L12.666 10.2148Q12.9297 10.2148 12.9297 10.4688L12.9297 10.8398Q12.9297 11.084 12.666 11.084ZM6.93359 12.8516Q6.66992 12.8516 6.66992 12.5977L6.66992 12.2266Q6.66992 11.9824 6.93359 11.9824L7.28516 11.9824Q7.45117 11.9824 7.50488 12.0264Q7.55859 12.0703 7.55859 12.2266L7.55859 12.5977Q7.55859 12.8516 7.28516 12.8516ZM8.7207 12.8516Q8.56445 12.8516 8.51562 12.7979Q8.4668 12.7441 8.4668 12.5977L8.4668 12.2266Q8.4668 12.0703 8.51562 12.0264Q8.56445 11.9824 8.7207 11.9824L9.08203 11.9824Q9.23828 11.9824 9.29199 12.0264Q9.3457 12.0703 9.3457 12.2266L9.3457 12.5977Q9.3457 12.7441 9.29199 12.7979Q9.23828 12.8516 9.08203 12.8516ZM10.5176 12.8516Q10.3613 12.8516 10.3076 12.7979Q10.2539 12.7441 10.2539 12.5977L10.2539 12.2266Q10.2539 12.0703 10.3076 12.0264Q10.3613 11.9824 10.5176 11.9824L10.8789 11.9824Q11.0254 11.9824 11.0791 12.0264Q11.1328 12.0703 11.1328 12.2266L11.1328 12.5977Q11.1328 12.7441 11.0791 12.7979Q11.0254 12.8516 10.8789 12.8516Z"
                     fill="#ffffff" />
       </g>
</svg>