<svg width="23.6476" height="17.7075">
       <g>
              <rect height="17.7075" opacity="0" width="23.6476" x="0" y="0" />
              <path d="M18.6748 10.5319L18.6748 14.9013Q18.6748 15.6902 18.2563 16.0943Q17.8378 16.4984 17.0776 16.4984L3.33481 16.4984Q2.55936 16.4984 2.15179 16.0943Q1.74423 15.6902 1.74423 14.9013L1.74423 10.5319L0.535278 10.5319L0.535278 14.8528Q0.535278 16.2726 1.26289 16.9901Q1.99051 17.7075 3.41705 17.7075L17.0021 17.7075Q18.4323 17.7075 19.1566 16.987Q19.8808 16.2665 19.8808 14.8528L19.8808 10.5319ZM19.8808 7.18536L19.8808 2.8804Q19.8808 1.46667 19.1566 0.746155Q18.4323 0.0256348 17.0021 0.0256348L3.41705 0.0256348Q1.99051 0.0256348 1.26289 0.743103Q0.535278 1.46057 0.535278 2.8804L0.535278 7.18536L1.74423 7.18536L1.74423 2.83188Q1.74423 2.043 2.15179 1.63879Q2.55936 1.23459 3.33481 1.23459L17.0776 1.23459Q17.8378 1.23459 18.2563 1.63879Q18.6748 2.043 18.6748 2.83188L18.6748 7.18536Z"
                     fill="rgba(255,255,255,0.55)" />
              <path d="M22.4831 10.0136Q22.9633 10.0136 23.3054 9.66988Q23.6476 9.32617 23.6476 8.84888Q23.6476 8.36853 23.3054 8.02635Q22.9633 7.68417 22.4831 7.68417Q22.0058 7.68417 21.6621 8.02635Q21.3184 8.36853 21.3184 8.84888Q21.3184 9.32617 21.6621 9.66988Q22.0058 10.0136 22.4831 10.0136ZM0 8.85864Q0 9.08127 0.157852 9.24095Q0.315704 9.40063 0.535278 9.40063L21.9728 9.40063L21.9728 8.32336L0.535278 8.32336Q0.315704 8.32336 0.157852 8.47969Q0 8.63602 0 8.85864Z"
                     fill="#ff453a" />
              <path d="M22.4831 2.28638Q22.9144 2.28638 23.2206 1.98021Q23.5268 1.67404 23.5268 1.24573Q23.5268 0.811157 23.2221 0.506516Q22.9175 0.201874 22.4831 0.201874Q22.0485 0.201874 21.7439 0.506516Q21.4392 0.811157 21.4392 1.24573Q21.4392 1.67404 21.7454 1.98021Q22.0515 2.28638 22.4831 2.28638ZM22.4831 6.08459Q22.9144 6.08459 23.2206 5.77843Q23.5268 5.47226 23.5268 5.04089Q23.5268 4.60632 23.2221 4.30176Q22.9175 3.99719 22.4831 3.99719Q22.0485 3.99719 21.7439 4.30176Q21.4392 4.60632 21.4392 5.04089Q21.4392 5.47226 21.7454 5.77843Q22.0515 6.08459 22.4831 6.08459ZM22.4831 13.6879Q22.9175 13.6879 23.2221 13.3833Q23.5268 13.0786 23.5268 12.644Q23.5268 12.2157 23.2206 11.9062Q22.9144 11.5967 22.4831 11.5967Q22.0515 11.5967 21.7454 11.9062Q21.4392 12.2157 21.4392 12.644Q21.4392 13.0786 21.7439 13.3833Q22.0485 13.6879 22.4831 13.6879ZM22.4831 17.4959Q22.9175 17.4959 23.2221 17.1912Q23.5268 16.8866 23.5268 16.452Q23.5268 16.0207 23.2206 15.7111Q22.9144 15.4016 22.4831 15.4016Q22.0515 15.4016 21.7454 15.7111Q21.4392 16.0207 21.4392 16.452Q21.4392 16.8866 21.7439 17.1912Q22.0485 17.4959 22.4831 17.4959Z"
                     fill="rgba(255,255,255,0.25)" />
       </g>
</svg>