<svg width="23.6476" height="17.7075">
       <g>
              <rect height="17.7075" opacity="0" width="23.6476" x="0" y="0" />
              <path d="M4.97589 10.5319L3.76694 10.5319L3.76694 14.8528Q3.76694 16.2665 4.49112 16.987Q5.2153 17.7075 6.64871 17.7075L20.2338 17.7075Q21.6573 17.7075 22.3848 16.9901Q23.1123 16.2726 23.1123 14.8528L23.1123 10.5319L21.9064 10.5319L21.9064 14.9013Q21.9064 15.6902 21.4973 16.0943Q21.0883 16.4984 20.3227 16.4984L6.57318 16.4984Q5.80994 16.4984 5.39291 16.0943Q4.97589 15.6902 4.97589 14.9013ZM3.76694 7.18536L4.97589 7.18536L4.97589 2.83188Q4.97589 2.043 5.39291 1.63879Q5.80994 1.23459 6.57318 1.23459L20.3227 1.23459Q21.0883 1.23459 21.4973 1.63879Q21.9064 2.043 21.9064 2.83188L21.9064 7.18536L23.1123 7.18536L23.1123 2.8804Q23.1123 1.46057 22.3848 0.743103Q21.6573 0.0256348 20.2338 0.0256348L6.64871 0.0256348Q5.2153 0.0256348 4.49112 0.746155Q3.76694 1.46667 3.76694 2.8804Z"
                     fill="rgba(255,255,255,0.55)" />
              <path d="M1.1647 10.0136Q1.6449 10.0136 1.9886 9.66988Q2.33231 9.32617 2.33231 8.84888Q2.33231 8.36853 1.9886 8.02635Q1.6449 7.68417 1.1647 7.68417Q0.687408 7.68417 0.343704 8.02635Q0 8.36853 0 8.84888Q0 9.32617 0.343704 9.66988Q0.687408 10.0136 1.1647 10.0136ZM23.6476 8.85864Q23.6476 8.63602 23.4914 8.47969Q23.3351 8.32336 23.1123 8.32336L1.67496 8.32336L1.67496 9.40063L23.1123 9.40063Q23.3351 9.40063 23.4914 9.24095Q23.6476 9.08127 23.6476 8.85864Z"
                     fill="#ff453a" />
              <path d="M1.1647 2.28638Q1.59607 2.28638 1.90224 1.98021Q2.2084 1.67404 2.2084 1.24573Q2.2084 0.811157 1.90376 0.506516Q1.59912 0.201874 1.1647 0.201874Q0.733185 0.201874 0.428543 0.506516Q0.123901 0.811157 0.123901 1.24573Q0.123901 1.67404 0.430069 1.98021Q0.736237 2.28638 1.1647 2.28638ZM1.1647 6.08459Q1.59607 6.08459 1.90224 5.77843Q2.2084 5.47226 2.2084 5.04089Q2.2084 4.60632 1.90376 4.30176Q1.59912 3.99719 1.1647 3.99719Q0.733185 3.99719 0.428543 4.30176Q0.123901 4.60632 0.123901 5.04089Q0.123901 5.47226 0.430069 5.77843Q0.736237 6.08459 1.1647 6.08459ZM1.1647 13.6879Q1.59912 13.6879 1.90376 13.3833Q2.2084 13.0786 2.2084 12.644Q2.2084 12.2157 1.90224 11.9062Q1.59607 11.5967 1.1647 11.5967Q0.736237 11.5967 0.430069 11.9062Q0.123901 12.2157 0.123901 12.644Q0.123901 13.0786 0.428543 13.3833Q0.733185 13.6879 1.1647 13.6879ZM1.1647 17.4959Q1.59912 17.4959 1.90376 17.1912Q2.2084 16.8866 2.2084 16.452Q2.2084 16.0207 1.90224 15.7111Q1.59607 15.4016 1.1647 15.4016Q0.736237 15.4016 0.430069 15.7111Q0.123901 16.0207 0.123901 16.452Q0.123901 16.8866 0.428543 17.1912Q0.733185 17.4959 1.1647 17.4959Z"
                     fill="rgba(255,255,255,0.25)" />
       </g>
</svg>