<svg width="19.5898" height="19.5996">
       <g>
              <rect height="19.5996" opacity="0" width="19.5898" x="0" y="0" />
              <path d="M9.79492 19.5898Q11.8066 19.5898 13.5791 18.8232Q15.3516 18.0566 16.7041 16.7041Q18.0566 15.3516 18.8232 13.5791Q19.5898 11.8066 19.5898 9.79492Q19.5898 7.7832 18.8232 6.01074Q18.0566 4.23828 16.7041 2.88574Q15.3516 1.5332 13.5742 0.766602Q11.7969 0 9.78516 0Q7.77344 0 6.00098 0.766602Q4.22852 1.5332 2.88086 2.88574Q1.5332 4.23828 0.766602 6.01074Q0 7.7832 0 9.79492Q0 11.8066 0.766602 13.5791Q1.5332 15.3516 2.88574 16.7041Q4.23828 18.0566 6.01074 18.8232Q7.7832 19.5898 9.79492 19.5898ZM9.79492 18.3203Q8.02734 18.3203 6.47949 17.6611Q4.93164 17.002 3.75977 15.8301Q2.58789 14.6582 1.92871 13.1104Q1.26953 11.5625 1.26953 9.79492Q1.26953 8.02734 1.92871 6.47949Q2.58789 4.93164 3.75977 3.75488Q4.93164 2.57812 6.47461 1.91895Q8.01758 1.25977 9.78516 1.25977Q11.5625 1.25977 13.1104 1.91895Q14.6582 2.57812 15.8301 3.75488Q17.002 4.93164 17.666 6.47949Q18.3301 8.02734 18.3301 9.79492Q18.3301 11.5625 17.666 13.1104Q17.002 14.6582 15.8301 15.8301Q14.6582 17.002 13.1152 17.6611Q11.5723 18.3203 9.79492 18.3203Z"
                     fill="#ff453a" />
              <path d="M6.19141 14.4824L13.3887 14.4824Q14.1504 14.4824 14.5312 14.1016Q14.9121 13.7207 14.9121 12.9688L14.9121 6.61133Q14.9121 5.85938 14.5312 5.47852Q14.1504 5.09766 13.3887 5.09766L6.19141 5.09766Q5.42969 5.09766 5.04395 5.47852Q4.6582 5.85938 4.6582 6.61133L4.6582 12.9688Q4.6582 13.7207 5.04395 14.1016Q5.42969 14.4824 6.19141 14.4824ZM6.16211 13.7305Q5.78125 13.7305 5.60059 13.5498Q5.41992 13.3691 5.41992 12.9883L5.41992 8.24219Q5.41992 7.40234 6.25977 7.40234L13.3105 7.40234Q14.1504 7.40234 14.1504 8.24219L14.1504 12.9883Q14.1504 13.3691 13.9697 13.5498Q13.7891 13.7305 13.4082 13.7305ZM8.73047 9.31641L9.08203 9.31641Q9.22852 9.31641 9.28223 9.26758Q9.33594 9.21875 9.33594 9.07227L9.33594 8.71094Q9.33594 8.56445 9.28223 8.51562Q9.22852 8.4668 9.08203 8.4668L8.73047 8.4668Q8.58398 8.4668 8.53516 8.51562Q8.48633 8.56445 8.48633 8.71094L8.48633 9.07227Q8.48633 9.21875 8.53516 9.26758Q8.58398 9.31641 8.73047 9.31641ZM10.4883 9.31641L10.8496 9.31641Q10.9863 9.31641 11.04 9.26758Q11.0938 9.21875 11.0938 9.07227L11.0938 8.71094Q11.0938 8.56445 11.04 8.51562Q10.9863 8.4668 10.8496 8.4668L10.4883 8.4668Q10.3418 8.4668 10.2881 8.51562Q10.2344 8.56445 10.2344 8.71094L10.2344 9.07227Q10.2344 9.21875 10.2881 9.26758Q10.3418 9.31641 10.4883 9.31641ZM12.2461 9.31641L12.5879 9.31641Q12.8516 9.31641 12.8516 9.07227L12.8516 8.71094Q12.8516 8.4668 12.5879 8.4668L12.2461 8.4668Q11.9824 8.4668 11.9824 8.71094L11.9824 9.07227Q11.9824 9.21875 12.0361 9.26758Q12.0898 9.31641 12.2461 9.31641ZM6.98242 11.0449L7.33398 11.0449Q7.48047 11.0449 7.53418 10.9961Q7.58789 10.9473 7.58789 10.8008L7.58789 10.4395Q7.58789 10.1855 7.33398 10.1855L6.98242 10.1855Q6.71875 10.1855 6.71875 10.4395L6.71875 10.8008Q6.71875 11.0449 6.98242 11.0449ZM8.73047 11.0449L9.08203 11.0449Q9.22852 11.0449 9.28223 10.9961Q9.33594 10.9473 9.33594 10.8008L9.33594 10.4395Q9.33594 10.293 9.28223 10.2393Q9.22852 10.1855 9.08203 10.1855L8.73047 10.1855Q8.58398 10.1855 8.53516 10.2393Q8.48633 10.293 8.48633 10.4395L8.48633 10.8008Q8.48633 10.9473 8.53516 10.9961Q8.58398 11.0449 8.73047 11.0449ZM10.4883 11.0449L10.8496 11.0449Q10.9863 11.0449 11.04 10.9961Q11.0938 10.9473 11.0938 10.8008L11.0938 10.4395Q11.0938 10.293 11.04 10.2393Q10.9863 10.1855 10.8496 10.1855L10.4883 10.1855Q10.3418 10.1855 10.2881 10.2393Q10.2344 10.293 10.2344 10.4395L10.2344 10.8008Q10.2344 10.9473 10.2881 10.9961Q10.3418 11.0449 10.4883 11.0449ZM12.2461 11.0449L12.5879 11.0449Q12.8516 11.0449 12.8516 10.8008L12.8516 10.4395Q12.8516 10.1855 12.5879 10.1855L12.2461 10.1855Q11.9824 10.1855 11.9824 10.4395L11.9824 10.8008Q11.9824 10.9473 12.0361 10.9961Q12.0898 11.0449 12.2461 11.0449ZM6.98242 12.7734L7.33398 12.7734Q7.58789 12.7734 7.58789 12.5195L7.58789 12.168Q7.58789 12.0215 7.53418 11.9727Q7.48047 11.9238 7.33398 11.9238L6.98242 11.9238Q6.71875 11.9238 6.71875 12.168L6.71875 12.5195Q6.71875 12.7734 6.98242 12.7734ZM8.73047 12.7734L9.08203 12.7734Q9.22852 12.7734 9.28223 12.7246Q9.33594 12.6758 9.33594 12.5195L9.33594 12.168Q9.33594 12.0215 9.28223 11.9727Q9.22852 11.9238 9.08203 11.9238L8.73047 11.9238Q8.58398 11.9238 8.53516 11.9727Q8.48633 12.0215 8.48633 12.168L8.48633 12.5195Q8.48633 12.6758 8.53516 12.7246Q8.58398 12.7734 8.73047 12.7734ZM10.4883 12.7734L10.8496 12.7734Q10.9863 12.7734 11.04 12.7246Q11.0938 12.6758 11.0938 12.5195L11.0938 12.168Q11.0938 12.0215 11.04 11.9727Q10.9863 11.9238 10.8496 11.9238L10.4883 11.9238Q10.3418 11.9238 10.2881 11.9727Q10.2344 12.0215 10.2344 12.168L10.2344 12.5195Q10.2344 12.6758 10.2881 12.7246Q10.3418 12.7734 10.4883 12.7734Z"
                     fill="#ff453a" />
       </g>
</svg>