<svg width="19.5898" height="19.5996">
       <g>
              <rect height="19.5996" opacity="0" width="19.5898" x="0" y="0" />
              <path d="M9.79492 19.5996Q11.8066 19.5996 13.5791 18.833Q15.3516 18.0664 16.7041 16.7139Q18.0566 15.3613 18.8232 13.5889Q19.5898 11.8164 19.5898 9.80469Q19.5898 7.79297 18.8232 6.02051Q18.0566 4.24805 16.7041 2.89551Q15.3516 1.54297 13.5742 0.776367Q11.7969 0.00976562 9.78516 0.00976562Q7.77344 0.00976562 6.00098 0.776367Q4.22852 1.54297 2.88086 2.89551Q1.5332 4.24805 0.766602 6.02051Q0 7.79297 0 9.80469Q0 11.8164 0.766602 13.5889Q1.5332 15.3613 2.88574 16.7139Q4.23828 18.0664 6.01074 18.833Q7.7832 19.5996 9.79492 19.5996Z"
                     fill="rgba(255,255,255,0.55)" />
              <path d="M5.26367 14.2969Q4.52148 14.2969 4.14062 13.9258Q3.75977 13.5547 3.75977 12.8125L3.75977 7.48047Q3.75977 6.73828 4.14062 6.36719Q4.52148 5.99609 5.26367 5.99609L6.57227 5.99609Q6.875 5.99609 7.0166 5.92285Q7.1582 5.84961 7.34375 5.66406L7.77344 5.18555Q7.95898 4.9707 8.17871 4.87305Q8.39844 4.77539 8.76953 4.77539L10.752 4.77539Q11.1426 4.77539 11.3477 4.87305Q11.5527 4.9707 11.748 5.18555L12.1875 5.66406Q12.3633 5.85938 12.5049 5.92773Q12.6465 5.99609 12.9395 5.99609L14.3359 5.99609Q15.0781 5.99609 15.459 6.36719Q15.8398 6.73828 15.8398 7.48047L15.8398 12.8125Q15.8398 13.5547 15.459 13.9258Q15.0781 14.2969 14.3359 14.2969ZM9.81445 13.0859Q10.6348 13.0859 11.3135 12.6904Q11.9922 12.2949 12.3926 11.6162Q12.793 10.9375 12.793 10.0879Q12.793 9.25781 12.3926 8.5791Q11.9922 7.90039 11.3135 7.5Q10.6348 7.09961 9.81445 7.09961Q8.97461 7.09961 8.30078 7.5Q7.62695 7.90039 7.22168 8.5791Q6.81641 9.25781 6.81641 10.0879Q6.81641 10.9277 7.22168 11.6016Q7.62695 12.2754 8.30078 12.6807Q8.97461 13.0859 9.81445 13.0859ZM9.80469 12.373Q9.16992 12.373 8.65723 12.0654Q8.14453 11.7578 7.83691 11.2402Q7.5293 10.7227 7.5293 10.0879Q7.5293 9.46289 7.83691 8.94531Q8.14453 8.42773 8.65723 8.12012Q9.16992 7.8125 9.80469 7.8125Q10.4297 7.8125 10.9424 8.12012Q11.4551 8.42773 11.7627 8.94531Q12.0703 9.46289 12.0703 10.0879Q12.0703 10.7227 11.7627 11.2402Q11.4551 11.7578 10.9424 12.0654Q10.4297 12.373 9.80469 12.373ZM13.7891 8.64258Q14.0527 8.64258 14.2285 8.4668Q14.4043 8.29102 14.4043 8.02734Q14.4043 7.77344 14.2285 7.59766Q14.0527 7.42188 13.7891 7.42188Q13.5352 7.42188 13.3545 7.59766Q13.1738 7.77344 13.1738 8.02734Q13.1738 8.29102 13.3545 8.4668Q13.5352 8.64258 13.7891 8.64258Z"
                     fill="#ffffff" />
       </g>
</svg>