<svg width="22.8699" height="17.688">
       <g>
              <rect height="17.688" opacity="0" width="22.8699" x="0" y="0" />
              <path d="M2.87872 17.6819L10.8806 17.6819L10.8806 16.476L2.90131 16.476Q2.07504 16.476 1.642 16.0448Q1.20895 15.6136 1.20895 14.7672L1.20895 9.40994L0 9.40994L0 14.8338Q0 16.2469 0.724182 16.9644Q1.44836 17.6819 2.87872 17.6819ZM12.0186 17.6819L19.9883 17.6819Q21.4282 17.6819 22.149 16.9614Q22.8699 16.2408 22.8699 14.8338L22.8699 9.40994L21.6609 9.40994L21.6609 14.7672Q21.6609 15.6136 21.2185 16.0448Q20.7761 16.476 19.9687 16.476L12.0186 16.476ZM21.6609 8.27866L22.8699 8.27866L22.8699 2.85477Q22.8699 1.45081 22.149 0.725403Q21.4282 0 19.9883 0L12.0186 0L12.0186 1.20911L19.9687 1.20911Q20.7761 1.20911 21.2185 1.64207Q21.6609 2.07504 21.6609 2.9216ZM0 8.27866L1.20895 8.27866L1.20895 2.9216Q1.20895 2.07504 1.642 1.64207Q2.07504 1.20911 2.90131 1.20911L10.8806 1.20911L10.8806 0L2.87872 0Q1.44836 0 0.724182 0.718994Q0 1.43799 0 2.85477Z"
                     fill="rgba(255,255,255,0.55)" />
              <path d="M11.4447 6.15417Q11.9839 6.15417 12.3647 5.77202Q12.7454 5.38986 12.7454 4.84085Q12.7454 4.31152 12.3647 3.92593Q11.9839 3.54034 11.4447 3.54034Q10.9056 3.54034 10.5249 3.92593Q10.1442 4.31152 10.1442 4.84085Q10.1442 5.38986 10.5249 5.77202Q10.9056 6.15417 11.4447 6.15417ZM11.4447 14.1379Q11.9839 14.1379 12.3647 13.7523Q12.7454 13.3667 12.7454 12.8343Q12.7454 12.2884 12.3647 11.9062Q11.9839 11.524 11.4447 11.524Q10.9056 11.524 10.5249 11.9062Q10.1442 12.2884 10.1442 12.8343Q10.1442 13.3667 10.5249 13.7523Q10.9056 14.1379 11.4447 14.1379ZM15.4497 10.1398Q15.9792 10.1398 16.3647 9.75899Q16.7503 9.3782 16.7503 8.83911Q16.7503 8.30002 16.3647 7.91924Q15.9792 7.53845 15.4497 7.53845Q14.9008 7.53845 14.5152 7.91924Q14.1296 8.30002 14.1296 8.83911Q14.1296 9.3782 14.5152 9.75899Q14.9008 10.1398 15.4497 10.1398ZM7.44949 10.1398Q7.99545 10.1398 8.37769 9.75899Q8.75992 9.3782 8.75992 8.83911Q8.75992 8.30002 8.37769 7.91924Q7.99545 7.53845 7.44949 7.53845Q6.91711 7.53845 6.53152 7.91924Q6.14594 8.30002 6.14594 8.83911Q6.14594 9.3782 6.53152 9.75899Q6.91711 10.1398 7.44949 10.1398Z"
                     fill="rgba(255,255,255,0.55)" />
              <path d="M11.4447 10.1398Q11.9839 10.1398 12.3647 9.75899Q12.7454 9.3782 12.7454 8.83911Q12.7454 8.30002 12.3647 7.91924Q11.9839 7.53845 11.4447 7.53845Q10.9056 7.53845 10.5249 7.91924Q10.1442 8.30002 10.1442 8.83911Q10.1442 9.3782 10.5249 9.75899Q10.9056 10.1398 11.4447 10.1398Z"
                     fill="rgba(255,255,255,0.55)" />
       </g>
</svg>