<svg width="20.6552" height="19.6759">
       <g>
              <rect height="19.6759" opacity="0" width="20.6552" x="0" y="0" />
              <path d="M6.539 19.6759Q7.89215 19.6759 9.07669 19.166Q10.2612 18.6562 11.1616 17.7577Q12.0619 16.8593 12.57 15.6728Q13.078 14.4864 13.078 13.1302Q13.078 11.7839 12.5666 10.5993Q12.0552 9.41467 11.1582 8.51768Q10.2612 7.6207 9.07669 7.10938Q7.89215 6.59805 6.539 6.59805Q5.18951 6.59805 4.00314 7.10938Q2.81677 7.6207 1.91826 8.51768Q1.01974 9.41467 0.509872 10.5993Q0 11.7839 0 13.1302Q0 14.4864 0.509872 15.6728Q1.01974 16.8593 1.91826 17.7577Q2.81677 18.6562 4.00314 19.166Q5.18951 19.6759 6.539 19.6759ZM6.539 18.4737Q5.4361 18.4737 4.46632 18.0586Q3.49655 17.6436 2.76108 16.9115Q2.0256 16.1795 1.61392 15.2097Q1.20224 14.2398 1.20224 13.1302Q1.20224 12.0305 1.61392 11.064Q2.0256 10.0975 2.76108 9.36546Q3.49655 8.63342 4.46632 8.21686Q5.4361 7.80029 6.539 7.80029Q7.64557 7.80029 8.61198 8.21686Q9.5784 8.63342 10.3105 9.36394Q11.0426 10.0945 11.4592 11.0625Q11.8758 12.0305 11.8758 13.1302Q11.8758 14.2368 11.4592 15.2066Q11.0426 16.1765 10.312 16.9085Q9.58145 17.6405 8.61351 18.0571Q7.64557 18.4737 6.539 18.4737Z"
                     fill="rgba(255,255,255,0.55)" />
              <path d="M14.1231 19.6759Q15.4695 19.6759 16.6541 19.166Q17.8386 18.6562 18.7405 17.7577Q19.6423 16.8593 20.1488 15.6728Q20.6552 14.4864 20.6552 13.1302Q20.6552 11.7839 20.1488 10.5993Q19.6423 9.41467 18.7405 8.51768Q17.8386 7.6207 16.6541 7.10938Q15.4695 6.59805 14.1231 6.59805Q12.7699 6.59805 11.582 7.10938Q10.394 7.6207 9.49707 8.51768Q8.60016 9.41467 8.08876 10.5993Q7.57736 11.7839 7.57736 13.1302Q7.57736 14.4864 8.08876 15.6728Q8.60016 16.8593 9.49707 17.7577Q10.394 18.6562 11.582 19.166Q12.7699 19.6759 14.1231 19.6759ZM14.1231 18.4737Q13.0135 18.4737 12.0436 18.0586Q11.0738 17.6436 10.3432 16.9115Q9.61273 16.1795 9.19617 15.2097Q8.7796 14.2398 8.7796 13.1302Q8.7796 12.0305 9.19617 11.064Q9.61273 10.0975 10.3432 9.36546Q11.0738 8.63342 12.0436 8.21686Q13.0135 7.80029 14.1231 7.80029Q15.2229 7.80029 16.1893 8.21686Q17.1558 8.63342 17.8879 9.36394Q18.62 10.0945 19.0365 11.0625Q19.453 12.0305 19.453 13.1302Q19.453 14.2368 19.0414 15.2066Q18.6298 16.1765 17.8976 16.9085Q17.1655 17.6405 16.1957 18.0571Q15.2258 18.4737 14.1231 18.4737Z"
                     fill="rgba(255,255,255,0.55)" />
              <path d="M10.3265 13.1364Q11.6728 13.1364 12.8574 12.63Q14.0421 12.1236 14.9424 11.2232Q15.8427 10.3229 16.3507 9.13826Q16.8587 7.95364 16.8587 6.5976Q16.8587 5.24445 16.3507 4.06319Q15.8427 2.88193 14.9424 1.98158Q14.0421 1.08124 12.8574 0.571442Q11.6728 0.0616455 10.3265 0.0616455Q8.97339 0.0616455 7.78877 0.571442Q6.60416 1.08124 5.70381 1.98158Q4.80347 2.88193 4.29214 4.06319Q3.78082 5.24445 3.78082 6.5976Q3.78082 7.95364 4.29214 9.13826Q4.80347 10.3229 5.70381 11.2232Q6.60416 12.1236 7.78877 12.63Q8.97339 13.1364 10.3265 13.1364ZM10.3265 11.9342Q9.21692 11.9342 8.24707 11.5225Q7.27722 11.1108 6.54671 10.3754Q5.81619 9.64005 5.39963 8.67355Q4.98306 7.70706 4.98306 6.5976Q4.98306 5.49103 5.39963 4.52789Q5.81619 3.56476 6.54671 2.82936Q7.27722 2.09396 8.24707 1.6774Q9.21692 1.26083 10.3265 1.26083Q11.4262 1.26083 12.3927 1.6774Q13.3592 2.09396 14.0946 2.826Q14.83 3.55804 15.2432 4.52454Q15.6564 5.49103 15.6564 6.5976Q15.6564 7.70401 15.2448 8.6705Q14.8331 9.63699 14.0977 10.3725Q13.3623 11.1079 12.3958 11.5211Q11.4293 11.9342 10.3265 11.9342Z"
                     fill="rgba(255,255,255,0.55)" />
       </g>
</svg>