<svg width="19.5898" height="19.5996">
       <g>
              <rect height="19.5996" opacity="0" width="19.5898" x="0" y="0" />
              <path d="M9.79492 19.5898Q11.8066 19.5898 13.5791 18.8232Q15.3516 18.0566 16.7041 16.7041Q18.0566 15.3516 18.8232 13.5791Q19.5898 11.8066 19.5898 9.79492Q19.5898 7.7832 18.8232 6.01074Q18.0566 4.23828 16.7041 2.88574Q15.3516 1.5332 13.5742 0.766602Q11.7969 0 9.78516 0Q7.77344 0 6.00098 0.766602Q4.22852 1.5332 2.88086 2.88574Q1.5332 4.23828 0.766602 6.01074Q0 7.7832 0 9.79492Q0 11.8066 0.766602 13.5791Q1.5332 15.3516 2.88574 16.7041Q4.23828 18.0566 6.01074 18.8232Q7.7832 19.5898 9.79492 19.5898Z"
                     fill="rgba(255,255,255,0.55)" />
              <path d="M3.92578 12.0117Q3.85742 11.8164 3.93555 11.6846Q4.01367 11.5527 4.23828 11.5527Q5.75195 11.5527 6.96777 12.2217Q8.18359 12.8906 8.91602 13.9844L8.91602 15.6641Q8.91602 15.7422 8.92578 15.8105Q8.93555 15.8789 8.97461 15.9375Q7.8125 15.8008 6.80176 15.2686Q5.79102 14.7363 5.03906 13.8965Q4.28711 13.0566 3.92578 12.0117ZM6.36719 6.80664Q6.36719 6.36719 6.45996 5.93262Q6.55273 5.49805 6.74805 5.05859Q6.81641 4.90234 6.97266 4.88281Q7.12891 4.86328 7.25586 5L8.48633 6.25L9.55078 4.88281Q9.64844 4.74609 9.79492 4.74609Q9.94141 4.74609 10.0391 4.88281L11.0938 6.25L12.3242 5Q12.4512 4.86328 12.6123 4.88281Q12.7734 4.90234 12.8418 5.05859Q13.0371 5.49805 13.1299 5.93262Q13.2227 6.36719 13.2227 6.80664Q13.2227 7.71484 12.8418 8.45703Q12.4609 9.19922 11.7725 9.67285Q11.084 10.1465 10.1562 10.2246L10.1562 14.8242Q10.5957 13.8672 11.3525 13.1299Q12.1094 12.3926 13.125 11.9727Q14.1406 11.5527 15.3418 11.5527Q15.5566 11.5527 15.6348 11.6846Q15.7129 11.8164 15.6348 12.0117Q15.2441 13.1836 14.3604 14.0918Q13.4766 15 12.29 15.5078Q11.1035 16.0156 9.78516 16.0156Q9.63867 16.0156 9.53125 15.918Q9.42383 15.8203 9.42383 15.6641L9.42383 10.2246Q8.50586 10.1465 7.81738 9.67285Q7.12891 9.19922 6.74805 8.45703Q6.36719 7.71484 6.36719 6.80664Z"
                     fill="#ffffff" />
       </g>
</svg>