<svg width="22.8699" height="17.688">
       <g>
              <rect height="17.688" opacity="0" width="22.8699" x="0" y="0" />
              <path d="M2.87872 17.6819L10.8806 17.6819L10.8806 16.476L2.90131 16.476Q2.07504 16.476 1.642 16.0448Q1.20895 15.6136 1.20895 14.7672L1.20895 9.40994L0 9.40994L0 14.8338Q0 16.2469 0.724182 16.9644Q1.44836 17.6819 2.87872 17.6819ZM12.0186 17.6819L19.9883 17.6819Q21.4282 17.6819 22.149 16.9614Q22.8699 16.2408 22.8699 14.8338L22.8699 9.40994L21.6609 9.40994L21.6609 14.7672Q21.6609 15.6136 21.2185 16.0448Q20.7761 16.476 19.9687 16.476L12.0186 16.476ZM21.6609 8.27866L22.8699 8.27866L22.8699 2.85477Q22.8699 1.45081 22.149 0.725403Q21.4282 0 19.9883 0L12.0186 0L12.0186 1.20911L19.9687 1.20911Q20.7761 1.20911 21.2185 1.64207Q21.6609 2.07504 21.6609 2.9216ZM0 8.27866L1.20895 8.27866L1.20895 2.9216Q1.20895 2.07504 1.642 1.64207Q2.07504 1.20911 2.90131 1.20911L10.8806 1.20911L10.8806 0L2.87872 0Q1.44836 0 0.724182 0.718994Q0 1.43799 0 2.85477Z"
                     fill="rgba(255,255,255,0.55)" />
              <path d="M3.34503 2.34711Q2.82852 2.34711 2.58629 2.5946Q2.34406 2.8421 2.34406 3.36838L2.34406 8.27866L7.17392 8.27866Q7.29248 7.33017 7.80952 6.54358Q8.32657 5.75699 9.12292 5.23994Q9.91928 4.7229 10.8806 4.59824L10.8806 2.34711ZM19.5219 2.34711L12.0186 2.34711L12.0186 4.59824Q12.9605 4.7229 13.7519 5.23994Q14.5433 5.75699 15.0588 6.54358Q15.5743 7.33017 15.696 8.27866L20.5296 8.27866L20.5296 3.36838Q20.5296 2.8421 20.2855 2.5946Q20.0414 2.34711 19.5219 2.34711ZM3.34503 15.3445L10.8806 15.3445L10.8806 13.0934Q9.91928 12.962 9.12292 12.4483Q8.32657 11.9347 7.80952 11.1466Q7.29248 10.3586 7.17392 9.40994L2.34406 9.40994L2.34406 14.3234Q2.34406 14.8497 2.58629 15.0971Q2.82852 15.3445 3.34503 15.3445ZM19.5219 15.3445Q20.0414 15.3445 20.2855 15.0971Q20.5296 14.8497 20.5296 14.3234L20.5296 9.40994L15.696 9.40994Q15.5743 10.3586 15.0588 11.1466Q14.5433 11.9347 13.7519 12.4483Q12.9605 12.962 12.0186 13.0934L12.0186 15.3445Z"
                     fill="rgba(255,255,255,0.55)" />
              <path d="M11.4447 11.7834Q12.2458 11.7834 12.9105 11.3829Q13.5751 10.9824 13.9723 10.3162Q14.3695 9.64996 14.3695 8.83911Q14.3695 8.03802 13.9723 7.37671Q13.5751 6.71539 12.9105 6.31821Q12.2458 5.92102 11.4447 5.92102Q10.6406 5.92102 9.97101 6.31821Q9.30145 6.71539 8.90427 7.37671Q8.50708 8.03802 8.50708 8.83911Q8.50708 9.64996 8.90427 10.3162Q9.30145 10.9824 9.97101 11.3829Q10.6406 11.7834 11.4447 11.7834Z"
                     fill="rgba(255,255,255,0.55)" />
       </g>
</svg>