<svg width="24.8788" height="19.8547">
       <g>
              <rect height="19.8547" opacity="0" width="24.8788" x="0" y="0" />
              <path d="M2.87872 15.5968L5.13 15.5968L5.13 14.3907L2.90131 14.3907Q2.07504 14.3907 1.642 13.9562Q1.20895 13.5217 1.20895 12.6752L1.20895 2.94693Q1.20895 2.10052 1.642 1.66748Q2.07504 1.23444 2.90131 1.23444L17.1126 1.23444Q17.9201 1.23444 18.364 1.66748Q18.808 2.10052 18.808 2.94693L18.808 5.32349L20.0139 5.32349L20.0139 2.88025Q20.0139 1.47629 19.2896 0.750885Q18.5654 0.0254822 17.1419 0.0254822L2.87872 0.0254822Q1.44836 0.0254822 0.724182 0.744476Q0 1.46347 0 2.88025L0 12.7419Q0 14.1617 0.724182 14.8792Q1.44836 15.5968 2.87872 15.5968Z"
                     fill="rgba(255,255,255,0.55)" />
              <path d="M7.74673 19.8547L22.007 19.8547Q23.4372 19.8547 24.158 19.1357Q24.8788 18.4167 24.8788 17L24.8788 8.0867Q24.8788 6.66687 24.158 5.95276Q23.4372 5.23865 22.007 5.23865L20.7079 5.23865Q20.1398 5.23865 19.8795 5.11032Q19.6191 4.98199 19.2734 4.62204L18.5974 3.91785Q18.2045 3.51074 17.809 3.32603Q17.4135 3.14133 16.8198 3.14133L12.9309 3.14133Q12.3335 3.14133 11.938 3.32603Q11.5425 3.51074 11.1465 3.91785L10.4773 4.62204Q10.1248 4.98199 9.8645 5.11032Q9.60419 5.23865 9.0361 5.23865L7.74673 5.23865Q6.31348 5.23865 5.58929 5.95276Q4.86511 6.66687 4.86511 8.0867L4.86511 17Q4.86511 18.4167 5.58929 19.1357Q6.31348 19.8547 7.74673 19.8547ZM7.76627 18.6458Q6.94 18.6458 6.50703 18.2128Q6.07407 17.7798 6.07407 16.9333L6.07407 8.15338Q6.07407 7.30682 6.50703 6.87569Q6.94 6.44455 7.76627 6.44455L9.2868 6.44455Q9.93668 6.44455 10.3388 6.27617Q10.741 6.10779 11.1333 5.70435L11.8974 4.88876Q12.1863 4.59915 12.461 4.47472Q12.7357 4.35028 13.1786 4.35028L16.5654 4.35028Q17.0082 4.35028 17.2829 4.47472Q17.5577 4.59915 17.8465 4.88876L18.6205 5.70435Q19.0097 6.10779 19.4134 6.27617Q19.817 6.44455 20.4572 6.44455L21.9777 6.44455Q22.804 6.44455 23.2384 6.87569Q23.6729 7.30682 23.6729 8.15338L23.6729 16.9333Q23.6729 17.7798 23.2384 18.2128Q22.804 18.6458 21.9777 18.6458ZM14.8787 17.1579Q16.2024 17.1579 17.2854 16.5107Q18.3684 15.8635 19.0141 14.7756Q19.6597 13.6877 19.6597 12.361Q19.6597 11.0411 19.0141 9.95323Q18.3684 8.86536 17.2854 8.21815Q16.2024 7.57095 14.8787 7.57095Q13.555 7.57095 12.4686 8.21815Q11.3823 8.86536 10.74 9.95323Q10.0977 11.0411 10.0977 12.361Q10.0977 13.6877 10.74 14.7756Q11.3823 15.8635 12.4686 16.5107Q13.555 17.1579 14.8787 17.1579ZM14.8787 15.9969Q13.8811 15.9969 13.0608 15.5044Q12.2406 15.0119 11.7497 14.1902Q11.2589 13.3685 11.2589 12.361Q11.2589 11.3634 11.7497 10.5402Q12.2406 9.71695 13.0608 9.22791Q13.8811 8.73886 14.8787 8.73886Q15.8763 8.73886 16.6981 9.22791Q17.5198 9.71695 18.0058 10.5402Q18.4918 11.3634 18.4918 12.361Q18.4918 13.3685 18.0058 14.1902Q17.5198 15.0119 16.6981 15.5044Q15.8763 15.9969 14.8787 15.9969ZM20.9686 9.98474Q21.3974 9.98474 21.7 9.68704Q22.0026 9.38934 22.0026 8.95767Q22.0026 8.5289 21.7 8.22632Q21.3974 7.92374 20.9686 7.92374Q20.5437 7.92374 20.2426 8.22632Q19.9416 8.5289 19.9416 8.95767Q19.9416 9.38934 20.2426 9.68704Q20.5437 9.98474 20.9686 9.98474Z"
                     fill="rgba(255,255,255,0.55)" />
       </g>
</svg>