<svg width="22.8711" height="17.6855">
       <g>
              <rect height="17.6855" opacity="0" width="22.8711" x="0" y="0" />
              <path d="M2.88086 17.6855L10.8789 17.6855L10.8789 16.4746L2.90039 16.4746Q2.07031 16.4746 1.64062 16.0449Q1.21094 15.6152 1.21094 14.7656L1.21094 9.4043L0 9.4043L0 14.834Q0 16.25 0.722656 16.9678Q1.44531 17.6855 2.88086 17.6855ZM12.0215 17.6855L19.9902 17.6855Q21.4258 17.6855 22.1484 16.9629Q22.8711 16.2402 22.8711 14.834L22.8711 9.4043L21.6602 9.4043L21.6602 14.7656Q21.6602 15.6152 21.2158 16.0449Q20.7715 16.4746 19.9707 16.4746L12.0215 16.4746ZM21.6602 8.28125L22.8711 8.28125L22.8711 2.85156Q22.8711 1.44531 22.1484 0.722656Q21.4258 0 19.9902 0L12.0215 0L12.0215 1.21094L19.9707 1.21094Q20.7715 1.21094 21.2158 1.64062Q21.6602 2.07031 21.6602 2.91992ZM0 8.28125L1.21094 8.28125L1.21094 2.91992Q1.21094 2.07031 1.64062 1.64062Q2.07031 1.21094 2.90039 1.21094L10.8789 1.21094L10.8789 0L2.88086 0Q1.44531 0 0.722656 0.717773Q0 1.43555 0 2.85156Z"
                     fill="rgba(255,255,255,0.55)" />
              <path d="M11.4746 14.1504Q12.5586 14.1504 13.5107 13.7354Q14.4629 13.3203 15.1953 12.5879Q15.9277 11.8555 16.3428 10.8887Q16.7578 9.92188 16.7578 8.82812Q16.7578 7.74414 16.3379 6.79199Q15.918 5.83984 15.1904 5.1123Q14.4629 4.38477 13.5107 3.97461Q12.5586 3.56445 11.4746 3.56445Q10.3809 3.56445 9.41895 3.97461Q8.45703 4.38477 7.71973 5.1123Q6.98242 5.83984 6.56738 6.79199Q6.15234 7.74414 6.15234 8.82812Q6.15234 9.93164 6.56738 10.8936Q6.98242 11.8555 7.71484 12.5879Q8.44727 13.3203 9.41406 13.7354Q10.3809 14.1504 11.4746 14.1504ZM11.4746 13.1445Q10.2832 13.1445 9.30176 12.5586Q8.32031 11.9727 7.73926 10.9961Q7.1582 10.0195 7.1582 8.82812Q7.1582 7.66602 7.74414 6.69434Q8.33008 5.72266 9.30664 5.1416Q10.2832 4.56055 11.4746 4.56055Q12.6465 4.56055 13.6182 5.1416Q14.5898 5.72266 15.1709 6.69434Q15.752 7.66602 15.752 8.82812Q15.752 10.0195 15.1709 10.9961Q14.5898 11.9727 13.6182 12.5586Q12.6465 13.1445 11.4746 13.1445Z"
                     fill="rgba(255,255,255,0.55)" />
              <path d="M11.4648 11.7871Q12.2656 11.7871 12.9297 11.3867Q13.5938 10.9863 13.9893 10.3223Q14.3848 9.6582 14.3848 8.83789Q14.3848 8.04688 13.9893 7.38281Q13.5938 6.71875 12.9297 6.32324Q12.2656 5.92773 11.4648 5.92773Q10.6543 5.92773 9.98535 6.32324Q9.31641 6.71875 8.9209 7.38281Q8.52539 8.04688 8.52539 8.83789Q8.52539 9.6582 8.9209 10.3223Q9.31641 10.9863 9.98535 11.3867Q10.6543 11.7871 11.4648 11.7871Z"
                     fill="rgba(255,255,255,0.55)" />
       </g>
</svg>