<svg width="21.2012" height="21.0449">
       <g>
              <rect height="21.0449" opacity="0" width="21.2012" x="0" y="0" />
              <path d="M5.46875 21.0449Q5.70312 21.0449 5.89844 20.9229Q6.09375 20.8008 6.35742 20.5566L9.89258 17.4023L17.0508 17.4023Q18.3789 17.4023 19.3018 16.9092Q20.2246 16.416 20.7129 15.4932Q21.2012 14.5703 21.2012 13.2617L21.2012 5.41016Q21.2012 4.10156 20.7129 3.17383Q20.2246 2.24609 19.3018 1.75293Q18.3789 1.25977 17.0508 1.25977L4.15039 1.25977Q2.82227 1.25977 1.89453 1.75293Q0.966797 2.24609 0.483398 3.16895Q0 4.0918 0 5.41016L0 13.2617Q0 14.5703 0.483398 15.498Q0.966797 16.4258 1.89453 16.9141Q2.82227 17.4023 4.15039 17.4023L4.76562 17.4023L4.76562 20.2344Q4.76562 20.6055 4.95117 20.8252Q5.13672 21.0449 5.46875 21.0449Z"
                     fill="rgba(255,255,255,0.55)" />
              <path d="M3.98438 10.4297Q3.78906 10.4297 3.65234 10.293Q3.51562 10.1562 3.51562 9.96094Q3.51562 9.77539 3.65234 9.63379Q3.78906 9.49219 3.98438 9.49219L8.32031 9.49219Q8.51562 9.49219 8.64746 9.63379Q8.7793 9.77539 8.7793 9.96094Q8.7793 10.1562 8.64746 10.293Q8.51562 10.4297 8.32031 10.4297ZM10.4883 10.4297Q10.3027 10.4297 10.1611 10.293Q10.0195 10.1562 10.0195 9.96094Q10.0195 9.77539 10.1611 9.63379Q10.3027 9.49219 10.4883 9.49219L17.2266 9.49219Q17.4219 9.49219 17.5586 9.63379Q17.6953 9.77539 17.6953 9.96094Q17.6953 10.1562 17.5586 10.293Q17.4219 10.4297 17.2266 10.4297ZM3.98438 12.8906Q3.78906 12.8906 3.65234 12.7588Q3.51562 12.627 3.51562 12.4316Q3.51562 12.2266 3.65234 12.0898Q3.78906 11.9531 3.98438 11.9531L5.72266 11.9531Q5.91797 11.9531 6.05469 12.0898Q6.19141 12.2266 6.19141 12.4316Q6.19141 12.627 6.05469 12.7588Q5.91797 12.8906 5.72266 12.8906ZM7.90039 12.8906Q7.70508 12.8906 7.56348 12.7588Q7.42188 12.627 7.42188 12.4316Q7.42188 12.2266 7.56348 12.0898Q7.70508 11.9531 7.90039 11.9531L13.0566 11.9531Q13.252 11.9531 13.3887 12.0898Q13.5254 12.2266 13.5254 12.4316Q13.5254 12.627 13.3887 12.7588Q13.252 12.8906 13.0566 12.8906ZM15.2344 12.8906Q15.0391 12.8906 14.9023 12.7588Q14.7656 12.627 14.7656 12.4316Q14.7656 12.2266 14.9023 12.0898Q15.0391 11.9531 15.2344 11.9531L17.2266 11.9531Q17.4219 11.9531 17.5586 12.0898Q17.6953 12.2266 17.6953 12.4316Q17.6953 12.627 17.5586 12.7588Q17.4219 12.8906 17.2266 12.8906Z"
                     fill="#ffffff" />
       </g>
</svg>