<svg width="22.7089" height="17.8763">
       <g>
              <rect height="17.8763" opacity="0" width="22.7089" x="0" y="0" />
              <path d="M3.83636 5.6369Q3.95905 5.04608 4.14604 4.44427Q4.33304 3.84247 4.52538 3.34648Q4.71771 2.85049 4.87396 2.57034Q5.08133 2.21024 5.36789 2.0079Q5.65445 1.80557 6.12076 1.74103Q6.6864 1.6629 7.97768 1.62346Q9.26895 1.58401 11.3559 1.58401Q13.4399 1.58401 14.7346 1.62003Q16.0292 1.65604 16.5881 1.74103Q17.0613 1.80557 17.3411 2.0079Q17.6208 2.21024 17.8349 2.57034Q17.9979 2.84378 18.1869 3.33977Q18.3759 3.83575 18.558 4.44092Q18.7401 5.04608 18.8792 5.6369Q18.9384 5.87402 18.8383 5.99541Q18.7381 6.11679 18.461 6.09726Q17.6292 6.04553 16.6591 5.99815Q15.6889 5.95078 14.4108 5.92453Q13.1326 5.89828 11.3559 5.89828Q9.57626 5.89828 8.29811 5.92453Q7.01996 5.95078 6.05316 5.99815Q5.08636 6.04553 4.25476 6.09726Q3.97751 6.11679 3.87733 5.99541Q3.77716 5.87402 3.83636 5.6369ZM4.31198 12.5964Q3.68958 12.5964 3.27667 12.1802Q2.86377 11.7639 2.86377 11.1482Q2.86377 10.526 3.27667 10.1115Q3.68958 9.69711 4.31198 9.69711Q4.93729 9.69711 5.35019 10.1115Q5.76309 10.526 5.76309 11.1482Q5.76309 11.7639 5.35019 12.1802Q4.93729 12.5964 4.31198 12.5964ZM8.8475 12.2997Q8.38196 12.2997 8.09677 12.0144Q7.81158 11.7291 7.81158 11.2637Q7.81158 10.8051 8.09677 10.5198Q8.38196 10.2345 8.8475 10.2345L13.8681 10.2345Q14.3269 10.2345 14.6121 10.5198Q14.8973 10.8051 14.8973 11.2637Q14.8973 11.7291 14.6121 12.0144Q14.3269 12.2997 13.8681 12.2997ZM18.3969 12.5964Q17.7783 12.5964 17.3654 12.1802Q16.9525 11.7639 16.9525 11.1482Q16.9525 10.526 17.3654 10.1115Q17.7783 9.69711 18.3969 9.69711Q19.0193 9.69711 19.4322 10.1115Q19.8451 10.526 19.8451 11.1482Q19.8451 11.7639 19.4322 12.1802Q19.0193 12.5964 18.3969 12.5964ZM11.3559 15.2574Q12.5592 15.2574 13.9112 15.2281Q15.2632 15.1988 16.5725 15.1451Q17.8818 15.0914 18.9774 15.0246Q20.0731 14.9577 20.7634 14.8766Q21.6928 14.7684 22.2009 14.2752Q22.7089 13.782 22.7089 12.8778L22.7089 11.1591Q22.7089 10.3108 22.5842 9.69521Q22.4594 9.07959 22.1905 8.56339Q21.9215 8.04718 21.5027 7.50061L20.6575 6.4119Q20.4817 5.53299 20.2341 4.67361Q19.9866 3.81424 19.7375 3.13065Q19.4885 2.44705 19.3225 2.08572Q18.9349 1.26175 18.2143 0.805206Q17.4936 0.348663 16.5935 0.230865Q16.2584 0.182037 15.476 0.15274Q14.6936 0.123444 13.6214 0.108795Q12.5491 0.0941467 11.3559 0.0941467Q10.1598 0.0941467 9.08752 0.112152Q8.01529 0.130157 7.23289 0.159454Q6.4505 0.188751 6.12213 0.230865Q5.2153 0.341949 4.49799 0.801849Q3.78067 1.26175 3.3931 2.08572Q3.22037 2.44705 2.9747 3.13065Q2.72903 3.81424 2.4781 4.67361Q2.22717 5.53299 2.05139 6.4119L1.21292 7.50061Q0.790405 8.04718 0.5233 8.56339Q0.256195 9.07959 0.128098 9.69521Q0 10.3108 0 11.1591L0 12.8778Q0 13.782 0.511398 14.2752Q1.0228 14.7684 1.9455 14.8766Q2.6358 14.9577 3.73146 15.0246Q4.82712 15.0914 6.1364 15.1451Q7.44568 15.1988 8.79768 15.2281Q10.1497 15.2574 11.3559 15.2574ZM1.26556 17.8763L2.38388 17.8763Q2.91565 17.8763 3.28102 17.5143Q3.64639 17.1523 3.64639 16.6176L3.64639 14.2464L0 12.5114L0 16.6176Q0 17.1523 0.362015 17.5143Q0.72403 17.8763 1.26556 17.8763ZM20.325 17.8763L21.45 17.8763Q21.9849 17.8763 22.3469 17.5143Q22.7089 17.1523 22.7089 16.6176L22.7089 12.5114L19.0692 14.2464L19.0692 16.6176Q19.0692 17.1523 19.4312 17.5143Q19.7932 17.8763 20.325 17.8763Z"
                     fill="#0a84ff" />
       </g>
</svg>