<svg width="19.5898" height="19.5996">
       <g>
              <rect height="19.5996" opacity="0" width="19.5898" x="0" y="0" />
              <path d="M9.79492 19.5898Q11.8066 19.5898 13.5791 18.8232Q15.3516 18.0566 16.7041 16.7041Q18.0566 15.3516 18.8232 13.5791Q19.5898 11.8066 19.5898 9.79492Q19.5898 7.7832 18.8232 6.01074Q18.0566 4.23828 16.7041 2.88574Q15.3516 1.5332 13.5742 0.766602Q11.7969 0 9.78516 0Q7.77344 0 6.00098 0.766602Q4.22852 1.5332 2.88086 2.88574Q1.5332 4.23828 0.766602 6.01074Q0 7.7832 0 9.79492Q0 11.8066 0.766602 13.5791Q1.5332 15.3516 2.88574 16.7041Q4.23828 18.0566 6.01074 18.8232Q7.7832 19.5898 9.79492 19.5898ZM9.79492 18.3203Q8.02734 18.3203 6.47949 17.6611Q4.93164 17.002 3.75977 15.8301Q2.58789 14.6582 1.92871 13.1104Q1.26953 11.5625 1.26953 9.79492Q1.26953 8.02734 1.92871 6.47949Q2.58789 4.93164 3.75977 3.75488Q4.93164 2.57812 6.47461 1.91895Q8.01758 1.25977 9.78516 1.25977Q11.5625 1.25977 13.1104 1.91895Q14.6582 2.57812 15.8301 3.75488Q17.002 4.93164 17.666 6.47949Q18.3301 8.02734 18.3301 9.79492Q18.3301 11.5625 17.666 13.1104Q17.002 14.6582 15.8301 15.8301Q14.6582 17.002 13.1152 17.6611Q11.5723 18.3203 9.79492 18.3203Z"
                     fill="#0a84ff" />
              <path d="M4.375 13.1348Q4.375 13.3887 4.5459 13.5645Q4.7168 13.7402 4.9707 13.7402L5.51758 13.7402Q5.76172 13.7402 5.9375 13.5645Q6.11328 13.3887 6.11328 13.1348L6.11328 12.3828Q6.88477 12.4219 7.90039 12.4512Q8.91602 12.4805 9.79492 12.4805Q10.6738 12.4805 11.6846 12.4512Q12.6953 12.4219 13.4668 12.3828L13.4668 13.1348Q13.4668 13.3887 13.6426 13.5645Q13.8184 13.7402 14.0723 13.7402L14.6094 13.7402Q14.8633 13.7402 15.0391 13.5645Q15.2148 13.3887 15.2148 13.1348L15.2148 10.5371Q15.2148 9.93164 15.0732 9.55566Q14.9316 9.17969 14.6289 8.78906L14.2383 8.27148Q14.1016 7.63672 13.9062 7.0459Q13.7109 6.45508 13.5938 6.20117Q13.4082 5.81055 13.0664 5.5957Q12.7246 5.38086 12.2949 5.32227Q12.0508 5.29297 11.3477 5.27344Q10.6445 5.25391 9.79492 5.25391Q8.94531 5.25391 8.24219 5.27344Q7.53906 5.29297 7.29492 5.32227Q6.86523 5.37109 6.52344 5.59082Q6.18164 5.81055 5.99609 6.20117Q5.87891 6.45508 5.67871 7.0459Q5.47852 7.63672 5.36133 8.27148L4.95117 8.78906Q4.6582 9.17969 4.5166 9.55566Q4.375 9.93164 4.375 10.5371ZM6.36719 7.87109Q6.46484 7.46094 6.59668 7.05566Q6.72852 6.65039 6.83594 6.46484Q6.93359 6.29883 7.06543 6.20117Q7.19727 6.10352 7.42188 6.08398Q7.68555 6.04492 8.27148 6.02539Q8.85742 6.00586 9.79492 6.00586Q10.7227 6.00586 11.3135 6.02051Q11.9043 6.03516 12.1582 6.08398Q12.3828 6.10352 12.5146 6.20117Q12.6465 6.29883 12.7441 6.46484Q12.8613 6.65039 12.9932 7.05566Q13.125 7.46094 13.2227 7.87109Q13.2812 8.0957 13.0371 8.07617Q12.4609 8.03711 11.7334 8.00781Q11.0059 7.97852 9.79492 7.97852Q8.58398 7.97852 7.85645 8.00781Q7.12891 8.03711 6.55273 8.07617Q6.31836 8.0957 6.36719 7.87109ZM5.73242 10.5273Q5.73242 10.2344 5.9375 10.0391Q6.14258 9.84375 6.42578 9.84375Q6.71875 9.84375 6.91406 10.0391Q7.10938 10.2344 7.10938 10.5273Q7.10938 10.8301 6.91406 11.0205Q6.71875 11.2109 6.42578 11.2109Q6.14258 11.2109 5.9375 11.0205Q5.73242 10.8301 5.73242 10.5273ZM8.10547 10.5957Q8.10547 10.3711 8.24219 10.2344Q8.37891 10.0977 8.59375 10.0977L10.9863 10.0977Q11.2012 10.0977 11.3379 10.2344Q11.4746 10.3711 11.4746 10.5957Q11.4746 10.8105 11.3379 10.9473Q11.2012 11.084 10.9863 11.084L8.59375 11.084Q8.37891 11.084 8.24219 10.9473Q8.10547 10.8105 8.10547 10.5957ZM12.4707 10.5273Q12.4707 10.2344 12.666 10.0391Q12.8613 9.84375 13.1543 9.84375Q13.4473 9.84375 13.6475 10.0391Q13.8477 10.2344 13.8477 10.5273Q13.8477 10.8301 13.6475 11.0205Q13.4473 11.2109 13.1543 11.2109Q12.8613 11.2109 12.666 11.0205Q12.4707 10.8301 12.4707 10.5273Z"
                     fill="#0a84ff" />
       </g>
</svg>