<svg width="30.4619" height="17.8763">
       <g>
              <rect height="17.8763" opacity="0" width="30.4619" x="0" y="0" />
              <path d="M8.83255 15.2251L8.83255 14.2091Q7.49741 14.1866 6.20796 14.1344Q4.91852 14.0822 3.86665 14.0187Q2.81479 13.9552 2.1904 13.8838Q1.55396 13.8094 1.28342 13.4977Q1.01288 13.186 1.01288 12.6204L1.01288 11.1591Q1.01288 10.4791 1.10382 9.99039Q1.19476 9.50165 1.41075 9.06654Q1.62674 8.63144 2.01965 8.11829L2.99469 6.84006Q3.10135 6.26724 3.26363 5.64362Q3.4259 5.01999 3.61145 4.42734Q3.797 3.83469 3.98293 3.34351Q4.16885 2.85233 4.31305 2.53769Q4.56558 1.99966 5.0518 1.67236Q5.53802 1.34506 6.24146 1.26389Q6.54785 1.22482 7.28485 1.18881Q8.02185 1.1528 9.06738 1.12991Q10.1129 1.10703 11.3559 1.10703Q12.3289 1.10703 13.1966 1.1235Q14.0643 1.13998 14.7795 1.16318L15.2432 0.149689Q14.4974 0.120392 13.4874 0.107269Q12.4774 0.0941467 11.3559 0.0941467Q10.1598 0.0941467 9.08752 0.112152Q8.01529 0.130157 7.23289 0.159454Q6.4505 0.188751 6.12213 0.230865Q5.2153 0.341949 4.49799 0.801849Q3.78067 1.26175 3.3931 2.08572Q3.22037 2.44705 2.9747 3.13065Q2.72903 3.81424 2.4781 4.67361Q2.22717 5.53299 2.05139 6.4119L1.21292 7.50061Q0.790405 8.04718 0.5233 8.56339Q0.256195 9.07959 0.128098 9.69521Q0 10.3108 0 11.1591L0 12.749Q0 13.7244 0.506134 14.2464Q1.01227 14.7684 1.9455 14.8766Q2.47116 14.9419 3.23044 14.9974Q3.98972 15.0529 4.90585 15.0969Q5.82199 15.1408 6.82304 15.1717Q7.8241 15.2025 8.83255 15.2251ZM10.4996 6.26724L11.7029 2.04803Q11.6228 2.04803 11.5343 2.04803Q11.4459 2.04803 11.3559 2.04803Q9.46869 2.04803 8.22983 2.0874Q6.99097 2.12677 6.44241 2.2049Q5.98587 2.26959 5.69969 2.46521Q5.41351 2.66083 5.21591 3.01712Q5.05966 3.28079 4.87411 3.7648Q4.68857 4.24881 4.50829 4.83711Q4.328 5.42542 4.19861 6.01273Q4.14612 6.24298 4.24294 6.36101Q4.33975 6.47903 4.6138 6.4595Q5.05936 6.42715 5.53337 6.39938Q6.00739 6.37161 6.53725 6.34872Q7.06711 6.32584 7.67021 6.31119Q8.27332 6.29654 8.97751 6.28342Q9.6817 6.27029 10.4996 6.26724ZM1.76361 17.8763L2.88193 17.8763Q3.42041 17.8763 3.78242 17.5143Q4.14444 17.1523 4.14444 16.6176L4.14444 14.5528L0.498047 13.9658L0.498047 16.6176Q0.498047 17.1492 0.860062 17.5127Q1.22208 17.8763 1.76361 17.8763ZM4.31198 12.5964Q4.93729 12.5964 5.35019 12.1802Q5.76309 11.7639 5.76309 11.1482Q5.76309 10.526 5.35019 10.1115Q4.93729 9.69711 4.31198 9.69711Q3.68958 9.69711 3.27667 10.1115Q2.86377 10.526 2.86377 11.1482Q2.86377 11.7639 3.27667 12.1802Q3.68958 12.5964 4.31198 12.5964Z"
                     fill="rgba(255,255,255,0.55)" />
              <path d="M19.1089 15.2574Q20.312 15.2574 21.6641 15.2281Q23.0162 15.1988 24.3255 15.1451Q25.6348 15.0914 26.7303 15.0246Q27.8259 14.9577 28.5164 14.8766Q29.4391 14.7684 29.9505 14.2752Q30.4619 13.782 30.4619 12.8778L30.4619 11.1591Q30.4619 10.3108 30.3337 9.69521Q30.2055 9.07959 29.94 8.56339Q29.6745 8.04718 29.2488 7.50061L28.4103 6.4119Q28.2278 5.53299 27.9803 4.67361Q27.7328 3.81424 27.4838 3.13065Q27.2348 2.44705 27.0688 2.08572Q26.6812 1.26175 25.9639 0.805206Q25.2466 0.348663 24.3396 0.230865Q24.0114 0.182037 23.2289 0.15274Q22.4464 0.123444 21.3743 0.108795Q20.3021 0.0941467 19.1089 0.0941467Q17.906 0.0941467 16.8372 0.112152Q15.7683 0.130157 14.9859 0.159454Q14.2035 0.188751 13.8684 0.230865Q12.9681 0.341949 12.2475 0.801849Q11.5268 1.26175 11.1392 2.08572Q10.9732 2.44705 10.7257 3.13065Q10.4782 3.81424 10.2292 4.67361Q9.98016 5.53299 9.80438 6.4119L8.9592 7.50061Q8.54324 8.04718 8.27286 8.56339Q8.00247 9.07959 7.8743 9.69521Q7.74612 10.3108 7.74612 11.1591L7.74612 12.8778Q7.74612 13.782 8.25752 14.2752Q8.76892 14.7684 9.69849 14.8766Q10.3888 14.9577 11.4844 15.0246Q12.58 15.0914 13.8892 15.1451Q15.1985 15.1988 16.5506 15.2281Q17.9027 15.2574 19.1089 15.2574ZM19.1089 14.2415Q17.8922 14.2415 16.5517 14.2137Q15.2113 14.1859 13.9305 14.1405Q12.6497 14.095 11.6061 14.0285Q10.5626 13.9619 9.94339 13.8838Q9.30023 13.8026 9.02969 13.4943Q8.75916 13.186 8.75916 12.6204L8.75916 11.1591Q8.75916 10.4791 8.85002 9.99039Q8.94089 9.50165 9.15695 9.06654Q9.37302 8.63144 9.76593 8.11829L10.7475 6.84006Q10.8543 6.26724 11.0166 5.64362Q11.1789 5.01999 11.3644 4.42734Q11.55 3.83469 11.7325 3.34351Q11.915 2.85233 12.0592 2.53769Q12.3117 1.99966 12.7979 1.67236Q13.2841 1.34506 13.9943 1.26389Q14.3008 1.22482 15.0344 1.18881Q15.768 1.1528 16.8136 1.12991Q17.8592 1.10703 19.1089 1.10703Q20.3488 1.10703 21.3978 1.12991Q22.4467 1.1528 23.1837 1.18881Q23.9207 1.22482 24.207 1.26389Q24.9239 1.35178 25.4101 1.67908Q25.8963 2.00638 26.1488 2.53769Q26.2997 2.85233 26.4822 3.34351Q26.6647 3.83469 26.8503 4.42734Q27.0358 5.01999 27.1981 5.64362Q27.3604 6.26724 27.4672 6.84006L28.4421 8.11829Q28.835 8.63144 29.0511 9.06654Q29.2671 9.50165 29.3581 9.99039Q29.449 10.4791 29.449 11.1591L29.449 12.6204Q29.449 13.186 29.1784 13.4992Q28.9078 13.8124 28.2646 13.8838Q27.6454 13.9589 26.6019 14.0205Q25.5583 14.0822 24.2809 14.1325Q23.0034 14.1829 21.6596 14.2122Q20.3159 14.2415 19.1089 14.2415ZM11.9516 6.01273Q11.899 6.24298 11.9958 6.36101Q12.0927 6.47903 12.3601 6.4595Q13.1746 6.39786 14.1092 6.35544Q15.0438 6.31302 16.2542 6.29013Q17.4646 6.26724 19.1089 6.26724Q20.7501 6.26724 21.9572 6.29013Q23.1642 6.31302 24.0988 6.35544Q25.0334 6.39786 25.8479 6.4595Q26.1153 6.47903 26.2122 6.36101Q26.3091 6.24298 26.2595 6.01273Q26.1272 5.42542 25.9502 4.83711Q25.7733 4.24881 25.5878 3.7648Q25.4022 3.28079 25.246 3.01712Q25.0385 2.66083 24.7572 2.46521Q24.4759 2.26959 24.0193 2.2049Q23.4641 2.12677 22.2285 2.0874Q20.993 2.04803 19.1089 2.04803Q17.215 2.04803 15.9795 2.0874Q14.744 2.12677 14.1954 2.2049Q13.7389 2.26959 13.4527 2.46521Q13.1665 2.66083 12.9622 3.01712Q12.8127 3.28079 12.6286 3.7648Q12.4446 4.24881 12.2643 4.83711Q12.0839 5.42542 11.9516 6.01273ZM9.50974 17.8763L10.6349 17.8763Q11.1665 17.8763 11.5285 17.5143Q11.8906 17.1523 11.8906 16.6176L11.8906 14.487L8.25104 13.9833L8.25104 16.6176Q8.25104 17.1492 8.61305 17.5127Q8.97507 17.8763 9.50974 17.8763ZM27.58 17.8763L28.6983 17.8763Q29.2329 17.8763 29.5984 17.5143Q29.9638 17.1523 29.9638 16.6176L29.9638 13.9833L26.3174 14.487L26.3174 16.6176Q26.3174 17.1523 26.6795 17.5143Q27.0415 17.8763 27.58 17.8763ZM12.0648 12.5964Q12.6836 12.5964 13.0964 12.1802Q13.5092 11.7639 13.5092 11.1482Q13.5092 10.526 13.0964 10.1115Q12.6836 9.69711 12.0648 9.69711Q11.4424 9.69711 11.0296 10.1115Q10.6168 10.526 10.6168 11.1482Q10.6168 11.7639 11.0296 12.1802Q11.4424 12.5964 12.0648 12.5964ZM16.5936 12.2997L21.6144 12.2997Q22.0731 12.2997 22.3617 12.0144Q22.6503 11.7291 22.6503 11.2637Q22.6503 10.8051 22.3617 10.5198Q22.0731 10.2345 21.6144 10.2345L16.5936 10.2345Q16.1349 10.2345 15.8463 10.5198Q15.5577 10.8051 15.5577 11.2637Q15.5577 11.7291 15.8463 12.0144Q16.1349 12.2997 16.5936 12.2997ZM26.1499 12.5964Q26.7656 12.5964 27.1819 12.1802Q27.5981 11.7639 27.5981 11.1482Q27.5981 10.526 27.1819 10.1115Q26.7656 9.69711 26.1499 9.69711Q25.5275 9.69711 25.1131 10.1115Q24.6988 10.526 24.6988 11.1482Q24.6988 11.7639 25.1131 12.1802Q25.5275 12.5964 26.1499 12.5964Z"
                     fill="rgba(255,255,255,0.55)" />
       </g>
</svg>