<svg width="22.7089" height="17.8763">
       <g>
              <rect height="17.8763" opacity="0" width="22.7089" x="0" y="0" />
              <path d="M4.19861 6.01273Q4.14612 6.24298 4.24294 6.36101Q4.33975 6.47903 4.6138 6.4595Q5.42847 6.39786 6.36307 6.35544Q7.29767 6.31302 8.50471 6.29013Q9.71176 6.26724 11.3559 6.26724Q12.9971 6.26724 14.2042 6.29013Q15.4112 6.31302 16.3492 6.35544Q17.2871 6.39786 18.1018 6.4595Q18.3691 6.47903 18.466 6.36101Q18.5628 6.24298 18.5133 6.01273Q18.378 5.42542 18.1992 4.83711Q18.0203 4.24881 17.8348 3.7648Q17.6492 3.28079 17.493 3.01712Q17.2923 2.66083 17.0077 2.46521Q16.723 2.26959 16.2665 2.2049Q15.7179 2.12677 14.4791 2.0874Q13.2402 2.04803 11.3559 2.04803Q9.46869 2.04803 8.22983 2.0874Q6.99097 2.12677 6.44241 2.2049Q5.98587 2.26959 5.69969 2.46521Q5.41351 2.66083 5.21591 3.01712Q5.05966 3.28079 4.87564 3.7648Q4.69162 4.24881 4.51469 4.83711Q4.33777 5.42542 4.19861 6.01273ZM4.31198 12.5964Q4.93729 12.5964 5.35019 12.1802Q5.76309 11.7639 5.76309 11.1482Q5.76309 10.526 5.35019 10.1115Q4.93729 9.69711 4.31198 9.69711Q3.68958 9.69711 3.27667 10.1115Q2.86377 10.526 2.86377 11.1482Q2.86377 11.7639 3.27667 12.1802Q3.68958 12.5964 4.31198 12.5964ZM8.8475 12.2997L13.8681 12.2997Q14.3269 12.2997 14.6121 12.0144Q14.8973 11.7291 14.8973 11.2637Q14.8973 10.8051 14.6121 10.5198Q14.3269 10.2345 13.8681 10.2345L8.8475 10.2345Q8.38196 10.2345 8.09677 10.5198Q7.81158 10.8051 7.81158 11.2637Q7.81158 11.7291 8.09677 12.0144Q8.38196 12.2997 8.8475 12.2997ZM18.3969 12.5964Q19.0193 12.5964 19.4322 12.1802Q19.8451 11.7639 19.8451 11.1482Q19.8451 10.526 19.4322 10.1115Q19.0193 9.69711 18.3969 9.69711Q17.7783 9.69711 17.3654 10.1115Q16.9525 10.526 16.9525 11.1482Q16.9525 11.7639 17.3654 12.1802Q17.7783 12.5964 18.3969 12.5964ZM11.3559 15.2574Q12.5592 15.2574 13.9112 15.2281Q15.2632 15.1988 16.5725 15.1451Q17.8818 15.0914 18.9774 15.0246Q20.0731 14.9577 20.7634 14.8766Q21.6928 14.7684 22.2009 14.2752Q22.7089 13.782 22.7089 12.8778L22.7089 11.1591Q22.7089 10.3108 22.5842 9.69521Q22.4594 9.07959 22.1905 8.56339Q21.9215 8.04718 21.5027 7.50061L20.6575 6.4119Q20.4817 5.53299 20.2341 4.67361Q19.9866 3.81424 19.7375 3.13065Q19.4885 2.44705 19.3225 2.08572Q18.9349 1.26175 18.2143 0.805206Q17.4936 0.348663 16.5935 0.230865Q16.2584 0.182037 15.476 0.15274Q14.6936 0.123444 13.6214 0.108795Q12.5491 0.0941467 11.3559 0.0941467Q10.1598 0.0941467 9.08752 0.112152Q8.01529 0.130157 7.23289 0.159454Q6.4505 0.188751 6.12213 0.230865Q5.2153 0.341949 4.49799 0.801849Q3.78067 1.26175 3.3931 2.08572Q3.22037 2.44705 2.9747 3.13065Q2.72903 3.81424 2.4781 4.67361Q2.22717 5.53299 2.05139 6.4119L1.21292 7.50061Q0.790405 8.04718 0.5233 8.56339Q0.256195 9.07959 0.128098 9.69521Q0 10.3108 0 11.1591L0 12.8778Q0 13.782 0.511398 14.2752Q1.0228 14.7684 1.9455 14.8766Q2.6358 14.9577 3.73146 15.0246Q4.82712 15.0914 6.1364 15.1451Q7.44568 15.1988 8.79768 15.2281Q10.1497 15.2574 11.3559 15.2574ZM11.3559 14.2415Q10.146 14.2415 8.80219 14.2137Q7.45834 14.1859 6.18095 14.1405Q4.90356 14.095 3.86002 14.0285Q2.81647 13.9619 2.1904 13.8838Q1.55396 13.8026 1.28342 13.4943Q1.01288 13.186 1.01288 12.6204L1.01288 11.1591Q1.01288 10.4791 1.10382 9.99039Q1.19476 9.50165 1.41075 9.06654Q1.62674 8.63144 2.01965 8.11829L2.99469 6.84006Q3.10135 6.26724 3.26363 5.64362Q3.4259 5.01999 3.61145 4.42734Q3.797 3.83469 3.98293 3.34351Q4.16885 2.85233 4.31305 2.53769Q4.56558 1.99966 5.0518 1.67236Q5.53802 1.34506 6.24146 1.26389Q6.54785 1.22482 7.28485 1.18881Q8.02185 1.1528 9.06738 1.12991Q10.1129 1.10703 11.3559 1.10703Q12.6027 1.10703 13.6517 1.12991Q14.7006 1.1528 15.4342 1.18881Q16.1678 1.22482 16.454 1.26389Q17.1776 1.35178 17.6604 1.67908Q18.1433 2.00638 18.4027 2.53769Q18.5468 2.85233 18.7292 3.34351Q18.9117 3.83469 19.0973 4.42734Q19.2828 5.01999 19.4452 5.64362Q19.6075 6.26724 19.7142 6.84006L20.696 8.11829Q21.0889 8.63144 21.3049 9.06654Q21.5208 9.50165 21.6084 9.99039Q21.696 10.4791 21.696 11.1591L21.696 12.6204Q21.696 13.186 21.4288 13.4992Q21.1617 13.8124 20.5185 13.8838Q19.8993 13.9589 18.8557 14.0205Q17.812 14.0822 16.5313 14.1325Q15.2505 14.1829 13.9101 14.2122Q12.5696 14.2415 11.3559 14.2415ZM1.76361 17.8763L2.88193 17.8763Q3.42041 17.8763 3.78242 17.5143Q4.14444 17.1523 4.14444 16.6176L4.14444 14.487L0.498047 13.9833L0.498047 16.6176Q0.498047 17.1492 0.860062 17.5127Q1.22208 17.8763 1.76361 17.8763ZM19.827 17.8763L20.952 17.8763Q21.4868 17.8763 21.8488 17.5143Q22.2108 17.1523 22.2108 16.6176L22.2108 13.9833L18.5712 14.487L18.5712 16.6176Q18.5712 17.1523 18.9332 17.5143Q19.2952 17.8763 19.827 17.8763Z"
                     fill="#0a84ff" />
       </g>
</svg>