<svg width="19.5898" height="19.5996">
       <g>
              <rect height="19.5996" opacity="0" width="19.5898" x="0" y="0" />
              <path d="M9.79492 19.5996Q11.8066 19.5996 13.5791 18.833Q15.3516 18.0664 16.7041 16.7139Q18.0566 15.3613 18.8232 13.5889Q19.5898 11.8164 19.5898 9.80469Q19.5898 7.79297 18.8232 6.02051Q18.0566 4.24805 16.7041 2.89551Q15.3516 1.54297 13.5742 0.776367Q11.7969 0.00976562 9.78516 0.00976562Q7.77344 0.00976562 6.00098 0.776367Q4.22852 1.54297 2.88086 2.89551Q1.5332 4.24805 0.766602 6.02051Q0 7.79297 0 9.80469Q0 11.8164 0.766602 13.5889Q1.5332 15.3613 2.88574 16.7139Q4.23828 18.0664 6.01074 18.833Q7.7832 19.5996 9.79492 19.5996Z"
                     fill="#0a84ff" />
              <path d="M4.26758 13.2422L4.26758 10.5762Q4.26758 9.9707 4.40918 9.58496Q4.55078 9.19922 4.86328 8.80859L5.27344 8.27148Q5.40039 7.62695 5.5957 7.02637Q5.79102 6.42578 5.91797 6.17188Q6.10352 5.76172 6.45508 5.54199Q6.80664 5.32227 7.24609 5.27344Q7.49023 5.24414 8.20801 5.22461Q8.92578 5.20508 9.79492 5.20508Q10.6641 5.20508 11.3818 5.22461Q12.0996 5.24414 12.3438 5.27344Q12.7832 5.32227 13.1348 5.54199Q13.4863 5.76172 13.6719 6.17188Q13.7988 6.42578 13.9941 7.02637Q14.1895 7.62695 14.3262 8.27148L14.7363 8.80859Q15.0391 9.19922 15.1807 9.58496Q15.3223 9.9707 15.3223 10.5762L15.3223 13.2422Q15.3223 13.4961 15.1465 13.6719Q14.9707 13.8477 14.707 13.8477L14.1504 13.8477Q13.8965 13.8477 13.7207 13.6719Q13.5449 13.4961 13.5449 13.2422L13.5449 12.4707Q12.7539 12.5098 11.7236 12.5391Q10.6934 12.5684 9.79492 12.5684Q8.89648 12.5684 7.86621 12.5391Q6.83594 12.5098 6.04492 12.4707L6.04492 13.2422Q6.04492 13.4961 5.86914 13.6719Q5.69336 13.8477 5.42969 13.8477L4.87305 13.8477Q4.61914 13.8477 4.44336 13.6719Q4.26758 13.4961 4.26758 13.2422ZM6.30859 7.87109Q6.25977 8.0957 6.49414 8.07617Q7.08008 8.02734 7.81738 8.00293Q8.55469 7.97852 9.79492 7.97852Q11.0352 7.97852 11.7725 8.00293Q12.5098 8.02734 13.0957 8.07617Q13.3496 8.0957 13.291 7.87109Q13.1934 7.44141 13.0566 7.03125Q12.9199 6.62109 12.8125 6.43555Q12.7051 6.25977 12.5684 6.16699Q12.4316 6.07422 12.207 6.04492Q11.9434 6.00586 11.3477 5.99121Q10.752 5.97656 9.79492 5.97656Q8.84766 5.97656 8.24707 5.99121Q7.64648 6.00586 7.37305 6.04492Q7.14844 6.07422 7.0166 6.16699Q6.88477 6.25977 6.78711 6.43555Q6.66992 6.63086 6.5332 7.03613Q6.39648 7.44141 6.30859 7.87109ZM5.6543 10.5762Q5.6543 10.8691 5.85938 11.0742Q6.06445 11.2793 6.36719 11.2793Q6.66016 11.2793 6.86035 11.0742Q7.06055 10.8691 7.06055 10.5762Q7.06055 10.2734 6.86035 10.0781Q6.66016 9.88281 6.36719 9.88281Q6.06445 9.88281 5.85938 10.0781Q5.6543 10.2734 5.6543 10.5762ZM8.07617 10.6445Q8.07617 10.8691 8.21289 11.0059Q8.34961 11.1426 8.57422 11.1426L11.0059 11.1426Q11.2402 11.1426 11.3818 11.0059Q11.5234 10.8691 11.5234 10.6445Q11.5234 10.4199 11.3818 10.2783Q11.2402 10.1367 11.0059 10.1367L8.57422 10.1367Q8.34961 10.1367 8.21289 10.2783Q8.07617 10.4199 8.07617 10.6445ZM12.5195 10.5762Q12.5195 10.8691 12.7246 11.0742Q12.9297 11.2793 13.2227 11.2793Q13.5254 11.2793 13.7256 11.0742Q13.9258 10.8691 13.9258 10.5762Q13.9258 10.2734 13.7256 10.0781Q13.5254 9.88281 13.2227 9.88281Q12.9297 9.88281 12.7246 10.0781Q12.5195 10.2734 12.5195 10.5762Z"
                     fill="#ffffff" />
       </g>
</svg>