<svg width="23.3131" height="18.2791">
       <g>
              <rect height="18.2791" opacity="0" width="23.3131" x="0" y="0" />
              <path d="M4.77966 18.2657L17.5641 18.2657Q18.7831 18.2657 19.826 17.8402Q20.869 17.4147 21.6528 16.655Q22.4365 15.8952 22.8748 14.8862Q23.3131 13.8771 23.3131 12.7159Q23.3131 11.539 22.8602 10.5344Q22.4072 9.52988 21.5878 8.78632Q20.7683 8.04276 19.6698 7.62856Q18.5713 7.21436 17.2667 7.21741Q16.2962 5.2626 14.6066 4.12697Q12.9169 2.99133 10.6763 2.99133Q9.2717 2.99133 8.02185 3.50853Q6.772 4.02573 5.79071 4.95651Q4.80942 5.8873 4.19952 7.13089Q3.58963 8.37448 3.46573 9.82727Q2.49222 10.0946 1.73676 10.6902Q0.981293 11.2857 0.549927 12.1394Q0.118561 12.993 0.118561 14.0404Q0.118561 15.2089 0.666428 16.1665Q1.21429 17.124 2.25639 17.6949Q3.29849 18.2657 4.77966 18.2657ZM1.35208 8.83224Q1.90933 8.83224 2.29881 8.44276Q2.68829 8.05328 2.68829 7.48627Q2.68829 6.92581 2.29881 6.53641Q1.90933 6.147 1.35208 6.147Q0.791626 6.147 0.395813 6.53641Q0 6.92581 0 7.48627Q0 8.05328 0.395813 8.44276Q0.791626 8.83224 1.35208 8.83224ZM15.6412 2.5351Q16.1595 2.5351 16.5324 2.16209Q16.9054 1.78909 16.9054 1.2709Q16.9054 0.749664 16.5324 0.374832Q16.1595 0 15.6412 0Q15.1199 0 14.75 0.374832Q14.38 0.749664 14.38 1.2709Q14.38 1.78909 14.75 2.16209Q15.1199 2.5351 15.6412 2.5351ZM19.698 5.86548Q20.477 5.86548 21.0275 5.31647Q21.5781 4.76746 21.5781 3.96896Q21.5781 3.18695 21.0275 2.63451Q20.477 2.08206 19.698 2.08206Q18.8995 2.08206 18.3441 2.63451Q17.7887 3.18695 17.7887 3.96896Q17.7887 4.76746 18.3441 5.31647Q18.8995 5.86548 19.698 5.86548Z"
                     fill="rgba(255,255,255,0.55)" />
              <path d="M8.28506 15.085Q7.42798 15.085 6.90636 14.624Q6.38474 14.1631 6.14815 13.4136Q5.91156 12.6642 5.91156 11.8138Q5.91156 10.9418 6.15944 10.2036Q6.40732 9.46548 6.92558 9.02367Q7.44385 8.58185 8.26477 8.58185Q9.23599 8.58185 9.77402 9.18663Q10.312 9.79141 10.3709 10.5811Q10.3867 10.8212 10.2614 10.9566Q10.1361 11.0921 9.94415 11.0921Q9.59381 11.0921 9.49417 10.6622Q9.39178 10.1602 9.11774 9.78767Q8.84369 9.41513 8.27835 9.41513Q7.72949 9.41513 7.40997 9.7628Q7.09045 10.1105 6.9532 10.6599Q6.81595 11.2094 6.81595 11.8138Q6.81595 12.4294 6.95168 12.9887Q7.0874 13.548 7.40692 13.8998Q7.72644 14.2517 8.28506 14.2517Q8.84735 14.2517 9.13116 13.8757Q9.41498 13.4998 9.51431 12.9979Q9.61716 12.5681 9.96429 12.5681Q10.1564 12.5681 10.2817 12.7068Q10.407 12.8456 10.388 13.0791Q10.3322 13.8687 9.79271 14.4769Q9.25323 15.085 8.28506 15.085ZM13.1921 15.085Q12.1039 15.085 11.4635 14.2037Q10.8232 13.3224 10.8232 11.8304Q10.8232 10.3346 11.462 9.45824Q12.1008 8.58185 13.1793 8.58185Q14.2677 8.58185 14.9047 9.45824Q15.5417 10.3346 15.5417 11.8304Q15.5417 13.3224 14.9062 14.2037Q14.2708 15.085 13.1921 15.085ZM16.2799 15.4416Q16.1455 15.4416 16.0569 15.3527Q15.9683 15.2638 15.9683 15.1227Q15.9683 14.9472 16.0876 14.8219L16.8748 13.9703Q17.0554 13.7582 17.2 13.5696Q17.3447 13.381 17.3447 13.1969Q17.3447 12.8946 17.0204 12.8946Q16.7322 12.8946 16.6443 13.2571Q16.6046 13.3585 16.524 13.4489Q16.4433 13.5394 16.2849 13.5394Q16.1536 13.5394 16.0516 13.4407Q15.9496 13.342 15.9496 13.1837Q15.9496 12.8372 16.2353 12.5323Q16.521 12.2273 17.0076 12.2273Q17.4777 12.2273 17.7736 12.4981Q18.0695 12.7689 18.0695 13.1834Q18.0695 13.4862 17.8775 13.7754Q17.6855 14.0646 17.3979 14.3576L17.0212 14.7842L17.8987 14.7842Q18.0299 14.7842 18.1253 14.8829Q18.2207 14.9815 18.2207 15.1062Q18.2207 15.2443 18.1253 15.3429Q18.0299 15.4416 17.8987 15.4416ZM13.1921 14.2517Q13.8635 14.2517 14.2493 13.607Q14.635 12.9623 14.635 11.8304Q14.635 10.6976 14.2429 10.0564Q13.8507 9.41513 13.1793 9.41513Q12.5079 9.41513 12.1207 10.0564Q11.7336 10.6976 11.7336 11.8304Q11.7336 12.9623 12.1272 13.607Q12.5208 14.2517 13.1921 14.2517Z"
                     fill="#ffffff" />
       </g>
</svg>