<svg width="23.3131" height="18.2791">
       <g>
              <rect height="18.2791" opacity="0" width="23.3131" x="0" y="0" />
              <path d="M4.77966 18.2657L17.5641 18.2657Q18.7831 18.2657 19.826 17.8402Q20.869 17.4147 21.6528 16.655Q22.4365 15.8952 22.8748 14.8862Q23.3131 13.8771 23.3131 12.7159Q23.3131 11.539 22.8602 10.5344Q22.4072 9.52988 21.5878 8.78632Q20.7683 8.04276 19.6698 7.62856Q18.5713 7.21436 17.2667 7.21741Q16.2962 5.2626 14.6066 4.12697Q12.9169 2.99133 10.6763 2.99133Q9.2717 2.99133 8.02185 3.50853Q6.772 4.02573 5.79071 4.95651Q4.80942 5.8873 4.19952 7.13089Q3.58963 8.37448 3.46573 9.82727Q2.49222 10.0946 1.73676 10.6902Q0.981293 11.2857 0.549927 12.1394Q0.118561 12.993 0.118561 14.0404Q0.118561 15.2089 0.666428 16.1665Q1.21429 17.124 2.25639 17.6949Q3.29849 18.2657 4.77966 18.2657ZM1.35208 8.83224Q1.90933 8.83224 2.29881 8.44276Q2.68829 8.05328 2.68829 7.48627Q2.68829 6.92581 2.29881 6.53641Q1.90933 6.147 1.35208 6.147Q0.791626 6.147 0.395813 6.53641Q0 6.92581 0 7.48627Q0 8.05328 0.395813 8.44276Q0.791626 8.83224 1.35208 8.83224ZM15.6412 2.5351Q16.1595 2.5351 16.5324 2.16209Q16.9054 1.78909 16.9054 1.2709Q16.9054 0.749664 16.5324 0.374832Q16.1595 0 15.6412 0Q15.1199 0 14.75 0.374832Q14.38 0.749664 14.38 1.2709Q14.38 1.78909 14.75 2.16209Q15.1199 2.5351 15.6412 2.5351ZM19.698 5.86548Q20.477 5.86548 21.0275 5.31647Q21.5781 4.76746 21.5781 3.96896Q21.5781 3.18695 21.0275 2.63451Q20.477 2.08206 19.698 2.08206Q18.8995 2.08206 18.3441 2.63451Q17.7887 3.18695 17.7887 3.96896Q17.7887 4.76746 18.3441 5.31647Q18.8995 5.86548 19.698 5.86548Z"
                     fill="rgba(255,255,255,0.55)" />
              <path d="M9.08981 15.085Q8.23578 15.085 7.71416 14.624Q7.19254 14.1631 6.9545 13.4136Q6.71646 12.6642 6.71646 11.8138Q6.71646 10.9418 6.96426 10.2036Q7.21207 9.46548 7.73369 9.02367Q8.25531 8.58185 9.07272 8.58185Q10.0409 8.58185 10.5804 9.18663Q11.1198 9.79141 11.1824 10.5811Q11.1916 10.8212 11.0662 10.9566Q10.9409 11.0921 10.7489 11.0921Q10.4016 11.0921 10.2989 10.6622Q10.1965 10.1602 9.92249 9.78767Q9.64844 9.41513 9.0831 9.41513Q8.54095 9.41513 8.22144 9.7628Q7.90192 10.1105 7.76138 10.6599Q7.62085 11.2094 7.62085 11.8138Q7.62085 12.4294 7.7565 12.9887Q7.89215 13.548 8.21167 13.8998Q8.53119 14.2517 9.08981 14.2517Q9.65515 14.2517 9.93752 13.8757Q10.2199 13.4998 10.3192 12.9979Q10.4219 12.5681 10.7692 12.5681Q10.9612 12.5681 11.0864 12.7068Q11.2117 12.8456 11.2027 13.0791Q11.1371 13.8687 10.5991 14.4769Q10.061 15.085 9.08981 15.085ZM13.9999 15.085Q12.9086 15.085 12.2683 14.2037Q11.628 13.3224 11.628 11.8304Q11.628 10.3346 12.2668 9.45824Q12.9056 8.58185 13.9909 8.58185Q15.0755 8.58185 15.7143 9.45824Q16.3531 10.3346 16.3531 11.8304Q16.3531 13.3224 15.7178 14.2037Q15.0824 15.085 13.9999 15.085ZM13.9999 14.2517Q14.6684 14.2517 15.0541 13.607Q15.4398 12.9623 15.4398 11.8304Q15.4398 10.6976 15.051 10.0564Q14.6623 9.41513 13.9909 9.41513Q13.3195 9.41513 12.929 10.0564Q12.5385 10.6976 12.5385 11.8304Q12.5385 12.9623 12.9321 13.607Q13.3257 14.2517 13.9999 14.2517Z"
                     fill="#ffffff" />
       </g>
</svg>