<svg width="19.5898" height="19.5996">
       <g>
              <rect height="19.5996" opacity="0" width="19.5898" x="0" y="0" />
              <path d="M9.79492 19.5996Q11.8066 19.5996 13.5791 18.833Q15.3516 18.0664 16.7041 16.7139Q18.0566 15.3613 18.8232 13.5889Q19.5898 11.8164 19.5898 9.80469Q19.5898 7.79297 18.8232 6.02051Q18.0566 4.24805 16.7041 2.89551Q15.3516 1.54297 13.5742 0.776367Q11.7969 0.00976562 9.78516 0.00976562Q7.77344 0.00976562 6.00098 0.776367Q4.22852 1.54297 2.88086 2.89551Q1.5332 4.24805 0.766602 6.02051Q0 7.79297 0 9.80469Q0 11.8164 0.766602 13.5889Q1.5332 15.3613 2.88574 16.7139Q4.23828 18.0664 6.01074 18.833Q7.7832 19.5996 9.79492 19.5996Z"
                     fill="rgba(255,255,255,0.55)" />
              <path d="M7.92969 13.1738Q7.29492 13.1738 6.96289 12.8906Q6.63086 12.6074 6.54297 12.0801L5.70312 6.2207L3.97461 6.2207Q3.78906 6.2207 3.67188 6.09375Q3.55469 5.9668 3.55469 5.78125Q3.55469 5.58594 3.67188 5.46387Q3.78906 5.3418 3.97461 5.3418L5.82031 5.3418Q6.10352 5.3418 6.29883 5.50781Q6.49414 5.67383 6.5332 5.9375L6.63086 6.73828L15 6.73828Q15.1953 6.73828 15.2979 6.83594Q15.4004 6.93359 15.4004 7.10938Q15.4004 7.12891 15.3955 7.18262Q15.3906 7.23633 15.3809 7.27539L14.9512 10.127Q14.8828 10.6445 14.6143 10.9326Q14.3457 11.2207 13.8086 11.2207L7.30469 11.2207L7.37305 11.8066Q7.41211 12.0605 7.55859 12.1875Q7.70508 12.3145 7.96875 12.3145L13.6816 12.3145Q13.877 12.3145 13.9893 12.4268Q14.1016 12.5391 14.1016 12.7344Q14.1016 12.9297 13.9893 13.0518Q13.877 13.1738 13.6816 13.1738ZM8.26172 15.625Q7.89062 15.625 7.64648 15.376Q7.40234 15.127 7.40234 14.7656Q7.40234 14.4043 7.64648 14.1553Q7.89062 13.9062 8.26172 13.9062Q8.61328 13.9062 8.86719 14.1553Q9.12109 14.4043 9.12109 14.7656Q9.12109 15.127 8.86719 15.376Q8.61328 15.625 8.26172 15.625ZM12.8418 15.625Q12.4805 15.625 12.2266 15.376Q11.9727 15.127 11.9727 14.7656Q11.9727 14.4043 12.2266 14.1553Q12.4805 13.9062 12.8418 13.9062Q13.2031 13.9062 13.4521 14.1553Q13.7012 14.4043 13.7012 14.7656Q13.7012 15.127 13.4521 15.376Q13.2031 15.625 12.8418 15.625Z"
                     fill="#ffffff" />
       </g>
</svg>