<svg width="25.5272" height="16.4786">
       <g>
              <rect height="16.4786" opacity="0" width="25.5272" x="0" y="0" />
              <path d="M0.922394 16.4688L3.00049 16.4688Q3.41705 16.4688 3.67149 16.2122Q3.92593 15.9555 3.92593 15.5345L3.92593 11.2436Q3.92593 10.8226 3.67149 10.5693Q3.41705 10.316 3.00049 10.316L0.922394 10.316Q0.508881 10.316 0.25444 10.5693Q0 10.8226 0 11.2436L0 15.5345Q0 15.9555 0.25444 16.2122Q0.508881 16.4688 0.922394 16.4688Z"
                     fill="rgba(255,255,255,0.55)" />
              <path d="M8.12485 16.4688L10.2029 16.4688Q10.6165 16.4688 10.8709 16.2122Q11.1253 15.9555 11.1253 15.5345L11.1253 8.23303Q11.1253 7.81204 10.8709 7.55539Q10.6165 7.29874 10.2029 7.29874L8.12485 7.29874Q7.70828 7.29874 7.45537 7.55539Q7.20245 7.81204 7.20245 8.23303L7.20245 15.5345Q7.20245 15.9555 7.45537 16.2122Q7.70828 16.4688 8.12485 16.4688Z"
                     fill="rgba(255,255,255,0.55)" />
              <path d="M15.3242 16.4688L17.4054 16.4688Q17.8189 16.4688 18.0733 16.2122Q18.3278 15.9555 18.3278 15.5345L18.3278 4.74335Q18.3278 4.32236 18.0733 4.0657Q17.8189 3.80905 17.4054 3.80905L15.3242 3.80905Q14.9107 3.80905 14.6563 4.0657Q14.4019 4.32236 14.4019 4.74335L14.4019 15.5345Q14.4019 15.9555 14.6563 16.2122Q14.9107 16.4688 15.3242 16.4688Z"
                     fill="rgba(255,255,255,0.55)" />
              <path d="M22.52 16.4688L24.6115 16.4688Q25.0252 16.4688 25.2762 16.2122Q25.5272 15.9555 25.5272 15.5345L25.5272 0.934296Q25.5272 0.513306 25.2762 0.256653Q25.0252 0 24.6115 0L22.52 0Q22.1034 0 21.8505 0.256653Q21.5976 0.513306 21.5976 0.934296L21.5976 15.5345Q21.5976 15.9555 21.8505 16.2122Q22.1034 16.4688 22.52 16.4688Z"
                     fill="rgba(255,255,255,0.165)" />
       </g>
</svg>