<svg width="20.8327" height="18.1073">
       <g>
              <rect height="18.1073" opacity="0" width="20.8327" x="0" y="0" />
              <path d="M14.5486 5.3244L14.5486 11.5993Q14.5486 11.7957 14.6535 11.8987Q14.7585 12.0018 14.92 12.007Q15.0815 12.0122 15.2547 11.9058L20.1189 8.85727Q20.2815 8.75458 20.3314 8.60497Q20.3813 8.45535 20.3247 8.30582Q20.2681 8.15628 20.1122 8.0603L15.2449 5.01175Q15.0717 4.91501 14.9117 4.9218Q14.7517 4.92859 14.6502 5.03014Q14.5486 5.13168 14.5486 5.3244ZM0.34317 9.09851L15.5399 9.09851L15.5399 7.82516L0.34317 7.82516Z"
                     fill="rgba(255,255,255,0.55)" />
              <path d="M0 17.4509Q0 17.7539 0.18158 17.9306Q0.363159 18.1073 0.663147 18.1073L20.2263 18.1073Q20.4698 18.1073 20.6512 17.9402Q20.8327 17.7731 20.8327 17.5137Q20.8327 17.258 20.6512 17.0876Q20.4698 16.9171 20.2263 16.9171L1.43997 16.9171Q1.20895 16.9171 1.20895 16.6861L1.20895 0.680542Q1.20895 0.443726 1.03699 0.259247Q0.865021 0.0747681 0.612335 0.0747681Q0.346985 0.0747681 0.173492 0.259247Q0 0.443726 0 0.680542Z"
                     fill="rgba(255,255,255,0.55)" />
       </g>
</svg>