<svg width="19.5898" height="19.5996">
       <g>
              <rect height="19.5996" opacity="0" width="19.5898" x="0" y="0" />
              <path d="M9.79492 19.5996Q11.8066 19.5996 13.5791 18.833Q15.3516 18.0664 16.7041 16.7139Q18.0566 15.3613 18.8232 13.5889Q19.5898 11.8164 19.5898 9.80469Q19.5898 7.79297 18.8232 6.02051Q18.0566 4.24805 16.7041 2.89551Q15.3516 1.54297 13.5742 0.776367Q11.7969 0.00976562 9.78516 0.00976562Q7.77344 0.00976562 6.00098 0.776367Q4.22852 1.54297 2.88086 2.89551Q1.5332 4.24805 0.766602 6.02051Q0 7.79297 0 9.80469Q0 11.8164 0.766602 13.5889Q1.5332 15.3613 2.88574 16.7139Q4.23828 18.0664 6.01074 18.833Q7.7832 19.5996 9.79492 19.5996Z"
                     fill="rgba(255,255,255,0.55)" />
              <path d="M5.20508 14.375Q4.90234 14.375 4.7168 14.1895Q4.53125 14.0039 4.53125 13.6914L4.53125 5.47852Q4.53125 5.29297 4.66309 5.16113Q4.79492 5.0293 4.98047 5.0293Q5.17578 5.0293 5.30762 5.16113Q5.43945 5.29297 5.43945 5.47852L5.43945 8.82812L12.1484 8.82812L12.1484 7.69531Q12.1484 7.48047 12.3291 7.40234Q12.5098 7.32422 12.7148 7.44141L15.166 8.97461Q15.3516 9.08203 15.3516 9.28711Q15.3516 9.49219 15.1562 9.59961L12.7246 11.1328Q12.5195 11.2598 12.334 11.1719Q12.1484 11.084 12.1484 10.8691L12.1484 9.74609L5.43945 9.74609L5.43945 13.3496Q5.43945 13.4766 5.55664 13.4766L14.834 13.4766Q15.0195 13.4766 15.1514 13.6084Q15.2832 13.7402 15.2832 13.9258Q15.2832 14.1211 15.1465 14.248Q15.0098 14.375 14.834 14.375Z"
                     fill="#ffffff" />
       </g>
</svg>