<svg width="20.8325" height="18.1073">
       <g>
              <rect height="18.1073" opacity="0" width="20.8325" x="0" y="0" />
              <path d="M1.073 12.0842L5.22873 7.91687Q5.43137 7.71042 5.62256 7.71042Q5.8139 7.71042 6.01654 7.91687L9.81003 11.7256Q10.0983 12.0274 10.397 12.167Q10.6958 12.3065 11.0043 12.3065Q11.6206 12.3065 12.2083 11.7256L16.5076 7.39471L18.2634 9.15436Q18.3998 9.29092 18.5494 9.2939Q18.699 9.29688 18.8204 9.19014Q18.9418 9.0834 18.992 8.88702L20.289 3.28232Q20.3355 3.10013 20.264 2.95731Q20.1924 2.81448 20.0462 2.7478Q19.8999 2.68112 19.7275 2.72461L14.1296 4.01474Q13.9302 4.06799 13.8235 4.18945Q13.7167 4.31091 13.7197 4.45892Q13.7227 4.60693 13.8622 4.7464L15.6006 6.49094L11.4049 10.7446Q11.1986 10.954 11.0043 10.954Q10.8199 10.954 10.6104 10.7446L6.81992 6.93893Q6.52481 6.63406 6.22795 6.49452Q5.93109 6.35498 5.62256 6.35498Q5.31418 6.35498 5.02068 6.49269Q4.72717 6.6304 4.42535 6.93893L0.172119 11.1871Z"
                     fill="rgba(255,255,255,0.55)" />
              <path d="M0 17.4509Q0 17.7539 0.181503 17.9306Q0.363007 18.1073 0.663147 18.1073L20.2263 18.1073Q20.4698 18.1073 20.6512 17.9402Q20.8325 17.7731 20.8325 17.5137Q20.8325 17.258 20.6512 17.0876Q20.4698 16.9171 20.2263 16.9171L1.43997 16.9171Q1.20895 16.9171 1.20895 16.6861L1.20895 0.680542Q1.20895 0.443726 1.03699 0.259247Q0.865021 0.0747681 0.612335 0.0747681Q0.346985 0.0747681 0.173492 0.259247Q0 0.443726 0 0.680542Z"
                     fill="rgba(255,255,255,0.55)" />
       </g>
</svg>