<svg width="24.0627" height="18.3054">
       <g>
              <rect height="18.3054" opacity="0" width="24.0627" x="0" y="0" />
              <path d="M1.87073 18.1891L4.81049 18.1891Q5.74448 18.1891 6.21628 17.7345Q6.68808 17.2798 6.68808 16.3713L6.68808 7.46658Q6.68808 6.55792 6.21628 6.09993Q5.74448 5.64194 4.81049 5.64194L1.87073 5.64194Q0.943604 5.64194 0.471802 6.09993Q0 6.55792 0 7.46658L0 16.3713Q0 17.2798 0.471802 17.7345Q0.943604 18.1891 1.87073 18.1891Z"
                     fill="rgba(255,255,255,0.55)" />
              <path d="M10.5562 18.1891L13.5028 18.1891Q14.4299 18.1891 14.9017 17.7345Q15.3735 17.2798 15.3735 16.3713L15.3735 4.65805Q15.3735 3.74939 14.9017 3.2914Q14.4299 2.8334 13.5028 2.8334L10.5562 2.8334Q9.62601 2.8334 9.15573 3.2914Q8.68546 3.74939 8.68546 4.65805L8.68546 16.3713Q8.68546 17.2798 9.15573 17.7345Q9.62601 18.1891 10.5562 18.1891Z"
                     fill="rgba(255,255,255,0.55)" />
              <path d="M19.2387 18.1891L22.1852 18.1891Q23.1221 18.1891 23.5924 17.7345Q24.0627 17.2798 24.0627 16.3713L24.0627 1.82159Q24.0627 0.913086 23.5924 0.456543Q23.1221 0 22.1852 0L19.2387 0Q18.3183 0 17.8465 0.456543Q17.3746 0.913086 17.3746 1.82159L17.3746 16.3713Q17.3746 17.2798 17.8465 17.7345Q18.3183 18.1891 19.2387 18.1891Z"
                     fill="rgba(255,255,255,0.55)" />
       </g>
</svg>