<svg width="20.8325" height="18.1073">
       <g>
              <rect height="18.1073" opacity="0" width="20.8325" x="0" y="0" />
              <path d="M1.073 3.39737L0.172119 4.29138L4.42535 8.54279Q4.72717 8.84445 5.02068 8.98407Q5.31418 9.12369 5.62256 9.12369Q5.93109 9.12369 6.22795 8.98407Q6.52481 8.84445 6.81992 8.54279L10.6104 4.73389Q10.8199 4.52759 11.0043 4.52759Q11.1986 4.52759 11.4049 4.73389L15.6006 8.98758L13.8622 10.7352Q13.7227 10.8716 13.7197 11.0212Q13.7167 11.1708 13.8235 11.2888Q13.9302 11.4069 14.1296 11.4571L19.7275 12.7541Q19.8999 12.8006 20.0462 12.7323Q20.1924 12.664 20.264 12.5212Q20.3355 12.3784 20.289 12.1962L18.992 6.5947Q18.9418 6.39526 18.8204 6.28845Q18.699 6.18164 18.5494 6.18469Q18.3998 6.18774 18.2634 6.32416L16.5076 8.0838L12.2083 3.75595Q11.6206 3.172 11.0043 3.172Q10.6958 3.172 10.397 3.31314Q10.0983 3.45428 9.81003 3.75595L6.01654 7.5618Q5.8139 7.77115 5.62256 7.77115Q5.43137 7.77115 5.22873 7.5618Z"
                     fill="rgba(255,255,255,0.55)" />
              <path d="M0 17.4509Q0 17.7539 0.181503 17.9306Q0.363007 18.1073 0.663147 18.1073L20.2263 18.1073Q20.4698 18.1073 20.6512 17.9402Q20.8325 17.7731 20.8325 17.5137Q20.8325 17.258 20.6512 17.0876Q20.4698 16.9171 20.2263 16.9171L1.43997 16.9171Q1.20895 16.9171 1.20895 16.6861L1.20895 0.680542Q1.20895 0.443726 1.03699 0.259247Q0.865021 0.0747681 0.612335 0.0747681Q0.346985 0.0747681 0.173492 0.259247Q0 0.443726 0 0.680542Z"
                     fill="rgba(255,255,255,0.55)" />
       </g>
</svg>