<svg width="21.2012" height="21.0449">
       <g>
              <rect height="21.0449" opacity="0" width="21.2012" x="0" y="0" />
              <path d="M5.46875 21.0449Q5.70312 21.0449 5.89844 20.9229Q6.09375 20.8008 6.35742 20.5566L9.89258 17.4023L17.0508 17.4023Q18.3789 17.4023 19.3018 16.9092Q20.2246 16.416 20.7129 15.4932Q21.2012 14.5703 21.2012 13.2617L21.2012 5.41016Q21.2012 4.10156 20.7129 3.17383Q20.2246 2.24609 19.3018 1.75293Q18.3789 1.25977 17.0508 1.25977L4.15039 1.25977Q2.82227 1.25977 1.89453 1.75293Q0.966797 2.24609 0.483398 3.16895Q0 4.0918 0 5.41016L0 13.2617Q0 14.5703 0.483398 15.498Q0.966797 16.4258 1.89453 16.9141Q2.82227 17.4023 4.15039 17.4023L4.76562 17.4023L4.76562 20.2344Q4.76562 20.6055 4.95117 20.8252Q5.13672 21.0449 5.46875 21.0449Z"
                     fill="rgba(255,255,255,0.55)" />
              <path d="M7.33398 13.9258Q7.06055 13.9258 6.9043 13.7744Q6.74805 13.623 6.74805 13.3887Q6.74805 13.3008 6.7627 13.208Q6.77734 13.1152 6.82617 12.9883L9.73633 5.22461Q9.9707 4.60938 10.5957 4.60938Q11.2305 4.60938 11.4648 5.22461L14.375 12.9883Q14.4238 13.1152 14.4385 13.208Q14.4531 13.3008 14.4531 13.3887Q14.4531 13.623 14.292 13.7744Q14.1309 13.9258 13.877 13.9258Q13.6621 13.9258 13.5107 13.8135Q13.3594 13.7012 13.2715 13.4277L12.4414 11.1133L8.75977 11.1133L7.93945 13.4277Q7.8418 13.7109 7.69531 13.8184Q7.54883 13.9258 7.33398 13.9258ZM9.0918 10.1367L12.1094 10.1367L10.6445 6.02539L10.5566 6.02539Z"
                     fill="#ffffff" />
       </g>
</svg>