<svg width="19.5898" height="19.5996">
       <g>
              <rect height="19.5996" opacity="0" width="19.5898" x="0" y="0" />
              <path d="M9.79492 19.5996Q11.8066 19.5996 13.5791 18.833Q15.3516 18.0664 16.7041 16.7139Q18.0566 15.3613 18.8232 13.5889Q19.5898 11.8164 19.5898 9.80469Q19.5898 7.79297 18.8232 6.02051Q18.0566 4.24805 16.7041 2.89551Q15.3516 1.54297 13.5742 0.776367Q11.7969 0.00976562 9.78516 0.00976562Q7.77344 0.00976562 6.00098 0.776367Q4.22852 1.54297 2.88086 2.89551Q1.5332 4.24805 0.766602 6.02051Q0 7.79297 0 9.80469Q0 11.8164 0.766602 13.5889Q1.5332 15.3613 2.88574 16.7139Q4.23828 18.0664 6.01074 18.833Q7.7832 19.5996 9.79492 19.5996Z"
                     fill="rgba(255,255,255,0.55)" />
              <path d="M4.42383 13.6914L4.42383 5.47852Q4.42383 5.29297 4.55566 5.16113Q4.6875 5.0293 4.88281 5.0293Q5.06836 5.0293 5.2002 5.16113Q5.33203 5.29297 5.33203 5.47852L5.33203 9.86328L6.69922 8.51562Q7.02148 8.19336 7.39258 8.19336Q7.79297 8.19336 8.0957 8.51562L10 10.4199Q10.1172 10.5371 10.2051 10.4199L12.1973 8.38867L11.4258 7.60742Q11.2598 7.46094 11.333 7.26562Q11.4062 7.07031 11.6309 7.01172L14.4434 6.36719Q14.6484 6.31836 14.7998 6.45996Q14.9512 6.60156 14.8926 6.81641L14.2383 9.62891Q14.1895 9.86328 13.9941 9.92676Q13.7988 9.99023 13.6426 9.82422L12.8516 9.0332L10.8008 11.1133Q10.4883 11.4355 10.0977 11.4355Q9.7168 11.4355 9.38477 11.1133L7.50977 9.22852Q7.40234 9.11133 7.28516 9.22852L5.33203 11.1621L5.33203 13.3691Q5.33203 13.4766 5.43945 13.4766L14.7266 13.4766Q14.9121 13.4766 15.0439 13.6084Q15.1758 13.7402 15.1758 13.9258Q15.1758 14.1211 15.0439 14.248Q14.9121 14.375 14.7266 14.375L5.10742 14.375Q4.79492 14.375 4.60938 14.1895Q4.42383 14.0039 4.42383 13.6914Z"
                     fill="#ffffff" />
       </g>
</svg>