<svg width="20.8327" height="18.1073">
       <g>
              <rect height="18.1073" opacity="0" width="20.8327" x="0" y="0" />
              <path d="M0.740814 11.2888L7.13821 7.58636L11.705 11.6026L19.6544 6.70242L19.133 5.90607L11.7741 10.4597L7.22672 6.46301L0.740814 10.2052ZM7.05063 8.83514Q7.48367 8.83514 7.84134 8.6219Q8.19901 8.40866 8.41072 8.05252Q8.62244 7.69638 8.62244 7.26334Q8.62244 6.83014 8.41072 6.47247Q8.19901 6.11481 7.84134 5.90652Q7.48367 5.69824 7.05063 5.69824Q6.62048 5.69824 6.26282 5.90652Q5.90515 6.11481 5.69199 6.47247Q5.47882 6.83014 5.47882 7.26334Q5.47882 7.69638 5.69199 8.05252Q5.90515 8.40866 6.26282 8.6219Q6.62048 8.83514 7.05063 8.83514ZM11.6872 12.5644Q12.1204 12.5644 12.478 12.3528Q12.8357 12.1411 13.044 11.7834Q13.2523 11.4258 13.2523 10.9926Q13.2523 10.5595 13.044 10.2019Q12.8357 9.84421 12.478 9.63593Q12.1204 9.42764 11.6872 9.42764Q11.2541 9.42764 10.8965 9.63593Q10.5388 9.84421 10.3271 10.2019Q10.1154 10.5595 10.1154 10.9926Q10.1154 11.4258 10.3271 11.7834Q10.5388 12.1411 10.8965 12.3528Q11.2541 12.5644 11.6872 12.5644ZM19.0172 7.98782Q19.4502 7.98782 19.8079 7.77466Q20.1656 7.56149 20.3773 7.20535Q20.589 6.84921 20.589 6.41602Q20.589 5.98297 20.3773 5.62531Q20.1656 5.26764 19.8079 5.05592Q19.4502 4.84421 19.0172 4.84421Q18.5841 4.84421 18.2279 5.05592Q17.8717 5.26764 17.6585 5.62531Q17.4454 5.98297 17.4454 6.41602Q17.4454 6.84921 17.6585 7.20535Q17.8717 7.56149 18.2279 7.77466Q18.5841 7.98782 19.0172 7.98782Z"
                     fill="rgba(255,255,255,0.55)" />
              <path d="M0 17.4509Q0 17.7539 0.18158 17.9306Q0.363159 18.1073 0.663147 18.1073L20.2263 18.1073Q20.4698 18.1073 20.6512 17.9402Q20.8327 17.7731 20.8327 17.5137Q20.8327 17.258 20.6512 17.0876Q20.4698 16.9171 20.2263 16.9171L1.43997 16.9171Q1.20895 16.9171 1.20895 16.6861L1.20895 0.680542Q1.20895 0.443726 1.03699 0.259247Q0.865021 0.0747681 0.612335 0.0747681Q0.346985 0.0747681 0.173492 0.259247Q0 0.443726 0 0.680542Z"
                     fill="rgba(255,255,255,0.55)" />
       </g>
</svg>