<svg width="20.4286" height="18.1073">
       <g>
              <rect height="18.1073" opacity="0" width="20.4286" x="0" y="0" />
              <path d="M0 17.5137Q0 17.7731 0.181427 17.9402Q0.362854 18.1073 0.59967 18.1073L19.8222 18.1073Q20.0658 18.1073 20.2472 17.9402Q20.4286 17.7731 20.4286 17.5137Q20.4286 17.258 20.2472 17.0876Q20.0658 16.9171 19.8222 16.9171L0.59967 16.9171Q0.362854 16.9171 0.181427 17.0876Q0 17.258 0 17.5137Z"
                     fill="rgba(255,255,255,0.55)" />
              <path d="M0.593567 14.8268Q0.593567 15.1865 0.812454 15.3938Q1.03134 15.601 1.41357 15.601L3.74222 15.601Q4.11179 15.601 4.33517 15.3938Q4.55856 15.1865 4.55856 14.8268L4.55856 6.19354Q4.55856 5.83389 4.33517 5.62325Q4.11179 5.4126 3.74222 5.4126L1.41357 5.4126Q1.03134 5.4126 0.812454 5.62325Q0.593567 5.83389 0.593567 6.19354Z"
                     fill="rgba(255,255,255,0.55)" />
              <path d="M5.67688 14.8268Q5.67688 15.1865 5.89729 15.3938Q6.11771 15.601 6.49704 15.601L8.82568 15.601Q9.19815 15.601 9.42345 15.3938Q9.64874 15.1865 9.64874 14.8268L9.64874 1.81976Q9.64874 1.46011 9.42345 1.25435Q9.19815 1.04858 8.82568 1.04858L6.49704 1.04858Q6.11771 1.04858 5.89729 1.25435Q5.67688 1.46011 5.67688 1.81976Z"
                     fill="rgba(255,255,255,0.55)" />
              <path d="M10.7701 14.8268Q10.7701 15.1865 10.9921 15.3938Q11.214 15.601 11.5804 15.601L13.9218 15.601Q14.2943 15.601 14.5147 15.3938Q14.7351 15.1865 14.7351 14.8268L14.7351 4.00482Q14.7351 3.63846 14.5147 3.43269Q14.2943 3.22693 13.9218 3.22693L11.5804 3.22693Q11.214 3.22693 10.9921 3.43269Q10.7701 3.63846 10.7701 4.00482Z"
                     fill="rgba(255,255,255,0.55)" />
              <path d="M15.8595 14.8268Q15.8595 15.1865 16.0784 15.3938Q16.2973 15.601 16.6795 15.601L19.0083 15.601Q19.3777 15.601 19.6046 15.3938Q19.8314 15.1865 19.8314 14.8268L19.8314 8.30795Q19.8314 7.9483 19.6046 7.73918Q19.3777 7.53006 19.0083 7.53006L16.6795 7.53006Q16.2973 7.53006 16.0784 7.73918Q15.8595 7.9483 15.8595 8.30795Z"
                     fill="rgba(255,255,255,0.165)" />
       </g>
</svg>