<svg width="19.5898" height="19.5996">
       <g>
              <rect height="19.5996" opacity="0" width="19.5898" x="0" y="0" />
              <path d="M9.79492 19.5996Q11.8066 19.5996 13.5791 18.833Q15.3516 18.0664 16.7041 16.7139Q18.0566 15.3613 18.8232 13.5889Q19.5898 11.8164 19.5898 9.80469Q19.5898 7.79297 18.8232 6.02051Q18.0566 4.24805 16.7041 2.89551Q15.3516 1.54297 13.5742 0.776367Q11.7969 0.00976562 9.78516 0.00976562Q7.77344 0.00976562 6.00098 0.776367Q4.22852 1.54297 2.88086 2.89551Q1.5332 4.24805 0.766602 6.02051Q0 7.79297 0 9.80469Q0 11.8164 0.766602 13.5889Q1.5332 15.3613 2.88574 16.7139Q4.23828 18.0664 6.01074 18.833Q7.7832 19.5996 9.79492 19.5996Z"
                     fill="rgba(255,255,255,0.55)" />
              <path d="M4.54102 13.6914L4.54102 5.47852Q4.54102 5.29297 4.67285 5.16113Q4.80469 5.0293 5 5.0293Q5.18555 5.0293 5.31738 5.16113Q5.44922 5.29297 5.44922 5.47852L5.44922 6.89453L7.40234 8.83789Q7.51953 8.95508 7.62695 8.83789L9.50195 6.95312Q9.83398 6.62109 10.2148 6.62109Q10.6055 6.62109 10.918 6.95312L12.9688 9.0332L13.7598 8.23242Q13.916 8.07617 14.1113 8.14453Q14.3066 8.21289 14.3555 8.44727L15.0098 11.2598Q15.0684 11.4551 14.917 11.6016Q14.7656 11.748 14.5605 11.6992L11.748 11.0547Q11.5234 10.9863 11.4502 10.7959Q11.377 10.6055 11.543 10.459L12.3145 9.67773L10.3223 7.64648Q10.2246 7.53906 10.1074 7.64648L8.21289 9.55078Q7.91016 9.87305 7.50977 9.87305Q7.13867 9.87305 6.81641 9.55078L5.44922 8.19336L5.44922 13.3691Q5.44922 13.4766 5.55664 13.4766L14.8438 13.4766Q15.0293 13.4766 15.1611 13.6084Q15.293 13.7402 15.293 13.9258Q15.293 14.1211 15.1611 14.248Q15.0293 14.375 14.8438 14.375L5.22461 14.375Q4.91211 14.375 4.72656 14.1895Q4.54102 14.0039 4.54102 13.6914Z"
                     fill="#ffffff" />
       </g>
</svg>