<svg width="24.2453" height="18.3054">
       <g>
              <rect height="18.3054" opacity="0" width="24.2453" x="0" y="0" />
              <path d="M2.05032 18.2736L4.81049 18.2736Q5.82901 18.2736 6.34834 17.7767Q6.86768 17.2798 6.86768 16.2866L6.86768 7.6326Q6.86768 6.64246 6.34834 6.1422Q5.82901 5.64194 4.81049 5.64194L2.05032 5.64194Q1.03195 5.64194 0.515976 6.1422Q0 6.64246 0 7.6326L0 16.2866Q0 17.2798 0.515976 17.7767Q1.03195 18.2736 2.05032 18.2736ZM2.21954 17.1291Q1.66901 17.1291 1.43227 16.8896Q1.19553 16.6502 1.19553 16.1003L1.19553 7.81906Q1.19553 7.26532 1.43227 7.02591Q1.66901 6.7865 2.21954 6.7865L4.64142 6.7865Q5.19867 6.7865 5.43541 7.02591Q5.67215 7.26532 5.67215 7.81906L5.67215 16.1003Q5.67215 16.6502 5.43541 16.8896Q5.19867 17.1291 4.64142 17.1291Z"
                     fill="rgba(255,255,255,0.55)" />
              <path d="M10.7358 18.2736L13.5028 18.2736Q14.5212 18.2736 15.0372 17.7767Q15.5531 17.2798 15.5531 16.2866L15.5531 4.82422Q15.5531 3.83408 15.0372 3.33374Q14.5212 2.8334 13.5028 2.8334L10.7358 2.8334Q9.71741 2.8334 9.20143 3.33374Q8.68546 3.83408 8.68546 4.82422L8.68546 16.2866Q8.68546 17.2798 9.20143 17.7767Q9.71741 18.2736 10.7358 18.2736ZM10.9087 17.1291Q10.3545 17.1291 10.1177 16.8896Q9.88098 16.6502 9.88098 16.1003L9.88098 5.01358Q9.88098 4.46365 10.1177 4.22089Q10.3545 3.97812 10.9087 3.97812L13.3336 3.97812Q13.8812 3.97812 14.1194 4.22089Q14.3576 4.46365 14.3576 5.01358L14.3576 16.1003Q14.3576 16.6502 14.1194 16.8896Q13.8812 17.1291 13.3336 17.1291Z"
                     fill="rgba(255,255,255,0.55)" />
              <path d="M19.4212 18.2736L22.1852 18.2736Q23.2036 18.2736 23.7244 17.7767Q24.2453 17.2798 24.2453 16.2866L24.2453 1.99081Q24.2453 0.99762 23.7244 0.49881Q23.2036 0 22.1852 0L19.4212 0Q18.4096 0 17.8921 0.49881Q17.3746 0.99762 17.3746 1.99081L17.3746 16.2866Q17.3746 17.2798 17.8921 17.7767Q18.4096 18.2736 19.4212 18.2736ZM19.5941 17.1291Q19.0466 17.1291 18.8084 16.8896Q18.5701 16.6502 18.5701 16.1003L18.5701 2.17712Q18.5701 1.62048 18.8084 1.38107Q19.0466 1.14166 19.5941 1.14166L22.019 1.14166Q22.5734 1.14166 22.8116 1.38107Q23.0498 1.62048 23.0498 2.17712L23.0498 16.1003Q23.0498 16.6502 22.8116 16.8896Q22.5734 17.1291 22.019 17.1291Z"
                     fill="rgba(255,255,255,0.55)" />
       </g>
</svg>