<svg width="17.6855" height="17.7051">
       <g>
              <rect height="17.7051" opacity="0" width="17.6855" x="0" y="0" />
              <path d="M2.88086 17.7051L14.8047 17.7051Q16.2305 17.7051 16.958 16.9873Q17.6855 16.2695 17.6855 14.8535L17.6855 2.88086Q17.6855 1.46484 16.958 0.742188Q16.2305 0.0195312 14.8047 0.0195312L2.88086 0.0195312Q1.44531 0.0195312 0.722656 0.737305Q0 1.45508 0 2.88086L0 14.8535Q0 16.2695 0.722656 16.9873Q1.44531 17.7051 2.88086 17.7051ZM2.90039 16.4941Q2.07031 16.4941 1.64062 16.0645Q1.21094 15.6348 1.21094 14.7949L1.21094 2.93945Q1.21094 2.08984 1.64062 1.66016Q2.07031 1.23047 2.90039 1.23047L14.7852 1.23047Q15.5859 1.23047 16.0303 1.66016Q16.4746 2.08984 16.4746 2.93945L16.4746 14.7949Q16.4746 15.6348 16.0303 16.0645Q15.5859 16.4941 14.7852 16.4941Z"
                     fill="#0a84ff" />
              <path d="M7.79297 13.4766Q8.16406 13.4766 8.4082 13.1348L13.1445 5.71289Q13.2129 5.61523 13.2666 5.49316Q13.3203 5.37109 13.3203 5.24414Q13.3203 5 13.1299 4.84375Q12.9395 4.6875 12.7051 4.6875Q12.4023 4.6875 12.1777 5.01953L7.76367 12.002L5.51758 9.22852Q5.38086 9.05273 5.24902 8.99414Q5.11719 8.93555 4.96094 8.93555Q4.7168 8.93555 4.5459 9.10645Q4.375 9.27734 4.375 9.53125Q4.375 9.75586 4.55078 10.0098L7.16797 13.1348Q7.30469 13.3105 7.45605 13.3936Q7.60742 13.4766 7.79297 13.4766Z"
                     fill="#0a84ff" />
       </g>
</svg>