<svg width="21.7432" height="21.7579">
       <g>
              <rect height="21.7579" opacity="0" width="21.7432" x="0" y="0" />
              <path d="M1.02053 12.9053L8.85256 20.7276Q9.85842 21.7432 10.8789 21.7481Q11.8994 21.753 12.9053 20.7471L20.7471 12.8955Q21.7432 11.8994 21.7432 10.874Q21.7432 9.84866 20.7373 8.83303L12.9248 1.02053Q11.8994 0.00490618 10.8838 2.33627e-05Q9.86819-0.00485945 8.86233 1.01077L1.001 8.85256Q-0.00485922 9.86819 2.35885e-05 10.8789Q0.0049064 11.8897 1.02053 12.9053Z"
                     fill="#0a84ff" />
              <path d="M9.79983 15.5908Q9.60452 15.5908 9.44827 15.5127Q9.29202 15.4346 9.14553 15.2393L6.48928 12.0557Q6.40139 11.9385 6.35256 11.8164Q6.30373 11.6944 6.30373 11.5674Q6.30373 11.3037 6.47952 11.1231Q6.6553 10.9424 6.89944 10.9424Q7.07522 10.9424 7.20705 11.0108Q7.33889 11.0791 7.47561 11.2549L9.77053 14.0772L14.253 6.9678Q14.4776 6.626 14.7998 6.626Q15.0342 6.626 15.2295 6.78225Q15.4248 6.9385 15.4248 7.20217Q15.4248 7.31936 15.3711 7.44631Q15.3174 7.57327 15.249 7.68069L10.4248 15.2393Q10.2979 15.4151 10.1465 15.503Q9.99514 15.5908 9.79983 15.5908Z"
                     fill="#ffffff" />
       </g>
</svg>