<svg width="21.2012" height="21.0449">
       <g>
              <rect height="21.0449" opacity="0" width="21.2012" x="0" y="0" />
              <path d="M5.46875 21.0449Q5.70312 21.0449 5.89844 20.9229Q6.09375 20.8008 6.35742 20.5566L9.89258 17.4023L17.0508 17.4023Q18.3789 17.4023 19.3018 16.9092Q20.2246 16.416 20.7129 15.4932Q21.2012 14.5703 21.2012 13.2617L21.2012 5.41016Q21.2012 4.10156 20.7129 3.17383Q20.2246 2.24609 19.3018 1.75293Q18.3789 1.25977 17.0508 1.25977L4.15039 1.25977Q2.82227 1.25977 1.89453 1.75293Q0.966797 2.24609 0.483398 3.16895Q0 4.0918 0 5.41016L0 13.2617Q0 14.5703 0.483398 15.498Q0.966797 16.4258 1.89453 16.9141Q2.82227 17.4023 4.15039 17.4023L4.76562 17.4023L4.76562 20.2344Q4.76562 20.6055 4.95117 20.8252Q5.13672 21.0449 5.46875 21.0449Z"
                     fill="rgba(255,255,255,0.55)" />
              <path d="M9.54102 14.0527Q9.3457 14.0527 9.18945 13.9746Q9.0332 13.8965 8.88672 13.7012L6.23047 10.5176Q6.14258 10.4004 6.09375 10.2783Q6.04492 10.1562 6.04492 10.0293Q6.04492 9.76562 6.2207 9.58496Q6.39648 9.4043 6.64062 9.4043Q6.81641 9.4043 6.94824 9.47266Q7.08008 9.54102 7.2168 9.7168L9.51172 12.5391L13.9941 5.42969Q14.2188 5.08789 14.541 5.08789Q14.7754 5.08789 14.9707 5.24414Q15.166 5.40039 15.166 5.66406Q15.166 5.78125 15.1123 5.9082Q15.0586 6.03516 14.9902 6.14258L10.166 13.7012Q10.0391 13.877 9.8877 13.9648Q9.73633 14.0527 9.54102 14.0527Z"
                     fill="#ffffff" />
       </g>
</svg>