<svg width="22.8711" height="17.6855">
       <g>
              <rect height="17.6855" opacity="0" width="22.8711" x="0" y="0" />
              <path d="M2.88086 17.6855L19.9902 17.6855Q21.4258 17.6855 22.1484 16.9629Q22.8711 16.2402 22.8711 14.834L22.8711 2.85156Q22.8711 1.44531 22.1484 0.722656Q21.4258 0 19.9902 0L2.88086 0Q1.44531 0 0.722656 0.717773Q0 1.43555 0 2.85156L0 14.834Q0 16.25 0.722656 16.9678Q1.44531 17.6855 2.88086 17.6855ZM2.90039 16.4746Q2.07031 16.4746 1.64062 16.0449Q1.21094 15.6152 1.21094 14.7656L1.21094 2.91992Q1.21094 2.07031 1.64062 1.64062Q2.07031 1.21094 2.90039 1.21094L19.9707 1.21094Q20.7715 1.21094 21.2158 1.64062Q21.6602 2.07031 21.6602 2.91992L21.6602 14.7656Q21.6602 15.6152 21.2158 16.0449Q20.7715 16.4746 19.9707 16.4746Z"
                     fill="#0a84ff" />
              <path d="M10.3809 13.4668Q10.752 13.4668 10.9961 13.125L15.7324 5.70312Q15.8008 5.60547 15.8545 5.4834Q15.9082 5.36133 15.9082 5.23438Q15.9082 4.99023 15.7178 4.83398Q15.5273 4.67773 15.293 4.67773Q14.9902 4.67773 14.7656 5.00977L10.3516 11.9922L8.10547 9.21875Q7.96875 9.04297 7.83691 8.98438Q7.70508 8.92578 7.54883 8.92578Q7.30469 8.92578 7.13379 9.09668Q6.96289 9.26758 6.96289 9.52148Q6.96289 9.74609 7.13867 10L9.75586 13.125Q9.89258 13.3008 10.0439 13.3838Q10.1953 13.4668 10.3809 13.4668Z"
                     fill="#0a84ff" />
       </g>
</svg>