<svg width="21.8213" height="21.8555">
       <g>
              <rect height="21.8555" opacity="0" width="21.8213" x="0" y="0" />
              <path d="M4.91211 19.1846L7.17773 19.1846Q7.49023 19.1846 7.70508 19.3994L9.30664 21.001Q10.1465 21.8311 10.9131 21.8311Q11.6797 21.8311 12.5 21.001L14.1113 19.3994Q14.3262 19.1846 14.6484 19.1846L16.9043 19.1846Q18.0859 19.1846 18.6279 18.6426Q19.1699 18.1006 19.1699 16.919L19.1699 14.6533Q19.1699 14.3506 19.3945 14.126L20.9863 12.5147Q21.8262 11.6944 21.8213 10.9229Q21.8164 10.1514 20.9863 9.32132L19.3945 7.71975Q19.1699 7.48538 19.1699 7.19241L19.1699 4.92679Q19.1699 3.75491 18.6279 3.20315Q18.0859 2.6514 16.9043 2.6514L14.6484 2.6514Q14.3262 2.6514 14.1113 2.43655L12.5 0.844754Q11.6797-0.00485491 10.9131 2.79018e-05Q10.1465 0.00491071 9.30664 0.844754L7.70508 2.43655Q7.49023 2.6514 7.17773 2.6514L4.91211 2.6514Q3.73047 2.6514 3.18359 3.19339Q2.63672 3.73538 2.63672 4.92679L2.63672 7.19241Q2.63672 7.48538 2.43164 7.71975L0.830078 9.32132Q0 10.1514 0 10.9229Q0 11.6944 0.830078 12.5147L2.43164 14.126Q2.63672 14.3506 2.63672 14.6533L2.63672 16.919Q2.63672 18.0908 3.18359 18.6377Q3.73047 19.1846 4.91211 19.1846Z"
                     fill="rgba(255,255,255,0.55)" />
              <path d="M9.84375 15.6397Q9.64844 15.6397 9.49219 15.5616Q9.33594 15.4834 9.18945 15.2881L6.5332 12.1045Q6.44531 11.9873 6.39648 11.8653Q6.34766 11.7432 6.34766 11.6162Q6.34766 11.3526 6.52344 11.1719Q6.69922 10.9912 6.94336 10.9912Q7.11914 10.9912 7.25098 11.0596Q7.38281 11.128 7.51953 11.3037L9.81445 14.126L14.2969 7.01663Q14.5215 6.67483 14.8438 6.67483Q15.0781 6.67483 15.2734 6.83108Q15.4688 6.98733 15.4688 7.251Q15.4688 7.36819 15.415 7.49515Q15.3613 7.6221 15.293 7.72952L10.4688 15.2881Q10.3418 15.4639 10.1904 15.5518Q10.0391 15.6397 9.84375 15.6397Z"
                     fill="#ffffff" />
       </g>
</svg>