<svg width="17.6855" height="17.7051">
       <g>
              <rect height="17.7051" opacity="0" width="17.6855" x="0" y="0" />
              <path d="M2.88086 17.7051L14.8047 17.7051Q16.2305 17.7051 16.958 16.9873Q17.6855 16.2695 17.6855 14.8535L17.6855 2.88086Q17.6855 1.46484 16.958 0.742188Q16.2305 0.0195312 14.8047 0.0195312L2.88086 0.0195312Q1.44531 0.0195312 0.722656 0.737305Q0 1.45508 0 2.88086L0 14.8535Q0 16.2695 0.722656 16.9873Q1.44531 17.7051 2.88086 17.7051Z"
                     fill="#0a84ff" />
              <path d="M7.77344 13.5645Q7.57812 13.5645 7.42188 13.4863Q7.26562 13.4082 7.11914 13.2129L4.46289 10.0293Q4.375 9.91211 4.32617 9.79004Q4.27734 9.66797 4.27734 9.54102Q4.27734 9.27734 4.45312 9.09668Q4.62891 8.91602 4.87305 8.91602Q5.04883 8.91602 5.18066 8.98438Q5.3125 9.05273 5.44922 9.22852L7.74414 12.0508L12.2266 4.94141Q12.4512 4.59961 12.7734 4.59961Q13.0078 4.59961 13.2031 4.75586Q13.3984 4.91211 13.3984 5.17578Q13.3984 5.29297 13.3447 5.41992Q13.291 5.54688 13.2227 5.6543L8.39844 13.2129Q8.27148 13.3887 8.12012 13.4766Q7.96875 13.5645 7.77344 13.5645Z"
                     fill="#ffffff" />
       </g>
</svg>