<svg width="21.7432" height="21.7579">
       <g>
              <rect height="21.7579" opacity="0" width="21.7432" x="0" y="0" />
              <path d="M1.02053 12.9053L8.85256 20.7276Q9.85842 21.7432 10.8789 21.7481Q11.8994 21.753 12.9053 20.7471L20.7471 12.8955Q21.7432 11.8994 21.7432 10.874Q21.7432 9.84866 20.7373 8.83303L12.9248 1.02053Q11.8994 0.00490618 10.8838 2.33627e-05Q9.86819-0.00485945 8.86233 1.01077L1.001 8.85256Q-0.00485922 9.86819 2.35885e-05 10.8789Q0.0049064 11.8897 1.02053 12.9053ZM1.88967 12.0752Q1.30373 11.4893 1.29885 10.874Q1.29397 10.2588 1.89944 9.67287L9.66311 1.89944Q10.2588 1.30373 10.8692 1.30373Q11.4795 1.30373 12.0752 1.88967L19.8584 9.67287Q20.4248 10.249 20.4395 10.8692Q20.4541 11.4893 19.8487 12.085L12.085 19.8487Q11.4795 20.4444 10.8643 20.4444Q10.249 20.4444 9.67288 19.8682Z"
                     fill="#0a84ff" />
              <path d="M9.80959 15.503Q10.1807 15.503 10.4248 15.1612L15.1612 7.73928Q15.2295 7.64162 15.2832 7.51955Q15.3369 7.39748 15.3369 7.27053Q15.3369 7.02639 15.1465 6.87014Q14.9561 6.71389 14.7217 6.71389Q14.419 6.71389 14.1944 7.04592L9.7803 14.0283L7.5342 11.2549Q7.39748 11.0791 7.26565 11.0205Q7.13381 10.9619 6.97756 10.9619Q6.73342 10.9619 6.56252 11.1328Q6.39163 11.3037 6.39163 11.5576Q6.39163 11.7822 6.56741 12.0362L9.18459 15.1612Q9.32131 15.3369 9.47268 15.4199Q9.62405 15.503 9.80959 15.503Z"
                     fill="#0a84ff" />
       </g>
</svg>