<svg width="16.3388" height="16.7398">
       <g>
              <rect height="16.7398" opacity="0" width="16.3388" x="0" y="0" />
              <path d="M5.98267 16.7398Q6.43509 16.7398 6.70563 16.3382L16.1581 1.56479Q16.2549 1.40823 16.2968 1.2812Q16.3388 1.15417 16.3388 1.02982Q16.3388 0.726318 16.1522 0.539703Q15.9656 0.353088 15.665 0.353088Q15.4448 0.353088 15.3062 0.43663Q15.1675 0.520172 15.0371 0.720978L5.95276 15.0346L1.34445 9.27444Q1.07468 8.91693 0.707397 8.91693Q0.400238 8.91693 0.200119 9.11369Q0 9.31046 0 9.6109Q0 9.74426 0.0517273 9.87953Q0.103455 10.0148 0.216675 10.1512L5.23041 16.3278Q5.55481 16.7398 5.98267 16.7398Z"
                     fill="#0a84ff" />
       </g>
</svg>