<svg width="19.5898" height="19.5996">
       <g>
              <rect height="19.5996" opacity="0" width="19.5898" x="0" y="0" />
              <path d="M9.79492 19.5898Q11.8066 19.5898 13.5791 18.8232Q15.3516 18.0566 16.7041 16.7041Q18.0566 15.3516 18.8232 13.5791Q19.5898 11.8066 19.5898 9.79492Q19.5898 7.7832 18.8232 6.01074Q18.0566 4.23828 16.7041 2.88574Q15.3516 1.5332 13.5742 0.766602Q11.7969 0 9.78516 0Q7.77344 0 6.00098 0.766602Q4.22852 1.5332 2.88086 2.88574Q1.5332 4.23828 0.766602 6.01074Q0 7.7832 0 9.79492Q0 11.8066 0.766602 13.5791Q1.5332 15.3516 2.88574 16.7041Q4.23828 18.0566 6.01074 18.8232Q7.7832 19.5898 9.79492 19.5898Z"
                     fill="#0a84ff" />
              <path d="M8.7207 14.5117Q8.52539 14.5117 8.36914 14.4336Q8.21289 14.3555 8.06641 14.1602L5.41016 10.9766Q5.32227 10.8594 5.27344 10.7373Q5.22461 10.6152 5.22461 10.4883Q5.22461 10.2246 5.40039 10.0439Q5.57617 9.86328 5.82031 9.86328Q5.99609 9.86328 6.12793 9.93164Q6.25977 10 6.39648 10.1758L8.69141 12.998L13.1738 5.88867Q13.3984 5.54688 13.7207 5.54688Q13.9551 5.54688 14.1504 5.70312Q14.3457 5.85938 14.3457 6.12305Q14.3457 6.24023 14.292 6.36719Q14.2383 6.49414 14.1699 6.60156L9.3457 14.1602Q9.21875 14.3359 9.06738 14.4238Q8.91602 14.5117 8.7207 14.5117Z"
                     fill="#ffffff" />
       </g>
</svg>