<svg width="16.1426" height="20.8105">
       <g>
              <rect height="20.8105" opacity="0" width="16.1426" x="0" y="0" />
              <path d="M0 17.9395Q0 19.375 0.717773 20.0928Q1.43555 20.8105 2.85156 20.8105L13.291 20.8105Q14.7168 20.8105 15.4297 20.0928Q16.1426 19.375 16.1426 17.9395L16.1426 2.88086Q16.1426 1.45508 15.4297 0.727539Q14.7168 0 13.291 0L2.85156 0Q1.43555 0 0.717773 0.727539Q0 1.45508 0 2.88086Z"
                     fill="#0a84ff" />
              <path d="M7.01172 15.1367Q6.81641 15.1367 6.66016 15.0586Q6.50391 14.9805 6.35742 14.7852L3.70117 11.6016Q3.61328 11.4844 3.56445 11.3623Q3.51562 11.2402 3.51562 11.1133Q3.51562 10.8496 3.69141 10.6689Q3.86719 10.4883 4.11133 10.4883Q4.28711 10.4883 4.41895 10.5566Q4.55078 10.625 4.6875 10.8008L6.98242 13.623L11.4648 6.51367Q11.6895 6.17188 12.0117 6.17188Q12.2461 6.17188 12.4414 6.32812Q12.6367 6.48438 12.6367 6.74805Q12.6367 6.86523 12.583 6.99219Q12.5293 7.11914 12.4609 7.22656L7.63672 14.7852Q7.50977 14.9609 7.3584 15.0488Q7.20703 15.1367 7.01172 15.1367Z"
                     fill="#ffffff" />
       </g>
</svg>