<svg width="15.6738" height="19.5996">
       <g>
              <rect height="19.5996" opacity="0" width="15.6738" x="0" y="0" />
              <path d="M7.83203 19.5996Q7.96875 19.5996 8.13965 19.5459Q8.31055 19.4922 8.47656 19.4043Q10.5273 18.2617 11.9141 17.3877Q13.3008 16.5137 14.126 15.6934Q14.9512 14.873 15.3125 13.9404Q15.6738 13.0078 15.6738 11.7578L15.6738 4.41406Q15.6738 3.63281 15.3711 3.29102Q15.0684 2.94922 14.3945 2.67578Q13.9844 2.50977 13.4033 2.29004Q12.8223 2.07031 12.1582 1.82129Q11.4941 1.57227 10.835 1.32812Q10.1758 1.08398 9.59473 0.874023Q9.01367 0.664062 8.60352 0.517578Q8.4082 0.458984 8.21777 0.419922Q8.02734 0.380859 7.83203 0.380859Q7.63672 0.380859 7.44629 0.419922Q7.25586 0.458984 7.06055 0.517578Q6.65039 0.673828 6.06934 0.883789Q5.48828 1.09375 4.8291 1.33301Q4.16992 1.57227 3.50586 1.82129Q2.8418 2.07031 2.26074 2.29492Q1.67969 2.51953 1.26953 2.67578Q0.595703 2.93945 0.297852 3.28613Q0 3.63281 0 4.41406L0 11.7578Q0 13.0078 0.371094 13.9258Q0.742188 14.8438 1.57227 15.6396Q2.40234 16.4355 3.78906 17.3193Q5.17578 18.2031 7.1875 19.4043Q7.35352 19.4922 7.52441 19.5459Q7.69531 19.5996 7.83203 19.5996Z"
                     fill="rgba(255,255,255,0.55)" />
              <path d="M6.76758 14.2969Q6.57227 14.2969 6.41602 14.2188Q6.25977 14.1406 6.11328 13.9453L3.45703 10.7617Q3.36914 10.6445 3.32031 10.5225Q3.27148 10.4004 3.27148 10.2734Q3.27148 10.0098 3.44727 9.8291Q3.62305 9.64844 3.86719 9.64844Q4.04297 9.64844 4.1748 9.7168Q4.30664 9.78516 4.44336 9.96094L6.73828 12.7832L11.2207 5.67383Q11.4453 5.33203 11.7676 5.33203Q12.002 5.33203 12.1973 5.48828Q12.3926 5.64453 12.3926 5.9082Q12.3926 6.02539 12.3389 6.15234Q12.2852 6.2793 12.2168 6.38672L7.39258 13.9453Q7.26562 14.1211 7.11426 14.209Q6.96289 14.2969 6.76758 14.2969Z"
                     fill="#ffffff" />
       </g>
</svg>