<svg width="16.1426" height="20.8105">
       <g>
              <rect height="20.8105" opacity="0" width="16.1426" x="0" y="0" />
              <path d="M0 17.9395Q0 19.375 0.717773 20.0928Q1.43555 20.8105 2.85156 20.8105L13.291 20.8105Q14.7168 20.8105 15.4297 20.0928Q16.1426 19.375 16.1426 17.9395L16.1426 2.88086Q16.1426 1.45508 15.4297 0.727539Q14.7168 0 13.291 0L2.85156 0Q1.43555 0 0.717773 0.727539Q0 1.45508 0 2.88086ZM1.21094 17.9102L1.21094 2.91016Q1.21094 2.08008 1.64062 1.64551Q2.07031 1.21094 2.91016 1.21094L13.2324 1.21094Q14.082 1.21094 14.5117 1.64551Q14.9414 2.08008 14.9414 2.91016L14.9414 17.9102Q14.9414 18.7402 14.5117 19.1748Q14.082 19.6094 13.2324 19.6094L2.91016 19.6094Q2.07031 19.6094 1.64062 19.1748Q1.21094 18.7402 1.21094 17.9102Z"
                     fill="#0a84ff" />
              <path d="M7.02148 15.0293Q7.39258 15.0293 7.63672 14.6875L12.373 7.26562Q12.4414 7.16797 12.4951 7.0459Q12.5488 6.92383 12.5488 6.79688Q12.5488 6.55273 12.3584 6.39648Q12.168 6.24023 11.9336 6.24023Q11.6309 6.24023 11.4062 6.57227L6.99219 13.5547L4.74609 10.7812Q4.60938 10.6055 4.47754 10.5469Q4.3457 10.4883 4.18945 10.4883Q3.94531 10.4883 3.77441 10.6592Q3.60352 10.8301 3.60352 11.084Q3.60352 11.3086 3.7793 11.5625L6.39648 14.6875Q6.5332 14.8633 6.68457 14.9463Q6.83594 15.0293 7.02148 15.0293Z"
                     fill="#0a84ff" />
       </g>
</svg>