<svg width="21.7969" height="19.8926">
       <g>
              <rect height="19.8926" opacity="0" width="21.7969" x="0" y="0" />
              <path d="M3.89648 19.8828Q4.30664 19.8828 4.95117 19.6973Q5.5957 19.5117 6.35254 19.1943Q7.10938 18.877 7.87109 18.4863Q8.63281 18.0957 9.27734 17.6758Q9.4043 17.5879 9.50684 17.5586Q9.60938 17.5293 9.70703 17.5293Q9.90234 17.5488 10.0928 17.5635Q10.2832 17.5781 10.4785 17.5781Q12.4707 17.5781 14.2041 17.1289Q15.9375 16.6797 17.334 15.8691Q18.7305 15.0586 19.7314 13.96Q20.7324 12.8613 21.2646 11.5479Q21.7969 10.2344 21.7969 8.78906Q21.7969 6.96289 20.957 5.37109Q20.1172 3.7793 18.623 2.57324Q17.1289 1.36719 15.1514 0.683594Q13.1738 0 10.8984 0Q8.62305 0 6.64551 0.683594Q4.66797 1.36719 3.17383 2.57324Q1.67969 3.7793 0.839844 5.37109Q0 6.96289 0 8.78906Q0 10.332 0.600586 11.7285Q1.20117 13.125 2.31445 14.2773Q3.42773 15.4297 4.95117 16.2207Q5.06836 16.2891 5.10254 16.3916Q5.13672 16.4941 5.06836 16.6113Q4.83398 17.0215 4.51172 17.4463Q4.18945 17.8711 3.88672 18.2373Q3.58398 18.6035 3.38867 18.8379Q3.10547 19.1992 3.2373 19.541Q3.36914 19.8828 3.89648 19.8828Z"
                     fill="rgba(255,255,255,0.55)" />
              <path d="M9.82422 13.5742Q9.62891 13.5742 9.47266 13.4961Q9.31641 13.418 9.16992 13.2227L6.51367 10.0391Q6.42578 9.92188 6.37695 9.7998Q6.32812 9.67773 6.32812 9.55078Q6.32812 9.28711 6.50391 9.10645Q6.67969 8.92578 6.92383 8.92578Q7.09961 8.92578 7.23145 8.99414Q7.36328 9.0625 7.5 9.23828L9.79492 12.0605L14.2773 4.95117Q14.502 4.60938 14.8242 4.60938Q15.0586 4.60938 15.2539 4.76562Q15.4492 4.92188 15.4492 5.18555Q15.4492 5.30273 15.3955 5.42969Q15.3418 5.55664 15.2734 5.66406L10.4492 13.2227Q10.3223 13.3984 10.1709 13.4863Q10.0195 13.5742 9.82422 13.5742Z"
                     fill="#ffffff" />
       </g>
</svg>