<svg width="19.5898" height="19.5996">
       <g>
              <rect height="19.5996" opacity="0" width="19.5898" x="0" y="0" />
              <path d="M9.79492 19.5898Q11.8066 19.5898 13.5791 18.8232Q15.3516 18.0566 16.7041 16.7041Q18.0566 15.3516 18.8232 13.5791Q19.5898 11.8066 19.5898 9.79492Q19.5898 7.7832 18.8232 6.01074Q18.0566 4.23828 16.7041 2.88574Q15.3516 1.5332 13.5742 0.766602Q11.7969 0 9.78516 0Q7.77344 0 6.00098 0.766602Q4.22852 1.5332 2.88086 2.88574Q1.5332 4.23828 0.766602 6.01074Q0 7.7832 0 9.79492Q0 11.8066 0.766602 13.5791Q1.5332 15.3516 2.88574 16.7041Q4.23828 18.0566 6.01074 18.8232Q7.7832 19.5898 9.79492 19.5898ZM9.79492 18.3203Q8.02734 18.3203 6.47949 17.6611Q4.93164 17.002 3.75977 15.8301Q2.58789 14.6582 1.92871 13.1104Q1.26953 11.5625 1.26953 9.79492Q1.26953 8.02734 1.92871 6.47949Q2.58789 4.93164 3.75977 3.75488Q4.93164 2.57812 6.47461 1.91895Q8.01758 1.25977 9.78516 1.25977Q11.5625 1.25977 13.1104 1.91895Q14.6582 2.57812 15.8301 3.75488Q17.002 4.93164 17.666 6.47949Q18.3301 8.02734 18.3301 9.79492Q18.3301 11.5625 17.666 13.1104Q17.002 14.6582 15.8301 15.8301Q14.6582 17.002 13.1152 17.6611Q11.5723 18.3203 9.79492 18.3203Z"
                     fill="#0a84ff" />
              <path d="M8.73047 14.4238Q9.10156 14.4238 9.3457 14.082L14.082 6.66016Q14.1504 6.5625 14.2041 6.44043Q14.2578 6.31836 14.2578 6.19141Q14.2578 5.94727 14.0674 5.79102Q13.877 5.63477 13.6426 5.63477Q13.3398 5.63477 13.1152 5.9668L8.70117 12.9492L6.45508 10.1758Q6.31836 10 6.18652 9.94141Q6.05469 9.88281 5.89844 9.88281Q5.6543 9.88281 5.4834 10.0537Q5.3125 10.2246 5.3125 10.4785Q5.3125 10.7031 5.48828 10.957L8.10547 14.082Q8.24219 14.2578 8.39355 14.3408Q8.54492 14.4238 8.73047 14.4238Z"
                     fill="#0a84ff" />
       </g>
</svg>