<svg width="22.8711" height="17.6855">
       <g>
              <rect height="17.6855" opacity="0" width="22.8711" x="0" y="0" />
              <path d="M2.88086 17.6855L19.9902 17.6855Q21.4258 17.6855 22.1484 16.9629Q22.8711 16.2402 22.8711 14.834L22.8711 2.85156Q22.8711 1.44531 22.1484 0.722656Q21.4258 0 19.9902 0L2.88086 0Q1.44531 0 0.722656 0.717773Q0 1.43555 0 2.85156L0 14.834Q0 16.25 0.722656 16.9678Q1.44531 17.6855 2.88086 17.6855Z"
                     fill="#0a84ff" />
              <path d="M10.3711 13.5645Q10.1758 13.5645 10.0195 13.4863Q9.86328 13.4082 9.7168 13.2129L7.06055 10.0293Q6.97266 9.91211 6.92383 9.79004Q6.875 9.66797 6.875 9.54102Q6.875 9.27734 7.05078 9.09668Q7.22656 8.91602 7.4707 8.91602Q7.64648 8.91602 7.77832 8.98438Q7.91016 9.05273 8.04688 9.22852L10.3418 12.0508L14.8242 4.94141Q15.0488 4.59961 15.3711 4.59961Q15.6055 4.59961 15.8008 4.75586Q15.9961 4.91211 15.9961 5.17578Q15.9961 5.29297 15.9424 5.41992Q15.8887 5.54688 15.8203 5.6543L10.9961 13.2129Q10.8691 13.3887 10.7178 13.4766Q10.5664 13.5645 10.3711 13.5645Z"
                     fill="#ffffff" />
       </g>
</svg>