<svg width="17.6855" height="17.7051">
       <g>
              <rect height="17.7051" opacity="0" width="17.6855" x="0" y="0" />
              <path d="M2.88086 17.7051L14.8047 17.7051Q16.2305 17.7051 16.958 16.9873Q17.6855 16.2695 17.6855 14.8535L17.6855 2.88086Q17.6855 1.46484 16.958 0.742188Q16.2305 0.0195312 14.8047 0.0195312L2.88086 0.0195312Q1.44531 0.0195312 0.722656 0.737305Q0 1.45508 0 2.88086L0 14.8535Q0 16.2695 0.722656 16.9873Q1.44531 17.7051 2.88086 17.7051Z"
                     fill="rgba(255,255,255,0.55)" />
              <path d="M10.7227 13.6328Q10.5664 13.7793 10.3223 13.7744Q10.0781 13.7695 9.91211 13.6133L5.68359 9.57031Q5.46875 9.36523 5.39551 9.10156Q5.32227 8.83789 5.39551 8.56934Q5.46875 8.30078 5.68359 8.10547L9.91211 4.0625Q10.0879 3.88672 10.3223 3.88672Q10.5566 3.88672 10.7129 4.04297Q10.8887 4.19922 10.8936 4.44336Q10.8984 4.6875 10.7227 4.85352L6.55273 8.83789L10.7227 12.8223Q10.8984 12.9785 10.8936 13.2227Q10.8887 13.4668 10.7227 13.6328Z"
                     fill="#ffffff" />
       </g>
</svg>