<svg width="19.5898" height="19.5996">
       <g>
              <rect height="19.5996" opacity="0" width="19.5898" x="0" y="0" />
              <path d="M9.79492 19.5898Q11.8066 19.5898 13.5791 18.8232Q15.3516 18.0566 16.7041 16.7041Q18.0566 15.3516 18.8232 13.5791Q19.5898 11.8066 19.5898 9.79492Q19.5898 7.7832 18.8232 6.01074Q18.0566 4.23828 16.7041 2.88574Q15.3516 1.5332 13.5742 0.766602Q11.7969 0 9.78516 0Q7.77344 0 6.00098 0.766602Q4.22852 1.5332 2.88086 2.88574Q1.5332 4.23828 0.766602 6.01074Q0 7.7832 0 9.79492Q0 11.8066 0.766602 13.5791Q1.5332 15.3516 2.88574 16.7041Q4.23828 18.0566 6.01074 18.8232Q7.7832 19.5898 9.79492 19.5898Z"
                     fill="rgba(255,255,255,0.55)" />
              <path d="M4.90234 12.0605Q4.72656 11.8945 4.73145 11.6553Q4.73633 11.416 4.92188 11.2305L9.0332 6.92383Q9.27734 6.66992 9.53613 6.58203Q9.79492 6.49414 10.0586 6.57715Q10.3223 6.66016 10.5664 6.92383L14.6777 11.2305Q14.8633 11.416 14.8682 11.6553Q14.873 11.8945 14.707 12.0605Q14.5215 12.2461 14.2773 12.2461Q14.0332 12.2461 13.8672 12.0703L9.80469 7.82227L5.74219 12.0703Q5.57617 12.2461 5.32715 12.2461Q5.07812 12.2461 4.90234 12.0605Z"
                     fill="#ffffff" />
       </g>
</svg>