<svg width="17.6855" height="17.7051">
       <g>
              <rect height="17.7051" opacity="0" width="17.6855" x="0" y="0" />
              <path d="M2.88086 17.7051L14.8047 17.7051Q16.2305 17.7051 16.958 16.9873Q17.6855 16.2695 17.6855 14.8535L17.6855 2.88086Q17.6855 1.46484 16.958 0.742188Q16.2305 0.0195312 14.8047 0.0195312L2.88086 0.0195312Q1.44531 0.0195312 0.722656 0.737305Q0 1.45508 0 2.88086L0 14.8535Q0 16.2695 0.722656 16.9873Q1.44531 17.7051 2.88086 17.7051Z"
                     fill="rgba(255,255,255,0.55)" />
              <path d="M6.63086 13.7598Q6.45508 13.5742 6.45508 13.3301Q6.45508 13.0859 6.63086 12.9199L10.8887 8.85742L6.63086 4.79492Q6.44531 4.62891 6.45508 4.37988Q6.46484 4.13086 6.64062 3.95508Q6.80664 3.78906 7.0459 3.79883Q7.28516 3.80859 7.4707 3.98438L11.7773 8.0957Q12.002 8.30078 12.0752 8.5791Q12.1484 8.85742 12.0752 9.13086Q12.002 9.4043 11.7773 9.61914L7.4707 13.7305Q7.29492 13.8965 7.04102 13.9014Q6.78711 13.9062 6.63086 13.7598Z"
                     fill="#ffffff" />
       </g>
</svg>