<svg width="17.6855" height="17.7051">
       <g>
              <rect height="17.7051" opacity="0" width="17.6855" x="0" y="0" />
              <path d="M2.88086 17.7051L14.8047 17.7051Q16.2305 17.7051 16.958 16.9873Q17.6855 16.2695 17.6855 14.8535L17.6855 2.88086Q17.6855 1.46484 16.958 0.742188Q16.2305 0.0195312 14.8047 0.0195312L2.88086 0.0195312Q1.44531 0.0195312 0.722656 0.737305Q0 1.45508 0 2.88086L0 14.8535Q0 16.2695 0.722656 16.9873Q1.44531 17.7051 2.88086 17.7051Z"
                     fill="rgba(255,255,255,0.55)" />
              <path d="M3.95508 11.1133Q3.7793 10.9473 3.78418 10.708Q3.78906 10.4688 3.97461 10.2832L8.08594 5.97656Q8.33008 5.72266 8.58887 5.63477Q8.84766 5.54688 9.11133 5.62988Q9.375 5.71289 9.61914 5.97656L13.7305 10.2832Q13.916 10.4688 13.9209 10.708Q13.9258 10.9473 13.7598 11.1133Q13.5742 11.2988 13.3301 11.2988Q13.0859 11.2988 12.9199 11.123L8.85742 6.875L4.79492 11.123Q4.62891 11.2988 4.37988 11.2988Q4.13086 11.2988 3.95508 11.1133Z"
                     fill="#ffffff" />
       </g>
</svg>