<svg width="19.5898" height="19.5996">
       <g>
              <rect height="19.5996" opacity="0" width="19.5898" x="0" y="0" />
              <path d="M9.79492 19.5898Q11.8066 19.5898 13.5791 18.8232Q15.3516 18.0566 16.7041 16.7041Q18.0566 15.3516 18.8232 13.5791Q19.5898 11.8066 19.5898 9.79492Q19.5898 7.7832 18.8232 6.01074Q18.0566 4.23828 16.7041 2.88574Q15.3516 1.5332 13.5742 0.766602Q11.7969 0 9.78516 0Q7.77344 0 6.00098 0.766602Q4.22852 1.5332 2.88086 2.88574Q1.5332 4.23828 0.766602 6.01074Q0 7.7832 0 9.79492Q0 11.8066 0.766602 13.5791Q1.5332 15.3516 2.88574 16.7041Q4.23828 18.0566 6.01074 18.8232Q7.7832 19.5898 9.79492 19.5898Z"
                     fill="rgba(255,255,255,0.55)" />
              <path d="M7.57812 14.707Q7.40234 14.5215 7.40234 14.2773Q7.40234 14.0332 7.57812 13.8672L11.8359 9.80469L7.57812 5.74219Q7.39258 5.57617 7.40234 5.32715Q7.41211 5.07812 7.58789 4.90234Q7.75391 4.73633 7.99316 4.74609Q8.23242 4.75586 8.41797 4.93164L12.7246 9.04297Q12.9492 9.24805 13.0225 9.52637Q13.0957 9.80469 13.0225 10.0781Q12.9492 10.3516 12.7246 10.5664L8.41797 14.6777Q8.24219 14.8438 7.98828 14.8486Q7.73438 14.8535 7.57812 14.707Z"
                     fill="#ffffff" />
       </g>
</svg>