<svg width="17.6855" height="17.7051">
       <g>
              <rect height="17.7051" opacity="0" width="17.6855" x="0" y="0" />
              <path d="M2.88086 17.7051L14.8047 17.7051Q16.2305 17.7051 16.958 16.9873Q17.6855 16.2695 17.6855 14.8535L17.6855 2.88086Q17.6855 1.46484 16.958 0.742188Q16.2305 0.0195312 14.8047 0.0195312L2.88086 0.0195312Q1.44531 0.0195312 0.722656 0.737305Q0 1.45508 0 2.88086L0 14.8535Q0 16.2695 0.722656 16.9873Q1.44531 17.7051 2.88086 17.7051Z"
                     fill="rgba(255,255,255,0.55)" />
              <path d="M9.62891 12.0801Q9.38477 12.334 9.12109 12.4219Q8.85742 12.5098 8.59375 12.4219Q8.33008 12.334 8.08594 12.0801L3.97461 7.77344Q3.78906 7.58789 3.78418 7.34863Q3.7793 7.10938 3.94531 6.93359Q4.12109 6.74805 4.375 6.74316Q4.62891 6.73828 4.79492 6.92383L8.85742 11.1621L12.9199 6.92383Q13.0859 6.73828 13.335 6.74805Q13.584 6.75781 13.7598 6.93359Q13.9355 7.09961 13.9258 7.34375Q13.916 7.58789 13.7402 7.77344Z"
                     fill="#ffffff" />
       </g>
</svg>