<svg width="19.5898" height="19.5996">
       <g>
              <rect height="19.5996" opacity="0" width="19.5898" x="0" y="0" />
              <path d="M9.79492 19.5898Q11.8066 19.5898 13.5791 18.8232Q15.3516 18.0566 16.7041 16.7041Q18.0566 15.3516 18.8232 13.5791Q19.5898 11.8066 19.5898 9.79492Q19.5898 7.7832 18.8232 6.01074Q18.0566 4.23828 16.7041 2.88574Q15.3516 1.5332 13.5742 0.766602Q11.7969 0 9.78516 0Q7.77344 0 6.00098 0.766602Q4.22852 1.5332 2.88086 2.88574Q1.5332 4.23828 0.766602 6.01074Q0 7.7832 0 9.79492Q0 11.8066 0.766602 13.5791Q1.5332 15.3516 2.88574 16.7041Q4.23828 18.0566 6.01074 18.8232Q7.7832 19.5898 9.79492 19.5898Z"
                     fill="rgba(255,255,255,0.55)" />
              <path d="M10.5762 13.0273Q10.332 13.2812 10.0684 13.3691Q9.80469 13.457 9.54102 13.3691Q9.27734 13.2812 9.0332 13.0273L4.92188 8.7207Q4.73633 8.53516 4.73145 8.2959Q4.72656 8.05664 4.89258 7.88086Q5.06836 7.69531 5.32227 7.69043Q5.57617 7.68555 5.74219 7.87109L9.80469 12.1094L13.8672 7.87109Q14.0332 7.68555 14.2822 7.69531Q14.5312 7.70508 14.707 7.88086Q14.8828 8.04688 14.873 8.29102Q14.8633 8.53516 14.6875 8.7207Z"
                     fill="#ffffff" />
       </g>
</svg>