<svg width="19.5898" height="19.5996">
       <g>
              <rect height="19.5996" opacity="0" width="19.5898" x="0" y="0" />
              <path d="M9.79492 19.5898Q11.8066 19.5898 13.5791 18.8232Q15.3516 18.0566 16.7041 16.7041Q18.0566 15.3516 18.8232 13.5791Q19.5898 11.8066 19.5898 9.79492Q19.5898 7.7832 18.8232 6.01074Q18.0566 4.23828 16.7041 2.88574Q15.3516 1.5332 13.5742 0.766602Q11.7969 0 9.78516 0Q7.77344 0 6.00098 0.766602Q4.22852 1.5332 2.88086 2.88574Q1.5332 4.23828 0.766602 6.01074Q0 7.7832 0 9.79492Q0 11.8066 0.766602 13.5791Q1.5332 15.3516 2.88574 16.7041Q4.23828 18.0566 6.01074 18.8232Q7.7832 19.5898 9.79492 19.5898Z"
                     fill="rgba(255,255,255,0.55)" />
              <path d="M11.6699 14.5801Q11.5137 14.7266 11.2695 14.7217Q11.0254 14.7168 10.8594 14.5605L6.63086 10.5176Q6.41602 10.3125 6.34277 10.0488Q6.26953 9.78516 6.34277 9.5166Q6.41602 9.24805 6.63086 9.05273L10.8594 5.00977Q11.0352 4.83398 11.2695 4.83398Q11.5039 4.83398 11.6602 4.99023Q11.8359 5.14648 11.8408 5.39062Q11.8457 5.63477 11.6699 5.80078L7.5 9.78516L11.6699 13.7695Q11.8457 13.9258 11.8408 14.1699Q11.8359 14.4141 11.6699 14.5801Z"
                     fill="#ffffff" />
       </g>
</svg>