<svg width="19.5898" height="19.5996">
       <g>
              <rect height="19.5996" opacity="0" width="19.5898" x="0" y="0" />
              <path d="M9.79492 19.5996Q11.8066 19.5996 13.5791 18.833Q15.3516 18.0664 16.7041 16.7139Q18.0566 15.3613 18.8232 13.5889Q19.5898 11.8164 19.5898 9.80469Q19.5898 7.79297 18.8232 6.02051Q18.0566 4.24805 16.7041 2.89551Q15.3516 1.54297 13.5742 0.776367Q11.7969 0.00976562 9.78516 0.00976562Q7.77344 0.00976562 6.00098 0.776367Q4.22852 1.54297 2.88086 2.89551Q1.5332 4.24805 0.766602 6.02051Q0 7.79297 0 9.80469Q0 11.8164 0.766602 13.5889Q1.5332 15.3613 2.88574 16.7139Q4.23828 18.0664 6.01074 18.833Q7.7832 19.5996 9.79492 19.5996Z"
                     fill="rgba(255,255,255,0.55)" />
              <path d="M7.63672 7.69531Q6.9043 7.69531 6.3916 7.16797Q5.87891 6.64062 5.87891 5.92773Q5.87891 5.20508 6.39648 4.6875Q6.91406 4.16992 7.63672 4.16992Q8.35938 4.16992 8.88184 4.6875Q9.4043 5.20508 9.4043 5.92773Q9.4043 6.64062 8.88184 7.16797Q8.35938 7.69531 7.63672 7.69531ZM11.9629 7.69531Q11.25 7.69531 10.7227 7.16797Q10.1953 6.64062 10.1953 5.92773Q10.1953 5.20508 10.7227 4.6875Q11.25 4.16992 11.9629 4.16992Q12.6953 4.16992 13.2129 4.6875Q13.7305 5.20508 13.7305 5.92773Q13.7305 6.64062 13.2129 7.16797Q12.6953 7.69531 11.9629 7.69531ZM5.48828 11.5625Q4.75586 11.5625 4.2334 11.04Q3.71094 10.5176 3.71094 9.80469Q3.71094 9.08203 4.2334 8.55957Q4.75586 8.03711 5.48828 8.03711Q6.20117 8.03711 6.71875 8.55957Q7.23633 9.08203 7.23633 9.80469Q7.23633 10.5273 6.71875 11.0449Q6.20117 11.5625 5.48828 11.5625ZM9.80469 11.5625Q9.08203 11.5625 8.55957 11.0449Q8.03711 10.5273 8.03711 9.80469Q8.03711 9.08203 8.55957 8.55957Q9.08203 8.03711 9.80469 8.03711Q10.5273 8.03711 11.0449 8.55957Q11.5625 9.08203 11.5625 9.80469Q11.5625 10.5273 11.0449 11.0449Q10.5273 11.5625 9.80469 11.5625ZM14.1309 11.5625Q13.4082 11.5625 12.8906 11.0449Q12.373 10.5273 12.373 9.80469Q12.373 9.08203 12.8906 8.55957Q13.4082 8.03711 14.1309 8.03711Q14.8535 8.03711 15.376 8.55957Q15.8984 9.08203 15.8984 9.80469Q15.8984 10.5273 15.376 11.0449Q14.8535 11.5625 14.1309 11.5625ZM7.63672 15.4395Q6.9043 15.4395 6.3916 14.917Q5.87891 14.3945 5.87891 13.6816Q5.87891 12.959 6.39648 12.4365Q6.91406 11.9141 7.63672 11.9141Q8.35938 11.9141 8.88184 12.4365Q9.4043 12.959 9.4043 13.6816Q9.4043 14.4043 8.88184 14.9219Q8.35938 15.4395 7.63672 15.4395ZM11.9629 15.4395Q11.25 15.4395 10.7227 14.9219Q10.1953 14.4043 10.1953 13.6816Q10.1953 12.959 10.7227 12.4365Q11.25 11.9141 11.9629 11.9141Q12.6953 11.9141 13.2129 12.4365Q13.7305 12.959 13.7305 13.6816Q13.7305 14.4043 13.2129 14.9219Q12.6953 15.4395 11.9629 15.4395Z"
                     fill="#ffffff" />
       </g>
</svg>