<svg width="17.6819" height="17.7075">
       <g>
              <rect height="17.7075" opacity="0" width="17.6819" x="0" y="0" />
              <path d="M2.87872 17.7075L14.8001 17.7075Q16.2334 17.7075 16.9576 16.987Q17.6819 16.2665 17.6819 14.8528L17.6819 2.8804Q17.6819 1.46667 16.9576 0.746155Q16.2334 0.0256348 14.8001 0.0256348L2.87872 0.0256348Q1.44836 0.0256348 0.724182 0.743103Q0 1.46057 0 2.8804L0 14.8528Q0 16.2726 0.724182 16.9901Q1.44836 17.7075 2.87872 17.7075Z"
                     fill="rgba(255,255,255,0.55)" />
              <path d="M8.92349 13.8249Q7.91595 13.8249 7.01889 13.4301Q6.12183 13.0353 5.43625 12.3478Q4.75067 11.6603 4.35738 10.7632Q3.96408 9.86618 3.96408 8.85864Q3.96408 7.84439 4.35402 6.9458Q4.74396 6.04721 5.43137 5.36316Q6.11877 4.67911 7.01591 4.28429Q7.91306 3.88947 8.92349 3.88947Q9.93469 3.88947 10.8284 4.28429Q11.7221 4.67911 12.4111 5.36652Q13.1001 6.05392 13.4934 6.95251Q13.8867 7.8511 13.8867 8.85864Q13.8867 9.87289 13.4968 10.77Q13.1068 11.667 12.4194 12.3512Q11.7319 13.0353 10.8348 13.4301Q9.93774 13.8249 8.92349 13.8249Z"
                     fill="#ffffff" />
       </g>
</svg>