<svg width="19.5898" height="19.5996">
       <g>
              <rect height="19.5996" opacity="0" width="19.5898" x="0" y="0" />
              <path d="M9.79492 19.5898Q11.8066 19.5898 13.5791 18.8232Q15.3516 18.0566 16.7041 16.7041Q18.0566 15.3516 18.8232 13.5791Q19.5898 11.8066 19.5898 9.79492Q19.5898 7.7832 18.8232 6.01074Q18.0566 4.23828 16.7041 2.88574Q15.3516 1.5332 13.5742 0.766602Q11.7969 0 9.78516 0Q7.77344 0 6.00098 0.766602Q4.22852 1.5332 2.88086 2.88574Q1.5332 4.23828 0.766602 6.01074Q0 7.7832 0 9.79492Q0 11.8066 0.766602 13.5791Q1.5332 15.3516 2.88574 16.7041Q4.23828 18.0566 6.01074 18.8232Q7.7832 19.5898 9.79492 19.5898Z"
                     fill="rgba(255,255,255,0.55)" />
              <path d="M9.88281 15.127Q8.79883 15.127 7.8418 14.7021Q6.88477 14.2773 6.14746 13.54Q5.41016 12.8027 4.99023 11.8457Q4.57031 10.8887 4.57031 9.80469Q4.57031 8.7207 4.99023 7.75879Q5.41016 6.79688 6.14746 6.05957Q6.88477 5.32227 7.8418 4.90234Q8.79883 4.48242 9.88281 4.48242Q10.9668 4.48242 11.9287 4.90723Q12.8906 5.33203 13.6279 6.06445Q14.3652 6.79688 14.7852 7.76367Q15.2051 8.73047 15.2051 9.80469Q15.2051 10.8887 14.7852 11.8506Q14.3652 12.8125 13.6279 13.5498Q12.8906 14.2871 11.9287 14.707Q10.9668 15.127 9.88281 15.127ZM9.88281 13.9062Q11.0059 13.9062 11.9336 13.3496Q12.8613 12.793 13.4229 11.8604Q13.9844 10.9277 13.9844 9.80469Q13.9844 8.69141 13.4229 7.75391Q12.8613 6.81641 11.9336 6.25977Q11.0059 5.70312 9.88281 5.70312Q8.76953 5.70312 7.83691 6.25977Q6.9043 6.81641 6.34766 7.74902Q5.79102 8.68164 5.79102 9.80469Q5.79102 10.918 6.35254 11.8506Q6.91406 12.7832 7.8418 13.3447Q8.76953 13.9062 9.88281 13.9062Z"
                     fill="#ffffff" />
       </g>
</svg>