<svg width="19.5898" height="19.5996">
       <g>
              <rect height="19.5996" opacity="0" width="19.5898" x="0" y="0" />
              <path d="M9.79492 19.5898Q11.8066 19.5898 13.5791 18.8232Q15.3516 18.0566 16.7041 16.7041Q18.0566 15.3516 18.8232 13.5791Q19.5898 11.8066 19.5898 9.79492Q19.5898 7.7832 18.8232 6.01074Q18.0566 4.23828 16.7041 2.88574Q15.3516 1.5332 13.5742 0.766602Q11.7969 0 9.78516 0Q7.77344 0 6.00098 0.766602Q4.22852 1.5332 2.88086 2.88574Q1.5332 4.23828 0.766602 6.01074Q0 7.7832 0 9.79492Q0 11.8066 0.766602 13.5791Q1.5332 15.3516 2.88574 16.7041Q4.23828 18.0566 6.01074 18.8232Q7.7832 19.5898 9.79492 19.5898Z"
                     fill="rgba(255,255,255,0.55)" />
              <path d="M6.28906 7.90039Q5.72266 7.90039 5.31738 7.49512Q4.91211 7.08984 4.91211 6.52344Q4.91211 5.95703 5.31738 5.54688Q5.72266 5.13672 6.28906 5.13672Q6.86523 5.13672 7.26562 5.54688Q7.66602 5.95703 7.66602 6.52344Q7.66602 7.08984 7.26562 7.49512Q6.86523 7.90039 6.28906 7.90039ZM9.79492 7.90039Q9.22852 7.90039 8.81836 7.49512Q8.4082 7.08984 8.4082 6.52344Q8.4082 5.94727 8.81836 5.54688Q9.22852 5.14648 9.79492 5.13672Q10.3613 5.13672 10.7715 5.54199Q11.1816 5.94727 11.1816 6.52344Q11.1816 7.08984 10.7715 7.49512Q10.3613 7.90039 9.79492 7.90039ZM13.291 7.90039Q12.7246 7.90039 12.3193 7.49512Q11.9141 7.08984 11.9141 6.52344Q11.9141 5.94727 12.3096 5.54688Q12.7051 5.14648 13.291 5.13672Q13.8574 5.13672 14.2627 5.54199Q14.668 5.94727 14.668 6.52344Q14.668 7.08984 14.2627 7.49512Q13.8574 7.90039 13.291 7.90039ZM6.28906 11.1719Q5.72266 11.1719 5.31738 10.7617Q4.91211 10.3516 4.91211 9.79492Q4.91211 9.21875 5.31738 8.81348Q5.72266 8.4082 6.28906 8.4082Q6.85547 8.39844 7.26074 8.80859Q7.66602 9.21875 7.66602 9.79492Q7.66602 10.3516 7.26562 10.7617Q6.86523 11.1719 6.28906 11.1719ZM9.79492 11.1719Q9.22852 11.1719 8.81836 10.7617Q8.4082 10.3516 8.4082 9.79492Q8.4082 9.21875 8.81836 8.81348Q9.22852 8.4082 9.79492 8.4082Q10.3613 8.39844 10.7715 8.80859Q11.1816 9.21875 11.1816 9.79492Q11.1816 10.3516 10.7715 10.7617Q10.3613 11.1719 9.79492 11.1719ZM13.291 11.1719Q12.7246 11.1719 12.3193 10.7617Q11.9141 10.3516 11.9141 9.79492Q11.9141 9.21875 12.3193 8.81348Q12.7246 8.4082 13.291 8.4082Q13.8574 8.39844 14.2627 8.80859Q14.668 9.21875 14.668 9.79492Q14.668 10.3516 14.2627 10.7617Q13.8574 11.1719 13.291 11.1719ZM6.28906 14.4434Q5.72266 14.4434 5.31738 14.0381Q4.91211 13.6328 4.91211 13.0566Q4.91211 12.4902 5.31738 12.085Q5.72266 11.6797 6.28906 11.6797Q6.85547 11.6797 7.26074 12.085Q7.66602 12.4902 7.66602 13.0566Q7.66602 13.6328 7.26562 14.0381Q6.86523 14.4434 6.28906 14.4434ZM9.79492 14.4434Q9.22852 14.4434 8.81836 14.0381Q8.4082 13.6328 8.4082 13.0566Q8.4082 12.4902 8.81836 12.085Q9.22852 11.6797 9.79492 11.6797Q10.3613 11.6797 10.7715 12.085Q11.1816 12.4902 11.1816 13.0566Q11.1816 13.6328 10.7715 14.0381Q10.3613 14.4434 9.79492 14.4434ZM13.291 14.4434Q12.7246 14.4434 12.3193 14.0381Q11.9141 13.6328 11.9141 13.0566Q11.9141 12.4902 12.3193 12.085Q12.7246 11.6797 13.291 11.6797Q13.8574 11.6797 14.2627 12.085Q14.668 12.4902 14.668 13.0566Q14.668 13.6328 14.2627 14.0381Q13.8574 14.4434 13.291 14.4434Z"
                     fill="#ffffff" />
       </g>
</svg>