<svg width="19.7446" height="18.3002">
       <g>
              <rect height="18.3002" opacity="0" width="19.7446" x="0" y="0" />
              <path d="M9.87228 12.0045Q10.6549 12.0045 11.302 11.6132Q11.949 11.2219 12.3403 10.5715Q12.7316 9.92111 12.7316 9.1452Q12.7316 8.36258 12.3403 7.71217Q11.949 7.06177 11.302 6.67381Q10.6549 6.28586 9.87228 6.28586Q9.08966 6.28586 8.44261 6.67381Q7.79556 7.06177 7.40425 7.71217Q7.01294 8.36258 7.01294 9.1452Q7.01294 9.92111 7.40425 10.5715Q7.79556 11.2219 8.44261 11.6132Q9.08966 12.0045 9.87228 12.0045Z"
                     fill="rgba(255,255,255,0.85)" />
              <path d="M6.36398 5.71198Q7.14661 5.71198 7.79701 5.32402Q8.44742 4.93607 8.83537 4.28566Q9.22333 3.63525 9.22333 2.85934Q9.22333 2.08344 8.83537 1.43303Q8.44742 0.782623 7.79701 0.391312Q7.14661 0 6.36398 0Q5.58807 0 4.93767 0.391312Q4.28726 0.782623 3.89931 1.43303Q3.51135 2.08344 3.51135 2.85934Q3.51135 3.6322 3.89442 4.27925Q4.2775 4.9263 4.9279 5.31914Q5.57831 5.71198 6.36398 5.71198Z"
                     fill="#32d74b" />
              <path d="M2.85934 12.0045Q3.63525 12.0045 4.28566 11.6117Q4.93607 11.2189 5.32738 10.5685Q5.71869 9.91806 5.71869 9.1452Q5.71869 8.36258 5.32738 7.71217Q4.93607 7.06177 4.28566 6.67381Q3.63525 6.28586 2.85934 6.28586Q2.07672 6.28586 1.42632 6.67381Q0.775909 7.06177 0.387955 7.71217Q0 8.36258 0 9.1452Q0 9.91806 0.387955 10.5685Q0.775909 11.2189 1.42479 11.6117Q2.07367 12.0045 2.85934 12.0045Z"
                     fill="#ff375f" />
              <path d="M6.36398 18.2837Q7.14661 18.2837 7.79701 17.8957Q8.44742 17.5078 8.83537 16.8574Q9.22333 16.207 9.22333 15.4311Q9.22333 14.6552 8.83537 14.0047Q8.44742 13.3543 7.79701 12.9664Q7.14661 12.5784 6.36398 12.5784Q5.58807 12.5784 4.93767 12.9664Q4.28726 13.3543 3.89931 14.0047Q3.51135 14.6552 3.51135 15.4311Q3.51135 16.2039 3.89442 16.851Q4.2775 17.498 4.9279 17.8909Q5.57831 18.2837 6.36398 18.2837Z"
                     fill="#0a84ff" />
              <path d="M13.3836 18.2837Q14.1595 18.2837 14.81 17.8957Q15.4604 17.5078 15.8483 16.8574Q16.2363 16.207 16.2363 15.4311Q16.2363 14.6552 15.8483 14.0047Q15.4604 13.3543 14.81 12.9664Q14.1595 12.5784 13.3836 12.5784Q12.601 12.5784 11.9505 12.9664Q11.3 13.3543 10.9122 14.0047Q10.5243 14.6552 10.5243 15.4311Q10.5243 16.207 10.9122 16.8574Q11.3 17.5078 11.9505 17.8957Q12.601 18.2837 13.3836 18.2837Z"
                     fill="#ffd60a" />
              <path d="M16.8852 12.0045Q17.6678 12.0045 18.3183 11.6132Q18.9687 11.2219 19.3566 10.5715Q19.7446 9.92111 19.7446 9.1452Q19.7446 8.36258 19.3566 7.71217Q18.9687 7.06177 18.3183 6.67381Q17.6678 6.28586 16.8852 6.28586Q16.1093 6.28586 15.4588 6.67381Q14.8083 7.06177 14.417 7.71217Q14.0257 8.36258 14.0257 9.1452Q14.0257 9.92111 14.417 10.5715Q14.8083 11.2219 15.4588 11.6132Q16.1093 12.0045 16.8852 12.0045Z"
                     fill="#5e5ce6" />
              <path d="M13.3836 5.71198Q14.1595 5.71198 14.81 5.32402Q15.4604 4.93607 15.8483 4.28566Q16.2363 3.63525 16.2363 2.85934Q16.2363 2.08344 15.8483 1.43303Q15.4604 0.782623 14.81 0.391312Q14.1595 0 13.3836 0Q12.601 0 11.9505 0.391312Q11.3 0.782623 10.9122 1.43303Q10.5243 2.08344 10.5243 2.85934Q10.5243 3.63525 10.9122 4.28566Q11.3 4.93607 11.9505 5.32402Q12.601 5.71198 13.3836 5.71198Z"
                     fill="#ff9f0a" />
       </g>
</svg>