<svg width="17.6855" height="17.7051">
       <g>
              <rect height="17.7051" opacity="0" width="17.6855" x="0" y="0" />
              <path d="M2.88086 17.7051L14.8047 17.7051Q16.2305 17.7051 16.958 16.9873Q17.6855 16.2695 17.6855 14.8535L17.6855 2.88086Q17.6855 1.46484 16.958 0.742188Q16.2305 0.0195312 14.8047 0.0195312L2.88086 0.0195312Q1.44531 0.0195312 0.722656 0.737305Q0 1.45508 0 2.88086L0 14.8535Q0 16.2695 0.722656 16.9873Q1.44531 17.7051 2.88086 17.7051ZM2.90039 16.4941Q2.07031 16.4941 1.64062 16.0645Q1.21094 15.6348 1.21094 14.7949L1.21094 2.93945Q1.21094 2.08984 1.64062 1.66016Q2.07031 1.23047 2.90039 1.23047L14.7852 1.23047Q15.5859 1.23047 16.0303 1.66016Q16.4746 2.08984 16.4746 2.93945L16.4746 14.7949Q16.4746 15.6348 16.0303 16.0645Q15.5859 16.4941 14.7852 16.4941Z"
                     fill="#ff453a" />
              <path d="M5.43945 12.8809Q5.70312 12.8809 5.88867 12.6758L8.83789 9.72656L11.8066 12.6758Q12.002 12.8809 12.2559 12.8809Q12.5098 12.8809 12.6904 12.7002Q12.8711 12.5195 12.8711 12.2656Q12.8711 12.0117 12.6758 11.8262L9.7168 8.85742L12.6855 5.87891Q12.8711 5.69336 12.8711 5.43945Q12.8711 5.18555 12.6953 5.00977Q12.5195 4.83398 12.2656 4.83398Q12.0215 4.83398 11.8262 5.03906L8.83789 7.99805L5.87891 5.03906Q5.70312 4.85352 5.43945 4.85352Q5.18555 4.85352 5.00488 5.02441Q4.82422 5.19531 4.82422 5.44922Q4.82422 5.70312 5.00977 5.88867L7.97852 8.85742L5.00977 11.8359Q4.82422 12.0117 4.82422 12.2656Q4.82422 12.5195 5.00488 12.7002Q5.18555 12.8809 5.43945 12.8809Z"
                     fill="#ff453a" />
       </g>
</svg>