<svg width="19.5918" height="19.5987">
       <g>
              <rect height="19.5987" opacity="0" width="19.5918" x="0" y="0" />
              <path d="M4.48715 10.7523L9.78775 10.7523Q10.0201 10.7523 10.1746 10.5978Q10.329 10.4434 10.329 10.2139L10.329 3.36853Q10.329 3.1459 10.1746 2.99454Q10.0201 2.84317 9.78775 2.84317Q9.57108 2.84317 9.41666 2.99454Q9.26224 3.1459 9.26224 3.36853L9.26224 9.68857L4.48715 9.68857Q4.25476 9.68857 4.10339 9.84146Q3.95203 9.99435 3.95203 10.2139Q3.95203 10.4434 4.10339 10.5978Q4.25476 10.7523 4.48715 10.7523Z"
                     fill="rgba(255,255,255,0.85)" />
              <path d="M9.79446 19.5889Q11.8082 19.5889 13.5796 18.8228Q15.3511 18.0566 16.7039 16.7039Q18.0566 15.3513 18.8242 13.5783Q19.5918 11.8053 19.5918 9.79446Q19.5918 7.78366 18.8242 6.01067Q18.0566 4.23767 16.7039 2.88498Q15.3511 1.53229 13.5763 0.766144Q11.8015 0 9.78775 0Q7.77695 0 6.00395 0.766144Q4.23096 1.53229 2.88307 2.88498Q1.53519 4.23767 0.767593 6.01067Q0 7.78366 0 9.79446Q0 11.8053 0.766144 13.5783Q1.53229 15.3513 2.88498 16.7039Q4.23767 18.0566 6.01067 18.8228Q7.78366 19.5889 9.79446 19.5889ZM9.79446 18.3223Q8.02353 18.3223 6.47873 17.6596Q4.93393 16.9969 3.76297 15.8274Q2.59201 14.6579 1.93268 13.1116Q1.27335 11.5654 1.27335 9.79446Q1.27335 8.02353 1.93268 6.47728Q2.59201 4.93103 3.75961 3.75664Q4.92722 2.58224 6.47202 1.92291Q8.01682 1.26358 9.78775 1.26358Q11.5616 1.26358 13.1097 1.92291Q14.6579 2.58224 15.8289 3.75664Q17 4.93103 17.6627 6.47728Q18.3253 8.02353 18.3253 9.79446Q18.3253 11.5654 17.666 13.1116Q17.0067 14.6579 15.8323 15.8274Q14.6579 16.9969 13.1131 17.6596Q11.5683 18.3223 9.79446 18.3223Z"
                     fill="#ff9f0a" />
       </g>
</svg>