<svg width="19.5898" height="19.5996">
       <g>
              <rect height="19.5996" opacity="0" width="19.5898" x="0" y="0" />
              <path d="M9.79492 19.5898Q11.8066 19.5898 13.5791 18.8232Q15.3516 18.0566 16.7041 16.7041Q18.0566 15.3516 18.8232 13.5791Q19.5898 11.8066 19.5898 9.79492Q19.5898 7.7832 18.8232 6.01074Q18.0566 4.23828 16.7041 2.88574Q15.3516 1.5332 13.5742 0.766602Q11.7969 0 9.78516 0Q7.77344 0 6.00098 0.766602Q4.22852 1.5332 2.88086 2.88574Q1.5332 4.23828 0.766602 6.01074Q0 7.7832 0 9.79492Q0 11.8066 0.766602 13.5791Q1.5332 15.3516 2.88574 16.7041Q4.23828 18.0566 6.01074 18.8232Q7.7832 19.5898 9.79492 19.5898Z"
                     fill="rgba(255,255,255,0.55)" />
              <path d="M6.94336 10.4199L9.78516 10.4199Q9.96094 10.4199 10.083 10.3076Q10.2051 10.1953 10.2051 10.0293L10.2051 6.33789Q10.2051 6.16211 10.083 6.04492Q9.96094 5.92773 9.78516 5.92773Q9.61914 5.92773 9.49707 6.04492Q9.375 6.16211 9.375 6.33789L9.375 9.61914L6.94336 9.61914Q6.76758 9.61914 6.65039 9.73145Q6.5332 9.84375 6.5332 10.0293Q6.5332 10.2051 6.65039 10.3125Q6.76758 10.4199 6.94336 10.4199ZM9.79492 15.1465Q8.69141 15.1465 7.72461 14.7314Q6.75781 14.3164 6.01562 13.5742Q5.27344 12.832 4.85352 11.8604Q4.43359 10.8887 4.43359 9.79492Q4.43359 8.70117 4.85352 7.72461Q5.27344 6.74805 6.01074 6.01074Q6.74805 5.27344 7.71484 4.85352Q8.68164 4.43359 9.78516 4.43359Q10.8789 4.43359 11.8555 4.85352Q12.832 5.27344 13.5693 6.01074Q14.3066 6.74805 14.7266 7.72461Q15.1465 8.70117 15.1465 9.79492Q15.1465 10.8887 14.7266 11.8604Q14.3066 12.832 13.5693 13.5742Q12.832 14.3164 11.8604 14.7314Q10.8887 15.1465 9.79492 15.1465Z"
                     fill="#ffffff" />
       </g>
</svg>