<svg width="22.1315" height="24.2378">
       <g>
              <rect height="24.2378" opacity="0" width="22.1315" x="0" y="0" />
              <path d="M4.54102 21.2375L5.91644 18.8518Q6.0321 18.6637 5.98221 18.4781Q5.93231 18.2924 5.75989 18.1897Q5.5806 18.0899 5.40146 18.1428Q5.22232 18.1957 5.10376 18.384L3.72147 20.7831Q3.61572 20.958 3.66066 21.1435Q3.7056 21.3291 3.8916 21.4319Q4.06708 21.5279 4.25301 21.4735Q4.43893 21.4191 4.54102 21.2375ZM7.61276 23.9756L8.98834 21.5967Q9.10385 21.4084 9.05396 21.2228Q9.00406 21.0372 8.83163 20.9345Q8.6554 20.8348 8.47473 20.8877Q8.29407 20.9406 8.17856 21.1319L6.79626 23.5212Q6.69052 23.7058 6.73401 23.8865Q6.7775 24.0673 6.95969 24.17Q7.13882 24.2727 7.32292 24.2198Q7.50702 24.1669 7.61276 23.9756ZM12.3145 21.2308L13.6899 18.8451Q13.8055 18.6568 13.7572 18.4713Q13.7088 18.2857 13.5266 18.1829Q13.3571 18.0832 13.173 18.1361Q12.9889 18.189 12.8802 18.3773L11.498 20.7764Q11.3922 20.9513 11.4371 21.1368Q11.4821 21.3224 11.6614 21.4251Q11.8338 21.5212 12.0213 21.4668Q12.2087 21.4124 12.3145 21.2308ZM15.3862 23.9689L16.7647 21.59Q16.8735 21.4017 16.827 21.2161Q16.7805 21.0305 16.6014 20.9278Q16.4221 20.828 16.2415 20.8809Q16.0608 20.9339 15.952 21.1251L14.563 23.5144Q14.464 23.6991 14.5089 23.8797Q14.5538 24.0604 14.7331 24.1632Q14.9086 24.2659 15.0945 24.2131Q15.2805 24.1602 15.3862 23.9689Z"
                     fill="#5ac8f5" />
              <path d="M4.45663 16.5976L16.6425 16.5976Q17.8163 16.5976 18.8171 16.1883Q19.818 15.779 20.5627 15.0501Q21.3074 14.3212 21.7194 13.3542Q22.1315 12.3871 22.1315 11.2853Q22.1315 10.1467 21.6947 9.18949Q21.2579 8.23231 20.4742 7.52293Q19.6904 6.81355 18.6441 6.42376Q17.5978 6.03398 16.3788 6.03398Q15.7733 4.81159 14.846 3.90286Q13.9188 2.99412 12.7191 2.49676Q11.5195 1.9994 10.0702 1.9994Q8.7204 1.9994 7.52579 2.50233Q6.33118 3.00526 5.39383 3.89546Q4.45648 4.78565 3.87772 5.96577Q3.29895 7.14588 3.18176 8.50636Q2.28409 8.75416 1.56433 9.32011Q0.844574 9.88606 0.422287 10.704Q0 11.522 0 12.5512Q0 13.6611 0.526886 14.5829Q1.05377 15.5048 2.04887 16.0512Q3.04398 16.5976 4.45663 16.5976Z"
                     fill="#ffffff" />
       </g>
</svg>