<svg width="22.1315" height="24.5673">
       <g>
              <rect height="24.5673" opacity="0" width="22.1315" x="0" y="0" />
              <path d="M5.62866 20.3415L6.38885 19.0076Q6.49765 18.826 6.45271 18.637Q6.40778 18.448 6.2323 18.3386Q6.05606 18.2388 5.87196 18.2951Q5.68787 18.3514 5.57907 18.5397L4.80911 19.8871Q4.71008 20.062 4.75166 20.2476Q4.79324 20.4332 4.97253 20.5359Q5.15472 20.6386 5.3373 20.5808Q5.51987 20.5231 5.62866 20.3415ZM9.88647 21.8356L11.5158 19.0204Q11.6216 18.829 11.5766 18.6449Q11.5317 18.4608 11.3593 18.3582Q11.183 18.2584 10.9974 18.3098Q10.8118 18.3612 10.706 18.5526L9.06998 21.3812Q8.97095 21.5561 9.01588 21.7417Q9.06082 21.9273 9.24011 22.03Q9.41254 22.1327 9.59999 22.075Q9.78745 22.0172 9.88647 21.8356ZM15.86 20.3806L16.6232 19.0466Q16.732 18.8583 16.6871 18.6727Q16.6422 18.4871 16.4667 18.3777Q16.2904 18.2779 16.1063 18.3342Q15.9222 18.3905 15.8134 18.5721L15.0435 19.9261Q14.9445 20.101 14.986 20.2866Q15.0276 20.4723 15.2069 20.575Q15.3824 20.6709 15.5683 20.6165Q15.7542 20.5621 15.86 20.3806ZM4.09988 23.0701Q4.49936 23.0701 4.7876 22.7769Q5.07584 22.4837 5.07584 22.0776Q5.07584 21.6818 4.78912 21.3905Q4.50241 21.0992 4.09988 21.0992Q3.6908 21.0992 3.40096 21.3905Q3.11111 21.6818 3.11111 22.0776Q3.11111 22.4837 3.40096 22.7769Q3.6908 23.0701 4.09988 23.0701ZM8.36075 24.5673Q8.76389 24.5673 9.05365 24.2725Q9.34341 23.9778 9.34341 23.5785Q9.34341 23.179 9.05518 22.8877Q8.76694 22.5964 8.36075 22.5964Q7.95532 22.5964 7.66548 22.8877Q7.37564 23.179 7.37564 23.5785Q7.37564 23.9778 7.66548 24.2725Q7.95532 24.5673 8.36075 24.5673ZM14.3343 23.1091Q14.7337 23.1091 15.022 22.8145Q15.3102 22.5198 15.3102 22.1167Q15.3102 21.7209 15.0235 21.4262Q14.7368 21.1316 14.3343 21.1316Q13.9252 21.1316 13.6338 21.4262Q13.3424 21.7209 13.3424 22.1167Q13.3424 22.5198 13.6338 22.8145Q13.9252 23.1091 14.3343 23.1091Z"
                     fill="#ffffff" />
              <path d="M4.45663 16.7624L16.6425 16.7624Q17.8163 16.7624 18.8171 16.3531Q19.818 15.9438 20.5627 15.2148Q21.3074 14.4859 21.7194 13.5189Q22.1315 12.5519 22.1315 11.45Q22.1315 10.3114 21.6947 9.35425Q21.2579 8.39706 20.4742 7.68768Q19.6904 6.9783 18.6441 6.58852Q17.5978 6.19873 16.3788 6.19873Q15.7733 4.97635 14.846 4.06761Q13.9188 3.15887 12.7191 2.66151Q11.5195 2.16415 10.0702 2.16415Q8.7204 2.16415 7.52579 2.66708Q6.33118 3.17001 5.39383 4.06021Q4.45648 4.95041 3.87772 6.13052Q3.29895 7.31064 3.18176 8.67111Q2.28409 8.91891 1.56433 9.48486Q0.844574 10.0508 0.422287 10.8688Q0 11.6867 0 12.7159Q0 13.8258 0.526886 14.7477Q1.05377 15.6696 2.04887 16.216Q3.04398 16.7624 4.45663 16.7624Z"
                     fill="#ffffff" />
       </g>
</svg>