<svg width="25.2556" height="16.7745">
       <g>
              <rect height="16.7745" opacity="0" width="25.2556" x="0" y="0" />
              <path d="M20.3166 11.2257Q21.5501 11.0122 22.4761 10.4965Q23.4021 9.98074 24.0214 9.32019Q24.6407 8.65964 24.9481 7.98764Q25.2556 7.31564 25.2556 6.78281Q25.2556 6.55103 25.1487 6.4018Q25.0418 6.25257 24.8407 6.25257Q24.6359 6.25257 24.2979 6.38913Q23.9598 6.5257 23.4858 6.66043Q23.0118 6.79517 22.4046 6.79517Q21.1859 6.79517 20.2877 6.32779Q19.3895 5.86041 18.8976 5.01622Q18.4058 4.17203 18.4058 3.04868Q18.4058 2.41864 18.56 1.91129Q18.7143 1.40393 18.8686 1.02628Q19.0228 0.648622 19.0228 0.434084Q19.0228 0.220918 18.8821 0.102357Q18.7413-0.0162033 18.4604 0.002565Q17.7049 0.0681778 16.9849 0.476808Q16.265 0.885439 15.6648 1.55683Q15.0647 2.22821 14.6539 3.07416Q14.2432 3.92011 14.0993 4.8573Q14.2906 5.05033 14.4676 5.30393Q14.6446 5.55753 14.7969 5.88681Q15.9758 5.97547 16.9656 6.41309Q17.9553 6.85071 18.6935 7.56925Q19.4318 8.28778 19.8539 9.21895Q20.276 10.1501 20.3166 11.2257Z"
                     fill="#ffffff" />
              <path d="M3.90137 16.1076L14.5284 16.1076Q15.8757 16.1076 16.9617 15.4876Q18.0478 14.8677 18.687 13.817Q19.3262 12.7662 19.3262 11.4573Q19.3262 10.149 18.6708 9.11145Q18.0154 8.07385 16.8794 7.47342Q15.7434 6.87299 14.3156 6.86933Q13.7303 5.74521 12.8917 4.96167Q12.0531 4.17813 11.0187 3.76645Q9.98428 3.35477 8.80569 3.35477Q7.63855 3.35477 6.5934 3.78781Q5.54825 4.22086 4.72809 4.99234Q3.90793 5.76383 3.39912 6.79746Q2.89032 7.83109 2.78214 9.02921Q1.51169 9.38519 0.755844 10.3405Q0 11.2959 0 12.5578Q0 13.6128 0.494537 14.4096Q0.989075 15.2064 1.8689 15.657Q2.74872 16.1076 3.90137 16.1076Z"
                     fill="#ffffff" />
       </g>
</svg>