<svg width="22.1315" height="22.33">
       <g>
              <rect height="22.33" opacity="0" width="22.1315" x="0" y="0" />
              <path d="M17.6309 18.0365L4.69574 18.0365Q4.49036 18.0365 4.34296 18.176Q4.19556 18.3154 4.19556 18.5246Q4.19556 18.7338 4.34296 18.8718Q4.49036 19.0097 4.69574 19.0097L17.6309 19.0097Q17.8432 19.0097 17.9871 18.8718Q18.1311 18.7338 18.1311 18.5246Q18.1311 18.3154 17.9871 18.176Q17.8432 18.0365 17.6309 18.0365ZM17.6309 21.3501L4.69574 21.3501Q4.49036 21.3501 4.34296 21.488Q4.19556 21.626 4.19556 21.8352Q4.19556 22.0444 4.34296 22.1872Q4.49036 22.33 4.69574 22.33L17.6309 22.33Q17.8432 22.33 17.9871 22.1872Q18.1311 22.0444 18.1311 21.8352Q18.1311 21.626 17.9871 21.488Q17.8432 21.3501 17.6309 21.3501Z"
                     fill="#ffffff" />
              <path d="M4.45663 15.6438L16.6425 15.6438Q17.8163 15.6438 18.8171 15.2345Q19.818 14.8251 20.5627 14.0962Q21.3074 13.3673 21.7194 12.4003Q22.1315 11.4333 22.1315 10.3314Q22.1315 9.19281 21.6947 8.23563Q21.2579 7.27844 20.4742 6.56906Q19.6904 5.85968 18.6441 5.46989Q17.5978 5.08011 16.3788 5.08011Q15.7733 3.85773 14.846 2.94899Q13.9188 2.04025 12.7191 1.54289Q11.5195 1.04553 10.0702 1.04553Q8.7204 1.04553 7.52579 1.54846Q6.33118 2.05139 5.39383 2.94159Q4.45648 3.83179 3.87772 5.0119Q3.29895 6.19202 3.18176 7.55249Q2.28409 7.80029 1.56433 8.36624Q0.844574 8.93219 0.422287 9.75014Q0 10.5681 0 11.5973Q0 12.7072 0.526886 13.6291Q1.05377 14.5509 2.04887 15.0974Q3.04398 15.6438 4.45663 15.6438Z"
                     fill="#ffffff" />
       </g>
</svg>