<svg width="25.3879" height="17.2067">
       <g>
              <rect height="17.2067" opacity="0" width="25.3879" x="0" y="0" />
              <path d="M18.9066 11.5378Q20.0427 11.5872 20.9795 11.3694Q21.9164 11.1516 22.6535 10.7418Q23.3907 10.332 23.9278 9.8101Q24.465 9.28817 24.8135 8.72382Q25.1619 8.15948 25.3175 7.63503Q25.4799 7.18825 25.2677 6.85561Q25.0555 6.52297 24.6187 6.52297Q24.2307 6.52297 23.7443 6.67419Q23.2579 6.8254 22.4281 6.8254Q21.1722 6.8254 20.3017 6.36283Q19.4312 5.90026 18.9739 5.0637Q18.5167 4.22713 18.5167 3.08822Q18.5167 2.46795 18.6152 2.05695Q18.7137 1.64596 18.8103 1.35314Q18.9069 1.06032 18.9069 0.802146Q18.9069 0.320731 18.5512 0.116416Q18.1955-0.087899 17.675 0.0663674Q16.9945 0.256797 16.3116 0.719062Q15.6288 1.18133 15.0682 1.87438Q14.5076 2.56744 14.1637 3.47076Q13.8197 4.37408 13.8197 5.45623Q13.8197 6.05239 13.9278 6.63497Q14.0359 7.21755 14.2461 7.76717L15.4675 7.70156Q14.9313 6.68044 14.9313 5.42327Q14.9313 4.58388 15.1808 3.89381Q15.4303 3.20373 15.8444 2.67554Q16.2585 2.14736 16.7506 1.77695Q17.2426 1.40655 17.7182 1.21246L17.7983 1.27547Q17.6569 1.62398 17.541 2.13912Q17.4252 2.65426 17.4252 3.28124Q17.4252 4.64812 18.0339 5.68687Q18.6426 6.72561 19.7204 7.31109Q20.7982 7.89657 22.2083 7.89657Q22.7348 7.89657 23.2456 7.80936Q23.7564 7.72216 24.1496 7.58376L24.209 7.64068Q24.0344 8.07845 23.6212 8.59038Q23.208 9.10232 22.5537 9.54543Q21.8994 9.98855 20.9882 10.2403Q20.0771 10.4921 18.9066 10.4291Z"
                     fill="rgba(255,255,255,0.55)" />
              <path d="M3.99231 16.4213L14.6193 16.4213Q15.999 16.4213 17.1046 15.7901Q18.2101 15.1588 18.8625 14.0852Q19.5148 13.0116 19.5148 11.6801Q19.5148 10.3554 18.8496 9.29977Q18.1845 8.24416 17.0436 7.62908Q15.9027 7.014 14.4652 6.99752Q13.6118 5.38009 12.1806 4.43153Q10.7494 3.48296 8.89664 3.48296Q7.70996 3.48296 6.65352 3.92089Q5.59708 4.35882 4.76868 5.13671Q3.94028 5.9146 3.42171 6.94823Q2.90314 7.98186 2.78519 9.17998Q1.57059 9.53658 0.785294 10.4945Q0 11.4525 0 12.7934Q0 13.8235 0.491867 14.6463Q0.983734 15.469 1.88156 15.9452Q2.77939 16.4213 3.99231 16.4213ZM3.96545 15.2342Q3.06564 15.2342 2.44629 14.908Q1.82693 14.5817 1.50703 14.034Q1.18713 13.4863 1.18713 12.8174Q1.18713 11.927 1.74133 11.2439Q2.29553 10.5608 3.40378 10.2563Q3.69781 10.1805 3.82195 10.0313Q3.94608 9.88204 3.96927 9.58663Q4.05121 8.53698 4.46785 7.64098Q4.88449 6.74499 5.55748 6.08176Q6.23047 5.41854 7.08824 5.04768Q7.94601 4.67681 8.89664 4.67681Q9.9408 4.67681 10.8006 5.05157Q11.6605 5.42632 12.324 6.10381Q12.9875 6.7813 13.4465 7.69256Q13.5785 7.95653 13.7552 8.06235Q13.9319 8.16817 14.2424 8.16817Q15.49 8.16817 16.4086 8.64799Q17.3273 9.1278 17.8241 9.93644Q18.3209 10.7451 18.3209 11.7198Q18.3209 12.6916 17.8339 13.4868Q17.3468 14.2819 16.5114 14.7581Q15.676 15.2342 14.6365 15.2342Z"
                     fill="rgba(255,255,255,0.55)" />
       </g>
</svg>