<svg width="28.1459" height="22.3935">
       <g>
              <rect height="22.3935" opacity="0" width="28.1459" x="0" y="0" />
              <path d="M18.1625 6.36459Q19.1801 6.36459 19.9982 6.84563Q20.8163 7.32666 21.2992 8.15147Q21.7821 8.97629 21.7821 9.99374Q21.7821 10.8228 21.4411 11.5474Q21.1002 12.272 20.5025 12.7993Q19.9048 13.3266 19.1231 13.5693L19.1449 14.7079Q20.2333 14.4487 21.0775 13.7633Q21.9217 13.0779 22.4043 12.0984Q22.887 11.1189 22.887 9.99374Q22.887 8.67645 22.2545 7.60048Q21.622 6.52451 20.5476 5.88722Q19.4733 5.24994 18.1625 5.24994Q16.8452 5.24994 15.7726 5.88722Q14.7 6.52451 14.0643 7.60048Q13.4285 8.67645 13.4285 9.99374Q13.4285 10.0575 13.4352 10.1196Q13.4419 10.1817 13.4419 10.2455L14.5805 10.3429Q14.5604 10.2589 14.5502 10.1717Q14.5401 10.0844 14.5401 9.99374Q14.5401 8.97629 15.0245 8.15147Q15.5089 7.32666 16.3269 6.84563Q17.1449 6.36459 18.1625 6.36459ZM12.7831 5.48203Q12.9666 5.65903 13.2252 5.65903Q13.4837 5.65903 13.6539 5.48203Q13.824 5.30518 13.8274 5.05005Q13.8307 4.79492 13.6539 4.62479L11.9653 2.92953Q11.7854 2.74963 11.5351 2.75108Q11.2848 2.75253 11.1079 2.92953Q10.9311 3.10928 10.9262 3.36296Q10.9213 3.61664 11.1079 3.79654ZM18.1656 3.60031Q18.4158 3.60031 18.5991 3.41522Q18.7823 3.23013 18.7823 2.9866L18.7823 0.613861Q18.7823 0.360565 18.5991 0.180283Q18.4158 0 18.1656 0Q17.9153 0 17.7321 0.180283Q17.5488 0.360565 17.5488 0.613861L17.5488 2.9866Q17.5488 3.23013 17.7321 3.41522Q17.9153 3.60031 18.1656 3.60031ZM22.6773 5.48203Q22.8474 5.65903 23.1094 5.65903Q23.3713 5.65903 23.5481 5.48203L25.2299 3.79654Q25.4099 3.61664 25.4083 3.36296Q25.4068 3.10928 25.2299 2.92953Q25.0531 2.75253 24.8028 2.75108Q24.5525 2.74963 24.3726 2.92953L22.6773 4.62479Q22.5005 4.79492 22.5038 5.05005Q22.5072 5.30518 22.6773 5.48203ZM25.1503 10.6076L27.5389 10.6076Q27.7922 10.6076 27.9691 10.4274Q28.1459 10.2472 28.1459 9.99374Q28.1459 9.73679 27.9691 9.55994Q27.7922 9.38309 27.5389 9.38309L25.1503 9.38309Q24.9068 9.38309 24.7231 9.55994Q24.5395 9.73679 24.5395 9.99374Q24.5395 10.2472 24.7231 10.4274Q24.9068 10.6076 25.1503 10.6076ZM24.3726 17.0709Q24.5525 17.2508 24.8028 17.2426Q25.0531 17.2343 25.2299 17.0642Q25.4068 16.8874 25.4083 16.6337Q25.4099 16.38 25.2299 16.1972L23.5347 14.5183Q23.3578 14.3481 23.106 14.3448Q22.8542 14.3414 22.6773 14.5183Q22.5005 14.6951 22.5005 14.9503Q22.5005 15.2055 22.6773 15.3824Z"
                     fill="rgba(255,255,255,0.55)" />
              <path d="M3.99231 19.548L14.6193 19.548Q15.999 19.548 17.1046 18.9201Q18.2101 18.2922 18.8625 17.2172Q19.5148 16.1421 19.5148 14.8105Q19.5148 13.4857 18.8496 12.4301Q18.1845 11.3745 17.0436 10.7594Q15.9027 10.1443 14.4652 10.1279Q13.6118 8.51349 12.1806 7.5634Q10.7494 6.61331 8.89664 6.61331Q7.70996 6.61331 6.65352 7.04941Q5.59708 7.4855 4.76868 8.26523Q3.94028 9.04495 3.42171 10.0786Q2.90314 11.1122 2.78519 12.3105Q1.57059 12.6671 0.785294 13.625Q0 14.5828 0 15.9171Q0 16.954 0.491867 17.7767Q0.983734 18.5994 1.88156 19.0737Q2.77939 19.548 3.99231 19.548ZM3.96545 18.3578Q3.06564 18.3578 2.44629 18.035Q1.82693 17.7121 1.50703 17.1645Q1.18713 16.6168 1.18713 15.9441Q1.18713 15.0575 1.74133 14.3743Q2.29553 13.6911 3.40378 13.3867Q3.69781 13.3041 3.82195 13.1583Q3.94608 13.0125 3.96927 12.7171Q4.05121 11.6705 4.46785 10.7729Q4.88449 9.87534 5.55748 9.21219Q6.23047 8.54904 7.08824 8.17627Q7.94601 7.8035 8.89664 7.8035Q9.9408 7.8035 10.8006 8.17673Q11.6605 8.54996 12.324 9.23233Q12.9875 9.9147 13.4465 10.826Q13.5785 11.087 13.7552 11.1909Q13.9319 11.2949 14.2424 11.2949Q15.49 11.2949 16.4086 11.7765Q17.3273 12.2581 17.8241 13.0634Q18.3209 13.8687 18.3209 14.8465Q18.3209 15.822 17.8339 16.6187Q17.3468 17.4155 16.5114 17.8867Q15.676 18.3578 14.6365 18.3578Z"
                     fill="rgba(255,255,255,0.55)" />
       </g>
</svg>