<svg width="25.3879" height="25.7957">
       <g>
              <rect height="25.7957" opacity="0" width="25.3879" x="0" y="0" />
              <path d="M3.71735 22.7955L5.09277 20.4099Q5.20844 20.2216 5.15854 20.036Q5.10864 19.8504 4.93622 19.7477Q4.75998 19.6479 4.57932 19.7008Q4.39865 19.7538 4.28314 19.9419L2.90085 22.341Q2.79205 22.5159 2.83707 22.7015Q2.88208 22.8872 3.06122 22.9898Q3.24341 23.0858 3.42751 23.0314Q3.6116 22.977 3.71735 22.7955ZM6.78909 25.5336L8.16467 23.1546Q8.28018 22.9663 8.23181 22.7808Q8.18344 22.5953 8.00797 22.4924Q7.83188 22.3861 7.65114 22.4423Q7.4704 22.4985 7.35489 22.6899L5.9726 25.0792Q5.86685 25.2637 5.91034 25.4445Q5.95383 25.6252 6.13602 25.7279Q6.31516 25.8306 6.49925 25.7777Q6.68335 25.7248 6.78909 25.5336ZM11.4908 22.7887L12.8662 20.4032Q12.975 20.2149 12.9301 20.0293Q12.8851 19.8436 12.7029 19.7409Q12.5334 19.6412 12.3494 19.694Q12.1654 19.7469 12.0566 19.9352L10.6743 22.3343Q10.5685 22.5092 10.6135 22.6947Q10.6584 22.8803 10.8377 22.9831Q11.0101 23.0791 11.1976 23.0247Q11.385 22.9703 11.4908 22.7887ZM14.5589 25.5268L15.9412 23.151Q16.0498 22.9596 16.0033 22.7755Q15.9569 22.5914 15.7777 22.4887Q15.5984 22.3822 15.4193 22.437Q15.2402 22.4918 15.1216 22.6831L13.7393 25.0725Q13.6403 25.257 13.6853 25.4377Q13.7303 25.6185 13.9095 25.7212Q14.0849 25.8269 14.2709 25.7725Q14.4568 25.7181 14.5589 25.5268Z"
                     fill="rgba(255,255,255,0.55)" />
              <path d="M18.9066 13.2525Q20.0427 13.3086 20.9795 13.0923Q21.9164 12.876 22.6535 12.4662Q23.3907 12.0565 23.9278 11.5331Q24.465 11.0097 24.8135 10.4453Q25.1619 9.88087 25.3175 9.35642Q25.4799 8.9098 25.2677 8.57708Q25.0555 8.24436 24.6187 8.24436Q24.2307 8.24436 23.7443 8.39558Q23.2579 8.54679 22.4281 8.54679Q21.1722 8.54679 20.3017 8.0843Q19.4312 7.62181 18.9739 6.78517Q18.5167 5.94853 18.5167 4.80961Q18.5167 4.18949 18.6152 3.7785Q18.7137 3.3675 18.8103 3.07469Q18.9069 2.78187 18.9069 2.52659Q18.9069 2.04212 18.5512 1.83933Q18.1955 1.63655 17.675 1.79096Q16.9945 1.98124 16.3116 2.43862Q15.6288 2.89601 15.0682 3.59242Q14.5076 4.28883 14.1637 5.19367Q13.8197 6.09852 13.8197 7.17777Q13.8197 7.77683 13.9278 8.35949Q14.0359 8.94215 14.2461 9.49162L15.4675 9.42311Q14.9313 8.40199 14.9313 7.14466Q14.9313 6.30833 15.1808 5.61825Q15.4303 4.92817 15.8444 4.39511Q16.2585 3.86204 16.7506 3.49652Q17.2426 3.13099 17.7182 2.93385L17.7983 2.99687Q17.6569 3.34843 17.541 3.86212Q17.4252 4.3758 17.4252 5.00569Q17.4252 6.37257 18.0339 7.40978Q18.6426 8.447 19.7204 9.03248Q20.7982 9.61796 22.2083 9.61796Q22.7348 9.61796 23.2456 9.53076Q23.7564 9.44355 24.1496 9.30516L24.209 9.36207Q24.0344 9.8029 23.6212 10.3134Q23.208 10.8239 22.5537 11.2669Q21.8994 11.7099 20.9882 11.9618Q20.0771 12.2136 18.9066 12.1506Z"
                     fill="rgba(255,255,255,0.55)" />
              <path d="M3.99231 18.1458L14.6193 18.1458Q15.999 18.1458 17.1046 17.5145Q18.2101 16.8833 18.8625 15.8082Q19.5148 14.7332 19.5148 13.4015Q19.5148 12.0768 18.8496 11.0212Q18.1845 9.96556 17.0436 9.35047Q15.9027 8.73539 14.4652 8.71891Q13.6118 7.10453 12.1806 6.15444Q10.7494 5.20436 8.89664 5.20436Q7.70996 5.20436 6.65352 5.64045Q5.59708 6.07655 4.76868 6.85627Q3.94028 7.636 3.42171 8.66963Q2.90314 9.70326 2.78519 10.9014Q1.57059 11.2581 0.785294 12.216Q0 13.1739 0 14.5148Q0 15.5449 0.491867 16.3677Q0.983734 17.1904 1.88156 17.6681Q2.77939 18.1458 3.99231 18.1458ZM3.96545 16.9556Q3.06564 16.9556 2.44629 16.6294Q1.82693 16.3031 1.50703 15.7555Q1.18713 15.2079 1.18713 14.5418Q1.18713 13.6486 1.74133 12.9654Q2.29553 12.2821 3.40378 11.9777Q3.69781 11.8952 3.82195 11.7493Q3.94608 11.6034 3.96927 11.308Q4.05121 10.2616 4.46785 9.36398Q4.88449 8.46638 5.55748 7.80323Q6.23047 7.14009 7.08824 6.76731Q7.94601 6.39454 8.89664 6.39454Q9.9408 6.39454 10.8006 6.76777Q11.6605 7.141 12.324 7.82337Q12.9875 8.50575 13.4465 9.417Q13.5785 9.67808 13.7552 9.78535Q13.9319 9.89262 14.2424 9.89262Q15.49 9.89262 16.4086 10.3709Q17.3273 10.8492 17.8241 11.6545Q18.3209 12.4598 18.3209 13.4443Q18.3209 14.413 17.8339 15.2082Q17.3468 16.0035 16.5114 16.4795Q15.676 16.9556 14.6365 16.9556Z"
                     fill="rgba(255,255,255,0.55)" />
       </g>
</svg>