<svg width="22.1315" height="24.2861">
       <g>
              <rect height="24.2861" opacity="0" width="22.1315" x="0" y="0" />
              <path d="M4.54102 21.2617L5.91644 18.876Q6.0321 18.6878 5.98221 18.5022Q5.93231 18.3166 5.75989 18.2139Q5.5806 18.1141 5.40146 18.167Q5.22232 18.2199 5.10376 18.4081L3.72147 20.8073Q3.61572 20.9822 3.66066 21.1677Q3.7056 21.3532 3.8916 21.4561Q4.06708 21.5521 4.25301 21.4977Q4.43893 21.4433 4.54102 21.2617ZM6.82846 24.0328L9.81232 18.8662Q9.92111 18.6817 9.87465 18.501Q9.82819 18.3203 9.66248 18.2176Q9.4899 18.1178 9.30397 18.1658Q9.11804 18.2139 9.0062 18.4051L6.03897 23.5612Q5.93323 23.7495 5.97816 23.9351Q6.0231 24.1207 6.19568 24.2234Q6.3681 24.3194 6.54541 24.2684Q6.72272 24.2173 6.82846 24.0328ZM12.3145 21.255L13.6899 18.8693Q13.8055 18.681 13.7572 18.4954Q13.7088 18.3099 13.5266 18.207Q13.3571 18.1074 13.173 18.1603Q12.9889 18.2131 12.8802 18.4014L11.498 20.8006Q11.3922 20.9754 11.4371 21.161Q11.4821 21.3465 11.6614 21.4492Q11.8338 21.5454 12.0213 21.491Q12.2087 21.4366 12.3145 21.255ZM14.5982 24.029L17.5858 18.8595Q17.6976 18.675 17.6511 18.4943Q17.6045 18.3135 17.429 18.2109Q17.2664 18.1111 17.0789 18.159Q16.8915 18.207 16.7827 18.3984L13.8087 23.5545Q13.7 23.7428 13.7449 23.9283Q13.7898 24.1139 13.9622 24.2167Q14.1377 24.3127 14.3151 24.2616Q14.4925 24.2106 14.5982 24.029Z"
                     fill="#5ac8f5" />
              <path d="M4.45663 16.6218L16.6425 16.6218Q17.8163 16.6218 18.8171 16.2125Q19.818 15.8032 20.5627 15.0743Q21.3074 14.3453 21.7194 13.3783Q22.1315 12.4113 22.1315 11.3095Q22.1315 10.1708 21.6947 9.21366Q21.2579 8.25647 20.4742 7.54709Q19.6904 6.83771 18.6441 6.44793Q17.5978 6.05814 16.3788 6.05814Q15.7733 4.83576 14.846 3.92702Q13.9188 3.01828 12.7191 2.52092Q11.5195 2.02356 10.0702 2.02356Q8.7204 2.02356 7.52579 2.52649Q6.33118 3.02942 5.39383 3.91962Q4.45648 4.80982 3.87772 5.98993Q3.29895 7.17005 3.18176 8.53052Q2.28409 8.77832 1.56433 9.34427Q0.844574 9.91022 0.422287 10.7282Q0 11.5461 0 12.5753Q0 13.6852 0.526886 14.6071Q1.05377 15.529 2.04887 16.0754Q3.04398 16.6218 4.45663 16.6218Z"
                     fill="#ffffff" />
       </g>
</svg>