<svg width="25.3879" height="26.7396">
       <g>
              <rect height="26.7396" opacity="0" width="25.3879" x="0" y="0" />
              <path d="M18.9066 13.7244Q20.0427 13.7806 20.9795 13.5643Q21.9164 13.348 22.6535 12.9382Q23.3907 12.5284 23.9278 12.0051Q24.465 11.4817 24.8135 10.9173Q25.1619 10.3528 25.3175 9.8284Q25.4799 9.38178 25.2677 9.04906Q25.0555 8.71634 24.6187 8.71634Q24.2307 8.71634 23.7443 8.86756Q23.2579 9.01877 22.4281 9.01877Q21.1722 9.01877 20.3017 8.55628Q19.4312 8.09378 18.9739 7.25715Q18.5167 6.42051 18.5167 5.28159Q18.5167 4.66147 18.6152 4.25048Q18.7137 3.83948 18.8103 3.54667Q18.9069 3.25385 18.9069 2.99857Q18.9069 2.5141 18.5512 2.31131Q18.1955 2.10852 17.675 2.26294Q16.9945 2.45322 16.3116 2.9106Q15.6288 3.36799 15.0682 4.0644Q14.5076 4.76081 14.1637 5.66565Q13.8197 6.5705 13.8197 7.64975Q13.8197 8.24881 13.9278 8.83147Q14.0359 9.41413 14.2461 9.9636L15.4675 9.89508Q14.9313 8.87397 14.9313 7.61664Q14.9313 6.78031 15.1808 6.09023Q15.4303 5.40015 15.8444 4.86708Q16.2585 4.33402 16.7506 3.96849Q17.2426 3.60297 17.7182 3.40583L17.7983 3.46885Q17.6569 3.82041 17.541 4.3341Q17.4252 4.84778 17.4252 5.47767Q17.4252 6.84455 18.0339 7.88176Q18.6426 8.91898 19.7204 9.50446Q20.7982 10.0899 22.2083 10.0899Q22.7348 10.0899 23.2456 10.0027Q23.7564 9.91553 24.1496 9.77713L24.209 9.83405Q24.0344 10.2749 23.6212 10.7854Q23.208 11.2958 22.5537 11.7389Q21.8994 12.1819 20.9882 12.4338Q20.0771 12.6856 18.9066 12.6226Z"
                     fill="rgba(255,255,255,0.55)" />
              <path d="M3.99231 18.6178L14.6193 18.6178Q15.999 18.6178 17.1046 17.9865Q18.2101 17.3553 18.8625 16.2802Q19.5148 15.2051 19.5148 13.8735Q19.5148 12.5487 18.8496 11.4931Q18.1845 10.4375 17.0436 9.82245Q15.9027 9.20737 14.4652 9.19089Q13.6118 7.57651 12.1806 6.62642Q10.7494 5.67633 8.89664 5.67633Q7.70996 5.67633 6.65352 6.11243Q5.59708 6.54853 4.76868 7.32825Q3.94028 8.10798 3.42171 9.14161Q2.90314 10.1752 2.78519 11.3734Q1.57059 11.7301 0.785294 12.688Q0 13.6458 0 14.9868Q0 16.0169 0.491867 16.8397Q0.983734 17.6624 1.88156 18.1401Q2.77939 18.6178 3.99231 18.6178ZM3.96545 17.4276Q3.06564 17.4276 2.44629 17.1014Q1.82693 16.7751 1.50703 16.2275Q1.18713 15.6798 1.18713 15.0138Q1.18713 14.1205 1.74133 13.4373Q2.29553 12.7541 3.40378 12.4497Q3.69781 12.3672 3.82195 12.2213Q3.94608 12.0754 3.96927 11.78Q4.05121 10.7336 4.46785 9.83596Q4.88449 8.93836 5.55748 8.27521Q6.23047 7.61206 7.08824 7.23929Q7.94601 6.86652 8.89664 6.86652Q9.9408 6.86652 10.8006 7.23975Q11.6605 7.61298 12.324 8.29535Q12.9875 8.97773 13.4465 9.88898Q13.5785 10.1501 13.7552 10.2573Q13.9319 10.3646 14.2424 10.3646Q15.49 10.3646 16.4086 10.8429Q17.3273 11.3212 17.8241 12.1265Q18.3209 12.9317 18.3209 13.9162Q18.3209 14.885 17.8339 15.6802Q17.3468 16.4754 16.5114 16.9515Q15.676 17.4276 14.6365 17.4276ZM11.7392 22.2013L9.72168 22.2013L9.75662 22.5637L10.9062 20.3931Q10.9843 20.2369 10.9306 20.1298Q10.8769 20.0226 10.7079 20.0226L9.1452 20.0226Q8.94379 20.0226 8.85292 20.0974Q8.76205 20.1722 8.6937 20.3217L7.47391 23.0999Q7.39578 23.278 7.47658 23.3805Q7.55737 23.483 7.73987 23.483L9.35471 23.483L9.47495 22.9046L8.00873 26.4408Q7.91779 26.6579 8.07343 26.7234Q8.23196 26.7849 8.3725 26.6135L11.913 22.6639Q12.0473 22.5016 11.9958 22.3514Q11.9443 22.2013 11.7392 22.2013Z"
                     fill="rgba(255,255,255,0.55)" />
       </g>
</svg>