<svg width="28.019" height="27.4589">
       <g>
              <rect height="27.4589" opacity="0" width="28.019" x="0" y="0" />
              <path d="M3.8887 19.6902L14.5155 19.6902Q15.863 19.6902 16.949 19.0735Q18.035 18.4569 18.6742 17.4029Q19.3134 16.3488 19.3134 15.0466Q19.3134 13.7383 18.6581 12.7007Q18.0028 11.6631 16.8667 11.0593Q15.7306 10.4555 14.3028 10.4519Q13.7175 9.33447 12.8789 8.55094Q12.0403 7.7674 11.0059 7.35571Q9.97162 6.94403 8.79288 6.94403Q7.62573 6.94403 6.58401 7.37372Q5.5423 7.80341 4.71878 8.57825Q3.89526 9.35309 3.38638 10.3834Q2.8775 11.4136 2.77618 12.6118Q1.49887 12.9677 0.749435 13.9265Q0 14.8852 0 16.1471Q0 17.1953 0.489655 17.9955Q0.979309 18.7957 1.8576 19.2429Q2.7359 19.6902 3.8887 19.6902Z"
                     fill="#ffffff" />
              <path d="M20.3062 14.4623Q21.4319 13.7662 22.0959 12.6736Q22.76 11.5809 22.76 10.2433Q22.76 8.92294 22.1275 7.84697Q21.4951 6.771 20.4207 6.13524Q19.3463 5.49948 18.0356 5.49948Q16.6409 5.49948 15.5263 6.22Q14.4116 6.94052 13.8577 8.10187Q14.1574 8.42658 14.4165 8.78111Q14.6756 9.13565 14.8912 9.54718Q16.442 9.66513 17.6008 10.3166Q18.7596 10.9681 19.454 12.0339Q20.1483 13.0997 20.3062 14.4623ZM12.6561 5.73157Q12.8397 5.90842 13.0982 5.90842Q13.3568 5.90842 13.5269 5.73157Q13.6971 5.55472 13.7004 5.29959Q13.7038 5.04447 13.5269 4.86762L11.8384 3.17893Q11.6585 2.99903 11.4082 3.00055Q11.1578 3.00208 10.981 3.17893Q10.8041 3.35578 10.7993 3.60945Q10.7944 3.86313 10.981 4.04303ZM18.0386 3.8468Q18.2889 3.8468 18.4721 3.66171Q18.6554 3.47663 18.6554 3.23615L18.6554 0.860353Q18.6554 0.603243 18.4721 0.426393Q18.2889 0.249544 18.0386 0.249544Q17.7884 0.249544 17.6051 0.426393Q17.4219 0.603243 17.4219 0.860353L17.4219 3.23615Q17.4219 3.47663 17.6051 3.66171Q17.7884 3.8468 18.0386 3.8468ZM22.5504 5.73157Q22.7205 5.90842 22.9824 5.90842Q23.2443 5.90842 23.4212 5.73157L25.103 4.04303Q25.2829 3.86313 25.2814 3.60945Q25.2798 3.35578 25.103 3.17893Q24.9261 3.00208 24.6758 3.00055Q24.4255 2.99903 24.2456 3.17893L22.5504 4.86762Q22.3735 5.04447 22.3769 5.29959Q22.3802 5.55472 22.5504 5.73157ZM25.0233 10.8541L27.412 10.8541Q27.6653 10.8541 27.8421 10.6739Q28.019 10.4937 28.019 10.2433Q28.019 9.98633 27.8421 9.80948Q27.6653 9.63263 27.412 9.63263L25.0233 9.63263Q24.7798 9.63263 24.5962 9.80948Q24.4125 9.98633 24.4125 10.2433Q24.4125 10.4937 24.5962 10.6739Q24.7798 10.8541 25.0233 10.8541ZM24.2456 17.3107Q24.4255 17.4973 24.6758 17.4891Q24.9261 17.4808 25.103 17.304Q25.2798 17.1339 25.2814 16.8802Q25.2829 16.6265 25.103 16.4466L23.4077 14.7648Q23.2309 14.5946 22.979 14.5913Q22.7272 14.5879 22.5504 14.7648Q22.3735 14.9416 22.3735 15.1968Q22.3735 15.452 22.5504 15.6289Z"
                     fill="#ffd60a" />
              <path d="M3.65479 24.4576L5.03021 22.0751Q5.14572 21.8838 5.0959 21.6997Q5.04608 21.5156 4.87366 21.4129Q4.69742 21.3131 4.51668 21.3645Q4.33594 21.4159 4.22043 21.6073L2.83829 23.9965Q2.72949 24.1811 2.77443 24.3633Q2.81937 24.5455 2.99866 24.6551Q3.18085 24.751 3.36494 24.6966Q3.54904 24.6422 3.65479 24.4576ZM6.72653 27.1989L8.10196 24.8199Q8.21762 24.6316 8.16925 24.446Q8.12088 24.2605 7.9454 24.1509Q7.76917 24.0513 7.5885 24.1041Q7.40784 24.157 7.29233 24.3453L5.91003 26.7444Q5.80429 26.9192 5.8477 27.1048Q5.89111 27.2904 6.07346 27.3931Q6.25259 27.4959 6.43669 27.4381Q6.62079 27.3803 6.72653 27.1989ZM11.4282 24.4509L12.8036 22.0684Q12.9155 21.877 12.869 21.6929Q12.8226 21.5089 12.6404 21.4062Q12.4709 21.3064 12.2868 21.3592Q12.1027 21.4121 11.9939 21.6004L10.6117 23.9898Q10.506 24.1744 10.5509 24.3566Q10.5959 24.5388 10.7751 24.6483Q10.9476 24.7443 11.135 24.6899Q11.3225 24.6355 11.4282 24.4509ZM14.4963 27.192L15.8784 24.8131Q15.9872 24.6248 15.9408 24.4393Q15.8943 24.2538 15.7152 24.1442Q15.5389 24.0446 15.3582 24.0974Q15.1775 24.1503 15.062 24.3386L13.6768 26.7377Q13.5777 26.9124 13.6227 27.0981Q13.6676 27.2837 13.8469 27.3864Q14.0224 27.4891 14.2083 27.4313Q14.3942 27.3736 14.4963 27.192Z"
                     fill="#5ac8f5" />
       </g>
</svg>