<svg width="22.1315" height="26.4973">
       <g>
              <rect height="26.4973" opacity="0" width="22.1315" x="0" y="0" />
              <path d="M2.55798 22.5344Q2.73346 22.6402 2.91939 22.5824Q3.10532 22.5246 3.21106 22.34L4.58954 19.9642Q4.69833 19.7729 4.65187 19.5888Q4.60541 19.4047 4.42612 19.2953Q4.25369 19.1955 4.0696 19.2469Q3.8855 19.2983 3.7767 19.4895L2.39456 21.8858Q2.28882 22.0635 2.33376 22.2476Q2.37869 22.4317 2.55798 22.5344ZM4.48273 25.2688Q4.65515 25.3648 4.84261 25.3104Q5.03006 25.256 5.1358 25.0744L6.51138 22.6888Q6.62308 22.5005 6.57661 22.3149Q6.53015 22.1293 6.34796 22.0266Q6.17172 21.927 5.99106 21.9798Q5.81039 22.0327 5.7016 22.221L4.31259 24.6133Q4.21356 24.7948 4.25858 24.9805Q4.30359 25.1661 4.48273 25.2688ZM15.9686 22.5344Q16.1411 22.6402 16.3285 22.5824Q16.516 22.5246 16.6219 22.34L17.9973 19.9642Q18.1128 19.7729 18.063 19.5888Q18.0132 19.4047 17.8406 19.2953Q17.6645 19.1955 17.4837 19.2469Q17.303 19.2983 17.1875 19.4895L15.8052 21.8858Q15.6995 22.0635 15.743 22.2476Q15.7864 22.4317 15.9686 22.5344ZM17.8905 25.2688Q18.0659 25.3648 18.2534 25.3104Q18.4409 25.256 18.5466 25.0744L19.922 22.6888Q20.0375 22.5005 19.9877 22.3149Q19.9379 22.1293 19.7655 22.0266Q19.5892 21.927 19.4051 21.9798Q19.221 22.0327 19.1122 22.221L17.7301 24.6133Q17.6213 24.7948 17.6662 24.9805Q17.7112 25.1661 17.8905 25.2688Z"
                     fill="#5ac8f5" />
              <path d="M4.45663 17.7274L16.6425 17.7274Q17.8163 17.7274 18.8171 17.3181Q19.818 16.9088 20.5627 16.1799Q21.3074 15.451 21.7194 14.4839Q22.1315 13.5169 22.1315 12.4151Q22.1315 11.2765 21.6947 10.3193Q21.2579 9.36211 20.4742 8.65273Q19.6904 7.94334 18.6441 7.55356Q17.5978 7.16377 16.3788 7.16377Q15.7733 5.94139 14.846 5.03265Q13.9188 4.12392 12.7191 3.62656Q11.5195 3.1292 10.0702 3.1292Q8.7204 3.1292 7.52579 3.63213Q6.33118 4.13506 5.39383 5.02525Q4.45648 5.91545 3.87772 7.09557Q3.29895 8.27568 3.18176 9.63615Q2.28409 9.88396 1.56433 10.4499Q0.844574 11.0159 0.422287 11.8338Q0 12.6517 0 13.681Q0 14.7909 0.526886 15.7127Q1.05377 16.6346 2.04887 17.181Q3.04398 17.7274 4.45663 17.7274ZM12.93 21.6047L10.8585 21.6047L10.8934 21.9807L12.1666 19.5411Q12.2545 19.3751 12.1959 19.2661Q12.1373 19.1572 11.978 19.1572L10.3615 19.1572Q10.1534 19.1572 10.0557 19.2353Q9.95804 19.3134 9.88968 19.463L8.54935 22.5236Q8.46832 22.7152 8.54912 22.8162Q8.62991 22.9173 8.81241 22.9173L10.4677 22.9173L10.5946 22.335L9.00421 26.1988Q8.91327 26.4196 9.07562 26.4812Q9.23416 26.5429 9.38141 26.3685L13.1075 22.0809Q13.2486 21.9186 13.1952 21.7616Q13.1418 21.6047 12.93 21.6047Z"
                     fill="#ffffff" />
       </g>
</svg>