<svg width="22.1315" height="26.1078">
       <g>
              <rect height="26.1078" opacity="0" width="22.1315" x="0" y="0" />
              <path d="M5.14648 22.439Q5.2771 22.439 5.35103 22.3409Q5.42496 22.2429 5.4213 22.1123L5.3717 21.1385L6.18256 21.6689Q6.29303 21.7409 6.41769 21.7191Q6.54236 21.6974 6.61743 21.593Q6.68274 21.4856 6.64062 21.3592Q6.59851 21.2328 6.46423 21.1673L5.60989 20.73L6.47095 20.2827Q6.59851 20.2242 6.63727 20.1026Q6.67603 19.9811 6.62415 19.8639Q6.55579 19.7527 6.42441 19.7377Q6.29303 19.7227 6.18256 19.7881L5.3717 20.3313L5.42496 19.3544Q5.43854 19.2169 5.35782 19.1223Q5.2771 19.0277 5.14648 19.0277Q5.00229 19.0277 4.92691 19.1223Q4.85153 19.2169 4.85825 19.3544L4.90768 20.3313L4.09012 19.7881Q3.97964 19.7227 3.85506 19.7377Q3.73047 19.7527 3.66516 19.8639Q3.60657 19.9811 3.64189 20.1008Q3.67722 20.2205 3.80188 20.2827L4.66599 20.73L3.80188 21.1703Q3.67416 21.2387 3.63213 21.3588Q3.59009 21.4789 3.6554 21.593Q3.72375 21.7072 3.8517 21.7271Q3.97964 21.747 4.09012 21.6786L4.90768 21.1482L4.86496 22.1123Q4.85825 22.2429 4.93027 22.3409Q5.00229 22.439 5.14648 22.439ZM10.5566 22.439Q10.6873 22.439 10.7612 22.3409Q10.8351 22.2429 10.8284 22.1123L10.7819 21.1385L11.5927 21.6689Q11.7032 21.7409 11.8279 21.7191Q11.9525 21.6974 12.0276 21.593Q12.0898 21.4856 12.0493 21.3592Q12.0087 21.2328 11.8744 21.1673L11.0133 20.73L11.8781 20.2827Q12.0087 20.2242 12.0474 20.1026Q12.0862 19.9811 12.0343 19.8639Q11.9659 19.7527 11.8346 19.7377Q11.7032 19.7227 11.5927 19.7881L10.7819 20.3313L10.8351 19.3544Q10.8487 19.2169 10.768 19.1223Q10.6873 19.0277 10.5566 19.0277Q10.4124 19.0277 10.3371 19.1223Q10.2617 19.2169 10.2684 19.3544L10.3148 20.3313L9.49356 19.7881Q9.3898 19.7227 9.26521 19.7377Q9.14062 19.7527 9.07532 19.8639Q9.01001 19.9811 9.04869 20.1008Q9.08737 20.2205 9.21204 20.2827L10.0761 20.73L9.21204 21.1703Q9.08432 21.2387 9.04228 21.3588Q9.00024 21.4789 9.06555 21.593Q9.13391 21.7072 9.26186 21.7271Q9.3898 21.747 9.49356 21.6786L10.3148 21.1482L10.2751 22.1123Q10.2684 22.2429 10.3404 22.3409Q10.4124 22.439 10.5566 22.439ZM15.9668 22.439Q16.0974 22.439 16.1713 22.3409Q16.2453 22.2429 16.2386 22.1123L16.1853 21.1385L17.0029 21.6689Q17.1133 21.7409 17.238 21.7191Q17.3627 21.6974 17.4377 21.593Q17.5 21.4856 17.4594 21.3592Q17.4188 21.2328 17.2845 21.1673L16.4235 20.73L17.2882 20.2827Q17.4188 20.2242 17.4561 20.1026Q17.4933 19.9811 17.4445 19.8639Q17.3761 19.7527 17.2447 19.7377Q17.1133 19.7227 17.0029 19.7881L16.1853 20.3313L16.2453 19.3544Q16.2589 19.2169 16.1781 19.1223Q16.0974 19.0277 15.9668 19.0277Q15.8226 19.0277 15.7472 19.1223Q15.6718 19.2169 15.6786 19.3544L15.7249 20.3313L14.9037 19.7881Q14.8 19.7227 14.6754 19.7377Q14.5508 19.7527 14.4855 19.8639Q14.4202 19.9811 14.4588 20.1008Q14.4975 20.2205 14.6222 20.2827L15.4863 20.73L14.6222 21.1703Q14.4945 21.2387 14.4524 21.3588Q14.4104 21.4789 14.4757 21.593Q14.5441 21.7072 14.672 21.7271Q14.8 21.747 14.9037 21.6786L15.7249 21.1482L15.6853 22.1123Q15.6786 22.2429 15.7506 22.3409Q15.8226 22.439 15.9668 22.439ZM3.02734 26.1078Q3.15796 26.1078 3.23189 26.0064Q3.30582 25.905 3.30215 25.7744L3.25256 24.8073L4.06342 25.3377Q4.17389 25.403 4.29855 25.3861Q4.42322 25.3693 4.49829 25.2551Q4.5636 25.1508 4.52148 25.0243Q4.47937 24.8978 4.34509 24.8294L3.49075 24.3988L4.35181 23.9546Q4.47937 23.8863 4.51813 23.7647Q4.55688 23.6432 4.505 23.5327Q4.43665 23.4216 4.30527 23.4032Q4.17389 23.3849 4.06342 23.4532L3.25256 24.0001L3.30582 23.0196Q3.3194 22.8888 3.23868 22.7908Q3.15796 22.6929 3.02734 22.6929Q2.88315 22.6929 2.80777 22.7908Q2.73239 22.8888 2.73911 23.0196L2.78854 24.0001L1.97098 23.4532Q1.8605 23.3849 1.73592 23.3998Q1.61133 23.4148 1.54602 23.5327Q1.48743 23.6432 1.52275 23.7629Q1.55807 23.8826 1.68274 23.9546L2.54684 24.3988L1.68274 24.8392Q1.55502 24.9008 1.51299 25.0224Q1.47095 25.144 1.53625 25.2551Q1.60461 25.3761 1.73256 25.3926Q1.8605 25.4091 1.97098 25.3407L2.78854 24.8103L2.74582 25.7744Q2.73911 25.905 2.81113 26.0064Q2.88315 26.1078 3.02734 26.1078ZM8.4375 26.1078Q8.56812 26.1078 8.64204 26.0064Q8.71597 25.905 8.70926 25.7744L8.66272 24.8073L9.47357 25.3377Q9.58405 25.403 9.70871 25.3861Q9.83337 25.3693 9.90845 25.2551Q9.97375 25.1508 9.93164 25.0243Q9.88953 24.8978 9.75525 24.8294L8.8942 24.3988L9.75891 23.9546Q9.88953 23.8863 9.92828 23.7647Q9.96704 23.6432 9.91516 23.5327Q9.8468 23.4216 9.71542 23.4032Q9.58405 23.3849 9.47357 23.4532L8.66272 24.0001L8.71597 23.0196Q8.72955 22.8888 8.64883 22.7908Q8.56812 22.6929 8.4375 22.6929Q8.2933 22.6929 8.21793 22.7908Q8.14255 22.8888 8.14926 23.0196L8.1987 24.0001L7.37442 23.4532Q7.27066 23.3849 7.14607 23.3998Q7.02148 23.4148 6.95618 23.5327Q6.89758 23.6432 6.93291 23.7629Q6.96823 23.8826 7.0929 23.9546L7.957 24.3988L7.0929 24.8392Q6.96518 24.9008 6.92314 25.0224Q6.8811 25.144 6.94641 25.2551Q7.01477 25.3761 7.14272 25.3926Q7.27066 25.4091 7.37442 25.3407L8.1987 24.8103L8.15598 25.7744Q8.14926 25.905 8.22128 26.0064Q8.2933 26.1078 8.4375 26.1078ZM13.8477 26.1078Q13.9783 26.1078 14.0522 26.0064Q14.1261 25.905 14.1194 25.7744L14.0662 24.8073L14.8837 25.3377Q14.9942 25.403 15.1189 25.3861Q15.2435 25.3693 15.3186 25.2551Q15.3809 25.1508 15.3403 25.0243Q15.2997 24.8978 15.1654 24.8294L14.3044 24.3988L15.1691 23.9546Q15.2997 23.8863 15.3384 23.7647Q15.3772 23.6432 15.3253 23.5327Q15.257 23.4216 15.1256 23.4032Q14.9942 23.3849 14.8837 23.4532L14.0662 24.0001L14.1261 23.0196Q14.1397 22.8888 14.059 22.7908Q13.9783 22.6929 13.8477 22.6929Q13.7035 22.6929 13.6281 22.7908Q13.5527 22.8888 13.5594 23.0196L13.6058 24.0001L12.7846 23.4532Q12.6808 23.3849 12.5562 23.3998Q12.4316 23.4148 12.3663 23.5327Q12.301 23.6432 12.3397 23.7629Q12.3784 23.8826 12.5031 23.9546L13.3672 24.3988L12.5031 24.8392Q12.3753 24.9008 12.3333 25.0224Q12.2913 25.144 12.3566 25.2551Q12.4249 25.3761 12.5529 25.3926Q12.6808 25.4091 12.7846 25.3407L13.6058 24.8103L13.5661 25.7744Q13.5594 25.905 13.6314 26.0064Q13.7035 26.1078 13.8477 26.1078Z"
                     fill="#ffffff" />
              <path d="M4.45663 17.5327L16.6425 17.5327Q17.8163 17.5327 18.8171 17.1233Q19.818 16.714 20.5627 15.9851Q21.3074 15.2562 21.7194 14.2892Q22.1315 13.3221 22.1315 12.2203Q22.1315 11.0817 21.6947 10.1245Q21.2579 9.16733 20.4742 8.45795Q19.6904 7.74857 18.6441 7.35878Q17.5978 6.96899 16.3788 6.96899Q15.7733 5.74661 14.846 4.83788Q13.9188 3.92914 12.7191 3.43178Q11.5195 2.93442 10.0702 2.93442Q8.7204 2.93442 7.52579 3.43735Q6.33118 3.94028 5.39383 4.83047Q4.45648 5.72067 3.87772 6.90079Q3.29895 8.0809 3.18176 9.44138Q2.28409 9.68918 1.56433 10.2551Q0.844574 10.8211 0.422287 11.639Q0 12.457 0 13.4862Q0 14.5961 0.526886 15.518Q1.05377 16.4398 2.04887 16.9862Q3.04398 17.5327 4.45663 17.5327Z"
                     fill="#ffffff" />
       </g>
</svg>