<svg width="28.1459" height="28.3981">
       <g>
              <rect height="28.3981" opacity="0" width="28.1459" x="0" y="0" />
              <path d="M18.1625 5.97576Q16.8452 5.97576 15.7726 6.6116Q14.7 7.24743 14.0643 8.32333Q13.4285 9.39922 13.4285 10.7196Q13.4285 10.7772 13.4352 10.8379Q13.4419 10.8986 13.4419 10.9494L14.5805 11.0467Q14.5604 10.966 14.5502 10.8867Q14.5401 10.8073 14.5401 10.7196Q14.5401 9.69524 15.0245 8.87234Q15.5089 8.04943 16.3269 7.56504Q17.1449 7.08065 18.1625 7.08065Q19.1801 7.08065 19.9982 7.56504Q20.8163 8.04943 21.2992 8.87234Q21.7821 9.69524 21.7821 10.7196Q21.7821 11.5486 21.4411 12.2717Q21.1002 12.9948 20.5025 13.5236Q19.9048 14.0524 19.1231 14.2923L19.1449 15.4338Q20.2333 15.1745 21.0775 14.4876Q21.9217 13.8006 22.4043 12.8227Q22.887 11.8448 22.887 10.7196Q22.887 9.39922 22.2545 8.32333Q21.622 7.24743 20.5476 6.6116Q19.4733 5.97576 18.1625 5.97576ZM12.7831 6.20785Q12.9666 6.3847 13.2252 6.3847Q13.4837 6.3847 13.6539 6.20785Q13.824 6.031 13.8274 5.77587Q13.8307 5.52075 13.6539 5.3439L11.9653 3.65521Q11.7854 3.47546 11.5351 3.47691Q11.2848 3.47836 11.1079 3.65521Q10.9311 3.83221 10.9262 4.08581Q10.9213 4.33941 11.1079 4.51931ZM18.1656 4.32308Q18.4158 4.32308 18.5991 4.13799Q18.7823 3.9529 18.7823 3.71243L18.7823 1.33663Q18.7823 1.07952 18.5991 0.902673Q18.4158 0.725823 18.1656 0.725823Q17.9153 0.725823 17.7321 0.902673Q17.5488 1.07952 17.5488 1.33663L17.5488 3.71243Q17.5488 3.9529 17.7321 4.13799Q17.9153 4.32308 18.1656 4.32308ZM22.6773 6.20785Q22.8474 6.3847 23.1094 6.3847Q23.3713 6.3847 23.5481 6.20785L25.2299 4.51931Q25.4099 4.33941 25.4083 4.08581Q25.4068 3.83221 25.2299 3.65521Q25.0531 3.47836 24.8028 3.47691Q24.5525 3.47546 24.3726 3.65521L22.6773 5.3439Q22.5005 5.52075 22.5038 5.77587Q22.5072 6.031 22.6773 6.20785ZM25.1503 11.3304L27.5389 11.3304Q27.7922 11.3304 27.9691 11.1502Q28.1459 10.97 28.1459 10.7196Q28.1459 10.4626 27.9691 10.2858Q27.7922 10.1089 27.5389 10.1089L25.1503 10.1089Q24.9068 10.1089 24.7231 10.2858Q24.5395 10.4626 24.5395 10.7196Q24.5395 10.97 24.7231 11.1502Q24.9068 11.3304 25.1503 11.3304ZM24.3726 17.787Q24.5525 17.9736 24.8028 17.9654Q25.0531 17.9571 25.2299 17.7803Q25.4068 17.6101 25.4083 17.3565Q25.4099 17.1028 25.2299 16.923L23.5347 15.2411Q23.3578 15.0711 23.106 15.0676Q22.8542 15.0642 22.6773 15.2411Q22.5005 15.4179 22.5005 15.6731Q22.5005 15.9283 22.6773 16.1052Z"
                     fill="rgba(255,255,255,0.55)" />
              <path d="M3.99231 20.2708L14.6193 20.2708Q15.999 20.2708 17.1046 19.6429Q18.2101 19.015 18.8625 17.9415Q19.5148 16.8679 19.5148 15.5363Q19.5148 14.2085 18.8496 13.153Q18.1845 12.0974 17.0436 11.4823Q15.9027 10.8671 14.4652 10.8537Q13.6118 9.23626 12.1806 8.2877Q10.7494 7.33913 8.89664 7.33913Q7.70996 7.33913 6.65352 7.77371Q5.59708 8.20828 4.76868 8.988Q3.94028 9.76772 3.42171 10.8029Q2.90314 11.838 2.78519 13.0363Q1.57059 13.3929 0.785294 14.3493Q0 15.3056 0 16.6398Q0 17.6799 0.491867 18.501Q0.983734 19.3222 1.88156 19.7965Q2.77939 20.2708 3.99231 20.2708ZM3.96545 19.0837Q3.06564 19.0837 2.44629 18.7608Q1.82693 18.4379 1.50703 17.8903Q1.18713 17.3426 1.18713 16.6668Q1.18713 15.7833 1.74133 15.1001Q2.29553 14.4169 3.40378 14.1125Q3.69781 14.0269 3.82195 13.8826Q3.94608 13.7382 3.96927 13.4399Q4.05121 12.3933 4.46785 11.4972Q4.88449 10.6012 5.55748 9.93313Q6.23047 9.2651 7.08824 8.89568Q7.94601 8.52627 8.89664 8.52627Q9.9408 8.52627 10.8006 8.90102Q11.6605 9.27578 12.324 9.95327Q12.9875 10.6308 13.4465 11.5487Q13.5785 11.8129 13.7552 11.9152Q13.9319 12.0176 14.2424 12.0176Q15.49 12.0176 16.4086 12.5008Q17.3273 12.984 17.8241 13.7893Q18.3209 14.5945 18.3209 15.5693Q18.3209 16.5478 17.8339 17.343Q17.3468 18.1382 16.5114 18.611Q15.676 19.0837 14.6365 19.0837ZM11.7392 23.8641L9.72168 23.8641L9.75662 24.2167L10.9062 22.0559Q10.9843 21.8966 10.9306 21.7877Q10.8769 21.6787 10.7079 21.6787L9.1452 21.6787Q8.94379 21.6787 8.85292 21.7569Q8.76205 21.835 8.6937 21.9778L7.47391 24.756Q7.39578 24.9379 7.47658 25.0404Q7.55737 25.1429 7.73987 25.1429L9.35471 25.1429L9.47495 24.5674L8.00873 28.1036Q7.91779 28.3178 8.07343 28.3793Q8.23196 28.4477 8.3725 28.2666L11.913 24.3237Q12.0473 24.1644 11.9958 24.0142Q11.9443 23.8641 11.7392 23.8641Z"
                     fill="rgba(255,255,255,0.55)" />
       </g>
</svg>