<svg width="22.1315" height="27.4286">
       <g>
              <rect height="27.4286" opacity="0" width="22.1315" x="0" y="0" />
              <path d="M3.93997 25.9344Q4.07074 25.9344 4.14467 25.8364Q4.2186 25.7384 4.21188 25.6078L4.15863 24.6339L4.9762 25.1643Q5.08362 25.2364 5.20973 25.2146Q5.33585 25.1929 5.40421 25.0885Q5.47318 24.9811 5.43266 24.8561Q5.39215 24.7311 5.25467 24.6628L4.39667 24.2255L5.26138 23.7782Q5.39215 23.7196 5.42931 23.5981Q5.46646 23.4766 5.41092 23.3594Q5.34927 23.2481 5.21645 23.2332Q5.08362 23.2182 4.9762 23.2866L4.15863 23.8268L4.2186 22.8529Q4.22531 22.7124 4.14803 22.6178Q4.07074 22.5232 3.93997 22.5232Q3.79593 22.5232 3.72047 22.6178Q3.64502 22.7124 3.64502 22.8529L3.69827 23.8268L2.87689 23.2866Q2.77328 23.2182 2.64862 23.2332Q2.52396 23.2481 2.45865 23.3594Q2.39029 23.4766 2.43057 23.5963Q2.47086 23.716 2.59537 23.7782L3.45947 24.2255L2.59537 24.6658Q2.4678 24.7342 2.42569 24.8558Q2.38358 24.9774 2.44888 25.0885Q2.51053 25.2026 2.64191 25.2225Q2.77328 25.2425 2.87689 25.1741L3.69827 24.6437L3.65173 25.6078Q3.65173 25.7384 3.72383 25.8364Q3.79593 25.9344 3.93997 25.9344ZM8.59818 27.4286Q8.72894 27.4286 8.8044 27.3306Q8.87985 27.2325 8.87299 27.1019L8.8266 26.1348L9.6344 26.6585Q9.74487 26.7305 9.86946 26.7136Q9.99405 26.6968 10.0691 26.5826Q10.1344 26.4783 10.0924 26.3518Q10.0504 26.2253 9.92264 26.1569L9.06158 25.7263L9.92935 25.2821Q10.0504 25.2138 10.0924 25.0922Q10.1344 24.9707 10.0758 24.8602Q10.0075 24.7423 9.87617 24.7273Q9.74487 24.7124 9.6344 24.7807L8.8266 25.3276L8.87985 24.3471Q8.89023 24.2163 8.80959 24.1183Q8.72894 24.0204 8.59818 24.0204Q8.46085 24.0204 8.38356 24.1183Q8.30627 24.2163 8.31299 24.3471L8.35953 25.3276L7.54196 24.7807Q7.43454 24.7124 7.31178 24.7273Q7.18903 24.7423 7.1199 24.8602Q7.05826 24.9707 7.09366 25.0904Q7.12906 25.2101 7.25662 25.2821L8.12439 25.7263L7.25662 26.1667Q7.12601 26.2283 7.08878 26.3499Q7.05154 26.4716 7.10709 26.5826Q7.17545 26.7035 7.30499 26.72Q7.43454 26.7366 7.54196 26.6682L8.35953 26.1378L8.31665 27.1019Q8.31299 27.2325 8.38692 27.3306Q8.46085 27.4286 8.59818 27.4286ZM14.1743 25.9735Q14.2984 25.9735 14.3757 25.8721Q14.453 25.7707 14.4463 25.6401L14.393 24.67L15.2106 25.2003Q15.318 25.2754 15.4441 25.2537Q15.5702 25.2319 15.6386 25.1276Q15.7076 25.0201 15.667 24.8936Q15.6265 24.7672 15.489 24.7018L14.631 24.2645L15.4958 23.8173Q15.6265 23.752 15.6637 23.6338Q15.7008 23.5156 15.6453 23.3984Q15.5836 23.2872 15.4508 23.2722Q15.318 23.2573 15.2106 23.3226L14.393 23.8658L14.453 22.8889Q14.4597 22.7515 14.379 22.6535Q14.2984 22.5555 14.1743 22.5555Q14.0273 22.5555 13.9533 22.6535Q13.8794 22.7515 13.8794 22.8889L13.9326 23.8658L13.1113 23.3226Q13.0009 23.2573 12.8796 23.2689Q12.7583 23.2805 12.693 23.3984Q12.6247 23.5156 12.6649 23.6353Q12.7052 23.755 12.8297 23.8173L13.6938 24.2645L12.8297 24.7049Q12.6955 24.7733 12.6567 24.8933Q12.618 25.0134 12.6833 25.1276Q12.7419 25.2417 12.8714 25.2601Q13.0009 25.2785 13.1113 25.2065L13.9326 24.6828L13.8861 25.6401Q13.8861 25.7707 13.9567 25.8721Q14.0273 25.9735 14.1743 25.9735Z"
                     fill="#ffffff" />
              <path d="M5.62866 21.7722L6.38885 20.4382Q6.49765 20.2567 6.45271 20.0677Q6.40778 19.8787 6.2323 19.7693Q6.05606 19.6695 5.87196 19.7258Q5.68787 19.7821 5.57907 19.9704L4.80911 21.3177Q4.71008 21.4926 4.75166 21.6782Q4.79324 21.8639 4.97253 21.9666Q5.15472 22.0692 5.3373 22.0115Q5.51987 21.9537 5.62866 21.7722ZM9.88647 23.2663L11.5158 20.451Q11.6216 20.2597 11.5766 20.0756Q11.5317 19.8915 11.3593 19.7888Q11.183 19.689 10.9974 19.7404Q10.8118 19.7919 10.706 19.9832L9.06998 22.8119Q8.97095 22.9868 9.01588 23.1724Q9.06082 23.358 9.24011 23.4607Q9.41254 23.5634 9.59999 23.5056Q9.78745 23.4479 9.88647 23.2663ZM15.86 21.8112L16.6232 20.4773Q16.732 20.289 16.6871 20.1034Q16.6422 19.9178 16.4667 19.8083Q16.2904 19.7086 16.1063 19.7649Q15.9222 19.8212 15.8134 20.0027L15.0435 21.3568Q14.9445 21.5317 14.986 21.7173Q15.0276 21.9029 15.2069 22.0056Q15.3824 22.1016 15.5683 22.0472Q15.7542 21.9928 15.86 21.8112Z"
                     fill="#5ac8f5" />
              <path d="M4.45663 18.1931L16.6425 18.1931Q17.8163 18.1931 18.8171 17.7837Q19.818 17.3744 20.5627 16.6455Q21.3074 15.9166 21.7194 14.9496Q22.1315 13.9825 22.1315 12.8807Q22.1315 11.7421 21.6947 10.7849Q21.2579 9.82773 20.4742 9.11835Q19.6904 8.40897 18.6441 8.01918Q17.5978 7.62939 16.3788 7.62939Q15.7733 6.40701 14.846 5.49828Q13.9188 4.58954 12.7191 4.09218Q11.5195 3.59482 10.0702 3.59482Q8.7204 3.59482 7.52579 4.09775Q6.33118 4.60068 5.39383 5.49088Q4.45648 6.38107 3.87772 7.56119Q3.29895 8.7413 3.18176 10.1018Q2.28409 10.3496 1.56433 10.9155Q0.844574 11.4815 0.422287 12.2994Q0 13.1174 0 14.1466Q0 15.2565 0.526886 16.1784Q1.05377 17.1002 2.04887 17.6466Q3.04398 18.1931 4.45663 18.1931Z"
                     fill="#ffffff" />
       </g>
</svg>