<svg width="25.2641" height="26.7666">
       <g>
              <rect height="26.7666" opacity="0" width="25.2641" x="0" y="0" />
              <path d="M20.3252 13.687Q21.5555 13.4735 22.4797 12.9578Q23.4039 12.4422 24.0217 11.7801Q24.6394 11.118 24.9518 10.446Q25.2641 9.774 25.2641 9.24116Q25.2641 9.00938 25.1523 8.86168Q25.0404 8.71397 24.8425 8.71397Q24.6445 8.71397 24.3063 8.85054Q23.9682 8.9871 23.4927 9.12367Q23.0173 9.26024 22.41 9.26024Q21.1945 9.26024 20.2946 8.7895Q19.3948 8.31877 18.9012 7.47458Q18.4076 6.63038 18.4076 5.51008Q18.4076 4.88005 18.5637 4.37269Q18.7198 3.86534 18.8741 3.48768Q19.0283 3.11003 19.0283 2.89549Q19.0283 2.67927 18.8891 2.56224Q18.7498 2.4452 18.4659 2.46397Q17.7066 2.52653 16.99 2.93669Q16.2733 3.34685 15.6717 4.01671Q15.07 4.68657 14.6593 5.53404Q14.2487 6.38151 14.1048 7.31871Q14.2992 7.51158 14.4746 7.76526Q14.6501 8.01893 14.7986 8.34517Q15.9813 8.43382 16.9711 8.87144Q17.9608 9.30906 18.6971 10.0276Q19.4334 10.7461 19.8574 11.6822Q20.2814 12.6182 20.3252 13.687Z"
                     fill="#ffffff" />
              <path d="M3.89847 18.5238L14.5253 18.5238Q15.8659 18.5238 16.952 17.9088Q18.038 17.2937 18.6787 16.2381Q19.3195 15.1825 19.3195 13.8803Q19.3195 12.572 18.6626 11.5345Q18.0057 10.497 16.8745 9.89798Q15.7434 9.29899 14.3089 9.29228Q13.7273 8.16832 12.8886 7.3847Q12.05 6.60109 11.0123 6.18941Q9.97452 5.77772 8.79593 5.77772Q7.63184 5.77772 6.59004 6.21077Q5.54825 6.64381 4.72664 7.4153Q3.90503 8.18678 3.39279 9.21705Q2.88055 10.2473 2.77924 11.4523Q1.50497 11.8112 0.752487 12.7651Q0 13.719 0 14.9838Q0 16.0292 0.494537 16.8293Q0.989075 17.6294 1.86737 18.0766Q2.74567 18.5238 3.89847 18.5238ZM11.6827 22.2282L9.66507 22.2282L9.69711 22.5906L10.8467 20.4201Q10.9346 20.2638 10.876 20.1567Q10.8174 20.0496 10.6581 20.0496L9.09241 20.0496Q8.88428 20.0496 8.79333 20.1243Q8.70239 20.1991 8.63708 20.3486L7.4173 23.1268Q7.34299 23.305 7.42043 23.406Q7.49786 23.5071 7.68036 23.5071L9.29825 23.5071L9.4252 22.9315L7.94922 26.4677Q7.85828 26.682 8.02063 26.7503Q8.17917 26.812 8.31284 26.6406L11.8533 22.6909Q11.9945 22.5287 11.9411 22.3784Q11.8878 22.2282 11.6827 22.2282Z"
                     fill="#ffffff" />
       </g>
</svg>