<svg width="28.019" height="28.3981">
       <g>
              <rect height="28.3981" opacity="0" width="28.019" x="0" y="0" />
              <path d="M3.89847 20.1597L14.5253 20.1597Q15.8659 20.1597 16.952 19.5431Q18.038 18.9265 18.6787 17.8724Q19.3195 16.8184 19.3195 15.5162Q19.3195 14.2079 18.6626 13.1703Q18.0057 12.1327 16.8745 11.5289Q15.7434 10.9251 14.3089 10.9214Q13.7273 9.80404 12.8886 9.0205Q12.05 8.23696 11.0123 7.82528Q9.97452 7.4136 8.79593 7.4136Q7.63184 7.4136 6.59004 7.84329Q5.54825 8.27297 4.72664 9.04781Q3.90503 9.82266 3.39279 10.8529Q2.88055 11.8832 2.77924 13.0813Q1.50497 13.4373 0.752487 14.396Q0 15.3547 0 16.6166Q0 17.6649 0.494537 18.4651Q0.989075 19.2653 1.86737 19.7125Q2.74567 20.1597 3.89847 20.1597Z"
                     fill="#ffffff" />
              <path d="M20.3062 14.9319Q21.4319 14.2358 22.0959 13.1431Q22.76 12.0504 22.76 10.7129Q22.76 9.39251 22.1275 8.31654Q21.4951 7.24056 20.4207 6.60481Q19.3463 5.96905 18.0356 5.96905Q16.6409 5.96905 15.5263 6.68957Q14.4116 7.41009 13.8577 8.57143Q14.1574 8.89614 14.4165 9.25068Q14.6756 9.60522 14.8912 10.0167Q16.442 10.1347 17.6008 10.7862Q18.7596 11.4376 19.454 12.5035Q20.1483 13.5693 20.3062 14.9319ZM12.6561 6.20113Q12.8397 6.37798 13.0982 6.37798Q13.3568 6.37798 13.5269 6.20113Q13.6971 6.02429 13.7004 5.76916Q13.7038 5.51403 13.5269 5.33718L11.8384 3.64849Q11.6585 3.46859 11.4082 3.47012Q11.1578 3.47164 10.981 3.64849Q10.8041 3.82534 10.7993 4.07902Q10.7944 4.3327 10.981 4.5126ZM18.0386 4.31637Q18.2889 4.31637 18.4721 4.13128Q18.6554 3.94619 18.6554 3.70571L18.6554 1.32992Q18.6554 1.07281 18.4721 0.895959Q18.2889 0.719109 18.0386 0.719109Q17.7884 0.719109 17.6051 0.895959Q17.4219 1.07281 17.4219 1.32992L17.4219 3.70571Q17.4219 3.94619 17.6051 4.13128Q17.7884 4.31637 18.0386 4.31637ZM22.5504 6.20113Q22.7205 6.37798 22.9824 6.37798Q23.2443 6.37798 23.4212 6.20113L25.103 4.5126Q25.2829 4.3327 25.2814 4.07902Q25.2798 3.82534 25.103 3.64849Q24.9261 3.47164 24.6758 3.47012Q24.4255 3.46859 24.2456 3.64849L22.5504 5.33718Q22.3735 5.51403 22.3769 5.76916Q22.3802 6.02429 22.5504 6.20113ZM25.0233 11.3237L27.412 11.3237Q27.6653 11.3237 27.8421 11.1435Q28.019 10.9632 28.019 10.7129Q28.019 10.4559 27.8421 10.279Q27.6653 10.1022 27.412 10.1022L25.0233 10.1022Q24.7798 10.1022 24.5962 10.279Q24.4125 10.4559 24.4125 10.7129Q24.4125 10.9632 24.5962 11.1435Q24.7798 11.3237 25.0233 11.3237ZM24.2456 17.7803Q24.4255 17.9669 24.6758 17.9586Q24.9261 17.9504 25.103 17.7736Q25.2798 17.6034 25.2814 17.3497Q25.2829 17.0961 25.103 16.9162L23.4077 15.2343Q23.2309 15.0642 22.979 15.0608Q22.7272 15.0575 22.5504 15.2343Q22.3735 15.4112 22.3735 15.6664Q22.3735 15.9216 22.5504 16.0984Z"
                     fill="#ffd60a" />
              <path d="M11.6827 23.8641L9.66507 23.8641L9.69711 24.2167L10.8467 22.0559Q10.9346 21.8966 10.876 21.7877Q10.8174 21.6787 10.6581 21.6787L9.09241 21.6787Q8.88428 21.6787 8.79333 21.7569Q8.70239 21.835 8.63708 21.9778L7.4173 24.756Q7.34299 24.9379 7.42043 25.0404Q7.49786 25.1429 7.68036 25.1429L9.29825 25.1429L9.4252 24.5674L7.94922 28.1036Q7.85828 28.3178 8.02063 28.3793Q8.17917 28.4477 8.31284 28.2666L11.8533 24.3237Q11.9945 24.1644 11.9411 24.0142Q11.8878 23.8641 11.6827 23.8641Z"
                     fill="#ffffff" />
       </g>
</svg>