<svg width="22.1315" height="24.2833">
       <g>
              <rect height="24.2833" opacity="0" width="22.1315" x="0" y="0" />
              <path d="M2.68127 24.0276L5.65536 18.8784Q5.76416 18.6803 5.7177 18.4996Q5.67123 18.3189 5.49194 18.2162Q5.31586 18.1164 5.13512 18.1644Q4.95438 18.2125 4.84558 18.4106L1.86188 23.5732Q1.76285 23.7481 1.80443 23.9337Q1.84601 24.1193 2.02515 24.222Q2.20749 24.318 2.39006 24.2636Q2.57263 24.2092 2.68127 24.0276ZM6.57776 24.0276L9.54819 18.8784Q9.6637 18.6803 9.6138 18.4996Q9.5639 18.3189 9.39148 18.2162Q9.21234 18.1164 9.03313 18.1644Q8.85391 18.2125 8.73535 18.4106L5.76126 23.5732Q5.66223 23.7481 5.70389 23.9337Q5.74554 24.1193 5.92468 24.222Q6.09711 24.318 6.28456 24.2636Q6.47202 24.2092 6.57776 24.0276ZM10.4616 24.0276L13.4319 18.8784Q13.5474 18.6803 13.4975 18.4996Q13.4477 18.3189 13.2751 18.2162Q13.096 18.1164 12.9153 18.1644Q12.7345 18.2125 12.619 18.4106L9.64508 23.5732Q9.54605 23.7481 9.58611 23.9337Q9.62616 24.1193 9.80835 24.222Q9.98093 24.318 10.1684 24.2636Q10.3558 24.2092 10.4616 24.0276ZM14.3341 24.0314L17.3216 18.8648Q17.4304 18.6803 17.3854 18.4929Q17.3404 18.3054 17.1582 18.2162Q16.9888 18.1202 16.8047 18.1663Q16.6206 18.2125 16.5186 18.4037L13.5416 23.5598Q13.4357 23.7481 13.4773 23.9337Q13.519 24.1193 13.6914 24.222Q13.8602 24.318 14.0476 24.2636Q14.2351 24.2092 14.3341 24.0314Z"
                     fill="#5ac8f5" />
              <path d="M4.45663 16.6204L16.6425 16.6204Q17.8163 16.6204 18.8171 16.2111Q19.818 15.8018 20.5627 15.0729Q21.3074 14.3439 21.7194 13.3769Q22.1315 12.4099 22.1315 11.3081Q22.1315 10.1694 21.6947 9.21226Q21.2579 8.25508 20.4742 7.54569Q19.6904 6.83631 18.6441 6.44653Q17.5978 6.05674 16.3788 6.05674Q15.7733 4.83436 14.846 3.92562Q13.9188 3.01689 12.7191 2.51953Q11.5195 2.02217 10.0702 2.02217Q8.7204 2.02217 7.52579 2.52509Q6.33118 3.02802 5.39383 3.91822Q4.45648 4.80842 3.87772 5.98853Q3.29895 7.16865 3.18176 8.52912Q2.28409 8.77693 1.56433 9.34287Q0.844574 9.90882 0.422287 10.7268Q0 11.5447 0 12.5739Q0 13.6838 0.526886 14.6057Q1.05377 15.5276 2.04887 16.074Q3.04398 16.6204 4.45663 16.6204Z"
                     fill="#ffffff" />
       </g>
</svg>