<svg width="28.1459" height="27.4589">
       <g>
              <rect height="27.4589" opacity="0" width="28.1459" x="0" y="0" />
              <path d="M3.71735 24.4576L5.09277 22.0751Q5.20844 21.8838 5.15854 21.6997Q5.10864 21.5156 4.93622 21.4129Q4.75998 21.3131 4.57932 21.3645Q4.39865 21.4159 4.28314 21.6073L2.90085 23.9965Q2.79205 24.1811 2.83707 24.3633Q2.88208 24.5455 3.06122 24.6551Q3.24341 24.751 3.42751 24.6966Q3.6116 24.6422 3.71735 24.4576ZM6.78909 27.1989L8.16467 24.8199Q8.28018 24.6316 8.23181 24.446Q8.18344 24.2605 8.00797 24.1509Q7.83188 24.0513 7.65114 24.1041Q7.4704 24.157 7.35489 24.3453L5.9726 26.7444Q5.86685 26.9192 5.91034 27.1048Q5.95383 27.2904 6.13602 27.3931Q6.31516 27.4959 6.49925 27.4381Q6.68335 27.3803 6.78909 27.1989ZM11.4908 24.4509L12.8662 22.0684Q12.975 21.877 12.9301 21.6929Q12.8851 21.5089 12.7029 21.4062Q12.5334 21.3064 12.3494 21.3592Q12.1654 21.4121 12.0566 21.6004L10.6743 23.9898Q10.5685 24.1744 10.6135 24.3566Q10.6584 24.5388 10.8377 24.6483Q11.0101 24.7443 11.1976 24.6899Q11.385 24.6355 11.4908 24.4509ZM14.5589 27.192L15.9412 24.8131Q16.0498 24.6248 16.0033 24.4393Q15.9569 24.2538 15.7777 24.1442Q15.5984 24.0446 15.4193 24.0974Q15.2402 24.1503 15.1216 24.3386L13.7393 26.7377Q13.6403 26.9124 13.6853 27.0981Q13.7303 27.2837 13.9095 27.3864Q14.0849 27.4891 14.2709 27.4313Q14.4568 27.3736 14.5589 27.192Z"
                     fill="rgba(255,255,255,0.55)" />
              <path d="M18.1625 5.5062Q16.8452 5.5062 15.7726 6.14203Q14.7 6.77786 14.0643 7.85376Q13.4285 8.92966 13.4285 10.25Q13.4285 10.3107 13.4352 10.3744Q13.4419 10.438 13.4419 10.4987L14.5805 10.5961Q14.5604 10.5152 14.5502 10.4279Q14.5401 10.3406 14.5401 10.25Q14.5401 9.22568 15.0245 8.40277Q15.5089 7.57987 16.3269 7.09548Q17.1449 6.61109 18.1625 6.61109Q19.1801 6.61109 19.9982 7.09548Q20.8163 7.57987 21.2992 8.40277Q21.7821 9.22568 21.7821 10.25Q21.7821 11.079 21.4411 11.8021Q21.1002 12.5252 20.5025 13.054Q19.9048 13.5828 19.1231 13.8227L19.1449 14.9642Q20.2333 14.705 21.0775 14.018Q21.9217 13.3311 22.4043 12.3531Q22.887 11.3752 22.887 10.25Q22.887 8.92966 22.2545 7.85376Q21.622 6.77786 20.5476 6.14203Q19.4733 5.5062 18.1625 5.5062ZM12.7831 5.73828Q12.9666 5.91513 13.2252 5.91513Q13.4837 5.91513 13.6539 5.73828Q13.824 5.56143 13.8274 5.30631Q13.8307 5.05118 13.6539 4.87433L11.9653 3.18564Q11.7854 3.00589 11.5351 3.00734Q11.2848 3.00879 11.1079 3.18564Q10.9311 3.36264 10.9262 3.61624Q10.9213 3.86984 11.1079 4.04975ZM18.1656 3.85352Q18.4158 3.85352 18.5991 3.66843Q18.7823 3.48334 18.7823 3.24286L18.7823 0.867067Q18.7823 0.609957 18.5991 0.433107Q18.4158 0.256258 18.1656 0.256258Q17.9153 0.256258 17.7321 0.433107Q17.5488 0.609957 17.5488 0.867067L17.5488 3.24286Q17.5488 3.48334 17.7321 3.66843Q17.9153 3.85352 18.1656 3.85352ZM22.6773 5.73828Q22.8474 5.91513 23.1094 5.91513Q23.3713 5.91513 23.5481 5.73828L25.2299 4.04975Q25.4099 3.86984 25.4083 3.61624Q25.4068 3.36264 25.2299 3.18564Q25.0531 3.00879 24.8028 3.00734Q24.5525 3.00589 24.3726 3.18564L22.6773 4.87433Q22.5005 5.05118 22.5038 5.30631Q22.5072 5.56143 22.6773 5.73828ZM25.1503 10.8608L27.5389 10.8608Q27.7922 10.8608 27.9691 10.6806Q28.1459 10.5004 28.1459 10.25Q28.1459 9.99304 27.9691 9.81619Q27.7922 9.63934 27.5389 9.63934L25.1503 9.63934Q24.9068 9.63934 24.7231 9.81619Q24.5395 9.99304 24.5395 10.25Q24.5395 10.5004 24.7231 10.6806Q24.9068 10.8608 25.1503 10.8608ZM24.3726 17.3174Q24.5525 17.504 24.8028 17.4958Q25.0531 17.4876 25.2299 17.3107Q25.4068 17.1406 25.4083 16.8869Q25.4099 16.6332 25.2299 16.4535L23.5347 14.7715Q23.3578 14.6015 23.106 14.5981Q22.8542 14.5946 22.6773 14.7715Q22.5005 14.9483 22.5005 15.2035Q22.5005 15.4587 22.6773 15.6356Z"
                     fill="rgba(255,255,255,0.55)" />
              <path d="M3.99231 19.8012L14.6193 19.8012Q15.999 19.8012 17.1046 19.1733Q18.2101 18.5454 18.8625 17.4719Q19.5148 16.3984 19.5148 15.0667Q19.5148 13.7389 18.8496 12.6834Q18.1845 11.6279 17.0436 11.0127Q15.9027 10.3976 14.4652 10.3841Q13.6118 8.76669 12.1806 7.81813Q10.7494 6.86957 8.89664 6.86957Q7.70996 6.86957 6.65352 7.30414Q5.59708 7.73871 4.76868 8.51843Q3.94028 9.29816 3.42171 10.3333Q2.90314 11.3685 2.78519 12.5667Q1.57059 12.9233 0.785294 13.8797Q0 14.836 0 16.1703Q0 17.2103 0.491867 18.0315Q0.983734 18.8526 1.88156 19.3269Q2.77939 19.8012 3.99231 19.8012ZM3.96545 18.6141Q3.06564 18.6141 2.44629 18.2912Q1.82693 17.9684 1.50703 17.4207Q1.18713 16.8731 1.18713 16.1973Q1.18713 15.3138 1.74133 14.6306Q2.29553 13.9474 3.40378 13.6429Q3.69781 13.5573 3.82195 13.413Q3.94608 13.2686 3.96927 12.9703Q4.05121 11.9237 4.46785 11.0277Q4.88449 10.1316 5.55748 9.46356Q6.23047 8.79553 7.08824 8.42612Q7.94601 8.0567 8.89664 8.0567Q9.9408 8.0567 10.8006 8.43146Q11.6605 8.80622 12.324 9.48371Q12.9875 10.1612 13.4465 11.0792Q13.5785 11.3433 13.7552 11.4457Q13.9319 11.5481 14.2424 11.5481Q15.49 11.5481 16.4086 12.0312Q17.3273 12.5144 17.8241 13.3197Q18.3209 14.125 18.3209 15.0997Q18.3209 16.0782 17.8339 16.8735Q17.3468 17.6687 16.5114 18.1414Q15.676 18.6141 14.6365 18.6141Z"
                     fill="rgba(255,255,255,0.55)" />
       </g>
</svg>