<svg width="23.1946" height="16.3266">
       <g>
              <rect height="16.3266" opacity="0" width="23.1946" x="0" y="0" />
              <path d="M4.65805 15.2707L17.4492 15.2707Q18.6615 15.2707 19.706 14.8437Q20.7504 14.4167 21.5342 13.6603Q22.318 12.9039 22.7563 11.8964Q23.1946 10.8888 23.1946 9.71786Q23.1946 8.53729 22.7367 7.53456Q22.2789 6.53183 21.461 5.79163Q20.643 5.05142 19.543 4.64058Q18.443 4.22974 17.1518 4.23279Q16.188 2.28104 14.4917 1.14052Q12.7953 0 10.551 0Q9.14337 0 7.89169 0.523987Q6.64001 1.04797 5.66208 1.98212Q4.68414 2.91626 4.07608 4.15649Q3.46802 5.39673 3.35083 6.83228Q2.38403 7.09656 1.62521 7.69363Q0.866394 8.29071 0.433197 9.14772Q0 10.0047 0 11.049Q0 12.2647 0.569992 13.2156Q1.13998 14.1664 2.18391 14.7186Q3.22784 15.2707 4.65805 15.2707Z"
                     fill="#ffffff" />
       </g>
</svg>