<svg width="28.0949" height="22.3935">
       <g>
              <rect height="22.3935" opacity="0" width="28.0949" x="0" y="0" />
              <path d="M3.94516 19.5076L14.572 19.5076Q15.9413 19.5076 17.0383 18.8831Q18.1352 18.2585 18.7774 17.1935Q19.4196 16.1285 19.4196 14.8105Q19.4196 13.4991 18.7579 12.4522Q18.0962 11.4052 16.9586 10.7969Q15.8211 10.1886 14.3903 10.1817Q13.8239 9.10156 13.0025 8.3149Q12.1811 7.52823 11.131 7.09778Q10.0809 6.66733 8.84567 6.66733Q7.66937 6.66733 6.62125 7.1019Q5.57312 7.53647 4.74991 8.3094Q3.9267 9.08234 3.41301 10.1175Q2.89932 11.1526 2.78519 12.3509Q1.57043 12.7008 0.785217 13.6486Q0 14.5964 0 15.9171Q0 16.9472 0.485077 17.7564Q0.970154 18.5657 1.85791 19.0366Q2.74567 19.5076 3.94516 19.5076Z"
                     fill="#ffffff" />
              <path d="M20.3822 14.2159Q21.5079 13.5197 22.1719 12.4255Q22.836 11.3313 22.836 9.99374Q22.836 8.67645 22.2035 7.60048Q21.571 6.52451 20.4967 5.88722Q19.4223 5.24994 18.1116 5.24994Q16.7169 5.24994 15.6023 5.97206Q14.4876 6.69418 13.9337 7.85248Q14.2334 8.17703 14.4925 8.53165Q14.7516 8.88626 14.9672 9.29779Q16.5179 9.41864 17.6768 10.0686Q18.8356 10.7185 19.53 11.7844Q20.2243 12.8502 20.3822 14.2159ZM12.7321 5.48203Q12.9156 5.65903 13.1742 5.65903Q13.4328 5.65903 13.6029 5.48203Q13.773 5.30518 13.7764 5.05005Q13.7798 4.79492 13.6029 4.62479L11.9144 2.92953Q11.7345 2.74963 11.4841 2.75108Q11.2338 2.75253 11.057 2.92953Q10.8801 3.10928 10.8752 3.36296Q10.8704 3.61664 11.057 3.79654ZM18.1146 3.60031Q18.3649 3.60031 18.5481 3.41522Q18.7314 3.23013 18.7314 2.9866L18.7314 0.613861Q18.7314 0.360565 18.5481 0.180283Q18.3649 0 18.1146 0Q17.8644 0 17.6811 0.180283Q17.4979 0.360565 17.4979 0.613861L17.4979 2.9866Q17.4979 3.23013 17.6811 3.41522Q17.8644 3.60031 18.1146 3.60031ZM25.0993 10.6076L27.4879 10.6076Q27.7412 10.6076 27.9181 10.4274Q28.0949 10.2472 28.0949 9.99374Q28.0949 9.73679 27.9181 9.55994Q27.7412 9.38309 27.4879 9.38309L25.0993 9.38309Q24.8558 9.38309 24.6722 9.55994Q24.4885 9.73679 24.4885 9.99374Q24.4885 10.2472 24.6722 10.4274Q24.8558 10.6076 25.0993 10.6076ZM22.6263 5.48203Q22.7965 5.65903 23.0584 5.65903Q23.3203 5.65903 23.4972 5.48203L25.179 3.79654Q25.3589 3.61664 25.3574 3.36296Q25.3558 3.10928 25.179 2.92953Q25.0021 2.75253 24.7518 2.75108Q24.5015 2.74963 24.3216 2.92953L22.6263 4.62479Q22.4495 4.79492 22.4529 5.05005Q22.4562 5.30518 22.6263 5.48203ZM24.3216 17.0709Q24.5015 17.2508 24.7518 17.2426Q25.0021 17.2343 25.179 17.0642Q25.3558 16.8874 25.3574 16.6337Q25.3589 16.38 25.179 16.1972L23.4837 14.5183Q23.3069 14.3481 23.055 14.3448Q22.8032 14.3414 22.6263 14.5183Q22.4495 14.6951 22.4495 14.9503Q22.4495 15.2055 22.6263 15.3824Z"
                     fill="#ffd60a" />
       </g>
</svg>