<svg width="25.2641" height="25.7957">
       <g>
              <rect height="25.7957" opacity="0" width="25.2641" x="0" y="0" />
              <path d="M3.59344 22.7955L4.97559 20.4099Q5.08438 20.2216 5.03609 20.036Q4.98779 19.8504 4.81232 19.7477Q4.63608 19.6479 4.45541 19.7008Q4.27475 19.7538 4.15909 19.9419L2.77695 22.341Q2.67792 22.5159 2.72141 22.7015Q2.76489 22.8872 2.94708 22.9898Q3.11951 23.0858 3.30696 23.0314Q3.49442 22.977 3.59344 22.7955ZM6.66519 25.5336L8.04077 23.1546Q8.15918 22.9663 8.10936 22.7808Q8.05954 22.5953 7.88712 22.4924Q7.70782 22.3861 7.52716 22.4423Q7.3465 22.4985 7.23099 22.6899L5.84869 25.0792Q5.74295 25.2637 5.78789 25.4445Q5.83282 25.6252 6.01883 25.7279Q6.19125 25.8306 6.37871 25.7777Q6.56616 25.7248 6.66519 25.5336ZM11.3699 22.7887L12.7454 20.4032Q12.8609 20.2149 12.8111 20.0293Q12.7612 19.8436 12.5888 19.7409Q12.4126 19.6412 12.2318 19.694Q12.0511 19.7469 11.9356 19.9352L10.5504 22.3343Q10.4446 22.5092 10.4896 22.6947Q10.5345 22.8803 10.7138 22.9831Q10.896 23.0791 11.0786 23.0247Q11.2611 22.9703 11.3699 22.7887ZM14.4417 25.5268L15.8171 23.151Q15.9326 22.9596 15.8828 22.7755Q15.833 22.5914 15.6538 22.4887Q15.4843 22.3822 15.3002 22.437Q15.1161 22.4918 15.0073 22.6831L13.6252 25.0725Q13.5194 25.257 13.5629 25.4377Q13.6063 25.6185 13.7886 25.7212Q13.961 25.8269 14.1485 25.7725Q14.3359 25.7181 14.4417 25.5268Z"
                     fill="#5ac8f5" />
              <path d="M20.3252 13.2015Q21.5555 12.988 22.4797 12.4723Q23.4039 11.9567 24.0217 11.2946Q24.6394 10.6325 24.9518 9.96052Q25.2641 9.28852 25.2641 8.75569Q25.2641 8.52391 25.1523 8.3762Q25.0404 8.2285 24.8425 8.2285Q24.6445 8.2285 24.3063 8.36506Q23.9682 8.50163 23.4927 8.63819Q23.0173 8.77476 22.41 8.77476Q21.1945 8.77476 20.2946 8.30403Q19.3948 7.83329 18.9012 6.9891Q18.4076 6.14491 18.4076 5.02461Q18.4076 4.39457 18.5637 3.88722Q18.7198 3.37986 18.8741 3.00221Q19.0283 2.62455 19.0283 2.41001Q19.0283 2.1938 18.8891 2.07676Q18.7498 1.95973 18.4659 1.9785Q17.7066 2.04106 16.99 2.45121Q16.2733 2.86137 15.6717 3.53123Q15.07 4.20109 14.6593 5.04856Q14.2487 5.89604 14.1048 6.83323Q14.2992 7.0261 14.4746 7.27978Q14.6501 7.53346 14.7986 7.85969Q15.9813 7.94834 16.9711 8.38597Q17.9608 8.82359 18.6971 9.54212Q19.4334 10.2607 19.8574 11.1967Q20.2814 12.1328 20.3252 13.2015Z"
                     fill="#ffffff" />
              <path d="M3.89847 18.0384L14.5253 18.0384Q15.8659 18.0384 16.952 17.4233Q18.038 16.8082 18.6787 15.7526Q19.3195 14.697 19.3195 13.3948Q19.3195 12.0865 18.6626 11.049Q18.0057 10.0115 16.8745 9.4125Q15.7434 8.81352 14.3089 8.8068Q13.7273 7.68284 12.8886 6.89923Q12.05 6.11561 11.0123 5.70393Q9.97452 5.29225 8.79593 5.29225Q7.63184 5.29225 6.59004 5.72529Q5.54825 6.15834 4.72664 6.92982Q3.90503 7.7013 3.39279 8.73158Q2.88055 9.76185 2.77924 10.9668Q1.50497 11.3257 0.752487 12.2796Q0 13.2335 0 14.4983Q0 15.5437 0.494537 16.3438Q0.989075 17.1439 1.86737 17.5911Q2.74567 18.0384 3.89847 18.0384Z"
                     fill="#ffffff" />
       </g>
</svg>