<svg width="17.6855" height="17.7051">
       <g>
              <rect height="17.7051" opacity="0" width="17.6855" x="0" y="0" />
              <path d="M2.88086 17.7051L14.8047 17.7051Q16.2305 17.7051 16.958 16.9873Q17.6855 16.2695 17.6855 14.8535L17.6855 2.88086Q17.6855 1.46484 16.958 0.742188Q16.2305 0.0195312 14.8047 0.0195312L2.88086 0.0195312Q1.44531 0.0195312 0.722656 0.737305Q0 1.45508 0 2.88086L0 14.8535Q0 16.2695 0.722656 16.9873Q1.44531 17.7051 2.88086 17.7051Z"
                     fill="rgba(255,255,255,0.55)" />
              <path d="M6.63086 7.76367L5.70312 7.76367Q5.15625 7.76367 4.69727 7.49023Q4.23828 7.2168 3.96484 6.7627Q3.69141 6.30859 3.69141 5.75195Q3.69141 5.20508 3.96484 4.74609Q4.23828 4.28711 4.69238 4.01367Q5.14648 3.74023 5.70312 3.74023Q6.25977 3.74023 6.71387 4.01855Q7.16797 4.29688 7.44141 4.75098Q7.71484 5.20508 7.71484 5.75195L7.71484 6.68945L9.88281 6.68945L9.88281 5.75195Q9.88281 5.20508 10.1562 4.75098Q10.4297 4.29688 10.8838 4.01855Q11.3379 3.74023 11.8848 3.74023Q12.4512 3.74023 12.9053 4.01367Q13.3594 4.28711 13.6328 4.74609Q13.9062 5.20508 13.9062 5.75195Q13.9062 6.30859 13.6328 6.7627Q13.3594 7.2168 12.9004 7.49023Q12.4414 7.76367 11.8848 7.76367L10.9668 7.76367L10.9668 9.94141L11.8848 9.94141Q12.4414 9.94141 12.9004 10.2148Q13.3594 10.4883 13.6328 10.9375Q13.9062 11.3867 13.9062 11.9434Q13.9062 12.5 13.6328 12.959Q13.3594 13.418 12.9053 13.6865Q12.4512 13.9551 11.8848 13.9551Q11.3379 13.9551 10.8838 13.6816Q10.4297 13.4082 10.1562 12.9541Q9.88281 12.5 9.88281 11.9434L9.88281 11.0059L7.71484 11.0059L7.71484 11.9434Q7.71484 12.5 7.44141 12.9541Q7.16797 13.4082 6.71387 13.6816Q6.25977 13.9551 5.70312 13.9551Q5.14648 13.9551 4.69238 13.6865Q4.23828 13.418 3.96484 12.959Q3.69141 12.5 3.69141 11.9434Q3.69141 11.3867 3.96484 10.9375Q4.23828 10.4883 4.69727 10.2148Q5.15625 9.94141 5.70312 9.94141L6.63086 9.94141ZM7.71484 9.94141L9.88281 9.94141L9.88281 7.75391L7.71484 7.75391ZM5.70312 6.68945L6.63086 6.68945L6.63086 5.75195Q6.63086 5.38086 6.35742 5.09766Q6.08398 4.81445 5.70312 4.81445Q5.32227 4.81445 5.04395 5.09277Q4.76562 5.37109 4.76562 5.75195Q4.76562 6.14258 5.04395 6.41602Q5.32227 6.68945 5.70312 6.68945ZM11.8848 6.68945Q12.2754 6.68945 12.5488 6.41602Q12.8223 6.14258 12.8223 5.75195Q12.8223 5.37109 12.5488 5.09277Q12.2754 4.81445 11.8848 4.81445Q11.5137 4.81445 11.2402 5.09766Q10.9668 5.38086 10.9668 5.75195L10.9668 6.68945ZM5.70312 10.9961Q5.32227 10.9961 5.04395 11.2744Q4.76562 11.5527 4.76562 11.9336Q4.76562 12.3242 5.04395 12.5977Q5.32227 12.8711 5.70312 12.8711Q6.08398 12.8711 6.35742 12.5928Q6.63086 12.3145 6.63086 11.9336L6.63086 10.9961ZM11.8848 10.9961L10.9668 10.9961L10.9668 11.9336Q10.9668 12.3145 11.2402 12.5928Q11.5137 12.8711 11.8848 12.8711Q12.2754 12.8711 12.5488 12.5977Q12.8223 12.3242 12.8223 11.9336Q12.8223 11.5527 12.5488 11.2744Q12.2754 10.9961 11.8848 10.9961Z"
                     fill="#ffffff" />
       </g>
</svg>