<svg width="19.5898" height="19.5996">
       <g>
              <rect height="19.5996" opacity="0" width="19.5898" x="0" y="0" />
              <path d="M9.79492 19.5996Q11.8066 19.5996 13.5791 18.833Q15.3516 18.0664 16.7041 16.7139Q18.0566 15.3613 18.8232 13.5889Q19.5898 11.8164 19.5898 9.80469Q19.5898 7.79297 18.8232 6.02051Q18.0566 4.24805 16.7041 2.89551Q15.3516 1.54297 13.5742 0.776367Q11.7969 0.00976562 9.78516 0.00976562Q7.77344 0.00976562 6.00098 0.776367Q4.22852 1.54297 2.88086 2.89551Q1.5332 4.24805 0.766602 6.02051Q0 7.79297 0 9.80469Q0 11.8164 0.766602 13.5889Q1.5332 15.3613 2.88574 16.7139Q4.23828 18.0664 6.01074 18.833Q7.7832 19.5996 9.79492 19.5996Z"
                     fill="rgba(255,255,255,0.55)" />
              <path d="M7.57812 8.7207L6.65039 8.7207Q6.10352 8.7207 5.64453 8.44727Q5.18555 8.17383 4.91211 7.71973Q4.63867 7.26562 4.63867 6.70898Q4.63867 6.16211 4.91211 5.70312Q5.18555 5.24414 5.63965 4.9707Q6.09375 4.69727 6.65039 4.69727Q7.20703 4.69727 7.66113 4.97559Q8.11523 5.25391 8.38867 5.70801Q8.66211 6.16211 8.66211 6.70898L8.66211 7.64648L10.8301 7.64648L10.8301 6.70898Q10.8301 6.16211 11.1035 5.70801Q11.377 5.25391 11.8311 4.97559Q12.2852 4.69727 12.832 4.69727Q13.3984 4.69727 13.8525 4.9707Q14.3066 5.24414 14.5801 5.70312Q14.8535 6.16211 14.8535 6.70898Q14.8535 7.26562 14.5801 7.71973Q14.3066 8.17383 13.8477 8.44727Q13.3887 8.7207 12.832 8.7207L11.9141 8.7207L11.9141 10.8984L12.832 10.8984Q13.3887 10.8984 13.8477 11.1719Q14.3066 11.4453 14.5801 11.8945Q14.8535 12.3438 14.8535 12.9004Q14.8535 13.457 14.5801 13.916Q14.3066 14.375 13.8525 14.6436Q13.3984 14.9121 12.832 14.9121Q12.2852 14.9121 11.8311 14.6387Q11.377 14.3652 11.1035 13.9111Q10.8301 13.457 10.8301 12.9004L10.8301 11.9629L8.66211 11.9629L8.66211 12.9004Q8.66211 13.457 8.38867 13.9111Q8.11523 14.3652 7.66113 14.6387Q7.20703 14.9121 6.65039 14.9121Q6.09375 14.9121 5.63965 14.6436Q5.18555 14.375 4.91211 13.916Q4.63867 13.457 4.63867 12.9004Q4.63867 12.3438 4.91211 11.8945Q5.18555 11.4453 5.64453 11.1719Q6.10352 10.8984 6.65039 10.8984L7.57812 10.8984ZM8.66211 10.8984L10.8301 10.8984L10.8301 8.71094L8.66211 8.71094ZM6.65039 7.64648L7.57812 7.64648L7.57812 6.70898Q7.57812 6.33789 7.30469 6.05469Q7.03125 5.77148 6.65039 5.77148Q6.26953 5.77148 5.99121 6.0498Q5.71289 6.32812 5.71289 6.70898Q5.71289 7.09961 5.99121 7.37305Q6.26953 7.64648 6.65039 7.64648ZM12.832 7.64648Q13.2227 7.64648 13.4961 7.37305Q13.7695 7.09961 13.7695 6.70898Q13.7695 6.32812 13.4961 6.0498Q13.2227 5.77148 12.832 5.77148Q12.4609 5.77148 12.1875 6.05469Q11.9141 6.33789 11.9141 6.70898L11.9141 7.64648ZM6.65039 11.9531Q6.26953 11.9531 5.99121 12.2314Q5.71289 12.5098 5.71289 12.8906Q5.71289 13.2812 5.99121 13.5547Q6.26953 13.8281 6.65039 13.8281Q7.03125 13.8281 7.30469 13.5498Q7.57812 13.2715 7.57812 12.8906L7.57812 11.9531ZM12.832 11.9531L11.9141 11.9531L11.9141 12.8906Q11.9141 13.2715 12.1875 13.5498Q12.4609 13.8281 12.832 13.8281Q13.2227 13.8281 13.4961 13.5547Q13.7695 13.2812 13.7695 12.8906Q13.7695 12.5098 13.4961 12.2314Q13.2227 11.9531 12.832 11.9531Z"
                     fill="#ffffff" />
       </g>
</svg>