<svg width="19.5898" height="19.5996">
       <g>
              <rect height="19.5996" opacity="0" width="19.5898" x="0" y="0" />
              <path d="M9.79492 19.5898Q11.8066 19.5898 13.5791 18.8232Q15.3516 18.0566 16.7041 16.7041Q18.0566 15.3516 18.8232 13.5791Q19.5898 11.8066 19.5898 9.79492Q19.5898 7.7832 18.8232 6.01074Q18.0566 4.23828 16.7041 2.88574Q15.3516 1.5332 13.5742 0.766602Q11.7969 0 9.78516 0Q7.77344 0 6.00098 0.766602Q4.22852 1.5332 2.88086 2.88574Q1.5332 4.23828 0.766602 6.01074Q0 7.7832 0 9.79492Q0 11.8066 0.766602 13.5791Q1.5332 15.3516 2.88574 16.7041Q4.23828 18.0566 6.01074 18.8232Q7.7832 19.5898 9.79492 19.5898Z"
                     fill="rgba(255,255,255,0.55)" />
              <path d="M5.58594 13.8477Q4.88281 13.8477 4.52148 13.4912Q4.16016 13.1348 4.16016 12.4219L4.16016 8.66211L15.4395 8.66211L15.4395 12.4219Q15.4395 13.1348 15.0781 13.4912Q14.7168 13.8477 14.0137 13.8477ZM6.09375 12.3926L7.28516 12.3926Q7.76367 12.3926 7.76367 11.9238L7.76367 11.0254Q7.76367 10.5566 7.28516 10.5566L6.09375 10.5566Q5.625 10.5566 5.625 11.0254L5.625 11.9238Q5.625 12.3926 6.09375 12.3926ZM4.16016 7.56836L4.16016 7.1582Q4.16016 6.45508 4.52148 6.09863Q4.88281 5.74219 5.58594 5.74219L14.0137 5.74219Q14.7168 5.74219 15.0781 6.09863Q15.4395 6.45508 15.4395 7.1582L15.4395 7.56836Z"
                     fill="#ffffff" />
       </g>
</svg>