<svg width="19.5898" height="19.5996">
       <g>
              <rect height="19.5996" opacity="0" width="19.5898" x="0" y="0" />
              <path d="M9.79492 19.5898Q11.8066 19.5898 13.5791 18.8232Q15.3516 18.0566 16.7041 16.7041Q18.0566 15.3516 18.8232 13.5791Q19.5898 11.8066 19.5898 9.79492Q19.5898 7.7832 18.8232 6.01074Q18.0566 4.23828 16.7041 2.88574Q15.3516 1.5332 13.5742 0.766602Q11.7969 0 9.78516 0Q7.77344 0 6.00098 0.766602Q4.22852 1.5332 2.88086 2.88574Q1.5332 4.23828 0.766602 6.01074Q0 7.7832 0 9.79492Q0 11.8066 0.766602 13.5791Q1.5332 15.3516 2.88574 16.7041Q4.23828 18.0566 6.01074 18.8232Q7.7832 19.5898 9.79492 19.5898ZM9.79492 18.3203Q8.02734 18.3203 6.47949 17.6611Q4.93164 17.002 3.75977 15.8301Q2.58789 14.6582 1.92871 13.1104Q1.26953 11.5625 1.26953 9.79492Q1.26953 8.02734 1.92871 6.47949Q2.58789 4.93164 3.75977 3.75488Q4.93164 2.57812 6.47461 1.91895Q8.01758 1.25977 9.78516 1.25977Q11.5625 1.25977 13.1104 1.91895Q14.6582 2.57812 15.8301 3.75488Q17.002 4.93164 17.666 6.47949Q18.3301 8.02734 18.3301 9.79492Q18.3301 11.5625 17.666 13.1104Q17.002 14.6582 15.8301 15.8301Q14.6582 17.002 13.1152 17.6611Q11.5723 18.3203 9.79492 18.3203Z"
                     fill="#ff453a" />
              <path d="M4.51172 10.752Q4.51172 11.1914 4.78516 11.4648Q5.05859 11.7383 5.49805 11.7383L7.8125 11.7383L7.8125 14.0527Q7.8125 14.502 8.08105 14.7754Q8.34961 15.0488 8.79883 15.0488L10.7715 15.0488Q11.2109 15.0488 11.4795 14.7754Q11.748 14.502 11.748 14.0527L11.748 11.7383L14.0723 11.7383Q14.5117 11.7383 14.7852 11.4648Q15.0586 11.1914 15.0586 10.752L15.0586 8.7793Q15.0586 8.33984 14.7852 8.06641Q14.5117 7.79297 14.0723 7.79297L11.748 7.79297L11.748 5.49805Q11.748 5.04883 11.4795 4.77539Q11.2109 4.50195 10.7715 4.50195L8.79883 4.50195Q8.34961 4.50195 8.08105 4.77539Q7.8125 5.04883 7.8125 5.49805L7.8125 7.79297L5.49805 7.79297Q5.04883 7.79297 4.78027 8.06641Q4.51172 8.33984 4.51172 8.7793Z"
                     fill="#ff453a" />
       </g>
</svg>