<svg width="22.1484" height="20.498">
       <g>
              <rect height="20.498" opacity="0" width="22.1484" x="0" y="0" />
              <path d="M2.7832 18.6035L19.3652 18.6035Q20.752 18.6035 21.4502 17.9199Q22.1484 17.2363 22.1484 15.8496L22.1484 6.2207Q22.1484 4.83398 21.4502 4.15527Q20.752 3.47656 19.3652 3.47656L2.7832 3.47656Q1.39648 3.47656 0.698242 4.15527Q0 4.83398 0 6.2207L0 15.8496Q0 17.2363 0.698242 17.9199Q1.39648 18.6035 2.7832 18.6035ZM6.26953 4.14062L7.43164 4.14062L7.43164 2.31445Q7.43164 1.73828 7.76855 1.4209Q8.10547 1.10352 8.71094 1.10352L13.4375 1.10352Q14.0332 1.10352 14.3652 1.4209Q14.6973 1.73828 14.6973 2.31445L14.6973 4.13086L15.8691 4.13086L15.8691 2.38281Q15.8691 1.19141 15.2295 0.595703Q14.5898 0 13.4082 0L8.73047 0Q7.59766 0 6.93359 0.595703Q6.26953 1.19141 6.26953 2.38281Z"
                     fill="rgba(255,255,255,0.55)" />
              <path d="M6.62109 11.8457L6.62109 10.1855Q6.62109 9.81445 6.85059 9.58496Q7.08008 9.35547 7.46094 9.35547L9.4043 9.35547L9.4043 7.40234Q9.4043 7.03125 9.63379 6.79688Q9.86328 6.5625 10.2441 6.5625L11.9043 6.5625Q12.2852 6.5625 12.5146 6.79688Q12.7441 7.03125 12.7441 7.40234L12.7441 9.35547L14.6973 9.35547Q15.0684 9.35547 15.3027 9.58496Q15.5371 9.81445 15.5371 10.1855L15.5371 11.8457Q15.5371 12.2266 15.3027 12.4561Q15.0684 12.6855 14.6973 12.6855L12.7441 12.6855L12.7441 14.6289Q12.7441 15.0098 12.5146 15.2441Q12.2852 15.4785 11.9043 15.4785L10.2441 15.4785Q9.86328 15.4785 9.63379 15.2441Q9.4043 15.0098 9.4043 14.6289L9.4043 12.6855L7.46094 12.6855Q7.08008 12.6855 6.85059 12.4561Q6.62109 12.2266 6.62109 11.8457Z"
                     fill="#ffffff" />
       </g>
</svg>