<svg width="19.5898" height="19.5996">
       <g>
              <rect height="19.5996" opacity="0" width="19.5898" x="0" y="0" />
              <path d="M9.79492 19.5996Q11.8066 19.5996 13.5791 18.833Q15.3516 18.0664 16.7041 16.7139Q18.0566 15.3613 18.8232 13.5889Q19.5898 11.8164 19.5898 9.80469Q19.5898 7.79297 18.8232 6.02051Q18.0566 4.24805 16.7041 2.89551Q15.3516 1.54297 13.5742 0.776367Q11.7969 0.00976562 9.78516 0.00976562Q7.77344 0.00976562 6.00098 0.776367Q4.22852 1.54297 2.88086 2.89551Q1.5332 4.24805 0.766602 6.02051Q0 7.79297 0 9.80469Q0 11.8164 0.766602 13.5889Q1.5332 15.3613 2.88574 16.7139Q4.23828 18.0664 6.01074 18.833Q7.7832 19.5996 9.79492 19.5996Z"
                     fill="#ff453a" />
              <path d="M4.4043 10.791L4.4043 8.7793Q4.4043 8.33008 4.68262 8.05176Q4.96094 7.77344 5.41992 7.77344L7.77344 7.77344L7.77344 5.41992Q7.77344 4.96094 8.05176 4.68262Q8.33008 4.4043 8.78906 4.4043L10.791 4.4043Q11.25 4.4043 11.5283 4.68262Q11.8066 4.96094 11.8066 5.41992L11.8066 7.77344L14.1699 7.77344Q14.6191 7.77344 14.9023 8.05176Q15.1855 8.33008 15.1855 8.7793L15.1855 10.791Q15.1855 11.25 14.9023 11.5283Q14.6191 11.8066 14.1699 11.8066L11.8066 11.8066L11.8066 14.1504Q11.8066 14.6191 11.5283 14.8975Q11.25 15.1758 10.791 15.1758L8.78906 15.1758Q8.33008 15.1758 8.05176 14.8975Q7.77344 14.6191 7.77344 14.1504L7.77344 11.8066L5.41992 11.8066Q4.96094 11.8066 4.68262 11.5283Q4.4043 11.25 4.4043 10.791Z"
                     fill="#ffffff" />
       </g>
</svg>