<svg width="13.0496" height="22.7966">
       <g>
              <rect height="22.7966" opacity="0" width="13.0496" x="0" y="0" />
              <path d="M1.67099 2.64786Q1.67099 3.36761 2.07481 3.78426Q2.47864 4.2009 3.17886 4.2009L9.86404 4.2009Q10.571 4.2009 10.9748 3.78426Q11.3786 3.36761 11.3786 2.64786L11.3786 1.55289Q11.3786 0.83313 10.9748 0.416565Q10.571 0 9.86404 0L3.17886 0Q2.47864 0 2.07481 0.416565Q1.67099 0.83313 1.67099 1.55289ZM2.74826 2.63748L2.74826 1.56631Q2.74826 1.34216 2.87804 1.20781Q3.00781 1.07346 3.22601 1.07346L9.81689 1.07346Q10.0418 1.07346 10.1716 1.20781Q10.3014 1.34216 10.3014 1.56631L10.3014 2.63748Q10.3014 2.85492 10.1716 2.99263Q10.0418 3.13034 9.81689 3.13034L3.22601 3.13034Q3.00781 3.13034 2.87804 2.99263Q2.74826 2.85492 2.74826 2.63748ZM4.23157 5.93887L4.23157 3.74542L3.1543 3.74542L3.1543 5.93887ZM9.89532 5.93887L9.89532 3.74542L8.81805 3.74542L8.81805 5.93887ZM0 19.7429Q0 20.674 0.364914 21.3539Q0.729828 22.0338 1.39999 22.4052Q2.07016 22.7765 2.98477 22.7765L10.0648 22.7765Q10.9727 22.7765 11.6463 22.4052Q12.3198 22.0338 12.6847 21.3539Q13.0496 20.674 13.0496 19.7429L13.0496 8.66562Q13.0496 7.73148 12.6847 7.05299Q12.3198 6.37451 11.6463 6.00327Q10.9727 5.63202 10.0648 5.63202L2.98477 5.63202Q2.07016 5.63202 1.39999 6.00327Q0.729828 6.37451 0.364914 7.05299Q0 7.73148 0 8.66562ZM1.15509 19.7293L1.15509 8.67905Q1.15509 7.81006 1.66199 7.30194Q2.16888 6.79382 3.03558 6.79382L10.014 6.79382Q10.8807 6.79382 11.3876 7.30194Q11.8945 7.81006 11.8945 8.67905L11.8945 19.7293Q11.8945 20.6052 11.3876 21.1133Q10.8807 21.6214 10.014 21.6214L3.03558 21.6214Q2.16888 21.6214 1.66199 21.1133Q1.15509 20.6052 1.15509 19.7293Z"
                     fill="#98989d" />
              <path d="M2.92282 14.8718Q2.92282 15.1782 3.10684 15.3619Q3.29086 15.5457 3.59055 15.5457L5.18295 15.5457L5.18295 17.1254Q5.18295 17.4281 5.36362 17.617Q5.54428 17.8059 5.85083 17.8059L7.19208 17.8059Q7.49847 17.8059 7.68219 17.617Q7.86591 17.4281 7.86591 17.1254L7.86591 15.5457L9.45236 15.5457Q9.74533 15.5457 9.93912 15.3619Q10.1329 15.1782 10.1329 14.8718L10.1329 13.5365Q10.1329 13.224 9.93912 13.0434Q9.74533 12.8627 9.45236 12.8627L7.86591 12.8627L7.86591 11.277Q7.86591 10.9773 7.68219 10.7933Q7.49847 10.6093 7.19208 10.6093L5.85083 10.6093Q5.54428 10.6093 5.36362 10.7933Q5.18295 10.9773 5.18295 11.277L5.18295 12.8627L3.59055 12.8627Q3.29086 12.8627 3.10684 13.0434Q2.92282 13.224 2.92282 13.5365Z"
                     fill="#32d74b" />
       </g>
</svg>