<svg width="13.0496" height="22.7966">
       <g>
              <rect height="22.7966" opacity="0" width="13.0496" x="0" y="0" />
              <path d="M3.17886 4.2009L9.86404 4.2009Q10.571 4.2009 10.9748 3.78426Q11.3786 3.36761 11.3786 2.64786L11.3786 1.55289Q11.3786 0.83313 10.9748 0.416565Q10.571 0 9.86404 0L3.17886 0Q2.47864 0 2.07481 0.416565Q1.67099 0.83313 1.67099 1.55289L1.67099 2.64786Q1.67099 3.36761 2.07481 3.78426Q2.47864 4.2009 3.17886 4.2009ZM3.41171 5.93887L9.63791 5.93887L9.63791 3.74542L3.41171 3.74542ZM2.98477 22.7765L10.0648 22.7765Q10.9727 22.7765 11.6463 22.4052Q12.3198 22.0338 12.6847 21.3539Q13.0496 20.674 13.0496 19.7429L13.0496 8.66562Q13.0496 7.73148 12.6847 7.05299Q12.3198 6.37451 11.6463 6.00327Q10.9727 5.63202 10.0648 5.63202L2.98477 5.63202Q2.07016 5.63202 1.39999 6.00327Q0.729828 6.37451 0.364914 7.05299Q0 7.73148 0 8.66562L0 19.7429Q0 20.674 0.364914 21.3539Q0.729828 22.0338 1.39999 22.4052Q2.07016 22.7765 2.98477 22.7765Z"
                     fill="rgba(255,255,255,0.55)" />
              <path d="M2.84485 14.8853L2.84485 13.5231Q2.84485 13.2069 3.03566 13.0214Q3.22647 12.8358 3.52615 12.8358L5.1561 12.8358L5.1561 11.2126Q5.1561 10.9062 5.34012 10.7188Q5.52414 10.5315 5.8403 10.5315L7.20261 10.5315Q7.51877 10.5315 7.70432 10.7188Q7.88986 10.9062 7.88986 11.2126L7.88986 12.8358L9.51675 12.8358Q9.81644 12.8358 10.0121 13.0214Q10.2077 13.2069 10.2077 13.5231L10.2077 14.8853Q10.2077 15.1985 10.0121 15.3841Q9.81644 15.5696 9.51675 15.5696L7.88986 15.5696L7.88986 17.1898Q7.88986 17.4992 7.70432 17.6915Q7.51877 17.8838 7.20261 17.8838L5.8403 17.8838Q5.52414 17.8838 5.34012 17.6915Q5.1561 17.4992 5.1561 17.1898L5.1561 15.5696L3.52615 15.5696Q3.22647 15.5696 3.03566 15.3841Q2.84485 15.1985 2.84485 14.8853Z"
                     fill="#ffffff" />
       </g>
</svg>