<svg width="17.6855" height="17.7051">
       <g>
              <rect height="17.7051" opacity="0" width="17.6855" x="0" y="0" />
              <path d="M2.88086 17.7051L14.8047 17.7051Q16.2305 17.7051 16.958 16.9873Q17.6855 16.2695 17.6855 14.8535L17.6855 2.88086Q17.6855 1.46484 16.958 0.742188Q16.2305 0.0195312 14.8047 0.0195312L2.88086 0.0195312Q1.44531 0.0195312 0.722656 0.737305Q0 1.45508 0 2.88086L0 14.8535Q0 16.2695 0.722656 16.9873Q1.44531 17.7051 2.88086 17.7051Z"
                     fill="rgba(255,255,255,0.55)" />
              <path d="M6.9043 14.248Q5.95703 14.248 5.4248 13.7109Q4.89258 13.1738 4.89258 12.0801L4.89258 10.6738Q4.89258 10.0879 4.7168 9.87305Q4.54102 9.6582 4.0918 9.53125Q3.85742 9.46289 3.73047 9.27246Q3.60352 9.08203 3.60352 8.85742Q3.60352 8.63281 3.72559 8.4375Q3.84766 8.24219 4.0918 8.17383Q4.54102 8.05664 4.7168 7.83691Q4.89258 7.61719 4.89258 7.04102L4.89258 5.625Q4.89258 4.54102 5.4248 3.99902Q5.95703 3.45703 6.9043 3.45703Q7.23633 3.45703 7.42676 3.61328Q7.61719 3.76953 7.61719 4.00391Q7.61719 4.24805 7.45605 4.38965Q7.29492 4.53125 7.07031 4.53125Q6.54297 4.53125 6.28906 4.80469Q6.03516 5.07812 6.03516 5.76172L6.03516 7.25586Q6.03516 7.92969 5.65918 8.38379Q5.2832 8.83789 4.63867 8.91602L4.63867 8.7793Q5.2832 8.85742 5.65918 9.31641Q6.03516 9.77539 6.03516 10.459L6.03516 11.9434Q6.03516 12.627 6.28906 12.9004Q6.54297 13.1738 7.07031 13.1738Q7.29492 13.1738 7.45605 13.3203Q7.61719 13.4668 7.61719 13.7012Q7.61719 13.9355 7.42676 14.0918Q7.23633 14.248 6.9043 14.248ZM10.8008 14.248Q10.4688 14.248 10.2832 14.0918Q10.0977 13.9355 10.0977 13.7012Q10.0977 13.4668 10.2539 13.3203Q10.4102 13.1738 10.6348 13.1738Q11.1621 13.1738 11.416 12.9004Q11.6699 12.627 11.6699 11.9434L11.6699 10.459Q11.6699 9.77539 12.0459 9.31641Q12.4219 8.85742 13.0664 8.7793L13.0664 8.91602Q12.4219 8.83789 12.0459 8.38379Q11.6699 7.92969 11.6699 7.25586L11.6699 5.76172Q11.6699 5.07812 11.416 4.80469Q11.1621 4.53125 10.6348 4.53125Q10.4102 4.53125 10.2539 4.38965Q10.0977 4.24805 10.0977 4.00391Q10.0977 3.76953 10.2832 3.61328Q10.4688 3.45703 10.8008 3.45703Q11.748 3.45703 12.2803 3.99902Q12.8125 4.54102 12.8125 5.625L12.8125 7.04102Q12.8125 7.61719 12.9932 7.83691Q13.1738 8.05664 13.6133 8.17383Q13.8574 8.24219 13.9844 8.43262Q14.1113 8.62305 14.1064 8.85254Q14.1016 9.08203 13.9795 9.27734Q13.8574 9.47266 13.6133 9.53125Q13.1641 9.64844 12.9883 9.86816Q12.8125 10.0879 12.8125 10.6738L12.8125 12.0801Q12.8125 13.1738 12.2803 13.7109Q11.748 14.248 10.8008 14.248Z"
                     fill="#ffffff" />
       </g>
</svg>