<svg width="23.5989" height="20.8105">
       <g>
              <rect height="20.8105" opacity="0" width="23.5989" x="0" y="0" />
              <path d="M0 1.44287Q0 1.80527 0.176315 2.10503Q0.352631 2.40479 0.647507 2.5811Q0.942383 2.75742 1.30478 2.75742Q1.67786 2.75742 1.98822 2.55836Q2.29858 2.35931 2.44476 2.04926L21.1542 2.04926Q21.3071 2.35931 21.614 2.55836Q21.9209 2.75742 22.2911 2.75742Q22.6535 2.75742 22.9499 2.5811Q23.2463 2.40479 23.4226 2.10503Q23.5989 1.80527 23.5989 1.44287Q23.5989 1.08719 23.4226 0.78743Q23.2463 0.487671 22.9499 0.30983Q22.6535 0.131989 22.2911 0.131989Q21.9209 0.131989 21.614 0.332565Q21.3071 0.533142 21.1542 0.840302L2.44476 0.840302Q2.29858 0.533142 1.98822 0.332565Q1.67786 0.131989 1.30478 0.131989Q0.942383 0.131989 0.647507 0.30983Q0.352631 0.487671 0.176315 0.78743Q0 1.08719 0 1.44287Z"
                     fill="rgba(255,255,255,0.55)" />
              <path d="M3.91922 20.3166L5.59113 20.3166Q5.8606 20.3166 6.03317 20.1376Q6.20575 19.9586 6.20575 19.6771L6.20575 0.643311Q6.20575 0.357971 6.03317 0.178986Q5.8606 0 5.59113 0L3.91922 0Q3.6467 0 3.47404 0.178986Q3.30139 0.357971 3.30139 0.643311L3.30139 19.6771Q3.30139 19.9586 3.47404 20.1376Q3.6467 20.3166 3.91922 20.3166ZM18.0078 20.3166L19.6797 20.3166Q19.9522 20.3166 20.1248 20.1376Q20.2974 19.9586 20.2974 19.6771L20.2974 0.643311Q20.2974 0.357971 20.1248 0.178986Q19.9522 0 19.6797 0L18.0078 0Q17.7383 0 17.5658 0.178986Q17.3932 0.357971 17.3932 0.643311L17.3932 19.6771Q17.3932 19.9586 17.5658 20.1376Q17.7383 20.3166 18.0078 20.3166Z"
                     fill="rgba(255,255,255,0.55)" />
       </g>
</svg>