<svg width="19.5898" height="19.5996">
       <g>
              <rect height="19.5996" opacity="0" width="19.5898" x="0" y="0" />
              <path d="M9.79492 19.5898Q11.8066 19.5898 13.5791 18.8232Q15.3516 18.0566 16.7041 16.7041Q18.0566 15.3516 18.8232 13.5791Q19.5898 11.8066 19.5898 9.79492Q19.5898 7.7832 18.8232 6.01074Q18.0566 4.23828 16.7041 2.88574Q15.3516 1.5332 13.5742 0.766602Q11.7969 0 9.78516 0Q7.77344 0 6.00098 0.766602Q4.22852 1.5332 2.88086 2.88574Q1.5332 4.23828 0.766602 6.01074Q0 7.7832 0 9.79492Q0 11.8066 0.766602 13.5791Q1.5332 15.3516 2.88574 16.7041Q4.23828 18.0566 6.01074 18.8232Q7.7832 19.5898 9.79492 19.5898Z"
                     fill="rgba(255,255,255,0.55)" />
              <path d="M7.10938 14.2285Q6.81641 14.2285 6.66016 14.0381Q6.50391 13.8477 6.50391 13.5254L6.50391 5.94727Q6.50391 5.63477 6.66016 5.44434Q6.81641 5.25391 7.10938 5.25391L9.69727 5.25391Q11.7383 5.25391 12.8613 6.4209Q13.9844 7.58789 13.9844 9.70703Q13.9844 11.8945 12.8564 13.0615Q11.7285 14.2285 9.69727 14.2285ZM7.71484 13.2324L9.55078 13.2324Q11.0547 13.2324 11.8848 12.3535Q12.7148 11.4746 12.7148 9.72656Q12.7148 8.05664 11.8799 7.14844Q11.0449 6.24023 9.55078 6.24023L7.71484 6.24023Z"
                     fill="#ffffff" />
       </g>
</svg>