<svg width="17.6855" height="17.7051">
       <g>
              <rect height="17.7051" opacity="0" width="17.6855" x="0" y="0" />
              <path d="M2.88086 17.7051L14.8047 17.7051Q16.2305 17.7051 16.958 16.9873Q17.6855 16.2695 17.6855 14.8535L17.6855 2.88086Q17.6855 1.46484 16.958 0.742188Q16.2305 0.0195312 14.8047 0.0195312L2.88086 0.0195312Q1.44531 0.0195312 0.722656 0.737305Q0 1.45508 0 2.88086L0 14.8535Q0 16.2695 0.722656 16.9873Q1.44531 17.7051 2.88086 17.7051Z"
                     fill="rgba(255,255,255,0.55)" />
              <path d="M6.15234 13.2812Q5.85938 13.2812 5.70312 13.0908Q5.54688 12.9004 5.54688 12.5781L5.54688 5Q5.54688 4.6875 5.70312 4.49707Q5.85938 4.30664 6.15234 4.30664L8.74023 4.30664Q10.7812 4.30664 11.9043 5.47363Q13.0273 6.64062 13.0273 8.75977Q13.0273 10.9473 11.8994 12.1143Q10.7715 13.2812 8.74023 13.2812ZM6.75781 12.2852L8.59375 12.2852Q10.0977 12.2852 10.9277 11.4062Q11.7578 10.5273 11.7578 8.7793Q11.7578 7.10938 10.9229 6.20117Q10.0879 5.29297 8.59375 5.29297L6.75781 5.29297Z"
                     fill="#ffffff" />
       </g>
</svg>