<svg width="22.3013" height="16.5457">
       <g>
              <rect height="16.5457" opacity="0" width="22.3013" x="0" y="0" />
              <path d="M13.2063 1.14166Q13.4454 1.14166 13.6104 0.976715Q13.7753 0.811768 13.7753 0.565948Q13.7753 0.329742 13.6104 0.164871Q13.4454 0 13.2063 0L0.575714 0Q0.336456 0 0.168228 0.164871Q0 0.329742 0 0.565948Q0 0.811768 0.168228 0.976715Q0.336456 1.14166 0.575714 1.14166ZM13.2063 6.2648Q13.4454 6.2648 13.6104 6.09993Q13.7753 5.93506 13.7753 5.68924Q13.7753 5.44632 13.6104 5.28481Q13.4454 5.12329 13.2063 5.12329L0.575714 5.12329Q0.336456 5.12329 0.168228 5.28481Q0 5.44632 0 5.68924Q0 5.93506 0.168228 6.09993Q0.336456 6.2648 0.575714 6.2648ZM13.2063 11.3881Q13.4454 11.3881 13.6104 11.2232Q13.7753 11.0583 13.7753 10.8154Q13.7753 10.5696 13.6104 10.408Q13.4454 10.2464 13.2063 10.2464L0.575714 10.2464Q0.336456 10.2464 0.168228 10.408Q0 10.5696 0 10.8154Q0 11.0583 0.168228 11.2232Q0.336456 11.3881 0.575714 11.3881ZM8.21915 16.5047Q8.46207 16.5047 8.62511 16.3431Q8.78815 16.1815 8.78815 15.9387Q8.78815 15.6927 8.62511 15.5279Q8.46207 15.363 8.21915 15.363L0.575714 15.363Q0.336456 15.363 0.168228 15.5279Q0 15.6927 0 15.9387Q0 16.1815 0.168228 16.3431Q0.336456 16.5047 0.575714 16.5047Z"
                     fill="rgba(255,255,255,0.55)" />
              <path d="M20.8839 11.037Q21.2112 11.2561 21.542 11.2547Q21.8727 11.2532 22.087 11.0403Q22.3013 10.8275 22.3013 10.4213L22.3013 6.11328Q22.3013 5.48492 21.8513 5.3096Q21.4012 5.13428 20.8839 5.48782L17.8755 7.53082Q17.6135 7.71393 17.5234 7.99553Q17.4333 8.27713 17.5185 8.56201Q17.6038 8.84689 17.8755 9.0271Z"
                     fill="rgba(255,255,255,0.85)" />
       </g>
</svg>