<svg width="9.64951" height="18.0899">
       <g>
              <rect height="18.0899" opacity="0" width="9.64951" x="0" y="0" />
              <path d="M0.569 18.0525Q0.811768 18.0525 0.978165 17.8842Q1.14456 17.7159 1.14456 17.4701L1.14456 0.575714Q1.14456 0.329742 0.978165 0.164871Q0.811768 0 0.569 0Q0.329742 0 0.164871 0.164871Q0 0.329742 0 0.575714L0 17.4701Q0 17.7159 0.164871 17.8842Q0.329742 18.0525 0.569 18.0525Z"
                     fill="rgba(255,255,255,0.55)" />
              <path d="M8.23502 11.8091Q8.56247 12.0282 8.8916 12.0267Q9.22073 12.0253 9.43512 11.8124Q9.64951 11.5996 9.64951 11.1934L9.64951 6.88538Q9.64951 6.25702 9.2009 6.0817Q8.75229 5.90637 8.23502 6.25992L5.22659 8.30292Q4.9646 8.48602 4.87305 8.76762Q4.78149 9.04922 4.86816 9.33411Q4.95483 9.61899 5.22659 9.79919Z"
                     fill="rgba(255,255,255,0.85)" />
       </g>
</svg>