<svg width="20.7031" height="17.7051">
       <g>
              <rect height="17.7051" opacity="0" width="20.7031" x="0" y="0" />
              <path d="M17.8125 17.7051Q19.248 17.7051 19.9756 16.9873Q20.7031 16.2695 20.7031 14.8535L20.7031 2.88086Q20.7031 1.45508 19.9756 0.737305Q19.248 0.0195312 17.8125 0.0195312L9.46289 0.0195312Q8.90625 0.0195312 8.42773 0.117188Q7.94922 0.214844 7.51953 0.444336Q7.08984 0.673828 6.70898 1.06445L0.859375 7.09961Q0.556641 7.39258 0.366211 7.68555Q0.175781 7.97852 0.0878906 8.26172Q0 8.54492 0 8.83789Q0 9.27734 0.205078 9.70703Q0.410156 10.1367 0.859375 10.5957L6.71875 16.543Q7.09961 16.9336 7.52441 17.1924Q7.94922 17.4512 8.43262 17.5732Q8.91602 17.6953 9.47266 17.6953Z"
                     fill="#ff453a" />
              <path d="M8.81836 12.793Q8.55469 12.793 8.37402 12.6074Q8.19336 12.4219 8.19336 12.168Q8.19336 11.9043 8.37891 11.7188L11.2207 8.87695L8.37891 6.04492Q8.19336 5.84961 8.19336 5.58594Q8.19336 5.33203 8.37402 5.15137Q8.55469 4.9707 8.81836 4.9707Q9.07227 4.9707 9.27734 5.15625L12.1191 7.98828L14.9707 5.15625Q15.1562 4.96094 15.4199 4.96094Q15.6738 4.96094 15.8594 5.1416Q16.0449 5.32227 16.0449 5.57617Q16.0449 5.83984 15.8496 6.03516L13.0078 8.87695L15.8496 11.709Q16.0352 11.8848 16.0352 12.168Q16.0352 12.4219 15.8545 12.6074Q15.6738 12.793 15.4004 12.793Q15.127 12.793 14.9414 12.5977L12.1191 9.76562L9.29688 12.5977Q9.0918 12.793 8.81836 12.793Z"
                     fill="#ffffff" />
       </g>
</svg>