<svg width="20.7031" height="17.7051">
       <g>
              <rect height="17.7051" opacity="0" width="20.7031" x="0" y="0" />
              <path d="M2.88086 17.7051L11.2207 17.6953Q11.7871 17.6953 12.2705 17.5732Q12.7539 17.4512 13.1787 17.1924Q13.6035 16.9336 13.9844 16.543L19.8438 10.5957Q20.3027 10.1367 20.5029 9.70703Q20.7031 9.27734 20.7031 8.83789Q20.7031 8.54492 20.6104 8.26172Q20.5176 7.97852 20.332 7.68555Q20.1465 7.39258 19.8438 7.09961L13.9844 1.06445Q13.6133 0.673828 13.1836 0.444336Q12.7539 0.214844 12.2705 0.117188Q11.7871 0.0195312 11.2305 0.0195312L2.88086 0.0195312Q1.45508 0.0195312 0.727539 0.737305Q0 1.45508 0 2.88086L0 14.8535Q0 16.2695 0.727539 16.9873Q1.45508 17.7051 2.88086 17.7051ZM2.91016 16.4941Q2.08008 16.4941 1.64551 16.0645Q1.21094 15.6348 1.21094 14.7949L1.21094 2.93945Q1.21094 2.08984 1.64551 1.66016Q2.08008 1.23047 2.91016 1.23047L11.25 1.23047Q11.8262 1.23047 12.2607 1.35742Q12.6953 1.48438 13.0859 1.89453L18.9062 7.89062Q19.3945 8.39844 19.3945 8.83789Q19.3945 9.07227 19.2871 9.29688Q19.1797 9.52148 18.9062 9.79492L13.0859 15.7129Q12.6758 16.123 12.251 16.3086Q11.8262 16.4941 11.25 16.4941Z"
                     fill="#ff453a" />
              <path d="M5.19531 12.9004Q5.45898 12.9004 5.64453 12.6953L8.59375 9.74609L11.5625 12.6953Q11.7578 12.9004 12.0117 12.9004Q12.2656 12.9004 12.4463 12.7197Q12.627 12.5391 12.627 12.2852Q12.627 12.0312 12.4316 11.8457L9.47266 8.87695L12.4414 5.89844Q12.627 5.71289 12.627 5.45898Q12.627 5.20508 12.4512 5.0293Q12.2754 4.85352 12.0215 4.85352Q11.7773 4.85352 11.582 5.05859L8.59375 8.01758L5.63477 5.05859Q5.45898 4.87305 5.19531 4.87305Q4.94141 4.87305 4.76074 5.04395Q4.58008 5.21484 4.58008 5.46875Q4.58008 5.72266 4.76562 5.9082L7.73438 8.87695L4.76562 11.8555Q4.58008 12.0312 4.58008 12.2852Q4.58008 12.5391 4.76074 12.7197Q4.94141 12.9004 5.19531 12.9004Z"
                     fill="#ff453a" />
       </g>
</svg>