<svg width="20.7031" height="17.7051">
       <g>
              <rect height="17.7051" opacity="0" width="20.7031" x="0" y="0" />
              <path d="M17.8125 17.7051Q19.248 17.7051 19.9756 16.9873Q20.7031 16.2695 20.7031 14.8535L20.7031 2.88086Q20.7031 1.45508 19.9756 0.737305Q19.248 0.0195312 17.8125 0.0195312L9.46289 0.0195312Q8.90625 0.0195312 8.42773 0.117188Q7.94922 0.214844 7.51953 0.444336Q7.08984 0.673828 6.70898 1.06445L0.859375 7.09961Q0.556641 7.39258 0.366211 7.68555Q0.175781 7.97852 0.0878906 8.26172Q0 8.54492 0 8.83789Q0 9.27734 0.205078 9.70703Q0.410156 10.1367 0.859375 10.5957L6.71875 16.543Q7.09961 16.9336 7.52441 17.1924Q7.94922 17.4512 8.43262 17.5732Q8.91602 17.6953 9.47266 17.6953ZM17.793 16.4941L9.45312 16.4941Q8.87695 16.4941 8.44727 16.3086Q8.01758 16.123 7.61719 15.7129L1.78711 9.79492Q1.52344 9.52148 1.41602 9.29688Q1.30859 9.07227 1.30859 8.83789Q1.30859 8.39844 1.78711 7.89062L7.60742 1.89453Q8.01758 1.48438 8.44727 1.35742Q8.87695 1.23047 9.44336 1.23047L17.793 1.23047Q18.623 1.23047 19.0576 1.66016Q19.4922 2.08984 19.4922 2.93945L19.4922 14.7949Q19.4922 15.6348 19.0576 16.0645Q18.623 16.4941 17.793 16.4941Z"
                     fill="#ff453a" />
              <path d="M8.71094 12.9004Q8.97461 12.9004 9.16016 12.6953L12.1094 9.74609L15.0781 12.6953Q15.2734 12.9004 15.5273 12.9004Q15.7812 12.9004 15.9619 12.7197Q16.1426 12.5391 16.1426 12.2852Q16.1426 12.0312 15.9473 11.8457L12.9883 8.87695L15.957 5.89844Q16.1426 5.71289 16.1426 5.45898Q16.1426 5.20508 15.9668 5.0293Q15.791 4.85352 15.5371 4.85352Q15.293 4.85352 15.0977 5.05859L12.1094 8.01758L9.15039 5.05859Q8.97461 4.87305 8.71094 4.87305Q8.45703 4.87305 8.27637 5.04395Q8.0957 5.21484 8.0957 5.46875Q8.0957 5.72266 8.28125 5.9082L11.25 8.87695L8.28125 11.8555Q8.0957 12.0312 8.0957 12.2852Q8.0957 12.5391 8.27637 12.7197Q8.45703 12.9004 8.71094 12.9004Z"
                     fill="#ff453a" />
       </g>
</svg>