<svg width="20.7031" height="17.7051">
       <g>
              <rect height="17.7051" opacity="0" width="20.7031" x="0" y="0" />
              <path d="M2.88086 17.7051L11.2207 17.6953Q11.7871 17.6953 12.2705 17.5732Q12.7539 17.4512 13.1787 17.1924Q13.6035 16.9336 13.9844 16.543L19.8438 10.5957Q20.3027 10.1367 20.5029 9.70703Q20.7031 9.27734 20.7031 8.83789Q20.7031 8.54492 20.6104 8.26172Q20.5176 7.97852 20.332 7.68555Q20.1465 7.39258 19.8438 7.09961L13.9844 1.06445Q13.6133 0.673828 13.1836 0.444336Q12.7539 0.214844 12.2705 0.117188Q11.7871 0.0195312 11.2305 0.0195312L2.88086 0.0195312Q1.45508 0.0195312 0.727539 0.737305Q0 1.45508 0 2.88086L0 14.8535Q0 16.2695 0.727539 16.9873Q1.45508 17.7051 2.88086 17.7051Z"
                     fill="#ff453a" />
              <path d="M5.3125 12.793Q5.04883 12.793 4.86816 12.6074Q4.6875 12.4219 4.6875 12.168Q4.6875 11.9043 4.87305 11.7188L7.71484 8.87695L4.87305 6.04492Q4.6875 5.84961 4.6875 5.58594Q4.6875 5.33203 4.86816 5.15137Q5.04883 4.9707 5.3125 4.9707Q5.56641 4.9707 5.77148 5.15625L8.61328 7.98828L11.4648 5.15625Q11.6504 4.96094 11.9141 4.96094Q12.168 4.96094 12.3535 5.1416Q12.5391 5.32227 12.5391 5.57617Q12.5391 5.83984 12.3438 6.03516L9.50195 8.87695L12.3438 11.709Q12.5293 11.8848 12.5293 12.168Q12.5293 12.4219 12.3486 12.6074Q12.168 12.793 11.8945 12.793Q11.6211 12.793 11.4355 12.5977L8.61328 9.76562L5.79102 12.5977Q5.58594 12.793 5.3125 12.793Z"
                     fill="#ffffff" />
       </g>
</svg>