<svg width="19.5898" height="19.5996">
       <g>
              <rect height="19.5996" opacity="0" width="19.5898" x="0" y="0" />
              <path d="M9.79492 19.5898Q11.8066 19.5898 13.5791 18.8232Q15.3516 18.0566 16.7041 16.7041Q18.0566 15.3516 18.8232 13.5791Q19.5898 11.8066 19.5898 9.79492Q19.5898 7.7832 18.8232 6.01074Q18.0566 4.23828 16.7041 2.88574Q15.3516 1.5332 13.5742 0.766602Q11.7969 0 9.78516 0Q7.77344 0 6.00098 0.766602Q4.22852 1.5332 2.88086 2.88574Q1.5332 4.23828 0.766602 6.01074Q0 7.7832 0 9.79492Q0 11.8066 0.766602 13.5791Q1.5332 15.3516 2.88574 16.7041Q4.23828 18.0566 6.01074 18.8232Q7.7832 19.5898 9.79492 19.5898Z"
                     fill="rgba(255,255,255,0.55)" />
              <path d="M4.7168 10.5762Q4.32617 10.1953 4.32129 9.7998Q4.31641 9.4043 4.70703 9.01367L9.01367 4.70703Q9.41406 4.30664 9.80469 4.31152Q10.1953 4.31641 10.5859 4.7168L14.8828 9.00391Q15.2734 9.4043 15.2832 9.79492Q15.293 10.1855 14.8926 10.5859L10.5859 14.8926Q10.1855 15.293 9.79492 15.2881Q9.4043 15.2832 9.00391 14.8828Z"
                     fill="#ffffff" />
       </g>
</svg>