<svg width="20.3027" height="19.8535">
       <g>
              <rect height="19.8535" opacity="0" width="20.3027" x="0" y="0" />
              <path d="M2.88086 15.5957L5.30273 15.5957L5.30273 14.3945L2.90039 14.3945Q2.07031 14.3945 1.64062 13.96Q1.21094 13.5254 1.21094 12.6758L1.21094 2.94922Q1.21094 2.09961 1.64062 1.66504Q2.07031 1.23047 2.90039 1.23047L12.666 1.23047Q13.4668 1.23047 13.9111 1.66504Q14.3555 2.09961 14.3555 2.94922L14.3555 4.83398L15.5664 4.83398L15.5664 2.88086Q15.5664 1.47461 14.8389 0.751953Q14.1113 0.0292969 12.6855 0.0292969L2.88086 0.0292969Q1.44531 0.0292969 0.722656 0.74707Q0 1.46484 0 2.88086L0 12.7441Q0 14.1602 0.722656 14.8779Q1.44531 15.5957 2.88086 15.5957Z"
                     fill="rgba(255,255,255,0.55)" />
              <path d="M7.61719 19.8535L17.4316 19.8535Q18.8477 19.8535 19.5752 19.1309Q20.3027 18.4082 20.3027 17.002L20.3027 7.13867Q20.3027 5.73242 19.5752 5.00977Q18.8477 4.28711 17.4316 4.28711L7.61719 4.28711Q6.18164 4.28711 5.45898 5.00488Q4.73633 5.72266 4.73633 7.13867L4.73633 17.002Q4.73633 18.418 5.45898 19.1357Q6.18164 19.8535 7.61719 19.8535ZM7.63672 18.6426Q6.80664 18.6426 6.37695 18.2129Q5.94727 17.7832 5.94727 16.9336L5.94727 7.20703Q5.94727 6.35742 6.37695 5.92285Q6.80664 5.48828 7.63672 5.48828L17.4023 5.48828Q18.2031 5.48828 18.6475 5.92285Q19.0918 6.35742 19.0918 7.20703L19.0918 16.9336Q19.0918 17.7832 18.6475 18.2129Q18.2031 18.6426 17.4023 18.6426ZM8.58398 9.48242Q9.13086 9.48242 9.52637 9.08691Q9.92188 8.69141 9.92188 8.125Q9.92188 7.56836 9.52637 7.18262Q9.13086 6.79688 8.58398 6.79688Q8.03711 6.79688 7.6416 7.18262Q7.24609 7.56836 7.24609 8.125Q7.24609 8.69141 7.6416 9.08203Q8.03711 9.47266 8.58398 9.48242ZM16.4551 9.48242Q17.002 9.48242 17.3975 9.08691Q17.793 8.69141 17.793 8.125Q17.793 7.56836 17.3975 7.18262Q17.002 6.79688 16.4551 6.79688Q15.8984 6.79688 15.498 7.18262Q15.0977 7.56836 15.0977 8.125Q15.0977 8.69141 15.498 9.08203Q15.8984 9.47266 16.4551 9.48242ZM12.5195 13.4277Q13.0566 13.4277 13.4521 13.0322Q13.8477 12.6367 13.8477 12.0703Q13.8477 11.5234 13.4521 11.1328Q13.0566 10.7422 12.5195 10.7422Q11.9629 10.7422 11.5723 11.1328Q11.1816 11.5234 11.1816 12.0703Q11.1816 12.6367 11.5723 13.0322Q11.9629 13.4277 12.5195 13.4277ZM8.58398 17.3633Q9.13086 17.3633 9.52148 16.9678Q9.91211 16.5723 9.91211 16.0156Q9.91211 15.4688 9.52148 15.0781Q9.13086 14.6875 8.58398 14.6875Q8.03711 14.6875 7.6416 15.0781Q7.24609 15.4688 7.24609 16.0156Q7.24609 16.5723 7.6416 16.9678Q8.03711 17.3633 8.58398 17.3633ZM16.4551 17.3633Q17.002 17.3633 17.3975 16.9678Q17.793 16.5723 17.793 16.0156Q17.793 15.4688 17.3975 15.0781Q17.002 14.6875 16.4551 14.6875Q15.8984 14.6875 15.5078 15.0781Q15.1172 15.4688 15.1172 16.0156Q15.1172 16.5723 15.5078 16.9678Q15.8984 17.3633 16.4551 17.3633Z"
                     fill="rgba(255,255,255,0.55)" />
       </g>
</svg>