<svg width="20.3027" height="19.8535">
       <g>
              <rect height="19.8535" opacity="0" width="20.3027" x="0" y="0" />
              <path d="M0 12.7441Q0 14.1602 0.722656 14.8779Q1.44531 15.5957 2.88086 15.5957L3.59375 15.5957L3.59375 7.13867Q3.59375 5.87891 4.07227 4.98535Q4.55078 4.0918 5.44922 3.62305Q6.34766 3.1543 7.61719 3.1543L15.5664 3.1543L15.5664 2.88086Q15.5664 1.47461 14.8389 0.751953Q14.1113 0.0292969 12.6855 0.0292969L2.88086 0.0292969Q1.44531 0.0292969 0.722656 0.74707Q0 1.46484 0 2.88086Z"
                     fill="rgba(255,255,255,0.55)" />
              <path d="M7.61719 19.8535L17.4316 19.8535Q18.8477 19.8535 19.5752 19.1309Q20.3027 18.4082 20.3027 17.002L20.3027 7.13867Q20.3027 5.73242 19.5752 5.00977Q18.8477 4.28711 17.4316 4.28711L7.61719 4.28711Q6.18164 4.28711 5.45898 5.00488Q4.73633 5.72266 4.73633 7.13867L4.73633 17.002Q4.73633 18.418 5.45898 19.1357Q6.18164 19.8535 7.61719 19.8535Z"
                     fill="rgba(255,255,255,0.55)" />
              <path d="M8.50586 9.42383Q7.93945 9.41406 7.53906 9.01855Q7.13867 8.62305 7.13867 8.04688Q7.13867 7.48047 7.53906 7.08496Q7.93945 6.68945 8.50586 6.68945Q9.0625 6.68945 9.46777 7.08496Q9.87305 7.48047 9.87305 8.04688Q9.87305 8.62305 9.46777 9.02832Q9.0625 9.43359 8.50586 9.42383ZM16.5332 9.42383Q15.9668 9.41406 15.5615 9.01855Q15.1562 8.62305 15.1562 8.04688Q15.1562 7.48047 15.5615 7.08496Q15.9668 6.68945 16.5332 6.68945Q17.0898 6.68945 17.4902 7.08496Q17.8906 7.48047 17.8906 8.04688Q17.8906 8.62305 17.4902 9.02832Q17.0898 9.43359 16.5332 9.42383ZM12.5195 13.457Q11.9531 13.457 11.5527 13.0518Q11.1523 12.6465 11.1523 12.0703Q11.1523 11.5137 11.5527 11.1182Q11.9531 10.7227 12.5195 10.7227Q13.0762 10.7227 13.4766 11.1182Q13.877 11.5137 13.877 12.0703Q13.877 12.6465 13.4766 13.0518Q13.0762 13.457 12.5195 13.457ZM8.50586 17.4707Q7.93945 17.4707 7.53906 17.0703Q7.13867 16.6699 7.13867 16.0938Q7.13867 15.5371 7.53906 15.1367Q7.93945 14.7363 8.50586 14.7363Q9.0625 14.7363 9.46289 15.1367Q9.86328 15.5371 9.86328 16.0938Q9.86328 16.6699 9.46289 17.0703Q9.0625 17.4707 8.50586 17.4707ZM16.5332 17.4707Q15.9668 17.4707 15.5713 17.0703Q15.1758 16.6699 15.1758 16.0938Q15.1758 15.5371 15.5713 15.1367Q15.9668 14.7363 16.5332 14.7363Q17.0898 14.7363 17.4902 15.1367Q17.8906 15.5371 17.8906 16.0938Q17.8906 16.6699 17.4902 17.0703Q17.0898 17.4707 16.5332 17.4707Z"
                     fill="#ffffff" />
       </g>
</svg>