<svg width="17.6855" height="17.7051">
       <g>
              <rect height="17.7051" opacity="0" width="17.6855" x="0" y="0" />
              <path d="M2.88086 17.7051L14.8047 17.7051Q16.2305 17.7051 16.958 16.9873Q17.6855 16.2695 17.6855 14.8535L17.6855 2.88086Q17.6855 1.46484 16.958 0.742188Q16.2305 0.0195312 14.8047 0.0195312L2.88086 0.0195312Q1.44531 0.0195312 0.722656 0.737305Q0 1.45508 0 2.88086L0 14.8535Q0 16.2695 0.722656 16.9873Q1.44531 17.7051 2.88086 17.7051Z"
                     fill="rgba(255,255,255,0.55)" />
              <path d="M8.85742 10.4297Q8.21289 10.4297 7.74902 9.96582Q7.28516 9.50195 7.28516 8.84766Q7.28516 8.20312 7.74902 7.74414Q8.21289 7.28516 8.85742 7.28516Q9.50195 7.28516 9.96094 7.74414Q10.4199 8.20312 10.4199 8.84766Q10.4199 9.50195 9.96094 9.9707Q9.50195 10.4395 8.85742 10.4297Z"
                     fill="#ffffff" />
       </g>
</svg>