<svg width="17.6855" height="17.7051">
       <g>
              <rect height="17.7051" opacity="0" width="17.6855" x="0" y="0" />
              <path d="M2.88086 17.7051L14.8047 17.7051Q16.2305 17.7051 16.958 16.9873Q17.6855 16.2695 17.6855 14.8535L17.6855 2.88086Q17.6855 1.46484 16.958 0.742188Q16.2305 0.0195312 14.8047 0.0195312L2.88086 0.0195312Q1.44531 0.0195312 0.722656 0.737305Q0 1.45508 0 2.88086L0 14.8535Q0 16.2695 0.722656 16.9873Q1.44531 17.7051 2.88086 17.7051Z"
                     fill="rgba(255,255,255,0.55)" />
              <path d="M4.23828 5.81055Q3.59375 5.80078 3.12988 5.34668Q2.66602 4.89258 2.66602 4.22852Q2.66602 3.57422 3.12988 3.12012Q3.59375 2.66602 4.23828 2.66602Q4.88281 2.66602 5.34668 3.12012Q5.81055 3.57422 5.81055 4.22852Q5.81055 4.89258 5.34668 5.35645Q4.88281 5.82031 4.23828 5.81055ZM13.457 5.81055Q12.8027 5.80078 12.3389 5.34668Q11.875 4.89258 11.875 4.22852Q11.875 3.57422 12.3389 3.12012Q12.8027 2.66602 13.457 2.66602Q14.0918 2.66602 14.5557 3.12012Q15.0195 3.57422 15.0195 4.22852Q15.0195 4.89258 14.5557 5.35645Q14.0918 5.82031 13.457 5.81055ZM4.23828 15.0488Q3.59375 15.0488 3.12988 14.5898Q2.66602 14.1309 2.66602 13.4668Q2.66602 12.8223 3.12988 12.3633Q3.59375 11.9043 4.23828 11.9043Q4.88281 11.9043 5.3418 12.3633Q5.80078 12.8223 5.80078 13.4668Q5.80078 14.1309 5.3418 14.5898Q4.88281 15.0488 4.23828 15.0488ZM13.457 15.0488Q12.8027 15.0488 12.3486 14.5898Q11.8945 14.1309 11.8945 13.4668Q11.8945 12.8223 12.3486 12.3633Q12.8027 11.9043 13.457 11.9043Q14.0918 11.9043 14.5557 12.3633Q15.0195 12.8223 15.0195 13.4668Q15.0195 14.1309 14.5557 14.5898Q14.0918 15.0488 13.457 15.0488Z"
                     fill="#ffffff" />
       </g>
</svg>