<svg width="17.6855" height="17.7051">
       <g>
              <rect height="17.7051" opacity="0" width="17.6855" x="0" y="0" />
              <path d="M2.88086 17.7051L14.8047 17.7051Q16.2305 17.7051 16.958 16.9873Q17.6855 16.2695 17.6855 14.8535L17.6855 2.88086Q17.6855 1.46484 16.958 0.742188Q16.2305 0.0195312 14.8047 0.0195312L2.88086 0.0195312Q1.44531 0.0195312 0.722656 0.737305Q0 1.45508 0 2.88086L0 14.8535Q0 16.2695 0.722656 16.9873Q1.44531 17.7051 2.88086 17.7051Z"
                     fill="rgba(255,255,255,0.55)" />
              <path d="M13.457 5.81055Q12.8027 5.80078 12.334 5.34668Q11.8652 4.89258 11.8652 4.22852Q11.8652 3.57422 12.334 3.12012Q12.8027 2.66602 13.457 2.66602Q14.1016 2.66602 14.5654 3.12012Q15.0293 3.57422 15.0293 4.22852Q15.0293 4.89258 14.5654 5.35645Q14.1016 5.82031 13.457 5.81055ZM8.84766 10.4395Q8.19336 10.4395 7.73438 9.9707Q7.27539 9.50195 7.27539 8.84766Q7.27539 8.20312 7.73438 7.74902Q8.19336 7.29492 8.84766 7.29492Q9.48242 7.29492 9.95117 7.74902Q10.4199 8.20312 10.4199 8.84766Q10.4199 9.50195 9.95117 9.9707Q9.48242 10.4395 8.84766 10.4395ZM4.23828 15.0488Q3.59375 15.0488 3.13477 14.5898Q2.67578 14.1309 2.67578 13.4668Q2.67578 12.8223 3.13477 12.3633Q3.59375 11.9043 4.23828 11.9043Q4.88281 11.9043 5.3418 12.3633Q5.80078 12.8223 5.80078 13.4668Q5.80078 14.1309 5.3418 14.5898Q4.88281 15.0488 4.23828 15.0488Z"
                     fill="#ffffff" />
       </g>
</svg>