<svg width="30.7089" height="19.7861">
       <g>
              <rect height="19.7861" opacity="0" width="30.7089" x="0" y="0" />
              <path d="M1.85562 16.4494L14.3814 16.4494L14.3814 15.2435L1.88797 15.2435Q1.57776 15.2435 1.39336 15.0591Q1.20895 14.8747 1.20895 14.5677L1.20895 2.51389Q1.20895 2.20001 1.39336 2.01904Q1.57776 1.83807 1.88797 1.83807L20.8939 1.83807Q21.207 1.83807 21.3914 2.01904Q21.5758 2.20001 21.5758 2.51389L21.5758 5.61783L22.7817 5.61783L22.7817 2.48764Q22.7817 1.62064 22.2841 1.12488Q21.7865 0.62912 20.9195 0.62912L1.85562 0.62912Q0.998383 0.62912 0.499191 1.12488Q0 1.62064 0 2.48764L0 14.5872Q0 15.4512 0.499191 15.9503Q0.998383 16.4494 1.85562 16.4494ZM8.40027 18.9069L14.3814 18.9069L14.3814 16.3225L8.40027 16.3225ZM8.2782 19.7861L14.5067 19.7861Q14.7563 19.7861 14.9328 19.6111Q15.1093 19.436 15.1093 19.1768Q15.1093 18.9204 14.9328 18.7454Q14.7563 18.5704 14.5067 18.5704L8.2782 18.5704Q8.02551 18.5704 7.84561 18.7454Q7.66571 18.9204 7.66571 19.1768Q7.66571 19.436 7.84561 19.6111Q8.02551 19.7861 8.2782 19.7861Z"
                     fill="rgba(255,255,255,0.55)" />
              <path d="M13.2147 14.9849Q13.2147 16.14 13.7885 16.7004Q14.3623 17.2607 15.5003 17.2607L28.43 17.2607Q29.568 17.2607 30.1385 16.7004Q30.7089 16.14 30.7089 14.9849L30.7089 7.46643Q30.7089 6.31119 30.1385 5.74593Q29.568 5.18066 28.43 5.18066L15.5003 5.18066Q14.3623 5.18066 13.7885 5.74593Q13.2147 6.31119 13.2147 7.46643ZM14.4237 14.9556L14.4237 7.49268Q14.4237 6.91757 14.6959 6.65359Q14.9681 6.38962 15.5327 6.38962L28.3977 6.38962Q28.9622 6.38962 29.2311 6.65359Q29.5 6.91757 29.5 7.49268L29.5 14.9556Q29.5 15.5336 29.2311 15.7942Q28.9622 16.0548 28.3977 16.0548L15.5327 16.0548Q14.9681 16.0548 14.6959 15.7942Q14.4237 15.5336 14.4237 14.9556ZM19.4727 18.9069L24.4577 18.9069L24.4577 16.5631L19.4727 16.5631ZM19.3504 19.7861L24.5732 19.7861Q24.8325 19.7861 25.009 19.6111Q25.1855 19.436 25.1855 19.1768Q25.1855 18.9204 25.009 18.7454Q24.8325 18.5704 24.5732 18.5704L19.3504 18.5704Q19.0979 18.5704 18.918 18.7454Q18.7381 18.9204 18.7381 19.1768Q18.7381 19.436 18.918 19.6111Q19.0979 19.7861 19.3504 19.7861Z"
                     fill="rgba(255,255,255,0.55)" />
       </g>
</svg>