<svg width="19.3378" height="21.9443">
       <g>
              <rect height="21.9443" opacity="0" width="19.3378" x="0" y="0" />
              <path d="M3.15933 3.00049L4.27704 3.00049L4.27704 0.528564Q4.27704 0.30899 4.11064 0.154495Q3.94424 0 3.72162 0Q3.49518 0 3.32726 0.154495Q3.15933 0.30899 3.15933 0.528564ZM3.72162 21.9435Q3.94424 21.9435 4.11064 21.7891Q4.27704 21.6347 4.27704 21.412L4.27704 19.0723L3.15933 19.0723L3.15933 21.412Q3.15933 21.6347 3.32726 21.7891Q3.49518 21.9435 3.72162 21.9435ZM15.0644 5.83481L16.1821 5.83481L16.1821 0.528564Q16.1821 0.30899 16.0157 0.154495Q15.8493 0 15.62 0Q15.4002 0 15.2323 0.154495Q15.0644 0.30899 15.0644 0.528564ZM15.62 21.9435Q15.8493 21.9435 16.0157 21.7891Q16.1821 21.6347 16.1821 21.412L16.1821 16.1192L15.0644 16.1192L15.0644 21.412Q15.0644 21.6347 15.2323 21.7891Q15.4002 21.9435 15.62 21.9435Z"
                     fill="rgba(255,255,255,0.55)" />
              <path d="M1.88248 19.6342L5.55023 19.6342Q6.44516 19.6342 6.93893 19.1353Q7.43271 18.6363 7.43271 17.7211L7.43271 4.22241Q7.43271 3.30734 6.93893 2.81021Q6.44516 2.31308 5.55023 2.31308L1.88248 2.31308Q0.987549 2.31308 0.493774 2.81021Q0 3.30734 0 4.22241L0 17.7211Q0 18.6363 0.493774 19.1353Q0.987549 19.6342 1.88248 19.6342ZM13.7875 16.6612L17.4554 16.6612Q18.3504 16.6612 18.8441 16.1656Q19.3378 15.67 19.3378 14.7519L19.3378 7.18872Q19.3378 6.27365 18.8441 5.77652Q18.3504 5.27939 17.4554 5.27939L13.7875 5.27939Q12.8926 5.27939 12.3988 5.77652Q11.9051 6.27365 11.9051 7.18872L11.9051 14.7519Q11.9051 15.67 12.3988 16.1656Q12.8926 16.6612 13.7875 16.6612Z"
                     fill="rgba(255,255,255,0.55)" />
       </g>
</svg>