<svg width="22.6692" height="20.083">
       <g>
              <rect height="20.083" opacity="0" width="22.6692" x="0" y="0" />
              <path d="M0.53833 4.24332L6.37878 4.24332L6.37878 3.12561L0.53833 3.12561Q0.308838 3.12561 0.154419 3.29353Q0 3.46146 0 3.6879Q0 3.91052 0.154419 4.07692Q0.308838 4.24332 0.53833 4.24332ZM0.53833 16.9446L3.15872 16.9446L3.15872 15.8269L0.53833 15.8269Q0.308838 15.8269 0.154419 15.9948Q0 16.1627 0 16.3823Q0 16.6049 0.154419 16.7747Q0.308838 16.9446 0.53833 16.9446ZM16.2935 4.24332L21.8901 4.24332Q22.1164 4.24332 22.2708 4.07692Q22.4252 3.91052 22.4252 3.6879Q22.4252 3.46146 22.2708 3.29353Q22.1164 3.12561 21.8901 3.12561L16.2935 3.12561ZM19.5038 16.9446L22.1339 16.9446Q22.3634 16.9446 22.5163 16.7747Q22.6692 16.6049 22.6692 16.3823Q22.6692 16.1627 22.5163 15.9948Q22.3634 15.8269 22.1339 15.8269L19.5038 15.8269Z"
                     fill="rgba(255,255,255,0.55)" />
              <path d="M7.64816 7.37213L15.0241 7.37213Q15.9325 7.37213 16.433 6.87988Q16.9334 6.38763 16.9334 5.48965L16.9334 1.88248Q16.9334 0.984497 16.433 0.492249Q15.9325 0 15.0241 0L7.64816 0Q6.73676 0 6.23779 0.492249Q5.73883 0.984497 5.73883 1.88248L5.73883 5.48965Q5.73883 6.38763 6.23779 6.87988Q6.73676 7.37213 7.64816 7.37213ZM4.30618 20.0732L18.3661 20.0732Q19.2744 20.0732 19.7735 19.581Q20.2725 19.0887 20.2725 18.1908L20.2725 14.5836Q20.2725 13.6789 19.7735 13.1851Q19.2744 12.6913 18.3661 12.6913L4.30618 12.6913Q3.39096 12.6913 2.89391 13.1851Q2.39685 13.6789 2.39685 14.5836L2.39685 18.1908Q2.39685 19.0887 2.89391 19.581Q3.39096 20.0732 4.30618 20.0732Z"
                     fill="rgba(255,255,255,0.55)" />
       </g>
</svg>