<svg width="19.5898" height="19.5996">
       <g>
              <rect height="19.5996" opacity="0" width="19.5898" x="0" y="0" />
              <path d="M9.79492 19.5898Q11.8066 19.5898 13.5791 18.8232Q15.3516 18.0566 16.7041 16.7041Q18.0566 15.3516 18.8232 13.5791Q19.5898 11.8066 19.5898 9.79492Q19.5898 7.7832 18.8232 6.01074Q18.0566 4.23828 16.7041 2.88574Q15.3516 1.5332 13.5742 0.766602Q11.7969 0 9.78516 0Q7.77344 0 6.00098 0.766602Q4.22852 1.5332 2.88086 2.88574Q1.5332 4.23828 0.766602 6.01074Q0 7.7832 0 9.79492Q0 11.8066 0.766602 13.5791Q1.5332 15.3516 2.88574 16.7041Q4.23828 18.0566 6.01074 18.8232Q7.7832 19.5898 9.79492 19.5898Z"
                     fill="rgba(255,255,255,0.55)" />
              <path d="M9.78516 7.11914Q9.375 7.11914 9.0918 6.85547Q8.80859 6.5918 8.80859 6.20117Q8.80859 5.77148 9.0918 5.48828Q9.375 5.20508 9.78516 5.20508Q10.2246 5.20508 10.5078 5.48828Q10.791 5.77148 10.791 6.20117Q10.791 6.5918 10.5078 6.85547Q10.2246 7.11914 9.78516 7.11914ZM5.69336 10.4492Q5.37109 10.4492 5.1709 10.2832Q4.9707 10.1172 4.9707 9.81445Q4.9707 9.50195 5.1709 9.33105Q5.37109 9.16016 5.69336 9.16016L13.9062 9.16016Q14.2285 9.16016 14.4189 9.33105Q14.6094 9.50195 14.6094 9.81445Q14.6094 10.1172 14.4141 10.2832Q14.2188 10.4492 13.9062 10.4492ZM9.78516 14.4043Q9.375 14.4043 9.0918 14.1357Q8.80859 13.8672 8.80859 13.4766Q8.80859 13.0469 9.0918 12.7686Q9.375 12.4902 9.78516 12.4902Q10.2246 12.4902 10.5078 12.7686Q10.791 13.0469 10.791 13.4766Q10.791 13.8574 10.5078 14.1309Q10.2246 14.4043 9.78516 14.4043Z"
                     fill="#ffffff" />
       </g>
</svg>