<svg width="17.6855" height="17.7051">
       <g>
              <rect height="17.7051" opacity="0" width="17.6855" x="0" y="0" />
              <path d="M2.88086 17.7051L14.8047 17.7051Q16.2305 17.7051 16.958 16.9873Q17.6855 16.2695 17.6855 14.8535L17.6855 2.88086Q17.6855 1.46484 16.958 0.742188Q16.2305 0.0195312 14.8047 0.0195312L2.88086 0.0195312Q1.44531 0.0195312 0.722656 0.737305Q0 1.45508 0 2.88086L0 14.8535Q0 16.2695 0.722656 16.9873Q1.44531 17.7051 2.88086 17.7051Z"
                     fill="rgba(255,255,255,0.55)" />
              <path d="M8.83789 6.17188Q8.42773 6.17188 8.14453 5.9082Q7.86133 5.64453 7.86133 5.25391Q7.86133 4.82422 8.14453 4.54102Q8.42773 4.25781 8.83789 4.25781Q9.27734 4.25781 9.56055 4.54102Q9.84375 4.82422 9.84375 5.25391Q9.84375 5.64453 9.56055 5.9082Q9.27734 6.17188 8.83789 6.17188ZM4.74609 9.50195Q4.42383 9.50195 4.22363 9.33594Q4.02344 9.16992 4.02344 8.86719Q4.02344 8.55469 4.22363 8.38379Q4.42383 8.21289 4.74609 8.21289L12.959 8.21289Q13.2812 8.21289 13.4717 8.38379Q13.6621 8.55469 13.6621 8.86719Q13.6621 9.16992 13.4668 9.33594Q13.2715 9.50195 12.959 9.50195ZM8.83789 13.457Q8.42773 13.457 8.14453 13.1885Q7.86133 12.9199 7.86133 12.5293Q7.86133 12.0996 8.14453 11.8213Q8.42773 11.543 8.83789 11.543Q9.27734 11.543 9.56055 11.8213Q9.84375 12.0996 9.84375 12.5293Q9.84375 12.9102 9.56055 13.1836Q9.27734 13.457 8.83789 13.457Z"
                     fill="#ffffff" />
       </g>
</svg>