<svg width="19.5898" height="19.5996">
       <g>
              <rect height="19.5996" opacity="0" width="19.5898" x="0" y="0" />
              <path d="M9.79492 19.5898Q11.8066 19.5898 13.5791 18.8232Q15.3516 18.0566 16.7041 16.7041Q18.0566 15.3516 18.8232 13.5791Q19.5898 11.8066 19.5898 9.79492Q19.5898 7.7832 18.8232 6.01074Q18.0566 4.23828 16.7041 2.88574Q15.3516 1.5332 13.5742 0.766602Q11.7969 0 9.78516 0Q7.77344 0 6.00098 0.766602Q4.22852 1.5332 2.88086 2.88574Q1.5332 4.23828 0.766602 6.01074Q0 7.7832 0 9.79492Q0 11.8066 0.766602 13.5791Q1.5332 15.3516 2.88574 16.7041Q4.23828 18.0566 6.01074 18.8232Q7.7832 19.5898 9.79492 19.5898Z"
                     fill="rgba(255,255,255,0.55)" />
              <path d="M7.39258 15.0977Q6.61133 15.0977 6.21582 14.6973Q5.82031 14.2969 5.82031 13.5059L5.82031 5.73242Q5.82031 4.95117 6.21582 4.55078Q6.61133 4.15039 7.39258 4.15039L9.35547 4.15039L9.35547 8.10547Q9.35547 9.04297 10.2832 9.04297L14.1992 9.04297L14.1992 13.5059Q14.1992 14.2871 13.8037 14.6924Q13.4082 15.0977 12.627 15.0977ZM10.3906 8.33008Q10.0586 8.33008 10.0586 7.99805L10.0586 4.21875Q10.1953 4.23828 10.332 4.33594Q10.4688 4.43359 10.6152 4.58984L13.7695 7.76367Q13.916 7.91992 14.0088 8.05664Q14.1016 8.19336 14.1309 8.33008Z"
                     fill="#ffffff" />
       </g>
</svg>