<svg width="19.7557" height="24.3271">
       <g>
              <rect height="24.3271" opacity="0" width="19.7557" x="0" y="0" />
              <path d="M4.73328 5.21942L5.93933 5.21942L5.93933 2.90802Q5.93933 2.09381 6.37047 1.65138Q6.80161 1.20895 7.64801 1.20895L12.0795 1.20895L12.0795 6.53061Q12.0795 7.31964 12.4567 7.6844Q12.8339 8.04916 13.598 8.04916L18.5468 8.04916L18.5468 16.6621Q18.5468 17.4884 18.1123 17.9247Q17.6778 18.3611 16.8343 18.3611L14.7258 18.3611L14.7258 19.5702L16.9009 19.5702Q18.3177 19.5702 19.0367 18.8425Q19.7557 18.1149 19.7557 16.6884L19.7557 8.40149Q19.7557 7.70279 19.5773 7.20039Q19.3988 6.698 18.9366 6.22238L13.5841 0.819092Q13.1392 0.36377 12.6368 0.181885Q12.1344 0 11.507 0L7.58804 0Q6.17432 0 5.4538 0.727539Q4.73328 1.45508 4.73328 2.88177ZM13.1837 6.38092L13.1837 1.8927L18.188 6.94489L13.741 6.94489Q13.4447 6.94489 13.3142 6.81442Q13.1837 6.68396 13.1837 6.38092Z"
                     fill="rgba(255,255,255,0.55)" />
              <path d="M0 21.4221Q0 22.8554 0.717468 23.5796Q1.43494 24.3039 2.85477 24.3039L12.1677 24.3039Q13.5875 24.3039 14.305 23.5763Q15.0224 22.8487 15.0224 21.4221L15.0224 13.5045Q15.0224 12.9794 14.9602 12.6163Q14.8979 12.2533 14.7279 11.9543Q14.558 11.6554 14.231 11.3217L8.49899 5.52521Q8.03009 5.04288 7.57622 4.88831Q7.12234 4.73373 6.41403 4.73373L2.85477 4.73373Q1.44104 4.73373 0.72052 5.46135Q0 6.18896 0 7.61551ZM1.20895 21.3959L1.20895 7.63504Q1.20895 6.82755 1.63864 6.38512Q2.06833 5.94269 2.91473 5.94269L6.47812 5.94269L6.47812 11.8156Q6.47812 12.6556 6.89507 13.0617Q7.31201 13.4677 8.12027 13.4677L13.8135 13.4677L13.8135 21.3959Q13.8135 22.2221 13.3804 22.6585Q12.9474 23.0949 12.1077 23.0949L2.90802 23.0949Q2.06833 23.0949 1.63864 22.6585Q1.20895 22.2221 1.20895 21.3959ZM8.25134 12.323Q7.91306 12.323 7.76642 12.1764Q7.61978 12.0297 7.61978 11.6914L7.61978 6.31012L13.5683 12.323Z"
                     fill="rgba(255,255,255,0.55)" />
       </g>
</svg>