<svg width="19.7557" height="24.3271">
       <g>
              <rect height="24.3271" opacity="0" width="19.7557" x="0" y="0" />
              <path d="M4.73328 5.42999L7.45728 5.42999L14.6301 12.644L14.6301 19.5702L16.9009 19.5702Q18.3177 19.5702 19.0367 18.8425Q19.7557 18.1149 19.7557 16.6884L19.7557 2.88177Q19.7557 1.45508 19.0367 0.727539Q18.3177 0 16.9009 0L7.58804 0Q6.17432 0 5.4538 0.724182Q4.73328 1.44836 4.73328 2.88177ZM9.96765 3.14072Q9.67865 3.14072 9.54094 2.98157Q9.40323 2.82242 9.40323 2.62207L9.40323 2.4382Q9.40323 2.2377 9.54094 2.08008Q9.67865 1.92245 9.96765 1.92245L14.5184 1.92245Q14.8006 1.92245 14.9432 2.08008Q15.0859 2.2377 15.0859 2.4382L15.0859 2.62207Q15.0859 2.82242 14.9432 2.98157Q14.8006 3.14072 14.5184 3.14072Z"
                     fill="rgba(255,255,255,0.55)" />
              <path d="M0 21.4221Q0 22.8554 0.717468 23.5796Q1.43494 24.3039 2.85477 24.3039L12.1677 24.3039Q13.5875 24.3039 14.305 23.5763Q15.0224 22.8487 15.0224 21.4221L15.0224 13.5045Q15.0224 12.9794 14.9602 12.6163Q14.8979 12.2533 14.7279 11.9543Q14.558 11.6554 14.231 11.3217L8.49899 5.52521Q8.03009 5.04288 7.57622 4.88831Q7.12234 4.73373 6.41403 4.73373L2.85477 4.73373Q1.44104 4.73373 0.72052 5.46135Q0 6.18896 0 7.61551ZM1.20895 21.3959L1.20895 7.63504Q1.20895 6.82755 1.63864 6.38512Q2.06833 5.94269 2.91473 5.94269L6.47812 5.94269L6.47812 11.8156Q6.47812 12.6556 6.89507 13.0617Q7.31201 13.4677 8.12027 13.4677L13.8135 13.4677L13.8135 21.3959Q13.8135 22.2221 13.3804 22.6585Q12.9474 23.0949 12.1077 23.0949L2.90802 23.0949Q2.06833 23.0949 1.63864 22.6585Q1.20895 22.2221 1.20895 21.3959ZM8.25134 12.323Q7.91306 12.323 7.76642 12.1764Q7.61978 12.0297 7.61978 11.6914L7.61978 6.31012L13.5683 12.323Z"
                     fill="rgba(255,255,255,0.55)" />
       </g>
</svg>