<svg width="24.1649" height="17.2177">
       <g>
              <rect height="17.2177" opacity="0" width="24.1649" x="0" y="0" />
              <path d="M10.3683 8.63019Q10.3683 9.09055 10.6068 9.47095Q10.8452 9.85135 11.2369 10.0815Q11.6286 10.3117 12.0956 10.3117Q12.5591 10.3117 12.9443 10.08Q13.3295 9.8483 13.5596 9.45966Q13.7898 9.07102 13.7898 8.61066Q13.7898 7.90555 13.2968 7.40277Q12.8038 6.9 12.0956 6.9Q11.6188 6.9 11.2286 7.13506Q10.8385 7.37012 10.6034 7.76509Q10.3683 8.16007 10.3683 8.63019Z"
                     fill="rgba(255,255,255,0.55)" />
              <path d="M6.7099 8.61066Q6.7099 9.58798 7.04277 10.4712Q7.37564 11.3545 7.97974 12.05Q8.16574 12.2899 8.43521 12.2966Q8.70468 12.3033 8.88092 12.1069Q9.04129 11.9172 8.99933 11.6927Q8.95737 11.4682 8.78189 11.2381Q8.32703 10.7159 8.09196 10.0421Q7.8569 9.36826 7.8569 8.61066Q7.8569 7.85001 8.09196 7.17778Q8.32703 6.50556 8.78189 5.97348Q8.95737 5.75314 8.99933 5.52716Q9.04129 5.30118 8.88092 5.11151Q8.70468 4.91513 8.43521 4.92337Q8.16574 4.93161 7.97974 5.16171Q7.37564 5.86377 7.04277 6.7471Q6.7099 7.63043 6.7099 8.61066ZM17.455 8.61066Q17.455 7.63043 17.1236 6.7471Q16.7923 5.86377 16.1852 5.16171Q15.9924 4.93161 15.7263 4.92337Q15.4602 4.91513 15.2841 5.11151Q15.117 5.30118 15.1639 5.52716Q15.2107 5.75314 15.3831 5.97348Q15.8313 6.50556 16.0712 7.17778Q16.311 7.85001 16.311 8.61066Q16.311 9.36826 16.0712 10.0421Q15.8313 10.7159 15.3831 11.2381Q15.2107 11.4682 15.1639 11.6927Q15.117 11.9172 15.2841 12.1069Q15.4602 12.3033 15.7263 12.2966Q15.9924 12.2899 16.1852 12.05Q16.7923 11.3545 17.1236 10.4712Q17.455 9.58798 17.455 8.61066Z"
                     fill="rgba(255,255,255,0.55)" />
              <path d="M3.35983 8.61066Q3.35983 10.3399 3.97705 11.8846Q4.59427 13.4292 5.72342 14.6129Q5.9198 14.8393 6.17767 14.8457Q6.43555 14.8521 6.59897 14.6588Q6.76834 14.4691 6.73653 14.2366Q6.70471 14.0042 6.50528 13.7944Q5.53345 12.7485 5.01526 11.4186Q4.49707 10.0886 4.49707 8.61066Q4.49707 7.13269 5.01526 5.80129Q5.53345 4.46988 6.50528 3.42694Q6.70471 3.21713 6.73653 2.98474Q6.76834 2.75235 6.59897 2.55597Q6.43555 2.3692 6.17767 2.37561Q5.9198 2.38202 5.72342 2.60175Q4.59427 3.78537 3.97705 5.33345Q3.35983 6.88153 3.35983 8.61066ZM20.8081 8.61066Q20.8081 6.88153 20.1894 5.33345Q19.5706 3.78537 18.4415 2.60175Q18.2384 2.38202 17.9854 2.37561Q17.7324 2.3692 17.5691 2.55597Q17.3965 2.75235 17.4284 2.98474Q17.4603 3.21713 17.6529 3.42694Q18.6314 4.46988 19.1496 5.80129Q19.6678 7.13269 19.6678 8.61066Q19.6678 10.0886 19.1496 11.4186Q18.6314 12.7485 17.6529 13.7944Q17.4603 14.0042 17.4284 14.2366Q17.3965 14.4691 17.5691 14.6588Q17.7324 14.8521 17.9854 14.8457Q18.2384 14.8393 18.4415 14.6129Q19.5706 13.4292 20.1894 11.8846Q20.8081 10.3399 20.8081 8.61066Z"
                     fill="rgba(255,255,255,0.55)" />
              <path d="M0 8.61066Q0 11.0467 0.89859 13.2055Q1.79718 15.3642 3.39874 17.0099Q3.60184 17.2227 3.85262 17.2175Q4.10339 17.2123 4.26315 17.0263Q4.42947 16.8533 4.39949 16.6172Q4.36951 16.381 4.17679 16.1778Q2.70096 14.6676 1.92245 12.7221Q1.14395 10.7766 1.14395 8.61066Q1.14395 6.44177 1.92245 4.49628Q2.70096 2.55078 4.17679 1.04047Q4.36951 0.840425 4.39949 0.602769Q4.42947 0.365114 4.26315 0.185213Q4.10339 0.00897353 3.85262 0.000428613Q3.60184-0.00811631 3.39874 0.208406Q1.79718 1.85407 0.89859 4.00945Q0 6.16483 0 8.61066ZM24.1649 8.61066Q24.1649 6.16483 23.2645 4.00945Q22.364 1.85407 20.7663 0.208406Q20.563-0.00811631 20.3123 0.000428613Q20.0615 0.00897353 19.9019 0.185213Q19.7385 0.365114 19.7684 0.602769Q19.7984 0.840425 19.9911 1.04047Q21.4639 2.55078 22.2424 4.49628Q23.0209 6.44177 23.0209 8.61066Q23.0209 10.7766 22.2424 12.7221Q21.4639 14.6676 19.9911 16.1778Q19.7984 16.381 19.7684 16.6172Q19.7385 16.8533 19.9019 17.0263Q20.0615 17.2123 20.3123 17.2175Q20.563 17.2227 20.7663 17.0099Q22.364 15.3642 23.2645 13.2055Q24.1649 11.0467 24.1649 8.61066Z"
                     fill="rgba(255,255,255,0.165)" />
       </g>
</svg>