<svg width="14.5645" height="14.6536">
       <g>
              <rect height="14.6536" opacity="0" width="14.5645" x="0" y="0" />
              <path d="M1.33591 14.5674Q1.87805 14.5674 2.26974 14.1758Q2.66144 13.7842 2.66144 13.2419Q2.66144 12.69 2.27463 12.3029Q1.88782 11.9157 1.33591 11.9157Q0.793762 11.9157 0.396881 12.3141Q0 12.7126 0 13.2712Q0 13.7872 0.401764 14.1773Q0.803528 14.5674 1.33591 14.5674Z"
                     fill="rgba(255,255,255,0.55)" />
              <path d="M0.328064 8.60428Q0.328064 8.85391 0.507965 9.03046Q0.687866 9.207 0.9375 9.207Q2.14798 9.207 3.15231 9.80736Q4.15665 10.4077 4.757 11.4105Q5.35736 12.4133 5.35736 13.6269Q5.35736 13.8734 5.53391 14.0533Q5.71045 14.2332 5.95703 14.2332Q6.20667 14.2332 6.38504 14.0533Q6.56342 13.8734 6.56342 13.6269Q6.56342 12.4651 6.12442 11.4437Q5.68542 10.4224 4.90891 9.65065Q4.13239 8.87894 3.11249 8.43849Q2.09259 7.99805 0.9375 7.99805Q0.687866 7.99805 0.507965 8.17787Q0.328064 8.3577 0.328064 8.60428Z"
                     fill="rgba(255,255,255,0.55)" />
              <path d="M0.328064 4.72733Q0.328064 4.97696 0.507965 5.1535Q0.687866 5.33005 0.9375 5.33005Q2.65656 5.33005 4.15955 5.97351Q5.66254 6.61697 6.80496 7.7594Q7.94739 8.90182 8.59085 10.4048Q9.23431 11.9078 9.23431 13.6269Q9.23431 13.8734 9.41086 14.0533Q9.5874 14.2332 9.83398 14.2332Q10.0806 14.2332 10.2605 14.0533Q10.4404 13.8734 10.4404 13.6269Q10.4404 11.6583 9.70016 9.9353Q8.95996 8.21228 7.65266 6.90834Q6.34537 5.6044 4.62425 4.86275Q2.90314 4.12109 0.9375 4.12109Q0.687866 4.12109 0.507965 4.30092Q0.328064 4.48074 0.328064 4.72733Z"
                     fill="rgba(255,255,255,0.55)" />
              <path d="M0.328064 0.599518Q0.328064 0.8461 0.507965 1.026Q0.687866 1.2059 0.9375 1.2059Q2.9892 1.2059 4.85092 1.83174Q6.71265 2.45758 8.26515 3.60214Q9.81766 4.7467 10.9573 6.29776Q12.097 7.84882 12.7262 9.71199Q13.3554 11.5752 13.3554 13.6269Q13.3554 13.8734 13.5353 14.0533Q13.7152 14.2332 13.9648 14.2332Q14.2114 14.2332 14.388 14.0533Q14.5645 13.8734 14.5645 13.6269Q14.5645 11.369 13.8754 9.33083Q13.1862 7.29263 11.9333 5.58685Q10.6804 3.88107 8.97453 2.62817Q7.26868 1.37527 5.22713 0.687637Q3.18558 0 0.9375 0Q0.687866 0 0.507965 0.176468Q0.328064 0.352936 0.328064 0.599518Z"
                     fill="rgba(255,255,255,0.165)" />
       </g>
</svg>