<svg width="17.6855" height="17.7051">
       <g>
              <rect height="17.7051" opacity="0" width="17.6855" x="0" y="0" />
              <path d="M0 17.041Q0 17.3438 0.180664 17.5244Q0.361328 17.7051 0.664062 17.7051L17.0215 17.7051Q17.3242 17.7051 17.5049 17.5244Q17.6855 17.3438 17.6855 17.041L17.6855 0.683594Q17.6855 0.380859 17.5049 0.200195Q17.3242 0.0195312 17.0215 0.0195312L0.664062 0.0195312Q0.361328 0.0195312 0.180664 0.200195Q0 0.380859 0 0.683594Z"
                     fill="rgba(255,255,255,0.55)" />
              <path d="M8.86719 11.9824Q8.00781 11.9824 7.29492 11.5576Q6.58203 11.1328 6.15723 10.4248Q5.73242 9.7168 5.73242 8.84766Q5.73242 7.99805 6.15723 7.29004Q6.58203 6.58203 7.29492 6.16211Q8.00781 5.74219 8.86719 5.74219Q9.72656 5.74219 10.4346 6.16211Q11.1426 6.58203 11.5674 7.29004Q11.9922 7.99805 11.9922 8.84766Q11.9922 9.7168 11.5674 10.4248Q11.1426 11.1328 10.4346 11.5576Q9.72656 11.9824 8.86719 11.9824Z"
                     fill="#ffffff" />
       </g>
</svg>