<svg width="17.6855" height="17.7051">
       <g>
              <rect height="17.7051" opacity="0" width="17.6855" x="0" y="0" />
              <path d="M2.88086 17.7051L14.8047 17.7051Q16.2305 17.7051 16.958 16.9873Q17.6855 16.2695 17.6855 14.8535L17.6855 2.88086Q17.6855 1.46484 16.958 0.742188Q16.2305 0.0195312 14.8047 0.0195312L2.88086 0.0195312Q1.44531 0.0195312 0.722656 0.737305Q0 1.45508 0 2.88086L0 14.8535Q0 16.2695 0.722656 16.9873Q1.44531 17.7051 2.88086 17.7051Z"
                     fill="rgba(255,255,255,0.55)" />
              <path d="M8.86719 11.9531Q8.00781 11.9531 7.29492 11.5283Q6.58203 11.1035 6.15723 10.3955Q5.73242 9.6875 5.73242 8.81836Q5.73242 7.96875 6.15723 7.26074Q6.58203 6.55273 7.29492 6.13281Q8.00781 5.71289 8.86719 5.71289Q9.72656 5.71289 10.4346 6.13281Q11.1426 6.55273 11.5674 7.26074Q11.9922 7.96875 11.9922 8.81836Q11.9922 9.6875 11.5674 10.3955Q11.1426 11.1035 10.4346 11.5283Q9.72656 11.9531 8.86719 11.9531Z"
                     fill="#ffffff" />
       </g>
</svg>