<svg width="15.3935" height="18.5816">
       <g>
              <rect height="18.5816" opacity="0" width="15.3935" x="0" y="0" />
              <path d="M0 9.30547Q0 9.76582 0.235062 10.1462Q0.470123 10.5266 0.865173 10.7568Q1.26022 10.987 1.72058 10.987Q2.19055 10.987 2.57584 10.7568Q2.96112 10.5266 3.1913 10.1365Q3.42148 9.74629 3.42148 9.28593Q3.42148 8.58083 2.92847 8.07797Q2.43546 7.57512 1.72058 7.57512Q1.25046 7.57512 0.860291 7.81018Q0.470123 8.04524 0.235062 8.44029Q0 8.83534 0 9.30547Z"
                     fill="rgba(255,255,255,0.55)" />
              <path d="M5.36713 13.0793Q5.55374 13.286 5.84198 13.2842Q6.13022 13.2824 6.3266 13.032Q6.98013 12.2834 7.33627 11.3292Q7.69241 10.375 7.69241 9.325Q7.69241 8.27199 7.33627 7.31442Q6.98013 6.35686 6.3266 5.61498Q6.13022 5.36092 5.84198 5.35756Q5.55374 5.3542 5.36713 5.57072Q5.19028 5.76787 5.24353 6.00926Q5.29678 6.25066 5.46997 6.49113Q5.96008 7.05312 6.21651 7.78096Q6.47293 8.5088 6.47293 9.325Q6.47293 10.1381 6.22444 10.8706Q5.97595 11.603 5.46997 12.1558Q5.28702 12.3867 5.23865 12.6329Q5.19028 12.8791 5.36713 13.0793Z"
                     fill="rgba(255,255,255,0.55)" />
              <path d="M8.05008 15.817Q8.22998 16.0268 8.50807 16.0235Q8.78616 16.0201 8.99979 15.7863Q10.2046 14.5134 10.8714 12.8483Q11.5381 11.1832 11.5381 9.325Q11.5381 8.07973 11.2436 6.91739Q10.9491 5.75505 10.3812 4.72577Q9.81323 3.69649 8.99979 2.86366Q8.78616 2.62685 8.50655 2.62349Q8.22693 2.62013 8.05008 2.82994Q7.87323 3.03014 7.91634 3.27817Q7.95944 3.5262 8.15659 3.75325Q9.21021 4.83723 9.7644 6.26889Q10.3186 7.70055 10.3186 9.325Q10.3186 10.9397 9.75494 12.3652Q9.19128 13.7908 8.15659 14.8967Q7.95944 15.1207 7.91634 15.3669Q7.87323 15.6131 8.05008 15.817Z"
                     fill="rgba(255,255,255,0.55)" />
              <path d="M10.8209 18.3814Q10.9911 18.5747 11.2608 18.5814Q11.5306 18.5882 11.7406 18.3678Q13.4674 16.5902 14.4305 14.2679Q15.3935 11.9455 15.3935 9.325Q15.3935 6.69759 14.4444 4.35986Q13.4953 2.02214 11.7406 0.275314Q11.5306 0.0520784 11.2608 0.0636751Q10.9911 0.0752718 10.8209 0.261887Q10.6508 0.455216 10.6808 0.710114Q10.7108 0.965012 10.9108 1.17177Q12.4956 2.74175 13.3349 4.84151Q14.1742 6.94127 14.1742 9.325Q14.1742 11.7058 13.316 13.7882Q12.4579 15.8706 10.9108 17.4715Q10.7108 17.6821 10.6808 17.935Q10.6508 18.1879 10.8209 18.3814Z"
                     fill="rgba(255,255,255,0.165)" />
       </g>
</svg>