<svg width="19.5898" height="19.5996">
       <g>
              <rect height="19.5996" opacity="0" width="19.5898" x="0" y="0" />
              <path d="M9.79492 19.5898Q11.8066 19.5898 13.5791 18.8232Q15.3516 18.0566 16.7041 16.7041Q18.0566 15.3516 18.8232 13.5791Q19.5898 11.8066 19.5898 9.79492Q19.5898 7.7832 18.8232 6.01074Q18.0566 4.23828 16.7041 2.88574Q15.3516 1.5332 13.5742 0.766602Q11.7969 0 9.78516 0Q7.77344 0 6.00098 0.766602Q4.22852 1.5332 2.88086 2.88574Q1.5332 4.23828 0.766602 6.01074Q0 7.7832 0 9.79492Q0 11.8066 0.766602 13.5791Q1.5332 15.3516 2.88574 16.7041Q4.23828 18.0566 6.01074 18.8232Q7.7832 19.5898 9.79492 19.5898Z"
                     fill="rgba(255,255,255,0.55)" />
              <path d="M9.79492 15.1562Q8.67188 15.1562 7.83203 14.7021Q6.99219 14.248 6.52832 13.4375Q6.06445 12.627 6.06445 11.5332Q6.06445 10.7715 6.32812 10.0293Q6.5918 9.28711 6.88477 8.62305Q7.33398 7.65625 7.97852 6.57227Q8.62305 5.48828 9.24805 4.51172Q9.36523 4.33594 9.49219 4.25293Q9.61914 4.16992 9.79492 4.16992Q9.96094 4.16992 10.083 4.25293Q10.2051 4.33594 10.332 4.51172Q10.9668 5.48828 11.6064 6.57227Q12.2461 7.65625 12.6953 8.62305Q12.998 9.28711 13.2617 10.0293Q13.5254 10.7715 13.5254 11.5332Q13.5254 12.627 13.0566 13.4375Q12.5879 14.248 11.748 14.7021Q10.9082 15.1562 9.79492 15.1562Z"
                     fill="#ffffff" />
       </g>
</svg>