<svg width="20.3223" height="18.6621">
       <g>
              <rect height="18.6621" opacity="0" width="20.3223" x="0" y="0" />
              <path d="M2.46094 18.4766L17.8613 18.4766Q18.623 18.4766 19.1748 18.1494Q19.7266 17.8223 20.0244 17.2705Q20.3223 16.7188 20.3223 16.0449Q20.3223 15.7129 20.2246 15.3662Q20.127 15.0195 19.9414 14.6973L12.2461 1.21094Q11.8945 0.605469 11.333 0.302734Q10.7715 0 10.1562 0Q9.54102 0 8.97949 0.302734Q8.41797 0.605469 8.06641 1.21094L0.371094 14.6973Q0 15.3418 0 16.0449Q0 16.7188 0.297852 17.2705Q0.595703 17.8223 1.14258 18.1494Q1.68945 18.4766 2.46094 18.4766Z"
                     fill="#ffd60a" />
              <path d="M10.166 14.9023Q8.91602 14.9023 8.1543 14.1602Q7.39258 13.418 7.39258 12.207Q7.39258 11.6406 7.58301 11.0889Q7.77344 10.5371 7.99805 10.0586Q8.33984 9.33594 8.81836 8.53027Q9.29688 7.72461 9.75586 7.00195Q9.92188 6.74805 10.166 6.74805Q10.4004 6.74805 10.5664 7.00195Q11.0254 7.72461 11.5039 8.53027Q11.9824 9.33594 12.3145 10.0586Q12.5391 10.5371 12.7344 11.0889Q12.9297 11.6406 12.9297 12.207Q12.9297 13.418 12.168 14.1602Q11.4062 14.9023 10.166 14.9023Z"
                     fill="#0a84ff" />
       </g>
</svg>