<svg width="21.0744" height="15.3592">
       <g>
              <rect height="15.3592" opacity="0" width="21.0744" x="0" y="0" />
              <path d="M2.87872 15.3592L18.2024 15.3592Q19.6326 15.3592 20.3535 14.6338Q21.0744 13.9084 21.0744 12.5044L21.0744 2.8804Q21.0744 1.47644 20.3535 0.751038Q19.6326 0.0256348 18.2024 0.0256348L2.87872 0.0256348Q1.44836 0.0256348 0.724182 0.744629Q0 1.46362 0 2.8804L0 12.5044Q0 13.9212 0.724182 14.6402Q1.44836 15.3592 2.87872 15.3592Z"
                     fill="rgba(255,255,255,0.55)" />
              <path d="M6.745 12.0885Q5.39886 12.0885 4.57085 11.2867Q3.74283 10.4849 3.74283 9.17801Q3.74283 8.56232 3.95309 7.96684Q4.16336 7.37137 4.40781 6.84036Q4.76913 6.06522 5.28236 5.19142Q5.79559 4.31763 6.30035 3.53882Q6.49033 3.26096 6.745 3.26096Q6.98303 3.26096 7.17972 3.53882Q7.68448 4.31763 8.19923 5.19142Q8.71399 6.06522 9.06921 6.84036Q9.31976 7.37137 9.53041 7.96684Q9.74106 8.56232 9.74106 9.17801Q9.74106 10.4849 8.91449 11.2867Q8.08792 12.0885 6.745 12.0885ZM12.9668 5.69565Q12.5026 5.69565 12.1832 5.37476Q11.8637 5.05386 11.8637 4.59274Q11.8637 4.13177 12.1832 3.81081Q12.5026 3.48984 12.9668 3.48984Q13.421 3.48984 13.7438 3.81081Q14.0666 4.13177 14.0666 4.59274Q14.0666 5.05386 13.7438 5.37476Q13.421 5.69565 12.9668 5.69565ZM16.3972 5.69565Q15.9428 5.69565 15.62 5.37476Q15.2972 5.05386 15.2972 4.59274Q15.2972 4.13177 15.62 3.81081Q15.9428 3.48984 16.3972 3.48984Q16.8613 3.48984 17.1807 3.81081Q17.5002 4.13177 17.5002 4.59274Q17.5002 5.05386 17.1807 5.37476Q16.8613 5.69565 16.3972 5.69565ZM12.9668 8.77762Q12.5026 8.77762 12.1832 8.45329Q11.8637 8.12897 11.8637 7.67471Q11.8637 7.21069 12.1832 6.89125Q12.5026 6.57181 12.9668 6.57181Q13.421 6.57181 13.7438 6.89125Q14.0666 7.21069 14.0666 7.67471Q14.0666 8.12897 13.7438 8.45329Q13.421 8.77762 12.9668 8.77762ZM16.3972 8.77762Q15.9428 8.77762 15.62 8.45329Q15.2972 8.12897 15.2972 7.67471Q15.2972 7.21069 15.62 6.89125Q15.9428 6.57181 16.3972 6.57181Q16.8613 6.57181 17.1807 6.89125Q17.5002 7.21069 17.5002 7.67471Q17.5002 8.12897 17.1807 8.45329Q16.8613 8.77762 16.3972 8.77762ZM12.9668 11.8596Q12.5026 11.8596 12.1832 11.5353Q11.8637 11.2109 11.8637 10.7567Q11.8637 10.2925 12.1832 9.97314Q12.5026 9.65378 12.9668 9.65378Q13.421 9.65378 13.7438 9.97314Q14.0666 10.2925 14.0666 10.7567Q14.0666 11.2109 13.7438 11.5353Q13.421 11.8596 12.9668 11.8596ZM16.3972 11.8596Q15.9428 11.8596 15.62 11.5353Q15.2972 11.2109 15.2972 10.7567Q15.2972 10.2925 15.62 9.97314Q15.9428 9.65378 16.3972 9.65378Q16.8613 9.65378 17.1807 9.97314Q17.5002 10.2925 17.5002 10.7567Q17.5002 11.2109 17.1807 11.5353Q16.8613 11.8596 16.3972 11.8596Z"
                     fill="#ffffff" />
       </g>
</svg>