<svg width="19.5898" height="19.5996">
       <g>
              <rect height="19.5996" opacity="0" width="19.5898" x="0" y="0" />
              <path d="M9.79492 19.5898Q11.8066 19.5898 13.5791 18.8232Q15.3516 18.0566 16.7041 16.7041Q18.0566 15.3516 18.8232 13.5791Q19.5898 11.8066 19.5898 9.79492Q19.5898 7.7832 18.8232 6.01074Q18.0566 4.23828 16.7041 2.88574Q15.3516 1.5332 13.5742 0.766602Q11.7969 0 9.78516 0Q7.77344 0 6.00098 0.766602Q4.22852 1.5332 2.88086 2.88574Q1.5332 4.23828 0.766602 6.01074Q0 7.7832 0 9.79492Q0 11.8066 0.766602 13.5791Q1.5332 15.3516 2.88574 16.7041Q4.23828 18.0566 6.01074 18.8232Q7.7832 19.5898 9.79492 19.5898Z"
                     fill="rgba(255,255,255,0.55)" />
              <path d="M7.44141 14.2285Q7.14844 14.2285 6.99219 14.0381Q6.83594 13.8477 6.83594 13.5254L6.83594 5.94727Q6.83594 5.63477 6.99219 5.44434Q7.14844 5.25391 7.44141 5.25391L12.207 5.25391Q12.4512 5.25391 12.5977 5.39062Q12.7441 5.52734 12.7441 5.76172Q12.7441 5.99609 12.5977 6.14258Q12.4512 6.28906 12.207 6.28906L8.07617 6.28906L8.07617 9.15039L11.9629 9.15039Q12.1973 9.15039 12.3438 9.28223Q12.4902 9.41406 12.4902 9.66797Q12.4902 9.89258 12.3438 10.0244Q12.1973 10.1562 11.9629 10.1562L8.07617 10.1562L8.07617 13.1836L12.207 13.1836Q12.4512 13.1836 12.5977 13.3252Q12.7441 13.4668 12.7441 13.7109Q12.7441 13.9453 12.5977 14.0869Q12.4512 14.2285 12.207 14.2285Z"
                     fill="#ffffff" />
       </g>
</svg>