<svg width="17.6855" height="17.7051">
       <g>
              <rect height="17.7051" opacity="0" width="17.6855" x="0" y="0" />
              <path d="M2.88086 17.7051L14.8047 17.7051Q16.2305 17.7051 16.958 16.9873Q17.6855 16.2695 17.6855 14.8535L17.6855 2.88086Q17.6855 1.46484 16.958 0.742188Q16.2305 0.0195312 14.8047 0.0195312L2.88086 0.0195312Q1.44531 0.0195312 0.722656 0.737305Q0 1.45508 0 2.88086L0 14.8535Q0 16.2695 0.722656 16.9873Q1.44531 17.7051 2.88086 17.7051Z"
                     fill="rgba(255,255,255,0.55)" />
              <path d="M6.50391 13.2812Q6.21094 13.2812 6.05469 13.0908Q5.89844 12.9004 5.89844 12.5781L5.89844 5Q5.89844 4.6875 6.05469 4.49707Q6.21094 4.30664 6.50391 4.30664L11.2695 4.30664Q11.5137 4.30664 11.6602 4.44336Q11.8066 4.58008 11.8066 4.81445Q11.8066 5.04883 11.6602 5.19531Q11.5137 5.3418 11.2695 5.3418L7.13867 5.3418L7.13867 8.20312L11.0254 8.20312Q11.2598 8.20312 11.4062 8.33496Q11.5527 8.4668 11.5527 8.7207Q11.5527 8.94531 11.4062 9.07715Q11.2598 9.20898 11.0254 9.20898L7.13867 9.20898L7.13867 12.2363L11.2695 12.2363Q11.5137 12.2363 11.6602 12.3779Q11.8066 12.5195 11.8066 12.7637Q11.8066 12.998 11.6602 13.1396Q11.5137 13.2812 11.2695 13.2812Z"
                     fill="#ffffff" />
       </g>
</svg>