<svg width="14.67" height="22.3721">
       <g>
              <rect height="22.3721" opacity="0" width="14.67" x="0" y="0" />
              <path d="M0 16.2306Q0 17.5209 0.51712 18.4743Q1.03424 19.4276 1.97075 19.9514Q2.90726 20.4752 4.16443 20.4752Q5.61478 20.4752 6.69945 19.8053Q7.78412 19.1354 8.45322 17.8679L9.18991 16.4955Q9.70367 15.4846 10.3073 14.7509Q10.9109 14.0172 11.5277 13.4229Q12.1445 12.8287 12.7075 12.2591Q13.2706 11.6895 13.7115 11.0346Q14.1524 10.3798 14.4112 9.51653Q14.67 8.65326 14.67 7.46048Q14.67 5.22079 13.7683 3.54324Q12.8667 1.86569 11.2395 0.932846Q9.61227 0 7.44095 0Q5.22308 0 3.55042 0.948334Q1.87775 1.89667 0.938873 3.59154Q0 5.28641 0 7.53586Z"
                     fill="#0a84ff" />
              <path d="M2.63 12.0302L2.63 7.22061Q2.63 5.87769 3.22029 4.85916Q3.81058 3.84064 4.88792 3.27202Q5.96527 2.7034 7.41302 2.7034Q8.83911 2.7034 9.88312 3.26897Q10.9271 3.83453 11.496 4.85306Q12.065 5.87158 12.065 7.22061Q12.065 7.45682 11.8952 7.62657Q11.7255 7.79633 11.4893 7.79633Q11.2628 7.79633 11.0915 7.62657Q10.9203 7.45682 10.9203 7.22061Q10.9203 5.68649 9.98573 4.7673Q9.05121 3.84811 7.41302 3.84811Q6.29501 3.84811 5.47562 4.27048Q4.65622 4.69284 4.21387 5.45166Q3.77151 6.21048 3.77151 7.22061L3.77151 8.45474L6.91757 8.45474Q8.03268 8.45474 8.70689 9.07043Q9.3811 9.68613 9.3811 10.6906Q9.3811 11.1127 9.20952 11.5981Q9.03793 12.0836 8.75031 12.4432L7.48077 14.0546Q7.27829 14.3132 7.00546 14.3132Q6.76941 14.3132 6.59805 14.1513Q6.4267 13.9894 6.4267 13.7503Q6.4267 13.5277 6.57974 13.335L7.76062 11.8483Q7.95151 11.6183 8.06953 11.3113Q8.18756 11.0042 8.18756 10.7492Q8.18756 10.2402 7.8447 9.91982Q7.50183 9.59946 6.94016 9.59946L3.77151 9.59946L3.77151 12.0302Q3.77151 12.2662 3.60176 12.436Q3.43201 12.6057 3.19595 12.6057Q2.9628 12.6057 2.7964 12.436Q2.63 12.2662 2.63 12.0302Z"
                     fill="#ffffff" />
       </g>
</svg>