<svg width="14.67" height="22.3721">
       <g>
              <rect height="22.3721" opacity="0" width="14.67" x="0" y="0" />
              <path d="M0 16.2306Q0 17.5209 0.51712 18.4743Q1.03424 19.4276 1.97075 19.9514Q2.90726 20.4752 4.16443 20.4752Q5.61478 20.4752 6.69945 19.8053Q7.78412 19.1354 8.45322 17.8679L9.18991 16.4955Q9.70367 15.4846 10.3073 14.7509Q10.9109 14.0172 11.5277 13.4229Q12.1445 12.8287 12.7075 12.2591Q13.2706 11.6895 13.7115 11.0346Q14.1524 10.3798 14.4112 9.51653Q14.67 8.65326 14.67 7.46048Q14.67 5.22079 13.7683 3.54324Q12.8667 1.86569 11.2395 0.932846Q9.61227 0 7.44095 0Q5.22308 0 3.55042 0.948334Q1.87775 1.89667 0.938873 3.59154Q0 5.28641 0 7.53586ZM1.14456 16.1664L1.14456 7.53586Q1.14456 5.61615 1.93237 4.17763Q2.72018 2.73911 4.13986 1.94038Q5.55954 1.14166 7.44095 1.14166Q9.26666 1.14166 10.636 1.93581Q12.0053 2.72995 12.7654 4.15306Q13.5254 5.57617 13.5254 7.46048Q13.5254 8.50037 13.2831 9.26544Q13.0408 10.0305 12.6163 10.6403Q12.1919 11.2502 11.6487 11.7966Q11.1055 12.343 10.5087 12.9323Q9.9118 13.5216 9.3116 14.2554Q8.7114 14.9892 8.17429 15.9706L7.43958 17.2925Q6.90094 18.2976 6.09398 18.8021Q5.28702 19.3066 4.21158 19.3066Q2.80334 19.3066 1.97395 18.4589Q1.14456 17.6112 1.14456 16.1664ZM3.32764 12.4127Q3.56079 12.4127 3.73055 12.243Q3.9003 12.0732 3.9003 11.837L3.9003 7.41669Q3.9003 6.4035 4.33922 5.64629Q4.77814 4.88907 5.56877 4.4651Q6.35941 4.04114 7.41302 4.04114Q8.95615 4.04114 9.87389 4.9604Q10.7916 5.87967 10.7916 7.41669Q10.7916 7.64984 10.9614 7.8196Q11.1311 7.98935 11.3605 7.98935Q11.5967 7.98935 11.7664 7.8196Q11.9362 7.64984 11.9362 7.41669Q11.9362 6.05789 11.3706 5.0428Q10.8051 4.02771 9.78996 3.46359Q8.77487 2.89948 7.41302 2.89948Q6.02966 2.89948 4.9778 3.46809Q3.92593 4.03671 3.34229 5.05524Q2.75864 6.07376 2.75864 7.41669L2.75864 11.837Q2.75864 12.0732 2.92503 12.243Q3.09143 12.4127 3.32764 12.4127ZM3.28888 9.40643L6.74408 9.40643Q7.30865 9.40643 7.6516 9.72679Q7.99454 10.0471 7.99454 10.5562Q7.99454 10.8081 7.87498 11.1152Q7.75543 11.4223 7.5676 11.6553L6.38657 13.1389Q6.23367 13.3347 6.23367 13.5573Q6.23367 13.7933 6.40495 13.9568Q6.57623 14.1202 6.81244 14.1202Q7.08527 14.1202 7.28775 13.8614L8.55728 12.2501Q8.84476 11.8904 9.01634 11.405Q9.18793 10.9195 9.18793 10.4976Q9.18793 9.49295 8.51219 8.87733Q7.83646 8.26172 6.72455 8.26172L3.28888 8.26172Z"
                     fill="#0a84ff" />
       </g>
</svg>