<svg width="16.543" height="22.373">
       <g>
              <rect height="22.373" opacity="0" width="16.543" x="0" y="0" />
              <path d="M4.16016 20.4785Q4.82422 20.4785 5.41016 20.3369Q5.99609 20.1953 6.50391 19.9219Q6.23047 19.7852 6.04004 19.5312Q5.84961 19.2773 5.77148 18.9746Q5.08789 19.3066 4.20898 19.3066Q2.80273 19.3066 1.97266 18.457Q1.14258 17.6074 1.14258 16.1621L1.14258 7.53906Q1.14258 5.61523 1.93359 4.17969Q2.72461 2.74414 4.14062 1.94336Q5.55664 1.14258 7.44141 1.14258Q9.26758 1.14258 10.6348 1.93848Q12.002 2.73438 12.7637 4.15527Q13.5254 5.57617 13.5254 7.46094Q13.5254 8.57422 13.2471 9.375Q12.9688 10.1758 12.4902 10.8008Q12.0117 11.4258 11.416 12.0215Q11.7383 11.9238 12.0752 11.9727Q12.4121 12.0215 12.6953 12.2266Q13.2422 11.6309 13.6914 10.9863Q14.1406 10.3418 14.4043 9.49707Q14.668 8.65234 14.668 7.46094Q14.668 5.22461 13.7695 3.54492Q12.8711 1.86523 11.2402 0.932617Q9.60938 0 7.44141 0Q5.22461 0 3.5498 0.947266Q1.875 1.89453 0.9375 3.58887Q0 5.2832 0 7.53906L0 16.2305Q0 17.5195 0.517578 18.4717Q1.03516 19.4238 1.97266 19.9512Q2.91016 20.4785 4.16016 20.4785ZM3.33008 12.4121Q3.56445 12.4121 3.73047 12.2412Q3.89648 12.0703 3.89648 11.8359L3.89648 7.42188Q3.89648 6.40625 4.33594 5.64941Q4.77539 4.89258 5.56641 4.46777Q6.35742 4.04297 7.41211 4.04297Q8.95508 4.04297 9.87305 4.96094Q10.791 5.87891 10.791 7.42188Q10.791 7.64648 10.9619 7.81738Q11.1328 7.98828 11.3574 7.98828Q11.6016 7.98828 11.7676 7.81738Q11.9336 7.64648 11.9336 7.42188Q11.9336 6.05469 11.3672 5.03906Q10.8008 4.02344 9.79004 3.46191Q8.7793 2.90039 7.41211 2.90039Q6.02539 2.90039 4.97559 3.4668Q3.92578 4.0332 3.33984 5.05371Q2.75391 6.07422 2.75391 7.42188L2.75391 11.8359Q2.75391 12.0703 2.9248 12.2412Q3.0957 12.4121 3.33008 12.4121ZM3.29102 9.4043L6.74805 9.4043Q7.30469 9.4043 7.65137 9.72656Q7.99805 10.0488 7.99805 10.5566Q7.99805 10.8105 7.87598 11.1182Q7.75391 11.4258 7.56836 11.6602L6.38672 13.1348Q6.23047 13.3398 6.23047 13.5547Q6.23047 13.7891 6.40137 13.9551Q6.57227 14.1211 6.81641 14.1211Q7.08984 14.1211 7.28516 13.8574L8.55469 12.2461Q8.84766 11.8945 9.01855 11.4062Q9.18945 10.918 9.18945 10.498Q9.18945 9.49219 8.51074 8.87695Q7.83203 8.26172 6.72852 8.26172L3.29102 8.26172Z"
                     fill="rgba(255,255,255,0.55)" />
              <path d="M7.29492 19.0039Q7.5 19.0039 7.63672 18.8721Q7.77344 18.7402 7.77344 18.5547L7.77344 16.7188Q7.77344 16.5137 7.63672 16.3818Q7.5 16.25 7.29492 16.25Q7.10938 16.25 6.97754 16.3818Q6.8457 16.5137 6.8457 16.7188L6.8457 18.5547Q6.8457 18.7402 6.97754 18.8721Q7.10938 19.0039 7.29492 19.0039Z"
                     fill="rgba(255,255,255,0.55)" />
              <path d="M9.50195 20.6152Q9.69727 20.6152 9.8291 20.4834Q9.96094 20.3516 9.96094 20.1465L9.96094 15.1074Q9.96094 14.9121 9.8291 14.7754Q9.69727 14.6387 9.50195 14.6387Q9.30664 14.6387 9.16992 14.7754Q9.0332 14.9121 9.0332 15.1074L9.0332 20.1465Q9.0332 20.3516 9.16992 20.4834Q9.30664 20.6152 9.50195 20.6152Z"
                     fill="rgba(255,255,255,0.55)" />
              <path d="M11.6895 22.2754Q11.8848 22.2754 12.0215 22.1484Q12.1582 22.0215 12.1582 21.8262L12.1582 13.457Q12.1582 13.252 12.0215 13.1201Q11.8848 12.9883 11.6895 12.9883Q11.5039 12.9883 11.3672 13.1201Q11.2305 13.252 11.2305 13.457L11.2305 21.8262Q11.2305 22.0215 11.3623 22.1484Q11.4941 22.2754 11.6895 22.2754Z"
                     fill="rgba(255,255,255,0.55)" />
              <path d="M13.8867 21.2793Q14.082 21.2793 14.2139 21.1426Q14.3457 21.0059 14.3457 20.8105L14.3457 14.4434Q14.3457 14.248 14.2139 14.1211Q14.082 13.9941 13.8867 13.9941Q13.6914 13.9941 13.5596 14.1211Q13.4277 14.248 13.4277 14.4434L13.4277 20.8105Q13.4277 21.0059 13.5596 21.1426Q13.6914 21.2793 13.8867 21.2793Z"
                     fill="rgba(255,255,255,0.55)" />
              <path d="M16.084 19.541Q16.2793 19.541 16.4111 19.4092Q16.543 19.2773 16.543 19.082L16.543 16.1816Q16.543 15.9863 16.4111 15.8545Q16.2793 15.7227 16.084 15.7227Q15.8887 15.7227 15.7568 15.8545Q15.625 15.9863 15.625 16.1816L15.625 19.082Q15.625 19.2773 15.7568 19.4092Q15.8887 19.541 16.084 19.541Z"
                     fill="rgba(255,255,255,0.165)" />
       </g>
</svg>