<svg width="19.5898" height="19.5996">
       <g>
              <rect height="19.5996" opacity="0" width="19.5898" x="0" y="0" />
              <path d="M9.79492 19.5898Q11.8066 19.5898 13.5791 18.8232Q15.3516 18.0566 16.7041 16.7041Q18.0566 15.3516 18.8232 13.5791Q19.5898 11.8066 19.5898 9.79492Q19.5898 7.7832 18.8232 6.01074Q18.0566 4.23828 16.7041 2.88574Q15.3516 1.5332 13.5742 0.766602Q11.7969 0 9.78516 0Q7.77344 0 6.00098 0.766602Q4.22852 1.5332 2.88086 2.88574Q1.5332 4.23828 0.766602 6.01074Q0 7.7832 0 9.79492Q0 11.8066 0.766602 13.5791Q1.5332 15.3516 2.88574 16.7041Q4.23828 18.0566 6.01074 18.8232Q7.7832 19.5898 9.79492 19.5898Z"
                     fill="rgba(255,255,255,0.55)" />
              <path d="M5.78125 13.8867Q5.36133 13.8867 5.13672 13.6621Q4.91211 13.4375 4.91211 13.0273L4.91211 12.3926Q4.91211 11.9922 5.13672 11.7627Q5.36133 11.5332 5.78125 11.5332L13.8086 11.5332Q14.2188 11.5332 14.4482 11.7627Q14.6777 11.9922 14.6777 12.3926L14.6777 13.0273Q14.6777 13.4375 14.4482 13.6621Q14.2188 13.8867 13.8086 13.8867ZM5.56641 10.2246Q5.29297 10.2246 5.15137 10.0879Q5.00977 9.95117 4.99023 9.7168Q4.98047 9.47266 5.19531 9.25781L9.23828 4.70703Q9.33594 4.58984 9.48242 4.51172Q9.62891 4.43359 9.79492 4.43359Q9.95117 4.43359 10.0977 4.50684Q10.2441 4.58008 10.3613 4.70703L14.375 9.25781Q14.5898 9.48242 14.5898 9.7168Q14.5898 9.95117 14.4336 10.0879Q14.2773 10.2246 14.0137 10.2246Z"
                     fill="#ffffff" />
       </g>
</svg>