<svg width="21.7969" height="19.8926">
       <g>
              <rect height="19.8926" opacity="0" width="21.7969" x="0" y="0" />
              <path d="M3.89648 19.8828Q4.30664 19.8828 4.95117 19.6973Q5.5957 19.5117 6.35254 19.1943Q7.10938 18.877 7.87109 18.4863Q8.63281 18.0957 9.27734 17.6758Q9.4043 17.5879 9.50684 17.5586Q9.60938 17.5293 9.70703 17.5293Q9.90234 17.5488 10.0928 17.5635Q10.2832 17.5781 10.4785 17.5781Q12.4707 17.5781 14.2041 17.1289Q15.9375 16.6797 17.334 15.8691Q18.7305 15.0586 19.7314 13.96Q20.7324 12.8613 21.2646 11.5479Q21.7969 10.2344 21.7969 8.78906Q21.7969 6.96289 20.957 5.37109Q20.1172 3.7793 18.623 2.57324Q17.1289 1.36719 15.1514 0.683594Q13.1738 0 10.8984 0Q8.62305 0 6.64551 0.683594Q4.66797 1.36719 3.17383 2.57324Q1.67969 3.7793 0.839844 5.37109Q0 6.96289 0 8.78906Q0 10.332 0.600586 11.7285Q1.20117 13.125 2.31445 14.2773Q3.42773 15.4297 4.95117 16.2207Q5.06836 16.2891 5.10254 16.3916Q5.13672 16.4941 5.06836 16.6113Q4.83398 17.0215 4.51172 17.4463Q4.18945 17.8711 3.88672 18.2373Q3.58398 18.6035 3.38867 18.8379Q3.10547 19.1992 3.2373 19.541Q3.36914 19.8828 3.89648 19.8828Z"
                     fill="rgba(255,255,255,0.55)" />
              <path d="M6.29883 10.2051Q5.73242 10.2051 5.33203 9.80469Q4.93164 9.4043 4.93164 8.83789Q4.93164 8.27148 5.33203 7.87109Q5.73242 7.4707 6.29883 7.4707Q6.85547 7.4707 7.25586 7.87109Q7.65625 8.27148 7.65625 8.83789Q7.65625 9.4043 7.26074 9.80469Q6.86523 10.2051 6.29883 10.2051Z"
                     fill="#ffffff" />
              <path d="M10.8984 10.2051Q10.332 10.2051 9.93164 9.80469Q9.53125 9.4043 9.53125 8.83789Q9.53125 8.27148 9.93164 7.87109Q10.332 7.4707 10.8984 7.4707Q11.4648 7.4707 11.8604 7.87109Q12.2559 8.27148 12.2559 8.83789Q12.2559 9.4043 11.8604 9.80469Q11.4648 10.2051 10.8984 10.2051Z"
                     fill="#ffffff" />
              <path d="M15.498 10.2051Q14.9219 10.2051 14.5264 9.80469Q14.1309 9.4043 14.1309 8.83789Q14.1309 8.27148 14.5264 7.87109Q14.9219 7.4707 15.498 7.4707Q16.0547 7.4707 16.4551 7.87109Q16.8555 8.27148 16.8555 8.83789Q16.8555 9.4043 16.4551 9.80469Q16.0547 10.2051 15.498 10.2051Z"
                     fill="#ffffff" />
       </g>
</svg>