<svg width="21.2012" height="21.0449">
       <g>
              <rect height="21.0449" opacity="0" width="21.2012" x="0" y="0" />
              <path d="M5.46875 21.0449Q5.70312 21.0449 5.89844 20.9229Q6.09375 20.8008 6.35742 20.5566L9.89258 17.4023L17.0508 17.4023Q18.3789 17.4023 19.3018 16.9092Q20.2246 16.416 20.7129 15.4932Q21.2012 14.5703 21.2012 13.2617L21.2012 5.41016Q21.2012 4.10156 20.7129 3.17383Q20.2246 2.24609 19.3018 1.75293Q18.3789 1.25977 17.0508 1.25977L4.15039 1.25977Q2.82227 1.25977 1.89453 1.75293Q0.966797 2.24609 0.483398 3.16895Q0 4.0918 0 5.41016L0 13.2617Q0 14.5703 0.483398 15.498Q0.966797 16.4258 1.89453 16.9141Q2.82227 17.4023 4.15039 17.4023L4.76562 17.4023L4.76562 20.2344Q4.76562 20.6055 4.95117 20.8252Q5.13672 21.0449 5.46875 21.0449Z"
                     fill="rgba(255,255,255,0.55)" />
              <path d="M5.94727 10.6348Q5.40039 10.6348 5.01465 10.249Q4.62891 9.86328 4.62891 9.32617Q4.62891 8.78906 5.01465 8.40332Q5.40039 8.01758 5.94727 8.01758Q6.48438 8.01758 6.86523 8.40332Q7.24609 8.78906 7.24609 9.32617Q7.24609 9.86328 6.86523 10.249Q6.48438 10.6348 5.94727 10.6348Z"
                     fill="#ffffff" />
              <path d="M10.6055 10.6348Q10.0488 10.6348 9.66797 10.249Q9.28711 9.86328 9.28711 9.32617Q9.28711 8.78906 9.66797 8.40332Q10.0488 8.01758 10.6055 8.01758Q11.1426 8.01758 11.5283 8.40332Q11.9141 8.78906 11.9141 9.32617Q11.9141 9.86328 11.5283 10.249Q11.1426 10.6348 10.6055 10.6348Z"
                     fill="#ffffff" />
              <path d="M15.2539 10.6348Q14.707 10.6348 14.3262 10.249Q13.9453 9.86328 13.9453 9.32617Q13.9453 8.78906 14.3262 8.40332Q14.707 8.01758 15.2539 8.01758Q15.791 8.01758 16.1768 8.40332Q16.5625 8.78906 16.5625 9.32617Q16.5625 9.86328 16.1768 10.249Q15.791 10.6348 15.2539 10.6348Z"
                     fill="#ffffff" />
       </g>
</svg>