<svg width="17.4704" height="3.58917">
       <g>
              <rect height="3.58917" opacity="0" width="17.4704" x="0" y="0" />
              <path d="M1.7836 3.58917Q2.28882 3.58917 2.69379 3.34816Q3.09875 3.10715 3.34457 2.70554Q3.59039 2.30392 3.59039 1.80557Q3.59039 1.06155 3.06419 0.540237Q2.53799 0.0189209 1.7836 0.0189209Q1.29486 0.0189209 0.888367 0.259857Q0.481873 0.500793 0.240936 0.905762Q0 1.31073 0 1.80557Q0 2.30392 0.240936 2.70554Q0.481873 3.10715 0.888367 3.34816Q1.29486 3.58917 1.7836 3.58917Z"
                     fill="rgba(255,255,255,0.55)" />
              <path d="M8.73672 3.58917Q9.23218 3.58917 9.63531 3.34816Q10.0385 3.10715 10.2794 2.70554Q10.5203 2.30392 10.5203 1.80557Q10.5203 1.06155 9.99748 0.540237Q9.47464 0.0189209 8.73672 0.0189209Q8.24509 0.0189209 7.83859 0.259857Q7.4321 0.500793 7.19444 0.905762Q6.95679 1.31073 6.95679 1.80557Q6.95679 2.30392 7.19444 2.70554Q7.4321 3.10715 7.83859 3.34816Q8.24509 3.58917 8.73672 3.58917Z"
                     fill="rgba(255,255,255,0.55)" />
              <path d="M15.6868 3.58917Q16.1755 3.58917 16.582 3.34816Q16.9885 3.10715 17.2295 2.70554Q17.4704 2.30392 17.4704 1.80557Q17.4704 1.06155 16.9476 0.540237Q16.4247 0.0189209 15.6868 0.0189209Q15.1884 0.0189209 14.78 0.259857Q14.3716 0.500793 14.1307 0.905762Q13.8898 1.31073 13.8898 1.80557Q13.8898 2.30392 14.1307 2.70554Q14.3716 3.10715 14.78 3.34816Q15.1884 3.58917 15.6868 3.58917Z"
                     fill="rgba(255,255,255,0.55)" />
       </g>
</svg>