<svg width="20.2246" height="13.0176">
       <g>
              <rect height="13.0176" opacity="0" width="20.2246" x="0" y="0" />
              <path d="M0 10.4395Q0 11.6797 0.678711 12.3486Q1.35742 13.0176 2.59766 13.0176L17.627 13.0176Q18.877 13.0176 19.5508 12.3486Q20.2246 11.6797 20.2246 10.4395L20.2246 2.55859Q20.2246 1.31836 19.5508 0.65918Q18.877 0 17.627 0L2.59766 0Q1.35742 0 0.678711 0.65918Q0 1.31836 0 2.55859ZM1.21094 10.4883L1.21094 2.50977Q1.21094 1.12305 2.59766 1.12305L17.6367 1.12305Q19.0234 1.12305 19.0234 2.50977L19.0234 10.4883Q19.0234 11.1523 18.6621 11.5137Q18.3008 11.875 17.6367 11.875L2.59766 11.875Q1.93359 11.875 1.57227 11.5137Q1.21094 11.1523 1.21094 10.4883Z"
                     fill="rgba(255,255,255,0.55)" />
              <path d="M5.56641 7.7832Q6.10352 7.7832 6.47461 7.40723Q6.8457 7.03125 6.8457 6.50391Q6.8457 5.97656 6.47461 5.60059Q6.10352 5.22461 5.56641 5.22461Q5.03906 5.22461 4.66309 5.60059Q4.28711 5.97656 4.28711 6.50391Q4.28711 7.03125 4.66309 7.40723Q5.03906 7.7832 5.56641 7.7832Z"
                     fill="rgba(255,255,255,0.55)" />
              <path d="M10.127 7.7832Q10.6543 7.7832 11.0254 7.40723Q11.3965 7.03125 11.3965 6.50391Q11.3965 5.97656 11.0254 5.60059Q10.6543 5.22461 10.127 5.22461Q9.58984 5.22461 9.21387 5.60059Q8.83789 5.97656 8.83789 6.50391Q8.83789 7.03125 9.21387 7.40723Q9.58984 7.7832 10.127 7.7832Z"
                     fill="rgba(255,255,255,0.55)" />
              <path d="M14.6777 7.7832Q15.2051 7.7832 15.5811 7.40723Q15.957 7.03125 15.957 6.50391Q15.957 5.97656 15.5811 5.60059Q15.2051 5.22461 14.6777 5.22461Q14.1504 5.22461 13.7744 5.60059Q13.3984 5.97656 13.3984 6.50391Q13.3984 7.03125 13.7744 7.40723Q14.1504 7.7832 14.6777 7.7832Z"
                     fill="rgba(255,255,255,0.55)" />
       </g>
</svg>