<svg width="19.5898" height="19.5996">
       <g>
              <rect height="19.5996" opacity="0" width="19.5898" x="0" y="0" />
              <path d="M9.79492 19.5898Q11.8066 19.5898 13.5791 18.8232Q15.3516 18.0566 16.7041 16.7041Q18.0566 15.3516 18.8232 13.5791Q19.5898 11.8066 19.5898 9.79492Q19.5898 7.7832 18.8232 6.01074Q18.0566 4.23828 16.7041 2.88574Q15.3516 1.5332 13.5742 0.766602Q11.7969 0 9.78516 0Q7.77344 0 6.00098 0.766602Q4.22852 1.5332 2.88086 2.88574Q1.5332 4.23828 0.766602 6.01074Q0 7.7832 0 9.79492Q0 11.8066 0.766602 13.5791Q1.5332 15.3516 2.88574 16.7041Q4.23828 18.0566 6.01074 18.8232Q7.7832 19.5898 9.79492 19.5898Z"
                     fill="rgba(255,255,255,0.55)" />
              <path d="M5.19531 11.1426Q4.62891 11.1426 4.22852 10.7422Q3.82812 10.3418 3.82812 9.77539Q3.82812 9.20898 4.22852 8.80859Q4.62891 8.4082 5.19531 8.4082Q5.75195 8.4082 6.15234 8.80859Q6.55273 9.20898 6.55273 9.77539Q6.55273 10.3418 6.15723 10.7422Q5.76172 11.1426 5.19531 11.1426Z"
                     fill="#ffffff" />
              <path d="M9.79492 11.1426Q9.22852 11.1426 8.82812 10.7422Q8.42773 10.3418 8.42773 9.77539Q8.42773 9.20898 8.82812 8.80859Q9.22852 8.4082 9.79492 8.4082Q10.3613 8.4082 10.7568 8.80859Q11.1523 9.20898 11.1523 9.77539Q11.1523 10.3418 10.7568 10.7422Q10.3613 11.1426 9.79492 11.1426Z"
                     fill="#ffffff" />
              <path d="M14.3945 11.1426Q13.8184 11.1426 13.4229 10.7422Q13.0273 10.3418 13.0273 9.77539Q13.0273 9.20898 13.4229 8.80859Q13.8184 8.4082 14.3945 8.4082Q14.9512 8.4082 15.3516 8.80859Q15.752 9.20898 15.752 9.77539Q15.752 10.3418 15.3516 10.7422Q14.9512 11.1426 14.3945 11.1426Z"
                     fill="#ffffff" />
       </g>
</svg>