<svg width="21.2012" height="20.9668">
       <g>
              <rect height="20.9668" opacity="0" width="21.2012" x="0" y="0" />
              <path d="M5.60547 20.9668Q5.88867 20.9668 6.12305 20.8154Q6.35742 20.6641 6.67969 20.3809L10.1074 17.3633L17.0508 17.3633Q18.3789 17.3633 19.3018 16.8701Q20.2246 16.377 20.7129 15.4541Q21.2012 14.5312 21.2012 13.2227L21.2012 5.37109Q21.2012 4.0625 20.7129 3.13477Q20.2246 2.20703 19.3018 1.71387Q18.3789 1.2207 17.0508 1.2207L4.15039 1.2207Q2.82227 1.2207 1.89453 1.71387Q0.966797 2.20703 0.483398 3.12988Q0 4.05273 0 5.37109L0 13.2227Q0 14.5312 0.483398 15.459Q0.966797 16.3867 1.89453 16.875Q2.82227 17.3633 4.15039 17.3633L4.77539 17.3633L4.77539 20Q4.77539 20.4395 4.99512 20.7031Q5.21484 20.9668 5.60547 20.9668ZM5.9082 19.5996L5.9082 16.7285Q5.9082 16.4258 5.77637 16.2939Q5.64453 16.1621 5.33203 16.1621L4.15039 16.1621Q2.70508 16.1621 1.95801 15.3906Q1.21094 14.6191 1.21094 13.2031L1.21094 5.37109Q1.21094 3.96484 1.95801 3.19824Q2.70508 2.43164 4.15039 2.43164L17.041 2.43164Q18.4766 2.43164 19.2334 3.19824Q19.9902 3.96484 19.9902 5.37109L19.9902 13.2031Q19.9902 14.6191 19.2334 15.3906Q18.4766 16.1621 17.041 16.1621L10.1074 16.1621Q9.77539 16.1621 9.56543 16.2354Q9.35547 16.3086 9.12109 16.5527Z"
                     fill="rgba(255,255,255,0.55)" />
              <path d="M6.04492 10.5664Q6.58203 10.5664 6.95312 10.1904Q7.32422 9.81445 7.32422 9.28711Q7.32422 8.75977 6.95312 8.38379Q6.58203 8.00781 6.04492 8.00781Q5.51758 8.00781 5.1416 8.38379Q4.76562 8.75977 4.76562 9.28711Q4.76562 9.81445 5.1416 10.1904Q5.51758 10.5664 6.04492 10.5664Z"
                     fill="rgba(255,255,255,0.55)" />
              <path d="M10.6055 10.5664Q11.1328 10.5664 11.5039 10.1904Q11.875 9.81445 11.875 9.28711Q11.875 8.75977 11.5039 8.38379Q11.1328 8.00781 10.6055 8.00781Q10.0684 8.00781 9.69238 8.38379Q9.31641 8.75977 9.31641 9.28711Q9.31641 9.81445 9.69238 10.1904Q10.0684 10.5664 10.6055 10.5664Z"
                     fill="rgba(255,255,255,0.55)" />
              <path d="M15.1562 10.5664Q15.6836 10.5664 16.0596 10.1904Q16.4355 9.81445 16.4355 9.28711Q16.4355 8.75977 16.0596 8.38379Q15.6836 8.00781 15.1562 8.00781Q14.6289 8.00781 14.2529 8.38379Q13.877 8.75977 13.877 9.28711Q13.877 9.81445 14.2529 10.1904Q14.6289 10.5664 15.1562 10.5664Z"
                     fill="rgba(255,255,255,0.55)" />
       </g>
</svg>