<svg width="21.2012" height="20.9668">
       <g>
              <rect height="20.9668" opacity="0" width="21.2012" x="0" y="0" />
              <path d="M5.60547 20.9668Q5.88867 20.9668 6.12305 20.8154Q6.35742 20.6641 6.67969 20.3809L10.1074 17.3633L17.0508 17.3633Q18.3789 17.3633 19.3018 16.8701Q20.2246 16.377 20.7129 15.4541Q21.2012 14.5312 21.2012 13.2227L21.2012 5.37109Q21.2012 4.0625 20.7129 3.13477Q20.2246 2.20703 19.3018 1.71387Q18.3789 1.2207 17.0508 1.2207L4.15039 1.2207Q2.82227 1.2207 1.89453 1.71387Q0.966797 2.20703 0.483398 3.12988Q0 4.05273 0 5.37109L0 13.2227Q0 14.5312 0.483398 15.459Q0.966797 16.3867 1.89453 16.875Q2.82227 17.3633 4.15039 17.3633L4.77539 17.3633L4.77539 20Q4.77539 20.4395 4.99512 20.7031Q5.21484 20.9668 5.60547 20.9668ZM5.9082 19.5996L5.9082 16.7285Q5.9082 16.4258 5.77637 16.2939Q5.64453 16.1621 5.33203 16.1621L4.15039 16.1621Q2.70508 16.1621 1.95801 15.3906Q1.21094 14.6191 1.21094 13.2031L1.21094 5.37109Q1.21094 3.96484 1.95801 3.19824Q2.70508 2.43164 4.15039 2.43164L17.041 2.43164Q18.4766 2.43164 19.2334 3.19824Q19.9902 3.96484 19.9902 5.37109L19.9902 13.2031Q19.9902 14.6191 19.2334 15.3906Q18.4766 16.1621 17.041 16.1621L10.1074 16.1621Q9.77539 16.1621 9.56543 16.2354Q9.35547 16.3086 9.12109 16.5527Z"
                     fill="rgba(255,255,255,0.55)" />
              <path d="M10.6152 14.5996Q11.123 14.5996 11.4844 14.2334Q11.8457 13.8672 11.8457 13.3594Q11.8457 12.8418 11.4844 12.4805Q11.123 12.1191 10.6152 12.1191Q10.0977 12.1191 9.73633 12.4805Q9.375 12.8418 9.375 13.3594Q9.375 13.8672 9.73633 14.2334Q10.0977 14.5996 10.6152 14.5996Z"
                     fill="rgba(255,255,255,0.55)" />
              <path d="M10.6152 10.5273Q11.123 10.5273 11.4844 10.1709Q11.8457 9.81445 11.8457 9.29688Q11.8457 8.7793 11.4844 8.41797Q11.123 8.05664 10.6152 8.05664Q10.0977 8.05664 9.73633 8.41797Q9.375 8.7793 9.375 9.29688Q9.375 9.81445 9.73633 10.1709Q10.0977 10.5273 10.6152 10.5273Z"
                     fill="rgba(255,255,255,0.55)" />
              <path d="M10.6152 6.47461Q11.123 6.47461 11.4844 6.1084Q11.8457 5.74219 11.8457 5.23438Q11.8457 4.7168 11.4844 4.35059Q11.123 3.98438 10.6152 3.98438Q10.0977 3.98438 9.73633 4.35059Q9.375 4.7168 9.375 5.23438Q9.375 5.74219 9.73633 6.1084Q10.0977 6.47461 10.6152 6.47461Z"
                     fill="rgba(255,255,255,0.55)" />
       </g>
</svg>