<svg width="20.2246" height="13.0176">
       <g>
              <rect height="13.0176" opacity="0" width="20.2246" x="0" y="0" />
              <path d="M0 10.4395Q0 11.6797 0.678711 12.3486Q1.35742 13.0176 2.59766 13.0176L17.627 13.0176Q18.877 13.0176 19.5508 12.3486Q20.2246 11.6797 20.2246 10.4395L20.2246 2.55859Q20.2246 1.31836 19.5508 0.65918Q18.877 0 17.627 0L2.59766 0Q1.35742 0 0.678711 0.65918Q0 1.31836 0 2.55859Z"
                     fill="rgba(255,255,255,0.55)" />
              <path d="M5.46875 7.8125Q4.92188 7.8125 4.53613 7.42676Q4.15039 7.04102 4.15039 6.50391Q4.15039 5.9668 4.53613 5.58105Q4.92188 5.19531 5.46875 5.19531Q6.00586 5.19531 6.38672 5.58105Q6.76758 5.9668 6.76758 6.50391Q6.76758 7.04102 6.38672 7.42676Q6.00586 7.8125 5.46875 7.8125Z"
                     fill="#ffffff" />
              <path d="M10.127 7.8125Q9.57031 7.8125 9.18945 7.42676Q8.80859 7.04102 8.80859 6.50391Q8.80859 5.9668 9.18945 5.58105Q9.57031 5.19531 10.127 5.19531Q10.6641 5.19531 11.0498 5.58105Q11.4355 5.9668 11.4355 6.50391Q11.4355 7.04102 11.0498 7.42676Q10.6641 7.8125 10.127 7.8125Z"
                     fill="#ffffff" />
              <path d="M14.7754 7.8125Q14.2285 7.8125 13.8477 7.42676Q13.4668 7.04102 13.4668 6.50391Q13.4668 5.9668 13.8477 5.58105Q14.2285 5.19531 14.7754 5.19531Q15.3125 5.19531 15.6982 5.58105Q16.084 5.9668 16.084 6.50391Q16.084 7.04102 15.6982 7.42676Q15.3125 7.8125 14.7754 7.8125Z"
                     fill="#ffffff" />
       </g>
</svg>