<svg width="21.7969" height="19.9512">
       <g>
              <rect height="19.9512" opacity="0" width="21.7969" x="0" y="0" />
              <path d="M4.14062 19.9414Q4.74609 19.9414 5.69336 19.6045Q6.64062 19.2676 7.71484 18.7158Q8.78906 18.1641 9.74609 17.5098Q11.709 17.627 13.5059 17.2705Q15.3027 16.9141 16.8164 16.1426Q18.3301 15.3711 19.4434 14.2627Q20.5566 13.1543 21.1768 11.7676Q21.7969 10.3809 21.7969 8.7793Q21.7969 6.96289 20.957 5.37109Q20.1172 3.7793 18.623 2.57324Q17.1289 1.36719 15.1514 0.683594Q13.1738 0 10.8984 0Q8.62305 0 6.64551 0.683594Q4.66797 1.36719 3.17383 2.57324Q1.67969 3.7793 0.839844 5.37109Q0 6.96289 0 8.7793Q0 10.3711 0.639648 11.7969Q1.2793 13.2227 2.43164 14.3604Q3.58398 15.498 5.12695 16.2305Q4.90234 16.6504 4.60449 17.0996Q4.30664 17.5488 4.00879 17.9492Q3.71094 18.3496 3.49609 18.6133Q3.25195 18.9355 3.24707 19.2383Q3.24219 19.541 3.47168 19.7412Q3.70117 19.9414 4.14062 19.9414ZM4.85352 18.7012Q4.79492 18.7109 4.78027 18.6816Q4.76562 18.6523 4.80469 18.5938Q5.17578 18.1348 5.68359 17.4854Q6.19141 16.8359 6.45508 16.2988Q6.62109 15.9961 6.55762 15.7471Q6.49414 15.498 6.14258 15.332Q4.60938 14.6191 3.51562 13.6133Q2.42188 12.6074 1.83594 11.3818Q1.25 10.1562 1.25 8.7793Q1.25 7.2168 1.99219 5.85449Q2.73438 4.49219 4.05762 3.45215Q5.38086 2.41211 7.13379 1.82617Q8.88672 1.24023 10.8984 1.24023Q12.9102 1.24023 14.6631 1.82617Q16.416 2.41211 17.7393 3.45215Q19.0625 4.49219 19.8096 5.85449Q20.5566 7.2168 20.5566 8.7793Q20.5566 10.3418 19.8096 11.709Q19.0625 13.0762 17.7393 14.1162Q16.416 15.1562 14.6631 15.7422Q12.9102 16.3281 10.8984 16.3281Q10.6641 16.3281 10.3809 16.3135Q10.0977 16.2988 9.76562 16.2793Q9.53125 16.2793 9.31641 16.3525Q9.10156 16.4258 8.88672 16.5918Q8.19336 17.0312 7.42188 17.4756Q6.65039 17.9199 5.9668 18.252Q5.2832 18.584 4.85352 18.7012Z"
                     fill="rgba(255,255,255,0.55)" />
              <path d="M6.40625 10.1758Q6.95312 10.1758 7.33887 9.78516Q7.72461 9.39453 7.72461 8.83789Q7.72461 8.29102 7.33398 7.90039Q6.94336 7.50977 6.40625 7.50977Q5.83984 7.50977 5.4541 7.90039Q5.06836 8.29102 5.06836 8.83789Q5.06836 9.39453 5.4541 9.78516Q5.83984 10.1758 6.40625 10.1758Z"
                     fill="rgba(255,255,255,0.55)" />
              <path d="M10.8984 10.1758Q11.4551 10.1758 11.8457 9.78516Q12.2363 9.39453 12.2363 8.83789Q12.2363 8.29102 11.8457 7.90039Q11.4551 7.50977 10.8984 7.50977Q10.3516 7.50977 9.96094 7.90039Q9.57031 8.29102 9.57031 8.83789Q9.57031 9.39453 9.96094 9.78516Q10.3516 10.1758 10.8984 10.1758Z"
                     fill="rgba(255,255,255,0.55)" />
              <path d="M15.4102 10.1758Q15.957 10.1758 16.3477 9.78516Q16.7383 9.39453 16.7383 8.83789Q16.7383 8.29102 16.3477 7.90039Q15.957 7.50977 15.4102 7.50977Q14.8535 7.50977 14.4629 7.90039Q14.0723 8.29102 14.0723 8.83789Q14.0723 9.39453 14.4629 9.78516Q14.8535 10.1758 15.4102 10.1758Z"
                     fill="rgba(255,255,255,0.55)" />
       </g>
</svg>