<svg width="23.2054" height="20.2521">
       <g>
              <rect height="20.2521" opacity="0" width="23.2054" x="0" y="0" />
              <path d="M0 10.1212Q0 10.4539 0.202103 10.6899Q0.404205 10.9259 0.847778 10.9956Q1.81046 11.1232 2.25403 11.6656Q2.6976 12.2081 2.6976 13.4564L2.6976 16.4519Q2.6976 18.4047 3.55797 19.3284Q4.41833 20.2521 6.31226 20.2521Q6.47995 20.2521 6.63666 20.208Q6.8219 20.1436 6.92581 20.0056Q7.02972 19.8677 7.02972 19.669Q7.02972 19.2319 6.60965 19.1502Q6.54968 19.1368 6.4946 19.1267Q6.43951 19.1165 6.36978 19.1165Q5.09399 19.059 4.54262 18.4212Q3.99124 17.7835 3.99124 16.3322L3.99124 12.8448Q3.99124 11.5894 3.32382 10.9103Q2.6564 10.2313 1.52298 10.1602Q1.49734 10.1602 1.49734 10.1347Q1.49734 10.1091 1.52298 10.1091Q2.6564 10.038 3.32382 9.3589Q3.99124 8.67981 3.99124 7.42142L3.99124 3.92731Q3.99124 2.47604 4.54262 1.84166Q5.09399 1.20728 6.36978 1.1496Q6.45676 1.14288 6.5287 1.13281Q6.60065 1.12274 6.66351 1.1055Q7.02972 1.00754 7.02972 0.593567Q7.02972 0.381317 6.92055 0.246735Q6.81137 0.112152 6.60965 0.0546265Q6.45905 0.010376 6.24786 0.010376Q4.39438 0.010376 3.54599 0.940857Q2.6976 1.87134 2.6976 3.80768L2.6976 6.8129Q2.6976 8.0513 2.25403 8.59383Q1.81046 9.13635 0.847778 9.26697Q0.404205 9.32999 0.202103 9.56436Q0 9.79874 0 10.1212ZM23.2054 10.1212Q23.2054 9.79874 23.0051 9.56436Q22.8049 9.32999 22.3546 9.26697Q21.395 9.13635 20.9513 8.59383Q20.5077 8.0513 20.5077 6.8129L20.5077 3.80768Q20.5077 1.87134 19.6593 0.940857Q18.811 0.010376 16.9576 0.010376Q16.7531 0.010376 16.5994 0.0546265Q16.3939 0.112152 16.2833 0.246735Q16.1726 0.381317 16.1726 0.593567Q16.1726 1.00754 16.5486 1.1055Q16.6017 1.12274 16.6737 1.13281Q16.7456 1.14288 16.8326 1.1496Q18.1084 1.20728 18.6631 1.84166Q19.2178 2.47604 19.2178 3.92731L19.2178 7.42142Q19.2178 8.67981 19.8833 9.3589Q20.5489 10.038 21.6824 10.1091Q21.705 10.1091 21.705 10.1347Q21.705 10.1602 21.6824 10.1602Q20.5489 10.2313 19.8833 10.9103Q19.2178 11.5894 19.2178 12.8448L19.2178 16.3322Q19.2178 17.7835 18.6631 18.4212Q18.1084 19.059 16.8326 19.1165Q16.7659 19.1165 16.7108 19.1267Q16.6557 19.1368 16.5994 19.1502Q16.1726 19.2319 16.1726 19.669Q16.1726 19.8677 16.2766 20.0056Q16.3805 20.1436 16.5724 20.208Q16.7255 20.2521 16.8901 20.2521Q18.7909 20.2521 19.6493 19.3284Q20.5077 18.4047 20.5077 16.4519L20.5077 13.4564Q20.5077 12.2081 20.9513 11.6656Q21.395 11.1232 22.3546 10.9956Q22.8049 10.9259 23.0051 10.6899Q23.2054 10.4539 23.2054 10.1212Z"
                     fill="rgba(255,255,255,0.55)" />
              <path d="M7.41852 11.5437Q8.00186 11.5437 8.42148 11.1192Q8.84109 10.6947 8.84109 10.1212Q8.84109 9.74426 8.64929 9.41811Q8.45749 9.09195 8.13469 8.89526Q7.81189 8.69858 7.41852 8.69858Q7.02896 8.69858 6.70273 8.89526Q6.3765 9.09195 6.17989 9.41811Q5.98328 9.74426 5.98328 10.1212Q5.98328 10.6947 6.40778 11.1192Q6.83228 11.5437 7.41852 11.5437Z"
                     fill="rgba(255,255,255,0.55)" />
              <path d="M11.6011 11.5437Q11.9878 11.5437 12.3106 11.347Q12.6334 11.1504 12.83 10.8242Q13.0267 10.498 13.0267 10.1212Q13.0267 9.74426 12.83 9.41811Q12.6334 9.09195 12.3106 8.89526Q11.9878 8.69858 11.6011 8.69858Q11.2244 8.69858 10.8982 8.89526Q10.5721 9.09195 10.3754 9.41811Q10.1787 9.74426 10.1787 10.1212Q10.1787 10.6947 10.6032 11.1192Q11.0277 11.5437 11.6011 11.5437Z"
                     fill="rgba(255,255,255,0.55)" />
              <path d="M15.7869 11.5437Q16.3701 11.5437 16.7961 11.1192Q17.2221 10.6947 17.2221 10.1212Q17.2221 9.74426 17.0255 9.41811Q16.8288 9.09195 16.5044 8.89526Q16.1801 8.69858 15.7869 8.69858Q15.4002 8.69858 15.0741 8.89526Q14.7479 9.09195 14.5561 9.41811Q14.3643 9.74426 14.3643 10.1212Q14.3643 10.6947 14.7839 11.1192Q15.2036 11.5437 15.7869 11.5437Z"
                     fill="rgba(255,255,255,0.55)" />
       </g>
</svg>