<svg width="21.2012" height="21.0449">
       <g>
              <rect height="21.0449" opacity="0" width="21.2012" x="0" y="0" />
              <path d="M5.46875 21.0449Q5.70312 21.0449 5.89844 20.9229Q6.09375 20.8008 6.35742 20.5566L9.89258 17.4023L17.0508 17.4023Q18.3789 17.4023 19.3018 16.9092Q20.2246 16.416 20.7129 15.4932Q21.2012 14.5703 21.2012 13.2617L21.2012 5.41016Q21.2012 4.10156 20.7129 3.17383Q20.2246 2.24609 19.3018 1.75293Q18.3789 1.25977 17.0508 1.25977L4.15039 1.25977Q2.82227 1.25977 1.89453 1.75293Q0.966797 2.24609 0.483398 3.16895Q0 4.0918 0 5.41016L0 13.2617Q0 14.5703 0.483398 15.498Q0.966797 16.4258 1.89453 16.9141Q2.82227 17.4023 4.15039 17.4023L4.76562 17.4023L4.76562 20.2344Q4.76562 20.6055 4.95117 20.8252Q5.13672 21.0449 5.46875 21.0449Z"
                     fill="rgba(255,255,255,0.55)" />
              <path d="M10.6055 14.7363Q10.0781 14.7363 9.70703 14.3652Q9.33594 13.9941 9.33594 13.4766Q9.33594 12.9492 9.70703 12.5781Q10.0781 12.207 10.6055 12.207Q11.1328 12.207 11.5039 12.5781Q11.875 12.9492 11.875 13.4766Q11.875 13.9941 11.5039 14.3652Q11.1328 14.7363 10.6055 14.7363Z"
                     fill="#ffffff" />
              <path d="M10.6055 10.5957Q10.0781 10.5957 9.70703 10.2246Q9.33594 9.85352 9.33594 9.33594Q9.33594 8.79883 9.70703 8.42773Q10.0781 8.05664 10.6055 8.05664Q11.1328 8.05664 11.5039 8.42773Q11.875 8.79883 11.875 9.33594Q11.875 9.85352 11.5039 10.2246Q11.1328 10.5957 10.6055 10.5957Z"
                     fill="#ffffff" />
              <path d="M10.6055 6.45508Q10.0781 6.45508 9.70703 6.08398Q9.33594 5.71289 9.33594 5.18555Q9.33594 4.6582 9.70703 4.28711Q10.0781 3.91602 10.6055 3.91602Q11.1328 3.91602 11.5039 4.28711Q11.875 4.6582 11.875 5.18555Q11.875 5.71289 11.5039 6.08398Q11.1328 6.45508 10.6055 6.45508Z"
                     fill="#ffffff" />
       </g>
</svg>