<svg width="19.5898" height="19.5996">
       <g>
              <rect height="19.5996" opacity="0" width="19.5898" x="0" y="0" />
              <path d="M9.79492 19.5898Q11.8066 19.5898 13.5791 18.8232Q15.3516 18.0566 16.7041 16.7041Q18.0566 15.3516 18.8232 13.5791Q19.5898 11.8066 19.5898 9.79492Q19.5898 7.7832 18.8232 6.01074Q18.0566 4.23828 16.7041 2.88574Q15.3516 1.5332 13.5742 0.766602Q11.7969 0 9.78516 0Q7.77344 0 6.00098 0.766602Q4.22852 1.5332 2.88086 2.88574Q1.5332 4.23828 0.766602 6.01074Q0 7.7832 0 9.79492Q0 11.8066 0.766602 13.5791Q1.5332 15.3516 2.88574 16.7041Q4.23828 18.0566 6.01074 18.8232Q7.7832 19.5898 9.79492 19.5898ZM9.79492 18.3203Q8.02734 18.3203 6.47949 17.6611Q4.93164 17.002 3.75977 15.8301Q2.58789 14.6582 1.92871 13.1104Q1.26953 11.5625 1.26953 9.79492Q1.26953 8.02734 1.92871 6.47949Q2.58789 4.93164 3.75977 3.75488Q4.93164 2.57812 6.47461 1.91895Q8.01758 1.25977 9.78516 1.25977Q11.5625 1.25977 13.1104 1.91895Q14.6582 2.57812 15.8301 3.75488Q17.002 4.93164 17.666 6.47949Q18.3301 8.02734 18.3301 9.79492Q18.3301 11.5625 17.666 13.1104Q17.002 14.6582 15.8301 15.8301Q14.6582 17.002 13.1152 17.6611Q11.5723 18.3203 9.79492 18.3203Z"
                     fill="rgba(255,255,255,0.55)" />
              <path d="M5.29297 11.1133Q5.83984 11.1133 6.22559 10.7227Q6.61133 10.332 6.61133 9.77539Q6.61133 9.22852 6.2207 8.83789Q5.83008 8.44727 5.29297 8.44727Q4.72656 8.44727 4.34082 8.83789Q3.95508 9.22852 3.95508 9.77539Q3.95508 10.332 4.34082 10.7227Q4.72656 11.1133 5.29297 11.1133Z"
                     fill="rgba(255,255,255,0.55)" />
              <path d="M9.78516 11.1133Q10.3418 11.1133 10.7324 10.7227Q11.123 10.332 11.123 9.77539Q11.123 9.22852 10.7324 8.83789Q10.3418 8.44727 9.78516 8.44727Q9.23828 8.44727 8.84766 8.83789Q8.45703 9.22852 8.45703 9.77539Q8.45703 10.332 8.84766 10.7227Q9.23828 11.1133 9.78516 11.1133Z"
                     fill="rgba(255,255,255,0.55)" />
              <path d="M14.2969 11.1133Q14.8438 11.1133 15.2344 10.7227Q15.625 10.332 15.625 9.77539Q15.625 9.22852 15.2344 8.83789Q14.8438 8.44727 14.2969 8.44727Q13.7402 8.44727 13.3496 8.83789Q12.959 9.22852 12.959 9.77539Q12.959 10.332 13.3496 10.7227Q13.7402 11.1133 14.2969 11.1133Z"
                     fill="rgba(255,255,255,0.55)" />
       </g>
</svg>