<svg width="19.5898" height="19.5996">
       <g>
              <rect height="19.5996" opacity="0" width="19.5898" x="0" y="0" />
              <path d="M9.79492 19.5996Q11.8066 19.5996 13.5791 18.833Q15.3516 18.0664 16.7041 16.7139Q18.0566 15.3613 18.8232 13.5889Q19.5898 11.8164 19.5898 9.80469Q19.5898 7.79297 18.8232 6.02051Q18.0566 4.24805 16.7041 2.89551Q15.3516 1.54297 13.5742 0.776367Q11.7969 0.00976562 9.78516 0.00976562Q7.77344 0.00976562 6.00098 0.776367Q4.22852 1.54297 2.88086 2.89551Q1.5332 4.24805 0.766602 6.02051Q0 7.79297 0 9.80469Q0 11.8164 0.766602 13.5889Q1.5332 15.3613 2.88574 16.7139Q4.23828 18.0664 6.01074 18.833Q7.7832 19.5996 9.79492 19.5996Z"
                     fill="#0a84ff" />
              <path d="M7.94922 9.83398L4.48242 13.291Q4.42383 13.1934 4.38965 13.0127Q4.35547 12.832 4.35547 12.5684L4.35547 7.03125Q4.35547 6.52344 4.45312 6.34766ZM9.81445 10.4102Q9.6875 10.4102 9.54102 10.3516Q9.39453 10.293 9.24805 10.1562L4.88281 5.78125Q4.9707 5.69336 5.19043 5.62988Q5.41016 5.56641 5.73242 5.56641L13.9062 5.56641Q14.2285 5.56641 14.4434 5.62988Q14.6582 5.69336 14.7461 5.78125L10.3809 10.1562Q10.1172 10.4102 9.81445 10.4102ZM11.6406 9.83398L15.1367 6.34766Q15.2344 6.52344 15.2344 7.03125L15.2344 12.5684Q15.2344 12.832 15.2051 13.0127Q15.1758 13.1934 15.1074 13.291ZM9.80469 11.0742Q10.3027 11.0742 10.7812 10.6348L11.1426 10.2832L14.707 13.8379Q14.5215 14.0332 13.8965 14.0332L5.73242 14.0332Q5.10742 14.0332 4.92188 13.8379L8.47656 10.2832L8.83789 10.6348Q9.31641 11.0742 9.80469 11.0742Z"
                     fill="#ffffff" />
       </g>
</svg>