<svg width="19.5898" height="19.5996">
       <g>
              <rect height="19.5996" opacity="0" width="19.5898" x="0" y="0" />
              <path d="M9.79492 19.5898Q11.8066 19.5898 13.5791 18.8232Q15.3516 18.0566 16.7041 16.7041Q18.0566 15.3516 18.8232 13.5791Q19.5898 11.8066 19.5898 9.79492Q19.5898 7.7832 18.8232 6.01074Q18.0566 4.23828 16.7041 2.88574Q15.3516 1.5332 13.5742 0.766602Q11.7969 0 9.78516 0Q7.77344 0 6.00098 0.766602Q4.22852 1.5332 2.88086 2.88574Q1.5332 4.23828 0.766602 6.01074Q0 7.7832 0 9.79492Q0 11.8066 0.766602 13.5791Q1.5332 15.3516 2.88574 16.7041Q4.23828 18.0566 6.01074 18.8232Q7.7832 19.5898 9.79492 19.5898Z"
                     fill="rgba(255,255,255,0.55)" />
              <path d="M5.88867 12.207Q5.58594 12.207 5.39551 12.0605Q5.20508 11.9141 5.20508 11.6211Q5.20508 11.3281 5.39062 11.1719Q5.57617 11.0156 5.88867 11.0156L13.7012 11.0156Q13.9941 11.0156 14.1797 11.1719Q14.3652 11.3281 14.3652 11.6211Q14.3652 11.9141 14.1797 12.0605Q13.9941 12.207 13.7012 12.207ZM5.88867 8.59375Q5.58594 8.59375 5.39551 8.44727Q5.20508 8.30078 5.20508 7.99805Q5.20508 7.70508 5.39062 7.55371Q5.57617 7.40234 5.88867 7.40234L13.7012 7.40234Q13.9941 7.40234 14.1797 7.55371Q14.3652 7.70508 14.3652 7.99805Q14.3652 8.30078 14.1797 8.44727Q13.9941 8.59375 13.7012 8.59375Z"
                     fill="#ffffff" />
       </g>
</svg>