<svg width="17.6855" height="17.7051">
       <g>
              <rect height="17.7051" opacity="0" width="17.6855" x="0" y="0" />
              <path d="M2.88086 17.7051L14.8047 17.7051Q16.2305 17.7051 16.958 16.9873Q17.6855 16.2695 17.6855 14.8535L17.6855 2.88086Q17.6855 1.46484 16.958 0.742188Q16.2305 0.0195312 14.8047 0.0195312L2.88086 0.0195312Q1.44531 0.0195312 0.722656 0.737305Q0 1.45508 0 2.88086L0 14.8535Q0 16.2695 0.722656 16.9873Q1.44531 17.7051 2.88086 17.7051Z"
                     fill="rgba(255,255,255,0.55)" />
              <path d="M4.94141 11.2598Q4.63867 11.2598 4.44824 11.1133Q4.25781 10.9668 4.25781 10.6738Q4.25781 10.3809 4.44336 10.2246Q4.62891 10.0684 4.94141 10.0684L12.7539 10.0684Q13.0469 10.0684 13.2324 10.2246Q13.418 10.3809 13.418 10.6738Q13.418 10.9668 13.2324 11.1133Q13.0469 11.2598 12.7539 11.2598ZM4.94141 7.64648Q4.63867 7.64648 4.44824 7.5Q4.25781 7.35352 4.25781 7.05078Q4.25781 6.75781 4.44336 6.60645Q4.62891 6.45508 4.94141 6.45508L12.7539 6.45508Q13.0469 6.45508 13.2324 6.60645Q13.418 6.75781 13.418 7.05078Q13.418 7.35352 13.2324 7.5Q13.0469 7.64648 12.7539 7.64648Z"
                     fill="#ffffff" />
       </g>
</svg>