<svg width="21.2012" height="21.0449">
       <g>
              <rect height="21.0449" opacity="0" width="21.2012" x="0" y="0" />
              <path d="M5.46875 21.0449Q5.70312 21.0449 5.89844 20.9229Q6.09375 20.8008 6.35742 20.5566L9.89258 17.4023L17.0508 17.4023Q18.3789 17.4023 19.3018 16.9092Q20.2246 16.416 20.7129 15.4932Q21.2012 14.5703 21.2012 13.2617L21.2012 5.41016Q21.2012 4.10156 20.7129 3.17383Q20.2246 2.24609 19.3018 1.75293Q18.3789 1.25977 17.0508 1.25977L4.15039 1.25977Q2.82227 1.25977 1.89453 1.75293Q0.966797 2.24609 0.483398 3.16895Q0 4.0918 0 5.41016L0 13.2617Q0 14.5703 0.483398 15.498Q0.966797 16.4258 1.89453 16.9141Q2.82227 17.4023 4.15039 17.4023L4.76562 17.4023L4.76562 20.2344Q4.76562 20.6055 4.95117 20.8252Q5.13672 21.0449 5.46875 21.0449Z"
                     fill="rgba(255,255,255,0.55)" />
              <path d="M10.6152 11.1133Q9.99023 11.1133 9.98047 10.459L9.87305 5.12695Q9.87305 4.81445 10.0732 4.61426Q10.2734 4.41406 10.6055 4.41406Q10.9277 4.41406 11.1377 4.61914Q11.3477 4.82422 11.3379 5.13672L11.2207 10.459Q11.2109 11.1133 10.6152 11.1133ZM10.6152 14.209Q10.2344 14.209 9.95605 13.9404Q9.67773 13.6719 9.67773 13.3008Q9.67773 12.9297 9.95117 12.6611Q10.2246 12.3926 10.6152 12.3926Q10.9863 12.3926 11.2646 12.6611Q11.543 12.9297 11.543 13.3008Q11.543 13.6719 11.2646 13.9404Q10.9863 14.209 10.6152 14.209Z"
                     fill="#ffffff" />
       </g>
</svg>