<svg width="19.5898" height="19.5996">
       <g>
              <rect height="19.5996" opacity="0" width="19.5898" x="0" y="0" />
              <path d="M9.79492 19.5898Q11.8066 19.5898 13.5791 18.8232Q15.3516 18.0566 16.7041 16.7041Q18.0566 15.3516 18.8232 13.5791Q19.5898 11.8066 19.5898 9.79492Q19.5898 7.7832 18.8232 6.01074Q18.0566 4.23828 16.7041 2.88574Q15.3516 1.5332 13.5742 0.766602Q11.7969 0 9.78516 0Q7.77344 0 6.00098 0.766602Q4.22852 1.5332 2.88086 2.88574Q1.5332 4.23828 0.766602 6.01074Q0 7.7832 0 9.79492Q0 11.8066 0.766602 13.5791Q1.5332 15.3516 2.88574 16.7041Q4.23828 18.0566 6.01074 18.8232Q7.7832 19.5898 9.79492 19.5898Z"
                     fill="#ff453a" />
              <path d="M9.79492 11.582Q9.16992 11.582 9.16016 10.9277L9.05273 5.5957Q9.05273 5.2832 9.25293 5.08301Q9.45312 4.88281 9.78516 4.88281Q10.1074 4.88281 10.3174 5.08789Q10.5273 5.29297 10.5176 5.60547L10.4004 10.9277Q10.3906 11.582 9.79492 11.582ZM9.79492 14.6777Q9.41406 14.6777 9.13574 14.4092Q8.85742 14.1406 8.85742 13.7695Q8.85742 13.3984 9.13086 13.1299Q9.4043 12.8613 9.79492 12.8613Q10.166 12.8613 10.4443 13.1299Q10.7227 13.3984 10.7227 13.7695Q10.7227 14.1406 10.4443 14.4092Q10.166 14.6777 9.79492 14.6777Z"
                     fill="#ffffff" />
       </g>
</svg>