<svg width="13.0621" height="19.2618">
       <g>
              <rect height="19.2618" opacity="0" width="13.0621" x="0" y="0" />
              <path d="M1.64368 8.17993L2.84958 8.17993L2.84958 5.19928Q2.84958 3.92349 3.33954 3.01888Q3.8295 2.11426 4.66484 1.63498Q5.50018 1.1557 6.52954 1.1557Q7.56561 1.1557 8.3976 1.63498Q9.22958 2.11426 9.71954 3.01888Q10.2095 3.92349 10.2095 5.19928L10.2095 8.17993L11.4185 8.17993L11.4185 5.31967Q11.4185 4.03046 11.0326 3.03993Q10.6467 2.04941 9.96925 1.37215Q9.29184 0.694885 8.40736 0.347443Q7.52289 0 6.52954 0Q5.53925 0 4.6566 0.347443Q3.77396 0.694885 3.09807 1.37215Q2.42218 2.04941 2.03293 3.03993Q1.64368 4.03046 1.64368 5.31967ZM1.85684 18.8741L11.2053 18.8741Q12.1404 18.8741 12.6012 18.3997Q13.0621 17.9254 13.0621 16.9061L13.0621 9.64127Q13.0621 8.62869 12.6012 8.15437Q12.1404 7.68005 11.2053 7.68005L1.98563 7.68005Q1.05423 7.68005 0.527115 8.15773Q0 8.63541 0 9.64127L0 16.9061Q0 17.9254 0.462723 18.3997Q0.925446 18.8741 1.85684 18.8741Z"
                     fill="rgba(255,255,255,0.55)" />
              <path d="M6.52954 14.4592Q6.30463 14.4592 6.17592 14.3211Q6.04721 14.183 6.0405 13.9459L5.96161 10.3387Q5.9549 10.1016 6.11359 9.94484Q6.27228 9.78806 6.52954 9.78806Q6.78009 9.78806 6.94214 9.94827Q7.10419 10.1085 7.09747 10.3456L7.01187 13.9459Q7.00516 14.183 6.87988 14.3211Q6.75461 14.4592 6.52954 14.4592ZM6.52954 16.685Q6.22849 16.685 6.00891 16.4692Q5.78934 16.2534 5.78934 15.9584Q5.78934 15.667 6.00891 15.4478Q6.22849 15.2286 6.52954 15.2286Q6.83731 15.2286 7.05688 15.4444Q7.27646 15.6602 7.27646 15.9584Q7.27646 16.2534 7.05688 16.4692Q6.83731 16.685 6.52954 16.685Z"
                     fill="#ffffff" />
       </g>
</svg>