<svg width="15.6738" height="19.5996">
       <g>
              <rect height="19.5996" opacity="0" width="15.6738" x="0" y="0" />
              <path d="M7.83203 19.5996Q7.96875 19.5996 8.13965 19.5459Q8.31055 19.4922 8.47656 19.4043Q10.5273 18.2617 11.9141 17.3877Q13.3008 16.5137 14.126 15.6934Q14.9512 14.873 15.3125 13.9404Q15.6738 13.0078 15.6738 11.7578L15.6738 4.41406Q15.6738 3.63281 15.3711 3.29102Q15.0684 2.94922 14.3945 2.67578Q13.9844 2.50977 13.4033 2.29004Q12.8223 2.07031 12.1582 1.82129Q11.4941 1.57227 10.835 1.32812Q10.1758 1.08398 9.59473 0.874023Q9.01367 0.664062 8.60352 0.517578Q8.4082 0.458984 8.21777 0.419922Q8.02734 0.380859 7.83203 0.380859Q7.63672 0.380859 7.44629 0.419922Q7.25586 0.458984 7.06055 0.517578Q6.65039 0.673828 6.06934 0.883789Q5.48828 1.09375 4.8291 1.33301Q4.16992 1.57227 3.50586 1.82129Q2.8418 2.07031 2.26074 2.29492Q1.67969 2.51953 1.26953 2.67578Q0.595703 2.93945 0.297852 3.28613Q0 3.63281 0 4.41406L0 11.7578Q0 13.0078 0.371094 13.9258Q0.742188 14.8438 1.57227 15.6396Q2.40234 16.4355 3.78906 17.3193Q5.17578 18.2031 7.1875 19.4043Q7.35352 19.4922 7.52441 19.5459Q7.69531 19.5996 7.83203 19.5996Z"
                     fill="rgba(255,255,255,0.55)" />
              <path d="M7.83203 11.3672Q7.20703 11.3672 7.19727 10.7129L7.08984 5.38086Q7.08984 5.06836 7.29004 4.86816Q7.49023 4.66797 7.82227 4.66797Q8.14453 4.66797 8.35449 4.87305Q8.56445 5.07812 8.55469 5.39062L8.4375 10.7129Q8.42773 11.3672 7.83203 11.3672ZM7.83203 14.4629Q7.45117 14.4629 7.17285 14.1943Q6.89453 13.9258 6.89453 13.5547Q6.89453 13.1836 7.16797 12.915Q7.44141 12.6465 7.83203 12.6465Q8.20312 12.6465 8.48145 12.915Q8.75977 13.1836 8.75977 13.5547Q8.75977 13.9258 8.48145 14.1943Q8.20312 14.4629 7.83203 14.4629Z"
                     fill="#ffffff" />
       </g>
</svg>