<svg width="19.5996" height="18.9941">
       <g>
              <rect height="18.9941" opacity="0" width="19.5996" x="0" y="0" />
              <path d="M7.02148 18.9844L12.5781 18.9844Q13.2812 18.9844 13.7402 18.8379Q14.1992 18.6914 14.5361 18.418Q14.873 18.1445 15.2246 17.7832L18.8379 13.8477Q19.1406 13.5156 19.3066 13.2324Q19.4727 12.9492 19.5361 12.6123Q19.5996 12.2754 19.5996 11.7969L19.5996 7.19727Q19.5996 6.70898 19.5361 6.37207Q19.4727 6.03516 19.3066 5.75195Q19.1406 5.46875 18.8379 5.13672L15.2246 1.21094Q14.873 0.839844 14.5361 0.566406Q14.1992 0.292969 13.7402 0.146484Q13.2812 0 12.5781 0L7.02148 0Q6.31836 0 5.85938 0.146484Q5.40039 0.292969 5.06348 0.566406Q4.72656 0.839844 4.38477 1.21094L0.761719 5.13672Q0.458984 5.46875 0.292969 5.75195Q0.126953 6.03516 0.0634766 6.37207Q0 6.70898 0 7.19727L0 11.7969Q0 12.2754 0.0634766 12.6123Q0.126953 12.9492 0.292969 13.2324Q0.458984 13.5156 0.761719 13.8477L4.38477 17.7832Q4.72656 18.1445 5.06348 18.418Q5.40039 18.6914 5.85938 18.8379Q6.31836 18.9844 7.02148 18.9844Z"
                     fill="#ff453a" />
              <path d="M9.81445 11.2793Q9.18945 11.2793 9.17969 10.625L9.07227 5.29297Q9.07227 4.98047 9.27246 4.78027Q9.47266 4.58008 9.80469 4.58008Q10.127 4.58008 10.3369 4.78516Q10.5469 4.99023 10.5371 5.30273L10.4199 10.625Q10.4102 11.2793 9.81445 11.2793ZM9.81445 14.375Q9.43359 14.375 9.15527 14.1064Q8.87695 13.8379 8.87695 13.4668Q8.87695 13.0957 9.15039 12.8271Q9.42383 12.5586 9.81445 12.5586Q10.1855 12.5586 10.4639 12.8271Q10.7422 13.0957 10.7422 13.4668Q10.7422 13.8379 10.4639 14.1064Q10.1855 14.375 9.81445 14.375Z"
                     fill="#ffffff" />
       </g>
</svg>