<svg width="20.3223" height="18.6621">
       <g>
              <rect height="18.6621" opacity="0" width="20.3223" x="0" y="0" />
              <path d="M2.46094 18.4766L17.8613 18.4766Q18.623 18.4766 19.1748 18.1494Q19.7266 17.8223 20.0244 17.2705Q20.3223 16.7188 20.3223 16.0449Q20.3223 15.7129 20.2246 15.3662Q20.127 15.0195 19.9414 14.6973L12.2461 1.21094Q11.8945 0.605469 11.333 0.302734Q10.7715 0 10.1562 0Q9.54102 0 8.97949 0.302734Q8.41797 0.605469 8.06641 1.21094L0.371094 14.6973Q0 15.3418 0 16.0449Q0 16.7188 0.297852 17.2705Q0.595703 17.8223 1.14258 18.1494Q1.68945 18.4766 2.46094 18.4766Z"
                     fill="#ffd60a" />
              <path d="M10.166 12.0117Q9.54102 12.0117 9.53125 11.3574L9.42383 6.02539Q9.42383 5.71289 9.62402 5.5127Q9.82422 5.3125 10.1562 5.3125Q10.4785 5.3125 10.6885 5.51758Q10.8984 5.72266 10.8887 6.03516L10.7715 11.3574Q10.7617 12.0117 10.166 12.0117ZM10.166 15.1074Q9.78516 15.1074 9.50684 14.8389Q9.22852 14.5703 9.22852 14.1992Q9.22852 13.8281 9.50195 13.5596Q9.77539 13.291 10.166 13.291Q10.5371 13.291 10.8154 13.5596Q11.0938 13.8281 11.0938 14.1992Q11.0938 14.5703 10.8154 14.8389Q10.5371 15.1074 10.166 15.1074Z"
                     fill="#ffffff" />
       </g>
</svg>