<svg width="17.6855" height="17.7051">
       <g>
              <rect height="17.7051" opacity="0" width="17.6855" x="0" y="0" />
              <path d="M2.88086 17.7051L14.8047 17.7051Q16.2305 17.7051 16.958 16.9873Q17.6855 16.2695 17.6855 14.8535L17.6855 2.88086Q17.6855 1.46484 16.958 0.742188Q16.2305 0.0195312 14.8047 0.0195312L2.88086 0.0195312Q1.44531 0.0195312 0.722656 0.737305Q0 1.45508 0 2.88086L0 14.8535Q0 16.2695 0.722656 16.9873Q1.44531 17.7051 2.88086 17.7051Z"
                     fill="#ff453a" />
              <path d="M8.84766 10.6348Q8.22266 10.6348 8.21289 9.98047L8.10547 4.64844Q8.10547 4.33594 8.30566 4.13574Q8.50586 3.93555 8.83789 3.93555Q9.16016 3.93555 9.37012 4.14062Q9.58008 4.3457 9.57031 4.6582L9.45312 9.98047Q9.44336 10.6348 8.84766 10.6348ZM8.84766 13.7305Q8.4668 13.7305 8.18848 13.4619Q7.91016 13.1934 7.91016 12.8223Q7.91016 12.4512 8.18359 12.1826Q8.45703 11.9141 8.84766 11.9141Q9.21875 11.9141 9.49707 12.1826Q9.77539 12.4512 9.77539 12.8223Q9.77539 13.1934 9.49707 13.4619Q9.21875 13.7305 8.84766 13.7305Z"
                     fill="#ffffff" />
       </g>
</svg>