<svg width="9.11133" height="18.5254">
       <g>
              <rect height="18.5254" opacity="0" width="9.11133" x="0" y="0" />
              <path d="M1.12305 13.2617Q1.42578 13.2617 1.61133 13.0811Q1.79688 12.9004 1.79688 12.5879L1.85547 0.771484Q1.85547 0.771484 1.85547 0.771484Q1.85547 0.771484 1.85547 0.771484Q1.85547 0.449219 1.64062 0.253906Q1.42578 0.0585938 1.12305 0.0585938Q0.820312 0.0585938 0.600586 0.253906Q0.380859 0.449219 0.380859 0.771484Q0.380859 0.771484 0.380859 0.771484Q0.380859 0.771484 0.380859 0.771484L0.449219 12.5879Q0.458984 12.9004 0.644531 13.0811Q0.830078 13.2617 1.12305 13.2617ZM1.12305 18.5254Q1.43555 18.5254 1.68457 18.374Q1.93359 18.2227 2.08496 17.9688Q2.23633 17.7148 2.23633 17.4023Q2.23633 17.0996 2.08496 16.8408Q1.93359 16.582 1.68457 16.4355Q1.43555 16.2891 1.12305 16.2891Q0.810547 16.2891 0.561523 16.4355Q0.3125 16.582 0.15625 16.8408Q0 17.0996 0 17.4023Q0 17.7148 0.15625 17.9688Q0.3125 18.2227 0.561523 18.374Q0.810547 18.5254 1.12305 18.5254ZM7.99805 13.2617Q8.30078 13.2617 8.48633 13.0811Q8.67188 12.9004 8.67188 12.5879L8.73047 0.771484Q8.73047 0.771484 8.73047 0.771484Q8.73047 0.771484 8.73047 0.771484Q8.73047 0.449219 8.51562 0.253906Q8.30078 0.0585938 7.99805 0.0585938Q7.69531 0.0585938 7.47559 0.253906Q7.25586 0.449219 7.25586 0.771484Q7.25586 0.771484 7.25586 0.771484Q7.25586 0.771484 7.25586 0.771484L7.32422 12.5879Q7.33398 12.9004 7.51953 13.0811Q7.70508 13.2617 7.99805 13.2617ZM7.99805 18.5254Q8.31055 18.5254 8.55957 18.374Q8.80859 18.2227 8.95996 17.9688Q9.11133 17.7148 9.11133 17.4023Q9.11133 17.0996 8.95996 16.8408Q8.80859 16.582 8.55957 16.4355Q8.31055 16.2891 7.99805 16.2891Q7.68555 16.2891 7.43652 16.4355Q7.1875 16.582 7.03125 16.8408Q6.875 17.0996 6.875 17.4023Q6.875 17.7148 7.03125 17.9688Q7.1875 18.2227 7.43652 18.374Q7.68555 18.5254 7.99805 18.5254Z"
                     fill="#ff453a" />
       </g>
</svg>