<svg width="23.9648" height="17.8223">
       <g>
              <rect height="17.8223" opacity="0" width="23.9648" x="0" y="0" />
              <path d="M18.9062 16.4453Q19.9707 16.4453 20.8936 16.0938Q21.8164 15.7422 22.5049 15.1123Q23.1934 14.4824 23.5791 13.6426Q23.9648 12.8027 23.9648 11.8457Q23.9648 10.8496 23.6084 9.9707Q23.252 9.0918 22.5732 8.41797Q21.8945 7.74414 20.9277 7.38281Q20.9473 5.78125 20.4395 4.43359Q19.9316 3.08594 18.9893 2.08984Q18.0469 1.09375 16.792 0.546875Q15.5371 0 14.0723 0Q12.7441 0 11.6895 0.43457Q10.6348 0.869141 9.83398 1.59668Q9.0332 2.32422 8.49609 3.20312Q7.61719 2.90039 6.74316 3.05664Q5.86914 3.21289 5.14648 3.74023Q4.42383 4.26758 3.98438 5.08301Q3.54492 5.89844 3.54492 6.9043Q2.4707 7.03125 1.66992 7.65137Q0.869141 8.27148 0.43457 9.23828Q0 10.2051 0 11.377Q0 12.4219 0.424805 13.3398Q0.849609 14.2578 1.61133 14.9512Q2.37305 15.6445 3.39844 16.04Q4.42383 16.4355 5.625 16.4355Z"
                     fill="rgba(255,255,255,0.55)" />
              <path d="M11.9922 10.4199Q11.3477 10.4199 11.3379 9.72656L11.2207 5.21484Q11.2109 4.88281 11.4258 4.67285Q11.6406 4.46289 11.9922 4.46289Q12.334 4.46289 12.5537 4.67773Q12.7734 4.89258 12.7734 5.22461L12.6465 9.72656Q12.627 10.4199 11.9922 10.4199ZM11.9922 13.7695Q11.6113 13.7695 11.3232 13.4961Q11.0352 13.2227 11.0352 12.8418Q11.0352 12.4414 11.3232 12.1729Q11.6113 11.9043 11.9922 11.9043Q12.373 11.9043 12.6562 12.1729Q12.9395 12.4414 12.9395 12.8418Q12.9395 13.2324 12.6514 13.501Q12.3633 13.7695 11.9922 13.7695Z"
                     fill="#ffffff" />
       </g>
</svg>