<svg width="17.6855" height="17.7051">
       <g>
              <rect height="17.7051" opacity="0" width="17.6855" x="0" y="0" />
              <path d="M2.88086 17.7051L14.8047 17.7051Q16.2305 17.7051 16.958 16.9873Q17.6855 16.2695 17.6855 14.8535L17.6855 2.88086Q17.6855 1.46484 16.958 0.742188Q16.2305 0.0195312 14.8047 0.0195312L2.88086 0.0195312Q1.44531 0.0195312 0.722656 0.737305Q0 1.45508 0 2.88086L0 14.8535Q0 16.2695 0.722656 16.9873Q1.44531 17.7051 2.88086 17.7051ZM2.90039 16.4941Q2.07031 16.4941 1.64062 16.0645Q1.21094 15.6348 1.21094 14.7949L1.21094 2.93945Q1.21094 2.08984 1.64062 1.66016Q2.07031 1.23047 2.90039 1.23047L14.7852 1.23047Q15.5859 1.23047 16.0303 1.66016Q16.4746 2.08984 16.4746 2.93945L16.4746 14.7949Q16.4746 15.6348 16.0303 16.0645Q15.5859 16.4941 14.7852 16.4941Z"
                     fill="#ff453a" />
              <path d="M8.84766 10.5957Q9.43359 10.5957 9.43359 9.96094L9.55078 4.73633Q9.56055 4.43359 9.36035 4.23828Q9.16016 4.04297 8.83789 4.04297Q8.51562 4.04297 8.32031 4.23828Q8.125 4.43359 8.13477 4.73633L8.23242 9.96094Q8.24219 10.5957 8.84766 10.5957ZM8.84766 13.623Q9.20898 13.623 9.48242 13.3643Q9.75586 13.1055 9.75586 12.7441Q9.75586 12.373 9.4873 12.1143Q9.21875 11.8555 8.84766 11.8555Q8.47656 11.8555 8.20801 12.1143Q7.93945 12.373 7.93945 12.7441Q7.93945 13.1055 8.20801 13.3643Q8.47656 13.623 8.84766 13.623Z"
                     fill="#ff453a" />
       </g>
</svg>