<svg width="2.23755" height="18.5196">
       <g>
              <rect height="18.5196" opacity="0" width="2.23755" x="0" y="0" />
              <path d="M1.12396 13.2597Q1.4238 13.2597 1.61194 13.0784Q1.80008 12.897 1.80008 12.5874L1.85776 0.768433Q1.85776 0.768433 1.85776 0.768433Q1.85776 0.768433 1.85776 0.768433Q1.85776 0.448456 1.6423 0.25322Q1.42685 0.0579834 1.1203 0.0579834Q0.817413 0.0579834 0.598679 0.25322Q0.379944 0.448456 0.379944 0.768433Q0.379944 0.768433 0.379944 0.768433Q0.379944 0.768433 0.379944 0.768433L0.45105 12.5874Q0.457764 12.897 0.644379 13.0784Q0.830994 13.2597 1.12396 13.2597ZM1.1203 18.5196Q1.43219 18.5196 1.68419 18.3688Q1.93619 18.2181 2.08687 17.9628Q2.23755 17.7075 2.23755 17.3993Q2.23755 17.0941 2.08687 16.8372Q1.93619 16.5804 1.68419 16.4311Q1.43219 16.2819 1.1203 16.2819Q0.812073 16.2819 0.56015 16.4311Q0.308228 16.5804 0.154114 16.8372Q0 17.0941 0 17.3993Q0 17.7075 0.154114 17.9628Q0.308228 18.2181 0.56015 18.3688Q0.812073 18.5196 1.1203 18.5196Z"
                     fill="#ff453a" />
       </g>
</svg>