<svg width="19.5898" height="19.5996">
       <g>
              <rect height="19.5996" opacity="0" width="19.5898" x="0" y="0" />
              <path d="M9.79492 19.5898Q11.8066 19.5898 13.5791 18.8232Q15.3516 18.0566 16.7041 16.7041Q18.0566 15.3516 18.8232 13.5791Q19.5898 11.8066 19.5898 9.79492Q19.5898 7.7832 18.8232 6.01074Q18.0566 4.23828 16.7041 2.88574Q15.3516 1.5332 13.5742 0.766602Q11.7969 0 9.78516 0Q7.77344 0 6.00098 0.766602Q4.22852 1.5332 2.88086 2.88574Q1.5332 4.23828 0.766602 6.01074Q0 7.7832 0 9.79492Q0 11.8066 0.766602 13.5791Q1.5332 15.3516 2.88574 16.7041Q4.23828 18.0566 6.01074 18.8232Q7.7832 19.5898 9.79492 19.5898ZM9.79492 18.3203Q8.02734 18.3203 6.47949 17.6611Q4.93164 17.002 3.75977 15.8301Q2.58789 14.6582 1.92871 13.1104Q1.26953 11.5625 1.26953 9.79492Q1.26953 8.02734 1.92871 6.47949Q2.58789 4.93164 3.75977 3.75488Q4.93164 2.57812 6.47461 1.91895Q8.01758 1.25977 9.78516 1.25977Q11.5625 1.25977 13.1104 1.91895Q14.6582 2.57812 15.8301 3.75488Q17.002 4.93164 17.666 6.47949Q18.3301 8.02734 18.3301 9.79492Q18.3301 11.5625 17.666 13.1104Q17.002 14.6582 15.8301 15.8301Q14.6582 17.002 13.1152 17.6611Q11.5723 18.3203 9.79492 18.3203Z"
                     fill="#ff453a" />
              <path d="M9.78516 11.543Q10.3711 11.543 10.3711 10.9082L10.4883 5.68359Q10.498 5.38086 10.2979 5.18555Q10.0977 4.99023 9.77539 4.99023Q9.45312 4.99023 9.25781 5.18555Q9.0625 5.38086 9.07227 5.68359L9.16992 10.9082Q9.17969 11.543 9.78516 11.543ZM9.78516 14.5703Q10.1465 14.5703 10.4199 14.3115Q10.6934 14.0527 10.6934 13.6914Q10.6934 13.3203 10.4248 13.0615Q10.1562 12.8027 9.78516 12.8027Q9.41406 12.8027 9.14551 13.0615Q8.87695 13.3203 8.87695 13.6914Q8.87695 14.0527 9.14551 14.3115Q9.41406 14.5703 9.78516 14.5703Z"
                     fill="#ff453a" />
       </g>
</svg>