<svg width="19.5898" height="19.5996">
       <g>
              <rect height="19.5996" opacity="0" width="19.5898" x="0" y="0" />
              <path d="M9.79492 19.5996Q11.8066 19.5996 13.5791 18.833Q15.3516 18.0664 16.7041 16.7139Q18.0566 15.3613 18.8232 13.5889Q19.5898 11.8164 19.5898 9.80469Q19.5898 7.79297 18.8232 6.02051Q18.0566 4.24805 16.7041 2.89551Q15.3516 1.54297 13.5742 0.776367Q11.7969 0.00976562 9.78516 0.00976562Q7.77344 0.00976562 6.00098 0.776367Q4.22852 1.54297 2.88086 2.89551Q1.5332 4.24805 0.766602 6.02051Q0 7.79297 0 9.80469Q0 11.8164 0.766602 13.5889Q1.5332 15.3613 2.88574 16.7139Q4.23828 18.0664 6.01074 18.833Q7.7832 19.5996 9.79492 19.5996Z"
                     fill="rgba(255,255,255,0.55)" />
              <path d="M7.13867 15.5273Q6.78711 15.5273 6.78711 15.1367L6.78711 13.6719L6.45508 13.6719Q5.43945 13.6719 4.87793 13.1055Q4.31641 12.5391 4.31641 11.5234L4.31641 7.4707Q4.31641 6.46484 4.87793 5.90332Q5.43945 5.3418 6.45508 5.3418L13.1348 5.3418Q14.1504 5.3418 14.7119 5.9082Q15.2734 6.47461 15.2734 7.4707L15.2734 11.5234Q15.2734 12.5391 14.7119 13.1055Q14.1504 13.6719 13.1348 13.6719L9.42383 13.6719L7.58789 15.3027Q7.33398 15.5273 7.13867 15.5273ZM9.79492 10.459Q10.1367 10.459 10.1367 10.0879L10.1953 7.34375Q10.1953 7.16797 10.0781 7.05078Q9.96094 6.93359 9.78516 6.93359Q9.60938 6.93359 9.49707 7.05078Q9.38477 7.16797 9.38477 7.34375L9.44336 10.0879Q9.45312 10.459 9.79492 10.459ZM9.79492 12.0508Q10 12.0508 10.1562 11.9092Q10.3125 11.7676 10.3125 11.5527Q10.3125 11.3379 10.1611 11.1914Q10.0098 11.0449 9.79492 11.0449Q9.58008 11.0449 9.42871 11.1963Q9.27734 11.3477 9.27734 11.5527Q9.27734 11.7676 9.43359 11.9092Q9.58984 12.0508 9.79492 12.0508Z"
                     fill="#ffffff" />
       </g>
</svg>