<svg width="17.6855" height="17.7051">
       <g>
              <rect height="17.7051" opacity="0" width="17.6855" x="0" y="0" />
              <path d="M2.88086 17.7051L14.8047 17.7051Q16.2305 17.7051 16.958 16.9873Q17.6855 16.2695 17.6855 14.8535L17.6855 2.88086Q17.6855 1.46484 16.958 0.742188Q16.2305 0.0195312 14.8047 0.0195312L2.88086 0.0195312Q1.44531 0.0195312 0.722656 0.737305Q0 1.45508 0 2.88086L0 14.8535Q0 16.2695 0.722656 16.9873Q1.44531 17.7051 2.88086 17.7051Z"
                     fill="rgba(255,255,255,0.55)" />
              <path d="M8.84766 13.0273Q7.68555 13.0273 6.6748 12.6953Q5.66406 12.3633 4.83887 11.8408Q4.01367 11.3184 3.42773 10.7373Q2.8418 10.1562 2.52441 9.64355Q2.20703 9.13086 2.20703 8.83789Q2.20703 8.54492 2.51953 8.03223Q2.83203 7.51953 3.41797 6.93848Q4.00391 6.35742 4.81934 5.83496Q5.63477 5.3125 6.65527 4.98047Q7.67578 4.64844 8.84766 4.64844Q10.0098 4.64844 11.0205 4.98047Q12.0312 5.3125 12.8516 5.83496Q13.6719 6.35742 14.2578 6.93848Q14.8438 7.51953 15.1611 8.03223Q15.4785 8.54492 15.4785 8.83789Q15.4785 9.13086 15.1611 9.64355Q14.8438 10.1562 14.2627 10.7373Q13.6816 11.3184 12.8613 11.8408Q12.041 12.3633 11.0254 12.6953Q10.0098 13.0273 8.84766 13.0273ZM8.84766 11.5918Q9.59961 11.5918 10.2295 11.2158Q10.8594 10.8398 11.2305 10.2148Q11.6016 9.58984 11.6016 8.83789Q11.6016 8.07617 11.2305 7.45117Q10.8594 6.82617 10.2295 6.45508Q9.59961 6.08398 8.84766 6.08398Q8.08594 6.08398 7.45605 6.45508Q6.82617 6.82617 6.45508 7.45117Q6.08398 8.07617 6.08398 8.83789Q6.08398 9.58984 6.45508 10.2148Q6.82617 10.8398 7.45605 11.2158Q8.08594 11.5918 8.84766 11.5918ZM8.85742 9.9707Q8.38867 9.9707 8.04688 9.62891Q7.70508 9.28711 7.70508 8.83789Q7.70508 8.38867 8.04688 8.04688Q8.38867 7.70508 8.85742 7.70508Q9.30664 7.70508 9.64844 8.04688Q9.99023 8.38867 9.99023 8.83789Q9.99023 9.28711 9.64844 9.62891Q9.30664 9.9707 8.85742 9.9707Z"
                     fill="#ffffff" />
       </g>
</svg>