<svg width="19.5898" height="19.5996">
       <g>
              <rect height="19.5996" opacity="0" width="19.5898" x="0" y="0" />
              <path d="M9.79492 19.5996Q11.8066 19.5996 13.5791 18.833Q15.3516 18.0664 16.7041 16.7139Q18.0566 15.3613 18.8232 13.5889Q19.5898 11.8164 19.5898 9.80469Q19.5898 7.79297 18.8232 6.02051Q18.0566 4.24805 16.7041 2.89551Q15.3516 1.54297 13.5742 0.776367Q11.7969 0.00976562 9.78516 0.00976562Q7.77344 0.00976562 6.00098 0.776367Q4.22852 1.54297 2.88086 2.89551Q1.5332 4.24805 0.766602 6.02051Q0 7.79297 0 9.80469Q0 11.8164 0.766602 13.5889Q1.5332 15.3613 2.88574 16.7139Q4.23828 18.0664 6.01074 18.833Q7.7832 19.5996 9.79492 19.5996Z"
                     fill="rgba(255,255,255,0.55)" />
              <path d="M9.79492 13.9941Q8.63281 13.9941 7.62207 13.6621Q6.61133 13.3301 5.78613 12.8076Q4.96094 12.2852 4.375 11.7041Q3.78906 11.123 3.47168 10.6104Q3.1543 10.0977 3.1543 9.80469Q3.1543 9.51172 3.4668 8.99902Q3.7793 8.48633 4.36523 7.90527Q4.95117 7.32422 5.7666 6.80176Q6.58203 6.2793 7.60254 5.94727Q8.62305 5.61523 9.79492 5.61523Q10.957 5.61523 11.9678 5.94727Q12.9785 6.2793 13.7988 6.80176Q14.6191 7.32422 15.2051 7.90527Q15.791 8.48633 16.1084 8.99902Q16.4258 9.51172 16.4258 9.80469Q16.4258 10.0977 16.1084 10.6104Q15.791 11.123 15.21 11.7041Q14.6289 12.2852 13.8086 12.8076Q12.9883 13.3301 11.9727 13.6621Q10.957 13.9941 9.79492 13.9941ZM9.79492 12.5586Q10.5469 12.5586 11.1768 12.1826Q11.8066 11.8066 12.1777 11.1816Q12.5488 10.5566 12.5488 9.80469Q12.5488 9.04297 12.1777 8.41797Q11.8066 7.79297 11.1768 7.42188Q10.5469 7.05078 9.79492 7.05078Q9.0332 7.05078 8.40332 7.42188Q7.77344 7.79297 7.40234 8.41797Q7.03125 9.04297 7.03125 9.80469Q7.03125 10.5566 7.40234 11.1816Q7.77344 11.8066 8.40332 12.1826Q9.0332 12.5586 9.79492 12.5586ZM9.80469 10.9375Q9.33594 10.9375 8.99414 10.5957Q8.65234 10.2539 8.65234 9.80469Q8.65234 9.35547 8.99414 9.01367Q9.33594 8.67188 9.80469 8.67188Q10.2539 8.67188 10.5957 9.01367Q10.9375 9.35547 10.9375 9.80469Q10.9375 10.2539 10.5957 10.5957Q10.2539 10.9375 9.80469 10.9375Z"
                     fill="#ffffff" />
       </g>
</svg>