<svg width="19.5898" height="19.5996">
       <g>
              <rect height="19.5996" opacity="0" width="19.5898" x="0" y="0" />
              <path d="M9.79492 19.5996Q11.8066 19.5996 13.5791 18.833Q15.3516 18.0664 16.7041 16.7139Q18.0566 15.3613 18.8232 13.5889Q19.5898 11.8164 19.5898 9.80469Q19.5898 7.79297 18.8232 6.02051Q18.0566 4.24805 16.7041 2.89551Q15.3516 1.54297 13.5742 0.776367Q11.7969 0.00976562 9.78516 0.00976562Q7.77344 0.00976562 6.00098 0.776367Q4.22852 1.54297 2.88086 2.89551Q1.5332 4.24805 0.766602 6.02051Q0 7.79297 0 9.80469Q0 11.8164 0.766602 13.5889Q1.5332 15.3613 2.88574 16.7139Q4.23828 18.0664 6.01074 18.833Q7.7832 19.5996 9.79492 19.5996Z"
                     fill="rgba(255,255,255,0.55)" />
              <path d="M12.2949 13.75Q11.7285 13.9453 11.0986 14.0723Q10.4688 14.1992 9.79492 14.1992Q8.57422 14.1992 7.51465 13.8525Q6.45508 13.5059 5.60059 12.9541Q4.74609 12.4023 4.12598 11.7969Q3.50586 11.1914 3.17383 10.6543Q2.8418 10.1172 2.8418 9.80469Q2.8418 9.51172 3.14453 9.00391Q3.44727 8.49609 4.00879 7.91992Q4.57031 7.34375 5.35156 6.80664L7.16797 8.63281Q6.89453 9.16992 6.89453 9.80469Q6.89453 10.5859 7.28516 11.2402Q7.67578 11.8945 8.33008 12.29Q8.98438 12.6855 9.79492 12.6855Q10.1074 12.6855 10.4004 12.6074Q10.6934 12.5293 10.957 12.4023ZM9.6875 11.1426Q9.14062 11.1719 8.76953 10.7764Q8.39844 10.3809 8.4375 9.89258ZM12.4121 10.9473Q12.6758 10.4102 12.6758 9.80469Q12.6758 9.00391 12.2852 8.34961Q11.8945 7.69531 11.2402 7.30957Q10.5859 6.92383 9.79492 6.92383Q9.49219 6.92383 9.19922 6.99219Q8.90625 7.06055 8.64258 7.17773L7.32422 5.84961Q7.88086 5.64453 8.50586 5.53223Q9.13086 5.41992 9.79492 5.41992Q11.0059 5.41992 12.0654 5.7666Q13.125 6.11328 13.9844 6.66016Q14.8438 7.20703 15.459 7.81738Q16.0742 8.42773 16.4062 8.95996Q16.7383 9.49219 16.7383 9.80469Q16.7383 10.0977 16.4355 10.6006Q16.1328 11.1035 15.5762 11.6797Q15.0195 12.2559 14.2383 12.7832ZM9.91211 8.44727Q10.4492 8.42773 10.8105 8.81348Q11.1719 9.19922 11.1523 9.67773ZM14.6289 15.1953L4.375 4.94141Q4.26758 4.83398 4.26758 4.67285Q4.26758 4.51172 4.375 4.39453Q4.50195 4.27734 4.66309 4.27734Q4.82422 4.27734 4.94141 4.39453L15.1758 14.6387Q15.293 14.7559 15.293 14.9121Q15.293 15.0684 15.1758 15.1953Q15.0684 15.3027 14.9023 15.2979Q14.7363 15.293 14.6289 15.1953Z"
                     fill="#ffffff" />
       </g>
</svg>