<svg width="19.5898" height="19.5996">
       <g>
              <rect height="19.5996" opacity="0" width="19.5898" x="0" y="0" />
              <path d="M9.79492 19.5996Q11.8066 19.5996 13.5791 18.833Q15.3516 18.0664 16.7041 16.7139Q18.0566 15.3613 18.8232 13.5889Q19.5898 11.8164 19.5898 9.80469Q19.5898 7.79297 18.8232 6.02051Q18.0566 4.24805 16.7041 2.89551Q15.3516 1.54297 13.5742 0.776367Q11.7969 0.00976562 9.78516 0.00976562Q7.77344 0.00976562 6.00098 0.776367Q4.22852 1.54297 2.88086 2.89551Q1.5332 4.24805 0.766602 6.02051Q0 7.79297 0 9.80469Q0 11.8164 0.766602 13.5889Q1.5332 15.3613 2.88574 16.7139Q4.23828 18.0664 6.01074 18.833Q7.7832 19.5996 9.79492 19.5996Z"
                     fill="rgba(255,255,255,0.55)" />
              <path d="M7.59766 14.3359Q7.29492 14.3359 7.13379 14.1455Q6.97266 13.9551 6.97266 13.6426L6.97266 5.95703Q6.97266 5.64453 7.12891 5.44922Q7.28516 5.25391 7.57812 5.25391L12.373 5.25391Q12.6074 5.25391 12.7539 5.39551Q12.9004 5.53711 12.9004 5.77148Q12.9004 6.00586 12.7539 6.15234Q12.6074 6.29883 12.373 6.29883L8.21289 6.29883L8.21289 9.27734L11.9922 9.27734Q12.2266 9.27734 12.373 9.40918Q12.5195 9.54102 12.5195 9.78516Q12.5195 10.0195 12.373 10.1465Q12.2266 10.2734 11.9922 10.2734L8.21289 10.2734L8.21289 13.6426Q8.21289 13.9648 8.05664 14.1504Q7.90039 14.3359 7.59766 14.3359Z"
                     fill="#ffffff" />
       </g>
</svg>