<svg width="19.5898" height="19.5996">
       <g>
              <rect height="19.5996" opacity="0" width="19.5898" x="0" y="0" />
              <path d="M9.79492 19.5898Q11.8066 19.5898 13.5791 18.8232Q15.3516 18.0566 16.7041 16.7041Q18.0566 15.3516 18.8232 13.5791Q19.5898 11.8066 19.5898 9.79492Q19.5898 7.7832 18.8232 6.01074Q18.0566 4.23828 16.7041 2.88574Q15.3516 1.5332 13.5742 0.766602Q11.7969 0 9.78516 0Q7.77344 0 6.00098 0.766602Q4.22852 1.5332 2.88086 2.88574Q1.5332 4.23828 0.766602 6.01074Q0 7.7832 0 9.79492Q0 11.8066 0.766602 13.5791Q1.5332 15.3516 2.88574 16.7041Q4.23828 18.0566 6.01074 18.8232Q7.7832 19.5898 9.79492 19.5898Z"
                     fill="rgba(255,255,255,0.55)" />
              <path d="M5.72266 14.7559Q5.72266 14.5312 5.85938 14.3848Q5.99609 14.2383 6.24023 14.2383Q6.45508 14.2383 6.64551 14.2871Q6.83594 14.3359 7.29492 14.3359Q7.95898 14.3359 8.32031 13.9404Q8.68164 13.5449 8.80859 12.6855L9.20898 9.90234L6.9043 9.90234Q6.65039 9.90234 6.48438 9.74121Q6.31836 9.58008 6.31836 9.3457Q6.31836 9.10156 6.48438 8.94043Q6.65039 8.7793 6.89453 8.7793L9.375 8.7793L9.66797 6.67969Q9.85352 5.41992 10.5469 4.76074Q11.2402 4.10156 12.3828 4.10156Q13.0859 4.10156 13.4814 4.27734Q13.877 4.45312 13.877 4.78516Q13.877 5.01953 13.7305 5.16113Q13.584 5.30273 13.3594 5.30273Q13.1836 5.30273 12.9736 5.26367Q12.7637 5.22461 12.2949 5.22461Q11.6406 5.22461 11.2744 5.62012Q10.9082 6.01562 10.791 6.88477L10.5176 8.7793L13.2031 8.7793Q13.457 8.7793 13.6279 8.94043Q13.7988 9.10156 13.7988 9.3457Q13.7988 9.58008 13.6328 9.74121Q13.4668 9.90234 13.2129 9.90234L10.3516 9.90234L9.92188 12.8809Q9.74609 14.1406 9.05273 14.7949Q8.35938 15.4492 7.20703 15.4492Q6.47461 15.4492 6.09863 15.2686Q5.72266 15.0879 5.72266 14.7559Z"
                     fill="#ffffff" />
       </g>
</svg>