<svg width="17.6855" height="17.7051">
       <g>
              <rect height="17.7051" opacity="0" width="17.6855" x="0" y="0" />
              <path d="M2.88086 17.7051L14.8047 17.7051Q16.2305 17.7051 16.958 16.9873Q17.6855 16.2695 17.6855 14.8535L17.6855 2.88086Q17.6855 1.46484 16.958 0.742188Q16.2305 0.0195312 14.8047 0.0195312L2.88086 0.0195312Q1.44531 0.0195312 0.722656 0.737305Q0 1.45508 0 2.88086L0 14.8535Q0 16.2695 0.722656 16.9873Q1.44531 17.7051 2.88086 17.7051Z"
                     fill="rgba(255,255,255,0.55)" />
              <path d="M6.65039 13.3789Q6.34766 13.3789 6.18652 13.1885Q6.02539 12.998 6.02539 12.6855L6.02539 5Q6.02539 4.6875 6.18164 4.49219Q6.33789 4.29688 6.63086 4.29688L11.4258 4.29688Q11.6602 4.29688 11.8066 4.43848Q11.9531 4.58008 11.9531 4.81445Q11.9531 5.04883 11.8066 5.19531Q11.6602 5.3418 11.4258 5.3418L7.26562 5.3418L7.26562 8.32031L11.0449 8.32031Q11.2793 8.32031 11.4258 8.45215Q11.5723 8.58398 11.5723 8.82812Q11.5723 9.0625 11.4258 9.18945Q11.2793 9.31641 11.0449 9.31641L7.26562 9.31641L7.26562 12.6855Q7.26562 13.0078 7.10938 13.1934Q6.95312 13.3789 6.65039 13.3789Z"
                     fill="#ffffff" />
       </g>
</svg>