<svg width="28.9272" height="14.3921">
       <g>
              <rect height="14.3921" opacity="0" width="28.9272" x="0" y="0" />
              <path d="M9.57764 5.17059Q9.57764 5.42023 9.75418 5.60013Q9.93073 5.78003 10.1773 5.78003L18.7665 5.78003Q19.0131 5.78003 19.1911 5.60013Q19.369 5.42023 19.369 5.17059Q19.369 4.93378 19.1911 4.75243Q19.0131 4.57108 18.7665 4.57108L10.1773 4.57108Q9.93073 4.57108 9.75418 4.75243Q9.57764 4.93378 9.57764 5.17059ZM9.57764 8.71094Q9.57764 8.95447 9.75418 9.13254Q9.93073 9.31061 10.1773 9.30756L18.7665 9.30756Q19.0131 9.31061 19.1911 9.13254Q19.369 8.95447 19.369 8.71094Q19.369 8.4613 19.1911 8.27995Q19.0131 8.0986 18.7665 8.0986L10.1773 8.0986Q9.93073 8.0986 9.75418 8.27995Q9.57764 8.4613 9.57764 8.71094ZM0 6.08902Q0 7.60071 0.682602 8.75076Q1.3652 9.90082 2.59338 10.5463Q3.82156 11.1917 5.46768 11.1917L5.92377 11.1917L5.92377 9.98566L5.31143 9.98566Q4.10248 9.98566 3.1768 9.48563Q2.25113 8.9856 1.73004 8.10387Q1.20895 7.22214 1.20895 6.08902Q1.20895 5.224 1.67885 4.70985Q2.14874 4.19571 2.98141 4.19571L5.64148 4.19571L5.64148 2.9866L2.98141 2.9866Q2.04758 2.9866 1.38008 3.36433Q0.712585 3.74207 0.356293 4.43733Q0 5.1326 0 6.08902ZM28.9272 6.08902Q28.9272 5.1326 28.5693 4.43733Q28.2115 3.74207 27.5455 3.36433Q26.8796 2.9866 25.9457 2.9866L23.2857 2.9866L23.2857 4.19571L25.9457 4.19571Q26.7784 4.19571 27.2483 4.70985Q27.7182 5.224 27.7182 6.08902Q27.7182 7.22214 27.1971 8.10387Q26.676 8.9856 25.7537 9.48563Q24.8314 9.98566 23.6157 9.98566L23.0034 9.98566L23.0034 11.1917L23.4662 11.1917Q25.1025 11.1917 26.3322 10.5463Q27.562 9.90082 28.2446 8.75076Q28.9272 7.60071 28.9272 6.08902Z"
                     fill="rgba(255,255,255,0.55)" />
              <path d="M14.4655 14.375Q16.588 14.375 18.3466 13.9928Q20.1051 13.6105 21.3912 12.905Q22.6773 12.1994 23.3776 11.2195Q24.0779 10.2396 24.0779 9.05075L24.0779 4.38889Q24.0779 3.00278 22.9365 2.0208Q21.795 1.03882 19.6471 0.519409Q17.4991 0 14.4655 0Q11.4319 0 9.28047 0.519409Q7.12906 1.03882 5.9877 2.0208Q4.84634 3.00278 4.84634 4.38889L4.84634 9.05075Q4.84634 10.2396 5.54512 11.2195Q6.2439 12.1994 7.52998 12.905Q8.81607 13.6105 10.5776 13.9928Q12.3392 14.375 14.4655 14.375ZM14.4655 13.1659Q12.6157 13.1659 11.0771 12.8635Q9.53857 12.5612 8.414 12.0086Q7.28943 11.456 6.67725 10.7008Q6.06506 9.94568 6.06506 9.05075L6.06506 4.38889Q6.06506 3.38654 7.06177 2.67586Q8.05847 1.96518 9.93851 1.58554Q11.8185 1.2059 14.4655 1.2059Q17.1086 1.2059 18.9902 1.58554Q20.8717 1.96518 21.8733 2.67586Q22.8749 3.38654 22.8749 4.38889L22.8749 9.05075Q22.8749 9.94568 22.2578 10.7008Q21.6408 11.456 20.5162 12.0086Q19.3916 12.5612 17.8516 12.8635Q16.3115 13.1659 14.4655 13.1659Z"
                     fill="rgba(255,255,255,0.55)" />
       </g>
</svg>