<svg width="18.6914" height="18.7012">
       <g>
              <rect height="18.7012" opacity="0" width="18.6914" x="0" y="0" />
              <path d="M0.595703 5.99609Q1.21094 5.99609 1.21094 5.38086L1.21094 2.93945Q1.21094 2.08984 1.64062 1.66016Q2.07031 1.23047 2.90039 1.23047L5.38086 1.23047Q5.99609 1.23047 5.99609 0.625Q5.99609 0.0195312 5.38086 0.0195312L2.88086 0.0195312Q1.44531 0.0195312 0.722656 0.737305Q0 1.45508 0 2.87109L0 5.38086Q0 5.99609 0.595703 5.99609ZM18.0859 5.99609Q18.6914 5.99609 18.6914 5.38086L18.6914 2.87109Q18.6914 1.46484 17.9639 0.742188Q17.2363 0.0195312 15.8105 0.0195312L13.3008 0.0195312Q12.6855 0.0195312 12.6855 0.625Q12.6855 1.23047 13.3008 1.23047L15.7812 1.23047Q16.5918 1.23047 17.0361 1.66016Q17.4805 2.08984 17.4805 2.93945L17.4805 5.38086Q17.4805 5.99609 18.0859 5.99609ZM2.88086 18.7012L5.38086 18.7012Q5.99609 18.7012 5.99609 18.1055Q5.99609 17.5 5.38086 17.5L2.90039 17.5Q2.07031 17.5 1.64062 17.0703Q1.21094 16.6406 1.21094 15.791L1.21094 13.3496Q1.21094 12.7344 0.595703 12.7344Q0 12.7344 0 13.3496L0 15.8496Q0 17.2656 0.722656 17.9834Q1.44531 18.7012 2.88086 18.7012ZM13.3008 18.7012L15.8105 18.7012Q17.2363 18.7012 17.9639 17.9834Q18.6914 17.2656 18.6914 15.8496L18.6914 13.3496Q18.6914 12.7344 18.0859 12.7344Q17.4805 12.7344 17.4805 13.3496L17.4805 15.791Q17.4805 16.6406 17.0361 17.0703Q16.5918 17.5 15.7812 17.5L13.3008 17.5Q12.6855 17.5 12.6855 18.1055Q12.6855 18.7012 13.3008 18.7012Z"
                     fill="rgba(50,215,75,0.5)" />
              <path d="M5.71289 8.59375Q6.00586 8.59375 6.18652 8.41309Q6.36719 8.23242 6.36719 7.92969L6.36719 6.61133Q6.36719 6.31836 6.18652 6.1377Q6.00586 5.95703 5.71289 5.95703Q5.42969 5.95703 5.24902 6.1377Q5.06836 6.31836 5.06836 6.61133L5.06836 7.92969Q5.06836 8.23242 5.24902 8.41309Q5.42969 8.59375 5.71289 8.59375ZM8.55469 10.8691Q8.57422 10.8691 8.59863 10.8691Q8.62305 10.8691 8.64258 10.8691Q9.32617 10.8691 9.67285 10.5176Q10.0195 10.166 10.0195 9.48242L10.0195 6.44531Q10.0195 6.21094 9.8877 6.0791Q9.75586 5.94727 9.52148 5.94727Q9.28711 5.94727 9.15039 6.0791Q9.01367 6.21094 9.01367 6.44531L9.01367 9.57031Q9.01367 9.70703 8.93066 9.77539Q8.84766 9.84375 8.74023 9.84375L8.4082 9.84375Q8.19336 9.84375 8.05176 9.98535Q7.91016 10.127 7.91016 10.3418Q7.91016 10.5859 8.07617 10.7275Q8.24219 10.8691 8.55469 10.8691ZM12.9199 8.59375Q13.2031 8.59375 13.3838 8.41309Q13.5645 8.23242 13.5645 7.92969L13.5645 6.61133Q13.5645 6.31836 13.3838 6.1377Q13.2031 5.95703 12.9199 5.95703Q12.627 5.95703 12.4463 6.1377Q12.2656 6.31836 12.2656 6.61133L12.2656 7.92969Q12.2656 8.23242 12.4463 8.41309Q12.627 8.59375 12.9199 8.59375ZM9.27734 14.0234Q10.127 14.0234 10.9424 13.6816Q11.7578 13.3398 12.3828 12.7148Q12.4512 12.6465 12.4902 12.5537Q12.5293 12.4609 12.5293 12.334Q12.5293 12.1191 12.3828 11.9775Q12.2363 11.8359 12.0312 11.8359Q11.8066 11.8359 11.6016 12.0508Q11.1816 12.4902 10.5664 12.7539Q9.95117 13.0176 9.27734 13.0176Q8.63281 13.0176 8.0127 12.7539Q7.39258 12.4902 6.96289 12.0508Q6.85547 11.9531 6.75781 11.8945Q6.66016 11.8359 6.52344 11.8359Q6.30859 11.8359 6.16211 11.9775Q6.01562 12.1191 6.01562 12.334Q6.01562 12.4414 6.05957 12.5342Q6.10352 12.627 6.18164 12.7051Q6.76758 13.3496 7.59766 13.6865Q8.42773 14.0234 9.27734 14.0234Z"
                     fill="#32d74b" />
       </g>
</svg>