<svg width="19.5898" height="19.5996">
       <g>
              <rect height="19.5996" opacity="0" width="19.5898" x="0" y="0" />
              <path d="M9.79492 19.5898Q11.8066 19.5898 13.5791 18.8232Q15.3516 18.0566 16.7041 16.7041Q18.0566 15.3516 18.8232 13.5791Q19.5898 11.8066 19.5898 9.79492Q19.5898 7.7832 18.8232 6.01074Q18.0566 4.23828 16.7041 2.88574Q15.3516 1.5332 13.5742 0.766602Q11.7969 0 9.78516 0Q7.77344 0 6.00098 0.766602Q4.22852 1.5332 2.88086 2.88574Q1.5332 4.23828 0.766602 6.01074Q0 7.7832 0 9.79492Q0 11.8066 0.766602 13.5791Q1.5332 15.3516 2.88574 16.7041Q4.23828 18.0566 6.01074 18.8232Q7.7832 19.5898 9.79492 19.5898Z"
                     fill="rgba(255,255,255,0.55)" />
              <path d="M9.79492 14.6973Q8.78906 14.6973 8.02734 14.3262Q7.26562 13.9551 6.83594 13.4814Q6.40625 13.0078 6.40625 12.6953Q6.40625 12.5488 6.52344 12.5Q6.64062 12.4512 6.75781 12.5098Q7.27539 12.8418 7.99805 13.1299Q8.7207 13.418 9.79492 13.418Q10.8691 13.418 11.5967 13.1348Q12.3242 12.8516 12.8223 12.5098Q12.9395 12.4512 13.0615 12.5Q13.1836 12.5488 13.1836 12.6953Q13.1836 13.0078 12.7539 13.4814Q12.3242 13.9551 11.5625 14.3262Q10.8008 14.6973 9.79492 14.6973ZM6.81641 8.85742Q6.38672 8.85742 6.05469 8.49121Q5.72266 8.125 5.72266 7.56836Q5.72266 7.00195 6.0498 6.62598Q6.37695 6.25 6.81641 6.25Q7.26562 6.25 7.60254 6.62598Q7.93945 7.00195 7.93945 7.56836Q7.93945 8.125 7.59766 8.49121Q7.25586 8.85742 6.81641 8.85742ZM12.7637 8.85742Q12.334 8.85742 11.9971 8.49121Q11.6602 8.125 11.6602 7.56836Q11.6602 7.00195 11.9922 6.62598Q12.3242 6.25 12.7637 6.25Q13.2129 6.25 13.5449 6.62598Q13.877 7.00195 13.877 7.56836Q13.877 8.125 13.54 8.49121Q13.2031 8.85742 12.7637 8.85742Z"
                     fill="#ffffff" />
       </g>
</svg>