<svg width="28.9272" height="14.3921">
       <g>
              <rect height="14.3921" opacity="0" width="28.9272" x="0" y="0" />
              <path d="M0 6.08902Q0 7.60071 0.682602 8.75076Q1.3652 9.90082 2.59338 10.5463Q3.82156 11.1917 5.46768 11.1917L5.92377 11.1917L5.92377 9.98566L5.31143 9.98566Q4.10248 9.98566 3.1768 9.48563Q2.25113 8.9856 1.73004 8.10387Q1.20895 7.22214 1.20895 6.08902Q1.20895 5.224 1.67885 4.70985Q2.14874 4.19571 2.98141 4.19571L5.64148 4.19571L5.64148 2.9866L2.98141 2.9866Q2.04758 2.9866 1.38008 3.36433Q0.712585 3.74207 0.356293 4.43733Q0 5.1326 0 6.08902ZM28.9272 6.08902Q28.9272 5.1326 28.5693 4.43733Q28.2115 3.74207 27.5455 3.36433Q26.8796 2.9866 25.9457 2.9866L23.2857 2.9866L23.2857 4.19571L25.9457 4.19571Q26.7784 4.19571 27.2483 4.70985Q27.7182 5.224 27.7182 6.08902Q27.7182 7.22214 27.1971 8.10387Q26.676 8.9856 25.7537 9.48563Q24.8314 9.98566 23.6157 9.98566L23.0034 9.98566L23.0034 11.1917L23.4662 11.1917Q25.1025 11.1917 26.3322 10.5463Q27.562 9.90082 28.2446 8.75076Q28.9272 7.60071 28.9272 6.08902Z"
                     fill="rgba(255,255,255,0.55)" />
              <path d="M14.4655 14.375Q16.588 14.375 18.3466 13.9928Q20.1051 13.6105 21.3912 12.905Q22.6773 12.1994 23.3776 11.2195Q24.0779 10.2396 24.0779 9.05075L24.0779 4.38889Q24.0779 3.00278 22.9365 2.0208Q21.795 1.03882 19.6471 0.519409Q17.4991 0 14.4655 0Q11.4319 0 9.28047 0.519409Q7.12906 1.03882 5.9877 2.0208Q4.84634 3.00278 4.84634 4.38889L4.84634 9.05075Q4.84634 10.2396 5.54512 11.2195Q6.2439 12.1994 7.52998 12.905Q8.81607 13.6105 10.5776 13.9928Q12.3392 14.375 14.4655 14.375Z"
                     fill="rgba(255,255,255,0.55)" />
              <path d="M9.46915 5.13321Q9.46915 4.88297 9.65088 4.69818Q9.83261 4.5134 10.089 4.5134L18.848 4.5134Q19.111 4.5134 19.2958 4.69818Q19.4806 4.88297 19.4806 5.13321Q19.4806 5.39337 19.2958 5.57663Q19.111 5.75989 18.848 5.75989L10.089 5.75989Q9.83261 5.75989 9.65088 5.57663Q9.46915 5.39337 9.46915 5.13321ZM9.46915 8.74832Q9.46915 8.48831 9.65088 8.30353Q9.83261 8.11874 10.089 8.11874L18.848 8.11874Q19.111 8.11874 19.2958 8.30353Q19.4806 8.48831 19.4806 8.74832Q19.4806 8.99872 19.2958 9.1835Q19.111 9.36829 18.848 9.36523L10.089 9.36523Q9.83261 9.36829 9.65088 9.1835Q9.46915 8.99872 9.46915 8.74832Z"
                     fill="#ffffff" />
       </g>
</svg>