<svg width="15.3929" height="21.8481">
       <g>
              <rect height="21.8481" opacity="0" width="15.3929" x="0" y="0" />
              <path d="M3.54752 21.8451L11.8423 21.8451Q12.0613 21.8451 12.1907 21.7056Q12.3201 21.5662 12.3201 21.3368Q12.3201 20.9109 11.9958 20.6245Q11.6716 20.338 11.1115 20.338L8.30917 20.338L8.30917 15.3592Q9.79584 15.246 11.0839 14.6065Q12.372 13.967 13.3411 12.9248Q14.3103 11.8826 14.8516 10.5462Q15.3929 9.20975 15.3929 7.69989Q15.3929 6.10977 14.795 4.71344Q14.1971 3.31711 13.1364 2.25983Q12.0758 1.20255 10.6795 0.601273Q9.28314 0 7.68997 0Q6.09985 0 4.70688 0.597916Q3.3139 1.19583 2.25487 2.25494Q1.19583 3.31406 0.597916 4.71191Q0 6.10977 0 7.69989Q0 9.21951 0.544662 10.556Q1.08932 11.8924 2.06001 12.9346Q3.0307 13.9767 4.32205 14.6148Q5.6134 15.2528 7.10022 15.3659L7.10022 20.338L4.2717 20.338Q3.7085 20.338 3.38425 20.6245Q3.06 20.9109 3.06 21.3368Q3.06 21.5662 3.19427 21.7056Q3.32855 21.8451 3.54752 21.8451Z"
                     fill="rgba(255,255,255,0.55)" />
              <path d="M5.16479 12.7237Q4.42978 12.7237 3.76137 12.2492Q3.09296 11.7747 2.66396 11.0226Q2.23495 10.2705 2.23495 9.43573Q2.23495 8.78525 2.58835 8.44833Q2.94174 8.11142 3.61801 8.11142L5.58929 8.11142Q5.56976 8.01376 5.55855 7.86407Q5.54733 7.71439 5.55328 7.61002Q4.13879 7.18536 3.41446 6.63345Q2.69012 6.08154 2.69012 5.18509Q2.69012 4.45374 3.17284 3.78197Q3.65555 3.1102 4.40918 2.67967Q5.16281 2.24915 6.00052 2.24915Q6.65115 2.24915 6.98502 2.60445Q7.31888 2.95975 7.31888 3.62915L7.31888 5.56992Q7.43851 5.54062 7.58362 5.53726Q7.72873 5.53391 7.83081 5.5368Q8.24203 4.14246 8.79883 3.43163Q9.35562 2.72079 10.2385 2.72079Q10.9698 2.72079 11.6416 3.19527Q12.3134 3.66974 12.7375 4.42184Q13.1616 5.17395 13.1616 6.00204Q13.1616 6.66229 12.8146 6.99776Q12.4677 7.33322 11.7914 7.33322L9.83719 7.33322Q9.85306 7.44431 9.85947 7.59026Q9.86588 7.73621 9.85611 7.84119Q11.2675 8.26233 11.9885 8.81271Q12.7095 9.3631 12.7095 10.2661Q12.7095 10.9975 12.2301 11.6708Q11.7508 12.3441 10.9953 12.7697Q10.2399 13.1953 9.40872 13.1953Q8.75824 13.1953 8.42285 12.8468Q8.08746 12.4983 8.08746 11.8221L8.08746 9.80728Q7.97089 9.84268 7.85927 9.84451Q7.74765 9.84634 7.6062 9.83658Q7.18079 11.2714 6.62254 11.9975Q6.0643 12.7237 5.16479 12.7237ZM7.69684 8.93097Q8.19885 8.93097 8.55286 8.57841Q8.90686 8.22586 8.90686 7.73361Q8.90686 7.22168 8.55286 6.86768Q8.19885 6.51367 7.69684 6.51367Q7.19467 6.51367 6.84364 6.86768Q6.49261 7.22168 6.49261 7.73361Q6.49261 8.22586 6.84364 8.57841Q7.19467 8.93097 7.69684 8.93097Z"
                     fill="#ffffff" />
       </g>
</svg>