<svg width="19.176" height="21.8481">
       <g>
              <rect height="21.8481" opacity="0" width="19.176" x="0" y="0" />
              <path d="M4.74945 21.8451L14.4296 21.8451Q14.6486 21.8451 14.7813 21.7056Q14.9139 21.5662 14.9139 21.3368Q14.9139 20.9109 14.5912 20.6245Q14.2685 20.338 13.7054 20.338L10.1955 20.338L10.1955 19.1559Q12.0763 19.0427 13.7054 18.2571Q15.3346 17.4716 16.5646 16.1716Q17.7946 14.8715 18.4853 13.1891Q19.176 11.5067 19.176 9.5929Q19.176 7.60574 18.4321 5.86823Q17.6881 4.13071 16.3683 2.81265Q15.0484 1.4946 13.3109 0.747299Q11.5733 0 9.58984 0Q7.60269 0 5.86517 0.743942Q4.12766 1.48788 2.80769 2.80777Q1.48773 4.12766 0.743866 5.8667Q0 7.60574 0 9.5929Q0 11.5067 0.690689 13.1891Q1.38138 14.8715 2.61131 16.1731Q3.84125 17.4747 5.47539 18.2602Q7.10953 19.0457 8.98651 19.1559L8.98651 20.338L5.4834 20.338Q4.9202 20.338 4.59602 20.6245Q4.27185 20.9109 4.27185 21.3368Q4.27185 21.5662 4.40269 21.7056Q4.53354 21.8451 4.74945 21.8451Z"
                     fill="rgba(255,255,255,0.55)" />
              <path d="M6.38306 15.9567Q5.68558 15.9567 5.02632 15.6067Q4.36707 15.2567 3.8385 14.6629Q3.30994 14.0691 2.99744 13.3272Q2.68494 12.5853 2.68494 11.8018Q2.68494 10.9673 3.13034 10.5451Q3.57574 10.123 4.43207 10.123L6.91727 10.123Q6.88797 9.98932 6.87332 9.80392Q6.85867 9.61853 6.86478 9.48486Q5.09125 8.94699 4.17397 8.24982Q3.25668 7.55264 3.25668 6.41739Q3.25668 5.72006 3.60825 5.06073Q3.95981 4.4014 4.55704 3.87138Q5.15427 3.34137 5.8976 3.02887Q6.64093 2.71637 7.42142 2.71637Q8.25897 2.71637 8.68111 3.15681Q9.10324 3.59726 9.10324 4.46045L9.10324 6.89484Q9.25583 6.86172 9.44 6.85684Q9.62418 6.85196 9.73969 6.85501Q10.2798 5.08896 10.9756 4.18999Q11.6713 3.29102 12.8027 3.29102Q13.4964 3.29102 14.1542 3.64258Q14.812 3.99414 15.3405 4.58649Q15.869 5.17883 16.1849 5.92072Q16.5009 6.6626 16.5009 7.44614Q16.5009 8.28369 16.057 8.7043Q15.6131 9.12491 14.7501 9.12491L12.2954 9.12491Q12.318 9.27872 12.3259 9.45366Q12.3338 9.6286 12.321 9.76974Q14.0976 10.3136 15.01 11.0078Q15.9224 11.702 15.9224 12.8372Q15.9224 13.5309 15.5708 14.1901Q15.2193 14.8494 14.6254 15.3813Q14.0315 15.9132 13.2897 16.2273Q12.5479 16.5413 11.7642 16.5413Q10.9268 16.5413 10.5062 16.0959Q10.0856 15.6505 10.0856 14.7874L10.0856 12.2789Q9.93668 12.3076 9.79881 12.3143Q9.66095 12.321 9.48044 12.3112Q8.92914 14.1148 8.22365 15.0358Q7.51816 15.9567 6.38306 15.9567ZM9.58984 11.144Q10.2188 11.144 10.6641 10.7017Q11.1095 10.2594 11.1095 9.63333Q11.1095 9.00436 10.6641 8.55415Q10.2188 8.10394 9.58984 8.10394Q8.95416 8.10394 8.51189 8.55415Q8.06961 9.00436 8.06961 9.63333Q8.06961 10.2594 8.51677 10.7017Q8.96393 11.144 9.58984 11.144Z"
                     fill="#ffffff" />
       </g>
</svg>