<svg width="19.5898" height="19.5996">
       <g>
              <rect height="19.5996" opacity="0" width="19.5898" x="0" y="0" />
              <path d="M9.79492 19.5898Q11.8066 19.5898 13.5791 18.8232Q15.3516 18.0566 16.7041 16.7041Q18.0566 15.3516 18.8232 13.5791Q19.5898 11.8066 19.5898 9.79492Q19.5898 7.7832 18.8232 6.01074Q18.0566 4.23828 16.7041 2.88574Q15.3516 1.5332 13.5742 0.766602Q11.7969 0 9.78516 0Q7.77344 0 6.00098 0.766602Q4.22852 1.5332 2.88086 2.88574Q1.5332 4.23828 0.766602 6.01074Q0 7.7832 0 9.79492Q0 11.8066 0.766602 13.5791Q1.5332 15.3516 2.88574 16.7041Q4.23828 18.0566 6.01074 18.8232Q7.7832 19.5898 9.79492 19.5898Z"
                     fill="rgba(255,255,255,0.55)" />
              <path d="M5.76172 15.9277Q5.54688 15.9277 5.40039 15.7764Q5.25391 15.625 5.25391 15.4102Q5.25391 15.1855 5.44922 14.9902L7.4707 12.998L9.0625 7.33398Q9.11133 7.1582 9.02344 7.05078Q8.93555 6.94336 8.75977 6.95312L7.77344 7.00195L7.5293 8.7793Q7.46094 9.30664 6.99219 9.26758Q6.75781 9.23828 6.63574 9.07715Q6.51367 8.91602 6.55273 8.66211L6.83594 6.52344Q6.89453 6.02539 7.38281 5.98633L9.70703 5.80078Q11.1133 5.71289 11.8262 6.71875L12.9199 8.25195L14.4824 7.57812Q14.9805 7.36328 15.166 7.79297Q15.2637 7.98828 15.1953 8.16406Q15.127 8.33984 14.8828 8.4375L12.9297 9.31641Q12.5293 9.49219 12.3145 9.15039L11.6895 8.24219Q11.5723 8.06641 11.4062 8.09082Q11.2402 8.11523 11.1816 8.31055L10.7324 9.90234L12.9688 11.3477Q13.2812 11.5527 13.2812 11.8066Q13.2812 12.0508 13.0664 12.2363L11.0547 13.9355Q10.791 14.1797 10.5273 14.1797Q10.3223 14.1797 10.1855 14.0332Q10.0488 13.8867 10.0488 13.6816Q10.0488 13.4375 10.2832 13.252L11.8262 11.9141L10.1367 10.9375Q9.86328 10.7812 9.63867 10.8447Q9.41406 10.9082 9.31641 11.1719L8.45703 13.3691Q8.39844 13.5254 8.34961 13.6035Q8.30078 13.6816 8.17383 13.7891L6.28906 15.6445Q6.13281 15.8008 6.01562 15.8643Q5.89844 15.9277 5.76172 15.9277ZM11.4551 5.51758Q10.9473 5.51758 10.5811 5.15137Q10.2148 4.78516 10.2148 4.27734Q10.2148 3.75 10.5762 3.37891Q10.9375 3.00781 11.4551 3.00781Q11.9922 3.00781 12.3535 3.37891Q12.7148 3.75 12.7148 4.27734Q12.7148 4.78516 12.3486 5.15137Q11.9824 5.51758 11.4551 5.51758Z"
                     fill="#ffffff" />
       </g>
</svg>