<svg width="19.5898" height="19.5996">
       <g>
              <rect height="19.5996" opacity="0" width="19.5898" x="0" y="0" />
              <path d="M9.79492 19.5898Q11.8066 19.5898 13.5791 18.8232Q15.3516 18.0566 16.7041 16.7041Q18.0566 15.3516 18.8232 13.5791Q19.5898 11.8066 19.5898 9.79492Q19.5898 7.7832 18.8232 6.01074Q18.0566 4.23828 16.7041 2.88574Q15.3516 1.5332 13.5742 0.766602Q11.7969 0 9.78516 0Q7.77344 0 6.00098 0.766602Q4.22852 1.5332 2.88086 2.88574Q1.5332 4.23828 0.766602 6.01074Q0 7.7832 0 9.79492Q0 11.8066 0.766602 13.5791Q1.5332 15.3516 2.88574 16.7041Q4.23828 18.0566 6.01074 18.8232Q7.7832 19.5898 9.79492 19.5898Z"
                     fill="rgba(255,255,255,0.55)" />
              <path d="M4.07227 9.49219Q3.99414 8.97461 4.53125 8.73047L5.21484 8.38867Q6.45508 7.8125 7.40723 7.39746Q8.35938 6.98242 9.0332 6.69922L9.90234 6.33789L10.5078 4.24805Q10.5957 3.94531 10.8057 3.84277Q11.0156 3.74023 11.2305 3.80371Q11.4453 3.86719 11.5625 4.06738Q11.6797 4.26758 11.5918 4.56055L10.9277 6.83594Q10.8691 7.05078 10.6885 7.14355Q10.5078 7.23633 10.3125 7.32422L9.30664 7.79297Q9.15039 7.88086 9.21875 8.03711L10.3809 10.4102Q10.4297 10.5078 10.5176 10.5322Q10.6055 10.5566 10.7031 10.498L12.0703 9.67773Q12.5195 9.39453 13.0176 9.62891L15.8398 10.9277Q16.1719 11.084 16.25 11.3281Q16.3281 11.5723 16.2158 11.7969Q16.1035 12.0215 15.8789 12.124Q15.6543 12.2266 15.3809 12.0996L12.7344 10.8398L10.7324 12.002Q10.6348 12.0605 10.6348 12.1631Q10.6348 12.2656 10.7227 12.334L13.6426 14.5703Q13.916 14.7852 13.9404 15.0342Q13.9648 15.2832 13.8232 15.4736Q13.6816 15.6641 13.4375 15.7129Q13.1934 15.7617 12.9395 15.5762L9.13086 12.8027Q8.91602 12.6465 8.68652 12.417Q8.45703 12.1875 8.18359 11.6602L6.97266 9.23828Q6.9043 9.07227 6.71875 9.13086L5.2832 9.7168L5.58594 11.6504Q5.63477 11.9531 5.48828 12.1338Q5.3418 12.3145 5.12207 12.3486Q4.90234 12.3828 4.71191 12.2559Q4.52148 12.1289 4.47266 11.8262ZM6.63086 6.95312Q6.08398 6.95312 5.69824 6.5625Q5.3125 6.17188 5.3125 5.625Q5.3125 5.06836 5.69824 4.66797Q6.08398 4.26758 6.63086 4.26758Q7.1875 4.26758 7.58301 4.66797Q7.97852 5.06836 7.97852 5.625Q7.97852 6.16211 7.58301 6.55762Q7.1875 6.95312 6.63086 6.95312Z"
                     fill="#ffffff" />
       </g>
</svg>