<svg width="19.5898" height="19.5996">
       <g>
              <rect height="19.5996" opacity="0" width="19.5898" x="0" y="0" />
              <path d="M9.79492 19.5898Q11.8066 19.5898 13.5791 18.8232Q15.3516 18.0566 16.7041 16.7041Q18.0566 15.3516 18.8232 13.5791Q19.5898 11.8066 19.5898 9.79492Q19.5898 7.7832 18.8232 6.01074Q18.0566 4.23828 16.7041 2.88574Q15.3516 1.5332 13.5742 0.766602Q11.7969 0 9.78516 0Q7.77344 0 6.00098 0.766602Q4.22852 1.5332 2.88086 2.88574Q1.5332 4.23828 0.766602 6.01074Q0 7.7832 0 9.79492Q0 11.8066 0.766602 13.5791Q1.5332 15.3516 2.88574 16.7041Q4.23828 18.0566 6.01074 18.8232Q7.7832 19.5898 9.79492 19.5898Z"
                     fill="rgba(255,255,255,0.55)" />
              <path d="M8.98438 16.543Q8.70117 16.543 8.54492 16.377Q8.38867 16.2109 8.38867 15.918L8.38867 7.91992Q8.38867 7.53906 8.0957 7.33398L6.67969 6.28906Q6.25 5.97656 6.2207 5.43945L6.08398 3.45703Q6.06445 3.19336 6.19629 3.03223Q6.32812 2.87109 6.5625 2.85156Q6.79688 2.83203 6.94336 2.97852Q7.08984 3.125 7.09961 3.38867L7.25586 5.44922L8.16406 6.06445Q8.38867 6.2207 8.58887 6.29395Q8.78906 6.36719 9.11133 6.36719L9.88281 6.36719Q11.4453 6.36719 12.1631 6.83105Q12.8809 7.29492 12.8809 8.56445L12.8809 11.5527Q12.8809 12.1191 12.373 12.1191Q11.8457 12.1191 11.8457 11.5527L11.8457 8.44727Q11.8457 8.29102 11.7676 8.20312Q11.6895 8.11523 11.5625 8.11523Q11.2793 8.11523 11.2793 8.44727L11.2793 15.918Q11.2793 16.543 10.7129 16.543Q10.4297 16.543 10.2686 16.377Q10.1074 16.2109 10.1074 15.918L10.1074 11.4453Q10.1074 11.1035 9.83398 11.1035Q9.55078 11.1035 9.55078 11.4453L9.55078 15.918Q9.55078 16.543 8.98438 16.543ZM9.88281 5.74219Q9.375 5.74219 9.00391 5.37598Q8.63281 5.00977 8.63281 4.50195Q8.63281 3.97461 8.99902 3.60352Q9.36523 3.23242 9.88281 3.23242Q10.4199 3.23242 10.7812 3.59863Q11.1426 3.96484 11.1426 4.50195Q11.1426 5.00977 10.7764 5.37598Q10.4102 5.74219 9.88281 5.74219Z"
                     fill="#ffffff" />
       </g>
</svg>