<svg width="19.5898" height="19.5996">
       <g>
              <rect height="19.5996" opacity="0" width="19.5898" x="0" y="0" />
              <path d="M9.79492 19.5898Q11.8066 19.5898 13.5791 18.8232Q15.3516 18.0566 16.7041 16.7041Q18.0566 15.3516 18.8232 13.5791Q19.5898 11.8066 19.5898 9.79492Q19.5898 7.7832 18.8232 6.01074Q18.0566 4.23828 16.7041 2.88574Q15.3516 1.5332 13.5742 0.766602Q11.7969 0 9.78516 0Q7.77344 0 6.00098 0.766602Q4.22852 1.5332 2.88086 2.88574Q1.5332 4.23828 0.766602 6.01074Q0 7.7832 0 9.79492Q0 11.8066 0.766602 13.5791Q1.5332 15.3516 2.88574 16.7041Q4.23828 18.0566 6.01074 18.8232Q7.7832 19.5898 9.79492 19.5898Z"
                     fill="rgba(255,255,255,0.55)" />
              <path d="M12.1484 15.957Q11.7578 15.957 11.582 15.5762L10.3027 12.9688Q10.2539 12.8906 10.2148 12.8271Q10.1758 12.7637 10.0879 12.666L8.91602 11.1816Q8.67188 10.8691 8.48145 10.4932Q8.29102 10.1172 8.33008 9.60938L8.42773 8.29102Q8.44727 8.125 8.3252 8.05176Q8.20312 7.97852 8.05664 8.0957L7.49023 8.60352L7.36328 10.1172Q7.32422 10.7031 6.78711 10.6836Q6.5332 10.6641 6.39648 10.4883Q6.25977 10.3125 6.2793 10.0391L6.39648 8.65234Q6.42578 8.37891 6.51367 8.17383Q6.60156 7.96875 6.82617 7.75391L7.80273 6.8457Q8.25195 6.40625 8.65723 6.18164Q9.0625 5.95703 9.53125 5.95703Q10.1758 5.95703 10.5322 6.36719Q10.8887 6.77734 10.8496 7.44141L10.7324 9.11133Q10.7031 9.56055 10.6152 9.92188Q10.5273 10.2832 10.3809 10.7617L10.3223 10.9375L11.0742 11.9922Q11.1426 12.0996 11.2305 12.2412Q11.3184 12.3828 11.3965 12.5586L12.5977 14.9805Q12.6562 15.0977 12.6855 15.2002Q12.7148 15.3027 12.7148 15.4102Q12.7148 15.6445 12.5537 15.8008Q12.3926 15.957 12.1484 15.957ZM6.65039 15.9766Q6.42578 15.9766 6.2793 15.8252Q6.13281 15.6738 6.13281 15.4297Q6.13281 15.2832 6.20117 15.166Q6.26953 15.0488 6.38672 14.9121L8.11523 12.8711L8.38867 11.4844L9.32617 12.6465L9.20898 13.1152Q9.16992 13.2715 9.13574 13.3301Q9.10156 13.3887 8.94531 13.5645L7.10938 15.7617Q6.93359 15.9766 6.65039 15.9766ZM12.4609 9.375Q12.1973 9.375 12.0508 9.32129Q11.9043 9.26758 11.7578 9.13086L11.3281 8.71094L11.4258 7.29492L12.3438 8.30078L13.8477 8.30078Q14.1309 8.30078 14.292 8.44727Q14.4531 8.59375 14.4531 8.84766Q14.4531 9.375 13.8477 9.375ZM10.2734 5.38086Q9.76562 5.38086 9.39941 5.00977Q9.0332 4.63867 9.0332 4.12109Q9.0332 3.60352 9.39453 3.22754Q9.75586 2.85156 10.2734 2.85156Q10.8105 2.85156 11.1768 3.22266Q11.543 3.59375 11.543 4.12109Q11.543 4.62891 11.167 5.00488Q10.791 5.38086 10.2734 5.38086Z"
                     fill="#ffffff" />
       </g>
</svg>