<svg width="21.7432" height="21.7579">
       <g>
              <rect height="21.7579" opacity="0" width="21.7432" x="0" y="0" />
              <path d="M1.02053 12.9053L8.85256 20.7276Q9.85842 21.7432 10.8789 21.7481Q11.8994 21.753 12.9053 20.7471L20.7471 12.8955Q21.7432 11.8994 21.7432 10.874Q21.7432 9.84866 20.7373 8.83303L12.9248 1.02053Q11.8994 0.00490618 10.8838 2.33627e-05Q9.86819-0.00485945 8.86233 1.01077L1.001 8.85256Q-0.00485922 9.86819 2.35885e-05 10.8789Q0.0049064 11.8897 1.02053 12.9053Z"
                     fill="rgba(255,255,255,0.55)" />
              <path d="M13.2178 17.0362Q12.8272 17.0362 12.6514 16.6553L11.3721 14.0479Q11.3233 13.9697 11.2842 13.9063Q11.2451 13.8428 11.1573 13.7451L9.98538 12.2608Q9.74123 11.9483 9.5508 11.5723Q9.36038 11.1963 9.39944 10.6885L9.49709 9.37014Q9.51663 9.20412 9.39455 9.13088Q9.27248 9.05764 9.126 9.17483L8.55959 9.68264L8.43264 11.1963Q8.39358 11.7822 7.85647 11.7627Q7.60256 11.7432 7.46584 11.5674Q7.32913 11.3916 7.34866 11.1182L7.46584 9.73147Q7.49514 9.45803 7.58303 9.25295Q7.67092 9.04787 7.89553 8.83303L8.87209 7.92483Q9.32131 7.48537 9.72659 7.26077Q10.1319 7.03616 10.6006 7.03616Q11.2451 7.03616 11.6016 7.44631Q11.958 7.85647 11.919 8.52053L11.8018 10.1905Q11.7725 10.6397 11.6846 11.001Q11.5967 11.3623 11.4502 11.8408L11.3916 12.0166L12.1436 13.0713Q12.2119 13.1787 12.2998 13.3203Q12.3877 13.4619 12.4658 13.6377L13.667 16.0596Q13.7256 16.1768 13.7549 16.2793Q13.7842 16.3819 13.7842 16.4893Q13.7842 16.7237 13.6231 16.8799Q13.4619 17.0362 13.2178 17.0362ZM7.71975 17.0557Q7.49514 17.0557 7.34866 16.9043Q7.20217 16.753 7.20217 16.5088Q7.20217 16.3623 7.27053 16.2451Q7.33889 16.128 7.45608 15.9912L9.18459 13.9502L9.45803 12.5635L10.3955 13.7256L10.2783 14.1944Q10.2393 14.3506 10.2051 14.4092Q10.1709 14.4678 10.0147 14.6436L8.17873 16.8408Q8.00295 17.0557 7.71975 17.0557ZM13.5303 10.4541Q13.2666 10.4541 13.1201 10.4004Q12.9737 10.3467 12.8272 10.21L12.3975 9.79006L12.4951 8.37405L13.4131 9.37991L14.917 9.37991Q15.2002 9.37991 15.3614 9.52639Q15.5225 9.67287 15.5225 9.92678Q15.5225 10.4541 14.917 10.4541ZM11.3428 6.45998Q10.835 6.45998 10.4688 6.08889Q10.1026 5.7178 10.1026 5.20022Q10.1026 4.68264 10.4639 4.30666Q10.8252 3.93069 11.3428 3.93069Q11.8799 3.93069 12.2461 4.30178Q12.6123 4.67287 12.6123 5.20022Q12.6123 5.70803 12.2364 6.08401Q11.8604 6.45998 11.3428 6.45998Z"
                     fill="#ffffff" />
       </g>
</svg>