<svg width="22.8711" height="17.6855">
       <g>
              <rect height="17.6855" opacity="0" width="22.8711" x="0" y="0" />
              <path d="M4.73633 4.67773L13.1934 4.67773Q13.4082 4.67773 13.5449 4.54102Q13.6816 4.4043 13.6816 4.18945Q13.6816 3.98438 13.5449 3.84766Q13.4082 3.71094 13.1934 3.71094L4.73633 3.71094Q4.52148 3.71094 4.38477 3.84766Q4.24805 3.98438 4.24805 4.18945Q4.24805 4.4043 4.38477 4.54102Q4.52148 4.67773 4.73633 4.67773ZM4.73633 13.9551L13.1934 13.9551Q13.4082 13.9551 13.5449 13.8232Q13.6816 13.6914 13.6816 13.4863Q13.6816 13.2715 13.5449 13.1348Q13.4082 12.998 13.1934 12.998L4.73633 12.998Q4.52148 12.998 4.38477 13.1348Q4.24805 13.2715 4.24805 13.4863Q4.24805 13.6914 4.38477 13.8232Q4.52148 13.9551 4.73633 13.9551ZM2.88086 17.6855L19.9902 17.6855Q21.4258 17.6855 22.1484 16.9629Q22.8711 16.2402 22.8711 14.834L22.8711 2.85156Q22.8711 1.44531 22.1484 0.722656Q21.4258 0 19.9902 0L2.88086 0Q1.44531 0 0.722656 0.717773Q0 1.43555 0 2.85156L0 14.834Q0 16.25 0.722656 16.9678Q1.44531 17.6855 2.88086 17.6855ZM2.90039 16.4746Q2.07031 16.4746 1.64062 16.0449Q1.21094 15.6152 1.21094 14.7656L1.21094 2.91992Q1.21094 2.07031 1.64062 1.64062Q2.07031 1.21094 2.90039 1.21094L19.9707 1.21094Q20.7715 1.21094 21.2158 1.64062Q21.6602 2.07031 21.6602 2.91992L21.6602 14.7656Q21.6602 15.6152 21.2158 16.0449Q20.7715 16.4746 19.9707 16.4746Z"
                     fill="rgba(255,255,255,0.55)" />
              <path d="M3.65234 11.0645L19.2383 11.0645Q19.7852 11.0645 20.1025 10.7324Q20.4199 10.4004 20.4199 9.84375L20.4199 7.80273Q20.4199 7.24609 20.1025 6.91406Q19.7852 6.58203 19.2383 6.58203L3.65234 6.58203Q3.0957 6.58203 2.77832 6.91406Q2.46094 7.24609 2.46094 7.80273L2.46094 9.84375Q2.46094 10.4004 2.77832 10.7324Q3.0957 11.0645 3.65234 11.0645Z"
                     fill="rgba(255,255,255,0.55)" />
              <path d="M4.74609 9.31641Q4.52148 9.31641 4.38477 9.17969Q4.24805 9.04297 4.24805 8.82812Q4.24805 8.62305 4.38477 8.48633Q4.52148 8.34961 4.74609 8.34961L9.99023 8.34961Q10.2051 8.34961 10.3418 8.48633Q10.4785 8.62305 10.4785 8.82812Q10.4785 9.04297 10.3418 9.17969Q10.2051 9.31641 9.99023 9.31641Z"
                     fill="#ffffff" />
       </g>
</svg>