<svg width="19.5898" height="19.5996">
       <g>
              <rect height="19.5996" opacity="0" width="19.5898" x="0" y="0" />
              <path d="M9.79492 19.5898Q11.8066 19.5898 13.5791 18.8232Q15.3516 18.0566 16.7041 16.7041Q18.0566 15.3516 18.8232 13.5791Q19.5898 11.8066 19.5898 9.79492Q19.5898 7.7832 18.8232 6.01074Q18.0566 4.23828 16.7041 2.88574Q15.3516 1.5332 13.5742 0.766602Q11.7969 0 9.78516 0Q7.77344 0 6.00098 0.766602Q4.22852 1.5332 2.88086 2.88574Q1.5332 4.23828 0.766602 6.01074Q0 7.7832 0 9.79492Q0 11.8066 0.766602 13.5791Q1.5332 15.3516 2.88574 16.7041Q4.23828 18.0566 6.01074 18.8232Q7.7832 19.5898 9.79492 19.5898Z"
                     fill="rgba(255,255,255,0.55)" />
              <path d="M4.90234 14.2676Q4.51172 14.2676 4.28223 14.0479Q4.05273 13.8281 4.05273 13.4277L4.05273 6.20117Q4.05273 5.82031 4.28223 5.59082Q4.51172 5.36133 4.90234 5.36133L14.707 5.36133Q15.0977 5.36133 15.3271 5.59082Q15.5566 5.82031 15.5566 6.20117L15.5566 13.4277Q15.5566 13.8281 15.3271 14.0479Q15.0977 14.2676 14.707 14.2676ZM5.07812 13.5547L5.92773 13.5547Q6.20117 13.5547 6.20117 13.2617L6.20117 12.4609Q6.20117 12.168 5.92773 12.168L5.0293 12.168Q4.74609 12.168 4.74609 12.4609L4.74609 13.2129Q4.74609 13.5547 5.07812 13.5547ZM5.0293 11.4746L5.92773 11.4746Q6.20117 11.4746 6.20117 11.2012L6.20117 10.4199Q6.20117 10.127 5.92773 10.127L5.0293 10.127Q4.74609 10.127 4.74609 10.4199L4.74609 11.2012Q4.74609 11.4746 5.0293 11.4746ZM5.0293 9.45312L5.92773 9.45312Q6.20117 9.45312 6.20117 9.17969L6.20117 8.38867Q6.20117 8.0957 5.92773 8.0957L5.0293 8.0957Q4.74609 8.0957 4.74609 8.38867L4.74609 9.17969Q4.74609 9.45312 5.0293 9.45312ZM5.0293 7.43164L5.92773 7.43164Q6.20117 7.43164 6.20117 7.14844L6.20117 6.37695Q6.20117 6.07422 5.92773 6.07422L5.0293 6.07422Q4.74609 6.07422 4.74609 6.37695L4.74609 7.14844Q4.74609 7.43164 5.0293 7.43164ZM13.6816 13.5547L14.5312 13.5547Q14.8633 13.5547 14.8633 13.2129L14.8633 12.4609Q14.8633 12.168 14.5703 12.168L13.6816 12.168Q13.3984 12.168 13.3984 12.4609L13.3984 13.2617Q13.3984 13.5547 13.6816 13.5547ZM13.6816 11.4746L14.5703 11.4746Q14.8633 11.4746 14.8633 11.2012L14.8633 10.4199Q14.8633 10.127 14.5703 10.127L13.6816 10.127Q13.3984 10.127 13.3984 10.4199L13.3984 11.2012Q13.3984 11.4746 13.6816 11.4746ZM13.6816 9.45312L14.5703 9.45312Q14.8633 9.45312 14.8633 9.17969L14.8633 8.38867Q14.8633 8.0957 14.5703 8.0957L13.6816 8.0957Q13.3984 8.0957 13.3984 8.38867L13.3984 9.17969Q13.3984 9.45312 13.6816 9.45312ZM13.6816 7.43164L14.5703 7.43164Q14.8633 7.43164 14.8633 7.14844L14.8633 6.37695Q14.8633 6.07422 14.5703 6.07422L13.6816 6.07422Q13.3984 6.07422 13.3984 6.37695L13.3984 7.14844Q13.3984 7.43164 13.6816 7.43164ZM7.5293 10.2637L12.0703 10.2637Q12.2559 10.2637 12.3877 10.1367Q12.5195 10.0098 12.5195 9.82422Q12.5195 9.62891 12.3877 9.49707Q12.2559 9.36523 12.0703 9.36523L7.5293 9.36523Q7.33398 9.36523 7.20703 9.49707Q7.08008 9.62891 7.08008 9.82422Q7.08008 10.0098 7.20703 10.1367Q7.33398 10.2637 7.5293 10.2637Z"
                     fill="#ffffff" />
       </g>
</svg>