<svg width="15.6738" height="19.5956">
       <g>
              <rect height="19.5956" opacity="0" width="15.6738" x="0" y="0" />
              <path d="M7.83691 19.5956Q7.97226 19.5956 8.14316 19.5411Q8.31406 19.4865 8.47839 19.398Q10.535 18.2588 11.9189 17.383Q13.3028 16.5071 14.1278 15.6886Q14.9529 14.8701 15.3133 13.9394Q15.6738 13.0087 15.6738 11.7601L15.6738 4.40887Q15.6738 3.63571 15.3746 3.29155Q15.0754 2.94739 14.4026 2.67838Q13.9882 2.51068 13.4076 2.28912Q12.827 2.06757 12.1652 1.82053Q11.5034 1.57349 10.8417 1.32645Q10.1799 1.07941 9.60121 0.870972Q9.02252 0.662537 8.60809 0.518188Q8.41583 0.459595 8.22433 0.419006Q8.03284 0.378418 7.83691 0.378418Q7.64084 0.378418 7.45125 0.419006Q7.26166 0.459595 7.0694 0.518188Q6.65802 0.66864 6.0759 0.878601Q5.49377 1.08856 4.832 1.33072Q4.17023 1.57288 3.50853 1.82175Q2.84683 2.07062 2.26471 2.29401Q1.68259 2.5174 1.27121 2.67838Q0.602112 2.93762 0.301056 3.28667Q0 3.63571 0 4.40887L0 11.7601Q0 13.0087 0.372086 13.9229Q0.744171 14.837 1.57753 15.6372Q2.41089 16.4374 3.79471 17.32Q5.17853 18.2027 7.19543 19.398Q7.35977 19.4865 7.53067 19.5411Q7.70157 19.5956 7.83691 19.5956Z"
                     fill="rgba(255,255,255,0.55)" />
              <path d="M8.89252 5.37384Q8.89252 5.09018 9.10706 5.01747Q9.32159 4.94476 9.52332 5.07675L11.9948 6.7601Q12.2018 6.89819 12.1988 7.10754Q12.1957 7.31689 12.0241 7.4324L9.54819 9.12247Q9.33746 9.25766 9.11499 9.16908Q8.89252 9.08051 8.89252 8.78769L8.89252 7.61429L3.82767 7.61429Q3.61176 7.61429 3.45726 7.46323Q3.30276 7.31216 3.30276 7.0993Q3.30276 6.88339 3.45726 6.72897Q3.61176 6.57455 3.82767 6.57455L8.89252 6.57455ZM3.4874 12.5244Q3.30887 12.4022 3.30925 12.1928Q3.30963 11.9835 3.50998 11.8454L5.98801 10.162Q6.18317 10.0299 6.40106 10.106Q6.61896 10.1822 6.61896 10.459L6.61896 11.6664L11.6838 11.6664Q11.8997 11.6664 12.0508 11.8209Q12.2018 11.9754 12.2018 12.1913Q12.2018 12.3975 12.0508 12.5519Q11.8997 12.7063 11.6838 12.7063L6.61896 12.7063L6.61896 13.8797Q6.61896 14.1724 6.39648 14.2609Q6.17401 14.3495 5.96619 14.2145Z"
                     fill="#ffffff" />
       </g>
</svg>