<svg width="16.7867" height="18.6734">
       <g>
              <rect height="18.6734" opacity="0" width="16.7867" x="0" y="0" />
              <path d="M0.578613 18.6734Q0.818481 18.6734 0.986404 18.507Q1.15433 18.3406 1.15433 18.1015L1.15433 12.4113Q1.37314 12.3605 2.05574 12.1564Q2.73834 11.9524 3.87909 11.9524Q5.2124 11.9524 6.33255 12.2179Q7.4527 12.4835 8.50273 12.8287Q9.55276 13.1738 10.6509 13.4393Q11.7491 13.7048 13.0351 13.7048Q13.7544 13.7048 14.2352 13.6496Q14.7159 13.5944 15.0726 13.4866Q15.4294 13.3789 15.7764 13.2219Q16.2357 13.0185 16.5112 12.6738Q16.7867 12.3291 16.7867 11.7763L16.7867 2.06406Q16.7867 1.71204 16.5497 1.52901Q16.3127 1.34598 15.9557 1.34598Q15.6094 1.34598 14.8932 1.56013Q14.1769 1.77429 12.9112 1.77429Q11.6251 1.77429 10.527 1.50879Q9.42886 1.24329 8.37883 0.894699Q7.3288 0.546112 6.20857 0.283966Q5.08835 0.0218201 3.75824 0.0218201Q3.03589 0.0218201 2.55333 0.0770569Q2.07077 0.132294 1.71394 0.240097Q1.35712 0.3479 1.01028 0.504761Q0.557709 0.70816 0.278854 1.05293Q0 1.39771 0 1.94366L0 18.1015Q0 18.3308 0.17128 18.5021Q0.34256 18.6734 0.578613 18.6734Z"
                     fill="#ff9f0a" />
       </g>
</svg>