<svg width="19.5898" height="19.5996">
       <g>
              <rect height="19.5996" opacity="0" width="19.5898" x="0" y="0" />
              <path d="M9.79492 19.5996Q11.8066 19.5996 13.5791 18.833Q15.3516 18.0664 16.7041 16.7139Q18.0566 15.3613 18.8232 13.5889Q19.5898 11.8164 19.5898 9.80469Q19.5898 7.79297 18.8232 6.02051Q18.0566 4.24805 16.7041 2.89551Q15.3516 1.54297 13.5742 0.776367Q11.7969 0.00976562 9.78516 0.00976562Q7.77344 0.00976562 6.00098 0.776367Q4.22852 1.54297 2.88086 2.89551Q1.5332 4.24805 0.766602 6.02051Q0 7.79297 0 9.80469Q0 11.8164 0.766602 13.5889Q1.5332 15.3613 2.88574 16.7139Q4.23828 18.0664 6.01074 18.833Q7.7832 19.5996 9.79492 19.5996Z"
                     fill="rgba(255,255,255,0.55)" />
              <path d="M6.76758 5.29297Q6.91406 5.26367 7.0752 5.24902Q7.23633 5.23438 7.44141 5.23438Q8.34961 5.23438 9.08203 5.46387Q9.81445 5.69336 10.5322 5.91797Q11.25 6.14258 12.1094 6.14258Q12.7441 6.14258 13.1055 6.03027Q13.4668 5.91797 13.6816 5.91797Q14.1602 5.91797 14.1602 6.36719L14.1602 11.3086Q14.1602 11.5918 13.9746 11.7773Q13.7891 11.9629 13.5645 12.0801ZM10.7422 12.1875Q10.2051 12.0605 9.70215 11.8945Q9.19922 11.7285 8.66211 11.6064Q8.125 11.4844 7.5 11.4844Q7.00195 11.4844 6.68945 11.5625Q6.37695 11.6406 6.2207 11.6992L6.2207 14.7363Q6.2207 14.9023 6.11328 15.0146Q6.00586 15.127 5.83984 15.127Q5.67383 15.127 5.55664 15.0098Q5.43945 14.8926 5.43945 14.7363L5.43945 6.88477ZM14.6387 15.2051L4.39453 4.95117Q4.28711 4.84375 4.28711 4.68262Q4.28711 4.52148 4.39453 4.4043Q4.51172 4.28711 4.67773 4.28711Q4.84375 4.28711 4.96094 4.4043L15.1953 14.6484Q15.3125 14.7656 15.3125 14.9219Q15.3125 15.0781 15.1953 15.2051Q15.0879 15.3125 14.9219 15.3076Q14.7559 15.3027 14.6387 15.2051Z"
                     fill="#ffffff" />
       </g>
</svg>