<svg width="19.5898" height="19.5996">
       <g>
              <rect height="19.5996" opacity="0" width="19.5898" x="0" y="0" />
              <path d="M9.79492 19.5996Q11.8066 19.5996 13.5791 18.833Q15.3516 18.0664 16.7041 16.7139Q18.0566 15.3613 18.8232 13.5889Q19.5898 11.8164 19.5898 9.80469Q19.5898 7.79297 18.8232 6.02051Q18.0566 4.24805 16.7041 2.89551Q15.3516 1.54297 13.5742 0.776367Q11.7969 0.00976562 9.78516 0.00976562Q7.77344 0.00976562 6.00098 0.776367Q4.22852 1.54297 2.88086 2.89551Q1.5332 4.24805 0.766602 6.02051Q0 7.79297 0 9.80469Q0 11.8164 0.766602 13.5889Q1.5332 15.3613 2.88574 16.7139Q4.23828 18.0664 6.01074 18.833Q7.7832 19.5996 9.79492 19.5996Z"
                     fill="#ff9f0a" />
              <path d="M5.9668 15.1172Q5.80078 15.1172 5.68359 15Q5.56641 14.8828 5.56641 14.7363L5.56641 6.29883Q5.56641 5.74219 6.14258 5.47852Q6.39648 5.36133 6.7041 5.29785Q7.01172 5.23438 7.56836 5.23438Q8.47656 5.23438 9.2041 5.45898Q9.93164 5.68359 10.6494 5.9082Q11.3672 6.13281 12.2363 6.13281Q12.8613 6.13281 13.2275 6.02051Q13.5938 5.9082 13.8086 5.9082Q14.2871 5.9082 14.2871 6.36719L14.2871 11.2988Q14.2871 11.8457 13.7109 12.1191Q13.4375 12.2461 13.1299 12.3096Q12.8223 12.373 12.2852 12.373Q11.3965 12.373 10.6787 12.1484Q9.96094 11.9238 9.23828 11.7041Q8.51562 11.4844 7.61719 11.4844Q7.12891 11.4844 6.81152 11.5576Q6.49414 11.6309 6.34766 11.6895L6.34766 14.7363Q6.34766 14.8926 6.24023 15.0049Q6.13281 15.1172 5.9668 15.1172Z"
                     fill="#ffffff" />
       </g>
</svg>