<svg width="19.5898" height="19.5996">
       <g>
              <rect height="19.5996" opacity="0" width="19.5898" x="0" y="0" />
              <path d="M9.79492 19.5898Q11.8066 19.5898 13.5791 18.8232Q15.3516 18.0566 16.7041 16.7041Q18.0566 15.3516 18.8232 13.5791Q19.5898 11.8066 19.5898 9.79492Q19.5898 7.7832 18.8232 6.01074Q18.0566 4.23828 16.7041 2.88574Q15.3516 1.5332 13.5742 0.766602Q11.7969 0 9.78516 0Q7.77344 0 6.00098 0.766602Q4.22852 1.5332 2.88086 2.88574Q1.5332 4.23828 0.766602 6.01074Q0 7.7832 0 9.79492Q0 11.8066 0.766602 13.5791Q1.5332 15.3516 2.88574 16.7041Q4.23828 18.0566 6.01074 18.8232Q7.7832 19.5898 9.79492 19.5898ZM9.79492 18.3203Q8.02734 18.3203 6.47949 17.6611Q4.93164 17.002 3.75977 15.8301Q2.58789 14.6582 1.92871 13.1104Q1.26953 11.5625 1.26953 9.79492Q1.26953 8.02734 1.92871 6.47949Q2.58789 4.93164 3.75977 3.75488Q4.93164 2.57812 6.47461 1.91895Q8.01758 1.25977 9.78516 1.25977Q11.5625 1.25977 13.1104 1.91895Q14.6582 2.57812 15.8301 3.75488Q17.002 4.93164 17.666 6.47949Q18.3301 8.02734 18.3301 9.79492Q18.3301 11.5625 17.666 13.1104Q17.002 14.6582 15.8301 15.8301Q14.6582 17.002 13.1152 17.6611Q11.5723 18.3203 9.79492 18.3203Z"
                     fill="#ff9f0a" />
              <path d="M6.03516 15.0098Q6.19141 15.0098 6.29883 14.8975Q6.40625 14.7852 6.40625 14.6387L6.40625 11.6504Q6.5625 11.5918 6.86523 11.5137Q7.16797 11.4355 7.65625 11.4355Q8.53516 11.4355 9.24316 11.6553Q9.95117 11.875 10.6543 12.0947Q11.3574 12.3145 12.2266 12.3145Q12.7441 12.3145 13.0469 12.2559Q13.3496 12.1973 13.623 12.0605Q14.1895 11.8066 14.1895 11.2695L14.1895 6.42578Q14.1895 5.99609 13.7207 5.99609Q13.5156 5.99609 13.1543 6.10352Q12.793 6.21094 12.1777 6.21094Q11.3281 6.21094 10.625 5.99121Q9.92188 5.77148 9.20898 5.54688Q8.49609 5.32227 7.60742 5.32227Q7.06055 5.32227 6.7627 5.39062Q6.46484 5.45898 6.21094 5.56641Q5.64453 5.81055 5.64453 6.36719L5.64453 14.6387Q5.64453 14.7754 5.75684 14.8926Q5.86914 15.0098 6.03516 15.0098Z"
                     fill="#ff9f0a" />
       </g>
</svg>