<svg width="17.6855" height="17.7051">
       <g>
              <rect height="17.7051" opacity="0" width="17.6855" x="0" y="0" />
              <path d="M2.88086 17.7051L14.8047 17.7051Q16.2305 17.7051 16.958 16.9873Q17.6855 16.2695 17.6855 14.8535L17.6855 2.88086Q17.6855 1.46484 16.958 0.742188Q16.2305 0.0195312 14.8047 0.0195312L2.88086 0.0195312Q1.44531 0.0195312 0.722656 0.737305Q0 1.45508 0 2.88086L0 14.8535Q0 16.2695 0.722656 16.9873Q1.44531 17.7051 2.88086 17.7051ZM2.90039 16.4941Q2.07031 16.4941 1.64062 16.0645Q1.21094 15.6348 1.21094 14.7949L1.21094 2.93945Q1.21094 2.08984 1.64062 1.66016Q2.07031 1.23047 2.90039 1.23047L14.7852 1.23047Q15.5859 1.23047 16.0303 1.66016Q16.4746 2.08984 16.4746 2.93945L16.4746 14.7949Q16.4746 15.6348 16.0303 16.0645Q15.5859 16.4941 14.7852 16.4941Z"
                     fill="#ff9f0a" />
              <path d="M5.09766 14.0625Q5.25391 14.0625 5.36133 13.9502Q5.46875 13.8379 5.46875 13.6914L5.46875 10.7031Q5.625 10.6445 5.92773 10.5664Q6.23047 10.4883 6.71875 10.4883Q7.59766 10.4883 8.30566 10.708Q9.01367 10.9277 9.7168 11.1475Q10.4199 11.3672 11.2891 11.3672Q11.8066 11.3672 12.1094 11.3086Q12.4121 11.25 12.6855 11.1133Q13.252 10.8594 13.252 10.3223L13.252 5.47852Q13.252 5.04883 12.7832 5.04883Q12.5781 5.04883 12.2168 5.15625Q11.8555 5.26367 11.2402 5.26367Q10.3906 5.26367 9.6875 5.04395Q8.98438 4.82422 8.27148 4.59961Q7.55859 4.375 6.66992 4.375Q6.12305 4.375 5.8252 4.44336Q5.52734 4.51172 5.27344 4.61914Q4.70703 4.86328 4.70703 5.41992L4.70703 13.6914Q4.70703 13.8281 4.81934 13.9453Q4.93164 14.0625 5.09766 14.0625Z"
                     fill="#ff9f0a" />
       </g>
</svg>