<svg width="17.6855" height="17.7051">
       <g>
              <rect height="17.7051" opacity="0" width="17.6855" x="0" y="0" />
              <path d="M2.88086 17.7051L14.8047 17.7051Q16.2305 17.7051 16.958 16.9873Q17.6855 16.2695 17.6855 14.8535L17.6855 2.88086Q17.6855 1.46484 16.958 0.742188Q16.2305 0.0195312 14.8047 0.0195312L2.88086 0.0195312Q1.44531 0.0195312 0.722656 0.737305Q0 1.45508 0 2.88086L0 14.8535Q0 16.2695 0.722656 16.9873Q1.44531 17.7051 2.88086 17.7051Z"
                     fill="#ff9f0a" />
              <path d="M5.01953 14.1602Q4.85352 14.1602 4.73633 14.043Q4.61914 13.9258 4.61914 13.7793L4.61914 5.3418Q4.61914 4.78516 5.19531 4.52148Q5.44922 4.4043 5.75684 4.34082Q6.06445 4.27734 6.62109 4.27734Q7.5293 4.27734 8.25684 4.50195Q8.98438 4.72656 9.70215 4.95117Q10.4199 5.17578 11.2891 5.17578Q11.9141 5.17578 12.2803 5.06348Q12.6465 4.95117 12.8613 4.95117Q13.3398 4.95117 13.3398 5.41016L13.3398 10.3418Q13.3398 10.8887 12.7637 11.1621Q12.4902 11.2891 12.1826 11.3525Q11.875 11.416 11.3379 11.416Q10.4492 11.416 9.73145 11.1914Q9.01367 10.9668 8.29102 10.7471Q7.56836 10.5273 6.66992 10.5273Q6.18164 10.5273 5.86426 10.6006Q5.54688 10.6738 5.40039 10.7324L5.40039 13.7793Q5.40039 13.9355 5.29297 14.0479Q5.18555 14.1602 5.01953 14.1602Z"
                     fill="#ffffff" />
       </g>
</svg>