<svg width="19.5898" height="19.5996">
       <g>
              <rect height="19.5996" opacity="0" width="19.5898" x="0" y="0" />
              <path d="M9.79492 19.5996Q11.8066 19.5996 13.5791 18.833Q15.3516 18.0664 16.7041 16.7139Q18.0566 15.3613 18.8232 13.5889Q19.5898 11.8164 19.5898 9.80469Q19.5898 7.79297 18.8232 6.02051Q18.0566 4.24805 16.7041 2.89551Q15.3516 1.54297 13.5742 0.776367Q11.7969 0.00976562 9.78516 0.00976562Q7.77344 0.00976562 6.00098 0.776367Q4.22852 1.54297 2.88086 2.89551Q1.5332 4.24805 0.766602 6.02051Q0 7.79297 0 9.80469Q0 11.8164 0.766602 13.5889Q1.5332 15.3613 2.88574 16.7139Q4.23828 18.0664 6.01074 18.833Q7.7832 19.5996 9.79492 19.5996Z"
                     fill="rgba(255,255,255,0.55)" />
              <path d="M5.58594 12.2168Q5.58594 11.4941 5.72754 10.9668Q5.86914 10.4395 6.05957 10.0146Q6.25 9.58984 6.39648 9.17969Q6.54297 8.76953 6.54297 8.27148Q6.54297 8.07617 6.51855 7.85645Q6.49414 7.63672 6.49414 7.53906Q6.49414 7.20703 6.79688 7.20703Q7.13867 7.20703 7.54395 7.49512Q7.94922 7.7832 8.18359 8.26172Q8.29102 8.01758 8.29102 7.72461Q8.29102 6.94336 7.87598 6.23535Q7.46094 5.52734 6.96289 4.93164Q6.81641 4.75586 6.81641 4.57031Q6.81641 4.3457 6.99707 4.22852Q7.17773 4.11133 7.51953 4.11133Q8.4082 4.11133 9.38477 4.36523Q10.3613 4.61914 11.2891 5.14648Q12.2168 5.67383 12.9688 6.49414Q13.7207 7.31445 14.1699 8.44727Q14.6191 9.58008 14.6191 11.0352Q14.6191 12.5 14.0234 13.5938Q13.4277 14.6875 12.3535 15.2979Q11.2793 15.9082 9.85352 15.9082Q8.56445 15.9082 7.60254 15.4492Q6.64062 14.9902 6.11328 14.1602Q5.58594 13.3301 5.58594 12.2168ZM8.31055 12.8516Q8.31055 13.5254 8.76953 13.9404Q9.22852 14.3555 9.96094 14.3555Q10.918 14.3555 11.377 13.7549Q11.8359 13.1543 11.8359 12.3633Q11.8359 11.5918 11.3916 10.8203Q10.9473 10.0488 10.0684 9.62891Q10.0391 9.60938 10.0195 9.62891Q10 9.64844 10 9.69727Q10.0879 10.3516 10 10.9033Q9.91211 11.4551 9.69727 11.7383Q9.58008 11.5137 9.45312 11.3135Q9.32617 11.1133 9.14062 10.957Q9.11133 10.9277 9.08691 10.9375Q9.0625 10.9473 9.0625 10.9863Q9.01367 11.2891 8.83301 11.5332Q8.65234 11.7773 8.48145 12.0801Q8.31055 12.3828 8.31055 12.8516Z"
                     fill="#ffffff" />
       </g>
</svg>