<svg width="19.5898" height="19.5996">
       <g>
              <rect height="19.5996" opacity="0" width="19.5898" x="0" y="0" />
              <path d="M9.79492 19.5996Q11.8066 19.5996 13.5791 18.833Q15.3516 18.0664 16.7041 16.7139Q18.0566 15.3613 18.8232 13.5889Q19.5898 11.8164 19.5898 9.80469Q19.5898 7.79297 18.8232 6.02051Q18.0566 4.24805 16.7041 2.89551Q15.3516 1.54297 13.5742 0.776367Q11.7969 0.00976562 9.78516 0.00976562Q7.77344 0.00976562 6.00098 0.776367Q4.22852 1.54297 2.88086 2.89551Q1.5332 4.24805 0.766602 6.02051Q0 7.79297 0 9.80469Q0 11.8164 0.766602 13.5889Q1.5332 15.3613 2.88574 16.7139Q4.23828 18.0664 6.01074 18.833Q7.7832 19.5996 9.79492 19.5996Z"
                     fill="#5e5ce6" />
              <path d="M5.60547 14.3164Q4.88281 14.3164 4.51172 13.96Q4.14062 13.6035 4.14062 12.8906L4.14062 8.57422L15.459 8.57422L15.459 12.8906Q15.459 13.5938 15.1025 13.9551Q14.7461 14.3164 14.1016 14.3164ZM4.14062 7.86133L4.14062 6.41602Q4.14062 5.75195 4.46777 5.41992Q4.79492 5.08789 5.41016 5.08789L6.89453 5.08789Q7.24609 5.08789 7.46094 5.16113Q7.67578 5.23438 7.91992 5.43945L8.21289 5.67383Q8.4082 5.83984 8.5791 5.9082Q8.75 5.97656 9.04297 5.97656L13.9941 5.97656Q14.7168 5.97656 15.0879 6.34766Q15.459 6.71875 15.459 7.42188L15.459 7.86133Z"
                     fill="#ffffff" />
       </g>
</svg>