<svg width="21.8842" height="17.6468">
       <g>
              <rect height="17.6468" opacity="0" width="21.8842" x="0" y="0" />
              <path d="M0 14.6954Q0 16.1153 0.724182 16.8327Q1.44836 17.5502 2.87872 17.5502L19.1985 17.5502Q20.4797 17.5502 21.1819 16.8297Q21.8842 16.1092 21.8842 14.6954L21.8842 6.54526L0 6.54526ZM0 5.53238L21.8842 5.53238L21.8842 4.65088Q21.8842 3.24692 21.1565 2.52304Q20.4289 1.79916 19.0054 1.79916L9.56375 1.79916Q9.00513 1.79916 8.65425 1.67191Q8.30338 1.54465 7.92023 1.20483L7.35474 0.722656Q7.03552 0.437012 6.75133 0.282288Q6.46713 0.127563 6.12274 0.0637817Q5.77835 0 5.29083 0L2.51373 0Q1.2912 0 0.645599 0.665817Q0 1.33163 0 2.66998Z"
                     fill="#5e5ce6" />
       </g>
</svg>