<svg width="21.8842" height="17.6468">
       <g>
              <rect height="17.6468" opacity="0" width="21.8842" x="0" y="0" />
              <path d="M2.87872 17.5502L19.1985 17.5502Q20.4797 17.5502 21.1819 16.8297Q21.8842 16.1092 21.8842 14.6954L21.8842 4.65088Q21.8842 3.24692 21.1565 2.52304Q20.4289 1.79916 19.0054 1.79916L9.56375 1.79916Q9.00513 1.79916 8.65425 1.67191Q8.30338 1.54465 7.92023 1.20483L7.35474 0.722656Q7.03552 0.437012 6.75133 0.282288Q6.46713 0.127563 6.12274 0.0637817Q5.77835 0 5.29083 0L2.51373 0Q1.2912 0 0.645599 0.665817Q0 1.33163 0 2.66998L0 14.6954Q0 16.1153 0.724182 16.8327Q1.44836 17.5502 2.87872 17.5502ZM2.90131 16.3411Q2.07504 16.3411 1.642 15.9115Q1.20895 15.4819 1.20895 14.6355L1.20895 2.74872Q1.20895 1.97159 1.59821 1.58234Q1.98746 1.19308 2.74506 1.19308L4.99939 1.19308Q5.53909 1.19308 5.88211 1.3253Q6.22513 1.45752 6.61743 1.80939L7.17972 2.29828Q7.48322 2.565 7.77534 2.71973Q8.06747 2.87445 8.42278 2.93976Q8.77808 3.00507 9.26559 3.00507L18.9761 3.00507Q19.7835 3.00507 20.2308 3.43964Q20.6781 3.87421 20.6781 4.71756L20.6781 14.6422Q20.6781 15.4819 20.2308 15.9115Q19.7835 16.3411 18.9761 16.3411ZM0.723877 6.60965L21.1655 6.60965L21.1655 5.46799L0.723877 5.46799Z"
                     fill="#5e5ce6" />
       </g>
</svg>