<svg width="19.5898" height="19.5996">
       <g>
              <rect height="19.5996" opacity="0" width="19.5898" x="0" y="0" />
              <path d="M9.79492 19.5898Q11.8066 19.5898 13.5791 18.8232Q15.3516 18.0566 16.7041 16.7041Q18.0566 15.3516 18.8232 13.5791Q19.5898 11.8066 19.5898 9.79492Q19.5898 7.7832 18.8232 6.01074Q18.0566 4.23828 16.7041 2.88574Q15.3516 1.5332 13.5742 0.766602Q11.7969 0 9.78516 0Q7.77344 0 6.00098 0.766602Q4.22852 1.5332 2.88086 2.88574Q1.5332 4.23828 0.766602 6.01074Q0 7.7832 0 9.79492Q0 11.8066 0.766602 13.5791Q1.5332 15.3516 2.88574 16.7041Q4.23828 18.0566 6.01074 18.8232Q7.7832 19.5898 9.79492 19.5898ZM9.79492 18.3203Q8.02734 18.3203 6.47949 17.6611Q4.93164 17.002 3.75977 15.8301Q2.58789 14.6582 1.92871 13.1104Q1.26953 11.5625 1.26953 9.79492Q1.26953 8.02734 1.92871 6.47949Q2.58789 4.93164 3.75977 3.75488Q4.93164 2.57812 6.47461 1.91895Q8.01758 1.25977 9.78516 1.25977Q11.5625 1.25977 13.1104 1.91895Q14.6582 2.57812 15.8301 3.75488Q17.002 4.93164 17.666 6.47949Q18.3301 8.02734 18.3301 9.79492Q18.3301 11.5625 17.666 13.1104Q17.002 14.6582 15.8301 15.8301Q14.6582 17.002 13.1152 17.6611Q11.5723 18.3203 9.79492 18.3203Z"
                     fill="#5e5ce6" />
              <path d="M5.67383 14.2188L14.0137 14.2188Q14.6484 14.2188 14.9951 13.8623Q15.3418 13.5059 15.3418 12.8125L15.3418 8.58398L4.24805 8.58398L4.24805 12.8125Q4.24805 13.5059 4.60938 13.8623Q4.9707 14.2188 5.67383 14.2188ZM4.24805 7.90039L15.3418 7.90039L15.3418 7.46094Q15.3418 6.76758 14.9805 6.40625Q14.6191 6.04492 13.916 6.04492L9.05273 6.04492Q8.76953 6.04492 8.59863 5.98145Q8.42773 5.91797 8.24219 5.75195L7.94922 5.51758Q7.70508 5.3125 7.5 5.23926Q7.29492 5.16602 6.94336 5.16602L5.48828 5.16602Q4.88281 5.16602 4.56543 5.49316Q4.24805 5.82031 4.24805 6.47461Z"
                     fill="#5e5ce6" />
       </g>
</svg>