<svg width="19.5898" height="19.5996">
       <g>
              <rect height="19.5996" opacity="0" width="19.5898" x="0" y="0" />
              <path d="M9.79492 19.5898Q11.8066 19.5898 13.5791 18.8232Q15.3516 18.0566 16.7041 16.7041Q18.0566 15.3516 18.8232 13.5791Q19.5898 11.8066 19.5898 9.79492Q19.5898 7.7832 18.8232 6.01074Q18.0566 4.23828 16.7041 2.88574Q15.3516 1.5332 13.5742 0.766602Q11.7969 0 9.78516 0Q7.77344 0 6.00098 0.766602Q4.22852 1.5332 2.88086 2.88574Q1.5332 4.23828 0.766602 6.01074Q0 7.7832 0 9.79492Q0 11.8066 0.766602 13.5791Q1.5332 15.3516 2.88574 16.7041Q4.23828 18.0566 6.01074 18.8232Q7.7832 19.5898 9.79492 19.5898Z"
                     fill="#ff9f0a" />
              <path d="M7.63672 16.3184Q7.29492 16.3184 7.08496 16.1328Q6.875 15.9473 6.88477 15.6152L7.00195 9.23828Q7.00195 9.0918 6.93848 8.98438Q6.875 8.87695 6.74805 8.81836Q6.19141 8.57422 5.95703 8.23242Q5.72266 7.89062 5.75195 7.14844L5.91797 3.70117Q5.9375 3.32031 6.2793 3.32031Q6.63086 3.32031 6.63086 3.70117L6.5918 7.07031Q6.5918 7.40234 6.89453 7.40234Q7.2168 7.40234 7.2168 7.08984L7.26562 3.61328Q7.26562 3.25195 7.63672 3.25195Q8.00781 3.25195 8.00781 3.61328L8.04688 7.08984Q8.04688 7.40234 8.36914 7.40234Q8.68164 7.40234 8.68164 7.07031L8.64258 3.70117Q8.64258 3.32031 8.99414 3.32031Q9.33594 3.32031 9.35547 3.70117L9.52148 7.14844Q9.56055 7.89062 9.32617 8.23242Q9.0918 8.57422 8.53516 8.81836Q8.39844 8.87695 8.33984 8.98438Q8.28125 9.0918 8.28125 9.23828L8.38867 15.6152Q8.39844 15.9473 8.18848 16.1328Q7.97852 16.3184 7.63672 16.3184ZM11.6113 11.6113Q11.6211 11.25 11.3281 11.0449L11.0449 10.8398Q10.8301 10.6738 10.7227 10.4688Q10.6152 10.2637 10.6152 9.95117L10.6152 9.54102Q10.6152 8.37891 10.7959 7.25586Q10.9766 6.13281 11.3135 5.18555Q11.6504 4.23828 12.1094 3.59375Q12.3438 3.25195 12.6074 3.25195Q12.7539 3.25195 12.8711 3.34473Q12.9883 3.4375 12.9883 3.65234L12.9883 15.6348Q12.9883 15.9668 12.7783 16.1426Q12.5684 16.3184 12.2168 16.3184Q11.8848 16.3184 11.6699 16.1279Q11.4551 15.9375 11.4648 15.5566Z"
                     fill="#ffffff" />
       </g>
</svg>