<svg width="12.9861" height="23.7012">
       <g>
              <rect height="23.7012" opacity="0" width="12.9861" x="0" y="0" />
              <path d="M3.22051 22.373Q3.80645 22.373 4.15801 22.0508Q4.50958 21.7285 4.50958 21.1523L4.31426 10.2637Q4.3045 10 4.40704 9.81934Q4.50958 9.63867 4.74395 9.54102Q5.36895 9.25781 5.75469 8.91602Q6.14043 8.57422 6.30157 8.05176Q6.4627 7.5293 6.4334 6.68945L6.16973 0.771484Q6.14043 0.146484 5.5252 0.146484Q5.25176 0.146484 5.09551 0.317383Q4.93926 0.488281 4.93926 0.800781L4.99786 6.54297Q4.99786 6.80664 4.85137 6.94824Q4.70489 7.08984 4.47051 7.08984Q4.23614 7.08984 4.08477 6.95312Q3.9334 6.81641 3.9334 6.57227L3.83575 0.625Q3.83575 0.332031 3.66973 0.166016Q3.50372 0 3.22051 0Q2.93731 0 2.76641 0.166016Q2.59551 0.332031 2.59551 0.625L2.49786 6.57227Q2.49786 6.81641 2.34649 6.95312Q2.19512 7.08984 1.96075 7.08984Q1.44317 7.08984 1.44317 6.54297L1.50176 0.800781Q1.50176 0.488281 1.34551 0.317383Q1.18926 0.146484 0.906059 0.146484Q0.622856 0.146484 0.451958 0.3125Q0.281059 0.478516 0.261528 0.771484L0.00762195 6.68945Q-0.0314405 7.5293 0.129692 8.05176Q0.290825 8.57422 0.676567 8.91602Q1.06231 9.25781 1.68731 9.54102Q1.92168 9.63867 2.02422 9.81934Q2.12676 10 2.12676 10.2637L1.93145 21.1523Q1.92168 21.7285 2.27325 22.0508Q2.62481 22.373 3.22051 22.373ZM10.6326 14.1797L10.3982 21.0352Q10.369 21.709 10.7352 22.041Q11.1014 22.373 11.6775 22.373Q12.2635 22.373 12.6248 22.0654Q12.9861 21.7578 12.9861 21.1816L12.9861 0.673828Q12.9861 0.332031 12.7957 0.166016Q12.6053 0 12.3514 0Q12.0779 0 11.8924 0.146484Q11.7068 0.292969 11.492 0.595703Q10.9061 1.41602 10.4324 2.54395Q9.95879 3.67188 9.62188 5.00977Q9.28497 6.34766 9.1043 7.8125Q8.92364 9.27734 8.92364 10.7715L8.92364 11.3477Q8.92364 11.8848 9.1043 12.2461Q9.28497 12.6074 9.64629 12.8613L10.1541 13.2129Q10.408 13.3984 10.5252 13.6328Q10.6424 13.8672 10.6326 14.1797Z"
                     fill="#98989d" />
       </g>
</svg>