<svg width="19.5898" height="19.5996">
       <g>
              <rect height="19.5996" opacity="0" width="19.5898" x="0" y="0" />
              <path d="M9.79492 19.5898Q11.8066 19.5898 13.5791 18.8232Q15.3516 18.0566 16.7041 16.7041Q18.0566 15.3516 18.8232 13.5791Q19.5898 11.8066 19.5898 9.79492Q19.5898 7.7832 18.8232 6.01074Q18.0566 4.23828 16.7041 2.88574Q15.3516 1.5332 13.5742 0.766602Q11.7969 0 9.78516 0Q7.77344 0 6.00098 0.766602Q4.22852 1.5332 2.88086 2.88574Q1.5332 4.23828 0.766602 6.01074Q0 7.7832 0 9.79492Q0 11.8066 0.766602 13.5791Q1.5332 15.3516 2.88574 16.7041Q4.23828 18.0566 6.01074 18.8232Q7.7832 19.5898 9.79492 19.5898ZM9.79492 18.3203Q8.02734 18.3203 6.47949 17.6611Q4.93164 17.002 3.75977 15.8301Q2.58789 14.6582 1.92871 13.1104Q1.26953 11.5625 1.26953 9.79492Q1.26953 8.02734 1.92871 6.47949Q2.58789 4.93164 3.75977 3.75488Q4.93164 2.57812 6.47461 1.91895Q8.01758 1.25977 9.78516 1.25977Q11.5625 1.25977 13.1104 1.91895Q14.6582 2.57812 15.8301 3.75488Q17.002 4.93164 17.666 6.47949Q18.3301 8.02734 18.3301 9.79492Q18.3301 11.5625 17.666 13.1104Q17.002 14.6582 15.8301 15.8301Q14.6582 17.002 13.1152 17.6611Q11.5723 18.3203 9.79492 18.3203Z"
                     fill="#ff9f0a" />
              <path d="M7.72461 16.1914Q8.06641 16.1914 8.27148 16.0107Q8.47656 15.8301 8.4668 15.498L8.35938 9.25781Q8.35938 8.95508 8.60352 8.83789Q9.15039 8.60352 9.37988 8.26172Q9.60938 7.91992 9.57031 7.20703L9.41406 3.81836Q9.39453 3.45703 9.0625 3.45703Q8.7207 3.45703 8.7207 3.82812L8.75 7.12891Q8.75 7.45117 8.44727 7.45117Q8.13477 7.45117 8.13477 7.13867L8.08594 3.74023Q8.08594 3.37891 7.72461 3.37891Q7.37305 3.37891 7.37305 3.74023L7.32422 7.13867Q7.32422 7.45117 7.01172 7.45117Q6.70898 7.45117 6.70898 7.12891L6.74805 3.82812Q6.74805 3.45703 6.40625 3.45703Q6.06445 3.45703 6.04492 3.81836L5.88867 7.20703Q5.85938 7.91992 6.08887 8.26172Q6.31836 8.60352 6.85547 8.83789Q6.99219 8.90625 7.0459 9.00391Q7.09961 9.10156 7.09961 9.25781L7.00195 15.498Q6.99219 15.8301 7.19238 16.0107Q7.39258 16.1914 7.72461 16.1914ZM11.4941 11.582L11.3574 15.4297Q11.3477 15.8105 11.5576 16.001Q11.7676 16.1914 12.0996 16.1914Q12.4414 16.1914 12.6416 16.0156Q12.8418 15.8398 12.8418 15.5176L12.8418 3.76953Q12.8418 3.56445 12.7295 3.47168Q12.6172 3.37891 12.4805 3.37891Q12.2168 3.37891 11.9922 3.7207Q11.543 4.3457 11.2109 5.27344Q10.8789 6.20117 10.6982 7.30469Q10.5176 8.4082 10.5176 9.55078L10.5176 9.95117Q10.5176 10.2539 10.6299 10.459Q10.7422 10.6641 10.9473 10.8203L11.2207 11.0156Q11.5137 11.2402 11.4941 11.582Z"
                     fill="#ff9f0a" />
       </g>
</svg>