<svg width="19.5898" height="19.5996">
       <g>
              <rect height="19.5996" opacity="0" width="19.5898" x="0" y="0" />
              <path d="M9.79492 19.5898Q11.8066 19.5898 13.5791 18.8232Q15.3516 18.0566 16.7041 16.7041Q18.0566 15.3516 18.8232 13.5791Q19.5898 11.8066 19.5898 9.79492Q19.5898 7.7832 18.8232 6.01074Q18.0566 4.23828 16.7041 2.88574Q15.3516 1.5332 13.5742 0.766602Q11.7969 0 9.78516 0Q7.77344 0 6.00098 0.766602Q4.22852 1.5332 2.88086 2.88574Q1.5332 4.23828 0.766602 6.01074Q0 7.7832 0 9.79492Q0 11.8066 0.766602 13.5791Q1.5332 15.3516 2.88574 16.7041Q4.23828 18.0566 6.01074 18.8232Q7.7832 19.5898 9.79492 19.5898Z"
                     fill="rgba(255,255,255,0.55)" />
              <path d="M14.082 13.0566Q14.082 13.623 13.5156 13.623L12.4414 13.623Q11.875 13.623 11.875 13.0566L11.875 10.0977Q11.7773 10.293 11.5527 10.4199L6.61133 13.3301Q6.49414 13.3984 6.37207 13.4424Q6.25 13.4863 6.12305 13.4863Q5.87891 13.4863 5.69336 13.3057Q5.50781 13.125 5.50781 12.7637L5.50781 6.86523Q5.50781 6.50391 5.69336 6.32324Q5.87891 6.14258 6.12305 6.14258Q6.25 6.14258 6.37207 6.18652Q6.49414 6.23047 6.61133 6.29883L11.5527 9.20898Q11.7773 9.33594 11.875 9.53125L11.875 6.5332Q11.875 5.9668 12.4414 5.9668L13.5156 5.9668Q14.082 5.9668 14.082 6.5332Z"
                     fill="#ffffff" />
       </g>
</svg>