<svg width="19.5898" height="19.5996">
       <g>
              <rect height="19.5996" opacity="0" width="19.5898" x="0" y="0" />
              <path d="M9.79492 19.5898Q11.8066 19.5898 13.5791 18.8232Q15.3516 18.0566 16.7041 16.7041Q18.0566 15.3516 18.8232 13.5791Q19.5898 11.8066 19.5898 9.79492Q19.5898 7.7832 18.8232 6.01074Q18.0566 4.23828 16.7041 2.88574Q15.3516 1.5332 13.5742 0.766602Q11.7969 0 9.78516 0Q7.77344 0 6.00098 0.766602Q4.22852 1.5332 2.88086 2.88574Q1.5332 4.23828 0.766602 6.01074Q0 7.7832 0 9.79492Q0 11.8066 0.766602 13.5791Q1.5332 15.3516 2.88574 16.7041Q4.23828 18.0566 6.01074 18.8232Q7.7832 19.5898 9.79492 19.5898Z"
                     fill="rgba(255,255,255,0.55)" />
              <path d="M16.9629 9.81445Q16.9629 9.99023 16.8652 10.1416Q16.7676 10.293 16.5625 10.4199L11.6211 13.3301Q11.377 13.4766 11.123 13.4766Q10.8789 13.4766 10.6982 13.2959Q10.5176 13.1152 10.5176 12.7539L10.5176 10.0684Q10.4688 10.1758 10.3857 10.2588Q10.3027 10.3418 10.1758 10.4199L5.23438 13.3301Q4.99023 13.4766 4.73633 13.4766Q4.49219 13.4766 4.30664 13.2959Q4.12109 13.1152 4.12109 12.7539L4.12109 6.875Q4.12109 6.50391 4.30664 6.32812Q4.49219 6.15234 4.73633 6.15234Q4.99023 6.15234 5.23438 6.29883L10.1758 9.20898Q10.3027 9.28711 10.3857 9.37012Q10.4688 9.45312 10.5176 9.56055L10.5176 6.875Q10.5176 6.50391 10.6982 6.32812Q10.8789 6.15234 11.123 6.15234Q11.377 6.15234 11.6211 6.29883L16.5625 9.20898Q16.7676 9.32617 16.8652 9.47754Q16.9629 9.62891 16.9629 9.81445Z"
                     fill="#ffffff" />
       </g>
</svg>