<svg width="19.5898" height="19.6387">
       <g>
              <rect height="19.6387" opacity="0" width="19.5898" x="0" y="0" />
              <path d="M9.79492 19.6387Q11.8066 19.6387 13.5791 18.8721Q15.3516 18.1055 16.7041 16.7529Q18.0566 15.4004 18.8232 13.6279Q19.5898 11.8555 19.5898 9.84375Q19.5898 7.83203 18.8232 6.05957Q18.0566 4.28711 16.7041 2.93457Q15.3516 1.58203 13.5742 0.81543Q11.7969 0.0488281 9.78516 0.0488281Q7.77344 0.0488281 6.00098 0.81543Q4.22852 1.58203 2.88086 2.93457Q1.5332 4.28711 0.766602 6.05957Q0 7.83203 0 9.84375Q0 11.8555 0.766602 13.6279Q1.5332 15.4004 2.88574 16.7529Q4.23828 18.1055 6.01074 18.8721Q7.7832 19.6387 9.79492 19.6387Z"
                     fill="rgba(255,255,255,0.55)" />
              <path d="M5.2832 15.4004Q5.12695 15.4004 5.01953 15.2881Q4.91211 15.1758 4.91211 15.0195Q4.91211 14.873 5.01953 14.7705Q5.12695 14.668 5.2832 14.668L5.57617 14.668L5.57617 5.24414Q5.57617 4.61914 5.9082 4.28711Q6.24023 3.95508 6.86523 3.95508L11.3281 3.95508Q12.6172 3.95508 12.6172 5.24414L12.6172 12.627L14.1113 12.627Q14.6289 12.627 14.6289 12.1191L14.6289 9.01367L13.8086 8.03711Q13.457 7.62695 13.7695 7.19727L14.5117 6.14258L13.7402 4.91211Q13.623 4.7168 13.7256 4.56055Q13.8281 4.4043 14.0137 4.37988Q14.1992 4.35547 14.3262 4.55078L15.0488 5.72266Q15.1758 5.92773 15.2441 6.13281Q15.3125 6.33789 15.3125 6.60156L15.3125 12.1289Q15.3125 12.7148 15.0098 13.0127Q14.707 13.3105 14.1211 13.3105L12.6172 13.3105L12.6172 14.668L12.8516 14.668Q13.0469 14.668 13.1641 14.7705Q13.2812 14.873 13.2812 15.0195Q13.2812 15.1758 13.1641 15.2881Q13.0469 15.4004 12.8516 15.4004ZM6.86523 9.02344Q6.86523 9.47266 7.34375 9.47266L10.8496 9.47266Q11.3184 9.47266 11.3184 9.02344L11.3184 5.75195Q11.3184 5.3125 10.8496 5.3125L7.34375 5.3125Q6.86523 5.3125 6.86523 5.75195Z"
                     fill="#ffffff" />
       </g>
</svg>