<svg width="19.5898" height="19.5996">
       <g>
              <rect height="19.5996" opacity="0" width="19.5898" x="0" y="0" />
              <path d="M9.79492 19.5898Q11.8066 19.5898 13.5791 18.8232Q15.3516 18.0566 16.7041 16.7041Q18.0566 15.3516 18.8232 13.5791Q19.5898 11.8066 19.5898 9.79492Q19.5898 7.7832 18.8232 6.01074Q18.0566 4.23828 16.7041 2.88574Q15.3516 1.5332 13.5742 0.766602Q11.7969 0 9.78516 0Q7.77344 0 6.00098 0.766602Q4.22852 1.5332 2.88086 2.88574Q1.5332 4.23828 0.766602 6.01074Q0 7.7832 0 9.79492Q0 11.8066 0.766602 13.5791Q1.5332 15.3516 2.88574 16.7041Q4.23828 18.0566 6.01074 18.8232Q7.7832 19.5898 9.79492 19.5898Z"
                     fill="rgba(255,255,255,0.55)" />
              <path d="M9.87305 14.5312Q8.58398 14.5312 7.6416 13.9404Q6.69922 13.3496 6.17676 12.2754Q5.6543 11.2012 5.6543 9.73633Q5.6543 8.29102 6.17188 7.21191Q6.68945 6.13281 7.63184 5.53711Q8.57422 4.94141 9.84375 4.94141Q10.8301 4.94141 11.5771 5.27344Q12.3242 5.60547 12.8027 6.13281Q13.2812 6.66016 13.4668 7.25586Q13.4961 7.36328 13.5156 7.45605Q13.5352 7.54883 13.5352 7.65625Q13.5352 7.91992 13.3887 8.07129Q13.2422 8.22266 12.9883 8.22266Q12.7832 8.22266 12.6611 8.12012Q12.5391 8.01758 12.4609 7.80273Q12.1973 6.96289 11.5137 6.48926Q10.8301 6.01562 9.86328 6.01562Q8.98438 6.01562 8.3252 6.48438Q7.66602 6.95312 7.2998 7.79297Q6.93359 8.63281 6.93359 9.73633Q6.93359 10.8594 7.30469 11.6943Q7.67578 12.5293 8.33496 12.998Q8.99414 13.4668 9.88281 13.4668Q11.1035 13.4668 11.748 12.8223Q12.3926 12.1777 12.3926 11.0938L12.3926 10.498L10.1855 10.498Q9.96094 10.498 9.83398 10.3564Q9.70703 10.2148 9.70703 10.0195Q9.70703 9.81445 9.83398 9.67773Q9.96094 9.54102 10.1855 9.54102L12.998 9.54102Q13.6523 9.54102 13.6523 10.2246L13.6523 10.957Q13.6523 12.0215 13.1934 12.8271Q12.7344 13.6328 11.8896 14.082Q11.0449 14.5312 9.87305 14.5312Z"
                     fill="#ffffff" />
       </g>
</svg>