<svg width="17.6855" height="17.7051">
       <g>
              <rect height="17.7051" opacity="0" width="17.6855" x="0" y="0" />
              <path d="M2.88086 17.7051L14.8047 17.7051Q16.2305 17.7051 16.958 16.9873Q17.6855 16.2695 17.6855 14.8535L17.6855 2.88086Q17.6855 1.46484 16.958 0.742188Q16.2305 0.0195312 14.8047 0.0195312L2.88086 0.0195312Q1.44531 0.0195312 0.722656 0.737305Q0 1.45508 0 2.88086L0 14.8535Q0 16.2695 0.722656 16.9873Q1.44531 17.7051 2.88086 17.7051Z"
                     fill="rgba(255,255,255,0.55)" />
              <path d="M8.92578 13.584Q7.63672 13.584 6.69434 12.9932Q5.75195 12.4023 5.22949 11.3281Q4.70703 10.2539 4.70703 8.78906Q4.70703 7.34375 5.22461 6.26465Q5.74219 5.18555 6.68457 4.58984Q7.62695 3.99414 8.89648 3.99414Q9.88281 3.99414 10.6299 4.32617Q11.377 4.6582 11.8555 5.18555Q12.334 5.71289 12.5195 6.30859Q12.5488 6.41602 12.5684 6.50879Q12.5879 6.60156 12.5879 6.70898Q12.5879 6.97266 12.4414 7.12402Q12.2949 7.27539 12.041 7.27539Q11.8359 7.27539 11.7139 7.17285Q11.5918 7.07031 11.5137 6.85547Q11.25 6.01562 10.5664 5.54199Q9.88281 5.06836 8.91602 5.06836Q8.03711 5.06836 7.37793 5.53711Q6.71875 6.00586 6.35254 6.8457Q5.98633 7.68555 5.98633 8.78906Q5.98633 9.91211 6.35742 10.7471Q6.72852 11.582 7.3877 12.0508Q8.04688 12.5195 8.93555 12.5195Q10.1562 12.5195 10.8008 11.875Q11.4453 11.2305 11.4453 10.1465L11.4453 9.55078L9.23828 9.55078Q9.01367 9.55078 8.88672 9.40918Q8.75977 9.26758 8.75977 9.07227Q8.75977 8.86719 8.88672 8.73047Q9.01367 8.59375 9.23828 8.59375L12.0508 8.59375Q12.7051 8.59375 12.7051 9.27734L12.7051 10.0098Q12.7051 11.0742 12.2461 11.8799Q11.7871 12.6855 10.9424 13.1348Q10.0977 13.584 8.92578 13.584Z"
                     fill="#ffffff" />
       </g>
</svg>