<svg width="19.5898" height="19.5996">
       <g>
              <rect height="19.5996" opacity="0" width="19.5898" x="0" y="0" />
              <path d="M9.79492 19.5996Q11.8066 19.5996 13.5791 18.833Q15.3516 18.0664 16.7041 16.7139Q18.0566 15.3613 18.8232 13.5889Q19.5898 11.8164 19.5898 9.80469Q19.5898 7.79297 18.8232 6.02051Q18.0566 4.24805 16.7041 2.89551Q15.3516 1.54297 13.5742 0.776367Q11.7969 0.00976562 9.78516 0.00976562Q7.77344 0.00976562 6.00098 0.776367Q4.22852 1.54297 2.88086 2.89551Q1.5332 4.24805 0.766602 6.02051Q0 7.79297 0 9.80469Q0 11.8164 0.766602 13.5889Q1.5332 15.3613 2.88574 16.7139Q4.23828 18.0664 6.01074 18.833Q7.7832 19.5996 9.79492 19.5996Z"
                     fill="rgba(255,255,255,0.55)" />
              <path d="M9.25781 15.6543Q9.0332 15.6543 8.88184 15.5273Q8.73047 15.4004 8.68164 15.1758L8.38867 13.9648Q8.24219 13.916 8.10059 13.8574Q7.95898 13.7988 7.83203 13.7402L6.76758 14.3945Q6.58203 14.5312 6.38672 14.5068Q6.19141 14.4824 6.02539 14.3262L5.2832 13.584Q5.11719 13.418 5.09766 13.2129Q5.07812 13.0078 5.20508 12.8223L5.85938 11.7676Q5.80078 11.6406 5.74219 11.499Q5.68359 11.3574 5.63477 11.2207L4.42383 10.9375Q4.19922 10.8789 4.07715 10.7275Q3.95508 10.5762 3.95508 10.3516L3.95508 9.28711Q3.95508 9.0625 4.07715 8.91113Q4.19922 8.75977 4.42383 8.71094L5.625 8.42773Q5.68359 8.27148 5.74219 8.12988Q5.80078 7.98828 5.84961 7.86133L5.19531 6.80664Q5.06836 6.61133 5.08789 6.41602Q5.10742 6.2207 5.26367 6.04492L6.02539 5.30273Q6.35742 4.9707 6.75781 5.22461L7.82227 5.88867Q7.95898 5.82031 8.10059 5.7666Q8.24219 5.71289 8.38867 5.6543L8.68164 4.45312Q8.73047 4.20898 8.88184 4.08691Q9.0332 3.96484 9.25781 3.96484L10.3418 3.96484Q10.5664 3.96484 10.7178 4.08691Q10.8691 4.20898 10.918 4.45312L11.2012 5.66406Q11.3574 5.71289 11.499 5.77148Q11.6406 5.83008 11.7578 5.88867L12.832 5.22461Q13.2324 4.98047 13.5645 5.30273L14.3262 6.04492Q14.4922 6.2207 14.5068 6.41602Q14.5215 6.61133 14.4043 6.80664L13.7402 7.86133Q13.7891 7.98828 13.8477 8.12988Q13.9062 8.27148 13.9551 8.42773L15.166 8.71094Q15.4004 8.75977 15.5225 8.91113Q15.6445 9.0625 15.6445 9.28711L15.6445 10.3516Q15.6445 10.5762 15.5225 10.7275Q15.4004 10.8789 15.166 10.9375L13.9551 11.2207Q13.9062 11.3574 13.8525 11.499Q13.7988 11.6406 13.7305 11.7676L14.3848 12.8223Q14.5215 13.0078 14.4971 13.2129Q14.4727 13.418 14.3164 13.584L13.5645 14.3262Q13.4082 14.4824 13.208 14.5068Q13.0078 14.5312 12.832 14.3945L11.7578 13.7402Q11.6406 13.7988 11.4941 13.8574Q11.3477 13.916 11.2012 13.9648L10.918 15.1758Q10.8691 15.4004 10.7178 15.5273Q10.5664 15.6543 10.3418 15.6543ZM9.80469 11.8164Q10.6348 11.8164 11.2256 11.2256Q11.8164 10.6348 11.8164 9.79492Q11.8164 8.98438 11.2256 8.38867Q10.6348 7.79297 9.80469 7.79297Q8.97461 7.79297 8.38379 8.38867Q7.79297 8.98438 7.79297 9.79492Q7.79297 10.6348 8.38379 11.2256Q8.97461 11.8164 9.80469 11.8164Z"
                     fill="#ffffff" />
       </g>
</svg>