<svg width="21.8135" height="21.5448">
       <g>
              <rect height="21.5448" opacity="0" width="21.8135" x="0" y="0" />
              <path d="M10.9053 20.3099Q11.1188 20.3099 11.3221 20.2968Q11.5254 20.2837 11.7397 20.258L12.269 21.2747Q12.3412 21.4287 12.4762 21.4962Q12.6112 21.5637 12.8102 21.5375Q12.9829 21.5113 13.0854 21.4005Q13.1879 21.2898 13.2111 21.1006L13.374 19.9765Q13.7686 19.8728 14.1648 19.7303Q14.561 19.5879 14.933 19.4106L15.7664 20.1561Q15.8911 20.2867 16.0427 20.3033Q16.1943 20.3198 16.367 20.2312Q16.6628 20.0699 16.5936 19.6832L16.3646 18.5781Q16.7007 18.3518 17.0243 18.0849Q17.3479 17.818 17.6425 17.5113L18.672 17.946Q19.0013 18.0992 19.2694 17.7884Q19.3927 17.6578 19.4028 17.5111Q19.4128 17.3644 19.3054 17.2045L18.7041 16.2433Q18.9497 15.9104 19.1531 15.5465Q19.3565 15.1827 19.5287 14.8038L20.6693 14.8595Q20.8487 14.8693 20.9759 14.7867Q21.1031 14.7042 21.1586 14.5278Q21.2172 14.3579 21.171 14.2128Q21.1249 14.0677 20.9845 13.9565L20.0984 13.2506Q20.2052 12.8627 20.2799 12.4504Q20.3546 12.0381 20.387 11.6045L21.4555 11.2711Q21.8135 11.1434 21.8135 10.7854Q21.8135 10.4341 21.4555 10.3066L20.387 9.9634Q20.3546 9.53936 20.2784 9.13042Q20.2022 8.72149 20.0984 8.3269L20.9845 7.61431Q21.1218 7.51299 21.1665 7.37604Q21.2111 7.2391 21.1586 7.05965Q21.1031 6.88311 20.9759 6.79911Q20.8487 6.71511 20.6693 6.72488L19.5287 6.77065Q19.3535 6.38888 19.1516 6.02991Q18.9497 5.67095 18.7041 5.33114L19.3054 4.37014Q19.4098 4.22289 19.3997 4.07625Q19.3896 3.92962 19.2694 3.79885Q19.0013 3.48498 18.672 3.63817L17.6425 4.05657Q17.3479 3.76925 17.0243 3.49909Q16.7007 3.22893 16.3646 3.00265L16.5936 1.90401Q16.6296 1.70504 16.5752 1.56664Q16.5208 1.42824 16.367 1.34936Q16.1943 1.25475 16.0442 1.27276Q15.8942 1.29076 15.7664 1.42519L14.933 2.15731Q14.561 1.98595 14.1648 1.8487Q13.7686 1.71145 13.374 1.60403L13.2111 0.479911Q13.1879 0.297416 13.084 0.186789Q12.98 0.0761632 12.7974 0.0499181Q12.6112 0.0235204 12.4762 0.0895909Q12.3412 0.155661 12.269 0.299704L11.7397 1.3225Q11.5254 1.29992 11.3221 1.28718Q11.1188 1.27444 10.9053 1.27444Q10.6978 1.27444 10.4941 1.28718Q10.2904 1.29992 10.0769 1.3225L9.54391 0.299704Q9.46869 0.155661 9.33365 0.0895909Q9.19861 0.0235204 9.00635 0.0499181Q8.8269 0.0761632 8.72597 0.186789Q8.62503 0.297416 8.6055 0.479911L8.43887 1.59121Q8.04123 1.70473 7.64847 1.84382Q7.25571 1.9829 6.87988 2.15731L6.0434 1.42824Q5.91263 1.29381 5.76416 1.27581Q5.61569 1.2578 5.44586 1.34936Q5.289 1.42824 5.23613 1.56664Q5.18326 1.70504 5.21927 1.90401L5.44525 3.00265Q5.10925 3.22893 4.78714 3.49909Q4.46503 3.76925 4.17038 4.05657L3.14087 3.63817Q2.80853 3.48498 2.54715 3.79885Q2.42325 3.92962 2.41165 4.07473Q2.40005 4.21984 2.50137 4.35732L3.10883 5.33114Q2.86987 5.67095 2.66312 6.02991Q2.45636 6.38888 2.28119 6.77065L1.14731 6.72488Q0.961151 6.71511 0.837326 6.79911Q0.713501 6.88311 0.651245 7.05965Q0.586548 7.2391 0.630875 7.37604Q0.675201 7.51299 0.8284 7.61431L1.71448 8.3269Q1.60767 8.72149 1.53481 9.12897Q1.46194 9.53646 1.43631 9.96035L0.354309 10.3066Q0 10.4213 0 10.7854Q0 11.1464 0.354309 11.2711L1.43631 11.6142Q1.46194 12.0381 1.53328 12.4504Q1.60461 12.8627 1.71448 13.2506L0.8284 13.9565Q0.688019 14.0616 0.645218 14.2034Q0.602417 14.3451 0.651245 14.5278Q0.713501 14.7042 0.837326 14.7867Q0.961151 14.8693 1.14731 14.8595L2.28119 14.8038Q2.45331 15.1827 2.66159 15.5465Q2.86987 15.9104 3.10287 16.2433L2.50748 17.2045Q2.397 17.3644 2.4086 17.5111Q2.4202 17.6578 2.54715 17.7884Q2.80853 18.0992 3.14087 17.946L4.17038 17.5113Q4.46503 17.818 4.78714 18.0849Q5.10925 18.3518 5.44525 18.5781L5.21927 19.6832Q5.18326 19.8755 5.23613 20.0125Q5.289 20.1494 5.44586 20.2312Q5.62546 20.3198 5.77057 20.3033Q5.91568 20.2867 6.0434 20.1561L6.87378 19.4106Q7.25571 19.5879 7.64847 19.7318Q8.04123 19.8758 8.43887 19.9796L8.6055 21.1006Q8.62503 21.2898 8.72749 21.4005Q8.82996 21.5113 9.01245 21.5375Q9.20166 21.5637 9.33517 21.4962Q9.46869 21.4287 9.54391 21.2747L10.0769 20.258Q10.2814 20.2837 10.4896 20.2968Q10.6978 20.3099 10.9053 20.3099ZM10.9053 19.1646Q9.16199 19.1646 7.65953 18.5188Q6.15707 17.8729 5.03105 16.7274Q3.90503 15.5818 3.27377 14.0598Q2.64252 12.5377 2.64252 10.7921Q2.64252 9.04345 3.27377 7.52146Q3.90503 5.99947 5.03105 4.85544Q6.15707 3.71142 7.65953 3.06559Q9.16199 2.41976 10.9053 2.41976Q12.6515 2.41976 14.1541 3.06559Q15.6566 3.71142 16.7826 4.85544Q17.9086 5.99947 18.5413 7.52146Q19.174 9.04345 19.174 10.7921Q19.174 12.5377 18.5413 14.0598Q17.9086 15.5818 16.7826 16.7274Q15.6566 17.8729 14.1541 18.5188Q12.6515 19.1646 10.9053 19.1646ZM10.9009 13.2506Q11.7377 13.2506 12.3689 12.734Q13.0002 12.2174 13.2504 11.3216L19.9565 11.3216L19.9467 10.2883L13.2445 10.2883Q12.9814 9.41805 12.3502 8.92069Q11.7189 8.42333 10.9009 8.42333Q10.7399 8.42333 10.5716 8.44889Q10.4033 8.47445 10.184 8.53548L6.81366 2.75881L5.87692 3.27624L9.28406 9.09624Q8.89267 9.46703 8.69011 9.90832Q8.48755 10.3496 8.48755 10.8373Q8.48755 11.3265 8.69583 11.7638Q8.90411 12.2011 9.30756 12.5853L5.81497 18.3316L6.73889 18.8843L10.2142 13.1499Q10.4176 13.2054 10.5833 13.228Q10.7491 13.2506 10.9009 13.2506ZM9.59579 10.8306Q9.59579 10.287 9.98703 9.90588Q10.3783 9.52471 10.9143 9.52471Q11.4542 9.52471 11.8454 9.90588Q12.2366 10.287 12.2366 10.8306Q12.2366 11.3733 11.8454 11.7627Q11.4542 12.1521 10.9143 12.1521Q10.3783 12.1521 9.98703 11.7627Q9.59579 11.3733 9.59579 10.8306Z"
                     fill="#98989d" />
       </g>
</svg>