<svg width="19.5898" height="19.5996">
       <g>
              <rect height="19.5996" opacity="0" width="19.5898" x="0" y="0" />
              <path d="M9.79492 19.5898Q11.8066 19.5898 13.5791 18.8232Q15.3516 18.0566 16.7041 16.7041Q18.0566 15.3516 18.8232 13.5791Q19.5898 11.8066 19.5898 9.79492Q19.5898 7.7832 18.8232 6.01074Q18.0566 4.23828 16.7041 2.88574Q15.3516 1.5332 13.5742 0.766602Q11.7969 0 9.78516 0Q7.77344 0 6.00098 0.766602Q4.22852 1.5332 2.88086 2.88574Q1.5332 4.23828 0.766602 6.01074Q0 7.7832 0 9.79492Q0 11.8066 0.766602 13.5791Q1.5332 15.3516 2.88574 16.7041Q4.23828 18.0566 6.01074 18.8232Q7.7832 19.5898 9.79492 19.5898ZM9.79492 18.3203Q8.02734 18.3203 6.47949 17.6611Q4.93164 17.002 3.75977 15.8301Q2.58789 14.6582 1.92871 13.1104Q1.26953 11.5625 1.26953 9.79492Q1.26953 8.02734 1.92871 6.47949Q2.58789 4.93164 3.75977 3.75488Q4.93164 2.57812 6.47461 1.91895Q8.01758 1.25977 9.78516 1.25977Q11.5625 1.25977 13.1104 1.91895Q14.6582 2.57812 15.8301 3.75488Q17.002 4.93164 17.666 6.47949Q18.3301 8.02734 18.3301 9.79492Q18.3301 11.5625 17.666 13.1104Q17.002 14.6582 15.8301 15.8301Q14.6582 17.002 13.1152 17.6611Q11.5723 18.3203 9.79492 18.3203Z"
                     fill="#98989d" />
              <path d="M9.78516 15.2539Q9.89258 15.2539 9.99023 15.2441Q10.0879 15.2344 10.1953 15.2344L10.4492 15.7227Q10.5762 15.9863 10.8789 15.9375Q11.1621 15.8984 11.2109 15.5957L11.2891 15.0391Q11.4844 14.9805 11.6748 14.917Q11.8652 14.8535 12.0508 14.7754L12.4512 15.1367Q12.6465 15.3223 12.9297 15.1953Q13.1543 15.0684 13.1152 14.7559L12.998 14.209Q13.1934 14.0723 13.3447 13.9453Q13.4961 13.8184 13.6133 13.7109L14.1211 13.8965Q14.3848 14.0332 14.5996 13.7793Q14.8047 13.5645 14.6289 13.3105L14.3359 12.832Q14.4531 12.666 14.5557 12.4902Q14.6582 12.3145 14.7266 12.1484L15.293 12.1777Q15.5957 12.1875 15.6738 11.9043Q15.8008 11.6309 15.5469 11.4551L15.0977 11.1035Q15.1562 10.918 15.1953 10.7178Q15.2344 10.5176 15.2539 10.3125L15.7812 10.1367Q16.0645 10.0391 16.0645 9.75586Q16.0645 9.47266 15.7812 9.36523L15.2539 9.20898Q15.2344 9.00391 15.1953 8.80859Q15.1562 8.61328 15.0977 8.41797L15.5469 8.06641Q15.7812 7.89062 15.6934 7.62695Q15.5859 7.32422 15.2832 7.35352L14.7266 7.37305Q14.6387 7.1875 14.541 7.01172Q14.4434 6.83594 14.3359 6.67969L14.6289 6.19141Q14.7949 5.9668 14.5996 5.73242Q14.3848 5.48828 14.1309 5.61523L13.6133 5.81055Q13.4863 5.69336 13.3301 5.56641Q13.1738 5.43945 12.998 5.3125L13.1152 4.76562Q13.1543 4.44336 12.9297 4.32617Q12.6562 4.16992 12.4512 4.38477L12.041 4.74609Q11.8652 4.66797 11.6748 4.59961Q11.4844 4.53125 11.2891 4.48242L11.2109 3.91602Q11.1621 3.62305 10.8789 3.58398Q10.7422 3.55469 10.625 3.61328Q10.5078 3.67188 10.4492 3.7793L10.1953 4.28711Q10.0879 4.28711 9.99023 4.28223Q9.89258 4.27734 9.78516 4.27734Q9.69727 4.27734 9.59473 4.28223Q9.49219 4.28711 9.39453 4.28711L9.12109 3.7793Q8.99414 3.53516 8.70117 3.58398Q8.4082 3.62305 8.36914 3.91602L8.29102 4.47266Q8.08594 4.53125 7.90039 4.59961Q7.71484 4.66797 7.5293 4.74609L7.12891 4.39453Q6.9043 4.17969 6.66016 4.32617Q6.40625 4.45312 6.45508 4.76562L6.57227 5.3125Q6.39648 5.43945 6.24512 5.56641Q6.09375 5.69336 5.9668 5.81055L5.44922 5.61523Q5.18555 5.48828 4.98047 5.73242Q4.77539 5.94727 4.94141 6.19141L5.24414 6.67969Q5.11719 6.85547 5.01953 7.03125Q4.92188 7.20703 4.85352 7.37305L4.28711 7.35352Q3.98438 7.32422 3.89648 7.61719Q3.7793 7.87109 4.0332 8.06641L4.46289 8.41797Q4.41406 8.62305 4.37988 8.81348Q4.3457 9.00391 4.32617 9.20898L3.79883 9.36523Q3.51562 9.47266 3.51562 9.75586Q3.51562 10.0391 3.79883 10.1367L4.32617 10.3125Q4.3457 10.498 4.375 10.7031Q4.4043 10.9082 4.46289 11.1035L4.0332 11.4551Q3.79883 11.6309 3.88672 11.9043Q3.98438 12.1875 4.27734 12.1777L4.85352 12.1484Q4.92188 12.3145 5.01953 12.4805Q5.11719 12.6465 5.23438 12.832L4.93164 13.3105Q4.86328 13.4473 4.87305 13.5693Q4.88281 13.6914 4.9707 13.7793Q5.18555 14.0332 5.45898 13.8965L5.9668 13.7109Q6.08398 13.8184 6.23535 13.9453Q6.38672 14.0723 6.57227 14.209L6.45508 14.7559Q6.40625 15.0684 6.66016 15.1953Q6.92383 15.332 7.12891 15.1367L7.5293 14.7754Q7.71484 14.8535 7.90527 14.9219Q8.0957 14.9902 8.29102 15.0391L8.36914 15.5957Q8.4082 15.8984 8.70117 15.9375Q8.99414 15.9863 9.12109 15.7227L9.39453 15.2344Q9.48242 15.2344 9.58984 15.2441Q9.69727 15.2539 9.78516 15.2539ZM9.78516 14.3652Q8.51562 14.3652 7.48047 13.75Q6.44531 13.1348 5.84473 12.0898Q5.24414 11.0449 5.24414 9.75586Q5.24414 8.47656 5.84473 7.43164Q6.44531 6.38672 7.48047 5.77148Q8.51562 5.15625 9.78516 5.15625Q11.0645 5.15625 12.0947 5.77148Q13.125 6.38672 13.7305 7.43164Q14.3359 8.47656 14.3359 9.75586Q14.3359 11.0449 13.7305 12.0898Q13.125 13.1348 12.0947 13.75Q11.0645 14.3652 9.78516 14.3652ZM9.78516 11.2695Q10.2734 11.2695 10.6543 10.9766Q11.0352 10.6836 11.2109 10.1855L15.0098 10.1855L15.0098 9.35547L11.1914 9.35547Q11.0156 8.86719 10.6396 8.58398Q10.2637 8.30078 9.78516 8.30078Q9.70703 8.30078 9.62402 8.31055Q9.54102 8.32031 9.44336 8.34961L7.51953 5.06836L6.78711 5.47852L8.7207 8.78906Q8.31055 9.22852 8.31055 9.78516Q8.31055 10.3613 8.74023 10.791L6.74805 14.0527L7.4707 14.4922L9.46289 11.2207Q9.55078 11.25 9.63379 11.2598Q9.7168 11.2695 9.78516 11.2695ZM9.16016 9.77539Q9.16016 9.53125 9.3457 9.35059Q9.53125 9.16992 9.78516 9.16992Q10.0488 9.16992 10.2344 9.35059Q10.4199 9.53125 10.4199 9.77539Q10.4199 10.0391 10.2344 10.2197Q10.0488 10.4004 9.78516 10.4004Q9.53125 10.4004 9.3457 10.2197Q9.16016 10.0391 9.16016 9.77539Z"
                     fill="#98989d" />
       </g>
</svg>