<svg width="19.5898" height="19.5996">
       <g>
              <rect height="19.5996" opacity="0" width="19.5898" x="0" y="0" />
              <path d="M9.79492 19.5996Q11.8066 19.5996 13.5791 18.833Q15.3516 18.0664 16.7041 16.7139Q18.0566 15.3613 18.8232 13.5889Q19.5898 11.8164 19.5898 9.80469Q19.5898 7.79297 18.8232 6.02051Q18.0566 4.24805 16.7041 2.89551Q15.3516 1.54297 13.5742 0.776367Q11.7969 0.00976562 9.78516 0.00976562Q7.77344 0.00976562 6.00098 0.776367Q4.22852 1.54297 2.88086 2.89551Q1.5332 4.24805 0.766602 6.02051Q0 7.79297 0 9.80469Q0 11.8164 0.766602 13.5889Q1.5332 15.3613 2.88574 16.7139Q4.23828 18.0664 6.01074 18.833Q7.7832 19.5996 9.79492 19.5996Z"
                     fill="#98989d" />
              <path d="M9.79492 15.3906Q9.69727 15.3906 9.58984 15.3857Q9.48242 15.3809 9.38477 15.3809L9.11133 15.8691Q8.98438 16.1523 8.68164 16.1035Q8.53516 16.084 8.44238 15.9912Q8.34961 15.8984 8.33008 15.7422L8.25195 15.1758Q8.06641 15.127 7.87109 15.0586Q7.67578 14.9902 7.49023 14.9121L7.08008 15.2734Q6.875 15.4785 6.5918 15.3418Q6.33789 15.1953 6.38672 14.8828L6.50391 14.3262Q6.31836 14.1895 6.16211 14.0625Q6.00586 13.9355 5.88867 13.8184L5.37109 14.0234Q5.09766 14.1504 4.87305 13.8965Q4.78516 13.7988 4.77539 13.6719Q4.76562 13.5449 4.83398 13.4082L5.14648 12.9297Q5.01953 12.7441 4.92676 12.5732Q4.83398 12.4023 4.74609 12.2266L4.16992 12.2559Q3.85742 12.2656 3.76953 11.9824Q3.67188 11.6992 3.91602 11.5137L4.35547 11.1621Q4.29688 10.957 4.26758 10.752Q4.23828 10.5469 4.21875 10.3516L3.67188 10.1758Q3.38867 10.0781 3.38867 9.78516Q3.38867 9.49219 3.67188 9.38477L4.21875 9.21875Q4.23828 9.02344 4.27246 8.82812Q4.30664 8.63281 4.35547 8.41797L3.91602 8.05664Q3.66211 7.86133 3.76953 7.60742Q3.85742 7.30469 4.16992 7.32422L4.74609 7.35352Q4.83398 7.1875 4.92676 7.00684Q5.01953 6.82617 5.14648 6.65039L4.84375 6.15234Q4.67773 5.89844 4.88281 5.68359Q5.09766 5.43945 5.36133 5.54688L5.88867 5.75195Q6.01562 5.63477 6.17188 5.50781Q6.32812 5.38086 6.50391 5.25391L6.38672 4.69727Q6.34766 4.38477 6.5918 4.24805Q6.8457 4.08203 7.08008 4.31641L7.49023 4.66797Q7.68555 4.58984 7.87109 4.52148Q8.05664 4.45312 8.25195 4.39453L8.33008 3.82812Q8.37891 3.52539 8.67188 3.48633Q8.98438 3.42773 9.11133 3.69141L9.38477 4.19922Q9.48242 4.19922 9.58984 4.19434Q9.69727 4.18945 9.79492 4.18945Q9.90234 4.18945 10 4.19434Q10.0977 4.19922 10.2051 4.19922L10.4688 3.69141Q10.5176 3.57422 10.6396 3.51562Q10.7617 3.45703 10.9082 3.48633Q11.2012 3.52539 11.2402 3.82812L11.3184 4.4043Q11.5234 4.45312 11.7139 4.52148Q11.9043 4.58984 12.0898 4.66797L12.5 4.30664Q12.7148 4.08203 12.998 4.24805Q13.2324 4.36523 13.1934 4.6875L13.0664 5.25391Q13.252 5.38086 13.4082 5.50781Q13.5645 5.63477 13.6914 5.75195L14.2285 5.54688Q14.4824 5.43945 14.707 5.68359Q14.8926 5.9082 14.7363 6.15234L14.4336 6.65039Q14.541 6.80664 14.6387 6.98242Q14.7363 7.1582 14.834 7.35352L15.4004 7.32422Q15.7129 7.30469 15.8105 7.60742Q15.8984 7.88086 15.6738 8.05664L15.2148 8.41797Q15.2734 8.61328 15.3076 8.81348Q15.3418 9.01367 15.3711 9.21875L15.9082 9.39453Q16.2012 9.50195 16.2012 9.78516Q16.2012 10.0781 15.9082 10.1758L15.3711 10.3516Q15.3418 10.5664 15.3076 10.7666Q15.2734 10.9668 15.2148 11.1621L15.6738 11.5137Q15.918 11.6992 15.8008 11.9824Q15.7227 12.2656 15.4102 12.2559L14.834 12.2266Q14.7559 12.4023 14.6533 12.5781Q14.5508 12.7539 14.4336 12.9297L14.7363 13.4082Q14.9121 13.6816 14.707 13.8965Q14.4922 14.1504 14.2188 14.0234L13.6914 13.8184Q13.5742 13.9355 13.418 14.0625Q13.2617 14.1895 13.0664 14.3262L13.1934 14.8926Q13.2324 15.2051 12.998 15.3418Q12.7148 15.4785 12.5 15.2734L12.0996 14.9121Q11.9043 14.9902 11.7139 15.0586Q11.5234 15.127 11.3184 15.1758L11.2402 15.752Q11.2207 15.8984 11.1328 15.9912Q11.0449 16.084 10.9082 16.1035Q10.5957 16.1523 10.4688 15.8691L10.2051 15.3809Q10.0977 15.3809 9.99512 15.3857Q9.89258 15.3906 9.79492 15.3906ZM5.15625 9.78516Q5.15625 10.9766 5.66895 11.9629Q6.18164 12.9492 7.04102 13.584L8.7207 10.8398Q8.28125 10.4004 8.28125 9.81445Q8.28125 9.23828 8.69141 8.78906L7.06055 5.97656Q6.19141 6.62109 5.67383 7.6123Q5.15625 8.60352 5.15625 9.78516ZM9.79492 5.09766Q9.25781 5.09766 8.75 5.21484Q8.24219 5.33203 7.79297 5.53711L9.44336 8.34961Q9.53125 8.32031 9.61914 8.31055Q9.70703 8.30078 9.78516 8.30078Q10.2832 8.30078 10.6689 8.58887Q11.0547 8.87695 11.2305 9.375L14.4043 9.375Q14.3066 8.1543 13.6719 7.1875Q13.0371 6.2207 12.0264 5.65918Q11.0156 5.09766 9.79492 5.09766ZM9.79492 14.4824Q11.0156 14.4824 12.0264 13.9209Q13.0371 13.3594 13.667 12.3926Q14.2969 11.4258 14.4043 10.2246L11.2402 10.2246Q11.0645 10.7324 10.6738 11.0303Q10.2832 11.3281 9.78516 11.3281Q9.7168 11.3281 9.63379 11.3184Q9.55078 11.3086 9.45312 11.2793L7.7832 14.043Q8.73047 14.4824 9.79492 14.4824ZM9.15039 9.80469Q9.15039 10.0684 9.34082 10.2539Q9.53125 10.4395 9.79492 10.4395Q10.0586 10.4395 10.249 10.2539Q10.4395 10.0684 10.4395 9.80469Q10.4395 9.56055 10.249 9.375Q10.0586 9.18945 9.79492 9.18945Q9.53125 9.18945 9.34082 9.375Q9.15039 9.56055 9.15039 9.80469Z"
                     fill="#ffffff" />
       </g>
</svg>