<svg width="19.5898" height="19.5996">
       <g>
              <rect height="19.5996" opacity="0" width="19.5898" x="0" y="0" />
              <path d="M9.79492 19.5996Q11.8066 19.5996 13.5791 18.833Q15.3516 18.0664 16.7041 16.7139Q18.0566 15.3613 18.8232 13.5889Q19.5898 11.8164 19.5898 9.80469Q19.5898 7.79297 18.8232 6.02051Q18.0566 4.24805 16.7041 2.89551Q15.3516 1.54297 13.5742 0.776367Q11.7969 0.00976562 9.78516 0.00976562Q7.77344 0.00976562 6.00098 0.776367Q4.22852 1.54297 2.88086 2.89551Q1.5332 4.24805 0.766602 6.02051Q0 7.79297 0 9.80469Q0 11.8164 0.766602 13.5889Q1.5332 15.3613 2.88574 16.7139Q4.23828 18.0664 6.01074 18.833Q7.7832 19.5996 9.79492 19.5996Z"
                     fill="#ff453a" />
              <path d="M5.74219 13.5449L5.74219 10.2148L9.42383 10.2148L9.42383 14.7559L6.99219 14.7559Q6.40625 14.7559 6.07422 14.4434Q5.74219 14.1309 5.74219 13.5449ZM10.166 14.7559L10.166 10.2148L13.8477 10.2148L13.8477 13.5449Q13.8477 14.1309 13.5156 14.4434Q13.1836 14.7559 12.5977 14.7559ZM4.9707 8.96484L4.9707 7.80273Q4.9707 7.42188 5.18066 7.23633Q5.39062 7.05078 5.76172 7.05078L7.14844 7.05078Q6.62109 6.63086 6.62109 5.91797Q6.62109 5.22461 7.08496 4.79004Q7.54883 4.35547 8.24219 4.35547Q8.78906 4.35547 9.19922 4.64844Q9.60938 4.94141 9.79492 5.47852Q9.98047 4.94141 10.3906 4.64844Q10.8008 4.35547 11.3477 4.35547Q12.041 4.35547 12.5049 4.79004Q12.9688 5.22461 12.9688 5.91797Q12.9688 6.63086 12.4414 7.05078L13.8184 7.05078Q14.209 7.05078 14.4141 7.23633Q14.6191 7.42188 14.6191 7.80273L14.6191 8.96484Q14.6191 9.3457 14.4141 9.53125Q14.209 9.7168 13.8184 9.7168L10.166 9.7168L10.166 7.05078L10.8691 7.05078Q11.5039 7.05078 11.875 6.72852Q12.2461 6.40625 12.2461 5.92773Q12.2461 5.53711 11.9824 5.30762Q11.7188 5.07812 11.3184 5.07812Q10.8105 5.07812 10.4883 5.43457Q10.166 5.79102 10.166 6.39648L10.166 7.05078L9.42383 7.05078L9.42383 6.39648Q9.42383 5.79102 9.10156 5.43457Q8.7793 5.07812 8.27148 5.07812Q7.86133 5.07812 7.60254 5.30762Q7.34375 5.53711 7.34375 5.92773Q7.34375 6.40625 7.71484 6.72852Q8.08594 7.05078 8.7207 7.05078L9.42383 7.05078L9.42383 9.7168L5.76172 9.7168Q5.39062 9.7168 5.18066 9.53125Q4.9707 9.3457 4.9707 8.96484Z"
                     fill="#ffffff" />
       </g>
</svg>