<svg width="19.5898" height="19.5996">
       <g>
              <rect height="19.5996" opacity="0" width="19.5898" x="0" y="0" />
              <path d="M9.79492 19.5898Q11.8066 19.5898 13.5791 18.8232Q15.3516 18.0566 16.7041 16.7041Q18.0566 15.3516 18.8232 13.5791Q19.5898 11.8066 19.5898 9.79492Q19.5898 7.7832 18.8232 6.01074Q18.0566 4.23828 16.7041 2.88574Q15.3516 1.5332 13.5742 0.766602Q11.7969 0 9.78516 0Q7.77344 0 6.00098 0.766602Q4.22852 1.5332 2.88086 2.88574Q1.5332 4.23828 0.766602 6.01074Q0 7.7832 0 9.79492Q0 11.8066 0.766602 13.5791Q1.5332 15.3516 2.88574 16.7041Q4.23828 18.0566 6.01074 18.8232Q7.7832 19.5898 9.79492 19.5898ZM9.79492 18.3203Q8.02734 18.3203 6.47949 17.6611Q4.93164 17.002 3.75977 15.8301Q2.58789 14.6582 1.92871 13.1104Q1.26953 11.5625 1.26953 9.79492Q1.26953 8.02734 1.92871 6.47949Q2.58789 4.93164 3.75977 3.75488Q4.93164 2.57812 6.47461 1.91895Q8.01758 1.25977 9.78516 1.25977Q11.5625 1.25977 13.1104 1.91895Q14.6582 2.57812 15.8301 3.75488Q17.002 4.93164 17.666 6.47949Q18.3301 8.02734 18.3301 9.79492Q18.3301 11.5625 17.666 13.1104Q17.002 14.6582 15.8301 15.8301Q14.6582 17.002 13.1152 17.6611Q11.5723 18.3203 9.79492 18.3203Z"
                     fill="#ff453a" />
              <path d="M5.81055 13.4473Q5.81055 14.0137 6.14258 14.3262Q6.47461 14.6387 7.04102 14.6387L9.42383 14.6387L9.42383 10.1758L5.81055 10.1758ZM10.1562 14.6387L12.5293 14.6387Q13.1055 14.6387 13.4326 14.3262Q13.7598 14.0137 13.7598 13.4473L13.7598 10.1758L10.1562 10.1758ZM5.05859 8.95508Q5.05859 9.32617 5.25879 9.51172Q5.45898 9.69727 5.83008 9.69727L9.42383 9.69727L9.42383 7.08008L8.74023 7.08008Q8.11523 7.08008 7.75391 6.7627Q7.39258 6.44531 7.39258 5.98633Q7.39258 5.60547 7.64648 5.37598Q7.90039 5.14648 8.30078 5.14648Q8.78906 5.14648 9.10645 5.49805Q9.42383 5.84961 9.42383 6.44531L9.42383 7.08008L10.1562 7.08008L10.1562 6.44531Q10.1562 5.84961 10.4688 5.49805Q10.7812 5.14648 11.2793 5.14648Q11.6797 5.14648 11.9287 5.37598Q12.1777 5.60547 12.1777 5.98633Q12.1777 6.44531 11.8164 6.7627Q11.4551 7.08008 10.8301 7.08008L10.1562 7.08008L10.1562 9.69727L13.7305 9.69727Q14.1113 9.69727 14.3115 9.51172Q14.5117 9.32617 14.5117 8.95508L14.5117 7.8125Q14.5117 7.45117 14.3115 7.26562Q14.1113 7.08008 13.7305 7.08008L12.373 7.08008Q12.8906 6.66992 12.8906 5.9668Q12.8906 5.29297 12.4365 4.86328Q11.9824 4.43359 11.3086 4.43359Q10.7715 4.43359 10.3662 4.72656Q9.96094 5.01953 9.78516 5.53711Q9.60938 5.01953 9.2041 4.72656Q8.79883 4.43359 8.26172 4.43359Q7.58789 4.43359 7.13379 4.86328Q6.67969 5.29297 6.67969 5.9668Q6.67969 6.66992 7.19727 7.08008L5.83008 7.08008Q5.47852 7.08008 5.26855 7.26562Q5.05859 7.45117 5.05859 7.8125Z"
                     fill="#ff453a" />
       </g>
</svg>