<svg width="18.5068" height="20.6763">
       <g>
              <rect height="20.6763" opacity="0" width="18.5068" x="0" y="0" />
              <path d="M4.08218 19.9571L14.4246 19.9571Q15.6622 19.9571 16.3406 19.2957Q17.0189 18.6343 17.0189 17.3869L17.0189 10.9457L17.178 10.9457Q17.8105 10.8575 18.1586 10.4003Q18.5068 9.94308 18.5068 9.24637L18.5068 6.86569Q18.5068 6.07086 18.0707 5.59647Q17.6346 5.12207 16.8361 5.12207L14.3912 5.12207Q14.8483 4.74426 15.1025 4.19762Q15.3568 3.65097 15.3568 2.99103Q15.3568 2.11029 14.942 1.43539Q14.5273 0.760498 13.8182 0.380249Q13.1091 0 12.2102 0Q11.1697 0 10.3825 0.561371Q9.59534 1.12274 9.2485 2.12723Q8.90167 1.12274 8.11935 0.561371Q7.33704 0 6.28677 0Q5.39108 0 4.68048 0.380249Q3.96988 0.760498 3.55659 1.43539Q3.14331 2.11029 3.14331 2.99103Q3.14331 3.65097 3.40088 4.19762Q3.65845 4.74426 4.11575 5.12207L1.67084 5.12207Q0.896149 5.12207 0.448074 5.59647Q0 6.07086 0 6.86569L0 9.24637Q0 9.94308 0.344849 10.4003Q0.689697 10.8575 1.32202 10.9457L1.48132 10.9457L1.48132 17.3869Q1.48132 18.6343 2.15805 19.2957Q2.83478 19.9571 4.08218 19.9571ZM8.4642 18.8284L4.07776 18.8284Q3.41187 18.8284 3.04955 18.4676Q2.68723 18.1068 2.68723 17.4377L2.68723 10.9929L8.4642 10.9929ZM10.036 18.8284L10.036 10.9929L15.8099 10.9929L15.8099 17.4377Q15.8099 18.1068 15.4525 18.4676Q15.0951 18.8284 14.4223 18.8284ZM8.4642 9.84833L1.93497 9.84833Q1.55777 9.84833 1.38336 9.66141Q1.20895 9.47449 1.20895 9.10049L1.20895 7.0079Q1.20895 6.63071 1.38336 6.44722Q1.55777 6.26373 1.93497 6.26373L8.4642 6.26373ZM10.036 9.84833L10.036 6.26373L16.5787 6.26373Q16.946 6.26373 17.1219 6.44722Q17.2978 6.63071 17.2978 7.0079L17.2978 9.10049Q17.2978 9.47449 17.1219 9.66141Q16.946 9.84833 16.5787 9.84833ZM8.53561 5.12207L7.1817 5.12207Q5.96268 5.12207 5.261 4.52843Q4.55933 3.93478 4.55933 3.0426Q4.55933 2.27432 5.06393 1.84059Q5.56854 1.40686 6.35117 1.40686Q7.29065 1.40686 7.91313 2.0845Q8.53561 2.76215 8.53561 3.91876ZM9.9646 5.12207L9.9646 3.91876Q9.9646 2.76215 10.5889 2.0845Q11.2132 1.40686 12.1458 1.40686Q12.9352 1.40686 13.438 1.84059Q13.9409 2.27432 13.9409 3.0426Q13.9409 3.93478 13.2391 4.52843Q12.5374 5.12207 11.3185 5.12207Z"
                     fill="#ff453a" />
       </g>
</svg>