<svg width="18.4933" height="20.6763">
       <g>
              <rect height="20.6763" opacity="0" width="18.4933" x="0" y="0" />
              <path d="M1.48132 17.6068Q1.48132 18.7428 2.1225 19.35Q2.76367 19.9571 3.90259 19.9571L8.52875 19.9571L8.52875 11.227L1.48132 11.227ZM9.95789 19.9571L14.5908 19.9571Q15.7297 19.9571 16.3709 19.35Q17.0122 18.7428 17.0122 17.6068L17.0122 11.227L9.95789 11.227ZM0 8.86017Q0 9.58389 0.399094 9.93294Q0.798187 10.282 1.52863 10.282L8.52875 10.282L8.52875 5.18646L7.17484 5.18646Q5.95596 5.18646 5.25429 4.56062Q4.55261 3.93478 4.55261 3.0426Q4.55261 2.27432 5.05722 1.84059Q5.56183 1.40686 6.34445 1.40686Q7.28394 1.40686 7.90634 2.0845Q8.52875 2.76215 8.52875 3.91876L8.52875 5.18646L9.95789 5.18646L9.95789 3.91876Q9.95789 2.76215 10.5836 2.0845Q11.2094 1.40686 12.1422 1.40686Q12.9315 1.40686 13.4328 1.84059Q13.934 2.27432 13.934 3.0426Q13.934 3.93478 13.2323 4.56062Q12.5307 5.18646 11.3118 5.18646L9.95789 5.18646L9.95789 10.282L16.9647 10.282Q17.6952 10.282 18.0943 9.93294Q18.4933 9.58389 18.4933 8.86017L18.4933 6.60828Q18.4933 5.88455 18.0943 5.53551Q17.6952 5.18646 16.9647 5.18646L14.3268 5.18646Q14.8109 4.79813 15.0805 4.23798Q15.35 3.67783 15.35 2.99103Q15.35 2.11029 14.9353 1.43539Q14.5206 0.760498 13.8115 0.380249Q13.1024 0 12.2066 0Q11.163 0 10.3758 0.561371Q9.58862 1.12274 9.24179 2.12723Q8.89801 1.12274 8.11417 0.561371Q7.33032 0 6.28006 0Q5.38422 0 4.67361 0.380249Q3.96301 0.760498 3.5498 1.43539Q3.1366 2.11029 3.1366 2.99103Q3.1366 3.67783 3.4095 4.23798Q3.6824 4.79813 4.16656 5.18646L1.52863 5.18646Q0.825043 5.18646 0.412521 5.53551Q0 5.88455 0 6.60828Z"
                     fill="#ff453a" />
       </g>
</svg>