<svg width="19.5898" height="19.5996">
       <g>
              <rect height="19.5996" opacity="0" width="19.5898" x="0" y="0" />
              <path d="M9.79492 19.5996Q11.8066 19.5996 13.5791 18.833Q15.3516 18.0664 16.7041 16.7139Q18.0566 15.3613 18.8232 13.5889Q19.5898 11.8164 19.5898 9.80469Q19.5898 7.79297 18.8232 6.02051Q18.0566 4.24805 16.7041 2.89551Q15.3516 1.54297 13.5742 0.776367Q11.7969 0.00976562 9.78516 0.00976562Q7.77344 0.00976562 6.00098 0.776367Q4.22852 1.54297 2.88086 2.89551Q1.5332 4.24805 0.766602 6.02051Q0 7.79297 0 9.80469Q0 11.8164 0.766602 13.5889Q1.5332 15.3613 2.88574 16.7139Q4.23828 18.0664 6.01074 18.833Q7.7832 19.5996 9.79492 19.5996Z"
                     fill="rgba(255,255,255,0.55)" />
              <path d="M3.35938 8.10547Q3.35938 7.94922 3.45703 7.79297Q3.55469 7.63672 3.75 7.54883L8.52539 5.37109Q9.25781 5.03906 9.78516 5.05859Q10.3223 5.03906 11.0547 5.37109L15.8203 7.54883Q16.0254 7.63672 16.1182 7.79297Q16.2109 7.94922 16.2109 8.10547Q16.2109 8.47656 15.8203 8.66211L11.0547 10.8496Q10.6738 11.0254 10.376 11.0986Q10.0781 11.1719 9.78516 11.1621Q9.50195 11.1719 9.19922 11.0986Q8.89648 11.0254 8.52539 10.8496L6.55273 9.95117L9.31641 8.60352Q9.51172 8.67188 9.79492 8.67188Q10.2051 8.67188 10.5225 8.51562Q10.8398 8.35938 10.8398 8.10547Q10.8398 7.86133 10.5176 7.70996Q10.1953 7.55859 9.79492 7.55859Q9.4043 7.55859 9.07715 7.70996Q8.75 7.86133 8.75 8.10547Q8.75 8.19336 8.78906 8.25195L5.88867 9.63867L3.75 8.66211Q3.35938 8.47656 3.35938 8.10547ZM5.27344 11.7188L5.27344 10.0391L5.91797 10.3223L5.91797 12.959Q5.27344 12.334 5.27344 11.7188ZM5.61523 15.3711L5.61523 14.2773Q5.61523 13.8867 5.91797 13.7598L5.91797 12.959Q6.20117 13.2422 6.52344 13.4277L6.52344 13.7695Q6.8457 13.9062 6.8457 14.2773L6.8457 15.3711Q6.8457 15.625 6.69434 15.7715Q6.54297 15.918 6.28906 15.918L6.17188 15.918Q5.9082 15.918 5.76172 15.7715Q5.61523 15.625 5.61523 15.3711ZM6.52344 13.4277L6.52344 10.6055L8.29102 11.416Q8.69141 11.6016 9.06738 11.6895Q9.44336 11.7773 9.78516 11.7676Q10.1367 11.7773 10.5029 11.6895Q10.8691 11.6016 11.2891 11.416L14.2871 10.0391L14.2871 11.7188Q14.2871 12.334 13.7451 12.9053Q13.2031 13.4766 12.1973 13.8379Q11.1914 14.1992 9.78516 14.1992Q8.75977 14.1992 7.93945 13.9893Q7.11914 13.7793 6.52344 13.4277Z"
                     fill="#ffffff" />
       </g>
</svg>