<svg width="17.6855" height="17.7051">
       <g>
              <rect height="17.7051" opacity="0" width="17.6855" x="0" y="0" />
              <path d="M2.88086 17.7051L14.8047 17.7051Q16.2305 17.7051 16.958 16.9873Q17.6855 16.2695 17.6855 14.8535L17.6855 2.88086Q17.6855 1.46484 16.958 0.742188Q16.2305 0.0195312 14.8047 0.0195312L2.88086 0.0195312Q1.44531 0.0195312 0.722656 0.737305Q0 1.45508 0 2.88086L0 14.8535Q0 16.2695 0.722656 16.9873Q1.44531 17.7051 2.88086 17.7051Z"
                     fill="rgba(255,255,255,0.55)" />
              <path d="M6.33789 12.7246Q6.05469 12.7246 5.86914 12.5488Q5.68359 12.373 5.68359 12.0996Q5.68359 11.875 5.79102 11.7285Q5.89844 11.582 6.14258 11.4648L11.2695 8.85742L11.2695 8.80859L6.14258 6.15234Q5.9082 6.04492 5.7959 5.88867Q5.68359 5.73242 5.68359 5.51758Q5.68359 5.25391 5.86426 5.07812Q6.04492 4.90234 6.31836 4.90234Q6.44531 4.90234 6.5332 4.92676Q6.62109 4.95117 6.71875 5.00977L12.5195 8.1543Q12.9785 8.41797 12.9785 8.84766Q12.9785 9.0918 12.8711 9.25781Q12.7637 9.42383 12.5195 9.54102L6.71875 12.627Q6.52344 12.7246 6.33789 12.7246Z"
                     fill="#ffffff" />
       </g>
</svg>