<svg width="19.5898" height="19.5996">
       <g>
              <rect height="19.5996" opacity="0" width="19.5898" x="0" y="0" />
              <path d="M9.79492 19.5898Q11.8066 19.5898 13.5791 18.8232Q15.3516 18.0566 16.7041 16.7041Q18.0566 15.3516 18.8232 13.5791Q19.5898 11.8066 19.5898 9.79492Q19.5898 7.7832 18.8232 6.01074Q18.0566 4.23828 16.7041 2.88574Q15.3516 1.5332 13.5742 0.766602Q11.7969 0 9.78516 0Q7.77344 0 6.00098 0.766602Q4.22852 1.5332 2.88086 2.88574Q1.5332 4.23828 0.766602 6.01074Q0 7.7832 0 9.79492Q0 11.8066 0.766602 13.5791Q1.5332 15.3516 2.88574 16.7041Q4.23828 18.0566 6.01074 18.8232Q7.7832 19.5898 9.79492 19.5898Z"
                     fill="rgba(255,255,255,0.55)" />
              <path d="M7.28516 13.6719Q7.00195 13.6719 6.81641 13.4961Q6.63086 13.3203 6.63086 13.0469Q6.63086 12.8223 6.73828 12.6758Q6.8457 12.5293 7.08984 12.4121L12.2168 9.80469L12.2168 9.75586L7.08984 7.09961Q6.85547 6.99219 6.74316 6.83594Q6.63086 6.67969 6.63086 6.46484Q6.63086 6.20117 6.81152 6.02539Q6.99219 5.84961 7.26562 5.84961Q7.39258 5.84961 7.48047 5.87402Q7.56836 5.89844 7.66602 5.95703L13.4668 9.10156Q13.9258 9.36523 13.9258 9.79492Q13.9258 10.0391 13.8184 10.2051Q13.7109 10.3711 13.4668 10.4883L7.66602 13.5742Q7.4707 13.6719 7.28516 13.6719Z"
                     fill="#ffffff" />
       </g>
</svg>