<svg width="19.5898" height="19.5996">
       <g>
              <rect height="19.5996" opacity="0" width="19.5898" x="0" y="0" />
              <path d="M9.79492 19.5898Q11.8066 19.5898 13.5791 18.8232Q15.3516 18.0566 16.7041 16.7041Q18.0566 15.3516 18.8232 13.5791Q19.5898 11.8066 19.5898 9.79492Q19.5898 7.7832 18.8232 6.01074Q18.0566 4.23828 16.7041 2.88574Q15.3516 1.5332 13.5742 0.766602Q11.7969 0 9.78516 0Q7.77344 0 6.00098 0.766602Q4.22852 1.5332 2.88086 2.88574Q1.5332 4.23828 0.766602 6.01074Q0 7.7832 0 9.79492Q0 11.8066 0.766602 13.5791Q1.5332 15.3516 2.88574 16.7041Q4.23828 18.0566 6.01074 18.8232Q7.7832 19.5898 9.79492 19.5898Z"
                     fill="rgba(255,255,255,0.55)" />
              <path d="M4.16992 11.748Q4.16992 11.5039 4.32617 11.3574Q4.48242 11.2109 4.75586 11.2109L7.27539 11.2109L7.27539 8.37891L4.75586 8.37891Q4.48242 8.37891 4.32617 8.22754Q4.16992 8.07617 4.16992 7.82227Q4.16992 7.57812 4.32617 7.42676Q4.48242 7.27539 4.75586 7.27539L7.27539 7.27539L7.27539 4.75586Q7.27539 4.47266 7.42676 4.32129Q7.57812 4.16992 7.8418 4.16992Q8.08594 4.16992 8.23242 4.32129Q8.37891 4.47266 8.37891 4.75586L8.37891 7.27539L11.2207 7.27539L11.2207 4.75586Q11.2207 4.47266 11.3672 4.32129Q11.5137 4.16992 11.7773 4.16992Q12.0215 4.16992 12.1729 4.32129Q12.3242 4.47266 12.3242 4.75586L12.3242 7.27539L14.8438 7.27539Q15.1172 7.27539 15.2734 7.42676Q15.4297 7.57812 15.4297 7.82227Q15.4297 8.07617 15.2734 8.22754Q15.1172 8.37891 14.8438 8.37891L12.3242 8.37891L12.3242 11.2109L14.8438 11.2109Q15.1172 11.2109 15.2734 11.3574Q15.4297 11.5039 15.4297 11.748Q15.4297 12.0117 15.2734 12.1631Q15.1172 12.3145 14.8438 12.3145L12.3242 12.3145L12.3242 14.834Q12.3242 15.1074 12.1729 15.2637Q12.0215 15.4199 11.7773 15.4199Q11.5137 15.4199 11.3672 15.2637Q11.2207 15.1074 11.2207 14.834L11.2207 12.3145L8.37891 12.3145L8.37891 14.834Q8.37891 15.1074 8.23242 15.2637Q8.08594 15.4199 7.8418 15.4199Q7.57812 15.4199 7.42676 15.2637Q7.27539 15.1074 7.27539 14.834L7.27539 12.3145L4.75586 12.3145Q4.48242 12.3145 4.32617 12.1631Q4.16992 12.0117 4.16992 11.748ZM8.37891 11.2109L11.2207 11.2109L11.2207 8.37891L8.37891 8.37891Z"
                     fill="#ffffff" />
       </g>
</svg>