<svg width="19.5898" height="19.5996">
       <g>
              <rect height="19.5996" opacity="0" width="19.5898" x="0" y="0" />
              <path d="M9.79492 19.5898Q11.8066 19.5898 13.5791 18.8232Q15.3516 18.0566 16.7041 16.7041Q18.0566 15.3516 18.8232 13.5791Q19.5898 11.8066 19.5898 9.79492Q19.5898 7.7832 18.8232 6.01074Q18.0566 4.23828 16.7041 2.88574Q15.3516 1.5332 13.5742 0.766602Q11.7969 0 9.78516 0Q7.77344 0 6.00098 0.766602Q4.22852 1.5332 2.88086 2.88574Q1.5332 4.23828 0.766602 6.01074Q0 7.7832 0 9.79492Q0 11.8066 0.766602 13.5791Q1.5332 15.3516 2.88574 16.7041Q4.23828 18.0566 6.01074 18.8232Q7.7832 19.5898 9.79492 19.5898Z"
                     fill="rgba(255,255,255,0.55)" />
              <path d="M6.69922 14.3262Q6.40625 14.3262 6.24023 14.1455Q6.07422 13.9648 6.07422 13.6426L6.07422 5.83008Q6.07422 5.50781 6.24023 5.32715Q6.40625 5.14648 6.69922 5.14648Q6.99219 5.14648 7.1582 5.32715Q7.32422 5.50781 7.32422 5.83008L7.32422 9.07227L12.2559 9.07227L12.2559 5.83008Q12.2559 5.50781 12.4219 5.32715Q12.5879 5.14648 12.8711 5.14648Q13.1738 5.14648 13.335 5.32715Q13.4961 5.50781 13.4961 5.83008L13.4961 13.6426Q13.4961 13.9648 13.335 14.1455Q13.1738 14.3262 12.8711 14.3262Q12.5879 14.3262 12.4219 14.1455Q12.2559 13.9648 12.2559 13.6426L12.2559 10.0879L7.32422 10.0879L7.32422 13.6426Q7.32422 13.9648 7.1582 14.1455Q6.99219 14.3262 6.69922 14.3262Z"
                     fill="#ffffff" />
       </g>
</svg>