<svg width="20.3027" height="19.8145">
       <g>
              <rect height="19.8145" opacity="0" width="20.3027" x="0" y="0" />
              <path d="M7.61719 19.8145L17.4316 19.8145Q18.8574 19.8145 19.5801 19.1016Q20.3027 18.3887 20.3027 16.9629L20.3027 7.09961Q20.3027 5.69336 19.5801 4.97559Q18.8574 4.25781 17.4316 4.25781L15 4.25781L15 5.45898L17.4023 5.45898Q18.2227 5.45898 18.6572 5.88867Q19.0918 6.31836 19.0918 7.16797L19.0918 16.9043Q19.0918 17.7539 18.6572 18.1836Q18.2227 18.6133 17.4023 18.6133L7.63672 18.6133Q6.82617 18.6133 6.38672 18.1836Q5.94727 17.7539 5.94727 16.9043L5.94727 15.0098L4.73633 15.0098L4.73633 16.9629Q4.73633 18.3789 5.45898 19.0967Q6.18164 19.8145 7.61719 19.8145Z"
                     fill="rgba(255,255,255,0.55)" />
              <path d="M2.88086 15.5664L12.6855 15.5664Q14.1211 15.5664 14.8438 14.8438Q15.5664 14.1211 15.5664 12.7051L15.5664 2.85156Q15.5664 1.43555 14.8438 0.717773Q14.1211 0 12.6855 0L2.88086 0Q1.44531 0 0.722656 0.717773Q0 1.43555 0 2.85156L0 12.7051Q0 14.1211 0.722656 14.8438Q1.44531 15.5664 2.88086 15.5664ZM2.90039 14.3555Q2.08984 14.3555 1.65039 13.9258Q1.21094 13.4961 1.21094 12.6465L1.21094 2.91016Q1.21094 2.07031 1.65039 1.63574Q2.08984 1.20117 2.90039 1.20117L12.666 1.20117Q13.4863 1.20117 13.9209 1.63574Q14.3555 2.07031 14.3555 2.91016L14.3555 12.6465Q14.3555 13.4961 13.9209 13.9258Q13.4863 14.3555 12.666 14.3555ZM4.75586 12.2266Q5.03906 12.2266 5.2002 12.0459Q5.36133 11.8652 5.36133 11.5625L5.36133 8.05664L10.2051 8.05664L10.2051 11.5625Q10.2051 11.8652 10.3662 12.0459Q10.5273 12.2266 10.8008 12.2266Q11.0938 12.2266 11.25 12.0459Q11.4062 11.8652 11.4062 11.5625L11.4062 3.88672Q11.4062 3.58398 11.25 3.4082Q11.0938 3.23242 10.8008 3.23242Q10.5273 3.23242 10.3662 3.4082Q10.2051 3.58398 10.2051 3.88672L10.2051 7.08008L5.36133 7.08008L5.36133 3.88672Q5.36133 3.58398 5.2002 3.4082Q5.03906 3.23242 4.75586 3.23242Q4.47266 3.23242 4.31152 3.4082Q4.15039 3.58398 4.15039 3.88672L4.15039 11.5625Q4.15039 11.8652 4.31152 12.0459Q4.47266 12.2266 4.75586 12.2266Z"
                     fill="rgba(255,255,255,0.55)" />
       </g>
</svg>