<svg width="17.6855" height="17.7051">
       <g>
              <rect height="17.7051" opacity="0" width="17.6855" x="0" y="0" />
              <path d="M2.88086 17.7051L14.8047 17.7051Q16.2305 17.7051 16.958 16.9873Q17.6855 16.2695 17.6855 14.8535L17.6855 2.88086Q17.6855 1.46484 16.958 0.742188Q16.2305 0.0195312 14.8047 0.0195312L2.88086 0.0195312Q1.44531 0.0195312 0.722656 0.737305Q0 1.45508 0 2.88086L0 14.8535Q0 16.2695 0.722656 16.9873Q1.44531 17.7051 2.88086 17.7051Z"
                     fill="rgba(255,255,255,0.55)" />
              <path d="M5.75195 13.3789Q5.45898 13.3789 5.29297 13.1982Q5.12695 13.0176 5.12695 12.6953L5.12695 4.88281Q5.12695 4.56055 5.29297 4.37988Q5.45898 4.19922 5.75195 4.19922Q6.04492 4.19922 6.21094 4.37988Q6.37695 4.56055 6.37695 4.88281L6.37695 8.125L11.3086 8.125L11.3086 4.88281Q11.3086 4.56055 11.4746 4.37988Q11.6406 4.19922 11.9238 4.19922Q12.2266 4.19922 12.3877 4.37988Q12.5488 4.56055 12.5488 4.88281L12.5488 12.6953Q12.5488 13.0176 12.3877 13.1982Q12.2266 13.3789 11.9238 13.3789Q11.6406 13.3789 11.4746 13.1982Q11.3086 13.0176 11.3086 12.6953L11.3086 9.14062L6.37695 9.14062L6.37695 12.6953Q6.37695 13.0176 6.21094 13.1982Q6.04492 13.3789 5.75195 13.3789Z"
                     fill="#ffffff" />
       </g>
</svg>