<svg width="20.3027" height="19.8145">
       <g>
              <rect height="19.8145" opacity="0" width="20.3027" x="0" y="0" />
              <path d="M12.6855 0L2.88086 0Q1.44531 0 0.722656 0.717773Q0 1.43555 0 2.85156L0 12.7051Q0 14.1211 0.722656 14.8438Q1.44531 15.5664 2.88086 15.5664L12.6855 15.5664Q14.1211 15.5664 14.8438 14.8438Q15.5664 14.1211 15.5664 12.7051L15.5664 2.85156Q15.5664 1.43555 14.8438 0.717773Q14.1211 0 12.6855 0ZM20.3027 7.09961Q20.3027 5.69336 19.5801 4.97559Q18.8574 4.25781 17.4316 4.25781L16.6992 4.25781L16.6992 12.7051Q16.6992 13.9746 16.2256 14.8633Q15.752 15.752 14.8535 16.2256Q13.9551 16.6992 12.6855 16.6992L4.73633 16.6992L4.73633 16.9629Q4.73633 18.3789 5.45898 19.0967Q6.18164 19.8145 7.61719 19.8145L17.4316 19.8145Q18.8574 19.8145 19.5801 19.1016Q20.3027 18.3887 20.3027 16.9629Z"
                     fill="rgba(255,255,255,0.55)" />
              <path d="M4.6875 12.3145Q4.39453 12.3145 4.22852 12.1338Q4.0625 11.9531 4.0625 11.6309L4.0625 3.81836Q4.0625 3.49609 4.22852 3.31543Q4.39453 3.13477 4.6875 3.13477Q4.98047 3.13477 5.14648 3.31543Q5.3125 3.49609 5.3125 3.81836L5.3125 7.06055L10.2441 7.06055L10.2441 3.81836Q10.2441 3.49609 10.4102 3.31543Q10.5762 3.13477 10.8594 3.13477Q11.1621 3.13477 11.3232 3.31543Q11.4844 3.49609 11.4844 3.81836L11.4844 11.6309Q11.4844 11.9531 11.3232 12.1338Q11.1621 12.3145 10.8594 12.3145Q10.5762 12.3145 10.4102 12.1338Q10.2441 11.9531 10.2441 11.6309L10.2441 8.07617L5.3125 8.07617L5.3125 11.6309Q5.3125 11.9531 5.14648 12.1338Q4.98047 12.3145 4.6875 12.3145Z"
                     fill="#ffffff" />
       </g>
</svg>