<svg width="19.5898" height="19.5996">
       <g>
              <rect height="19.5996" opacity="0" width="19.5898" x="0" y="0" />
              <path d="M9.79492 19.5996Q11.8066 19.5996 13.5791 18.833Q15.3516 18.0664 16.7041 16.7139Q18.0566 15.3613 18.8232 13.5889Q19.5898 11.8164 19.5898 9.80469Q19.5898 7.79297 18.8232 6.02051Q18.0566 4.24805 16.7041 2.89551Q15.3516 1.54297 13.5742 0.776367Q11.7969 0.00976562 9.78516 0.00976562Q7.77344 0.00976562 6.00098 0.776367Q4.22852 1.54297 2.88086 2.89551Q1.5332 4.24805 0.766602 6.02051Q0 7.79297 0 9.80469Q0 11.8164 0.766602 13.5889Q1.5332 15.3613 2.88574 16.7139Q4.23828 18.0664 6.01074 18.833Q7.7832 19.5996 9.79492 19.5996Z"
                     fill="rgba(255,255,255,0.55)" />
              <path d="M5.20508 15.0879L4.375 14.2578Q4.04297 13.916 4.06738 13.5693Q4.0918 13.2227 4.47266 12.8809L10 8.01758L11.4941 9.48242L6.58203 15Q6.25 15.3809 5.89844 15.4004Q5.54688 15.4199 5.20508 15.0879ZM14.3457 10.7324L13.9551 10.3516Q13.7891 10.1953 13.7549 10.0684Q13.7207 9.94141 13.7402 9.75586L13.7695 9.25781L13.3398 8.80859L12.5684 8.96484Q12.1094 9.05273 11.8555 8.78906L10.6836 7.61719Q10.2832 7.20703 10.498 6.66016L10.9082 5.64453Q10.3418 5.27344 9.68262 5.25879Q9.02344 5.24414 8.27148 5.42969Q8.14453 5.47852 8.02246 5.43945Q7.90039 5.40039 7.80273 5.3125Q7.70508 5.19531 7.7002 5.01953Q7.69531 4.84375 7.87109 4.66797Q8.57422 3.96484 9.56543 3.76465Q10.5566 3.56445 11.5527 3.83789Q12.5488 4.11133 13.2617 4.82422L14.3457 5.89844Q14.8438 6.37695 14.7168 6.91406L14.5703 7.58789L15.0098 8.01758L15.498 7.97852Q15.7031 7.95898 15.8203 7.99805Q15.9375 8.03711 16.1035 8.20312L16.4941 8.59375Q16.6309 8.74023 16.6357 8.8916Q16.6406 9.04297 16.5039 9.16992L14.9414 10.7324Q14.7949 10.8691 14.6436 10.8643Q14.4922 10.8594 14.3457 10.7324Z"
                     fill="#ffffff" />
       </g>
</svg>