<svg width="15.0427" height="21.1606">
       <g>
              <rect height="21.1606" opacity="0" width="15.0427" x="0" y="0" />
              <path d="M0 13.7782Q0 15.4114 0.493546 16.6643Q0.987091 17.9172 1.87187 18.7737Q2.75665 19.6303 3.95042 20.0714Q5.1442 20.5125 6.54175 20.5125Q8.84491 20.5125 10.4191 19.4301Q11.9933 18.3476 12.9079 16.0555Q13.1517 15.4994 13.3723 14.9083Q13.593 14.3172 13.8001 13.6919Q14.0073 13.0667 14.2076 12.406Q14.408 11.7453 14.6121 11.0509Q14.7058 10.7405 14.805 10.4075Q14.9042 10.0745 14.9734 9.78981Q15.0427 9.50516 15.0427 9.32831Q15.0427 8.95584 14.7945 8.73138Q14.5464 8.50693 14.1658 8.50693Q13.7825 8.50693 13.4984 8.75893Q13.2143 9.01093 12.9451 9.58008L11.6422 12.5073Q11.5324 12.7872 11.3895 12.8909Q11.2466 12.9945 11.1052 12.9945Q10.9187 12.9945 10.7972 12.8678Q10.6757 12.7411 10.6757 12.4387L10.6757 2.53967Q10.6757 2.14325 10.3907 1.85684Q10.1057 1.57043 9.70642 1.57043Q9.31 1.57043 9.02359 1.85684Q8.73718 2.14325 8.73718 2.53967L8.73718 9.56116Q8.5199 9.46793 8.28995 9.40025Q8.06 9.33258 7.81357 9.28436L7.81357 0.975952Q7.81357 0.572815 7.52708 0.286407Q7.2406 0 6.84433 0Q6.43814 0 6.15173 0.286407Q5.86533 0.572815 5.86533 0.975952L5.86533 9.17099Q5.6073 9.19052 5.34264 9.22279Q5.07797 9.25507 4.82925 9.30023L4.82925 1.90903Q4.82925 1.5126 4.54285 1.2262Q4.25644 0.939789 3.86002 0.939789Q3.46054 0.939789 3.17566 1.2262Q2.89078 1.5126 2.89078 1.90903L2.89078 9.92493Q2.61627 10.0511 2.38144 10.1887Q2.14661 10.3262 1.94519 10.4684L1.94519 4.90677Q1.94519 4.50729 1.66031 4.22241Q1.37543 3.93753 0.975952 3.93753Q0.569916 3.93753 0.284958 4.22241Q0 4.50729 0 4.90677Z"
                     fill="#0a84ff" />
       </g>
</svg>