<svg width="19.5898" height="19.5996">
       <g>
              <rect height="19.5996" opacity="0" width="19.5898" x="0" y="0" />
              <path d="M9.79492 19.5898Q11.8066 19.5898 13.5791 18.8232Q15.3516 18.0566 16.7041 16.7041Q18.0566 15.3516 18.8232 13.5791Q19.5898 11.8066 19.5898 9.79492Q19.5898 7.7832 18.8232 6.01074Q18.0566 4.23828 16.7041 2.88574Q15.3516 1.5332 13.5742 0.766602Q11.7969 0 9.78516 0Q7.77344 0 6.00098 0.766602Q4.22852 1.5332 2.88086 2.88574Q1.5332 4.23828 0.766602 6.01074Q0 7.7832 0 9.79492Q0 11.8066 0.766602 13.5791Q1.5332 15.3516 2.88574 16.7041Q4.23828 18.0566 6.01074 18.8232Q7.7832 19.5898 9.79492 19.5898Z"
                     fill="#0a84ff" />
              <path d="M5.76172 11.6406L5.76172 6.20117Q5.76172 5.95703 5.94238 5.77637Q6.12305 5.5957 6.37695 5.5957Q6.62109 5.5957 6.80176 5.77637Q6.98242 5.95703 6.98242 6.20117L6.98242 9.58008Q7.10938 9.49219 7.24121 9.41406Q7.37305 9.33594 7.5293 9.25781L7.5293 4.3457Q7.5293 4.10156 7.71484 3.92578Q7.90039 3.75 8.14453 3.75Q8.38867 3.75 8.56934 3.92578Q8.75 4.10156 8.75 4.3457L8.75 8.86719Q8.90625 8.83789 9.05762 8.82324Q9.20898 8.80859 9.36523 8.78906L9.36523 3.7793Q9.36523 3.53516 9.54102 3.34961Q9.7168 3.16406 9.98047 3.16406Q10.2246 3.16406 10.4004 3.34961Q10.5762 3.53516 10.5762 3.7793L10.5762 8.84766Q10.7227 8.89648 10.8594 8.94043Q10.9961 8.98438 11.1328 9.0332L11.1328 4.74609Q11.1328 4.49219 11.3086 4.31641Q11.4844 4.14062 11.7285 4.14062Q11.9727 4.14062 12.1533 4.31641Q12.334 4.49219 12.334 4.74609L12.334 10.8105Q12.334 10.9961 12.4072 11.0693Q12.4805 11.1426 12.5977 11.1426Q12.6758 11.1426 12.7588 11.084Q12.8418 11.0254 12.9102 10.8496L13.7207 9.04297Q13.877 8.70117 14.0527 8.54492Q14.2285 8.38867 14.4727 8.38867Q14.707 8.38867 14.8633 8.53027Q15.0195 8.67188 15.0195 8.90625Q15.0195 9.0625 14.9316 9.35547Q14.8438 9.64844 14.7559 9.94141Q14.5996 10.498 14.4336 11.0303Q14.2676 11.5625 14.0918 12.0557Q13.916 12.5488 13.7207 13.0078Q13.1445 14.4727 12.1533 15.127Q11.1621 15.7812 9.78516 15.7812Q8.63281 15.7812 7.71973 15.2979Q6.80664 14.8145 6.28418 13.8916Q5.76172 12.9688 5.76172 11.6406Z"
                     fill="#ffffff" />
       </g>
</svg>