<svg width="15.3993" height="21.5643">
       <g>
              <rect height="21.5643" opacity="0" width="15.3993" x="0" y="0" />
              <path d="M6.63177 20.7451Q9.104 20.7451 10.8327 19.4235Q12.5615 18.102 13.4744 15.5302L15.2386 10.5479Q15.3993 10.1044 15.3993 9.68552Q15.3993 8.97751 14.9226 8.51768Q14.446 8.05786 13.746 8.05786Q13.2715 8.05786 12.8615 8.34663Q12.4515 8.63541 12.2165 9.20242L11.3879 11.2706Q11.3556 11.3449 11.2941 11.3449Q11.2257 11.3449 11.2257 11.257L11.2257 2.94373Q11.2257 2.12967 10.7658 1.65855Q10.3059 1.18744 9.56131 1.18744Q9.25858 1.18744 8.99338 1.29448Q8.72818 1.40152 8.52615 1.61209Q8.45871 0.881348 8.02849 0.440674Q7.59827 0 6.89682 0Q6.19904 0 5.74997 0.448532Q5.3009 0.897064 5.2269 1.59851Q4.84604 1.18744 4.24927 1.18744Q3.54507 1.18744 3.10547 1.65184Q2.66586 2.11624 2.66586 2.89948L2.66586 4.09256Q2.4675 3.87527 2.18727 3.76785Q1.90704 3.66043 1.60065 3.66043Q0.893402 3.66043 0.446701 4.13345Q0 4.60648 0 5.40329L0 13.6859Q0 15.947 0.8461 17.5228Q1.6922 19.0987 3.18741 19.9219Q4.68262 20.7451 6.63177 20.7451ZM6.6011 19.6942Q4.91806 19.6942 3.66386 18.9961Q2.40967 18.298 1.71463 16.9347Q1.01959 15.5713 1.01959 13.5843L1.01959 5.49454Q1.01959 5.11856 1.22177 4.88686Q1.42395 4.65515 1.77826 4.65515Q2.12936 4.65515 2.35191 4.88686Q2.57446 5.11856 2.57446 5.49454L2.57446 10.397Q2.57446 10.6395 2.72369 10.7771Q2.87292 10.9146 3.05893 10.9146Q3.26126 10.9146 3.41232 10.7771Q3.56339 10.6395 3.56339 10.397L3.56339 3.01483Q3.56339 2.64175 3.76228 2.40677Q3.96118 2.17178 4.31534 2.17178Q4.66644 2.17178 4.88899 2.40677Q5.11154 2.64175 5.11154 3.01483L5.11154 9.89899Q5.11154 10.1414 5.26077 10.279Q5.41 10.4166 5.60272 10.4166Q5.79834 10.4166 5.94948 10.279Q6.10062 10.1414 6.10062 9.89899L6.10062 1.85226Q6.10062 1.47614 6.32164 1.23024Q6.54266 0.984344 6.89682 0.984344Q7.23221 0.984344 7.44385 1.23024Q7.65549 1.47614 7.65549 1.85226L7.65549 9.90204Q7.65549 10.1166 7.79221 10.2666Q7.92892 10.4166 8.14651 10.4166Q8.35815 10.4166 8.49976 10.2666Q8.64136 10.1166 8.64136 9.90204L8.64136 3.01483Q8.64136 2.64175 8.86055 2.40677Q9.07974 2.17178 9.4339 2.17178Q9.78516 2.17178 9.99069 2.40677Q10.1962 2.64175 10.1962 3.01483L10.1962 12.5243Q10.1962 12.8493 10.3809 13.0316Q10.5656 13.214 10.8412 13.214Q11.0837 13.214 11.2777 13.0909Q11.4717 12.9678 11.6104 12.6482L12.953 9.53766Q13.1081 9.16397 13.3858 9.02924Q13.6635 8.8945 13.9629 9.00742Q14.2885 9.12384 14.3836 9.41711Q14.4788 9.71039 14.3365 10.108L12.5313 15.1952Q11.6965 17.5377 10.1754 18.616Q8.65433 19.6942 6.6011 19.6942Z"
                     fill="#0a84ff" />
       </g>
</svg>