<svg width="20.3008" height="19.8547">
       <g>
              <rect height="19.8547" opacity="0" width="20.3008" x="0" y="0" />
              <path d="M2.87872 15.5968L5.30396 15.5968L5.30396 14.3907L2.90131 14.3907Q2.07504 14.3907 1.642 13.9562Q1.20895 13.5217 1.20895 12.6752L1.20895 2.94693Q1.20895 2.10052 1.642 1.66748Q2.07504 1.23444 2.90131 1.23444L12.6631 1.23444Q13.4706 1.23444 13.913 1.66748Q14.3555 2.10052 14.3555 2.94693L14.3555 4.83749L15.5644 4.83749L15.5644 2.88025Q15.5644 1.47629 14.8402 0.750885Q14.1161 0.0254822 12.6895 0.0254822L2.87872 0.0254822Q1.44836 0.0254822 0.724182 0.744476Q0 1.46347 0 2.88025L0 12.7419Q0 14.1617 0.724182 14.8792Q1.44836 15.5968 2.87872 15.5968Z"
                     fill="rgba(255,255,255,0.55)" />
              <path d="M8.87039 13.7003Q8.87039 14.8393 9.32533 15.6398Q9.78027 16.4403 10.5646 16.8612Q11.3489 17.2821 12.3531 17.2821Q13.535 17.2821 14.3839 16.7103Q15.2327 16.1385 15.7388 14.8674Q15.9032 14.4781 16.0526 14.0537Q16.2019 13.6293 16.3431 13.1726Q16.4842 12.7159 16.6223 12.2256Q16.6957 11.9858 16.7713 11.7329Q16.8469 11.4801 16.8469 11.3504Q16.8469 11.1447 16.7133 11.022Q16.5796 10.8992 16.3731 10.8992Q16.1684 10.8992 16.0175 11.0316Q15.8665 11.1639 15.7242 11.458L15.0368 13.0173Q14.9789 13.1648 14.9086 13.2197Q14.8383 13.2745 14.7546 13.2745Q14.538 13.2745 14.538 12.9803L14.538 7.75299Q14.538 7.54044 14.3859 7.38838Q14.2339 7.23633 14.0182 7.23633Q13.802 7.23633 13.6485 7.38838Q13.4949 7.54044 13.4949 7.75299L13.4949 11.4447Q13.3852 11.4034 13.2675 11.368Q13.1499 11.3327 13.0174 11.2973L13.0174 6.92139Q13.0174 6.70883 12.8669 6.55525Q12.7164 6.40167 12.504 6.40167Q12.2945 6.40167 12.1409 6.55525Q11.9873 6.70883 11.9873 6.92139L11.9873 11.2424Q11.8526 11.2521 11.7127 11.2714Q11.5729 11.2906 11.4503 11.3132L11.4503 7.42065Q11.4503 7.20139 11.2968 7.05116Q11.1432 6.90094 10.9172 6.90094Q10.7077 6.90094 10.5526 7.05116Q10.3975 7.20139 10.3975 7.42065L10.3975 11.6495Q10.2592 11.7075 10.1431 11.78Q10.0269 11.8526 9.92691 11.9165L9.92691 9.00742Q9.92691 8.78815 9.76997 8.63457Q9.61304 8.48099 9.39743 8.48099Q9.18503 8.48099 9.02771 8.63457Q8.87039 8.78815 8.87039 9.00742ZM7.6181 19.8547L17.4287 19.8547Q18.8524 19.8547 19.5766 19.1294Q20.3008 18.4041 20.3008 17L20.3008 7.13837Q20.3008 5.73135 19.5766 5.00748Q18.8524 4.2836 17.4287 4.2836L7.6181 4.2836Q6.18469 4.2836 5.46051 5.00107Q4.73633 5.71854 4.73633 7.13837L4.73633 17Q4.73633 18.4167 5.46051 19.1357Q6.18469 19.8547 7.6181 19.8547ZM7.63763 18.6458Q6.81137 18.6458 6.37833 18.2128Q5.94528 17.7798 5.94528 16.9333L5.94528 7.20505Q5.94528 6.35864 6.37833 5.92407Q6.81137 5.4895 7.63763 5.4895L17.3994 5.4895Q18.2069 5.4895 18.6494 5.92407Q19.0918 6.35864 19.0918 7.20505L19.0918 16.9333Q19.0918 17.7798 18.6494 18.2128Q18.2069 18.6458 17.3994 18.6458Z"
                     fill="rgba(255,255,255,0.55)" />
       </g>
</svg>