<svg width="19.5898" height="19.5996">
       <g>
              <rect height="19.5996" opacity="0" width="19.5898" x="0" y="0" />
              <path d="M9.79492 19.5898Q11.8066 19.5898 13.5791 18.8232Q15.3516 18.0566 16.7041 16.7041Q18.0566 15.3516 18.8232 13.5791Q19.5898 11.8066 19.5898 9.79492Q19.5898 7.7832 18.8232 6.01074Q18.0566 4.23828 16.7041 2.88574Q15.3516 1.5332 13.5742 0.766602Q11.7969 0 9.78516 0Q7.77344 0 6.00098 0.766602Q4.22852 1.5332 2.88086 2.88574Q1.5332 4.23828 0.766602 6.01074Q0 7.7832 0 9.79492Q0 11.8066 0.766602 13.5791Q1.5332 15.3516 2.88574 16.7041Q4.23828 18.0566 6.01074 18.8232Q7.7832 19.5898 9.79492 19.5898ZM9.79492 18.3203Q8.02734 18.3203 6.47949 17.6611Q4.93164 17.002 3.75977 15.8301Q2.58789 14.6582 1.92871 13.1104Q1.26953 11.5625 1.26953 9.79492Q1.26953 8.02734 1.92871 6.47949Q2.58789 4.93164 3.75977 3.75488Q4.93164 2.57812 6.47461 1.91895Q8.01758 1.25977 9.78516 1.25977Q11.5625 1.25977 13.1104 1.91895Q14.6582 2.57812 15.8301 3.75488Q17.002 4.93164 17.666 6.47949Q18.3301 8.02734 18.3301 9.79492Q18.3301 11.5625 17.666 13.1104Q17.002 14.6582 15.8301 15.8301Q14.6582 17.002 13.1152 17.6611Q11.5723 18.3203 9.79492 18.3203Z"
                     fill="#0a84ff" />
              <path d="M5.84961 11.5723Q5.84961 12.8711 6.3623 13.7842Q6.875 14.6973 7.76855 15.1709Q8.66211 15.6445 9.79492 15.6445Q11.1426 15.6445 12.1094 15Q13.0762 14.3555 13.6523 12.9004Q13.8477 12.4609 14.0137 11.9775Q14.1797 11.4941 14.3408 10.9717Q14.502 10.4492 14.6582 9.90234Q14.7461 9.61914 14.8291 9.34082Q14.9121 9.0625 14.9121 8.90625Q14.9121 8.67188 14.7607 8.53516Q14.6094 8.39844 14.375 8.39844Q14.1504 8.39844 13.9746 8.54492Q13.7988 8.69141 13.6426 9.0332L12.8613 10.8105Q12.7832 10.9668 12.7002 11.0303Q12.6172 11.0938 12.5391 11.0938Q12.4316 11.0938 12.3584 11.0156Q12.2852 10.9375 12.2852 10.7715L12.2852 4.82422Q12.2852 4.58008 12.1094 4.4043Q11.9336 4.22852 11.6895 4.22852Q11.4453 4.22852 11.2744 4.4043Q11.1035 4.58008 11.1035 4.82422L11.1035 9.01367Q10.9766 8.97461 10.8398 8.92578Q10.7031 8.87695 10.5664 8.84766L10.5664 3.86719Q10.5664 3.62305 10.3906 3.44727Q10.2148 3.27148 9.9707 3.27148Q9.72656 3.27148 9.55078 3.44727Q9.375 3.62305 9.375 3.86719L9.375 8.7793Q9.22852 8.79883 9.07715 8.81836Q8.92578 8.83789 8.76953 8.85742L8.76953 4.43359Q8.76953 4.18945 8.59375 4.01855Q8.41797 3.84766 8.18359 3.84766Q7.93945 3.84766 7.76367 4.01855Q7.58789 4.18945 7.58789 4.43359L7.58789 9.23828Q7.42188 9.31641 7.29004 9.39453Q7.1582 9.47266 7.03125 9.56055L7.03125 6.25Q7.03125 5.99609 6.86035 5.8252Q6.68945 5.6543 6.44531 5.6543Q6.20117 5.6543 6.02539 5.8252Q5.84961 5.99609 5.84961 6.25Z"
                     fill="#0a84ff" />
       </g>
</svg>