<svg width="17.6819" height="17.9224">
       <g>
              <rect height="17.9224" opacity="0" width="17.6819" x="0" y="0" />
              <path d="M2.87872 17.9224L14.8001 17.9224Q16.2334 17.9224 16.9576 17.2018Q17.6819 16.4813 17.6819 15.0743L17.6819 3.0983Q17.6819 1.69128 16.9576 0.967407Q16.2334 0.24353 14.8001 0.24353L2.87872 0.24353Q1.44836 0.24353 0.724182 0.960999Q0 1.67847 0 3.0983L0 15.0743Q0 16.4941 0.724182 17.2083Q1.44836 17.9224 2.87872 17.9224ZM2.90131 16.7163Q2.07504 16.7163 1.642 16.2852Q1.20895 15.854 1.20895 15.0076L1.20895 3.16498Q1.20895 2.31857 1.642 1.884Q2.07504 1.44943 2.90131 1.44943L14.7806 1.44943Q15.5879 1.44943 16.0303 1.884Q16.4728 2.31857 16.4728 3.16498L16.4728 15.0076Q16.4728 15.854 16.0303 16.2852Q15.5879 16.7163 14.7806 16.7163Z"
                     fill="#0a84ff" />
              <path d="M4.69681 10.939Q4.69681 12.2398 5.20996 13.1489Q5.72311 14.0579 6.61751 14.5307Q7.5119 15.0035 8.63937 15.0035Q9.99268 15.0035 10.9611 14.3597Q11.9295 13.716 12.504 12.2652Q12.6947 11.8181 12.862 11.3368Q13.0293 10.8556 13.19 10.3339Q13.3507 9.81232 13.5083 9.26346Q13.5884 8.98682 13.6726 8.70399Q13.7569 8.42117 13.7569 8.26462Q13.7569 8.03635 13.6052 7.89894Q13.4535 7.76154 13.2245 7.76154Q12.9935 7.76154 12.8212 7.90886Q12.6489 8.05618 12.4899 8.39294L11.705 10.1689Q11.6342 10.3322 11.5511 10.3934Q11.4679 10.4547 11.3882 10.4547Q11.2761 10.4547 11.2045 10.378Q11.133 10.3012 11.133 10.1288L11.133 4.18457Q11.133 3.94287 10.958 3.76793Q10.7831 3.59299 10.5383 3.59299Q10.2995 3.59299 10.1279 3.76793Q9.95636 3.94287 9.95636 4.18457L9.95636 8.37921Q9.82407 8.33466 9.68872 8.28957Q9.55338 8.24448 9.41116 8.21594L9.41116 3.22739Q9.41116 2.98859 9.23958 2.81059Q9.06799 2.6326 8.81958 2.6326Q8.58078 2.6326 8.40279 2.81059Q8.22479 2.98859 8.22479 3.22739L8.22479 8.14453Q8.07739 8.16101 7.9232 8.17871Q7.76901 8.19641 7.62085 8.22189L7.62085 3.79745Q7.62085 3.5556 7.44438 3.38402Q7.26791 3.21243 7.02606 3.21243Q6.78726 3.21243 6.60927 3.38402Q6.43127 3.5556 6.43127 3.79745L6.43127 8.60718Q6.27045 8.67783 6.13846 8.75679Q6.00647 8.83575 5.88318 8.91922L5.88318 5.60806Q5.88318 5.36255 5.71007 5.18761Q5.53696 5.01266 5.29526 5.01266Q5.04669 5.01266 4.87175 5.18761Q4.69681 5.36255 4.69681 5.60806Z"
                     fill="#0a84ff" />
       </g>
</svg>