<svg width="19.5898" height="19.5996">
       <g>
              <rect height="19.5996" opacity="0" width="19.5898" x="0" y="0" />
              <path d="M9.79492 19.5898Q11.8066 19.5898 13.5791 18.8232Q15.3516 18.0566 16.7041 16.7041Q18.0566 15.3516 18.8232 13.5791Q19.5898 11.8066 19.5898 9.79492Q19.5898 7.7832 18.8232 6.01074Q18.0566 4.23828 16.7041 2.88574Q15.3516 1.5332 13.5742 0.766602Q11.7969 0 9.78516 0Q7.77344 0 6.00098 0.766602Q4.22852 1.5332 2.88086 2.88574Q1.5332 4.23828 0.766602 6.01074Q0 7.7832 0 9.79492Q0 11.8066 0.766602 13.5791Q1.5332 15.3516 2.88574 16.7041Q4.23828 18.0566 6.01074 18.8232Q7.7832 19.5898 9.79492 19.5898Z"
                     fill="rgba(255,255,255,0.55)" />
              <path d="M15.3809 8.06641Q15.3809 8.90625 15.0977 9.58008Q14.8145 10.2539 14.3359 10.6543Q13.8574 11.0547 13.2422 11.0547L12.4414 11.0547Q12.7637 10.6055 13.0908 9.89258Q13.418 9.17969 13.4277 8.125Q13.4473 7.1875 13.0957 6.40625Q12.7441 5.625 11.9727 5.08789L13.0469 5.08789Q13.7207 5.08789 14.248 5.49805Q14.7754 5.9082 15.0781 6.58691Q15.3809 7.26562 15.3809 8.06641ZM12.793 8.11523Q12.793 9.08203 12.5293 9.75098Q12.2656 10.4199 11.7383 11.1133Q11.123 11.9434 10.376 12.915Q9.62891 13.8867 9.02344 15.0684Q8.86719 15.3809 8.69629 15.5615Q8.52539 15.7422 8.23242 15.7422Q7.91992 15.7422 7.7002 15.5273Q7.48047 15.3125 7.48047 14.9414Q7.48047 14.4629 7.70996 13.9014Q7.93945 13.3398 8.16895 12.8125Q8.39844 12.2852 8.39844 11.9141Q8.39844 11.6113 8.17383 11.4355Q7.94922 11.2598 7.57812 11.2598L5.6543 11.2598Q5.26367 11.2598 4.99023 10.9814Q4.7168 10.7031 4.7168 10.293Q4.7168 10.0781 4.79004 9.89258Q4.86328 9.70703 4.98047 9.59961Q5.11719 9.48242 5.00977 9.4043Q4.90234 9.29688 4.84863 9.11133Q4.79492 8.92578 4.79492 8.74023Q4.79492 8.17383 5.21484 7.92969Q5.35156 7.85156 5.25391 7.71484Q5.05859 7.49023 5.05859 7.09961Q5.05859 6.77734 5.23926 6.55273Q5.41992 6.32812 5.66406 6.2207Q5.76172 6.18164 5.70312 6.06445Q5.6543 5.98633 5.61523 5.85938Q5.57617 5.73242 5.57617 5.58594Q5.57617 5.19531 5.84473 4.99023Q6.11328 4.78516 6.43555 4.70703Q6.66016 4.64844 7.04102 4.61426Q7.42188 4.58008 7.94922 4.58984L8.69141 4.58984Q9.96094 4.59961 10.8838 5.06348Q11.8066 5.52734 12.3096 6.32324Q12.8125 7.11914 12.793 8.11523Z"
                     fill="#ffffff" />
       </g>
</svg>