<svg width="20.3008" height="19.8547">
       <g>
              <rect height="19.8547" opacity="0" width="20.3008" x="0" y="0" />
              <path d="M7.6181 19.8547L17.4287 19.8547Q18.8524 19.8547 19.5766 19.1294Q20.3008 18.4041 20.3008 17L20.3008 7.13837Q20.3008 5.73135 19.5766 5.00748Q18.8524 4.2836 17.4287 4.2836L7.6181 4.2836Q6.18469 4.2836 5.46051 5.00107Q4.73633 5.71854 4.73633 7.13837L4.73633 17Q4.73633 18.4167 5.46051 19.1357Q6.18469 19.8547 7.6181 19.8547ZM0 12.7419Q0 14.1617 0.724182 14.8792Q1.44836 15.5968 2.87872 15.5968L3.59818 15.5968L3.59818 7.13837Q3.59818 5.87952 4.07524 4.98619Q4.55231 4.09286 5.45235 3.62259Q6.35239 3.15231 7.6181 3.15231L15.5644 3.15231L15.5644 2.88025Q15.5644 1.47629 14.8402 0.750885Q14.1161 0.0254822 12.6895 0.0254822L2.87872 0.0254822Q1.44836 0.0254822 0.724182 0.744476Q0 1.46347 0 2.88025Z"
                     fill="rgba(255,255,255,0.55)" />
              <path d="M8.85315 13.7444L8.85315 8.9534Q8.85315 8.73718 9.00711 8.58025Q9.16107 8.42331 9.39072 8.42331Q9.60632 8.42331 9.76662 8.58025Q9.92691 8.73718 9.92691 8.9534L9.92691 11.9232Q10.0336 11.8526 10.1464 11.78Q10.2592 11.7075 10.408 11.6563L10.408 7.33612Q10.408 7.11685 10.5698 6.95808Q10.7317 6.79932 10.9442 6.79932Q11.1633 6.79932 11.3187 6.95808Q11.4742 7.11685 11.4742 7.33612L11.4742 11.3063Q11.6066 11.2839 11.7464 11.2646Q11.8863 11.2454 12.018 11.2357L12.018 6.82327Q12.018 6.604 12.1749 6.44859Q12.3318 6.29318 12.5548 6.29318Q12.774 6.29318 12.9279 6.44859Q13.0818 6.604 13.0818 6.82327L13.0818 11.2906Q13.2074 11.3327 13.3318 11.368Q13.4563 11.4034 13.5593 11.4447L13.5593 7.66846Q13.5593 7.44919 13.718 7.29713Q13.8768 7.14508 14.1028 7.14508Q14.3184 7.14508 14.4756 7.29713Q14.6329 7.44919 14.6329 7.66846L14.6329 13.0072Q14.6329 13.3052 14.8564 13.3052Q14.9399 13.3052 15.0117 13.2484Q15.0836 13.1917 15.1349 13.0443L15.8461 11.458Q15.9953 11.1504 16.1462 11.0162Q16.297 10.882 16.5086 10.882Q16.7151 10.882 16.8521 11.0081Q16.9891 11.1342 16.9891 11.34Q16.9891 11.4801 16.9102 11.7397Q16.8312 11.9992 16.7509 12.2525Q16.6129 12.7466 16.4718 13.2133Q16.3307 13.6801 16.178 14.1147Q16.0252 14.5493 15.8473 14.9519Q15.3412 16.2431 14.4736 16.8184Q13.6061 17.3936 12.3972 17.3936Q11.3757 17.3936 10.5746 16.9659Q9.77356 16.5382 9.31335 15.7243Q8.85315 14.9104 8.85315 13.7444Z"
                     fill="#ffffff" />
       </g>
</svg>