<svg width="17.6819" height="17.7075">
       <g>
              <rect height="17.7075" opacity="0" width="17.6819" x="0" y="0" />
              <path d="M2.87872 17.7075L14.8001 17.7075Q16.2334 17.7075 16.9576 16.987Q17.6819 16.2665 17.6819 14.8528L17.6819 2.8804Q17.6819 1.46667 16.9576 0.746155Q16.2334 0.0256348 14.8001 0.0256348L2.87872 0.0256348Q1.44836 0.0256348 0.724182 0.743103Q0 1.46057 0 2.8804L0 14.8528Q0 16.2726 0.724182 16.9901Q1.44836 17.7075 2.87872 17.7075Z"
                     fill="#0a84ff" />
              <path d="M4.75357 10.7593L4.75357 5.31982Q4.75357 5.07431 4.9353 4.89258Q5.11703 4.71085 5.37231 4.71085Q5.61401 4.71085 5.79575 4.89258Q5.97748 5.07431 5.97748 5.31982L5.97748 8.69537Q6.09695 8.61191 6.2323 8.53142Q6.36765 8.45093 6.52863 8.38028L6.52863 3.46863Q6.52863 3.22021 6.70845 3.04527Q6.88828 2.87033 7.13379 2.87033Q7.38235 2.87033 7.56554 3.04527Q7.74872 3.22021 7.74872 3.46863L7.74872 7.98447Q7.89688 7.95898 8.05107 7.94128Q8.20526 7.92358 8.35953 7.9071L8.35953 2.8949Q8.35953 2.6532 8.536 2.47002Q8.71246 2.28683 8.96774 2.28683Q9.21997 2.28683 9.39491 2.47002Q9.56985 2.6532 9.56985 2.8949L9.56985 7.96875Q9.71497 8.01086 9.85214 8.05748Q9.98932 8.1041 10.1216 8.1485L10.1216 3.86261Q10.1216 3.61404 10.2966 3.43575Q10.4716 3.25745 10.7269 3.25745Q10.9686 3.25745 11.1469 3.43575Q11.3252 3.61404 11.3252 3.86261L11.3252 9.93195Q11.3252 10.1109 11.4001 10.1877Q11.4751 10.2644 11.5872 10.2644Q11.6737 10.2644 11.7535 10.2032Q11.8333 10.1419 11.904 9.97192L12.7092 8.16238Q12.8719 7.81876 13.0457 7.66464Q13.2195 7.51053 13.4639 7.51053Q13.6967 7.51053 13.8551 7.65137Q14.0135 7.79221 14.0135 8.02719Q14.0135 8.1839 13.9241 8.47527Q13.8347 8.76663 13.7447 9.0567Q13.587 9.61914 13.4246 10.1493Q13.2622 10.6795 13.0865 11.1757Q12.9108 11.6719 12.7135 12.1228Q12.1323 13.5938 11.1466 14.2477Q10.161 14.9016 8.78082 14.9016Q7.62634 14.9016 6.71326 14.4186Q5.80017 13.9357 5.27687 13.0098Q4.75357 12.0839 4.75357 10.7593Z"
                     fill="#ffffff" />
       </g>
</svg>