<svg width="19.5898" height="19.5996">
       <g>
              <rect height="19.5996" opacity="0" width="19.5898" x="0" y="0" />
              <path d="M9.79492 19.5898Q11.8066 19.5898 13.5791 18.8232Q15.3516 18.0566 16.7041 16.7041Q18.0566 15.3516 18.8232 13.5791Q19.5898 11.8066 19.5898 9.79492Q19.5898 7.7832 18.8232 6.01074Q18.0566 4.23828 16.7041 2.88574Q15.3516 1.5332 13.5742 0.766602Q11.7969 0 9.78516 0Q7.77344 0 6.00098 0.766602Q4.22852 1.5332 2.88086 2.88574Q1.5332 4.23828 0.766602 6.01074Q0 7.7832 0 9.79492Q0 11.8066 0.766602 13.5791Q1.5332 15.3516 2.88574 16.7041Q4.23828 18.0566 6.01074 18.8232Q7.7832 19.5898 9.79492 19.5898Z"
                     fill="rgba(255,255,255,0.55)" />
              <path d="M4.11133 11.4453Q4.11133 10.6152 4.38965 9.93652Q4.66797 9.25781 5.15137 8.85742Q5.63477 8.45703 6.24023 8.45703L7.06055 8.45703Q6.71875 8.90625 6.39648 9.62402Q6.07422 10.3418 6.05469 11.3965Q6.04492 12.334 6.39648 13.1152Q6.74805 13.8965 7.50977 14.4238L6.44531 14.4238Q5.77148 14.4238 5.23926 14.0186Q4.70703 13.6133 4.40918 12.9346Q4.11133 12.2559 4.11133 11.4453ZM6.68945 11.4062Q6.69922 10.4395 6.96289 9.76562Q7.22656 9.0918 7.74414 8.4082Q8.36914 7.57812 9.11621 6.60156Q9.86328 5.625 10.4688 4.44336Q10.625 4.14062 10.7959 3.95508Q10.9668 3.76953 11.2598 3.76953Q11.5723 3.76953 11.792 3.98438Q12.0117 4.19922 12.0117 4.57031Q12.0117 5.04883 11.7822 5.61035Q11.5527 6.17188 11.3232 6.7041Q11.0938 7.23633 11.0938 7.59766Q11.0938 7.90039 11.3184 8.07617Q11.543 8.25195 11.9141 8.25195L13.8281 8.25195Q14.2285 8.25195 14.502 8.53516Q14.7754 8.81836 14.7754 9.21875Q14.7754 9.44336 14.7021 9.62402Q14.6289 9.80469 14.502 9.92188Q14.3652 10.0293 14.4824 10.1172Q14.5898 10.2148 14.6484 10.4004Q14.707 10.5859 14.707 10.7715Q14.707 11.3379 14.2773 11.582Q14.1406 11.6699 14.2383 11.7969Q14.4434 12.0312 14.4434 12.4121Q14.4434 12.7344 14.2578 12.9639Q14.0723 13.1934 13.8184 13.291Q13.7305 13.3398 13.7891 13.4473Q13.8379 13.5352 13.877 13.6572Q13.916 13.7793 13.916 13.9258Q13.916 14.3164 13.6523 14.5215Q13.3887 14.7266 13.0566 14.8047Q12.832 14.8633 12.4512 14.8975Q12.0703 14.9316 11.5527 14.9316L10.8008 14.9219Q9.53125 14.9121 8.6084 14.4482Q7.68555 13.9844 7.18262 13.1934Q6.67969 12.4023 6.68945 11.4062Z"
                     fill="#ffffff" />
       </g>
</svg>