<svg width="19.5898" height="19.5996">
       <g>
              <rect height="19.5996" opacity="0" width="19.5898" x="0" y="0" />
              <path d="M9.79492 19.5996Q11.8066 19.5996 13.5791 18.833Q15.3516 18.0664 16.7041 16.7139Q18.0566 15.3613 18.8232 13.5889Q19.5898 11.8164 19.5898 9.80469Q19.5898 7.79297 18.8232 6.02051Q18.0566 4.24805 16.7041 2.89551Q15.3516 1.54297 13.5742 0.776367Q11.7969 0.00976562 9.78516 0.00976562Q7.77344 0.00976562 6.00098 0.776367Q4.22852 1.54297 2.88086 2.89551Q1.5332 4.24805 0.766602 6.02051Q0 7.79297 0 9.80469Q0 11.8164 0.766602 13.5889Q1.5332 15.3613 2.88574 16.7139Q4.23828 18.0664 6.01074 18.833Q7.7832 19.5996 9.79492 19.5996Z"
                     fill="rgba(255,255,255,0.55)" />
              <path d="M4.46289 9.78516Q4.46289 8.06641 5.13184 6.77246Q5.80078 5.47852 6.99707 4.76562Q8.19336 4.05273 9.79492 4.05273Q11.4062 4.05273 12.6074 4.76562Q13.8086 5.47852 14.4824 6.77246Q15.1562 8.06641 15.1562 9.78516Q15.1562 11.0938 14.834 12.2314Q14.5117 13.3691 13.9453 14.3848Q13.8184 14.5898 13.6328 14.6777Q13.4473 14.7656 13.2617 14.7266Q12.8613 15.1074 12.2656 14.9219Q11.8066 14.7949 11.6113 14.4385Q11.416 14.082 11.5527 13.623L12.3242 11.123Q12.4512 10.6543 12.8076 10.4639Q13.1641 10.2734 13.623 10.4102Q13.8477 10.4688 14.0332 10.6152Q14.0625 10.4102 14.0723 10.2051Q14.082 10 14.082 9.78516Q14.082 8.38867 13.54 7.33887Q12.998 6.28906 12.0361 5.70312Q11.0742 5.11719 9.79492 5.11719Q8.52539 5.11719 7.56836 5.70312Q6.61133 6.28906 6.07422 7.33887Q5.53711 8.38867 5.53711 9.78516Q5.53711 10 5.54199 10.2002Q5.54688 10.4004 5.57617 10.6055Q5.74219 10.4785 5.9668 10.4102Q6.43555 10.2734 6.79199 10.4639Q7.14844 10.6543 7.28516 11.123L8.03711 13.623Q8.18359 14.0723 7.98828 14.4336Q7.79297 14.7949 7.33398 14.9219Q6.73828 15.127 6.33789 14.7266Q6.14258 14.7656 5.96191 14.6777Q5.78125 14.5898 5.66406 14.3848Q5.08789 13.3887 4.77539 12.2461Q4.46289 11.1035 4.46289 9.78516Z"
                     fill="#ffffff" />
       </g>
</svg>