<svg width="21.2949" height="20.4984">
       <g>
              <rect height="20.4984" opacity="0" width="21.2949" x="0" y="0" />
              <path d="M6.62491 16.2337Q6.62491 17.5208 7.1386 18.4775Q7.65228 19.4342 8.58887 19.9596Q9.52545 20.4849 10.7892 20.4849Q12.233 20.4849 13.3176 19.8101Q14.4023 19.1353 15.0714 17.8708L15.808 16.4984Q16.3286 15.4942 16.9322 14.7556Q17.5359 14.017 18.1526 13.4229Q18.7694 12.8287 19.3324 12.2606Q19.8955 11.6925 20.3364 11.0377Q20.7773 10.3828 21.0361 9.52286Q21.2949 8.66287 21.2949 7.47025Q21.2949 5.22369 20.3932 3.54614Q19.4916 1.86859 17.8644 0.934296Q16.2372 0 14.0659 0Q11.848 0 10.172 0.948257Q8.49594 1.89651 7.56042 3.59291Q6.62491 5.28931 6.62491 7.53586ZM9.40079 13.6079Q9.40079 13.0809 9.60472 12.7721Q9.80865 12.4632 10.1086 12.2741Q10.4086 12.085 10.7121 11.925Q11.0155 11.7651 11.216 11.5501Q11.4166 11.3351 11.4166 10.9584Q11.4166 10.5751 11.1132 10.2129Q10.8098 9.85077 10.4102 9.42032Q10.0107 8.98987 9.70573 8.4095Q9.40079 7.82913 9.40079 6.99661Q9.40079 5.78064 9.98589 4.82445Q10.571 3.86826 11.6113 3.32291Q12.6515 2.77756 14.0312 2.77756Q15.4236 2.77756 16.4623 3.35167Q17.5011 3.92578 18.0786 4.963Q18.6562 6.00021 18.6562 7.39273Q18.6562 7.6326 18.4796 7.80571Q18.3031 7.97882 18.0634 7.97882Q17.8271 7.97882 17.6506 7.80571Q17.4741 7.6326 17.4741 7.39273Q17.4741 5.83176 16.5395 4.89563Q15.605 3.9595 14.0312 3.9595Q13.0014 3.9595 12.2243 4.35349Q11.4471 4.74747 11.015 5.43564Q10.5829 6.12381 10.5829 6.99661Q10.5829 7.64221 10.8932 8.11478Q11.2035 8.58734 11.6618 9.00879Q12.1201 9.43024 12.5765 9.89632Q13.033 10.3624 13.3418 10.9686Q13.6505 11.5747 13.6505 12.4445Q13.6505 13.1999 13.3358 13.8155Q13.0211 14.4312 12.4695 14.7964Q11.9179 15.1616 11.1925 15.1616Q10.3915 15.1616 9.89616 14.7345Q9.40079 14.3074 9.40079 13.6079Z"
                     fill="rgba(255,255,255,0.55)" />
              <path d="M1.70303 19.5815Q2.39914 19.5815 2.88948 19.0926Q3.37982 18.6038 3.37982 17.9077Q3.37982 17.2049 2.88948 16.7146Q2.39914 16.2242 1.70303 16.2242Q0.980682 16.2242 0.490341 16.7097Q0 17.1951 0 17.9077Q0 18.6038 0.495224 19.0926Q0.990448 19.5815 1.70303 19.5815Z"
                     fill="rgba(255,255,255,0.55)" />
              <path d="M1.70303 14.5578Q2.16705 14.5578 2.54623 14.3273Q2.92542 14.0968 3.15262 13.7112Q3.37982 13.3257 3.37982 12.8548Q3.37982 12.1558 2.88948 11.6669Q2.39914 11.1781 1.70303 11.1781Q1.22925 11.1781 0.841751 11.4037Q0.454254 11.6293 0.227127 12.01Q0 12.3907 0 12.8548Q0 13.5704 0.490341 14.0641Q0.980682 14.5578 1.70303 14.5578Z"
                     fill="rgba(255,255,255,0.55)" />
              <path d="M1.70303 9.50195Q2.39914 9.50195 2.88948 9.01314Q3.37982 8.52432 3.37982 7.81845Q3.37982 7.10587 2.88948 6.61552Q2.39914 6.12518 1.70303 6.12518Q0.980682 6.12518 0.490341 6.61552Q0 7.10587 0 7.81845Q0 8.52432 0.490341 9.01314Q0.980682 9.50195 1.70303 9.50195Z"
                     fill="rgba(255,255,255,0.55)" />
              <path d="M1.70303 4.45572Q2.39914 4.45572 2.88948 3.9669Q3.37982 3.47809 3.37982 2.77527Q3.37982 2.07916 2.88948 1.58882Q2.39914 1.09848 1.70303 1.09848Q0.990448 1.09848 0.495224 1.58882Q0 2.07916 0 2.77527Q0 3.48114 0.490341 3.96843Q0.980682 4.45572 1.70303 4.45572Z"
                     fill="rgba(255,255,255,0.165)" />
       </g>
</svg>