<svg width="21.2949" height="20.4984">
       <g>
              <rect height="20.4984" opacity="0" width="21.2949" x="0" y="0" />
              <path d="M6.62491 16.2337Q6.62491 17.5208 7.1386 18.4775Q7.65228 19.4342 8.58887 19.9596Q9.52545 20.4849 10.7892 20.4849Q12.233 20.4849 13.3176 19.8101Q14.4023 19.1353 15.0714 17.8708L15.808 16.4984Q16.3286 15.4942 16.9322 14.7556Q17.5359 14.017 18.1526 13.4229Q18.7694 12.8287 19.3324 12.2606Q19.8955 11.6925 20.3364 11.0377Q20.7773 10.3828 21.0361 9.52286Q21.2949 8.66287 21.2949 7.47025Q21.2949 5.22369 20.3932 3.54614Q19.4916 1.86859 17.8644 0.934296Q16.2372 0 14.0659 0Q11.848 0 10.172 0.948257Q8.49594 1.89651 7.56042 3.59291Q6.62491 5.28931 6.62491 7.53586ZM7.76947 16.1693L7.76947 7.53586Q7.76947 5.616 8.55728 4.179Q9.34509 2.742 10.7614 1.94328Q12.1777 1.14456 14.0659 1.14456Q15.8916 1.14456 17.2575 1.93726Q18.6235 2.72995 19.3869 4.15451Q20.1503 5.57907 20.1503 7.47025Q20.1503 8.50327 19.9046 9.2717Q19.659 10.0401 19.2379 10.6451Q18.8168 11.2502 18.2736 11.798Q17.7304 12.3459 17.1302 12.9353Q16.53 13.5246 15.9297 14.2568Q15.3294 14.989 14.7992 15.9804L14.0645 17.2955Q13.519 18.3005 12.7155 18.8084Q11.9119 19.3164 10.8365 19.3164Q9.42154 19.3164 8.5955 18.4638Q7.76947 17.6112 7.76947 16.1693ZM9.4989 13.5167Q9.4989 14.2027 9.98077 14.6178Q10.4626 15.0328 11.2463 15.0328Q12.3045 15.0261 12.9775 14.2588Q13.6505 13.4915 13.6505 12.3801Q13.6505 11.5305 13.3485 10.9329Q13.0464 10.3354 12.5967 9.88281Q12.1469 9.43024 11.6972 9.0155Q11.2476 8.60077 10.944 8.13492Q10.6404 7.66907 10.6404 7.03705Q10.6404 6.18149 11.0674 5.50339Q11.4943 4.82529 12.258 4.4381Q13.0217 4.0509 14.0312 4.0509Q15.5811 4.0509 16.4988 4.97009Q17.4165 5.88928 17.4165 7.4234Q17.4165 7.65274 17.5829 7.82257Q17.7493 7.9924 17.9854 7.9924Q18.2216 7.9924 18.3913 7.82257Q18.5611 7.65274 18.5611 7.4234Q18.5611 6.06461 17.9955 5.04761Q17.43 4.03061 16.4114 3.4684Q15.3929 2.90619 14.0312 2.90619Q12.6851 2.90619 11.6636 3.43956Q10.6421 3.97293 10.0705 4.90898Q9.4989 5.84503 9.4989 7.03705Q9.4989 7.85294 9.79706 8.42476Q10.0952 8.99658 10.4847 9.42032Q10.8742 9.84406 11.1708 10.1962Q11.4674 10.5482 11.4674 10.9277Q11.4674 11.2947 11.2703 11.5078Q11.0732 11.7209 10.7798 11.8775Q10.4865 12.0341 10.1932 12.2165Q9.8999 12.3988 9.6994 12.6976Q9.4989 12.9964 9.4989 13.5167Z"
                     fill="rgba(255,255,255,0.55)" />
              <path d="M1.70303 19.5815Q2.39914 19.5815 2.88948 19.0926Q3.37982 18.6038 3.37982 17.9077Q3.37982 17.2049 2.88948 16.7146Q2.39914 16.2242 1.70303 16.2242Q0.980682 16.2242 0.490341 16.7097Q0 17.1951 0 17.9077Q0 18.6038 0.495224 19.0926Q0.990448 19.5815 1.70303 19.5815Z"
                     fill="rgba(255,255,255,0.55)" />
              <path d="M1.70303 14.5578Q2.16705 14.5578 2.54623 14.3273Q2.92542 14.0968 3.15262 13.7112Q3.37982 13.3257 3.37982 12.8548Q3.37982 12.1558 2.88948 11.6669Q2.39914 11.1781 1.70303 11.1781Q1.22925 11.1781 0.841751 11.4037Q0.454254 11.6293 0.227127 12.01Q0 12.3907 0 12.8548Q0 13.5704 0.490341 14.0641Q0.980682 14.5578 1.70303 14.5578Z"
                     fill="rgba(255,255,255,0.55)" />
              <path d="M1.70303 9.50195Q2.39914 9.50195 2.88948 9.01314Q3.37982 8.52432 3.37982 7.81845Q3.37982 7.10587 2.88948 6.61552Q2.39914 6.12518 1.70303 6.12518Q0.980682 6.12518 0.490341 6.61552Q0 7.10587 0 7.81845Q0 8.52432 0.490341 9.01314Q0.980682 9.50195 1.70303 9.50195Z"
                     fill="rgba(255,255,255,0.55)" />
              <path d="M1.70303 4.45572Q2.39914 4.45572 2.88948 3.9669Q3.37982 3.47809 3.37982 2.77527Q3.37982 2.07916 2.88948 1.58882Q2.39914 1.09848 1.70303 1.09848Q0.990448 1.09848 0.495224 1.58882Q0 2.07916 0 2.77527Q0 3.48114 0.490341 3.96843Q0.980682 4.45572 1.70303 4.45572Z"
                     fill="rgba(255,255,255,0.165)" />
       </g>
</svg>