<svg width="19.5898" height="19.5996">
       <g>
              <rect height="19.5996" opacity="0" width="19.5898" x="0" y="0" />
              <path d="M9.79492 19.5898Q11.8066 19.5898 13.5791 18.8232Q15.3516 18.0566 16.7041 16.7041Q18.0566 15.3516 18.8232 13.5791Q19.5898 11.8066 19.5898 9.79492Q19.5898 7.7832 18.8232 6.01074Q18.0566 4.23828 16.7041 2.88574Q15.3516 1.5332 13.5742 0.766602Q11.7969 0 9.78516 0Q7.77344 0 6.00098 0.766602Q4.22852 1.5332 2.88086 2.88574Q1.5332 4.23828 0.766602 6.01074Q0 7.7832 0 9.79492Q0 11.8066 0.766602 13.5791Q1.5332 15.3516 2.88574 16.7041Q4.23828 18.0566 6.01074 18.8232Q7.7832 19.5898 9.79492 19.5898ZM9.79492 18.3203Q8.02734 18.3203 6.47949 17.6611Q4.93164 17.002 3.75977 15.8301Q2.58789 14.6582 1.92871 13.1104Q1.26953 11.5625 1.26953 9.79492Q1.26953 8.02734 1.92871 6.47949Q2.58789 4.93164 3.75977 3.75488Q4.93164 2.57812 6.47461 1.91895Q8.01758 1.25977 9.78516 1.25977Q11.5625 1.25977 13.1104 1.91895Q14.6582 2.57812 15.8301 3.75488Q17.002 4.93164 17.666 6.47949Q18.3301 8.02734 18.3301 9.79492Q18.3301 11.5625 17.666 13.1104Q17.002 14.6582 15.8301 15.8301Q14.6582 17.002 13.1152 17.6611Q11.5723 18.3203 9.79492 18.3203Z"
                     fill="#ff453a" />
              <path d="M7.45117 5.44922Q6.63086 5.44922 5.99121 5.83008Q5.35156 6.21094 4.98535 6.87012Q4.61914 7.5293 4.61914 8.38867Q4.61914 9.18945 4.92676 9.94629Q5.23438 10.7031 5.74707 11.3916Q6.25977 12.0801 6.88965 12.6855Q7.51953 13.291 8.16406 13.7842Q8.80859 14.2773 9.36523 14.6387Q9.48242 14.6973 9.60449 14.7607Q9.72656 14.8242 9.80469 14.8242Q9.88281 14.8242 10 14.7656Q10.1172 14.707 10.2148 14.6387Q10.7617 14.2578 11.4062 13.7598Q12.0508 13.2617 12.6807 12.6611Q13.3105 12.0605 13.8281 11.3721Q14.3457 10.6836 14.6582 9.93652Q14.9707 9.18945 14.9707 8.38867Q14.9707 7.5293 14.5996 6.87012Q14.2285 6.21094 13.5938 5.83008Q12.959 5.44922 12.1387 5.44922Q11.3672 5.44922 10.7568 5.86914Q10.1465 6.28906 9.79492 6.92383Q9.44336 6.28906 8.83789 5.86914Q8.23242 5.44922 7.45117 5.44922Z"
                     fill="#ff453a" />
       </g>
</svg>