<svg width="19.0312" height="17.9865">
       <g>
              <rect height="17.9865" opacity="0" width="19.0312" x="0" y="0" />
              <path d="M0 6.22467Q0 8.25928 1.11076 10.2515Q2.22153 12.2438 4.22935 14.1362Q6.23718 16.0286 8.91846 17.7652Q9.05045 17.8508 9.2189 17.9186Q9.38736 17.9865 9.51569 17.9865Q9.65073 17.9865 9.81758 17.9186Q9.98444 17.8508 10.1166 17.7652Q12.8008 16.0286 14.8053 14.1362Q16.8098 12.2438 17.9205 10.2515Q19.0312 8.25928 19.0312 6.22467Q19.0312 4.96826 18.6283 3.92242Q18.2254 2.87659 17.4995 2.10983Q16.7737 1.34308 15.7932 0.925446Q14.8126 0.507812 13.6546 0.507812Q12.3305 0.507812 11.237 1.13686Q10.1434 1.7659 9.51569 2.81281Q8.8916 1.7659 7.79617 1.13686Q6.70074 0.507812 5.37659 0.507812Q4.22531 0.507812 3.24486 0.925446Q2.2644 1.34308 1.53511 2.10983Q0.805817 2.87659 0.402908 3.92242Q0 4.96826 0 6.22467ZM1.20895 6.22467Q1.20895 4.88037 1.74736 3.86635Q2.28577 2.85233 3.22632 2.2831Q4.16687 1.71387 5.36316 1.71387Q6.26907 1.71387 6.95801 2.04254Q7.64694 2.37122 8.14293 2.88368Q8.63892 3.39615 8.96957 3.95706Q9.13239 4.19861 9.24973 4.28604Q9.36707 4.37347 9.51569 4.37347Q9.66415 4.37347 9.77814 4.28268Q9.89212 4.19189 10.0586 3.95706Q10.4057 3.40286 10.9051 2.88704Q11.4044 2.37122 12.0833 2.04254Q12.7621 1.71387 13.6681 1.71387Q14.8645 1.71387 15.8035 2.2831Q16.7424 2.85233 17.2823 3.86635Q17.8223 4.88037 17.8223 6.22467Q17.8223 7.59125 17.1664 8.9843Q16.5106 10.3773 15.3743 11.7229Q14.238 13.0684 12.7732 14.3114Q11.3084 15.5545 9.6904 16.6277Q9.55475 16.7236 9.51569 16.7236Q9.47662 16.7236 9.34753 16.6277Q7.72964 15.5545 6.2648 14.3114Q4.79996 13.0684 3.66028 11.7229Q2.5206 10.3773 1.86478 8.9843Q1.20895 7.59125 1.20895 6.22467Z"
                     fill="#ff453a" />
       </g>
</svg>