<svg width="22.8711" height="17.6855">
       <g>
              <rect height="17.6855" opacity="0" width="22.8711" x="0" y="0" />
              <path d="M2.88086 17.6855L19.9902 17.6855Q21.4258 17.6855 22.1484 16.9629Q22.8711 16.2402 22.8711 14.834L22.8711 2.85156Q22.8711 1.44531 22.1484 0.722656Q21.4258 0 19.9902 0L2.88086 0Q1.44531 0 0.722656 0.717773Q0 1.43555 0 2.85156L0 14.834Q0 16.25 0.722656 16.9678Q1.44531 17.6855 2.88086 17.6855ZM2.90039 16.4746Q2.07031 16.4746 1.64062 16.0449Q1.21094 15.6152 1.21094 14.7656L1.21094 2.91992Q1.21094 2.07031 1.64062 1.64062Q2.07031 1.21094 2.90039 1.21094L19.9707 1.21094Q20.7715 1.21094 21.2158 1.64062Q21.6602 2.07031 21.6602 2.91992L21.6602 14.7656Q21.6602 15.6152 21.2158 16.0449Q20.7715 16.4746 19.9707 16.4746Z"
                     fill="#ff453a" />
              <path d="M9.10156 4.49219Q8.28125 4.49219 7.6416 4.87305Q7.00195 5.25391 6.63574 5.91309Q6.26953 6.57227 6.26953 7.43164Q6.26953 8.23242 6.57715 8.98926Q6.88477 9.74609 7.39746 10.4346Q7.91016 11.123 8.54004 11.7285Q9.16992 12.334 9.81445 12.8271Q10.459 13.3203 11.0156 13.6816Q11.1328 13.7402 11.2549 13.8037Q11.377 13.8672 11.4551 13.8672Q11.5332 13.8672 11.6504 13.8086Q11.7676 13.75 11.8652 13.6816Q12.4121 13.3008 13.0566 12.8027Q13.7012 12.3047 14.3311 11.7041Q14.9609 11.1035 15.4785 10.415Q15.9961 9.72656 16.3086 8.97949Q16.6211 8.23242 16.6211 7.43164Q16.6211 6.57227 16.25 5.91309Q15.8789 5.25391 15.2441 4.87305Q14.6094 4.49219 13.7891 4.49219Q13.0176 4.49219 12.4072 4.91211Q11.7969 5.33203 11.4453 5.9668Q11.0938 5.33203 10.4883 4.91211Q9.88281 4.49219 9.10156 4.49219Z"
                     fill="#ff453a" />
       </g>
</svg>