<svg width="17.6855" height="17.7051">
       <g>
              <rect height="17.7051" opacity="0" width="17.6855" x="0" y="0" />
              <path d="M2.88086 17.7051L14.8047 17.7051Q16.2305 17.7051 16.958 16.9873Q17.6855 16.2695 17.6855 14.8535L17.6855 2.88086Q17.6855 1.46484 16.958 0.742188Q16.2305 0.0195312 14.8047 0.0195312L2.88086 0.0195312Q1.44531 0.0195312 0.722656 0.737305Q0 1.45508 0 2.88086L0 14.8535Q0 16.2695 0.722656 16.9873Q1.44531 17.7051 2.88086 17.7051ZM2.90039 16.4941Q2.07031 16.4941 1.64062 16.0645Q1.21094 15.6348 1.21094 14.7949L1.21094 2.93945Q1.21094 2.08984 1.64062 1.66016Q2.07031 1.23047 2.90039 1.23047L14.7852 1.23047Q15.5859 1.23047 16.0303 1.66016Q16.4746 2.08984 16.4746 2.93945L16.4746 14.7949Q16.4746 15.6348 16.0303 16.0645Q15.5859 16.4941 14.7852 16.4941Z"
                     fill="#ff453a" />
              <path d="M6.51367 4.50195Q5.69336 4.50195 5.05371 4.88281Q4.41406 5.26367 4.04785 5.92285Q3.68164 6.58203 3.68164 7.44141Q3.68164 8.24219 3.98926 8.99902Q4.29688 9.75586 4.80957 10.4443Q5.32227 11.1328 5.95215 11.7383Q6.58203 12.3438 7.22656 12.8369Q7.87109 13.3301 8.42773 13.6914Q8.54492 13.75 8.66699 13.8135Q8.78906 13.877 8.86719 13.877Q8.94531 13.877 9.0625 13.8184Q9.17969 13.7598 9.27734 13.6914Q9.82422 13.3105 10.4688 12.8125Q11.1133 12.3145 11.7432 11.7139Q12.373 11.1133 12.8906 10.4248Q13.4082 9.73633 13.7207 8.98926Q14.0332 8.24219 14.0332 7.44141Q14.0332 6.58203 13.6621 5.92285Q13.291 5.26367 12.6562 4.88281Q12.0215 4.50195 11.2012 4.50195Q10.4297 4.50195 9.81934 4.92188Q9.20898 5.3418 8.85742 5.97656Q8.50586 5.3418 7.90039 4.92188Q7.29492 4.50195 6.51367 4.50195Z"
                     fill="#ff453a" />
       </g>
</svg>