<svg width="22.8711" height="17.6855">
       <g>
              <rect height="17.6855" opacity="0" width="22.8711" x="0" y="0" />
              <path d="M2.88086 17.6855L19.9902 17.6855Q21.4258 17.6855 22.1484 16.9629Q22.8711 16.2402 22.8711 14.834L22.8711 2.85156Q22.8711 1.44531 22.1484 0.722656Q21.4258 0 19.9902 0L2.88086 0Q1.44531 0 0.722656 0.717773Q0 1.43555 0 2.85156L0 14.834Q0 16.25 0.722656 16.9678Q1.44531 17.6855 2.88086 17.6855Z"
                     fill="#ff453a" />
              <path d="M9.05273 4.4043Q9.85352 4.4043 10.4688 4.8291Q11.084 5.25391 11.4453 5.9082Q11.8066 5.25391 12.4268 4.8291Q13.0469 4.4043 13.8379 4.4043Q14.6777 4.4043 15.3271 4.79492Q15.9766 5.18555 16.3525 5.85938Q16.7285 6.5332 16.7285 7.40234Q16.7285 8.22266 16.4062 8.98438Q16.084 9.74609 15.5566 10.4492Q15.0293 11.1523 14.3896 11.7676Q13.75 12.3828 13.0957 12.8857Q12.4414 13.3887 11.875 13.7793Q11.7773 13.8477 11.6602 13.9111Q11.543 13.9746 11.4551 13.9746Q11.377 13.9746 11.25 13.9111Q11.123 13.8477 11.0059 13.7793Q10.4395 13.4082 9.78027 12.9053Q9.12109 12.4023 8.48145 11.792Q7.8418 11.1816 7.31445 10.4736Q6.78711 9.76562 6.47461 8.99414Q6.16211 8.22266 6.16211 7.40234Q6.16211 6.5332 6.5332 5.85938Q6.9043 5.18555 7.55859 4.79492Q8.21289 4.4043 9.05273 4.4043Z"
                     fill="#ffffff" />
       </g>
</svg>