<svg width="19.0312" height="17.9865">
       <g>
              <rect height="17.9865" opacity="0" width="19.0312" x="0" y="0" />
              <path d="M9.51569 17.9865Q9.65073 17.9865 9.81758 17.9186Q9.98444 17.8508 10.1166 17.7652Q12.8008 16.0286 14.8053 14.1362Q16.8098 12.2438 17.9205 10.2515Q19.0312 8.25928 19.0312 6.22467Q19.0312 4.96826 18.6283 3.92242Q18.2254 2.87659 17.5063 2.10983Q16.7871 1.34308 15.8186 0.925446Q14.8502 0.507812 13.7189 0.507812Q12.3506 0.507812 11.247 1.2233Q10.1434 1.93878 9.51569 3.13446Q8.8916 1.9455 7.78946 1.22665Q6.68732 0.507812 5.31235 0.507812Q4.18121 0.507812 3.21602 0.925446Q2.25082 1.34308 1.52832 2.10983Q0.805817 2.87659 0.402908 3.92242Q0 4.96826 0 6.22467Q0 8.25928 1.11076 10.2515Q2.22153 12.2438 4.22935 14.1362Q6.23718 16.0286 8.91846 17.7652Q9.05045 17.8508 9.2189 17.9186Q9.38736 17.9865 9.51569 17.9865Z"
                     fill="#ff453a" />
       </g>
</svg>