<svg width="19.5898" height="19.5996">
       <g>
              <rect height="19.5996" opacity="0" width="19.5898" x="0" y="0" />
              <path d="M9.79492 19.5898Q11.8066 19.5898 13.5791 18.8232Q15.3516 18.0566 16.7041 16.7041Q18.0566 15.3516 18.8232 13.5791Q19.5898 11.8066 19.5898 9.79492Q19.5898 7.7832 18.8232 6.01074Q18.0566 4.23828 16.7041 2.88574Q15.3516 1.5332 13.5742 0.766602Q11.7969 0 9.78516 0Q7.77344 0 6.00098 0.766602Q4.22852 1.5332 2.88086 2.88574Q1.5332 4.23828 0.766602 6.01074Q0 7.7832 0 9.79492Q0 11.8066 0.766602 13.5791Q1.5332 15.3516 2.88574 16.7041Q4.23828 18.0566 6.01074 18.8232Q7.7832 19.5898 9.79492 19.5898Z"
                     fill="#ff453a" />
              <path d="M7.40234 5.35156Q8.20312 5.35156 8.81836 5.77637Q9.43359 6.20117 9.79492 6.85547Q10.1562 6.20117 10.7764 5.77637Q11.3965 5.35156 12.1875 5.35156Q13.0273 5.35156 13.6768 5.74219Q14.3262 6.13281 14.7021 6.80664Q15.0781 7.48047 15.0781 8.34961Q15.0781 9.16992 14.7559 9.93164Q14.4336 10.6934 13.9062 11.3965Q13.3789 12.0996 12.7393 12.7148Q12.0996 13.3301 11.4453 13.833Q10.791 14.3359 10.2246 14.7266Q10.127 14.7949 10.0098 14.8584Q9.89258 14.9219 9.80469 14.9219Q9.72656 14.9219 9.59961 14.8584Q9.47266 14.7949 9.35547 14.7266Q8.78906 14.3555 8.12988 13.8525Q7.4707 13.3496 6.83105 12.7393Q6.19141 12.1289 5.66406 11.4209Q5.13672 10.7129 4.82422 9.94141Q4.51172 9.16992 4.51172 8.34961Q4.51172 7.48047 4.88281 6.80664Q5.25391 6.13281 5.9082 5.74219Q6.5625 5.35156 7.40234 5.35156Z"
                     fill="#ffffff" />
       </g>
</svg>