<svg width="17.6855" height="17.7051">
       <g>
              <rect height="17.7051" opacity="0" width="17.6855" x="0" y="0" />
              <path d="M2.88086 17.7051L14.8047 17.7051Q16.2305 17.7051 16.958 16.9873Q17.6855 16.2695 17.6855 14.8535L17.6855 2.88086Q17.6855 1.46484 16.958 0.742188Q16.2305 0.0195312 14.8047 0.0195312L2.88086 0.0195312Q1.44531 0.0195312 0.722656 0.737305Q0 1.45508 0 2.88086L0 14.8535Q0 16.2695 0.722656 16.9873Q1.44531 17.7051 2.88086 17.7051Z"
                     fill="#ff453a" />
              <path d="M6.45508 4.4043Q7.25586 4.4043 7.87109 4.8291Q8.48633 5.25391 8.84766 5.9082Q9.20898 5.25391 9.8291 4.8291Q10.4492 4.4043 11.2402 4.4043Q12.0801 4.4043 12.7295 4.79492Q13.3789 5.18555 13.7549 5.85938Q14.1309 6.5332 14.1309 7.40234Q14.1309 8.22266 13.8086 8.98438Q13.4863 9.74609 12.959 10.4492Q12.4316 11.1523 11.792 11.7676Q11.1523 12.3828 10.498 12.8857Q9.84375 13.3887 9.27734 13.7793Q9.17969 13.8477 9.0625 13.9111Q8.94531 13.9746 8.85742 13.9746Q8.7793 13.9746 8.65234 13.9111Q8.52539 13.8477 8.4082 13.7793Q7.8418 13.4082 7.18262 12.9053Q6.52344 12.4023 5.88379 11.792Q5.24414 11.1816 4.7168 10.4736Q4.18945 9.76562 3.87695 8.99414Q3.56445 8.22266 3.56445 7.40234Q3.56445 6.5332 3.93555 5.85938Q4.30664 5.18555 4.96094 4.79492Q5.61523 4.4043 6.45508 4.4043Z"
                     fill="#ffffff" />
       </g>
</svg>