<svg width="19.5898" height="19.5996">
       <g>
              <rect height="19.5996" opacity="0" width="19.5898" x="0" y="0" />
              <path d="M9.79492 19.5898Q11.8066 19.5898 13.5791 18.8232Q15.3516 18.0566 16.7041 16.7041Q18.0566 15.3516 18.8232 13.5791Q19.5898 11.8066 19.5898 9.79492Q19.5898 7.7832 18.8232 6.01074Q18.0566 4.23828 16.7041 2.88574Q15.3516 1.5332 13.5742 0.766602Q11.7969 0 9.78516 0Q7.77344 0 6.00098 0.766602Q4.22852 1.5332 2.88086 2.88574Q1.5332 4.23828 0.766602 6.01074Q0 7.7832 0 9.79492Q0 11.8066 0.766602 13.5791Q1.5332 15.3516 2.88574 16.7041Q4.23828 18.0566 6.01074 18.8232Q7.7832 19.5898 9.79492 19.5898Z"
                     fill="rgba(255,255,255,0.55)" />
              <path d="M6.98242 5.51758Q7.2168 5.44922 7.45117 5.44922Q8.23242 5.44922 8.83789 5.86914Q9.44336 6.28906 9.79492 6.92383Q10.1465 6.28906 10.7568 5.86914Q11.3672 5.44922 12.1387 5.44922Q12.959 5.44922 13.5938 5.83008Q14.2285 6.21094 14.5996 6.87012Q14.9707 7.5293 14.9707 8.38867Q14.9707 9.35547 14.5068 10.2393Q14.043 11.123 13.3594 11.9043ZM11.9238 13.3105Q11.4648 13.6914 11.0254 14.0283Q10.5859 14.3652 10.2148 14.6387Q10.1172 14.707 10 14.7656Q9.88281 14.8242 9.80469 14.8242Q9.72656 14.8242 9.60449 14.7607Q9.48242 14.6973 9.375 14.6387Q8.80859 14.2871 8.1543 13.7939Q7.5 13.3008 6.87988 12.7002Q6.25977 12.0996 5.74707 11.4014Q5.23438 10.7031 4.92676 9.94629Q4.61914 9.18945 4.61914 8.38867Q4.61914 7.86133 4.77051 7.40234Q4.92188 6.94336 5.18555 6.58203ZM14.541 15.0684L4.50195 5.01953Q4.39453 4.90234 4.38965 4.74609Q4.38477 4.58984 4.50195 4.48242Q4.61914 4.36523 4.77051 4.36523Q4.92188 4.36523 5.03906 4.48242L15.0781 14.5312Q15.1953 14.6387 15.1953 14.79Q15.1953 14.9414 15.0781 15.0684Q14.9805 15.1758 14.8145 15.1709Q14.6484 15.166 14.541 15.0684Z"
                     fill="#ffffff" />
       </g>
</svg>