<svg width="22.5235" height="21.5466">
       <g>
              <rect height="21.5466" opacity="0" width="22.5235" x="0" y="0" />
              <path d="M8.91373 13.0736Q8.91373 13.4518 9.14528 13.6732Q9.37683 13.8947 9.76852 13.8947L12.7768 13.8947Q13.1685 13.8947 13.4 13.6732Q13.6316 13.4518 13.6316 13.0736L13.6316 9.99969L11.7719 8.43353Q11.5421 8.23685 11.2772 8.2338Q11.0123 8.23074 10.7803 8.43353L8.91373 9.99969ZM9.98047 12.6167L9.98047 10.4861L11.0837 9.54926Q11.2727 9.39331 11.4616 9.54926L12.5679 10.4861L12.5679 12.6167Q12.5679 12.8413 12.3492 12.8413L10.1961 12.8413Q9.98047 12.8413 9.98047 12.6167Z"
                     fill="#ffd417" />
              <path d="M5.78323 15.8139Q5.78323 16.3817 6.12 16.7016Q6.45676 17.0215 7.06497 17.0215L15.4901 17.0215Q16.0886 17.0215 16.4287 16.7016Q16.7688 16.3817 16.7688 15.8139L16.7688 8.42514L11.8832 4.32266Q11.5962 4.09134 11.2711 4.09134Q10.946 4.09134 10.6688 4.32266L5.78323 8.42209ZM6.86722 15.3906L6.86722 8.9476L10.9904 5.48264Q11.1121 5.38727 11.2682 5.37933Q11.4243 5.3714 11.5549 5.48264L15.6848 8.9505L15.6848 15.3906Q15.6848 15.9412 15.1344 15.9412L7.41089 15.9412Q6.86722 15.9412 6.86722 15.3906Z"
                     fill="#ffba00" />
              <path d="M2.64603 18.1407Q2.64603 19.1025 3.17406 19.6204Q3.70209 20.1384 4.67438 20.1384L17.8777 20.1384Q18.853 20.1384 19.3777 19.6189Q19.9023 19.0994 19.9023 18.1407L19.9023 7.30515L18.8153 7.10159L18.8153 17.972Q18.8153 18.517 18.5481 18.7891Q18.2809 19.0613 17.7493 19.0613L4.80576 19.0613Q4.26743 19.0613 3.99872 18.7891Q3.73001 18.517 3.73001 17.972L3.73001 7.11731L2.64603 7.30515ZM0 9.27032Q0 9.49661 0.152893 9.63791Q0.305786 9.77921 0.55542 9.77921Q0.66803 9.77921 0.747833 9.74434Q0.827637 9.70947 0.910187 9.65027L10.8916 1.2793Q11.066 1.12442 11.2617 1.11496Q11.4575 1.1055 11.6537 1.2793L21.62 9.65027Q21.6928 9.70947 21.7775 9.74434Q21.8622 9.77921 21.9746 9.77921Q22.2176 9.77921 22.3705 9.63791Q22.5235 9.49661 22.5235 9.27032Q22.5235 8.99445 22.2685 8.78586L12.3235 0.416565Q11.8311 0 11.2757 0Q10.7204 0 10.2249 0.416565L0.251923 8.78586Q0 8.99445 0 9.27032ZM17.8175 5.41L19.9023 7.16843L19.9023 2.68402Q19.9023 2.41623 19.7422 2.25754Q19.5821 2.09885 19.3173 2.09885L18.3995 2.09885Q18.1415 2.09885 17.9795 2.25754Q17.8175 2.41623 17.8175 2.68402Z"
                     fill="#ff9f0a" />
       </g>
</svg>