<svg width="19.5898" height="19.5996">
       <g>
              <rect height="19.5996" opacity="0" width="19.5898" x="0" y="0" />
              <path d="M9.79492 19.5898Q11.8066 19.5898 13.5791 18.8232Q15.3516 18.0566 16.7041 16.7041Q18.0566 15.3516 18.8232 13.5791Q19.5898 11.8066 19.5898 9.79492Q19.5898 7.7832 18.8232 6.01074Q18.0566 4.23828 16.7041 2.88574Q15.3516 1.5332 13.5742 0.766602Q11.7969 0 9.78516 0Q7.77344 0 6.00098 0.766602Q4.22852 1.5332 2.88086 2.88574Q1.5332 4.23828 0.766602 6.01074Q0 7.7832 0 9.79492Q0 11.8066 0.766602 13.5791Q1.5332 15.3516 2.88574 16.7041Q4.23828 18.0566 6.01074 18.8232Q7.7832 19.5898 9.79492 19.5898ZM9.79492 18.3203Q8.02734 18.3203 6.47949 17.6611Q4.93164 17.002 3.75977 15.8301Q2.58789 14.6582 1.92871 13.1104Q1.26953 11.5625 1.26953 9.79492Q1.26953 8.02734 1.92871 6.47949Q2.58789 4.93164 3.75977 3.75488Q4.93164 2.57812 6.47461 1.91895Q8.01758 1.25977 9.78516 1.25977Q11.5625 1.25977 13.1104 1.91895Q14.6582 2.57812 15.8301 3.75488Q17.002 4.93164 17.666 6.47949Q18.3301 8.02734 18.3301 9.79492Q18.3301 11.5625 17.666 13.1104Q17.002 14.6582 15.8301 15.8301Q14.6582 17.002 13.1152 17.6611Q11.5723 18.3203 9.79492 18.3203Z"
                     fill="#5e5ce6" />
              <path d="M7.08008 15.5176L12.5098 15.5176Q12.9492 15.5176 13.1982 15.2734Q13.4473 15.0293 13.4473 14.5801L13.4473 14.4141Q13.4473 13.6816 13.0029 12.9199Q12.5586 12.1582 11.9482 11.4697Q11.3379 10.7812 10.8496 10.293Q10.5859 10.0293 10.5957 9.77539Q10.6055 9.52148 10.8496 9.27734Q11.3379 8.78906 11.9482 8.10547Q12.5586 7.42188 13.0029 6.65527Q13.4473 5.88867 13.4473 5.15625L13.4473 5.00977Q13.4473 4.56055 13.1982 4.31641Q12.9492 4.07227 12.5098 4.07227L7.08008 4.07227Q6.65039 4.07227 6.40137 4.31641Q6.15234 4.56055 6.15234 5.00977L6.15234 5.15625Q6.15234 5.88867 6.5918 6.65527Q7.03125 7.42188 7.64648 8.10547Q8.26172 8.78906 8.75 9.27734Q8.99414 9.52148 8.99902 9.77539Q9.00391 10.0293 8.75 10.293Q8.26172 10.7812 7.64648 11.4697Q7.03125 12.1582 6.5918 12.9199Q6.15234 13.6816 6.15234 14.4141L6.15234 14.5801Q6.15234 15.0293 6.40137 15.2734Q6.65039 15.5176 7.08008 15.5176ZM7.51953 14.7852Q7.34375 14.7852 7.30469 14.6338Q7.26562 14.4824 7.38281 14.3652L9.36523 12.2949Q9.42383 12.2363 9.44336 12.1973Q9.46289 12.1582 9.46289 12.0801L9.46289 9.41406Q9.46289 9.13086 9.25781 8.93555Q8.88672 8.54492 8.53027 8.16895Q8.17383 7.79297 7.86133 7.44141Q7.75391 7.32422 7.79297 7.23145Q7.83203 7.13867 7.96875 7.13867L11.6309 7.13867Q11.7676 7.13867 11.8066 7.23145Q11.8457 7.32422 11.7383 7.44141Q11.416 7.79297 11.0596 8.16895Q10.7031 8.54492 10.332 8.93555Q10.127 9.13086 10.127 9.41406L10.127 12.0801Q10.127 12.1582 10.1514 12.1973Q10.1758 12.2363 10.2246 12.2949L12.207 14.3652Q12.3242 14.4824 12.2852 14.6338Q12.2461 14.7852 12.0703 14.7852Z"
                     fill="#5e5ce6" />
       </g>
</svg>