<svg width="11.2425" height="17.6517">
       <g>
              <rect height="17.6517" opacity="0" width="11.2425" x="0" y="0" />
              <path d="M1.44043 17.635L9.80209 17.635Q10.4655 17.635 10.854 17.2567Q11.2425 16.8784 11.2425 16.1879L11.2425 15.9351Q11.2425 15.0955 10.8391 14.2144Q10.4356 13.3333 9.81133 12.4885Q9.18701 11.6437 8.49907 10.903Q7.81113 10.1624 7.24884 9.60312Q6.84769 9.20197 6.86111 8.7944Q6.87454 8.38684 7.24884 8.00949Q7.81113 7.45026 8.49907 6.71112Q9.18701 5.97198 9.81133 5.13054Q10.4356 4.28909 10.8391 3.40645Q11.2425 2.5238 11.2425 1.67755L11.2425 1.45401Q11.2425 0.756836 10.854 0.378418Q10.4655 0 9.80209 0L1.44043 0Q0.783691 0 0.391846 0.378418Q0 0.756836 0 1.45401L0 1.67755Q0 2.5238 0.401917 3.40645Q0.803833 4.28909 1.42967 5.13054Q2.05551 5.97198 2.74193 6.71112Q3.42834 7.45026 3.99063 8.00949Q4.37454 8.38684 4.38652 8.7944Q4.3985 9.20197 3.99063 9.60312Q3.42834 10.1624 2.74193 10.903Q2.05551 11.6437 1.42967 12.4885Q0.803833 13.3333 0.401917 14.2144Q0 15.0955 0 15.9351L0 16.1879Q0 16.8784 0.391846 17.2567Q0.783691 17.635 1.44043 17.635Z"
                     fill="#5e5ce6" />
              <path d="M2.11365 16.5038Q1.85257 16.5038 1.78574 16.2663Q1.7189 16.0289 1.91254 15.8456L5.15503 12.6741Q5.24887 12.5868 5.28343 12.5267Q5.31799 12.4666 5.31799 12.3465L5.31799 8.21701Q5.31799 7.95471 5.25467 7.79655Q5.19135 7.6384 4.98886 7.46292Q4.42795 6.97021 3.77151 6.35223Q3.11508 5.73425 2.63245 5.19211Q2.47421 5.01801 2.53685 4.8597Q2.59949 4.70139 2.79694 4.70139L8.44559 4.70139Q8.6467 4.70139 8.70934 4.8597Q8.77197 5.01801 8.60992 5.19211Q8.12439 5.73425 7.47131 6.35223Q6.81824 6.97021 6.25366 7.46292Q6.05789 7.6384 5.99457 7.79655Q5.93124 7.95471 5.93124 8.21701L5.93124 12.3465Q5.93124 12.4666 5.96092 12.5267Q5.9906 12.5868 6.08444 12.6741L9.32678 15.8456Q9.52347 16.0289 9.45999 16.2663Q9.39651 16.5038 9.12582 16.5038Z"
                     fill="#ffffff" />
       </g>
</svg>