<svg width="11.2425" height="17.6517">
       <g>
              <rect height="17.6517" opacity="0" width="11.2425" x="0" y="0" />
              <path d="M1.44043 17.635L9.80209 17.635Q10.4655 17.635 10.854 17.2567Q11.2425 16.8784 11.2425 16.1879L11.2425 15.9351Q11.2425 15.0955 10.8391 14.2144Q10.4356 13.3333 9.81133 12.4885Q9.18701 11.6437 8.49907 10.903Q7.81113 10.1624 7.24884 9.60312Q6.87454 9.22577 6.86111 8.81821Q6.84769 8.41064 7.24884 8.00949Q7.81113 7.45026 8.49907 6.71112Q9.18701 5.97198 9.81133 5.13054Q10.4356 4.28909 10.8391 3.40645Q11.2425 2.5238 11.2425 1.67755L11.2425 1.45401Q11.2425 0.756836 10.854 0.378418Q10.4655 0 9.80209 0L1.44043 0Q0.783691 0 0.391846 0.378418Q0 0.756836 0 1.45401L0 1.67755Q0 2.5238 0.401917 3.40645Q0.803833 4.28909 1.42967 5.13054Q2.05551 5.97198 2.74193 6.71112Q3.42834 7.45026 3.99063 8.00949Q4.3985 8.41064 4.38652 8.81821Q4.37454 9.22577 3.99063 9.60312Q3.42834 10.1624 2.74193 10.903Q2.05551 11.6437 1.42967 12.4885Q0.803833 13.3333 0.401917 14.2144Q0 15.0955 0 15.9351L0 16.1879Q0 16.8784 0.391846 17.2567Q0.783691 17.635 1.44043 17.635Z"
                     fill="#5e5ce6" />
              <path d="M6.17554 7.55188Q5.87769 7.80609 5.62462 7.80609Q5.37155 7.80609 5.06699 7.55188Q4.75723 7.28409 4.27567 6.80138Q3.7941 6.31866 3.26645 5.72891Q2.7388 5.13916 2.27859 4.53644Q1.81839 3.93372 1.54099 3.4259Q1.43524 3.2309 1.49117 3.097Q1.54709 2.9631 1.74438 2.9631L9.49799 2.9631Q9.6991 2.9631 9.75319 3.097Q9.80728 3.2309 9.70154 3.4259Q9.4278 3.93372 8.96423 4.53644Q8.50067 5.13916 7.97447 5.72891Q7.44827 6.31866 6.97014 6.80138Q6.492 7.28409 6.17554 7.55188Z"
                     fill="#ffffff" />
       </g>
</svg>