<svg width="19.5898" height="19.5996">
       <g>
              <rect height="19.5996" opacity="0" width="19.5898" x="0" y="0" />
              <path d="M9.79492 19.5898Q11.8066 19.5898 13.5791 18.8232Q15.3516 18.0566 16.7041 16.7041Q18.0566 15.3516 18.8232 13.5791Q19.5898 11.8066 19.5898 9.79492Q19.5898 7.7832 18.8232 6.01074Q18.0566 4.23828 16.7041 2.88574Q15.3516 1.5332 13.5742 0.766602Q11.7969 0 9.78516 0Q7.77344 0 6.00098 0.766602Q4.22852 1.5332 2.88086 2.88574Q1.5332 4.23828 0.766602 6.01074Q0 7.7832 0 9.79492Q0 11.8066 0.766602 13.5791Q1.5332 15.3516 2.88574 16.7041Q4.23828 18.0566 6.01074 18.8232Q7.7832 19.5898 9.79492 19.5898Z"
                     fill="#5e5ce6" />
              <path d="M7.02148 15.625Q6.58203 15.625 6.32812 15.376Q6.07422 15.127 6.07422 14.6777L6.07422 14.502Q6.07422 13.9453 6.34277 13.3643Q6.61133 12.7832 7.02148 12.2217Q7.43164 11.6602 7.89062 11.1719Q8.34961 10.6836 8.7207 10.3027Q8.98438 10.0391 8.97949 9.77539Q8.97461 9.51172 8.7207 9.26758Q8.34961 8.89648 7.89062 8.40332Q7.43164 7.91016 7.02148 7.35352Q6.61133 6.79688 6.34277 6.21094Q6.07422 5.625 6.07422 5.06836L6.07422 4.91211Q6.07422 4.46289 6.32812 4.20898Q6.58203 3.95508 7.02148 3.95508L12.5586 3.95508Q12.998 3.95508 13.2617 4.20898Q13.5254 4.46289 13.5254 4.91211L13.5254 5.06836Q13.5254 5.625 13.2568 6.21094Q12.9883 6.79688 12.5732 7.35352Q12.1582 7.91016 11.7041 8.40332Q11.25 8.89648 10.8691 9.26758Q10.625 9.51172 10.6152 9.77539Q10.6055 10.0391 10.8691 10.3027Q11.25 10.6836 11.7041 11.1719Q12.1582 11.6602 12.5732 12.2217Q12.9883 12.7832 13.2568 13.3643Q13.5254 13.9453 13.5254 14.502L13.5254 14.6777Q13.5254 15.127 13.2617 15.376Q12.998 15.625 12.5586 15.625ZM7.4707 14.8828L12.1191 14.8828Q12.3047 14.8828 12.3438 14.7266Q12.3828 14.5703 12.2559 14.4531L10.2344 12.3438Q10.1758 12.2852 10.1562 12.2461Q10.1367 12.207 10.1367 12.1289L10.1367 9.39453Q10.1367 9.11133 10.3418 8.90625Q10.7227 8.51562 11.0889 8.13477Q11.4551 7.75391 11.7773 7.39258Q11.8848 7.27539 11.8408 7.17773Q11.7969 7.08008 11.6602 7.08008L7.92969 7.08008Q7.79297 7.08008 7.75391 7.17773Q7.71484 7.27539 7.82227 7.39258Q8.13477 7.75391 8.50586 8.13477Q8.87695 8.51562 9.24805 8.90625Q9.45312 9.11133 9.45312 9.39453L9.45312 12.1289Q9.45312 12.207 9.43359 12.2461Q9.41406 12.2852 9.35547 12.3438L7.34375 14.4531Q7.2168 14.5703 7.25586 14.7266Q7.29492 14.8828 7.4707 14.8828Z"
                     fill="#ffffff" />
       </g>
</svg>