<svg width="19.5898" height="19.5996">
       <g>
              <rect height="19.5996" opacity="0" width="19.5898" x="0" y="0" />
              <path d="M9.79492 19.5898Q11.8066 19.5898 13.5791 18.8232Q15.3516 18.0566 16.7041 16.7041Q18.0566 15.3516 18.8232 13.5791Q19.5898 11.8066 19.5898 9.79492Q19.5898 7.7832 18.8232 6.01074Q18.0566 4.23828 16.7041 2.88574Q15.3516 1.5332 13.5742 0.766602Q11.7969 0 9.78516 0Q7.77344 0 6.00098 0.766602Q4.22852 1.5332 2.88086 2.88574Q1.5332 4.23828 0.766602 6.01074Q0 7.7832 0 9.79492Q0 11.8066 0.766602 13.5791Q1.5332 15.3516 2.88574 16.7041Q4.23828 18.0566 6.01074 18.8232Q7.7832 19.5898 9.79492 19.5898ZM9.79492 18.3203Q8.02734 18.3203 6.47949 17.6611Q4.93164 17.002 3.75977 15.8301Q2.58789 14.6582 1.92871 13.1104Q1.26953 11.5625 1.26953 9.79492Q1.26953 8.02734 1.92871 6.47949Q2.58789 4.93164 3.75977 3.75488Q4.93164 2.57812 6.47461 1.91895Q8.01758 1.25977 9.78516 1.25977Q11.5625 1.25977 13.1104 1.91895Q14.6582 2.57812 15.8301 3.75488Q17.002 4.93164 17.666 6.47949Q18.3301 8.02734 18.3301 9.79492Q18.3301 11.5625 17.666 13.1104Q17.002 14.6582 15.8301 15.8301Q14.6582 17.002 13.1152 17.6611Q11.5723 18.3203 9.79492 18.3203Z"
                     fill="#5ac8f5" />
              <path d="M5.37109 13.5254Q5.37109 14.0234 5.64941 14.292Q5.92773 14.5605 6.42578 14.5605L13.1738 14.5605Q13.6621 14.5605 13.9453 14.292Q14.2285 14.0234 14.2285 13.5254L14.2285 9.16992L10.1074 5.72266Q9.80469 5.45898 9.47266 5.72266L5.37109 9.16992ZM11.0938 13.7695L8.49609 13.7695L8.49609 10.4785Q8.49609 10.127 8.85742 10.127L10.7324 10.127Q11.0938 10.127 11.0938 10.4785ZM3.84766 8.90625Q3.84766 9.04297 3.95508 9.16016Q4.0625 9.27734 4.24805 9.27734Q4.33594 9.27734 4.40918 9.2334Q4.48242 9.18945 4.55078 9.12109L9.49219 4.99023Q9.6582 4.85352 9.7998 4.8584Q9.94141 4.86328 10.1074 4.99023L15.0293 9.12109Q15.1074 9.18945 15.1807 9.2334Q15.2539 9.27734 15.3418 9.27734Q15.498 9.27734 15.6152 9.1748Q15.7324 9.07227 15.7324 8.91602Q15.7324 8.71094 15.5859 8.58398L10.5273 4.33594Q10.1953 4.05273 9.7998 4.05273Q9.4043 4.05273 9.07227 4.33594L3.99414 8.58398Q3.84766 8.7207 3.84766 8.90625ZM13.125 6.85547L14.2285 7.7832L14.2285 5.43945Q14.2285 5.13672 13.916 5.13672L13.4375 5.13672Q13.125 5.13672 13.125 5.43945Z"
                     fill="#5ac8f5" />
       </g>
</svg>