<svg width="22.5235" height="21.5466">
       <g>
              <rect height="21.5466" opacity="0" width="22.5235" x="0" y="0" />
              <path d="M13.7401 18.9325L8.7767 18.9325L8.7767 12.3412Q8.7767 12.0326 8.96545 11.8507Q9.15421 11.6687 9.45602 11.6687L13.0675 11.6687Q13.376 11.6687 13.558 11.8507Q13.7401 12.0326 13.7401 12.3412ZM2.79861 18.1558Q2.79861 19.0965 3.3297 19.6175Q3.86078 20.1384 4.8082 20.1384L17.7438 20.1384Q18.6845 20.1384 19.2156 19.6175Q19.7467 19.0965 19.7467 18.1558L19.7467 9.79477L11.8707 3.19046Q11.2697 2.68021 10.6656 3.19046L2.79861 9.78882ZM0 9.29047Q0 9.52362 0.171661 9.70383Q0.343323 9.88403 0.640106 9.88403Q0.796661 9.88403 0.922165 9.81209Q1.04767 9.74014 1.1676 9.65027L10.8916 1.48956Q11.0727 1.33087 11.2685 1.32484Q11.4642 1.31882 11.6606 1.48956L21.3693 9.65027Q21.4825 9.74014 21.608 9.81209Q21.7336 9.88403 21.8901 9.88403Q22.1532 9.88403 22.3383 9.72923Q22.5235 9.57443 22.5235 9.31076Q22.5235 8.99445 22.2752 8.78586L12.3271 0.416565Q11.8378 0 11.2791 0Q10.7204 0 10.2249 0.416565L0.251923 8.78586Q0 8.99445 0 9.29047ZM17.6617 5.41L19.7467 7.16843L19.7467 2.68402Q19.7467 2.41623 19.5866 2.25754Q19.4264 2.09885 19.1646 2.09885L18.2439 2.09885Q17.9889 2.09885 17.8253 2.25754Q17.6617 2.41623 17.6617 2.68402Z"
                     fill="#5ac8f5" />
       </g>
</svg>