<svg width="19.5898" height="19.5996">
       <g>
              <rect height="19.5996" opacity="0" width="19.5898" x="0" y="0" />
              <path d="M9.79492 19.5898Q11.8066 19.5898 13.5791 18.8232Q15.3516 18.0566 16.7041 16.7041Q18.0566 15.3516 18.8232 13.5791Q19.5898 11.8066 19.5898 9.79492Q19.5898 7.7832 18.8232 6.01074Q18.0566 4.23828 16.7041 2.88574Q15.3516 1.5332 13.5742 0.766602Q11.7969 0 9.78516 0Q7.77344 0 6.00098 0.766602Q4.22852 1.5332 2.88086 2.88574Q1.5332 4.23828 0.766602 6.01074Q0 7.7832 0 9.79492Q0 11.8066 0.766602 13.5791Q1.5332 15.3516 2.88574 16.7041Q4.23828 18.0566 6.01074 18.8232Q7.7832 19.5898 9.79492 19.5898Z"
                     fill="#5ac8f5" />
              <path d="M3.7207 8.88672Q3.7207 8.70117 3.86719 8.56445L9.0625 4.21875Q9.39453 3.93555 9.7998 3.93555Q10.2051 3.93555 10.5469 4.21875L13.1934 6.44531L13.1934 5.35156Q13.1934 5.03906 13.5156 5.03906L14.0039 5.03906Q14.3262 5.03906 14.3262 5.35156L14.3262 7.39258L15.7129 8.56445Q15.8594 8.69141 15.8594 8.89648Q15.8594 9.0625 15.7471 9.16504Q15.6348 9.26758 15.459 9.26758Q15.3711 9.26758 15.2979 9.22363Q15.2246 9.17969 15.1465 9.11133L10.1172 4.89258Q9.95117 4.76562 9.7998 4.76074Q9.64844 4.75586 9.48242 4.89258L4.44336 9.11133Q4.36523 9.17969 4.29199 9.22363Q4.21875 9.26758 4.13086 9.26758Q3.93555 9.26758 3.82812 9.15039Q3.7207 9.0332 3.7207 8.88672ZM5.27344 13.6035L5.27344 9.16992L9.47266 5.64453Q9.80469 5.37109 10.1172 5.64453L14.3262 9.16992L14.3262 13.6035Q14.3262 14.1016 14.0381 14.3848Q13.75 14.668 13.252 14.668L6.35742 14.668Q5.83984 14.668 5.55664 14.3848Q5.27344 14.1016 5.27344 13.6035ZM8.4668 13.8477L11.123 13.8477L11.123 10.4883Q11.123 10.127 10.752 10.127L8.83789 10.127Q8.4668 10.127 8.4668 10.4883Z"
                     fill="#ffffff" />
       </g>
</svg>