<svg width="20.7893" height="18.4082">
       <g>
              <rect height="18.4082" opacity="0" width="20.7893" x="0" y="0" />
              <path d="M3.81418 6.41312Q5.07654 6.41312 6.15854 6.04202Q7.24054 5.67093 8.23366 5.1226Q9.22677 4.57428 10.2127 4.02397Q11.1987 3.47366 12.2564 3.10257Q13.3141 2.73148 14.5385 2.73148Q15.315 2.73148 16.0146 2.91786Q16.7141 3.10425 17.4563 3.53088Q17.7021 3.66745 17.9135 3.60069Q18.1249 3.53394 18.2449 3.36761Q18.3813 3.16452 18.3431 2.89955Q18.3048 2.63458 18.0006 2.45407Q17.1743 1.9725 16.3282 1.74751Q15.4821 1.52252 14.5385 1.52252Q13.2195 1.52252 12.1077 1.89362Q10.9959 2.26471 9.9949 2.81647Q8.99393 3.36823 8.0253 3.9151Q7.05667 4.46198 6.02388 4.83459Q4.99109 5.20721 3.81418 5.20721Q3.03094 5.20721 2.33133 5.02083Q1.63171 4.83444 0.889525 4.40781Q0.640654 4.26834 0.430769 4.33502Q0.220885 4.4017 0.10095 4.57794Q-0.0285967 4.77798 0.00810071 5.04295Q0.0447981 5.30792 0.345244 5.48172Q1.17837 5.96329 2.02112 6.1882Q2.86386 6.41312 3.81418 6.41312ZM3.82394 11.6544Q4.99811 11.6544 6.01236 11.3255Q7.02661 10.9967 7.96205 10.5041Q8.89749 10.0114 9.81088 9.49188Q10.7243 8.97232 11.6934 8.57422Q12.6624 8.17612 13.7538 8.06091Q13.9239 7.73727 14.1007 7.41539Q14.2776 7.09351 14.4477 6.76666Q13.0763 6.8071 11.9574 7.19017Q10.8386 7.57324 9.86459 8.11493Q8.89062 8.65662 7.95122 9.18999Q7.01181 9.72336 6.0087 10.0858Q5.00558 10.4483 3.82394 10.4483Q3.04376 10.4483 2.34605 10.2586Q1.64834 10.0688 0.89929 9.64218Q0.653471 9.50272 0.442061 9.5694Q0.23065 9.63608 0.117583 9.81232Q-0.0188311 10.0154 0.0193922 10.2789Q0.0576155 10.5423 0.355009 10.7161Q1.19119 11.1977 2.03576 11.426Q2.88034 11.6544 3.82394 11.6544ZM3.81418 16.8916Q4.9328 16.8916 5.91287 16.5858Q6.89294 16.2799 7.79085 15.8132Q8.68875 15.3465 9.56644 14.8468Q10.4441 14.3471 11.3616 13.9557Q11.3468 13.6909 11.4098 13.3024Q11.4729 12.9138 11.5725 12.578Q10.5535 12.9565 9.62671 13.4814Q8.69989 14.0062 7.7836 14.5089Q6.86731 15.0116 5.89364 15.3471Q4.91998 15.6827 3.81418 15.6827Q3.03094 15.6827 2.33133 15.4929Q1.63171 15.3032 0.889525 14.8766Q0.640654 14.7371 0.430769 14.8053Q0.220885 14.8735 0.10095 15.0467Q-0.0285967 15.2498 0.00810071 15.5132Q0.0447981 15.7767 0.345244 15.9505Q1.17837 16.432 2.02112 16.6618Q2.86386 16.8916 3.81418 16.8916Z"
                     fill="rgba(255,255,255,0.55)" />
              <path d="M16.603 18.4082Q17.7659 18.4082 18.7172 17.8591Q19.6685 17.31 20.2289 16.3865Q20.7893 15.463 20.7893 14.3228Q20.7893 13.3755 20.4035 12.4628Q20.0178 11.55 19.6052 10.7768L17.373 6.62415Q17.2245 6.33759 17.0522 6.21231Q16.88 6.08704 16.603 6.08704Q16.3195 6.08704 16.1488 6.21078Q15.978 6.33453 15.8264 6.61819L13.6106 10.7768Q13.1884 11.55 12.806 12.4628Q12.4236 13.3755 12.4236 14.3228Q12.4236 15.463 12.9855 16.3865Q13.5475 17.31 14.4954 17.8591Q15.4434 18.4082 16.603 18.4082ZM16.603 17.3886Q15.729 17.3886 15.0086 16.9775Q14.2881 16.5663 13.8672 15.8752Q13.4463 15.184 13.4463 14.3228Q13.4463 13.5516 13.774 12.7885Q14.1017 12.0253 14.511 11.2582L16.5 7.5621Q16.5391 7.48093 16.6098 7.48093Q16.6805 7.48093 16.7196 7.5621L18.6883 11.2582Q19.0978 12.0253 19.4337 12.7885Q19.7695 13.5516 19.7695 14.3228Q19.7695 15.184 19.3437 15.8752Q18.9179 16.5663 18.2025 16.9775Q17.487 17.3886 16.603 17.3886Z"
                     fill="rgba(255,255,255,0.55)" />
       </g>
</svg>