<svg width="19.5898" height="19.5996">
       <g>
              <rect height="19.5996" opacity="0" width="19.5898" x="0" y="0" />
              <path d="M9.79492 19.5898Q11.8066 19.5898 13.5791 18.8232Q15.3516 18.0566 16.7041 16.7041Q18.0566 15.3516 18.8232 13.5791Q19.5898 11.8066 19.5898 9.79492Q19.5898 7.7832 18.8232 6.01074Q18.0566 4.23828 16.7041 2.88574Q15.3516 1.5332 13.5742 0.766602Q11.7969 0 9.78516 0Q7.77344 0 6.00098 0.766602Q4.22852 1.5332 2.88086 2.88574Q1.5332 4.23828 0.766602 6.01074Q0 7.7832 0 9.79492Q0 11.8066 0.766602 13.5791Q1.5332 15.3516 2.88574 16.7041Q4.23828 18.0566 6.01074 18.8232Q7.7832 19.5898 9.79492 19.5898Z"
                     fill="rgba(255,255,255,0.55)" />
              <path d="M9.79492 14.3262Q9.49219 14.3262 9.33105 14.1357Q9.16992 13.9453 9.16992 13.6328L9.16992 5.83984Q9.16992 5.53711 9.33105 5.3418Q9.49219 5.14648 9.79492 5.14648Q10.0977 5.14648 10.2588 5.33203Q10.4199 5.51758 10.4199 5.83984L10.4199 13.6328Q10.4199 13.9551 10.2588 14.1406Q10.0977 14.3262 9.79492 14.3262Z"
                     fill="#ffffff" />
       </g>
</svg>