<svg width="17.6855" height="17.7051">
       <g>
              <rect height="17.7051" opacity="0" width="17.6855" x="0" y="0" />
              <path d="M2.88086 17.7051L14.8047 17.7051Q16.2305 17.7051 16.958 16.9873Q17.6855 16.2695 17.6855 14.8535L17.6855 2.88086Q17.6855 1.46484 16.958 0.742188Q16.2305 0.0195312 14.8047 0.0195312L2.88086 0.0195312Q1.44531 0.0195312 0.722656 0.737305Q0 1.45508 0 2.88086L0 14.8535Q0 16.2695 0.722656 16.9873Q1.44531 17.7051 2.88086 17.7051Z"
                     fill="rgba(255,255,255,0.55)" />
              <path d="M8.83789 13.3789Q8.53516 13.3789 8.37402 13.1885Q8.21289 12.998 8.21289 12.6855L8.21289 4.89258Q8.21289 4.58984 8.37402 4.39453Q8.53516 4.19922 8.83789 4.19922Q9.14062 4.19922 9.30176 4.38477Q9.46289 4.57031 9.46289 4.89258L9.46289 12.6855Q9.46289 13.0078 9.30176 13.1934Q9.14062 13.3789 8.83789 13.3789Z"
                     fill="#ffffff" />
       </g>
</svg>