<svg width="19.5898" height="19.5996">
       <g>
              <rect height="19.5996" opacity="0" width="19.5898" x="0" y="0" />
              <path d="M9.79492 19.5898Q11.8066 19.5898 13.5791 18.8232Q15.3516 18.0566 16.7041 16.7041Q18.0566 15.3516 18.8232 13.5791Q19.5898 11.8066 19.5898 9.79492Q19.5898 7.7832 18.8232 6.01074Q18.0566 4.23828 16.7041 2.88574Q15.3516 1.5332 13.5742 0.766602Q11.7969 0 9.78516 0Q7.77344 0 6.00098 0.766602Q4.22852 1.5332 2.88086 2.88574Q1.5332 4.23828 0.766602 6.01074Q0 7.7832 0 9.79492Q0 11.8066 0.766602 13.5791Q1.5332 15.3516 2.88574 16.7041Q4.23828 18.0566 6.01074 18.8232Q7.7832 19.5898 9.79492 19.5898ZM9.79492 18.3203Q8.02734 18.3203 6.47949 17.6611Q4.93164 17.002 3.75977 15.8301Q2.58789 14.6582 1.92871 13.1104Q1.26953 11.5625 1.26953 9.79492Q1.26953 8.02734 1.92871 6.47949Q2.58789 4.93164 3.75977 3.75488Q4.93164 2.57812 6.47461 1.91895Q8.01758 1.25977 9.78516 1.25977Q11.5625 1.25977 13.1104 1.91895Q14.6582 2.57812 15.8301 3.75488Q17.002 4.93164 17.666 6.47949Q18.3301 8.02734 18.3301 9.79492Q18.3301 11.5625 17.666 13.1104Q17.002 14.6582 15.8301 15.8301Q14.6582 17.002 13.1152 17.6611Q11.5723 18.3203 9.79492 18.3203Z"
                     fill="#5ac8f5" />
              <path d="M6.25977 13.3398L13.7793 13.3398Q14.668 13.3398 15.2539 12.749Q15.8398 12.1582 15.8398 11.3086Q15.8398 10.5664 15.3906 10.0195Q14.9414 9.47266 14.2676 9.3457Q14.2871 9.24805 14.2871 9.14062Q14.2871 9.0332 14.2871 8.95508Q14.2871 7.95898 13.8184 7.15332Q13.3496 6.34766 12.5391 5.86914Q11.7285 5.39062 10.6934 5.39062Q9.77539 5.39062 9.00391 5.7959Q8.23242 6.20117 7.75391 6.9043Q7.64648 6.875 7.51465 6.86035Q7.38281 6.8457 7.27539 6.8457Q6.52344 6.8457 5.97168 7.33398Q5.41992 7.82227 5.36133 8.59375Q4.67773 8.84766 4.21387 9.46777Q3.75 10.0879 3.75 10.8984Q3.75 12.041 4.45801 12.6904Q5.16602 13.3398 6.25977 13.3398Z"
                     fill="#5ac8f5" />
       </g>
</svg>