<svg width="17.6855" height="17.7051">
       <g>
              <rect height="17.7051" opacity="0" width="17.6855" x="0" y="0" />
              <path d="M2.88086 17.7051L14.8047 17.7051Q16.2305 17.7051 16.958 16.9873Q17.6855 16.2695 17.6855 14.8535L17.6855 2.88086Q17.6855 1.46484 16.958 0.742188Q16.2305 0.0195312 14.8047 0.0195312L2.88086 0.0195312Q1.44531 0.0195312 0.722656 0.737305Q0 1.45508 0 2.88086L0 14.8535Q0 16.2695 0.722656 16.9873Q1.44531 17.7051 2.88086 17.7051ZM2.90039 16.4941Q2.07031 16.4941 1.64062 16.0645Q1.21094 15.6348 1.21094 14.7949L1.21094 2.93945Q1.21094 2.08984 1.64062 1.66016Q2.07031 1.23047 2.90039 1.23047L14.7852 1.23047Q15.5859 1.23047 16.0303 1.66016Q16.4746 2.08984 16.4746 2.93945L16.4746 14.7949Q16.4746 15.6348 16.0303 16.0645Q15.5859 16.4941 14.7852 16.4941Z"
                     fill="#5ac8f5" />
              <path d="M5.32227 12.3926L12.8418 12.3926Q13.7305 12.3926 14.3164 11.8018Q14.9023 11.2109 14.9023 10.3613Q14.9023 9.61914 14.4531 9.07227Q14.0039 8.52539 13.3301 8.39844Q13.3496 8.30078 13.3496 8.19336Q13.3496 8.08594 13.3496 8.00781Q13.3496 7.01172 12.8809 6.20605Q12.4121 5.40039 11.6016 4.92188Q10.791 4.44336 9.75586 4.44336Q8.83789 4.44336 8.06641 4.84863Q7.29492 5.25391 6.81641 5.95703Q6.70898 5.92773 6.57715 5.91309Q6.44531 5.89844 6.33789 5.89844Q5.58594 5.89844 5.03418 6.38672Q4.48242 6.875 4.42383 7.64648Q3.74023 7.90039 3.27637 8.52051Q2.8125 9.14062 2.8125 9.95117Q2.8125 11.0938 3.52051 11.7432Q4.22852 12.3926 5.32227 12.3926Z"
                     fill="#5ac8f5" />
       </g>
</svg>