<svg width="17.6855" height="17.7051">
       <g>
              <rect height="17.7051" opacity="0" width="17.6855" x="0" y="0" />
              <path d="M2.88086 17.7051L14.8047 17.7051Q16.2305 17.7051 16.958 16.9873Q17.6855 16.2695 17.6855 14.8535L17.6855 2.88086Q17.6855 1.46484 16.958 0.742188Q16.2305 0.0195312 14.8047 0.0195312L2.88086 0.0195312Q1.44531 0.0195312 0.722656 0.737305Q0 1.45508 0 2.88086L0 14.8535Q0 16.2695 0.722656 16.9873Q1.44531 17.7051 2.88086 17.7051Z"
                     fill="#5ac8f5" />
              <path d="M5.24414 12.4707Q4.12109 12.4707 3.40332 11.8115Q2.68555 11.1523 2.68555 9.99023Q2.68555 9.15039 3.15918 8.52051Q3.63281 7.89062 4.32617 7.61719Q4.39453 6.8457 4.95605 6.34766Q5.51758 5.84961 6.28906 5.84961Q6.39648 5.84961 6.5332 5.86426Q6.66992 5.87891 6.77734 5.9082Q7.26562 5.18555 8.05176 4.77051Q8.83789 4.35547 9.76562 4.35547Q10.8203 4.35547 11.6504 4.84375Q12.4805 5.33203 12.959 6.16211Q13.4375 6.99219 13.4375 7.99805Q13.4375 8.08594 13.4326 8.19336Q13.4277 8.30078 13.4082 8.39844Q14.0918 8.52539 14.5557 9.08203Q15.0195 9.63867 15.0195 10.4004Q15.0195 11.2695 14.4238 11.8701Q13.8281 12.4707 12.9199 12.4707Z"
                     fill="#ffffff" />
       </g>
</svg>