<svg width="19.5898" height="19.5996">
       <g>
              <rect height="19.5996" opacity="0" width="19.5898" x="0" y="0" />
              <path d="M9.79492 19.5996Q11.8066 19.5996 13.5791 18.833Q15.3516 18.0664 16.7041 16.7139Q18.0566 15.3613 18.8232 13.5889Q19.5898 11.8164 19.5898 9.80469Q19.5898 7.79297 18.8232 6.02051Q18.0566 4.24805 16.7041 2.89551Q15.3516 1.54297 13.5742 0.776367Q11.7969 0.00976562 9.78516 0.00976562Q7.77344 0.00976562 6.00098 0.776367Q4.22852 1.54297 2.88086 2.89551Q1.5332 4.24805 0.766602 6.02051Q0 7.79297 0 9.80469Q0 11.8164 0.766602 13.5889Q1.5332 15.3613 2.88574 16.7139Q4.23828 18.0664 6.01074 18.833Q7.7832 19.5996 9.79492 19.5996Z"
                     fill="#5ac8f5" />
              <path d="M6.20117 13.4375Q5.07812 13.4375 4.36035 12.7783Q3.64258 12.1191 3.64258 10.957Q3.64258 10.1172 4.11621 9.4873Q4.58984 8.85742 5.2832 8.58398Q5.35156 7.8125 5.91309 7.31445Q6.47461 6.81641 7.24609 6.81641Q7.35352 6.81641 7.49023 6.83105Q7.62695 6.8457 7.73438 6.875Q8.22266 6.15234 9.00879 5.7373Q9.79492 5.32227 10.7227 5.32227Q11.7773 5.32227 12.6074 5.81055Q13.4375 6.29883 13.916 7.12891Q14.3945 7.95898 14.3945 8.96484Q14.3945 9.05273 14.3896 9.16016Q14.3848 9.26758 14.3652 9.36523Q15.0488 9.49219 15.5127 10.0488Q15.9766 10.6055 15.9766 11.3672Q15.9766 12.2363 15.3809 12.8369Q14.7852 13.4375 13.877 13.4375Z"
                     fill="#ffffff" />
       </g>
</svg>