<svg width="19.5785" height="18.0899">
       <g>
              <rect height="18.0899" opacity="0" width="19.5785" x="0" y="0" />
              <path d="M0.569 18.0525Q0.811768 18.0525 0.978165 17.8842Q1.14456 17.7159 1.14456 17.4701L1.14456 0.575714Q1.14456 0.329742 0.978165 0.164871Q0.811768 0 0.569 0Q0.329742 0 0.164871 0.164871Q0 0.329742 0 0.575714L0 17.4701Q0 17.7159 0.164871 17.8842Q0.329742 18.0525 0.569 18.0525ZM5.52979 18.0525Q5.77576 18.0525 5.94063 17.8842Q6.1055 17.7159 6.1055 17.4701L6.1055 0.575714Q6.1055 0.329742 5.94063 0.164871Q5.77576 0 5.52979 0Q5.29358 0 5.12718 0.164871Q4.96078 0.329742 4.96078 0.575714L4.96078 17.4701Q4.96078 17.7159 5.12718 17.8842Q5.29358 18.0525 5.52979 18.0525ZM10.4936 18.0525Q10.7365 18.0525 10.9014 17.8842Q11.0663 17.7159 11.0663 17.4701L11.0663 0.575714Q11.0663 0.329742 10.9014 0.164871Q10.7365 0 10.4936 0Q10.2545 0 10.0896 0.164871Q9.92477 0.329742 9.92477 0.575714L9.92477 17.4701Q9.92477 17.7159 10.0896 17.8842Q10.2545 18.0525 10.4936 18.0525Z"
                     fill="rgba(255,255,255,0.55)" />
              <path d="M16.1761 11.8091L19.1846 9.79919Q19.4496 9.61899 19.5364 9.33411Q19.6231 9.04922 19.5315 8.76762Q19.4398 8.48602 19.1846 8.30292L16.1761 6.25992Q15.8257 6.02432 15.4998 6.02432Q15.174 6.02432 14.9611 6.24535Q14.7482 6.46637 14.7549 6.88538L14.7549 11.1934Q14.7482 11.5996 14.966 11.809Q15.1837 12.0184 15.5129 12.0233Q15.8421 12.0282 16.1761 11.8091Z"
                     fill="rgba(255,255,255,0.85)" />
       </g>
</svg>