<svg width="22.233" height="16.5457">
       <g>
              <rect height="16.5457" opacity="0" width="22.233" x="0" y="0" />
              <path d="M9.03336 1.14166L21.6603 1.14166Q21.8965 1.14166 22.0647 0.976715Q22.233 0.811768 22.233 0.565948Q22.233 0.329742 22.0647 0.164871Q21.8965 0 21.6603 0L9.03336 0Q8.78754 0 8.62267 0.164871Q8.45779 0.329742 8.45779 0.565948Q8.45779 0.811768 8.62267 0.976715Q8.78754 1.14166 9.03336 1.14166ZM9.03336 6.2648L21.6603 6.2648Q21.8965 6.2648 22.0647 6.09993Q22.233 5.93506 22.233 5.68924Q22.233 5.44632 22.0647 5.28481Q21.8965 5.12329 21.6603 5.12329L9.03336 5.12329Q8.78754 5.12329 8.62267 5.28481Q8.45779 5.44632 8.45779 5.68924Q8.45779 5.93506 8.62267 6.09993Q8.78754 6.2648 9.03336 6.2648ZM9.03336 11.3881L21.6603 11.3881Q21.8965 11.3881 22.0647 11.2232Q22.233 11.0583 22.233 10.8154Q22.233 10.5696 22.0647 10.408Q21.8965 10.2464 21.6603 10.2464L9.03336 10.2464Q8.78754 10.2464 8.62267 10.408Q8.45779 10.5696 8.45779 10.8154Q8.45779 11.0583 8.62267 11.2232Q8.78754 11.3881 9.03336 11.3881ZM9.03336 16.5047L16.6701 16.5047Q16.916 16.5047 17.0843 16.3431Q17.2525 16.1815 17.2525 15.9387Q17.2525 15.6927 17.0843 15.5279Q16.916 15.363 16.6701 15.363L9.03336 15.363Q8.78754 15.363 8.62267 15.5279Q8.45779 15.6927 8.45779 15.9387Q8.45779 16.1815 8.62267 16.3431Q8.78754 16.5047 9.03336 16.5047Z"
                     fill="rgba(255,255,255,0.55)" />
              <path d="M1.42426 11.037L4.42963 9.0271Q4.69467 8.84689 4.78134 8.56201Q4.86801 8.27713 4.77798 7.99553Q4.68796 7.71393 4.42963 7.53082L1.42426 5.48782Q1.07056 5.25223 0.744781 5.25223Q0.419006 5.25223 0.209503 5.47325Q0 5.69427 0 6.11328L0 10.4213Q0 10.8275 0.214386 11.0369Q0.428772 11.2463 0.75943 11.2512Q1.09009 11.2561 1.42426 11.037Z"
                     fill="rgba(255,255,255,0.85)" />
       </g>
</svg>