<svg width="19.5898" height="19.5996">
       <g>
              <rect height="19.5996" opacity="0" width="19.5898" x="0" y="0" />
              <path d="M9.79492 19.5898Q11.8066 19.5898 13.5791 18.8232Q15.3516 18.0566 16.7041 16.7041Q18.0566 15.3516 18.8232 13.5791Q19.5898 11.8066 19.5898 9.79492Q19.5898 7.7832 18.8232 6.01074Q18.0566 4.23828 16.7041 2.88574Q15.3516 1.5332 13.5742 0.766602Q11.7969 0 9.78516 0Q7.77344 0 6.00098 0.766602Q4.22852 1.5332 2.88086 2.88574Q1.5332 4.23828 0.766602 6.01074Q0 7.7832 0 9.79492Q0 11.8066 0.766602 13.5791Q1.5332 15.3516 2.88574 16.7041Q4.23828 18.0566 6.01074 18.8232Q7.7832 19.5898 9.79492 19.5898Z"
                     fill="rgba(255,255,255,0.55)" />
              <path d="M3.1543 9.79492Q3.1543 8.4375 3.95508 7.59277Q4.75586 6.74805 6.04492 6.74805Q6.75781 6.74805 7.37305 7.07031Q7.98828 7.39258 8.63281 8.00781L9.81445 9.12109L10.9766 8.00781Q11.6699 7.34375 12.2803 7.0459Q12.8906 6.74805 13.584 6.74805Q14.8633 6.74805 15.6689 7.59277Q16.4746 8.4375 16.4746 9.79492Q16.4746 11.1523 15.6689 11.9873Q14.8633 12.8223 13.584 12.8223Q12.8906 12.8223 12.2803 12.5293Q11.6699 12.2363 10.9766 11.582L9.81445 10.4688L8.63281 11.582Q7.98828 12.1973 7.37305 12.5098Q6.75781 12.8223 6.04492 12.8223Q4.75586 12.8223 3.95508 11.9873Q3.1543 11.1523 3.1543 9.79492ZM4.15039 9.79492Q4.15039 10.7129 4.67285 11.2744Q5.19531 11.8359 6.04492 11.8359Q6.5332 11.8359 6.96289 11.5967Q7.39258 11.3574 7.92969 10.8691L9.10156 9.79492L7.92969 8.7207Q7.36328 8.19336 6.93359 7.96875Q6.50391 7.74414 6.04492 7.73438Q5.19531 7.73438 4.67285 8.30566Q4.15039 8.87695 4.15039 9.79492ZM10.5176 9.79492L11.6895 10.8691Q12.2266 11.3574 12.6611 11.5967Q13.0957 11.8359 13.584 11.8359Q14.4336 11.8359 14.9561 11.2695Q15.4785 10.7031 15.4785 9.79492Q15.4785 8.87695 14.9512 8.30566Q14.4238 7.73438 13.584 7.73438Q13.1152 7.74414 12.6807 7.96875Q12.2461 8.19336 11.6895 8.7207Z"
                     fill="#ffffff" />
       </g>
</svg>