<svg width="19.5898" height="19.5996">
       <g>
              <rect height="19.5996" opacity="0" width="19.5898" x="0" y="0" />
              <path d="M9.79492 19.5898Q11.8066 19.5898 13.5791 18.8232Q15.3516 18.0566 16.7041 16.7041Q18.0566 15.3516 18.8232 13.5791Q19.5898 11.8066 19.5898 9.79492Q19.5898 7.7832 18.8232 6.01074Q18.0566 4.23828 16.7041 2.88574Q15.3516 1.5332 13.5742 0.766602Q11.7969 0 9.78516 0Q7.77344 0 6.00098 0.766602Q4.22852 1.5332 2.88086 2.88574Q1.5332 4.23828 0.766602 6.01074Q0 7.7832 0 9.79492Q0 11.8066 0.766602 13.5791Q1.5332 15.3516 2.88574 16.7041Q4.23828 18.0566 6.01074 18.8232Q7.7832 19.5898 9.79492 19.5898ZM9.79492 18.3203Q8.02734 18.3203 6.47949 17.6611Q4.93164 17.002 3.75977 15.8301Q2.58789 14.6582 1.92871 13.1104Q1.26953 11.5625 1.26953 9.79492Q1.26953 8.02734 1.92871 6.47949Q2.58789 4.93164 3.75977 3.75488Q4.93164 2.57812 6.47461 1.91895Q8.01758 1.25977 9.78516 1.25977Q11.5625 1.25977 13.1104 1.91895Q14.6582 2.57812 15.8301 3.75488Q17.002 4.93164 17.666 6.47949Q18.3301 8.02734 18.3301 9.79492Q18.3301 11.5625 17.666 13.1104Q17.002 14.6582 15.8301 15.8301Q14.6582 17.002 13.1152 17.6611Q11.5723 18.3203 9.79492 18.3203Z"
                     fill="#0a84ff" />
              <path d="M8.04688 15.1758L12.0508 15.1758Q12.2852 15.1758 12.4463 15.0195Q12.6074 14.8633 12.6074 14.6289Q12.6074 14.4043 12.4463 14.248Q12.2852 14.0918 12.0508 14.0918L10.6445 14.0918L10.6445 8.61328Q10.6445 8.32031 10.4932 8.13477Q10.3418 7.94922 10.0586 7.94922L8.17383 7.94922Q7.93945 7.94922 7.77832 8.10547Q7.61719 8.26172 7.61719 8.48633Q7.61719 8.7207 7.77832 8.87207Q7.93945 9.02344 8.17383 9.02344L9.45312 9.02344L9.45312 14.0918L8.04688 14.0918Q7.8125 14.0918 7.65137 14.248Q7.49023 14.4043 7.49023 14.6289Q7.49023 14.8633 7.65137 15.0195Q7.8125 15.1758 8.04688 15.1758ZM9.73633 6.16211Q10.1855 6.16211 10.498 5.84961Q10.8105 5.53711 10.8105 5.09766Q10.8105 4.64844 10.498 4.33594Q10.1855 4.02344 9.73633 4.02344Q9.29688 4.02344 8.97949 4.33594Q8.66211 4.64844 8.66211 5.09766Q8.66211 5.53711 8.97949 5.84961Q9.29688 6.16211 9.73633 6.16211Z"
                     fill="#0a84ff" />
       </g>
</svg>