<svg width="19.5898" height="19.5996">
       <g>
              <rect height="19.5996" opacity="0" width="19.5898" x="0" y="0" />
              <path d="M9.79492 19.5898Q11.8066 19.5898 13.5791 18.8232Q15.3516 18.0566 16.7041 16.7041Q18.0566 15.3516 18.8232 13.5791Q19.5898 11.8066 19.5898 9.79492Q19.5898 7.7832 18.8232 6.01074Q18.0566 4.23828 16.7041 2.88574Q15.3516 1.5332 13.5742 0.766602Q11.7969 0 9.78516 0Q7.77344 0 6.00098 0.766602Q4.22852 1.5332 2.88086 2.88574Q1.5332 4.23828 0.766602 6.01074Q0 7.7832 0 9.79492Q0 11.8066 0.766602 13.5791Q1.5332 15.3516 2.88574 16.7041Q4.23828 18.0566 6.01074 18.8232Q7.7832 19.5898 9.79492 19.5898Z"
                     fill="#0a84ff" />
              <path d="M8.01758 15.293Q7.77344 15.293 7.60742 15.1367Q7.44141 14.9805 7.44141 14.7363Q7.44141 14.5117 7.60742 14.3457Q7.77344 14.1797 8.01758 14.1797L9.44336 14.1797L9.44336 9.0332L8.14453 9.0332Q7.90039 9.0332 7.73926 8.87695Q7.57812 8.7207 7.57812 8.47656Q7.57812 8.25195 7.73926 8.08105Q7.90039 7.91016 8.14453 7.91016L10.0586 7.91016Q10.3613 7.91016 10.5176 8.10547Q10.6738 8.30078 10.6738 8.61328L10.6738 14.1797L12.0898 14.1797Q12.3438 14.1797 12.5098 14.3457Q12.6758 14.5117 12.6758 14.7363Q12.6758 14.9805 12.5098 15.1367Q12.3438 15.293 12.0898 15.293ZM9.74609 6.10352Q9.28711 6.10352 8.96484 5.78125Q8.64258 5.45898 8.64258 5.00977Q8.64258 4.54102 8.96484 4.21875Q9.28711 3.89648 9.74609 3.89648Q10.2051 3.89648 10.5225 4.21875Q10.8398 4.54102 10.8398 5.00977Q10.8398 5.45898 10.5225 5.78125Q10.2051 6.10352 9.74609 6.10352Z"
                     fill="#ffffff" />
       </g>
</svg>