<svg width="7.52808" height="15.69">
       <g>
              <rect height="15.69" opacity="0" width="7.52808" x="0" y="0" />
              <path d="M0 14.1899Q0 14.4666 0.178375 14.6348Q0.35675 14.803 0.656586 14.803L6.87149 14.803Q7.17133 14.803 7.3497 14.6348Q7.52808 14.4666 7.52808 14.1899Q7.52808 13.9201 7.3497 13.7518Q7.17133 13.5835 6.87149 13.5835L4.68765 13.5835L4.68765 5.63599Q4.68765 5.32944 4.50928 5.14771Q4.3309 4.96597 4.04083 4.96597L1.01166 4.96597Q0.718689 4.96597 0.536957 5.13237Q0.355225 5.29877 0.355225 5.56854Q0.355225 5.84503 0.536957 6.01669Q0.718689 6.18835 1.01166 6.18835L3.32596 6.18835L3.32596 13.5835L0.656586 13.5835Q0.35675 13.5835 0.178375 13.7518Q0 13.9201 0 14.1899ZM2.45514 1.19507Q2.45514 1.68716 2.80174 2.02766Q3.14835 2.36816 3.64044 2.36816Q4.13254 2.36816 4.47723 2.02766Q4.82193 1.68716 4.81888 1.19507Q4.81598 0.693207 4.47426 0.346603Q4.13254 0 3.64044 0Q3.14835 0 2.80174 0.346603Q2.45514 0.693207 2.45514 1.19507Z"
                     fill="#0a84ff" />
       </g>
</svg>