<svg width="17.6855" height="17.7051">
       <g>
              <rect height="17.7051" opacity="0" width="17.6855" x="0" y="0" />
              <path d="M2.88086 17.7051L14.8047 17.7051Q16.2305 17.7051 16.958 16.9873Q17.6855 16.2695 17.6855 14.8535L17.6855 2.88086Q17.6855 1.46484 16.958 0.742188Q16.2305 0.0195312 14.8047 0.0195312L2.88086 0.0195312Q1.44531 0.0195312 0.722656 0.737305Q0 1.45508 0 2.88086L0 14.8535Q0 16.2695 0.722656 16.9873Q1.44531 17.7051 2.88086 17.7051ZM2.90039 16.4941Q2.07031 16.4941 1.64062 16.0645Q1.21094 15.6348 1.21094 14.7949L1.21094 2.93945Q1.21094 2.08984 1.64062 1.66016Q2.07031 1.23047 2.90039 1.23047L14.7852 1.23047Q15.5859 1.23047 16.0303 1.66016Q16.4746 2.08984 16.4746 2.93945L16.4746 14.7949Q16.4746 15.6348 16.0303 16.0645Q15.5859 16.4941 14.7852 16.4941Z"
                     fill="#0a84ff" />
              <path d="M7.09961 14.2285L11.1035 14.2285Q11.3379 14.2285 11.499 14.0723Q11.6602 13.916 11.6602 13.6816Q11.6602 13.457 11.499 13.3008Q11.3379 13.1445 11.1035 13.1445L9.69727 13.1445L9.69727 7.66602Q9.69727 7.37305 9.5459 7.1875Q9.39453 7.00195 9.11133 7.00195L7.22656 7.00195Q6.99219 7.00195 6.83105 7.1582Q6.66992 7.31445 6.66992 7.53906Q6.66992 7.77344 6.83105 7.9248Q6.99219 8.07617 7.22656 8.07617L8.50586 8.07617L8.50586 13.1445L7.09961 13.1445Q6.86523 13.1445 6.7041 13.3008Q6.54297 13.457 6.54297 13.6816Q6.54297 13.916 6.7041 14.0723Q6.86523 14.2285 7.09961 14.2285ZM8.78906 5.21484Q9.23828 5.21484 9.55078 4.90234Q9.86328 4.58984 9.86328 4.15039Q9.86328 3.70117 9.55078 3.38867Q9.23828 3.07617 8.78906 3.07617Q8.34961 3.07617 8.03223 3.38867Q7.71484 3.70117 7.71484 4.15039Q7.71484 4.58984 8.03223 4.90234Q8.34961 5.21484 8.78906 5.21484Z"
                     fill="#0a84ff" />
       </g>
</svg>