<svg width="21.2012" height="21.0449">
       <g>
              <rect height="21.0449" opacity="0" width="21.2012" x="0" y="0" />
              <path d="M5.46875 21.0449Q5.70312 21.0449 5.89844 20.9229Q6.09375 20.8008 6.35742 20.5566L9.89258 17.4023L17.0508 17.4023Q18.3789 17.4023 19.3018 16.9092Q20.2246 16.416 20.7129 15.4932Q21.2012 14.5703 21.2012 13.2617L21.2012 5.41016Q21.2012 4.10156 20.7129 3.17383Q20.2246 2.24609 19.3018 1.75293Q18.3789 1.25977 17.0508 1.25977L4.15039 1.25977Q2.82227 1.25977 1.89453 1.75293Q0.966797 2.24609 0.483398 3.16895Q0 4.0918 0 5.41016L0 13.2617Q0 14.5703 0.483398 15.498Q0.966797 16.4258 1.89453 16.9141Q2.82227 17.4023 4.15039 17.4023L4.76562 17.4023L4.76562 20.2344Q4.76562 20.6055 4.95117 20.8252Q5.13672 21.0449 5.46875 21.0449Z"
                     fill="rgba(255,255,255,0.55)" />
              <path d="M8.95508 14.4336Q8.73047 14.4336 8.5791 14.2871Q8.42773 14.1406 8.42773 13.916Q8.42773 13.7109 8.5791 13.5547Q8.73047 13.3984 8.95508 13.3984L10.2734 13.3984L10.2734 8.63281L9.07227 8.63281Q8.84766 8.63281 8.69629 8.48633Q8.54492 8.33984 8.54492 8.11523Q8.54492 7.91016 8.69629 7.75391Q8.84766 7.59766 9.07227 7.59766L10.8496 7.59766Q11.123 7.59766 11.2695 7.77832Q11.416 7.95898 11.416 8.24219L11.416 13.3984L12.7246 13.3984Q12.959 13.3984 13.1152 13.5547Q13.2715 13.7109 13.2715 13.916Q13.2715 14.1406 13.1152 14.2871Q12.959 14.4336 12.7246 14.4336ZM10.5566 5.91797Q10.1367 5.91797 9.83398 5.62012Q9.53125 5.32227 9.53125 4.91211Q9.53125 4.47266 9.83398 4.1748Q10.1367 3.87695 10.5566 3.87695Q10.9863 3.87695 11.2793 4.1748Q11.5723 4.47266 11.5723 4.91211Q11.5723 5.32227 11.2793 5.62012Q10.9863 5.91797 10.5566 5.91797Z"
                     fill="#ffffff" />
       </g>
</svg>