<svg width="17.6855" height="17.7051">
       <g>
              <rect height="17.7051" opacity="0" width="17.6855" x="0" y="0" />
              <path d="M2.88086 17.7051L14.8047 17.7051Q16.2305 17.7051 16.958 16.9873Q17.6855 16.2695 17.6855 14.8535L17.6855 2.88086Q17.6855 1.46484 16.958 0.742188Q16.2305 0.0195312 14.8047 0.0195312L2.88086 0.0195312Q1.44531 0.0195312 0.722656 0.737305Q0 1.45508 0 2.88086L0 14.8535Q0 16.2695 0.722656 16.9873Q1.44531 17.7051 2.88086 17.7051Z"
                     fill="#0a84ff" />
              <path d="M7.06055 14.3457Q6.81641 14.3457 6.65039 14.1895Q6.48438 14.0332 6.48438 13.7891Q6.48438 13.5645 6.65039 13.3984Q6.81641 13.2324 7.06055 13.2324L8.48633 13.2324L8.48633 8.08594L7.1875 8.08594Q6.94336 8.08594 6.78223 7.92969Q6.62109 7.77344 6.62109 7.5293Q6.62109 7.30469 6.78223 7.13379Q6.94336 6.96289 7.1875 6.96289L9.10156 6.96289Q9.4043 6.96289 9.56055 7.1582Q9.7168 7.35352 9.7168 7.66602L9.7168 13.2324L11.1328 13.2324Q11.3867 13.2324 11.5527 13.3984Q11.7188 13.5645 11.7188 13.7891Q11.7188 14.0332 11.5527 14.1895Q11.3867 14.3457 11.1328 14.3457ZM8.78906 5.15625Q8.33008 5.15625 8.00781 4.83398Q7.68555 4.51172 7.68555 4.0625Q7.68555 3.59375 8.00781 3.27148Q8.33008 2.94922 8.78906 2.94922Q9.24805 2.94922 9.56543 3.27148Q9.88281 3.59375 9.88281 4.0625Q9.88281 4.51172 9.56543 4.83398Q9.24805 5.15625 8.78906 5.15625Z"
                     fill="#ffffff" />
       </g>
</svg>