<svg width="24.568" height="17.7075">
       <g>
              <rect height="17.7075" opacity="0" width="24.568" x="0" y="0" />
              <path d="M2.87872 17.7075L16.1047 17.7075Q15.9683 17.5179 15.8659 17.2979Q15.7635 17.0779 15.7147 16.8208Q15.7019 16.7444 15.6892 16.6631Q15.6764 16.5817 15.6636 16.4984L2.90131 16.4984Q2.07504 16.4984 1.642 16.0688Q1.20895 15.6392 1.20895 14.7928L1.20895 2.94037Q1.20895 2.09396 1.642 1.66428Q2.07504 1.23459 2.90131 1.23459L19.9687 1.23459Q20.7761 1.23459 21.2185 1.66428Q21.6609 2.09396 21.6609 2.94037L21.6609 3.39783Q22.0233 3.39783 22.3077 3.39783Q22.592 3.39783 22.8699 3.40088L22.8699 2.8804Q22.8699 1.46667 22.149 0.746155Q21.4282 0.0256348 19.9883 0.0256348L2.87872 0.0256348Q1.44836 0.0256348 0.724182 0.743103Q0 1.46057 0 2.8804L0 14.8528Q0 16.2726 0.724182 16.9901Q1.44836 17.7075 2.87872 17.7075ZM7.4202 15.7495L15.567 15.7495Q15.567 15.5583 15.567 15.3636Q15.567 15.1689 15.567 14.9806L7.4202 14.9806Q7.25143 14.9806 7.14264 15.0894Q7.03384 15.1982 7.03384 15.367Q7.03384 15.5388 7.14264 15.6441Q7.25143 15.7495 7.4202 15.7495Z"
                     fill="rgba(255,255,255,0.55)" />
              <path d="M18.3801 17.7075L22.7515 17.7075Q23.6295 17.7075 24.0987 17.2517Q24.568 16.7958 24.568 15.9479L24.568 6.17599Q24.568 5.32501 24.0972 4.86275Q23.6264 4.40048 22.7515 4.40048L18.3801 4.40048Q17.5082 4.40048 17.039 4.86275Q16.5697 5.32501 16.5697 6.17599L16.5697 15.9479Q16.5697 16.7958 17.0374 17.2517Q17.5052 17.7075 18.3801 17.7075ZM18.4033 16.6916Q17.9842 16.6916 17.7834 16.4889Q17.5826 16.2862 17.5826 15.8633L17.5826 6.25748Q17.5826 5.8316 17.7834 5.62248Q17.9842 5.41336 18.4033 5.41336L19.2973 5.41336Q19.35 5.41336 19.35 5.47577L19.35 5.54779Q19.35 5.77744 19.491 5.91553Q19.6321 6.05362 19.8618 6.05362L21.2697 6.05362Q21.5024 6.05362 21.6451 5.91553Q21.7877 5.77744 21.7877 5.54779L21.7877 5.47577Q21.7877 5.41336 21.8312 5.41336L22.7283 5.41336Q23.1474 5.41336 23.3513 5.62248Q23.5551 5.8316 23.5551 6.25748L23.5551 15.8633Q23.5551 16.2862 23.3513 16.4889Q23.1474 16.6916 22.7283 16.6916ZM19.2143 16.1935L21.9069 16.1935Q22.2214 16.1935 22.2214 15.885Q22.2214 15.7634 22.1297 15.6718Q22.0381 15.5803 21.9069 15.5803L19.2143 15.5803Q19.0799 15.5803 18.998 15.6718Q18.9162 15.7634 18.9162 15.885Q18.9162 16.1935 19.2143 16.1935Z"
                     fill="rgba(255,255,255,0.55)" />
       </g>
</svg>