<svg width="19.5898" height="19.5996">
       <g>
              <rect height="19.5996" opacity="0" width="19.5898" x="0" y="0" />
              <path d="M9.79492 19.5996Q11.8066 19.5996 13.5791 18.833Q15.3516 18.0664 16.7041 16.7139Q18.0566 15.3613 18.8232 13.5889Q19.5898 11.8164 19.5898 9.80469Q19.5898 7.79297 18.8232 6.02051Q18.0566 4.24805 16.7041 2.89551Q15.3516 1.54297 13.5742 0.776367Q11.7969 0.00976562 9.78516 0.00976562Q7.77344 0.00976562 6.00098 0.776367Q4.22852 1.54297 2.88086 2.89551Q1.5332 4.24805 0.766602 6.02051Q0 7.79297 0 9.80469Q0 11.8164 0.766602 13.5889Q1.5332 15.3613 2.88574 16.7139Q4.23828 18.0664 6.01074 18.833Q7.7832 19.5996 9.79492 19.5996Z"
                     fill="rgba(255,255,255,0.55)" />
              <path d="M7.67578 16.1816Q6.91406 16.1816 6.47461 15.7568Q6.03516 15.332 6.03516 14.5801L6.03516 7.50977L6.8457 8.33008L6.8457 14.4824Q6.8457 14.9219 7.07031 15.1416Q7.29492 15.3613 7.76367 15.3613L11.8262 15.3613Q12.2559 15.3613 12.4805 15.1709Q12.7051 14.9805 12.7441 14.5801L12.7441 14.2188L13.4277 14.9023L13.4277 15.0293Q13.1934 16.1816 11.9141 16.1816ZM8.54492 14.9512Q8.27148 14.9512 8.27148 14.6777Q8.27148 14.3945 8.54492 14.3945L11.0547 14.3945Q11.3281 14.3945 11.3281 14.6777Q11.3281 14.9512 11.0547 14.9512ZM13.5547 12.0898L12.7441 11.2695L12.7441 5.12695Q12.7441 4.6875 12.5146 4.46777Q12.2852 4.24805 11.8262 4.24805L11.1035 4.24805Q11.0059 4.24805 11.0059 4.3457L11.0059 4.45312Q11.0059 4.88281 10.5957 4.88281L9.00391 4.88281Q8.58398 4.88281 8.58398 4.45312L8.58398 4.3457Q8.58398 4.24805 8.48633 4.24805L7.76367 4.24805Q7.31445 4.24805 7.09473 4.45312Q6.875 4.6582 6.85547 5.04883L6.85547 5.38086L6.15234 4.67773L6.15234 4.59961Q6.38672 3.42773 7.67578 3.42773L11.9141 3.42773Q12.6758 3.42773 13.1152 3.85742Q13.5547 4.28711 13.5547 5.0293ZM14.3848 14.9316L4.63867 5.19531Q4.53125 5.08789 4.53125 4.92676Q4.53125 4.76562 4.63867 4.63867Q4.75586 4.53125 4.91699 4.53125Q5.07812 4.53125 5.19531 4.63867L14.9316 14.3848Q15.0488 14.4922 15.0488 14.6533Q15.0488 14.8145 14.9316 14.9316Q14.8242 15.0488 14.6582 15.0439Q14.4922 15.0391 14.3848 14.9316Z"
                     fill="#ffffff" />
       </g>
</svg>