<svg width="19.5898" height="19.5996">
       <g>
              <rect height="19.5996" opacity="0" width="19.5898" x="0" y="0" />
              <path d="M9.79492 19.5996Q11.8066 19.5996 13.5791 18.833Q15.3516 18.0664 16.7041 16.7139Q18.0566 15.3613 18.8232 13.5889Q19.5898 11.8164 19.5898 9.80469Q19.5898 7.79297 18.8232 6.02051Q18.0566 4.24805 16.7041 2.89551Q15.3516 1.54297 13.5742 0.776367Q11.7969 0.00976562 9.78516 0.00976562Q7.77344 0.00976562 6.00098 0.776367Q4.22852 1.54297 2.88086 2.89551Q1.5332 4.24805 0.766602 6.02051Q0 7.79297 0 9.80469Q0 11.8164 0.766602 13.5889Q1.5332 15.3613 2.88574 16.7139Q4.23828 18.0664 6.01074 18.833Q7.7832 19.5996 9.79492 19.5996Z"
                     fill="rgba(255,255,255,0.55)" />
              <path d="M6.03516 14.5898L6.03516 5.0293Q6.03516 4.27734 6.46973 3.85742Q6.9043 3.4375 7.66602 3.4375L11.9336 3.4375Q12.6953 3.4375 13.1299 3.85742Q13.5645 4.27734 13.5645 5.0293L13.5645 14.5898Q13.5645 15.332 13.1299 15.7568Q12.6953 16.1816 11.9336 16.1816L7.66602 16.1816Q6.9043 16.1816 6.46973 15.7568Q6.03516 15.332 6.03516 14.5898ZM6.85547 14.1797L12.7441 14.1797L12.7441 5.42969L6.85547 5.42969ZM9.80469 15.5762Q10 15.5762 10.1416 15.4297Q10.2832 15.2832 10.2832 15.0879Q10.2832 14.8828 10.1416 14.7412Q10 14.5996 9.80469 14.5996Q9.60938 14.5996 9.46289 14.7412Q9.31641 14.8828 9.31641 15.0879Q9.31641 15.2832 9.46289 15.4297Q9.60938 15.5762 9.80469 15.5762ZM8.70117 4.46289Q8.70117 4.56055 8.77441 4.63379Q8.84766 4.70703 8.94531 4.70703L10.6543 4.70703Q10.7617 4.70703 10.8301 4.63379Q10.8984 4.56055 10.8984 4.46289Q10.8984 4.21875 10.6543 4.21875L8.94531 4.21875Q8.70117 4.21875 8.70117 4.46289Z"
                     fill="#ffffff" />
       </g>
</svg>