<svg width="19.5898" height="19.5996">
       <g>
              <rect height="19.5996" opacity="0" width="19.5898" x="0" y="0" />
              <path d="M9.79492 19.5996Q11.8066 19.5996 13.5791 18.833Q15.3516 18.0664 16.7041 16.7139Q18.0566 15.3613 18.8232 13.5889Q19.5898 11.8164 19.5898 9.80469Q19.5898 7.79297 18.8232 6.02051Q18.0566 4.24805 16.7041 2.89551Q15.3516 1.54297 13.5742 0.776367Q11.7969 0.00976562 9.78516 0.00976562Q7.77344 0.00976562 6.00098 0.776367Q4.22852 1.54297 2.88086 2.89551Q1.5332 4.24805 0.766602 6.02051Q0 7.79297 0 9.80469Q0 11.8164 0.766602 13.5889Q1.5332 15.3613 2.88574 16.7139Q4.23828 18.0664 6.01074 18.833Q7.7832 19.5996 9.79492 19.5996Z"
                     fill="rgba(255,255,255,0.55)" />
              <path d="M7.67578 16.1816Q6.91406 16.1816 6.47461 15.7568Q6.03516 15.332 6.03516 14.5801L6.03516 5.0293Q6.03516 4.28711 6.47461 3.85742Q6.91406 3.42773 7.67578 3.42773L11.9141 3.42773Q12.666 3.42773 13.1104 3.85742Q13.5547 4.28711 13.5547 5.0293L13.5547 14.5801Q13.5547 15.332 13.1104 15.7568Q12.666 16.1816 11.9141 16.1816ZM7.75391 15.3613L11.8262 15.3613Q12.2852 15.3613 12.5146 15.1416Q12.7441 14.9219 12.7441 14.4824L12.7441 5.12695Q12.7441 4.6875 12.5146 4.46777Q12.2852 4.24805 11.8262 4.24805L11.1035 4.24805Q11.0059 4.24805 11.0059 4.3457L11.0059 4.45312Q11.0059 4.88281 10.5957 4.88281L8.99414 4.88281Q8.59375 4.88281 8.59375 4.45312L8.59375 4.3457Q8.59375 4.24805 8.48633 4.24805L7.75391 4.24805Q7.29492 4.24805 7.07031 4.46777Q6.8457 4.6875 6.8457 5.12695L6.8457 14.4824Q6.8457 14.9219 7.07031 15.1416Q7.29492 15.3613 7.75391 15.3613ZM8.54492 14.9512Q8.27148 14.9512 8.27148 14.6777Q8.27148 14.3945 8.54492 14.3945L11.0449 14.3945Q11.3184 14.3945 11.3184 14.6777Q11.3184 14.9512 11.0449 14.9512Z"
                     fill="#ffffff" />
       </g>
</svg>