<svg width="29.6191" height="20.1074">
       <g>
              <rect height="20.1074" opacity="0" width="29.6191" x="0" y="0" />
              <path d="M11.4062 20.0977L18.2227 20.0977Q19.4043 20.0977 20.083 19.4385Q20.7617 18.7793 20.7617 17.6367L20.7617 2.46094Q20.7617 1.31836 20.083 0.65918Q19.4043 0 18.2227 0L11.4062 0Q10.2246 0 9.5459 0.65918Q8.86719 1.31836 8.86719 2.46094L8.86719 17.6367Q8.86719 18.7793 9.5459 19.4385Q10.2246 20.0977 11.4062 20.0977ZM11.5527 18.8867Q10.8105 18.8867 10.4443 18.5303Q10.0781 18.1738 10.0781 17.4707L10.0781 2.62695Q10.0781 1.91406 10.4443 1.55762Q10.8105 1.20117 11.5527 1.20117L12.7539 1.20117Q12.9688 1.20117 12.9688 1.41602L12.9688 1.5918Q12.9688 1.86523 13.1348 2.03613Q13.3008 2.20703 13.5742 2.20703L16.0645 2.20703Q16.3379 2.20703 16.5039 2.03613Q16.6699 1.86523 16.6699 1.5918L16.6699 1.41602Q16.6699 1.20117 16.875 1.20117L18.0859 1.20117Q18.8184 1.20117 19.1846 1.55762Q19.5508 1.91406 19.5508 2.62695L19.5508 17.4707Q19.5508 18.1738 19.1846 18.5303Q18.8184 18.8867 18.0859 18.8867ZM12.793 18.2031L16.8457 18.2031Q17.0117 18.2031 17.1191 18.0957Q17.2266 17.9883 17.2266 17.8223Q17.2266 17.6465 17.1191 17.5439Q17.0117 17.4414 16.8457 17.4414L12.793 17.4414Q12.627 17.4414 12.5146 17.5439Q12.4023 17.6465 12.4023 17.8223Q12.4023 17.9883 12.5146 18.0957Q12.627 18.2031 12.793 18.2031Z"
                     fill="rgba(255,255,255,0.55)" />
              <path d="M6.17188 13.7988Q6.34766 13.6035 6.29883 13.3594Q6.25 13.1152 6.06445 12.8809Q5.56641 12.334 5.31738 11.5967Q5.06836 10.8594 5.06836 10.0488Q5.06836 9.23828 5.31738 8.50098Q5.56641 7.76367 6.06445 7.2168Q6.25 6.97266 6.29883 6.7334Q6.34766 6.49414 6.17188 6.29883Q5.98633 6.08398 5.69824 6.08887Q5.41016 6.09375 5.21484 6.34766Q4.56055 7.08984 4.2041 8.04199Q3.84766 8.99414 3.84766 10.0488Q3.84766 11.1035 4.2041 12.0508Q4.56055 12.998 5.21484 13.75Q5.41016 14.0039 5.69824 14.0088Q5.98633 14.0137 6.17188 13.7988ZM23.457 13.7988Q23.6426 14.0137 23.9307 14.0088Q24.2188 14.0039 24.4141 13.75Q25.0684 12.998 25.4248 12.0508Q25.7812 11.1035 25.7812 10.0488Q25.7812 8.99414 25.4248 8.04199Q25.0684 7.08984 24.4141 6.34766Q24.2188 6.09375 23.9307 6.08887Q23.6426 6.08398 23.457 6.29883Q23.2812 6.49414 23.3252 6.7334Q23.3691 6.97266 23.5547 7.2168Q24.0625 7.76367 24.3115 8.50098Q24.5605 9.23828 24.5605 10.0488Q24.5605 10.8594 24.3115 11.5967Q24.0625 12.334 23.5547 12.8809Q23.3691 13.1152 23.3252 13.3594Q23.2812 13.6035 23.457 13.7988Z"
                     fill="rgba(255,255,255,0.55)" />
              <path d="M3.48633 16.543Q3.66211 16.3477 3.62305 16.0938Q3.58398 15.8398 3.37891 15.625Q2.35352 14.5215 1.78711 13.0908Q1.2207 11.6602 1.2207 10.0488Q1.2207 8.42773 1.78711 7.00195Q2.35352 5.57617 3.37891 4.47266Q3.58398 4.24805 3.62305 3.99902Q3.66211 3.75 3.48633 3.55469Q3.31055 3.33984 3.03711 3.34961Q2.76367 3.35938 2.54883 3.59375Q1.33789 4.86328 0.668945 6.52344Q0 8.18359 0 10.0488Q0 11.9141 0.668945 13.5693Q1.33789 15.2246 2.54883 16.5039Q2.76367 16.7383 3.03711 16.7432Q3.31055 16.748 3.48633 16.543ZM26.1328 16.543Q26.3184 16.748 26.5967 16.7432Q26.875 16.7383 27.0898 16.5039Q28.291 15.2246 28.9551 13.5693Q29.6191 11.9141 29.6191 10.0488Q29.6191 8.18359 28.9551 6.52344Q28.291 4.86328 27.0898 3.59375Q26.875 3.35938 26.5967 3.34961Q26.3184 3.33984 26.1328 3.55469Q25.957 3.75 26.001 3.99902Q26.0449 4.24805 26.2402 4.47266Q27.2754 5.57617 27.8418 7.00195Q28.4082 8.42773 28.4082 10.0488Q28.4082 11.6602 27.8418 13.0908Q27.2754 14.5215 26.2402 15.625Q26.0449 15.8398 26.001 16.0938Q25.957 16.3477 26.1328 16.543Z"
                     fill="rgba(255,255,255,0.55)" />
       </g>
</svg>