<svg width="19.5898" height="19.5996">
       <g>
              <rect height="19.5996" opacity="0" width="19.5898" x="0" y="0" />
              <path d="M9.79492 19.5996Q11.8066 19.5996 13.5791 18.833Q15.3516 18.0664 16.7041 16.7139Q18.0566 15.3613 18.8232 13.5889Q19.5898 11.8164 19.5898 9.80469Q19.5898 7.79297 18.8232 6.02051Q18.0566 4.24805 16.7041 2.89551Q15.3516 1.54297 13.5742 0.776367Q11.7969 0.00976562 9.78516 0.00976562Q7.77344 0.00976562 6.00098 0.776367Q4.22852 1.54297 2.88086 2.89551Q1.5332 4.24805 0.766602 6.02051Q0 7.79297 0 9.80469Q0 11.8164 0.766602 13.5889Q1.5332 15.3613 2.88574 16.7139Q4.23828 18.0664 6.01074 18.833Q7.7832 19.5996 9.79492 19.5996Z"
                     fill="rgba(255,255,255,0.55)" />
              <path d="M7.87109 15.6055Q7.17773 15.6055 6.77734 15.21Q6.37695 14.8145 6.37695 14.1309L6.37695 5.47852Q6.37695 4.79492 6.77734 4.39941Q7.17773 4.00391 7.87109 4.00391L11.7188 4.00391Q12.4121 4.00391 12.8223 4.39941Q13.2324 4.79492 13.2324 5.47852L13.2324 14.1309Q13.2324 14.8145 12.8223 15.21Q12.4121 15.6055 11.7188 15.6055ZM7.95898 14.8438L11.6406 14.8438Q12.0508 14.8438 12.2559 14.6436Q12.4609 14.4434 12.4609 14.043L12.4609 5.56641Q12.4609 5.16602 12.2559 4.96582Q12.0508 4.76562 11.6406 4.76562L10.9766 4.76562Q10.8887 4.76562 10.8887 4.85352L10.8887 4.94141Q10.8887 5.3418 10.5078 5.3418L9.0918 5.3418Q8.71094 5.3418 8.71094 4.94141L8.71094 4.85352Q8.71094 4.76562 8.62305 4.76562L7.95898 4.76562Q7.53906 4.76562 7.33887 4.96582Q7.13867 5.16602 7.13867 5.56641L7.13867 14.043Q7.13867 14.4434 7.33887 14.6436Q7.53906 14.8438 7.95898 14.8438ZM8.66211 14.4824Q8.39844 14.4824 8.39844 14.2188Q8.39844 13.9551 8.66211 13.9551L10.9375 13.9551Q11.1914 13.9551 11.1914 14.2188Q11.1914 14.4824 10.9375 14.4824Z"
                     fill="#ffffff" />
              <path d="M5.36133 11.543Q5.26367 11.6699 5.10254 11.665Q4.94141 11.6602 4.83398 11.5234Q4.19922 10.791 4.19922 9.80469Q4.19922 8.81836 4.83398 8.07617Q4.94141 7.94922 5.10254 7.94434Q5.26367 7.93945 5.36133 8.06641Q5.53711 8.27148 5.30273 8.55469Q4.87305 9.02344 4.87305 9.80469Q4.87305 10.5664 5.30273 11.0547Q5.53711 11.3379 5.36133 11.543ZM14.2188 11.543Q14.043 11.3379 14.2773 11.0547Q14.707 10.5664 14.707 9.80469Q14.707 9.02344 14.2773 8.55469Q14.043 8.27148 14.2188 8.06641Q14.3164 7.93945 14.4727 7.94434Q14.6289 7.94922 14.7461 8.07617Q15.3809 8.81836 15.3809 9.80469Q15.3809 10.791 14.7461 11.5234Q14.6289 11.6602 14.4727 11.665Q14.3164 11.6699 14.2188 11.543Z"
                     fill="#ffffff" />
              <path d="M3.93555 12.793Q3.84766 12.9102 3.69629 12.9102Q3.54492 12.9102 3.42773 12.7832Q2.25586 11.5332 2.25586 9.80469Q2.25586 8.06641 3.42773 6.81641Q3.54492 6.69922 3.69629 6.69922Q3.84766 6.69922 3.93555 6.81641Q4.11133 7.02148 3.88672 7.30469Q2.91992 8.35938 2.91992 9.80469Q2.91992 11.25 3.88672 12.3047Q4.11133 12.5781 3.93555 12.793ZM15.6445 12.793Q15.4688 12.5781 15.6934 12.3047Q16.6602 11.25 16.6602 9.80469Q16.6602 8.35938 15.6934 7.30469Q15.4688 7.02148 15.6445 6.81641Q15.7324 6.69922 15.8838 6.69922Q16.0352 6.69922 16.1523 6.81641Q17.3242 8.06641 17.3242 9.80469Q17.3242 11.5332 16.1523 12.7832Q16.0352 12.9102 15.8838 12.9102Q15.7324 12.9102 15.6445 12.793Z"
                     fill="#ffffff" />
       </g>
</svg>