<svg width="19.5898" height="19.5996">
       <g>
              <rect height="19.5996" opacity="0" width="19.5898" x="0" y="0" />
              <path d="M9.79492 19.5898Q11.8066 19.5898 13.5791 18.8232Q15.3516 18.0566 16.7041 16.7041Q18.0566 15.3516 18.8232 13.5791Q19.5898 11.8066 19.5898 9.79492Q19.5898 7.7832 18.8232 6.01074Q18.0566 4.23828 16.7041 2.88574Q15.3516 1.5332 13.5742 0.766602Q11.7969 0 9.78516 0Q7.77344 0 6.00098 0.766602Q4.22852 1.5332 2.88086 2.88574Q1.5332 4.23828 0.766602 6.01074Q0 7.7832 0 9.79492Q0 11.8066 0.766602 13.5791Q1.5332 15.3516 2.88574 16.7041Q4.23828 18.0566 6.01074 18.8232Q7.7832 19.5898 9.79492 19.5898ZM9.79492 18.3203Q8.02734 18.3203 6.47949 17.6611Q4.93164 17.002 3.75977 15.8301Q2.58789 14.6582 1.92871 13.1104Q1.26953 11.5625 1.26953 9.79492Q1.26953 8.02734 1.92871 6.47949Q2.58789 4.93164 3.75977 3.75488Q4.93164 2.57812 6.47461 1.91895Q8.01758 1.25977 9.78516 1.25977Q11.5625 1.25977 13.1104 1.91895Q14.6582 2.57812 15.8301 3.75488Q17.002 4.93164 17.666 6.47949Q18.3301 8.02734 18.3301 9.79492Q18.3301 11.5625 17.666 13.1104Q17.002 14.6582 15.8301 15.8301Q14.6582 17.002 13.1152 17.6611Q11.5723 18.3203 9.79492 18.3203Z"
                     fill="rgba(255,255,255,0.55)" />
              <path d="M6.44531 14.043Q6.44531 14.7168 6.83594 15.0977Q7.22656 15.4785 7.91016 15.4785L11.6895 15.4785Q12.373 15.4785 12.7637 15.0977Q13.1543 14.7168 13.1543 14.043L13.1543 5.54688Q13.1543 4.88281 12.7637 4.49707Q12.373 4.11133 11.6895 4.11133L7.91016 4.11133Q7.22656 4.11133 6.83594 4.49707Q6.44531 4.88281 6.44531 5.54688ZM7.19727 13.6816L7.19727 5.9082L12.4121 5.9082L12.4121 13.6816ZM9.81445 14.9121Q9.63867 14.9121 9.5166 14.79Q9.39453 14.668 9.39453 14.4922Q9.39453 14.3164 9.5166 14.1943Q9.63867 14.0723 9.81445 14.0723Q9.98047 14.0723 10.0977 14.1943Q10.2148 14.3164 10.2148 14.4922Q10.2148 14.668 10.0977 14.79Q9.98047 14.9121 9.81445 14.9121ZM8.83789 5.04883Q8.83789 4.83398 9.05273 4.83398L10.5566 4.83398Q10.7617 4.83398 10.7617 5.04883Q10.7617 5.25391 10.5566 5.25391L9.05273 5.25391Q8.83789 5.25391 8.83789 5.04883Z"
                     fill="rgba(255,255,255,0.55)" />
              <path d="M5.48828 11.5039Q5.6543 11.2891 5.43945 11.0254Q5.00977 10.5566 5.00977 9.79492Q5.00977 9.02344 5.43945 8.56445Q5.6543 8.29102 5.48828 8.08594Q5.40039 7.96875 5.24414 7.97363Q5.08789 7.97852 4.99023 8.0957Q4.35547 8.83789 4.35547 9.79492Q4.35547 10.752 4.99023 11.4844Q5.08789 11.6113 5.24414 11.6113Q5.40039 11.6113 5.48828 11.5039ZM14.1211 11.5039Q14.2188 11.6113 14.3701 11.6113Q14.5215 11.6113 14.6191 11.4844Q15.2539 10.752 15.2539 9.79492Q15.2539 8.83789 14.6191 8.0957Q14.5215 7.97852 14.3701 7.97363Q14.2188 7.96875 14.1211 8.08594Q13.9551 8.29102 14.1699 8.56445Q14.5996 9.02344 14.5996 9.79492Q14.5996 10.5566 14.1699 11.0254Q13.9551 11.2891 14.1211 11.5039Z"
                     fill="rgba(255,255,255,0.55)" />
              <path d="M4.10156 12.7246Q4.27734 12.5098 4.04297 12.2559Q3.0957 11.2109 3.0957 9.79492Q3.0957 8.36914 4.04297 7.33398Q4.27734 7.07031 4.10156 6.86523Q4.01367 6.74805 3.86719 6.74805Q3.7207 6.74805 3.60352 6.875Q2.45117 8.0957 2.45117 9.79492Q2.45117 11.4941 3.60352 12.7148Q3.7207 12.8418 3.86719 12.8418Q4.01367 12.8418 4.10156 12.7246ZM15.5078 12.7246Q15.5957 12.8418 15.7422 12.8418Q15.8887 12.8418 16.0059 12.7148Q17.1582 11.4941 17.1582 9.79492Q17.1582 8.0957 16.0059 6.875Q15.8887 6.74805 15.7422 6.74805Q15.5957 6.74805 15.5078 6.86523Q15.332 7.07031 15.5664 7.33398Q16.5137 8.36914 16.5137 9.79492Q16.5137 11.2109 15.5664 12.2559Q15.332 12.5098 15.5078 12.7246Z"
                     fill="rgba(255,255,255,0.55)" />
       </g>
</svg>