<svg width="19.5898" height="19.5996">
       <g>
              <rect height="19.5996" opacity="0" width="19.5898" x="0" y="0" />
              <path d="M9.79492 19.5996Q11.8066 19.5996 13.5791 18.833Q15.3516 18.0664 16.7041 16.7139Q18.0566 15.3613 18.8232 13.5889Q19.5898 11.8164 19.5898 9.80469Q19.5898 7.79297 18.8232 6.02051Q18.0566 4.24805 16.7041 2.89551Q15.3516 1.54297 13.5742 0.776367Q11.7969 0.00976562 9.78516 0.00976562Q7.77344 0.00976562 6.00098 0.776367Q4.22852 1.54297 2.88086 2.89551Q1.5332 4.24805 0.766602 6.02051Q0 7.79297 0 9.80469Q0 11.8164 0.766602 13.5889Q1.5332 15.3613 2.88574 16.7139Q4.23828 18.0664 6.01074 18.833Q7.7832 19.5996 9.79492 19.5996Z"
                     fill="rgba(255,255,255,0.55)" />
              <path d="M6.37695 14.1406L6.37695 5.47852Q6.37695 4.79492 6.77734 4.39941Q7.17773 4.00391 7.87109 4.00391L11.7285 4.00391Q12.4219 4.00391 12.8271 4.39941Q13.2324 4.79492 13.2324 5.47852L13.2324 14.1406Q13.2324 14.8145 12.8271 15.21Q12.4219 15.6055 11.7285 15.6055L7.87109 15.6055Q7.17773 15.6055 6.77734 15.21Q6.37695 14.8145 6.37695 14.1406ZM7.14844 13.7695L12.4609 13.7695L12.4609 5.83984L7.14844 5.83984ZM9.81445 15.0293Q9.99023 15.0293 10.1074 14.8975Q10.2246 14.7656 10.2246 14.5898Q10.2246 14.4238 10.1074 14.2969Q9.99023 14.1699 9.81445 14.1699Q9.63867 14.1699 9.51172 14.2969Q9.38477 14.4238 9.38477 14.5898Q9.38477 14.7656 9.51172 14.8975Q9.63867 15.0293 9.81445 15.0293ZM8.81836 4.96094Q8.81836 5.16602 9.0332 5.16602L10.5762 5.16602Q10.7812 5.16602 10.7812 4.96094Q10.7812 4.75586 10.5762 4.75586L9.0332 4.75586Q8.81836 4.75586 8.81836 4.96094Z"
                     fill="#ffffff" />
              <path d="M5.41016 11.543Q5.3125 11.6699 5.15137 11.665Q4.99023 11.6602 4.89258 11.5234Q4.24805 10.7812 4.24805 9.80469Q4.24805 8.82812 4.89258 8.07617Q4.99023 7.94922 5.15137 7.94434Q5.3125 7.93945 5.41016 8.06641Q5.57617 8.27148 5.35156 8.55469Q4.92188 9.01367 4.92188 9.80469Q4.92188 10.5664 5.35156 11.0547Q5.57617 11.3379 5.41016 11.543ZM14.1992 11.543Q14.0332 11.3379 14.2578 11.0547Q14.6973 10.5664 14.6973 9.80469Q14.6973 9.01367 14.2578 8.55469Q14.0332 8.27148 14.1992 8.06641Q14.3066 7.93945 14.4629 7.94434Q14.6191 7.94922 14.7168 8.07617Q15.3711 8.82812 15.3711 9.80469Q15.3711 10.7812 14.7168 11.5234Q14.6191 11.6602 14.4629 11.665Q14.3066 11.6699 14.1992 11.543Z"
                     fill="#ffffff" />
              <path d="M3.98438 12.793Q3.89648 12.9102 3.74512 12.9102Q3.59375 12.9102 3.47656 12.7832Q2.30469 11.5332 2.30469 9.80469Q2.30469 8.06641 3.47656 6.81641Q3.59375 6.69922 3.74512 6.69922Q3.89648 6.69922 3.98438 6.81641Q4.17969 7.03125 3.93555 7.30469Q2.96875 8.35938 2.96875 9.80469Q2.96875 11.25 3.93555 12.3047Q4.17969 12.5781 3.98438 12.793ZM15.625 12.793Q15.4395 12.5781 15.6836 12.3047Q16.6504 11.25 16.6504 9.80469Q16.6504 8.35938 15.6836 7.30469Q15.4395 7.03125 15.625 6.81641Q15.7129 6.69922 15.8643 6.69922Q16.0156 6.69922 16.1328 6.81641Q17.3047 8.06641 17.3047 9.80469Q17.3047 11.5332 16.1328 12.7832Q16.0156 12.9102 15.8643 12.9102Q15.7129 12.9102 15.625 12.793Z"
                     fill="#ffffff" />
       </g>
</svg>