<svg width="19.5898" height="19.5996">
       <g>
              <rect height="19.5996" opacity="0" width="19.5898" x="0" y="0" />
              <path d="M9.79492 19.5898Q11.8066 19.5898 13.5791 18.8232Q15.3516 18.0566 16.7041 16.7041Q18.0566 15.3516 18.8232 13.5791Q19.5898 11.8066 19.5898 9.79492Q19.5898 7.7832 18.8232 6.01074Q18.0566 4.23828 16.7041 2.88574Q15.3516 1.5332 13.5742 0.766602Q11.7969 0 9.78516 0Q7.77344 0 6.00098 0.766602Q4.22852 1.5332 2.88086 2.88574Q1.5332 4.23828 0.766602 6.01074Q0 7.7832 0 9.79492Q0 11.8066 0.766602 13.5791Q1.5332 15.3516 2.88574 16.7041Q4.23828 18.0566 6.01074 18.8232Q7.7832 19.5898 9.79492 19.5898ZM9.79492 18.3203Q8.02734 18.3203 6.47949 17.6611Q4.93164 17.002 3.75977 15.8301Q2.58789 14.6582 1.92871 13.1104Q1.26953 11.5625 1.26953 9.79492Q1.26953 8.02734 1.92871 6.47949Q2.58789 4.93164 3.75977 3.75488Q4.93164 2.57812 6.47461 1.91895Q8.01758 1.25977 9.78516 1.25977Q11.5625 1.25977 13.1104 1.91895Q14.6582 2.57812 15.8301 3.75488Q17.002 4.93164 17.666 6.47949Q18.3301 8.02734 18.3301 9.79492Q18.3301 11.5625 17.666 13.1104Q17.002 14.6582 15.8301 15.8301Q14.6582 17.002 13.1152 17.6611Q11.5723 18.3203 9.79492 18.3203Z"
                     fill="rgba(255,255,255,0.55)" />
              <path d="M7.91016 15.4785L11.6797 15.4785Q12.3535 15.4785 12.7539 15.0928Q13.1543 14.707 13.1543 14.0332L13.1543 5.55664Q13.1543 4.89258 12.7539 4.50195Q12.3535 4.11133 11.6797 4.11133L7.91016 4.11133Q7.22656 4.11133 6.83594 4.49707Q6.44531 4.88281 6.44531 5.55664L6.44531 14.0332Q6.44531 14.707 6.83594 15.0928Q7.22656 15.4785 7.91016 15.4785ZM7.99805 14.7363Q7.58789 14.7363 7.3877 14.5361Q7.1875 14.3359 7.1875 13.9551L7.1875 5.64453Q7.1875 5.25391 7.3877 5.05371Q7.58789 4.85352 7.99805 4.85352L8.64258 4.85352Q8.73047 4.85352 8.73047 4.94141L8.73047 5.0293Q8.73047 5.41016 9.10156 5.41016L10.4883 5.41016Q10.8691 5.41016 10.8691 5.0293L10.8691 4.94141Q10.8691 4.85352 10.9473 4.85352L11.6016 4.85352Q12.002 4.85352 12.207 5.05371Q12.4121 5.25391 12.4121 5.64453L12.4121 13.9551Q12.4121 14.3359 12.207 14.5361Q12.002 14.7363 11.6016 14.7363ZM8.68164 14.3848L10.9082 14.3848Q11.1719 14.3848 11.1719 14.1309Q11.1719 13.8672 10.9082 13.8672L8.68164 13.8672Q8.42773 13.8672 8.42773 14.1309Q8.42773 14.3848 8.68164 14.3848Z"
                     fill="rgba(255,255,255,0.55)" />
              <path d="M5.43945 11.5039Q5.60547 11.2891 5.39062 11.0254Q4.96094 10.5566 4.96094 9.79492Q4.96094 9.02344 5.39062 8.56445Q5.60547 8.29102 5.43945 8.08594Q5.35156 7.96875 5.19531 7.97363Q5.03906 7.97852 4.94141 8.0957Q4.30664 8.83789 4.30664 9.79492Q4.30664 10.752 4.94141 11.4844Q5.03906 11.6113 5.19531 11.6113Q5.35156 11.6113 5.43945 11.5039ZM14.1309 11.5039Q14.2383 11.6113 14.3848 11.6113Q14.5312 11.6113 14.6387 11.4844Q15.2734 10.752 15.2734 9.79492Q15.2734 8.83789 14.6387 8.0957Q14.5312 7.97852 14.3848 7.97363Q14.2383 7.96875 14.1309 8.08594Q13.9648 8.29102 14.1797 8.56445Q14.6094 9.02344 14.6094 9.79492Q14.6094 10.5566 14.1797 11.0254Q13.9648 11.2891 14.1309 11.5039Z"
                     fill="rgba(255,255,255,0.55)" />
              <path d="M4.05273 12.7246Q4.22852 12.5098 3.99414 12.2559Q3.04688 11.2109 3.04688 9.79492Q3.04688 8.36914 3.99414 7.33398Q4.22852 7.07031 4.05273 6.86523Q3.96484 6.74805 3.81836 6.74805Q3.67188 6.74805 3.55469 6.875Q2.40234 8.0957 2.40234 9.79492Q2.40234 11.4941 3.55469 12.7148Q3.67188 12.8418 3.81836 12.8418Q3.96484 12.8418 4.05273 12.7246ZM15.5273 12.7246Q15.6152 12.8418 15.7617 12.8418Q15.9082 12.8418 16.0156 12.7148Q17.1777 11.4941 17.1777 9.79492Q17.1777 8.0957 16.0156 6.875Q15.9082 6.74805 15.7617 6.74805Q15.6152 6.74805 15.5273 6.86523Q15.3418 7.07031 15.5762 7.33398Q16.5234 8.36914 16.5234 9.79492Q16.5234 11.2109 15.5762 12.2559Q15.3418 12.5098 15.5273 12.7246Z"
                     fill="rgba(255,255,255,0.55)" />
       </g>
</svg>