<svg width="11.895" height="20.112">
       <g>
              <rect height="20.112" opacity="0" width="11.895" x="0" y="0" />
              <path d="M2.53815 20.0986L9.35669 20.0986Q10.5397 20.0986 11.2173 19.4397Q11.895 18.7808 11.895 17.6352L11.895 2.46338Q11.895 1.31775 11.2173 0.658875Q10.5397 0 9.35669 0L2.53815 0Q1.35895 0 0.679474 0.658875Q0 1.31775 0 2.46338L0 17.6352Q0 18.7808 0.679474 19.4397Q1.35895 20.0986 2.53815 20.0986ZM2.68265 17.5272Q1.94565 17.5272 1.5773 17.1704Q1.20895 16.8137 1.20895 16.1006L1.20895 2.63245Q1.20895 1.9194 1.5773 1.56265Q1.94565 1.2059 2.68265 1.2059L9.2189 1.2059Q9.94919 1.2059 10.3175 1.56265Q10.6859 1.9194 10.6859 2.63245L10.6859 16.219Q10.6859 16.9359 10.3175 17.2315Q9.94919 17.5272 9.2189 17.5272ZM4.42047 17.7155L7.47818 17.7155L7.47818 17.2618Q7.47818 16.9862 7.31567 16.8155Q7.15317 16.6447 6.88065 16.6447L5.02777 16.6447Q4.75525 16.6447 4.58786 16.8155Q4.42047 16.9862 4.42047 17.2618Z"
                     fill="rgba(255,255,255,0.55)" />
       </g>
</svg>