<svg width="9.97192" height="14.017">
       <g>
              <rect height="14.017" opacity="0" width="9.97192" x="0" y="0" />
              <path d="M0.596619 14.0073L6.84723 14.0073Q7.11395 14.0073 7.28226 13.8509Q7.45056 13.6946 7.45056 13.4346Q7.45056 13.1783 7.28561 13.0283Q7.12067 12.8784 6.85394 12.8784L4.40613 12.8784L6.92749 1.12885L9.37531 1.12885Q9.63531 1.12885 9.80362 0.974045Q9.97192 0.819244 9.97192 0.559235Q9.97192 0.299835 9.80698 0.149918Q9.64203 0 9.38202 0L3.10822 0Q2.84821 0 2.68326 0.149918Q2.51831 0.299835 2.51831 0.559235Q2.51831 0.819244 2.68661 0.974045Q2.85492 1.12885 3.11493 1.12885L5.56274 1.12885L3.04443 12.8784L0.589905 12.8784Q0.329742 12.8784 0.164871 13.0283Q0 13.1783 0 13.4346Q0 13.6946 0.168228 13.8509Q0.336456 14.0073 0.596619 14.0073Z"
                     fill="rgba(255,255,255,0.85)" />
       </g>
</svg>