<svg width="13.6977" height="24.5035">
       <g>
              <rect height="24.5035" opacity="0" width="13.6977" x="0" y="0" />
              <path d="M2.444 20.229L11.2537 20.229Q12.4239 20.229 13.0608 19.5805Q13.6977 18.932 13.6977 17.7361L13.6977 4.21463Q13.6977 3.0188 13.0608 2.36877Q12.4239 1.71875 11.2537 1.71875L8.44543 1.71875L8.44543 1.58981Q8.44543 0.886536 7.99545 0.443268Q7.54547 0 6.84891 0Q6.14929 0 5.69771 0.443268Q5.24612 0.886536 5.24612 1.58981L5.24612 1.71875L2.444 1.71875Q1.2738 1.71875 0.636902 2.36877Q0 3.0188 0 4.21463L0 17.7361Q0 18.932 0.636902 19.5805Q1.2738 20.229 2.444 20.229ZM6.84891 2.21024Q6.59149 2.21024 6.4167 2.03209Q6.24191 1.85394 6.24191 1.59653Q6.24191 1.34903 6.4167 1.17081Q6.59149 0.992584 6.84891 0.992584Q7.10312 0.992584 7.27638 1.17081Q7.44965 1.34903 7.44965 1.59653Q7.44965 1.85394 7.27638 2.03209Q7.10312 2.21024 6.84891 2.21024ZM9.10004 24.4168L13.149 24.4168Q13.3783 24.4168 13.538 24.2572Q13.6977 24.0976 13.6977 23.8681Q13.6977 23.6351 13.538 23.4705Q13.3783 23.306 13.149 23.306L9.10004 23.306Q8.21411 23.306 7.76657 22.9015Q7.31903 22.4971 7.31903 21.6263L7.31903 19.4453L6.20209 19.4453L6.20209 21.6263Q6.20209 22.9498 6.97868 23.6833Q7.75528 24.4168 9.10004 24.4168Z"
                     fill="rgba(255,255,255,0.25)" />
              <path d="M3.60519 17.6405Q3.16437 17.6405 2.89665 17.3811Q2.62894 17.1216 2.62894 16.6936L2.62894 6.23672Q2.62894 5.80582 2.89665 5.54443Q3.16437 5.28305 3.60519 5.28305L10.112 5.28305Q10.5498 5.28305 10.8175 5.54443Q11.0852 5.80582 11.0852 6.23672L11.0852 16.6936Q11.0852 17.1216 10.8175 17.3811Q10.5498 17.6405 10.112 17.6405Z"
                     fill="#bf5af2" />
              <path d="M5.58197 15.726L8.13522 15.726Q8.31665 15.726 8.43895 15.6105Q8.56125 15.495 8.56125 15.3262Q8.56125 15.1477 8.43895 15.0236Q8.31665 14.8994 8.13522 14.8994L5.58197 14.8994Q5.39673 14.8994 5.27786 15.0236Q5.159 15.1477 5.159 15.3262Q5.159 15.495 5.27786 15.6105Q5.39673 15.726 5.58197 15.726ZM4.86206 13.7476L8.91785 13.7476Q9.09927 13.7476 9.21822 13.6253Q9.33716 13.503 9.33716 13.3275Q9.33716 13.1557 9.21822 13.0368Q9.09927 12.9179 8.91785 12.9179L4.86206 12.9179Q4.67682 12.9179 4.55788 13.0368Q4.43893 13.1557 4.43893 13.3275Q4.43893 13.503 4.55788 13.6253Q4.67682 13.7476 4.86206 13.7476ZM6.84891 11.5511Q7.491 11.5511 7.94914 11.1109Q8.40729 10.6708 8.40729 10.0285Q8.40729 9.67026 8.25409 9.32289Q8.10089 8.97552 7.92816 8.65265L7.08664 7.10938Q6.97708 6.9136 6.8454 6.91208Q6.71371 6.91055 6.61102 7.10632L5.7695 8.65265Q5.59677 8.97552 5.44357 9.32289Q5.29037 9.67026 5.29037 10.0285Q5.29037 10.6708 5.7534 11.1109Q6.21643 11.5511 6.84891 11.5511Z"
                     fill="#ffffff" />
       </g>
</svg>