<svg width="13.6977" height="24.5169">
       <g>
              <rect height="24.5169" opacity="0" width="13.6977" x="0" y="0" />
              <path d="M2.444 20.2357L11.2537 20.2357Q12.4239 20.2357 13.0608 19.5872Q13.6977 18.9388 13.6977 17.7428L13.6977 4.22134Q13.6977 3.02551 13.0608 2.37549Q12.4239 1.72546 11.2537 1.72546L8.44543 1.72546L8.44543 1.58981Q8.44543 0.89325 7.99881 0.446625Q7.55219 0 6.84891 0Q6.14243 0 5.69427 0.446625Q5.24612 0.89325 5.24612 1.58981L5.24612 1.72546L2.444 1.72546Q1.2738 1.72546 0.636902 2.37549Q0 3.02551 0 4.22134L0 17.7428Q0 18.9388 0.636902 19.5872Q1.2738 20.2357 2.444 20.2357ZM2.49496 19.0021Q1.88751 19.0021 1.56548 18.6706Q1.24344 18.3391 1.24344 17.7293L1.24344 4.23172Q1.24344 3.62503 1.56548 3.29353Q1.88751 2.96204 2.49496 2.96204L11.2027 2.96204Q11.8169 2.96204 12.1356 3.29353Q12.4544 3.62503 12.4544 4.23172L12.4544 17.7293Q12.4544 18.3391 12.1356 18.6706Q11.8169 19.0021 11.2027 19.0021ZM6.84891 2.21695Q6.59149 2.21695 6.4167 2.0388Q6.24191 1.86066 6.24191 1.60324Q6.24191 1.35574 6.4167 1.17752Q6.59149 0.999298 6.84891 0.999298Q7.10312 0.999298 7.27638 1.17752Q7.44965 1.35574 7.44965 1.60324Q7.44965 1.86066 7.27638 2.0388Q7.10312 2.21695 6.84891 2.21695ZM9.10004 24.4235L13.149 24.4235Q13.3783 24.4235 13.538 24.2639Q13.6977 24.1043 13.6977 23.8748Q13.6977 23.6418 13.538 23.4772Q13.3783 23.3127 13.149 23.3127L9.10004 23.3127Q8.21411 23.3127 7.76657 22.9082Q7.31903 22.5038 7.31903 21.633L7.31903 19.4521L6.20209 19.4521L6.20209 21.633Q6.20209 22.9565 6.97868 23.69Q7.75528 24.4235 9.10004 24.4235Z"
                     fill="rgba(255,255,255,0.25)" />
              <path d="M3.6763 17.5252L10.0409 17.5252Q10.4652 17.5252 10.7311 17.2691Q10.997 17.0131 10.997 16.5887L10.997 6.3588Q10.997 5.93445 10.7311 5.67986Q10.4652 5.42526 10.0409 5.42526L3.6763 5.42526Q3.24219 5.42526 2.98119 5.67986Q2.72018 5.93445 2.72018 6.3588L2.72018 16.5887Q2.72018 17.0131 2.98119 17.2691Q3.24219 17.5252 3.6763 17.5252Z"
                     fill="#bf5af2" />
              <path d="M5.60226 15.6415Q5.42374 15.6415 5.31006 15.5274Q5.19638 15.4134 5.19638 15.2484Q5.19638 15.0766 5.31006 14.9593Q5.42374 14.8419 5.60226 14.8419L8.11493 14.8419Q8.28979 14.8419 8.4053 14.9593Q8.52081 15.0766 8.52081 15.2484Q8.52081 15.4134 8.4053 15.5274Q8.28979 15.6415 8.11493 15.6415ZM4.9025 13.7004Q4.72092 13.7004 4.60541 13.5863Q4.4899 13.4723 4.4899 13.3005Q4.4899 13.1386 4.60541 13.0196Q4.72092 12.9007 4.9025 12.9007L8.88031 12.9007Q9.05212 12.9007 9.16916 13.0196Q9.28619 13.1386 9.28619 13.3005Q9.28619 13.4723 9.16916 13.5863Q9.05212 13.7004 8.88031 13.7004ZM6.84891 11.5645Q6.22986 11.5645 5.77545 11.1345Q5.32104 10.7045 5.32104 10.069Q5.32104 9.71741 5.47089 9.37683Q5.62073 9.03625 5.79346 8.72375L6.61774 7.20139Q6.72058 7.01538 6.84883 7.01202Q6.97708 7.00867 7.07993 7.20734L7.90421 8.72375Q8.07693 9.03625 8.22678 9.37683Q8.37662 9.71741 8.37662 10.069Q8.37662 10.7045 7.93045 11.1345Q7.48428 11.5645 6.84891 11.5645Z"
                     fill="#ffffff" />
       </g>
</svg>