<svg width="19.5898" height="19.5996">
       <g>
              <rect height="19.5996" opacity="0" width="19.5898" x="0" y="0" />
              <path d="M9.79492 19.5898Q11.8066 19.5898 13.5791 18.8232Q15.3516 18.0566 16.7041 16.7041Q18.0566 15.3516 18.8232 13.5791Q19.5898 11.8066 19.5898 9.79492Q19.5898 7.7832 18.8232 6.01074Q18.0566 4.23828 16.7041 2.88574Q15.3516 1.5332 13.5742 0.766602Q11.7969 0 9.78516 0Q7.77344 0 6.00098 0.766602Q4.22852 1.5332 2.88086 2.88574Q1.5332 4.23828 0.766602 6.01074Q0 7.7832 0 9.79492Q0 11.8066 0.766602 13.5791Q1.5332 15.3516 2.88574 16.7041Q4.23828 18.0566 6.01074 18.8232Q7.7832 19.5898 9.79492 19.5898Z"
                     fill="rgba(255,255,255,0.55)" />
              <path d="M9.36523 14.3945Q8.35938 14.3945 7.63184 13.9111Q6.9043 13.4277 6.68945 12.6562Q6.65039 12.5586 6.64062 12.4561Q6.63086 12.3535 6.63086 12.2559Q6.63086 11.9922 6.78711 11.8311Q6.94336 11.6699 7.19727 11.6699Q7.59766 11.6699 7.7832 12.1094Q7.91992 12.666 8.35449 12.9932Q8.78906 13.3203 9.42383 13.3203Q10.1074 13.3203 10.5078 12.8564Q10.9082 12.3926 10.9082 11.582L10.9082 5.83008Q10.9082 5.52734 11.0693 5.33691Q11.2305 5.14648 11.5332 5.14648Q11.8359 5.14648 11.9971 5.33203Q12.1582 5.51758 12.1582 5.83008L12.1582 11.5918Q12.1582 12.9199 11.4355 13.6572Q10.7129 14.3945 9.36523 14.3945Z"
                     fill="#ffffff" />
       </g>
</svg>