<svg width="20.3027" height="19.8145">
       <g>
              <rect height="19.8145" opacity="0" width="20.3027" x="0" y="0" />
              <path d="M7.61719 19.8145L17.4316 19.8145Q18.8574 19.8145 19.5801 19.1016Q20.3027 18.3887 20.3027 16.9629L20.3027 7.09961Q20.3027 5.69336 19.5801 4.97559Q18.8574 4.25781 17.4316 4.25781L15 4.25781L15 5.45898L17.4023 5.45898Q18.2227 5.45898 18.6572 5.88867Q19.0918 6.31836 19.0918 7.16797L19.0918 16.9043Q19.0918 17.7539 18.6572 18.1836Q18.2227 18.6133 17.4023 18.6133L7.63672 18.6133Q6.82617 18.6133 6.38672 18.1836Q5.94727 17.7539 5.94727 16.9043L5.94727 15.0098L4.73633 15.0098L4.73633 16.9629Q4.73633 18.3789 5.45898 19.0967Q6.18164 19.8145 7.61719 19.8145Z"
                     fill="rgba(255,255,255,0.55)" />
              <path d="M2.88086 15.5664L12.6855 15.5664Q14.1211 15.5664 14.8438 14.8438Q15.5664 14.1211 15.5664 12.7051L15.5664 2.85156Q15.5664 1.43555 14.8438 0.717773Q14.1211 0 12.6855 0L2.88086 0Q1.44531 0 0.722656 0.717773Q0 1.43555 0 2.85156L0 12.7051Q0 14.1211 0.722656 14.8438Q1.44531 15.5664 2.88086 15.5664ZM2.90039 14.3555Q2.08984 14.3555 1.65039 13.9258Q1.21094 13.4961 1.21094 12.6465L1.21094 2.91016Q1.21094 2.07031 1.65039 1.63574Q2.08984 1.20117 2.90039 1.20117L12.666 1.20117Q13.4863 1.20117 13.9209 1.63574Q14.3555 2.07031 14.3555 2.91016L14.3555 12.6465Q14.3555 13.4961 13.9209 13.9258Q13.4863 14.3555 12.666 14.3555ZM7.36328 12.2852Q8.68164 12.2852 9.38965 11.5674Q10.0977 10.8496 10.0977 9.55078L10.0977 3.89648Q10.0977 3.59375 9.94141 3.41309Q9.78516 3.23242 9.48242 3.23242Q9.19922 3.23242 9.04297 3.41309Q8.88672 3.59375 8.88672 3.89648L8.88672 9.54102Q8.88672 10.332 8.49121 10.7861Q8.0957 11.2402 7.42188 11.2402Q6.79688 11.2402 6.37207 10.918Q5.94727 10.5957 5.81055 10.0488Q5.63477 9.61914 5.25391 9.61914Q4.99023 9.61914 4.84375 9.77539Q4.69727 9.93164 4.69727 10.1953Q4.69727 10.293 4.70703 10.3857Q4.7168 10.4785 4.74609 10.5762Q4.96094 11.3379 5.67383 11.8115Q6.38672 12.2852 7.36328 12.2852Z"
                     fill="rgba(255,255,255,0.55)" />
       </g>
</svg>