<svg width="17.6855" height="17.7051">
       <g>
              <rect height="17.7051" opacity="0" width="17.6855" x="0" y="0" />
              <path d="M2.88086 17.7051L14.8047 17.7051Q16.2305 17.7051 16.958 16.9873Q17.6855 16.2695 17.6855 14.8535L17.6855 2.88086Q17.6855 1.46484 16.958 0.742188Q16.2305 0.0195312 14.8047 0.0195312L2.88086 0.0195312Q1.44531 0.0195312 0.722656 0.737305Q0 1.45508 0 2.88086L0 14.8535Q0 16.2695 0.722656 16.9873Q1.44531 17.7051 2.88086 17.7051Z"
                     fill="rgba(255,255,255,0.55)" />
              <path d="M8.41797 13.4473Q7.41211 13.4473 6.68457 12.9639Q5.95703 12.4805 5.74219 11.709Q5.70312 11.6113 5.69336 11.5088Q5.68359 11.4062 5.68359 11.3086Q5.68359 11.0449 5.83984 10.8838Q5.99609 10.7227 6.25 10.7227Q6.65039 10.7227 6.83594 11.1621Q6.97266 11.7188 7.40723 12.0459Q7.8418 12.373 8.47656 12.373Q9.16016 12.373 9.56055 11.9092Q9.96094 11.4453 9.96094 10.6348L9.96094 4.88281Q9.96094 4.58008 10.1221 4.38965Q10.2832 4.19922 10.5859 4.19922Q10.8887 4.19922 11.0498 4.38477Q11.2109 4.57031 11.2109 4.88281L11.2109 10.6445Q11.2109 11.9727 10.4883 12.71Q9.76562 13.4473 8.41797 13.4473Z"
                     fill="#ffffff" />
       </g>
</svg>