<svg width="20.3027" height="19.8145">
       <g>
              <rect height="19.8145" opacity="0" width="20.3027" x="0" y="0" />
              <path d="M12.6855 0L2.88086 0Q1.44531 0 0.722656 0.717773Q0 1.43555 0 2.85156L0 12.7051Q0 14.1211 0.722656 14.8438Q1.44531 15.5664 2.88086 15.5664L12.6855 15.5664Q14.1211 15.5664 14.8438 14.8438Q15.5664 14.1211 15.5664 12.7051L15.5664 2.85156Q15.5664 1.43555 14.8438 0.717773Q14.1211 0 12.6855 0ZM20.3027 7.09961Q20.3027 5.69336 19.5801 4.97559Q18.8574 4.25781 17.4316 4.25781L16.6992 4.25781L16.6992 12.7051Q16.6992 13.9746 16.2256 14.8633Q15.752 15.752 14.8535 16.2256Q13.9551 16.6992 12.6855 16.6992L4.73633 16.6992L4.73633 16.9629Q4.73633 18.3789 5.45898 19.0967Q6.18164 19.8145 7.61719 19.8145L17.4316 19.8145Q18.8574 19.8145 19.5801 19.1016Q20.3027 18.3887 20.3027 16.9629Z"
                     fill="rgba(255,255,255,0.55)" />
              <path d="M7.36328 12.3828Q6.35742 12.3828 5.62988 11.8994Q4.90234 11.416 4.6875 10.6445Q4.64844 10.5469 4.63867 10.4443Q4.62891 10.3418 4.62891 10.2441Q4.62891 9.98047 4.78516 9.81934Q4.94141 9.6582 5.19531 9.6582Q5.5957 9.6582 5.78125 10.0977Q5.91797 10.6543 6.35254 10.9814Q6.78711 11.3086 7.42188 11.3086Q8.10547 11.3086 8.50586 10.8447Q8.90625 10.3809 8.90625 9.57031L8.90625 3.81836Q8.90625 3.51562 9.06738 3.3252Q9.22852 3.13477 9.53125 3.13477Q9.83398 3.13477 9.99512 3.32031Q10.1562 3.50586 10.1562 3.81836L10.1562 9.58008Q10.1562 10.9082 9.43359 11.6455Q8.71094 12.3828 7.36328 12.3828Z"
                     fill="#ffffff" />
       </g>
</svg>