<svg width="19.5898" height="19.5996">
       <g>
              <rect height="19.5996" opacity="0" width="19.5898" x="0" y="0" />
              <path d="M9.79492 19.5898Q11.8066 19.5898 13.5791 18.8232Q15.3516 18.0566 16.7041 16.7041Q18.0566 15.3516 18.8232 13.5791Q19.5898 11.8066 19.5898 9.79492Q19.5898 7.7832 18.8232 6.01074Q18.0566 4.23828 16.7041 2.88574Q15.3516 1.5332 13.5742 0.766602Q11.7969 0 9.78516 0Q7.77344 0 6.00098 0.766602Q4.22852 1.5332 2.88086 2.88574Q1.5332 4.23828 0.766602 6.01074Q0 7.7832 0 9.79492Q0 11.8066 0.766602 13.5791Q1.5332 15.3516 2.88574 16.7041Q4.23828 18.0566 6.01074 18.8232Q7.7832 19.5898 9.79492 19.5898Z"
                     fill="rgba(255,255,255,0.55)" />
              <path d="M7.19727 14.3262Q6.9043 14.3262 6.73828 14.1455Q6.57227 13.9648 6.57227 13.6328L6.57227 5.83984Q6.57227 5.51758 6.73828 5.33203Q6.9043 5.14648 7.19727 5.14648Q7.49023 5.14648 7.65137 5.33203Q7.8125 5.51758 7.8125 5.83984L7.8125 9.61914L7.87109 9.61914L12.0312 5.40039Q12.168 5.26367 12.2852 5.20508Q12.4023 5.14648 12.5586 5.14648Q12.793 5.14648 12.959 5.30273Q13.125 5.45898 13.125 5.67383Q13.125 5.81055 13.0811 5.91309Q13.0371 6.01562 12.9297 6.13281L9.99023 9.12109L13.1836 13.252Q13.2617 13.3594 13.3203 13.4814Q13.3789 13.6035 13.3789 13.7305Q13.3789 13.9941 13.2031 14.1602Q13.0273 14.3262 12.7734 14.3262Q12.5977 14.3262 12.4658 14.248Q12.334 14.1699 12.1973 14.0039L9.08203 9.95117L7.8125 11.2402L7.8125 13.6328Q7.8125 13.9648 7.65137 14.1455Q7.49023 14.3262 7.19727 14.3262Z"
                     fill="#ffffff" />
       </g>
</svg>