<svg width="17.6855" height="17.7051">
       <g>
              <rect height="17.7051" opacity="0" width="17.6855" x="0" y="0" />
              <path d="M2.88086 17.7051L14.8047 17.7051Q16.2305 17.7051 16.958 16.9873Q17.6855 16.2695 17.6855 14.8535L17.6855 2.88086Q17.6855 1.46484 16.958 0.742188Q16.2305 0.0195312 14.8047 0.0195312L2.88086 0.0195312Q1.44531 0.0195312 0.722656 0.737305Q0 1.45508 0 2.88086L0 14.8535Q0 16.2695 0.722656 16.9873Q1.44531 17.7051 2.88086 17.7051Z"
                     fill="rgba(255,255,255,0.55)" />
              <path d="M6.25 13.3789Q5.95703 13.3789 5.79102 13.1982Q5.625 13.0176 5.625 12.6855L5.625 4.89258Q5.625 4.57031 5.79102 4.38477Q5.95703 4.19922 6.25 4.19922Q6.54297 4.19922 6.7041 4.38477Q6.86523 4.57031 6.86523 4.89258L6.86523 8.67188L6.92383 8.67188L11.084 4.45312Q11.2207 4.31641 11.3379 4.25781Q11.4551 4.19922 11.6113 4.19922Q11.8457 4.19922 12.0117 4.35547Q12.1777 4.51172 12.1777 4.72656Q12.1777 4.86328 12.1338 4.96582Q12.0898 5.06836 11.9824 5.18555L9.04297 8.17383L12.2363 12.3047Q12.3145 12.4121 12.373 12.5342Q12.4316 12.6562 12.4316 12.7832Q12.4316 13.0469 12.2559 13.2129Q12.0801 13.3789 11.8262 13.3789Q11.6504 13.3789 11.5186 13.3008Q11.3867 13.2227 11.25 13.0566L8.13477 9.00391L6.86523 10.293L6.86523 12.6855Q6.86523 13.0176 6.7041 13.1982Q6.54297 13.3789 6.25 13.3789Z"
                     fill="#ffffff" />
       </g>
</svg>