<svg width="23.9648" height="17.8223">
       <g>
              <rect height="17.8223" opacity="0" width="23.9648" x="0" y="0" />
              <path d="M18.9062 16.4453Q19.9707 16.4453 20.8936 16.0938Q21.8164 15.7422 22.5049 15.1123Q23.1934 14.4824 23.5791 13.6426Q23.9648 12.8027 23.9648 11.8457Q23.9648 10.8496 23.6084 9.9707Q23.252 9.0918 22.5732 8.41797Q21.8945 7.74414 20.9277 7.38281Q20.9473 5.78125 20.4395 4.43359Q19.9316 3.08594 18.9893 2.08984Q18.0469 1.09375 16.792 0.546875Q15.5371 0 14.0723 0Q12.7441 0 11.6895 0.43457Q10.6348 0.869141 9.83398 1.59668Q9.0332 2.32422 8.49609 3.20312Q7.61719 2.90039 6.74316 3.05664Q5.86914 3.21289 5.14648 3.74023Q4.42383 4.26758 3.98438 5.08301Q3.54492 5.89844 3.54492 6.9043Q2.4707 7.03125 1.66992 7.65137Q0.869141 8.27148 0.43457 9.23828Q0 10.2051 0 11.377Q0 12.4219 0.424805 13.3398Q0.849609 14.2578 1.61133 14.9512Q2.37305 15.6445 3.39844 16.04Q4.42383 16.4355 5.625 16.4355Z"
                     fill="rgba(255,255,255,0.55)" />
              <path d="M6.68945 9.38477Q6.68945 8.57422 7.08008 7.91016Q7.4707 7.24609 8.12988 6.86035Q8.78906 6.47461 9.58008 6.47461Q10.5078 6.47461 11.2549 6.9873Q12.002 7.5 12.3145 8.35938L16.8945 8.35938Q17.0312 8.35938 17.168 8.47656L17.9199 9.22852Q17.9785 9.29688 17.9834 9.375Q17.9883 9.45312 17.9199 9.52148L16.4746 10.9766Q16.4062 11.0547 16.3281 11.0547Q16.25 11.0547 16.1914 10.9766L15.2637 10.0391L14.0039 11.3184Q13.9551 11.3867 13.877 11.377Q13.7988 11.3672 13.7305 11.2988L12.4512 10.0488Q12.0312 11.123 11.2793 11.6992Q10.5273 12.2754 9.58008 12.2754Q8.78906 12.2754 8.12988 11.8896Q7.4707 11.5039 7.08008 10.8447Q6.68945 10.1855 6.68945 9.38477ZM8.0957 9.375Q8.0957 9.74609 8.35938 10.0049Q8.62305 10.2637 8.98438 10.2637Q9.36523 10.2637 9.62402 10.0049Q9.88281 9.74609 9.88281 9.375Q9.88281 9.00391 9.62402 8.74512Q9.36523 8.48633 8.98438 8.48633Q8.62305 8.48633 8.35938 8.74023Q8.0957 8.99414 8.0957 9.375Z"
                     fill="#ffffff" />
       </g>
</svg>