<svg width="19.5898" height="19.5996">
       <g>
              <rect height="19.5996" opacity="0" width="19.5898" x="0" y="0" />
              <path d="M9.79492 19.5898Q11.8066 19.5898 13.5791 18.8232Q15.3516 18.0566 16.7041 16.7041Q18.0566 15.3516 18.8232 13.5791Q19.5898 11.8066 19.5898 9.79492Q19.5898 7.7832 18.8232 6.01074Q18.0566 4.23828 16.7041 2.88574Q15.3516 1.5332 13.5742 0.766602Q11.7969 0 9.78516 0Q7.77344 0 6.00098 0.766602Q4.22852 1.5332 2.88086 2.88574Q1.5332 4.23828 0.766602 6.01074Q0 7.7832 0 9.79492Q0 11.8066 0.766602 13.5791Q1.5332 15.3516 2.88574 16.7041Q4.23828 18.0566 6.01074 18.8232Q7.7832 19.5898 9.79492 19.5898Z"
                     fill="rgba(255,255,255,0.55)" />
              <path d="M7.86133 14.2188Q7.55859 14.2188 7.39746 14.0283Q7.23633 13.8379 7.23633 13.5352L7.23633 5.83008Q7.23633 5.52734 7.39746 5.33203Q7.55859 5.13672 7.86133 5.13672Q8.16406 5.13672 8.32031 5.32227Q8.47656 5.50781 8.47656 5.83008L8.47656 13.1738L12.5 13.1738Q12.7344 13.1738 12.8857 13.3154Q13.0371 13.457 13.0371 13.7012Q13.0371 13.9453 12.8906 14.082Q12.7441 14.2188 12.5 14.2188Z"
                     fill="#ffffff" />
       </g>
</svg>