<svg width="19.7266" height="18.4863">
       <g>
              <rect height="18.4863" opacity="0" width="19.7266" x="0" y="0" />
              <path d="M9.86328 14.3848Q12.1777 14.3848 14.0039 13.9014Q15.8301 13.418 17.1045 12.5586Q18.3789 11.6992 19.0527 10.5762Q19.7266 9.45312 19.7266 8.16406Q19.7266 6.875 19.0527 5.75195Q18.3789 4.62891 17.0996 3.77441Q15.8203 2.91992 13.9941 2.43652Q12.168 1.95312 9.85352 1.95312Q7.54883 1.95312 5.72266 2.43652Q3.89648 2.91992 2.61719 3.77441Q1.33789 4.62891 0.668945 5.75195Q0 6.875 0 8.16406Q0 9.45312 0.668945 10.5762Q1.33789 11.6992 2.61719 12.5586Q3.89648 13.418 5.72266 13.9014Q7.54883 14.3848 9.86328 14.3848ZM9.86328 18.4863Q11.6211 18.4863 12.6025 17.7441Q13.584 17.002 13.584 15.6738L13.584 15.1465Q12.7246 15.3223 11.792 15.415Q10.8594 15.5078 9.86328 15.5078Q8.87695 15.5078 7.93945 15.415Q7.00195 15.3223 6.14258 15.1465L6.14258 15.6738Q6.14258 17.002 7.12402 17.7441Q8.10547 18.4863 9.86328 18.4863Z"
                     fill="rgba(255,255,255,0.55)" />
              <path d="M8.42773 11.2402Q8.17383 11.2402 8.01758 11.0693Q7.86133 10.8984 7.86133 10.625L7.86133 5.39062Q7.86133 5.10742 8.01758 4.94141Q8.17383 4.77539 8.42773 4.77539Q8.69141 4.77539 8.85742 4.94141Q9.02344 5.10742 9.02344 5.39062L9.02344 10.2148L11.582 10.2148Q11.8164 10.2148 11.958 10.3564Q12.0996 10.498 12.0996 10.7324Q12.0996 10.957 11.958 11.0986Q11.8164 11.2402 11.582 11.2402Z"
                     fill="#ffffff" />
       </g>
</svg>