<svg width="19.7266" height="24.1309">
       <g>
              <rect height="24.1309" opacity="0" width="19.7266" x="0" y="0" />
              <path d="M9.86328 17.207Q12.1777 17.207 14.0039 16.7236Q15.8301 16.2402 17.1045 15.3809Q18.3789 14.5215 19.0527 13.3984Q19.7266 12.2754 19.7266 10.9863Q19.7266 9.69727 19.0527 8.57422Q18.3789 7.45117 17.0996 6.59668Q15.8203 5.74219 13.9941 5.25879Q12.168 4.77539 9.85352 4.77539Q7.54883 4.77539 5.72266 5.25879Q3.89648 5.74219 2.61719 6.59668Q1.33789 7.45117 0.668945 8.57422Q0 9.69727 0 10.9863Q0 12.2754 0.668945 13.3984Q1.33789 14.5215 2.61719 15.3809Q3.89648 16.2402 5.72266 16.7236Q7.54883 17.207 9.86328 17.207ZM9.86328 21.3086Q11.6211 21.3086 12.6025 20.5664Q13.584 19.8242 13.584 18.4961L13.584 17.9688Q12.7246 18.1445 11.792 18.2373Q10.8594 18.3301 9.86328 18.3301Q8.87695 18.3301 7.93945 18.2373Q7.00195 18.1445 6.14258 17.9688L6.14258 18.4961Q6.14258 19.8242 7.12402 20.5664Q8.10547 21.3086 9.86328 21.3086Z"
                     fill="rgba(255,255,255,0.55)" />
              <path d="M8.42773 14.0625Q8.17383 14.0625 8.01758 13.8916Q7.86133 13.7207 7.86133 13.4473L7.86133 8.21289Q7.86133 7.92969 8.01758 7.76367Q8.17383 7.59766 8.42773 7.59766Q8.69141 7.59766 8.85742 7.76367Q9.02344 7.92969 9.02344 8.21289L9.02344 13.0371L11.582 13.0371Q11.8164 13.0371 11.958 13.1787Q12.0996 13.3203 12.0996 13.5547Q12.0996 13.7793 11.958 13.9209Q11.8164 14.0625 11.582 14.0625Z"
                     fill="#ffffff" />
              <path d="M7.59766 1.01562L9.44336 3.47656Q9.61914 3.7207 9.90723 3.7207Q10.1953 3.7207 10.3711 3.47656L12.2168 1.01562Q12.4707 0.683594 12.3486 0.341797Q12.2266 0 11.7969 0L8.02734 0Q7.60742 0 7.47559 0.336914Q7.34375 0.673828 7.59766 1.01562Z"
                     fill="rgba(255,255,255,0.55)" />
       </g>
</svg>