<svg width="23.252" height="17.7051">
       <g>
              <rect height="17.7051" opacity="0" width="23.252" x="0" y="0" />
              <path d="M8.05664 17.7051L15.2051 17.7051Q18.0371 17.7051 19.8145 16.8311Q21.5918 15.957 22.4219 14.209Q23.252 12.4609 23.252 9.82422L23.252 2.88086Q23.252 1.46484 22.5293 0.742188Q21.8066 0.0195312 20.3711 0.0195312L2.88086 0.0195312Q1.44531 0.0195312 0.722656 0.737305Q0 1.45508 0 2.88086L0 9.82422Q0 12.4609 0.834961 14.209Q1.66992 15.957 3.44727 16.8311Q5.22461 17.7051 8.05664 17.7051Z"
                     fill="rgba(255,255,255,0.55)" />
              <path d="M9.69727 13.3496Q9.39453 13.3496 9.2334 13.1592Q9.07227 12.9688 9.07227 12.666L9.07227 4.96094Q9.07227 4.6582 9.2334 4.46289Q9.39453 4.26758 9.69727 4.26758Q10 4.26758 10.1562 4.45312Q10.3125 4.63867 10.3125 4.96094L10.3125 12.3047L14.3359 12.3047Q14.5703 12.3047 14.7217 12.4463Q14.873 12.5879 14.873 12.832Q14.873 13.0762 14.7266 13.2129Q14.5801 13.3496 14.3359 13.3496Z"
                     fill="#ffffff" />
       </g>
</svg>