<svg width="17.6855" height="17.7051">
       <g>
              <rect height="17.7051" opacity="0" width="17.6855" x="0" y="0" />
              <path d="M2.88086 17.7051L14.8047 17.7051Q16.2305 17.7051 16.958 16.9873Q17.6855 16.2695 17.6855 14.8535L17.6855 2.88086Q17.6855 1.46484 16.958 0.742188Q16.2305 0.0195312 14.8047 0.0195312L2.88086 0.0195312Q1.44531 0.0195312 0.722656 0.737305Q0 1.45508 0 2.88086L0 14.8535Q0 16.2695 0.722656 16.9873Q1.44531 17.7051 2.88086 17.7051Z"
                     fill="rgba(255,255,255,0.55)" />
              <path d="M6.92383 13.2715Q6.62109 13.2715 6.45996 13.0811Q6.29883 12.8906 6.29883 12.5879L6.29883 4.88281Q6.29883 4.58008 6.45996 4.38477Q6.62109 4.18945 6.92383 4.18945Q7.22656 4.18945 7.38281 4.375Q7.53906 4.56055 7.53906 4.88281L7.53906 12.2266L11.5625 12.2266Q11.7969 12.2266 11.9482 12.3682Q12.0996 12.5098 12.0996 12.7539Q12.0996 12.998 11.9531 13.1348Q11.8066 13.2715 11.5625 13.2715Z"
                     fill="#ffffff" />
       </g>
</svg>