<svg width="23.252" height="17.7051">
       <g>
              <rect height="17.7051" opacity="0" width="23.252" x="0" y="0" />
              <path d="M8.05664 17.7051L15.2051 17.7051Q18.0371 17.7051 19.8145 16.8311Q21.5918 15.957 22.4219 14.209Q23.252 12.4609 23.252 9.82422L23.252 2.88086Q23.252 1.46484 22.5293 0.742188Q21.8066 0.0195312 20.3711 0.0195312L2.88086 0.0195312Q1.44531 0.0195312 0.722656 0.737305Q0 1.45508 0 2.88086L0 9.82422Q0 12.4609 0.834961 14.209Q1.66992 15.957 3.44727 16.8311Q5.22461 17.7051 8.05664 17.7051Z"
                     fill="rgba(255,255,255,0.55)" />
              <path d="M7.36328 13.3496Q7.07031 13.3496 6.90918 13.1592Q6.74805 12.9688 6.74805 12.666L6.74805 4.95117Q6.74805 4.64844 6.9043 4.45801Q7.06055 4.26758 7.36328 4.26758Q7.66602 4.26758 7.82715 4.45312Q7.98828 4.63867 7.98828 4.95117L7.98828 12.3047L12.0117 12.3047Q12.2363 12.3047 12.3877 12.4463Q12.5391 12.5879 12.5391 12.832Q12.5391 13.0664 12.3926 13.208Q12.2461 13.3496 12.0117 13.3496ZM15.8789 13.5449Q15.5957 13.5449 15.4297 13.3594Q15.2637 13.1738 15.2637 12.8516L15.2637 5.66406L15.1953 5.66406L13.6621 6.66992Q13.5449 6.74805 13.4668 6.77246Q13.3887 6.79688 13.3008 6.79688Q13.0957 6.79688 12.9639 6.65039Q12.832 6.50391 12.832 6.31836Q12.832 6.03516 13.0859 5.85938L14.9902 4.58984Q15.2539 4.4043 15.4346 4.33594Q15.6152 4.26758 15.8301 4.26758Q16.1523 4.26758 16.3281 4.45312Q16.5039 4.63867 16.5039 4.9707L16.5039 12.8516Q16.5039 13.1738 16.3379 13.3594Q16.1719 13.5449 15.8789 13.5449Z"
                     fill="#ffffff" />
       </g>
</svg>