<svg width="23.252" height="17.7051">
       <g>
              <rect height="17.7051" opacity="0" width="23.252" x="0" y="0" />
              <path d="M8.05664 0.0195312Q5.22461 0.0195312 3.44727 0.893555Q1.66992 1.76758 0.834961 3.52051Q0 5.27344 0 7.90039L0 14.8535Q0 16.2695 0.722656 16.9873Q1.44531 17.7051 2.88086 17.7051L20.3711 17.7051Q21.8066 17.7051 22.5293 16.9873Q23.252 16.2695 23.252 14.8535L23.252 7.90039Q23.252 5.27344 22.4219 3.52051Q21.5918 1.76758 19.8145 0.893555Q18.0371 0.0195312 15.2051 0.0195312Z"
                     fill="rgba(255,255,255,0.55)" />
              <path d="M6.36719 13.3594Q6.07422 13.3594 5.91309 13.1689Q5.75195 12.9785 5.75195 12.6758L5.75195 4.9707Q5.75195 4.66797 5.9082 4.47266Q6.06445 4.27734 6.36719 4.27734Q6.66992 4.27734 6.83105 4.46289Q6.99219 4.64844 6.99219 4.9707L6.99219 12.3145L10.8789 12.3145Q11.1133 12.3145 11.2646 12.4561Q11.416 12.5977 11.416 12.8418Q11.416 13.0859 11.2695 13.2227Q11.123 13.3594 10.8789 13.3594ZM12.9102 13.3594Q12.6367 13.3594 12.4854 13.2178Q12.334 13.0762 12.334 12.832Q12.334 12.6953 12.3877 12.583Q12.4414 12.4707 12.5488 12.3535L15.8203 8.84766Q16.3086 8.33008 16.6406 7.8418Q16.9727 7.35352 16.9727 6.80664Q16.9727 6.13281 16.5039 5.71289Q16.0352 5.29297 15.2539 5.29297Q14.4727 5.29297 13.9941 5.72754Q13.5156 6.16211 13.3594 6.71875Q13.2617 6.9043 13.1348 7.02637Q13.0078 7.14844 12.793 7.14844Q12.5586 7.14844 12.4121 7.00195Q12.2656 6.85547 12.2656 6.63086Q12.2656 6.54297 12.2754 6.45508Q12.2852 6.36719 12.3047 6.26953Q12.5098 5.41992 13.335 4.84863Q14.1602 4.27734 15.2051 4.27734Q16.5137 4.27734 17.3096 4.95605Q18.1055 5.63477 18.1055 6.73828Q18.1055 7.5 17.7246 8.13965Q17.3438 8.7793 16.6406 9.53125L14.0625 12.2559L14.0625 12.3145L17.9395 12.3145Q18.1641 12.3145 18.3154 12.4561Q18.4668 12.5977 18.4668 12.8418Q18.4668 13.0762 18.3154 13.2178Q18.1641 13.3594 17.9395 13.3594Z"
                     fill="#ffffff" />
       </g>
</svg>