<svg width="21.5877" height="22.5519">
       <g>
              <rect height="22.5519" opacity="0" width="21.5877" x="0" y="0" />
              <path d="M4.73221 8.15219L2.89764 6.62799Q2.68173 6.44504 2.43095 6.44138Q2.18018 6.43771 2.00104 6.64691Q1.82785 6.86877 1.88103 7.11505Q1.9342 7.36133 2.1434 7.54047L4.00665 9.08344ZM2.97607 12.8379L0.625153 12.8318Q0.34256 12.8318 0.17128 12.9945Q0 13.1572 0 13.4264Q0 13.6948 0.172806 13.856Q0.345612 14.0172 0.63797 14.0172L2.97607 14.0134ZM3.89114 18.5417L2.06802 20.0409Q1.85593 20.2231 1.80756 20.4663Q1.75919 20.7096 1.94138 20.9218Q2.11456 21.1408 2.36382 21.137Q2.61307 21.1333 2.83203 20.9473L4.62891 19.4573ZM16.8555 8.15219L17.581 9.08344L19.4443 7.54047Q19.6535 7.36133 19.7033 7.11505Q19.7531 6.86877 19.5868 6.64691Q19.4106 6.43771 19.1582 6.44138Q18.9059 6.44504 18.69 6.62799ZM18.6147 12.8379L18.6147 14.0134L20.9497 14.0172Q21.2451 14.0172 21.4164 13.856Q21.5877 13.6948 21.5877 13.4264Q21.5877 13.1572 21.4164 12.9945Q21.2451 12.8318 20.9625 12.8318ZM17.6965 18.5417L16.9521 19.4573L18.7556 20.9473Q18.9746 21.1333 19.2239 21.137Q19.4731 21.1408 19.6494 20.9218Q19.8285 20.7096 19.7816 20.4663Q19.7348 20.2231 19.516 20.0409Z"
                     fill="#000000" />
              <path d="M2.42661 13.9046Q2.42661 16.2769 3.29391 18.1252Q4.16122 19.9735 5.71732 21.1117Q7.27341 22.2499 9.35486 22.4832Q9.84085 22.5328 10.0642 22.3619Q10.2875 22.191 10.2875 21.8404L10.2875 10.6455Q10.2875 10.4363 10.4352 10.2886Q10.5829 10.1409 10.7919 10.1409Q11.0011 10.1409 11.1507 10.2886Q11.3004 10.4363 11.3004 10.6455L11.3004 21.8404Q11.3004 22.191 11.5236 22.3619Q11.7468 22.5328 12.2328 22.4832Q14.3143 22.2499 15.8704 21.1117Q17.4265 19.9735 18.2938 18.1252Q19.1611 16.2769 19.1611 13.9046Q19.1611 12.8257 18.9087 11.6661Q18.6563 10.5065 18.2034 9.50793Q17.7504 8.5094 17.1375 7.90241Q16.765 7.54764 16.4828 7.50453Q16.2006 7.46143 15.9694 7.56656Q14.7946 8.15768 13.465 8.42876Q12.1353 8.69983 10.7919 8.69983Q9.45236 8.69983 8.12424 8.42876Q6.79611 8.15768 5.61829 7.56656Q5.38727 7.46143 5.10498 7.50453Q4.82269 7.54764 4.45023 7.90241Q3.84033 8.5094 3.38593 9.50793Q2.93152 10.5065 2.67906 11.6661Q2.42661 12.8257 2.42661 13.9046Z"
                     fill="#ff453a" />
              <path d="M7.18689 12.1279Q6.67542 12.1279 6.31226 11.7564Q5.9491 11.3849 5.9491 10.8832Q5.9491 10.3717 6.31226 10.0082Q6.67542 9.64465 7.18689 9.64465Q7.69836 9.64465 8.06343 10.0082Q8.4285 10.3717 8.4285 10.8832Q8.4285 11.388 8.06343 11.7579Q7.69836 12.1279 7.18689 12.1279ZM6.09665 16.2604Q5.50018 16.2604 5.07652 15.8353Q4.65286 15.4102 4.65286 14.804Q4.65286 14.2174 5.07652 13.7937Q5.50018 13.3701 6.09665 13.3701Q6.6893 13.3701 7.11632 13.7937Q7.54333 14.2174 7.54333 14.804Q7.54333 15.4102 7.11632 15.8353Q6.6893 16.2604 6.09665 16.2604ZM7.31567 19.7377Q6.87241 19.7377 6.56296 19.4298Q6.25351 19.1219 6.25351 18.6788Q6.25351 18.2386 6.56296 17.9276Q6.87241 17.6166 7.31567 17.6166Q7.75879 17.6166 8.07014 17.9276Q8.3815 18.2386 8.3815 18.6788Q8.3815 19.1219 8.07014 19.4298Q7.75879 19.7377 7.31567 19.7377ZM14.4038 12.1279Q13.8893 12.1279 13.5242 11.7579Q13.1592 11.388 13.1592 10.8832Q13.1592 10.3717 13.5242 10.0082Q13.8893 9.64465 14.4038 9.64465Q14.9123 9.64465 15.2755 10.0082Q15.6387 10.3717 15.6387 10.8832Q15.6387 11.3849 15.2755 11.7564Q14.9123 12.1279 14.4038 12.1279ZM15.4912 16.2604Q14.8947 16.2604 14.4696 15.8353Q14.0445 15.4102 14.0445 14.804Q14.0445 14.2174 14.4696 13.7937Q14.8947 13.3701 15.4912 13.3701Q16.0875 13.3701 16.5112 13.7937Q16.9348 14.2174 16.9348 14.804Q16.9348 15.4102 16.5112 15.8353Q16.0875 16.2604 15.4912 16.2604ZM14.272 19.7377Q13.8319 19.7377 13.5191 19.4298Q13.2063 19.1219 13.2063 18.6788Q13.2063 18.2386 13.5191 17.9276Q13.8319 17.6166 14.272 17.6166Q14.7153 17.6166 15.0247 17.9276Q15.3342 18.2386 15.3342 18.6788Q15.3342 19.1219 15.0247 19.4298Q14.7153 19.7377 14.272 19.7377Z"
                     fill="#000000" />
              <path d="M5.73959 5.74847Q5.73959 6.12689 5.91118 6.40575Q6.08276 6.6846 6.5213 6.89655Q7.30392 7.26764 8.43689 7.48248Q9.56985 7.69733 10.7919 7.69733Q12.0209 7.69733 13.1523 7.48248Q14.2838 7.26764 15.0664 6.89655Q15.5049 6.6846 15.6765 6.40575Q15.8481 6.12689 15.8481 5.74847Q15.8481 4.63794 15.2096 3.75331Q14.5711 2.86868 13.4328 2.35263Q12.2946 1.83658 10.7919 1.83658Q9.29306 1.83658 8.15483 2.35263Q7.0166 2.86868 6.3781 3.75331Q5.73959 4.63794 5.73959 5.74847ZM6.38306 1.09973L7.24396 1.48303Q7.55035 1.60266 7.66975 1.786Q7.78915 1.96933 7.73666 2.23239L7.61948 2.81512L8.73413 2.80841L8.82065 2.24674Q8.90182 1.62769 8.6216 1.18465Q8.34137 0.741608 7.7095 0.487702L6.78055 0.0509953Q6.50406-0.0547482 6.30615 0.0587772Q6.10825 0.172303 6.0321 0.383713Q5.95596 0.595124 6.03462 0.802796Q6.11328 1.01047 6.38306 1.09973ZM15.2046 1.09973Q15.4744 1.01047 15.5531 0.802796Q15.6317 0.595124 15.5556 0.383713Q15.4794 0.172303 15.2815 0.0587772Q15.0836-0.0547482 14.8071 0.0509953L13.8782 0.487702Q13.2465 0.741608 12.9628 1.18465Q12.6791 1.62769 12.767 2.24674L12.8535 2.80841L13.9682 2.81512L13.851 2.23239Q13.8016 1.96933 13.921 1.786Q14.0404 1.60266 14.3437 1.48303Z"
                     fill="#000000" />
       </g>
</svg>