<svg width="26.9218" height="15.8755">
       <g>
              <rect height="15.8755" opacity="0" width="26.9218" x="0" y="0" />
              <path d="M3.07266 14.0526L4.28162 14.0526L4.28162 2.29187Q4.28162 1.74744 4.55383 1.47675Q4.82605 1.20605 5.36743 1.20605L24.0765 1.20605Q24.039 0.612488 23.6906 0.306244Q23.3421 0 22.7283 0L5.07767 0Q4.12903 0 3.60085 0.502853Q3.07266 1.00571 3.07266 1.99463ZM0.937042 15.3801L18.401 15.3801Q17.9985 14.7903 17.9488 14.0144Q17.9457 13.8878 17.9393 13.7536Q17.9329 13.6194 17.9298 13.4866L0.937042 13.4866Q0.541534 13.4866 0.270767 13.7638Q0 14.041 0 14.4334Q0 14.8288 0.270767 15.1044Q0.541534 15.3801 0.937042 15.3801Z"
                     fill="rgba(255,255,255,0.55)" />
              <path d="M20.7339 15.4648L25.1053 15.4648Q25.9833 15.4648 26.4526 15.0105Q26.9218 14.5561 26.9218 13.7051L26.9218 3.93326Q26.9218 3.08228 26.4477 2.62001Q25.9735 2.15775 25.1053 2.15775L20.7339 2.15775Q19.8621 2.15775 19.3928 2.62001Q18.9235 3.08228 18.9235 3.93326L18.9235 13.7051Q18.9235 14.5561 19.3913 15.0105Q19.859 15.4648 20.7339 15.4648ZM20.7504 14.4519Q20.3313 14.4519 20.1338 14.2477Q19.9364 14.0434 19.9364 13.6206L19.9364 4.01779Q19.9364 3.59192 20.1338 3.38127Q20.3313 3.17062 20.7504 3.17062L21.6512 3.17062Q21.7036 3.17062 21.7036 3.22632L21.7036 3.30811Q21.7036 3.5347 21.8448 3.67279Q21.9859 3.81088 22.2156 3.81088L23.6235 3.81088Q23.8562 3.81088 23.9989 3.67279Q24.1415 3.5347 24.1415 3.30811L24.1415 3.22632Q24.1415 3.17062 24.185 3.17062L25.0821 3.17062Q25.5011 3.17062 25.705 3.38127Q25.9088 3.59192 25.9088 4.01779L25.9088 13.6206Q25.9088 14.0434 25.705 14.2477Q25.5011 14.4519 25.0821 14.4519ZM21.568 13.9539L24.2607 13.9539Q24.5752 13.9539 24.5752 13.6423Q24.5752 13.5139 24.4836 13.4258Q24.3919 13.3376 24.2607 13.3376L21.568 13.3376Q21.4337 13.3376 21.3519 13.4258Q21.27 13.5139 21.27 13.6423Q21.27 13.9539 21.568 13.9539Z"
                     fill="rgba(255,255,255,0.55)" />
       </g>
</svg>