<svg width="23.252" height="17.7051">
       <g>
              <rect height="17.7051" opacity="0" width="23.252" x="0" y="0" />
              <path d="M8.05664 17.7051L15.2051 17.7051Q18.0371 17.7051 19.8145 16.8311Q21.5918 15.957 22.4219 14.209Q23.252 12.4609 23.252 9.82422L23.252 2.88086Q23.252 1.46484 22.5293 0.742188Q21.8066 0.0195312 20.3711 0.0195312L2.88086 0.0195312Q1.44531 0.0195312 0.722656 0.737305Q0 1.45508 0 2.88086L0 9.82422Q0 12.4609 0.834961 14.209Q1.66992 15.957 3.44727 16.8311Q5.22461 17.7051 8.05664 17.7051Z"
                     fill="rgba(255,255,255,0.55)" />
              <path d="M5.78125 13.3496Q5.48828 13.3496 5.32715 13.1592Q5.16602 12.9688 5.16602 12.666L5.16602 4.96094Q5.16602 4.6582 5.32715 4.46289Q5.48828 4.26758 5.78125 4.26758Q6.08398 4.26758 6.25 4.45312Q6.41602 4.63867 6.41602 4.96094L6.41602 12.3047L10.4297 12.3047Q10.6641 12.3047 10.8154 12.4463Q10.9668 12.5879 10.9668 12.832Q10.9668 13.0762 10.8154 13.2129Q10.6641 13.3496 10.4297 13.3496ZM13.1348 13.3887Q12.8125 13.3887 12.6318 13.2031Q12.4512 13.0176 12.4512 12.6855L12.4512 5.0293Q12.4512 4.33594 13.1348 4.33594L16.0449 4.33594Q17.2754 4.33594 18.0273 4.95117Q18.7793 5.56641 18.7793 6.5625Q18.7793 7.31445 18.3594 7.86133Q17.9395 8.4082 17.2461 8.58398L17.2461 8.63281Q18.1934 8.75977 18.7549 9.35547Q19.3164 9.95117 19.3164 10.8594Q19.3164 12.0215 18.4326 12.7051Q17.5488 13.3887 16.0547 13.3887ZM13.6621 8.28125L15.4785 8.28125Q16.4551 8.28125 17.0117 7.87109Q17.5684 7.46094 17.5684 6.76758Q17.5684 6.07422 17.1045 5.68359Q16.6406 5.29297 15.8105 5.29297L13.6621 5.29297ZM13.6621 12.4219L15.5469 12.4219Q16.8262 12.4219 17.4463 12.0264Q18.0664 11.6309 18.0664 10.8203Q18.0664 10.0488 17.5293 9.61426Q16.9922 9.17969 16.0254 9.17969L13.6621 9.17969Z"
                     fill="#ffffff" />
       </g>
</svg>