<svg width="20.6238" height="18.2043">
       <g>
              <rect height="18.2043" opacity="0" width="20.6238" x="0" y="0" />
              <path d="M0.268097 0.969696Q0.130005 1.75186 0.0650024 2.62321Q0 3.49457 0 4.11255Q0 6.82938 0.758209 9.03931Q1.51642 11.2492 2.92877 12.8387Q4.34113 14.4281 6.30966 15.2863Q8.2782 16.1446 10.6956 16.1446Q11.8236 16.1446 12.7654 15.9187Q13.7073 15.6929 14.4576 15.3206Q15.2078 14.9483 15.7649 14.4965Q16.322 14.0448 16.6856 13.5926Q17.0491 13.1404 17.2153 12.757L16.2308 12.8548Q16.8353 13.5098 17.235 14.1882Q17.6347 14.8666 17.9468 15.6879Q18.2588 16.5092 18.6023 17.5879Q18.7134 17.9303 18.9286 18.0673Q19.1438 18.2043 19.3916 18.2043Q19.9136 18.2043 20.2687 17.7966Q20.6238 17.3888 20.6238 16.7593Q20.6238 16.2395 20.3313 15.5889Q20.0389 14.9384 19.5879 14.2709Q19.137 13.6035 18.6568 13.0367Q18.1766 12.4699 17.8116 12.1178Q16.7676 11.1465 15.5942 10.6155Q14.4208 10.0844 13.2098 9.80576Q11.9987 9.52713 10.8372 9.32655Q9.67575 9.12598 8.65234 8.82225Q7.62894 8.51852 6.83411 7.93877Q6.03928 7.35901 5.56793 6.31439Q5.45502 6.06354 5.64613 5.92796Q5.83725 5.79239 6.06934 6.02753Q6.88797 6.84921 7.78175 7.23412Q8.67554 7.61902 9.62936 7.76886Q10.5832 7.9187 11.5807 8.00133Q12.5781 8.08395 13.6094 8.28537Q14.6407 8.48679 15.6957 8.97438Q16.7508 9.46198 17.8145 10.4416Q18.0223 10.6201 18.2381 10.5522Q18.4538 10.4843 18.4898 10.2449Q18.5258 10.0217 18.5454 9.69818Q18.5649 9.37469 18.5649 9.02832Q18.5649 6.69693 17.5668 5.17189Q16.5686 3.64685 14.8002 2.90115Q13.0318 2.15546 10.722 2.15546Q9.9649 2.15546 9.16748 2.23007Q8.37006 2.30469 7.58911 2.38411Q6.80817 2.46353 6.10062 2.46353Q5.23148 2.46353 4.36211 2.3481Q3.49274 2.23267 2.69493 1.86172Q1.89713 1.49078 1.24252 0.729828Q0.988159 0.44754 0.671539 0.50499Q0.354919 0.562439 0.268097 0.969696Z"
                     fill="#32d74b" />
       </g>
</svg>