<svg width="19.5898" height="19.5996">
       <g>
              <rect height="19.5996" opacity="0" width="19.5898" x="0" y="0" />
              <path d="M9.79492 19.5898Q11.8066 19.5898 13.5791 18.8232Q15.3516 18.0566 16.7041 16.7041Q18.0566 15.3516 18.8232 13.5791Q19.5898 11.8066 19.5898 9.79492Q19.5898 7.7832 18.8232 6.01074Q18.0566 4.23828 16.7041 2.88574Q15.3516 1.5332 13.5742 0.766602Q11.7969 0 9.78516 0Q7.77344 0 6.00098 0.766602Q4.22852 1.5332 2.88086 2.88574Q1.5332 4.23828 0.766602 6.01074Q0 7.7832 0 9.79492Q0 11.8066 0.766602 13.5791Q1.5332 15.3516 2.88574 16.7041Q4.23828 18.0566 6.01074 18.8232Q7.7832 19.5898 9.79492 19.5898ZM9.79492 18.3203Q8.02734 18.3203 6.47949 17.6611Q4.93164 17.002 3.75977 15.8301Q2.58789 14.6582 1.92871 13.1104Q1.26953 11.5625 1.26953 9.79492Q1.26953 8.02734 1.92871 6.47949Q2.58789 4.93164 3.75977 3.75488Q4.93164 2.57812 6.47461 1.91895Q8.01758 1.25977 9.78516 1.25977Q11.5625 1.25977 13.1104 1.91895Q14.6582 2.57812 15.8301 3.75488Q17.002 4.93164 17.666 6.47949Q18.3301 8.02734 18.3301 9.79492Q18.3301 11.5625 17.666 13.1104Q17.002 14.6582 15.8301 15.8301Q14.6582 17.002 13.1152 17.6611Q11.5723 18.3203 9.79492 18.3203Z"
                     fill="#32d74b" />
              <path d="M5.06836 5.98633Q5.01953 6.34766 4.98047 6.74805Q4.94141 7.14844 4.94141 7.43164Q4.94141 9.10156 5.55664 10.3564Q6.17188 11.6113 7.28027 12.3096Q8.38867 13.0078 9.88281 13.0078Q10.7422 13.0078 11.3672 12.7393Q11.9922 12.4707 12.373 12.0996Q12.7539 11.7285 12.8906 11.416L12.4414 11.4844Q12.7148 11.7773 12.9053 12.0898Q13.0957 12.4023 13.2373 12.7832Q13.3789 13.1641 13.5352 13.6719Q13.584 13.8184 13.6865 13.8818Q13.7891 13.9453 13.8965 13.9453Q14.1406 13.9453 14.3066 13.7598Q14.4727 13.5742 14.4727 13.2812Q14.4727 12.959 14.2432 12.5391Q14.0137 12.1191 13.7061 11.7334Q13.3984 11.3477 13.1641 11.1426Q12.5879 10.5957 11.9287 10.3467Q11.2695 10.0977 10.6006 9.97559Q9.93164 9.85352 9.32617 9.72656Q8.7207 9.59961 8.24707 9.31641Q7.77344 9.0332 7.50977 8.45703Q7.46094 8.33984 7.55371 8.27148Q7.64648 8.20312 7.76367 8.31055Q8.23242 8.74023 8.73535 8.91113Q9.23828 9.08203 9.76562 9.14062Q10.293 9.19922 10.8545 9.27734Q11.416 9.35547 11.9922 9.58984Q12.5684 9.82422 13.1641 10.3516Q13.2617 10.4492 13.3594 10.415Q13.457 10.3809 13.4863 10.2832Q13.4961 10.166 13.5059 10.0146Q13.5156 9.86328 13.5156 9.70703Q13.5156 8.0957 12.5049 7.31934Q11.4941 6.54297 9.89258 6.54297Q9.375 6.54297 8.81348 6.61621Q8.25195 6.68945 7.76367 6.68945Q7.14844 6.68945 6.5625 6.54297Q5.97656 6.39648 5.51758 5.87891Q5.39062 5.75195 5.24902 5.77637Q5.10742 5.80078 5.06836 5.98633Z"
                     fill="#32d74b" />
       </g>
</svg>