<svg width="19.5898" height="19.5996">
       <g>
              <rect height="19.5996" opacity="0" width="19.5898" x="0" y="0" />
              <path d="M9.79492 19.5898Q11.8066 19.5898 13.5791 18.8232Q15.3516 18.0566 16.7041 16.7041Q18.0566 15.3516 18.8232 13.5791Q19.5898 11.8066 19.5898 9.79492Q19.5898 7.7832 18.8232 6.01074Q18.0566 4.23828 16.7041 2.88574Q15.3516 1.5332 13.5742 0.766602Q11.7969 0 9.78516 0Q7.77344 0 6.00098 0.766602Q4.22852 1.5332 2.88086 2.88574Q1.5332 4.23828 0.766602 6.01074Q0 7.7832 0 9.79492Q0 11.8066 0.766602 13.5791Q1.5332 15.3516 2.88574 16.7041Q4.23828 18.0566 6.01074 18.8232Q7.7832 19.5898 9.79492 19.5898Z"
                     fill="#32d74b" />
              <path d="M4.98047 5.9082Q5.01953 5.71289 5.16602 5.68848Q5.3125 5.66406 5.43945 5.80078Q5.9082 6.31836 6.51367 6.46973Q7.11914 6.62109 7.73438 6.62109Q8.23242 6.62109 8.79883 6.54785Q9.36523 6.47461 9.90234 6.47461Q11.543 6.47461 12.5732 7.26562Q13.6035 8.05664 13.6035 9.70703Q13.6035 9.86328 13.5938 10.0195Q13.584 10.1758 13.5645 10.2832Q13.5449 10.3906 13.4424 10.4248Q13.3398 10.459 13.252 10.3613Q12.6367 9.82422 12.0459 9.58496Q11.4551 9.3457 10.8887 9.2627Q10.3223 9.17969 9.78027 9.12109Q9.23828 9.0625 8.72559 8.88672Q8.21289 8.71094 7.73438 8.28125Q7.61719 8.17383 7.52441 8.24219Q7.43164 8.31055 7.48047 8.41797Q7.74414 9.02344 8.22754 9.30664Q8.71094 9.58984 9.32617 9.72168Q9.94141 9.85352 10.625 9.97559Q11.3086 10.0977 11.9824 10.3516Q12.6562 10.6055 13.252 11.1621Q13.4766 11.377 13.7939 11.7725Q14.1113 12.168 14.3457 12.5977Q14.5801 13.0273 14.5801 13.3496Q14.5801 13.6523 14.4092 13.8428Q14.2383 14.0332 13.9941 14.0332Q13.877 14.0332 13.7744 13.9697Q13.6719 13.9062 13.623 13.75Q13.3887 12.9688 13.1592 12.4707Q12.9297 11.9727 12.5098 11.5137L12.9785 11.4551Q12.832 11.7676 12.4414 12.1436Q12.0508 12.5195 11.4111 12.793Q10.7715 13.0664 9.89258 13.0664Q8.37891 13.0664 7.24121 12.3584Q6.10352 11.6504 5.47852 10.3711Q4.85352 9.0918 4.85352 7.39258Q4.85352 7.09961 4.89258 6.68457Q4.93164 6.26953 4.98047 5.9082Z"
                     fill="#ffffff" />
       </g>
</svg>