<svg width="20.3664" height="18.2043">
       <g>
              <rect height="18.2043" opacity="0" width="20.3664" x="0" y="0" />
              <path d="M0 4.24377Q0 6.94489 0.769119 9.1378Q1.53824 11.3307 2.97554 12.8983Q4.41284 14.4658 6.42357 15.3067Q8.4343 16.1476 10.9175 16.1476Q12.6421 16.1476 14.0766 15.6241Q15.5112 15.1006 16.5593 14.1467Q17.6074 13.1929 18.1831 11.8853Q18.7589 10.5777 18.7589 9.0094Q18.7589 7.50275 18.1816 6.23756Q17.6044 4.97238 16.5578 4.04297Q15.5112 3.11356 14.0829 2.60315Q12.6547 2.09274 10.9566 2.09274Q9.77356 2.09274 8.54797 2.31735Q7.32239 2.54196 5.96634 2.54196Q4.7699 2.54196 3.77434 2.13692Q2.77878 1.73187 1.96518 0.8078Q1.71234 0.515137 1.36269 0.425873Q1.01303 0.336609 0.709229 0.503159Q0.405426 0.669708 0.289917 1.13861Q0.175781 1.60797 0.112305 2.23518Q0.0488281 2.8624 0.0244141 3.42278Q0 3.98315 0 4.24377ZM1.14456 4.24377Q1.14456 3.63144 1.17439 3.07671Q1.20422 2.52197 1.27869 2.07977Q1.32309 1.81488 1.52405 2.01523Q2.40189 2.87003 3.60992 3.27835Q4.81796 3.68668 5.96634 3.68668Q6.7482 3.68668 7.45995 3.60367Q8.17169 3.52066 8.81622 3.43277Q9.39911 3.35464 9.92577 3.29605Q10.4524 3.23746 10.9566 3.23746Q12.9033 3.23746 14.406 3.97644Q15.9087 4.71542 16.7629 6.01791Q17.6172 7.3204 17.6172 9.0094Q17.6172 10.7765 16.7644 12.1278Q15.9116 13.4792 14.404 14.2426Q12.8964 15.006 10.9175 15.006Q8.67722 15.006 6.87447 14.2516Q5.07172 13.4973 3.78922 12.0864Q2.50671 10.6755 1.82564 8.69209Q1.14456 6.70868 1.14456 4.24377ZM5.63416 6.50406Q5.91873 7.36053 6.56334 7.9451Q7.20795 8.52966 8.20351 8.94302Q9.19907 9.35638 10.5481 9.69406Q11.6855 9.96887 12.5655 10.2649Q13.4454 10.5609 14.1353 10.9299Q14.8251 11.299 15.3957 11.8031Q15.9663 12.3071 16.4946 13.0048Q16.9749 13.618 17.2696 14.3056Q17.5642 14.9931 17.8001 15.801Q18.036 16.6089 18.3418 17.5879Q18.456 17.9303 18.6711 18.0673Q18.8863 18.2043 19.1312 18.2043Q19.6562 18.2043 20.0113 17.7831Q20.3664 17.3619 20.3664 16.7593Q20.3664 16.2395 20.1128 15.5821Q19.8593 14.9248 19.4608 14.2353Q19.0622 13.5458 18.6194 12.9147Q18.1766 12.2836 17.8047 11.8266Q16.7458 10.5695 15.0665 9.80415Q13.3873 9.03885 10.9282 8.59634Q9.85199 8.38867 8.974 8.11546Q8.09601 7.84225 7.39639 7.40578Q6.69678 6.9693 6.14548 6.26419Q6.02249 6.09482 5.88158 6.09665Q5.74066 6.09848 5.65742 6.21162Q5.57419 6.32477 5.63416 6.50406Z"
                     fill="#32d74b" />
       </g>
</svg>