<svg width="19.5898" height="23.3325">
       <g>
              <rect height="23.3325" opacity="0" width="19.5898" x="0" y="0" />
              <path d="M0 11.6711Q0 13.6828 0.766602 15.4602Q1.5332 17.2375 2.88574 18.5852Q4.23828 19.9328 6.01074 20.6994Q7.7832 21.466 9.79492 21.466Q11.8066 21.466 13.5791 20.6994Q15.3516 19.9328 16.7041 18.5852Q18.0566 17.2375 18.8232 15.4602Q19.5898 13.6828 19.5898 11.6711Q19.5898 9.99144 19.043 8.468Q18.4961 6.94456 17.5146 5.68968Q16.5332 4.4348 15.2148 3.55589Q14.9707 3.38011 14.7021 3.42894Q14.4336 3.47777 14.2969 3.70238Q14.1602 3.93675 14.2236 4.18089Q14.2871 4.42503 14.5215 4.59105Q15.6641 5.343 16.5186 6.43187Q17.373 7.52074 17.8516 8.85374Q18.3301 10.1868 18.3301 11.6711Q18.3301 13.4387 17.666 14.9866Q17.002 16.5344 15.835 17.7063Q14.668 18.8782 13.1201 19.5373Q11.5723 20.1965 9.79492 20.1965Q8.02734 20.1965 6.47949 19.5373Q4.93164 18.8782 3.75977 17.7063Q2.58789 16.5344 1.92871 14.9866Q1.26953 13.4387 1.26953 11.6711Q1.26953 10.1282 1.77734 8.75609Q2.28516 7.38402 3.19336 6.27074Q4.10156 5.15745 5.33203 4.40062Q6.5625 3.64378 7.99805 3.34105L7.99805 4.94261Q7.99805 5.36253 8.25195 5.47484Q8.50586 5.58714 8.84766 5.343L11.8848 3.21409Q12.168 3.02855 12.1729 2.76488Q12.1777 2.5012 11.8848 2.30589L8.85742 0.16722Q8.50586-0.076921 8.25195 0.0353837Q7.99805 0.147688 7.99805 0.577376L7.99805 2.04222Q6.29883 2.36449 4.84863 3.23363Q3.39844 4.10277 2.30957 5.39671Q1.2207 6.69066 0.610352 8.28734Q0 9.88402 0 11.6711Z"
                     fill="rgba(255,255,255,0.55)" />
              <path d="M5.07812 8.40941Q5.0293 8.77074 4.99023 9.17113Q4.95117 9.57152 4.95117 9.85472Q4.95117 11.5246 5.56641 12.7795Q6.18164 14.0344 7.29004 14.7326Q8.39844 15.4309 9.89258 15.4309Q10.752 15.4309 11.377 15.1623Q12.002 14.8938 12.3828 14.5227Q12.7637 14.1516 12.9004 13.8391L12.4512 13.9075Q12.7246 14.2004 12.915 14.5129Q13.1055 14.8254 13.2471 15.2063Q13.3887 15.5871 13.5449 16.095Q13.5938 16.2414 13.6963 16.3049Q13.7988 16.3684 13.9062 16.3684Q14.1504 16.3684 14.3164 16.1828Q14.4824 15.9973 14.4824 15.7043Q14.4824 15.3821 14.2529 14.9621Q14.0234 14.5422 13.7158 14.1565Q13.4082 13.7707 13.1738 13.5657Q12.5977 13.0188 11.9385 12.7698Q11.2793 12.5207 10.6104 12.3987Q9.94141 12.2766 9.33594 12.1496Q8.73047 12.0227 8.25684 11.7395Q7.7832 11.4563 7.51953 10.8801Q7.4707 10.7629 7.56348 10.6946Q7.65625 10.6262 7.77344 10.7336Q8.24219 11.1633 8.74512 11.3342Q9.24805 11.5051 9.77539 11.5637Q10.3027 11.6223 10.8643 11.7004Q11.4258 11.7785 12.002 12.0129Q12.5781 12.2473 13.1738 12.7746Q13.2715 12.8723 13.3691 12.8381Q13.4668 12.8039 13.4961 12.7063Q13.5059 12.5891 13.5156 12.4377Q13.5254 12.2864 13.5254 12.1301Q13.5254 10.5188 12.5146 9.74241Q11.5039 8.96605 9.90234 8.96605Q9.38477 8.96605 8.82324 9.03929Q8.26172 9.11253 7.77344 9.11253Q7.1582 9.11253 6.57227 8.96605Q5.98633 8.81956 5.52734 8.30199Q5.40039 8.17503 5.25879 8.19945Q5.11719 8.22386 5.07812 8.40941Z"
                     fill="#32d74b" />
       </g>
</svg>