<svg width="19.5898" height="19.5996">
       <g>
              <rect height="19.5996" opacity="0" width="19.5898" x="0" y="0" />
              <path d="M9.79492 19.5898Q11.8066 19.5898 13.5791 18.8232Q15.3516 18.0566 16.7041 16.7041Q18.0566 15.3516 18.8232 13.5791Q19.5898 11.8066 19.5898 9.79492Q19.5898 7.7832 18.8232 6.01074Q18.0566 4.23828 16.7041 2.88574Q15.3516 1.5332 13.5742 0.766602Q11.7969 0 9.78516 0Q7.77344 0 6.00098 0.766602Q4.22852 1.5332 2.88086 2.88574Q1.5332 4.23828 0.766602 6.01074Q0 7.7832 0 9.79492Q0 11.8066 0.766602 13.5791Q1.5332 15.3516 2.88574 16.7041Q4.23828 18.0566 6.01074 18.8232Q7.7832 19.5898 9.79492 19.5898Z"
                     fill="rgba(255,255,255,0.55)" />
              <path d="M12.3047 13.6719Q12.1191 13.6719 11.9238 13.5742L6.11328 10.4883Q5.87891 10.3711 5.77148 10.2051Q5.66406 10.0391 5.66406 9.79492Q5.66406 9.36523 6.11328 9.10156L11.9238 5.95703Q12.0117 5.89844 12.0996 5.87402Q12.1875 5.84961 12.3145 5.84961Q12.5879 5.84961 12.7734 6.02539Q12.959 6.20117 12.959 6.46484Q12.959 6.67969 12.8467 6.83594Q12.7344 6.99219 12.4902 7.09961L7.37305 9.75586L7.37305 9.80469L12.4902 12.4121Q12.7441 12.5293 12.8516 12.6758Q12.959 12.8223 12.959 13.0469Q12.959 13.3203 12.7734 13.4961Q12.5879 13.6719 12.3047 13.6719Z"
                     fill="#ffffff" />
       </g>
</svg>