<svg width="17.6855" height="17.7051">
       <g>
              <rect height="17.7051" opacity="0" width="17.6855" x="0" y="0" />
              <path d="M2.88086 17.7051L14.8047 17.7051Q16.2305 17.7051 16.958 16.9873Q17.6855 16.2695 17.6855 14.8535L17.6855 2.88086Q17.6855 1.46484 16.958 0.742188Q16.2305 0.0195312 14.8047 0.0195312L2.88086 0.0195312Q1.44531 0.0195312 0.722656 0.737305Q0 1.45508 0 2.88086L0 14.8535Q0 16.2695 0.722656 16.9873Q1.44531 17.7051 2.88086 17.7051Z"
                     fill="rgba(255,255,255,0.55)" />
              <path d="M11.3574 12.7246Q11.1719 12.7246 10.9766 12.627L5.16602 9.54102Q4.93164 9.42383 4.82422 9.25781Q4.7168 9.0918 4.7168 8.84766Q4.7168 8.41797 5.16602 8.1543L10.9766 5.00977Q11.0645 4.95117 11.1523 4.92676Q11.2402 4.90234 11.3672 4.90234Q11.6406 4.90234 11.8262 5.07812Q12.0117 5.25391 12.0117 5.51758Q12.0117 5.73242 11.8994 5.88867Q11.7871 6.04492 11.543 6.15234L6.42578 8.80859L6.42578 8.85742L11.543 11.4648Q11.7969 11.582 11.9043 11.7285Q12.0117 11.875 12.0117 12.0996Q12.0117 12.373 11.8262 12.5488Q11.6406 12.7246 11.3574 12.7246Z"
                     fill="#ffffff" />
       </g>
</svg>