<svg width="23.4357" height="10.0931">
       <g>
              <rect height="10.0931" opacity="0" width="23.4357" x="0" y="0" />
              <path d="M4.03824 9.23645L4.82727 9.23645L4.82727 0.854187L4.03824 0.854187ZM18.6082 9.23645L19.3974 9.23645L19.3974 0.854187L18.6082 0.854187ZM11.7224 5.35843Q13.1607 5.35843 14.297 4.79889Q15.4333 4.23935 16.1311 3.22655Q16.8289 2.21375 16.9453 0.854187L16.0852 0.854187Q15.9889 1.98944 15.404 2.83226Q14.819 3.67508 13.8676 4.1375Q12.9161 4.59991 11.7224 4.59991Q10.5286 4.59991 9.57558 4.1375Q8.62259 3.67508 8.03772 2.83226Q7.45285 1.98944 7.34985 0.854187L6.48956 0.854187Q6.61285 2.21375 7.31361 3.22655Q8.01437 4.23935 9.1526 4.79889Q10.2908 5.35843 11.7224 5.35843Z"
                     fill="rgba(255,255,255,0.55)" />
              <path d="M2.51938 10.0931L20.9193 10.0931Q22.15 10.0931 22.7928 9.45023Q23.4357 8.80737 23.4357 7.58728L23.4357 2.50946Q23.4357 1.28937 22.7909 0.646515Q22.1461 0.00366211 20.9126 0.00366211L2.51266 0.00366211Q1.28571 0.00366211 0.642853 0.646515Q0 1.28937 0 2.50946L0 7.58728Q0 8.80737 0.64621 9.45023Q1.29242 10.0931 2.51938 10.0931ZM2.68112 8.88412Q1.98044 8.88412 1.5947 8.49998Q1.20895 8.11584 1.20895 7.39182L1.20895 2.70493Q1.20895 1.97433 1.5947 1.59195Q1.98044 1.20956 2.68784 1.20956L20.7478 1.20956Q21.4516 1.20956 21.8372 1.59195Q22.2229 1.97433 22.2229 2.70493L22.2229 7.39182Q22.2229 8.11584 21.8372 8.49998Q21.4516 8.88412 20.7411 8.88412ZM11.7224 3.18176Q12.7669 3.18176 13.4692 2.58018Q14.1714 1.97861 14.2555 0.982971L9.1861 0.982971Q9.27032 1.97861 9.97253 2.58018Q10.6747 3.18176 11.7224 3.18176Z"
                     fill="rgba(255,255,255,0.55)" />
       </g>
</svg>