<svg width="13.7383" height="21.2589">
       <g>
              <rect height="21.2589" opacity="0" width="13.7383" x="0" y="0" />
              <path d="M2.85477 0.00839233Q1.43494 0.00839233 0.717468 0.736008Q0 1.46362 0 2.88712L0 18.3838Q0 19.817 0.717468 20.5379Q1.43494 21.2589 2.85477 21.2589L10.8833 21.2589Q12.3032 21.2589 13.0207 20.5379Q13.7383 19.817 13.7383 18.3838L13.7383 2.88712Q13.7383 1.46362 13.0207 0.736008Q12.3032 0.00839233 10.8833 0.00839233Z"
                     fill="rgba(255,255,255,0.55)" />
              <path d="M3.14514 12.4951L10.5592 12.4951Q11.1058 12.4951 11.3585 12.746Q11.6112 12.9968 11.6112 13.5365L11.6112 18.0731Q11.6112 18.6099 11.3585 18.8607Q11.1058 19.1115 10.5592 19.1115L3.14514 19.1115Q2.60178 19.1115 2.35092 18.8607Q2.10007 18.6099 2.10007 18.0731L2.10007 13.5365Q2.10007 12.9968 2.35092 12.746Q2.60178 12.4951 3.14514 12.4951Z"
                     fill="#ffffff" />
       </g>
</svg>