<svg width="12.803" height="23.1">
       <g>
              <rect height="23.1" opacity="0" width="12.803" x="0" y="0" />
              <path d="M3.40179 19.6262L9.40796 19.6262Q9.61502 19.6262 9.76135 19.4798Q9.90768 19.3335 9.90768 19.1196Q9.90768 18.9095 9.76135 18.7646Q9.61502 18.6198 9.40796 18.6198L3.40179 18.6198Q3.18802 18.6198 3.04169 18.7646Q2.89536 18.9095 2.89536 19.1196Q2.89536 19.3335 3.04169 19.4798Q3.18802 19.6262 3.40179 19.6262ZM6.39999 22.3705Q7.5267 22.3705 8.32237 21.8744Q9.11804 21.3783 9.17725 20.5627L3.63251 20.5627Q3.67828 21.3783 4.47388 21.8744Q5.26947 22.3705 6.39999 22.3705Z"
                     fill="rgba(255,255,255,0.55)" />
              <path d="M2.81357 17.1646Q2.83005 17.4071 2.97081 17.5452Q3.11157 17.6833 3.38882 17.6833L9.41422 17.6833Q9.69147 17.6833 9.83559 17.5452Q9.97971 17.4071 9.99619 17.1646Q10.0841 15.5325 10.323 14.3104Q10.562 13.0882 10.8775 12.1595Q11.1929 11.2308 11.5186 10.4866Q11.8442 9.74243 12.1184 9.06921L0.691376 9.06921Q0.965576 9.74243 1.2912 10.4866Q1.61682 11.2308 1.92894 12.1595Q2.24106 13.0882 2.48001 14.3104Q2.71896 15.5325 2.81357 17.1646Z"
                     fill="rgba(255,255,255,0.25)" />
              <path d="M12.803 5.89447Q12.803 4.68323 12.3141 3.61519Q11.8251 2.54715 10.9482 1.73256Q10.0713 0.917969 8.90556 0.458984Q7.73987 0 6.39999 0Q5.06302 0 3.90076 0.458984Q2.73849 0.917969 1.86157 1.73256Q0.98465 2.54715 0.492325 3.61519Q0 4.68323 0 5.89447Q0 6.51138 0.087204 7.03735Q0.174408 7.56332 0.326233 8.05634L12.4835 8.05634Q12.6353 7.56332 12.7192 7.03735Q12.803 6.51138 12.803 5.89447Z"
                     fill="rgba(255,255,255,0.55)" />
       </g>
</svg>