<svg width="15.5782" height="21.7923">
       <g>
              <rect height="21.7923" opacity="0" width="15.5782" x="0" y="0" />
              <path d="M5.56274 19.0907L10.0223 19.0907Q10.2293 19.0907 10.3757 18.9444Q10.522 18.7981 10.522 18.588Q10.522 18.374 10.3757 18.231Q10.2293 18.0881 10.0223 18.0881L5.56274 18.0881Q5.34576 18.0881 5.19943 18.231Q5.0531 18.374 5.0531 18.588Q5.0531 18.7981 5.19943 18.9444Q5.34576 19.0907 5.56274 19.0907ZM7.79251 21.7166Q8.76068 21.7166 9.38202 21.2552Q10.0034 20.7938 10.1292 20.0243L5.44891 20.0243Q5.55847 20.7938 6.17981 21.2552Q6.80115 21.7166 7.79251 21.7166Z"
                     fill="rgba(255,255,255,0.55)" />
              <path d="M5.65338 17.0294L9.92477 17.0294Q10.1279 17.0294 10.2358 16.9199Q10.3438 16.8105 10.3438 16.6171L10.3438 15.6778Q10.3438 14.2241 10.7048 13.0176Q11.0658 11.8111 11.6431 10.7915Q12.2205 9.77203 12.8745 8.88222Q13.5284 7.9924 14.1208 7.18521Q14.7131 6.37802 15.1044 5.58624L0.490265 5.58624Q0.874939 6.36826 1.47217 7.18033Q2.0694 7.9924 2.71843 8.88374Q3.36746 9.77509 3.9399 10.8013Q4.51233 11.8275 4.87335 13.0307Q5.23438 14.2339 5.23438 15.6778L5.23438 16.6171Q5.23438 16.8105 5.34233 16.9199Q5.45029 17.0294 5.65338 17.0294Z"
                     fill="rgba(255,255,255,0.25)" />
              <path d="M0.126495 4.57336L15.4547 4.57336Q15.5782 4.15665 15.5782 3.74283Q15.5782 1.9519 13.5413 0.975952Q11.5045 0 7.79251 0Q4.07379 0 2.0369 0.975952Q0 1.9519 0 3.74283Q0 4.15665 0.126495 4.57336Z"
                     fill="rgba(255,255,255,0.55)" />
       </g>
</svg>