<svg width="17.6819" height="17.7075">
       <g>
              <rect height="17.7075" opacity="0" width="17.6819" x="0" y="0" />
              <path d="M2.87872 17.7075L14.8001 17.7075Q16.2334 17.7075 16.9576 16.987Q17.6819 16.2665 17.6819 14.8528L17.6819 2.8804Q17.6819 1.46667 16.9576 0.746155Q16.2334 0.0256348 14.8001 0.0256348L2.87872 0.0256348Q1.44836 0.0256348 0.724182 0.743103Q0 1.46057 0 2.8804L0 14.8528Q0 16.2726 0.724182 16.9901Q1.44836 17.7075 2.87872 17.7075Z"
                     fill="rgba(255,255,255,0.55)" />
              <path d="M6.19354 13.9793Q5.89859 13.9793 5.70831 13.7891Q5.51804 13.5988 5.51804 13.3038L5.51804 4.42032Q5.51804 4.1185 5.70831 3.92822Q5.89859 3.73795 6.19354 3.73795L11.4883 3.73795Q11.7833 3.73795 11.9736 3.92822Q12.1638 4.1185 12.1638 4.42032L12.1638 13.3038Q12.1638 13.5988 11.9736 13.7891Q11.7833 13.9793 11.4883 13.9793ZM6.82602 7.96417L10.8557 7.96417Q11.1545 7.96417 11.1545 7.64587L11.1545 5.0589Q11.1545 4.74731 10.8557 4.74731L6.82602 4.74731Q6.5274 4.74731 6.5274 5.0589L6.5274 7.64587Q6.5274 7.96417 6.82602 7.96417Z"
                     fill="#ffffff" />
       </g>
</svg>