<svg width="19.1628" height="20.8798">
       <g>
              <rect height="20.8798" opacity="0" width="19.1628" x="0" y="0" />
              <path d="M2.77557 15.6895L7.58316 15.6895Q7.83768 15.6895 7.96417 15.5564Q8.09067 15.4233 8.1102 15.2071Q8.20923 14.099 8.38402 13.2434Q8.55881 12.3878 8.76816 11.7101Q8.97751 11.0324 9.19128 10.4639L8.52493 9.05838Q8.35831 9.48502 8.17596 9.98833Q7.99362 10.4916 7.8038 11.1416Q7.61398 11.7915 7.43698 12.6417Q7.25998 13.4918 7.11746 14.6161L3.23441 14.6161Q3.04382 12.9468 2.76634 11.8124Q2.48886 10.6779 2.19742 9.90509Q1.90598 9.13223 1.64902 8.55629Q1.39206 7.98035 1.23466 7.44125Q1.07727 6.90216 1.07727 6.22223Q1.07727 5.1683 1.63589 4.32594Q2.19452 3.48358 3.1266 2.99095Q4.05869 2.49832 5.17593 2.49832Q5.74203 2.49832 6.26877 2.63641Q6.7955 2.77451 7.25098 3.02292Q7.70645 3.27133 8.06107 3.6232L8.57162 2.61368Q8.12714 2.24213 7.58698 1.97609Q7.04681 1.71005 6.43906 1.56555Q5.8313 1.42105 5.17593 1.42105Q4.09897 1.42105 3.1591 1.79588Q2.21924 2.17072 1.50764 2.83272Q0.796051 3.49472 0.398026 4.36325Q0 5.23178 0 6.22223Q0 7.09183 0.184402 7.77596Q0.368805 8.46008 0.654144 9.12628Q0.939484 9.79248 1.25267 10.6009Q1.56586 11.4093 1.8351 12.5163Q2.10434 13.6234 2.25159 15.2071Q2.27112 15.4233 2.39418 15.5564Q2.51724 15.6895 2.77557 15.6895ZM2.78564 17.3726L7.58209 17.3726Q7.7832 17.3726 7.92801 17.233Q8.07281 17.0934 8.07281 16.8861Q8.07281 16.6754 7.92801 16.5358Q7.7832 16.3962 7.58209 16.3962L2.78564 16.3962Q2.58453 16.3962 2.44644 16.5392Q2.30835 16.6821 2.30835 16.8861Q2.30835 17.0866 2.44644 17.2296Q2.58453 17.3726 2.78564 17.3726ZM5.1857 19.6867Q6.13129 19.6867 6.80214 19.2392Q7.47299 18.7917 7.49252 18.0791L2.88864 18.0791Q2.90817 18.7917 3.57079 19.2392Q4.2334 19.6867 5.1857 19.6867Z"
                     fill="rgba(255,255,255,0.55)" />
              <path d="M13.1778 0Q11.9281 0 10.8448 0.43335Q9.76151 0.866699 8.94249 1.62491Q8.12347 2.38312 7.66342 3.38348Q7.20337 4.38385 7.20337 5.52444Q7.20337 6.52832 7.41859 7.31499Q7.63382 8.10165 7.96654 8.87535Q8.29926 9.64905 8.66463 10.5923Q9.03 11.5355 9.34502 12.8345Q9.66003 14.1335 9.82986 15.9906Q9.84634 16.2263 9.97581 16.358Q10.1053 16.4897 10.3696 16.4897L15.9927 16.4897Q16.2505 16.4897 16.3799 16.358Q16.5094 16.2263 16.5356 15.9906Q16.7024 14.1335 17.0174 12.8345Q17.3325 11.5355 17.6978 10.5923Q18.0632 9.64905 18.3944 8.87535Q18.7256 8.10165 18.9442 7.31499Q19.1628 6.52832 19.1628 5.52444Q19.1628 4.38385 18.6993 3.38348Q18.2359 2.38312 17.4218 1.62491Q16.6077 0.866699 15.521 0.43335Q14.4344 0 13.1778 0ZM13.1778 1.11771Q14.1719 1.11771 15.0506 1.45325Q15.9293 1.78879 16.6051 2.38579Q17.281 2.98279 17.6661 3.78525Q18.0511 4.58771 18.0511 5.52444Q18.0511 6.30875 17.8625 6.94702Q17.674 7.5853 17.3715 8.27019Q17.0691 8.95508 16.7239 9.86763Q16.3788 10.7802 16.054 12.1066Q15.7292 13.4331 15.5055 15.372L10.8568 15.372Q10.6332 13.4331 10.3099 12.1066Q9.98657 10.7802 9.64142 9.86763Q9.29626 8.95508 8.99879 8.27019Q8.70132 7.5853 8.5112 6.94702Q8.32108 6.30875 8.32108 5.52444Q8.32108 4.58771 8.70613 3.78525Q9.09119 2.98279 9.76364 2.38579Q10.4361 1.78879 11.3148 1.45325Q12.1936 1.11771 13.1778 1.11771ZM10.3955 18.3124L15.9827 18.3124Q16.1929 18.3124 16.3377 18.1743Q16.4825 18.0362 16.4825 17.8194Q16.4825 17.6122 16.3377 17.4692Q16.1929 17.3262 15.9827 17.3262L10.3955 17.3262Q10.1787 17.3262 10.0391 17.4692Q9.89944 17.6122 9.89944 17.8194Q9.89944 18.0362 10.0391 18.1743Q10.1787 18.3124 10.3955 18.3124ZM13.1876 20.8762Q14.2436 20.8762 14.9941 20.3978Q15.7446 19.9194 15.7971 19.1489L10.5811 19.1489Q10.6268 19.9194 11.3773 20.3978Q12.1278 20.8762 13.1876 20.8762Z"
                     fill="rgba(255,255,255,0.55)" />
       </g>
</svg>