<svg width="13.7383" height="21.2589">
       <g>
              <rect height="21.2589" opacity="0" width="13.7383" x="0" y="0" />
              <path d="M2.85477 21.2589L10.8833 21.2589Q12.3032 21.2589 13.0207 20.5346Q13.7383 19.8103 13.7383 18.3838L13.7383 2.88712Q13.7383 1.45691 13.0207 0.732651Q12.3032 0.00839233 10.8833 0.00839233L2.85477 0.00839233Q1.43494 0.00839233 0.717468 0.732651Q0 1.45691 0 2.88712L0 18.3838Q0 19.8103 0.717468 20.5346Q1.43494 21.2589 2.85477 21.2589Z"
                     fill="rgba(255,255,255,0.55)" />
              <path d="M3.14514 8.77579Q2.60178 8.77579 2.35092 8.52493Q2.10007 8.27408 2.10007 7.73438L2.10007 3.19778Q2.10007 2.66113 2.35092 2.41028Q2.60178 2.15942 3.14514 2.15942L10.5592 2.15942Q11.1058 2.15942 11.3585 2.41028Q11.6112 2.66113 11.6112 3.19778L11.6112 7.73438Q11.6112 8.27408 11.3585 8.52493Q11.1058 8.77579 10.5592 8.77579Z"
                     fill="#ffffff" />
       </g>
</svg>