<svg width="12.803" height="23.1">
       <g>
              <rect height="23.1" opacity="0" width="12.803" x="0" y="0" />
              <path d="M3.40179 19.6262L9.40796 19.6262Q9.61502 19.6262 9.76135 19.4798Q9.90768 19.3335 9.90768 19.1196Q9.90768 18.9095 9.76135 18.7646Q9.61502 18.6198 9.40796 18.6198L3.40179 18.6198Q3.18802 18.6198 3.04169 18.7646Q2.89536 18.9095 2.89536 19.1196Q2.89536 19.3335 3.04169 19.4798Q3.18802 19.6262 3.40179 19.6262ZM6.39999 22.3705Q7.5267 22.3705 8.32237 21.8744Q9.11804 21.3783 9.17725 20.5627L3.63251 20.5627Q3.67828 21.3783 4.47388 21.8744Q5.26947 22.3705 6.39999 22.3705Z"
                     fill="rgba(255,255,255,0.55)" />
              <path d="M0 5.89447Q0 6.97586 0.247879 7.81738Q0.495758 8.65891 0.872421 9.49051Q1.24908 10.3221 1.65016 11.3409Q2.05124 12.3598 2.37228 13.7599Q2.69333 15.1601 2.81357 17.1646Q2.83005 17.4071 2.97081 17.5452Q3.11157 17.6833 3.38882 17.6833L9.41422 17.6833Q9.69147 17.6833 9.83559 17.5452Q9.97971 17.4071 9.99619 17.1646Q10.1164 15.1601 10.4375 13.7599Q10.7587 12.3598 11.1597 11.3409Q11.5607 10.3221 11.9373 9.49051Q12.314 8.65891 12.5585 7.81738Q12.803 6.97586 12.803 5.89447Q12.803 4.68323 12.3141 3.61519Q11.8251 2.54715 10.9482 1.73256Q10.0713 0.917969 8.90556 0.458984Q7.73987 0 6.39999 0Q5.06302 0 3.90076 0.458984Q2.73849 0.917969 1.86157 1.73256Q0.98465 2.54715 0.492325 3.61519Q0 4.68323 0 5.89447Z"
                     fill="rgba(255,255,255,0.55)" />
       </g>
</svg>