<svg width="19.5898" height="19.5996">
       <g>
              <rect height="19.5996" opacity="0" width="19.5898" x="0" y="0" />
              <path d="M9.79492 19.5898Q11.8066 19.5898 13.5791 18.8232Q15.3516 18.0566 16.7041 16.7041Q18.0566 15.3516 18.8232 13.5791Q19.5898 11.8066 19.5898 9.79492Q19.5898 7.7832 18.8232 6.01074Q18.0566 4.23828 16.7041 2.88574Q15.3516 1.5332 13.5742 0.766602Q11.7969 0 9.78516 0Q7.77344 0 6.00098 0.766602Q4.22852 1.5332 2.88086 2.88574Q1.5332 4.23828 0.766602 6.01074Q0 7.7832 0 9.79492Q0 11.8066 0.766602 13.5791Q1.5332 15.3516 2.88574 16.7041Q4.23828 18.0566 6.01074 18.8232Q7.7832 19.5898 9.79492 19.5898Z"
                     fill="rgba(255,255,255,0.55)" />
              <path d="M6.31836 6.89453Q6.31836 6.01562 6.78223 5.29297Q7.24609 4.57031 8.03223 4.14551Q8.81836 3.7207 9.78516 3.7207Q10.7617 3.7207 11.5479 4.15527Q12.334 4.58984 12.8027 5.31738Q13.2715 6.04492 13.2715 6.92383Q13.2715 7.65625 13.0664 8.19824Q12.8613 8.74023 12.5781 9.33105Q12.2949 9.92188 12.0508 10.7666Q11.8066 11.6113 11.7383 12.9492Q11.7285 13.0957 11.6406 13.1738Q11.5527 13.252 11.416 13.252L8.1543 13.252Q8.02734 13.252 7.94434 13.1738Q7.86133 13.0957 7.85156 12.9492Q7.77344 11.6113 7.5293 10.7568Q7.28516 9.90234 7.00684 9.30664Q6.72852 8.71094 6.52344 8.16895Q6.31836 7.62695 6.31836 6.89453ZM8.22266 14.4922Q8.07617 14.4922 7.96875 14.3896Q7.86133 14.2871 7.86133 14.1406Q7.86133 13.9941 7.96875 13.8867Q8.07617 13.7793 8.22266 13.7793L11.3672 13.7793Q11.5137 13.7793 11.6162 13.8867Q11.7188 13.9941 11.7188 14.1406Q11.7188 14.2871 11.6162 14.3896Q11.5137 14.4922 11.3672 14.4922ZM9.79492 15.8594Q9.24805 15.8594 8.86719 15.6299Q8.48633 15.4004 8.44727 15.0195L11.1328 15.0195Q11.0938 15.4004 10.708 15.6299Q10.3223 15.8594 9.79492 15.8594Z"
                     fill="#ffffff" />
       </g>
</svg>