<svg width="19.5898" height="19.5996">
       <g>
              <rect height="19.5996" opacity="0" width="19.5898" x="0" y="0" />
              <path d="M9.79492 19.5898Q11.8066 19.5898 13.5791 18.8232Q15.3516 18.0566 16.7041 16.7041Q18.0566 15.3516 18.8232 13.5791Q19.5898 11.8066 19.5898 9.79492Q19.5898 7.7832 18.8232 6.01074Q18.0566 4.23828 16.7041 2.88574Q15.3516 1.5332 13.5742 0.766602Q11.7969 0 9.78516 0Q7.77344 0 6.00098 0.766602Q4.22852 1.5332 2.88086 2.88574Q1.5332 4.23828 0.766602 6.01074Q0 7.7832 0 9.79492Q0 11.8066 0.766602 13.5791Q1.5332 15.3516 2.88574 16.7041Q4.23828 18.0566 6.01074 18.8232Q7.7832 19.5898 9.79492 19.5898Z"
                     fill="rgba(255,255,255,0.55)" />
              <path d="M4.56055 7.04102Q4.29688 7.04102 4.13086 6.88965Q3.96484 6.73828 3.96484 6.48438Q3.96484 6.24023 4.13086 6.08398Q4.29688 5.92773 4.56055 5.92773L15.0586 5.92773Q15.3223 5.92773 15.4883 6.08398Q15.6543 6.24023 15.6543 6.48438Q15.6543 6.73828 15.4883 6.88965Q15.3223 7.04102 15.0586 7.04102ZM4.56055 10.332Q4.29688 10.332 4.13086 10.1807Q3.96484 10.0293 3.96484 9.77539Q3.96484 9.52148 4.13086 9.36523Q4.29688 9.20898 4.56055 9.20898L15.0586 9.20898Q15.3223 9.20898 15.4883 9.36523Q15.6543 9.52148 15.6543 9.77539Q15.6543 10.0293 15.4883 10.1807Q15.3223 10.332 15.0586 10.332ZM4.56055 13.6328Q4.29688 13.6328 4.13086 13.4814Q3.96484 13.3301 3.96484 13.0859Q3.96484 12.832 4.13086 12.6807Q4.29688 12.5293 4.56055 12.5293L15.0586 12.5293Q15.3223 12.5293 15.4883 12.6807Q15.6543 12.832 15.6543 13.0859Q15.6543 13.3301 15.4883 13.4814Q15.3223 13.6328 15.0586 13.6328Z"
                     fill="#ffffff" />
       </g>
</svg>