<svg width="19.5898" height="19.5996">
       <g>
              <rect height="19.5996" opacity="0" width="19.5898" x="0" y="0" />
              <path d="M9.79492 19.5898Q11.8066 19.5898 13.5791 18.8232Q15.3516 18.0566 16.7041 16.7041Q18.0566 15.3516 18.8232 13.5791Q19.5898 11.8066 19.5898 9.79492Q19.5898 7.7832 18.8232 6.01074Q18.0566 4.23828 16.7041 2.88574Q15.3516 1.5332 13.5742 0.766602Q11.7969 0 9.78516 0Q7.77344 0 6.00098 0.766602Q4.22852 1.5332 2.88086 2.88574Q1.5332 4.23828 0.766602 6.01074Q0 7.7832 0 9.79492Q0 11.8066 0.766602 13.5791Q1.5332 15.3516 2.88574 16.7041Q4.23828 18.0566 6.01074 18.8232Q7.7832 19.5898 9.79492 19.5898Z"
                     fill="rgba(255,255,255,0.55)" />
              <path d="M4.28711 9.0918Q4.0332 9.0918 3.8623 8.94043Q3.69141 8.78906 3.69141 8.54492Q3.69141 8.29102 3.8623 8.13477Q4.0332 7.97852 4.28711 7.97852L15.332 7.97852Q15.5859 7.97852 15.7568 8.13477Q15.9277 8.29102 15.9277 8.54492Q15.9277 8.78906 15.7568 8.94043Q15.5859 9.0918 15.332 9.0918ZM5.75195 12.3926Q5.48828 12.3926 5.32227 12.2363Q5.15625 12.0801 5.15625 11.8359Q5.15625 11.582 5.32227 11.4307Q5.48828 11.2793 5.75195 11.2793L13.8672 11.2793Q14.1309 11.2793 14.2969 11.4307Q14.4629 11.582 14.4629 11.8359Q14.4629 12.0801 14.2969 12.2363Q14.1309 12.3926 13.8672 12.3926Z"
                     fill="#ffffff" />
       </g>
</svg>