<svg width="21.4729" height="17.0389">
       <g>
              <rect height="17.0389" opacity="0" width="21.4729" x="0" y="0" />
              <path d="M0.860596 13.2036Q1.71127 13.2036 1.71127 12.3499L1.71127 4.68903Q1.71127 3.8353 0.860596 3.8353Q0 3.8353 0 4.68903L0 12.3499Q0 13.2036 0.860596 13.2036Z"
                     fill="rgba(255,255,255,0.55)" />
              <path d="M5.80078 10.77Q6.64856 10.77 6.64856 9.91547L6.64856 7.12341Q6.64856 6.26892 5.80078 6.26892Q4.9469 6.26892 4.9469 7.12341L4.9469 9.91547Q4.9469 10.77 5.80078 10.77Z"
                     fill="rgba(255,255,255,0.55)" />
              <path d="M10.7381 17.0389Q11.5955 17.0389 11.5955 16.188L11.5955 0.85083Q11.5955 0 10.7381 0Q9.87747 0 9.87747 0.85083L9.87747 16.188Q9.87747 17.0389 10.7381 17.0389Z"
                     fill="rgba(255,255,255,0.55)" />
              <path d="M15.6752 10.77Q16.526 10.77 16.526 9.91547L16.526 7.12341Q16.526 6.26892 15.6752 6.26892Q14.8244 6.26892 14.8244 7.12341L14.8244 9.91547Q14.8244 10.77 15.6752 10.77Z"
                     fill="rgba(255,255,255,0.55)" />
              <path d="M20.6154 13.2036Q21.4729 13.2036 21.4729 12.3499L21.4729 4.68903Q21.4729 3.8353 20.6154 3.8353Q19.7617 3.8353 19.7617 4.68903L19.7617 12.3499Q19.7617 13.2036 20.6154 13.2036Z"
                     fill="rgba(255,255,255,0.165)" />
       </g>
</svg>