<svg width="19.5898" height="19.5996">
       <g>
              <rect height="19.5996" opacity="0" width="19.5898" x="0" y="0" />
              <path d="M9.79492 19.5898Q11.8066 19.5898 13.5791 18.8232Q15.3516 18.0566 16.7041 16.7041Q18.0566 15.3516 18.8232 13.5791Q19.5898 11.8066 19.5898 9.79492Q19.5898 7.7832 18.8232 6.01074Q18.0566 4.23828 16.7041 2.88574Q15.3516 1.5332 13.5742 0.766602Q11.7969 0 9.78516 0Q7.77344 0 6.00098 0.766602Q4.22852 1.5332 2.88086 2.88574Q1.5332 4.23828 0.766602 6.01074Q0 7.7832 0 9.79492Q0 11.8066 0.766602 13.5791Q1.5332 15.3516 2.88574 16.7041Q4.23828 18.0566 6.01074 18.8232Q7.7832 19.5898 9.79492 19.5898Z"
                     fill="rgba(255,255,255,0.55)" />
              <path d="M4.28711 7.59766Q4.0332 7.59766 3.8623 7.44629Q3.69141 7.29492 3.69141 7.05078Q3.69141 6.80664 3.8623 6.65039Q4.0332 6.49414 4.28711 6.49414L15.332 6.49414Q15.5859 6.49414 15.7568 6.65039Q15.9277 6.80664 15.9277 7.05078Q15.9277 7.29492 15.7568 7.44629Q15.5859 7.59766 15.332 7.59766ZM5.75195 10.8984Q5.48828 10.8984 5.32227 10.7471Q5.15625 10.5957 5.15625 10.3418Q5.15625 10.0879 5.32227 9.93164Q5.48828 9.77539 5.75195 9.77539L13.8672 9.77539Q14.1309 9.77539 14.2969 9.93164Q14.4629 10.0879 14.4629 10.3418Q14.4629 10.5957 14.2969 10.7471Q14.1309 10.8984 13.8672 10.8984ZM7.28516 14.1992Q7.02148 14.1992 6.85547 14.0479Q6.68945 13.8965 6.68945 13.6426Q6.68945 13.3984 6.85547 13.2471Q7.02148 13.0957 7.28516 13.0957L12.3438 13.0957Q12.5977 13.0957 12.7637 13.2471Q12.9297 13.3984 12.9297 13.6426Q12.9297 13.8965 12.7637 14.0479Q12.5977 14.1992 12.3438 14.1992Z"
                     fill="#ffffff" />
       </g>
</svg>