<svg width="19.5898" height="19.5996">
       <g>
              <rect height="19.5996" opacity="0" width="19.5898" x="0" y="0" />
              <path d="M9.79492 19.5996Q11.8066 19.5996 13.5791 18.833Q15.3516 18.0664 16.7041 16.7139Q18.0566 15.3613 18.8232 13.5889Q19.5898 11.8164 19.5898 9.80469Q19.5898 7.79297 18.8232 6.02051Q18.0566 4.24805 16.7041 2.89551Q15.3516 1.54297 13.5742 0.776367Q11.7969 0.00976562 9.78516 0.00976562Q7.77344 0.00976562 6.00098 0.776367Q4.22852 1.54297 2.88086 2.89551Q1.5332 4.24805 0.766602 6.02051Q0 7.79297 0 9.80469Q0 11.8164 0.766602 13.5889Q1.5332 15.3613 2.88574 16.7139Q4.23828 18.0664 6.01074 18.833Q7.7832 19.5996 9.79492 19.5996Z"
                     fill="#0a84ff" />
              <path d="M4.95117 14.4434Q4.05273 13.5547 4.11621 12.4854Q4.17969 11.416 5.18555 10.4102L7.13867 8.4668Q7.01172 8.80859 7.00684 9.14551Q7.00195 9.48242 7.08984 9.73633L5.81055 11.0059Q5.07812 11.7188 5.01953 12.4707Q4.96094 13.2227 5.57617 13.8184Q6.17188 14.4141 6.91406 14.3506Q7.65625 14.2871 8.37891 13.5742L10.0586 11.8848Q10.8008 11.1621 10.8691 10.4102Q10.9375 9.6582 10.332 9.0625Q10.0879 8.81836 9.79492 8.69141Q9.50195 8.56445 9.14062 8.53516Q9.22852 8.31055 9.41895 8.0957Q9.60938 7.88086 9.78516 7.75391Q10.0488 7.79297 10.3467 7.96875Q10.6445 8.14453 10.9473 8.44727Q11.8555 9.33594 11.7822 10.4053Q11.709 11.4746 10.6836 12.5L8.98438 14.1895Q7.96875 15.2051 6.90918 15.2686Q5.84961 15.332 4.95117 14.4434ZM14.2578 5.11719Q15.166 6.01562 15.0977 7.08008Q15.0293 8.14453 14.0234 9.16016L12.0703 11.0938Q12.1973 10.752 12.2021 10.415Q12.207 10.0781 12.1191 9.83398L13.3984 8.54492Q14.1406 7.8418 14.1943 7.09473Q14.248 6.34766 13.6328 5.75195Q13.0371 5.15625 12.2949 5.21484Q11.5527 5.27344 10.8301 5.99609L9.16016 7.68555Q8.4082 8.39844 8.34473 9.15527Q8.28125 9.91211 8.87695 10.5078Q9.12109 10.7422 9.41406 10.8691Q9.70703 10.9961 10.0684 11.0254Q9.98047 11.2598 9.79004 11.4746Q9.59961 11.6895 9.42383 11.8066Q9.16016 11.7676 8.8623 11.5967Q8.56445 11.4258 8.27148 11.1133Q7.36328 10.2246 7.43164 9.15039Q7.5 8.07617 8.53516 7.06055L10.2344 5.37109Q11.2402 4.35547 12.2998 4.29199Q13.3594 4.22852 14.2578 5.11719Z"
                     fill="#ffffff" />
       </g>
</svg>