<svg width="20.2238" height="20.4325">
       <g>
              <rect height="20.4325" opacity="0" width="20.2238" x="0" y="0" />
              <path d="M9.68563 6.20367L8.65933 7.23745Q9.76238 7.24294 10.523 7.54125Q11.2835 7.83956 11.8467 8.40291Q12.7237 9.28945 13.0144 10.3606Q13.3052 11.4318 13.0117 12.5026Q12.7183 13.5734 11.8324 14.4564L8.64498 17.6339Q7.75906 18.5167 6.68827 18.8151Q5.61749 19.1134 4.54785 18.8275Q3.4782 18.5416 2.60143 17.6679Q1.72146 16.7812 1.43223 15.71Q1.143 14.6389 1.43978 13.5681Q1.73657 12.4973 2.62249 11.6114L4.91207 9.325Q4.75842 8.99007 4.71981 8.57664Q4.68121 8.1632 4.76849 7.76632L1.69155 10.8365Q0.574762 11.96 0.192911 13.3216Q-0.188941 14.6831 0.185052 16.0525Q0.559045 17.4219 1.69827 18.5581Q2.8442 19.7042 4.21368 20.0782Q5.58315 20.4522 6.94462 20.0718Q8.30609 19.6914 9.41982 18.5747L12.7566 15.2341Q13.8801 14.1108 14.2604 12.7477Q14.6408 11.3846 14.2683 10.0167Q13.8958 8.64873 12.7499 7.51256Q12.2062 6.95898 11.4859 6.62649Q10.7655 6.294 9.68563 6.20367ZM10.5404 14.0598L11.5667 13.026Q10.4608 13.0205 9.70165 12.7222Q8.94253 12.4239 8.37933 11.8606Q7.49264 10.974 7.20341 9.90285Q6.91418 8.83169 7.21096 7.7609Q7.50775 6.69012 8.39382 5.80724L11.5744 2.6296Q12.467 1.74673 13.5378 1.44842Q14.6086 1.15011 15.6749 1.43598Q16.7411 1.72185 17.6248 2.60549Q18.5046 3.48226 18.7938 4.55343Q19.0831 5.62459 18.7863 6.69538Q18.4895 7.76617 17.6036 8.65209L15.3141 10.9385Q15.4676 11.2801 15.5062 11.6903Q15.5449 12.1004 15.4576 12.4972L18.5345 9.42693Q19.6513 8.30343 20.0316 6.94196Q20.412 5.5805 20.0396 4.21102Q19.6672 2.84154 18.5278 1.70537Q17.3819 0.559286 16.0124 0.18537Q14.6429-0.188547 13.2814 0.191778Q11.92 0.572104 10.7995 1.69561L7.46945 5.02935Q6.34594 6.15285 5.96562 7.51584Q5.58529 8.87884 5.95776 10.2468Q6.33022 11.6147 7.47616 12.754Q8.01998 13.3045 8.74035 13.637Q9.46072 13.9695 10.5404 14.0598Z"
                     fill="#0a84ff" />
       </g>
</svg>