<svg width="19.5898" height="19.5996">
       <g>
              <rect height="19.5996" opacity="0" width="19.5898" x="0" y="0" />
              <path d="M9.79492 19.5898Q11.8066 19.5898 13.5791 18.8232Q15.3516 18.0566 16.7041 16.7041Q18.0566 15.3516 18.8232 13.5791Q19.5898 11.8066 19.5898 9.79492Q19.5898 7.7832 18.8232 6.01074Q18.0566 4.23828 16.7041 2.88574Q15.3516 1.5332 13.5742 0.766602Q11.7969 0 9.78516 0Q7.77344 0 6.00098 0.766602Q4.22852 1.5332 2.88086 2.88574Q1.5332 4.23828 0.766602 6.01074Q0 7.7832 0 9.79492Q0 11.8066 0.766602 13.5791Q1.5332 15.3516 2.88574 16.7041Q4.23828 18.0566 6.01074 18.8232Q7.7832 19.5898 9.79492 19.5898ZM9.79492 18.3203Q8.02734 18.3203 6.47949 17.6611Q4.93164 17.002 3.75977 15.8301Q2.58789 14.6582 1.92871 13.1104Q1.26953 11.5625 1.26953 9.79492Q1.26953 8.02734 1.92871 6.47949Q2.58789 4.93164 3.75977 3.75488Q4.93164 2.57812 6.47461 1.91895Q8.01758 1.25977 9.78516 1.25977Q11.5625 1.25977 13.1104 1.91895Q14.6582 2.57812 15.8301 3.75488Q17.002 4.93164 17.666 6.47949Q18.3301 8.02734 18.3301 9.79492Q18.3301 11.5625 17.666 13.1104Q17.002 14.6582 15.8301 15.8301Q14.6582 17.002 13.1152 17.6611Q11.5723 18.3203 9.79492 18.3203Z"
                     fill="#0a84ff" />
              <path d="M5.03906 14.3262Q5.91797 15.1953 6.95801 15.1318Q7.99805 15.0684 8.98438 14.082L10.6543 12.4219Q11.6504 11.416 11.7236 10.3662Q11.7969 9.31641 10.9082 8.44727Q10.6152 8.1543 10.3223 7.9834Q10.0293 7.8125 9.76562 7.77344Q9.58984 7.90039 9.40918 8.10547Q9.22852 8.31055 9.14062 8.53516Q9.50195 8.56445 9.79004 8.68652Q10.0781 8.80859 10.3125 9.05273Q10.8984 9.63867 10.835 10.376Q10.7715 11.1133 10.0488 11.8164L8.38867 13.4766Q7.68555 14.1797 6.95801 14.2383Q6.23047 14.2969 5.64453 13.7207Q5.05859 13.1348 5.1123 12.4023Q5.16602 11.6699 5.86914 10.9668L7.12891 9.70703Q7.06055 9.46289 7.06543 9.13574Q7.07031 8.80859 7.1875 8.47656L5.27344 10.3809Q4.28711 11.3672 4.22363 12.4121Q4.16016 13.457 5.03906 14.3262ZM14.1602 5.19531Q13.2812 4.32617 12.2412 4.39453Q11.2012 4.46289 10.2148 5.43945L8.54492 7.10938Q7.53906 8.10547 7.4707 9.15039Q7.40234 10.1953 8.28125 11.0742Q8.58398 11.3672 8.87695 11.5381Q9.16992 11.709 9.42383 11.748Q9.59961 11.6211 9.78516 11.416Q9.9707 11.2109 10.0488 10.9863Q9.69727 10.957 9.40918 10.835Q9.12109 10.7129 8.88672 10.4688Q8.29102 9.89258 8.35938 9.15527Q8.42773 8.41797 9.15039 7.70508L10.8105 6.04492Q11.5039 5.3418 12.2314 5.2832Q12.959 5.22461 13.5547 5.81055Q14.1504 6.39648 14.0967 7.12891Q14.043 7.86133 13.3203 8.54492L12.0605 9.81445Q12.1484 10.0586 12.1387 10.3857Q12.1289 10.7129 12.002 11.0449L13.916 9.14062Q14.9121 8.1543 14.9756 7.11426Q15.0391 6.07422 14.1602 5.19531Z"
                     fill="#0a84ff" />
       </g>
</svg>