<svg width="23.9648" height="17.8223">
       <g>
              <rect height="17.8223" opacity="0" width="23.9648" x="0" y="0" />
              <path d="M18.9062 16.4453Q19.9707 16.4453 20.8936 16.0938Q21.8164 15.7422 22.5049 15.1123Q23.1934 14.4824 23.5791 13.6426Q23.9648 12.8027 23.9648 11.8457Q23.9648 10.8496 23.6084 9.9707Q23.252 9.0918 22.5732 8.41797Q21.8945 7.74414 20.9277 7.38281Q20.9473 5.78125 20.4395 4.43359Q19.9316 3.08594 18.9893 2.08984Q18.0469 1.09375 16.792 0.546875Q15.5371 0 14.0723 0Q12.7441 0 11.6895 0.43457Q10.6348 0.869141 9.83398 1.59668Q9.0332 2.32422 8.49609 3.20312Q7.61719 2.90039 6.74316 3.05664Q5.86914 3.21289 5.14648 3.74023Q4.42383 4.26758 3.98438 5.08301Q3.54492 5.89844 3.54492 6.9043Q2.4707 7.03125 1.66992 7.65137Q0.869141 8.27148 0.43457 9.23828Q0 10.2051 0 11.377Q0 12.4219 0.424805 13.3398Q0.849609 14.2578 1.61133 14.9512Q2.37305 15.6445 3.39844 16.04Q4.42383 16.4355 5.625 16.4355Z"
                     fill="rgba(255,255,255,0.55)" />
              <path d="M8.17383 12.6367Q7.40234 11.8652 7.40234 10.8691Q7.40234 9.87305 8.17383 9.10156L9.86328 7.42188Q9.69727 7.7832 9.66797 8.12012Q9.63867 8.45703 9.70703 8.75L8.79883 9.64844Q8.27148 10.1758 8.2666 10.8398Q8.26172 11.5039 8.78906 12.0312Q9.31641 12.5488 9.98535 12.5488Q10.6543 12.5488 11.1816 12.0215L13.0469 10.1465Q13.584 9.60938 13.5889 8.93555Q13.5938 8.26172 13.0664 7.76367Q12.7441 7.46094 12.3975 7.33887Q12.0508 7.2168 11.7676 7.28516Q11.8945 7.14844 11.9727 7.06055Q12.0508 6.97266 12.0996 6.9043L12.5 6.51367Q12.7246 6.55273 13.0469 6.69922Q13.3691 6.8457 13.6816 7.14844Q14.1992 7.65625 14.3701 8.28613Q14.541 8.91602 14.3652 9.5459Q14.1895 10.1758 13.6816 10.6934L11.7188 12.6367Q10.9473 13.4082 9.95117 13.4082Q8.95508 13.4082 8.17383 12.6367ZM16.3086 4.52148Q17.0801 5.2832 17.085 6.2793Q17.0898 7.27539 16.3086 8.04688L14.6289 9.72656Q14.7949 9.36523 14.8193 9.02832Q14.8438 8.69141 14.7852 8.39844L15.6934 7.50977Q16.2109 6.99219 16.2158 6.31836Q16.2207 5.64453 15.6934 5.12695Q15.1758 4.60938 14.5166 4.60449Q13.8574 4.59961 13.3105 5.14648L11.4453 7.01172Q10.918 7.53906 10.9033 8.21289Q10.8887 8.88672 11.4258 9.39453Q11.7285 9.6875 12.0752 9.80957Q12.4219 9.93164 12.6758 9.88281Q12.5781 10.0098 12.5293 10.0684Q12.4805 10.127 12.3828 10.2441L11.9824 10.6348Q11.7676 10.5957 11.4502 10.4443Q11.1328 10.293 10.8203 10.0098Q10.3027 9.49219 10.127 8.8623Q9.95117 8.23242 10.1221 7.60254Q10.293 6.97266 10.8105 6.45508L12.7734 4.51172Q13.5449 3.74023 14.541 3.74023Q15.5371 3.74023 16.3086 4.52148Z"
                     fill="#ffffff" />
       </g>
</svg>