<svg width="16.1473" height="20.8188">
       <g>
              <rect height="20.8188" opacity="0" width="16.1473" x="0" y="0" />
              <path d="M0 17.9437Q0 19.3771 0.717468 20.098Q1.43494 20.8188 2.85477 20.8188L13.2925 20.8188Q14.7124 20.8188 15.4298 20.098Q16.1473 19.3771 16.1473 17.9437L16.1473 2.88712Q16.1473 1.46057 15.4298 0.732956Q14.7124 0.00534058 13.2925 0.00534058L2.85477 0.00534058Q1.43494 0.00534058 0.717468 0.732956Q0 1.46057 0 2.88712Z"
                     fill="rgba(255,255,255,0.55)" />
              <path d="M3.59268 5.13412Q3.22083 5.13412 2.95166 4.86832Q2.6825 4.60251 2.6825 4.22394Q2.6825 3.8559 2.95166 3.5833Q3.22083 3.3107 3.59268 3.3107Q3.96439 3.3107 4.23363 3.57994Q4.50287 3.84918 4.50287 4.22394Q4.50287 4.60251 4.23363 4.86832Q3.96439 5.13412 3.59268 5.13412ZM3.59268 8.26553Q3.21411 8.26553 2.9483 7.99477Q2.6825 7.724 2.6825 7.35229Q2.6825 6.97372 2.9483 6.71127Q3.21411 6.44882 3.59268 6.44882Q3.96439 6.44882 4.23363 6.70792Q4.50287 6.96701 4.50287 7.35229Q4.50287 7.724 4.23363 7.99477Q3.96439 8.26553 3.59268 8.26553ZM3.59268 11.4851Q3.22083 11.4851 2.95166 11.2159Q2.6825 10.9467 2.6825 10.5719Q2.6825 10.2 2.95166 9.93088Q3.22083 9.66171 3.59268 9.66171Q3.96439 9.66171 4.23363 9.92752Q4.50287 10.1933 4.50287 10.5719Q4.50287 10.9467 4.23363 11.2159Q3.96439 11.4851 3.59268 11.4851ZM6.38901 4.73221Q6.17691 4.73221 6.03065 4.5842Q5.8844 4.43619 5.8844 4.22394Q5.8844 4.0184 6.03065 3.87222Q6.17691 3.72604 6.38901 3.72604L12.9669 3.72604Q13.1755 3.72604 13.3202 3.87222Q13.4648 4.0184 13.4648 4.22394Q13.4648 4.43619 13.3202 4.5842Q13.1755 4.73221 12.9669 4.73221ZM6.38901 7.85019Q6.17004 7.85019 6.02722 7.70737Q5.8844 7.56454 5.8844 7.35229Q5.8844 7.13333 6.02722 6.99051Q6.17004 6.84769 6.38901 6.84769L12.9669 6.84769Q13.1792 6.84769 13.322 6.99051Q13.4648 7.13333 13.4648 7.35229Q13.4648 7.56454 13.322 7.70737Q13.1792 7.85019 12.9669 7.85019ZM6.38901 11.0698Q6.17691 11.0698 6.03065 10.9236Q5.8844 10.7774 5.8844 10.5719Q5.8844 10.3596 6.02722 10.215Q6.17004 10.0703 6.38901 10.0703L12.9669 10.0703Q13.1792 10.0703 13.322 10.215Q13.4648 10.3596 13.4648 10.5719Q13.4648 10.7774 13.3202 10.9236Q13.1755 11.0698 12.9669 11.0698Z"
                     fill="#ffffff" />
       </g>
</svg>