<svg width="19.3436" height="15.5891">
       <g>
              <rect height="15.5891" opacity="0" width="19.3436" x="0" y="0" />
              <path d="M6.08264 2.56718L18.7439 2.56718Q18.9936 2.56718 19.1686 2.39552Q19.3436 2.22386 19.3436 1.96461Q19.3436 1.70827 19.1686 1.53325Q18.9936 1.35823 18.7439 1.35823L6.08264 1.35823Q5.82629 1.35823 5.65135 1.53325Q5.47641 1.70827 5.47641 1.96461Q5.47641 2.22386 5.65135 2.39552Q5.82629 2.56718 6.08264 2.56718ZM6.08264 8.40581L18.7439 8.40581Q18.9936 8.40581 19.1686 8.23079Q19.3436 8.05577 19.3436 7.79942Q19.3436 7.54307 19.1686 7.37141Q18.9936 7.19975 18.7439 7.19975L6.08264 7.19975Q5.82629 7.19975 5.65135 7.37141Q5.47641 7.54307 5.47641 7.79942Q5.47641 8.05577 5.65135 8.23079Q5.82629 8.40581 6.08264 8.40581ZM6.08264 14.2406L18.7439 14.2406Q18.9936 14.2406 19.1686 14.069Q19.3436 13.8974 19.3436 13.6411Q19.3436 13.3817 19.1686 13.2082Q18.9936 13.0347 18.7439 13.0347L6.08264 13.0347Q5.82629 13.0347 5.65135 13.2082Q5.47641 13.3817 5.47641 13.6411Q5.47641 13.8974 5.65135 14.069Q5.82629 14.2406 6.08264 14.2406Z"
                     fill="rgba(255,255,255,0.55)" />
              <path d="M0.992309 3.44197L1.79279 2.85405L2.57007 3.44197Q2.69229 3.53123 2.8033 3.51292Q2.91431 3.49461 2.96909 3.40344Q3.02386 3.31227 2.97427 3.17662L2.66421 2.22279L3.45111 1.63487Q3.55685 1.55537 3.56853 1.44925Q3.5802 1.34312 3.51382 1.26515Q3.44745 1.18718 3.32141 1.18718L2.34149 1.18718L2.01175 0.165145Q1.98184 0.0586389 1.88731 0.0204156Q1.79279-0.0178076 1.6965 0.0155328Q1.60022 0.0488733 1.57016 0.165145L1.24057 1.18718L0.24768 1.18718Q0.121795 1.18718 0.0554193 1.26515Q-0.0109565 1.34312 0.0021661 1.44925Q0.0152887 1.55537 0.11798 1.63487L0.911743 2.22279L0.604736 3.17662Q0.555145 3.31227 0.609924 3.40344Q0.664703 3.49461 0.772277 3.51292Q0.879852 3.53123 0.992309 3.44197ZM0.992309 9.26717L1.79279 8.67604L2.57007 9.26717Q2.69229 9.35643 2.8033 9.33804Q2.91431 9.31966 2.96909 9.22703Q3.02386 9.13441 2.97427 8.99861L2.66421 8.04494L3.45111 7.45702Q3.55685 7.37752 3.56853 7.27475Q3.5802 7.17198 3.51382 7.09401Q3.44745 7.01604 3.32141 7.01604L2.34149 7.01604L2.01175 5.99019Q1.98184 5.88078 1.88731 5.84256Q1.79279 5.80434 1.6965 5.84256Q1.60022 5.88078 1.57016 5.99019L1.24057 7.01604L0.24768 7.01604Q0.121795 7.01604 0.0554193 7.09401Q-0.0109565 7.17198 0.0021661 7.27475Q0.0152887 7.37752 0.11798 7.45702L0.911743 8.04494L0.604736 8.99861Q0.558196 9.13441 0.612899 9.22551Q0.667602 9.3166 0.773727 9.33499Q0.879852 9.35338 0.992309 9.26717ZM0.992309 15.1185L1.79279 14.5275L2.57007 15.1185Q2.69229 15.2077 2.8033 15.1893Q2.91431 15.1709 2.96909 15.0783Q3.02386 14.9857 2.97427 14.8501L2.66421 13.8962L3.45111 13.3083Q3.55685 13.2288 3.56853 13.1227Q3.5802 13.0166 3.51382 12.9419Q3.44745 12.8673 3.32141 12.8673L2.34149 12.8673L2.01175 11.8416Q1.98184 11.7321 1.88731 11.6938Q1.79279 11.6556 1.6965 11.6938Q1.60022 11.7321 1.57016 11.8416L1.24057 12.8673L0.24768 12.8673Q0.121795 12.8673 0.0554193 12.9419Q-0.0109565 13.0166 0.0021661 13.1227Q0.0152887 13.2288 0.11798 13.3083L0.911743 13.8962L0.604736 14.8501Q0.558196 14.9857 0.612899 15.0769Q0.667602 15.168 0.773727 15.1864Q0.879852 15.2047 0.992309 15.1185Z"
                     fill="rgba(255,255,255,0.85)" />
       </g>
</svg>