<svg width="19.3448" height="13.3844">
       <g>
              <rect height="13.3844" opacity="0" width="19.3448" x="0" y="0" />
              <path d="M5.96039 1.46484L18.7384 1.46484Q18.9948 1.46484 19.1698 1.29318Q19.3448 1.12152 19.3448 0.862274Q19.3448 0.605927 19.1698 0.430908Q18.9948 0.25589 18.7384 0.25589L5.96039 0.25589Q5.70099 0.25589 5.52597 0.430908Q5.35095 0.605927 5.35095 0.862274Q5.35095 1.12152 5.52597 1.29318Q5.70099 1.46484 5.96039 1.46484ZM5.96039 7.30347L18.7384 7.30347Q18.9948 7.30347 19.1698 7.12845Q19.3448 6.95343 19.3448 6.69708Q19.3448 6.44073 19.1698 6.26907Q18.9948 6.09741 18.7384 6.09741L5.96039 6.09741Q5.70099 6.09741 5.52597 6.26907Q5.35095 6.44073 5.35095 6.69708Q5.35095 6.95343 5.52597 7.12845Q5.70099 7.30347 5.96039 7.30347ZM5.96039 13.1383L18.7384 13.1383Q18.9948 13.1383 19.1698 12.9667Q19.3448 12.7951 19.3448 12.5388Q19.3448 12.2794 19.1698 12.1059Q18.9948 11.9324 18.7384 11.9324L5.96039 11.9324Q5.70099 11.9324 5.52597 12.1059Q5.35095 12.2794 5.35095 12.5388Q5.35095 12.7951 5.52597 12.9667Q5.70099 13.1383 5.96039 13.1383Z"
                     fill="rgba(255,255,255,0.55)" />
              <path d="M0.848694 1.70792L2.43698 1.70792Q2.78885 1.70792 3.04062 1.45767Q3.29239 1.20743 3.29239 0.862274Q3.29239 0.506592 3.04062 0.258179Q2.78885 0.00976562 2.43698 0.00976562L0.848694 0.00976562Q0.499878 0.00976562 0.249939 0.258179Q0 0.506592 0 0.862274Q0 1.20743 0.249939 1.45767Q0.499878 1.70792 0.848694 1.70792ZM0.848694 7.54959L2.43698 7.54959Q2.78885 7.54959 3.04062 7.29935Q3.29239 7.0491 3.29239 6.69708Q3.29239 6.34811 3.04062 6.09978Q2.78885 5.85144 2.43698 5.85144L0.848694 5.85144Q0.499878 5.85144 0.249939 6.09978Q0 6.34811 0 6.69708Q0 7.0491 0.249939 7.29935Q0.499878 7.54959 0.848694 7.54959ZM0.848694 13.3844L2.43698 13.3844Q2.78885 13.3844 3.04062 13.136Q3.29239 12.8876 3.29239 12.5388Q3.29239 12.18 3.04062 11.9331Q2.78885 11.6862 2.43698 11.6862L0.848694 11.6862Q0.499878 11.6862 0.249939 11.9331Q0 12.18 0 12.5388Q0 12.8876 0.249939 13.136Q0.499878 13.3844 0.848694 13.3844Z"
                     fill="rgba(255,255,255,0.85)" />
       </g>
</svg>