<svg width="19.3448" height="16.3538">
       <g>
              <rect height="16.3538" opacity="0" width="19.3448" x="0" y="0" />
              <path d="M5.57602 2.94952L18.7384 2.94952Q18.9948 2.94952 19.1698 2.77786Q19.3448 2.6062 19.3448 2.34695Q19.3448 2.09061 19.1698 1.91559Q18.9948 1.74057 18.7384 1.74057L5.57602 1.74057Q5.31662 1.74057 5.1416 1.91559Q4.96658 2.09061 4.96658 2.34695Q4.96658 2.6062 5.1416 2.77786Q5.31662 2.94952 5.57602 2.94952ZM5.57602 8.78815L18.7384 8.78815Q18.9948 8.78815 19.1698 8.61313Q19.3448 8.43811 19.3448 8.18176Q19.3448 7.92542 19.1698 7.75375Q18.9948 7.58209 18.7384 7.58209L5.57602 7.58209Q5.31662 7.58209 5.1416 7.75375Q4.96658 7.92542 4.96658 8.18176Q4.96658 8.43811 5.1416 8.61313Q5.31662 8.78815 5.57602 8.78815ZM5.57602 14.623L18.7384 14.623Q18.9948 14.623 19.1698 14.4514Q19.3448 14.2798 19.3448 14.0234Q19.3448 13.764 19.1698 13.5905Q18.9948 13.4171 18.7384 13.4171L5.57602 13.4171Q5.31662 13.4171 5.1416 13.5905Q4.96658 13.764 4.96658 14.0234Q4.96658 14.2798 5.1416 14.4514Q5.31662 14.623 5.57602 14.623Z"
                     fill="rgba(255,255,255,0.55)" />
              <path d="M1.98669 4.33395Q2.23648 4.33395 2.38808 4.1925Q2.53967 4.05106 2.53967 3.76755L2.53967 0.601044Q2.53967 0.32196 2.36671 0.16098Q2.19376 0 1.90781 0Q1.67511 0 1.51413 0.0735474Q1.35315 0.147095 1.18881 0.261993L0.489349 0.74646Q0.19577 0.945587 0.19577 1.185Q0.19577 1.3591 0.310593 1.46568Q0.425415 1.57227 0.582275 1.57227Q0.67688 1.57227 0.742264 1.54938Q0.807648 1.52649 0.921783 1.44165L1.40427 1.09344L1.4238 1.09344L1.4238 3.76755Q1.4238 4.05106 1.57692 4.1925Q1.73004 4.33395 1.98669 4.33395ZM0.490112 10.144L2.92709 10.144Q3.10501 10.144 3.21869 10.0322Q3.33237 9.92035 3.33237 9.74548Q3.33237 9.54819 3.22021 9.43481Q3.10806 9.32144 2.92709 9.32144L1.45798 9.32144L1.45798 9.2952L2.30118 8.57803Q2.79617 8.14667 2.99591 7.85942Q3.19565 7.57217 3.19565 7.16675Q3.19565 6.61102 2.76237 6.26633Q2.3291 5.92163 1.59256 5.92163Q0.922699 5.92163 0.495834 6.2394Q0.0689697 6.55716 0.0689697 7.00165Q0.0689697 7.43179 0.530396 7.43179Q0.838318 7.43179 0.983734 7.14783Q1.1647 6.75323 1.60599 6.75323Q1.84204 6.75323 1.99089 6.89079Q2.13974 7.02835 2.13974 7.24243Q2.13974 7.43942 2.01462 7.62466Q1.8895 7.80991 1.51779 8.12469L0.256653 9.2067Q0.0164795 9.40704 0.0164795 9.69299Q0.0164795 9.89334 0.144806 10.0187Q0.273132 10.144 0.490112 10.144ZM1.61209 16.1705Q2.43042 16.1705 2.89116 15.8243Q3.3519 15.4781 3.3519 14.893Q3.3519 14.5049 3.09395 14.2397Q2.836 13.9745 2.32513 13.9354L2.32513 13.9091Q2.71744 13.8347 2.95319 13.5905Q3.18893 13.3464 3.18893 12.941Q3.18893 12.4207 2.74185 12.1304Q2.29477 11.8401 1.60538 11.8401Q1.24268 11.8401 0.896149 11.9542Q0.549622 12.0683 0.322495 12.2839Q0.0953674 12.4994 0.0953674 12.8004Q0.0953674 12.9874 0.21843 13.101Q0.341492 13.2147 0.529785 13.2147Q0.670929 13.2147 0.756149 13.1607Q0.84137 13.1067 0.936584 12.9895Q1.09055 12.7979 1.24794 12.7219Q1.40533 12.646 1.59927 12.646Q1.8512 12.646 2.01012 12.7671Q2.16904 12.8882 2.16904 13.1248Q2.16904 13.342 1.99089 13.4582Q1.81274 13.5744 1.50101 13.5744L1.35727 13.5744Q0.953369 13.5744 0.953369 13.958Q0.953369 14.3355 1.35727 14.3355L1.51749 14.3355Q2.23679 14.3355 2.23679 14.8271Q2.23679 15.0465 2.05711 15.189Q1.87744 15.3314 1.61209 15.3314Q1.35513 15.3314 1.16173 15.217Q0.968323 15.1025 0.834503 14.9385Q0.755768 14.8483 0.672379 14.7961Q0.588989 14.7438 0.467529 14.7438Q0.260315 14.7438 0.130157 14.8621Q0 14.9803 0 15.1776Q0 15.6516 0.524826 15.911Q1.04965 16.1705 1.61209 16.1705Z"
                     fill="rgba(255,255,255,0.85)" />
       </g>
</svg>