<svg width="19.3448" height="14.0207">
       <g>
              <rect height="14.0207" opacity="0" width="19.3448" x="0" y="0" />
              <path d="M5.31372 1.78299L18.7384 1.78299Q18.9948 1.78299 19.1698 1.61133Q19.3448 1.43967 19.3448 1.18042Q19.3448 0.924072 19.1698 0.749054Q18.9948 0.574036 18.7384 0.574036L5.31372 0.574036Q5.05737 0.574036 4.88243 0.749054Q4.70749 0.924072 4.70749 1.18042Q4.70749 1.43967 4.88243 1.61133Q5.05737 1.78299 5.31372 1.78299ZM5.31372 7.62161L18.7384 7.62161Q18.9948 7.62161 19.1698 7.44659Q19.3448 7.27158 19.3448 7.01523Q19.3448 6.75888 19.1698 6.58722Q18.9948 6.41556 18.7384 6.41556L5.31372 6.41556Q5.05737 6.41556 4.88243 6.58722Q4.70749 6.75888 4.70749 7.01523Q4.70749 7.27158 4.88243 7.44659Q5.05737 7.62161 5.31372 7.62161ZM5.31372 13.4564L18.7384 13.4564Q18.9948 13.4564 19.1698 13.2848Q19.3448 13.1133 19.3448 12.8569Q19.3448 12.5975 19.1698 12.424Q18.9948 12.2505 18.7384 12.2505L5.31372 12.2505Q5.05737 12.2505 4.88243 12.424Q4.70749 12.5975 4.70749 12.8569Q4.70749 13.1133 4.88243 13.2848Q5.05737 13.4564 5.31372 13.4564Z"
                     fill="rgba(255,255,255,0.55)" />
              <path d="M1.16394 2.33749Q1.64444 2.33749 1.98608 2.00073Q2.32773 1.66397 2.32773 1.18042Q2.32773 0.693054 1.98608 0.354767Q1.64444 0.0164795 1.16394 0.0164795Q0.683289 0.0164795 0.341644 0.354767Q0 0.693054 0 1.18042Q0 1.66397 0.341644 2.00073Q0.683289 2.33749 1.16394 2.33749ZM1.16394 8.17917Q1.64444 8.17917 1.98608 7.83745Q2.32773 7.49573 2.32773 7.01523Q2.32773 6.53473 1.98608 6.19301Q1.64444 5.85129 1.16394 5.85129Q0.683289 5.85129 0.341644 6.19301Q0 6.53473 0 7.01523Q0 7.49573 0.341644 7.83745Q0.683289 8.17917 1.16394 8.17917ZM1.16394 14.0207Q1.64444 14.0207 1.98608 13.679Q2.32773 13.3374 2.32773 12.8569Q2.32773 12.3695 1.98608 12.0312Q1.64444 11.693 1.16394 11.693Q0.683289 11.693 0.341644 12.0312Q0 12.3695 0 12.8569Q0 13.3374 0.341644 13.679Q0.683289 14.0207 1.16394 14.0207Z"
                     fill="rgba(255,255,255,0.85)" />
       </g>
</svg>