<svg width="19.5898" height="19.5996">
       <g>
              <rect height="19.5996" opacity="0" width="19.5898" x="0" y="0" />
              <path d="M9.79492 19.5898Q11.8066 19.5898 13.5791 18.8232Q15.3516 18.0566 16.7041 16.7041Q18.0566 15.3516 18.8232 13.5791Q19.5898 11.8066 19.5898 9.79492Q19.5898 7.7832 18.8232 6.01074Q18.0566 4.23828 16.7041 2.88574Q15.3516 1.5332 13.5742 0.766602Q11.7969 0 9.78516 0Q7.77344 0 6.00098 0.766602Q4.22852 1.5332 2.88086 2.88574Q1.5332 4.23828 0.766602 6.01074Q0 7.7832 0 9.79492Q0 11.8066 0.766602 13.5791Q1.5332 15.3516 2.88574 16.7041Q4.23828 18.0566 6.01074 18.8232Q7.7832 19.5898 9.79492 19.5898Z"
                     fill="rgba(255,255,255,0.55)" />
              <path d="M7.26562 6.93359Q7.06055 6.93359 6.91895 6.78711Q6.77734 6.64062 6.77734 6.44531Q6.77734 6.24023 6.91895 6.09863Q7.06055 5.95703 7.26562 5.95703L15.0098 5.95703Q15.2246 5.95703 15.3662 6.09863Q15.5078 6.24023 15.5078 6.44531Q15.5078 6.65039 15.3662 6.79199Q15.2246 6.93359 15.0098 6.93359ZM7.26562 13.6621Q7.06055 13.6621 6.91895 13.5156Q6.77734 13.3691 6.77734 13.1641Q6.77734 12.9688 6.91895 12.8271Q7.06055 12.6855 7.26562 12.6855L15.0098 12.6855Q15.2246 12.6855 15.3662 12.8223Q15.5078 12.959 15.5078 13.1641Q15.5078 13.3789 15.3662 13.5205Q15.2246 13.6621 15.0098 13.6621ZM7.26562 10.293Q7.06055 10.293 6.91895 10.1514Q6.77734 10.0098 6.77734 9.80469Q6.77734 9.60938 6.91895 9.46289Q7.06055 9.31641 7.26562 9.31641L15.0098 9.31641Q15.2246 9.31641 15.3662 9.45801Q15.5078 9.59961 15.5078 9.80469Q15.5078 10.0195 15.3662 10.1562Q15.2246 10.293 15.0098 10.293ZM4.87305 7.26562Q4.54102 7.26562 4.30176 7.02148Q4.0625 6.77734 4.0625 6.44531Q4.0625 6.10352 4.30176 5.86426Q4.54102 5.625 4.87305 5.625Q5.21484 5.625 5.4541 5.86426Q5.69336 6.10352 5.69336 6.44531Q5.69336 6.77734 5.4541 7.02148Q5.21484 7.26562 4.87305 7.26562ZM4.87305 10.625Q4.54102 10.625 4.30176 10.3906Q4.0625 10.1562 4.0625 9.80469Q4.0625 9.46289 4.30176 9.22363Q4.54102 8.98438 4.87305 8.98438Q5.21484 8.98438 5.4541 9.22852Q5.69336 9.47266 5.69336 9.80469Q5.69336 10.1465 5.4541 10.3857Q5.21484 10.625 4.87305 10.625ZM4.87305 13.9844Q4.54102 13.9844 4.30176 13.75Q4.0625 13.5156 4.0625 13.1641Q4.0625 12.832 4.30176 12.5928Q4.54102 12.3535 4.87305 12.3535Q5.21484 12.3535 5.4541 12.5928Q5.69336 12.832 5.69336 13.1641Q5.69336 13.5156 5.4541 13.75Q5.21484 13.9844 4.87305 13.9844Z"
                     fill="#ffffff" />
       </g>
</svg>