<svg width="24.0877" height="14.0207">
       <g>
              <rect height="14.0207" opacity="0" width="24.0877" x="0" y="0" />
              <path d="M5.31372 1.78299L18.7384 1.78299Q18.9948 1.78299 19.1698 1.61133Q19.3448 1.43967 19.3448 1.18042Q19.3448 0.924072 19.1698 0.749054Q18.9948 0.574036 18.7384 0.574036L5.31372 0.574036Q5.05737 0.574036 4.88243 0.749054Q4.70749 0.924072 4.70749 1.18042Q4.70749 1.43967 4.88243 1.61133Q5.05737 1.78299 5.31372 1.78299ZM7.68188 7.62161L21.1131 7.62161Q21.3695 7.62161 21.5411 7.44659Q21.7128 7.27158 21.7128 7.01523Q21.7128 6.75888 21.5411 6.58722Q21.3695 6.41556 21.1131 6.41556L7.68188 6.41556Q7.43225 6.41556 7.25723 6.58722Q7.08221 6.75888 7.08221 7.01523Q7.08221 7.27158 7.25723 7.44659Q7.43225 7.62161 7.68188 7.62161ZM10.0566 13.4564L23.485 13.4564Q23.7444 13.4564 23.916 13.2848Q24.0877 13.1133 24.0877 12.8569Q24.0877 12.5975 23.916 12.424Q23.7444 12.2505 23.485 12.2505L10.0566 12.2505Q9.79721 12.2505 9.62715 12.424Q9.45709 12.5975 9.45709 12.8569Q9.45709 13.1133 9.62715 13.2848Q9.79721 13.4564 10.0566 13.4564Z"
                     fill="rgba(255,255,255,0.55)" />
              <path d="M1.16394 2.33749Q1.64444 2.33749 1.98608 2.00073Q2.32773 1.66397 2.32773 1.18042Q2.32773 0.693054 1.98608 0.354767Q1.64444 0.0164795 1.16394 0.0164795Q0.683289 0.0164795 0.341644 0.354767Q0 0.693054 0 1.18042Q0 1.66397 0.341644 2.00073Q0.683289 2.33749 1.16394 2.33749ZM3.53867 8.17917Q4.01917 8.17917 4.36089 7.83745Q4.70261 7.49573 4.70261 7.01523Q4.70261 6.53473 4.36089 6.19301Q4.01917 5.85129 3.53867 5.85129Q3.0513 5.85129 2.71309 6.19301Q2.37488 6.53473 2.37488 7.01523Q2.37488 7.49573 2.71309 7.83745Q3.0513 8.17917 3.53867 8.17917ZM5.90668 14.0207Q6.39404 14.0207 6.73233 13.679Q7.07062 13.3374 7.07062 12.8569Q7.07062 12.3695 6.73233 12.0312Q6.39404 11.693 5.90668 11.693Q5.42313 11.693 5.08301 12.0312Q4.74289 12.3695 4.74289 12.8569Q4.74289 13.3374 5.08301 13.679Q5.42313 14.0207 5.90668 14.0207Z"
                     fill="rgba(255,255,255,0.85)" />
       </g>
</svg>