<svg width="19.3448" height="14.5754">
       <g>
              <rect height="14.5754" opacity="0" width="19.3448" x="0" y="0" />
              <path d="M5.78445 2.06035L18.7384 2.06035Q18.9948 2.06035 19.1698 1.88869Q19.3448 1.71703 19.3448 1.45778Q19.3448 1.20144 19.1698 1.02642Q18.9948 0.851401 18.7384 0.851401L5.78445 0.851401Q5.52811 0.851401 5.35309 1.02642Q5.17807 1.20144 5.17807 1.45778Q5.17807 1.71703 5.35309 1.88869Q5.52811 2.06035 5.78445 2.06035ZM5.78445 7.89898L18.7384 7.89898Q18.9948 7.89898 19.1698 7.72396Q19.3448 7.54894 19.3448 7.29259Q19.3448 7.03625 19.1698 6.86458Q18.9948 6.69292 18.7384 6.69292L5.78445 6.69292Q5.52811 6.69292 5.35309 6.86458Q5.17807 7.03625 5.17807 7.29259Q5.17807 7.54894 5.35309 7.72396Q5.52811 7.89898 5.78445 7.89898ZM5.78445 13.7338L18.7384 13.7338Q18.9948 13.7338 19.1698 13.5622Q19.3448 13.3906 19.3448 13.1343Q19.3448 12.8749 19.1698 12.7014Q18.9948 12.5279 18.7384 12.5279L5.78445 12.5279Q5.52811 12.5279 5.35309 12.7014Q5.17807 12.8749 5.17807 13.1343Q5.17807 13.3906 5.35309 13.5622Q5.52811 13.7338 5.78445 13.7338Z"
                     fill="rgba(255,255,255,0.55)" />
              <path d="M0.73349 2.79842L2.3143 1.85711Q2.4585 1.76555 2.5058 1.618Q2.5531 1.47045 2.50244 1.3248Q2.45178 1.17916 2.3143 1.09432L0.73349 0.136526Q0.461731-0.0339143 0.230865 0.0464232Q0 0.126761 0 0.454062L0 2.48089Q0 2.79171 0.235748 2.87205Q0.471497 2.95238 0.73349 2.79842ZM0.73349 8.62362L2.3143 7.67925Q2.4585 7.59731 2.5058 7.44831Q2.5531 7.29931 2.50244 7.15031Q2.45178 7.0013 2.3143 6.91952L0.73349 5.95867Q0.461731 5.79494 0.230865 5.87337Q0 5.9518 0 6.27926L0 8.30288Q0 8.62057 0.235748 8.699Q0.471497 8.77743 0.73349 8.62362ZM0.73349 14.4749L2.3143 13.5305Q2.4585 13.4488 2.5058 13.2997Q2.5531 13.1507 2.50244 13.0017Q2.45178 12.8526 2.3143 12.7708L0.73349 11.81Q0.461731 11.6462 0.230865 11.7247Q0 11.8032 0 12.1305L0 14.1543Q0 14.4651 0.235748 14.547Q0.471497 14.6289 0.73349 14.4749Z"
                     fill="rgba(255,255,255,0.85)" />
       </g>
</svg>