<svg width="16.1473" height="24.3286">
       <g>
              <rect height="24.3286" opacity="0" width="16.1473" x="0" y="0" />
              <path d="M3.95859 10.2321Q4.25491 10.2321 4.46579 10.0212Q4.67667 9.81033 4.67667 9.51401Q4.67667 9.21082 4.46579 9.00337Q4.25491 8.79593 3.95859 8.79593Q3.67203 8.79593 3.45627 9.00681Q3.24051 9.21768 3.24051 9.51401Q3.24051 9.80362 3.45627 10.0179Q3.67203 10.2321 3.95859 10.2321ZM6.36322 9.99832L12.4254 9.99832Q12.6212 9.99832 12.7654 9.85405Q12.9097 9.70978 12.9097 9.51401Q12.9097 9.31152 12.7654 9.16718Q12.6212 9.02283 12.4254 9.02283L6.36322 9.02283Q6.16074 9.02283 6.01639 9.16718Q5.87204 9.31152 5.87204 9.51401Q5.87204 9.70978 6.01639 9.85405Q6.16074 9.99832 6.36322 9.99832ZM2.85477 23.326L13.2925 23.326Q14.7124 23.326 15.4298 22.6018Q16.1473 21.8776 16.1473 20.4474L16.1473 5.39444Q16.1473 3.98132 15.4485 3.24852Q14.7498 2.51572 13.3636 2.51572L12.8719 2.51572Q12.8786 2.5621 12.877 2.6165Q12.8755 2.6709 12.8755 2.71744L12.8755 3.3844Q12.8755 3.58826 12.8517 3.72162L13.3372 3.72162Q14.1299 3.72162 14.5341 4.16809Q14.9384 4.61456 14.9384 5.41687L14.9384 20.4248Q14.9384 21.2511 14.5087 21.6856Q14.079 22.1201 13.2326 22.1201L2.91473 22.1201Q2.06833 22.1201 1.63864 21.6856Q1.20895 21.2511 1.20895 20.4248L1.20895 5.41687Q1.20895 4.61456 1.61316 4.16809Q2.01736 3.72162 2.80991 3.72162L3.29559 3.72162Q3.27164 3.58826 3.27164 3.3844L3.27164 2.71744Q3.27164 2.6709 3.27164 2.6165Q3.27164 2.5621 3.27545 2.51572L2.78366 2.51572Q1.39755 2.51572 0.698776 3.24852Q0 3.98132 0 5.39444L0 20.4474Q0 21.8776 0.717468 22.6018Q1.43494 23.326 2.85477 23.326ZM5.08942 4.54315L11.0579 4.54315Q11.4392 4.54315 11.6542 4.32404Q11.8692 4.10492 11.8692 3.70956L11.8692 2.71439Q11.8692 2.31903 11.6542 2.09991Q11.4392 1.8808 11.0579 1.8808L10.0262 1.8808Q9.99557 1.10214 9.42917 0.551071Q8.86276 0 8.07358 0Q7.28455 0 6.71814 0.551071Q6.15173 1.10214 6.12106 1.8808L5.08942 1.8808Q4.7081 1.8808 4.49303 2.09991Q4.27795 2.31903 4.27795 2.71439L4.27795 3.70956Q4.27795 4.10492 4.49303 4.32404Q4.7081 4.54315 5.08942 4.54315ZM8.07358 2.79953Q7.70996 2.79953 7.45636 2.53952Q7.20276 2.27951 7.20276 1.92871Q7.20276 1.55823 7.45636 1.3047Q7.70996 1.05118 8.07358 1.05118Q8.43735 1.05118 8.69087 1.3047Q8.9444 1.55823 8.9444 1.92871Q8.9444 2.27951 8.69087 2.53952Q8.43735 2.79953 8.07358 2.79953Z"
                     fill="#5e5ce6" />
              <path d="M3.95859 17.4724Q4.25491 17.4724 4.46579 17.2615Q4.67667 17.0506 4.67667 16.7572Q4.67667 16.4542 4.46579 16.2467Q4.25491 16.0393 3.95859 16.0393Q3.67203 16.0393 3.45627 16.2501Q3.24051 16.4609 3.24051 16.7572Q3.24051 17.0439 3.45627 17.2581Q3.67203 17.4724 3.95859 17.4724ZM6.36322 17.2417L12.4254 17.2417Q12.6212 17.2417 12.7654 17.0973Q12.9097 16.953 12.9097 16.7572Q12.9097 16.5518 12.7688 16.4108Q12.6279 16.2698 12.4254 16.2698L6.36322 16.2698Q6.15402 16.2698 6.01303 16.4108Q5.87204 16.5518 5.87204 16.7572Q5.87204 16.953 6.01639 17.0973Q6.16074 17.2417 6.36322 17.2417Z"
                     fill="rgba(94,92,230,0.25)" />
              <path d="M3.95859 13.7466Q4.25491 13.7466 4.46579 13.5392Q4.67667 13.3318 4.67667 13.0286Q4.67667 12.7351 4.46579 12.5262Q4.25491 12.3172 3.95859 12.3172Q3.66516 12.3172 3.45284 12.5281Q3.24051 12.739 3.24051 13.0286Q3.24051 13.3318 3.45284 13.5392Q3.66516 13.7466 3.95859 13.7466ZM6.36322 13.5197L12.4254 13.5197Q12.6279 13.5197 12.7688 13.3754Q12.9097 13.231 12.9097 13.0286Q12.9097 12.8328 12.7688 12.6919Q12.6279 12.551 12.4254 12.551L6.36322 12.551Q6.15402 12.551 6.01303 12.6919Q5.87204 12.8328 5.87204 13.0286Q5.87204 13.231 6.01303 13.3754Q6.15402 13.5197 6.36322 13.5197Z"
                     fill="rgba(94,92,230,0.5)" />
       </g>
</svg>