<svg width="22.8699" height="17.688">
       <g>
              <rect height="17.688" opacity="0" width="22.8699" x="0" y="0" />
              <path d="M2.87872 17.6819L19.9883 17.6819Q21.4282 17.6819 22.149 16.9614Q22.8699 16.2408 22.8699 14.8338L22.8699 2.85477Q22.8699 1.45081 22.149 0.725403Q21.4282 0 19.9883 0L2.87872 0Q1.44836 0 0.724182 0.718994Q0 1.43799 0 2.85477L0 14.8338Q0 16.2469 0.724182 16.9644Q1.44836 17.6819 2.87872 17.6819Z"
                     fill="rgba(255,255,255,0.55)" />
              <path d="M4.19312 5.01709Q3.82797 5.01709 3.55873 4.74449Q3.28949 4.47189 3.28949 4.1069Q3.28949 3.72833 3.55873 3.46245Q3.82797 3.19656 4.19312 3.19656Q4.57825 3.19656 4.84413 3.45909Q5.11002 3.72162 5.11002 4.1069Q5.11002 4.47861 4.84413 4.74785Q4.57825 5.01709 4.19312 5.01709ZM4.19312 8.14178Q3.82797 8.14178 3.55873 7.87254Q3.28949 7.6033 3.28949 7.23145Q3.28949 6.85974 3.55873 6.58897Q3.82797 6.31821 4.19312 6.31821Q4.57825 6.31821 4.84413 6.58562Q5.11002 6.85303 5.11002 7.23145Q5.11002 7.61002 4.84413 7.8759Q4.57825 8.14178 4.19312 8.14178ZM4.19312 11.2596Q3.82126 11.2596 3.55537 10.9937Q3.28949 10.7278 3.28949 10.3464Q3.28949 9.98123 3.55537 9.71199Q3.82126 9.44275 4.19312 9.44275Q4.57825 9.44275 4.84413 9.70863Q5.11002 9.97452 5.11002 10.3464Q5.11002 10.7278 4.84413 10.9937Q4.57825 11.2596 4.19312 11.2596ZM4.19312 14.4859Q3.82797 14.4859 3.55873 14.2167Q3.28949 13.9474 3.28949 13.5757Q3.28949 13.2039 3.55873 12.9298Q3.82797 12.6556 4.19312 12.6556Q4.57825 12.6556 4.84413 12.9264Q5.11002 13.1972 5.11002 13.5757Q5.11002 13.9543 4.84413 14.2201Q4.57825 14.4859 4.19312 14.4859ZM7.41486 4.59793Q7.20261 4.59793 7.05643 4.45511Q6.91025 4.31229 6.91025 4.1069Q6.91025 3.88794 7.05643 3.74176Q7.20261 3.59558 7.41486 3.59558L19.207 3.59558Q19.4193 3.59558 19.5654 3.74176Q19.7116 3.88794 19.7116 4.1069Q19.7116 4.31229 19.5688 4.45511Q19.426 4.59793 19.207 4.59793ZM7.41486 7.72934Q7.20261 7.72934 7.05643 7.58316Q6.91025 7.43698 6.91025 7.23145Q6.91025 7.01935 7.05643 6.87309Q7.20261 6.72684 7.41486 6.72684L14.1217 6.72684Q14.3272 6.72684 14.4734 6.87309Q14.6196 7.01935 14.6196 7.23145Q14.6196 7.43698 14.4734 7.58316Q14.3272 7.72934 14.1217 7.72934ZM7.41486 10.8577Q7.20261 10.8577 7.05643 10.7115Q6.91025 10.5653 6.91025 10.3464Q6.91025 10.1408 7.05643 9.99954Q7.20261 9.85825 7.41486 9.85825L19.207 9.85825Q19.426 9.85825 19.5688 9.99954Q19.7116 10.1408 19.7116 10.3464Q19.7116 10.5653 19.5688 10.7115Q19.426 10.8577 19.207 10.8577ZM7.41486 14.0773Q7.20261 14.0773 7.05643 13.9326Q6.91025 13.788 6.91025 13.5757Q6.91025 13.3635 7.05643 13.2207Q7.20261 13.0779 7.41486 13.0779L14.1217 13.0779Q14.334 13.0779 14.4768 13.2207Q14.6196 13.3635 14.6196 13.5757Q14.6196 13.788 14.4734 13.9326Q14.3272 14.0773 14.1217 14.0773Z"
                     fill="#ffffff" />
       </g>
</svg>