<svg width="21.4844" height="21.5137">
       <g>
              <rect height="21.5137" opacity="0" width="21.4844" x="0" y="0" />
              <path d="M10.752 14.6094Q11.8164 14.6094 12.6807 14.0967Q13.5449 13.584 14.0625 12.7148Q14.5801 11.8457 14.5801 10.7812Q14.5801 9.72656 14.0625 8.85742Q13.5449 7.98828 12.6758 7.47559Q11.8066 6.96289 10.752 6.96289Q9.6875 6.96289 8.82324 7.47559Q7.95898 7.98828 7.44141 8.85742Q6.92383 9.72656 6.92383 10.7812Q6.92383 11.8457 7.43652 12.7148Q7.94922 13.584 8.81836 14.0967Q9.6875 14.6094 10.752 14.6094ZM10.752 13.125Q10.0977 13.125 9.56543 12.8125Q9.0332 12.5 8.7207 11.9678Q8.4082 11.4355 8.4082 10.7812Q8.4082 10.1367 8.72559 9.60449Q9.04297 9.07227 9.57031 8.75977Q10.0977 8.44727 10.752 8.44727Q11.3965 8.44727 11.9287 8.76465Q12.4609 9.08203 12.7734 9.60938Q13.0859 10.1367 13.0859 10.7812Q13.0859 11.4355 12.7734 11.9678Q12.4609 12.5 11.9287 12.8125Q11.3965 13.125 10.752 13.125Z"
                     fill="rgba(255,255,255,0.55)" />
              <path d="M10.752 18.5156Q12.3438 18.5156 13.75 17.9199Q15.1562 17.3242 16.2207 16.2598Q17.2852 15.1953 17.8857 13.7939Q18.4863 12.3926 18.4863 10.7715Q18.4863 9.17969 17.8857 7.77344Q17.2852 6.36719 16.2207 5.30273Q15.1562 4.23828 13.75 3.6377Q12.3438 3.03711 10.752 3.03711Q9.13086 3.03711 7.72461 3.63281Q6.31836 4.22852 5.25879 5.29785Q4.19922 6.36719 3.59863 7.76855Q2.99805 9.16992 2.99805 10.7715Q2.99805 12.3926 3.59863 13.7988Q4.19922 15.2051 5.25879 16.2646Q6.31836 17.3242 7.72461 17.9199Q9.13086 18.5156 10.752 18.5156ZM10.752 17.7051Q9.29688 17.7051 8.03711 17.1729Q6.77734 16.6406 5.83008 15.6885Q4.88281 14.7363 4.35059 13.4814Q3.81836 12.2266 3.81836 10.7715Q3.81836 9.33594 4.35547 8.08105Q4.89258 6.82617 5.84473 5.87402Q6.79688 4.92188 8.05176 4.38477Q9.30664 3.84766 10.752 3.84766Q12.1777 3.84766 13.4375 4.38477Q14.6973 4.92188 15.6494 5.87402Q16.6016 6.82617 17.1387 8.08594Q17.6758 9.3457 17.6758 10.7715Q17.6758 12.2168 17.1387 13.4717Q16.6016 14.7266 15.6494 15.6787Q14.6973 16.6309 13.4424 17.168Q12.1875 17.7051 10.752 17.7051Z"
                     fill="rgba(255,255,255,0.55)" />
              <path d="M10.7422 0.976562Q10.9375 0.976562 11.0693 0.839844Q11.2012 0.703125 11.2012 0.507812Q11.2012 0.322266 11.0693 0.175781Q10.9375 0.0292969 10.7422 0.0292969Q10.5566 0.0292969 10.415 0.175781Q10.2734 0.322266 10.2734 0.507812Q10.2734 0.703125 10.415 0.839844Q10.5566 0.976562 10.7422 0.976562ZM12.5391 1.13281Q12.7246 1.13281 12.8711 0.991211Q13.0176 0.849609 13.0176 0.664062Q13.0176 0.478516 12.8711 0.332031Q12.7246 0.185547 12.5391 0.185547Q12.3438 0.185547 12.207 0.332031Q12.0703 0.478516 12.0703 0.664062Q12.0703 0.849609 12.207 0.991211Q12.3438 1.13281 12.5391 1.13281ZM14.2676 1.5918Q14.4434 1.5918 14.585 1.45508Q14.7266 1.31836 14.7266 1.13281Q14.7266 0.947266 14.585 0.800781Q14.4434 0.654297 14.2676 0.654297Q14.0625 0.654297 13.9258 0.800781Q13.7891 0.947266 13.7891 1.13281Q13.7891 1.31836 13.9258 1.45508Q14.0625 1.5918 14.2676 1.5918ZM15.8887 2.35352Q16.0742 2.35352 16.2109 2.2168Q16.3477 2.08008 16.3477 1.89453Q16.3477 1.69922 16.2109 1.55762Q16.0742 1.41602 15.8887 1.41602Q15.6934 1.41602 15.5566 1.55762Q15.4199 1.69922 15.4199 1.89453Q15.4199 2.08008 15.5566 2.2168Q15.6934 2.35352 15.8887 2.35352ZM17.3535 3.37891Q17.5488 3.37891 17.6855 3.24219Q17.8223 3.10547 17.8223 2.91992Q17.8223 2.72461 17.6855 2.58301Q17.5488 2.44141 17.3535 2.44141Q17.1582 2.44141 17.0264 2.58301Q16.8945 2.72461 16.8945 2.91992Q16.8945 3.10547 17.0264 3.24219Q17.1582 3.37891 17.3535 3.37891ZM18.623 4.64844Q18.8184 4.64844 18.9551 4.51172Q19.0918 4.375 19.0918 4.18945Q19.0918 3.99414 18.9551 3.85254Q18.8184 3.71094 18.623 3.71094Q18.4277 3.71094 18.291 3.85254Q18.1543 3.99414 18.1543 4.18945Q18.1543 4.375 18.291 4.51172Q18.4277 4.64844 18.623 4.64844ZM19.6484 6.11328Q19.8242 6.11328 19.9658 5.97656Q20.1074 5.83984 20.1074 5.64453Q20.1074 5.45898 19.9658 5.31738Q19.8242 5.17578 19.6484 5.17578Q19.4531 5.17578 19.3164 5.31738Q19.1797 5.45898 19.1797 5.64453Q19.1797 5.83984 19.3164 5.97656Q19.4531 6.11328 19.6484 6.11328ZM20.4004 7.74414Q20.5859 7.74414 20.7275 7.60742Q20.8691 7.4707 20.8691 7.28516Q20.8691 7.08984 20.7275 6.94824Q20.5859 6.80664 20.4004 6.80664Q20.2051 6.80664 20.0684 6.94824Q19.9316 7.08984 19.9316 7.28516Q19.9316 7.4707 20.0684 7.60742Q20.2051 7.74414 20.4004 7.74414ZM20.8594 9.47266Q21.0449 9.47266 21.1914 9.33105Q21.3379 9.18945 21.3379 8.99414Q21.3379 8.80859 21.1914 8.66699Q21.0449 8.52539 20.8594 8.52539Q20.6641 8.52539 20.5273 8.66699Q20.3906 8.80859 20.3906 8.99414Q20.3906 9.18945 20.5273 9.33105Q20.6641 9.47266 20.8594 9.47266ZM21.0156 11.25Q21.1914 11.25 21.3379 11.1133Q21.4844 10.9766 21.4844 10.791Q21.4844 10.5957 21.3379 10.4541Q21.1914 10.3125 21.0156 10.3125Q20.8203 10.3125 20.6787 10.4541Q20.5371 10.5957 20.5371 10.791Q20.5371 10.9766 20.6787 11.1133Q20.8203 11.25 21.0156 11.25ZM20.8594 13.0273Q21.0449 13.0273 21.1914 12.8857Q21.3379 12.7441 21.3379 12.5586Q21.3379 12.373 21.1914 12.2314Q21.0449 12.0898 20.8594 12.0898Q20.6641 12.0898 20.5273 12.2314Q20.3906 12.373 20.3906 12.5586Q20.3906 12.7441 20.5273 12.8857Q20.6641 13.0273 20.8594 13.0273ZM20.4004 14.7461Q20.5859 14.7461 20.7275 14.6094Q20.8691 14.4727 20.8691 14.2676Q20.8691 14.0918 20.7275 13.9502Q20.5859 13.8086 20.4004 13.8086Q20.2051 13.8086 20.0684 13.9502Q19.9316 14.0918 19.9316 14.2676Q19.9316 14.4727 20.0684 14.6094Q20.2051 14.7461 20.4004 14.7461ZM19.6484 16.377Q19.8242 16.377 19.9658 16.2354Q20.1074 16.0938 20.1074 15.8984Q20.1074 15.7129 19.9658 15.5762Q19.8242 15.4395 19.6484 15.4395Q19.4531 15.4395 19.3164 15.5762Q19.1797 15.7129 19.1797 15.8984Q19.1797 16.0938 19.3164 16.2354Q19.4531 16.377 19.6484 16.377ZM18.623 17.8418Q18.8184 17.8418 18.9551 17.7002Q19.0918 17.5586 19.0918 17.373Q19.0918 17.1875 18.9551 17.0459Q18.8184 16.9043 18.623 16.9043Q18.4277 16.9043 18.291 17.0459Q18.1543 17.1875 18.1543 17.373Q18.1543 17.5586 18.291 17.7002Q18.4277 17.8418 18.623 17.8418ZM17.3535 19.1113Q17.5488 19.1113 17.6855 18.9697Q17.8223 18.8281 17.8223 18.6328Q17.8223 18.4473 17.6855 18.3105Q17.5488 18.1738 17.3535 18.1738Q17.1582 18.1738 17.0264 18.3105Q16.8945 18.4473 16.8945 18.6328Q16.8945 18.8281 17.0264 18.9697Q17.1582 19.1113 17.3535 19.1113ZM15.8887 20.1367Q16.0742 20.1367 16.2109 19.9951Q16.3477 19.8535 16.3477 19.668Q16.3477 19.4727 16.2109 19.3359Q16.0742 19.1992 15.8887 19.1992Q15.6934 19.1992 15.5566 19.3359Q15.4199 19.4727 15.4199 19.668Q15.4199 19.8535 15.5566 19.9951Q15.6934 20.1367 15.8887 20.1367ZM14.2676 20.9082Q14.4434 20.9082 14.585 20.7617Q14.7266 20.6152 14.7266 20.4297Q14.7266 20.2344 14.585 20.0977Q14.4434 19.9609 14.2676 19.9609Q14.0625 19.9609 13.9258 20.0977Q13.7891 20.2344 13.7891 20.4297Q13.7891 20.6152 13.9258 20.7617Q14.0625 20.9082 14.2676 20.9082ZM12.5391 21.3574Q12.7246 21.3574 12.8711 21.2158Q13.0176 21.0742 13.0176 20.8789Q13.0176 20.7031 12.8711 20.5664Q12.7246 20.4297 12.5391 20.4297Q12.3438 20.4297 12.207 20.5664Q12.0703 20.7031 12.0703 20.8789Q12.0703 21.0742 12.207 21.2158Q12.3438 21.3574 12.5391 21.3574ZM10.7422 21.5137Q10.9375 21.5137 11.0693 21.377Q11.2012 21.2402 11.2012 21.0449Q11.2012 20.8594 11.0693 20.7227Q10.9375 20.5859 10.7422 20.5859Q10.5566 20.5859 10.415 20.7227Q10.2734 20.8594 10.2734 21.0449Q10.2734 21.2402 10.415 21.377Q10.5566 21.5137 10.7422 21.5137ZM8.94531 21.3574Q9.14062 21.3574 9.27734 21.2158Q9.41406 21.0742 9.41406 20.8789Q9.41406 20.7031 9.27734 20.5664Q9.14062 20.4297 8.94531 20.4297Q8.76953 20.4297 8.62305 20.5664Q8.47656 20.7031 8.47656 20.8789Q8.47656 21.0742 8.62305 21.2158Q8.76953 21.3574 8.94531 21.3574ZM7.2168 20.9082Q7.41211 20.9082 7.54883 20.7617Q7.68555 20.6152 7.68555 20.4297Q7.68555 20.2344 7.54883 20.0977Q7.41211 19.9609 7.2168 19.9609Q7.04102 19.9609 6.89941 20.0977Q6.75781 20.2344 6.75781 20.4297Q6.75781 20.6152 6.89941 20.7617Q7.04102 20.9082 7.2168 20.9082ZM5.5957 20.1367Q5.79102 20.1367 5.93262 19.9951Q6.07422 19.8535 6.07422 19.668Q6.07422 19.4727 5.93262 19.3359Q5.79102 19.1992 5.5957 19.1992Q5.41016 19.1992 5.26855 19.3359Q5.12695 19.4727 5.12695 19.668Q5.12695 19.8535 5.26855 19.9951Q5.41016 20.1367 5.5957 20.1367ZM4.12109 19.1113Q4.32617 19.1113 4.46289 18.9697Q4.59961 18.8281 4.59961 18.6328Q4.59961 18.4473 4.46289 18.3105Q4.32617 18.1738 4.12109 18.1738Q3.94531 18.1738 3.79883 18.3105Q3.65234 18.4473 3.65234 18.6328Q3.65234 18.8281 3.79883 18.9697Q3.94531 19.1113 4.12109 19.1113ZM2.85156 17.8418Q3.04688 17.8418 3.18359 17.7002Q3.32031 17.5586 3.32031 17.373Q3.32031 17.1875 3.18359 17.0459Q3.04688 16.9043 2.85156 16.9043Q2.66602 16.9043 2.5293 17.0459Q2.39258 17.1875 2.39258 17.373Q2.39258 17.5586 2.5293 17.7002Q2.66602 17.8418 2.85156 17.8418ZM1.83594 16.377Q2.02148 16.377 2.16309 16.2354Q2.30469 16.0938 2.30469 15.8984Q2.30469 15.7129 2.16309 15.5762Q2.02148 15.4395 1.83594 15.4395Q1.65039 15.4395 1.50879 15.5762Q1.36719 15.7129 1.36719 15.8984Q1.36719 16.0938 1.50879 16.2354Q1.65039 16.377 1.83594 16.377ZM1.08398 14.7461Q1.2793 14.7461 1.41602 14.6094Q1.55273 14.4727 1.55273 14.2676Q1.55273 14.0918 1.41602 13.9502Q1.2793 13.8086 1.08398 13.8086Q0.888672 13.8086 0.74707 13.9502Q0.605469 14.0918 0.605469 14.2676Q0.605469 14.4727 0.74707 14.6094Q0.888672 14.7461 1.08398 14.7461ZM0.615234 13.0273Q0.810547 13.0273 0.952148 12.8857Q1.09375 12.7441 1.09375 12.5586Q1.09375 12.373 0.952148 12.2314Q0.810547 12.0898 0.615234 12.0898Q0.439453 12.0898 0.297852 12.2314Q0.15625 12.373 0.15625 12.5586Q0.15625 12.7441 0.297852 12.8857Q0.439453 13.0273 0.615234 13.0273ZM0.46875 11.25Q0.664062 11.25 0.800781 11.1133Q0.9375 10.9766 0.9375 10.791Q0.9375 10.5957 0.800781 10.4541Q0.664062 10.3125 0.46875 10.3125Q0.283203 10.3125 0.141602 10.4541Q0 10.5957 0 10.791Q0 10.9766 0.141602 11.1133Q0.283203 11.25 0.46875 11.25ZM0.615234 9.47266Q0.810547 9.47266 0.952148 9.33105Q1.09375 9.18945 1.09375 8.99414Q1.09375 8.80859 0.952148 8.66699Q0.810547 8.52539 0.615234 8.52539Q0.439453 8.52539 0.297852 8.66699Q0.15625 8.80859 0.15625 8.99414Q0.15625 9.18945 0.297852 9.33105Q0.439453 9.47266 0.615234 9.47266ZM1.08398 7.74414Q1.2793 7.74414 1.41602 7.60742Q1.55273 7.4707 1.55273 7.28516Q1.55273 7.08984 1.41602 6.94824Q1.2793 6.80664 1.08398 6.80664Q0.888672 6.80664 0.74707 6.94824Q0.605469 7.08984 0.605469 7.28516Q0.605469 7.4707 0.74707 7.60742Q0.888672 7.74414 1.08398 7.74414ZM1.83594 6.11328Q2.02148 6.11328 2.16309 5.97656Q2.30469 5.83984 2.30469 5.64453Q2.30469 5.45898 2.16309 5.31738Q2.02148 5.17578 1.83594 5.17578Q1.65039 5.17578 1.50879 5.31738Q1.36719 5.45898 1.36719 5.64453Q1.36719 5.83984 1.50879 5.97656Q1.65039 6.11328 1.83594 6.11328ZM2.85156 4.64844Q3.04688 4.64844 3.18359 4.51172Q3.32031 4.375 3.32031 4.18945Q3.32031 3.99414 3.18359 3.85254Q3.04688 3.71094 2.85156 3.71094Q2.66602 3.71094 2.5293 3.85254Q2.39258 3.99414 2.39258 4.18945Q2.39258 4.375 2.5293 4.51172Q2.66602 4.64844 2.85156 4.64844ZM4.12109 3.37891Q4.32617 3.37891 4.46289 3.24219Q4.59961 3.10547 4.59961 2.91992Q4.59961 2.72461 4.46289 2.58301Q4.32617 2.44141 4.12109 2.44141Q3.94531 2.44141 3.79883 2.58301Q3.65234 2.72461 3.65234 2.91992Q3.65234 3.10547 3.79883 3.24219Q3.94531 3.37891 4.12109 3.37891ZM5.5957 2.35352Q5.79102 2.35352 5.93262 2.2168Q6.07422 2.08008 6.07422 1.89453Q6.07422 1.69922 5.93262 1.55762Q5.79102 1.41602 5.5957 1.41602Q5.41016 1.41602 5.26855 1.55762Q5.12695 1.69922 5.12695 1.89453Q5.12695 2.08008 5.26855 2.2168Q5.41016 2.35352 5.5957 2.35352ZM7.2168 1.5918Q7.41211 1.5918 7.54883 1.45508Q7.68555 1.31836 7.68555 1.13281Q7.68555 0.947266 7.54883 0.800781Q7.41211 0.654297 7.2168 0.654297Q7.04102 0.654297 6.89941 0.800781Q6.75781 0.947266 6.75781 1.13281Q6.75781 1.31836 6.89941 1.45508Q7.04102 1.5918 7.2168 1.5918ZM8.94531 1.13281Q9.14062 1.13281 9.27734 0.991211Q9.41406 0.849609 9.41406 0.664062Q9.41406 0.478516 9.27734 0.332031Q9.14062 0.185547 8.94531 0.185547Q8.76953 0.185547 8.62305 0.332031Q8.47656 0.478516 8.47656 0.664062Q8.47656 0.849609 8.62305 0.991211Q8.76953 1.13281 8.94531 1.13281Z"
                     fill="rgba(255,255,255,0.55)" />
       </g>
</svg>