<svg width="19.5898" height="19.5996">
       <g>
              <rect height="19.5996" opacity="0" width="19.5898" x="0" y="0" />
              <path d="M9.79492 19.5898Q11.8066 19.5898 13.5791 18.8232Q15.3516 18.0566 16.7041 16.7041Q18.0566 15.3516 18.8232 13.5791Q19.5898 11.8066 19.5898 9.79492Q19.5898 7.7832 18.8232 6.01074Q18.0566 4.23828 16.7041 2.88574Q15.3516 1.5332 13.5742 0.766602Q11.7969 0 9.78516 0Q7.77344 0 6.00098 0.766602Q4.22852 1.5332 2.88086 2.88574Q1.5332 4.23828 0.766602 6.01074Q0 7.7832 0 9.79492Q0 11.8066 0.766602 13.5791Q1.5332 15.3516 2.88574 16.7041Q4.23828 18.0566 6.01074 18.8232Q7.7832 19.5898 9.79492 19.5898Z"
                     fill="rgba(255,255,255,0.55)" />
              <path d="M12.3145 10.7617L8.71094 7.1582L13.8086 4.74609Q14.1406 4.58984 14.4043 4.6875Q14.668 4.78516 14.7705 5.04883Q14.873 5.3125 14.7168 5.6543ZM4.18945 10.4883Q3.81836 10.4883 3.66699 10.2783Q3.51562 10.0684 3.57422 9.81445Q3.63281 9.56055 3.91602 9.42383L6.62109 8.14453L8.96484 10.4883ZM10.0684 15.5371Q9.94141 15.8105 9.6875 15.874Q9.43359 15.9375 9.21875 15.7861Q9.00391 15.6348 9.00391 15.2637L9.00391 10.5273L11.3281 12.8516ZM14.1211 14.6387L4.95117 5.46875Q4.83398 5.3418 4.8291 5.18066Q4.82422 5.01953 4.95117 4.90234Q5.06836 4.77539 5.22949 4.78027Q5.39062 4.78516 5.51758 4.90234L14.6875 14.0723Q14.8145 14.1797 14.8096 14.3457Q14.8047 14.5117 14.6875 14.6387Q14.5703 14.7559 14.4043 14.7559Q14.2383 14.7559 14.1211 14.6387Z"
                     fill="#ffffff" />
       </g>
</svg>