<svg width="18.4381" height="18.3917">
       <g>
              <rect height="18.3917" opacity="0" width="18.4381" x="0" y="0" />
              <path d="M0.671622 7.69653Q0.340201 7.84576 0.179374 8.08944Q0.0185461 8.33313 0.00199036 8.60008Q-0.0145654 8.86703 0.106589 9.10583Q0.227744 9.34463 0.471732 9.49577Q0.71572 9.64691 1.06744 9.65362L8.63763 9.67682Q8.71651 9.67682 8.74726 9.70916Q8.77801 9.74151 8.77801 9.8172L8.79464 17.3318Q8.79464 17.7031 8.95058 17.9487Q9.10653 18.1943 9.35021 18.3037Q9.59389 18.4131 9.87092 18.3865Q10.1479 18.36 10.3935 18.1804Q10.6391 18.0008 10.792 17.6747L18.2722 1.68182Q18.477 1.23871 18.429 0.879437Q18.381 0.520169 18.141 0.29968Q17.9011 0.07919 17.5317 0.0458496Q17.1624 0.0125091 16.7312 0.214993ZM1.89553 8.48739Q1.85418 8.48739 1.8493 8.45726Q1.84441 8.42712 1.88653 8.40759L16.8945 1.45813Q16.9645 1.42639 16.9991 1.45622Q17.0338 1.48605 17.0022 1.5628L10.0196 16.5549Q10.0039 16.5933 9.97224 16.5854Q9.94057 16.5775 9.94057 16.5392L9.97735 9.07776Q9.97735 8.80096 9.81011 8.62915Q9.64287 8.45733 9.34106 8.45733Z"
                     fill="#0a84ff" />
       </g>
</svg>