<svg width="17.6855" height="17.7051">
       <g>
              <rect height="17.7051" opacity="0" width="17.6855" x="0" y="0" />
              <path d="M2.88086 17.7051L14.8047 17.7051Q16.2305 17.7051 16.958 16.9873Q17.6855 16.2695 17.6855 14.8535L17.6855 2.88086Q17.6855 1.46484 16.958 0.742188Q16.2305 0.0195312 14.8047 0.0195312L2.88086 0.0195312Q1.44531 0.0195312 0.722656 0.737305Q0 1.45508 0 2.88086L0 14.8535Q0 16.2695 0.722656 16.9873Q1.44531 17.7051 2.88086 17.7051ZM2.90039 16.4941Q2.07031 16.4941 1.64062 16.0645Q1.21094 15.6348 1.21094 14.7949L1.21094 2.93945Q1.21094 2.08984 1.64062 1.66016Q2.07031 1.23047 2.90039 1.23047L14.7852 1.23047Q15.5859 1.23047 16.0303 1.66016Q16.4746 2.08984 16.4746 2.93945L16.4746 14.7949Q16.4746 15.6348 16.0303 16.0645Q15.5859 16.4941 14.7852 16.4941Z"
                     fill="#0a84ff" />
              <path d="M3.64258 9.51172L8.04688 9.52148Q8.28125 9.52148 8.28125 9.75586L8.29102 14.1113Q8.29102 14.4727 8.49121 14.6143Q8.69141 14.7559 8.93066 14.6924Q9.16992 14.6289 9.28711 14.375L13.7598 4.87305Q13.9062 4.55078 13.8135 4.30176Q13.7207 4.05273 13.4668 3.95996Q13.2129 3.86719 12.9004 4.01367L3.39844 8.51562Q3.125 8.63281 3.07129 8.87695Q3.01758 9.12109 3.15918 9.31641Q3.30078 9.51172 3.64258 9.51172Z"
                     fill="#0a84ff" />
       </g>
</svg>