<svg width="18.3758" height="18.3378">
       <g>
              <rect height="18.3378" opacity="0" width="18.3758" x="0" y="0" />
              <path d="M1.03871 9.59598L8.6089 9.61917Q8.69816 9.61917 8.73913 9.66006Q8.7801 9.70096 8.7801 9.79022L8.79658 17.3049Q8.79658 17.6627 8.94391 17.8997Q9.09123 18.1366 9.3282 18.2479Q9.56517 18.3593 9.83212 18.3326Q10.0991 18.306 10.3379 18.1332Q10.5767 17.9604 10.7297 17.6343L18.2099 1.64142Q18.4147 1.19815 18.3667 0.852384Q18.3187 0.50662 18.082 0.296277Q17.8453 0.085935 17.4895 0.0544256Q17.1337 0.0229162 16.713 0.221738L0.656476 7.70022Q0.345197 7.84579 0.1862 8.07597Q0.0272038 8.30615 0.00393417 8.56975Q-0.0193355 8.83334 0.0950291 9.06543Q0.209394 9.29751 0.444837 9.44339Q0.68028 9.58926 1.03871 9.59598Z"
                     fill="#0a84ff" />
       </g>
</svg>