<svg width="14.9504" height="20.2921">
       <g>
              <rect height="20.2921" opacity="0" width="14.9504" x="0" y="0" />
              <path d="M0.858612 19.8433Q1.1351 19.8433 1.35742 19.7301Q1.57974 19.6169 1.85638 19.3471L7.35855 13.8847Q7.43057 13.8058 7.47711 13.8058Q7.51984 13.8058 7.59857 13.8847L13.094 19.3471Q13.3707 19.6169 13.593 19.7301Q13.8153 19.8433 14.0918 19.8433Q14.4868 19.8433 14.7186 19.573Q14.9504 19.3027 14.9504 18.9015Q14.9504 18.6946 14.8833 18.459Q14.8163 18.2234 14.7362 17.9964L8.55392 1.00784Q8.36792 0.496521 8.09761 0.24826Q7.8273 0 7.47711 0Q7.12677 0 6.85799 0.24826Q6.5892 0.496521 6.4032 1.00784L0.214233 17.9964Q0.134125 18.2234 0.0670624 18.459Q0 18.6946 0 18.9015Q0 19.3027 0.231705 19.573Q0.463409 19.8433 0.858612 19.8433ZM1.34171 18.226Q1.29898 18.1967 1.32523 18.1119L7.35825 1.65604Q7.40936 1.5152 7.47711 1.5152Q7.54105 1.5152 7.59216 1.65604L13.6252 18.1119Q13.6514 18.1967 13.6154 18.226Q13.5764 18.2516 13.5275 18.2095L7.90787 12.5328Q7.79297 12.421 7.6857 12.3816Q7.57843 12.3422 7.47711 12.3422Q7.37869 12.3422 7.2699 12.3816Q7.1611 12.421 7.04926 12.5328L1.4296 18.2095Q1.38077 18.2516 1.34171 18.226Z"
                     fill="#0a84ff" />
       </g>
</svg>