<svg width="19.5898" height="19.5996">
       <g>
              <rect height="19.5996" opacity="0" width="19.5898" x="0" y="0" />
              <path d="M9.79492 19.5898Q11.8066 19.5898 13.5791 18.8232Q15.3516 18.0566 16.7041 16.7041Q18.0566 15.3516 18.8232 13.5791Q19.5898 11.8066 19.5898 9.79492Q19.5898 7.7832 18.8232 6.01074Q18.0566 4.23828 16.7041 2.88574Q15.3516 1.5332 13.5742 0.766602Q11.7969 0 9.78516 0Q7.77344 0 6.00098 0.766602Q4.22852 1.5332 2.88086 2.88574Q1.5332 4.23828 0.766602 6.01074Q0 7.7832 0 9.79492Q0 11.8066 0.766602 13.5791Q1.5332 15.3516 2.88574 16.7041Q4.23828 18.0566 6.01074 18.8232Q7.7832 19.5898 9.79492 19.5898Z"
                     fill="#0a84ff" />
              <path d="M4.28711 10.4688Q3.93555 10.4688 3.78906 10.2637Q3.64258 10.0586 3.70117 9.81445Q3.75977 9.57031 4.0332 9.44336L13.7305 4.85352Q14.043 4.70703 14.3066 4.7998Q14.5703 4.89258 14.668 5.15137Q14.7656 5.41016 14.6191 5.73242L10.0488 15.4297Q9.93164 15.6836 9.67773 15.752Q9.42383 15.8203 9.21875 15.6738Q9.01367 15.5273 9.01367 15.1562L9.01367 10.7129Q9.01367 10.4688 8.7793 10.4688Z"
                     fill="#ffffff" />
       </g>
</svg>