<svg width="17.6855" height="17.7051">
       <g>
              <rect height="17.7051" opacity="0" width="17.6855" x="0" y="0" />
              <path d="M2.88086 17.7051L14.8047 17.7051Q16.2305 17.7051 16.958 16.9873Q17.6855 16.2695 17.6855 14.8535L17.6855 2.88086Q17.6855 1.46484 16.958 0.742188Q16.2305 0.0195312 14.8047 0.0195312L2.88086 0.0195312Q1.44531 0.0195312 0.722656 0.737305Q0 1.45508 0 2.88086L0 14.8535Q0 16.2695 0.722656 16.9873Q1.44531 17.7051 2.88086 17.7051Z"
                     fill="#0a84ff" />
              <path d="M3.51562 9.54102Q3.16406 9.54102 3.01758 9.33594Q2.87109 9.13086 2.92969 8.88672Q2.98828 8.64258 3.26172 8.51562L12.959 3.92578Q13.2715 3.7793 13.5352 3.87207Q13.7988 3.96484 13.8965 4.22363Q13.9941 4.48242 13.8477 4.80469L9.27734 14.502Q9.16016 14.7559 8.90625 14.8242Q8.65234 14.8926 8.44727 14.7461Q8.24219 14.5996 8.24219 14.2285L8.24219 9.78516Q8.24219 9.54102 8.00781 9.54102Z"
                     fill="#ffffff" />
       </g>
</svg>