<svg width="19.5898" height="19.5996">
       <g>
              <rect height="19.5996" opacity="0" width="19.5898" x="0" y="0" />
              <path d="M9.79492 19.5996Q11.8066 19.5996 13.5791 18.833Q15.3516 18.0664 16.7041 16.7139Q18.0566 15.3613 18.8232 13.5889Q19.5898 11.8164 19.5898 9.80469Q19.5898 7.79297 18.8232 6.02051Q18.0566 4.24805 16.7041 2.89551Q15.3516 1.54297 13.5742 0.776367Q11.7969 0.00976562 9.78516 0.00976562Q7.77344 0.00976562 6.00098 0.776367Q4.22852 1.54297 2.88086 2.89551Q1.5332 4.24805 0.766602 6.02051Q0 7.79297 0 9.80469Q0 11.8164 0.766602 13.5889Q1.5332 15.3613 2.88574 16.7139Q4.23828 18.0664 6.01074 18.833Q7.7832 19.5996 9.79492 19.5996Z"
                     fill="#0a84ff" />
              <path d="M5.41992 14.2188L9.21875 4.42383Q9.33594 4.14062 9.56543 4.04785Q9.79492 3.95508 10.0293 4.04297Q10.2637 4.13086 10.3711 4.4043L14.1797 14.2188Q14.2871 14.502 14.1602 14.7021Q14.0332 14.9023 13.7988 14.9365Q13.5645 14.9707 13.3203 14.7266L10.0195 11.4258Q9.79492 11.2012 9.57031 11.4258L6.2793 14.7266Q6.03516 14.9707 5.7959 14.9365Q5.55664 14.9023 5.43457 14.7021Q5.3125 14.502 5.41992 14.2188Z"
                     fill="#ffffff" />
       </g>
</svg>