<svg width="13.1279" height="25.2167">
       <g>
              <rect height="25.2167" opacity="0" width="13.1279" x="0" y="0" />
              <path d="M0.929718 23.8696Q1.19949 23.8696 1.4592 23.7347Q1.7189 23.5999 1.95435 23.3839L6.34567 19.2946Q6.48453 19.1716 6.56403 19.1716Q6.64352 19.1716 6.77917 19.2946L11.1736 23.3839Q11.4023 23.5999 11.6638 23.7347Q11.9254 23.8696 12.1982 23.8696Q12.5934 23.8696 12.8606 23.5593Q13.1279 23.2489 13.1279 22.8514Q13.1279 22.6341 13.0523 22.3884Q12.9767 22.1426 12.8665 21.8445L7.65121 8.51501Q7.44888 8.01041 7.18155 7.77229Q6.91422 7.53418 6.56403 7.53418Q6.21368 7.53418 5.9449 7.77229Q5.67612 8.01041 5.47363 8.51501L0.258331 21.8445Q0.151215 22.1426 0.0756073 22.3884Q0 22.6341 0 22.8514Q0 23.2489 0.267258 23.5593Q0.534515 23.8696 0.929718 23.8696ZM6.56403 5.89645Q6.8277 5.89645 6.99562 5.72304Q7.16354 5.54962 7.16354 5.23468L7.16354 0.655212Q7.16354 0.346985 6.99562 0.173492Q6.8277 0 6.56403 0Q6.30325 0 6.13045 0.173492Q5.95764 0.346985 5.95764 0.655212L5.95764 5.23468Q5.95764 5.54962 6.13045 5.72304Q6.30325 5.89645 6.56403 5.89645Z"
                     fill="#0a84ff" />
       </g>
</svg>