<svg width="14.9504" height="20.2921">
       <g>
              <rect height="20.2921" opacity="0" width="14.9504" x="0" y="0" />
              <path d="M0.858612 19.8433Q1.1351 19.8433 1.35742 19.7301Q1.57974 19.6169 1.85638 19.3471L7.35855 13.8847Q7.43057 13.8058 7.47711 13.8058Q7.51984 13.8058 7.59857 13.8847L13.094 19.3471Q13.3707 19.6169 13.593 19.7301Q13.8153 19.8433 14.0918 19.8433Q14.4868 19.8433 14.7186 19.573Q14.9504 19.3027 14.9504 18.9015Q14.9504 18.6946 14.8833 18.459Q14.8163 18.2234 14.7362 17.9964L8.55392 1.00784Q8.36792 0.496521 8.09761 0.24826Q7.8273 0 7.47711 0Q7.12677 0 6.85799 0.24826Q6.5892 0.496521 6.4032 1.00784L0.214233 17.9964Q0.134125 18.2234 0.0670624 18.459Q0 18.6946 0 18.9015Q0 19.3027 0.231705 19.573Q0.463409 19.8433 0.858612 19.8433Z"
                     fill="#0a84ff" />
       </g>
</svg>