<svg width="15.6738" height="19.5996">
       <g>
              <rect height="19.5996" opacity="0" width="15.6738" x="0" y="0" />
              <path d="M7.83203 19.5996Q7.96875 19.5996 8.13965 19.5459Q8.31055 19.4922 8.47656 19.4043Q10.5273 18.2617 11.9141 17.3877Q13.3008 16.5137 14.126 15.6934Q14.9512 14.873 15.3125 13.9404Q15.6738 13.0078 15.6738 11.7578L15.6738 4.41406Q15.6738 3.63281 15.3711 3.29102Q15.0684 2.94922 14.3945 2.67578Q13.9844 2.50977 13.4033 2.29004Q12.8223 2.07031 12.1582 1.82129Q11.4941 1.57227 10.835 1.32812Q10.1758 1.08398 9.59473 0.874023Q9.01367 0.664062 8.60352 0.517578Q8.4082 0.458984 8.21777 0.419922Q8.02734 0.380859 7.83203 0.380859Q7.63672 0.380859 7.44629 0.419922Q7.25586 0.458984 7.06055 0.517578Q6.65039 0.673828 6.06934 0.883789Q5.48828 1.09375 4.8291 1.33301Q4.16992 1.57227 3.50586 1.82129Q2.8418 2.07031 2.26074 2.29492Q1.67969 2.51953 1.26953 2.67578Q0.595703 2.93945 0.297852 3.28613Q0 3.63281 0 4.41406L0 11.7578Q0 13.0078 0.371094 13.9258Q0.742188 14.8438 1.57227 15.6396Q2.40234 16.4355 3.78906 17.3193Q5.17578 18.2031 7.1875 19.4043Q7.35352 19.4922 7.52441 19.5459Q7.69531 19.5996 7.83203 19.5996Z"
                     fill="rgba(255,255,255,0.55)" />
              <path d="M4.21875 13.5645L4.21875 9.52148Q4.21875 8.4375 5.16602 8.39844L5.16602 7.12891Q5.16602 5.80078 5.90332 4.99512Q6.64062 4.18945 7.83203 4.18945Q9.02344 4.18945 9.76074 4.99512Q10.498 5.80078 10.498 7.12891L10.498 8.39844Q11.4551 8.4375 11.4551 9.52148L11.4551 13.5645Q11.4551 14.6875 10.4004 14.6875L5.26367 14.6875Q4.21875 14.6875 4.21875 13.5645ZM6.03516 8.39844L9.62891 8.39844L9.62891 7.05078Q9.62891 6.14258 9.13574 5.58594Q8.64258 5.0293 7.83203 5.0293Q7.03125 5.0293 6.5332 5.58594Q6.03516 6.14258 6.03516 7.05078Z"
                     fill="#ffffff" />
       </g>
</svg>