<svg width="19.5898" height="19.5996">
       <g>
              <rect height="19.5996" opacity="0" width="19.5898" x="0" y="0" />
              <path d="M9.79492 19.5996Q11.8066 19.5996 13.5791 18.833Q15.3516 18.0664 16.7041 16.7139Q18.0566 15.3613 18.8232 13.5889Q19.5898 11.8164 19.5898 9.80469Q19.5898 7.79297 18.8232 6.02051Q18.0566 4.24805 16.7041 2.89551Q15.3516 1.54297 13.5742 0.776367Q11.7969 0.00976562 9.78516 0.00976562Q7.77344 0.00976562 6.00098 0.776367Q4.22852 1.54297 2.88086 2.89551Q1.5332 4.24805 0.766602 6.02051Q0 7.79297 0 9.80469Q0 11.8164 0.766602 13.5889Q1.5332 15.3613 2.88574 16.7139Q4.23828 18.0664 6.01074 18.833Q7.7832 19.5996 9.79492 19.5996Z"
                     fill="#98989d" />
              <path d="M6.18164 13.7891L6.18164 9.74609Q6.18164 8.66211 7.12891 8.62305L7.12891 7.35352Q7.12891 6.02539 7.86621 5.21973Q8.60352 4.41406 9.79492 4.41406Q10.9863 4.41406 11.7236 5.21973Q12.4609 6.02539 12.4609 7.35352L12.4609 8.62305Q13.418 8.66211 13.418 9.74609L13.418 13.7891Q13.418 14.9121 12.3633 14.9121L7.22656 14.9121Q6.18164 14.9121 6.18164 13.7891ZM7.99805 8.62305L11.5918 8.62305L11.5918 7.27539Q11.5918 6.36719 11.0986 5.81055Q10.6055 5.25391 9.79492 5.25391Q8.99414 5.25391 8.49609 5.81055Q7.99805 6.36719 7.99805 7.27539Z"
                     fill="#ffffff" />
       </g>
</svg>