<svg width="13.2416" height="19.2618">
       <g>
              <rect height="19.2618" opacity="0" width="13.2416" x="0" y="0" />
              <path d="M2.06345 18.9384L11.1783 18.9384Q12.2115 18.9384 12.7265 18.4132Q13.2416 17.888 13.2416 16.7505L13.2416 9.77676Q13.2416 8.6525 12.7265 8.12737Q12.2115 7.60223 11.1783 7.60223L2.06345 7.60223Q1.03012 7.60223 0.51506 8.12737Q0 8.6525 0 9.77676L0 16.7505Q0 17.888 0.51506 18.4132Q1.03012 18.9384 2.06345 18.9384ZM2.08557 17.8096Q1.63483 17.8096 1.42189 17.5963Q1.20895 17.383 1.20895 16.8306L1.20895 9.70322Q1.20895 9.15085 1.42189 8.94089Q1.63483 8.73093 2.08557 8.73093L11.1627 8.73093Q11.6104 8.73093 11.8215 8.94089Q12.0326 9.15085 12.0326 9.70322L12.0326 16.8306Q12.0326 17.383 11.8215 17.5963Q11.6104 17.8096 11.1627 17.8096ZM1.73492 8.17993L2.94083 8.17993L2.94083 5.19928Q2.94083 3.92349 3.43079 3.01888Q3.92075 2.11426 4.75609 1.63498Q5.59143 1.1557 6.62079 1.1557Q7.65381 1.1557 8.48732 1.63498Q9.32083 2.11426 9.81079 3.01888Q10.3008 3.92349 10.3008 5.19928L10.3008 8.17993L11.5068 8.17993L11.5068 5.31967Q11.5068 4.03046 11.1224 3.03993Q10.7379 2.04941 10.0605 1.37215Q9.38309 0.694885 8.49861 0.347443Q7.61414 0 6.62079 0Q5.62744 0 4.74632 0.347443Q3.8652 0.694885 3.18779 1.37215Q2.51038 2.04941 2.12265 3.03993Q1.73492 4.03046 1.73492 5.31967Z"
                     fill="#98989d" />
       </g>
</svg>