<svg width="20.1562" height="20.7715">
       <g>
              <rect height="20.7715" opacity="0" width="20.1562" x="0" y="0" />
              <path d="M2.8125 20.7617L17.334 20.7617Q18.7305 20.7617 19.4434 20.0488Q20.1562 19.3359 20.1562 17.959L20.1562 7.96875Q20.1562 6.60156 19.4434 5.89355Q18.7305 5.18555 17.334 5.18555L2.8125 5.18555Q1.41602 5.18555 0.708008 5.88867Q0 6.5918 0 7.96875L0 17.959Q0 19.3555 0.708008 20.0586Q1.41602 20.7617 2.8125 20.7617ZM1.96289 3.50586L18.1934 3.50586Q18.1152 2.99805 17.8467 2.71484Q17.5781 2.43164 17.0215 2.43164L3.13477 2.43164Q2.58789 2.43164 2.31445 2.71484Q2.04102 2.99805 1.96289 3.50586ZM3.90625 1.00586L16.25 1.00586Q16.2207 0.517578 15.9473 0.258789Q15.6738 0 15.1465 0L5.00977 0Q4.49219 0 4.21387 0.258789Q3.93555 0.517578 3.90625 1.00586Z"
                     fill="rgba(255,255,255,0.55)" />
              <path d="M6.46484 16.9531L6.46484 12.9102Q6.46484 11.8262 7.41211 11.7871L7.41211 10.5176Q7.41211 9.18945 8.14941 8.38379Q8.88672 7.57812 10.0781 7.57812Q11.2695 7.57812 12.0068 8.38379Q12.7441 9.18945 12.7441 10.5176L12.7441 11.7871Q13.7012 11.8262 13.7012 12.9102L13.7012 16.9531Q13.7012 18.0762 12.6465 18.0762L7.50977 18.0762Q6.46484 18.0762 6.46484 16.9531ZM8.28125 11.7871L11.875 11.7871L11.875 10.4395Q11.875 9.53125 11.3818 8.97461Q10.8887 8.41797 10.0781 8.41797Q9.27734 8.41797 8.7793 8.97461Q8.28125 9.53125 8.28125 10.4395Z"
                     fill="#ffffff" />
       </g>
</svg>