<svg width="13.0621" height="19.2618">
       <g>
              <rect height="19.2618" opacity="0" width="13.0621" x="0" y="0" />
              <path d="M1.85684 18.8741L11.2053 18.8741Q12.1404 18.8741 12.6012 18.3997Q13.0621 17.9254 13.0621 16.9061L13.0621 9.64127Q13.0621 8.62869 12.6012 8.15437Q12.1404 7.68005 11.2053 7.68005L1.98563 7.68005Q1.05423 7.68005 0.527115 8.15773Q0 8.63541 0 9.64127L0 16.9061Q0 17.9254 0.462723 18.3997Q0.925446 18.8741 1.85684 18.8741ZM1.64368 8.17993L2.84958 8.17993L2.84958 5.19928Q2.84958 3.92349 3.33954 3.01888Q3.8295 2.11426 4.66484 1.63498Q5.50018 1.1557 6.52954 1.1557Q7.56561 1.1557 8.3976 1.63498Q9.22958 2.11426 9.71954 3.01888Q10.2095 3.92349 10.2095 5.19928L10.2095 8.17993L11.4185 8.17993L11.4185 5.31967Q11.4185 4.03046 11.0326 3.03993Q10.6467 2.04941 9.96925 1.37215Q9.29184 0.694885 8.40736 0.347443Q7.52289 0 6.52954 0Q5.53925 0 4.6566 0.347443Q3.77396 0.694885 3.09807 1.37215Q2.42218 2.04941 2.03293 3.03993Q1.64368 4.03046 1.64368 5.31967Z"
                     fill="#98989d" />
       </g>
</svg>