<svg width="23.9453" height="19.248">
       <g>
              <rect height="19.248" opacity="0" width="23.9453" x="0" y="0" />
              <path d="M7.50977 19.248L21.0645 19.248Q22.4902 19.248 23.2178 18.5254Q23.9453 17.8027 23.9453 16.3965L23.9453 7.10938Q23.9453 5.70312 23.2178 4.98047Q22.4902 4.25781 21.0645 4.25781L7.50977 4.25781Q6.07422 4.25781 5.35156 4.97559Q4.62891 5.69336 4.62891 7.10938L4.62891 16.3965Q4.62891 17.8125 5.35156 18.5303Q6.07422 19.248 7.50977 19.248ZM7.50977 3.125L19.082 3.125L19.082 2.85156Q19.082 1.44531 18.3545 0.722656Q17.627 0 16.2012 0L2.88086 0Q1.44531 0 0.722656 0.717773Q0 1.43555 0 2.85156L0 12.1387Q0 13.5547 0.722656 14.2725Q1.44531 14.9902 2.88086 14.9902L3.48633 14.9902L3.48633 7.10938Q3.48633 5.84961 3.96484 4.95605Q4.44336 4.0625 5.33691 3.59375Q6.23047 3.125 7.50977 3.125Z"
                     fill="rgba(255,255,255,0.55)" />
              <path d="M10.6738 15.7422L10.6738 11.6992Q10.6738 10.6152 11.6211 10.5762L11.6211 9.30664Q11.6211 7.97852 12.3584 7.17285Q13.0957 6.36719 14.2871 6.36719Q15.4785 6.36719 16.2158 7.17285Q16.9531 7.97852 16.9531 9.30664L16.9531 10.5762Q17.9102 10.6152 17.9102 11.6992L17.9102 15.7422Q17.9102 16.8652 16.8555 16.8652L11.7188 16.8652Q10.6738 16.8652 10.6738 15.7422ZM12.4902 10.5762L16.084 10.5762L16.084 9.22852Q16.084 8.32031 15.5908 7.76367Q15.0977 7.20703 14.2871 7.20703Q13.4863 7.20703 12.9883 7.76367Q12.4902 8.32031 12.4902 9.22852Z"
                     fill="#ffffff" />
       </g>
</svg>