<svg width="16.1473" height="20.8188">
       <g>
              <rect height="20.8188" opacity="0" width="16.1473" x="0" y="0" />
              <path d="M2.85477 20.8188L13.2925 20.8188Q14.7124 20.8188 15.4298 20.0945Q16.1473 19.3703 16.1473 17.9437L16.1473 8.74054L9.16779 8.74054Q7.47955 8.74054 7.47955 7.0462L7.47955 0.00534058L2.85477 0.00534058Q1.44104 0.00534058 0.72052 0.732956Q0 1.46057 0 2.88712L0 17.9437Q0 19.3771 0.717468 20.098Q1.43494 20.8188 2.85477 20.8188ZM9.22424 7.60239L16.015 7.60239Q15.9752 7.35718 15.8035 7.11655Q15.6317 6.87592 15.3558 6.59637L9.62372 0.796967Q9.3576 0.523987 9.10721 0.348892Q8.85681 0.173798 8.6145 0.133972L8.6145 6.99936Q8.6145 7.60239 9.22424 7.60239Z"
                     fill="rgba(255,255,255,0.55)" />
              <path d="M5.10727 17.701L5.10727 14.3797Q5.10727 13.4938 5.8934 13.4601L5.8934 12.4011Q5.8934 11.3228 6.49574 10.6609Q7.09808 9.99893 8.08044 9.99893Q9.06265 9.99893 9.66652 10.6609Q10.2704 11.3228 10.2704 12.4011L10.2704 13.4601Q11.0632 13.4938 11.0632 14.3797L11.0632 17.701Q11.0632 18.6311 10.1857 18.6311L5.97809 18.6311Q5.10727 18.6311 5.10727 17.701ZM6.60828 13.4534L9.55551 13.4534L9.55551 12.3434Q9.55551 11.5965 9.15009 11.1417Q8.74466 10.6868 8.08044 10.6868Q7.41898 10.6868 7.01363 11.1417Q6.60828 11.5965 6.60828 12.3434Z"
                     fill="#ffffff" />
       </g>
</svg>