<svg width="22.8711" height="17.6855">
       <g>
              <rect height="17.6855" opacity="0" width="22.8711" x="0" y="0" />
              <path d="M2.88086 17.6855L19.9902 17.6855Q21.4258 17.6855 22.1484 16.9629Q22.8711 16.2402 22.8711 14.834L22.8711 2.85156Q22.8711 1.44531 22.1484 0.722656Q21.4258 0 19.9902 0L2.88086 0Q1.44531 0 0.722656 0.717773Q0 1.43555 0 2.85156L0 14.834Q0 16.25 0.722656 16.9678Q1.44531 17.6855 2.88086 17.6855Z"
                     fill="rgba(255,255,255,0.55)" />
              <path d="M7.82227 12.832L7.82227 8.78906Q7.82227 7.70508 8.76953 7.66602L8.76953 6.39648Q8.76953 5.06836 9.50684 4.2627Q10.2441 3.45703 11.4355 3.45703Q12.627 3.45703 13.3643 4.2627Q14.1016 5.06836 14.1016 6.39648L14.1016 7.66602Q15.0586 7.70508 15.0586 8.78906L15.0586 12.832Q15.0586 13.9551 14.0039 13.9551L8.86719 13.9551Q7.82227 13.9551 7.82227 12.832ZM9.63867 7.66602L13.2324 7.66602L13.2324 6.31836Q13.2324 5.41016 12.7393 4.85352Q12.2461 4.29688 11.4355 4.29688Q10.6348 4.29688 10.1367 4.85352Q9.63867 5.41016 9.63867 6.31836Z"
                     fill="#ffffff" />
       </g>
</svg>