<svg width="17.6855" height="17.7051">
       <g>
              <rect height="17.7051" opacity="0" width="17.6855" x="0" y="0" />
              <path d="M2.88086 17.7051L14.8047 17.7051Q16.2305 17.7051 16.958 16.9873Q17.6855 16.2695 17.6855 14.8535L17.6855 2.88086Q17.6855 1.46484 16.958 0.742188Q16.2305 0.0195312 14.8047 0.0195312L2.88086 0.0195312Q1.44531 0.0195312 0.722656 0.737305Q0 1.45508 0 2.88086L0 14.8535Q0 16.2695 0.722656 16.9873Q1.44531 17.7051 2.88086 17.7051Z"
                     fill="#98989d" />
              <path d="M5.23438 12.832L5.23438 8.78906Q5.23438 7.70508 6.18164 7.66602L6.18164 6.39648Q6.18164 5.06836 6.91895 4.2627Q7.65625 3.45703 8.84766 3.45703Q10.0391 3.45703 10.7764 4.2627Q11.5137 5.06836 11.5137 6.39648L11.5137 7.66602Q12.4707 7.70508 12.4707 8.78906L12.4707 12.832Q12.4707 13.9551 11.416 13.9551L6.2793 13.9551Q5.23438 13.9551 5.23438 12.832ZM7.05078 7.66602L10.6445 7.66602L10.6445 6.31836Q10.6445 5.41016 10.1514 4.85352Q9.6582 4.29688 8.84766 4.29688Q8.04688 4.29688 7.54883 4.85352Q7.05078 5.41016 7.05078 6.31836Z"
                     fill="#ffffff" />
       </g>
</svg>