<svg width="16.6992" height="21.8848">
       <g>
              <rect height="21.8848" opacity="0" width="16.6992" x="0" y="0" />
              <path d="M2.88086 21.8848L14.0137 21.8848Q15.293 21.8848 15.9961 21.1621Q16.6992 20.4395 16.6992 19.0332L16.6992 8.04688Q16.6992 6.63086 15.9717 5.91309Q15.2441 5.19531 13.8184 5.19531L2.88086 5.19531Q1.44531 5.19531 0.722656 5.91309Q0 6.63086 0 8.04688L0 19.0332Q0 20.4492 0.722656 21.167Q1.44531 21.8848 2.88086 21.8848ZM1.96289 3.51562L14.7266 3.51562Q14.6582 3.01758 14.3848 2.72949Q14.1113 2.44141 13.5547 2.44141L3.13477 2.44141Q2.57812 2.44141 2.30469 2.72949Q2.03125 3.01758 1.96289 3.51562ZM3.57422 1.01562L13.125 1.01562Q13.0957 0.537109 12.8174 0.273438Q12.5391 0.00976562 12.0215 0.00976562L4.66797 0.00976562Q4.15039 0.00976562 3.87207 0.273438Q3.59375 0.537109 3.57422 1.01562Z"
                     fill="rgba(255,255,255,0.55)" />
              <path d="M4.73633 17.5586L4.73633 13.5156Q4.73633 12.4316 5.68359 12.3926L5.68359 11.123Q5.68359 9.79492 6.4209 8.98926Q7.1582 8.18359 8.34961 8.18359Q9.54102 8.18359 10.2783 8.98926Q11.0156 9.79492 11.0156 11.123L11.0156 12.3926Q11.9727 12.4316 11.9727 13.5156L11.9727 17.5586Q11.9727 18.6816 10.918 18.6816L5.78125 18.6816Q4.73633 18.6816 4.73633 17.5586ZM6.55273 12.3926L10.1465 12.3926L10.1465 11.0449Q10.1465 10.1367 9.65332 9.58008Q9.16016 9.02344 8.34961 9.02344Q7.54883 9.02344 7.05078 9.58008Q6.55273 10.1367 6.55273 11.0449Z"
                     fill="#ffffff" />
       </g>
</svg>