<svg width="23.9648" height="17.8223">
       <g>
              <rect height="17.8223" opacity="0" width="23.9648" x="0" y="0" />
              <path d="M18.9062 16.4453Q19.9707 16.4453 20.8936 16.0938Q21.8164 15.7422 22.5049 15.1123Q23.1934 14.4824 23.5791 13.6426Q23.9648 12.8027 23.9648 11.8457Q23.9648 10.8496 23.6084 9.9707Q23.252 9.0918 22.5732 8.41797Q21.8945 7.74414 20.9277 7.38281Q20.9473 5.78125 20.4395 4.43359Q19.9316 3.08594 18.9893 2.08984Q18.0469 1.09375 16.792 0.546875Q15.5371 0 14.0723 0Q12.7441 0 11.6895 0.43457Q10.6348 0.869141 9.83398 1.59668Q9.0332 2.32422 8.49609 3.20312Q7.61719 2.90039 6.74316 3.05664Q5.86914 3.21289 5.14648 3.74023Q4.42383 4.26758 3.98438 5.08301Q3.54492 5.89844 3.54492 6.9043Q2.4707 7.03125 1.66992 7.65137Q0.869141 8.27148 0.43457 9.23828Q0 10.2051 0 11.377Q0 12.4219 0.424805 13.3398Q0.849609 14.2578 1.61133 14.9512Q2.37305 15.6445 3.39844 16.04Q4.42383 16.4355 5.625 16.4355Z"
                     fill="rgba(255,255,255,0.55)" />
              <path d="M8.78906 12.4316L8.78906 8.84766Q8.78906 7.88086 9.62891 7.86133L9.62891 6.72852Q9.62891 5.55664 10.2832 4.83887Q10.9375 4.12109 11.9922 4.12109Q13.0469 4.12109 13.7012 4.83887Q14.3555 5.55664 14.3555 6.72852L14.3555 7.86133Q15.1953 7.88086 15.1953 8.84766L15.1953 12.4316Q15.1953 13.418 14.2676 13.418L9.7168 13.418Q8.78906 13.418 8.78906 12.4316ZM10.4102 7.85156L13.584 7.85156L13.584 6.66016Q13.584 5.84961 13.1445 5.36133Q12.7051 4.87305 11.9922 4.87305Q11.2793 4.87305 10.8447 5.36133Q10.4102 5.84961 10.4102 6.66016Z"
                     fill="#ffffff" />
       </g>
</svg>