<svg width="23.252" height="17.7051">
       <g>
              <rect height="17.7051" opacity="0" width="23.252" x="0" y="0" />
              <path d="M8.05664 0.0195312Q5.22461 0.0195312 3.44727 0.893555Q1.66992 1.76758 0.834961 3.52051Q0 5.27344 0 7.90039L0 14.8535Q0 16.2695 0.722656 16.9873Q1.44531 17.7051 2.88086 17.7051L20.3711 17.7051Q21.8066 17.7051 22.5293 16.9873Q23.252 16.2695 23.252 14.8535L23.252 7.90039Q23.252 5.27344 22.4219 3.52051Q21.5918 1.76758 19.8145 0.893555Q18.0371 0.0195312 15.2051 0.0195312Z"
                     fill="rgba(255,255,255,0.55)" />
              <path d="M6.45508 13.3594Q6.16211 13.3594 6.00098 13.1689Q5.83984 12.9785 5.83984 12.6758L5.83984 4.9707Q5.83984 4.66797 6.00098 4.47266Q6.16211 4.27734 6.45508 4.27734Q6.75781 4.27734 6.92383 4.46289Q7.08984 4.64844 7.08984 4.9707L7.08984 12.3145L11.1035 12.3145Q11.3379 12.3145 11.4893 12.4561Q11.6406 12.5977 11.6406 12.8418Q11.6406 13.0762 11.4893 13.2178Q11.3379 13.3594 11.1035 13.3594ZM15.1074 13.457Q14.8145 13.457 14.6533 13.2666Q14.4922 13.0762 14.4922 12.7637L14.4922 5.41992L11.9336 5.41992Q11.6992 5.41992 11.5479 5.27832Q11.3965 5.13672 11.3965 4.89258Q11.3965 4.6582 11.5479 4.52148Q11.6992 4.38477 11.9336 4.38477L18.3398 4.38477Q18.5742 4.38477 18.7256 4.52148Q18.877 4.6582 18.877 4.89258Q18.877 5.13672 18.7256 5.27832Q18.5742 5.41992 18.3398 5.41992L15.7324 5.41992L15.7324 12.7637Q15.7324 13.0859 15.5713 13.2715Q15.4102 13.457 15.1074 13.457Z"
                     fill="#ffffff" />
       </g>
</svg>