<svg width="27.4638" height="20.1855">
       <g>
              <rect height="20.1855" opacity="0" width="27.4638" x="0" y="0" />
              <path d="M3.63783 19.873L7.88587 19.0527Q9.4972 18.7305 10.2296 17.8223Q10.962 16.9141 10.962 15.1855L10.962 3.36914Q10.962 2.35352 10.5275 1.59668Q10.0929 0.839844 9.29701 0.419922Q8.50111 0 7.43666 0Q6.089 0 5.02943 0.878906Q3.96986 1.75781 3.57923 3.20312L0.17103 16.1523Q-0.180532 17.4902 0.190562 18.4033Q0.561655 19.3164 1.46986 19.7168Q2.37806 20.1172 3.63783 19.873ZM9.76087 3.36914L9.76087 15.1855Q9.76087 16.4746 9.30189 17.0508Q8.84291 17.627 7.6515 17.8516L3.35462 18.6816Q2.64173 18.8281 2.11439 18.5889Q1.58705 18.3496 1.36244 17.793Q1.13783 17.2363 1.35267 16.4453L4.76087 3.50586Q5.04408 2.4707 5.7765 1.83594Q6.50892 1.20117 7.43666 1.20117Q8.47181 1.20117 9.11634 1.80176Q9.76087 2.40234 9.76087 3.36914ZM23.8331 19.873Q25.0831 20.1172 25.9913 19.7168Q26.8995 19.3164 27.2706 18.4033Q27.6417 17.4902 27.2999 16.1523L23.882 3.20312Q23.5011 1.75781 22.4415 0.878906Q21.382 0 20.0245 0Q18.9601 0 18.1691 0.419922Q17.3781 0.839844 16.9386 1.59668Q16.4992 2.35352 16.4992 3.36914L16.4992 15.1855Q16.4992 16.9141 17.2316 17.8223Q17.964 18.7305 19.5851 19.0527ZM17.7101 3.36914Q17.7101 2.40234 18.3546 1.80176Q18.9992 1.20117 20.0245 1.20117Q20.9523 1.20117 21.6896 1.83594Q22.4269 2.4707 22.7003 3.50586L26.1183 16.4453Q26.3234 17.2363 26.0988 17.793Q25.8742 18.3496 25.3468 18.5889Q24.8195 18.8281 24.1066 18.6816L19.8097 17.8516Q18.6183 17.627 18.1642 17.0508Q17.7101 16.4746 17.7101 15.1855Z"
                     fill="#5ac8f5" />
              <path d="M10.962 13.7695L10.962 12.5391L9.5558 12.8418L6.26478 9.86328Q6.089 9.70703 5.82533 9.7168Q5.56166 9.72656 5.40541 9.90234Q5.23939 10.0879 5.25404 10.3418Q5.26869 10.5957 5.45423 10.752L8.12025 13.1348L4.79017 13.8574Q4.5558 13.8965 4.41419 14.1064Q4.27259 14.3164 4.32142 14.5605Q4.37025 14.7949 4.58998 14.9316Q4.8097 15.0684 5.04408 15.0195ZM16.5089 12.5391L16.5089 13.7695L22.4269 15.0195Q22.6613 15.0684 22.881 14.9316Q23.1007 14.7949 23.1495 14.5605Q23.1984 14.3164 23.0617 14.1064Q22.9249 13.8965 22.6906 13.8574L19.3605 13.1348L22.0265 10.752Q22.2023 10.5957 22.2169 10.3418Q22.2316 10.0879 22.0656 9.90234Q21.9093 9.72656 21.6456 9.7168Q21.382 9.70703 21.216 9.86328L17.9152 12.8418Z"
                     fill="rgba(90,200,245,0.5)" />
              <path d="M16.4992 13.7695L16.4992 12.5391L14.3312 12.0703L14.3312 1.10352Q14.3312 0.849609 14.1554 0.673828Q13.9796 0.498047 13.7355 0.498047Q13.4913 0.498047 13.3107 0.673828Q13.13 0.849609 13.13 1.10352L13.13 12.0703L10.962 12.5391L10.962 13.7695L13.7355 13.1738Z"
                     fill="rgba(255,255,255,0.25)" />
       </g>
</svg>