<svg width="26.5463" height="19.9121">
       <g>
              <rect height="19.9121" opacity="0" width="26.5463" x="0" y="0" />
              <path d="M3.47333 19.5996L7.5456 18.7988Q9.1081 18.5059 9.80146 17.6367Q10.4948 16.7676 10.4948 15.1074L10.4948 3.23242Q10.4948 2.25586 10.0798 1.52832Q9.66474 0.800781 8.90302 0.400391Q8.1413 0 7.12567 0Q5.83661 0 4.81122 0.844727Q3.78583 1.68945 3.44403 3.07617L0.153018 16.0352Q-0.169247 17.3145 0.187198 18.1934Q0.543643 19.0723 1.4079 19.4482Q2.27216 19.8242 3.47333 19.5996ZM23.0729 19.5996Q24.2741 19.8242 25.1384 19.4482Q26.0026 19.0723 26.3591 18.1934Q26.7155 17.3145 26.3933 16.0352L23.112 3.07617Q22.7507 1.68945 21.7302 0.844727Q20.7097 0 19.4206 0Q18.3952 0 17.6384 0.400391Q16.8815 0.800781 16.4616 1.52832Q16.0417 2.25586 16.0417 3.23242L16.0417 15.1074Q16.0417 16.7676 16.7399 17.6367Q17.4382 18.5059 18.9909 18.7988Z"
                     fill="#5ac8f5" />
              <path d="M4.57685 14.8828Q4.34247 14.9316 4.12274 14.7949Q3.90302 14.6582 3.85419 14.4238Q3.80536 14.1797 3.94696 13.9697Q4.08857 13.7598 4.32294 13.7207L7.65302 12.998L4.987 10.6152Q4.80146 10.459 4.78681 10.2051Q4.77216 9.95117 4.93817 9.76562Q5.09442 9.58984 5.3581 9.58008Q5.62177 9.57031 5.79755 9.72656L9.08857 12.7051L10.4948 12.4023L10.4948 13.6328ZM16.0417 13.6328L16.0417 12.4023L17.4479 12.7051L20.7487 9.72656Q20.9147 9.57031 21.1784 9.58008Q21.4421 9.58984 21.5983 9.76562Q21.7643 9.95117 21.7497 10.2051Q21.735 10.459 21.5593 10.6152L18.8933 12.998L22.2233 13.7207Q22.4577 13.7598 22.5944 13.9697Q22.7311 14.1797 22.6823 14.4238Q22.6335 14.6582 22.4138 14.7949Q22.194 14.9316 21.9597 14.8828Z"
                     fill="rgba(255,255,255,0.6)" />
              <path d="M16.0319 12.4023L16.0319 13.6328L13.2683 13.0371L10.4948 13.6328L10.4948 12.4023L12.6628 11.9336L12.6628 0.966797Q12.6628 0.712891 12.8434 0.537109Q13.0241 0.361328 13.2683 0.361328Q13.5124 0.361328 13.6882 0.537109Q13.864 0.712891 13.864 0.966797L13.864 11.9336Z"
                     fill="rgba(255,255,255,0.25)" />
       </g>
</svg>