<svg width="19.5898" height="19.5996">
       <g>
              <rect height="19.5996" opacity="0" width="19.5898" x="0" y="0" />
              <path d="M9.79492 19.5898Q11.8066 19.5898 13.5791 18.8232Q15.3516 18.0566 16.7041 16.7041Q18.0566 15.3516 18.8232 13.5791Q19.5898 11.8066 19.5898 9.79492Q19.5898 7.7832 18.8232 6.01074Q18.0566 4.23828 16.7041 2.88574Q15.3516 1.5332 13.5742 0.766602Q11.7969 0 9.78516 0Q7.77344 0 6.00098 0.766602Q4.22852 1.5332 2.88086 2.88574Q1.5332 4.23828 0.766602 6.01074Q0 7.7832 0 9.79492Q0 11.8066 0.766602 13.5791Q1.5332 15.3516 2.88574 16.7041Q4.23828 18.0566 6.01074 18.8232Q7.7832 19.5898 9.79492 19.5898Z"
                     fill="rgba(255,255,255,0.55)" />
              <path d="M5.94727 14.3652Q5.38086 14.3652 5.38086 13.7402L5.38086 5.9082Q5.38086 5.56641 5.5957 5.35645Q5.81055 5.14648 6.15234 5.14648Q6.73828 5.14648 6.96289 5.70312L9.75586 12.7148L9.81445 12.7148L12.6074 5.70312Q12.8418 5.14648 13.418 5.14648Q13.7598 5.14648 13.9697 5.35645Q14.1797 5.56641 14.1797 5.9082L14.1797 13.7402Q14.1797 14.0332 14.0283 14.1992Q13.877 14.3652 13.6035 14.3652Q13.3496 14.3652 13.1982 14.1992Q13.0469 14.0332 13.0469 13.7402L13.0469 7.30469L12.9688 7.30469L10.4199 13.7012Q10.2441 14.1406 9.77539 14.1406Q9.32617 14.1406 9.13086 13.7012L6.5918 7.30469L6.52344 7.30469L6.52344 13.7402Q6.52344 14.0332 6.37207 14.1992Q6.2207 14.3652 5.94727 14.3652Z"
                     fill="#ffffff" />
       </g>
</svg>