<svg width="17.6855" height="17.7051">
       <g>
              <rect height="17.7051" opacity="0" width="17.6855" x="0" y="0" />
              <path d="M2.88086 17.7051L14.8047 17.7051Q16.2305 17.7051 16.958 16.9873Q17.6855 16.2695 17.6855 14.8535L17.6855 2.88086Q17.6855 1.46484 16.958 0.742188Q16.2305 0.0195312 14.8047 0.0195312L2.88086 0.0195312Q1.44531 0.0195312 0.722656 0.737305Q0 1.45508 0 2.88086L0 14.8535Q0 16.2695 0.722656 16.9873Q1.44531 17.7051 2.88086 17.7051Z"
                     fill="rgba(255,255,255,0.55)" />
              <path d="M5.00977 13.418Q4.44336 13.418 4.44336 12.793L4.44336 4.96094Q4.44336 4.61914 4.6582 4.40918Q4.87305 4.19922 5.21484 4.19922Q5.80078 4.19922 6.02539 4.75586L8.81836 11.7676L8.87695 11.7676L11.6699 4.75586Q11.9043 4.19922 12.4805 4.19922Q12.8223 4.19922 13.0322 4.40918Q13.2422 4.61914 13.2422 4.96094L13.2422 12.793Q13.2422 13.0859 13.0908 13.252Q12.9395 13.418 12.666 13.418Q12.4121 13.418 12.2607 13.252Q12.1094 13.0859 12.1094 12.793L12.1094 6.35742L12.0312 6.35742L9.48242 12.7539Q9.30664 13.1934 8.83789 13.1934Q8.38867 13.1934 8.19336 12.7539L5.6543 6.35742L5.58594 6.35742L5.58594 12.793Q5.58594 13.0859 5.43457 13.252Q5.2832 13.418 5.00977 13.418Z"
                     fill="#ffffff" />
       </g>
</svg>