<svg width="23.9458" height="19.2548">
       <g>
              <rect height="19.2548" opacity="0" width="23.9458" x="0" y="0" />
              <path d="M2.87872 14.9966L4.88342 14.9966L4.88342 13.7906L2.90131 13.7906Q2.07504 13.7906 1.642 13.3595Q1.20895 12.9283 1.20895 12.085L1.20895 2.92389Q1.20895 2.07733 1.642 1.64436Q2.07504 1.2114 2.90131 1.2114L16.1696 1.2114Q16.9771 1.2114 17.4244 1.64436Q17.8717 2.07733 17.8717 2.92389L17.8717 4.92493L19.0807 4.92493L19.0807 2.85721Q19.0807 1.4502 18.353 0.726318Q17.6254 0.00244141 16.1989 0.00244141L2.87872 0.00244141Q1.44836 0.00244141 0.724182 0.71991Q0 1.43738 0 2.85721L0 12.1419Q0 13.5617 0.724182 14.2792Q1.44836 14.9966 2.87872 14.9966Z"
                     fill="rgba(255,255,255,0.55)" />
              <path d="M7.5061 19.2548L21.064 19.2548Q22.4905 19.2548 23.2182 18.5327Q23.9458 17.8107 23.9458 16.4L23.9458 7.11227Q23.9458 5.70831 23.2182 4.98291Q22.4905 4.25751 21.064 4.25751L7.5061 4.25751Q6.07285 4.25751 5.34866 4.9765Q4.62448 5.6955 4.62448 7.11227L4.62448 16.4Q4.62448 17.8168 5.34866 18.5358Q6.07285 19.2548 7.5061 19.2548ZM5.83344 8.90457L22.7367 8.90457L22.7367 16.34Q22.7367 17.1864 22.2909 17.6161Q21.8451 18.0458 21.0378 18.0458L7.52563 18.0458Q6.69937 18.0458 6.2664 17.6161Q5.83344 17.1864 5.83344 16.34ZM7.48703 7.36115Q7.16507 7.36115 6.93687 7.12624Q6.70868 6.89133 6.70868 6.58585Q6.70868 6.2706 6.93687 6.03569Q7.16507 5.80078 7.48703 5.80078Q7.80899 5.80078 8.03566 6.03569Q8.26233 6.2706 8.26233 6.58585Q8.26233 6.89133 8.03566 7.12624Q7.80899 7.36115 7.48703 7.36115ZM10.0566 7.36115Q9.73465 7.36115 9.50798 7.12776Q9.28131 6.89438 9.28131 6.58585Q9.28131 6.2706 9.50798 6.03569Q9.73465 5.80078 10.0566 5.80078Q10.3786 5.80078 10.6068 6.03569Q10.835 6.2706 10.835 6.58585Q10.835 6.89438 10.6068 7.12776Q10.3786 7.36115 10.0566 7.36115ZM12.6263 7.35809Q12.3073 7.35809 12.0792 7.12624Q11.851 6.89438 11.851 6.58585Q11.851 6.2706 12.0792 6.03569Q12.3073 5.80078 12.6263 5.80078Q12.9483 5.80078 13.1764 6.03569Q13.4045 6.2706 13.4045 6.58585Q13.4045 6.89438 13.1764 7.12624Q12.9483 7.35809 12.6263 7.35809Z"
                     fill="rgba(255,255,255,0.55)" />
       </g>
</svg>