<svg width="22.8699" height="17.7075">
       <g>
              <rect height="17.7075" opacity="0" width="22.8699" x="0" y="0" />
              <path d="M0 14.8528Q0 16.2726 0.724182 16.9901Q1.44836 17.7075 2.87872 17.7075L19.9883 17.7075Q21.4282 17.7075 22.149 16.987Q22.8699 16.2665 22.8699 14.8528L22.8699 2.8804Q22.8699 1.46667 22.149 0.746155Q21.4282 0.0256348 19.9883 0.0256348L2.87872 0.0256348Q1.44836 0.0256348 0.724182 0.743103Q0 1.46057 0 2.8804ZM1.20895 14.7928L1.20895 4.66599L21.6609 4.66599L21.6609 14.7928Q21.6609 15.6392 21.2185 16.0688Q20.7761 16.4984 19.9687 16.4984L2.90131 16.4984Q2.07504 16.4984 1.642 16.0688Q1.20895 15.6392 1.20895 14.7928Z"
                     fill="rgba(255,255,255,0.25)" />
              <path d="M2.86255 3.12256Q2.54059 3.12256 2.31247 2.88612Q2.08435 2.64969 2.08435 2.34436Q2.08435 2.03888 2.31247 1.80397Q2.54059 1.56906 2.86255 1.56906Q3.18161 1.56906 3.41309 1.80397Q3.64456 2.03888 3.64456 2.34436Q3.64456 2.64969 3.41309 2.88612Q3.18161 3.12256 2.86255 3.12256Z"
                     fill="#ff453a" />
              <path d="M5.43228 3.12256Q5.11032 3.12256 4.88213 2.89101Q4.65393 2.65945 4.65393 2.34436Q4.65393 2.03888 4.88213 1.80397Q5.11032 1.56906 5.43228 1.56906Q5.75424 1.56906 5.98427 1.80397Q6.21429 2.03888 6.21429 2.34436Q6.21429 2.65945 5.98427 2.89101Q5.75424 3.12256 5.43228 3.12256Z"
                     fill="#ffd60a" />
              <path d="M8.00186 3.11951Q7.6799 3.11951 7.45323 2.88948Q7.22656 2.65945 7.22656 2.34436Q7.22656 2.03888 7.45323 1.80397Q7.6799 1.56906 8.00186 1.56906Q8.32382 1.56906 8.55202 1.80397Q8.78021 2.03888 8.78021 2.34436Q8.78021 2.65945 8.55202 2.88948Q8.32382 3.11951 8.00186 3.11951Z"
                     fill="#32d74b" />
              <path d="M1.20895 14.7928L1.20895 4.66599L21.6609 4.66599L21.6609 14.7928Q21.6609 15.6392 21.2185 16.0688Q20.7761 16.4984 19.9687 16.4984L2.90131 16.4984Q2.07504 16.4984 1.642 16.0688Q1.20895 15.6392 1.20895 14.7928Z"
                     fill="rgba(255,255,255,0.125)" />
       </g>
</svg>