<svg width="19.5898" height="19.5996">
       <g>
              <rect height="19.5996" opacity="0" width="19.5898" x="0" y="0" />
              <path d="M9.79492 19.5898Q11.8066 19.5898 13.5791 18.8232Q15.3516 18.0566 16.7041 16.7041Q18.0566 15.3516 18.8232 13.5791Q19.5898 11.8066 19.5898 9.79492Q19.5898 7.7832 18.8232 6.01074Q18.0566 4.23828 16.7041 2.88574Q15.3516 1.5332 13.5742 0.766602Q11.7969 0 9.78516 0Q7.77344 0 6.00098 0.766602Q4.22852 1.5332 2.88086 2.88574Q1.5332 4.23828 0.766602 6.01074Q0 7.7832 0 9.79492Q0 11.8066 0.766602 13.5791Q1.5332 15.3516 2.88574 16.7041Q4.23828 18.0566 6.01074 18.8232Q7.7832 19.5898 9.79492 19.5898Z"
                     fill="rgba(255,255,255,0.55)" />
              <path d="M8.69141 12.7148Q7.56836 12.7148 6.64062 12.1582Q5.71289 11.6016 5.16113 10.6787Q4.60938 9.75586 4.60938 8.63281Q4.60938 7.50977 5.16113 6.57715Q5.71289 5.64453 6.64062 5.09277Q7.56836 4.54102 8.69141 4.54102Q9.81445 4.54102 10.7422 5.09277Q11.6699 5.64453 12.2217 6.57227Q12.7734 7.5 12.7734 8.63281Q12.7734 9.30664 12.5635 9.91699Q12.3535 10.5273 11.9824 11.0254L14.7363 13.7988Q14.8438 13.9062 14.9072 14.0332Q14.9707 14.1602 14.9707 14.3066Q14.9707 14.5996 14.79 14.7949Q14.6094 14.9902 14.3066 14.9902Q13.9746 14.9902 13.7305 14.7266L10.9863 11.9922Q10.498 12.3242 9.91699 12.5195Q9.33594 12.7148 8.69141 12.7148ZM8.69141 11.6406Q9.52148 11.6406 10.2002 11.2305Q10.8789 10.8203 11.2891 10.1367Q11.6992 9.45312 11.6992 8.63281Q11.6992 7.79297 11.2891 7.11426Q10.8789 6.43555 10.2002 6.02539Q9.52148 5.61523 8.69141 5.61523Q7.87109 5.61523 7.1875 6.02539Q6.50391 6.43555 6.09375 7.11914Q5.68359 7.80273 5.68359 8.63281Q5.68359 9.45312 6.09375 10.1367Q6.50391 10.8203 7.1875 11.2305Q7.87109 11.6406 8.69141 11.6406Z"
                     fill="#ffffff" />
       </g>
</svg>