<svg width="24.9414" height="19.6655">
       <g>
              <rect height="19.6655" opacity="0" width="24.9414" x="0" y="0" />
              <path d="M18.855 9.85916Q19.4897 9.85916 20.022 9.5433Q20.5542 9.22745 20.8667 8.69858Q21.1792 8.16971 21.1792 7.51541Q21.1792 6.87088 20.8667 6.33865Q20.5542 5.80643 20.022 5.48904Q19.4897 5.17166 18.855 5.17166Q18.2007 5.17166 17.6685 5.48904Q17.1362 5.80643 16.8237 6.33865Q16.5112 6.87088 16.5112 7.51541Q16.5112 8.16971 16.8237 8.69858Q17.1362 9.22745 17.6685 9.5433Q18.2007 9.85916 18.855 9.85916ZM22.0598 1.00464L10.6316 1.00464L10.6316 2.21359L22.0335 2.21359Q22.8409 2.21359 23.2867 2.64328Q23.7325 3.07297 23.7325 3.91937L23.7325 15.7718Q23.7325 16.6182 23.2867 17.0478Q22.8409 17.4774 22.0335 17.4774L19.6132 17.4774Q19.841 17.7234 19.9597 18.0348Q20.0784 18.3463 20.0784 18.6865L22.0598 18.6865Q23.493 18.6865 24.2172 17.966Q24.9414 17.2455 24.9414 15.8318L24.9414 3.85941Q24.9414 2.44568 24.2172 1.72516Q23.493 1.00464 22.0598 1.00464ZM4.97284 17.4774Q4.14658 17.4774 3.71017 17.0478Q3.27377 16.6182 3.27377 15.7718L3.27377 12.6198L2.06482 12.6198L2.06482 15.8318Q2.06482 17.2516 2.79243 17.9691Q3.52005 18.6865 4.94659 18.6865L15.7344 18.6865L14.5255 17.4774Z"
                     fill="rgba(255,255,255,0.55)" />
              <path d="M0 7.85934Q0 9.4252 0.590286 10.7985Q1.18057 12.1718 2.22458 13.2172Q3.26859 14.2627 4.64188 14.8515Q6.01517 15.4404 7.58102 15.4404Q8.86948 15.4404 10.026 15.0331Q11.1826 14.6259 12.1304 13.9059L17.6065 19.391Q17.746 19.5274 17.9132 19.5965Q18.0804 19.6655 18.2755 19.6655Q18.5561 19.6655 18.766 19.5384Q18.976 19.4113 19.0919 19.193Q19.2078 18.9748 19.2078 18.7131Q19.2078 18.524 19.1399 18.3534Q19.0721 18.1828 18.9467 18.0576L13.4909 12.5851Q14.2731 11.6177 14.7176 10.4105Q15.162 9.20334 15.162 7.85934Q15.162 6.29639 14.5718 4.9231Q13.9815 3.5498 12.9394 2.50435Q11.8973 1.45889 10.5221 0.870132Q9.14688 0.281372 7.58102 0.281372Q6.01517 0.281372 4.64188 0.870132Q3.26859 1.45889 2.22458 2.50435Q1.18057 3.5498 0.590286 4.9231Q0 6.29639 0 7.85934ZM1.27335 7.85934Q1.27335 6.55655 1.76544 5.41328Q2.25754 4.27002 3.12462 3.40111Q3.9917 2.5322 5.13344 2.04193Q6.27518 1.55167 7.58102 1.55167Q8.88687 1.55167 10.0286 2.04193Q11.1703 2.5322 12.0393 3.40111Q12.9082 4.27002 13.3984 5.41328Q13.8887 6.55655 13.8887 7.85934Q13.8887 9.16519 13.3984 10.3069Q12.9082 11.4485 12.0393 12.3157Q11.1703 13.1828 10.0286 13.6765Q8.88687 14.1701 7.58102 14.1701Q6.27518 14.1701 5.13344 13.6765Q3.9917 13.1828 3.12462 12.3157Q2.25754 11.4485 1.76544 10.3069Q1.27335 9.16519 1.27335 7.85934ZM4.41879 7.15927L10.7434 7.15927Q10.9697 7.15927 11.1241 6.99814Q11.2785 6.83701 11.2785 6.61438Q11.2785 6.39465 11.1241 6.24023Q10.9697 6.08582 10.7434 6.08582L4.41879 6.08582Q4.1893 6.08582 4.03976 6.24023Q3.89023 6.39465 3.89023 6.61438Q3.89023 6.83701 4.03976 6.99814Q4.1893 7.15927 4.41879 7.15927ZM4.41879 9.63593L8.99033 9.63593Q9.21295 9.63593 9.3708 9.48143Q9.52866 9.32693 9.52866 9.10736Q9.52866 8.88474 9.3708 8.72353Q9.21295 8.56232 8.99033 8.56232L4.41879 8.56232Q4.1893 8.56232 4.03976 8.72353Q3.89023 8.88474 3.89023 9.10736Q3.89023 9.32693 4.03976 9.48143Q4.1893 9.63593 4.41879 9.63593Z"
                     fill="rgba(255,255,255,0.55)" />
       </g>
</svg>