<svg width="19.5898" height="19.5996">
       <g>
              <rect height="19.5996" opacity="0" width="19.5898" x="0" y="0" />
              <path d="M9.79492 19.5898Q11.8066 19.5898 13.5791 18.8232Q15.3516 18.0566 16.7041 16.7041Q18.0566 15.3516 18.8232 13.5791Q19.5898 11.8066 19.5898 9.79492Q19.5898 7.7832 18.8232 6.01074Q18.0566 4.23828 16.7041 2.88574Q15.3516 1.5332 13.5742 0.766602Q11.7969 0 9.78516 0Q7.77344 0 6.00098 0.766602Q4.22852 1.5332 2.88086 2.88574Q1.5332 4.23828 0.766602 6.01074Q0 7.7832 0 9.79492Q0 11.8066 0.766602 13.5791Q1.5332 15.3516 2.88574 16.7041Q4.23828 18.0566 6.01074 18.8232Q7.7832 19.5898 9.79492 19.5898Z"
                     fill="rgba(255,255,255,0.55)" />
              <path d="M4.44336 14.1699L4.44336 7.04102Q4.44336 6.80664 4.54102 6.64551Q4.63867 6.48438 4.83398 6.36719L7.37305 4.88281Q7.45117 4.84375 7.53418 4.80469Q7.61719 4.76562 7.68555 4.73633L7.68555 13.291L5.33203 14.5801Q5.22461 14.6387 5.13184 14.668Q5.03906 14.6973 4.95117 14.6973Q4.7168 14.6973 4.58008 14.5605Q4.44336 14.4238 4.44336 14.1699ZM8.29102 13.2422L8.29102 4.6875Q8.37891 4.70703 8.45703 4.73633Q8.53516 4.76562 8.61328 4.81445L11.1914 6.37695L11.1914 14.8828Q11.1426 14.873 11.0791 14.8486Q11.0156 14.8242 10.9473 14.7852ZM11.8066 14.8633L11.8066 6.31836L14.2188 5Q14.4043 4.88281 14.5996 4.88281Q14.834 4.88281 14.9658 5.01465Q15.0977 5.14648 15.0977 5.41016L15.0977 12.5488Q15.0977 12.7734 15.0049 12.9346Q14.9121 13.0957 14.707 13.2129L11.9922 14.7852Q11.9043 14.834 11.8066 14.8633Z"
                     fill="#ffffff" />
       </g>
</svg>