<svg width="17.6855" height="17.7051">
       <g>
              <rect height="17.7051" opacity="0" width="17.6855" x="0" y="0" />
              <path d="M2.88086 17.7051L14.8047 17.7051Q16.2305 17.7051 16.958 16.9873Q17.6855 16.2695 17.6855 14.8535L17.6855 2.88086Q17.6855 1.46484 16.958 0.742188Q16.2305 0.0195312 14.8047 0.0195312L2.88086 0.0195312Q1.44531 0.0195312 0.722656 0.737305Q0 1.45508 0 2.88086L0 14.8535Q0 16.2695 0.722656 16.9873Q1.44531 17.7051 2.88086 17.7051Z"
                     fill="#ff453a" />
              <path d="M6.72852 4.95117Q6.72852 4.36523 7.0166 3.88672Q7.30469 3.4082 7.7832 3.12012Q8.26172 2.83203 8.84766 2.83203Q9.43359 2.83203 9.91211 3.12012Q10.3906 3.4082 10.6787 3.88672Q10.9668 4.36523 10.9668 4.95117Q10.9668 5.69336 10.5127 6.25Q10.0586 6.80664 9.38477 6.98242L9.38477 12.7051Q9.38477 13.3594 9.32129 13.8867Q9.25781 14.4141 9.14062 14.7168Q9.02344 15.0195 8.84766 15.0195Q8.67188 15.0195 8.5498 14.7119Q8.42773 14.4043 8.36426 13.877Q8.30078 13.3496 8.30078 12.7051L8.30078 6.98242Q7.62695 6.80664 7.17773 6.24512Q6.72852 5.68359 6.72852 4.95117ZM7.60742 4.4043Q7.61719 4.67773 7.82715 4.8877Q8.03711 5.09766 8.30078 5.09766Q8.58398 5.09766 8.78418 4.8877Q8.98438 4.67773 8.98438 4.4043Q8.98438 4.13086 8.78418 3.9209Q8.58398 3.71094 8.30078 3.71094Q8.03711 3.71094 7.82227 3.9209Q7.60742 4.13086 7.60742 4.4043Z"
                     fill="#ffffff" />
       </g>
</svg>