<svg width="17.6855" height="17.7051">
       <g>
              <rect height="17.7051" opacity="0" width="17.6855" x="0" y="0" />
              <path d="M2.88086 17.7051L14.8047 17.7051Q16.2305 17.7051 16.958 16.9873Q17.6855 16.2695 17.6855 14.8535L17.6855 2.88086Q17.6855 1.46484 16.958 0.742188Q16.2305 0.0195312 14.8047 0.0195312L2.88086 0.0195312Q1.44531 0.0195312 0.722656 0.737305Q0 1.45508 0 2.88086L0 14.8535Q0 16.2695 0.722656 16.9873Q1.44531 17.7051 2.88086 17.7051ZM2.90039 16.4941Q2.07031 16.4941 1.64062 16.0645Q1.21094 15.6348 1.21094 14.7949L1.21094 2.93945Q1.21094 2.08984 1.64062 1.66016Q2.07031 1.23047 2.90039 1.23047L14.7852 1.23047Q15.5859 1.23047 16.0303 1.66016Q16.4746 2.08984 16.4746 2.93945L16.4746 14.7949Q16.4746 15.6348 16.0303 16.0645Q15.5859 16.4941 14.7852 16.4941Z"
                     fill="#ff453a" />
              <path d="M6.77734 5.0293Q6.77734 5.74219 7.2168 6.29395Q7.65625 6.8457 8.32031 7.01172L8.32031 12.6465Q8.32031 13.2812 8.37891 13.7891Q8.4375 14.2969 8.55469 14.5947Q8.67188 14.8926 8.84766 14.8926Q9.01367 14.8926 9.12598 14.5947Q9.23828 14.2969 9.30176 13.7891Q9.36523 13.2812 9.36523 12.6465L9.36523 7.01172Q10.0293 6.8457 10.4688 6.29883Q10.9082 5.75195 10.9082 5.0293Q10.9082 4.45312 10.6299 3.98926Q10.3516 3.52539 9.88281 3.24219Q9.41406 2.95898 8.84766 2.95898Q8.27148 2.95898 7.80273 3.24219Q7.33398 3.52539 7.05566 3.98926Q6.77734 4.45312 6.77734 5.0293ZM7.63672 4.50195Q7.62695 4.21875 7.83203 4.01367Q8.03711 3.80859 8.31055 3.80859Q8.58398 3.80859 8.78418 4.01367Q8.98438 4.21875 8.98438 4.50195Q8.97461 4.76562 8.7793 4.96582Q8.58398 5.16602 8.31055 5.16602Q8.03711 5.16602 7.8418 4.96582Q7.64648 4.76562 7.63672 4.50195Z"
                     fill="#ff453a" />
       </g>
</svg>