<svg width="18.0273" height="20.752">
       <g>
              <rect height="20.752" opacity="0" width="18.0273" x="0" y="0" />
              <path d="M9.01367 20.752Q11.1035 20.752 12.7686 20.4346Q14.4336 20.1172 15.6104 19.5654Q16.7871 19.0137 17.4072 18.2959Q18.0273 17.5781 18.0273 16.7773Q18.0273 16.084 17.6074 15.4932Q17.1875 14.9023 16.4795 14.4385Q15.7715 13.9746 14.8975 13.6426Q14.0234 13.3105 13.1055 13.1348Q12.1875 12.959 11.3574 12.9492L11.3574 14.0527Q12.1582 14.0625 13.0566 14.2578Q13.9551 14.4531 14.751 14.7949Q15.5469 15.1367 16.0498 15.6006Q16.5527 16.0645 16.5527 16.6211Q16.5527 17.2754 15.9863 17.8174Q15.4199 18.3594 14.3994 18.75Q13.3789 19.1406 12.002 19.3555Q10.625 19.5703 9.01367 19.5703Q7.40234 19.5703 6.02539 19.3555Q4.64844 19.1406 3.63281 18.75Q2.61719 18.3594 2.05078 17.8223Q1.48438 17.2852 1.48438 16.6211Q1.48438 16.0645 1.98242 15.6006Q2.48047 15.1367 3.27637 14.7949Q4.07227 14.4531 4.97559 14.2578Q5.87891 14.0625 6.66992 14.0527L6.66992 12.9492Q5.84961 12.959 4.93164 13.1348Q4.01367 13.3105 3.13965 13.6426Q2.26562 13.9746 1.55273 14.4385Q0.839844 14.9023 0.419922 15.4932Q0 16.084 0 16.7773Q0 17.5781 0.625 18.2959Q1.25 19.0137 2.42676 19.5654Q3.60352 20.1172 5.26855 20.4346Q6.93359 20.752 9.01367 20.752Z"
                     fill="#ff453a" />
              <path d="M5.73242 3.45703Q5.73242 4.24805 6.06934 4.92188Q6.40625 5.5957 6.99707 6.05957Q7.58789 6.52344 8.33008 6.66992L8.33008 14.0234Q8.33008 14.8633 8.39844 15.498Q8.4668 16.1328 8.56445 16.5625Q8.66211 16.9922 8.7793 17.207Q8.89648 17.4219 9.01367 17.4219Q9.12109 17.4219 9.24316 17.207Q9.36523 16.9922 9.46289 16.5625Q9.56055 16.1328 9.62402 15.498Q9.6875 14.8633 9.6875 14.0234L9.6875 6.66992Q10.4395 6.52344 11.0303 6.05957Q11.6211 5.5957 11.9629 4.92188Q12.3047 4.24805 12.3047 3.45703Q12.3047 2.54883 11.8604 1.80176Q11.416 1.05469 10.6738 0.605469Q9.93164 0.15625 9.01367 0.15625Q8.10547 0.15625 7.3584 0.605469Q6.61133 1.05469 6.17188 1.80176Q5.73242 2.54883 5.73242 3.45703Z"
                     fill="#ff453a" />
              <path d="M8.03711 3.58398Q7.58789 3.58398 7.25098 3.25195Q6.91406 2.91992 6.91406 2.46094Q6.91406 2.00195 7.25098 1.66992Q7.58789 1.33789 8.03711 1.33789Q8.49609 1.33789 8.82812 1.66992Q9.16016 2.00195 9.16016 2.46094Q9.16016 2.91992 8.82812 3.25195Q8.49609 3.58398 8.03711 3.58398Z"
                     fill="#ffffff" />
       </g>
</svg>