<svg width="19.5898" height="19.5996">
       <g>
              <rect height="19.5996" opacity="0" width="19.5898" x="0" y="0" />
              <path d="M9.79492 19.5996Q11.8066 19.5996 13.5791 18.833Q15.3516 18.0664 16.7041 16.7139Q18.0566 15.3613 18.8232 13.5889Q19.5898 11.8164 19.5898 9.80469Q19.5898 7.79297 18.8232 6.02051Q18.0566 4.24805 16.7041 2.89551Q15.3516 1.54297 13.5742 0.776367Q11.7969 0.00976562 9.78516 0.00976562Q7.77344 0.00976562 6.00098 0.776367Q4.22852 1.54297 2.88086 2.89551Q1.5332 4.24805 0.766602 6.02051Q0 7.79297 0 9.80469Q0 11.8164 0.766602 13.5889Q1.5332 15.3613 2.88574 16.7139Q4.23828 18.0664 6.01074 18.833Q7.7832 19.5996 9.79492 19.5996Z"
                     fill="rgba(255,255,255,0.55)" />
              <path d="M10.3223 8.07617L7.75391 5.49805Q7.91992 4.82422 8.48145 4.375Q9.04297 3.92578 9.78516 3.92578Q10.3516 3.92578 10.835 4.21387Q11.3184 4.50195 11.6064 4.97559Q11.8945 5.44922 11.8945 6.03516Q11.8945 6.76758 11.4453 7.33398Q10.9961 7.90039 10.3223 8.07617ZM8.57422 5.45898Q8.57422 5.73242 8.7793 5.93262Q8.98438 6.13281 9.24805 6.13281Q9.52148 6.13281 9.7168 5.93262Q9.91211 5.73242 9.92188 5.45898Q9.92188 5.18555 9.72168 4.98047Q9.52148 4.77539 9.24805 4.77539Q8.98438 4.77539 8.77441 4.98047Q8.56445 5.18555 8.57422 5.45898ZM9.25781 10.7031L10.3027 11.748L10.3027 13.6133Q10.3027 14.2578 10.2393 14.7607Q10.1758 15.2637 10.0635 15.5566Q9.95117 15.8496 9.78516 15.8496Q9.60938 15.8496 9.49707 15.5566Q9.38477 15.2637 9.32129 14.7559Q9.25781 14.248 9.25781 13.6133ZM14.4141 14.9707L4.60938 5.16602Q4.50195 5.05859 4.50195 4.90234Q4.50195 4.74609 4.60938 4.62891Q4.72656 4.52148 4.88281 4.52148Q5.03906 4.52148 5.15625 4.62891L14.9512 14.4336Q15.0684 14.5508 15.0684 14.7021Q15.0684 14.8535 14.9512 14.9707Q14.8438 15.0879 14.6826 15.083Q14.5215 15.0781 14.4141 14.9707Z"
                     fill="#ffffff" />
       </g>
</svg>