<svg width="19.5898" height="19.5996">
       <g>
              <rect height="19.5996" opacity="0" width="19.5898" x="0" y="0" />
              <path d="M9.79492 19.5898Q11.8066 19.5898 13.5791 18.8232Q15.3516 18.0566 16.7041 16.7041Q18.0566 15.3516 18.8232 13.5791Q19.5898 11.8066 19.5898 9.79492Q19.5898 7.7832 18.8232 6.01074Q18.0566 4.23828 16.7041 2.88574Q15.3516 1.5332 13.5742 0.766602Q11.7969 0 9.78516 0Q7.77344 0 6.00098 0.766602Q4.22852 1.5332 2.88086 2.88574Q1.5332 4.23828 0.766602 6.01074Q0 7.7832 0 9.79492Q0 11.8066 0.766602 13.5791Q1.5332 15.3516 2.88574 16.7041Q4.23828 18.0566 6.01074 18.8232Q7.7832 19.5898 9.79492 19.5898ZM9.79492 18.3203Q8.02734 18.3203 6.47949 17.6611Q4.93164 17.002 3.75977 15.8301Q2.58789 14.6582 1.92871 13.1104Q1.26953 11.5625 1.26953 9.79492Q1.26953 8.02734 1.92871 6.47949Q2.58789 4.93164 3.75977 3.75488Q4.93164 2.57812 6.47461 1.91895Q8.01758 1.25977 9.78516 1.25977Q11.5625 1.25977 13.1104 1.91895Q14.6582 2.57812 15.8301 3.75488Q17.002 4.93164 17.666 6.47949Q18.3301 8.02734 18.3301 9.79492Q18.3301 11.5625 17.666 13.1104Q17.002 14.6582 15.8301 15.8301Q14.6582 17.002 13.1152 17.6611Q11.5723 18.3203 9.79492 18.3203Z"
                     fill="#ff453a" />
              <path d="M7.72461 5.97656Q7.72461 6.68945 8.16406 7.24121Q8.60352 7.79297 9.26758 7.95898L9.26758 13.5938Q9.26758 14.2285 9.32617 14.7363Q9.38477 15.2441 9.50195 15.542Q9.61914 15.8398 9.79492 15.8398Q9.96094 15.8398 10.0732 15.542Q10.1855 15.2441 10.249 14.7363Q10.3125 14.2285 10.3125 13.5938L10.3125 7.95898Q10.9766 7.79297 11.416 7.24609Q11.8555 6.69922 11.8555 5.97656Q11.8555 5.40039 11.5771 4.93652Q11.2988 4.47266 10.8301 4.18945Q10.3613 3.90625 9.79492 3.90625Q9.21875 3.90625 8.75 4.18945Q8.28125 4.47266 8.00293 4.93652Q7.72461 5.40039 7.72461 5.97656ZM8.58398 5.44922Q8.57422 5.16602 8.7793 4.96094Q8.98438 4.75586 9.25781 4.75586Q9.53125 4.75586 9.73145 4.96094Q9.93164 5.16602 9.93164 5.44922Q9.92188 5.71289 9.72656 5.91309Q9.53125 6.11328 9.25781 6.11328Q8.98438 6.11328 8.78906 5.91309Q8.59375 5.71289 8.58398 5.44922Z"
                     fill="#ff453a" />
       </g>
</svg>