<svg width="19.5898" height="19.5996">
       <g>
              <rect height="19.5996" opacity="0" width="19.5898" x="0" y="0" />
              <path d="M9.79492 19.5996Q11.8066 19.5996 13.5791 18.833Q15.3516 18.0664 16.7041 16.7139Q18.0566 15.3613 18.8232 13.5889Q19.5898 11.8164 19.5898 9.80469Q19.5898 7.79297 18.8232 6.02051Q18.0566 4.24805 16.7041 2.89551Q15.3516 1.54297 13.5742 0.776367Q11.7969 0.00976562 9.78516 0.00976562Q7.77344 0.00976562 6.00098 0.776367Q4.22852 1.54297 2.88086 2.89551Q1.5332 4.24805 0.766602 6.02051Q0 7.79297 0 9.80469Q0 11.8164 0.766602 13.5889Q1.5332 15.3613 2.88574 16.7139Q4.23828 18.0664 6.01074 18.833Q7.7832 19.5996 9.79492 19.5996Z"
                     fill="#ff453a" />
              <path d="M7.67578 5.91797Q7.67578 5.33203 7.96387 4.85352Q8.25195 4.375 8.73047 4.08691Q9.20898 3.79883 9.79492 3.79883Q10.3809 3.79883 10.8594 4.08691Q11.3379 4.375 11.626 4.85352Q11.9141 5.33203 11.9141 5.91797Q11.9141 6.66016 11.46 7.2168Q11.0059 7.77344 10.332 7.94922L10.332 13.6719Q10.332 14.3262 10.2686 14.8535Q10.2051 15.3809 10.0879 15.6836Q9.9707 15.9863 9.79492 15.9863Q9.61914 15.9863 9.49707 15.6787Q9.375 15.3711 9.31152 14.8438Q9.24805 14.3164 9.24805 13.6719L9.24805 7.94922Q8.57422 7.77344 8.125 7.21191Q7.67578 6.65039 7.67578 5.91797ZM8.55469 5.37109Q8.56445 5.64453 8.77441 5.85449Q8.98438 6.06445 9.24805 6.06445Q9.53125 6.06445 9.73145 5.85449Q9.93164 5.64453 9.93164 5.37109Q9.93164 5.09766 9.73145 4.8877Q9.53125 4.67773 9.24805 4.67773Q8.98438 4.67773 8.76953 4.8877Q8.55469 5.09766 8.55469 5.37109Z"
                     fill="#ffffff" />
       </g>
</svg>