<svg width="6.57227" height="20.4395">
       <g>
              <rect height="20.4395" opacity="0" width="6.57227" x="0" y="0" />
              <path d="M0 3.30078Q0 4.0918 0.341797 4.76562Q0.683594 5.43945 1.26953 5.90332Q1.85547 6.36719 2.60742 6.51367L2.60742 16.582Q2.60742 17.4121 2.6709 18.042Q2.73438 18.6719 2.83691 19.1064Q2.93945 19.541 3.05664 19.7607Q3.17383 19.9805 3.28125 19.9805Q3.39844 19.9805 3.52051 19.7607Q3.64258 19.541 3.74023 19.1113Q3.83789 18.6816 3.90137 18.0469Q3.96484 17.4121 3.96484 16.582L3.96484 6.51367Q4.70703 6.36719 5.29785 5.90332Q5.88867 5.43945 6.23047 4.76562Q6.57227 4.0918 6.57227 3.30078Q6.57227 2.39258 6.13281 1.64551Q5.69336 0.898438 4.94629 0.449219Q4.19922 0 3.28125 0Q2.37305 0 1.63086 0.449219Q0.888672 0.898438 0.444336 1.64551Q0 2.39258 0 3.30078Z"
                     fill="#ff453a" />
              <path d="M2.30469 3.42773Q1.85547 3.42773 1.51855 3.0957Q1.18164 2.76367 1.18164 2.30469Q1.18164 1.8457 1.51855 1.51367Q1.85547 1.18164 2.30469 1.18164Q2.76367 1.18164 3.0957 1.51367Q3.42773 1.8457 3.42773 2.30469Q3.42773 2.76367 3.0957 3.0957Q2.76367 3.42773 2.30469 3.42773Z"
                     fill="#ffffff" />
       </g>
</svg>