<svg width="24.502" height="21.9629">
       <g>
              <rect height="21.9629" opacity="0" width="24.502" x="0" y="0" />
              <path d="M3.89648 20.918Q4.30664 20.918 4.95117 20.7324Q5.5957 20.5469 6.35254 20.2295Q7.10938 19.9121 7.87109 19.5215Q8.63281 19.1309 9.27734 18.7109Q9.4043 18.623 9.50684 18.5938Q9.60938 18.5645 9.70703 18.5645Q9.90234 18.584 10.0928 18.5986Q10.2832 18.6133 10.4785 18.6133Q11.2598 18.6133 11.9971 18.5303Q12.7344 18.4473 13.418 18.291L13.418 16.3965Q13.418 15.8887 13.667 15.4688Q13.916 15.0488 14.3359 14.7998Q14.7559 14.5508 15.2637 14.5508Q15.3711 14.5508 15.4785 14.5801Q15.5859 14.6094 15.6738 14.668Q15.6836 14.5801 15.6885 14.4971Q15.6934 14.4141 15.7129 14.3359Q15.8398 13.7305 16.3281 13.335Q16.8164 12.9395 17.4609 12.9395Q17.5781 12.9395 17.6709 12.9736Q17.7637 13.0078 17.8613 13.0469Q17.8613 12.9688 17.876 12.876Q17.8906 12.7832 17.8906 12.6953Q18.0176 12.0898 18.5156 11.6895Q19.0137 11.2891 19.6484 11.2891Q20.1953 11.2891 20.6299 11.582Q21.0645 11.875 21.2598 12.334Q21.2793 12.334 21.3086 12.3291Q21.3379 12.3242 21.3672 12.3242Q21.582 11.709 21.6895 11.0889Q21.7969 10.4688 21.7969 9.82422Q21.7969 7.99805 20.957 6.40625Q20.1172 4.81445 18.623 3.6084Q17.1289 2.40234 15.1514 1.71875Q13.1738 1.03516 10.8984 1.03516Q8.62305 1.03516 6.64551 1.71875Q4.66797 2.40234 3.17383 3.6084Q1.67969 4.81445 0.839844 6.40625Q0 7.99805 0 9.82422Q0 11.3672 0.600586 12.7637Q1.20117 14.1602 2.31445 15.3125Q3.42773 16.4648 4.95117 17.2559Q5.06836 17.3242 5.10254 17.4268Q5.13672 17.5293 5.06836 17.6465Q4.83398 18.0566 4.51172 18.4814Q4.18945 18.9062 3.88672 19.2725Q3.58398 19.6387 3.38867 19.873Q3.10547 20.2344 3.2373 20.5762Q3.36914 20.918 3.89648 20.918Z"
                     fill="rgba(255,255,255,0.55)" />
              <path d="M15.2539 18.6914Q15.459 18.6914 15.5957 18.5596Q15.7324 18.4277 15.7324 18.2422L15.7324 16.4062Q15.7324 16.2012 15.5957 16.0693Q15.459 15.9375 15.2539 15.9375Q15.0684 15.9375 14.9365 16.0693Q14.8047 16.2012 14.8047 16.4062L14.8047 18.2422Q14.8047 18.4277 14.9365 18.5596Q15.0684 18.6914 15.2539 18.6914Z"
                     fill="rgba(255,255,255,0.55)" />
              <path d="M17.4609 20.3027Q17.6562 20.3027 17.7881 20.1709Q17.9199 20.0391 17.9199 19.834L17.9199 14.7949Q17.9199 14.5996 17.7881 14.4629Q17.6562 14.3262 17.4609 14.3262Q17.2656 14.3262 17.1289 14.4629Q16.9922 14.5996 16.9922 14.7949L16.9922 19.834Q16.9922 20.0391 17.1289 20.1709Q17.2656 20.3027 17.4609 20.3027Z"
                     fill="rgba(255,255,255,0.55)" />
              <path d="M19.6484 21.9629Q19.8438 21.9629 19.9805 21.8359Q20.1172 21.709 20.1172 21.5137L20.1172 13.1445Q20.1172 12.9395 19.9805 12.8076Q19.8438 12.6758 19.6484 12.6758Q19.4629 12.6758 19.3262 12.8076Q19.1895 12.9395 19.1895 13.1445L19.1895 21.5137Q19.1895 21.709 19.3213 21.8359Q19.4531 21.9629 19.6484 21.9629Z"
                     fill="rgba(255,255,255,0.55)" />
              <path d="M21.8457 20.9668Q22.041 20.9668 22.1729 20.8301Q22.3047 20.6934 22.3047 20.498L22.3047 14.1309Q22.3047 13.9355 22.1729 13.8086Q22.041 13.6816 21.8457 13.6816Q21.6504 13.6816 21.5186 13.8086Q21.3867 13.9355 21.3867 14.1309L21.3867 20.498Q21.3867 20.6934 21.5186 20.8301Q21.6504 20.9668 21.8457 20.9668Z"
                     fill="rgba(255,255,255,0.55)" />
              <path d="M24.043 19.2285Q24.2383 19.2285 24.3701 19.0967Q24.502 18.9648 24.502 18.7695L24.502 15.8691Q24.502 15.6738 24.3701 15.542Q24.2383 15.4102 24.043 15.4102Q23.8477 15.4102 23.7158 15.542Q23.584 15.6738 23.584 15.8691L23.584 18.7695Q23.584 18.9648 23.7158 19.0967Q23.8477 19.2285 24.043 19.2285Z"
                     fill="rgba(255,255,255,0.165)" />
       </g>
</svg>