<svg width="21.7973" height="19.8831">
       <g>
              <rect height="19.8831" opacity="0" width="21.7973" x="0" y="0" />
              <path d="M3.8945 19.8801Q4.30969 19.8801 4.95445 19.694Q5.59921 19.5079 6.3533 19.1904Q7.10739 18.873 7.86911 18.4808Q8.63083 18.0887 9.27399 17.6697Q9.40399 17.5848 9.50836 17.5533Q9.61273 17.5218 9.71039 17.5249Q9.90189 17.5436 10.0949 17.5562Q10.2879 17.5687 10.4788 17.5687Q12.4731 17.5687 14.2056 17.1224Q15.9381 16.6762 17.3361 15.8649Q18.7341 15.0537 19.7316 13.9559Q20.7291 12.8581 21.2632 11.5421Q21.7973 10.2261 21.7973 8.78311Q21.7973 6.95862 20.9579 5.36545Q20.1186 3.77228 18.6242 2.56859Q17.1298 1.3649 15.1514 0.682449Q13.1731 0 10.8986 0Q8.62732 0 6.64734 0.682449Q4.66736 1.3649 3.17307 2.56859Q1.67877 3.77228 0.839386 5.36545Q0 6.95862 0 8.78311Q0 10.3305 0.602798 11.7277Q1.2056 13.1248 2.31758 14.2737Q3.42957 15.4225 4.94659 16.2199Q5.06607 16.2816 5.10025 16.3857Q5.13443 16.4897 5.06989 16.6061Q4.83276 17.0131 4.51309 17.4386Q4.19342 17.8641 3.88763 18.2315Q3.58185 18.5989 3.39325 18.8341Q3.10699 19.196 3.2357 19.538Q3.36441 19.8801 3.8945 19.8801Z"
                     fill="#32d74b" />
       </g>
</svg>