<svg width="24.502" height="21.8262">
       <g>
              <rect height="21.8262" opacity="0" width="24.502" x="0" y="0" />
              <path d="M4.14062 20.8789Q4.74609 20.8789 5.69336 20.542Q6.64062 20.2051 7.71484 19.6533Q8.78906 19.1016 9.74609 18.4473Q10.6836 18.5352 11.6064 18.4717Q12.5293 18.4082 13.4277 18.2031Q13.4277 18.1543 13.4229 18.0957Q13.418 18.0371 13.418 17.9883L13.418 17.1875Q13.418 17.1289 13.4229 17.0752Q13.4277 17.0215 13.4277 16.9727Q12.8125 17.1094 12.1777 17.1875Q11.543 17.2656 10.8984 17.2656Q10.6641 17.2656 10.3809 17.251Q10.0977 17.2363 9.76562 17.2168Q9.53125 17.2168 9.31641 17.29Q9.10156 17.3633 8.88672 17.5293Q8.19336 17.9688 7.42188 18.4131Q6.65039 18.8574 5.9668 19.1895Q5.2832 19.5215 4.85352 19.6387Q4.79492 19.6484 4.78027 19.6191Q4.76562 19.5898 4.80469 19.5312Q5.17578 19.0723 5.68359 18.4229Q6.19141 17.7734 6.45508 17.2363Q6.62109 16.9336 6.55762 16.6846Q6.49414 16.4355 6.14258 16.2695Q4.60938 15.5566 3.51562 14.5508Q2.42188 13.5449 1.83594 12.3193Q1.25 11.0938 1.25 9.7168Q1.25 8.1543 1.99219 6.79199Q2.73438 5.42969 4.05762 4.38965Q5.38086 3.34961 7.13379 2.76367Q8.88672 2.17773 10.8984 2.17773Q12.9102 2.17773 14.6631 2.76367Q16.416 3.34961 17.7393 4.38965Q19.0625 5.42969 19.8096 6.79199Q20.5566 8.1543 20.5566 9.7168Q20.5566 10.6055 20.3125 11.4355Q20.5078 11.5039 20.6787 11.6113Q20.8496 11.7188 20.9961 11.8652Q21.1426 12.0117 21.2402 12.1875Q21.2793 12.207 21.3086 12.2314Q21.3379 12.2559 21.3574 12.2852Q21.5625 11.6992 21.6797 11.0498Q21.7969 10.4004 21.7969 9.7168Q21.7969 7.90039 20.957 6.30859Q20.1172 4.7168 18.623 3.51074Q17.1289 2.30469 15.1514 1.62109Q13.1738 0.9375 10.8984 0.9375Q8.62305 0.9375 6.64551 1.62109Q4.66797 2.30469 3.17383 3.51074Q1.67969 4.7168 0.839844 6.30859Q0 7.90039 0 9.7168Q0 11.3086 0.639648 12.7344Q1.2793 14.1602 2.43164 15.2979Q3.58398 16.4355 5.12695 17.168Q4.90234 17.5879 4.60449 18.0371Q4.30664 18.4863 4.00879 18.8867Q3.71094 19.2871 3.49609 19.5508Q3.25195 19.873 3.24707 20.1758Q3.24219 20.4785 3.47168 20.6787Q3.70117 20.8789 4.14062 20.8789Z"
                     fill="rgba(255,255,255,0.55)" />
              <path d="M15.2539 18.5547Q15.459 18.5547 15.5957 18.4229Q15.7324 18.291 15.7324 18.1055L15.7324 16.2695Q15.7324 16.0645 15.5957 15.9326Q15.459 15.8008 15.2539 15.8008Q15.0684 15.8008 14.9365 15.9326Q14.8047 16.0645 14.8047 16.2695L14.8047 18.1055Q14.8047 18.291 14.9365 18.4229Q15.0684 18.5547 15.2539 18.5547Z"
                     fill="rgba(255,255,255,0.55)" />
              <path d="M17.4609 20.166Q17.6562 20.166 17.7881 20.0342Q17.9199 19.9023 17.9199 19.6973L17.9199 14.6582Q17.9199 14.4629 17.7881 14.3262Q17.6562 14.1895 17.4609 14.1895Q17.2656 14.1895 17.1289 14.3262Q16.9922 14.4629 16.9922 14.6582L16.9922 19.6973Q16.9922 19.9023 17.1289 20.0342Q17.2656 20.166 17.4609 20.166Z"
                     fill="rgba(255,255,255,0.55)" />
              <path d="M19.6484 21.8262Q19.8438 21.8262 19.9805 21.6992Q20.1172 21.5723 20.1172 21.377L20.1172 13.0078Q20.1172 12.8027 19.9805 12.6709Q19.8438 12.5391 19.6484 12.5391Q19.4629 12.5391 19.3262 12.6709Q19.1895 12.8027 19.1895 13.0078L19.1895 21.377Q19.1895 21.5723 19.3213 21.6992Q19.4531 21.8262 19.6484 21.8262Z"
                     fill="rgba(255,255,255,0.55)" />
              <path d="M21.8457 20.8301Q22.041 20.8301 22.1729 20.6934Q22.3047 20.5566 22.3047 20.3613L22.3047 13.9941Q22.3047 13.7988 22.1729 13.6719Q22.041 13.5449 21.8457 13.5449Q21.6504 13.5449 21.5186 13.6719Q21.3867 13.7988 21.3867 13.9941L21.3867 20.3613Q21.3867 20.5566 21.5186 20.6934Q21.6504 20.8301 21.8457 20.8301Z"
                     fill="rgba(255,255,255,0.55)" />
              <path d="M24.043 19.0918Q24.2383 19.0918 24.3701 18.96Q24.502 18.8281 24.502 18.6328L24.502 15.7324Q24.502 15.5371 24.3701 15.4053Q24.2383 15.2734 24.043 15.2734Q23.8477 15.2734 23.7158 15.4053Q23.584 15.5371 23.584 15.7324L23.584 18.6328Q23.584 18.8281 23.7158 18.96Q23.8477 19.0918 24.043 19.0918Z"
                     fill="rgba(255,255,255,0.165)" />
       </g>
</svg>