<svg width="19.5898" height="19.5996">
       <g>
              <rect height="19.5996" opacity="0" width="19.5898" x="0" y="0" />
              <path d="M9.79492 19.5898Q11.8066 19.5898 13.5791 18.8232Q15.3516 18.0566 16.7041 16.7041Q18.0566 15.3516 18.8232 13.5791Q19.5898 11.8066 19.5898 9.79492Q19.5898 7.7832 18.8232 6.01074Q18.0566 4.23828 16.7041 2.88574Q15.3516 1.5332 13.5742 0.766602Q11.7969 0 9.78516 0Q7.77344 0 6.00098 0.766602Q4.22852 1.5332 2.88086 2.88574Q1.5332 4.23828 0.766602 6.01074Q0 7.7832 0 9.79492Q0 11.8066 0.766602 13.5791Q1.5332 15.3516 2.88574 16.7041Q4.23828 18.0566 6.01074 18.8232Q7.7832 19.5898 9.79492 19.5898ZM9.79492 18.3203Q8.02734 18.3203 6.47949 17.6611Q4.93164 17.002 3.75977 15.8301Q2.58789 14.6582 1.92871 13.1104Q1.26953 11.5625 1.26953 9.79492Q1.26953 8.02734 1.92871 6.47949Q2.58789 4.93164 3.75977 3.75488Q4.93164 2.57812 6.47461 1.91895Q8.01758 1.25977 9.78516 1.25977Q11.5625 1.25977 13.1104 1.91895Q14.6582 2.57812 15.8301 3.75488Q17.002 4.93164 17.666 6.47949Q18.3301 8.02734 18.3301 9.79492Q18.3301 11.5625 17.666 13.1104Q17.002 14.6582 15.8301 15.8301Q14.6582 17.002 13.1152 17.6611Q11.5723 18.3203 9.79492 18.3203Z"
                     fill="#32d74b" />
              <path d="M9.79492 13.7207Q11.3184 13.7207 12.5586 13.1201Q13.7988 12.5195 14.5264 11.5088Q15.2539 10.498 15.2539 9.26758Q15.2539 8.03711 14.5264 7.02637Q13.7988 6.01562 12.5586 5.41504Q11.3184 4.81445 9.79492 4.81445Q8.26172 4.81445 7.02637 5.41504Q5.79102 6.01562 5.06348 7.02637Q4.33594 8.03711 4.33594 9.26758Q4.33594 10.4297 5 11.4062Q5.66406 12.3828 6.76758 12.9883Q6.92383 13.0664 6.82617 13.252Q6.69922 13.4961 6.51367 13.7305Q6.32812 13.9648 6.17188 14.1406Q5.97656 14.3555 6.03027 14.5459Q6.08398 14.7363 6.39648 14.7363Q6.78711 14.7363 7.4707 14.4727Q8.1543 14.209 8.87695 13.7793Q9.00391 13.6914 9.12109 13.7012Q9.28711 13.7109 9.45312 13.7158Q9.61914 13.7207 9.79492 13.7207Z"
                     fill="#32d74b" />
       </g>
</svg>