<svg width="19.5898" height="19.5996">
       <g>
              <rect height="19.5996" opacity="0" width="19.5898" x="0" y="0" />
              <path d="M9.79492 19.5996Q11.8066 19.5996 13.5791 18.833Q15.3516 18.0664 16.7041 16.7139Q18.0566 15.3613 18.8232 13.5889Q19.5898 11.8164 19.5898 9.80469Q19.5898 7.79297 18.8232 6.02051Q18.0566 4.24805 16.7041 2.89551Q15.3516 1.54297 13.5742 0.776367Q11.7969 0.00976562 9.78516 0.00976562Q7.77344 0.00976562 6.00098 0.776367Q4.22852 1.54297 2.88086 2.89551Q1.5332 4.24805 0.766602 6.02051Q0 7.79297 0 9.80469Q0 11.8164 0.766602 13.5889Q1.5332 15.3613 2.88574 16.7139Q4.23828 18.0664 6.01074 18.833Q7.7832 19.5996 9.79492 19.5996Z"
                     fill="#32d74b" />
              <path d="M9.79492 13.8184Q9.60938 13.8184 9.43848 13.8135Q9.26758 13.8086 9.11133 13.7988Q8.99414 13.7891 8.85742 13.877Q8.11523 14.3164 7.42188 14.5898Q6.72852 14.8633 6.32812 14.8633Q6.02539 14.8633 5.9668 14.668Q5.9082 14.4727 6.10352 14.248Q6.25977 14.0723 6.44531 13.833Q6.63086 13.5938 6.76758 13.3398Q6.86523 13.1445 6.69922 13.0664Q5.58594 12.4512 4.90723 11.4551Q4.22852 10.459 4.22852 9.27734Q4.22852 8.01758 4.9707 6.9873Q5.71289 5.95703 6.97266 5.3418Q8.23242 4.72656 9.79492 4.72656Q11.3574 4.72656 12.6172 5.3418Q13.877 5.95703 14.6191 6.9873Q15.3613 8.01758 15.3613 9.27734Q15.3613 10.5273 14.6191 11.5576Q13.877 12.5879 12.6172 13.2031Q11.3574 13.8184 9.79492 13.8184Z"
                     fill="#ffffff" />
       </g>
</svg>