<svg width="21.7973" height="19.9503">
       <g>
              <rect height="19.9503" opacity="0" width="21.7973" x="0" y="0" />
              <path d="M4.14139 19.9443Q4.74121 19.9443 5.69313 19.6066Q6.64505 19.269 7.71645 18.7151Q8.78784 18.1613 9.75006 17.5119Q11.7123 17.6311 13.5084 17.2709Q15.3044 16.9107 16.8157 16.142Q18.327 15.3734 19.4433 14.2632Q20.5595 13.1529 21.1784 11.7648Q21.7973 10.3767 21.7973 8.78311Q21.7973 6.96152 20.9579 5.36835Q20.1186 3.77518 18.6242 2.56996Q17.1298 1.36475 15.1514 0.682373Q13.1731 0 10.8986 0Q8.62732 0 6.64734 0.682373Q4.66736 1.36475 3.17307 2.56996Q1.67877 3.77518 0.839386 5.36835Q0 6.96152 0 8.78311Q0 10.3725 0.638123 11.7959Q1.27625 13.2193 2.43042 14.3604Q3.58459 15.5016 5.12756 16.2326Q4.90601 16.6501 4.60716 17.099Q4.30832 17.5479 4.01093 17.9499Q3.71353 18.3519 3.49808 18.6169Q3.25317 18.9314 3.24936 19.238Q3.24554 19.5445 3.47137 19.7444Q3.6972 19.9443 4.14139 19.9443ZM4.85199 18.7016Q4.7934 18.7151 4.77837 18.6824Q4.76334 18.6497 4.80545 18.5979Q5.17929 18.1355 5.68336 17.4832Q6.18744 16.8309 6.4595 16.2955Q6.61621 15.9964 6.55319 15.7468Q6.49017 15.4971 6.13953 15.33Q4.60938 14.6202 3.51364 13.6153Q2.41791 12.6103 1.83334 11.3824Q1.24878 10.1546 1.24878 8.78311Q1.24878 7.21863 1.99295 5.85365Q2.73712 4.48868 4.0583 3.44986Q5.37949 2.41104 7.13303 1.82495Q8.88657 1.23886 10.8986 1.23886Q12.9106 1.23886 14.6642 1.82495Q16.4178 2.41104 17.739 3.44986Q19.0602 4.48868 19.8077 5.85365Q20.5553 7.21863 20.5553 8.78311Q20.5553 10.3407 19.8077 11.7106Q19.0602 13.0804 17.739 14.1159Q16.4178 15.1514 14.6642 15.7389Q12.9106 16.3264 10.8986 16.3264Q10.6613 16.3264 10.3792 16.3125Q10.097 16.2985 9.76471 16.2798Q9.52866 16.2767 9.31374 16.352Q9.09882 16.4273 8.8829 16.5877Q8.19641 17.0325 7.42531 17.4736Q6.65421 17.9147 5.96672 18.2471Q5.27924 18.5796 4.85199 18.7016Z"
                     fill="#32d74b" />
       </g>
</svg>