<svg width="19.5898" height="19.5996">
       <g>
              <rect height="19.5996" opacity="0" width="19.5898" x="0" y="0" />
              <path d="M9.79492 19.5898Q11.8066 19.5898 13.5791 18.8232Q15.3516 18.0566 16.7041 16.7041Q18.0566 15.3516 18.8232 13.5791Q19.5898 11.8066 19.5898 9.79492Q19.5898 7.7832 18.8232 6.01074Q18.0566 4.23828 16.7041 2.88574Q15.3516 1.5332 13.5742 0.766602Q11.7969 0 9.78516 0Q7.77344 0 6.00098 0.766602Q4.22852 1.5332 2.88086 2.88574Q1.5332 4.23828 0.766602 6.01074Q0 7.7832 0 9.79492Q0 11.8066 0.766602 13.5791Q1.5332 15.3516 2.88574 16.7041Q4.23828 18.0566 6.01074 18.8232Q7.7832 19.5898 9.79492 19.5898Z"
                     fill="#ff9f0a" />
              <path d="M13.9941 14.2285L5.35156 5.57617Q5.23438 5.46875 5.22949 5.30762Q5.22461 5.14648 5.35156 5.0293Q5.45898 4.91211 5.62012 4.91211Q5.78125 4.91211 5.9082 5.0293L14.541 13.6719Q14.6582 13.7891 14.6582 13.9502Q14.6582 14.1113 14.541 14.2285Q14.4336 14.3457 14.2773 14.3408Q14.1211 14.3359 13.9941 14.2285ZM11.3086 12.4707L11.9336 13.1055Q11.2012 13.5938 10.2441 13.6816L10.2441 14.9609L12.2656 14.9609Q12.4512 14.9609 12.583 15.0928Q12.7148 15.2246 12.7148 15.4102Q12.7148 15.5859 12.5781 15.7129Q12.4414 15.8398 12.2656 15.8398L7.32422 15.8398Q7.14844 15.8398 7.01172 15.7129Q6.875 15.5859 6.875 15.4102Q6.875 15.2246 7.01172 15.0928Q7.14844 14.9609 7.32422 14.9609L9.35547 14.9609L9.35547 13.6816Q8.35938 13.584 7.6123 13.0908Q6.86523 12.5977 6.44531 11.8066Q6.02539 11.0156 6.02539 10.0195L6.02539 8.83789Q6.02539 8.66211 6.15234 8.53027Q6.2793 8.39844 6.45508 8.39844Q6.64062 8.39844 6.76758 8.53027Q6.89453 8.66211 6.89453 8.83789L6.89453 10.0195Q6.89453 10.8691 7.25586 11.5088Q7.61719 12.1484 8.2666 12.5049Q8.91602 12.8613 9.79492 12.8613Q10.2441 12.8613 10.625 12.7588Q11.0059 12.6562 11.3086 12.4707ZM8.13477 9.28711L10.4102 11.5723Q10.127 11.7285 9.79492 11.7285Q9.05273 11.7285 8.59375 11.2158Q8.13477 10.7031 8.13477 9.94141ZM11.4551 9.6582L8.13477 6.32812L8.13477 5.61523Q8.13477 4.85352 8.59375 4.3457Q9.05273 3.83789 9.79492 3.83789Q10.5371 3.83789 10.9961 4.3457Q11.4551 4.85352 11.4551 5.61523ZM13.2812 11.4746L12.5684 10.7715Q12.627 10.6055 12.6562 10.415Q12.6855 10.2246 12.6855 10.0195L12.6855 8.83789Q12.6855 8.66211 12.8174 8.53027Q12.9492 8.39844 13.125 8.39844Q13.3008 8.39844 13.4326 8.53027Q13.5645 8.66211 13.5645 8.83789L13.5645 10.0195Q13.5645 10.8008 13.2812 11.4746Z"
                     fill="#ffffff" />
       </g>
</svg>