<svg width="20.0697" height="22.1619">
       <g>
              <rect height="22.1619" opacity="0" width="20.0697" x="0" y="0" />
              <path d="M6.62491 10.289Q6.62491 12.1304 7.39288 13.5619Q8.16086 14.9933 9.54437 15.849Q10.9279 16.7047 12.775 16.8275L12.775 19.4905L8.98849 19.4905Q8.74557 19.4905 8.57918 19.6569Q8.41278 19.8233 8.41278 20.0662Q8.41278 20.2992 8.57918 20.4671Q8.74557 20.6351 8.98849 20.6351L17.7092 20.6351Q17.9521 20.6351 18.1185 20.4671Q18.2849 20.2992 18.2849 20.0662Q18.2849 19.8233 18.1185 19.6569Q17.9521 19.4905 17.7092 19.4905L13.9197 19.4905L13.9197 16.8275Q15.7668 16.7047 17.1503 15.849Q18.5338 14.9933 19.3018 13.5619Q20.0697 12.1304 20.0697 10.289L20.0697 8.37326Q20.0697 8.14011 19.9033 7.97218Q19.7369 7.80426 19.5038 7.80426Q19.261 7.80426 19.0945 7.97218Q18.9281 8.14011 18.9281 8.37326L18.9281 10.2486Q18.9281 11.8875 18.2369 13.133Q17.5458 14.3785 16.2953 15.073Q15.0449 15.7675 13.344 15.7675Q11.6528 15.7675 10.4008 15.073Q9.14886 14.3785 8.45917 13.133Q7.76947 11.8875 7.76947 10.2486L7.76947 8.37326Q7.76947 8.14011 7.60307 7.97218Q7.43668 7.80426 7.19391 7.80426Q6.9577 7.80426 6.79131 7.97218Q6.62491 8.14011 6.62491 8.37326ZM9.99573 9.90417Q9.99573 10.9576 10.4163 11.7764Q10.8368 12.5952 11.5907 13.0639Q12.3445 13.5326 13.344 13.5326Q14.3501 13.5326 15.1055 13.0639Q15.8609 12.5952 16.2798 11.7764Q16.6988 10.9576 16.6988 9.90417L16.6988 3.62839Q16.6988 2.57492 16.2798 1.75613Q15.8609 0.937347 15.1055 0.468674Q14.3501 0 13.344 0Q12.3445 0 11.5907 0.468674Q10.8368 0.937347 10.4163 1.75613Q9.99573 2.57492 9.99573 3.62839ZM11.1404 9.90417L11.1404 3.62839Q11.1404 2.52014 11.7371 1.82114Q12.3338 1.12213 13.344 1.12213Q14.3541 1.12213 14.9557 1.82114Q15.5573 2.52014 15.5573 3.62839L15.5573 9.90417Q15.5573 11.0124 14.9557 11.7114Q14.3541 12.4104 13.344 12.4104Q12.3338 12.4104 11.7371 11.7114Q11.1404 11.0124 11.1404 9.90417Z"
                     fill="#ff9f0a" />
              <path d="M1.70303 20.0739Q2.39914 20.0739 2.88948 19.585Q3.37982 19.0962 3.37982 18.4001Q3.37982 17.6973 2.88948 17.207Q2.39914 16.7166 1.70303 16.7166Q0.980682 16.7166 0.490341 17.2054Q0 17.6942 0 18.4001Q0 19.0962 0.495224 19.585Q0.990448 20.0739 1.70303 20.0739Z"
                     fill="#ff9f0a" />
              <path d="M1.70303 15.0502Q2.16705 15.0502 2.54623 14.8197Q2.92542 14.5892 3.15262 14.2036Q3.37982 13.8181 3.37982 13.3472Q3.37982 12.6512 2.88948 12.1609Q2.39914 11.6705 1.70303 11.6705Q1.22925 11.6705 0.841751 11.8961Q0.454254 12.1217 0.227127 12.5024Q0 12.8831 0 13.3472Q0 14.0697 0.490341 14.5599Q0.980682 15.0502 1.70303 15.0502Z"
                     fill="#ff9f0a" />
              <path d="M1.70303 9.99435Q2.39914 9.99435 2.88948 9.50554Q3.37982 9.01672 3.37982 8.31085Q3.37982 7.59827 2.88948 7.10793Q2.39914 6.61758 1.70303 6.61758Q0.980682 6.61758 0.490341 7.10793Q0 7.59827 0 8.31085Q0 9.01672 0.490341 9.50554Q0.980682 9.99435 1.70303 9.99435Z"
                     fill="#ff9f0a" />
              <path d="M1.70303 4.94812Q2.39914 4.94812 2.88948 4.4593Q3.37982 3.97049 3.37982 3.26767Q3.37982 2.57156 2.88948 2.08122Q2.39914 1.59088 1.70303 1.59088Q0.990448 1.59088 0.495224 2.08122Q0 2.57156 0 3.26767Q0 3.98026 0.490341 4.46419Q0.980682 4.94812 1.70303 4.94812Z"
                     fill="rgba(255,159,10,0.3)" />
       </g>
</svg>