<svg width="19.5898" height="19.5996">
       <g>
              <rect height="19.5996" opacity="0" width="19.5898" x="0" y="0" />
              <path d="M9.79492 19.5898Q11.8066 19.5898 13.5791 18.8232Q15.3516 18.0566 16.7041 16.7041Q18.0566 15.3516 18.8232 13.5791Q19.5898 11.8066 19.5898 9.79492Q19.5898 7.7832 18.8232 6.01074Q18.0566 4.23828 16.7041 2.88574Q15.3516 1.5332 13.5742 0.766602Q11.7969 0 9.78516 0Q7.77344 0 6.00098 0.766602Q4.22852 1.5332 2.88086 2.88574Q1.5332 4.23828 0.766602 6.01074Q0 7.7832 0 9.79492Q0 11.8066 0.766602 13.5791Q1.5332 15.3516 2.88574 16.7041Q4.23828 18.0566 6.01074 18.8232Q7.7832 19.5898 9.79492 19.5898ZM9.79492 18.3203Q8.02734 18.3203 6.47949 17.6611Q4.93164 17.002 3.75977 15.8301Q2.58789 14.6582 1.92871 13.1104Q1.26953 11.5625 1.26953 9.79492Q1.26953 8.02734 1.92871 6.47949Q2.58789 4.93164 3.75977 3.75488Q4.93164 2.57812 6.47461 1.91895Q8.01758 1.25977 9.78516 1.25977Q11.5625 1.25977 13.1104 1.91895Q14.6582 2.57812 15.8301 3.75488Q17.002 4.93164 17.666 6.47949Q18.3301 8.02734 18.3301 9.79492Q18.3301 11.5625 17.666 13.1104Q17.002 14.6582 15.8301 15.8301Q14.6582 17.002 13.1152 17.6611Q11.5723 18.3203 9.79492 18.3203Z"
                     fill="#ff9f0a" />
              <path d="M13.9062 14.1211Q14.0234 14.2285 14.1748 14.2285Q14.3262 14.2285 14.4336 14.1211Q14.5508 14.0039 14.5508 13.8477Q14.5508 13.6914 14.4336 13.584L5.97656 5.10742Q5.85938 4.99023 5.70312 4.99023Q5.54688 4.99023 5.43945 5.10742Q5.3125 5.22461 5.31738 5.38086Q5.32227 5.53711 5.43945 5.64453ZM11.2793 12.4023Q10.6641 12.7832 9.78516 12.7832Q8.93555 12.7832 8.2959 12.4316Q7.65625 12.0801 7.30469 11.4551Q6.95312 10.8301 6.95312 10L6.95312 8.84766Q6.95312 8.67188 6.82129 8.54492Q6.68945 8.41797 6.52344 8.41797Q6.34766 8.41797 6.2207 8.54492Q6.09375 8.67188 6.09375 8.84766L6.09375 10Q6.09375 10.9766 6.50879 11.748Q6.92383 12.5195 7.65137 13.0078Q8.37891 13.4961 9.35547 13.584L9.35547 14.8438L7.36328 14.8438Q7.19727 14.8438 7.06543 14.9756Q6.93359 15.1074 6.93359 15.2832Q6.93359 15.4492 7.06543 15.5811Q7.19727 15.7129 7.36328 15.7129L12.207 15.7129Q12.373 15.7129 12.5049 15.5811Q12.6367 15.4492 12.6367 15.2832Q12.6367 15.1074 12.5098 14.9756Q12.3828 14.8438 12.207 14.8438L10.2246 14.8438L10.2246 13.584Q11.1523 13.5059 11.8848 13.0078ZM8.1543 9.26758L8.1543 9.92188Q8.1543 10.6738 8.6084 11.1719Q9.0625 11.6699 9.78516 11.6699Q10.127 11.6699 10.4004 11.5137ZM11.416 9.64844L11.416 5.68359Q11.416 4.93164 10.9619 4.43359Q10.5078 3.93555 9.78516 3.93555Q9.0625 3.93555 8.6084 4.43359Q8.1543 4.93164 8.1543 5.68359L8.1543 6.38672ZM13.2031 11.4355Q13.4766 10.7617 13.4766 10L13.4766 8.84766Q13.4766 8.67188 13.3496 8.54492Q13.2227 8.41797 13.0566 8.41797Q12.8809 8.41797 12.7539 8.54492Q12.627 8.67188 12.627 8.84766L12.627 10Q12.627 10.2051 12.5977 10.3906Q12.5684 10.5762 12.5098 10.7422Z"
                     fill="#ff9f0a" />
       </g>
</svg>