<svg width="15.9473" height="22.1582">
       <g>
              <rect height="22.1582" opacity="0" width="15.9473" x="0" y="0" />
              <path d="M1.07422 10.2832Q1.07422 12.1289 1.84082 13.5596Q2.60742 14.9902 3.98926 15.8447Q5.37109 16.6992 7.2168 16.8262L7.2168 19.4922L3.42773 19.4922Q3.19336 19.4922 3.02734 19.6582Q2.86133 19.8242 2.86133 20.0684Q2.86133 20.293 3.02734 20.4639Q3.19336 20.6348 3.42773 20.6348L12.1582 20.6348Q12.3926 20.6348 12.5635 20.4639Q12.7344 20.293 12.7344 20.0684Q12.7344 19.8242 12.5635 19.6582Q12.3926 19.4922 12.1582 19.4922L8.36914 19.4922L8.36914 16.8262Q9.27734 16.7773 10.0781 16.5283Q10.8789 16.2793 11.543 15.8594L10.7324 15.0488Q10.1172 15.3906 9.37988 15.5762Q8.64258 15.7617 7.79297 15.7617Q6.10352 15.7617 4.84863 15.0684Q3.59375 14.375 2.90527 13.1299Q2.2168 11.8848 2.2168 10.2441L2.2168 8.36914Q2.2168 8.13477 2.0459 7.96875Q1.875 7.80273 1.64062 7.80273Q1.40625 7.80273 1.24023 7.96875Q1.07422 8.13477 1.07422 8.36914ZM12.9102 12.5684L13.7988 13.4473Q14.5117 12.0312 14.5117 10.2832L14.5117 8.36914Q14.5117 8.13477 14.3457 7.96875Q14.1797 7.80273 13.9453 7.80273Q13.7109 7.80273 13.54 7.96875Q13.3691 8.13477 13.3691 8.36914L13.3691 10.2441Q13.3691 11.5137 12.9102 12.5684ZM7.79297 13.5352Q8.42773 13.5352 8.97461 13.291L7.86133 12.1777Q7.64648 12.3047 7.31445 12.3047Q6.64062 12.2461 6.2207 11.7578Q5.80078 11.2695 5.74219 10.5762L5.73242 10.0586L4.44336 8.75977L4.44336 9.90234Q4.44336 10.957 4.86328 11.7773Q5.2832 12.5977 6.03516 13.0664Q6.78711 13.5352 7.79297 13.5352ZM11.1426 3.62305Q11.1426 2.56836 10.7227 1.75293Q10.3027 0.9375 9.55078 0.46875Q8.79883 0 7.79297 0Q6.8457 0 6.12305 0.419922Q5.40039 0.839844 4.9707 1.57227Q4.54102 2.30469 4.47266 3.27148L4.47266 4.13086L5.58594 5.24414L5.58594 3.62305Q5.58594 2.51953 6.18652 1.82129Q6.78711 1.12305 7.79297 1.12305Q8.80859 1.12305 9.4043 1.82129Q10 2.51953 10 3.62305L10 9.26758Q10 9.36523 9.99512 9.45312Q9.99023 9.54102 9.9707 9.62891L11.0547 10.7227Q11.1426 10.3125 11.1426 9.90234Z"
                     fill="#ff9f0a" />
              <path d="M14.9512 17.7637Q15.1172 17.9297 15.3662 17.9297Q15.6152 17.9297 15.7812 17.7637Q15.9473 17.5879 15.9473 17.3438Q15.9473 17.0996 15.7812 16.9336L0.996094 2.16797Q0.830078 2.00195 0.585938 1.99707Q0.341797 1.99219 0.166016 2.16797Q0 2.33398 0 2.58301Q0 2.83203 0.166016 2.98828Z"
                     fill="#ff9f0a" />
       </g>
</svg>