<svg width="13.4448" height="22.1619">
       <g>
              <rect height="22.1619" opacity="0" width="13.4448" x="0" y="0" />
              <path d="M0 10.289Q0 12.1304 0.767975 13.5619Q1.53595 14.9933 2.91946 15.849Q4.30298 16.7047 6.15005 16.8275L6.15005 19.4905L2.36053 19.4905Q2.12067 19.4905 1.95427 19.6569Q1.78787 19.8233 1.78787 20.0662Q1.78787 20.2992 1.95427 20.4671Q2.12067 20.6351 2.36053 20.6351L11.0843 20.6351Q11.3242 20.6351 11.4921 20.4671Q11.66 20.2992 11.66 20.0662Q11.66 19.8233 11.4921 19.6569Q11.3242 19.4905 11.0843 19.4905L7.29477 19.4905L7.29477 16.8275Q9.14169 16.7047 10.5253 15.849Q11.9089 14.9933 12.6768 13.5619Q13.4448 12.1304 13.4448 10.289L13.4448 8.37326Q13.4448 8.14011 13.2784 7.97218Q13.112 7.80426 12.8758 7.80426Q12.636 7.80426 12.4696 7.97218Q12.3032 8.14011 12.3032 8.37326L12.3032 10.2486Q12.3032 11.8875 11.612 13.133Q10.9209 14.3785 9.67041 15.073Q8.41995 15.7675 6.72577 15.7675Q5.03159 15.7675 3.77777 15.073Q2.52396 14.3785 1.83426 13.133Q1.14456 11.8875 1.14456 10.2486L1.14456 8.37326Q1.14456 8.14011 0.976639 7.97218Q0.808716 7.80426 0.568848 7.80426Q0.332794 7.80426 0.166397 7.97218Q0 8.14011 0 8.37326ZM3.37082 9.90417Q3.37082 10.9576 3.78975 11.7764Q4.20868 12.5952 4.96407 13.0639Q5.71945 13.5326 6.72577 13.5326Q7.72522 13.5326 8.48061 13.0639Q9.23599 12.5952 9.65492 11.7764Q10.0739 10.9576 10.0739 9.90417L10.0739 3.62839Q10.0739 2.57492 9.65492 1.75613Q9.23599 0.937347 8.48061 0.468674Q7.72522 0 6.72577 0Q5.71945 0 4.96407 0.468674Q4.20868 0.937347 3.78975 1.75613Q3.37082 2.57492 3.37082 3.62839ZM4.51248 9.90417L4.51248 3.62839Q4.51248 2.52014 5.11406 1.82114Q5.71564 1.12213 6.72577 1.12213Q7.7359 1.12213 8.33412 1.82114Q8.93234 2.52014 8.93234 3.62839L8.93234 9.90417Q8.93234 11.0124 8.33412 11.7114Q7.7359 12.4104 6.72577 12.4104Q5.71564 12.4104 5.11406 11.7114Q4.51248 11.0124 4.51248 9.90417Z"
                     fill="#ff9f0a" />
       </g>
</svg>