<svg width="20.0697" height="22.0331">
       <g>
              <rect height="22.0331" opacity="0" width="20.0697" x="0" y="0" />
              <path d="M6.62491 10.2246Q6.62491 12.066 7.39288 13.4975Q8.16086 14.9289 9.54437 15.7846Q10.9279 16.6403 12.775 16.7632L12.775 19.4261L8.98849 19.4261Q8.74557 19.4261 8.57918 19.5925Q8.41278 19.7589 8.41278 20.0018Q8.41278 20.2348 8.57918 20.4028Q8.74557 20.5707 8.98849 20.5707L17.7092 20.5707Q17.9521 20.5707 18.1185 20.4028Q18.2849 20.2348 18.2849 20.0018Q18.2849 19.7589 18.1185 19.5925Q17.9521 19.4261 17.7092 19.4261L13.9197 19.4261L13.9197 16.7632Q15.7668 16.6403 17.1503 15.7846Q18.5338 14.9289 19.3018 13.4975Q20.0697 12.066 20.0697 10.2246L20.0697 8.30887Q20.0697 8.07571 19.9033 7.90779Q19.7369 7.73987 19.5038 7.73987Q19.261 7.73987 19.0945 7.90779Q18.9281 8.07571 18.9281 8.30887L18.9281 10.1842Q18.9281 11.8231 18.2369 13.0686Q17.5458 14.3141 16.2953 15.0086Q15.0449 15.7031 13.344 15.7031Q11.6528 15.7031 10.4008 15.0086Q9.14886 14.3141 8.45917 13.0686Q7.76947 11.8231 7.76947 10.1842L7.76947 8.30887Q7.76947 8.07571 7.60307 7.90779Q7.43668 7.73987 7.19391 7.73987Q6.9577 7.73987 6.79131 7.90779Q6.62491 8.07571 6.62491 8.30887ZM13.344 13.4038Q14.2993 13.4038 15.009 12.9621Q15.7187 12.5204 16.1122 11.7458Q16.5057 10.9711 16.5057 9.96857L16.5057 3.43536Q16.5057 2.43576 16.1122 1.65955Q15.7187 0.883331 15.009 0.441666Q14.2993 0 13.344 0Q12.3984 0 11.6886 0.441666Q10.9789 0.883331 10.5839 1.65955Q10.1889 2.43576 10.1889 3.43536L10.1889 9.96857Q10.1889 10.9711 10.5839 11.7458Q10.9789 12.5204 11.6886 12.9621Q12.3984 13.4038 13.344 13.4038Z"
                     fill="#ff9f0a" />
              <path d="M1.70303 20.0095Q2.39914 20.0095 2.88948 19.5206Q3.37982 19.0318 3.37982 18.3357Q3.37982 17.6329 2.88948 17.1426Q2.39914 16.6522 1.70303 16.6522Q0.980682 16.6522 0.490341 17.141Q0 17.6299 0 18.3357Q0 19.0318 0.495224 19.5206Q0.990448 20.0095 1.70303 20.0095Z"
                     fill="#ff9f0a" />
              <path d="M1.70303 14.9858Q2.16705 14.9858 2.54623 14.7553Q2.92542 14.5248 3.15262 14.1393Q3.37982 13.7537 3.37982 13.2828Q3.37982 12.5868 2.88948 12.0965Q2.39914 11.6061 1.70303 11.6061Q1.22925 11.6061 0.841751 11.8317Q0.454254 12.0573 0.227127 12.438Q0 12.8188 0 13.2828Q0 14.0053 0.490341 14.4955Q0.980682 14.9858 1.70303 14.9858Z"
                     fill="#ff9f0a" />
              <path d="M1.70303 9.92996Q2.39914 9.92996 2.88948 9.44115Q3.37982 8.95233 3.37982 8.24646Q3.37982 7.53387 2.88948 7.04353Q2.39914 6.55319 1.70303 6.55319Q0.980682 6.55319 0.490341 7.04353Q0 7.53387 0 8.24646Q0 8.95233 0.490341 9.44115Q0.980682 9.92996 1.70303 9.92996Z"
                     fill="#ff9f0a" />
              <path d="M1.70303 4.88373Q2.39914 4.88373 2.88948 4.39491Q3.37982 3.9061 3.37982 3.20328Q3.37982 2.50717 2.88948 2.01683Q2.39914 1.52649 1.70303 1.52649Q0.990448 1.52649 0.495224 2.01683Q0 2.50717 0 3.20328Q0 3.91586 0.490341 4.3998Q0.980682 4.88373 1.70303 4.88373Z"
                     fill="rgba(255,159,10,0.3)" />
       </g>
</svg>