<svg width="19.5898" height="19.5996">
       <g>
              <rect height="19.5996" opacity="0" width="19.5898" x="0" y="0" />
              <path d="M9.79492 19.5898Q11.8066 19.5898 13.5791 18.8232Q15.3516 18.0566 16.7041 16.7041Q18.0566 15.3516 18.8232 13.5791Q19.5898 11.8066 19.5898 9.79492Q19.5898 7.7832 18.8232 6.01074Q18.0566 4.23828 16.7041 2.88574Q15.3516 1.5332 13.5742 0.766602Q11.7969 0 9.78516 0Q7.77344 0 6.00098 0.766602Q4.22852 1.5332 2.88086 2.88574Q1.5332 4.23828 0.766602 6.01074Q0 7.7832 0 9.79492Q0 11.8066 0.766602 13.5791Q1.5332 15.3516 2.88574 16.7041Q4.23828 18.0566 6.01074 18.8232Q7.7832 19.5898 9.79492 19.5898Z"
                     fill="#ff9f0a" />
              <path d="M7.33398 15.8398Q7.1582 15.8398 7.02148 15.708Q6.88477 15.5762 6.88477 15.4004Q6.88477 15.2148 7.02148 15.083Q7.1582 14.9512 7.33398 14.9512L9.36523 14.9512L9.36523 13.6621Q8.36914 13.5742 7.62207 13.0811Q6.875 12.5879 6.45508 11.7969Q6.03516 11.0059 6.03516 10.0098L6.03516 8.82812Q6.03516 8.65234 6.16699 8.52539Q6.29883 8.39844 6.47461 8.39844Q6.65039 8.39844 6.77734 8.52539Q6.9043 8.65234 6.9043 8.82812L6.9043 10.0098Q6.9043 10.8496 7.26562 11.4893Q7.62695 12.1289 8.27637 12.4902Q8.92578 12.8516 9.80469 12.8516Q10.6738 12.8516 11.3281 12.4902Q11.9824 12.1289 12.3438 11.4893Q12.7051 10.8496 12.7051 10.0098L12.7051 8.82812Q12.7051 8.65234 12.832 8.52539Q12.959 8.39844 13.1348 8.39844Q13.3105 8.39844 13.4424 8.52539Q13.5742 8.65234 13.5742 8.82812L13.5742 10.0098Q13.5742 11.0059 13.1543 11.7969Q12.7344 12.5879 11.9873 13.0762Q11.2402 13.5645 10.2539 13.6621L10.2539 14.9512L12.2754 14.9512Q12.4609 14.9512 12.5928 15.083Q12.7246 15.2148 12.7246 15.4004Q12.7246 15.5762 12.5879 15.708Q12.4512 15.8398 12.2754 15.8398ZM9.80469 11.7188Q9.05273 11.7188 8.59863 11.2061Q8.14453 10.6934 8.14453 9.93164L8.14453 5.60547Q8.14453 4.84375 8.59863 4.34082Q9.05273 3.83789 9.80469 3.83789Q10.5469 3.83789 11.001 4.34082Q11.4551 4.84375 11.4551 5.60547L11.4551 9.93164Q11.4551 10.6934 11.001 11.2061Q10.5469 11.7188 9.80469 11.7188Z"
                     fill="#ffffff" />
       </g>
</svg>