<svg width="19.5898" height="19.5996">
       <g>
              <rect height="19.5996" opacity="0" width="19.5898" x="0" y="0" />
              <path d="M9.79492 19.5898Q11.8066 19.5898 13.5791 18.8232Q15.3516 18.0566 16.7041 16.7041Q18.0566 15.3516 18.8232 13.5791Q19.5898 11.8066 19.5898 9.79492Q19.5898 7.7832 18.8232 6.01074Q18.0566 4.23828 16.7041 2.88574Q15.3516 1.5332 13.5742 0.766602Q11.7969 0 9.78516 0Q7.77344 0 6.00098 0.766602Q4.22852 1.5332 2.88086 2.88574Q1.5332 4.23828 0.766602 6.01074Q0 7.7832 0 9.79492Q0 11.8066 0.766602 13.5791Q1.5332 15.3516 2.88574 16.7041Q4.23828 18.0566 6.01074 18.8232Q7.7832 19.5898 9.79492 19.5898ZM9.79492 18.3203Q8.02734 18.3203 6.47949 17.6611Q4.93164 17.002 3.75977 15.8301Q2.58789 14.6582 1.92871 13.1104Q1.26953 11.5625 1.26953 9.79492Q1.26953 8.02734 1.92871 6.47949Q2.58789 4.93164 3.75977 3.75488Q4.93164 2.57812 6.47461 1.91895Q8.01758 1.25977 9.78516 1.25977Q11.5625 1.25977 13.1104 1.91895Q14.6582 2.57812 15.8301 3.75488Q17.002 4.93164 17.666 6.47949Q18.3301 8.02734 18.3301 9.79492Q18.3301 11.5625 17.666 13.1104Q17.002 14.6582 15.8301 15.8301Q14.6582 17.002 13.1152 17.6611Q11.5723 18.3203 9.79492 18.3203Z"
                     fill="#ff9f0a" />
              <path d="M7.38281 15.7227L12.2168 15.7227Q12.3926 15.7227 12.5244 15.5908Q12.6562 15.459 12.6562 15.2832Q12.6562 15.1074 12.5244 14.9805Q12.3926 14.8535 12.2168 14.8535L10.2344 14.8535L10.2344 13.584Q11.2012 13.4961 11.9385 13.0127Q12.6758 12.5293 13.0859 11.7529Q13.4961 10.9766 13.4961 10.0098L13.4961 8.84766Q13.4961 8.68164 13.3691 8.55469Q13.2422 8.42773 13.0664 8.42773Q12.8906 8.42773 12.7637 8.55469Q12.6367 8.68164 12.6367 8.84766L12.6367 10.0098Q12.6367 10.8398 12.2852 11.4648Q11.9336 12.0898 11.2939 12.4414Q10.6543 12.793 9.79492 12.793Q8.94531 12.793 8.30566 12.4414Q7.66602 12.0898 7.31445 11.4648Q6.96289 10.8398 6.96289 10.0098L6.96289 8.84766Q6.96289 8.68164 6.83105 8.55469Q6.69922 8.42773 6.5332 8.42773Q6.35742 8.42773 6.23047 8.55469Q6.10352 8.68164 6.10352 8.84766L6.10352 10.0098Q6.10352 10.9766 6.51367 11.7578Q6.92383 12.5391 7.66113 13.0176Q8.39844 13.4961 9.36523 13.584L9.36523 14.8535L7.38281 14.8535Q7.20703 14.8535 7.0752 14.9805Q6.94336 15.1074 6.94336 15.2832Q6.94336 15.459 7.0752 15.5908Q7.20703 15.7227 7.38281 15.7227ZM9.79492 11.6797Q10.5273 11.6797 10.9717 11.1768Q11.416 10.6738 11.416 9.93164L11.416 5.68359Q11.416 4.94141 10.9717 4.44336Q10.5273 3.94531 9.79492 3.94531Q9.07227 3.94531 8.62305 4.44336Q8.17383 4.94141 8.17383 5.68359L8.17383 9.93164Q8.17383 10.6738 8.62305 11.1768Q9.07227 11.6797 9.79492 11.6797Z"
                     fill="#ff9f0a" />
       </g>
</svg>