<svg width="17.6855" height="17.7051">
       <g>
              <rect height="17.7051" opacity="0" width="17.6855" x="0" y="0" />
              <path d="M2.88086 17.7051L14.8047 17.7051Q16.2305 17.7051 16.958 16.9873Q17.6855 16.2695 17.6855 14.8535L17.6855 2.88086Q17.6855 1.46484 16.958 0.742188Q16.2305 0.0195312 14.8047 0.0195312L2.88086 0.0195312Q1.44531 0.0195312 0.722656 0.737305Q0 1.45508 0 2.88086L0 14.8535Q0 16.2695 0.722656 16.9873Q1.44531 17.7051 2.88086 17.7051ZM2.90039 16.4941Q2.07031 16.4941 1.64062 16.0645Q1.21094 15.6348 1.21094 14.7949L1.21094 2.93945Q1.21094 2.08984 1.64062 1.66016Q2.07031 1.23047 2.90039 1.23047L14.7852 1.23047Q15.5859 1.23047 16.0303 1.66016Q16.4746 2.08984 16.4746 2.93945L16.4746 14.7949Q16.4746 15.6348 16.0303 16.0645Q15.5859 16.4941 14.7852 16.4941Z"
                     fill="#ff9f0a" />
              <path d="M6.43555 14.7754L11.2695 14.7754Q11.4453 14.7754 11.5771 14.6436Q11.709 14.5117 11.709 14.3359Q11.709 14.1602 11.5771 14.0332Q11.4453 13.9062 11.2695 13.9062L9.28711 13.9062L9.28711 12.6367Q10.2539 12.5488 10.9912 12.0654Q11.7285 11.582 12.1387 10.8057Q12.5488 10.0293 12.5488 9.0625L12.5488 7.90039Q12.5488 7.73438 12.4219 7.60742Q12.2949 7.48047 12.1191 7.48047Q11.9434 7.48047 11.8164 7.60742Q11.6895 7.73438 11.6895 7.90039L11.6895 9.0625Q11.6895 9.89258 11.3379 10.5176Q10.9863 11.1426 10.3467 11.4941Q9.70703 11.8457 8.84766 11.8457Q7.99805 11.8457 7.3584 11.4941Q6.71875 11.1426 6.36719 10.5176Q6.01562 9.89258 6.01562 9.0625L6.01562 7.90039Q6.01562 7.73438 5.88379 7.60742Q5.75195 7.48047 5.58594 7.48047Q5.41016 7.48047 5.2832 7.60742Q5.15625 7.73438 5.15625 7.90039L5.15625 9.0625Q5.15625 10.0293 5.56641 10.8105Q5.97656 11.5918 6.71387 12.0703Q7.45117 12.5488 8.41797 12.6367L8.41797 13.9062L6.43555 13.9062Q6.25977 13.9062 6.12793 14.0332Q5.99609 14.1602 5.99609 14.3359Q5.99609 14.5117 6.12793 14.6436Q6.25977 14.7754 6.43555 14.7754ZM8.84766 10.7324Q9.58008 10.7324 10.0244 10.2295Q10.4688 9.72656 10.4688 8.98438L10.4688 4.73633Q10.4688 3.99414 10.0244 3.49609Q9.58008 2.99805 8.84766 2.99805Q8.125 2.99805 7.67578 3.49609Q7.22656 3.99414 7.22656 4.73633L7.22656 8.98438Q7.22656 9.72656 7.67578 10.2295Q8.125 10.7324 8.84766 10.7324Z"
                     fill="#ff9f0a" />
       </g>
</svg>