<svg width="13.4448" height="22.0331">
       <g>
              <rect height="22.0331" opacity="0" width="13.4448" x="0" y="0" />
              <path d="M0 10.2246Q0 12.066 0.767975 13.4975Q1.53595 14.9289 2.91946 15.7846Q4.30298 16.6403 6.15005 16.7632L6.15005 19.4261L2.36053 19.4261Q2.12067 19.4261 1.95427 19.5925Q1.78787 19.7589 1.78787 20.0018Q1.78787 20.2348 1.95427 20.4028Q2.12067 20.5707 2.36053 20.5707L11.0843 20.5707Q11.3242 20.5707 11.4921 20.4028Q11.66 20.2348 11.66 20.0018Q11.66 19.7589 11.4921 19.5925Q11.3242 19.4261 11.0843 19.4261L7.29477 19.4261L7.29477 16.7632Q9.14169 16.6403 10.5253 15.7846Q11.9089 14.9289 12.6768 13.4975Q13.4448 12.066 13.4448 10.2246L13.4448 8.30887Q13.4448 8.07571 13.2784 7.90779Q13.112 7.73987 12.8758 7.73987Q12.636 7.73987 12.4696 7.90779Q12.3032 8.07571 12.3032 8.30887L12.3032 10.1842Q12.3032 11.8231 11.612 13.0686Q10.9209 14.3141 9.67041 15.0086Q8.41995 15.7031 6.72577 15.7031Q5.03159 15.7031 3.77777 15.0086Q2.52396 14.3141 1.83426 13.0686Q1.14456 11.8231 1.14456 10.1842L1.14456 8.30887Q1.14456 8.07571 0.976639 7.90779Q0.808716 7.73987 0.568848 7.73987Q0.332794 7.73987 0.166397 7.90779Q0 8.07571 0 8.30887ZM6.72577 13.4038Q7.67441 13.4038 8.38745 12.9621Q9.10049 12.5204 9.49066 11.7458Q9.88083 10.9711 9.88083 9.96857L9.88083 3.43536Q9.88083 2.43576 9.49066 1.65955Q9.10049 0.883331 8.38745 0.441666Q7.67441 0 6.72577 0Q5.77042 0 5.06065 0.441666Q4.35089 0.883331 3.95744 1.65955Q3.564 2.43576 3.564 3.43536L3.564 9.96857Q3.564 10.9711 3.95744 11.7458Q4.35089 12.5204 5.06065 12.9621Q5.77042 13.4038 6.72577 13.4038Z"
                     fill="#ff9f0a" />
       </g>
</svg>