<svg width="15.9473" height="22.041">
       <g>
              <rect height="22.041" opacity="0" width="15.9473" x="0" y="0" />
              <path d="M1.07422 10.2246Q1.07422 12.0703 1.84082 13.501Q2.60742 14.9316 3.98926 15.7861Q5.37109 16.6406 7.2168 16.7676L7.2168 19.4336L3.42773 19.4336Q3.19336 19.4336 3.02734 19.5996Q2.86133 19.7656 2.86133 20.0098Q2.86133 20.2344 3.02734 20.4053Q3.19336 20.5762 3.42773 20.5762L12.1582 20.5762Q12.3926 20.5762 12.5635 20.4053Q12.7344 20.2344 12.7344 20.0098Q12.7344 19.7656 12.5635 19.5996Q12.3926 19.4336 12.1582 19.4336L8.36914 19.4336L8.36914 16.7676Q9.27734 16.7188 10.0781 16.4697Q10.8789 16.2207 11.543 15.8105L10.7324 14.9902Q10.1172 15.332 9.37988 15.5176Q8.64258 15.7031 7.79297 15.7031Q6.10352 15.7031 4.84863 15.0098Q3.59375 14.3164 2.90527 13.0713Q2.2168 11.8262 2.2168 10.1855L2.2168 8.31055Q2.2168 8.07617 2.0459 7.91016Q1.875 7.74414 1.64062 7.74414Q1.40625 7.74414 1.24023 7.91016Q1.07422 8.07617 1.07422 8.31055ZM12.9102 12.5098L13.7988 13.3887Q14.5117 11.9727 14.5117 10.2246L14.5117 8.31055Q14.5117 8.07617 14.3457 7.91016Q14.1797 7.74414 13.9453 7.74414Q13.7109 7.74414 13.54 7.91016Q13.3691 8.07617 13.3691 8.31055L13.3691 10.1855Q13.3691 11.4551 12.9102 12.5098ZM7.79297 13.4082Q8.41797 13.4082 8.91602 13.1738L4.63867 8.89648L4.63867 9.9707Q4.63867 10.9766 5.0293 11.7529Q5.41992 12.5293 6.12793 12.9688Q6.83594 13.4082 7.79297 13.4082ZM7.79297 0Q8.74023 0 9.45312 0.444336Q10.166 0.888672 10.5566 1.66504Q10.9473 2.44141 10.9473 3.4375L10.9473 9.9707Q10.9473 10.1074 10.9326 10.2393Q10.918 10.3711 10.8887 10.4883L4.63867 4.23828L4.63867 3.36914Q4.64844 2.38281 5.04395 1.62598Q5.43945 0.869141 6.14258 0.43457Q6.8457 0 7.79297 0Z"
                     fill="#ff9f0a" />
              <path d="M14.9512 17.7051Q15.1172 17.8711 15.3662 17.8711Q15.6152 17.8711 15.7812 17.7051Q15.9473 17.5293 15.9473 17.2852Q15.9473 17.041 15.7812 16.875L0.996094 2.10938Q0.830078 1.94336 0.585938 1.93848Q0.341797 1.93359 0.166016 2.10938Q0 2.27539 0 2.52441Q0 2.77344 0.166016 2.92969Z"
                     fill="#ff9f0a" />
       </g>
</svg>