<svg width="17.6855" height="17.7051">
       <g>
              <rect height="17.7051" opacity="0" width="17.6855" x="0" y="0" />
              <path d="M2.88086 17.7051L14.8047 17.7051Q16.2305 17.7051 16.958 16.9873Q17.6855 16.2695 17.6855 14.8535L17.6855 2.88086Q17.6855 1.46484 16.958 0.742188Q16.2305 0.0195312 14.8047 0.0195312L2.88086 0.0195312Q1.44531 0.0195312 0.722656 0.737305Q0 1.45508 0 2.88086L0 14.8535Q0 16.2695 0.722656 16.9873Q1.44531 17.7051 2.88086 17.7051Z"
                     fill="#ff9f0a" />
              <path d="M6.37695 14.8926Q6.20117 14.8926 6.06445 14.7607Q5.92773 14.6289 5.92773 14.4531Q5.92773 14.2676 6.06445 14.1357Q6.20117 14.0039 6.37695 14.0039L8.4082 14.0039L8.4082 12.7148Q7.41211 12.627 6.66504 12.1338Q5.91797 11.6406 5.49805 10.8496Q5.07812 10.0586 5.07812 9.0625L5.07812 7.88086Q5.07812 7.70508 5.20996 7.57812Q5.3418 7.45117 5.51758 7.45117Q5.69336 7.45117 5.82031 7.57812Q5.94727 7.70508 5.94727 7.88086L5.94727 9.0625Q5.94727 9.90234 6.30859 10.542Q6.66992 11.1816 7.31934 11.543Q7.96875 11.9043 8.84766 11.9043Q9.7168 11.9043 10.3711 11.543Q11.0254 11.1816 11.3867 10.542Q11.748 9.90234 11.748 9.0625L11.748 7.88086Q11.748 7.70508 11.875 7.57812Q12.002 7.45117 12.1777 7.45117Q12.3535 7.45117 12.4854 7.57812Q12.6172 7.70508 12.6172 7.88086L12.6172 9.0625Q12.6172 10.0586 12.1973 10.8496Q11.7773 11.6406 11.0303 12.1289Q10.2832 12.6172 9.29688 12.7148L9.29688 14.0039L11.3184 14.0039Q11.5039 14.0039 11.6357 14.1357Q11.7676 14.2676 11.7676 14.4531Q11.7676 14.6289 11.6309 14.7607Q11.4941 14.8926 11.3184 14.8926ZM8.84766 10.7715Q8.0957 10.7715 7.6416 10.2588Q7.1875 9.74609 7.1875 8.98438L7.1875 4.6582Q7.1875 3.89648 7.6416 3.39355Q8.0957 2.89062 8.84766 2.89062Q9.58984 2.89062 10.0439 3.39355Q10.498 3.89648 10.498 4.6582L10.498 8.98438Q10.498 9.74609 10.0439 10.2588Q9.58984 10.7715 8.84766 10.7715Z"
                     fill="#ffffff" />
       </g>
</svg>