<svg width="22.8699" height="17.6953">
       <g>
              <rect height="17.6953" opacity="0" width="22.8699" x="0" y="0" />
              <path d="M2.87872 17.6788L19.9883 17.6788Q21.4282 17.6788 22.149 16.9583Q22.8699 16.2378 22.8699 14.8308L22.8699 5.345Q22.8699 3.93799 22.149 3.21747Q21.4282 2.49695 19.9883 2.49695L2.87872 2.49695Q1.44836 2.49695 0.724182 3.21442Q0 3.93188 0 5.345L0 14.8308Q0 16.2439 0.724182 16.9614Q1.44836 17.6788 2.87872 17.6788ZM4.1153 3.05984L9.35638 3.05984L9.35638 1.09146Q9.35638 0.580292 9.07112 0.290146Q8.78586 0 8.25943 0L5.21515 0Q4.68872 0 4.40201 0.290146Q4.1153 0.580292 4.1153 1.09146ZM13.5068 3.05984L18.7411 3.05984L18.7411 1.09146Q18.7411 0.580292 18.4578 0.290146Q18.1744 0 17.6413 0L14.597 0Q14.0706 0 13.7887 0.290146Q13.5068 0.580292 13.5068 1.09146Z"
                     fill="rgba(255,255,255,0.55)" />
              <path d="M3.39676 10.0928Q3.39676 9.84314 3.56651 9.67674Q3.73627 9.51035 3.97614 9.51035L9.30603 9.51035Q9.5459 9.51035 9.7123 9.67674Q9.87869 9.84314 9.87869 10.0928Q9.87869 10.3326 9.7123 10.499Q9.5459 10.6654 9.30603 10.6654L3.97614 10.6654Q3.73627 10.6654 3.56651 10.499Q3.39676 10.3326 3.39676 10.0928ZM12.9716 10.0928Q12.9716 9.84314 13.138 9.67674Q13.3044 9.51035 13.5474 9.51035L15.6396 9.51035L15.6396 7.41806Q15.6396 7.17819 15.806 7.00844Q15.9724 6.83868 16.2123 6.83868Q16.4552 6.83868 16.6216 7.00844Q16.788 7.17819 16.788 7.41806L16.788 9.51035L18.8742 9.51035Q19.1171 9.51035 19.2869 9.67674Q19.4566 9.84314 19.4566 10.0928Q19.4566 10.3326 19.2869 10.499Q19.1171 10.6654 18.8742 10.6654L16.788 10.6654L16.788 12.7516Q16.788 12.9878 16.6216 13.1625Q16.4552 13.3371 16.2123 13.3273Q15.9724 13.3371 15.806 13.1673Q15.6396 12.9976 15.6396 12.7516L15.6396 10.6654L13.5474 10.6654Q13.3044 10.6654 13.138 10.499Q12.9716 10.3326 12.9716 10.0928Z"
                     fill="#ffffff" />
       </g>
</svg>