<svg width="16.1426" height="20.8105">
       <g>
              <rect height="20.8105" opacity="0" width="16.1426" x="0" y="0" />
              <path d="M0 17.9395Q0 19.375 0.717773 20.0928Q1.43555 20.8105 2.85156 20.8105L13.291 20.8105Q14.7168 20.8105 15.4297 20.0928Q16.1426 19.375 16.1426 17.9395L16.1426 2.88086Q16.1426 1.45508 15.4297 0.727539Q14.7168 0 13.291 0L2.85156 0Q1.43555 0 0.717773 0.727539Q0 1.45508 0 2.88086Z"
                     fill="#ff453a" />
              <path d="M3.91602 11.084Q3.59375 11.084 3.38867 10.9082Q3.18359 10.7324 3.18359 10.4395Q3.18359 10.1367 3.38379 9.95605Q3.58398 9.77539 3.91602 9.77539L12.2656 9.77539Q12.5879 9.77539 12.7832 9.95605Q12.9785 10.1367 12.9785 10.4395Q12.9785 10.7324 12.7783 10.9082Q12.5781 11.084 12.2656 11.084Z"
                     fill="#ffffff" />
       </g>
</svg>