<svg width="15.8226" height="1.34979">
       <g>
              <rect height="1.34979" opacity="0" width="15.8226" x="0" y="0" />
              <path d="M0.657196 1.34979L15.1624 1.34979Q15.3423 1.34979 15.494 1.26137Q15.6458 1.17294 15.7342 1.02119Q15.8226 0.869446 15.8226 0.685883Q15.8226 0.505981 15.7342 0.354233Q15.6458 0.202484 15.494 0.114059Q15.3423 0.0256348 15.1624 0.0256348L0.657196 0.0256348Q0.480347 0.0256348 0.331955 0.114059Q0.183563 0.202484 0.0917816 0.354233Q0 0.505981 0 0.685883Q0 0.869446 0.0917816 1.02119Q0.183563 1.17294 0.331955 1.26137Q0.480347 1.34979 0.657196 1.34979Z"
                     fill="#ff453a" />
       </g>
</svg>