<svg width="16.1426" height="20.8105">
       <g>
              <rect height="20.8105" opacity="0" width="16.1426" x="0" y="0" />
              <path d="M0 17.9395Q0 19.375 0.717773 20.0928Q1.43555 20.8105 2.85156 20.8105L13.291 20.8105Q14.7168 20.8105 15.4297 20.0928Q16.1426 19.375 16.1426 17.9395L16.1426 2.88086Q16.1426 1.45508 15.4297 0.727539Q14.7168 0 13.291 0L2.85156 0Q1.43555 0 0.717773 0.727539Q0 1.45508 0 2.88086ZM1.21094 17.9102L1.21094 2.91016Q1.21094 2.08008 1.64062 1.64551Q2.07031 1.21094 2.91016 1.21094L13.2324 1.21094Q14.082 1.21094 14.5117 1.64551Q14.9414 2.08008 14.9414 2.91016L14.9414 17.9102Q14.9414 18.7402 14.5117 19.1748Q14.082 19.6094 13.2324 19.6094L2.91016 19.6094Q2.07031 19.6094 1.64062 19.1748Q1.21094 18.7402 1.21094 17.9102Z"
                     fill="#ff453a" />
              <path d="M3.97461 11.0449L12.1777 11.0449Q12.4805 11.0449 12.6807 10.8789Q12.8809 10.7129 12.8809 10.4199Q12.8809 10.127 12.6904 9.95605Q12.5 9.78516 12.1777 9.78516L3.97461 9.78516Q3.66211 9.78516 3.4668 9.95605Q3.27148 10.127 3.27148 10.4199Q3.27148 10.7129 3.47168 10.8789Q3.67188 11.0449 3.97461 11.0449Z"
                     fill="#ff453a" />
       </g>
</svg>