<svg width="17.6855" height="17.7051">
       <g>
              <rect height="17.7051" opacity="0" width="17.6855" x="0" y="0" />
              <path d="M2.88086 17.7051L14.8047 17.7051Q16.2305 17.7051 16.958 16.9873Q17.6855 16.2695 17.6855 14.8535L17.6855 2.88086Q17.6855 1.46484 16.958 0.742188Q16.2305 0.0195312 14.8047 0.0195312L2.88086 0.0195312Q1.44531 0.0195312 0.722656 0.737305Q0 1.45508 0 2.88086L0 14.8535Q0 16.2695 0.722656 16.9873Q1.44531 17.7051 2.88086 17.7051Z"
                     fill="#ff453a" />
              <path d="M4.67773 9.51172Q4.35547 9.51172 4.15039 9.33594Q3.94531 9.16016 3.94531 8.86719Q3.94531 8.56445 4.14551 8.38379Q4.3457 8.20312 4.67773 8.20312L13.0273 8.20312Q13.3496 8.20312 13.5449 8.38379Q13.7402 8.56445 13.7402 8.86719Q13.7402 9.16016 13.54 9.33594Q13.3398 9.51172 13.0273 9.51172Z"
                     fill="#ffffff" />
       </g>
</svg>