<svg width="17.6855" height="17.7051">
       <g>
              <rect height="17.7051" opacity="0" width="17.6855" x="0" y="0" />
              <path d="M2.88086 17.7051L14.8047 17.7051Q16.2305 17.7051 16.958 16.9873Q17.6855 16.2695 17.6855 14.8535L17.6855 2.88086Q17.6855 1.46484 16.958 0.742188Q16.2305 0.0195312 14.8047 0.0195312L2.88086 0.0195312Q1.44531 0.0195312 0.722656 0.737305Q0 1.45508 0 2.88086L0 14.8535Q0 16.2695 0.722656 16.9873Q1.44531 17.7051 2.88086 17.7051ZM2.90039 16.4941Q2.07031 16.4941 1.64062 16.0645Q1.21094 15.6348 1.21094 14.7949L1.21094 2.93945Q1.21094 2.08984 1.64062 1.66016Q2.07031 1.23047 2.90039 1.23047L14.7852 1.23047Q15.5859 1.23047 16.0303 1.66016Q16.4746 2.08984 16.4746 2.93945L16.4746 14.7949Q16.4746 15.6348 16.0303 16.0645Q15.5859 16.4941 14.7852 16.4941Z"
                     fill="#ff453a" />
              <path d="M4.74609 9.49219L12.9492 9.49219Q13.252 9.49219 13.4521 9.32617Q13.6523 9.16016 13.6523 8.86719Q13.6523 8.57422 13.4619 8.40332Q13.2715 8.23242 12.9492 8.23242L4.74609 8.23242Q4.43359 8.23242 4.23828 8.40332Q4.04297 8.57422 4.04297 8.86719Q4.04297 9.16016 4.24316 9.32617Q4.44336 9.49219 4.74609 9.49219Z"
                     fill="#ff453a" />
       </g>
</svg>