<svg width="21.7432" height="21.7579">
       <g>
              <rect height="21.7579" opacity="0" width="21.7432" x="0" y="0" />
              <path d="M1.02053 12.9053L8.85256 20.7276Q9.85842 21.7432 10.8789 21.7481Q11.8994 21.753 12.9053 20.7471L20.7471 12.8955Q21.7432 11.8994 21.7432 10.874Q21.7432 9.84866 20.7373 8.83303L12.9248 1.02053Q11.8994 0.00490618 10.8838 2.33627e-05Q9.86819-0.00485945 8.86233 1.01077L1.001 8.85256Q-0.00485922 9.86819 2.35885e-05 10.8789Q0.0049064 11.8897 1.02053 12.9053Z"
                     fill="#ff453a" />
              <path d="M6.70413 11.5381Q6.38186 11.5381 6.17678 11.3623Q5.9717 11.1865 5.9717 10.8936Q5.9717 10.5908 6.1719 10.4102Q6.37209 10.2295 6.70413 10.2295L15.0537 10.2295Q15.376 10.2295 15.5713 10.4102Q15.7666 10.5908 15.7666 10.8936Q15.7666 11.1865 15.5664 11.3623Q15.3662 11.5381 15.0537 11.5381Z"
                     fill="#ffffff" />
       </g>
</svg>