<svg width="22.8711" height="17.6855">
       <g>
              <rect height="17.6855" opacity="0" width="22.8711" x="0" y="0" />
              <path d="M2.88086 17.6855L19.9902 17.6855Q21.4258 17.6855 22.1484 16.9629Q22.8711 16.2402 22.8711 14.834L22.8711 2.85156Q22.8711 1.44531 22.1484 0.722656Q21.4258 0 19.9902 0L2.88086 0Q1.44531 0 0.722656 0.717773Q0 1.43555 0 2.85156L0 14.834Q0 16.25 0.722656 16.9678Q1.44531 17.6855 2.88086 17.6855ZM2.90039 16.4746Q2.07031 16.4746 1.64062 16.0449Q1.21094 15.6152 1.21094 14.7656L1.21094 2.91992Q1.21094 2.07031 1.64062 1.64062Q2.07031 1.21094 2.90039 1.21094L19.9707 1.21094Q20.7715 1.21094 21.2158 1.64062Q21.6602 2.07031 21.6602 2.91992L21.6602 14.7656Q21.6602 15.6152 21.2158 16.0449Q20.7715 16.4746 19.9707 16.4746Z"
                     fill="#ff453a" />
              <path d="M7.34375 9.48242L15.5469 9.48242Q15.8496 9.48242 16.0498 9.31641Q16.25 9.15039 16.25 8.85742Q16.25 8.56445 16.0596 8.39355Q15.8691 8.22266 15.5469 8.22266L7.34375 8.22266Q7.03125 8.22266 6.83594 8.39355Q6.64062 8.56445 6.64062 8.85742Q6.64062 9.15039 6.84082 9.31641Q7.04102 9.48242 7.34375 9.48242Z"
                     fill="#ff453a" />
       </g>
</svg>