<svg width="21.7432" height="21.7579">
       <g>
              <rect height="21.7579" opacity="0" width="21.7432" x="0" y="0" />
              <path d="M1.02053 12.9053L8.85256 20.7276Q9.85842 21.7432 10.8789 21.7481Q11.8994 21.753 12.9053 20.7471L20.7471 12.8955Q21.7432 11.8994 21.7432 10.874Q21.7432 9.84866 20.7373 8.83303L12.9248 1.02053Q11.8994 0.00490618 10.8838 2.33627e-05Q9.86819-0.00485945 8.86233 1.01077L1.001 8.85256Q-0.00485922 9.86819 2.35885e-05 10.8789Q0.0049064 11.8897 1.02053 12.9053ZM1.88967 12.0752Q1.30373 11.4893 1.29885 10.874Q1.29397 10.2588 1.89944 9.67287L9.66311 1.89944Q10.2588 1.30373 10.8692 1.30373Q11.4795 1.30373 12.0752 1.88967L19.8584 9.67287Q20.4248 10.249 20.4395 10.8692Q20.4541 11.4893 19.8487 12.085L12.085 19.8487Q11.4795 20.4444 10.8643 20.4444Q10.249 20.4444 9.67288 19.8682Z"
                     fill="#ff453a" />
              <path d="M6.77248 11.5186L14.9756 11.5186Q15.2783 11.5186 15.4785 11.3526Q15.6787 11.1865 15.6787 10.8936Q15.6787 10.6006 15.4883 10.4297Q15.2979 10.2588 14.9756 10.2588L6.77248 10.2588Q6.45998 10.2588 6.26467 10.4297Q6.06936 10.6006 6.06936 10.8936Q6.06936 11.1865 6.26955 11.3526Q6.46975 11.5186 6.77248 11.5186Z"
                     fill="#ff453a" />
       </g>
</svg>