<svg width="22.8711" height="17.6855">
       <g>
              <rect height="17.6855" opacity="0" width="22.8711" x="0" y="0" />
              <path d="M2.88086 17.6855L19.9902 17.6855Q21.4258 17.6855 22.1484 16.9629Q22.8711 16.2402 22.8711 14.834L22.8711 2.85156Q22.8711 1.44531 22.1484 0.722656Q21.4258 0 19.9902 0L2.88086 0Q1.44531 0 0.722656 0.717773Q0 1.43555 0 2.85156L0 14.834Q0 16.25 0.722656 16.9678Q1.44531 17.6855 2.88086 17.6855Z"
                     fill="#ff453a" />
              <path d="M7.27539 9.51172Q6.95312 9.51172 6.74805 9.33594Q6.54297 9.16016 6.54297 8.86719Q6.54297 8.56445 6.74316 8.38379Q6.94336 8.20312 7.27539 8.20312L15.625 8.20312Q15.9473 8.20312 16.1426 8.38379Q16.3379 8.56445 16.3379 8.86719Q16.3379 9.16016 16.1377 9.33594Q15.9375 9.51172 15.625 9.51172Z"
                     fill="#ffffff" />
       </g>
</svg>