<svg width="19.5898" height="19.5996">
       <g>
              <rect height="19.5996" opacity="0" width="19.5898" x="0" y="0" />
              <path d="M9.79492 19.5898Q11.8066 19.5898 13.5791 18.8232Q15.3516 18.0566 16.7041 16.7041Q18.0566 15.3516 18.8232 13.5791Q19.5898 11.8066 19.5898 9.79492Q19.5898 7.7832 18.8232 6.01074Q18.0566 4.23828 16.7041 2.88574Q15.3516 1.5332 13.5742 0.766602Q11.7969 0 9.78516 0Q7.77344 0 6.00098 0.766602Q4.22852 1.5332 2.88086 2.88574Q1.5332 4.23828 0.766602 6.01074Q0 7.7832 0 9.79492Q0 11.8066 0.766602 13.5791Q1.5332 15.3516 2.88574 16.7041Q4.23828 18.0566 6.01074 18.8232Q7.7832 19.5898 9.79492 19.5898Z"
                     fill="#ff453a" />
              <path d="M5.63477 10.459Q5.3125 10.459 5.10742 10.2832Q4.90234 10.1074 4.90234 9.81445Q4.90234 9.51172 5.10254 9.33105Q5.30273 9.15039 5.63477 9.15039L13.9844 9.15039Q14.3066 9.15039 14.502 9.33105Q14.6973 9.51172 14.6973 9.81445Q14.6973 10.1074 14.4971 10.2832Q14.2969 10.459 13.9844 10.459Z"
                     fill="#ffffff" />
       </g>
</svg>