<svg width="18.8316" height="18.9792">
       <g>
              <rect height="18.9792" opacity="0" width="18.8316" x="0" y="0" />
              <path d="M14.7382 12.9225Q12.798 12.9225 11.215 12.3162Q9.63196 11.7099 8.49274 10.5793Q7.35352 9.4487 6.74049 7.87086Q6.12747 6.29303 6.12747 4.34021Q6.12747 3.7236 6.2014 3.09242Q6.27533 2.46124 6.40747 1.88751Q6.53961 1.31378 6.72455 0.879364Q6.7778 0.749817 6.79581 0.65712Q6.81381 0.564423 6.81381 0.505219Q6.81381 0.319061 6.67793 0.159531Q6.54205 0 6.30112 0Q6.23215 0 6.11374 0.0199127Q5.99533 0.0398254 5.86868 0.083313Q4.11652 0.802917 2.79694 2.21458Q1.47736 3.62625 0.738678 5.46707Q0 7.30789 0 9.3103Q0 11.3898 0.746918 13.1428Q1.49384 14.8958 2.82806 16.1978Q4.16229 17.4998 5.94711 18.2165Q7.73193 18.9331 9.80103 18.9331Q11.3286 18.9331 12.7429 18.5008Q14.1573 18.0685 15.3539 17.2991Q16.5504 16.5297 17.4294 15.5078Q18.3083 14.4859 18.7544 13.3066Q18.8046 13.1763 18.8181 13.0597Q18.8316 12.9431 18.8316 12.8809Q18.8316 12.6407 18.6718 12.4898Q18.512 12.3389 18.316 12.3389Q18.2014 12.3389 17.9961 12.4055Q17.4356 12.5882 16.5572 12.7554Q15.6789 12.9225 14.7382 12.9225Z"
                     fill="#ffffff" />
       </g>
</svg>