<svg width="19.5898" height="19.5996">
       <g>
              <rect height="19.5996" opacity="0" width="19.5898" x="0" y="0" />
              <path d="M9.79492 19.5996Q11.8066 19.5996 13.5791 18.833Q15.3516 18.0664 16.7041 16.7139Q18.0566 15.3613 18.8232 13.5889Q19.5898 11.8164 19.5898 9.80469Q19.5898 7.79297 18.8232 6.02051Q18.0566 4.24805 16.7041 2.89551Q15.3516 1.54297 13.5742 0.776367Q11.7969 0.00976562 9.78516 0.00976562Q7.77344 0.00976562 6.00098 0.776367Q4.22852 1.54297 2.88086 2.89551Q1.5332 4.24805 0.766602 6.02051Q0 7.79297 0 9.80469Q0 11.8164 0.766602 13.5889Q1.5332 15.3613 2.88574 16.7139Q4.23828 18.0664 6.01074 18.833Q7.7832 19.5996 9.79492 19.5996Z"
                     fill="#5e5ce6" />
              <path d="M10.0195 15.5957Q8.80859 15.5957 7.76367 15.1758Q6.71875 14.7559 5.94238 13.999Q5.16602 13.2422 4.72656 12.2168Q4.28711 11.1914 4.28711 9.98047Q4.28711 8.79883 4.71191 7.70996Q5.13672 6.62109 5.91309 5.7959Q6.68945 4.9707 7.71484 4.58008Q7.79297 4.55078 7.86133 4.54102Q7.92969 4.53125 7.96875 4.53125Q8.10547 4.53125 8.18848 4.61914Q8.27148 4.70703 8.27148 4.82422Q8.27148 4.86328 8.26172 4.91211Q8.25195 4.96094 8.22266 5.03906Q8.07617 5.42969 7.97363 5.97656Q7.87109 6.52344 7.87109 7.07031Q7.87109 8.58398 8.50098 9.71191Q9.13086 10.8398 10.2637 11.4648Q11.3965 12.0898 12.9102 12.0898Q13.4668 12.0898 13.9844 11.9971Q14.502 11.9043 14.8145 11.7871Q14.9219 11.7578 15 11.7578Q15.1172 11.7578 15.21 11.8408Q15.3027 11.9238 15.3027 12.0703Q15.3027 12.0996 15.293 12.168Q15.2832 12.2363 15.2539 12.3047Q14.9121 13.2324 14.126 13.9795Q13.3398 14.7266 12.2754 15.1611Q11.2109 15.5957 10.0195 15.5957Z"
                     fill="#ffffff" />
       </g>
</svg>