<svg width="19.1112" height="20.7693">
       <g>
              <rect height="20.7693" opacity="0" width="19.1112" x="0" y="0" />
              <path d="M8.23471 19.8564Q9.98718 19.8564 11.4774 19.3097Q12.9677 18.763 14.0899 17.7315Q15.2121 16.7 15.8603 15.228Q16.0706 14.7507 15.8296 14.5038Q15.6165 14.2845 15.1901 14.449Q14.5877 14.6803 13.8974 14.8051Q13.2071 14.9298 12.37 14.9298Q10.1326 14.9298 8.48473 14.0512Q6.83685 13.1726 5.93544 11.5506Q5.03403 9.92859 5.03403 7.68112Q5.03403 6.88736 5.17441 6.07178Q5.31479 5.2562 5.59235 4.6817Q5.8226 4.21188 5.58395 3.94928Q5.34515 3.67676 4.80392 3.91113Q3.37265 4.54315 2.29347 5.69908Q1.21429 6.85501 0.607147 8.38371Q0 9.91241 0 11.6693Q0 13.414 0.59288 14.902Q1.18576 16.3899 2.27921 17.5027Q3.37265 18.6154 4.8838 19.2359Q6.39496 19.8564 8.23471 19.8564Z"
                     fill="#ffffff" />
              <path d="M15.5058 11.0667Q15.7352 11.0667 15.7681 10.8209Q15.9004 9.83459 16.0357 9.28886Q16.171 8.74313 16.4529 8.46748Q16.7349 8.19183 17.2953 8.04688Q17.8557 7.90192 18.8548 7.73056Q19.1112 7.68402 19.1112 7.46811Q19.1112 7.2522 18.8788 7.20581Q17.8827 7.01416 17.3122 6.86737Q16.7416 6.72058 16.4577 6.45164Q16.1739 6.18271 16.0371 5.64224Q15.9004 5.10178 15.7681 4.11545Q15.7352 3.86948 15.5058 3.86948Q15.2763 3.86948 15.2464 4.10873Q15.1044 5.09872 14.974 5.65117Q14.8436 6.20361 14.5646 6.48262Q14.2856 6.76163 13.717 6.90475Q13.1485 7.04788 12.1329 7.20581Q12.0331 7.22229 11.9682 7.2905Q11.9034 7.3587 11.9034 7.46811Q11.9034 7.68402 12.1329 7.73056Q13.1485 7.91916 13.717 8.07236Q14.2856 8.22556 14.5646 8.49785Q14.8436 8.77014 14.974 9.31396Q15.1044 9.85779 15.2464 10.8344Q15.2599 10.937 15.3296 11.0019Q15.3993 11.0667 15.5058 11.0667ZM10.8408 4.66736Q10.9705 4.66736 10.9938 4.53094Q11.1018 3.91647 11.1931 3.56071Q11.2843 3.20496 11.4629 3.01666Q11.6414 2.82837 12.0084 2.72438Q12.3753 2.62039 13.0223 2.49939Q13.1746 2.4762 13.1746 2.33368Q13.1746 2.20093 13.0223 2.17773Q12.3753 2.04102 12.0242 1.93092Q11.673 1.82083 11.5021 1.63406Q11.3312 1.4473 11.2354 1.09947Q11.1395 0.751648 10.9938 0.146179Q10.9705 0 10.8408 0Q10.7111 0 10.6812 0.146179Q10.545 0.751648 10.4508 1.09947Q10.3566 1.4473 10.1857 1.63406Q10.0148 1.82083 9.66202 1.93092Q9.30923 2.04102 8.65936 2.17773Q8.50708 2.20093 8.50708 2.33368Q8.50708 2.4762 8.65936 2.49939Q9.30923 2.63611 9.6714 2.7417Q10.0336 2.84729 10.2139 3.0291Q10.3943 3.21091 10.4822 3.56369Q10.5701 3.91647 10.6812 4.53094Q10.7111 4.66736 10.8408 4.66736Z"
                     fill="#ffffff" />
       </g>
</svg>