<svg width="22.5391" height="22.1485">
       <g>
              <rect height="22.1485" opacity="0" width="22.5391" x="0" y="0" />
              <path d="M7.02744 13.0259L9.49203 13.0289Q8.17139 12.624 7.21657 11.7538Q6.26175 10.8837 5.74112 9.66383Q5.22049 8.44396 5.22049 7.00811Q5.22049 5.88125 5.5703 4.86791Q5.9201 3.85458 6.54213 3.01092Q7.16415 2.16726 7.98981 1.5534Q7.83325 1.99987 7.7504 2.5852Q7.66754 3.17052 7.66754 3.79003Q7.66754 5.95831 8.56705 7.56559Q9.46655 9.17287 11.0977 10.057Q12.7289 10.9412 14.9278 10.9412Q15.4536 10.9412 15.9644 10.873Q16.4752 10.8048 16.8587 10.6971Q16.3034 11.5095 15.4517 12.1068Q14.6001 12.7041 13.5323 13.0259L16.0088 13.0356Q16.7645 12.5211 17.3564 11.8278Q17.9483 11.1345 18.3319 10.2782Q18.5493 9.78323 18.2846 9.49651Q18.1758 9.38467 17.9932 9.3633Q17.8105 9.34194 17.5801 9.42754Q17.0737 9.62209 16.4771 9.72585Q15.8806 9.82961 15.1344 9.82961Q13.174 9.82961 11.7464 9.06652Q10.3188 8.30343 9.54529 6.89336Q8.77182 5.4833 8.77182 3.54757Q8.77182 2.80904 8.89839 2.10828Q9.02496 1.40752 9.25125 0.945793Q9.4989 0.45507 9.22562 0.165458Q8.92029-0.130867 8.39417 0.103508Q7.11441 0.680595 6.13998 1.71865Q5.16556 2.75671 4.62074 4.12962Q4.07593 5.50253 4.07593 7.07922Q4.07593 8.95452 4.85069 10.5089Q5.62546 12.0632 7.02744 13.0259Z"
                     fill="rgba(255,255,255,0.55)" />
              <path d="M1.97174 13.8244L22.0389 13.8244Q22.2443 13.8244 22.3917 13.6849Q22.5391 13.5454 22.5391 13.3362Q22.5391 13.127 22.3917 12.9891Q22.2443 12.8512 22.0389 12.8512L1.97174 12.8512Q1.75964 12.8512 1.61713 12.9891Q1.47461 13.127 1.47461 13.3362Q1.47461 13.5454 1.61713 13.6849Q1.75964 13.8244 1.97174 13.8244ZM0.500183 17.5811L20.5643 17.5811Q20.7765 17.5811 20.9205 17.4383Q21.0645 17.2954 21.0645 17.0862Q21.0645 16.877 20.9205 16.7391Q20.7765 16.6012 20.5643 16.6012L0.500183 16.6012Q0.2948 16.6012 0.1474 16.7391Q0 16.877 0 17.0862Q0 17.2954 0.1474 17.4383Q0.2948 17.5811 0.500183 17.5811ZM1.97174 21.3311L22.0389 21.3311Q22.2443 21.3311 22.3917 21.1931Q22.5391 21.0552 22.5391 20.846Q22.5391 20.6368 22.3917 20.494Q22.2443 20.3512 22.0389 20.3512L1.97174 20.3512Q1.75964 20.3512 1.61713 20.494Q1.47461 20.6368 1.47461 20.846Q1.47461 21.0552 1.61713 21.1931Q1.75964 21.3311 1.97174 21.3311Z"
                     fill="rgba(255,255,255,0.55)" />
       </g>
</svg>