<svg width="17.6855" height="17.7051">
       <g>
              <rect height="17.7051" opacity="0" width="17.6855" x="0" y="0" />
              <path d="M2.88086 17.7051L14.8047 17.7051Q16.2305 17.7051 16.958 16.9873Q17.6855 16.2695 17.6855 14.8535L17.6855 2.88086Q17.6855 1.46484 16.958 0.742188Q16.2305 0.0195312 14.8047 0.0195312L2.88086 0.0195312Q1.44531 0.0195312 0.722656 0.737305Q0 1.45508 0 2.88086L0 14.8535Q0 16.2695 0.722656 16.9873Q1.44531 17.7051 2.88086 17.7051Z"
                     fill="rgba(255,255,255,0.55)" />
              <path d="M5.55664 12.7734Q5.29297 12.7734 5.1123 12.5879Q4.93164 12.4023 4.93164 12.1484Q4.93164 11.8848 5.11719 11.6992L7.95898 8.85742L5.11719 6.02539Q4.93164 5.83008 4.93164 5.56641Q4.93164 5.3125 5.1123 5.13184Q5.29297 4.95117 5.55664 4.95117Q5.81055 4.95117 6.01562 5.13672L8.85742 7.96875L11.709 5.13672Q11.8945 4.94141 12.1582 4.94141Q12.4121 4.94141 12.5977 5.12207Q12.7832 5.30273 12.7832 5.55664Q12.7832 5.82031 12.5879 6.01562L9.74609 8.85742L12.5879 11.6895Q12.7734 11.8652 12.7734 12.1484Q12.7734 12.4023 12.5928 12.5879Q12.4121 12.7734 12.1387 12.7734Q11.8652 12.7734 11.6797 12.5781L8.85742 9.74609L6.03516 12.5781Q5.83008 12.7734 5.55664 12.7734Z"
                     fill="#ffffff" />
       </g>
</svg>