<svg width="23.7891" height="19.4043">
       <g>
              <rect height="19.4043" opacity="0" width="23.7891" x="0" y="0" />
              <path d="M2.28516 16.4258L21.5039 16.4258Q22.6465 16.4258 23.2178 15.8643Q23.7891 15.3027 23.7891 14.1406L23.7891 2.89062Q23.7891 1.72852 23.2178 1.16699Q22.6465 0.605469 21.5039 0.605469L2.28516 0.605469Q1.15234 0.605469 0.576172 1.16699Q0 1.72852 0 2.89062L0 14.1406Q0 15.3027 0.576172 15.8643Q1.15234 16.4258 2.28516 16.4258ZM7.08984 19.4043L16.6992 19.4043Q16.9434 19.4043 17.1289 19.2285Q17.3145 19.0527 17.3145 18.7891Q17.3145 18.5449 17.1289 18.3643Q16.9434 18.1836 16.6992 18.1836L7.08984 18.1836Q6.83594 18.1836 6.65527 18.3643Q6.47461 18.5449 6.47461 18.7891Q6.47461 19.0527 6.65527 19.2285Q6.83594 19.4043 7.08984 19.4043Z"
                     fill="rgba(255,255,255,0.55)" />
              <path d="M14.7656 6.61133L12.4805 7.1582Q12.3145 7.20703 12.2461 7.2998Q12.1777 7.39258 12.1777 7.66602L12.1777 11.1914Q12.1777 12.2461 11.5576 12.9102Q10.9375 13.5742 9.90234 13.5742Q9.16992 13.5742 8.74512 13.1787Q8.32031 12.7832 8.32031 12.168Q8.32031 11.4551 8.79395 11.0498Q9.26758 10.6445 9.92188 10.4688L10.8398 10.2246Q11.2109 10.1367 11.2891 10.0195Q11.3672 9.90234 11.3672 9.58984L11.3672 5.04883Q11.3672 4.61914 11.4746 4.48242Q11.582 4.3457 11.9434 4.25781L14.7266 3.57422Q15.1172 3.47656 15.2393 3.58887Q15.3613 3.70117 15.3613 3.97461L15.3613 5.83984Q15.3613 6.25977 15.2393 6.3916Q15.1172 6.52344 14.7656 6.61133Z"
                     fill="#ffffff" />
       </g>
</svg>