<svg width="22.5195" height="21.5527">
       <g>
              <rect height="21.5527" opacity="0" width="22.5195" x="0" y="0" />
              <path d="M2.80273 18.1543Q2.80273 19.1016 3.33008 19.6191Q3.85742 20.1367 4.80469 20.1367L17.7441 20.1367Q18.6816 20.1367 19.2139 19.6191Q19.7461 19.1016 19.7461 18.1543L19.7461 9.79492L11.875 3.19336Q11.2695 2.68555 10.6641 3.19336L2.80273 9.79492ZM0 9.29688Q0 9.53125 0.170898 9.70703Q0.341797 9.88281 0.644531 9.88281Q0.800781 9.88281 0.922852 9.81445Q1.04492 9.74609 1.17188 9.6582L10.8887 1.49414Q11.0742 1.33789 11.2695 1.32812Q11.4648 1.31836 11.6602 1.49414L21.3672 9.6582Q21.4844 9.74609 21.6113 9.81445Q21.7383 9.88281 21.8945 9.88281Q22.1484 9.88281 22.334 9.73145Q22.5195 9.58008 22.5195 9.31641Q22.5195 8.99414 22.2754 8.78906L12.3242 0.419922Q11.8359 0 11.2793 0Q10.7227 0 10.2246 0.419922L0.253906 8.78906Q0 8.99414 0 9.29688ZM17.666 5.41016L19.7461 7.16797L19.7461 2.68555Q19.7461 2.42188 19.585 2.26074Q19.4238 2.09961 19.1602 2.09961L18.2422 2.09961Q17.9883 2.09961 17.8271 2.26074Q17.666 2.42188 17.666 2.68555Z"
                     fill="rgba(255,255,255,0.55)" />
              <path d="M13.7109 10.6836L11.5039 11.2207Q11.3477 11.25 11.2842 11.3379Q11.2207 11.4258 11.2207 11.6895L11.2207 15.127Q11.2207 16.1328 10.625 16.7725Q10.0293 17.4121 9.0332 17.4121Q8.33984 17.4121 7.9248 17.0312Q7.50977 16.6504 7.50977 16.0449Q7.50977 15.3711 7.96875 14.9854Q8.42773 14.5996 9.0625 14.4336L9.94141 14.1992Q10.293 14.1016 10.3711 13.9893Q10.4492 13.877 10.4492 13.5742L10.4492 9.17969Q10.4492 8.76953 10.5518 8.63281Q10.6543 8.49609 11.0059 8.41797L13.6719 7.76367Q14.043 7.67578 14.165 7.7832Q14.2871 7.89062 14.2871 8.1543L14.2871 9.93164Q14.2871 10.3418 14.165 10.4736Q14.043 10.6055 13.7109 10.6836Z"
                     fill="#ffffff" />
       </g>
</svg>