<svg width="19.5898" height="19.5996">
       <g>
              <rect height="19.5996" opacity="0" width="19.5898" x="0" y="0" />
              <path d="M9.79492 19.5898Q11.8066 19.5898 13.5791 18.8232Q15.3516 18.0566 16.7041 16.7041Q18.0566 15.3516 18.8232 13.5791Q19.5898 11.8066 19.5898 9.79492Q19.5898 7.7832 18.8232 6.01074Q18.0566 4.23828 16.7041 2.88574Q15.3516 1.5332 13.5742 0.766602Q11.7969 0 9.78516 0Q7.77344 0 6.00098 0.766602Q4.22852 1.5332 2.88086 2.88574Q1.5332 4.23828 0.766602 6.01074Q0 7.7832 0 9.79492Q0 11.8066 0.766602 13.5791Q1.5332 15.3516 2.88574 16.7041Q4.23828 18.0566 6.01074 18.8232Q7.7832 19.5898 9.79492 19.5898Z"
                     fill="rgba(255,255,255,0.55)" />
              <path d="M10 7.38281Q9.85352 6.39648 10.7715 5.46875L13.7891 8.49609Q13.3398 8.94531 12.8467 9.15527Q12.3535 9.36523 11.8652 9.29688L10.3027 10.7324L10.3027 14.6777Q10.3027 14.8828 10.1562 15.0342Q10.0098 15.1855 9.78516 15.1855Q9.57031 15.1855 9.42383 15.0391Q9.27734 14.8926 9.27734 14.6777L9.27734 11.6895L6.57227 14.1895Q6.18164 14.541 5.78125 14.1797L4.93164 14.8633Q4.75586 14.9902 4.58984 14.834L4.43359 14.6875Q4.24805 14.5312 4.4043 14.3359L5.07812 13.4961Q4.7168 13.0762 5.06836 12.6855ZM5.6543 13.125L6.15234 13.623L11.0449 8.98438Q10.9375 8.91602 10.8301 8.82812Q10.7227 8.74023 10.625 8.63281Q10.5273 8.52539 10.4492 8.41309Q10.3711 8.30078 10.3125 8.18359ZM14.3359 4.92188Q15.0391 5.60547 15.0146 6.4502Q14.9902 7.29492 14.248 8.03711L11.2305 5.01953Q11.9629 4.28711 12.8027 4.25293Q13.6426 4.21875 14.3359 4.92188Z"
                     fill="#ffffff" />
       </g>
</svg>