<svg width="19.5898" height="19.5996">
       <g>
              <rect height="19.5996" opacity="0" width="19.5898" x="0" y="0" />
              <path d="M9.79492 19.5898Q11.8066 19.5898 13.5791 18.8232Q15.3516 18.0566 16.7041 16.7041Q18.0566 15.3516 18.8232 13.5791Q19.5898 11.8066 19.5898 9.79492Q19.5898 7.7832 18.8232 6.01074Q18.0566 4.23828 16.7041 2.88574Q15.3516 1.5332 13.5742 0.766602Q11.7969 0 9.78516 0Q7.77344 0 6.00098 0.766602Q4.22852 1.5332 2.88086 2.88574Q1.5332 4.23828 0.766602 6.01074Q0 7.7832 0 9.79492Q0 11.8066 0.766602 13.5791Q1.5332 15.3516 2.88574 16.7041Q4.23828 18.0566 6.01074 18.8232Q7.7832 19.5898 9.79492 19.5898Z"
                     fill="rgba(255,255,255,0.55)" />
              <path d="M6.78711 14.3262Q6.51367 14.3262 6.35742 14.1602Q6.20117 13.9941 6.20117 13.7109L6.20117 5.85938Q6.20117 5.51758 6.37207 5.33203Q6.54297 5.14648 6.85547 5.14648Q7.08008 5.14648 7.23145 5.23926Q7.38281 5.33203 7.53906 5.55664L12.1387 12.3047L12.207 12.3047L12.207 5.77148Q12.207 5.47852 12.3584 5.3125Q12.5098 5.14648 12.7832 5.14648Q13.0664 5.14648 13.2227 5.3125Q13.3789 5.47852 13.3789 5.77148L13.3789 13.6426Q13.3789 13.9648 13.2031 14.1455Q13.0273 14.3262 12.7148 14.3262Q12.5 14.3262 12.3535 14.2383Q12.207 14.1504 12.041 13.916L7.43164 7.23633L7.38281 7.23633L7.38281 13.7109Q7.38281 14.0039 7.22168 14.165Q7.06055 14.3262 6.78711 14.3262Z"
                     fill="#ffffff" />
       </g>
</svg>