<svg width="17.6855" height="17.7051">
       <g>
              <rect height="17.7051" opacity="0" width="17.6855" x="0" y="0" />
              <path d="M2.88086 17.7051L14.8047 17.7051Q16.2305 17.7051 16.958 16.9873Q17.6855 16.2695 17.6855 14.8535L17.6855 2.88086Q17.6855 1.46484 16.958 0.742188Q16.2305 0.0195312 14.8047 0.0195312L2.88086 0.0195312Q1.44531 0.0195312 0.722656 0.737305Q0 1.45508 0 2.88086L0 14.8535Q0 16.2695 0.722656 16.9873Q1.44531 17.7051 2.88086 17.7051Z"
                     fill="rgba(255,255,255,0.55)" />
              <path d="M5.83984 13.3789Q5.56641 13.3789 5.41016 13.2129Q5.25391 13.0469 5.25391 12.7637L5.25391 4.91211Q5.25391 4.57031 5.4248 4.38477Q5.5957 4.19922 5.9082 4.19922Q6.13281 4.19922 6.28418 4.29199Q6.43555 4.38477 6.5918 4.60938L11.1914 11.3574L11.2598 11.3574L11.2598 4.82422Q11.2598 4.53125 11.4111 4.36523Q11.5625 4.19922 11.8359 4.19922Q12.1191 4.19922 12.2754 4.36523Q12.4316 4.53125 12.4316 4.82422L12.4316 12.6953Q12.4316 13.0176 12.2559 13.1982Q12.0801 13.3789 11.7676 13.3789Q11.5527 13.3789 11.4062 13.291Q11.2598 13.2031 11.0938 12.9688L6.48438 6.28906L6.43555 6.28906L6.43555 12.7637Q6.43555 13.0566 6.27441 13.2178Q6.11328 13.3789 5.83984 13.3789Z"
                     fill="#ffffff" />
       </g>
</svg>