<svg width="19.5918" height="19.5987">
       <g>
              <rect height="19.5987" opacity="0" width="19.5918" x="0" y="0" />
              <path d="M1.35132 5.74158Q2.63794 6.94824 4.18839 7.80045Q5.73883 8.65265 7.48077 9.09599Q9.22272 9.53934 11.0657 9.53033Q13.1468 9.51447 15.0812 8.89832Q17.0155 8.28217 18.6629 7.14081L18.2425 6.2529Q16.6986 7.36435 14.8695 7.96364Q13.0405 8.56293 11.0626 8.5817Q8.38928 8.60672 5.98373 7.60208Q3.57819 6.59744 1.78009 4.78806ZM0.454712 11.1241Q2.35596 12.724 4.58725 13.6753Q6.81854 14.6266 9.20158 14.9046Q11.5846 15.1825 13.956 14.7771Q16.3274 14.3716 18.5126 13.2677L18.5255 12.175Q16.3846 13.351 14.0244 13.7959Q11.6641 14.2407 9.29222 13.9613Q6.92032 13.6818 4.70657 12.6914Q2.49283 11.701 0.644684 10.0169ZM5.16525 17.8088L6.29837 18.119Q5.92209 17.1886 5.70534 16.2148Q5.48859 15.2409 5.44174 14.2342Q5.1355 11.633 5.69359 9.15642Q6.25168 6.67984 7.55737 4.51927Q8.86307 2.3587 10.7979 0.714264L9.75677 0.362091Q7.8476 2.10266 6.57051 4.33144Q5.29343 6.56021 4.74968 9.09187Q4.20593 11.6235 4.49631 14.2809Q4.534 15.1804 4.70276 16.0648Q4.87152 16.9492 5.16525 17.8088ZM11.6159 18.8422L12.5166 18.472Q11.1948 16.5475 10.4824 14.3011Q9.77005 12.0546 9.77005 9.64691Q9.77005 7.314 10.4282 5.14877Q11.0863 2.98355 12.3296 1.11664L11.4165 0.767059Q10.1573 2.72995 9.48792 4.98749Q8.81851 7.24503 8.81851 9.64691Q8.81851 12.155 9.53949 14.4913Q10.2605 16.8277 11.6159 18.8422ZM17.4193 15.164L18.0226 14.426Q16.4124 13.5127 15.2176 12.1224Q14.0228 10.7321 13.3454 9.01199Q12.668 7.29187 12.6115 5.37781Q12.5836 4.3071 12.7609 3.26187Q12.9382 2.21664 13.3183 1.24893L12.4028 0.98114Q12.0062 2.02164 11.8192 3.1295Q11.6321 4.23737 11.6631 5.39673Q11.7165 7.44644 12.4348 9.29893Q13.1531 11.1514 14.43 12.6546Q15.7069 14.1577 17.4193 15.164ZM5.4895 9.44946Q6.06918 9.44946 6.48476 9.03053Q6.90033 8.6116 6.90033 8.02216Q6.90033 7.43286 6.48476 7.01881Q6.06918 6.60477 5.4895 6.60477Q4.89349 6.60477 4.47792 7.01881Q4.06235 7.43286 4.06235 8.02216Q4.06235 8.6116 4.47792 9.03053Q4.89349 9.44946 5.4895 9.44946ZM12.9579 10.3114Q13.5156 10.3114 13.9157 9.90646Q14.3158 9.5015 14.3158 8.93402Q14.3158 8.37631 13.9157 7.9747Q13.5156 7.57309 12.9579 7.57309Q12.3807 7.57309 11.9806 7.9747Q11.5805 8.37631 11.5805 8.93402Q11.5805 9.5015 11.9806 9.90646Q12.3807 10.3114 12.9579 10.3114ZM10.1447 15.9288Q10.7303 15.9288 11.1413 15.5177Q11.5523 15.1067 11.5523 14.5174Q11.5523 13.9279 11.1413 13.5169Q10.7303 13.1059 10.1447 13.1059Q9.54849 13.1059 9.1375 13.5169Q8.7265 13.9279 8.7265 14.5174Q8.7265 15.1067 9.1375 15.5177Q9.54849 15.9288 10.1447 15.9288ZM9.79446 19.5889Q11.8082 19.5889 13.5796 18.8228Q15.3511 18.0566 16.7039 16.7039Q18.0566 15.3513 18.8242 13.5783Q19.5918 11.8053 19.5918 9.79446Q19.5918 7.78366 18.8242 6.01067Q18.0566 4.23767 16.7039 2.88498Q15.3511 1.53229 13.5763 0.766144Q11.8015 0 9.78775 0Q7.77695 0 6.00395 0.766144Q4.23096 1.53229 2.88307 2.88498Q1.53519 4.23767 0.767593 6.01067Q0 7.78366 0 9.79446Q0 11.8053 0.766144 13.5783Q1.53229 15.3513 2.88498 16.7039Q4.23767 18.0566 6.01067 18.8228Q7.78366 19.5889 9.79446 19.5889ZM9.79446 18.5423Q7.99652 18.5423 6.41289 17.8576Q4.82925 17.1729 3.62267 15.9663Q2.41608 14.7597 1.73134 13.176Q1.0466 11.5923 1.0466 9.79446Q1.0466 7.99667 1.73134 6.41296Q2.41608 4.82925 3.61923 3.62267Q4.82239 2.41608 6.40762 1.73134Q7.99286 1.0466 9.78775 1.0466Q11.5855 1.0466 13.1708 1.73134Q14.756 2.41608 15.9644 3.62267Q17.1727 4.82925 17.859 6.41296Q18.5454 7.99667 18.5454 9.79446Q18.5454 11.5923 17.859 13.176Q17.1727 14.7597 15.9662 15.9663Q14.7597 17.1729 13.176 17.8576Q11.5923 18.5423 9.79446 18.5423Z"
                     fill="#0a84ff" />
       </g>
</svg>