<svg width="19.5898" height="19.5996">
       <g>
              <rect height="19.5996" opacity="0" width="19.5898" x="0" y="0" />
              <path d="M9.79492 19.5996Q11.8066 19.5996 13.5791 18.833Q15.3516 18.0664 16.7041 16.7139Q18.0566 15.3613 18.8232 13.5889Q19.5898 11.8164 19.5898 9.80469Q19.5898 7.79297 18.8232 6.02051Q18.0566 4.24805 16.7041 2.89551Q15.3516 1.54297 13.5742 0.776367Q11.7969 0.00976562 9.78516 0.00976562Q7.77344 0.00976562 6.00098 0.776367Q4.22852 1.54297 2.88086 2.89551Q1.5332 4.24805 0.766602 6.02051Q0 7.79297 0 9.80469Q0 11.8164 0.766602 13.5889Q1.5332 15.3613 2.88574 16.7139Q4.23828 18.0664 6.01074 18.833Q7.7832 19.5996 9.79492 19.5996Z"
                     fill="rgba(255,255,255,0.55)" />
              <path d="M4.63867 9.38477Q4.63867 9.00391 4.86328 8.79883Q5.08789 8.59375 5.46875 8.59375L5.83008 8.59375L5.83008 13.6719Q5.83008 13.9355 5.64941 14.082Q5.46875 14.2285 5.23438 14.2383Q4.99023 14.2383 4.81445 14.0918Q4.63867 13.9453 4.63867 13.6719ZM6.09375 14.8242Q6.5918 14.5996 6.5918 13.9258L6.5918 6.17188Q6.5918 5.48828 6.93359 5.14648Q7.27539 4.80469 7.96875 4.80469L13.5547 4.80469Q14.2383 4.80469 14.585 5.14648Q14.9316 5.48828 14.9316 6.17188L14.9316 13.457Q14.9316 14.1406 14.585 14.4824Q14.2383 14.8242 13.5547 14.8242ZM8.45703 7.53906L13.0566 7.53906Q13.1934 7.53906 13.2764 7.45605Q13.3594 7.37305 13.3594 7.25586Q13.3594 6.97266 13.0566 6.97266L8.45703 6.97266Q8.16406 6.97266 8.16406 7.25586Q8.16406 7.37305 8.24707 7.45605Q8.33008 7.53906 8.45703 7.53906ZM8.45703 9.22852L13.0566 9.22852Q13.3594 9.22852 13.3594 8.94531Q13.3594 8.81836 13.2764 8.73535Q13.1934 8.65234 13.0566 8.65234L8.45703 8.65234Q8.16406 8.65234 8.16406 8.94531Q8.16406 9.22852 8.45703 9.22852ZM11.3965 10.9766L13.0566 10.9766Q13.1934 10.9766 13.2715 10.8936Q13.3496 10.8105 13.3496 10.6934Q13.3496 10.4004 13.0566 10.4004L11.3965 10.4004Q11.2695 10.4004 11.1865 10.4834Q11.1035 10.5664 11.1035 10.6934Q11.1035 10.8105 11.1865 10.8936Q11.2695 10.9766 11.3965 10.9766ZM11.3965 12.627L13.0566 12.627Q13.1934 12.627 13.2715 12.5488Q13.3496 12.4707 13.3496 12.3438Q13.3496 12.2168 13.2715 12.1338Q13.1934 12.0508 13.0566 12.0508L11.3965 12.0508Q11.2695 12.0508 11.1865 12.1338Q11.1035 12.2168 11.1035 12.3438Q11.1035 12.4707 11.1865 12.5488Q11.2695 12.627 11.3965 12.627ZM8.67188 12.627L9.87305 12.627Q10.127 12.627 10.2734 12.4854Q10.4199 12.3438 10.4199 12.0898L10.4199 10.9375Q10.4199 10.4004 9.87305 10.4004L8.67188 10.4004Q8.1543 10.4004 8.1543 10.9375L8.1543 12.0898Q8.1543 12.3438 8.29102 12.4854Q8.42773 12.627 8.67188 12.627Z"
                     fill="#ffffff" />
       </g>
</svg>