<svg width="19.5898" height="19.5996">
       <g>
              <rect height="19.5996" opacity="0" width="19.5898" x="0" y="0" />
              <path d="M9.79492 19.5898Q11.8066 19.5898 13.5791 18.8232Q15.3516 18.0566 16.7041 16.7041Q18.0566 15.3516 18.8232 13.5791Q19.5898 11.8066 19.5898 9.79492Q19.5898 7.7832 18.8232 6.01074Q18.0566 4.23828 16.7041 2.88574Q15.3516 1.5332 13.5742 0.766602Q11.7969 0 9.78516 0Q7.77344 0 6.00098 0.766602Q4.22852 1.5332 2.88086 2.88574Q1.5332 4.23828 0.766602 6.01074Q0 7.7832 0 9.79492Q0 11.8066 0.766602 13.5791Q1.5332 15.3516 2.88574 16.7041Q4.23828 18.0566 6.01074 18.8232Q7.7832 19.5898 9.79492 19.5898Z"
                     fill="rgba(255,255,255,0.55)" />
              <path d="M7.32422 14.502Q7.08008 14.502 6.92383 14.3213Q6.76758 14.1406 6.81641 13.8867L7.25586 11.7871L6.21094 11.7871Q6.01562 11.7871 5.88379 11.6553Q5.75195 11.5234 5.75195 11.3184Q5.75195 11.0938 5.89844 10.9424Q6.04492 10.791 6.28906 10.791L7.48047 10.791L7.92969 8.61328L6.91406 8.61328Q6.71875 8.61328 6.58691 8.48633Q6.45508 8.35938 6.45508 8.14453Q6.45508 7.91016 6.60645 7.75879Q6.75781 7.60742 6.99219 7.60742L8.13477 7.60742L8.58398 5.46875Q8.68164 5 9.16992 5Q9.42383 5 9.5752 5.18555Q9.72656 5.37109 9.66797 5.60547L9.24805 7.60742L11.2402 7.60742L11.6992 5.46875Q11.7969 5 12.2656 5Q12.5195 5 12.6709 5.18066Q12.8223 5.36133 12.7832 5.60547L12.3633 7.60742L13.3789 7.60742Q13.5742 7.60742 13.7061 7.73926Q13.8379 7.87109 13.8379 8.07617Q13.8379 8.31055 13.6865 8.46191Q13.5352 8.61328 13.291 8.61328L12.1484 8.61328L11.6895 10.791L12.666 10.791Q12.8711 10.791 13.0029 10.9229Q13.1348 11.0547 13.1348 11.2598Q13.1348 11.4844 12.9785 11.6357Q12.8223 11.7871 12.5977 11.7871L11.4746 11.7871L11.0059 14.043Q10.9082 14.502 10.4102 14.502Q10.166 14.502 10.0146 14.3213Q9.86328 14.1406 9.92188 13.8867L10.3613 11.7871L8.37891 11.7871L7.89062 14.043Q7.79297 14.502 7.32422 14.502ZM8.52539 10.8594L10.6152 10.8594L11.0938 8.54492L9.00391 8.54492Z"
                     fill="#ffffff" />
       </g>
</svg>