<svg width="17.6855" height="17.7051">
       <g>
              <rect height="17.7051" opacity="0" width="17.6855" x="0" y="0" />
              <path d="M2.88086 17.7051L14.8047 17.7051Q16.2305 17.7051 16.958 16.9873Q17.6855 16.2695 17.6855 14.8535L17.6855 2.88086Q17.6855 1.46484 16.958 0.742188Q16.2305 0.0195312 14.8047 0.0195312L2.88086 0.0195312Q1.44531 0.0195312 0.722656 0.737305Q0 1.45508 0 2.88086L0 14.8535Q0 16.2695 0.722656 16.9873Q1.44531 17.7051 2.88086 17.7051Z"
                     fill="rgba(255,255,255,0.55)" />
              <path d="M6.36719 13.5547Q6.12305 13.5547 5.9668 13.374Q5.81055 13.1934 5.85938 12.9395L6.29883 10.8398L5.25391 10.8398Q5.05859 10.8398 4.92676 10.708Q4.79492 10.5762 4.79492 10.3711Q4.79492 10.1465 4.94141 9.99512Q5.08789 9.84375 5.33203 9.84375L6.52344 9.84375L6.97266 7.66602L5.95703 7.66602Q5.76172 7.66602 5.62988 7.53906Q5.49805 7.41211 5.49805 7.19727Q5.49805 6.96289 5.64941 6.81152Q5.80078 6.66016 6.03516 6.66016L7.17773 6.66016L7.62695 4.52148Q7.72461 4.05273 8.21289 4.05273Q8.4668 4.05273 8.61816 4.23828Q8.76953 4.42383 8.71094 4.6582L8.29102 6.66016L10.2832 6.66016L10.7422 4.52148Q10.8398 4.05273 11.3086 4.05273Q11.5625 4.05273 11.7139 4.2334Q11.8652 4.41406 11.8262 4.6582L11.4062 6.66016L12.4219 6.66016Q12.6172 6.66016 12.749 6.79199Q12.8809 6.92383 12.8809 7.12891Q12.8809 7.36328 12.7295 7.51465Q12.5781 7.66602 12.334 7.66602L11.1914 7.66602L10.7324 9.84375L11.709 9.84375Q11.9141 9.84375 12.0459 9.97559Q12.1777 10.1074 12.1777 10.3125Q12.1777 10.5371 12.0215 10.6885Q11.8652 10.8398 11.6406 10.8398L10.5176 10.8398L10.0488 13.0957Q9.95117 13.5547 9.45312 13.5547Q9.20898 13.5547 9.05762 13.374Q8.90625 13.1934 8.96484 12.9395L9.4043 10.8398L7.42188 10.8398L6.93359 13.0957Q6.83594 13.5547 6.36719 13.5547ZM7.56836 9.91211L9.6582 9.91211L10.1367 7.59766L8.04688 7.59766Z"
                     fill="#ffffff" />
       </g>
</svg>