<svg width="19.5898" height="19.5996">
       <g>
              <rect height="19.5996" opacity="0" width="19.5898" x="0" y="0" />
              <path d="M9.79492 19.5898Q11.8066 19.5898 13.5791 18.8232Q15.3516 18.0566 16.7041 16.7041Q18.0566 15.3516 18.8232 13.5791Q19.5898 11.8066 19.5898 9.79492Q19.5898 7.7832 18.8232 6.01074Q18.0566 4.23828 16.7041 2.88574Q15.3516 1.5332 13.5742 0.766602Q11.7969 0 9.78516 0Q7.77344 0 6.00098 0.766602Q4.22852 1.5332 2.88086 2.88574Q1.5332 4.23828 0.766602 6.01074Q0 7.7832 0 9.79492Q0 11.8066 0.766602 13.5791Q1.5332 15.3516 2.88574 16.7041Q4.23828 18.0566 6.01074 18.8232Q7.7832 19.5898 9.79492 19.5898Z"
                     fill="rgba(255,255,255,0.55)" />
              <path d="M9.80469 14.4238Q8.55469 14.4238 7.6123 13.833Q6.66992 13.2422 6.1377 12.1875Q5.60547 11.1328 5.60547 9.73633Q5.60547 8.34961 6.1377 7.29004Q6.66992 6.23047 7.6123 5.63965Q8.55469 5.04883 9.80469 5.04883Q11.0449 5.04883 11.9922 5.63965Q12.9395 6.23047 13.4668 7.29004Q13.9941 8.34961 13.9941 9.73633Q13.9941 11.1328 13.4668 12.1875Q12.9395 13.2422 11.9922 13.833Q11.0449 14.4238 9.80469 14.4238ZM9.80469 13.418Q10.6934 13.418 11.3525 12.959Q12.0117 12.5 12.3828 11.6699Q12.7539 10.8398 12.7539 9.73633Q12.7539 8.63281 12.3828 7.80762Q12.0117 6.98242 11.3525 6.51855Q10.6934 6.05469 9.80469 6.05469Q8.92578 6.05469 8.25684 6.51855Q7.58789 6.98242 7.22168 7.80762Q6.85547 8.63281 6.85547 9.73633Q6.85547 10.8398 7.22168 11.6699Q7.58789 12.5 8.25684 12.959Q8.92578 13.418 9.80469 13.418Z"
                     fill="#ffffff" />
       </g>
</svg>