<svg width="17.6855" height="17.7051">
       <g>
              <rect height="17.7051" opacity="0" width="17.6855" x="0" y="0" />
              <path d="M2.88086 17.7051L14.8047 17.7051Q16.2305 17.7051 16.958 16.9873Q17.6855 16.2695 17.6855 14.8535L17.6855 2.88086Q17.6855 1.46484 16.958 0.742188Q16.2305 0.0195312 14.8047 0.0195312L2.88086 0.0195312Q1.44531 0.0195312 0.722656 0.737305Q0 1.45508 0 2.88086L0 14.8535Q0 16.2695 0.722656 16.9873Q1.44531 17.7051 2.88086 17.7051Z"
                     fill="rgba(255,255,255,0.55)" />
              <path d="M8.84766 13.4766Q7.59766 13.4766 6.65527 12.8857Q5.71289 12.2949 5.18066 11.2402Q4.64844 10.1855 4.64844 8.78906Q4.64844 7.40234 5.18066 6.34277Q5.71289 5.2832 6.65527 4.69238Q7.59766 4.10156 8.84766 4.10156Q10.0879 4.10156 11.0352 4.69238Q11.9824 5.2832 12.5098 6.34277Q13.0371 7.40234 13.0371 8.78906Q13.0371 10.1855 12.5098 11.2402Q11.9824 12.2949 11.0352 12.8857Q10.0879 13.4766 8.84766 13.4766ZM8.84766 12.4707Q9.73633 12.4707 10.3955 12.0117Q11.0547 11.5527 11.4258 10.7227Q11.7969 9.89258 11.7969 8.78906Q11.7969 7.68555 11.4258 6.86035Q11.0547 6.03516 10.3955 5.57129Q9.73633 5.10742 8.84766 5.10742Q7.96875 5.10742 7.2998 5.57129Q6.63086 6.03516 6.26465 6.86035Q5.89844 7.68555 5.89844 8.78906Q5.89844 9.89258 6.26465 10.7227Q6.63086 11.5527 7.2998 12.0117Q7.96875 12.4707 8.84766 12.4707Z"
                     fill="#ffffff" />
       </g>
</svg>