<svg width="19.5898" height="19.5996">
       <g>
              <rect height="19.5996" opacity="0" width="19.5898" x="0" y="0" />
              <path d="M9.79492 19.5898Q11.8066 19.5898 13.5791 18.8232Q15.3516 18.0566 16.7041 16.7041Q18.0566 15.3516 18.8232 13.5791Q19.5898 11.8066 19.5898 9.79492Q19.5898 7.7832 18.8232 6.01074Q18.0566 4.23828 16.7041 2.88574Q15.3516 1.5332 13.5742 0.766602Q11.7969 0 9.78516 0Q7.77344 0 6.00098 0.766602Q4.22852 1.5332 2.88086 2.88574Q1.5332 4.23828 0.766602 6.01074Q0 7.7832 0 9.79492Q0 11.8066 0.766602 13.5791Q1.5332 15.3516 2.88574 16.7041Q4.23828 18.0566 6.01074 18.8232Q7.7832 19.5898 9.79492 19.5898Z"
                     fill="rgba(255,255,255,0.55)" />
              <path d="M7.65625 14.3262Q7.35352 14.3262 7.19238 14.1357Q7.03125 13.9453 7.03125 13.6328L7.03125 5.9375Q7.03125 5.63477 7.1875 5.43945Q7.34375 5.24414 7.63672 5.24414L10.4199 5.24414Q11.7676 5.24414 12.6172 6.06445Q13.4668 6.88477 13.4668 8.18359Q13.4668 9.48242 12.6221 10.293Q11.7773 11.1035 10.4199 11.1035L8.27148 11.1035L8.27148 13.6328Q8.27148 13.9551 8.11523 14.1406Q7.95898 14.3262 7.65625 14.3262ZM8.27148 10.1172L10.2734 10.1172Q11.1621 10.1172 11.6992 9.58496Q12.2363 9.05273 12.2363 8.18359Q12.2363 7.29492 11.6992 6.7627Q11.1621 6.23047 10.2734 6.23047L8.27148 6.23047Z"
                     fill="#ffffff" />
       </g>
</svg>