<svg width="17.6855" height="17.7051">
       <g>
              <rect height="17.7051" opacity="0" width="17.6855" x="0" y="0" />
              <path d="M2.88086 17.7051L14.8047 17.7051Q16.2305 17.7051 16.958 16.9873Q17.6855 16.2695 17.6855 14.8535L17.6855 2.88086Q17.6855 1.46484 16.958 0.742188Q16.2305 0.0195312 14.8047 0.0195312L2.88086 0.0195312Q1.44531 0.0195312 0.722656 0.737305Q0 1.45508 0 2.88086L0 14.8535Q0 16.2695 0.722656 16.9873Q1.44531 17.7051 2.88086 17.7051Z"
                     fill="rgba(255,255,255,0.55)" />
              <path d="M6.70898 13.3789Q6.40625 13.3789 6.24512 13.1885Q6.08398 12.998 6.08398 12.6855L6.08398 4.99023Q6.08398 4.6875 6.24023 4.49219Q6.39648 4.29688 6.68945 4.29688L9.47266 4.29688Q10.8203 4.29688 11.6699 5.11719Q12.5195 5.9375 12.5195 7.23633Q12.5195 8.53516 11.6748 9.3457Q10.8301 10.1562 9.47266 10.1562L7.32422 10.1562L7.32422 12.6855Q7.32422 13.0078 7.16797 13.1934Q7.01172 13.3789 6.70898 13.3789ZM7.32422 9.16992L9.32617 9.16992Q10.2148 9.16992 10.752 8.6377Q11.2891 8.10547 11.2891 7.23633Q11.2891 6.34766 10.752 5.81543Q10.2148 5.2832 9.32617 5.2832L7.32422 5.2832Z"
                     fill="#ffffff" />
       </g>
</svg>