<svg width="23.1258" height="19.3564">
       <g>
              <rect height="19.3564" opacity="0" width="23.1258" x="0" y="0" />
              <path d="M12.4399 19.1611Q14.4339 19.1611 15.9281 18.7312Q17.4223 18.3012 18.259 17.5346Q19.0956 16.7679 19.0956 15.7573Q19.0956 15.0467 18.8451 14.5879Q18.5945 14.129 18.2677 13.7847Q17.941 13.4404 17.6904 13.0959Q17.4399 12.7515 17.4399 12.2891Q17.4399 11.841 17.8516 11.5009Q18.2632 11.1607 18.9092 10.8482Q19.5552 10.5357 20.2794 10.1734Q21.0036 9.8111 21.6545 9.31168Q22.3055 8.81226 22.7156 8.10173Q23.1258 7.3912 23.1258 6.38229Q23.1258 4.94339 22.4115 3.76877Q21.6972 2.59415 20.3802 1.75072Q19.0633 0.907288 17.2309 0.453644Q15.3986 0 13.1625 0Q10.2106 0 7.79091 0.697784Q5.37125 1.39557 3.62755 2.68333Q1.88385 3.9711 0.941925 5.76431Q0 7.55753 0 9.75143Q0 11.8544 0.893097 13.5857Q1.78619 15.3169 3.43712 16.5641Q5.08804 17.8113 7.37251 18.4862Q9.65698 19.1611 12.4399 19.1611ZM12.1918 15.5759Q11.4819 15.5759 10.902 15.2288Q10.3221 14.8817 9.97177 14.297Q9.62143 13.7123 9.62143 13.0054Q9.62143 12.2955 9.97177 11.7123Q10.3221 11.129 10.902 10.782Q11.4819 10.435 12.1918 10.435Q12.9054 10.435 13.4901 10.782Q14.0749 11.129 14.4219 11.7123Q14.769 12.2955 14.769 13.0054Q14.769 13.7123 14.4219 14.297Q14.0749 14.8817 13.4901 15.2288Q12.9054 15.5759 12.1918 15.5759Z"
                     fill="#debb93" />
              <path d="M4.52225 10.8127Q3.90671 10.8127 3.45657 10.3611Q3.00644 9.90952 3.00644 9.28406Q3.00644 8.67584 3.46176 8.23029Q3.91708 7.78473 4.52225 7.78473Q5.15366 7.78473 5.5925 8.22021Q6.03134 8.6557 6.03134 9.28406Q6.03134 9.90952 5.58952 10.3611Q5.14771 10.8127 4.52225 10.8127Z"
                     fill="#ff453a" />
              <path d="M8.1723 7.48581Q7.32513 7.48581 6.73027 6.90407Q6.13541 6.32233 6.13541 5.47134Q6.13541 4.64661 6.73027 4.06639Q7.32513 3.48618 8.1723 3.48618Q9.00009 3.48618 9.59007 4.06792Q10.1801 4.64966 10.1801 5.47134Q10.1801 6.32233 9.5916 6.90407Q9.00314 7.48581 8.1723 7.48581Z"
                     fill="#ffd60a" />
              <path d="M13.3745 5.94284Q12.7309 5.94284 12.2634 5.48706Q11.796 5.03128 11.796 4.38095Q11.796 3.73367 12.2634 3.27637Q12.7309 2.81906 13.3745 2.81906Q14.0308 2.81906 14.4836 3.27484Q14.9364 3.73062 14.9364 4.38095Q14.9364 5.03418 14.4836 5.48851Q14.0308 5.94284 13.3745 5.94284Z"
                     fill="#32d74b" />
              <path d="M17.8438 6.76895Q17.3206 6.76895 16.9523 6.40892Q16.584 6.04889 16.584 5.53162Q16.584 5.01434 16.9538 4.65096Q17.3236 4.28757 17.8438 4.28757Q18.3484 4.28757 18.7069 4.65096Q19.0654 5.01434 19.0654 5.53162Q19.0654 6.05194 18.7084 6.41045Q18.3514 6.76895 17.8438 6.76895Z"
                     fill="#0a84ff" />
       </g>
</svg>