<svg width="23.1258" height="19.3564">
       <g>
              <rect height="19.3564" opacity="0" width="23.1258" x="0" y="0" />
              <path d="M12.4399 19.1611Q14.4339 19.1611 15.9281 18.7312Q17.4223 18.3012 18.259 17.5346Q19.0956 16.7679 19.0956 15.7573Q19.0956 15.0467 18.8451 14.5879Q18.5945 14.129 18.2677 13.7847Q17.941 13.4404 17.6904 13.0959Q17.4399 12.7515 17.4399 12.2891Q17.4399 11.841 17.8516 11.5009Q18.2632 11.1607 18.9092 10.8482Q19.5552 10.5357 20.2794 10.1734Q21.0036 9.8111 21.6545 9.31168Q22.3055 8.81226 22.7156 8.10173Q23.1258 7.3912 23.1258 6.38229Q23.1258 4.94339 22.4115 3.76877Q21.6972 2.59415 20.3802 1.75072Q19.0633 0.907288 17.2309 0.453644Q15.3986 0 13.1625 0Q10.2106 0 7.79091 0.697784Q5.37125 1.39557 3.62755 2.68333Q1.88385 3.9711 0.941925 5.76431Q0 7.55753 0 9.75143Q0 11.8544 0.893097 13.5857Q1.78619 15.3169 3.43712 16.5641Q5.08804 17.8113 7.37251 18.4862Q9.65698 19.1611 12.4399 19.1611ZM12.4399 17.8877Q9.91714 17.8877 7.86415 17.3043Q5.81116 16.7209 4.33372 15.6438Q2.85629 14.5668 2.06482 13.0705Q1.27335 11.5742 1.27335 9.75143Q1.27335 7.84073 2.11517 6.28098Q2.957 4.72122 4.52721 3.60023Q6.09741 2.47925 8.2856 1.87485Q10.4738 1.27045 13.1625 1.27045Q15.7825 1.27045 17.737 1.91322Q19.6916 2.556 20.7735 3.70491Q21.8555 4.85382 21.8555 6.38229Q21.8555 7.26212 21.4404 7.85156Q21.0254 8.44101 20.376 8.8475Q19.7266 9.254 18.999 9.58267Q18.2715 9.91135 17.6172 10.265Q16.9629 10.6187 16.5527 11.1014Q16.1426 11.584 16.1426 12.314Q16.1426 12.9269 16.3965 13.3561Q16.6504 13.7852 16.9824 14.1296Q17.3145 14.474 17.5684 14.8237Q17.8223 15.1733 17.8223 15.6303Q17.8223 16.6678 16.3638 17.2778Q14.9054 17.8877 12.4399 17.8877ZM11.6391 15.4861Q12.4117 15.4861 13.0495 15.1063Q13.6874 14.7264 14.0658 14.0885Q14.4441 13.4506 14.4441 12.6714Q14.4441 11.9087 14.0658 11.2708Q13.6874 10.6328 13.0495 10.2529Q12.4117 9.87305 11.6391 9.87305Q10.8667 9.87305 10.2287 10.2529Q9.59076 10.6328 9.21097 11.2708Q8.83118 11.9087 8.83118 12.6714Q8.83118 13.4506 9.21097 14.0885Q9.59076 14.7264 10.2287 15.1063Q10.8667 15.4861 11.6391 15.4861ZM11.6391 14.5712Q11.1119 14.5712 10.6828 14.3189Q10.2538 14.0666 9.99985 13.6326Q9.74594 13.1985 9.74594 12.6714Q9.74594 12.1202 10.0066 11.6978Q10.2672 11.2755 10.6929 11.0336Q11.1186 10.7916 11.6257 10.7916Q12.1327 10.7849 12.5686 11.0235Q13.0045 11.2621 13.2684 11.6844Q13.5323 12.1068 13.5323 12.6714Q13.5323 13.1985 13.2784 13.6326Q13.0246 14.0666 12.5955 14.3189Q12.1664 14.5712 11.6391 14.5712Z"
                     fill="#ddb891" />
              <path d="M4.7348 10.9773Q5.35721 10.9773 5.79903 10.5257Q6.24084 10.0742 6.24084 9.4487Q6.24084 8.82034 5.80208 8.3815Q5.36331 7.94266 4.7348 7.94266Q4.11621 7.94266 3.66951 8.38295Q3.22281 8.82324 3.22281 9.4487Q3.22281 10.0742 3.67104 10.5257Q4.11926 10.9773 4.7348 10.9773Z"
                     fill="#ff453a" />
              <path d="M8.29926 7.92496Q9.13681 7.92496 9.72527 7.33986Q10.3137 6.75476 10.3137 5.90378Q10.3137 5.08209 9.72374 4.50035Q9.13376 3.91861 8.29926 3.91861Q7.45209 3.91861 6.86058 4.4973Q6.26907 5.07599 6.26907 5.90378Q6.26907 6.75476 6.86058 7.33986Q7.45209 7.92496 8.29926 7.92496Z"
                     fill="#ffd60a" />
              <path d="M13.2504 6.30051Q13.9038 6.30051 14.3566 5.8429Q14.8094 5.38528 14.8094 4.7319Q14.8094 4.08157 14.3566 3.62579Q13.9038 3.17001 13.2504 3.17001Q12.6039 3.17001 12.1398 3.63068Q11.6757 4.09134 11.6757 4.7319Q11.6757 5.38223 12.1398 5.84137Q12.6039 6.30051 13.2504 6.30051Z"
                     fill="#32d74b" />
              <path d="M17.7164 6.91345Q18.2239 6.91345 18.5809 6.55159Q18.9378 6.18973 18.9378 5.6694Q18.9378 5.15884 18.5793 4.79546Q18.2208 4.43207 17.7164 4.43207Q17.196 4.43207 16.8263 4.79546Q16.4566 5.15884 16.4566 5.6694Q16.4566 6.18668 16.8248 6.55006Q17.193 6.91345 17.7164 6.91345Z"
                     fill="#0a84ff" />
       </g>
</svg>