<svg width="19.5898" height="19.5996">
       <g>
              <rect height="19.5996" opacity="0" width="19.5898" x="0" y="0" />
              <path d="M9.79492 19.5898Q11.8066 19.5898 13.5791 18.8232Q15.3516 18.0566 16.7041 16.7041Q18.0566 15.3516 18.8232 13.5791Q19.5898 11.8066 19.5898 9.79492Q19.5898 7.7832 18.8232 6.01074Q18.0566 4.23828 16.7041 2.88574Q15.3516 1.5332 13.5742 0.766602Q11.7969 0 9.78516 0Q7.77344 0 6.00098 0.766602Q4.22852 1.5332 2.88086 2.88574Q1.5332 4.23828 0.766602 6.01074Q0 7.7832 0 9.79492Q0 11.8066 0.766602 13.5791Q1.5332 15.3516 2.88574 16.7041Q4.23828 18.0566 6.01074 18.8232Q7.7832 19.5898 9.79492 19.5898ZM9.79492 18.3203Q8.02734 18.3203 6.47949 17.6611Q4.93164 17.002 3.75977 15.8301Q2.58789 14.6582 1.92871 13.1104Q1.26953 11.5625 1.26953 9.79492Q1.26953 8.02734 1.92871 6.47949Q2.58789 4.93164 3.75977 3.75488Q4.93164 2.57812 6.47461 1.91895Q8.01758 1.25977 9.78516 1.25977Q11.5625 1.25977 13.1104 1.91895Q14.6582 2.57812 15.8301 3.75488Q17.002 4.93164 17.666 6.47949Q18.3301 8.02734 18.3301 9.79492Q18.3301 11.5625 17.666 13.1104Q17.002 14.6582 15.8301 15.8301Q14.6582 17.002 13.1152 17.6611Q11.5723 18.3203 9.79492 18.3203Z"
                     fill="#98989d" />
              <path d="M5.60547 14.5703Q6.25977 15.2148 7.04102 15.4199Q7.82227 15.625 8.59375 15.4053Q9.36523 15.1855 10.0098 14.5508L14.0332 10.5273Q14.1602 10.4004 14.1699 10.2051Q14.1797 10.0098 14.043 9.88281Q13.9062 9.75586 13.7158 9.76074Q13.5254 9.76562 13.3887 9.89258L9.38477 13.8965Q8.70117 14.5801 7.82227 14.5801Q6.94336 14.5801 6.26953 13.916Q5.58594 13.2422 5.59082 12.3633Q5.5957 11.4844 6.28906 10.791L11.6309 5.44922Q12.0703 5.00977 12.627 4.99023Q13.1836 4.9707 13.584 5.38086Q13.9941 5.78125 13.9746 6.33301Q13.9551 6.88477 13.5059 7.32422L8.28125 12.5488Q8.125 12.7246 7.93945 12.7246Q7.75391 12.7246 7.60742 12.5781Q7.45117 12.4316 7.45117 12.2412Q7.45117 12.0508 7.61719 11.8945L11.3477 8.16406Q11.4941 8.02734 11.5039 7.84668Q11.5137 7.66602 11.3672 7.5293Q11.2207 7.39258 11.0449 7.39746Q10.8691 7.40234 10.7324 7.53906L7.00195 11.2793Q6.58203 11.6992 6.5625 12.2607Q6.54297 12.8223 6.94336 13.2422Q7.35352 13.6523 7.90527 13.6377Q8.45703 13.623 8.89648 13.1934L14.1309 7.94922Q14.8633 7.2168 14.8877 6.31836Q14.9121 5.41992 14.2188 4.73633Q13.5254 4.05273 12.6221 4.06738Q11.7188 4.08203 10.9863 4.80469L5.625 10.1562Q4.99023 10.8008 4.77539 11.5869Q4.56055 12.373 4.77051 13.1592Q4.98047 13.9453 5.60547 14.5703Z"
                     fill="#98989d" />
       </g>
</svg>