<svg width="19.5898" height="20.1074">
       <g>
              <rect height="20.1074" opacity="0" width="19.5898" x="0" y="0" />
              <path d="M9.79492 20.1074Q11.8066 20.1074 13.5791 19.3408Q15.3516 18.5742 16.7041 17.2217Q18.0566 15.8691 18.8232 14.0967Q19.5898 12.3242 19.5898 10.3125Q19.5898 8.30078 18.8232 6.52832Q18.0566 4.75586 16.7041 3.40332Q15.3516 2.05078 13.5742 1.28418Q11.7969 0.517578 9.78516 0.517578Q7.77344 0.517578 6.00098 1.28418Q4.22852 2.05078 2.88086 3.40332Q1.5332 4.75586 0.766602 6.52832Q0 8.30078 0 10.3125Q0 12.3242 0.766602 14.0967Q1.5332 15.8691 2.88574 17.2217Q4.23828 18.5742 6.01074 19.3408Q7.7832 20.1074 9.79492 20.1074Z"
                     fill="#0a84ff" />
              <path d="M10.0488 16.6602Q9.7168 16.6602 9.57031 16.4307Q9.42383 16.2012 9.29688 15.8105L8.28125 12.5Q8.22266 12.2656 8.25195 12.1094Q8.28125 11.9531 8.4082 11.8164L14.2285 5.63477Q14.3262 5.51758 14.2383 5.44922Q14.1406 5.38086 14.043 5.45898L7.89062 11.2891Q7.74414 11.4258 7.58789 11.4453Q7.43164 11.4648 7.2168 11.3965L3.82812 10.3809Q3.45703 10.2637 3.2373 10.1074Q3.01758 9.95117 3.01758 9.63867Q3.01758 9.36523 3.21777 9.17969Q3.41797 8.99414 3.73047 8.87695L13.7109 5.05859Q14.0332 4.93164 14.2578 4.93164Q14.4824 4.93164 14.6143 5.06836Q14.7461 5.20508 14.7461 5.43945Q14.7461 5.64453 14.6289 5.97656L10.8301 15.918Q10.6934 16.2695 10.5029 16.4648Q10.3125 16.6602 10.0488 16.6602Z"
                     fill="#ffffff" />
       </g>
</svg>