<svg width="19.5898" height="19.5996">
       <g>
              <rect height="19.5996" opacity="0" width="19.5898" x="0" y="0" />
              <path d="M9.79492 19.5996Q11.8066 19.5996 13.5791 18.833Q15.3516 18.0664 16.7041 16.7139Q18.0566 15.3613 18.8232 13.5889Q19.5898 11.8164 19.5898 9.80469Q19.5898 7.79297 18.8232 6.02051Q18.0566 4.24805 16.7041 2.89551Q15.3516 1.54297 13.5742 0.776367Q11.7969 0.00976562 9.78516 0.00976562Q7.77344 0.00976562 6.00098 0.776367Q4.22852 1.54297 2.88086 2.89551Q1.5332 4.24805 0.766602 6.02051Q0 7.79297 0 9.80469Q0 11.8164 0.766602 13.5889Q1.5332 15.3613 2.88574 16.7139Q4.23828 18.0664 6.01074 18.833Q7.7832 19.5996 9.79492 19.5996Z"
                     fill="#98989d" />
              <path d="M5.52734 14.6777Q4.88281 14.043 4.66797 13.2422Q4.45312 12.4414 4.67773 11.6357Q4.90234 10.8301 5.55664 10.1758L11.0254 4.70703Q11.7676 3.95508 12.6904 3.94531Q13.6133 3.93555 14.3262 4.62891Q15.0391 5.3418 15.0098 6.25977Q14.9805 7.17773 14.248 7.91992L8.88672 13.2715Q8.4375 13.7207 7.87598 13.7354Q7.31445 13.75 6.89453 13.3301Q6.48438 12.9102 6.50391 12.3242Q6.52344 11.7383 6.95312 11.3184L10.752 7.50977Q10.8984 7.36328 11.084 7.3584Q11.2695 7.35352 11.416 7.5Q11.5527 7.63672 11.543 7.81738Q11.5332 7.99805 11.3965 8.14453L7.57812 11.9531Q7.42188 12.1191 7.41699 12.3096Q7.41211 12.5 7.56836 12.6465Q7.73438 12.793 7.91016 12.793Q8.08594 12.793 8.26172 12.6172L13.5938 7.28516Q14.0625 6.82617 14.0771 6.26953Q14.0918 5.71289 13.6719 5.29297Q13.2715 4.88281 12.7051 4.89746Q12.1387 4.91211 11.6797 5.37109L6.23047 10.8203Q5.52734 11.543 5.51758 12.4316Q5.50781 13.3203 6.21094 14.0137Q6.9043 14.6875 7.79785 14.6924Q8.69141 14.6973 9.38477 13.9844L13.4668 9.91211Q13.6133 9.77539 13.8086 9.77051Q14.0039 9.76562 14.1504 9.90234Q14.2773 10.0293 14.2725 10.2295Q14.2676 10.4297 14.1406 10.5566L10.0195 14.668Q9.375 15.3125 8.58398 15.542Q7.79297 15.7715 6.99707 15.5566Q6.20117 15.3418 5.52734 14.6777Z"
                     fill="#ffffff" />
       </g>
</svg>