<svg width="18.1303" height="20.8448">
       <g>
              <rect height="20.8448" opacity="0" width="18.1303" x="0" y="0" />
              <path d="M15.864 11.0132L8.53486 18.3454Q7.58531 19.2919 6.48805 19.5627Q5.39079 19.8334 4.33404 19.5152Q3.27729 19.197 2.46446 18.3774Q1.65452 17.5644 1.33485 16.5111Q1.01518 15.4578 1.28595 14.3621Q1.55671 13.2663 2.49955 12.3168L12.2853 2.54063Q12.8935 1.92281 13.6171 1.72093Q14.3407 1.51906 15.0334 1.69362Q15.726 1.86818 16.245 2.38026Q16.7639 2.90593 16.937 3.59227Q17.11 4.27861 16.9063 5.00371Q16.7026 5.72881 16.0915 6.33992L6.52116 15.9102Q6.11436 16.3207 5.66621 16.2761Q5.21806 16.2314 4.91273 15.9359Q4.61335 15.6305 4.57063 15.1824Q4.5279 14.7342 4.9315 14.3207L11.7723 7.49944Q11.9478 7.31725 11.9534 7.09119Q11.9589 6.86513 11.7957 6.70186Q11.6322 6.54515 11.4077 6.54736Q11.1832 6.54958 11.0046 6.73787L4.1565 13.5831Q3.67662 14.063 3.52754 14.6456Q3.37846 15.2282 3.52532 15.7882Q3.67219 16.3483 4.08433 16.7605Q4.52058 17.1967 5.08058 17.3435Q5.64057 17.4903 6.21308 17.3311Q6.78559 17.172 7.26548 16.6921L16.8628 7.09782Q17.7535 6.20717 18.0086 5.20612Q18.2637 4.20506 17.9842 3.26131Q17.7048 2.31755 16.9827 1.59245Q16.2778 0.887497 15.3307 0.60765Q14.3836 0.327804 13.3773 0.576217Q12.3711 0.82463 11.4803 1.71834L1.68199 11.5235Q0.78889 12.4135 0.380412 13.4304Q-0.0280655 14.4472 0.00207058 15.4831Q0.0322067 16.5191 0.452739 17.4786Q0.873271 18.4382 1.64521 19.2034Q2.41029 19.9715 3.36991 20.394Q4.32954 20.8164 5.36698 20.8432Q6.40443 20.8699 7.42128 20.4615Q8.43812 20.053 9.32817 19.1697L16.6728 11.8219Q16.8483 11.6495 16.8468 11.4Q16.8453 11.1504 16.6751 10.9937Q16.5184 10.8138 16.2789 10.8307Q16.0394 10.8475 15.864 11.0132Z"
                     fill="#98989d" />
       </g>
</svg>