<svg width="24.2592" height="23.992">
       <g>
              <rect height="23.992" opacity="0" width="24.2592" x="0" y="0" />
              <path d="M15.3714 17.8783Q16.1217 17.5652 16.3203 16.9293Q16.5188 16.2935 16.3132 15.4704Q16.1076 14.6472 15.631 13.7632Q15.1544 12.8792 14.5265 12.0516Q13.8986 11.2241 13.2739 10.5927Q12.6364 9.95514 11.8171 9.33212Q10.9978 8.70911 10.1171 8.23059Q9.23644 7.75208 8.42116 7.54311Q7.60588 7.33414 6.96822 7.52663Q6.33055 7.71912 6.00386 8.44452L0.161119 21.4029Q-0.0618119 21.8945 0.0237136 22.3468Q0.109239 22.7991 0.412508 23.1155Q0.715776 23.432 1.16316 23.5303Q1.61055 23.6287 2.11211 23.4222ZM9.7357 14.118Q8.55467 12.9437 7.84133 11.8332Q7.12798 10.7227 6.92931 9.88625Q6.73064 9.04984 7.09593 8.6882Q7.45451 8.32596 8.28604 8.52951Q9.11757 8.73306 10.2247 9.44977Q11.3319 10.1665 12.516 11.3506Q13.7036 12.5247 14.417 13.6353Q15.1304 14.7458 15.3291 15.5822Q15.5278 16.4186 15.1723 16.7705Q14.8068 17.1358 13.9704 16.9356Q13.134 16.7354 12.0268 16.022Q10.9196 15.3087 9.7357 14.118Z"
                     fill="rgba(255,255,255,0.55)" />
              <path d="M8.64348 1.83289Q9.02236 1.83289 9.29282 1.56578Q9.56328 1.29868 9.56328 0.913086Q9.56328 0.53421 9.29282 0.267105Q9.02236 0 8.64348 0Q8.25118 0 7.9859 0.267105Q7.72063 0.53421 7.72063 0.913086Q7.72063 1.29868 7.9859 1.56578Q8.25118 1.83289 8.64348 1.83289ZM9.77812 3.78616Q9.73845 3.57407 9.59296 3.42377Q9.44747 3.27347 9.22774 3.27957Q9.01488 3.29239 8.85268 3.44872Q8.69048 3.60504 8.73702 3.84048Q9.05989 5.50766 9.05989 7.24731Q9.05989 8.98697 8.72786 10.7236Q8.67766 10.9523 8.84322 11.1037Q9.00878 11.2552 9.21187 11.268Q9.42183 11.274 9.56915 11.1256Q9.71648 10.9773 9.75936 10.762Q10.1012 8.97186 10.1027 7.25075Q10.1042 5.52963 9.77812 3.78616ZM14.5968 3.50113Q15.0661 3.50113 15.4448 3.27484Q15.8235 3.04855 16.0464 2.66983Q16.2694 2.29111 16.2694 1.82571Q16.2694 1.12381 15.7841 0.638504Q15.2988 0.153198 14.5968 0.153198Q13.8988 0.153198 13.4101 0.638504Q12.9214 1.12381 12.9214 1.82571Q12.9214 2.29111 13.1477 2.66983Q13.374 3.04855 13.7527 3.27484Q14.1315 3.50113 14.5968 3.50113ZM12.7656 6.53503Q13.0633 6.53503 13.27 6.325Q13.4767 6.11496 13.4767 5.81726Q13.4767 5.52322 13.27 5.31471Q13.0633 5.1062 12.7656 5.1062Q12.4747 5.1062 12.2613 5.31471Q12.0479 5.52322 12.0479 5.81726Q12.0479 6.11496 12.2613 6.325Q12.4747 6.53503 12.7656 6.53503ZM22.4567 2.38358Q22.7476 2.38358 22.9528 2.1769Q23.1579 1.97021 23.1579 1.67252Q23.1579 1.37466 22.9528 1.1647Q22.7476 0.954742 22.4567 0.954742Q22.159 0.954742 21.9523 1.1647Q21.7456 1.37466 21.7456 1.67252Q21.7456 1.97021 21.9523 2.1769Q22.159 2.38358 22.4567 2.38358ZM19.7737 3.24234L17.9687 5.0473Q17.8157 5.2002 17.8191 5.42137Q17.8226 5.64255 17.9687 5.79544Q18.1314 5.95139 18.354 5.95474Q18.5766 5.9581 18.7297 5.79544L20.5286 4.0033Q20.6845 3.84354 20.6845 3.62091Q20.6845 3.39828 20.5286 3.24234Q20.3757 3.09235 20.153 3.09235Q19.9303 3.09235 19.7737 3.24234ZM16.196 6.83273L11.2852 11.7308Q11.1293 11.8867 11.1293 12.1127Q11.1293 12.3387 11.2852 12.4918Q11.4448 12.6477 11.666 12.6477Q11.8872 12.6477 12.0401 12.4918L16.9441 7.57782Q17.0933 7.42493 17.0885 7.20711Q17.0836 6.98929 16.9441 6.83273Q16.7876 6.69022 16.5683 6.69022Q16.349 6.69022 16.196 6.83273ZM23.3333 11.0252Q23.7219 11.0252 23.9905 10.7566Q24.2592 10.488 24.2592 10.0957Q24.2592 9.71375 23.9905 9.44664Q23.7219 9.17953 23.3333 9.17953Q22.9408 9.17953 22.6756 9.44664Q22.4104 9.71375 22.4104 10.0957Q22.4104 10.488 22.6756 10.7566Q22.9408 11.0252 23.3333 11.0252ZM19.1916 11.4226Q19.7792 11.4226 20.1879 11.0236Q20.5966 10.6247 20.5966 10.04Q20.5966 9.45602 20.1879 9.04884Q19.7792 8.64166 19.1916 8.64166Q18.6136 8.64166 18.2146 9.04884Q17.8157 9.45602 17.8157 10.04Q17.8157 10.6247 18.2146 11.0236Q18.6136 11.4226 19.1916 11.4226ZM22.9681 15.9889Q23.3539 15.9889 23.6224 15.7203Q23.891 15.4517 23.891 15.0661Q23.891 14.687 23.6224 14.4167Q23.3539 14.1463 22.9681 14.1463Q22.5825 14.1463 22.3154 14.4167Q22.0483 14.687 22.0483 15.0661Q22.0483 15.4517 22.3154 15.7203Q22.5825 15.9889 22.9681 15.9889ZM20.0442 13.9957Q18.3008 13.6697 16.5812 13.6713Q14.8616 13.6728 13.0617 14.0079Q12.8464 14.0573 12.698 14.2013Q12.5496 14.3452 12.5624 14.5522Q12.5685 14.765 12.7199 14.9306Q12.8714 15.0961 13.1068 15.0497Q14.8367 14.7208 16.5764 14.7159Q18.316 14.711 19.9899 15.0369Q20.2186 15.0804 20.3783 14.9182Q20.538 14.756 20.5441 14.5461Q20.5501 14.3265 20.4032 14.181Q20.2563 14.0355 20.0442 13.9957Z"
                     fill="rgba(255,255,255,0.55)" />
       </g>
</svg>