<svg width="19.5898" height="19.5996">
       <g>
              <rect height="19.5996" opacity="0" width="19.5898" x="0" y="0" />
              <path d="M9.79492 19.5898Q11.8066 19.5898 13.5791 18.8232Q15.3516 18.0566 16.7041 16.7041Q18.0566 15.3516 18.8232 13.5791Q19.5898 11.8066 19.5898 9.79492Q19.5898 7.7832 18.8232 6.01074Q18.0566 4.23828 16.7041 2.88574Q15.3516 1.5332 13.5742 0.766602Q11.7969 0 9.78516 0Q7.77344 0 6.00098 0.766602Q4.22852 1.5332 2.88086 2.88574Q1.5332 4.23828 0.766602 6.01074Q0 7.7832 0 9.79492Q0 11.8066 0.766602 13.5791Q1.5332 15.3516 2.88574 16.7041Q4.23828 18.0566 6.01074 18.8232Q7.7832 19.5898 9.79492 19.5898Z"
                     fill="rgba(255,255,255,0.55)" />
              <path d="M7.03125 13.6133Q6.69922 13.6133 6.5332 13.4424Q6.36719 13.2715 6.36719 12.998L6.36719 6.5625Q6.36719 6.28906 6.5332 6.11816Q6.69922 5.94727 7.03125 5.94727L8.02734 5.94727Q8.37891 5.94727 8.54004 6.11816Q8.70117 6.28906 8.70117 6.5625L8.70117 12.998Q8.70117 13.2715 8.54004 13.4424Q8.37891 13.6133 8.02734 13.6133ZM11.582 13.6133Q11.2402 13.6133 11.0791 13.4424Q10.918 13.2715 10.918 12.998L10.918 6.5625Q10.918 6.28906 11.0791 6.11816Q11.2402 5.94727 11.582 5.94727L12.5781 5.94727Q12.9199 5.94727 13.0811 6.11816Q13.2422 6.28906 13.2422 6.5625L13.2422 12.998Q13.2422 13.2715 13.0811 13.4424Q12.9199 13.6133 12.5781 13.6133Z"
                     fill="#ffffff" />
       </g>
</svg>