<svg width="22.8711" height="17.6855">
       <g>
              <rect height="17.6855" opacity="0" width="22.8711" x="0" y="0" />
              <path d="M2.88086 17.6855L19.9902 17.6855Q21.4258 17.6855 22.1484 16.9629Q22.8711 16.2402 22.8711 14.834L22.8711 2.85156Q22.8711 1.44531 22.1484 0.722656Q21.4258 0 19.9902 0L2.88086 0Q1.44531 0 0.722656 0.717773Q0 1.43555 0 2.85156L0 14.834Q0 16.25 0.722656 16.9678Q1.44531 17.6855 2.88086 17.6855Z"
                     fill="rgba(255,255,255,0.55)" />
              <path d="M8.67188 12.666Q8.33984 12.666 8.17383 12.4951Q8.00781 12.3242 8.00781 12.0508L8.00781 5.61523Q8.00781 5.3418 8.17383 5.1709Q8.33984 5 8.67188 5L9.66797 5Q10.0195 5 10.1807 5.1709Q10.3418 5.3418 10.3418 5.61523L10.3418 12.0508Q10.3418 12.3242 10.1807 12.4951Q10.0195 12.666 9.66797 12.666ZM13.2227 12.666Q12.8809 12.666 12.7197 12.4951Q12.5586 12.3242 12.5586 12.0508L12.5586 5.61523Q12.5586 5.3418 12.7197 5.1709Q12.8809 5 13.2227 5L14.2188 5Q14.5605 5 14.7217 5.1709Q14.8828 5.3418 14.8828 5.61523L14.8828 12.0508Q14.8828 12.3242 14.7217 12.4951Q14.5605 12.666 14.2188 12.666Z"
                     fill="#ffffff" />
       </g>
</svg>