<svg width="19.5898" height="19.5996">
       <g>
              <rect height="19.5996" opacity="0" width="19.5898" x="0" y="0" />
              <path d="M9.79492 19.5898Q11.8066 19.5898 13.5791 18.8232Q15.3516 18.0566 16.7041 16.7041Q18.0566 15.3516 18.8232 13.5791Q19.5898 11.8066 19.5898 9.79492Q19.5898 7.7832 18.8232 6.01074Q18.0566 4.23828 16.7041 2.88574Q15.3516 1.5332 13.5742 0.766602Q11.7969 0 9.78516 0Q7.77344 0 6.00098 0.766602Q4.22852 1.5332 2.88086 2.88574Q1.5332 4.23828 0.766602 6.01074Q0 7.7832 0 9.79492Q0 11.8066 0.766602 13.5791Q1.5332 15.3516 2.88574 16.7041Q4.23828 18.0566 6.01074 18.8232Q7.7832 19.5898 9.79492 19.5898Z"
                     fill="rgba(255,255,255,0.55)" />
              <path d="M4.56055 8.98438Q4.56055 8.22266 4.89746 7.71973Q5.23438 7.2168 5.75195 7.2168Q6.26953 7.2168 6.60645 7.71973Q6.94336 8.22266 6.94336 8.98438Q6.94336 9.73633 6.60645 10.2344Q6.26953 10.7324 5.75195 10.7324Q5.23438 10.7324 4.89746 10.2344Q4.56055 9.73633 4.56055 8.98438ZM6.97266 6.10352Q6.97266 5.3418 7.31445 4.85352Q7.65625 4.36523 8.17383 4.36523Q8.69141 4.36523 9.02832 4.85352Q9.36523 5.3418 9.36523 6.10352Q9.36523 6.85547 9.02832 7.3584Q8.69141 7.86133 8.17383 7.86133Q7.65625 7.86133 7.31445 7.3584Q6.97266 6.85547 6.97266 6.10352ZM10.2148 6.10352Q10.2148 5.3418 10.5518 4.85352Q10.8887 4.36523 11.4062 4.36523Q11.9238 4.36523 12.2656 4.85352Q12.6074 5.3418 12.6074 6.10352Q12.6074 6.85547 12.2656 7.3584Q11.9238 7.86133 11.4062 7.86133Q10.8887 7.86133 10.5518 7.3584Q10.2148 6.85547 10.2148 6.10352ZM12.6367 8.98438Q12.6367 8.22266 12.9785 7.71973Q13.3203 7.2168 13.8379 7.2168Q14.3457 7.2168 14.6826 7.71973Q15.0195 8.22266 15.0195 8.98438Q15.0195 9.73633 14.6826 10.2344Q14.3457 10.7324 13.8379 10.7324Q13.3203 10.7324 12.9785 10.2344Q12.6367 9.73633 12.6367 8.98438ZM6.00586 12.9102Q6.00586 12.2559 6.34277 11.8604Q6.67969 11.4648 7.06055 11.1621Q7.26562 10.9961 7.45117 10.8252Q7.63672 10.6543 7.77344 10.4395Q7.87109 10.293 7.9541 10.1221Q8.03711 9.95117 8.11523 9.78516Q8.29102 9.4043 8.48145 9.05273Q8.67188 8.70117 8.97949 8.47168Q9.28711 8.24219 9.79492 8.24219Q10.3027 8.24219 10.6006 8.4668Q10.8984 8.69141 11.0938 9.04785Q11.2891 9.4043 11.4648 9.78516Q11.543 9.96094 11.6309 10.1367Q11.7188 10.3125 11.8164 10.4688Q11.9434 10.6641 12.1289 10.8301Q12.3145 10.9961 12.5195 11.1621Q12.8906 11.4648 13.2275 11.8604Q13.5645 12.2559 13.5645 12.9102Q13.5645 13.6523 13.0957 14.1309Q12.627 14.6094 11.8848 14.6094Q11.5039 14.6094 11.2207 14.5264Q10.9375 14.4434 10.6836 14.3359Q10.459 14.2578 10.2441 14.1992Q10.0293 14.1406 9.79492 14.1406Q9.54102 14.1406 9.33105 14.1992Q9.12109 14.2578 8.90625 14.3359Q8.64258 14.4434 8.35938 14.5264Q8.07617 14.6094 7.70508 14.6094Q6.95312 14.6094 6.47949 14.1309Q6.00586 13.6523 6.00586 12.9102Z"
                     fill="#ffffff" />
       </g>
</svg>