<svg width="18.5928" height="19.1583">
       <g>
              <rect height="19.1583" opacity="0" width="18.5928" x="0" y="0" />
              <path d="M1.20895 12.4376L1.20895 2.31201Q1.20895 1.73386 1.47781 1.46988Q1.74667 1.2059 2.31506 1.2059L16.2778 1.2059Q16.8491 1.2059 17.1179 1.46988Q17.3868 1.73386 17.3868 2.31201L17.3868 12.4376Q17.3868 13.0127 17.1179 13.2732Q16.8491 13.5338 16.2778 13.5338L2.31506 13.5338Q1.74667 13.5338 1.47781 13.2732Q1.20895 13.0127 1.20895 12.4376Z"
                     fill="#0a84ff" />
              <path d="M3.65143 10.7381L8.22464 10.7381Q8.35907 10.7381 8.44948 10.651Q8.53989 10.564 8.53989 10.41Q8.53989 10.2719 8.44948 10.1916Q8.35907 10.1112 8.22464 10.1112L3.65143 10.1112Q3.50052 10.1112 3.41194 10.1916Q3.32336 10.2719 3.32336 10.41Q3.32336 10.564 3.41194 10.651Q3.50052 10.7381 3.65143 10.7381ZM3.65143 9.09073L10.0674 9.09073Q10.2084 9.09073 10.2937 9.00215Q10.3789 8.91357 10.3789 8.76266Q10.3789 8.63129 10.2937 8.54759Q10.2084 8.4639 10.0674 8.4639L3.65143 8.4639Q3.50052 8.4639 3.41194 8.54759Q3.32336 8.63129 3.32336 8.76266Q3.32336 8.91357 3.41194 9.00215Q3.50052 9.09073 3.65143 9.09073ZM3.76175 5.1326Q3.94196 5.1326 4.0696 5.00313Q4.19724 4.87366 4.19724 4.69711Q4.19724 4.51385 4.0696 4.38286Q3.94196 4.25186 3.76175 4.25186Q3.57864 4.25186 3.451 4.38286Q3.32336 4.51385 3.32336 4.69711Q3.32336 4.87366 3.451 5.00313Q3.57864 5.1326 3.76175 5.1326ZM3.76175 6.89041Q3.94196 6.89041 4.0696 6.76094Q4.19724 6.63147 4.19724 6.44821Q4.19724 6.27167 4.0696 6.14067Q3.94196 6.00967 3.76175 6.00967Q3.57864 6.00967 3.451 6.14067Q3.32336 6.27167 3.32336 6.44821Q3.32336 6.63147 3.451 6.76094Q3.57864 6.89041 3.76175 6.89041ZM4.95422 5.52719Q4.95422 5.96436 5.14534 6.36696Q5.33646 6.76956 5.56702 6.95801Q5.62561 7.00684 5.68153 7.0298Q5.73746 7.05276 5.80276 7.05276Q5.91461 7.05276 5.98854 6.97884Q6.06247 6.90491 6.06247 6.79672Q6.06247 6.71417 6.02608 6.66321Q5.98969 6.61224 5.93658 6.55594Q5.72235 6.32904 5.61867 6.07208Q5.51498 5.81512 5.51498 5.52719Q5.51498 5.23254 5.62202 4.98238Q5.72906 4.73221 5.93658 4.49844Q5.98969 4.43558 6.02608 4.38454Q6.06247 4.3335 6.06247 4.25095Q6.06247 4.14581 5.98854 4.07043Q5.91461 3.99506 5.80276 3.99506Q5.74417 3.99506 5.68489 4.0213Q5.62561 4.04755 5.56702 4.09637Q5.29907 4.31854 5.12665 4.70428Q4.95422 5.09003 4.95422 5.52719Z"
                     fill="#ffffff" />
              <path d="M14.817 15.5484Q14.5593 15.5484 14.3668 15.3524Q14.1742 15.1564 14.1742 14.8891Q14.1742 14.6313 14.3668 14.4388Q14.5593 14.2462 14.817 14.2462Q15.088 14.2462 15.2822 14.4388Q15.4764 14.6313 15.4764 14.8891Q15.4764 15.1564 15.2822 15.3524Q15.088 15.5484 14.817 15.5484Z"
                     fill="#ff9f0a" />
              <path d="M0 14.1391Q0 15.2942 0.567169 15.858Q1.13434 16.4218 2.27234 16.4218L16.3235 16.4218Q17.4585 16.4218 18.0257 15.858Q18.5928 15.2942 18.5928 14.1391L18.5928 2.28271Q18.5928 1.12747 18.0205 0.563736Q17.4481 0 16.3101 0L2.28271 0Q1.14777 0 0.573883 0.563736Q0 1.12747 0 2.28271ZM1.20895 12.4376L1.20895 2.31201Q1.20895 1.73386 1.47781 1.46988Q1.74667 1.2059 2.31506 1.2059L16.2778 1.2059Q16.8491 1.2059 17.1179 1.46988Q17.3868 1.73386 17.3868 2.31201L17.3868 12.4376Q17.3868 13.0127 17.1179 13.2732Q16.8491 13.5338 16.2778 13.5338L2.31506 13.5338Q1.74667 13.5338 1.47781 13.2732Q1.20895 13.0127 1.20895 12.4376ZM14.817 15.5484Q14.5593 15.5484 14.3668 15.3524Q14.1742 15.1564 14.1742 14.8891Q14.1742 14.6313 14.3668 14.4388Q14.5593 14.2462 14.817 14.2462Q15.088 14.2462 15.2822 14.4388Q15.4764 14.6313 15.4764 14.8891Q15.4764 15.1564 15.2822 15.3524Q15.088 15.5484 14.817 15.5484ZM9.29642 17.5633Q10.3413 17.5633 11.2389 17.457Q12.1365 17.3508 12.8632 17.1436Q13.5899 16.9363 14.1057 16.643Q14.6214 16.3496 14.8958 15.9755L3.69995 15.9755Q4.24576 16.7207 5.73105 17.142Q7.21634 17.5633 9.29642 17.5633ZM4.76334 18.9351L13.8326 18.9351Q14.0889 18.9351 14.2253 18.8155Q14.3617 18.6958 14.3932 18.5249Q14.4247 18.354 14.3517 18.1947Q14.2786 18.0353 14.1023 17.9588L11.7633 16.8076L6.83258 16.8076L4.49341 17.9588Q4.31732 18.0353 4.24423 18.1947Q4.17114 18.354 4.20113 18.5249Q4.23111 18.6958 4.36752 18.8155Q4.50394 18.9351 4.76334 18.9351Z"
                     fill="#f7d7a7" />
       </g>
</svg>