<svg width="22.1213" height="20.351">
       <g>
              <rect height="20.351" opacity="0" width="22.1213" x="0" y="0" />
              <path d="M0.612335 20.3412Q0.861969 20.3412 1.03699 20.1662Q1.21201 19.9911 1.21201 19.7386L1.21201 0.59967Q1.21201 0.350037 1.03699 0.175018Q0.861969 0 0.612335 0Q0.350037 0 0.175018 0.175018Q0 0.350037 0 0.59967L0 19.7386Q0 19.9911 0.175018 20.1662Q0.350037 20.3412 0.612335 20.3412ZM21.5218 20.3412Q21.7712 20.3412 21.9463 20.1662Q22.1213 19.9911 22.1213 19.7386L22.1213 0.59967Q22.1213 0.350037 21.9463 0.175018Q21.7712 0 21.5218 0Q21.2624 0 21.0858 0.175018Q20.9093 0.350037 20.9093 0.59967L20.9093 19.7386Q20.9093 19.9911 21.0858 20.1662Q21.2624 20.3412 21.5218 20.3412ZM19.3411 3.91556L21.5218 3.91556L21.5218 2.89963L19.3411 2.89963ZM19.3411 8.43246L21.5218 8.43246L21.5218 7.41959L19.3411 7.41959ZM19.3411 12.9425L21.5218 12.9425L21.5218 11.9296L19.3411 11.9296ZM19.3411 17.4557L21.5218 17.4557L21.5218 16.4398L19.3411 16.4398Z"
                     fill="rgba(255,255,255,0.55)" />
              <path d="M9.85962 6.33865L19.2914 5.23453Q19.903 5.16235 19.903 4.63867L19.903 2.13882Q19.903 1.84448 19.7386 1.65497Q19.5743 1.46545 19.2914 1.52786L9.73877 3.63556Q9.49127 3.69476 9.37119 3.84331Q9.2511 3.99185 9.2511 4.1832L9.2511 5.7901Q9.2511 6.07971 9.40872 6.22566Q9.56635 6.37161 9.85962 6.33865ZM9.73877 9.77936L19.2914 9.77936Q19.5645 9.77936 19.7337 9.61311Q19.903 9.44687 19.903 9.18045L19.903 6.6806Q19.903 6.39526 19.7431 6.21597Q19.5833 6.03668 19.2914 6.07269L9.73877 7.18658Q9.50241 7.21283 9.37675 7.36931Q9.2511 7.52579 9.2511 7.75986L9.2511 9.22318Q9.2511 9.47678 9.3895 9.62807Q9.52789 9.77936 9.73877 9.77936ZM9.73877 13.2034L19.2914 14.3173Q19.5833 14.3533 19.7431 14.174Q19.903 13.9948 19.903 13.7094L19.903 11.2096Q19.903 10.9431 19.7337 10.7769Q19.5645 10.6107 19.2914 10.6107L9.73877 10.6107Q9.52789 10.6107 9.3895 10.7604Q9.2511 10.9102 9.2511 11.1668L9.2511 12.6302Q9.2511 12.8642 9.37675 13.0207Q9.50241 13.1772 9.73877 13.2034ZM9.73877 16.7545L19.2914 18.8622Q19.5743 18.9246 19.7386 18.735Q19.903 18.5455 19.903 18.2512L19.903 15.7446Q19.903 15.2277 19.2914 15.1555L9.85962 14.0514Q9.56635 14.0184 9.40872 14.1644Q9.2511 14.3103 9.2511 14.597L9.2511 16.2038Q9.2511 16.3982 9.37119 16.5467Q9.49127 16.6953 9.73877 16.7545Z"
                     fill="rgba(255,255,255,0.55)" />
       </g>
</svg>