<svg width="22.1213" height="20.351">
       <g>
              <rect height="20.351" opacity="0" width="22.1213" x="0" y="0" />
              <path d="M0.612335 20.3412Q0.861969 20.3412 1.03699 20.1662Q1.21201 19.9911 1.21201 19.7386L1.21201 0.59967Q1.21201 0.350037 1.03699 0.175018Q0.861969 0 0.612335 0Q0.350037 0 0.175018 0.175018Q0 0.350037 0 0.59967L0 19.7386Q0 19.9911 0.175018 20.1662Q0.350037 20.3412 0.612335 20.3412ZM21.5218 20.3412Q21.7712 20.3412 21.9463 20.1662Q22.1213 19.9911 22.1213 19.7386L22.1213 0.59967Q22.1213 0.350037 21.9463 0.175018Q21.7712 0 21.5218 0Q21.2624 0 21.0858 0.175018Q20.9093 0.350037 20.9093 0.59967L20.9093 19.7386Q20.9093 19.9911 21.0858 20.1662Q21.2624 20.3412 21.5218 20.3412ZM19.3472 3.91556L21.5218 3.91556L21.5218 2.89963L19.3472 2.89963ZM19.3472 8.43246L21.5218 8.43246L21.5218 7.41959L19.3472 7.41959ZM19.3472 12.9425L21.5218 12.9425L21.5218 11.9296L19.3472 11.9296ZM19.3472 17.4557L21.5218 17.4557L21.5218 16.4398L19.3472 16.4398Z"
                     fill="rgba(255,255,255,0.55)" />
              <path d="M2.85797 5.26245L19.2635 5.26245Q19.5554 5.26245 19.7292 5.09506Q19.903 4.92767 19.903 4.64844L19.903 2.17346Q19.903 1.89728 19.7292 1.72806Q19.5554 1.55884 19.2635 1.55884L2.85797 1.55884Q2.56592 1.55884 2.39365 1.72806Q2.22137 1.89728 2.22137 2.17346L2.22137 4.64844Q2.22137 4.92767 2.39365 5.09506Q2.56592 5.26245 2.85797 5.26245ZM2.85797 9.77936L19.2635 9.77936Q19.5554 9.77936 19.7292 9.61006Q19.903 9.44077 19.903 9.15863L19.903 6.68365Q19.903 6.40747 19.7292 6.24161Q19.5554 6.07574 19.2635 6.07574L2.85797 6.07574Q2.56592 6.07574 2.39365 6.24161Q2.22137 6.40747 2.22137 6.68365L2.22137 9.15863Q2.22137 9.44077 2.39365 9.61006Q2.56592 9.77936 2.85797 9.77936ZM2.85797 14.2894L19.2635 14.2894Q19.5554 14.2894 19.7292 14.1202Q19.903 13.951 19.903 13.6717L19.903 11.1967Q19.903 10.9244 19.7292 10.7551Q19.5554 10.5858 19.2635 10.5858L2.85797 10.5858Q2.56592 10.5858 2.39365 10.7551Q2.22137 10.9244 2.22137 11.1967L2.22137 13.6717Q2.22137 13.951 2.39365 14.1202Q2.56592 14.2894 2.85797 14.2894ZM2.85797 18.7996L19.2635 18.7996Q19.5554 18.7996 19.7292 18.6337Q19.903 18.4679 19.903 18.1886L19.903 15.7137Q19.903 15.4375 19.7292 15.2682Q19.5554 15.099 19.2635 15.099L2.85797 15.099Q2.56592 15.099 2.39365 15.2682Q2.22137 15.4375 2.22137 15.7137L2.22137 18.1886Q2.22137 18.4679 2.39365 18.6337Q2.56592 18.7996 2.85797 18.7996Z"
                     fill="rgba(255,255,255,0.55)" />
       </g>
</svg>