<svg width="19.5898" height="19.5996">
       <g>
              <rect height="19.5996" opacity="0" width="19.5898" x="0" y="0" />
              <path d="M9.79492 19.5996Q11.8066 19.5996 13.5791 18.833Q15.3516 18.0664 16.7041 16.7139Q18.0566 15.3613 18.8232 13.5889Q19.5898 11.8164 19.5898 9.80469Q19.5898 7.79297 18.8232 6.02051Q18.0566 4.24805 16.7041 2.89551Q15.3516 1.54297 13.5742 0.776367Q11.7969 0.00976562 9.78516 0.00976562Q7.77344 0.00976562 6.00098 0.776367Q4.22852 1.54297 2.88086 2.89551Q1.5332 4.24805 0.766602 6.02051Q0 7.79297 0 9.80469Q0 11.8164 0.766602 13.5889Q1.5332 15.3613 2.88574 16.7139Q4.23828 18.0664 6.01074 18.833Q7.7832 19.5996 9.79492 19.5996Z"
                     fill="rgba(255,255,255,0.55)" />
              <path d="M6.46484 14.1016L5.16602 14.6484Q5.04883 14.6973 4.94141 14.5996Q4.83398 14.502 4.90234 14.3555L5.48828 13.0957L12.334 6.25L13.3301 7.24609ZM13.8477 6.73828L12.8516 5.73242L13.4863 5.11719Q13.7012 4.90234 13.9258 4.88281Q14.1504 4.86328 14.3555 5.06836L14.5117 5.22461Q14.7168 5.42969 14.7119 5.65918Q14.707 5.88867 14.4824 6.11328Z"
                     fill="#ffffff" />
       </g>
</svg>