<svg width="19.5898" height="19.5996">
       <g>
              <rect height="19.5996" opacity="0" width="19.5898" x="0" y="0" />
              <path d="M9.79492 19.5996Q11.8066 19.5996 13.5791 18.833Q15.3516 18.0664 16.7041 16.7139Q18.0566 15.3613 18.8232 13.5889Q19.5898 11.8164 19.5898 9.80469Q19.5898 7.79297 18.8232 6.02051Q18.0566 4.24805 16.7041 2.89551Q15.3516 1.54297 13.5742 0.776367Q11.7969 0.00976562 9.78516 0.00976562Q7.77344 0.00976562 6.00098 0.776367Q4.22852 1.54297 2.88086 2.89551Q1.5332 4.24805 0.766602 6.02051Q0 7.79297 0 9.80469Q0 11.8164 0.766602 13.5889Q1.5332 15.3613 2.88574 16.7139Q4.23828 18.0664 6.01074 18.833Q7.7832 19.5996 9.79492 19.5996Z"
                     fill="rgba(255,255,255,0.55)" />
              <path d="M3.05664 8.73047Q3.05664 7.5293 3.83301 6.74316Q4.60938 5.95703 5.81055 5.95703L10.0098 5.95703Q11.2207 5.95703 11.9971 6.74316Q12.7734 7.5293 12.7734 8.73047Q12.7734 9.94141 11.9971 10.7227Q11.2207 11.5039 10.0098 11.5039L8.42773 11.5039Q8.27148 11.2793 8.24219 11.0303Q8.21289 10.7812 8.26172 10.6055L9.95117 10.6055Q10.791 10.6055 11.3184 10.083Q11.8457 9.56055 11.8457 8.73047Q11.8457 7.91016 11.3184 7.38281Q10.791 6.85547 9.95117 6.85547L5.87891 6.85547Q5.03906 6.85547 4.51172 7.38281Q3.98438 7.91016 3.98438 8.73047Q3.98438 9.56055 4.51172 10.083Q5.03906 10.6055 5.87891 10.6055L6.34766 10.6055Q6.32812 10.8105 6.33789 11.0645Q6.34766 11.3184 6.37695 11.5039L5.81055 11.5039Q4.59961 11.5039 3.82812 10.7227Q3.05664 9.94141 3.05664 8.73047ZM6.81641 10.9375Q6.81641 9.72656 7.59277 8.9502Q8.36914 8.17383 9.58008 8.17383L11.1719 8.17383Q11.3281 8.35938 11.3525 8.62793Q11.377 8.89648 11.3086 9.0625L9.63867 9.0625Q8.78906 9.0625 8.2666 9.58496Q7.74414 10.1074 7.74414 10.9375Q7.74414 11.7578 8.27148 12.2852Q8.79883 12.8125 9.63867 12.8125L13.7207 12.8125Q14.5508 12.8125 15.0781 12.2852Q15.6055 11.7578 15.6055 10.9375Q15.6055 10.1074 15.0781 9.58496Q14.5508 9.0625 13.7207 9.0625L13.2422 9.0625Q13.2715 8.76953 13.252 8.56445Q13.2324 8.35938 13.2031 8.17383L13.7793 8.17383Q14.9805 8.17383 15.7617 8.9502Q16.543 9.72656 16.543 10.9375Q16.543 12.1387 15.7617 12.9248Q14.9805 13.7109 13.7793 13.7109L9.58008 13.7109Q8.37891 13.7109 7.59766 12.9248Q6.81641 12.1387 6.81641 10.9375Z"
                     fill="#ffffff" />
       </g>
</svg>