<svg width="38.4767" height="17.7478">
       <g>
              <rect height="17.7478" opacity="0" width="38.4767" x="0" y="0" />
              <path d="M1.86813 17.7478L14.4728 17.7478Q15.4745 17.7478 15.9112 17.4493Q16.3478 17.1509 16.3478 16.5125Q16.3478 15.578 15.781 14.5391Q15.2142 13.5002 14.1495 12.5917Q13.0847 11.6832 11.5737 11.115Q10.0627 10.5467 8.17047 10.5467Q6.2851 10.5467 4.77409 11.115Q3.26309 11.6832 2.1949 12.5917Q1.12671 13.5002 0.563354 14.5391Q0 15.578 0 16.5125Q0 17.1509 0.43663 17.4493Q0.87326 17.7478 1.86813 17.7478ZM8.18634 8.79562Q9.24026 8.79562 10.1169 8.22884Q10.9935 7.66205 11.5203 6.69304Q12.0471 5.72403 12.0471 4.51553Q12.0471 3.34152 11.5188 2.39395Q10.9904 1.44638 10.1124 0.893478Q9.23431 0.340576 8.18634 0.340576Q7.13837 0.340576 6.25877 0.900192Q5.37918 1.45981 4.84932 2.41081Q4.31946 3.36182 4.32251 4.52591Q4.32251 5.7309 4.84932 6.69647Q5.37613 7.66205 6.2542 8.22884Q7.13226 8.79562 8.18634 8.79562Z"
                     fill="rgba(255,255,255,0.55)" />
              <path d="M19.2493 10.5467Q17.9146 10.5467 16.7682 10.8516Q15.6218 11.1565 14.693 11.6632Q15.9331 12.6289 16.6739 13.8821Q17.4147 15.1352 17.4147 16.5125Q17.4147 17.244 17.0857 17.7478L25.5516 17.7478Q26.5466 17.7478 26.9833 17.4493Q27.4199 17.1509 27.4199 16.5125Q27.4199 15.578 26.8549 14.5391Q26.29 13.5002 25.2234 12.5917Q24.1568 11.6832 22.6458 11.115Q21.1348 10.5467 19.2493 10.5467ZM19.2584 8.79562Q20.3192 8.79562 21.1958 8.22884Q22.0723 7.66205 22.5957 6.69304Q23.1192 5.72403 23.1192 4.51553Q23.1192 3.34152 22.5893 2.39395Q22.0595 1.44638 21.1814 0.893478Q20.3033 0.340576 19.2584 0.340576Q18.2172 0.340576 17.3342 0.900192Q16.4513 1.45981 15.9214 2.41081Q15.3915 3.36182 15.4013 4.52591Q15.4013 5.7309 15.9248 6.69647Q16.4482 7.66205 17.3263 8.22884Q18.2043 8.79562 19.2584 8.79562Z"
                     fill="rgba(255,255,255,0.55)" />
              <path d="M30.2995 10.5467Q28.9775 10.5467 27.8311 10.8516Q26.6847 11.1565 25.7561 11.6534Q27.0088 12.6192 27.7512 13.8772Q28.4935 15.1352 28.4935 16.5125Q28.4935 17.244 28.1645 17.7478L36.6019 17.7478Q37.6065 17.7478 38.0416 17.4493Q38.4767 17.1509 38.4767 16.5125Q38.4767 15.578 37.91 14.5391Q37.3433 13.5002 36.2785 12.5917Q35.2136 11.6832 33.7041 11.115Q32.1947 10.5467 30.2995 10.5467ZM30.3154 8.79562Q31.3693 8.79562 32.2474 8.22884Q33.1255 7.66205 33.6523 6.69304Q34.1792 5.72403 34.1792 4.51553Q34.1792 3.34152 33.6494 2.39395Q33.1195 1.44638 32.2414 0.893478Q31.3632 0.340576 30.3154 0.340576Q29.2674 0.340576 28.3878 0.900192Q27.5082 1.45981 26.9783 2.41081Q26.4484 3.36182 26.4545 4.52591Q26.4545 5.7309 26.9814 6.69647Q27.5082 7.66205 28.3848 8.22884Q29.2613 8.79562 30.3154 8.79562Z"
                     fill="rgba(255,255,255,0.55)" />
       </g>
</svg>