<svg width="17.6855" height="17.7051">
       <g>
              <rect height="17.7051" opacity="0" width="17.6855" x="0" y="0" />
              <path d="M2.88086 17.7051L14.8047 17.7051Q16.2305 17.7051 16.958 16.9873Q17.6855 16.2695 17.6855 14.8535L17.6855 2.88086Q17.6855 1.46484 16.958 0.742188Q16.2305 0.0195312 14.8047 0.0195312L2.88086 0.0195312Q1.44531 0.0195312 0.722656 0.737305Q0 1.45508 0 2.88086L0 14.8535Q0 16.2695 0.722656 16.9873Q1.44531 17.7051 2.88086 17.7051Z"
                     fill="rgba(255,255,255,0.55)" />
              <path d="M2.1875 16.5723Q2.40234 15.625 3.00293 14.7949Q3.60352 13.9648 4.49219 13.3398Q5.38086 12.7148 6.49414 12.3633Q7.60742 12.0117 8.84766 12.0117Q10.0977 12.0117 11.2061 12.3633Q12.3145 12.7148 13.208 13.3398Q14.1016 13.9648 14.7021 14.7949Q15.3027 15.625 15.5078 16.5723ZM8.84766 10.3906Q7.91992 10.3809 7.17285 9.91211Q6.42578 9.44336 5.98633 8.62305Q5.54688 7.80273 5.53711 6.76758Q5.53711 5.80078 5.98145 4.99512Q6.42578 4.18945 7.17285 3.70605Q7.91992 3.22266 8.84766 3.22266Q9.76562 3.22266 10.5127 3.70605Q11.2598 4.18945 11.7041 4.99512Q12.1484 5.80078 12.1484 6.76758Q12.1484 7.80273 11.7041 8.62793Q11.2598 9.45312 10.5127 9.92676Q9.76562 10.4004 8.84766 10.3906Z"
                     fill="#ffffff" />
       </g>
</svg>