<svg width="23.9696" height="17.8198">
       <g>
              <rect height="17.8198" opacity="0" width="23.9696" x="0" y="0" />
              <path d="M18.9034 16.4459Q19.9706 16.4459 20.8927 16.0912Q21.8149 15.7364 22.5054 15.1071Q23.196 14.4778 23.5828 13.6414Q23.9696 12.8049 23.9696 11.8414Q23.9696 10.8463 23.6121 9.96712Q23.2545 9.08798 22.5748 8.41553Q21.8951 7.74307 20.9261 7.379Q20.9502 5.78445 20.4388 4.43504Q19.9275 3.08563 18.9891 2.09007Q18.0507 1.09451 16.7946 0.547256Q15.5385 0 14.077 0Q12.7458 0 11.6886 0.43541Q10.6314 0.870819 9.83345 1.59546Q9.03549 2.3201 8.49182 3.19763Q7.61765 2.89764 6.74377 3.05565Q5.8699 3.21365 5.14809 3.74199Q4.42627 4.27032 3.98766 5.08194Q3.54904 5.89355 3.54462 6.90079Q2.46841 7.03415 1.6703 7.65434Q0.872192 8.27454 0.436096 9.24103Q0 10.2075 0 11.3747Q0 12.4187 0.422821 13.3379Q0.845642 14.257 1.60973 14.9512Q2.37381 15.6454 3.3989 16.0412Q4.42398 16.4369 5.62866 16.4369Z"
                     fill="rgba(255,255,255,0.55)" />
              <path d="M7.14615 15.0414Q7.53708 14.1626 8.27705 13.3865Q9.01703 12.6105 10.0963 12.1288Q11.1755 11.647 12.6018 11.647Q14.025 11.647 15.1057 12.1288Q16.1865 12.6105 16.925 13.3865Q17.6634 14.1626 18.0574 15.0414ZM12.6018 10.4543Q11.8906 10.4414 11.3048 10.0611Q10.719 9.68079 10.3732 9.04427Q10.0273 8.40775 10.0243 7.62878Q10.0243 6.8718 10.3701 6.25031Q10.7159 5.62881 11.3033 5.25673Q11.8906 4.88464 12.6018 4.88464Q13.3099 4.88464 13.8939 5.25673Q14.4778 5.62881 14.827 6.25031Q15.1762 6.8718 15.1762 7.62878Q15.1762 8.40775 14.827 9.05212Q14.4778 9.6965 13.8939 10.0803Q13.3099 10.464 12.6018 10.4543Z"
                     fill="#ffffff" />
       </g>
</svg>