<svg width="22.8699" height="17.688">
       <g>
              <rect height="17.688" opacity="0" width="22.8699" x="0" y="0" />
              <path d="M2.87872 17.6819L19.9883 17.6819Q21.4282 17.6819 22.149 16.9614Q22.8699 16.2408 22.8699 14.8338L22.8699 2.85477Q22.8699 1.45081 22.149 0.725403Q21.4282 0 19.9883 0L2.87872 0Q1.44836 0 0.724182 0.718994Q0 1.43799 0 2.85477L0 14.8338Q0 16.2469 0.724182 16.9644Q1.44836 17.6819 2.87872 17.6819Z"
                     fill="rgba(255,255,255,0.55)" />
              <path d="M13.7215 5.33264Q13.5092 5.33264 13.3683 5.19165Q13.2274 5.05066 13.2274 4.84818Q13.2274 4.64569 13.3683 4.50813Q13.5092 4.37057 13.7215 4.37057L19.2169 4.37057Q19.4225 4.37057 19.5634 4.50813Q19.7044 4.64569 19.7044 4.84818Q19.7044 5.05066 19.5634 5.19165Q19.4225 5.33264 19.2169 5.33264ZM13.7215 9.33929Q13.5092 9.33929 13.3683 9.1983Q13.2274 9.05731 13.2274 8.84827Q13.2274 8.6525 13.3683 8.51341Q13.5092 8.37433 13.7215 8.37433L19.2169 8.37433Q19.4225 8.37433 19.5634 8.51341Q19.7044 8.6525 19.7044 8.84827Q19.7044 9.05731 19.5634 9.1983Q19.4225 9.33929 19.2169 9.33929ZM13.7215 13.3363Q13.5092 13.3363 13.3683 13.1987Q13.2274 13.0611 13.2274 12.8654Q13.2274 12.663 13.3683 12.5186Q13.5092 12.3743 13.7215 12.3743L19.2169 12.3743Q19.4225 12.3743 19.5634 12.5186Q19.7044 12.663 19.7044 12.8654Q19.7044 13.0611 19.5634 13.1987Q19.4225 13.3363 19.2169 13.3363ZM3.28537 13.3835Q3.08426 13.3835 2.98492 13.2597Q2.88559 13.1358 2.88559 12.9453Q2.88559 12.5847 3.14888 12.0184Q3.41217 11.4522 3.95348 10.8762Q4.49478 10.3003 5.31563 9.91104Q6.13647 9.52179 7.24838 9.52179Q8.36029 9.52179 9.18442 9.91104Q10.0085 10.3003 10.5499 10.8762Q11.0912 11.4522 11.3545 12.0184Q11.6179 12.5847 11.6179 12.9453Q11.6179 13.1358 11.5185 13.2597Q11.4191 13.3835 11.2181 13.3835ZM7.24838 8.82294Q6.35132 8.82294 5.71236 8.1498Q5.07339 7.47665 5.07339 6.45264Q5.07339 5.81863 5.36598 5.29045Q5.65857 4.76227 6.1544 4.44519Q6.65024 4.12811 7.24838 4.12811Q7.85309 4.12811 8.34557 4.44519Q8.83804 4.76227 9.13071 5.29045Q9.42337 5.81863 9.42337 6.45264Q9.42337 7.47665 8.78777 8.1498Q8.15216 8.82294 7.24838 8.82294Z"
                     fill="#ffffff" />
       </g>
</svg>