<svg width="32.0723" height="22.4522">
       <g>
              <rect height="22.4522" opacity="0" width="32.0723" x="0" y="0" />
              <path d="M12.0537 20.1L24.6651 20.1Q25.6601 20.1 26.0967 19.8015Q26.5334 19.5031 26.5334 18.8647Q26.5334 17.9302 25.9666 16.8913Q25.3998 15.8524 24.335 14.9439Q23.2703 14.0354 21.7593 13.4672Q20.2483 12.8989 18.356 12.8989Q16.4706 12.8989 14.9596 13.4672Q13.4486 14.0354 12.3853 14.9439Q11.322 15.8524 10.7538 16.8913Q10.1855 17.9302 10.1855 18.8647Q10.1855 19.5031 10.6222 19.8015Q11.0588 20.1 12.0537 20.1ZM18.3719 11.1478Q19.4258 11.1478 20.3024 10.581Q21.179 10.0143 21.7059 9.04524Q22.2327 8.07624 22.2327 6.86774Q22.2327 5.69373 21.7043 4.74616Q21.176 3.79859 20.2979 3.24568Q19.4199 2.69278 18.3719 2.69278Q17.3239 2.69278 16.4443 3.2524Q15.5647 3.81201 15.0349 4.76302Q14.505 5.71402 14.5081 6.87812Q14.5081 8.0831 15.0364 9.04868Q15.5647 10.0143 16.4413 10.581Q17.3178 11.1478 18.3719 11.1478ZM1.56738 20.1L9.4101 20.1Q9.02008 19.6583 9.00299 18.9376Q8.9859 18.2169 9.29131 17.3757Q9.59671 16.5345 10.178 15.7152Q10.7593 14.896 11.5556 14.2504Q10.7481 13.6491 9.65042 13.2563Q8.5527 12.8635 7.11578 12.8635Q5.47455 12.8635 4.15886 13.398Q2.84317 13.9324 1.91658 14.8086Q0.98999 15.6847 0.494995 16.7282Q0 17.7717 0 18.7963Q0 19.4445 0.374298 19.7722Q0.748596 20.1 1.56738 20.1ZM7.13165 11.3694Q8.04886 11.3694 8.81126 10.8758Q9.57367 10.3823 10.0337 9.53688Q10.4938 8.69147 10.4938 7.63983Q10.4938 6.61246 10.0307 5.79032Q9.56772 4.96817 8.80531 4.48844Q8.04291 4.0087 7.13165 4.0087Q6.2204 4.0087 5.45311 4.49515Q4.68582 4.9816 4.22432 5.8071Q3.76282 6.6326 3.76587 7.65341Q3.76587 8.69834 4.22432 9.54032Q4.68277 10.3823 5.44518 10.8758Q6.20758 11.3694 7.13165 11.3694Z"
                     fill="rgba(255,255,255,0.55)" />
              <path d="M25.7982 10.879Q25.9976 11.0155 26.2292 10.972Q26.4609 10.9286 26.6138 10.7119Q27.1771 9.97885 27.5097 8.95583Q27.8423 7.9328 27.8423 6.77634Q27.8423 5.62003 27.5097 4.597Q27.1771 3.57398 26.6138 2.84079Q26.4609 2.62427 26.2292 2.58269Q25.9976 2.54111 25.7982 2.67371Q25.575 2.83042 25.5416 3.08188Q25.5083 3.33335 25.688 3.5694Q26.1752 4.23407 26.4244 5.04111Q26.6736 5.84815 26.6736 6.77634Q26.6736 7.70468 26.4211 8.50829Q26.1685 9.31189 25.688 9.98328Q25.515 10.2262 25.545 10.4728Q25.575 10.7194 25.7982 10.879Z"
                     fill="rgba(255,255,255,0.55)" />
              <path d="M29.2276 13.4431Q29.4405 13.5862 29.672 13.5427Q29.9036 13.4992 30.0566 13.2827Q30.997 12.0208 31.5347 10.311Q32.0723 8.60114 32.0723 6.77634Q32.0723 4.95154 31.5347 3.235Q30.997 1.51847 30.0566 0.270144Q29.9036 0.0536216 29.672 0.0101341Q29.4405-0.0333535 29.2276 0.109774Q29.0146 0.255953 28.9861 0.490939Q28.9577 0.725924 29.1241 0.961977Q29.9763 2.14026 30.4401 3.64226Q30.9038 5.14426 30.9038 6.77634Q30.9038 8.40857 30.4382 9.90721Q29.9727 11.4059 29.1241 12.5907Q28.9644 12.8239 28.9895 13.0604Q29.0146 13.2969 29.2276 13.4431Z"
                     fill="rgba(255,255,255,0.55)" />
       </g>
</svg>