<svg width="21.8867" height="22.4522">
       <g>
              <rect height="22.4522" opacity="0" width="21.8867" x="0" y="0" />
              <path d="M1.8779 20.1L14.4795 20.1Q15.4776 20.1 15.9142 19.8015Q16.3507 19.5031 16.3507 18.8647Q16.3507 17.9302 15.7858 16.8913Q15.2209 15.8524 14.1528 14.9439Q13.0847 14.0354 11.5752 13.4672Q10.0658 12.8989 8.17719 12.8989Q6.2851 12.8989 4.77562 13.4672Q3.26614 14.0354 2.20131 14.9439Q1.13647 15.8524 0.568237 16.8913Q0 17.9302 0 18.8647Q0 19.5031 0.439987 19.8015Q0.879974 20.1 1.8779 20.1ZM8.18634 11.1478Q9.24026 11.1478 10.1184 10.581Q10.9966 10.0143 11.5234 9.04524Q12.0502 8.07624 12.0502 6.86774Q12.0502 5.69373 11.5203 4.74616Q10.9904 3.79859 10.1124 3.24568Q9.23431 2.69278 8.18634 2.69278Q7.13837 2.69278 6.25877 3.2524Q5.37918 3.81201 4.84932 4.76302Q4.31946 5.71402 4.32556 6.87812Q4.32556 8.0831 4.85237 9.04868Q5.37918 10.0143 6.25572 10.581Q7.13226 11.1478 8.18634 11.1478Z"
                     fill="rgba(255,255,255,0.55)" />
              <path d="M15.6195 10.879Q15.8121 11.0155 16.0452 10.972Q16.2784 10.9286 16.4282 10.7119Q16.9946 9.97885 17.3257 8.95583Q17.6567 7.9328 17.6567 6.77634Q17.6567 5.62003 17.3257 4.597Q16.9946 3.57398 16.4282 2.84079Q16.2784 2.62427 16.0452 2.58269Q15.8121 2.54111 15.6195 2.67371Q15.3925 2.83042 15.3576 3.08188Q15.3227 3.33335 15.5055 3.5694Q15.9897 4.23407 16.2389 5.04111Q16.488 5.84815 16.488 6.77634Q16.488 7.70468 16.2355 8.50829Q15.983 9.31189 15.5055 9.98328Q15.3294 10.2262 15.3609 10.4728Q15.3925 10.7194 15.6195 10.879Z"
                     fill="rgba(255,255,255,0.55)" />
              <path d="M19.0421 13.4431Q19.2549 13.5862 19.488 13.5427Q19.7211 13.4992 19.8711 13.2827Q20.8115 12.0208 21.3491 10.311Q21.8867 8.60114 21.8867 6.77634Q21.8867 4.95154 21.3525 3.235Q20.8183 1.51847 19.8711 0.270144Q19.7211 0.0536216 19.488 0.0101341Q19.2549-0.0333535 19.0421 0.109774Q18.8388 0.255953 18.8088 0.490939Q18.7788 0.725924 18.9417 0.961977Q19.7939 2.14026 20.256 3.64226Q20.7182 5.14426 20.7182 6.77634Q20.7182 8.40857 20.2527 9.90721Q19.7871 11.4059 18.9417 12.5907Q18.7788 12.8239 18.8088 13.0604Q18.8388 13.2969 19.0421 13.4431Z"
                     fill="rgba(255,255,255,0.55)" />
       </g>
</svg>