<svg width="32.2748" height="22.4522">
       <g>
              <rect height="22.4522" opacity="0" width="32.2748" x="0" y="0" />
              <path d="M12.2696 20.3091L24.8743 20.3091Q26.9823 20.3091 26.9823 18.8647Q26.9823 17.9137 26.4024 16.8419Q25.8226 15.77 24.7278 14.8247Q23.633 13.8795 22.077 13.2846Q20.5211 12.6897 18.5719 12.6897Q16.6132 12.6897 15.0587 13.2846Q13.5042 13.8795 12.4094 14.8247Q11.3147 15.77 10.7348 16.8419Q10.1549 17.9137 10.1549 18.8647Q10.1549 20.3091 12.2696 20.3091ZM11.9614 19.1645Q11.6237 19.1645 11.4922 19.0726Q11.3608 18.9806 11.3608 18.7427Q11.3608 18.0532 11.841 17.208Q12.3212 16.3628 13.2443 15.5956Q14.1675 14.8284 15.5087 14.3313Q16.85 13.8343 18.5719 13.8343Q20.294 13.8343 21.6319 14.3313Q22.9697 14.8284 23.8947 15.5956Q24.8198 16.3628 25.2981 17.208Q25.7764 18.0532 25.7764 18.7427Q25.7764 18.9806 25.6434 19.0726Q25.5104 19.1645 25.1826 19.1645ZM18.5811 11.2723Q19.7189 11.2723 20.6487 10.6655Q21.5785 10.0587 22.1301 9.04135Q22.6817 8.02405 22.6817 6.77634Q22.6817 5.5567 22.129 4.56412Q21.5762 3.57154 20.6464 2.98339Q19.7166 2.39524 18.5811 2.39524Q17.4492 2.39524 16.5164 2.9901Q15.5836 3.58496 15.029 4.58243Q14.4743 5.5799 14.4774 6.78992Q14.4872 8.02771 15.0354 9.04662Q15.5836 10.0655 16.5119 10.6689Q17.4402 11.2723 18.5811 11.2723ZM18.5811 10.1278Q17.7864 10.1278 17.1298 9.68398Q16.4732 9.24018 16.0798 8.48258Q15.6863 7.72498 15.6863 6.78992Q15.6802 5.88278 16.0734 5.14655Q16.4665 4.41031 17.1262 3.9736Q17.7858 3.5369 18.5811 3.5369Q19.38 3.5369 20.0366 3.96689Q20.6932 4.39688 21.0845 5.13304Q21.4758 5.8692 21.4758 6.77634Q21.4758 7.7114 21.0842 8.47243Q20.6926 9.23346 20.0375 9.68062Q19.3825 10.1278 18.5811 10.1278ZM1.78329 20.3091L9.83078 20.3091Q9.55185 20.1562 9.35417 19.8496Q9.15649 19.5431 9.15985 19.1877L1.62399 19.1877Q1.36246 19.1877 1.2468 19.0834Q1.13113 18.9791 1.13113 18.7424Q1.13113 17.7647 1.62483 16.8733Q2.11853 15.982 2.97729 15.2846Q3.83606 14.5873 4.9527 14.1864Q6.06934 13.7855 7.31827 13.7855Q8.03345 13.7855 8.694 13.9119Q9.35455 14.0383 9.94972 14.2814Q10.5449 14.5244 11.0687 14.8925Q11.2547 14.6691 11.4661 14.4723Q11.6774 14.2756 11.924 14.0995Q11.2808 13.6251 10.5411 13.3074Q9.80133 12.9897 8.99078 12.8269Q8.18024 12.6641 7.31827 12.6641Q5.7457 12.6641 4.412 13.1795Q3.07831 13.6948 2.08809 14.5722Q1.09787 15.4496 0.548935 16.5432Q0 17.6368 0 18.8Q0 19.5591 0.445099 19.9341Q0.890198 20.3091 1.78329 20.3091ZM7.33109 11.4872Q8.32184 11.4872 9.13406 10.9604Q9.94629 10.4336 10.4243 9.54169Q10.9024 8.64981 10.9024 7.55164Q10.9024 6.49176 10.4198 5.6198Q9.93713 4.74784 9.12827 4.22957Q8.3194 3.71131 7.33109 3.71131Q6.34949 3.71131 5.53902 4.23445Q4.72855 4.7576 4.24568 5.63483Q3.76282 6.51206 3.76587 7.56201Q3.77182 8.65653 4.25018 9.54505Q4.72855 10.4336 5.53596 10.9604Q6.34338 11.4872 7.33109 11.4872ZM7.33109 10.3561Q6.66275 10.3561 6.10832 9.98549Q5.55389 9.61493 5.22545 8.9794Q4.897 8.34387 4.897 7.56201Q4.897 6.81784 5.2285 6.19696Q5.56 5.57608 6.11099 5.20926Q6.66199 4.84244 7.33109 4.84244Q8.0069 4.84244 8.56277 5.2059Q9.11865 5.56937 9.44832 6.18201Q9.77798 6.79465 9.77798 7.55164Q9.77798 8.33716 9.44801 8.97605Q9.11804 9.61493 8.56361 9.98549Q8.00919 10.3561 7.33109 10.3561Z"
                     fill="rgba(255,255,255,0.55)" />
              <path d="M26.0074 10.879Q26.2001 11.0155 26.4317 10.972Q26.6632 10.9286 26.8163 10.7119Q27.3796 9.97885 27.7121 8.95583Q28.0446 7.9328 28.0446 6.77634Q28.0446 5.62003 27.7121 4.597Q27.3796 3.57398 26.8163 2.84079Q26.6632 2.62427 26.4317 2.58269Q26.2001 2.54111 26.0074 2.67371Q25.7773 2.83042 25.7439 3.08188Q25.7106 3.33335 25.8905 3.5694Q26.3777 4.23407 26.6269 5.04111Q26.8761 5.84815 26.8761 6.77634Q26.8761 7.70468 26.6235 8.50829Q26.371 9.31189 25.8905 9.98328Q25.7173 10.2262 25.7473 10.4728Q25.7773 10.7194 26.0074 10.879Z"
                     fill="rgba(255,255,255,0.55)" />
              <path d="M29.4299 13.4431Q29.6429 13.5862 29.8745 13.5427Q30.106 13.4992 30.2589 13.2827Q31.1964 12.0208 31.7356 10.311Q32.2748 8.60114 32.2748 6.77634Q32.2748 4.95154 31.739 3.235Q31.2032 1.51847 30.2589 0.270144Q30.106 0.0536216 29.8745 0.0101341Q29.6429-0.0333535 29.4299 0.109774Q29.2238 0.255953 29.1953 0.490939Q29.1669 0.725924 29.3266 0.961977Q30.1788 2.14026 30.6425 3.64226Q31.1061 5.14426 31.1061 6.77634Q31.1061 8.40857 30.6391 9.90721Q30.1721 11.4059 29.3266 12.5907Q29.1669 12.8239 29.1953 13.0604Q29.2238 13.2969 29.4299 13.4431Z"
                     fill="rgba(255,255,255,0.55)" />
       </g>
</svg>