<svg width="19.5898" height="19.5996">
       <g>
              <rect height="19.5996" opacity="0" width="19.5898" x="0" y="0" />
              <path d="M9.79492 19.5996Q11.8066 19.5996 13.5791 18.833Q15.3516 18.0664 16.7041 16.7139Q18.0566 15.3613 18.8232 13.5889Q19.5898 11.8164 19.5898 9.80469Q19.5898 7.79297 18.8232 6.02051Q18.0566 4.24805 16.7041 2.89551Q15.3516 1.54297 13.5742 0.776367Q11.7969 0.00976562 9.78516 0.00976562Q7.77344 0.00976562 6.00098 0.776367Q4.22852 1.54297 2.88086 2.89551Q1.5332 4.24805 0.766602 6.02051Q0 7.79297 0 9.80469Q0 11.8164 0.766602 13.5889Q1.5332 15.3613 2.88574 16.7139Q4.23828 18.0664 6.01074 18.833Q7.7832 19.5996 9.79492 19.5996Z"
                     fill="rgba(255,255,255,0.55)" />
              <path d="M5.16602 14.8926Q4.91211 14.8926 4.79492 14.7461Q4.67773 14.5996 4.67773 14.3652Q4.67773 13.9551 4.99023 13.291Q5.30273 12.627 5.93262 11.958Q6.5625 11.2891 7.52441 10.8301Q8.48633 10.3711 9.79492 10.3711Q11.1035 10.3711 12.0654 10.8301Q13.0273 11.2891 13.6572 11.958Q14.2871 12.627 14.5996 13.291Q14.9121 13.9551 14.9121 14.3652Q14.9121 14.5996 14.7949 14.7461Q14.6777 14.8926 14.4238 14.8926ZM9.79492 9.56055Q9.0918 9.56055 8.51562 9.19434Q7.93945 8.82812 7.59277 8.19824Q7.24609 7.56836 7.24609 6.77734Q7.24609 6.03516 7.59277 5.41504Q7.93945 4.79492 8.51562 4.42383Q9.0918 4.05273 9.79492 4.05273Q10.498 4.05273 11.0742 4.42383Q11.6504 4.79492 11.9971 5.41504Q12.3438 6.03516 12.3438 6.77734Q12.3438 7.56836 11.9971 8.20312Q11.6504 8.83789 11.0742 9.19922Q10.498 9.56055 9.79492 9.56055Z"
                     fill="#ffffff" />
       </g>
</svg>