<svg width="38.9316" height="18.1659">
       <g>
              <rect height="18.1659" opacity="0" width="38.9316" x="0" y="0" />
              <path d="M2.108 18.1659L14.7194 18.1659Q16.8304 18.1659 16.8304 16.7215Q16.8304 15.7706 16.2491 14.6987Q15.6677 13.6269 14.5729 12.6816Q13.4781 11.7363 11.9237 11.1414Q10.3693 10.5466 8.41705 10.5466Q6.46118 10.5466 4.90524 11.1414Q3.3493 11.7363 2.25456 12.6816Q1.15982 13.6269 0.57991 14.6987Q0 15.7706 0 16.7215Q0 18.1659 2.108 18.1659ZM1.80649 17.0213Q1.47186 17.0213 1.34041 16.9294Q1.20895 16.8375 1.20895 16.5996Q1.20895 15.91 1.68579 15.0648Q2.16263 14.2197 3.08762 13.4525Q4.0126 12.6852 5.35378 12.1882Q6.69495 11.6911 8.41705 11.6911Q10.1392 11.6911 11.4785 12.1882Q12.8178 12.6852 13.7428 13.4525Q14.6678 14.2197 15.1447 15.0648Q15.6215 15.91 15.6215 16.5996Q15.6215 16.8375 15.49 16.9294Q15.3586 17.0213 15.0308 17.0213ZM8.41705 9.12918Q9.55124 9.12918 10.4844 8.52234Q11.4175 7.9155 11.9691 6.89819Q12.5208 5.88089 12.5208 4.63318Q12.5208 3.41354 11.968 2.42096Q11.4153 1.42838 10.4839 0.840225Q9.55261 0.252075 8.41705 0.252075Q7.28531 0.252075 6.35063 0.846939Q5.41595 1.4418 4.85977 2.43927Q4.30359 3.43674 4.31641 4.64676Q4.31946 5.88455 4.87106 6.90346Q5.42267 7.92236 6.35094 8.52577Q7.27921 9.12918 8.41705 9.12918ZM8.41705 7.98462Q7.61566 7.98462 6.95908 7.54082Q6.30249 7.09702 5.9124 6.33942Q5.52231 5.58182 5.52231 4.64676Q5.51254 3.73962 5.90569 3.00339Q6.29883 2.26715 6.95694 1.83044Q7.61505 1.39374 8.41705 1.39374Q9.20944 1.39374 9.86748 1.82373Q10.5255 2.25372 10.9187 2.98988Q11.3118 3.72604 11.3118 4.63318Q11.3118 5.56824 10.9184 6.32927Q10.5249 7.0903 9.86832 7.53746Q9.21173 7.98462 8.41705 7.98462Z"
                     fill="rgba(255,255,255,0.55)" />
              <path d="M19.4514 10.5466Q18.1461 10.5466 17.0113 10.835Q15.8765 11.1234 14.9409 11.6104Q15.2011 11.8039 15.4375 12.0107Q15.674 12.2176 15.8839 12.4379Q16.629 12.1028 17.5258 11.897Q18.4225 11.6911 19.4514 11.6911Q21.1736 11.6911 22.5147 12.1882Q23.8559 12.6852 24.781 13.4525Q25.706 14.2197 26.1828 15.0648Q26.6595 15.91 26.6595 16.5996Q26.6595 16.8375 26.5281 16.9294Q26.3966 17.0213 26.0622 17.0213L17.8476 17.0213Q17.8258 17.334 17.7454 17.6169Q17.6651 17.8998 17.4823 18.1659L25.7538 18.1659Q27.8685 18.1659 27.8685 16.7215Q27.8685 15.7706 27.2887 14.6987Q26.7088 13.6269 25.614 12.6816Q24.5192 11.7363 22.9633 11.1414Q21.4073 10.5466 19.4514 10.5466ZM19.4643 9.12918Q20.6052 9.12918 21.535 8.52234Q22.4648 7.9155 23.0164 6.89819Q23.568 5.88089 23.568 4.63318Q23.568 3.41354 23.0152 2.42096Q22.4625 1.42838 21.5327 0.840225Q20.6029 0.252075 19.4643 0.252075Q18.3354 0.252075 17.4026 0.846939Q16.4699 1.4418 15.9137 2.43927Q15.3575 3.43674 15.3636 4.64676Q15.3667 5.88455 15.9183 6.90346Q16.4699 7.92236 17.3981 8.52577Q18.3264 9.12918 19.4643 9.12918ZM19.4643 7.98462Q18.6696 7.98462 18.0112 7.54082Q17.3528 7.09702 16.9611 6.33942Q16.5695 5.58182 16.5695 4.64676Q16.5665 3.73962 16.9563 3.00339Q17.346 2.26715 18.009 1.83044Q18.672 1.39374 19.4643 1.39374Q20.2632 1.39374 20.9213 1.82373Q21.5794 2.25372 21.9692 2.98988Q22.359 3.72604 22.359 4.63318Q22.359 5.56824 21.9689 6.32927Q21.5788 7.0903 20.9222 7.53746Q20.2657 7.98462 19.4643 7.98462Z"
                     fill="rgba(255,255,255,0.55)" />
              <path d="M30.5145 10.5466Q29.1992 10.5466 28.063 10.8398Q26.9267 11.1331 25.9882 11.6202Q26.2483 11.8167 26.4881 12.0235Q26.7279 12.2304 26.9341 12.4544Q27.6732 12.1028 28.573 11.897Q29.4728 11.6911 30.5145 11.6911Q32.2365 11.6911 33.5777 12.1882Q34.919 12.6852 35.8406 13.4525Q36.7622 14.2197 37.2424 15.0648Q37.7226 15.91 37.7226 16.5996Q37.7226 16.8375 37.5912 16.9294Q37.4597 17.0213 37.1251 17.0213L28.8887 17.0213Q28.8669 17.334 28.7865 17.6169Q28.7062 17.8998 28.5165 18.1659L36.8169 18.1659Q38.9316 18.1659 38.9316 16.7215Q38.9316 15.7706 38.3517 14.6987Q37.7718 13.6269 36.6755 12.6816Q35.5792 11.7363 34.0247 11.1414Q32.4702 10.5466 30.5145 10.5466ZM30.5145 9.12918Q31.6524 9.12918 32.5837 8.52234Q33.515 7.9155 34.0651 6.89819Q34.6152 5.88089 34.6152 4.63318Q34.6152 3.41354 34.0623 2.42096Q33.5095 1.42838 32.5797 0.840225Q31.6499 0.252075 30.5145 0.252075Q29.3826 0.252075 28.4498 0.846939Q27.5169 1.4418 26.9624 2.43927Q26.4078 3.43674 26.4107 4.64676Q26.4204 5.88455 26.9687 6.90346Q27.5169 7.92236 28.4452 8.52577Q29.3735 9.12918 30.5145 9.12918ZM30.5145 7.98462Q29.7198 7.98462 29.0633 7.54082Q28.4067 7.09702 28.0132 6.33942Q27.6198 5.58182 27.6198 4.64676Q27.6137 3.73962 28.0068 3.00339Q28.4 2.26715 29.0595 1.83044Q29.7191 1.39374 30.5145 1.39374Q31.3135 1.39374 31.9701 1.82373Q32.6266 2.25372 33.0179 2.98988Q33.4091 3.72604 33.4091 4.63318Q33.4091 5.56824 33.0176 6.32927Q32.626 7.0903 31.9709 7.53746Q31.3158 7.98462 30.5145 7.98462Z"
                     fill="rgba(255,255,255,0.55)" />
       </g>
</svg>