<svg width="22.1199" height="22.4522">
       <g>
              <rect height="22.4522" opacity="0" width="22.1199" x="0" y="0" />
              <path d="M2.11777 20.3091L14.7194 20.3091Q16.8304 20.3091 16.8304 18.8647Q16.8304 17.9137 16.254 16.8419Q15.6775 15.77 14.5811 14.8247Q13.4848 13.8795 11.927 13.2846Q10.3693 12.6897 8.4201 12.6897Q6.46118 12.6897 4.90677 13.2846Q3.35236 13.8795 2.25609 14.8247Q1.15982 15.77 0.57991 16.8419Q0 17.9137 0 18.8647Q0 20.3091 2.11777 20.3091ZM1.80649 19.1645Q1.47186 19.1645 1.34041 19.0726Q1.20895 18.9806 1.20895 18.7427Q1.20895 18.0532 1.68915 17.208Q2.16934 16.3628 3.09097 15.5956Q4.0126 14.8284 5.3553 14.3313Q6.698 13.8343 8.4201 13.8343Q10.1422 13.8343 11.48 14.3313Q12.8178 14.8284 13.7428 15.5956Q14.6678 16.3628 15.1447 17.208Q15.6215 18.0532 15.6215 18.7427Q15.6215 18.9806 15.49 19.0726Q15.3586 19.1645 15.0308 19.1645ZM8.42621 11.2723Q9.56711 11.2723 10.4969 10.6655Q11.4267 10.0587 11.9783 9.04135Q12.5299 8.02405 12.5299 6.77634Q12.5299 5.5567 11.9771 4.56412Q11.4243 3.57154 10.493 2.98339Q9.56177 2.39524 8.42621 2.39524Q7.30103 2.39524 6.36635 2.9901Q5.43167 3.58496 4.87556 4.58243Q4.31946 5.5799 4.32556 6.78992Q4.33533 8.02771 4.88693 9.04662Q5.43854 10.0655 6.36681 10.6689Q7.29507 11.2723 8.42621 11.2723ZM8.42621 10.1278Q7.63153 10.1278 6.97495 9.68398Q6.31836 9.24018 5.92491 8.48258Q5.53146 7.72498 5.53146 6.78992Q5.52841 5.88278 5.92155 5.14655Q6.3147 4.41031 6.97426 3.9736Q7.63382 3.5369 8.42621 3.5369Q9.22516 3.5369 9.88327 3.96689Q10.5414 4.39688 10.9312 5.13304Q11.321 5.8692 11.321 6.77634Q11.321 7.7114 10.9309 8.47243Q10.5408 9.23346 9.88419 9.68062Q9.2276 10.1278 8.42621 10.1278Z"
                     fill="rgba(255,255,255,0.55)" />
              <path d="M15.8525 10.879Q16.0452 11.0155 16.2783 10.972Q16.5114 10.9286 16.6614 10.7119Q17.2278 9.97885 17.5603 8.95583Q17.8928 7.9328 17.8928 6.77634Q17.8928 5.62003 17.5603 4.597Q17.2278 3.57398 16.6614 2.84079Q16.5114 2.62427 16.2783 2.58269Q16.0452 2.54111 15.8525 2.67371Q15.6255 2.83042 15.5955 3.08188Q15.5655 3.33335 15.7387 3.5694Q16.2259 4.23407 16.4735 5.04111Q16.7212 5.84815 16.7212 6.77634Q16.7212 7.70468 16.4702 8.50829Q16.2192 9.31189 15.7387 9.98328Q15.5624 10.2262 15.5939 10.4728Q15.6255 10.7194 15.8525 10.879Z"
                     fill="rgba(255,255,255,0.55)" />
              <path d="M19.2781 13.4431Q19.4879 13.5862 19.7211 13.5427Q19.9542 13.4992 20.1041 13.2827Q21.0446 12.0208 21.5823 10.311Q22.1199 8.60114 22.1199 6.77634Q22.1199 4.95154 21.5856 3.235Q21.0513 1.51847 20.1041 0.270144Q19.9542 0.0536216 19.7211 0.0101341Q19.4879-0.0333535 19.2781 0.109774Q19.072 0.255953 19.042 0.490939Q19.012 0.725924 19.1815 0.961977Q20.0337 2.14026 20.4925 3.64226Q20.9512 5.14426 20.9512 6.77634Q20.9512 8.40857 20.4857 9.90721Q20.0201 11.4059 19.1815 12.5907Q19.012 12.8239 19.042 13.0604Q19.072 13.2969 19.2781 13.4431Z"
                     fill="rgba(255,255,255,0.55)" />
       </g>
</svg>