<svg width="19.5898" height="19.5996">
       <g>
              <rect height="19.5996" opacity="0" width="19.5898" x="0" y="0" />
              <path d="M9.79492 19.5996Q11.8066 19.5996 13.5791 18.833Q15.3516 18.0664 16.7041 16.7139Q18.0566 15.3613 18.8232 13.5889Q19.5898 11.8164 19.5898 9.80469Q19.5898 7.79297 18.8232 6.02051Q18.0566 4.24805 16.7041 2.89551Q15.3516 1.54297 13.5742 0.776367Q11.7969 0.00976562 9.78516 0.00976562Q7.77344 0.00976562 6.00098 0.776367Q4.22852 1.54297 2.88086 2.89551Q1.5332 4.24805 0.766602 6.02051Q0 7.79297 0 9.80469Q0 11.8164 0.766602 13.5889Q1.5332 15.3613 2.88574 16.7139Q4.23828 18.0664 6.01074 18.833Q7.7832 19.5996 9.79492 19.5996Z"
                     fill="rgba(255,255,255,0.55)" />
              <path d="M9.18945 13.916Q8.69141 13.916 8.4668 13.7598Q8.24219 13.6035 8.24219 13.2812Q8.24219 12.6562 8.74512 11.958Q9.24805 11.2598 10.1709 10.7715Q11.0938 10.2832 12.373 10.2832Q13.6328 10.2832 14.5557 10.7715Q15.4785 11.2598 15.9766 11.958Q16.4746 12.6562 16.4746 13.2812Q16.4746 13.6035 16.2598 13.7598Q16.0449 13.916 15.5273 13.916ZM12.373 9.41406Q11.582 9.41406 11.0107 8.78418Q10.4395 8.1543 10.4297 7.24609Q10.4297 6.37695 11.0059 5.75684Q11.582 5.13672 12.373 5.13672Q13.1641 5.13672 13.7354 5.74707Q14.3066 6.35742 14.3066 7.24609Q14.3066 8.1543 13.7402 8.78418Q13.1738 9.41406 12.373 9.41406ZM3.90625 13.916Q3.49609 13.916 3.31055 13.7451Q3.125 13.5742 3.125 13.2422Q3.125 12.5586 3.55957 11.8701Q3.99414 11.1816 4.7998 10.7227Q5.60547 10.2637 6.70898 10.2637Q7.42188 10.2637 7.97363 10.4639Q8.52539 10.6641 8.93555 10.9668Q8.39844 11.3965 8.06641 11.9727Q7.73438 12.5488 7.66602 13.0811Q7.59766 13.6133 7.85156 13.916ZM6.70898 9.51172Q6.01562 9.51172 5.51758 8.96973Q5.01953 8.42773 5.01953 7.63672Q5.00977 6.875 5.51758 6.33789Q6.02539 5.80078 6.70898 5.80078Q7.39258 5.80078 7.90039 6.33301Q8.4082 6.86523 8.4082 7.62695Q8.4082 8.42773 7.90527 8.96973Q7.40234 9.51172 6.70898 9.51172Z"
                     fill="#ffffff" />
       </g>
</svg>