<svg width="23.0933" height="22.5903">
       <g>
              <rect height="22.5903" opacity="0" width="23.0933" x="0" y="0" />
              <path d="M11.553 22.4869Q11.8094 22.4869 11.9642 22.3287Q12.119 22.1706 12.119 21.891L12.119 0.602722Q12.119 0.316315 11.9642 0.158157Q11.8094 0 11.553 0Q11.2802 0 11.1272 0.158157Q10.9743 0.316315 10.9743 0.602722L10.9743 21.891Q10.9743 22.1706 11.1272 22.3287Q11.2802 22.4869 11.553 22.4869ZM0.605621 11.8158L22.4876 11.8158Q22.7739 11.8158 22.9336 11.661Q23.0933 11.5062 23.0933 11.2498Q23.0933 10.977 22.9336 10.8241Q22.7739 10.6711 22.4876 10.6711L0.605621 10.6711Q0.32608 10.6711 0.16304 10.8241Q0 10.977 0 11.2498Q0 11.5062 0.16304 11.661Q0.32608 11.8158 0.605621 11.8158Z"
                     fill="rgba(255,255,255,0.55)" />
              <path d="M6.16043 17.6595L16.9328 19.5247Q17.7673 19.6725 18.3663 19.3767Q18.9653 19.0808 19.287 18.4345Q19.6086 17.7882 19.6086 16.8796L19.6086 5.61417Q19.6086 4.66492 19.2971 4.01863Q18.9856 3.37234 18.39 3.09334Q17.7943 2.81433 16.9328 2.96219L6.16043 4.83429Q4.87488 5.06088 4.17976 5.7003Q3.48465 6.33972 3.48465 7.4823L3.48465 15.0046Q3.48465 16.1435 4.17976 16.7847Q4.87488 17.426 6.16043 17.6595ZM6.11862 16.5239Q5.39505 16.4006 5.01068 16.0457Q4.62631 15.6908 4.62631 15.018L4.62631 7.46887Q4.62631 6.79611 5.01068 6.44119Q5.39505 6.08627 6.11862 5.96298L16.9746 4.09775Q17.6982 3.97461 18.0826 4.3869Q18.4669 4.79919 18.4669 5.60059L18.4669 16.893Q18.4669 17.6675 18.0759 18.09Q17.6848 18.5124 16.9746 18.3958Z"
                     fill="rgba(255,255,255,0.55)" />
       </g>
</svg>