<svg width="19.5898" height="19.5996">
       <g>
              <rect height="19.5996" opacity="0" width="19.5898" x="0" y="0" />
              <path d="M9.79492 19.5898Q11.8066 19.5898 13.5791 18.8232Q15.3516 18.0566 16.7041 16.7041Q18.0566 15.3516 18.8232 13.5791Q19.5898 11.8066 19.5898 9.79492Q19.5898 7.7832 18.8232 6.01074Q18.0566 4.23828 16.7041 2.88574Q15.3516 1.5332 13.5742 0.766602Q11.7969 0 9.78516 0Q7.77344 0 6.00098 0.766602Q4.22852 1.5332 2.88086 2.88574Q1.5332 4.23828 0.766602 6.01074Q0 7.7832 0 9.79492Q0 11.8066 0.766602 13.5791Q1.5332 15.3516 2.88574 16.7041Q4.23828 18.0566 6.01074 18.8232Q7.7832 19.5898 9.79492 19.5898Z"
                     fill="rgba(255,255,255,0.55)" />
              <path d="M9.79492 18.4473Q8.58398 18.4473 7.44629 18.1201Q6.30859 17.793 5.32715 17.207Q4.3457 16.6211 3.61328 15.8301Q4.15039 14.9805 5.08301 14.3604Q6.01562 13.7402 7.22656 13.4082Q8.4375 13.0762 9.79492 13.0762Q11.1328 13.0762 12.3438 13.4082Q13.5547 13.7402 14.4971 14.3604Q15.4395 14.9805 15.9668 15.8301Q15.2246 16.6211 14.2529 17.207Q13.2812 17.793 12.1436 18.1201Q11.0059 18.4473 9.79492 18.4473ZM9.79492 11.4062Q8.84766 11.3965 8.0957 10.9131Q7.34375 10.4297 6.9043 9.59961Q6.46484 8.76953 6.46484 7.72461Q6.45508 6.74805 6.89941 5.92773Q7.34375 5.10742 8.10547 4.61426Q8.86719 4.12109 9.79492 4.12109Q10.7129 4.12109 11.4697 4.61426Q12.2266 5.10742 12.6758 5.92773Q13.125 6.74805 13.125 7.72461Q13.125 8.76953 12.6807 9.60449Q12.2363 10.4395 11.4844 10.9229Q10.7324 11.4062 9.79492 11.4062Z"
                     fill="#ffffff" />
       </g>
</svg>