<svg width="37.7167" height="13.4071">
       <g>
              <rect height="13.4071" opacity="0" width="37.7167" x="0" y="0" />
              <path d="M7.56836 7.4448Q7.5885 7.99442 7.75444 8.51589Q7.92038 9.03736 8.26508 9.38892Q8.51364 9.63062 8.85124 9.75338Q9.18884 9.87614 9.61182 9.80472L13.2137 9.18354Q13.9418 9.06559 14.3068 8.7067Q14.545 8.48133 14.6435 8.13282Q14.742 7.78431 14.7449 7.3064L14.7607 6.32084Q14.7607 6.11942 14.9139 5.9528Q14.9792 5.87086 15.0727 5.82844Q15.1662 5.78602 15.2473 5.76343Q15.7182 5.63724 16.6711 5.52593Q17.6239 5.41462 18.8583 5.41462Q20.0928 5.41462 21.0456 5.52593Q21.9984 5.63724 22.4692 5.76343Q22.5504 5.78602 22.6438 5.82844Q22.7373 5.87086 22.8056 5.9528Q22.9657 6.11942 22.9657 6.32084L22.9747 7.3064Q22.9778 7.78431 23.0762 8.13282Q23.1747 8.48133 23.4128 8.7067Q23.7778 9.06559 24.5029 9.18354L28.1049 9.80472Q28.5307 9.87614 28.8668 9.75338Q29.2029 9.63062 29.4514 9.38892Q29.803 9.03736 29.967 8.51589Q30.1311 7.99442 30.1483 7.4448Q30.1819 6.46152 29.8469 5.64121Q29.5119 4.8209 28.8319 4.14783Q27.8456 3.15464 26.2863 2.5214Q24.727 1.88816 22.8159 1.58359Q20.9048 1.27903 18.8583 1.27598Q16.8149 1.27903 14.9072 1.58359Q12.9994 1.88816 11.4401 2.5214Q9.88083 3.15464 8.88474 4.14783Q8.21152 4.8209 7.8746 5.64121Q7.53769 6.46152 7.56836 7.4448Z"
                     fill="rgba(255,255,255,0.55)" />
              <path d="M3.85239 6.69865Q3.85239 7.75165 4.20853 8.70129Q4.56467 9.65092 5.21454 10.4027Q5.41092 10.6499 5.69763 10.6563Q5.98434 10.6627 6.17096 10.4529Q6.34781 10.2527 6.30096 10.0065Q6.25412 9.76032 6.06812 9.52946Q5.56213 8.97953 5.317 8.24566Q5.07187 7.51179 5.07187 6.69865Q5.07187 5.87879 5.32036 5.14484Q5.56885 4.4109 6.06812 3.86784Q6.25412 3.6272 6.30096 3.38589Q6.34781 3.14457 6.17096 2.94437Q5.98434 2.73456 5.69763 2.73945Q5.41092 2.74433 5.21454 2.99457Q4.56467 3.74332 4.20853 4.69448Q3.85239 5.64564 3.85239 6.69865ZM33.8739 6.69865Q33.8739 5.64564 33.5163 4.69448Q33.1587 3.74332 32.505 2.99457Q32.3087 2.74433 32.022 2.73945Q31.7354 2.73456 31.5488 2.94437Q31.3689 3.14457 31.4172 3.38589Q31.4656 3.6272 31.6484 3.86784Q32.1545 4.41776 32.403 5.15163Q32.6515 5.8855 32.6515 6.69865Q32.6515 7.51179 32.403 8.24566Q32.1545 8.97953 31.6484 9.52946Q31.4656 9.76032 31.4172 10.0065Q31.3689 10.2527 31.5488 10.4529Q31.7354 10.6627 32.022 10.6563Q32.3087 10.6499 32.505 10.4027Q33.1587 9.65092 33.5163 8.70129Q33.8739 7.75165 33.8739 6.69865Z"
                     fill="rgba(255,255,255,0.55)" />
              <path d="M0 6.69865Q0 8.55991 0.668259 10.2171Q1.33652 11.8743 2.54517 13.1569Q2.76169 13.384 3.0349 13.3922Q3.30811 13.4005 3.48801 13.1937Q3.66486 12.9935 3.62328 12.7439Q3.5817 12.4944 3.3815 12.2704Q2.34985 11.1675 1.78467 9.74041Q1.21948 8.31333 1.21948 6.69865Q1.21948 5.0742 1.78467 3.652Q2.34985 2.2298 3.3815 1.1269Q3.5817 0.899848 3.62328 0.651817Q3.66486 0.403785 3.48801 0.20359Q3.30811-0.00621874 3.0349 0.000189954Q2.76169 0.00659865 2.54517 0.240363Q1.33652 1.51325 0.668259 3.17532Q0 4.83738 0 6.69865ZM37.7167 6.69865Q37.7167 4.83738 37.0499 3.17532Q36.3831 1.51325 35.1782 0.240363Q34.9646 0.00659865 34.6866 0.000189954Q34.4086-0.00621874 34.2287 0.20359Q34.0518 0.403785 34.0949 0.651817Q34.138 0.899848 34.335 1.1269Q35.3699 2.2298 35.9335 3.652Q36.4972 5.0742 36.4972 6.69865Q36.4972 8.31333 35.9335 9.74041Q35.3699 11.1675 34.335 12.2704Q34.138 12.4944 34.0949 12.7439Q34.0518 12.9935 34.2287 13.1937Q34.4086 13.4005 34.6866 13.3922Q34.9646 13.384 35.1782 13.1569Q36.3831 11.8743 37.0499 10.2171Q37.7167 8.55991 37.7167 6.69865Z"
                     fill="rgba(255,255,255,0.55)" />
       </g>
</svg>