<svg width="19.5898" height="19.5996">
       <g>
              <rect height="19.5996" opacity="0" width="19.5898" x="0" y="0" />
              <path d="M9.79492 19.5996Q11.8066 19.5996 13.5791 18.833Q15.3516 18.0664 16.7041 16.7139Q18.0566 15.3613 18.8232 13.5889Q19.5898 11.8164 19.5898 9.80469Q19.5898 7.79297 18.8232 6.02051Q18.0566 4.24805 16.7041 2.89551Q15.3516 1.54297 13.5742 0.776367Q11.7969 0.00976562 9.78516 0.00976562Q7.77344 0.00976562 6.00098 0.776367Q4.22852 1.54297 2.88086 2.89551Q1.5332 4.24805 0.766602 6.02051Q0 7.79297 0 9.80469Q0 11.8164 0.766602 13.5889Q1.5332 15.3613 2.88574 16.7139Q4.23828 18.0664 6.01074 18.833Q7.7832 19.5996 9.79492 19.5996Z"
                     fill="rgba(255,255,255,0.55)" />
              <path d="M6.65039 13.0078Q5.79102 12.1484 5.11719 11.1816Q4.44336 10.2148 4.09668 9.25293Q3.75 8.29102 3.84766 7.41699Q3.94531 6.54297 4.61914 5.87891Q4.64844 5.84961 4.67773 5.81543Q4.70703 5.78125 4.74609 5.75195Q5.04883 5.54688 5.35156 5.41504Q5.6543 5.2832 5.93262 5.33203Q6.21094 5.38086 6.42578 5.69336L7.68555 7.48047Q7.96875 7.88086 7.93457 8.20312Q7.90039 8.52539 7.54883 8.89648L7.14844 9.3457Q7.05078 9.43359 7.06055 9.5459Q7.07031 9.6582 7.12891 9.74609Q7.26562 10 7.59766 10.4297Q7.92969 10.8594 8.36914 11.2988Q8.80859 11.7383 9.2334 12.0654Q9.6582 12.3926 9.91211 12.5391Q10.0195 12.6074 10.1465 12.6123Q10.2734 12.6172 10.3516 12.5195L10.7715 12.1191Q11.123 11.7676 11.4551 11.7285Q11.7871 11.6895 12.1777 11.9727Q12.7441 12.3535 13.0908 12.5879Q13.4375 12.8223 13.6523 12.9785Q13.8672 13.1348 14.0332 13.2715Q14.4238 13.5938 14.3701 14.0332Q14.3164 14.4727 13.9355 14.8926Q13.8965 14.9414 13.8623 14.9756Q13.8281 15.0098 13.7891 15.0488Q13.1152 15.7227 12.251 15.8203Q11.3867 15.918 10.415 15.5664Q9.44336 15.2148 8.47656 14.541Q7.50977 13.8672 6.65039 13.0078ZM10.2148 9.92188Q10.0195 9.92188 9.89746 9.80957Q9.77539 9.69727 9.77539 9.51172Q9.77539 9.32617 9.91211 9.18945L12.5781 6.52344L13.3008 5.83008L11.875 5.88867L10.7617 5.88867Q10.5762 5.88867 10.4541 5.77148Q10.332 5.6543 10.3223 5.47852Q10.3223 5.30273 10.4541 5.16602Q10.5859 5.0293 10.7617 5.0293L14.2188 5.0293Q14.4238 5.0293 14.5459 5.15137Q14.668 5.27344 14.668 5.47852L14.668 8.89648Q14.668 9.0918 14.541 9.21875Q14.4141 9.3457 14.2188 9.3457Q14.043 9.32617 13.9307 9.2041Q13.8184 9.08203 13.8184 8.89648L13.8184 7.8418L13.8672 6.39648L13.1738 7.12891L10.5176 9.81445Q10.459 9.86328 10.376 9.89258Q10.293 9.92188 10.2148 9.92188Z"
                     fill="#ffffff" />
       </g>
</svg>