<svg width="19.5898" height="19.5996">
       <g>
              <rect height="19.5996" opacity="0" width="19.5898" x="0" y="0" />
              <path d="M9.79492 19.5996Q11.8066 19.5996 13.5791 18.833Q15.3516 18.0664 16.7041 16.7139Q18.0566 15.3613 18.8232 13.5889Q19.5898 11.8164 19.5898 9.80469Q19.5898 7.79297 18.8232 6.02051Q18.0566 4.24805 16.7041 2.89551Q15.3516 1.54297 13.5742 0.776367Q11.7969 0.00976562 9.78516 0.00976562Q7.77344 0.00976562 6.00098 0.776367Q4.22852 1.54297 2.88086 2.89551Q1.5332 4.24805 0.766602 6.02051Q0 7.79297 0 9.80469Q0 11.8164 0.766602 13.5889Q1.5332 15.3613 2.88574 16.7139Q4.23828 18.0664 6.01074 18.833Q7.7832 19.5996 9.79492 19.5996Z"
                     fill="#32d74b" />
              <path d="M7.25586 12.1973Q6.38672 11.3281 5.71777 10.3662Q5.04883 9.4043 4.70215 8.4375Q4.35547 7.4707 4.44824 6.60156Q4.54102 5.73242 5.21484 5.05859Q5.23438 5.0293 5.26855 4.99512Q5.30273 4.96094 5.35156 4.94141Q5.6543 4.72656 5.95703 4.59961Q6.25977 4.47266 6.5332 4.5166Q6.80664 4.56055 7.03125 4.87305L8.29102 6.66992Q8.57422 7.05078 8.54004 7.37793Q8.50586 7.70508 8.14453 8.08594L7.75391 8.52539Q7.65625 8.62305 7.66602 8.73047Q7.67578 8.83789 7.72461 8.93555Q7.86133 9.18945 8.19824 9.61426Q8.53516 10.0391 8.96484 10.4688Q9.41406 10.918 9.83398 11.2451Q10.2539 11.5723 10.5078 11.7285Q10.6152 11.7871 10.7422 11.7871Q10.8691 11.7871 10.957 11.709L11.3672 11.2988Q11.7188 10.9473 12.0508 10.9082Q12.3828 10.8691 12.7832 11.1426Q13.3398 11.5332 13.6865 11.7773Q14.0332 12.0215 14.2529 12.1729Q14.4727 12.3242 14.6387 12.4512Q15.0293 12.7734 14.9756 13.2178Q14.9219 13.6621 14.5312 14.082Q14.4922 14.1211 14.4629 14.1602Q14.4336 14.1992 14.3945 14.2383Q13.7207 14.9121 12.8516 15.0049Q11.9824 15.0977 11.0156 14.7461Q10.0488 14.3945 9.08203 13.7256Q8.11523 13.0566 7.25586 12.1973Z"
                     fill="#ffffff" />
       </g>
</svg>