<svg width="22.5993" height="8.62321">
       <g>
              <rect height="8.62321" opacity="0" width="22.5993" x="0" y="0" />
              <path d="M11.2931 0.0696613Q9.2496 0.0727131 7.33852 0.377279Q5.42743 0.681844 3.86813 1.31516Q2.30884 1.94848 1.31946 2.9348Q0.639527 3.61458 0.304444 4.43154Q-0.0306385 5.24849 0.00308339 6.22872Q0.0233776 6.78521 0.185884 7.30813Q0.34839 7.83104 0.699952 8.17589Q0.948365 8.42446 1.28597 8.54569Q1.62357 8.66692 2.04654 8.59856L5.64838 7.97417Q6.37653 7.85256 6.74152 7.49062Q6.97666 7.2683 7.07668 6.91979Q7.1767 6.57128 7.1796 6.10024L7.1857 5.10476Q7.1857 4.90334 7.34866 4.73671Q7.41397 4.65783 7.50743 4.61541Q7.60089 4.57299 7.68207 4.5504Q8.15296 4.42421 9.10579 4.31481Q10.0586 4.2054 11.2961 4.2054Q12.5305 4.2054 13.48 4.30199Q14.4295 4.39858 14.91 4.56017Q14.9881 4.58581 15.0718 4.62525Q15.1555 4.66469 15.2246 4.73366Q15.362 4.87786 15.3748 5.08294L15.4027 6.10024Q15.4186 6.57128 15.5201 6.91826Q15.6215 7.26525 15.8469 7.49062Q16.0324 7.67922 16.3088 7.79709Q16.5851 7.91497 16.9498 7.97417L20.4453 8.57369Q20.887 8.65471 21.2548 8.52074Q21.6225 8.38677 21.8998 8.11333Q22.5786 7.43264 22.5988 6.19484Q22.6123 5.21447 22.2528 4.40362Q21.8933 3.59276 21.2354 2.9348Q20.2521 1.94161 18.698 1.30684Q17.1439 0.672078 15.2413 0.369344Q13.3388 0.0666096 11.2931 0.0696613Z"
                     fill="#ff453a" />
       </g>
</svg>