<svg width="19.5898" height="19.5996">
       <g>
              <rect height="19.5996" opacity="0" width="19.5898" x="0" y="0" />
              <path d="M9.79492 19.5898Q11.8066 19.5898 13.5791 18.8232Q15.3516 18.0566 16.7041 16.7041Q18.0566 15.3516 18.8232 13.5791Q19.5898 11.8066 19.5898 9.79492Q19.5898 7.7832 18.8232 6.01074Q18.0566 4.23828 16.7041 2.88574Q15.3516 1.5332 13.5742 0.766602Q11.7969 0 9.78516 0Q7.77344 0 6.00098 0.766602Q4.22852 1.5332 2.88086 2.88574Q1.5332 4.23828 0.766602 6.01074Q0 7.7832 0 9.79492Q0 11.8066 0.766602 13.5791Q1.5332 15.3516 2.88574 16.7041Q4.23828 18.0566 6.01074 18.8232Q7.7832 19.5898 9.79492 19.5898ZM9.79492 18.3203Q8.02734 18.3203 6.47949 17.6611Q4.93164 17.002 3.75977 15.8301Q2.58789 14.6582 1.92871 13.1104Q1.26953 11.5625 1.26953 9.79492Q1.26953 8.02734 1.92871 6.47949Q2.58789 4.93164 3.75977 3.75488Q4.93164 2.57812 6.47461 1.91895Q8.01758 1.25977 9.78516 1.25977Q11.5625 1.25977 13.1104 1.91895Q14.6582 2.57812 15.8301 3.75488Q17.002 4.93164 17.666 6.47949Q18.3301 8.02734 18.3301 9.79492Q18.3301 11.5625 17.666 13.1104Q17.002 14.6582 15.8301 15.8301Q14.6582 17.002 13.1152 17.6611Q11.5723 18.3203 9.79492 18.3203Z"
                     fill="#32d74b" />
              <path d="M7.28516 12.1289Q8.125 12.9688 9.07227 13.6279Q10.0195 14.2871 10.9668 14.6289Q11.9141 14.9707 12.7686 14.8779Q13.623 14.7852 14.2871 14.1211Q14.3262 14.082 14.3555 14.0479Q14.3848 14.0137 14.4141 13.9746Q14.7949 13.5645 14.8486 13.1299Q14.9023 12.6953 14.5215 12.3828Q14.3555 12.2461 14.1455 12.0996Q13.9355 11.9531 13.5938 11.7188Q13.252 11.4844 12.6953 11.1035Q12.3145 10.8301 11.9922 10.8691Q11.6699 10.9082 11.3184 11.25L10.918 11.6504Q10.8301 11.7285 10.708 11.7285Q10.5859 11.7285 10.4785 11.6699Q10.2246 11.5234 9.80957 11.2012Q9.39453 10.8789 8.96484 10.4395Q8.53516 10.0195 8.20801 9.59961Q7.88086 9.17969 7.74414 8.93555Q7.69531 8.83789 7.68555 8.73047Q7.67578 8.62305 7.76367 8.52539L8.16406 8.10547Q8.51562 7.72461 8.54492 7.40723Q8.57422 7.08984 8.30078 6.70898L7.06055 4.95117Q6.85547 4.64844 6.58203 4.59961Q6.30859 4.55078 6.01074 4.67773Q5.71289 4.80469 5.41992 5.01953Q5.37109 5.03906 5.3418 5.07324Q5.3125 5.10742 5.2832 5.12695Q4.62891 5.80078 4.53613 6.65039Q4.44336 7.5 4.78027 8.44238Q5.11719 9.38477 5.78125 10.332Q6.44531 11.2793 7.28516 12.1289Z"
                     fill="#32d74b" />
       </g>
</svg>