<svg width="17.8754" height="18.3292">
       <g>
              <rect height="18.3292" opacity="0" width="17.8754" x="0" y="0" />
              <path d="M4.83383 13.4746Q6.19156 14.8293 7.71927 15.9303Q9.24698 17.0314 10.7913 17.6803Q12.3357 18.3292 13.7321 18.3292Q14.6915 18.3292 15.5118 17.9874Q16.3321 17.6456 17.0084 16.9284Q17.3778 16.5289 17.6266 16.0403Q17.8754 15.5518 17.8754 15.0537Q17.8754 14.7037 17.7274 14.3804Q17.5793 14.0572 17.2247 13.81L14.2358 11.7023Q13.9365 11.4922 13.6601 11.3825Q13.3838 11.2729 13.1201 11.2729Q12.8001 11.2729 12.4816 11.4429Q12.1631 11.613 11.825 11.9481L11.1165 12.6347Q10.97 12.7879 10.7484 12.7879Q10.6433 12.7879 10.5469 12.7549Q10.4504 12.7219 10.376 12.6895Q9.94125 12.4606 9.21928 11.8812Q8.49731 11.3017 7.7504 10.555Q7.01019 9.8111 6.42593 9.0921Q5.84167 8.37311 5.62546 7.93304Q5.5864 7.85187 5.55832 7.75841Q5.53024 7.66495 5.53024 7.57263Q5.53024 7.36694 5.67368 7.22351L6.36703 6.48636Q6.69235 6.14227 6.86424 5.82367Q7.03613 5.50507 7.03613 5.18219Q7.03613 4.91852 6.92314 4.64218Q6.81015 4.36584 6.59027 4.06036L4.54514 1.16196Q4.28513 0.801239 3.93509 0.635605Q3.58505 0.469971 3.20053 0.469971Q2.22794 0.469971 1.34598 1.33163Q0.645142 2.01523 0.322571 2.84042Q0 3.66562 0 4.59717Q0 5.99731 0.642166 7.53151Q1.28433 9.0657 2.37862 10.5897Q3.4729 12.1136 4.83383 13.4746Z"
                     fill="#32d74b" />
       </g>
</svg>