<svg width="18.5416" height="18.5873">
       <g>
              <rect height="18.5873" opacity="0" width="18.5416" x="0" y="0" />
              <path d="M13.8208 18.5873Q14.9942 18.5873 15.882 18.2362Q16.7699 17.8851 17.5121 17.0787Q17.5555 17.0322 17.5971 16.9853Q17.6387 16.9385 17.6822 16.895Q18.1216 16.4249 18.3316 15.9476Q18.5416 15.4703 18.5416 15.0233Q18.5416 14.5474 18.2714 14.1073Q18.0013 13.6671 17.4408 13.2845L14.6141 11.3361Q14.0114 10.9232 13.3292 10.9119Q12.6471 10.9006 12.0137 11.5242L11.3011 12.2278Q11.1382 12.3907 10.9641 12.4178Q10.7899 12.4449 10.5907 12.3285Q10.3482 12.1866 9.94293 11.8697Q9.53766 11.5529 9.07394 11.1468Q8.61023 10.7407 8.19443 10.3249Q7.73788 9.87137 7.37389 9.47014Q7.00989 9.06891 6.73019 8.70567Q6.4505 8.34244 6.24908 7.99667Q6.14243 7.79739 6.16951 7.62329Q6.19659 7.44919 6.35956 7.28622L7.05643 6.57364Q7.68677 5.93719 7.67395 5.25505Q7.66113 4.57291 7.25128 3.97324L5.29984 1.14349Q4.91043 0.58609 4.47517 0.320816Q4.03992 0.055542 3.564 0.0457764Q2.64221 0.0262451 1.6893 0.905151Q1.64581 0.951691 1.59897 0.990295Q1.55212 1.0289 1.50864 1.06857Q0.714874 1.80161 0.357437 2.68799Q0 3.57437 0 4.7319Q0 6.10107 0.569077 7.62123Q1.13815 9.14139 2.21191 10.7114Q3.28568 12.2813 4.79736 13.79Q6.3031 15.2858 7.86514 16.3611Q9.42719 17.4364 10.9394 18.0119Q12.4516 18.5873 13.8208 18.5873ZM13.8275 17.4043Q12.5873 17.4216 11.1812 16.8499Q9.77509 16.2782 8.36143 15.2757Q6.94778 14.2732 5.6601 12.9953Q4.37546 11.7076 3.35426 10.2673Q2.33307 8.82706 1.74942 7.40257Q1.16577 5.97809 1.1763 4.73495Q1.18973 3.91525 1.47598 3.2093Q1.76224 2.50336 2.35657 1.96289Q2.39319 1.92322 2.42958 1.89507Q2.46597 1.86691 2.50275 1.83395Q2.76901 1.58783 3.03787 1.46103Q3.30673 1.33423 3.54889 1.33423Q4.02969 1.33423 4.32602 1.78619L6.22055 4.60983Q6.40091 4.88358 6.4006 5.18372Q6.4003 5.48386 6.10001 5.7811L5.30121 6.57684Q4.85992 7.00836 4.84634 7.53189Q4.83276 8.05542 5.13718 8.49518Q5.48752 9.01016 6.10931 9.73351Q6.73111 10.4568 7.39746 11.1224Q7.84119 11.5692 8.33366 12.0151Q8.82614 12.4609 9.28535 12.8366Q9.74457 13.2123 10.0891 13.4502Q10.5289 13.7479 11.0506 13.7376Q11.5723 13.7274 12.0074 13.2861L12.8032 12.4873Q13.1035 12.1803 13.4036 12.1819Q13.7038 12.1834 13.9775 12.3601L16.8011 14.2546Q17.0341 14.4162 17.1436 14.6124Q17.253 14.8085 17.253 15.0385Q17.253 15.5446 16.7474 16.0876Q16.7174 16.1273 16.6908 16.1607Q16.6641 16.194 16.6245 16.2308Q16.0779 16.8282 15.3671 17.1129Q14.6562 17.3976 13.8275 17.4043Z"
                     fill="#32d74b" />
       </g>
</svg>