<svg width="23.0243" height="9.51569">
       <g>
              <rect height="9.51569" opacity="0" width="23.0243" x="0" y="0" />
              <path d="M0 7.40036Q0 7.9129 0.188293 8.39745Q0.376587 8.88199 0.766602 9.19884Q1.15662 9.51569 1.77185 9.51569Q1.92032 9.51569 2.15286 9.49768Q2.38541 9.47968 2.78137 9.40536L6.12946 8.86047Q7.03659 8.71933 7.41859 8.27637Q7.8006 7.8334 7.8067 6.91238Q7.8096 6.64124 7.81448 6.37871Q7.81937 6.11618 7.82242 5.84885Q7.82852 5.45761 8.21411 5.34546Q8.78143 5.19501 9.65912 5.11787Q10.5368 5.04074 11.5121 5.04074Q12.4875 5.04074 13.3652 5.11787Q14.2429 5.19501 14.8102 5.34546Q15.1958 5.45761 15.2019 5.84885Q15.2116 6.11618 15.2116 6.37871Q15.2116 6.64124 15.2147 6.91238Q15.2206 7.8334 15.6042 8.27637Q15.9879 8.71933 16.8948 8.86047L20.2429 9.40536Q20.6389 9.47968 20.8714 9.49768Q21.104 9.51569 21.2526 9.51569Q21.8678 9.51569 22.2578 9.19884Q22.6477 8.88199 22.836 8.39745Q23.0243 7.9129 23.0243 7.40036Q23.0243 7.2406 23.0243 7.08282Q23.0243 6.92505 23.0243 6.77216Q23.0243 5.43518 22.4345 4.37813Q21.8448 3.32108 20.7773 2.54074Q19.7098 1.76041 18.2658 1.2442Q16.8217 0.727997 15.1073 0.471191Q13.3929 0.214386 11.5106 0.211334Q9.6315 0.214386 7.91702 0.471191Q6.20255 0.727997 4.757 1.2442Q3.31146 1.76041 2.24403 2.54074Q1.17661 3.32108 0.588303 4.37813Q0 5.43518 0 6.77216Q0 6.92505 0 7.08282Q0 7.2406 0 7.40036ZM1.23093 7.24167Q1.23093 7.13959 1.23093 7.02774Q1.23093 6.91589 1.23093 6.81396Q1.23093 5.63828 1.8 4.74174Q2.36908 3.84521 3.36899 3.20473Q4.3689 2.56424 5.6768 2.15477Q6.98471 1.7453 8.47885 1.55212Q9.97299 1.35895 11.5106 1.35895Q13.0513 1.35895 14.5454 1.55212Q16.0396 1.7453 17.3475 2.15477Q18.6554 2.56424 19.6572 3.20473Q20.659 3.84521 21.2263 4.74174Q21.7935 5.63828 21.7935 6.81396Q21.7935 6.91589 21.7935 7.02774Q21.7935 7.13959 21.7935 7.24167Q21.7935 7.46689 21.7214 7.72949Q21.6493 7.9921 21.4745 8.1781Q21.2997 8.36411 20.9921 8.36411Q20.8937 8.36411 20.7671 8.34946Q20.6406 8.33481 20.3841 8.28659L17.1542 7.67746Q16.8587 7.61658 16.6505 7.41676Q16.4424 7.21695 16.4424 6.77078Q16.4424 6.48621 16.4424 6.19827Q16.4424 5.91034 16.4424 5.62881Q16.4424 4.95758 16.1759 4.64645Q15.9094 4.33533 15.574 4.24301Q15.1265 4.10629 14.3098 4.02664Q13.4932 3.94699 12.5019 3.91769Q11.5106 3.8884 10.5209 3.91769Q9.5311 3.94699 8.71445 4.02664Q7.8978 4.10629 7.45026 4.24301Q7.11487 4.33533 6.84837 4.64645Q6.58188 4.95758 6.58188 5.62881Q6.58188 5.91034 6.58188 6.19827Q6.58188 6.48621 6.58188 6.77078Q6.58188 7.21695 6.37383 7.41676Q6.16577 7.61658 5.86716 7.67746L2.64038 8.28659Q2.38373 8.33481 2.25716 8.34946Q2.13058 8.36411 2.02927 8.36411Q1.72455 8.36411 1.54976 8.1781Q1.37497 7.9921 1.30295 7.72949Q1.23093 7.46689 1.23093 7.24167Z"
                     fill="#ff453a" />
       </g>
</svg>