<svg width="19.834" height="19.7559">
       <g>
              <rect height="19.7559" opacity="0" width="19.834" x="0" y="0" />
              <path d="M13.8184 19.1699Q14.9902 19.1699 15.8789 18.8184Q16.7676 18.4668 17.5098 17.666Q17.5586 17.6172 17.5977 17.5684Q17.6367 17.5195 17.6855 17.4805Q18.125 17.0117 18.335 16.5332Q18.5449 16.0547 18.5449 15.6055Q18.5449 15.127 18.2715 14.6875Q17.998 14.248 17.4414 13.8672L14.6094 11.9238Q14.0137 11.5039 13.3301 11.4941Q12.6465 11.4844 12.0117 12.1094L11.2988 12.8125Q11.1426 12.9785 10.9668 13.0029Q10.791 13.0273 10.5859 12.9102Q10.3516 12.7734 9.94629 12.4561Q9.54102 12.1387 9.07715 11.7334Q8.61328 11.3281 8.19336 10.9082Q7.73438 10.459 7.36816 10.0537Q7.00195 9.64844 6.72363 9.28711Q6.44531 8.92578 6.25 8.58398Q6.14258 8.37891 6.17188 8.20801Q6.20117 8.03711 6.35742 7.87109L7.06055 7.1582Q7.68555 6.52344 7.67578 5.83984Q7.66602 5.15625 7.25586 4.56055L5.29297 1.72852Q4.91211 1.17188 4.47754 0.908203Q4.04297 0.644531 3.56445 0.634766Q2.63672 0.615234 1.68945 1.49414Q1.64062 1.5332 1.59668 1.57227Q1.55273 1.61133 1.50391 1.65039Q0.712891 2.38281 0.356445 3.27148Q0 4.16016 0 5.3125Q0 6.68945 0.571289 8.20801Q1.14258 9.72656 2.21191 11.2939Q3.28125 12.8613 4.79492 14.375Q6.29883 15.8691 7.86133 16.9434Q9.42383 18.0176 10.9375 18.5938Q12.4512 19.1699 13.8184 19.1699ZM13.8281 17.9883Q12.5781 18.0078 11.1768 17.4365Q9.77539 16.8652 8.35449 15.8594Q6.93359 14.8535 5.66406 13.584Q4.375 12.2949 3.35449 10.8545Q2.33398 9.41406 1.74805 7.98828Q1.16211 6.5625 1.17188 5.32227Q1.19141 4.50195 1.47461 3.79395Q1.75781 3.08594 2.35352 2.54883Q2.39258 2.50977 2.42676 2.48047Q2.46094 2.45117 2.5 2.42188Q2.77344 2.16797 3.04199 2.04102Q3.31055 1.91406 3.53516 1.91406Q4.02344 1.91406 4.32617 2.37305L6.2207 5.19531Q6.39648 5.46875 6.39648 5.7666Q6.39648 6.06445 6.10352 6.36719L5.30273 7.1582Q4.86328 7.58789 4.84863 8.11523Q4.83398 8.64258 5.13672 9.08203Q5.48828 9.58984 6.1084 10.3174Q6.72852 11.0449 7.39258 11.709Q7.8418 12.1582 8.33496 12.6025Q8.82812 13.0469 9.28711 13.4229Q9.74609 13.7988 10.0781 14.0332Q10.5273 14.3359 11.0498 14.3262Q11.5723 14.3164 12.0117 13.8672L12.8027 13.0762Q13.0957 12.7637 13.3984 12.7637Q13.7012 12.7637 13.9648 12.9492L16.7969 14.8438Q17.0312 15 17.1387 15.1953Q17.2461 15.3906 17.2461 15.625Q17.2461 16.1328 16.7383 16.6699Q16.709 16.709 16.6797 16.7432Q16.6504 16.7773 16.6211 16.8164Q16.0742 17.4121 15.3662 17.6953Q14.6582 17.9785 13.8281 17.9883Z"
                     fill="rgba(255,255,255,0.55)" />
              <path d="M10.5859 6.01562Q10.791 6.01562 10.9277 5.88379Q11.0645 5.75195 11.0645 5.56641L11.0645 3.73047Q11.0645 3.52539 10.9277 3.39355Q10.791 3.26172 10.5859 3.26172Q10.4004 3.26172 10.2686 3.39355Q10.1367 3.52539 10.1367 3.73047L10.1367 5.56641Q10.1367 5.75195 10.2686 5.88379Q10.4004 6.01562 10.5859 6.01562Z"
                     fill="rgba(255,255,255,0.55)" />
              <path d="M12.793 7.62695Q12.9883 7.62695 13.1201 7.49512Q13.252 7.36328 13.252 7.1582L13.252 2.11914Q13.252 1.92383 13.1201 1.78711Q12.9883 1.65039 12.793 1.65039Q12.5977 1.65039 12.4609 1.78711Q12.3242 1.92383 12.3242 2.11914L12.3242 7.1582Q12.3242 7.36328 12.4609 7.49512Q12.5977 7.62695 12.793 7.62695Z"
                     fill="rgba(255,255,255,0.55)" />
              <path d="M14.9805 9.28711Q15.1758 9.28711 15.3125 9.16016Q15.4492 9.0332 15.4492 8.83789L15.4492 0.46875Q15.4492 0.263672 15.3125 0.131836Q15.1758 0 14.9805 0Q14.7949 0 14.6582 0.131836Q14.5215 0.263672 14.5215 0.46875L14.5215 8.83789Q14.5215 9.0332 14.6533 9.16016Q14.7852 9.28711 14.9805 9.28711Z"
                     fill="rgba(255,255,255,0.55)" />
              <path d="M17.1777 8.29102Q17.373 8.29102 17.5049 8.1543Q17.6367 8.01758 17.6367 7.82227L17.6367 1.45508Q17.6367 1.25977 17.5049 1.13281Q17.373 1.00586 17.1777 1.00586Q16.9824 1.00586 16.8506 1.13281Q16.7188 1.25977 16.7188 1.45508L16.7188 7.82227Q16.7188 8.01758 16.8506 8.1543Q16.9824 8.29102 17.1777 8.29102Z"
                     fill="rgba(255,255,255,0.55)" />
              <path d="M19.375 6.55273Q19.5703 6.55273 19.7021 6.4209Q19.834 6.28906 19.834 6.09375L19.834 3.19336Q19.834 2.99805 19.7021 2.86621Q19.5703 2.73438 19.375 2.73438Q19.1797 2.73438 19.0479 2.86621Q18.916 2.99805 18.916 3.19336L18.916 6.09375Q18.916 6.28906 19.0479 6.4209Q19.1797 6.55273 19.375 6.55273Z"
                     fill="rgba(255,255,255,0.165)" />
       </g>
</svg>