<svg width="19.5898" height="19.5996">
       <g>
              <rect height="19.5996" opacity="0" width="19.5898" x="0" y="0" />
              <path d="M9.79492 19.5898Q11.8066 19.5898 13.5791 18.8232Q15.3516 18.0566 16.7041 16.7041Q18.0566 15.3516 18.8232 13.5791Q19.5898 11.8066 19.5898 9.79492Q19.5898 7.7832 18.8232 6.01074Q18.0566 4.23828 16.7041 2.88574Q15.3516 1.5332 13.5742 0.766602Q11.7969 0 9.78516 0Q7.77344 0 6.00098 0.766602Q4.22852 1.5332 2.88086 2.88574Q1.5332 4.23828 0.766602 6.01074Q0 7.7832 0 9.79492Q0 11.8066 0.766602 13.5791Q1.5332 15.3516 2.88574 16.7041Q4.23828 18.0566 6.01074 18.8232Q7.7832 19.5898 9.79492 19.5898ZM9.79492 18.3203Q8.02734 18.3203 6.47949 17.6611Q4.93164 17.002 3.75977 15.8301Q2.58789 14.6582 1.92871 13.1104Q1.26953 11.5625 1.26953 9.79492Q1.26953 8.02734 1.92871 6.47949Q2.58789 4.93164 3.75977 3.75488Q4.93164 2.57812 6.47461 1.91895Q8.01758 1.25977 9.78516 1.25977Q11.5625 1.25977 13.1104 1.91895Q14.6582 2.57812 15.8301 3.75488Q17.002 4.93164 17.666 6.47949Q18.3301 8.02734 18.3301 9.79492Q18.3301 11.5625 17.666 13.1104Q17.002 14.6582 15.8301 15.8301Q14.6582 17.002 13.1152 17.6611Q11.5723 18.3203 9.79492 18.3203Z"
                     fill="#ff453a" />
              <path d="M3.17383 10.7129Q3.17383 11.0156 3.27637 11.3037Q3.37891 11.5918 3.61328 11.7822Q3.84766 11.9727 4.24805 11.9727Q4.66797 11.9727 5.18555 11.9189Q5.70312 11.8652 6.52344 11.6113Q6.95312 11.4746 7.17773 11.2305Q7.40234 10.9863 7.41211 10.459L7.42188 9.85352Q7.42188 9.66797 7.65625 9.58008Q7.91016 9.50195 8.46191 9.42383Q9.01367 9.3457 9.79492 9.3457Q10.5762 9.3457 11.1328 9.42383Q11.6895 9.50195 11.9336 9.58008Q12.1582 9.66797 12.1582 9.85352L12.1777 10.459Q12.1875 10.9863 12.4121 11.2305Q12.6367 11.4746 13.0664 11.6113Q13.8867 11.8652 14.4092 11.9189Q14.9316 11.9727 15.3418 11.9727Q15.7422 11.9727 15.9766 11.7822Q16.2109 11.5918 16.3135 11.3037Q16.416 11.0156 16.416 10.7129L16.416 10.6055Q16.416 9.63867 15.8398 8.9209Q15.2637 8.20312 14.3018 7.73438Q13.3398 7.26562 12.168 7.03125Q10.9961 6.79688 9.79492 6.79688Q8.59375 6.79688 7.41699 7.03125Q6.24023 7.26562 5.2832 7.73438Q4.32617 8.20312 3.75 8.9209Q3.17383 9.63867 3.17383 10.6055Z"
                     fill="#ff453a" />
       </g>
</svg>