<svg width="19.5898" height="19.5996">
       <g>
              <rect height="19.5996" opacity="0" width="19.5898" x="0" y="0" />
              <path d="M9.79492 19.5996Q11.8066 19.5996 13.5791 18.833Q15.3516 18.0664 16.7041 16.7139Q18.0566 15.3613 18.8232 13.5889Q19.5898 11.8164 19.5898 9.80469Q19.5898 7.79297 18.8232 6.02051Q18.0566 4.24805 16.7041 2.89551Q15.3516 1.54297 13.5742 0.776367Q11.7969 0.00976562 9.78516 0.00976562Q7.77344 0.00976562 6.00098 0.776367Q4.22852 1.54297 2.88086 2.89551Q1.5332 4.24805 0.766602 6.02051Q0 7.79297 0 9.80469Q0 11.8164 0.766602 13.5889Q1.5332 15.3613 2.88574 16.7139Q4.23828 18.0664 6.01074 18.833Q7.7832 19.5996 9.79492 19.5996Z"
                     fill="#ff453a" />
              <path d="M3.03711 10.752L3.03711 10.6543Q3.03711 9.66797 3.62305 8.93555Q4.20898 8.20312 5.19043 7.71973Q6.17188 7.23633 7.36816 7.00195Q8.56445 6.76758 9.78516 6.76758Q11.0156 6.76758 12.2168 7.00195Q13.418 7.23633 14.3994 7.71973Q15.3809 8.20312 15.9668 8.93555Q16.5527 9.66797 16.5527 10.6543L16.5527 10.752Q16.5527 11.0742 16.4453 11.3672Q16.3379 11.6602 16.0986 11.8506Q15.8594 12.041 15.459 12.041Q15.0391 12.041 14.502 11.9873Q13.9648 11.9336 13.125 11.6699Q12.6855 11.5332 12.4561 11.2842Q12.2266 11.0352 12.2168 10.498L12.207 9.87305Q12.207 9.6875 11.9727 9.60938Q11.7188 9.53125 11.1523 9.44824Q10.5859 9.36523 9.78516 9.36523Q8.99414 9.36523 8.42773 9.44824Q7.86133 9.53125 7.61719 9.60938Q7.38281 9.6875 7.38281 9.87305L7.37305 10.498Q7.36328 11.0352 7.12891 11.2842Q6.89453 11.5332 6.45508 11.6699Q5.61523 11.9336 5.08301 11.9873Q4.55078 12.041 4.13086 12.041Q3.73047 12.041 3.49121 11.8506Q3.25195 11.6602 3.14453 11.3672Q3.03711 11.0742 3.03711 10.752Z"
                     fill="#ffffff" />
       </g>
</svg>