<svg width="21.2012" height="21.0449">
       <g>
              <rect height="21.0449" opacity="0" width="21.2012" x="0" y="0" />
              <path d="M5.46875 21.0449Q5.70312 21.0449 5.89844 20.9229Q6.09375 20.8008 6.35742 20.5566L9.89258 17.4023L17.0508 17.4023Q18.3789 17.4023 19.3018 16.9092Q20.2246 16.416 20.7129 15.4932Q21.2012 14.5703 21.2012 13.2617L21.2012 5.41016Q21.2012 4.10156 20.7129 3.17383Q20.2246 2.24609 19.3018 1.75293Q18.3789 1.25977 17.0508 1.25977L4.15039 1.25977Q2.82227 1.25977 1.89453 1.75293Q0.966797 2.24609 0.483398 3.16895Q0 4.0918 0 5.41016L0 13.2617Q0 14.5703 0.483398 15.498Q0.966797 16.4258 1.89453 16.9141Q2.82227 17.4023 4.15039 17.4023L4.76562 17.4023L4.76562 20.2344Q4.76562 20.6055 4.95117 20.8252Q5.13672 21.0449 5.46875 21.0449Z"
                     fill="rgba(255,255,255,0.55)" />
              <path d="M8.06641 11.7188Q7.19727 10.8496 6.52832 9.8877Q5.85938 8.92578 5.5127 7.95898Q5.16602 6.99219 5.25879 6.12305Q5.35156 5.25391 6.02539 4.58008Q6.04492 4.55078 6.0791 4.5166Q6.11328 4.48242 6.16211 4.46289Q6.46484 4.24805 6.76758 4.12109Q7.07031 3.99414 7.34375 4.03809Q7.61719 4.08203 7.8418 4.39453L9.10156 6.19141Q9.38477 6.57227 9.35059 6.89941Q9.31641 7.22656 8.95508 7.60742L8.56445 8.04688Q8.4668 8.14453 8.47656 8.25195Q8.48633 8.35938 8.53516 8.45703Q8.67188 8.71094 9.00879 9.13574Q9.3457 9.56055 9.77539 9.99023Q10.2246 10.4395 10.6445 10.7666Q11.0645 11.0938 11.3184 11.25Q11.4258 11.3086 11.5527 11.3086Q11.6797 11.3086 11.7676 11.2305L12.1777 10.8203Q12.5293 10.4688 12.8613 10.4297Q13.1934 10.3906 13.5938 10.6641Q14.1504 11.0547 14.4971 11.2988Q14.8438 11.543 15.0635 11.6943Q15.2832 11.8457 15.4492 11.9727Q15.8398 12.2949 15.7861 12.7393Q15.7324 13.1836 15.3418 13.6035Q15.3027 13.6426 15.2734 13.6816Q15.2441 13.7207 15.2051 13.7598Q14.5312 14.4336 13.6621 14.5264Q12.793 14.6191 11.8262 14.2676Q10.8594 13.916 9.89258 13.2471Q8.92578 12.5781 8.06641 11.7188Z"
                     fill="#ffffff" />
       </g>
</svg>