<svg width="19.834" height="19.7559">
       <g>
              <rect height="19.7559" opacity="0" width="19.834" x="0" y="0" />
              <path d="M4.82422 14.1895Q6.19141 15.5469 7.71973 16.6455Q9.24805 17.7441 10.791 18.3936Q12.334 19.043 13.7305 19.043Q14.6875 19.043 15.5078 18.7012Q16.3281 18.3594 17.002 17.6465Q17.373 17.2461 17.6221 16.7578Q17.8711 16.2695 17.8711 15.7715Q17.8711 15.4199 17.7197 15.0977Q17.5684 14.7754 17.2168 14.5215L14.2383 12.4121Q13.9355 12.207 13.6621 12.0947Q13.3887 11.9824 13.125 11.9824Q12.8027 11.9824 12.4854 12.1533Q12.168 12.3242 11.8262 12.666L11.1133 13.3496Q10.9668 13.5059 10.752 13.5059Q10.6445 13.5059 10.5469 13.4717Q10.4492 13.4375 10.3711 13.3984Q9.94141 13.1738 9.21875 12.5928Q8.49609 12.0117 7.74414 11.2695Q7.01172 10.5273 6.42578 9.80469Q5.83984 9.08203 5.625 8.64258Q5.58594 8.56445 5.55664 8.47168Q5.52734 8.37891 5.52734 8.28125Q5.52734 8.07617 5.67383 7.93945L6.35742 7.19727Q6.68945 6.85547 6.86035 6.53809Q7.03125 6.2207 7.03125 5.89844Q7.03125 5.63477 6.91895 5.35645Q6.80664 5.07812 6.5918 4.77539L4.54102 1.875Q4.28711 1.51367 3.93555 1.34766Q3.58398 1.18164 3.20312 1.18164Q2.2168 1.18164 1.34766 2.04102Q0.644531 2.72461 0.322266 3.5498Q0 4.375 0 5.3125Q0 6.70898 0.639648 8.24219Q1.2793 9.77539 2.37305 11.2988Q3.4668 12.8223 4.82422 14.1895Z"
                     fill="rgba(255,255,255,0.55)" />
              <path d="M10.5859 6.01562Q10.791 6.01562 10.9277 5.88379Q11.0645 5.75195 11.0645 5.56641L11.0645 3.73047Q11.0645 3.52539 10.9277 3.39355Q10.791 3.26172 10.5859 3.26172Q10.4004 3.26172 10.2686 3.39355Q10.1367 3.52539 10.1367 3.73047L10.1367 5.56641Q10.1367 5.75195 10.2686 5.88379Q10.4004 6.01562 10.5859 6.01562Z"
                     fill="rgba(255,255,255,0.55)" />
              <path d="M12.793 7.62695Q12.9883 7.62695 13.1201 7.49512Q13.252 7.36328 13.252 7.1582L13.252 2.11914Q13.252 1.92383 13.1201 1.78711Q12.9883 1.65039 12.793 1.65039Q12.5977 1.65039 12.4609 1.78711Q12.3242 1.92383 12.3242 2.11914L12.3242 7.1582Q12.3242 7.36328 12.4609 7.49512Q12.5977 7.62695 12.793 7.62695Z"
                     fill="rgba(255,255,255,0.55)" />
              <path d="M14.9805 9.28711Q15.1758 9.28711 15.3125 9.16016Q15.4492 9.0332 15.4492 8.83789L15.4492 0.46875Q15.4492 0.263672 15.3125 0.131836Q15.1758 0 14.9805 0Q14.7949 0 14.6582 0.131836Q14.5215 0.263672 14.5215 0.46875L14.5215 8.83789Q14.5215 9.0332 14.6533 9.16016Q14.7852 9.28711 14.9805 9.28711Z"
                     fill="rgba(255,255,255,0.55)" />
              <path d="M17.1777 8.29102Q17.373 8.29102 17.5049 8.1543Q17.6367 8.01758 17.6367 7.82227L17.6367 1.45508Q17.6367 1.25977 17.5049 1.13281Q17.373 1.00586 17.1777 1.00586Q16.9824 1.00586 16.8506 1.13281Q16.7188 1.25977 16.7188 1.45508L16.7188 7.82227Q16.7188 8.01758 16.8506 8.1543Q16.9824 8.29102 17.1777 8.29102Z"
                     fill="rgba(255,255,255,0.55)" />
              <path d="M19.375 6.55273Q19.5703 6.55273 19.7021 6.4209Q19.834 6.28906 19.834 6.09375L19.834 3.19336Q19.834 2.99805 19.7021 2.86621Q19.5703 2.73438 19.375 2.73438Q19.1797 2.73438 19.0479 2.86621Q18.916 2.99805 18.916 3.19336L18.916 6.09375Q18.916 6.28906 19.0479 6.4209Q19.1797 6.55273 19.375 6.55273Z"
                     fill="rgba(255,255,255,0.165)" />
       </g>
</svg>