<svg width="24.4601" height="20.7723">
       <g>
              <rect height="20.7723" opacity="0" width="24.4601" x="0" y="0" />
              <path d="M1.68616 14.8434Q1.93839 16.237 2.7719 16.817Q3.60541 17.3971 5.01609 17.1485L5.93634 16.992L5.93634 15.7664L4.83557 15.953Q4.02197 16.0981 3.51798 15.7493Q3.01398 15.4005 2.86215 14.5736L1.27173 5.55522Q1.11975 4.71858 1.47536 4.21603Q1.83097 3.71348 2.64746 3.56837L15.7137 1.26811Q16.5084 1.13582 17.0203 1.4767Q17.5323 1.81758 17.6841 2.65727L18.189 5.47496L19.4083 5.47496L18.8564 2.38749Q18.6079 0.99696 17.7725 0.412015Q16.9372-0.172931 15.5302 0.0725828L2.40821 2.38566Q1.00119 2.63789 0.414034 3.4714Q-0.173124 4.30491 0.0723899 5.6985Z"
                     fill="rgba(255,255,255,0.55)" />
              <path d="M8.02619 19.5655L21.4445 19.5655Q22.6444 19.5655 23.2631 18.9604Q23.8817 18.3552 23.8817 17.1485L23.8817 16.4328L19.3996 12.2431Q19.0983 11.9674 18.7534 11.825Q18.4086 11.6825 18.023 11.6825Q17.6435 11.6825 17.3183 11.8167Q16.993 11.9509 16.6653 12.2334L12.6989 15.7144L11.1545 14.3045Q10.8683 14.0377 10.5749 13.9145Q10.2816 13.7913 9.95093 13.7913Q9.64652 13.7913 9.37277 13.9163Q9.09903 14.0414 8.81278 14.288L5.58539 17.1522Q5.58539 18.3552 6.20253 18.9604Q6.81967 19.5655 8.02619 19.5655ZM12.0653 12.4186Q12.9278 12.4186 13.5377 11.8004Q14.1477 11.1822 14.1477 10.3167Q14.1477 9.75398 13.8664 9.27737Q13.5851 8.80076 13.1133 8.51451Q12.6415 8.22825 12.0653 8.22825Q11.2035 8.22825 10.5951 8.84799Q9.98664 9.46772 9.98664 10.3167Q9.98664 11.1822 10.5951 11.8004Q11.2035 12.4186 12.0653 12.4186ZM8.02725 20.0135L21.588 20.0135Q23.0115 20.0135 23.7358 19.2915Q24.4601 18.5694 24.4601 17.1588L24.4601 7.87104Q24.4601 6.46708 23.7358 5.74168Q23.0115 5.01628 21.588 5.01628L8.02725 5.01628Q6.59018 5.01628 5.86936 5.73527Q5.14853 6.45427 5.14853 7.87104L5.14853 17.1588Q5.14853 18.5755 5.86936 19.2945Q6.59018 20.0135 8.02725 20.0135ZM8.04984 18.8046Q7.22357 18.8046 6.79053 18.3749Q6.35749 17.9452 6.35749 17.0988L6.35749 7.93773Q6.35749 7.09422 6.79053 6.65973Q7.22357 6.22523 8.04984 6.22523L21.5587 6.22523Q22.3662 6.22523 22.8102 6.65973Q23.2542 7.09422 23.2542 7.93773L23.2542 17.0988Q23.2542 17.9452 22.8102 18.3749Q22.3662 18.8046 21.5587 18.8046Z"
                     fill="rgba(255,255,255,0.55)" />
       </g>
</svg>