<svg width="19.5898" height="19.5996">
       <g>
              <rect height="19.5996" opacity="0" width="19.5898" x="0" y="0" />
              <path d="M9.79492 19.5898Q11.8066 19.5898 13.5791 18.8232Q15.3516 18.0566 16.7041 16.7041Q18.0566 15.3516 18.8232 13.5791Q19.5898 11.8066 19.5898 9.79492Q19.5898 7.7832 18.8232 6.01074Q18.0566 4.23828 16.7041 2.88574Q15.3516 1.5332 13.5742 0.766602Q11.7969 0 9.78516 0Q7.77344 0 6.00098 0.766602Q4.22852 1.5332 2.88086 2.88574Q1.5332 4.23828 0.766602 6.01074Q0 7.7832 0 9.79492Q0 11.8066 0.766602 13.5791Q1.5332 15.3516 2.88574 16.7041Q4.23828 18.0566 6.01074 18.8232Q7.7832 19.5898 9.79492 19.5898Z"
                     fill="rgba(255,255,255,0.55)" />
              <path d="M5.58594 14.1504Q4.89258 14.1504 4.53125 13.7939Q4.16992 13.4375 4.16992 12.7539L4.16992 6.86523Q4.16992 6.17188 4.53125 5.82031Q4.89258 5.46875 5.58594 5.46875L13.9941 5.46875Q14.6875 5.46875 15.0488 5.8252Q15.4102 6.18164 15.4102 6.86523L15.4102 12.7539Q15.4102 13.4375 15.0488 13.7939Q14.6875 14.1504 13.9941 14.1504ZM5.64453 13.3691L13.9355 13.3691Q14.2676 13.3691 14.4482 13.1885Q14.6289 13.0078 14.6289 12.7051L14.6289 11.8359L12.4902 9.92188Q12.1289 9.58008 11.709 9.59961Q11.2988 9.58984 10.918 9.92188L8.62305 11.9336L7.71484 11.1133Q7.37305 10.8203 7.02148 10.8203Q6.70898 10.8203 6.35742 11.1035L4.94141 12.2852L4.94141 12.7051Q4.94141 13.0078 5.12695 13.1885Q5.3125 13.3691 5.64453 13.3691ZM7.62695 9.91211Q8.11523 9.91211 8.45703 9.56543Q8.79883 9.21875 8.79883 8.74023Q8.79883 8.26172 8.45703 7.91992Q8.11523 7.57812 7.62695 7.57812Q7.1582 7.57812 6.81152 7.91992Q6.46484 8.26172 6.46484 8.74023Q6.46484 9.21875 6.81152 9.56543Q7.1582 9.91211 7.62695 9.91211Z"
                     fill="#ffffff" />
       </g>
</svg>