<svg width="23.9458" height="19.2548">
       <g>
              <rect height="19.2548" opacity="0" width="23.9458" x="0" y="0" />
              <path d="M2.87872 14.9966L5.14313 14.9966L5.14313 13.7906L2.90131 13.7906Q2.07504 13.7906 1.642 13.3595Q1.20895 12.9283 1.20895 12.085L1.20895 2.92389Q1.20895 2.07733 1.642 1.64436Q2.07504 1.2114 2.90131 1.2114L16.1696 1.2114Q16.9771 1.2114 17.4244 1.64436Q17.8717 2.07733 17.8717 2.92389L17.8717 4.74991L19.0807 4.74991L19.0807 2.85721Q19.0807 1.4502 18.353 0.726318Q17.6254 0.00244141 16.1989 0.00244141L2.87872 0.00244141Q1.44836 0.00244141 0.724182 0.71991Q0 1.43738 0 2.85721L0 12.1419Q0 13.5617 0.724182 14.2792Q1.44836 14.9966 2.87872 14.9966Z"
                     fill="rgba(255,255,255,0.55)" />
              <path d="M7.50214 18.8068L20.9235 18.8068Q22.1301 18.8068 22.7473 18.2016Q23.3644 17.5964 23.3644 16.3898L23.3644 15.674L18.8785 11.4844Q18.5771 11.2086 18.2308 11.0662Q17.8845 10.9238 17.5087 10.9238Q17.1194 10.9238 16.7941 11.058Q16.4688 11.1922 16.151 11.4746L12.1814 14.9556L10.6303 13.5457Q10.3441 13.279 10.0508 13.1557Q9.75754 13.0325 9.42993 13.0325Q9.12552 13.0325 8.85025 13.1576Q8.57498 13.2826 8.28873 13.5292L5.06119 16.3934Q5.06119 17.5964 5.67833 18.2016Q6.29547 18.8068 7.50214 18.8068ZM11.548 11.6599Q12.4036 11.6599 13.0136 11.0416Q13.6237 10.4234 13.6237 9.55795Q13.6237 8.99521 13.3423 8.5186Q13.0609 8.04199 12.5891 7.75574Q12.1173 7.46948 11.548 7.46948Q10.6825 7.46948 10.074 8.08922Q9.46548 8.70895 9.46548 9.55795Q9.46548 10.4234 10.074 11.0416Q10.6825 11.6599 11.548 11.6599ZM7.5061 19.2548L21.064 19.2548Q22.4905 19.2548 23.2182 18.5327Q23.9458 17.8107 23.9458 16.4L23.9458 7.11227Q23.9458 5.70831 23.2182 4.98291Q22.4905 4.25751 21.064 4.25751L7.5061 4.25751Q6.07285 4.25751 5.34866 4.9765Q4.62448 5.6955 4.62448 7.11227L4.62448 16.4Q4.62448 17.8168 5.34866 18.5358Q6.07285 19.2548 7.5061 19.2548ZM7.52563 18.0458Q6.69937 18.0458 6.2664 17.6161Q5.83344 17.1864 5.83344 16.34L5.83344 7.17896Q5.83344 6.33545 6.2664 5.90096Q6.69937 5.46646 7.52563 5.46646L21.0378 5.46646Q21.8451 5.46646 22.2909 5.90096Q22.7367 6.33545 22.7367 7.17896L22.7367 16.34Q22.7367 17.1864 22.2909 17.6161Q21.8451 18.0458 21.0378 18.0458Z"
                     fill="rgba(255,255,255,0.55)" />
       </g>
</svg>