<svg width="18.8076" height="18.8363">
       <g>
              <rect height="18.8363" opacity="0" width="18.8076" x="0" y="0" />
              <path d="M5.62316 6.42775L1.72576 10.3313Q0.611104 11.4459 0.219639 12.6999Q-0.171825 13.954 0.134419 15.1705Q0.440663 16.387 1.43523 17.3814Q2.42354 18.3728 3.63852 18.6806Q4.8535 18.9885 6.10907 18.5955Q7.36464 18.2025 8.4793 17.0878L12.3797 13.1813ZM17.3698 1.43461Q16.3747 0.44325 15.1612 0.13548Q13.9477-0.172289 12.6971 0.219099Q11.4464 0.610487 10.3384 1.72514L6.42516 5.62864L13.1819 12.3854L17.0854 8.47517Q18.197 7.36723 18.5885 6.11319Q18.9799 4.85914 18.6721 3.64409Q18.3642 2.42903 17.3698 1.43461Z"
                     fill="#5ac8f5" />
       </g>
</svg>