<svg width="22.5958" height="19.7992">
       <g>
              <rect height="19.7992" opacity="0" width="22.5958" x="0" y="0" />
              <path d="M22.5958 14.2288Q22.4594 12.9825 21.7647 11.9758Q21.0699 10.9691 19.9935 10.3771Q18.9171 9.78516 17.6243 9.78516Q16.3412 9.78516 15.2614 10.3771Q14.1817 10.9691 13.4869 11.9758Q12.7922 12.9825 12.6626 14.2288ZM22.5958 15.3458L12.6626 15.3458Q12.7991 16.5921 13.4889 17.6022Q14.1788 18.6122 15.2551 19.2057Q16.3315 19.7992 17.6243 19.7992Q18.9171 19.7992 19.9984 19.2072Q21.0797 18.6153 21.7695 17.607Q22.4594 16.5988 22.5958 15.3458Z"
                     fill="rgba(90,200,245,0.5)" />
              <path d="M10.9913 10.5719L14.1879 7.37534Q15.0659 6.49734 15.3667 5.4921Q15.6674 4.48685 15.3906 3.4951Q15.1138 2.50336 14.2628 1.65543Q13.4021 0.804443 12.4069 0.526123Q11.4117 0.247803 10.4148 0.548553Q9.41786 0.849304 8.54292 1.72729L5.34331 4.92386ZM10.19 11.377L4.53825 5.72525L1.33559 8.93463Q0.450882 9.80942 0.153565 10.8147Q-0.143753 11.8199 0.134568 12.815Q0.412888 13.8101 1.26387 14.6544Q2.12157 15.5054 3.11667 15.7822Q4.11177 16.059 5.10878 15.7582Q6.10579 15.4575 6.98363 14.5863Z"
                     fill="#5ac8f5" />
       </g>
</svg>