<svg width="19.5898" height="19.5996">
       <g>
              <rect height="19.5996" opacity="0" width="19.5898" x="0" y="0" />
              <path d="M9.79492 19.5996Q11.8066 19.5996 13.5791 18.833Q15.3516 18.0664 16.7041 16.7139Q18.0566 15.3613 18.8232 13.5889Q19.5898 11.8164 19.5898 9.80469Q19.5898 7.79297 18.8232 6.02051Q18.0566 4.24805 16.7041 2.89551Q15.3516 1.54297 13.5742 0.776367Q11.7969 0.00976562 9.78516 0.00976562Q7.77344 0.00976562 6.00098 0.776367Q4.22852 1.54297 2.88086 2.89551Q1.5332 4.24805 0.766602 6.02051Q0 7.79297 0 9.80469Q0 11.8164 0.766602 13.5889Q1.5332 15.3613 2.88574 16.7139Q4.23828 18.0664 6.01074 18.833Q7.7832 19.5996 9.79492 19.5996Z"
                     fill="rgba(255,255,255,0.55)" />
              <path d="M14.1406 5.45898Q15.0098 6.29883 15 7.34863Q14.9902 8.39844 14.1016 9.27734L11.9336 11.4453L8.14453 7.64648L10.3125 5.48828Q11.1914 4.59961 12.2314 4.59961Q13.2715 4.59961 14.1406 5.45898ZM5.42969 14.1699Q4.58008 13.3203 4.58984 12.2705Q4.59961 11.2207 5.47852 10.332L7.64648 8.16406L11.4355 11.9434L9.26758 14.1113Q8.39844 14.9902 7.34863 15Q6.29883 15.0098 5.42969 14.1699Z"
                     fill="#ffffff" />
       </g>
</svg>