<svg width="19.5898" height="19.5996">
       <g>
              <rect height="19.5996" opacity="0" width="19.5898" x="0" y="0" />
              <path d="M9.79492 19.5996Q11.8066 19.5996 13.5791 18.833Q15.3516 18.0664 16.7041 16.7139Q18.0566 15.3613 18.8232 13.5889Q19.5898 11.8164 19.5898 9.80469Q19.5898 7.79297 18.8232 6.02051Q18.0566 4.24805 16.7041 2.89551Q15.3516 1.54297 13.5742 0.776367Q11.7969 0.00976562 9.78516 0.00976562Q7.77344 0.00976562 6.00098 0.776367Q4.22852 1.54297 2.88086 2.89551Q1.5332 4.24805 0.766602 6.02051Q0 7.79297 0 9.80469Q0 11.8164 0.766602 13.5889Q1.5332 15.3613 2.88574 16.7139Q4.23828 18.0664 6.01074 18.833Q7.7832 19.5996 9.79492 19.5996Z"
                     fill="rgba(255,255,255,0.55)" />
              <path d="M9.62891 9.90234L6.5625 6.82617L8.26172 5.13672Q8.97461 4.41406 9.81934 4.40918Q10.6641 4.4043 11.377 5.10742Q12.0703 5.78125 12.0654 6.64062Q12.0605 7.5 11.3379 8.20312ZM9.13086 10.4102L7.41211 12.1387Q6.69922 12.8418 5.84961 12.8516Q5 12.8613 4.29688 12.1777Q3.61328 11.4844 3.62305 10.6299Q3.63281 9.77539 4.3457 9.0625L6.05469 7.33398ZM15.5859 11.8848L10.1855 11.8848Q10.2637 11.2305 10.6396 10.6934Q11.0156 10.1562 11.5967 9.83887Q12.1777 9.52148 12.8809 9.52148Q13.584 9.52148 14.1748 9.83887Q14.7656 10.1562 15.1416 10.6934Q15.5176 11.2305 15.5859 11.8848ZM15.5859 12.5977Q15.5176 13.252 15.1416 13.7842Q14.7656 14.3164 14.1748 14.6338Q13.584 14.9512 12.8809 14.9512Q12.1777 14.9512 11.5967 14.6338Q11.0156 14.3164 10.6396 13.7842Q10.2637 13.252 10.1855 12.5977Z"
                     fill="#ffffff" />
       </g>
</svg>