<svg width="17.6855" height="17.7051">
       <g>
              <rect height="17.7051" opacity="0" width="17.6855" x="0" y="0" />
              <path d="M2.88086 17.7051L14.8047 17.7051Q16.2305 17.7051 16.958 16.9873Q17.6855 16.2695 17.6855 14.8535L17.6855 2.88086Q17.6855 1.46484 16.958 0.742188Q16.2305 0.0195312 14.8047 0.0195312L2.88086 0.0195312Q1.44531 0.0195312 0.722656 0.737305Q0 1.45508 0 2.88086L0 14.8535Q0 16.2695 0.722656 16.9873Q1.44531 17.7051 2.88086 17.7051Z"
                     fill="#ff9f0a" />
              <path d="M4.94141 10.8398Q4.94141 10 5.56152 9.22852Q6.18164 8.45703 7.25586 8.08594L7.42188 5.63477Q6.95312 5.35156 6.53809 5.03418Q6.12305 4.7168 5.9082 4.44336Q5.67383 4.15039 5.67383 3.92578Q5.67383 3.71094 5.8252 3.57422Q5.97656 3.4375 6.2207 3.4375L11.4746 3.4375Q11.7285 3.4375 11.875 3.57422Q12.0215 3.71094 12.0215 3.92578Q12.0215 4.15039 11.8164 4.42383Q11.6016 4.69727 11.1816 5.02441Q10.7617 5.35156 10.2832 5.63477L10.4492 8.08594Q11.5137 8.45703 12.1338 9.22852Q12.7539 10 12.7539 10.8398Q12.7539 11.1328 12.5732 11.2988Q12.3926 11.4648 12.0801 11.4648L9.35547 11.4648L9.35547 13.5059Q9.35547 13.9551 9.2627 14.3408Q9.16992 14.7266 9.04785 14.9561Q8.92578 15.1855 8.84766 15.1855Q8.76953 15.1855 8.64746 14.9561Q8.52539 14.7266 8.43262 14.3408Q8.33984 13.9551 8.33984 13.5059L8.33984 11.4648L5.61523 11.4648Q5.30273 11.4648 5.12207 11.2988Q4.94141 11.1328 4.94141 10.8398Z"
                     fill="#ffffff" />
       </g>
</svg>