<svg width="19.5898" height="19.5996">
       <g>
              <rect height="19.5996" opacity="0" width="19.5898" x="0" y="0" />
              <path d="M9.79492 19.5996Q11.8066 19.5996 13.5791 18.833Q15.3516 18.0664 16.7041 16.7139Q18.0566 15.3613 18.8232 13.5889Q19.5898 11.8164 19.5898 9.80469Q19.5898 7.79297 18.8232 6.02051Q18.0566 4.24805 16.7041 2.89551Q15.3516 1.54297 13.5742 0.776367Q11.7969 0.00976562 9.78516 0.00976562Q7.77344 0.00976562 6.00098 0.776367Q4.22852 1.54297 2.88086 2.89551Q1.5332 4.24805 0.766602 6.02051Q0 7.79297 0 9.80469Q0 11.8164 0.766602 13.5889Q1.5332 15.3613 2.88574 16.7139Q4.23828 18.0664 6.01074 18.833Q7.7832 19.5996 9.79492 19.5996Z"
                     fill="#ff9f0a" />
              <path d="M5.89844 11.8066Q5.89844 10.9668 6.51855 10.1953Q7.13867 9.42383 8.21289 9.05273L8.37891 6.60156Q7.91016 6.31836 7.49512 6.00098Q7.08008 5.68359 6.86523 5.41016Q6.63086 5.11719 6.63086 4.89258Q6.63086 4.67773 6.78223 4.54102Q6.93359 4.4043 7.17773 4.4043L12.4316 4.4043Q12.6855 4.4043 12.832 4.54102Q12.9785 4.67773 12.9785 4.89258Q12.9785 5.11719 12.7734 5.39062Q12.5586 5.66406 12.1387 5.99121Q11.7188 6.31836 11.2402 6.60156L11.4062 9.05273Q12.4707 9.42383 13.0908 10.1953Q13.7109 10.9668 13.7109 11.8066Q13.7109 12.0996 13.5303 12.2656Q13.3496 12.4316 13.0371 12.4316L10.3125 12.4316L10.3125 14.4727Q10.3125 14.9219 10.2197 15.3076Q10.127 15.6934 10.0049 15.9229Q9.88281 16.1523 9.80469 16.1523Q9.72656 16.1523 9.60449 15.9229Q9.48242 15.6934 9.38965 15.3076Q9.29688 14.9219 9.29688 14.4727L9.29688 12.4316L6.57227 12.4316Q6.25977 12.4316 6.0791 12.2656Q5.89844 12.0996 5.89844 11.8066Z"
                     fill="#ffffff" />
       </g>
</svg>