<svg width="17.6855" height="17.7051">
       <g>
              <rect height="17.7051" opacity="0" width="17.6855" x="0" y="0" />
              <path d="M2.88086 17.7051L14.8047 17.7051Q16.2305 17.7051 16.958 16.9873Q17.6855 16.2695 17.6855 14.8535L17.6855 2.88086Q17.6855 1.46484 16.958 0.742188Q16.2305 0.0195312 14.8047 0.0195312L2.88086 0.0195312Q1.44531 0.0195312 0.722656 0.737305Q0 1.45508 0 2.88086L0 14.8535Q0 16.2695 0.722656 16.9873Q1.44531 17.7051 2.88086 17.7051ZM2.90039 16.4941Q2.07031 16.4941 1.64062 16.0645Q1.21094 15.6348 1.21094 14.7949L1.21094 2.93945Q1.21094 2.08984 1.64062 1.66016Q2.07031 1.23047 2.90039 1.23047L14.7852 1.23047Q15.5859 1.23047 16.0303 1.66016Q16.4746 2.08984 16.4746 2.93945L16.4746 14.7949Q16.4746 15.6348 16.0303 16.0645Q15.5859 16.4941 14.7852 16.4941Z"
                     fill="#ff9f0a" />
              <path d="M5.01953 10.8105Q5.01953 11.084 5.2002 11.2549Q5.38086 11.4258 5.67383 11.4258L8.35938 11.4258L8.35938 13.4277Q8.35938 13.8672 8.44727 14.2383Q8.53516 14.6094 8.65234 14.8389Q8.76953 15.0684 8.84766 15.0684Q8.92578 15.0684 9.04297 14.8389Q9.16016 14.6094 9.25293 14.2383Q9.3457 13.8672 9.3457 13.4277L9.3457 11.4258L12.0215 11.4258Q12.3242 11.4258 12.5 11.2549Q12.6758 11.084 12.6758 10.8105Q12.6758 9.99023 12.0654 9.2334Q11.4551 8.47656 10.4199 8.10547L10.2539 5.70312Q10.7227 5.42969 11.1328 5.10742Q11.543 4.78516 11.7578 4.52148Q11.9531 4.25781 11.9531 4.0332Q11.9531 3.81836 11.8115 3.68652Q11.6699 3.55469 11.416 3.55469L6.2793 3.55469Q6.04492 3.55469 5.89844 3.68652Q5.75195 3.81836 5.75195 4.0332Q5.75195 4.25781 5.97656 4.54102Q6.18164 4.80469 6.58691 5.11719Q6.99219 5.42969 7.46094 5.70312L7.28516 8.10547Q6.24023 8.47656 5.62988 9.2334Q5.01953 9.99023 5.01953 10.8105Z"
                     fill="#ff9f0a" />
       </g>
</svg>