<svg width="14.5695" height="23.0966">
       <g>
              <rect height="23.0966" opacity="0" width="14.5695" x="0" y="0" />
              <path d="M0 14.4884Q0 15.0255 0.34523 15.3485Q0.69046 15.6715 1.26907 15.6715L6.58859 15.6715L6.58859 20.8255Q6.58859 21.2852 6.66656 21.697Q6.74454 22.1088 6.86073 22.4227Q6.97693 22.7367 7.09282 22.9166Q7.20871 23.0966 7.28821 23.0966Q7.36084 23.0966 7.47673 22.9166Q7.59262 22.7367 7.71034 22.4227Q7.82806 22.1088 7.90604 21.697Q7.98401 21.2852 7.98401 20.8255L7.98401 15.6715L13.3006 15.6715Q13.886 15.6715 14.2278 15.3485Q14.5695 15.0255 14.5695 14.4884Q14.5695 13.441 14.0483 12.4454Q13.5271 11.4499 12.5604 10.6403Q11.5938 9.83078 10.266 9.36295L9.9527 4.81995Q10.5687 4.45221 11.1397 4.04892Q11.7107 3.64563 12.1621 3.24524Q12.6135 2.84485 12.8705 2.49771Q13.212 2.04575 13.212 1.64658Q13.212 1.24893 12.9309 0.990753Q12.6498 0.732574 12.1936 0.732574L2.38281 0.732574Q1.91971 0.732574 1.642 0.990753Q1.36429 1.24893 1.36429 1.64658Q1.36429 2.04575 1.69907 2.49771Q1.95602 2.84485 2.40746 3.24524Q2.85889 3.64563 3.42987 4.0538Q4.00085 4.46198 4.61685 4.81995L4.30374 9.36295Q2.97592 9.83078 2.01073 10.6403Q1.04553 11.4499 0.522766 12.4454Q0 13.441 0 14.4884Z"
                     fill="#ff9f0a" />
       </g>
</svg>