<svg width="19.5898" height="19.5996">
       <g>
              <rect height="19.5996" opacity="0" width="19.5898" x="0" y="0" />
              <path d="M9.79492 19.5898Q11.8066 19.5898 13.5791 18.8232Q15.3516 18.0566 16.7041 16.7041Q18.0566 15.3516 18.8232 13.5791Q19.5898 11.8066 19.5898 9.79492Q19.5898 7.7832 18.8232 6.01074Q18.0566 4.23828 16.7041 2.88574Q15.3516 1.5332 13.5742 0.766602Q11.7969 0 9.78516 0Q7.77344 0 6.00098 0.766602Q4.22852 1.5332 2.88086 2.88574Q1.5332 4.23828 0.766602 6.01074Q0 7.7832 0 9.79492Q0 11.8066 0.766602 13.5791Q1.5332 15.3516 2.88574 16.7041Q4.23828 18.0566 6.01074 18.8232Q7.7832 19.5898 9.79492 19.5898ZM9.79492 18.3203Q8.02734 18.3203 6.47949 17.6611Q4.93164 17.002 3.75977 15.8301Q2.58789 14.6582 1.92871 13.1104Q1.26953 11.5625 1.26953 9.79492Q1.26953 8.02734 1.92871 6.47949Q2.58789 4.93164 3.75977 3.75488Q4.93164 2.57812 6.47461 1.91895Q8.01758 1.25977 9.78516 1.25977Q11.5625 1.25977 13.1104 1.91895Q14.6582 2.57812 15.8301 3.75488Q17.002 4.93164 17.666 6.47949Q18.3301 8.02734 18.3301 9.79492Q18.3301 11.5625 17.666 13.1104Q17.002 14.6582 15.8301 15.8301Q14.6582 17.002 13.1152 17.6611Q11.5723 18.3203 9.79492 18.3203Z"
                     fill="#ff9f0a" />
              <path d="M5.9668 11.7578Q5.9668 12.0312 6.14746 12.2021Q6.32812 12.373 6.62109 12.373L9.30664 12.373L9.30664 14.375Q9.30664 14.8145 9.39453 15.1855Q9.48242 15.5566 9.59961 15.7861Q9.7168 16.0156 9.79492 16.0156Q9.87305 16.0156 9.99023 15.7861Q10.1074 15.5566 10.2002 15.1855Q10.293 14.8145 10.293 14.375L10.293 12.373L12.9688 12.373Q13.2715 12.373 13.4473 12.2021Q13.623 12.0312 13.623 11.7578Q13.623 10.9375 13.0127 10.1807Q12.4023 9.42383 11.3672 9.05273L11.2012 6.65039Q11.6699 6.37695 12.0801 6.05469Q12.4902 5.73242 12.7051 5.46875Q12.9004 5.20508 12.9004 4.98047Q12.9004 4.76562 12.7588 4.63379Q12.6172 4.50195 12.3633 4.50195L7.22656 4.50195Q6.99219 4.50195 6.8457 4.63379Q6.69922 4.76562 6.69922 4.98047Q6.69922 5.20508 6.92383 5.48828Q7.12891 5.75195 7.53418 6.06445Q7.93945 6.37695 8.4082 6.65039L8.23242 9.05273Q7.1875 9.42383 6.57715 10.1807Q5.9668 10.9375 5.9668 11.7578Z"
                     fill="#ff9f0a" />
       </g>
</svg>