<svg width="14.5695" height="23.0966">
       <g>
              <rect height="23.0966" opacity="0" width="14.5695" x="0" y="0" />
              <path d="M7.28821 23.0966Q7.36084 23.0966 7.47673 22.9166Q7.59262 22.7367 7.71034 22.4227Q7.82806 22.1088 7.90604 21.697Q7.98401 21.2852 7.98401 20.8255L7.98401 15.0676L6.58859 15.0676L6.58859 20.8255Q6.58859 21.2852 6.66656 21.697Q6.74454 22.1088 6.86073 22.4227Q6.97693 22.7367 7.09282 22.9166Q7.20871 23.0966 7.28821 23.0966ZM1.26907 15.6715L13.3006 15.6715Q13.886 15.6715 14.2278 15.3485Q14.5695 15.0255 14.5695 14.4884Q14.5695 13.4232 14.0308 12.4187Q13.492 11.4142 12.5089 10.6162Q11.5259 9.81827 10.1971 9.34631Q8.86826 8.87436 7.28821 8.87436Q5.71106 8.87436 4.37889 9.34631Q3.04672 9.81827 2.06551 10.6162Q1.08429 11.4142 0.542145 12.4187Q0 13.4232 0 14.4884Q0 15.0255 0.34523 15.3485Q0.69046 15.6715 1.26907 15.6715ZM1.52649 14.5299Q1.16348 14.5299 1.20087 14.1333Q1.25168 13.3701 1.71608 12.6323Q2.18048 11.8945 2.98744 11.296Q3.7944 10.6975 4.88564 10.3413Q5.97687 9.9852 7.28821 9.9852Q8.59268 9.9852 9.68391 10.3413Q10.7751 10.6975 11.5821 11.296Q12.3891 11.8945 12.8535 12.6323Q13.3179 13.3701 13.3687 14.1333Q13.4091 14.5299 13.0432 14.5299ZM1.36429 1.64658Q1.36429 2.04269 1.69006 2.47894Q1.9371 2.82608 2.3867 3.22945Q2.8363 3.63281 3.38486 4.04251Q3.93341 4.45221 4.48822 4.81995L4.14505 9.89746L5.34424 9.89746L5.69946 4.29718Q5.70923 4.13651 5.60715 4.08096Q5.09964 3.80981 4.62601 3.49869Q4.15237 3.18756 3.77289 2.89093Q3.3934 2.5943 3.16498 2.36153Q2.93655 2.12875 2.91626 2.02393Q2.87888 1.92627 2.92587 1.86958Q2.97287 1.8129 3.06915 1.8129L11.5034 1.8129Q11.5997 1.8129 11.6467 1.86958Q11.6937 1.92627 11.6533 2.02393Q11.6331 2.12875 11.408 2.36153Q11.1829 2.5943 10.8034 2.89093Q10.4239 3.18756 9.9469 3.49869Q9.46991 3.80981 8.96545 4.08096Q8.86032 4.13651 8.87985 4.29718L9.22531 9.89746L10.4276 9.89746L10.0815 4.81995Q10.6361 4.45221 11.188 4.04251Q11.74 3.63281 12.1877 3.22945Q12.6355 2.82608 12.8796 2.47894Q13.212 2.04269 13.212 1.64658Q13.212 1.24893 12.9309 0.990753Q12.6498 0.732574 12.1936 0.732574L2.38281 0.732574Q1.91971 0.732574 1.642 0.990753Q1.36429 1.24893 1.36429 1.64658Z"
                     fill="#ff9f0a" />
       </g>
</svg>