<svg width="24.8788" height="19.8547">
       <g>
              <rect height="19.8547" opacity="0" width="24.8788" x="0" y="0" />
              <path d="M2.87872 15.5968L9.88434 15.5968L9.88434 14.3907L2.90131 14.3907Q2.07504 14.3907 1.642 13.9562Q1.20895 13.5217 1.20895 12.6752L1.20895 2.94693Q1.20895 2.10052 1.642 1.66748Q2.07504 1.23444 2.90131 1.23444L17.1126 1.23444Q17.9201 1.23444 18.364 1.66748Q18.808 2.10052 18.808 2.94693L18.808 8.26218L20.0139 8.26218L20.0139 2.88025Q20.0139 1.47629 19.2896 0.750885Q18.5654 0.0254822 17.1419 0.0254822L2.87872 0.0254822Q1.44836 0.0254822 0.724182 0.744476Q0 1.46347 0 2.88025L0 12.7419Q0 14.1617 0.724182 14.8792Q1.44836 15.5968 2.87872 15.5968Z"
                     fill="rgba(255,255,255,0.55)" />
              <path d="M12.256 19.8547L22.007 19.8547Q23.4305 19.8547 24.1547 19.1294Q24.8788 18.4041 24.8788 17L24.8788 10.5841Q24.8788 9.17343 24.1547 8.45139Q23.4305 7.72934 22.007 7.72934L12.256 7.72934Q10.8226 7.72934 10.0984 8.44833Q9.37424 9.16733 9.37424 10.5841L9.37424 17Q9.37424 18.4167 10.0984 19.1357Q10.8226 19.8547 12.256 19.8547ZM12.2755 18.6458Q11.4493 18.6458 11.0162 18.2128Q10.5832 17.7798 10.5832 16.9333L10.5832 10.6441Q10.5832 9.80057 11.0162 9.36943Q11.4493 8.93829 12.2755 8.93829L21.9777 8.93829Q22.785 8.93829 23.229 9.36943Q23.6729 9.80057 23.6729 10.6441L23.6729 16.9333Q23.6729 17.7798 23.229 18.2128Q22.785 18.6458 21.9777 18.6458Z"
                     fill="rgba(255,255,255,0.55)" />
       </g>
</svg>