<svg width="24.8828" height="19.8535">
       <g>
              <rect height="19.8535" opacity="0" width="24.8828" x="0" y="0" />
              <path d="M2.88086 15.5957L9.88281 15.5957L9.88281 14.3945L2.90039 14.3945Q2.07031 14.3945 1.64062 13.96Q1.21094 13.5254 1.21094 12.6758L1.21094 2.94922Q1.21094 2.09961 1.64062 1.66504Q2.07031 1.23047 2.90039 1.23047L17.1094 1.23047Q17.9199 1.23047 18.3643 1.66504Q18.8086 2.09961 18.8086 2.94922L18.8086 8.26172L20.0098 8.26172L20.0098 2.88086Q20.0098 1.47461 19.2871 0.751953Q18.5645 0.0292969 17.1387 0.0292969L2.88086 0.0292969Q1.44531 0.0292969 0.722656 0.74707Q0 1.46484 0 2.88086L0 12.7441Q0 14.1602 0.722656 14.8779Q1.44531 15.5957 2.88086 15.5957Z"
                     fill="rgba(255,255,255,0.55)" />
              <path d="M12.2559 19.8535L22.0117 19.8535Q23.4277 19.8535 24.1553 19.1309Q24.8828 18.4082 24.8828 17.002L24.8828 10.5859Q24.8828 9.16992 24.1553 8.44727Q23.4277 7.72461 22.0117 7.72461L12.2559 7.72461Q10.8203 7.72461 10.0977 8.44727Q9.375 9.16992 9.375 10.5859L9.375 17.002Q9.375 18.418 10.0977 19.1357Q10.8203 19.8535 12.2559 19.8535ZM7.32422 3.94531Q7.28516 3.75 7.08008 3.61328Q6.875 3.47656 6.62109 3.73047L5.50781 4.82422L3.75977 3.07617Q3.62305 2.92969 3.41797 2.93457Q3.21289 2.93945 3.06641 3.07617Q2.92969 3.21289 2.92969 3.41797Q2.92969 3.62305 3.06641 3.75977L4.82422 5.50781L3.7207 6.62109Q3.4668 6.875 3.60352 7.08496Q3.74023 7.29492 3.94531 7.32422L7.36328 7.89062Q7.58789 7.92969 7.77344 7.77344Q7.92969 7.59766 7.89062 7.37305ZM12.666 14.1699L12.0898 10.752Q12.0605 10.5273 12.2168 10.3516Q12.3926 10.1953 12.6172 10.2344L16.0449 10.8008Q16.25 10.8301 16.3867 11.04Q16.5234 11.25 16.2695 11.5039L15.166 12.6172L16.9238 14.3555Q17.0605 14.502 17.0605 14.707Q17.0605 14.9121 16.9238 15.0488Q16.7773 15.1855 16.5771 15.1855Q16.377 15.1855 16.2305 15.0488L14.4824 13.291L13.3691 14.3945Q13.1152 14.6582 12.9053 14.5166Q12.6953 14.375 12.666 14.1699Z"
                     fill="rgba(255,255,255,0.55)" />
       </g>
</svg>