<svg width="24.8828" height="19.8535">
       <g>
              <rect height="19.8535" opacity="0" width="24.8828" x="0" y="0" />
              <path d="M2.88086 15.5957L9.88281 15.5957L9.88281 14.3945L2.90039 14.3945Q2.07031 14.3945 1.64062 13.96Q1.21094 13.5254 1.21094 12.6758L1.21094 2.94922Q1.21094 2.09961 1.64062 1.66504Q2.07031 1.23047 2.90039 1.23047L17.1094 1.23047Q17.9199 1.23047 18.3643 1.66504Q18.8086 2.09961 18.8086 2.94922L18.8086 8.26172L20.0098 8.26172L20.0098 2.88086Q20.0098 1.47461 19.2871 0.751953Q18.5645 0.0292969 17.1387 0.0292969L2.88086 0.0292969Q1.44531 0.0292969 0.722656 0.74707Q0 1.46484 0 2.88086L0 12.7441Q0 14.1602 0.722656 14.8779Q1.44531 15.5957 2.88086 15.5957Z"
                     fill="rgba(255,255,255,0.55)" />
              <path d="M12.2559 19.8535L22.0117 19.8535Q23.4277 19.8535 24.1553 19.1309Q24.8828 18.4082 24.8828 17.002L24.8828 10.5859Q24.8828 9.16992 24.1553 8.44727Q23.4277 7.72461 22.0117 7.72461L12.2559 7.72461Q10.8203 7.72461 10.0977 8.44727Q9.375 9.16992 9.375 10.5859L9.375 17.002Q9.375 18.418 10.0977 19.1357Q10.8203 19.8535 12.2559 19.8535Z"
                     fill="rgba(255,255,255,0.55)" />
              <path d="M14.4727 17.0605Q14.2188 17.0605 14.0381 16.8848Q13.8574 16.709 13.8574 16.4551Q13.8574 16.2109 14.043 16.0156L16.2695 13.7891L14.043 11.5625Q13.8574 11.3574 13.8574 11.123Q13.8574 10.8691 14.0381 10.6934Q14.2188 10.5176 14.4727 10.5176Q14.7168 10.5176 14.9121 10.7129L17.1387 12.9297L19.3652 10.7031Q19.5801 10.5078 19.8047 10.5078Q20.0684 10.5078 20.249 10.6836Q20.4297 10.8594 20.4297 11.1133Q20.4297 11.3672 20.2246 11.5527L18.0078 13.7891L20.2246 16.0156Q20.4199 16.2012 20.4199 16.4551Q20.4199 16.709 20.2393 16.8848Q20.0586 17.0605 19.8047 17.0605Q19.541 17.0605 19.3555 16.8652L17.1387 14.6582L14.9219 16.8652Q14.7363 17.0605 14.4727 17.0605Z"
                     fill="#ffffff" />
       </g>
</svg>