<svg width="24.8828" height="19.8535">
       <g>
              <rect height="19.8535" opacity="0" width="24.8828" x="0" y="0" />
              <path d="M2.88086 15.5957L9.88281 15.5957L9.88281 14.3945L2.90039 14.3945Q2.07031 14.3945 1.64062 13.96Q1.21094 13.5254 1.21094 12.6758L1.21094 2.94922Q1.21094 2.09961 1.64062 1.66504Q2.07031 1.23047 2.90039 1.23047L17.1094 1.23047Q17.9199 1.23047 18.3643 1.66504Q18.8086 2.09961 18.8086 2.94922L18.8086 8.26172L20.0098 8.26172L20.0098 2.88086Q20.0098 1.47461 19.2871 0.751953Q18.5645 0.0292969 17.1387 0.0292969L2.88086 0.0292969Q1.44531 0.0292969 0.722656 0.74707Q0 1.46484 0 2.88086L0 12.7441Q0 14.1602 0.722656 14.8779Q1.44531 15.5957 2.88086 15.5957Z"
                     fill="rgba(255,255,255,0.55)" />
              <path d="M12.2559 19.8535L22.0117 19.8535Q23.4277 19.8535 24.1553 19.1309Q24.8828 18.4082 24.8828 17.002L24.8828 10.5859Q24.8828 9.16992 24.1553 8.44727Q23.4277 7.72461 22.0117 7.72461L12.2559 7.72461Q10.8203 7.72461 10.0977 8.44727Q9.375 9.16992 9.375 10.5859L9.375 17.002Q9.375 18.418 10.0977 19.1357Q10.8203 19.8535 12.2559 19.8535ZM3.49609 6.88477Q3.52539 7.08984 3.74023 7.22656Q3.95508 7.36328 4.20898 7.10938L5.32227 6.00586L7.07031 7.76367Q7.20703 7.90039 7.41211 7.90039Q7.61719 7.90039 7.75391 7.76367Q7.90039 7.61719 7.90039 7.41699Q7.90039 7.2168 7.75391 7.07031L6.00586 5.32227L7.10938 4.20898Q7.36328 3.96484 7.22168 3.75Q7.08008 3.53516 6.88477 3.50586L3.45703 2.93945Q3.23242 2.90039 3.05664 3.05664Q2.90039 3.23242 2.93945 3.45703Z"
                     fill="rgba(255,255,255,0.55)" />
       </g>
</svg>