<svg width="23.7891" height="19.4043">
       <g>
              <rect height="19.4043" opacity="0" width="23.7891" x="0" y="0" />
              <path d="M2.28516 16.4258L21.5039 16.4258Q22.6465 16.4258 23.2178 15.8643Q23.7891 15.3027 23.7891 14.1406L23.7891 2.89062Q23.7891 1.72852 23.2178 1.16699Q22.6465 0.605469 21.5039 0.605469L2.28516 0.605469Q1.15234 0.605469 0.576172 1.16699Q0 1.72852 0 2.89062L0 14.1406Q0 15.3027 0.576172 15.8643Q1.15234 16.4258 2.28516 16.4258ZM7.08984 19.4043L16.6992 19.4043Q16.9434 19.4043 17.1289 19.2285Q17.3145 19.0527 17.3145 18.7891Q17.3145 18.5449 17.1289 18.3643Q16.9434 18.1836 16.6992 18.1836L7.08984 18.1836Q6.83594 18.1836 6.65527 18.3643Q6.47461 18.5449 6.47461 18.7891Q6.47461 19.0527 6.65527 19.2285Q6.83594 19.4043 7.08984 19.4043Z"
                     fill="rgba(255,255,255,0.55)" />
              <path d="M8.61328 12.6562L8.61328 4.375Q8.61328 4.02344 8.91113 3.90625Q9.20898 3.78906 9.50195 3.94531L16.3281 7.96875Q16.6504 8.16406 16.6553 8.51562Q16.6602 8.86719 16.3379 9.0625L9.50195 13.0859Q9.20898 13.252 8.91113 13.1348Q8.61328 13.0176 8.61328 12.6562Z"
                     fill="#ffffff" />
       </g>
</svg>