<svg width="19.5898" height="19.5996">
       <g>
              <rect height="19.5996" opacity="0" width="19.5898" x="0" y="0" />
              <path d="M9.79492 19.5898Q11.8066 19.5898 13.5791 18.8232Q15.3516 18.0566 16.7041 16.7041Q18.0566 15.3516 18.8232 13.5791Q19.5898 11.8066 19.5898 9.79492Q19.5898 7.7832 18.8232 6.01074Q18.0566 4.23828 16.7041 2.88574Q15.3516 1.5332 13.5742 0.766602Q11.7969 0 9.78516 0Q7.77344 0 6.00098 0.766602Q4.22852 1.5332 2.88086 2.88574Q1.5332 4.23828 0.766602 6.01074Q0 7.7832 0 9.79492Q0 11.8066 0.766602 13.5791Q1.5332 15.3516 2.88574 16.7041Q4.23828 18.0566 6.01074 18.8232Q7.7832 19.5898 9.79492 19.5898Z"
                     fill="rgba(255,255,255,0.55)" />
              <path d="M4.22852 13.6035Q3.92578 13.7891 3.6377 13.667Q3.34961 13.5449 3.34961 13.2227L3.34961 6.38672Q3.34961 6.07422 3.64746 5.95215Q3.94531 5.83008 4.22852 6.00586L9.45312 9.33594Q9.72656 9.50195 9.72656 9.80469Q9.72656 10.1074 9.45312 10.3027ZM11.1816 13.5352Q10.8496 13.5352 10.6885 13.3691Q10.5273 13.2031 10.5273 12.9395L10.5273 6.66016Q10.5273 6.06445 11.1816 6.06445L12.1484 6.06445Q12.8027 6.06445 12.8027 6.66016L12.8027 12.9395Q12.8027 13.2031 12.6416 13.3691Q12.4805 13.5352 12.1484 13.5352ZM14.668 13.5352Q14.3359 13.5352 14.1748 13.3691Q14.0137 13.2031 14.0137 12.9395L14.0137 6.66016Q14.0137 6.06445 14.668 6.06445L15.6445 6.06445Q15.9668 6.06445 16.123 6.23047Q16.2793 6.39648 16.2793 6.66016L16.2793 12.9395Q16.2793 13.2031 16.123 13.3691Q15.9668 13.5352 15.6445 13.5352Z"
                     fill="#ffffff" />
       </g>
</svg>