<svg width="22.8711" height="17.6855">
       <g>
              <rect height="17.6855" opacity="0" width="22.8711" x="0" y="0" />
              <path d="M2.88086 17.6855L19.9902 17.6855Q21.4258 17.6855 22.1484 16.9629Q22.8711 16.2402 22.8711 14.834L22.8711 2.85156Q22.8711 1.44531 22.1484 0.722656Q21.4258 0 19.9902 0L2.88086 0Q1.44531 0 0.722656 0.717773Q0 1.43555 0 2.85156L0 14.834Q0 16.25 0.722656 16.9678Q1.44531 17.6855 2.88086 17.6855Z"
                     fill="rgba(255,255,255,0.55)" />
              <path d="M9.57031 12.7539Q9.25781 12.9395 8.96484 12.8125Q8.67188 12.6855 8.67188 12.3633L8.67188 5.3418Q8.67188 5.01953 8.97461 4.90234Q9.27734 4.78516 9.57031 4.96094L15.2637 8.36914Q15.5469 8.54492 15.5469 8.8623Q15.5469 9.17969 15.2637 9.36523Z"
                     fill="#ffffff" />
       </g>
</svg>