<svg width="17.6855" height="17.7051">
       <g>
              <rect height="17.7051" opacity="0" width="17.6855" x="0" y="0" />
              <path d="M2.88086 17.7051L14.8047 17.7051Q16.2305 17.7051 16.958 16.9873Q17.6855 16.2695 17.6855 14.8535L17.6855 2.88086Q17.6855 1.46484 16.958 0.742188Q16.2305 0.0195312 14.8047 0.0195312L2.88086 0.0195312Q1.44531 0.0195312 0.722656 0.737305Q0 1.45508 0 2.88086L0 14.8535Q0 16.2695 0.722656 16.9873Q1.44531 17.7051 2.88086 17.7051Z"
                     fill="rgba(255,255,255,0.55)" />
              <path d="M6.97266 12.7539Q6.66016 12.9395 6.36719 12.8125Q6.07422 12.6855 6.07422 12.3633L6.07422 5.3418Q6.07422 5.01953 6.37695 4.90234Q6.67969 4.78516 6.97266 4.96094L12.666 8.36914Q12.9492 8.54492 12.9492 8.8623Q12.9492 9.17969 12.666 9.36523Z"
                     fill="#ffffff" />
       </g>
</svg>