<svg width="23.9453" height="19.248">
       <g>
              <rect height="19.248" opacity="0" width="23.9453" x="0" y="0" />
              <path d="M2.88086 14.9902L5.14648 14.9902L5.14648 13.7891L2.90039 13.7891Q2.07031 13.7891 1.64062 13.3594Q1.21094 12.9297 1.21094 12.0801L1.21094 2.91992Q1.21094 2.07031 1.64062 1.64062Q2.07031 1.21094 2.90039 1.21094L16.1719 1.21094Q16.9727 1.21094 17.4219 1.64062Q17.8711 2.07031 17.8711 2.91992L17.8711 4.74609L19.082 4.74609L19.082 2.85156Q19.082 1.44531 18.3545 0.722656Q17.627 0 16.2012 0L2.88086 0Q1.44531 0 0.722656 0.717773Q0 1.43555 0 2.85156L0 12.1387Q0 13.5547 0.722656 14.2725Q1.44531 14.9902 2.88086 14.9902Z"
                     fill="rgba(255,255,255,0.55)" />
              <path d="M7.50977 19.248L21.0645 19.248Q22.4902 19.248 23.2178 18.5254Q23.9453 17.8027 23.9453 16.3965L23.9453 7.10938Q23.9453 5.70312 23.2178 4.98047Q22.4902 4.25781 21.0645 4.25781L7.50977 4.25781Q6.07422 4.25781 5.35156 4.97559Q4.62891 5.69336 4.62891 7.10938L4.62891 16.3965Q4.62891 17.8125 5.35156 18.5303Q6.07422 19.248 7.50977 19.248ZM7.5293 18.0469Q6.69922 18.0469 6.26465 17.6172Q5.83008 17.1875 5.83008 16.3379L5.83008 7.17773Q5.83008 6.32812 6.26465 5.89355Q6.69922 5.45898 7.5293 5.45898L21.0352 5.45898Q21.8457 5.45898 22.29 5.89355Q22.7344 6.32812 22.7344 7.17773L22.7344 16.3379Q22.7344 17.1875 22.29 17.6172Q21.8457 18.0469 21.0352 18.0469ZM11.5234 15.3027Q11.5234 15.6055 11.7773 15.7129Q12.0312 15.8203 12.2852 15.6738L18.2227 12.1777Q18.4766 12.0215 18.4717 11.7578Q18.4668 11.4941 18.2227 11.3477L12.2852 7.85156Q12.0312 7.70508 11.7773 7.80762Q11.5234 7.91016 11.5234 8.21289Z"
                     fill="rgba(255,255,255,0.55)" />
       </g>
</svg>