<svg width="19.5898" height="19.5996">
       <g>
              <rect height="19.5996" opacity="0" width="19.5898" x="0" y="0" />
              <path d="M9.79492 19.5898Q11.8066 19.5898 13.5791 18.8232Q15.3516 18.0566 16.7041 16.7041Q18.0566 15.3516 18.8232 13.5791Q19.5898 11.8066 19.5898 9.79492Q19.5898 7.7832 18.8232 6.01074Q18.0566 4.23828 16.7041 2.88574Q15.3516 1.5332 13.5742 0.766602Q11.7969 0 9.78516 0Q7.77344 0 6.00098 0.766602Q4.22852 1.5332 2.88086 2.88574Q1.5332 4.23828 0.766602 6.01074Q0 7.7832 0 9.79492Q0 11.8066 0.766602 13.5791Q1.5332 15.3516 2.88574 16.7041Q4.23828 18.0566 6.01074 18.8232Q7.7832 19.5898 9.79492 19.5898Z"
                     fill="rgba(255,255,255,0.55)" />
              <path d="M7.45117 14.3945Q6.79688 14.3945 6.46973 14.0674Q6.14258 13.7402 6.14258 13.0957L6.14258 8.34961Q6.14258 7.71484 6.46973 7.3877Q6.79688 7.06055 7.45117 7.06055L14.2871 7.06055Q14.9414 7.06055 15.2686 7.3877Q15.5957 7.71484 15.5957 8.34961L15.5957 13.0957Q15.5957 13.7402 15.2686 14.0674Q14.9414 14.3945 14.2871 14.3945ZM9.49219 12.5098Q9.49219 12.666 9.61426 12.7197Q9.73633 12.7734 9.87305 12.6953L12.8418 10.9473Q12.959 10.8789 12.9541 10.7422Q12.9492 10.6055 12.832 10.5469L9.87305 8.78906Q9.73633 8.7207 9.61426 8.76953Q9.49219 8.81836 9.49219 8.97461ZM5.63477 8.30078L5.63477 12.3438L5.29297 12.3438Q4.64844 12.3438 4.32129 12.0215Q3.99414 11.6992 3.99414 11.0645L3.99414 6.33789Q3.99414 5.69336 4.32129 5.37109Q4.64844 5.04883 5.29297 5.04883L12.1387 5.04883Q12.793 5.04883 13.1152 5.37109Q13.4375 5.69336 13.4375 6.33789L13.4375 6.55273L7.40234 6.54297Q6.52344 6.54297 6.0791 6.99219Q5.63477 7.44141 5.63477 8.30078Z"
                     fill="#ffffff" />
       </g>
</svg>