<svg width="23.9453" height="19.248">
       <g>
              <rect height="19.248" opacity="0" width="23.9453" x="0" y="0" />
              <path d="M7.50977 19.248L21.0645 19.248Q22.4902 19.248 23.2178 18.5254Q23.9453 17.8027 23.9453 16.3965L23.9453 7.10938Q23.9453 5.70312 23.2178 4.98047Q22.4902 4.25781 21.0645 4.25781L7.50977 4.25781Q6.07422 4.25781 5.35156 4.97559Q4.62891 5.69336 4.62891 7.10938L4.62891 16.3965Q4.62891 17.8125 5.35156 18.5303Q6.07422 19.248 7.50977 19.248ZM7.50977 3.125L19.082 3.125L19.082 2.85156Q19.082 1.44531 18.3545 0.722656Q17.627 0 16.2012 0L2.88086 0Q1.44531 0 0.722656 0.717773Q0 1.43555 0 2.85156L0 12.1387Q0 13.5547 0.722656 14.2725Q1.44531 14.9902 2.88086 14.9902L3.48633 14.9902L3.48633 7.10938Q3.48633 5.84961 3.96484 4.95605Q4.44336 4.0625 5.33691 3.59375Q6.23047 3.125 7.50977 3.125Z"
                     fill="rgba(255,255,255,0.55)" />
              <path d="M11.4551 15.3711L11.4551 8.14453Q11.4551 7.83203 11.7139 7.72949Q11.9727 7.62695 12.2363 7.7832L18.2812 11.3379Q18.5352 11.4844 18.54 11.7578Q18.5449 12.0312 18.291 12.1777L12.2363 15.752Q11.9727 15.8984 11.7139 15.7861Q11.4551 15.6738 11.4551 15.3711Z"
                     fill="#ffffff" />
       </g>
</svg>