<svg width="19.5898" height="19.5996">
       <g>
              <rect height="19.5996" opacity="0" width="19.5898" x="0" y="0" />
              <path d="M9.79492 19.5898Q11.8066 19.5898 13.5791 18.8232Q15.3516 18.0566 16.7041 16.7041Q18.0566 15.3516 18.8232 13.5791Q19.5898 11.8066 19.5898 9.79492Q19.5898 7.7832 18.8232 6.01074Q18.0566 4.23828 16.7041 2.88574Q15.3516 1.5332 13.5742 0.766602Q11.7969 0 9.78516 0Q7.77344 0 6.00098 0.766602Q4.22852 1.5332 2.88086 2.88574Q1.5332 4.23828 0.766602 6.01074Q0 7.7832 0 9.79492Q0 11.8066 0.766602 13.5791Q1.5332 15.3516 2.88574 16.7041Q4.23828 18.0566 6.01074 18.8232Q7.7832 19.5898 9.79492 19.5898ZM9.79492 18.3203Q8.02734 18.3203 6.47949 17.6611Q4.93164 17.002 3.75977 15.8301Q2.58789 14.6582 1.92871 13.1104Q1.26953 11.5625 1.26953 9.79492Q1.26953 8.02734 1.92871 6.47949Q2.58789 4.93164 3.75977 3.75488Q4.93164 2.57812 6.47461 1.91895Q8.01758 1.25977 9.78516 1.25977Q11.5625 1.25977 13.1104 1.91895Q14.6582 2.57812 15.8301 3.75488Q17.002 4.93164 17.666 6.47949Q18.3301 8.02734 18.3301 9.79492Q18.3301 11.5625 17.666 13.1104Q17.002 14.6582 15.8301 15.8301Q14.6582 17.002 13.1152 17.6611Q11.5723 18.3203 9.79492 18.3203Z"
                     fill="#32d74b" />
              <path d="M5.35156 9.79492Q5.35156 10.0586 5.53223 10.2344Q5.71289 10.4102 5.99609 10.4102L9.16016 10.4102L9.16016 13.584Q9.16016 13.8574 9.33594 14.0381Q9.51172 14.2188 9.77539 14.2188Q10.0586 14.2188 10.2344 14.043Q10.4102 13.8672 10.4102 13.584L10.4102 10.4102L13.5938 10.4102Q13.8672 10.4102 14.0479 10.2344Q14.2285 10.0586 14.2285 9.79492Q14.2285 9.51172 14.0527 9.33105Q13.877 9.15039 13.5938 9.15039L10.4102 9.15039L10.4102 5.98633Q10.4102 5.69336 10.2344 5.51758Q10.0586 5.3418 9.77539 5.3418Q9.51172 5.3418 9.33594 5.52246Q9.16016 5.70312 9.16016 5.98633L9.16016 9.15039L5.99609 9.15039Q5.70312 9.15039 5.52734 9.33105Q5.35156 9.51172 5.35156 9.79492Z"
                     fill="#32d74b" />
       </g>
</svg>