<svg width="21.2012" height="21.0449">
       <g>
              <rect height="21.0449" opacity="0" width="21.2012" x="0" y="0" />
              <path d="M5.46875 21.0449Q5.70312 21.0449 5.89844 20.9229Q6.09375 20.8008 6.35742 20.5566L9.89258 17.4023L17.0508 17.4023Q18.3789 17.4023 19.3018 16.9092Q20.2246 16.416 20.7129 15.4932Q21.2012 14.5703 21.2012 13.2617L21.2012 5.41016Q21.2012 4.10156 20.7129 3.17383Q20.2246 2.24609 19.3018 1.75293Q18.3789 1.25977 17.0508 1.25977L4.15039 1.25977Q2.82227 1.25977 1.89453 1.75293Q0.966797 2.24609 0.483398 3.16895Q0 4.0918 0 5.41016L0 13.2617Q0 14.5703 0.483398 15.498Q0.966797 16.4258 1.89453 16.9141Q2.82227 17.4023 4.15039 17.4023L4.76562 17.4023L4.76562 20.2344Q4.76562 20.6055 4.95117 20.8252Q5.13672 21.0449 5.46875 21.0449Z"
                     fill="rgba(255,255,255,0.55)" />
              <path d="M6.00586 9.33594Q6.00586 9.04297 6.19141 8.85742Q6.37695 8.67188 6.66992 8.67188L9.95117 8.67188L9.95117 5.39062Q9.95117 5.09766 10.1318 4.91211Q10.3125 4.72656 10.5859 4.72656Q10.8789 4.72656 11.0645 4.91211Q11.25 5.09766 11.25 5.39062L11.25 8.67188L14.541 8.67188Q14.834 8.67188 15.0195 8.85742Q15.2051 9.04297 15.2051 9.33594Q15.2051 9.60938 15.0146 9.79004Q14.8242 9.9707 14.541 9.9707L11.25 9.9707L11.25 13.2617Q11.25 13.5547 11.0645 13.7354Q10.8789 13.916 10.5859 13.916Q10.3125 13.916 10.1318 13.7305Q9.95117 13.5449 9.95117 13.2617L9.95117 9.9707L6.66992 9.9707Q6.38672 9.9707 6.19629 9.79004Q6.00586 9.60938 6.00586 9.33594Z"
                     fill="#ffffff" />
       </g>
</svg>