<svg width="17.6855" height="17.7051">
       <g>
              <rect height="17.7051" opacity="0" width="17.6855" x="0" y="0" />
              <path d="M2.88086 17.7051L14.8047 17.7051Q16.2305 17.7051 16.958 16.9873Q17.6855 16.2695 17.6855 14.8535L17.6855 2.88086Q17.6855 1.46484 16.958 0.742188Q16.2305 0.0195312 14.8047 0.0195312L2.88086 0.0195312Q1.44531 0.0195312 0.722656 0.737305Q0 1.45508 0 2.88086L0 14.8535Q0 16.2695 0.722656 16.9873Q1.44531 17.7051 2.88086 17.7051ZM2.90039 16.4941Q2.07031 16.4941 1.64062 16.0645Q1.21094 15.6348 1.21094 14.7949L1.21094 2.93945Q1.21094 2.08984 1.64062 1.66016Q2.07031 1.23047 2.90039 1.23047L14.7852 1.23047Q15.5859 1.23047 16.0303 1.66016Q16.4746 2.08984 16.4746 2.93945L16.4746 14.7949Q16.4746 15.6348 16.0303 16.0645Q15.5859 16.4941 14.7852 16.4941Z"
                     fill="#32d74b" />
              <path d="M4.41406 8.84766Q4.41406 9.11133 4.59473 9.28711Q4.77539 9.46289 5.05859 9.46289L8.22266 9.46289L8.22266 12.6367Q8.22266 12.9102 8.39844 13.0908Q8.57422 13.2715 8.83789 13.2715Q9.12109 13.2715 9.29688 13.0957Q9.47266 12.9199 9.47266 12.6367L9.47266 9.46289L12.6562 9.46289Q12.9297 9.46289 13.1104 9.28711Q13.291 9.11133 13.291 8.84766Q13.291 8.56445 13.1152 8.38379Q12.9395 8.20312 12.6562 8.20312L9.47266 8.20312L9.47266 5.03906Q9.47266 4.74609 9.29688 4.57031Q9.12109 4.39453 8.83789 4.39453Q8.57422 4.39453 8.39844 4.5752Q8.22266 4.75586 8.22266 5.03906L8.22266 8.20312L5.05859 8.20312Q4.76562 8.20312 4.58984 8.38379Q4.41406 8.56445 4.41406 8.84766Z"
                     fill="#32d74b" />
       </g>
</svg>