<svg width="17.4609" height="17.4512">
       <g>
              <rect height="17.4512" opacity="0" width="17.4609" x="0" y="0" />
              <path d="M16.3672 1.09375Q15.6836 0.419922 14.7217 0.209961Q13.7598 0 12.4316 0L4.96094 0Q3.69141 0 2.73438 0.209961Q1.77734 0.419922 1.09375 1.10352Q0.419922 1.77734 0.209961 2.72461Q0 3.67188 0 4.96094L0 12.4316Q0 13.7598 0.205078 14.7217Q0.410156 15.6836 1.08398 16.3477Q1.77734 17.0312 2.73438 17.2412Q3.69141 17.4512 5.01953 17.4512L12.4316 17.4512Q13.7598 17.4512 14.7266 17.2412Q15.6934 17.0312 16.3672 16.3477Q17.0508 15.6836 17.2559 14.7217Q17.4609 13.7598 17.4609 12.4316L17.4609 5.01953Q17.4609 3.69141 17.2559 2.72949Q17.0508 1.76758 16.3672 1.09375Z"
                     fill="rgba(255,255,255,0.55)" />
              <path d="M4.14062 8.73047Q4.14062 8.4375 4.32617 8.25195Q4.51172 8.06641 4.80469 8.06641L8.08594 8.06641L8.08594 4.78516Q8.08594 4.49219 8.2666 4.30664Q8.44727 4.12109 8.7207 4.12109Q9.01367 4.12109 9.19922 4.30664Q9.38477 4.49219 9.38477 4.78516L9.38477 8.06641L12.6758 8.06641Q12.9688 8.06641 13.1543 8.25195Q13.3398 8.4375 13.3398 8.73047Q13.3398 9.00391 13.1494 9.18457Q12.959 9.36523 12.6758 9.36523L9.38477 9.36523L9.38477 12.6562Q9.38477 12.9492 9.19922 13.1299Q9.01367 13.3105 8.7207 13.3105Q8.44727 13.3105 8.2666 13.125Q8.08594 12.9395 8.08594 12.6562L8.08594 9.36523L4.80469 9.36523Q4.52148 9.36523 4.33105 9.18457Q4.14062 9.00391 4.14062 8.73047Z"
                     fill="#ffffff" />
       </g>
</svg>