<svg width="19.5898" height="19.5996">
       <g>
              <rect height="19.5996" opacity="0" width="19.5898" x="0" y="0" />
              <path d="M9.79492 19.5898Q11.8066 19.5898 13.5791 18.8232Q15.3516 18.0566 16.7041 16.7041Q18.0566 15.3516 18.8232 13.5791Q19.5898 11.8066 19.5898 9.79492Q19.5898 7.7832 18.8232 6.01074Q18.0566 4.23828 16.7041 2.88574Q15.3516 1.5332 13.5742 0.766602Q11.7969 0 9.78516 0Q7.77344 0 6.00098 0.766602Q4.22852 1.5332 2.88086 2.88574Q1.5332 4.23828 0.766602 6.01074Q0 7.7832 0 9.79492Q0 11.8066 0.766602 13.5791Q1.5332 15.3516 2.88574 16.7041Q4.23828 18.0566 6.01074 18.8232Q7.7832 19.5898 9.79492 19.5898Z"
                     fill="#32d74b" />
              <path d="M5.20508 9.80469Q5.20508 9.51172 5.39062 9.32617Q5.57617 9.14062 5.86914 9.14062L9.15039 9.14062L9.15039 5.85938Q9.15039 5.56641 9.33105 5.38086Q9.51172 5.19531 9.78516 5.19531Q10.0781 5.19531 10.2637 5.38086Q10.4492 5.56641 10.4492 5.85938L10.4492 9.14062L13.7402 9.14062Q14.0332 9.14062 14.2188 9.32617Q14.4043 9.51172 14.4043 9.80469Q14.4043 10.0781 14.2139 10.2588Q14.0234 10.4395 13.7402 10.4395L10.4492 10.4395L10.4492 13.7305Q10.4492 14.0234 10.2637 14.2041Q10.0781 14.3848 9.78516 14.3848Q9.51172 14.3848 9.33105 14.1992Q9.15039 14.0137 9.15039 13.7305L9.15039 10.4395L5.86914 10.4395Q5.58594 10.4395 5.39551 10.2588Q5.20508 10.0781 5.20508 9.80469Z"
                     fill="#ffffff" />
       </g>
</svg>