<svg width="23.9453" height="19.248">
       <g>
              <rect height="19.248" opacity="0" width="23.9453" x="0" y="0" />
              <path d="M7.50977 19.248L21.0645 19.248Q22.4902 19.248 23.2178 18.5254Q23.9453 17.8027 23.9453 16.3965L23.9453 7.10938Q23.9453 5.70312 23.2178 4.98047Q22.4902 4.25781 21.0645 4.25781L7.50977 4.25781Q6.07422 4.25781 5.35156 4.97559Q4.62891 5.69336 4.62891 7.10938L4.62891 16.3965Q4.62891 17.8125 5.35156 18.5303Q6.07422 19.248 7.50977 19.248ZM7.50977 3.125L19.082 3.125L19.082 2.85156Q19.082 1.44531 18.3545 0.722656Q17.627 0 16.2012 0L2.88086 0Q1.44531 0 0.722656 0.717773Q0 1.43555 0 2.85156L0 12.1387Q0 13.5547 0.722656 14.2725Q1.44531 14.9902 2.88086 14.9902L3.48633 14.9902L3.48633 7.10938Q3.48633 5.84961 3.96484 4.95605Q4.44336 4.0625 5.33691 3.59375Q6.23047 3.125 7.50977 3.125Z"
                     fill="rgba(255,255,255,0.55)" />
              <path d="M9.6875 11.7578Q9.6875 11.4648 9.87305 11.2793Q10.0586 11.0938 10.3516 11.0938L13.6328 11.0938L13.6328 7.8125Q13.6328 7.51953 13.8135 7.33398Q13.9941 7.14844 14.2676 7.14844Q14.5605 7.14844 14.7461 7.33398Q14.9316 7.51953 14.9316 7.8125L14.9316 11.0938L18.2227 11.0938Q18.5156 11.0938 18.7012 11.2793Q18.8867 11.4648 18.8867 11.7578Q18.8867 12.0312 18.6963 12.2119Q18.5059 12.3926 18.2227 12.3926L14.9316 12.3926L14.9316 15.6836Q14.9316 15.9766 14.7461 16.1572Q14.5605 16.3379 14.2676 16.3379Q13.9941 16.3379 13.8135 16.1523Q13.6328 15.9668 13.6328 15.6836L13.6328 12.3926L10.3516 12.3926Q10.0684 12.3926 9.87793 12.2119Q9.6875 12.0312 9.6875 11.7578Z"
                     fill="#ffffff" />
       </g>
</svg>