<svg width="20.3027" height="19.8535">
       <g>
              <rect height="19.8535" opacity="0" width="20.3027" x="0" y="0" />
              <path d="M7.61719 19.8535L17.4316 19.8535Q18.8477 19.8535 19.5752 19.1309Q20.3027 18.4082 20.3027 17.002L20.3027 7.13867Q20.3027 5.73242 19.5752 5.00977Q18.8477 4.28711 17.4316 4.28711L7.61719 4.28711Q6.18164 4.28711 5.45898 5.00488Q4.73633 5.72266 4.73633 7.13867L4.73633 17.002Q4.73633 18.418 5.45898 19.1357Q6.18164 19.8535 7.61719 19.8535ZM0 12.7441Q0 14.1602 0.722656 14.8779Q1.44531 15.5957 2.88086 15.5957L3.59375 15.5957L3.59375 7.13867Q3.59375 5.87891 4.07227 4.98535Q4.55078 4.0918 5.44922 3.62305Q6.34766 3.1543 7.61719 3.1543L15.5664 3.1543L15.5664 2.88086Q15.5664 1.47461 14.8389 0.751953Q14.1113 0.0292969 12.6855 0.0292969L2.88086 0.0292969Q1.44531 0.0292969 0.722656 0.74707Q0 1.46484 0 2.88086Z"
                     fill="rgba(255,255,255,0.55)" />
              <path d="M7.92969 12.0703Q7.92969 11.7773 8.11523 11.5918Q8.30078 11.4062 8.59375 11.4062L11.875 11.4062L11.875 8.125Q11.875 7.83203 12.0557 7.64648Q12.2363 7.46094 12.5098 7.46094Q12.8027 7.46094 12.9883 7.64648Q13.1738 7.83203 13.1738 8.125L13.1738 11.4062L16.4648 11.4062Q16.7578 11.4062 16.9434 11.5918Q17.1289 11.7773 17.1289 12.0703Q17.1289 12.3438 16.9385 12.5244Q16.748 12.7051 16.4648 12.7051L13.1738 12.7051L13.1738 15.9961Q13.1738 16.2891 12.9883 16.4697Q12.8027 16.6504 12.5098 16.6504Q12.2363 16.6504 12.0557 16.4648Q11.875 16.2793 11.875 15.9961L11.875 12.7051L8.59375 12.7051Q8.31055 12.7051 8.12012 12.5244Q7.92969 12.3438 7.92969 12.0703Z"
                     fill="#ffffff" />
       </g>
</svg>