<svg width="17.6855" height="17.7051">
       <g>
              <rect height="17.7051" opacity="0" width="17.6855" x="0" y="0" />
              <path d="M2.88086 17.7051L14.8047 17.7051Q16.2305 17.7051 16.958 16.9873Q17.6855 16.2695 17.6855 14.8535L17.6855 2.88086Q17.6855 1.46484 16.958 0.742188Q16.2305 0.0195312 14.8047 0.0195312L2.88086 0.0195312Q1.44531 0.0195312 0.722656 0.737305Q0 1.45508 0 2.88086L0 14.8535Q0 16.2695 0.722656 16.9873Q1.44531 17.7051 2.88086 17.7051Z"
                     fill="#32d74b" />
              <path d="M4.24805 8.85742Q4.24805 8.56445 4.43359 8.37891Q4.61914 8.19336 4.91211 8.19336L8.19336 8.19336L8.19336 4.91211Q8.19336 4.61914 8.37402 4.43359Q8.55469 4.24805 8.82812 4.24805Q9.12109 4.24805 9.30664 4.43359Q9.49219 4.61914 9.49219 4.91211L9.49219 8.19336L12.7832 8.19336Q13.0762 8.19336 13.2617 8.37891Q13.4473 8.56445 13.4473 8.85742Q13.4473 9.13086 13.2568 9.31152Q13.0664 9.49219 12.7832 9.49219L9.49219 9.49219L9.49219 12.7832Q9.49219 13.0762 9.30664 13.2568Q9.12109 13.4375 8.82812 13.4375Q8.55469 13.4375 8.37402 13.252Q8.19336 13.0664 8.19336 12.7832L8.19336 9.49219L4.91211 9.49219Q4.62891 9.49219 4.43848 9.31152Q4.24805 9.13086 4.24805 8.85742Z"
                     fill="#ffffff" />
       </g>
</svg>