<svg width="21.7432" height="21.7579">
       <g>
              <rect height="21.7579" opacity="0" width="21.7432" x="0" y="0" />
              <path d="M1.02053 12.9053L8.85256 20.7276Q9.85842 21.7432 10.8789 21.7481Q11.8994 21.753 12.9053 20.7471L20.7471 12.8955Q21.7432 11.8994 21.7432 10.874Q21.7432 9.84866 20.7373 8.83303L12.9248 1.02053Q11.8994 0.00490618 10.8838 2.33627e-05Q9.86819-0.00485945 8.86233 1.01077L1.001 8.85256Q-0.00485922 9.86819 2.35885e-05 10.8789Q0.0049064 11.8897 1.02053 12.9053Z"
                     fill="#32d74b" />
              <path d="M6.27444 10.8838Q6.27444 10.5908 6.45998 10.4053Q6.64553 10.2197 6.9385 10.2197L10.2198 10.2197L10.2198 6.9385Q10.2198 6.64553 10.4004 6.45998Q10.5811 6.27444 10.8545 6.27444Q11.1475 6.27444 11.333 6.45998Q11.5186 6.64553 11.5186 6.9385L11.5186 10.2197L14.8096 10.2197Q15.1026 10.2197 15.2881 10.4053Q15.4737 10.5908 15.4737 10.8838Q15.4737 11.1572 15.2832 11.3379Q15.0928 11.5186 14.8096 11.5186L11.5186 11.5186L11.5186 14.8096Q11.5186 15.1026 11.333 15.2832Q11.1475 15.4639 10.8545 15.4639Q10.5811 15.4639 10.4004 15.2783Q10.2198 15.0928 10.2198 14.8096L10.2198 11.5186L6.9385 11.5186Q6.6553 11.5186 6.46487 11.3379Q6.27444 11.1572 6.27444 10.8838Z"
                     fill="#ffffff" />
       </g>
</svg>