<svg width="22.8711" height="17.6855">
       <g>
              <rect height="17.6855" opacity="0" width="22.8711" x="0" y="0" />
              <path d="M2.88086 17.6855L19.9902 17.6855Q21.4258 17.6855 22.1484 16.9629Q22.8711 16.2402 22.8711 14.834L22.8711 2.85156Q22.8711 1.44531 22.1484 0.722656Q21.4258 0 19.9902 0L2.88086 0Q1.44531 0 0.722656 0.717773Q0 1.43555 0 2.85156L0 14.834Q0 16.25 0.722656 16.9678Q1.44531 17.6855 2.88086 17.6855ZM2.90039 16.4746Q2.07031 16.4746 1.64062 16.0449Q1.21094 15.6152 1.21094 14.7656L1.21094 2.91992Q1.21094 2.07031 1.64062 1.64062Q2.07031 1.21094 2.90039 1.21094L19.9707 1.21094Q20.7715 1.21094 21.2158 1.64062Q21.6602 2.07031 21.6602 2.91992L21.6602 14.7656Q21.6602 15.6152 21.2158 16.0449Q20.7715 16.4746 19.9707 16.4746Z"
                     fill="#32d74b" />
              <path d="M7.00195 8.83789Q7.00195 9.10156 7.18262 9.27734Q7.36328 9.45312 7.64648 9.45312L10.8105 9.45312L10.8105 12.627Q10.8105 12.9004 10.9863 13.0811Q11.1621 13.2617 11.4258 13.2617Q11.709 13.2617 11.8848 13.0859Q12.0605 12.9102 12.0605 12.627L12.0605 9.45312L15.2441 9.45312Q15.5176 9.45312 15.6982 9.27734Q15.8789 9.10156 15.8789 8.83789Q15.8789 8.55469 15.7031 8.37402Q15.5273 8.19336 15.2441 8.19336L12.0605 8.19336L12.0605 5.0293Q12.0605 4.73633 11.8848 4.56055Q11.709 4.38477 11.4258 4.38477Q11.1621 4.38477 10.9863 4.56543Q10.8105 4.74609 10.8105 5.0293L10.8105 8.19336L7.64648 8.19336Q7.35352 8.19336 7.17773 8.37402Q7.00195 8.55469 7.00195 8.83789Z"
                     fill="#32d74b" />
       </g>
</svg>