<svg width="16.1426" height="20.8105">
       <g>
              <rect height="20.8105" opacity="0" width="16.1426" x="0" y="0" />
              <path d="M0 17.9395Q0 19.375 0.717773 20.0928Q1.43555 20.8105 2.85156 20.8105L13.291 20.8105Q14.7168 20.8105 15.4297 20.0928Q16.1426 19.375 16.1426 17.9395L16.1426 2.88086Q16.1426 1.45508 15.4297 0.727539Q14.7168 0 13.291 0L2.85156 0Q1.43555 0 0.717773 0.727539Q0 1.45508 0 2.88086Z"
                     fill="#32d74b" />
              <path d="M3.47656 10.4199Q3.47656 10.127 3.66211 9.94141Q3.84766 9.75586 4.14062 9.75586L7.42188 9.75586L7.42188 6.47461Q7.42188 6.18164 7.60254 5.99609Q7.7832 5.81055 8.05664 5.81055Q8.34961 5.81055 8.53516 5.99609Q8.7207 6.18164 8.7207 6.47461L8.7207 9.75586L12.0117 9.75586Q12.3047 9.75586 12.4902 9.94141Q12.6758 10.127 12.6758 10.4199Q12.6758 10.6934 12.4854 10.874Q12.2949 11.0547 12.0117 11.0547L8.7207 11.0547L8.7207 14.3457Q8.7207 14.6387 8.53516 14.8193Q8.34961 15 8.05664 15Q7.7832 15 7.60254 14.8145Q7.42188 14.6289 7.42188 14.3457L7.42188 11.0547L4.14062 11.0547Q3.85742 11.0547 3.66699 10.874Q3.47656 10.6934 3.47656 10.4199Z"
                     fill="#ffffff" />
       </g>
</svg>