<svg width="23.9453" height="19.248">
       <g>
              <rect height="19.248" opacity="0" width="23.9453" x="0" y="0" />
              <path d="M2.88086 14.9902L5.14648 14.9902L5.14648 13.7891L2.90039 13.7891Q2.07031 13.7891 1.64062 13.3594Q1.21094 12.9297 1.21094 12.0801L1.21094 2.91992Q1.21094 2.07031 1.64062 1.64062Q2.07031 1.21094 2.90039 1.21094L16.1719 1.21094Q16.9727 1.21094 17.4219 1.64062Q17.8711 2.07031 17.8711 2.91992L17.8711 4.74609L19.082 4.74609L19.082 2.85156Q19.082 1.44531 18.3545 0.722656Q17.627 0 16.2012 0L2.88086 0Q1.44531 0 0.722656 0.717773Q0 1.43555 0 2.85156L0 12.1387Q0 13.5547 0.722656 14.2725Q1.44531 14.9902 2.88086 14.9902Z"
                     fill="rgba(255,255,255,0.55)" />
              <path d="M7.50977 19.248L21.0645 19.248Q22.4902 19.248 23.2178 18.5254Q23.9453 17.8027 23.9453 16.3965L23.9453 7.10938Q23.9453 5.70312 23.2178 4.98047Q22.4902 4.25781 21.0645 4.25781L7.50977 4.25781Q6.07422 4.25781 5.35156 4.97559Q4.62891 5.69336 4.62891 7.10938L4.62891 16.3965Q4.62891 17.8125 5.35156 18.5303Q6.07422 19.248 7.50977 19.248ZM7.5293 18.0469Q6.69922 18.0469 6.26465 17.6172Q5.83008 17.1875 5.83008 16.3379L5.83008 7.17773Q5.83008 6.32812 6.26465 5.89355Q6.69922 5.45898 7.5293 5.45898L21.0352 5.45898Q21.8457 5.45898 22.29 5.89355Q22.7344 6.32812 22.7344 7.17773L22.7344 16.3379Q22.7344 17.1875 22.29 17.6172Q21.8457 18.0469 21.0352 18.0469ZM9.85352 11.7578Q9.85352 12.0215 10.0342 12.1973Q10.2148 12.373 10.498 12.373L13.6621 12.373L13.6621 15.5469Q13.6621 15.8203 13.8379 16.001Q14.0137 16.1816 14.2773 16.1816Q14.5605 16.1816 14.7363 16.0059Q14.9121 15.8301 14.9121 15.5469L14.9121 12.373L18.0957 12.373Q18.3691 12.373 18.5498 12.1973Q18.7305 12.0215 18.7305 11.7578Q18.7305 11.4746 18.5547 11.2939Q18.3789 11.1133 18.0957 11.1133L14.9121 11.1133L14.9121 7.94922Q14.9121 7.65625 14.7363 7.48047Q14.5605 7.30469 14.2773 7.30469Q14.0137 7.30469 13.8379 7.48535Q13.6621 7.66602 13.6621 7.94922L13.6621 11.1133L10.498 11.1133Q10.2051 11.1133 10.0293 11.2939Q9.85352 11.4746 9.85352 11.7578Z"
                     fill="rgba(255,255,255,0.55)" />
       </g>
</svg>