<svg width="26.1719" height="19.4629">
       <g>
              <rect height="19.4629" opacity="0" width="26.1719" x="0" y="0" />
              <path d="M2.88086 18.457L19.1992 18.457Q20.4785 18.457 21.1816 17.7393Q21.8848 17.0215 21.8848 15.6055L21.8848 10.8594L20.6738 10.8594L20.6738 15.5469Q20.6738 16.3867 20.2295 16.8164Q19.7852 17.2461 18.9746 17.2461L2.90039 17.2461Q2.07031 17.2461 1.64062 16.8164Q1.21094 16.3867 1.21094 15.5469L1.21094 3.65234Q1.21094 2.88086 1.60156 2.49023Q1.99219 2.09961 2.74414 2.09961L5 2.09961Q5.53711 2.09961 5.87891 2.23145Q6.2207 2.36328 6.62109 2.71484L7.17773 3.20312Q7.64648 3.60352 8.08594 3.75977Q8.52539 3.91602 9.26758 3.91602L12.5977 3.91602L12.5977 2.70508L9.56055 2.70508Q9.18945 2.70508 8.91602 2.65625Q8.64258 2.60742 8.4082 2.47559Q8.17383 2.34375 7.91992 2.10938L7.35352 1.63086Q7.03125 1.34766 6.74805 1.19141Q6.46484 1.03516 6.12305 0.97168Q5.78125 0.908203 5.29297 0.908203L2.50977 0.908203Q1.28906 0.908203 0.644531 1.57227Q0 2.23633 0 3.57422L0 15.6055Q0 17.0215 0.722656 17.7393Q1.44531 18.457 2.88086 18.457ZM0.722656 7.51953L12.5977 7.51953L12.5977 6.37695L0.722656 6.37695Z"
                     fill="rgba(255,255,255,0.55)" />
              <path d="M14.8633 11.4355L23.291 11.4355Q24.7168 11.4355 25.4443 10.7178Q26.1719 10 26.1719 8.58398L26.1719 2.8418Q26.1719 1.43555 25.4443 0.717773Q24.7168 0 23.291 0L14.8633 0Q13.4277 0 12.7051 0.717773Q11.9824 1.43555 11.9824 2.8418L11.9824 8.58398Q11.9824 10 12.7051 10.7178Q13.4277 11.4355 14.8633 11.4355ZM14.834 10.293Q14.0039 10.293 13.5645 9.86328Q13.125 9.43359 13.125 8.57422L13.125 2.86133Q13.125 2.01172 13.5645 1.57715Q14.0039 1.14258 14.834 1.14258L23.3203 1.14258Q24.1504 1.14258 24.585 1.57715Q25.0195 2.01172 25.0195 2.86133L25.0195 8.57422Q25.0195 9.43359 24.585 9.86328Q24.1504 10.293 23.3301 10.293ZM19.0723 8.80859Q19.3164 8.80859 19.458 8.66211Q19.5996 8.51562 19.5996 8.29102L19.5996 6.25L21.6309 6.25Q21.8555 6.25 22.002 6.11328Q22.1484 5.97656 22.1484 5.73242Q22.1484 5.48828 22.002 5.35156Q21.8555 5.21484 21.6309 5.21484L19.5996 5.21484L19.5996 3.17383Q19.5996 2.94922 19.458 2.80273Q19.3164 2.65625 19.0723 2.65625Q18.8379 2.65625 18.6963 2.80273Q18.5547 2.94922 18.5547 3.17383L18.5547 5.21484L16.5137 5.21484Q16.2891 5.21484 16.1426 5.35156Q15.9961 5.48828 15.9961 5.73242Q15.9961 5.97656 16.1426 6.11328Q16.2891 6.25 16.5137 6.25L18.5547 6.25L18.5547 8.29102Q18.5547 8.51562 18.6963 8.66211Q18.8379 8.80859 19.0723 8.80859Z"
                     fill="rgba(255,255,255,0.55)" />
       </g>
</svg>