<svg width="15.8226" height="15.8325">
       <g>
              <rect height="15.8325" opacity="0" width="15.8226" x="0" y="0" />
              <path d="M0 7.91138Q0 8.18497 0.195236 8.37677Q0.390472 8.56857 0.657196 8.56857L7.25403 8.56857L7.25403 15.1625Q7.25403 15.4292 7.44591 15.626Q7.63779 15.8228 7.91138 15.8228Q8.18481 15.8228 8.38005 15.626Q8.57529 15.4292 8.57529 15.1625L8.57529 8.56857L15.1624 8.56857Q15.4323 8.56857 15.6274 8.37677Q15.8226 8.18497 15.8226 7.91138Q15.8226 7.63779 15.6274 7.4411Q15.4323 7.24442 15.1624 7.24442L8.57529 7.24442L8.57529 0.657349Q8.57529 0.390472 8.38005 0.195236Q8.18481 0 7.91138 0Q7.63779 0 7.44591 0.195236Q7.25403 0.390472 7.25403 0.657349L7.25403 7.24442L0.657196 7.24442Q0.390472 7.24442 0.195236 7.4411Q0 7.63779 0 7.91138Z"
                     fill="#32d74b" />
       </g>
</svg>