<svg width="19.5898" height="19.5996">
       <g>
              <rect height="19.5996" opacity="0" width="19.5898" x="0" y="0" />
              <path d="M9.79492 19.5996Q11.8066 19.5996 13.5791 18.833Q15.3516 18.0664 16.7041 16.7139Q18.0566 15.3613 18.8232 13.5889Q19.5898 11.8164 19.5898 9.80469Q19.5898 7.79297 18.8232 6.02051Q18.0566 4.24805 16.7041 2.89551Q15.3516 1.54297 13.5742 0.776367Q11.7969 0.00976562 9.78516 0.00976562Q7.77344 0.00976562 6.00098 0.776367Q4.22852 1.54297 2.88086 2.89551Q1.5332 4.24805 0.766602 6.02051Q0 7.79297 0 9.80469Q0 11.8164 0.766602 13.5889Q1.5332 15.3613 2.88574 16.7139Q4.23828 18.0664 6.01074 18.833Q7.7832 19.5996 9.79492 19.5996Z"
                     fill="rgba(255,255,255,0.55)" />
              <path d="M6.97266 8.37891Q6.74805 8.37891 6.58691 8.21289Q6.42578 8.04688 6.42578 7.82227Q6.42578 7.59766 6.58691 7.43652Q6.74805 7.27539 6.97266 7.27539L9.25781 7.27539L9.25781 4.99023Q9.25781 4.76562 9.41895 4.60938Q9.58008 4.45312 9.80469 4.44336Q10.0293 4.44336 10.1953 4.60449Q10.3613 4.76562 10.3613 4.99023L10.3613 7.27539L12.627 7.27539Q12.8516 7.27539 13.0127 7.43652Q13.1738 7.59766 13.1738 7.82227Q13.1738 8.04688 13.0127 8.21289Q12.8516 8.37891 12.627 8.37891L10.3613 8.37891L10.3613 10.6543Q10.3613 10.8789 10.1953 11.0352Q10.0293 11.1914 9.80469 11.1914Q9.58008 11.2012 9.41895 11.04Q9.25781 10.8789 9.25781 10.6543L9.25781 8.37891ZM6.98242 14.4238Q6.74805 14.4238 6.58691 14.2578Q6.42578 14.0918 6.42578 13.877Q6.42578 13.6523 6.58691 13.4912Q6.74805 13.3301 6.98242 13.3301L12.6172 13.3301Q12.8516 13.3301 13.0127 13.4912Q13.1738 13.6523 13.1738 13.877Q13.1738 14.0918 13.0127 14.2578Q12.8516 14.4238 12.6172 14.4238Z"
                     fill="#ffffff" />
       </g>
</svg>