<svg width="16.1426" height="20.8105">
       <g>
              <rect height="20.8105" opacity="0" width="16.1426" x="0" y="0" />
              <path d="M0 17.9395Q0 19.375 0.717773 20.0928Q1.43555 20.8105 2.85156 20.8105L13.291 20.8105Q14.7168 20.8105 15.4297 20.0928Q16.1426 19.375 16.1426 17.9395L16.1426 2.88086Q16.1426 1.45508 15.4297 0.727539Q14.7168 0 13.291 0L2.85156 0Q1.43555 0 0.717773 0.727539Q0 1.45508 0 2.88086ZM1.21094 17.9102L1.21094 2.91016Q1.21094 2.08008 1.64062 1.64551Q2.07031 1.21094 2.91016 1.21094L13.2324 1.21094Q14.082 1.21094 14.5117 1.64551Q14.9414 2.08008 14.9414 2.91016L14.9414 17.9102Q14.9414 18.7402 14.5117 19.1748Q14.082 19.6094 13.2324 19.6094L2.91016 19.6094Q2.07031 19.6094 1.64062 19.1748Q1.21094 18.7402 1.21094 17.9102Z"
                     fill="#32d74b" />
              <path d="M3.64258 10.4004Q3.64258 10.6641 3.82324 10.8398Q4.00391 11.0156 4.28711 11.0156L7.45117 11.0156L7.45117 14.1895Q7.45117 14.4629 7.62695 14.6436Q7.80273 14.8242 8.06641 14.8242Q8.34961 14.8242 8.52539 14.6484Q8.70117 14.4727 8.70117 14.1895L8.70117 11.0156L11.8848 11.0156Q12.1582 11.0156 12.3389 10.8398Q12.5195 10.6641 12.5195 10.4004Q12.5195 10.1172 12.3438 9.93652Q12.168 9.75586 11.8848 9.75586L8.70117 9.75586L8.70117 6.5918Q8.70117 6.29883 8.52539 6.12305Q8.34961 5.94727 8.06641 5.94727Q7.80273 5.94727 7.62695 6.12793Q7.45117 6.30859 7.45117 6.5918L7.45117 9.75586L4.28711 9.75586Q3.99414 9.75586 3.81836 9.93652Q3.64258 10.1172 3.64258 10.4004Z"
                     fill="#32d74b" />
       </g>
</svg>