<svg width="20.3027" height="19.8535">
       <g>
              <rect height="19.8535" opacity="0" width="20.3027" x="0" y="0" />
              <path d="M2.88086 15.5957L5.30273 15.5957L5.30273 14.3945L2.90039 14.3945Q2.07031 14.3945 1.64062 13.96Q1.21094 13.5254 1.21094 12.6758L1.21094 2.94922Q1.21094 2.09961 1.64062 1.66504Q2.07031 1.23047 2.90039 1.23047L12.666 1.23047Q13.4668 1.23047 13.9111 1.66504Q14.3555 2.09961 14.3555 2.94922L14.3555 4.83398L15.5664 4.83398L15.5664 2.88086Q15.5664 1.47461 14.8389 0.751953Q14.1113 0.0292969 12.6855 0.0292969L2.88086 0.0292969Q1.44531 0.0292969 0.722656 0.74707Q0 1.46484 0 2.88086L0 12.7441Q0 14.1602 0.722656 14.8779Q1.44531 15.5957 2.88086 15.5957Z"
                     fill="rgba(255,255,255,0.55)" />
              <path d="M7.61719 19.8535L17.4316 19.8535Q18.8477 19.8535 19.5752 19.1309Q20.3027 18.4082 20.3027 17.002L20.3027 7.13867Q20.3027 5.73242 19.5752 5.00977Q18.8477 4.28711 17.4316 4.28711L7.61719 4.28711Q6.18164 4.28711 5.45898 5.00488Q4.73633 5.72266 4.73633 7.13867L4.73633 17.002Q4.73633 18.418 5.45898 19.1357Q6.18164 19.8535 7.61719 19.8535ZM7.63672 18.6426Q6.80664 18.6426 6.37695 18.2129Q5.94727 17.7832 5.94727 16.9336L5.94727 7.20703Q5.94727 6.35742 6.37695 5.92285Q6.80664 5.48828 7.63672 5.48828L17.4023 5.48828Q18.2031 5.48828 18.6475 5.92285Q19.0918 6.35742 19.0918 7.20703L19.0918 16.9336Q19.0918 17.7832 18.6475 18.2129Q18.2031 18.6426 17.4023 18.6426ZM8.08594 12.0703Q8.08594 12.334 8.2666 12.5098Q8.44727 12.6855 8.73047 12.6855L11.8945 12.6855L11.8945 15.8594Q11.8945 16.1328 12.0703 16.3135Q12.2461 16.4941 12.5098 16.4941Q12.793 16.4941 12.9688 16.3184Q13.1445 16.1426 13.1445 15.8594L13.1445 12.6855L16.3281 12.6855Q16.6016 12.6855 16.7822 12.5098Q16.9629 12.334 16.9629 12.0703Q16.9629 11.7871 16.7871 11.6064Q16.6113 11.4258 16.3281 11.4258L13.1445 11.4258L13.1445 8.26172Q13.1445 7.96875 12.9688 7.79297Q12.793 7.61719 12.5098 7.61719Q12.2461 7.61719 12.0703 7.79785Q11.8945 7.97852 11.8945 8.26172L11.8945 11.4258L8.73047 11.4258Q8.4375 11.4258 8.26172 11.6064Q8.08594 11.7871 8.08594 12.0703Z"
                     fill="rgba(255,255,255,0.55)" />
       </g>
</svg>