<svg width="21.7432" height="21.7579">
       <g>
              <rect height="21.7579" opacity="0" width="21.7432" x="0" y="0" />
              <path d="M1.02053 12.9053L8.85256 20.7276Q9.85842 21.7432 10.8789 21.7481Q11.8994 21.753 12.9053 20.7471L20.7471 12.8955Q21.7432 11.8994 21.7432 10.874Q21.7432 9.84866 20.7373 8.83303L12.9248 1.02053Q11.8994 0.00490618 10.8838 2.33627e-05Q9.86819-0.00485945 8.86233 1.01077L1.001 8.85256Q-0.00485922 9.86819 2.35885e-05 10.8789Q0.0049064 11.8897 1.02053 12.9053ZM1.88967 12.0752Q1.30373 11.4893 1.29885 10.874Q1.29397 10.2588 1.89944 9.67287L9.66311 1.89944Q10.2588 1.30373 10.8692 1.30373Q11.4795 1.30373 12.0752 1.88967L19.8584 9.67287Q20.4248 10.249 20.4395 10.8692Q20.4541 11.4893 19.8487 12.085L12.085 19.8487Q11.4795 20.4444 10.8643 20.4444Q10.249 20.4444 9.67288 19.8682Z"
                     fill="#32d74b" />
              <path d="M6.43069 10.874Q6.43069 11.1377 6.61135 11.3135Q6.79202 11.4893 7.07522 11.4893L10.2393 11.4893L10.2393 14.6631Q10.2393 14.9365 10.4151 15.1172Q10.5908 15.2979 10.8545 15.2979Q11.1377 15.2979 11.3135 15.1221Q11.4893 14.9463 11.4893 14.6631L11.4893 11.4893L14.6729 11.4893Q14.9463 11.4893 15.127 11.3135Q15.3076 11.1377 15.3076 10.874Q15.3076 10.5908 15.1319 10.4102Q14.9561 10.2295 14.6729 10.2295L11.4893 10.2295L11.4893 7.06545Q11.4893 6.77248 11.3135 6.5967Q11.1377 6.42092 10.8545 6.42092Q10.5908 6.42092 10.4151 6.60159Q10.2393 6.78225 10.2393 7.06545L10.2393 10.2295L7.07522 10.2295Q6.78225 10.2295 6.60647 10.4102Q6.43069 10.5908 6.43069 10.874Z"
                     fill="#32d74b" />
       </g>
</svg>