<svg width="21.7969" height="19.8926">
       <g>
              <rect height="19.8926" opacity="0" width="21.7969" x="0" y="0" />
              <path d="M3.89648 19.8828Q4.30664 19.8828 4.95117 19.6973Q5.5957 19.5117 6.35254 19.1943Q7.10938 18.877 7.87109 18.4863Q8.63281 18.0957 9.27734 17.6758Q9.4043 17.5879 9.50684 17.5586Q9.60938 17.5293 9.70703 17.5293Q9.90234 17.5488 10.0928 17.5635Q10.2832 17.5781 10.4785 17.5781Q12.4707 17.5781 14.2041 17.1289Q15.9375 16.6797 17.334 15.8691Q18.7305 15.0586 19.7314 13.96Q20.7324 12.8613 21.2646 11.5479Q21.7969 10.2344 21.7969 8.78906Q21.7969 6.96289 20.957 5.37109Q20.1172 3.7793 18.623 2.57324Q17.1289 1.36719 15.1514 0.683594Q13.1738 0 10.8984 0Q8.62305 0 6.64551 0.683594Q4.66797 1.36719 3.17383 2.57324Q1.67969 3.7793 0.839844 5.37109Q0 6.96289 0 8.78906Q0 10.332 0.600586 11.7285Q1.20117 13.125 2.31445 14.2773Q3.42773 15.4297 4.95117 16.2207Q5.06836 16.2891 5.10254 16.3916Q5.13672 16.4941 5.06836 16.6113Q4.83398 17.0215 4.51172 17.4463Q4.18945 17.8711 3.88672 18.2373Q3.58398 18.6035 3.38867 18.8379Q3.10547 19.1992 3.2373 19.541Q3.36914 19.8828 3.89648 19.8828Z"
                     fill="rgba(255,255,255,0.55)" />
              <path d="M6.30859 8.85742Q6.30859 8.56445 6.49414 8.37891Q6.67969 8.19336 6.97266 8.19336L10.2539 8.19336L10.2539 4.91211Q10.2539 4.61914 10.4346 4.43359Q10.6152 4.24805 10.8887 4.24805Q11.1816 4.24805 11.3672 4.43359Q11.5527 4.61914 11.5527 4.91211L11.5527 8.19336L14.8438 8.19336Q15.1367 8.19336 15.3223 8.37891Q15.5078 8.56445 15.5078 8.85742Q15.5078 9.13086 15.3174 9.31152Q15.127 9.49219 14.8438 9.49219L11.5527 9.49219L11.5527 12.7832Q11.5527 13.0762 11.3672 13.2568Q11.1816 13.4375 10.8887 13.4375Q10.6152 13.4375 10.4346 13.252Q10.2539 13.0664 10.2539 12.7832L10.2539 9.49219L6.97266 9.49219Q6.68945 9.49219 6.49902 9.31152Q6.30859 9.13086 6.30859 8.85742Z"
                     fill="#ffffff" />
       </g>
</svg>