<svg width="22.8711" height="17.6855">
       <g>
              <rect height="17.6855" opacity="0" width="22.8711" x="0" y="0" />
              <path d="M2.88086 17.6855L19.9902 17.6855Q21.4258 17.6855 22.1484 16.9629Q22.8711 16.2402 22.8711 14.834L22.8711 2.85156Q22.8711 1.44531 22.1484 0.722656Q21.4258 0 19.9902 0L2.88086 0Q1.44531 0 0.722656 0.717773Q0 1.43555 0 2.85156L0 14.834Q0 16.25 0.722656 16.9678Q1.44531 17.6855 2.88086 17.6855Z"
                     fill="#32d74b" />
              <path d="M6.8457 8.84766Q6.8457 8.55469 7.03125 8.36914Q7.2168 8.18359 7.50977 8.18359L10.791 8.18359L10.791 4.90234Q10.791 4.60938 10.9717 4.42383Q11.1523 4.23828 11.4258 4.23828Q11.7188 4.23828 11.9043 4.42383Q12.0898 4.60938 12.0898 4.90234L12.0898 8.18359L15.3809 8.18359Q15.6738 8.18359 15.8594 8.36914Q16.0449 8.55469 16.0449 8.84766Q16.0449 9.12109 15.8545 9.30176Q15.6641 9.48242 15.3809 9.48242L12.0898 9.48242L12.0898 12.7734Q12.0898 13.0664 11.9043 13.2471Q11.7188 13.4277 11.4258 13.4277Q11.1523 13.4277 10.9717 13.2422Q10.791 13.0566 10.791 12.7734L10.791 9.48242L7.50977 9.48242Q7.22656 9.48242 7.03613 9.30176Q6.8457 9.12109 6.8457 8.84766Z"
                     fill="#ffffff" />
       </g>
</svg>