<svg width="20.5399" height="16.6959">
       <g>
              <rect height="16.6959" opacity="0" width="20.5399" x="0" y="0" />
              <path d="M7.76993 3.84293Q8.07465 3.84293 8.2991 3.61839Q8.52356 3.39386 8.52356 3.07938Q8.52356 2.77466 8.2991 2.55013Q8.07465 2.32559 7.76993 2.32559Q7.45544 2.32559 7.23091 2.55013Q7.00638 2.77466 7.00638 3.07938Q7.00638 3.39386 7.23091 3.61839Q7.45544 3.84293 7.76993 3.84293ZM10.2504 3.84293Q10.5649 3.84293 10.7893 3.61839Q11.0138 3.39386 11.0138 3.07938Q11.0138 2.77466 10.7893 2.55013Q10.5649 2.32559 10.2504 2.32559Q9.94568 2.32559 9.72115 2.55013Q9.49661 2.77466 9.49661 3.07938Q9.49661 3.39386 9.72115 3.61839Q9.94568 3.84293 10.2504 3.84293ZM12.7602 3.84293Q13.0746 3.84293 13.2991 3.61839Q13.5236 3.39386 13.5236 3.07938Q13.5236 2.77466 13.2991 2.55013Q13.0746 2.32559 12.7602 2.32559Q12.4486 2.32559 12.2275 2.55013Q12.0064 2.77466 12.0064 3.07938Q12.0064 3.39386 12.2275 3.61839Q12.4486 3.84293 12.7602 3.84293ZM15.0484 8.19839Q15.3629 8.19839 15.5873 7.97386Q15.8118 7.74933 15.8118 7.43484Q15.8118 7.13013 15.5873 6.90559Q15.3629 6.68106 15.0484 6.68106Q14.7435 6.68106 14.5224 6.90559Q14.3013 7.13013 14.3013 7.43484Q14.3013 7.74933 14.5224 7.97386Q14.7435 8.19839 15.0484 8.19839ZM13.2289 10.2003Q13.5434 10.2003 13.7679 9.97581Q13.9923 9.75128 13.9923 9.4368Q13.9923 9.13208 13.7679 8.90755Q13.5434 8.68301 13.2289 8.68301Q12.9242 8.68301 12.6997 8.90755Q12.4751 9.13208 12.4751 9.4368Q12.4751 9.75128 12.6997 9.97581Q12.9242 10.2003 13.2289 10.2003ZM7.29446 10.2003Q7.6059 10.2003 7.827 9.97581Q8.0481 9.75128 8.0481 9.4368Q8.0481 9.13208 7.827 8.90755Q7.6059 8.68301 7.29446 8.68301Q6.97983 8.68301 6.75385 8.90755Q6.52786 9.13208 6.52786 9.4368Q6.52786 9.75128 6.75385 9.97581Q6.97983 10.2003 7.29446 10.2003ZM5.47501 8.19839Q5.77972 8.19839 6.00418 7.97386Q6.22864 7.74933 6.22864 7.43484Q6.22864 7.13013 6.00418 6.90559Q5.77972 6.68106 5.47501 6.68106Q5.16052 6.68106 4.93599 6.90559Q4.71146 7.13013 4.71146 7.43484Q4.71146 7.74933 4.93599 7.97386Q5.16052 8.19839 5.47501 8.19839Z"
                     fill="rgba(255,255,255,0.25)" />
              <path d="M2.97806 5.97321Q3.79868 5.97321 4.47372 5.57114Q5.14877 5.16907 5.55092 4.49066Q5.95306 3.81226 5.95306 2.98843Q5.95306 2.16782 5.55092 1.49277Q5.14877 0.817719 4.47372 0.415573Q3.79868 0.0134277 2.97806 0.0134277Q2.15424 0.0134277 1.47919 0.415573Q0.804138 0.817719 0.402069 1.49277Q0 2.16782 0 2.98843Q0 3.81226 0.402069 4.49066Q0.804138 5.16907 1.47919 5.57114Q2.15424 5.97321 2.97806 5.97321ZM17.5581 5.97321Q18.3818 5.97321 19.0588 5.57114Q19.7357 5.16907 20.1378 4.49066Q20.5399 3.81226 20.5399 2.98843Q20.5399 2.16782 20.1378 1.49277Q19.7357 0.817719 19.0588 0.415573Q18.3818 0.0134277 17.5581 0.0134277Q16.7343 0.0134277 16.0593 0.415573Q15.3842 0.817719 14.9821 1.49277Q14.5801 2.16782 14.5801 2.98843Q14.5801 3.81226 14.9821 4.49066Q15.3842 5.16907 16.0593 5.57114Q16.7343 5.97321 17.5581 5.97321ZM10.273 16.6959Q11.0936 16.6959 11.7686 16.2938Q12.4437 15.8917 12.8443 15.2133Q13.2449 14.5349 13.2449 13.7111Q13.2449 12.8874 12.8443 12.2139Q12.4437 11.5404 11.7686 11.1382Q11.0936 10.7361 10.273 10.7361Q9.44916 10.7361 8.77411 11.1382Q8.09906 11.5404 7.69699 12.2139Q7.29492 12.8874 7.29492 13.7111Q7.29492 14.5349 7.69699 15.2133Q8.09906 15.8917 8.77411 16.2938Q9.44916 16.6959 10.273 16.6959Z"
                     fill="#32d74b" />
       </g>
</svg>