<svg width="16.8568" height="20.6656">
       <g>
              <rect height="20.6656" opacity="0" width="16.8568" x="0" y="0" />
              <path d="M2.37167 6.45325Q2.37167 7.8273 3.21861 8.78052Q4.06555 9.73373 5.71686 10.2002L10.7803 11.6808Q13.2695 12.4104 13.2695 14.2749L13.2695 15.0069L14.4785 15.0069L14.4785 14.2749Q14.4785 12.9076 13.6348 11.9543Q12.7911 11.0011 11.14 10.5318L6.07651 9.05411Q3.57758 8.3313 3.57758 6.45325L3.57758 5.728L2.37167 5.728Z"
                     fill="rgba(255,255,255,0.55)" />
              <path d="M13.8788 14.7156Q13.0551 14.7156 12.3782 15.1162Q11.7012 15.5168 11.2991 16.1967Q10.8971 16.8767 10.8971 17.7003Q10.8971 18.5211 11.2991 19.1962Q11.7012 19.8712 12.3782 20.2684Q13.0551 20.6656 13.8788 20.6656Q14.7026 20.6656 15.3777 20.2684Q16.0527 19.8712 16.4548 19.1962Q16.8568 18.5211 16.8568 17.7003Q16.8568 16.8767 16.4548 16.1967Q16.0527 15.5168 15.3777 15.1162Q14.7026 14.7156 13.8788 14.7156ZM2.97806 6.01929Q3.79868 6.01929 4.47372 5.61722Q5.14877 5.21515 5.55092 4.53674Q5.95306 3.85834 5.95306 3.03452Q5.95306 2.2139 5.55092 1.53885Q5.14877 0.8638 4.47372 0.461655Q3.79868 0.0595093 2.97806 0.0595093Q2.15424 0.0595093 1.47919 0.461655Q0.804138 0.8638 0.402069 1.53885Q0 2.2139 0 3.03452Q0 3.85834 0.402069 4.53674Q0.804138 5.21515 1.47919 5.61722Q2.15424 6.01929 2.97806 6.01929Z"
                     fill="rgba(255,255,255,0.55)" />
       </g>
</svg>