<svg width="19.5918" height="19.5987">
       <g>
              <rect height="19.5987" opacity="0" width="19.5918" x="0" y="0" />
              <path d="M9.79446 19.5889Q11.8082 19.5889 13.5796 18.8228Q15.3511 18.0566 16.7039 16.7039Q18.0566 15.3513 18.8242 13.5783Q19.5918 11.8053 19.5918 9.79446Q19.5918 7.78366 18.8242 6.01067Q18.0566 4.23767 16.7039 2.88498Q15.3511 1.53229 13.5763 0.766144Q11.8015 0 9.78775 0Q7.77695 0 6.00395 0.766144Q4.23096 1.53229 2.88307 2.88498Q1.53519 4.23767 0.767593 6.01067Q0 7.78366 0 9.79446Q0 11.8053 0.766144 13.5783Q1.53229 15.3513 2.88498 16.7039Q4.23767 18.0566 6.01067 18.8228Q7.78366 19.5889 9.79446 19.5889Z"
                     fill="rgba(255,255,255,0.55)" />
              <path d="M5.42389 11.2888Q4.65698 11.2888 4.11888 10.7439Q3.58078 10.1991 3.58078 9.43893Q3.58078 8.92685 3.82866 8.50586Q4.07654 8.08487 4.49562 7.83707Q4.9147 7.58926 5.42389 7.58926Q5.93597 7.58926 6.35696 7.83707Q6.77795 8.08487 7.02576 8.50586Q7.27356 8.92685 7.27356 9.43893Q7.27356 10.1991 6.7321 10.7439Q6.19064 11.2888 5.42389 11.2888ZM14.165 11.2888Q13.3983 11.2888 12.8568 10.7439Q12.3152 10.1991 12.3152 9.43893Q12.3152 8.92685 12.5665 8.50586Q12.8177 8.08487 13.2368 7.83707Q13.6559 7.58926 14.165 7.58926Q14.6773 7.58926 15.0948 7.83707Q15.5124 8.08487 15.7618 8.50586Q16.0112 8.92685 16.0112 9.43893Q16.0112 10.1991 15.4715 10.7439Q14.9318 11.2888 14.165 11.2888ZM9.79446 15.8673Q9.28528 15.8673 8.8662 15.6194Q8.44711 15.3716 8.19588 14.9525Q7.94464 14.5334 7.94464 14.0242Q7.94464 13.2574 8.48953 12.7145Q9.03442 12.1715 9.79446 12.1715Q10.5545 12.1715 11.0994 12.7145Q11.6443 13.2574 11.6443 14.0242Q11.6443 14.5334 11.3931 14.9525Q11.1418 15.3716 10.7243 15.6194Q10.3067 15.8673 9.79446 15.8673Z"
                     fill="#ffffff" />
       </g>
</svg>