<svg width="10.2586" height="20.8145">
       <g>
              <rect height="20.8145" opacity="0" width="10.2586" x="0" y="0" />
              <path d="M2.7565 20.8145L7.49908 20.8145Q8.82599 20.8145 9.54231 20.1064Q10.2586 19.3983 10.2586 18.0849L10.2586 2.7417Q10.2586 1.42822 9.54231 0.716782Q8.82599 0.00534058 7.49908 0.00534058L2.7565 0.00534058Q1.43631 0.00534058 0.718155 0.716782Q0 1.42822 0 2.7417L0 18.0849Q0 19.3983 0.718155 20.1064Q1.43631 20.8145 2.7565 20.8145Z"
                     fill="rgba(255,255,255,0.55)" />
              <path d="M5.13611 6.33499Q4.54056 6.33499 4.12354 5.91637Q3.70651 5.49774 3.70651 4.9054Q3.70651 4.32343 4.12354 3.90976Q4.54056 3.49609 5.13611 3.49609Q5.72174 3.49609 6.14029 3.90976Q6.55884 4.32343 6.55884 4.9054Q6.55884 5.49774 6.14029 5.91637Q5.72174 6.33499 5.13611 6.33499ZM5.13611 11.8253Q4.54056 11.8253 4.12354 11.41Q3.70651 10.9947 3.70651 10.4024Q3.70651 9.81369 4.12354 9.39659Q4.54056 8.97949 5.13611 8.97949Q5.72174 8.97949 6.14029 9.39659Q6.55884 9.81369 6.55884 10.4024Q6.55884 10.9947 6.14029 11.41Q5.72174 11.8253 5.13611 11.8253ZM5.13611 17.3155Q4.54056 17.3155 4.12354 16.8984Q3.70651 16.4813 3.70651 15.8926Q3.70651 15.304 4.12354 14.8902Q4.54056 14.4765 5.13611 14.4765Q5.72174 14.4765 6.14029 14.8902Q6.55884 15.304 6.55884 15.8926Q6.55884 16.4813 6.14029 16.8984Q5.72174 17.3155 5.13611 17.3155Z"
                     fill="#ffffff" />
       </g>
</svg>