<svg width="18.3424" height="17.7075">
       <g>
              <rect height="17.7075" opacity="0" width="18.3424" x="0" y="0" />
              <path d="M2.87872 17.7075L15.4608 17.7075Q16.891 17.7075 17.6167 16.987Q18.3424 16.2665 18.3424 14.8528L18.3424 2.8804Q18.3424 1.46667 17.6167 0.746155Q16.891 0.0256348 15.4608 0.0256348L2.87872 0.0256348Q1.44836 0.0256348 0.724182 0.743103Q0 1.46057 0 2.8804L0 14.8528Q0 16.2726 0.724182 16.9901Q1.44836 17.7075 2.87872 17.7075Z"
                     fill="rgba(255,255,255,0.55)" />
              <path d="M8.80798 13.7215Q8.56628 13.7215 8.41911 13.5761Q8.27194 13.4308 8.27194 13.1853L8.27194 10.1096Q8.27194 9.87091 8.42056 9.71733Q8.56918 9.56375 8.80798 9.56375L9.52774 9.56375Q9.76654 9.56375 9.91524 9.71733Q10.0639 9.87091 10.0639 10.1096L10.0639 13.1853Q10.0639 13.4338 9.91524 13.5777Q9.76654 13.7215 9.52774 13.7215ZM4.11072 7.81662Q3.94394 7.64313 3.94882 7.42943Q3.9537 7.21573 4.11743 7.04834L6.46545 4.71008Q6.642 4.53659 6.84319 4.53659Q7.04437 4.53659 7.21786 4.70627L7.73041 5.21957Q7.89719 5.39307 7.90207 5.60371Q7.90695 5.81436 7.73346 5.9877L5.38528 8.32306Q5.21194 8.49655 5.0013 8.49655Q4.79065 8.49655 4.62387 8.32306ZM13.7186 8.32001Q13.542 8.49655 13.3348 8.49503Q13.1276 8.4935 12.9572 8.32001L10.612 5.98175Q10.4385 5.80154 10.4385 5.59731Q10.4385 5.39307 10.612 5.21957L11.1246 4.70032Q11.2981 4.53354 11.5038 4.53354Q11.7096 4.53354 11.88 4.70703L14.2183 7.04834Q14.3918 7.22855 14.3951 7.43584Q14.3985 7.64313 14.2349 7.80685Z"
                     fill="#ffffff" />
       </g>
</svg>