<svg width="25.9552" height="13.3487">
       <g>
              <rect height="13.3487" opacity="0" width="25.9552" x="0" y="0" />
              <path d="M6.71885 0Q5.90372 0 5.34792 0.328064Q4.79212 0.656128 4.22998 1.25076L0.601139 5.25711Q0.196171 5.68466 0.0653268 6.16211Q-0.0655173 6.63956 0.0657083 7.11548Q0.196934 7.5914 0.58527 8.02185L4.22312 12.0717Q4.74131 12.6288 5.34609 12.9805Q5.95087 13.3322 6.71885 13.3322L19.2373 13.3322Q20.0053 13.3322 20.6101 12.9805Q21.2148 12.6288 21.7329 12.0717L25.364 8.02185Q25.7591 7.5914 25.8903 7.11548Q26.0215 6.63956 25.8873 6.16211Q25.7531 5.68466 25.3549 5.25711L21.7262 1.25076Q21.1639 0.656128 20.6082 0.328064Q20.0524 0 19.2373 0Z"
                     fill="rgba(255,255,255,0.55)" />
              <path d="M6.2501 4.89746Q6.97275 4.89746 7.4888 5.41016Q8.00486 5.92285 8.00486 6.64246Q8.00486 7.36511 7.4888 7.88124Q6.97275 8.39737 6.2501 8.39737Q5.5372 8.39737 5.02451 7.88124Q4.51181 7.36511 4.51181 6.64246Q4.51181 5.92285 5.02451 5.41016Q5.5372 4.89746 6.2501 4.89746ZM12.9832 6.66031Q13.6991 6.66031 14.2118 7.17644Q14.7245 7.69257 14.7245 8.41522Q14.7245 9.13483 14.2118 9.64752Q13.6991 10.1602 12.9832 10.1602Q12.2636 10.1602 11.7509 9.64752Q11.2382 9.13483 11.2382 8.41522Q11.2382 7.69257 11.7509 7.17644Q12.2636 6.66031 12.9832 6.66031ZM19.7128 4.89746Q20.4324 4.89746 20.9451 5.41016Q21.4578 5.92285 21.4578 6.64246Q21.4578 7.36511 20.9451 7.88124Q20.4324 8.39737 19.7128 8.39737Q18.9901 8.39737 18.4741 7.88124Q17.958 7.36511 17.958 6.64246Q17.958 5.92285 18.4741 5.41016Q18.9901 4.89746 19.7128 4.89746Z"
                     fill="#ffffff" />
       </g>
</svg>