<svg width="17.6819" height="17.7075">
       <g>
              <rect height="17.7075" opacity="0" width="17.6819" x="0" y="0" />
              <path d="M2.87872 17.7075L14.8001 17.7075Q16.2334 17.7075 16.9576 16.987Q17.6819 16.2665 17.6819 14.8528L17.6819 2.8804Q17.6819 1.46667 16.9576 0.746155Q16.2334 0.0256348 14.8001 0.0256348L2.87872 0.0256348Q1.44836 0.0256348 0.724182 0.743103Q0 1.46057 0 2.8804L0 14.8528Q0 16.2726 0.724182 16.9901Q1.44836 17.7075 2.87872 17.7075Z"
                     fill="rgba(255,255,255,0.55)" />
              <path d="M8.84277 14.0117Q7.76947 14.0117 6.83182 13.6121Q5.89417 13.2126 5.18814 12.5017Q4.48212 11.7908 4.08104 10.853Q3.67996 9.91531 3.67996 8.84888Q3.67996 7.77267 4.08104 6.8383Q4.48212 5.90393 5.18814 5.19455Q5.89417 4.48517 6.83182 4.08562Q7.76947 3.68607 8.84277 3.68607Q9.91226 3.68607 10.85 4.08562Q11.7877 4.48517 12.4971 5.19455Q13.2065 5.90393 13.6042 6.8383Q14.0019 7.77267 14.0019 8.84888Q14.0019 9.91531 13.6042 10.853Q13.2065 11.7908 12.4971 12.5017Q11.7877 13.2126 10.85 13.6121Q9.91226 14.0117 8.84277 14.0117ZM8.84277 6.96579Q9.14017 6.96579 9.34959 6.7514Q9.55902 6.53702 9.55902 6.24268Q9.55902 5.94162 9.34959 5.73219Q9.14017 5.52277 8.84277 5.52277Q8.54172 5.52277 8.33221 5.73219Q8.12271 5.94162 8.12271 6.24268Q8.12271 6.53702 8.33221 6.7514Q8.54172 6.96579 8.84277 6.96579ZM6.29486 9.95926Q6.74683 9.95926 7.07077 9.63676Q7.39471 9.31427 7.39471 8.8623Q7.39471 8.40744 7.07077 8.08495Q6.74683 7.76245 6.29486 7.76245Q5.8429 7.76245 5.5204 8.08495Q5.19791 8.40744 5.19791 8.8623Q5.19791 9.31427 5.5204 9.63676Q5.8429 9.95926 6.29486 9.95926ZM11.384 9.94568Q11.839 9.94568 12.1614 9.62326Q12.4838 9.30084 12.4838 8.84888Q12.4838 8.39691 12.1614 8.07449Q11.839 7.75208 11.384 7.75208Q10.932 7.75208 10.6096 8.07449Q10.2872 8.39691 10.2872 8.84888Q10.2872 9.30084 10.6096 9.62326Q10.932 9.94568 11.384 9.94568Z"
                     fill="#ffffff" />
       </g>
</svg>