<svg width="17.6819" height="17.7075">
       <g>
              <rect height="17.7075" opacity="0" width="17.6819" x="0" y="0" />
              <path d="M2.87872 17.7075L14.8001 17.7075Q16.2334 17.7075 16.9576 16.987Q17.6819 16.2665 17.6819 14.8528L17.6819 2.8804Q17.6819 1.46667 16.9576 0.746155Q16.2334 0.0256348 14.8001 0.0256348L2.87872 0.0256348Q1.44836 0.0256348 0.724182 0.743103Q0 1.46057 0 2.8804L0 14.8528Q0 16.2726 0.724182 16.9901Q1.44836 17.7075 2.87872 17.7075Z"
                     fill="rgba(255,255,255,0.55)" />
              <path d="M4.94049 13.4604Q4.5636 13.4604 4.32236 13.2191Q4.08112 12.9778 4.08112 12.6009L4.08112 5.09689Q4.08112 4.72 4.32236 4.47868Q4.5636 4.23737 4.94049 4.23737L12.7412 4.23737Q13.1151 4.23737 13.3564 4.47868Q13.5977 4.72 13.5977 5.09689L13.5977 12.6009Q13.5977 12.9778 13.3564 13.2191Q13.1151 13.4604 12.7412 13.4604ZM8.84949 8.14407Q9.25125 8.14407 9.534 7.85988Q9.81674 7.57568 9.81674 7.17697Q9.81674 6.77521 9.534 6.49246Q9.25125 6.20972 8.84949 6.20972Q8.44101 6.20972 8.15826 6.49246Q7.87552 6.77521 7.87552 7.17697Q7.87552 7.57568 8.15826 7.85988Q8.44101 8.14407 8.84949 8.14407ZM6.71509 11.488Q7.12357 11.488 7.40631 11.2053Q7.68906 10.9225 7.68906 10.5208Q7.68906 10.1123 7.40631 9.82964Q7.12357 9.54697 6.71509 9.54697Q6.31332 9.54697 6.03065 9.82964Q5.74799 10.1123 5.74799 10.5208Q5.74799 10.9225 6.03065 11.2053Q6.31332 11.488 6.71509 11.488ZM10.9772 11.488Q11.3789 11.488 11.6616 11.2053Q11.9443 10.9225 11.9443 10.5208Q11.9443 10.1123 11.6616 9.82964Q11.3789 9.54697 10.9772 9.54697Q10.5717 9.54697 10.289 9.82964Q10.0063 10.1123 10.0063 10.5208Q10.0063 10.9225 10.289 11.2053Q10.5717 11.488 10.9772 11.488Z"
                     fill="#ffffff" />
       </g>
</svg>