<svg width="18.3424" height="17.7075">
       <g>
              <rect height="17.7075" opacity="0" width="18.3424" x="0" y="0" />
              <path d="M2.87872 17.7075L15.4608 17.7075Q16.891 17.7075 17.6167 16.987Q18.3424 16.2665 18.3424 14.8528L18.3424 2.8804Q18.3424 1.46667 17.6167 0.746155Q16.891 0.0256348 15.4608 0.0256348L2.87872 0.0256348Q1.44836 0.0256348 0.724182 0.743103Q0 1.46057 0 2.8804L0 14.8528Q0 16.2726 0.724182 16.9901Q1.44836 17.7075 2.87872 17.7075Z"
                     fill="rgba(255,255,255,0.55)" />
              <path d="M5.72815 8.71185Q5.42297 8.71185 5.22049 8.50945Q5.01801 8.30704 5.01801 7.9921L5.01801 4.76181Q5.01801 4.46335 5.22049 4.24774Q5.42297 4.03214 5.72815 4.03214Q6.03333 4.03214 6.24214 4.24927Q6.45096 4.4664 6.45096 4.76181L6.45096 7.9921Q6.45096 8.29727 6.24214 8.50456Q6.03333 8.71185 5.72815 8.71185ZM7.94128 14.4234Q7.55127 14.4234 7.55127 14.0334L7.55127 12.8461Q7.55127 12.1611 8.01765 11.6801Q8.48404 11.199 9.16977 11.199Q9.85168 11.199 10.3245 11.6816Q10.7973 12.1642 10.7973 12.8461L10.7973 14.0334Q10.7973 14.4234 10.4042 14.4234ZM12.5888 8.71185Q12.2836 8.71185 12.0811 8.50945Q11.8787 8.30704 11.8787 7.9921L11.8787 4.76181Q11.8787 4.46335 12.0811 4.24774Q12.2836 4.03214 12.5888 4.03214Q12.894 4.03214 13.1062 4.24927Q13.3183 4.4664 13.3183 4.76181L13.3183 7.9921Q13.3183 8.29727 13.1062 8.50456Q12.894 8.71185 12.5888 8.71185Z"
                     fill="#ffffff" />
       </g>
</svg>