<svg width="20.7249" height="16.5704">
       <g>
              <rect height="16.5704" opacity="0" width="20.7249" x="0" y="0" />
              <path d="M5.01831 16.5509L15.6967 16.5509Q16.2036 16.5509 16.6534 16.3793Q17.1031 16.2077 17.4622 15.8623Q18.4889 14.8849 19.2175 13.6501Q19.946 12.4153 20.3355 11.0419Q20.7249 9.66843 20.7249 8.28033Q20.7249 6.88248 20.3355 5.51392Q19.946 4.14536 19.2175 2.91054Q18.4889 1.67572 17.4622 0.695343Q17.1129 0.355988 16.6567 0.177994Q16.2006 0 15.6967 0L5.01831 0Q4.50104 0 4.02954 0.191422Q3.55804 0.382843 3.19534 0.749207Q2.19559 1.72653 1.47896 2.95128Q0.762329 4.17603 0.381165 5.53596Q0 6.8959 0 8.28033Q0 9.66843 0.387955 11.0419Q0.775909 12.4153 1.50444 13.6501Q2.23297 14.8849 3.25974 15.8623Q3.61511 16.2077 4.06822 16.3793Q4.52133 16.5509 5.01831 16.5509Z"
                     fill="rgba(255,255,255,0.55)" />
              <path d="M6.16592 12.1498Q5.8638 12.1498 5.66322 11.9507Q5.46265 11.7516 5.46265 11.4464L5.46265 5.18829Q5.46265 4.88983 5.6617 4.67278Q5.86075 4.45572 6.16592 4.45572Q6.46133 4.45572 6.67656 4.67278Q6.89178 4.88983 6.89178 5.18829L6.89178 11.4464Q6.89178 11.7516 6.67809 11.9507Q6.46439 12.1498 6.16592 12.1498ZM14.5493 12.1498Q14.2441 12.1498 14.0386 11.9391Q13.8332 11.7284 13.8332 11.4299L13.8332 5.19501Q13.8332 4.88983 14.0386 4.67278Q14.2441 4.45572 14.5493 4.45572Q14.8544 4.45572 15.0584 4.67133Q15.2623 4.88693 15.2623 5.19501L15.2623 11.4299Q15.2623 11.7381 15.0584 11.944Q14.8544 12.1498 14.5493 12.1498Z"
                     fill="#ffffff" />
       </g>
</svg>