<svg width="18.3424" height="17.7075">
       <g>
              <rect height="17.7075" opacity="0" width="18.3424" x="0" y="0" />
              <path d="M2.87872 17.7075L15.4608 17.7075Q16.891 17.7075 17.6167 16.987Q18.3424 16.2665 18.3424 14.8528L18.3424 2.8804Q18.3424 1.46667 17.6167 0.746155Q16.891 0.0256348 15.4608 0.0256348L2.87872 0.0256348Q1.44836 0.0256348 0.724182 0.743103Q0 1.46057 0 2.8804L0 14.8528Q0 16.2726 0.724182 16.9901Q1.44836 17.7075 2.87872 17.7075Z"
                     fill="rgba(255,255,255,0.55)" />
              <path d="M5.72556 13.5136Q5.13977 13.5136 4.71786 13.0965Q4.29596 12.6794 4.29596 12.084Q4.29596 11.5021 4.71786 11.0816Q5.13977 10.6612 5.72556 10.6612Q6.30737 10.6612 6.72447 11.0816Q7.14157 11.5021 7.14157 12.084Q7.14157 12.6794 6.72447 13.0965Q6.30737 13.5136 5.72556 13.5136ZM12.6207 13.5136Q12.0351 13.5136 11.6164 13.0965Q11.1978 12.6794 11.1978 12.084Q11.1978 11.5021 11.6164 11.0816Q12.0351 10.6612 12.6207 10.6612Q13.2027 10.6612 13.6231 11.0816Q14.0436 11.5021 14.0436 12.084Q14.0436 12.6794 13.6231 13.0965Q13.2027 13.5136 12.6207 13.5136ZM9.16977 7.02377Q8.57727 7.02377 8.15872 6.60332Q7.74017 6.18286 7.74017 5.59418Q7.74017 5.00854 8.15872 4.59328Q8.57727 4.17801 9.16977 4.17801Q9.75845 4.17801 10.1756 4.59328Q10.5927 5.00854 10.5927 5.59418Q10.5927 6.18286 10.1756 6.60332Q9.75845 7.02377 9.16977 7.02377Z"
                     fill="#ffffff" />
       </g>
</svg>