<svg width="17.6819" height="17.7075">
       <g>
              <rect height="17.7075" opacity="0" width="17.6819" x="0" y="0" />
              <path d="M2.87872 17.7075L14.8001 17.7075Q16.2334 17.7075 16.9576 16.987Q17.6819 16.2665 17.6819 14.8528L17.6819 2.8804Q17.6819 1.46667 16.9576 0.746155Q16.2334 0.0256348 14.8001 0.0256348L2.87872 0.0256348Q1.44836 0.0256348 0.724182 0.743103Q0 1.46057 0 2.8804L0 14.8528Q0 16.2726 0.724182 16.9901Q1.44836 17.7075 2.87872 17.7075Z"
                     fill="rgba(255,255,255,0.55)" />
              <path d="M5.12527 13.4671Q4.75143 13.4671 4.51012 13.2258Q4.2688 12.9845 4.2688 12.6077L4.2688 5.10056Q4.2688 4.72672 4.51012 4.4854Q4.75143 4.24408 5.12527 4.24408L12.6787 4.24408Q13.0525 4.24408 13.2954 4.4854Q13.5382 4.72672 13.5382 5.10056L13.5382 12.6077Q13.5382 12.9845 13.2954 13.2258Q13.0525 13.4671 12.6787 13.4671ZM8.69751 8.20496L9.09302 8.20496Q9.25125 8.20496 9.35516 8.10928Q9.45908 8.01361 9.45908 7.85538L9.45908 6.18073Q9.45908 6.02234 9.35516 5.92827Q9.25125 5.8342 9.09302 5.8342L8.69751 5.8342Q8.54599 5.8342 8.44543 5.92827Q8.34488 6.02234 8.34488 6.18073L8.34488 7.85538Q8.34488 8.01361 8.44543 8.10928Q8.54599 8.20496 8.69751 8.20496ZM6.05133 11.7407L7.66296 11.7407Q7.81158 11.7407 7.90871 11.6451Q8.00583 11.5495 8.00583 11.3911L8.00583 10.9891Q8.00583 10.8307 7.90871 10.7301Q7.81158 10.6296 7.66296 10.6296L6.05133 10.6296Q5.8931 10.6296 5.79407 10.7301Q5.69504 10.8307 5.69504 10.9891L5.69504 11.3911Q5.69504 11.5495 5.79407 11.6451Q5.8931 11.7407 6.05133 11.7407ZM10.1605 11.7407L11.7557 11.7407Q11.9139 11.7407 12.0145 11.6451Q12.115 11.5495 12.115 11.3911L12.115 10.9891Q12.115 10.8307 12.0145 10.7301Q11.9139 10.6296 11.7557 10.6296L10.1605 10.6296Q10.0023 10.6296 9.90173 10.7301Q9.80118 10.8307 9.80118 10.9891L9.80118 11.3911Q9.80118 11.5495 9.90173 11.6451Q10.0023 11.7407 10.1605 11.7407Z"
                     fill="#ffffff" />
       </g>
</svg>