<svg width="18.3424" height="17.7075">
       <g>
              <rect height="17.7075" opacity="0" width="18.3424" x="0" y="0" />
              <path d="M2.87872 17.7075L15.4608 17.7075Q16.891 17.7075 17.6167 16.987Q18.3424 16.2665 18.3424 14.8528L18.3424 2.8804Q18.3424 1.46667 17.6167 0.746155Q16.891 0.0256348 15.4608 0.0256348L2.87872 0.0256348Q1.44836 0.0256348 0.724182 0.743103Q0 1.46057 0 2.8804L0 14.8528Q0 16.2726 0.724182 16.9901Q1.44836 17.7075 2.87872 17.7075Z"
                     fill="rgba(255,255,255,0.55)" />
              <path d="M5.72556 13.0034Q5.13977 13.0034 4.71786 12.5863Q4.29596 12.1692 4.29596 11.5738Q4.29596 10.9882 4.71786 10.5695Q5.13977 10.1509 5.72556 10.1509Q6.30737 10.1509 6.72447 10.5695Q7.14157 10.9882 7.14157 11.5738Q7.14157 12.1692 6.72447 12.5863Q6.30737 13.0034 5.72556 13.0034ZM12.6207 13.0034Q12.0351 13.0034 11.6164 12.5863Q11.1978 12.1692 11.1978 11.5738Q11.1978 10.9882 11.6164 10.5695Q12.0351 10.1509 12.6207 10.1509Q13.2027 10.1509 13.6231 10.5695Q14.0436 10.9882 14.0436 11.5738Q14.0436 12.1692 13.6231 12.5863Q13.2027 13.0034 12.6207 13.0034ZM9.16977 7.55661Q8.57727 7.55661 8.15872 7.13799Q7.74017 6.71936 7.74017 6.12701Q7.74017 5.53833 8.15872 5.12123Q8.57727 4.70413 9.16977 4.70413Q9.75845 4.70413 10.1756 5.12123Q10.5927 5.53833 10.5927 6.12701Q10.5927 6.71936 10.1756 7.13799Q9.75845 7.55661 9.16977 7.55661Z"
                     fill="#ffffff" />
       </g>
</svg>