<svg width="18.3424" height="17.7075">
       <g>
              <rect height="17.7075" opacity="0" width="18.3424" x="0" y="0" />
              <path d="M2.87872 17.7075L15.4608 17.7075Q16.891 17.7075 17.6167 16.987Q18.3424 16.2665 18.3424 14.8528L18.3424 2.8804Q18.3424 1.46667 17.6167 0.746155Q16.891 0.0256348 15.4608 0.0256348L2.87872 0.0256348Q1.44836 0.0256348 0.724182 0.743103Q0 1.46057 0 2.8804L0 14.8528Q0 16.2726 0.724182 16.9901Q1.44836 17.7075 2.87872 17.7075Z"
                     fill="rgba(255,255,255,0.55)" />
              <path d="M8.80798 7.74597Q8.56918 7.74597 8.42056 7.59727Q8.27194 7.44858 8.27194 7.20001L8.27194 4.1243Q8.27194 3.88855 8.42056 3.73993Q8.56918 3.59131 8.80798 3.59131L9.52774 3.59131Q9.76654 3.59131 9.91524 3.73993Q10.0639 3.88855 10.0639 4.1243L10.0639 7.20001Q10.0639 7.44858 9.91524 7.59727Q9.76654 7.74597 9.52774 7.74597ZM4.1481 13.6017Q3.90259 13.6017 3.75725 13.4564Q3.61191 13.3112 3.61191 13.0724L3.61191 12.3489Q3.61191 12.1132 3.75877 11.9614Q3.90564 11.8097 4.1481 11.8097L6.98624 11.8097Q7.22504 11.8097 7.37373 11.9599Q7.52243 12.1101 7.52243 12.3489L7.52243 13.0724Q7.52243 13.3112 7.37373 13.4564Q7.22504 13.6017 6.98624 13.6017ZM11.3531 13.6017Q11.1176 13.6017 10.9655 13.4564Q10.8134 13.3112 10.8134 13.0724L10.8134 12.3489Q10.8134 12.1101 10.9655 11.9599Q11.1176 11.8097 11.3531 11.8097L14.1847 11.8097Q14.4302 11.8097 14.5804 11.9614Q14.7305 12.1132 14.7305 12.3489L14.7305 13.0724Q14.7305 13.3112 14.5853 13.4564Q14.44 13.6017 14.1847 13.6017Z"
                     fill="#ffffff" />
       </g>
</svg>