<svg width="19.5918" height="19.5987">
       <g>
              <rect height="19.5987" opacity="0" width="19.5918" x="0" y="0" />
              <path d="M9.79446 19.5889Q11.8082 19.5889 13.5796 18.8228Q15.3511 18.0566 16.7039 16.7039Q18.0566 15.3513 18.8242 13.5783Q19.5918 11.8053 19.5918 9.79446Q19.5918 7.78366 18.8242 6.01067Q18.0566 4.23767 16.7039 2.88498Q15.3511 1.53229 13.5763 0.766144Q11.8015 0 9.78775 0Q7.77695 0 6.00395 0.766144Q4.23096 1.53229 2.88307 2.88498Q1.53519 4.23767 0.767593 6.01067Q0 7.78366 0 9.79446Q0 11.8053 0.766144 13.5783Q1.53229 15.3513 2.88498 16.7039Q4.23767 18.0566 6.01067 18.8228Q7.78366 19.5889 9.79446 19.5889Z"
                     fill="rgba(255,255,255,0.55)" />
              <path d="M5.59296 11.6002Q4.8262 11.6002 4.28802 11.0553Q3.74985 10.5104 3.74985 9.75037Q3.74985 8.98346 4.28802 8.44048Q4.8262 7.89749 5.59296 7.89749Q6.35971 7.89749 6.90125 8.44048Q7.44278 8.98346 7.44278 9.75037Q7.44278 10.5104 6.90125 11.0553Q6.35971 11.6002 5.59296 11.6002ZM13.9989 11.6002Q13.2321 11.6002 12.6906 11.0553Q12.149 10.5104 12.149 9.75037Q12.149 8.98346 12.6906 8.44048Q13.2321 7.89749 13.9989 7.89749Q14.7658 7.89749 15.3039 8.44048Q15.842 8.98346 15.842 9.75037Q15.842 10.5104 15.3039 11.0553Q14.7658 11.6002 13.9989 11.6002ZM8.56293 13.5269L11.0258 13.5269Q11.4189 13.5269 11.4189 13.9169L11.4189 14.6918Q11.4189 15.367 10.9446 15.8462Q10.4703 16.3254 9.79141 16.3254Q9.10583 16.3254 8.63937 15.8511Q8.17291 15.3767 8.17291 14.6918L8.17291 13.9169Q8.17291 13.5269 8.56293 13.5269Z"
                     fill="#ffffff" />
       </g>
</svg>