<svg width="25.555" height="15.0833">
       <g>
              <rect height="15.0833" opacity="0" width="25.555" x="0" y="0" />
              <path d="M6.52225 0Q5.71017 0 5.11958 0.304794Q4.52899 0.609589 4.03338 1.2439L0.536375 5.96878Q0.18466 6.436 0.0620552 6.97479Q-0.0605492 7.51358 0.0590797 8.04893Q0.178709 8.58429 0.520506 9.04846L4.02972 13.8065Q4.49161 14.4266 5.12294 14.7467Q5.75427 15.0668 6.52225 15.0668L19.0303 15.0668Q19.7983 15.0668 20.4297 14.7467Q21.0611 14.4266 21.5259 13.8065L25.0321 9.04846Q25.3838 8.58429 25.4985 8.04893Q25.6131 7.51358 25.4954 6.97479Q25.3777 6.436 25.0193 5.96878L21.5192 1.2439Q21.0236 0.609589 20.433 0.304794Q19.8424 0 19.0303 0Z"
                     fill="rgba(255,255,255,0.55)" />
              <path d="M6.04983 5.75806Q6.76578 5.75806 7.28183 6.27075Q7.79788 6.78345 7.79788 7.50305Q7.79788 8.22571 7.28183 8.74176Q6.76578 9.25781 6.04983 9.25781Q5.32718 9.25781 4.81448 8.74176Q4.30179 8.22571 4.30179 7.50305Q4.30179 6.78345 4.81448 6.27075Q5.32718 5.75806 6.04983 5.75806ZM12.7764 8.21732Q13.499 8.21732 14.0117 8.73337Q14.5244 9.24942 14.5244 9.96536Q14.5244 10.685 14.0117 11.1977Q13.499 11.7104 12.7764 11.7104Q12.0566 11.7104 11.5439 11.1977Q11.0312 10.685 11.0312 9.96536Q11.0312 9.24942 11.5439 8.73337Q12.0566 8.21732 12.7764 8.21732ZM19.5027 5.75806Q20.2254 5.75806 20.7381 6.27075Q21.2508 6.78345 21.2508 7.50305Q21.2508 8.22571 20.7381 8.74176Q20.2254 9.25781 19.5027 9.25781Q18.7899 9.25781 18.2738 8.74176Q17.7577 8.22571 17.7577 7.50305Q17.7577 6.78345 18.2738 6.27075Q18.7899 5.75806 19.5027 5.75806Z"
                     fill="#ffffff" />
       </g>
</svg>