<svg width="21.217" height="20.0342">
       <g>
              <rect height="20.0342" opacity="0" width="21.217" x="0" y="0" />
              <path d="M0 11.6698Q0 12.1841 0.316086 12.4998Q0.632172 12.8156 1.14944 12.8156L1.94458 12.8156L1.94458 13.819Q1.94458 15.0394 2.65465 16.1523Q3.36472 17.2653 4.58916 18.1387Q5.8136 19.0121 7.36771 19.5149Q8.92181 20.0177 10.61 20.0177Q12.2983 20.0177 13.8524 19.5149Q15.4065 19.0121 16.631 18.1387Q17.8555 17.2653 18.5656 16.1523Q19.2757 15.0394 19.2757 13.819L19.2757 12.8156L20.0677 12.8156Q20.585 12.8156 20.901 12.4998Q21.217 12.1841 21.217 11.6698L21.217 8.35464Q21.217 7.83737 20.901 7.51976Q20.585 7.20215 20.0677 7.20215L19.2757 7.20215L19.2757 6.20544Q19.2757 4.98505 18.5656 3.86719Q17.8555 2.74933 16.631 1.8808Q15.4065 1.01227 13.8524 0.506134Q12.2983 0 10.61 0Q8.92181 0 7.36771 0.506134Q5.8136 1.01227 4.58916 1.8808Q3.36472 2.74933 2.65465 3.86719Q1.94458 4.98505 1.94458 6.20544L1.94458 7.20215L1.14944 7.20215Q0.632172 7.20215 0.316086 7.51976Q0 7.83737 0 8.35464Z"
                     fill="rgba(255,255,255,0.55)" />
              <path d="M6.02615 11.862Q5.26611 11.862 4.72458 11.3171Q4.18304 10.7722 4.18304 10.0122Q4.18304 9.24545 4.72458 8.70392Q5.26611 8.16238 6.02615 8.16238Q6.53534 8.16238 6.95778 8.41362Q7.38022 8.66486 7.6281 9.08241Q7.87598 9.49997 7.87598 10.0122Q7.87598 10.5244 7.6281 10.942Q7.38022 11.3596 6.95778 11.6108Q6.53534 11.862 6.02615 11.862ZM15.1872 11.862Q14.675 11.862 14.2559 11.6108Q13.8368 11.3596 13.5889 10.942Q13.3411 10.5244 13.3411 10.0122Q13.3411 9.49997 13.5889 9.08241Q13.8368 8.66486 14.2559 8.41362Q14.675 8.16238 15.1872 8.16238Q15.954 8.16238 16.4955 8.70392Q17.037 9.24545 17.037 10.0122Q17.037 10.7722 16.4955 11.3171Q15.954 11.862 15.1872 11.862Z"
                     fill="#ffffff" />
       </g>
</svg>