<svg width="18.3424" height="17.7075">
       <g>
              <rect height="17.7075" opacity="0" width="18.3424" x="0" y="0" />
              <path d="M2.87872 17.7075L15.4608 17.7075Q16.891 17.7075 17.6167 16.987Q18.3424 16.2665 18.3424 14.8528L18.3424 2.8804Q18.3424 1.46667 17.6167 0.746155Q16.891 0.0256348 15.4608 0.0256348L2.87872 0.0256348Q1.44836 0.0256348 0.724182 0.743103Q0 1.46057 0 2.8804L0 14.8528Q0 16.2726 0.724182 16.9901Q1.44836 17.7075 2.87872 17.7075Z"
                     fill="rgba(255,255,255,0.55)" />
              <path d="M9.16977 7.5798Q8.42484 7.5798 7.90367 7.05864Q7.38251 6.53748 7.38251 5.79254Q7.38251 5.04761 7.90367 4.52492Q8.42484 4.00223 9.16977 4.00223Q9.90784 4.00223 10.4339 4.52492Q10.9599 5.04761 10.9599 5.79254Q10.9599 6.53748 10.4339 7.05864Q9.90784 7.5798 9.16977 7.5798ZM5.72556 13.7053Q5.13977 13.7053 4.71786 13.2833Q4.29596 12.8613 4.29596 12.2757Q4.29596 11.6937 4.71786 11.2751Q5.13977 10.8565 5.72556 10.8565Q6.30737 10.8565 6.72447 11.2751Q7.14157 11.6937 7.14157 12.2757Q7.14157 12.8613 6.72447 13.2833Q6.30737 13.7053 5.72556 13.7053ZM12.6207 13.7053Q12.0351 13.7053 11.6164 13.2833Q11.1978 12.8613 11.1978 12.2757Q11.1978 11.6937 11.6164 11.2751Q12.0351 10.8565 12.6207 10.8565Q13.2027 10.8565 13.6231 11.2751Q14.0436 11.6937 14.0436 12.2757Q14.0436 12.8613 13.6231 13.2833Q13.2027 13.7053 12.6207 13.7053Z"
                     fill="#ffffff" />
       </g>
</svg>