<svg width="17.6819" height="17.7075">
       <g>
              <rect height="17.7075" opacity="0" width="17.6819" x="0" y="0" />
              <path d="M2.87872 17.7075L14.8001 17.7075Q16.2334 17.7075 16.9576 16.987Q17.6819 16.2665 17.6819 14.8528L17.6819 2.8804Q17.6819 1.46667 16.9576 0.746155Q16.2334 0.0256348 14.8001 0.0256348L2.87872 0.0256348Q1.44836 0.0256348 0.724182 0.743103Q0 1.46057 0 2.8804L0 14.8528Q0 16.2726 0.724182 16.9901Q1.44836 17.7075 2.87872 17.7075Z"
                     fill="rgba(255,255,255,0.55)" />
              <path d="M4.94049 13.4604Q4.5636 13.4604 4.32236 13.2191Q4.08112 12.9778 4.08112 12.6009L4.08112 5.09689Q4.08112 4.72 4.32236 4.47868Q4.5636 4.23737 4.94049 4.23737L12.7412 4.23737Q13.1151 4.23737 13.3564 4.47868Q13.5977 4.72 13.5977 5.09689L13.5977 12.6009Q13.5977 12.9778 13.3564 13.2191Q13.1151 13.4604 12.7412 13.4604ZM6.98547 8.94775Q7.18597 8.94775 7.33192 8.81157Q7.47787 8.67538 7.47787 8.47122L7.47787 6.69495Q7.47787 6.49765 7.33192 6.35315Q7.18597 6.20865 6.98547 6.20865Q6.78513 6.20865 6.64894 6.35315Q6.51276 6.49765 6.51276 6.69495L6.51276 8.47122Q6.51276 8.67538 6.64894 8.81157Q6.78513 8.94775 6.98547 8.94775ZM10.6865 8.94775Q10.8839 8.94775 11.025 8.81157Q11.1661 8.67538 11.1661 8.47122L11.1661 6.69495Q11.1661 6.49765 11.025 6.35315Q10.8839 6.20865 10.6865 6.20865Q10.4831 6.20865 10.3435 6.35315Q10.2039 6.49765 10.2039 6.69495L10.2039 8.47122Q10.2039 8.67538 10.3435 8.81157Q10.4831 8.94775 10.6865 8.94775ZM8.2074 11.9203L9.47449 11.9203Q9.73648 11.9203 9.73648 11.6583L9.73648 11.0378Q9.73648 10.6592 9.47891 10.3967Q9.22134 10.1343 8.84277 10.1343Q8.45444 10.1343 8.19839 10.3967Q7.94235 10.6592 7.94235 11.0378L7.94235 11.6583Q7.94235 11.9203 8.2074 11.9203Z"
                     fill="#ffffff" />
       </g>
</svg>