<svg width="17.6819" height="17.7075">
       <g>
              <rect height="17.7075" opacity="0" width="17.6819" x="0" y="0" />
              <path d="M2.87872 17.7075L14.8001 17.7075Q16.2334 17.7075 16.9576 16.987Q17.6819 16.2665 17.6819 14.8528L17.6819 2.8804Q17.6819 1.46667 16.9576 0.746155Q16.2334 0.0256348 14.8001 0.0256348L2.87872 0.0256348Q1.44836 0.0256348 0.724182 0.743103Q0 1.46057 0 2.8804L0 14.8528Q0 16.2726 0.724182 16.9901Q1.44836 17.7075 2.87872 17.7075Z"
                     fill="rgba(255,255,255,0.55)" />
              <path d="M5.7312 13.3432Q5.26474 13.3432 4.95834 13.0594Q4.13971 12.2865 3.63571 11.1825Q3.13171 10.0784 3.13171 8.85864Q3.13171 7.62909 3.64548 6.51871Q4.15924 5.40833 4.97787 4.63837Q5.12497 4.5047 5.32219 4.44275Q5.51941 4.3808 5.7312 4.3808L11.9507 4.3808Q12.4171 4.3808 12.7205 4.66766Q13.5391 5.43076 14.0431 6.53481Q14.5471 7.63885 14.5471 8.85864Q14.5471 10.0784 14.0431 11.1825Q13.5391 12.2865 12.7205 13.0594Q12.4171 13.3432 11.9507 13.3432ZM6.44241 11.0365Q6.65924 11.0365 6.8071 10.8902Q6.95496 10.7439 6.95496 10.527L6.95496 7.18658Q6.95496 6.97937 6.8071 6.83159Q6.65924 6.68381 6.44241 6.68381Q6.23825 6.68381 6.09192 6.83159Q5.94559 6.97937 5.94559 7.18658L5.94559 10.527Q5.94559 10.7439 6.09192 10.8902Q6.23825 11.0365 6.44241 11.0365ZM11.2364 11.0365Q11.4435 11.0365 11.5913 10.8902Q11.7392 10.7439 11.7392 10.527L11.7392 7.18658Q11.7392 6.97937 11.5913 6.83159Q11.4435 6.68381 11.2364 6.68381Q11.0294 6.68381 10.883 6.83159Q10.7367 6.97937 10.7367 7.18658L10.7367 10.527Q10.7367 10.7439 10.883 10.8902Q11.0294 11.0365 11.2364 11.0365Z"
                     fill="#ffffff" />
       </g>
</svg>