<svg width="19.5898" height="19.5996">
       <g>
              <rect height="19.5996" opacity="0" width="19.5898" x="0" y="0" />
              <path d="M9.79492 19.5898Q11.8066 19.5898 13.5791 18.8232Q15.3516 18.0566 16.7041 16.7041Q18.0566 15.3516 18.8232 13.5791Q19.5898 11.8066 19.5898 9.79492Q19.5898 7.7832 18.8232 6.01074Q18.0566 4.23828 16.7041 2.88574Q15.3516 1.5332 13.5742 0.766602Q11.7969 0 9.78516 0Q7.77344 0 6.00098 0.766602Q4.22852 1.5332 2.88086 2.88574Q1.5332 4.23828 0.766602 6.01074Q0 7.7832 0 9.79492Q0 11.8066 0.766602 13.5791Q1.5332 15.3516 2.88574 16.7041Q4.23828 18.0566 6.01074 18.8232Q7.7832 19.5898 9.79492 19.5898Z"
                     fill="rgba(255,255,255,0.55)" />
              <path d="M9.80469 14.9316Q8.75 14.9316 7.81738 14.5264Q6.88477 14.1211 6.18164 13.4082Q5.47852 12.6953 5.07324 11.7725Q4.66797 10.8496 4.66797 9.79492Q4.66797 8.70117 5.12695 7.69043Q5.58594 6.67969 6.41602 5.9668Q6.62109 5.78125 6.83105 5.80078Q7.04102 5.82031 7.1875 5.98145Q7.33398 6.14258 7.33887 6.35742Q7.34375 6.57227 7.12891 6.75781Q6.47461 7.34375 6.11816 8.12988Q5.76172 8.91602 5.76172 9.79492Q5.76172 10.918 6.30371 11.8359Q6.8457 12.7539 7.76367 13.2959Q8.68164 13.8379 9.80469 13.8379Q10.9277 13.8379 11.8506 13.2959Q12.7734 12.7539 13.3154 11.8359Q13.8574 10.918 13.8574 9.79492Q13.8477 8.91602 13.4912 8.13477Q13.1348 7.35352 12.4805 6.76758Q12.2656 6.57227 12.2705 6.35742Q12.2754 6.14258 12.4219 5.98633Q12.5684 5.83008 12.7832 5.80566Q12.998 5.78125 13.2031 5.9668Q14.0234 6.68945 14.4873 7.7002Q14.9512 8.71094 14.9512 9.79492Q14.9512 10.8496 14.5459 11.7725Q14.1406 12.6953 13.4277 13.4082Q12.7148 14.1211 11.7871 14.5264Q10.8594 14.9316 9.80469 14.9316ZM9.80469 9.95117Q9.58008 9.95117 9.42871 9.7998Q9.27734 9.64844 9.27734 9.41406L9.27734 4.91211Q9.27734 4.66797 9.42871 4.5166Q9.58008 4.36523 9.80469 4.36523Q10.0391 4.36523 10.1855 4.5166Q10.332 4.66797 10.332 4.91211L10.332 9.41406Q10.332 9.64844 10.1855 9.7998Q10.0391 9.95117 9.80469 9.95117Z"
                     fill="#ffffff" />
       </g>
</svg>