<svg width="19.5918" height="19.5987">
       <g>
              <rect height="19.5987" opacity="0" width="19.5918" x="0" y="0" />
              <path d="M9.79446 19.5889Q11.8082 19.5889 13.5796 18.8228Q15.3511 18.0566 16.7039 16.7039Q18.0566 15.3513 18.8242 13.5783Q19.5918 11.8053 19.5918 9.79446Q19.5918 7.78366 18.8242 6.01067Q18.0566 4.23767 16.7039 2.88498Q15.3511 1.53229 13.5763 0.766144Q11.8015 0 9.78775 0Q7.77695 0 6.00395 0.766144Q4.23096 1.53229 2.88307 2.88498Q1.53519 4.23767 0.767593 6.01067Q0 7.78366 0 9.79446Q0 11.8053 0.766144 13.5783Q1.53229 15.3513 2.88498 16.7039Q4.23767 18.0566 6.01067 18.8228Q7.78366 19.5889 9.79446 19.5889Z"
                     fill="rgba(255,255,255,0.55)" />
              <path d="M5.59296 11.6443Q4.8262 11.6443 4.28802 11.0994Q3.74985 10.5545 3.74985 9.79446Q3.74985 9.02771 4.28802 8.48618Q4.8262 7.94464 5.59296 7.94464Q6.35971 7.94464 6.90125 8.48618Q7.44278 9.02771 7.44278 9.79446Q7.44278 10.5545 6.90125 11.0994Q6.35971 11.6443 5.59296 11.6443ZM13.9989 11.6443Q13.2321 11.6443 12.6906 11.0994Q12.149 10.5545 12.149 9.79446Q12.149 9.02771 12.6906 8.48618Q13.2321 7.94464 13.9989 7.94464Q14.7658 7.94464 15.3039 8.48618Q15.842 9.02771 15.842 9.79446Q15.842 10.5545 15.3039 11.0994Q14.7658 11.6443 13.9989 11.6443Z"
                     fill="#ffffff" />
       </g>
</svg>