<svg width="17.6819" height="17.7075">
       <g>
              <rect height="17.7075" opacity="0" width="17.6819" x="0" y="0" />
              <path d="M2.87872 17.7075L14.8001 17.7075Q16.2334 17.7075 16.9576 16.987Q17.6819 16.2665 17.6819 14.8528L17.6819 2.8804Q17.6819 1.46667 16.9576 0.746155Q16.2334 0.0256348 14.8001 0.0256348L2.87872 0.0256348Q1.44836 0.0256348 0.724182 0.743103Q0 1.46057 0 2.8804L0 14.8528Q0 16.2726 0.724182 16.9901Q1.44836 17.7075 2.87872 17.7075Z"
                     fill="rgba(255,255,255,0.55)" />
              <path d="M5.41946 5.86746L12.2594 5.86746Q12.6418 5.86746 12.8481 6.01219Q13.0544 6.15692 13.253 6.36841L15.1007 8.29315Q15.3159 8.52112 15.3223 8.83911Q15.3287 9.1571 15.1068 9.38507L13.253 11.3293Q13.0544 11.5408 12.821 11.6856Q12.5877 11.8303 12.2594 11.8303L5.41946 11.8303Q5.09094 11.8303 4.86259 11.6856Q4.63425 11.5408 4.42886 11.3293L2.57507 9.38507Q2.35992 9.1571 2.36137 8.83911Q2.36282 8.52112 2.57812 8.29315L4.42886 6.36841Q4.63425 6.15692 4.84055 6.01219Q5.04684 5.86746 5.41946 5.86746ZM5.30075 7.93762Q4.93362 7.93762 4.66156 8.20816Q4.3895 8.4787 4.3895 8.84888Q4.3895 9.21906 4.66156 9.48624Q4.93362 9.75342 5.30075 9.75342Q5.67093 9.75342 5.94154 9.48624Q6.21216 9.21906 6.21216 8.84888Q6.21216 8.4787 5.94154 8.20816Q5.67093 7.93762 5.30075 7.93762ZM8.84277 8.62991Q8.46893 8.62991 8.20023 8.90053Q7.93152 9.17114 7.93152 9.54132Q7.93152 9.91135 8.20023 10.182Q8.46893 10.4526 8.84277 10.4526Q9.21295 10.4526 9.48166 10.182Q9.75037 9.91135 9.75037 9.54132Q9.75037 9.17114 9.48166 8.90053Q9.21295 8.62991 8.84277 8.62991ZM12.3781 7.93762Q12.011 7.93762 11.7422 8.20816Q11.4734 8.4787 11.4734 8.84888Q11.4734 9.21906 11.7422 9.48624Q12.011 9.75342 12.3781 9.75342Q12.7548 9.75342 13.0236 9.48624Q13.2924 9.21906 13.2924 8.84888Q13.2924 8.4787 13.0236 8.20816Q12.7548 7.93762 12.3781 7.93762Z"
                     fill="#ffffff" />
       </g>
</svg>