<svg width="17.6819" height="17.7075">
       <g>
              <rect height="17.7075" opacity="0" width="17.6819" x="0" y="0" />
              <path d="M2.87872 17.7075L14.8001 17.7075Q16.2334 17.7075 16.9576 16.987Q17.6819 16.2665 17.6819 14.8528L17.6819 2.8804Q17.6819 1.46667 16.9576 0.746155Q16.2334 0.0256348 14.8001 0.0256348L2.87872 0.0256348Q1.44836 0.0256348 0.724182 0.743103Q0 1.46057 0 2.8804L0 14.8528Q0 16.2726 0.724182 16.9901Q1.44836 17.7075 2.87872 17.7075Z"
                     fill="rgba(255,255,255,0.55)" />
              <path d="M4.94049 13.4604Q4.5636 13.4604 4.32236 13.2191Q4.08112 12.9778 4.08112 12.6009L4.08112 5.09689Q4.08112 4.72 4.32236 4.47868Q4.5636 4.23737 4.94049 4.23737L12.7412 4.23737Q13.1151 4.23737 13.3564 4.47868Q13.5977 4.72 13.5977 5.09689L13.5977 12.6009Q13.5977 12.9778 13.3564 13.2191Q13.1151 13.4604 12.7412 13.4604ZM8.84949 7.83264Q9.25125 7.83264 9.534 7.5499Q9.81674 7.26715 9.81674 6.85867Q9.81674 6.45691 9.534 6.17416Q9.25125 5.89142 8.84949 5.89142Q8.44101 5.89142 8.15826 6.17416Q7.87552 6.45691 7.87552 6.85867Q7.87552 7.26715 8.15826 7.5499Q8.44101 7.83264 8.84949 7.83264ZM6.71509 11.8063Q7.12357 11.8063 7.40631 11.5221Q7.68906 11.2378 7.68906 10.8324Q7.68906 10.4306 7.40631 10.1479Q7.12357 9.86511 6.71509 9.86511Q6.31332 9.86511 6.03065 10.1479Q5.74799 10.4306 5.74799 10.8324Q5.74799 11.2378 6.03065 11.5221Q6.31332 11.8063 6.71509 11.8063ZM10.9772 11.8063Q11.3789 11.8063 11.6616 11.5221Q11.9443 11.2378 11.9443 10.8324Q11.9443 10.4306 11.6616 10.1479Q11.3789 9.86511 10.9772 9.86511Q10.5717 9.86511 10.289 10.1479Q10.0063 10.4306 10.0063 10.8324Q10.0063 11.2378 10.289 11.5221Q10.5717 11.8063 10.9772 11.8063Z"
                     fill="#ffffff" />
       </g>
</svg>