<svg width="17.6819" height="17.7075">
       <g>
              <rect height="17.7075" opacity="0" width="17.6819" x="0" y="0" />
              <path d="M2.87872 17.7075L14.8001 17.7075Q16.2334 17.7075 16.9576 16.987Q17.6819 16.2665 17.6819 14.8528L17.6819 2.8804Q17.6819 1.46667 16.9576 0.746155Q16.2334 0.0256348 14.8001 0.0256348L2.87872 0.0256348Q1.44836 0.0256348 0.724182 0.743103Q0 1.46057 0 2.8804L0 14.8528Q0 16.2726 0.724182 16.9901Q1.44836 17.7075 2.87872 17.7075Z"
                     fill="rgba(255,255,255,0.55)" />
              <path d="M4.94049 13.4604Q4.5636 13.4604 4.32236 13.2191Q4.08112 12.9778 4.08112 12.6009L4.08112 5.09689Q4.08112 4.72 4.32236 4.47868Q4.5636 4.23737 4.94049 4.23737L12.7412 4.23737Q13.1151 4.23737 13.3564 4.47868Q13.5977 4.72 13.5977 5.09689L13.5977 12.6009Q13.5977 12.9778 13.3564 13.2191Q13.1151 13.4604 12.7412 13.4604ZM8.84949 8.15277Q9.33853 8.15277 9.68437 7.80693Q10.0302 7.46109 10.0302 6.96533Q10.0302 6.47949 9.68437 6.12877Q9.33853 5.77805 8.84949 5.77805Q8.35678 5.77805 8.00941 6.12877Q7.66205 6.47949 7.66205 6.96533Q7.66205 7.46109 8.00941 7.80693Q8.35678 8.15277 8.84949 8.15277ZM6.71509 11.9002Q7.12357 11.9002 7.40631 11.6175Q7.68906 11.3348 7.68906 10.9331Q7.68906 10.5276 7.40631 10.2434Q7.12357 9.95911 6.71509 9.95911Q6.31332 9.95911 6.03065 10.2434Q5.74799 10.5276 5.74799 10.9331Q5.74799 11.3348 6.03065 11.6175Q6.31332 11.9002 6.71509 11.9002ZM10.9772 11.9002Q11.3789 11.9002 11.6616 11.6175Q11.9443 11.3348 11.9443 10.9331Q11.9443 10.5276 11.6616 10.2434Q11.3789 9.95911 10.9772 9.95911Q10.5717 9.95911 10.289 10.2434Q10.0063 10.5276 10.0063 10.9331Q10.0063 11.3348 10.289 11.6175Q10.5717 11.9002 10.9772 11.9002Z"
                     fill="#ffffff" />
       </g>
</svg>