<svg width="37.0488" height="12.0956">
       <g>
              <rect height="12.0956" opacity="0" width="37.0488" x="0" y="0" />
              <path d="M2.67517 10.8403L26.8016 10.8403Q28.015 10.8403 28.7444 10.1029Q29.4739 9.36554 29.4739 8.16513L29.4739 2.67899Q29.4739 1.47171 28.7444 0.735855Q28.015 0 26.8016 0L2.67517 0Q1.46194 0 0.730972 0.73288Q0 1.46576 0 2.67899L0 8.16513Q0 9.37836 0.730972 10.1093Q1.46194 10.8403 2.67517 10.8403ZM28.8928 8.71368L30.1007 8.71368Q30.6418 8.71368 30.9738 8.38501Q31.3058 8.05634 31.3058 7.51526L31.3058 3.46741Q31.3058 2.92618 30.9738 2.59605Q30.6418 2.26593 30.1007 2.26593L28.8928 2.26593ZM31.0741 6.10428L37.0488 6.10428L37.0488 5.08835L31.0741 5.08835Z"
                     fill="rgba(255,255,255,0.55)" />
              <path d="M3.33954 7.65991Q3.13614 7.65991 3.01003 7.53563Q2.88391 7.41135 2.88391 7.21405L2.88391 3.61954Q2.88391 3.40332 3.01003 3.28362Q3.13614 3.16391 3.33954 3.16391L4.07455 3.16391Q4.26819 3.16391 4.39285 3.28362Q4.51752 3.40332 4.51752 3.61954L4.51752 7.21405Q4.51752 7.41135 4.39285 7.53563Q4.26819 7.65991 4.07455 7.65991ZM9.30344 8.45901Q8.45917 8.45901 7.77115 8.0497Q7.08313 7.64038 6.67236 6.95244Q6.2616 6.2645 6.2616 5.42023Q6.2616 4.58572 6.67236 3.89435Q7.08313 3.20297 7.77115 2.79213Q8.45917 2.38129 9.30344 2.38129Q10.1379 2.38129 10.8292 2.79213Q11.5205 3.20297 11.9299 3.89435Q12.3393 4.58572 12.3393 5.42023Q12.3393 6.2645 11.9299 6.95244Q11.5205 7.64038 10.8292 8.0497Q10.1379 8.45901 9.30344 8.45901ZM16.6197 8.45901Q15.7852 8.45901 15.0957 8.0497Q14.4063 7.64038 13.9988 6.95244Q13.5913 6.2645 13.5913 5.42023Q13.5913 4.58572 13.9988 3.89435Q14.4063 3.20297 15.0957 2.79213Q15.7852 2.38129 16.6197 2.38129Q17.4609 2.38129 18.1523 2.79213Q18.8437 3.20297 19.253 3.89435Q19.6623 4.58572 19.6623 5.42023Q19.6623 6.2645 19.253 6.95244Q18.8437 7.64038 18.1523 8.0497Q17.4609 8.45901 16.6197 8.45901ZM23.9398 8.45901Q23.0956 8.45901 22.4075 8.0497Q21.7195 7.64038 21.312 6.95244Q20.9045 6.2645 20.9045 5.42023Q20.9045 4.58572 21.312 3.89435Q21.7195 3.20297 22.4075 2.79213Q23.0956 2.38129 23.9398 2.38129Q24.7742 2.38129 25.4655 2.79213Q26.1569 3.20297 26.5662 3.89435Q26.9756 4.58572 26.9756 5.42023Q26.9756 6.2645 26.5662 6.95244Q26.1569 7.64038 25.4655 8.0497Q24.7742 8.45901 23.9398 8.45901ZM8.21533 7.03598Q8.38501 7.03598 8.50441 6.91505Q8.62381 6.79413 8.62381 6.62445L8.62381 4.21967Q8.62381 4.04999 8.50441 3.9257Q8.38501 3.80142 8.21533 3.80142Q8.04565 3.80142 7.92137 3.92906Q7.79709 4.0567 7.79709 4.21967L7.79709 6.62445Q7.79709 6.78741 7.92137 6.9117Q8.04565 7.03598 8.21533 7.03598ZM10.3885 7.03598Q10.5582 7.03598 10.6757 6.91505Q10.7933 6.79413 10.7933 6.62445L10.7933 4.21967Q10.7933 4.04999 10.6757 3.9257Q10.5582 3.80142 10.3885 3.80142Q10.2119 3.80142 10.0877 3.9257Q9.96353 4.04999 9.96353 4.21967L9.96353 6.62445Q9.96353 6.79413 10.0912 6.91505Q10.2188 7.03598 10.3885 7.03598ZM15.5316 7.03598Q15.7149 7.03598 15.8308 6.91505Q15.9468 6.79413 15.9468 6.62445L15.9468 4.21967Q15.9468 4.04999 15.8308 3.9257Q15.7149 3.80142 15.5316 3.80142Q15.3619 3.80142 15.2377 3.92906Q15.1134 4.0567 15.1134 4.21967L15.1134 6.62445Q15.1134 6.79413 15.2377 6.91505Q15.3619 7.03598 15.5316 7.03598ZM17.7048 7.03598Q17.8745 7.03598 17.9954 6.91505Q18.1163 6.79413 18.1163 6.62445L18.1163 4.21967Q18.1163 4.04999 17.9988 3.9257Q17.8813 3.80142 17.7048 3.80142Q17.5284 3.80142 17.4075 3.9257Q17.2865 4.04999 17.2865 4.21967L17.2865 6.62445Q17.2865 6.79413 17.4075 6.91505Q17.5284 7.03598 17.7048 7.03598ZM22.8517 7.03598Q23.0214 7.03598 23.1441 6.91505Q23.2669 6.79413 23.2669 6.62445L23.2669 4.21967Q23.2669 4.04999 23.1475 3.9257Q23.0281 3.80142 22.8517 3.80142Q22.6721 3.80142 22.5528 3.92906Q22.4335 4.0567 22.4335 4.21967L22.4335 6.62445Q22.4335 6.79413 22.5528 6.91505Q22.6721 7.03598 22.8517 7.03598ZM25.0249 7.03598Q25.1945 7.03598 25.312 6.91505Q25.4295 6.79413 25.4295 6.62445L25.4295 4.21967Q25.4295 4.04999 25.312 3.9257Q25.1945 3.80142 25.0249 3.80142Q24.8483 3.80142 24.724 3.9257Q24.5998 4.04999 24.5998 4.21967L24.5998 6.62445Q24.5998 6.79413 24.7274 6.91505Q24.855 7.03598 25.0249 7.03598Z"
                     fill="#ffffff" />
       </g>
</svg>