<svg width="17.6819" height="17.7075">
       <g>
              <rect height="17.7075" opacity="0" width="17.6819" x="0" y="0" />
              <path d="M2.87872 17.7075L14.8001 17.7075Q16.2334 17.7075 16.9576 16.987Q17.6819 16.2665 17.6819 14.8528L17.6819 2.8804Q17.6819 1.46667 16.9576 0.746155Q16.2334 0.0256348 14.8001 0.0256348L2.87872 0.0256348Q1.44836 0.0256348 0.724182 0.743103Q0 1.46057 0 2.8804L0 14.8528Q0 16.2726 0.724182 16.9901Q1.44836 17.7075 2.87872 17.7075Z"
                     fill="rgba(255,255,255,0.55)" />
              <path d="M3.27179 9.72885L3.27179 7.99072Q3.27179 7.72278 3.44185 7.55753Q3.61191 7.39227 3.87695 7.39227L4.2952 7.39227L4.2952 6.85867Q4.2952 6.22314 4.66881 5.63774Q5.04242 5.05234 5.68497 4.59419Q6.32751 4.13605 7.13982 3.87352Q7.95212 3.61099 8.84277 3.61099Q9.72672 3.61099 10.5405 3.87352Q11.3544 4.13605 11.9953 4.59419Q12.6363 5.05234 13.0115 5.63774Q13.3867 6.22314 13.3867 6.85867L13.3867 7.39227L13.8049 7.39227Q14.07 7.39227 14.2385 7.55753Q14.407 7.72278 14.407 7.99072L14.407 9.72885Q14.407 9.99695 14.2385 10.1621Q14.07 10.3273 13.8049 10.3273L13.3867 10.3273L13.3867 10.8542Q13.3867 11.4964 13.0115 12.08Q12.6363 12.6636 11.9953 13.1203Q11.3544 13.577 10.5405 13.8428Q9.72672 14.1086 8.84277 14.1086Q7.95212 14.1086 7.13982 13.8428Q6.32751 13.577 5.68497 13.1203Q5.04242 12.6636 4.66881 12.08Q4.2952 11.4964 4.2952 10.8542L4.2952 10.3273L3.87695 10.3273Q3.61191 10.3273 3.44185 10.1621Q3.27179 9.99695 3.27179 9.72885ZM6.39954 9.95483Q6.8515 9.95483 7.174 9.63234Q7.49649 9.30984 7.49649 8.85803Q7.49649 8.40973 7.174 8.08723Q6.8515 7.76474 6.39954 7.76474Q5.94467 7.76474 5.62218 8.08723Q5.29968 8.40973 5.29968 8.85803Q5.29968 9.30984 5.62218 9.63234Q5.94467 9.95483 6.39954 9.95483ZM11.2822 9.95483Q11.7342 9.95483 12.0567 9.63234Q12.3792 9.30984 12.3792 8.85803Q12.3792 8.40973 12.0567 8.08723Q11.7342 7.76474 11.2822 7.76474Q10.8302 7.76474 10.5078 8.08723Q10.1854 8.40973 10.1854 8.85803Q10.1854 9.30984 10.5078 9.63234Q10.8302 9.95483 11.2822 9.95483Z"
                     fill="#ffffff" />
       </g>
</svg>