<svg width="17.6819" height="17.7075">
       <g>
              <rect height="17.7075" opacity="0" width="17.6819" x="0" y="0" />
              <path d="M2.87872 17.7075L14.8001 17.7075Q16.2334 17.7075 16.9576 16.987Q17.6819 16.2665 17.6819 14.8528L17.6819 2.8804Q17.6819 1.46667 16.9576 0.746155Q16.2334 0.0256348 14.8001 0.0256348L2.87872 0.0256348Q1.44836 0.0256348 0.724182 0.743103Q0 1.46057 0 2.8804L0 14.8528Q0 16.2726 0.724182 16.9901Q1.44836 17.7075 2.87872 17.7075Z"
                     fill="rgba(255,255,255,0.55)" />
              <path d="M7.13577 14.4904Q6.75888 14.4904 6.51756 14.249Q6.27625 14.0077 6.27625 13.6272L6.27625 4.08585Q6.27625 3.71201 6.51756 3.47069Q6.75888 3.22937 7.13577 3.22937L10.5461 3.22937Q10.923 3.22937 11.1643 3.47069Q11.4056 3.71201 11.4056 4.08585L11.4056 13.6272Q11.4056 14.0077 11.1643 14.249Q10.923 14.4904 10.5461 14.4904ZM8.84277 6.63162Q9.24454 6.63162 9.52728 6.34895Q9.81003 6.06628 9.81003 5.66452Q9.81003 5.25909 9.52728 4.97482Q9.24454 4.69055 8.84277 4.69055Q8.43735 4.69055 8.15308 4.97482Q7.8688 5.25909 7.8688 5.66452Q7.8688 6.06628 8.15308 6.34895Q8.43735 6.63162 8.84277 6.63162ZM8.84277 9.81613Q9.24454 9.81613 9.52728 9.53339Q9.81003 9.25064 9.81003 8.84888Q9.81003 8.44711 9.52728 8.16437Q9.24454 7.88162 8.84277 7.88162Q8.43735 7.88162 8.15308 8.16437Q7.8688 8.44711 7.8688 8.84888Q7.8688 9.25064 8.15308 9.53339Q8.43735 9.81613 8.84277 9.81613ZM8.84277 13.0042Q9.24454 13.0042 9.52728 12.7214Q9.81003 12.4387 9.81003 12.0302Q9.81003 11.6315 9.52728 11.3473Q9.24454 11.0631 8.84277 11.0631Q8.43735 11.0631 8.15308 11.3473Q7.8688 11.6315 7.8688 12.0302Q7.8688 12.4387 8.15308 12.7214Q8.43735 13.0042 8.84277 13.0042Z"
                     fill="#ffffff" />
       </g>
</svg>