<svg width="19.5918" height="19.5987">
       <g>
              <rect height="19.5987" opacity="0" width="19.5918" x="0" y="0" />
              <path d="M9.79446 19.5889Q11.8082 19.5889 13.5796 18.8228Q15.3511 18.0566 16.7039 16.7039Q18.0566 15.3513 18.8242 13.5783Q19.5918 11.8053 19.5918 9.79446Q19.5918 7.78366 18.8242 6.01067Q18.0566 4.23767 16.7039 2.88498Q15.3511 1.53229 13.5763 0.766144Q11.8015 0 9.78775 0Q7.77695 0 6.00395 0.766144Q4.23096 1.53229 2.88307 2.88498Q1.53519 4.23767 0.767593 6.01067Q0 7.78366 0 9.79446Q0 11.8053 0.766144 13.5783Q1.53229 15.3513 2.88498 16.7039Q4.23767 18.0566 6.01067 18.8228Q7.78366 19.5889 9.79446 19.5889Z"
                     fill="rgba(255,255,255,0.55)" />
              <path d="M9.79446 6.40625Q9.27307 6.40625 8.89679 6.03142Q8.52051 5.65659 8.52051 5.13229Q8.52051 4.6109 8.89679 4.23462Q9.27307 3.85834 9.79446 3.85834Q10.3188 3.85834 10.695 4.23462Q11.0713 4.6109 11.0713 5.13229Q11.0713 5.65659 10.695 6.03142Q10.3188 6.40625 9.79446 6.40625ZM5.38635 11.6884Q4.62631 11.6884 4.08485 11.1435Q3.5434 10.5986 3.5434 9.83856Q3.5434 9.32632 3.7912 8.90877Q4.039 8.49121 4.45999 8.23997Q4.88098 7.98874 5.38635 7.98874Q5.9024 7.98874 6.32149 8.23997Q6.74057 8.49121 6.98837 8.90877Q7.23618 9.32632 7.23618 9.83856Q7.23618 10.5986 6.69807 11.1435Q6.15997 11.6884 5.38635 11.6884ZM14.2055 11.6884Q13.432 11.6884 12.8938 11.1435Q12.3557 10.5986 12.3557 9.83856Q12.3557 9.32632 12.6035 8.90877Q12.8514 8.49121 13.269 8.23997Q13.6865 7.98874 14.2055 7.98874Q14.7079 7.98874 15.1304 8.23997Q15.5528 8.49121 15.8007 8.90877Q16.0486 9.32632 16.0486 9.83856Q16.0486 10.5986 15.507 11.1435Q14.9655 11.6884 14.2055 11.6884Z"
                     fill="#ffffff" />
       </g>
</svg>