<svg width="17.6819" height="17.7075">
       <g>
              <rect height="17.7075" opacity="0" width="17.6819" x="0" y="0" />
              <path d="M2.87872 17.7075L14.8001 17.7075Q16.2334 17.7075 16.9576 16.987Q17.6819 16.2665 17.6819 14.8528L17.6819 2.8804Q17.6819 1.46667 16.9576 0.746155Q16.2334 0.0256348 14.8001 0.0256348L2.87872 0.0256348Q1.44836 0.0256348 0.724182 0.743103Q0 1.46057 0 2.8804L0 14.8528Q0 16.2726 0.724182 16.9901Q1.44836 17.7075 2.87872 17.7075Z"
                     fill="rgba(255,255,255,0.55)" />
              <path d="M5.41946 5.30685L12.2594 5.30685Q12.6418 5.30685 12.8596 5.43991Q13.0775 5.57297 13.253 5.8078L15.1007 8.29315Q15.2927 8.54431 15.2942 8.84056Q15.2957 9.13681 15.1068 9.38507L13.253 11.89Q13.0775 12.1248 12.8326 12.2545Q12.5877 12.3842 12.2594 12.3842L5.41946 12.3842Q5.09094 12.3842 4.84764 12.2545Q4.60434 12.1248 4.42886 11.89L2.57507 9.38507Q2.38617 9.13681 2.3877 8.84056Q2.38922 8.54431 2.57812 8.29315L4.42886 5.8078Q4.60434 5.57297 4.82559 5.43991Q5.04684 5.30685 5.41946 5.30685ZM5.30075 7.93762Q4.93362 7.93762 4.66156 8.20816Q4.3895 8.4787 4.3895 8.84888Q4.3895 9.21906 4.66156 9.48624Q4.93362 9.75342 5.30075 9.75342Q5.67093 9.75342 5.94154 9.48624Q6.21216 9.21906 6.21216 8.84888Q6.21216 8.4787 5.94154 8.20816Q5.67093 7.93762 5.30075 7.93762ZM8.84277 9.12796Q8.46893 9.12796 8.20023 9.39857Q7.93152 9.66919 7.93152 10.0394Q7.93152 10.4094 8.20023 10.68Q8.46893 10.9506 8.84277 10.9506Q9.21295 10.9506 9.48166 10.68Q9.75037 10.4094 9.75037 10.0394Q9.75037 9.66919 9.48166 9.39857Q9.21295 9.12796 8.84277 9.12796ZM12.3781 7.93762Q12.011 7.93762 11.7422 8.20816Q11.4734 8.4787 11.4734 8.84888Q11.4734 9.21906 11.7422 9.48624Q12.011 9.75342 12.3781 9.75342Q12.7548 9.75342 13.0236 9.48624Q13.2924 9.21906 13.2924 8.84888Q13.2924 8.4787 13.0236 8.20816Q12.7548 7.93762 12.3781 7.93762Z"
                     fill="#ffffff" />
       </g>
</svg>