<svg width="17.6819" height="17.7075">
       <g>
              <rect height="17.7075" opacity="0" width="17.6819" x="0" y="0" />
              <path d="M2.87872 17.7075L14.8001 17.7075Q16.2334 17.7075 16.9576 16.987Q17.6819 16.2665 17.6819 14.8528L17.6819 2.8804Q17.6819 1.46667 16.9576 0.746155Q16.2334 0.0256348 14.8001 0.0256348L2.87872 0.0256348Q1.44836 0.0256348 0.724182 0.743103Q0 1.46057 0 2.8804L0 14.8528Q0 16.2726 0.724182 16.9901Q1.44836 17.7075 2.87872 17.7075Z"
                     fill="rgba(255,255,255,0.55)" />
              <path d="M5.12527 13.4671Q4.75143 13.4671 4.51012 13.2258Q4.2688 12.9845 4.2688 12.6077L4.2688 5.10056Q4.2688 4.72672 4.51012 4.4854Q4.75143 4.24408 5.12527 4.24408L12.6787 4.24408Q13.0525 4.24408 13.2954 4.4854Q13.5382 4.72672 13.5382 5.10056L13.5382 12.6077Q13.5382 12.9845 13.2954 13.2258Q13.0525 13.4671 12.6787 13.4671ZM5.80765 8.31512L6.11755 8.61526Q6.22269 8.73077 6.34834 8.73077Q6.474 8.73077 6.58264 8.61526L7.96677 7.24091Q8.08533 7.14188 8.08838 7.00531Q8.09143 6.86874 7.97287 6.75629L7.66068 6.45615Q7.4205 6.23123 7.19849 6.46301L5.80765 7.84698Q5.69885 7.95273 5.6974 8.08105Q5.69595 8.20938 5.80765 8.31512ZM11.6864 8.61526L12.0024 8.31512Q12.1112 8.20938 12.1097 8.08258Q12.1082 7.95578 11.9963 7.84698L10.6116 6.45325Q10.3706 6.20926 10.1434 6.44043L9.82437 6.75629Q9.57687 7.00378 9.82437 7.24091L11.2213 8.61526Q11.3301 8.72772 11.4572 8.72925Q11.5843 8.73077 11.6864 8.61526ZM8.68103 11.8903L9.11621 11.8903Q9.26773 11.8903 9.3634 11.8014Q9.45908 11.7125 9.45908 11.5608L9.45908 9.7496Q9.45908 9.60709 9.35852 9.50844Q9.25797 9.40979 9.11621 9.40979L8.68103 9.40979Q8.34488 9.40979 8.34488 9.7496L8.34488 11.5608Q8.34488 11.7125 8.44055 11.8014Q8.53622 11.8903 8.68103 11.8903Z"
                     fill="#ffffff" />
       </g>
</svg>