<svg width="19.5898" height="19.5996">
       <g>
              <rect height="19.5996" opacity="0" width="19.5898" x="0" y="0" />
              <path d="M9.79492 19.5898Q11.8066 19.5898 13.5791 18.8232Q15.3516 18.0566 16.7041 16.7041Q18.0566 15.3516 18.8232 13.5791Q19.5898 11.8066 19.5898 9.79492Q19.5898 7.7832 18.8232 6.01074Q18.0566 4.23828 16.7041 2.88574Q15.3516 1.5332 13.5742 0.766602Q11.7969 0 9.78516 0Q7.77344 0 6.00098 0.766602Q4.22852 1.5332 2.88086 2.88574Q1.5332 4.23828 0.766602 6.01074Q0 7.7832 0 9.79492Q0 11.8066 0.766602 13.5791Q1.5332 15.3516 2.88574 16.7041Q4.23828 18.0566 6.01074 18.8232Q7.7832 19.5898 9.79492 19.5898Z"
                     fill="rgba(255,255,255,0.55)" />
              <path d="M5.54688 12.5391Q5.54688 12.3438 5.68359 12.2021Q5.82031 12.0605 6.00586 12.0605Q6.23047 12.0605 6.39648 12.2266L6.91406 12.7637L7.74414 13.6621L7.70508 11.9336L7.70508 7.83203Q7.70508 6.26953 8.57422 5.33203Q9.44336 4.39453 10.9082 4.39453Q11.8555 4.39453 12.5684 4.80469Q13.2812 5.21484 13.6768 5.94727Q14.0723 6.67969 14.0723 7.66602Q14.0723 9.08203 13.2227 9.95605Q12.373 10.8301 10.9766 10.8301Q10.3418 10.8301 10.0488 10.5566Q9.90234 10.4102 9.90234 10.1953Q9.90234 10.0195 10.0244 9.89258Q10.1465 9.76562 10.3418 9.76562Q10.4785 9.76562 10.6152 9.80957Q10.752 9.85352 10.9961 9.85352Q11.9238 9.85352 12.5098 9.24805Q13.0957 8.64258 13.0957 7.66602Q13.0957 6.64062 12.4951 6.01562Q11.8945 5.39062 10.9082 5.39062Q9.86328 5.39062 9.28711 6.05469Q8.71094 6.71875 8.71094 7.91992L8.71094 11.9238L8.67188 13.6621L9.50195 12.7539L10.0293 12.2168Q10.1074 12.1387 10.1953 12.0996Q10.2832 12.0605 10.4102 12.0605Q10.5957 12.0605 10.7324 12.2021Q10.8691 12.3438 10.8691 12.5391Q10.8691 12.7246 10.7129 12.9004L8.75 14.8535Q8.48633 15.0977 8.20312 15.0977Q7.93945 15.0977 7.66602 14.8535L5.71289 12.9102Q5.54688 12.7246 5.54688 12.5391Z"
                     fill="#ffffff" />
       </g>
</svg>