<svg width="19.5898" height="19.5996">
       <g>
              <rect height="19.5996" opacity="0" width="19.5898" x="0" y="0" />
              <path d="M9.79492 19.5898Q11.8066 19.5898 13.5791 18.8232Q15.3516 18.0566 16.7041 16.7041Q18.0566 15.3516 18.8232 13.5791Q19.5898 11.8066 19.5898 9.79492Q19.5898 7.7832 18.8232 6.01074Q18.0566 4.23828 16.7041 2.88574Q15.3516 1.5332 13.5742 0.766602Q11.7969 0 9.78516 0Q7.77344 0 6.00098 0.766602Q4.22852 1.5332 2.88086 2.88574Q1.5332 4.23828 0.766602 6.01074Q0 7.7832 0 9.79492Q0 11.8066 0.766602 13.5791Q1.5332 15.3516 2.88574 16.7041Q4.23828 18.0566 6.01074 18.8232Q7.7832 19.5898 9.79492 19.5898Z"
                     fill="rgba(255,255,255,0.55)" />
              <path d="M9.79492 14.4238Q8.54492 14.4238 7.59766 13.8281Q6.65039 13.2324 6.12305 12.1729Q5.5957 11.1133 5.5957 9.72656Q5.5957 8.33984 6.12305 7.29004Q6.65039 6.24023 7.59766 5.64453Q8.54492 5.04883 9.79492 5.04883Q11.0449 5.04883 11.9922 5.64453Q12.9395 6.24023 13.4668 7.29004Q13.9941 8.33984 13.9941 9.72656Q13.9941 11.0059 13.54 12.002Q13.0859 12.998 12.2949 13.6035L12.9688 14.5312Q13.1543 14.7754 13.1543 14.9609Q13.1543 15.166 13.0273 15.2979Q12.9004 15.4297 12.6855 15.4297Q12.5293 15.4297 12.417 15.3662Q12.3047 15.3027 12.1875 15.1465L11.4355 14.1113Q10.6738 14.4238 9.79492 14.4238ZM9.79492 13.4082Q10.3613 13.4082 10.8008 13.2422L10.1562 12.3535Q9.99023 12.1387 9.99023 11.9531Q9.99023 11.7578 10.1318 11.626Q10.2734 11.4941 10.4688 11.4941Q10.7324 11.4941 10.9082 11.7188L11.6309 12.7051Q12.168 12.2266 12.4561 11.4648Q12.7441 10.7031 12.7441 9.72656Q12.7441 8.62305 12.3828 7.79785Q12.0215 6.97266 11.3525 6.51855Q10.6836 6.06445 9.79492 6.06445Q8.91602 6.06445 8.24707 6.51855Q7.57812 6.97266 7.21191 7.79785Q6.8457 8.62305 6.8457 9.72656Q6.8457 10.8398 7.21191 11.6699Q7.57812 12.5 8.24707 12.9541Q8.91602 13.4082 9.79492 13.4082Z"
                     fill="#ffffff" />
       </g>
</svg>