<svg width="17.6855" height="17.7051">
       <g>
              <rect height="17.7051" opacity="0" width="17.6855" x="0" y="0" />
              <path d="M2.88086 17.7051L14.8047 17.7051Q16.2305 17.7051 16.958 16.9873Q17.6855 16.2695 17.6855 14.8535L17.6855 2.88086Q17.6855 1.46484 16.958 0.742188Q16.2305 0.0195312 14.8047 0.0195312L2.88086 0.0195312Q1.44531 0.0195312 0.722656 0.737305Q0 1.45508 0 2.88086L0 14.8535Q0 16.2695 0.722656 16.9873Q1.44531 17.7051 2.88086 17.7051Z"
                     fill="rgba(255,255,255,0.55)" />
              <path d="M8.83789 13.4766Q7.58789 13.4766 6.64062 12.8809Q5.69336 12.2852 5.16602 11.2256Q4.63867 10.166 4.63867 8.7793Q4.63867 7.39258 5.16602 6.34277Q5.69336 5.29297 6.64062 4.69727Q7.58789 4.10156 8.83789 4.10156Q10.0879 4.10156 11.0352 4.69727Q11.9824 5.29297 12.5098 6.34277Q13.0371 7.39258 13.0371 8.7793Q13.0371 10.0586 12.583 11.0547Q12.1289 12.0508 11.3379 12.6562L12.0117 13.584Q12.1973 13.8281 12.1973 14.0137Q12.1973 14.2188 12.0703 14.3506Q11.9434 14.4824 11.7285 14.4824Q11.5723 14.4824 11.46 14.4189Q11.3477 14.3555 11.2305 14.1992L10.4785 13.1641Q9.7168 13.4766 8.83789 13.4766ZM8.83789 12.4609Q9.4043 12.4609 9.84375 12.2949L9.19922 11.4062Q9.0332 11.1914 9.0332 11.0059Q9.0332 10.8105 9.1748 10.6787Q9.31641 10.5469 9.51172 10.5469Q9.77539 10.5469 9.95117 10.7715L10.6738 11.7578Q11.2109 11.2793 11.499 10.5176Q11.7871 9.75586 11.7871 8.7793Q11.7871 7.67578 11.4258 6.85059Q11.0645 6.02539 10.3955 5.57129Q9.72656 5.11719 8.83789 5.11719Q7.95898 5.11719 7.29004 5.57129Q6.62109 6.02539 6.25488 6.85059Q5.88867 7.67578 5.88867 8.7793Q5.88867 9.89258 6.25488 10.7227Q6.62109 11.5527 7.29004 12.0068Q7.95898 12.4609 8.83789 12.4609Z"
                     fill="#ffffff" />
       </g>
</svg>