<svg width="21.7432" height="21.7579">
       <g>
              <rect height="21.7579" opacity="0" width="21.7432" x="0" y="0" />
              <path d="M1.02053 12.9053L8.85256 20.7276Q9.85842 21.7432 10.8789 21.7481Q11.8994 21.753 12.9053 20.7471L20.7471 12.8955Q21.7432 11.8994 21.7432 10.874Q21.7432 9.84866 20.7373 8.83303L12.9248 1.02053Q11.8994 0.00490618 10.8838 2.33627e-05Q9.86819-0.00485945 8.86233 1.01077L1.001 8.85256Q-0.00485922 9.86819 2.35885e-05 10.8789Q0.0049064 11.8897 1.02053 12.9053ZM1.88967 12.0752Q1.30373 11.4893 1.29885 10.874Q1.29397 10.2588 1.89944 9.67287L9.66311 1.89944Q10.2588 1.30373 10.8692 1.30373Q11.4795 1.30373 12.0752 1.88967L19.8584 9.67287Q20.4248 10.249 20.4395 10.8692Q20.4541 11.4893 19.8487 12.085L12.085 19.8487Q11.4795 20.4444 10.8643 20.4444Q10.249 20.4444 9.67288 19.8682Z"
                     fill="#ff9f0a" />
              <path d="M10.6885 12.8662Q10.9619 12.8662 11.1231 12.7051Q11.2842 12.544 11.2842 12.3096Q11.2842 12.2608 11.2842 12.2119Q11.2842 12.1631 11.2842 12.1143Q11.2842 11.6846 11.5235 11.3721Q11.7627 11.0596 12.3096 10.6983Q13.0323 10.2002 13.4424 9.70217Q13.8526 9.20412 13.8526 8.40334Q13.8526 7.67092 13.4571 7.14846Q13.0615 6.626 12.4073 6.34768Q11.753 6.06936 10.9522 6.06936Q9.74123 6.06936 8.9844 6.60159Q8.22756 7.13381 8.06155 7.8467Q8.04202 7.95412 8.02737 8.05666Q8.01272 8.1592 8.01272 8.27639Q8.01272 8.54006 8.17873 8.67678Q8.34475 8.8135 8.54006 8.8135Q8.73538 8.8135 8.87698 8.72073Q9.01858 8.62795 9.0967 8.48147L9.21389 8.28616Q9.33108 7.95412 9.56545 7.68557Q9.79983 7.41702 10.1416 7.26077Q10.4834 7.10452 10.8936 7.10452Q11.6553 7.10452 12.0996 7.48537Q12.544 7.86623 12.544 8.46194Q12.544 8.96975 12.2461 9.31155Q11.9483 9.65334 11.2744 10.1221Q10.708 10.503 10.3955 10.9375Q10.083 11.3721 10.083 12.0459Q10.083 12.0947 10.083 12.1485Q10.083 12.2022 10.083 12.2608Q10.083 12.8662 10.6885 12.8662ZM10.6592 15.6494Q11.0303 15.6494 11.2989 15.3906Q11.5674 15.1319 11.5674 14.7705Q11.5674 14.3994 11.2989 14.1406Q11.0303 13.8819 10.6592 13.8819Q10.2881 13.8819 10.0244 14.1406Q9.76077 14.3994 9.76077 14.7705Q9.76077 15.1319 10.0293 15.3906Q10.2979 15.6494 10.6592 15.6494Z"
                     fill="#ff9f0a" />
       </g>
</svg>