<svg width="21.7432" height="21.7579">
       <g>
              <rect height="21.7579" opacity="0" width="21.7432" x="0" y="0" />
              <path d="M1.02053 12.9053L8.85256 20.7276Q9.85842 21.7432 10.8789 21.7481Q11.8994 21.753 12.9053 20.7471L20.7471 12.8955Q21.7432 11.8994 21.7432 10.874Q21.7432 9.84866 20.7373 8.83303L12.9248 1.02053Q11.8994 0.00490618 10.8838 2.33627e-05Q9.86819-0.00485945 8.86233 1.01077L1.001 8.85256Q-0.00485922 9.86819 2.35885e-05 10.8789Q0.0049064 11.8897 1.02053 12.9053Z"
                     fill="#ff9f0a" />
              <path d="M10.6787 12.9053Q10.0537 12.9053 10.0537 12.2901Q10.0537 12.2315 10.0537 12.1778Q10.0537 12.124 10.0537 12.0655Q10.0537 11.3819 10.376 10.9424Q10.6983 10.503 11.2744 10.1026Q11.958 9.62405 12.2656 9.27737Q12.5733 8.93069 12.5733 8.41311Q12.5733 7.79787 12.1192 7.41702Q11.6651 7.03616 10.8936 7.03616Q10.4737 7.03616 10.1319 7.19241Q9.79006 7.34866 9.5508 7.61721Q9.31155 7.88577 9.18459 8.22756L9.06741 8.42287Q8.97952 8.57912 8.83791 8.6719Q8.69631 8.76467 8.49123 8.76467Q8.28616 8.76467 8.11526 8.62307Q7.94436 8.48147 7.94436 8.2178Q7.94436 8.10061 7.95901 7.99319Q7.97366 7.88577 8.00295 7.77834Q8.16897 7.04592 8.93557 6.50393Q9.70217 5.96194 10.9522 5.96194Q11.7725 5.96194 12.4414 6.25002Q13.1104 6.53811 13.5156 7.07034Q13.9209 7.60256 13.9209 8.35452Q13.9209 9.17483 13.5059 9.68752Q13.0908 10.2002 12.3389 10.6983Q11.792 11.0596 11.543 11.377Q11.294 11.6944 11.294 12.1436Q11.294 12.1826 11.294 12.2364Q11.294 12.2901 11.294 12.3389Q11.294 12.583 11.1328 12.7442Q10.9717 12.9053 10.6787 12.9053ZM10.6592 15.7569Q10.2783 15.7569 10.0049 15.4883Q9.73147 15.2197 9.73147 14.8487Q9.73147 14.4776 10.0049 14.209Q10.2783 13.9405 10.6592 13.9405Q11.0401 13.9405 11.3135 14.209Q11.5869 14.4776 11.5869 14.8487Q11.5869 15.2197 11.3086 15.4883Q11.0303 15.7569 10.6592 15.7569Z"
                     fill="#ffffff" />
       </g>
</svg>