<svg width="17.4609" height="17.4512">
       <g>
              <rect height="17.4512" opacity="0" width="17.4609" x="0" y="0" />
              <path d="M16.3672 1.09375Q15.6836 0.419922 14.7217 0.209961Q13.7598 0 12.4316 0L4.96094 0Q3.69141 0 2.73438 0.209961Q1.77734 0.419922 1.09375 1.10352Q0.419922 1.77734 0.209961 2.72461Q0 3.67188 0 4.96094L0 12.4316Q0 13.7598 0.205078 14.7217Q0.410156 15.6836 1.08398 16.3477Q1.77734 17.0312 2.73438 17.2412Q3.69141 17.4512 5.01953 17.4512L12.4316 17.4512Q13.7598 17.4512 14.7266 17.2412Q15.6934 17.0312 16.3672 16.3477Q17.0508 15.6836 17.2559 14.7217Q17.4609 13.7598 17.4609 12.4316L17.4609 5.01953Q17.4609 3.69141 17.2559 2.72949Q17.0508 1.76758 16.3672 1.09375Z"
                     fill="rgba(255,255,255,0.55)" />
              <path d="M8.54492 10.752Q7.91992 10.752 7.91992 10.1367Q7.91992 10.0781 7.91992 10.0244Q7.91992 9.9707 7.91992 9.91211Q7.91992 9.22852 8.24219 8.78906Q8.56445 8.34961 9.14062 7.94922Q9.82422 7.4707 10.1318 7.12402Q10.4395 6.77734 10.4395 6.25977Q10.4395 5.64453 9.98535 5.26367Q9.53125 4.88281 8.75977 4.88281Q8.33984 4.88281 7.99805 5.03906Q7.65625 5.19531 7.41699 5.46387Q7.17773 5.73242 7.05078 6.07422L6.93359 6.26953Q6.8457 6.42578 6.7041 6.51855Q6.5625 6.61133 6.35742 6.61133Q6.15234 6.61133 5.98145 6.46973Q5.81055 6.32812 5.81055 6.06445Q5.81055 5.94727 5.8252 5.83984Q5.83984 5.73242 5.86914 5.625Q6.03516 4.89258 6.80176 4.35059Q7.56836 3.80859 8.81836 3.80859Q9.63867 3.80859 10.3076 4.09668Q10.9766 4.38477 11.3818 4.91699Q11.7871 5.44922 11.7871 6.20117Q11.7871 7.02148 11.3721 7.53418Q10.957 8.04688 10.2051 8.54492Q9.6582 8.90625 9.40918 9.22363Q9.16016 9.54102 9.16016 9.99023Q9.16016 10.0293 9.16016 10.083Q9.16016 10.1367 9.16016 10.1855Q9.16016 10.4297 8.99902 10.5908Q8.83789 10.752 8.54492 10.752ZM8.52539 13.6035Q8.14453 13.6035 7.87109 13.335Q7.59766 13.0664 7.59766 12.6953Q7.59766 12.3242 7.87109 12.0557Q8.14453 11.7871 8.52539 11.7871Q8.90625 11.7871 9.17969 12.0557Q9.45312 12.3242 9.45312 12.6953Q9.45312 13.0664 9.1748 13.335Q8.89648 13.6035 8.52539 13.6035Z"
                     fill="#ffffff" />
       </g>
</svg>