<svg width="19.5898" height="19.5996">
       <g>
              <rect height="19.5996" opacity="0" width="19.5898" x="0" y="0" />
              <path d="M9.79492 19.5898Q11.8066 19.5898 13.5791 18.8232Q15.3516 18.0566 16.7041 16.7041Q18.0566 15.3516 18.8232 13.5791Q19.5898 11.8066 19.5898 9.79492Q19.5898 7.7832 18.8232 6.01074Q18.0566 4.23828 16.7041 2.88574Q15.3516 1.5332 13.5742 0.766602Q11.7969 0 9.78516 0Q7.77344 0 6.00098 0.766602Q4.22852 1.5332 2.88086 2.88574Q1.5332 4.23828 0.766602 6.01074Q0 7.7832 0 9.79492Q0 11.8066 0.766602 13.5791Q1.5332 15.3516 2.88574 16.7041Q4.23828 18.0566 6.01074 18.8232Q7.7832 19.5898 9.79492 19.5898Z"
                     fill="#ff9f0a" />
              <path d="M9.60938 11.8262Q8.98438 11.8262 8.98438 11.2109Q8.98438 11.1523 8.98438 11.0986Q8.98438 11.0449 8.98438 10.9863Q8.98438 10.3027 9.30664 9.86328Q9.62891 9.42383 10.2051 9.02344Q10.8887 8.54492 11.1963 8.19824Q11.5039 7.85156 11.5039 7.33398Q11.5039 6.71875 11.0498 6.33789Q10.5957 5.95703 9.82422 5.95703Q9.4043 5.95703 9.0625 6.11328Q8.7207 6.26953 8.48145 6.53809Q8.24219 6.80664 8.11523 7.14844L7.99805 7.34375Q7.91016 7.5 7.76855 7.59277Q7.62695 7.68555 7.42188 7.68555Q7.2168 7.68555 7.0459 7.54395Q6.875 7.40234 6.875 7.13867Q6.875 7.02148 6.88965 6.91406Q6.9043 6.80664 6.93359 6.69922Q7.09961 5.9668 7.86621 5.4248Q8.63281 4.88281 9.88281 4.88281Q10.7031 4.88281 11.3721 5.1709Q12.041 5.45898 12.4463 5.99121Q12.8516 6.52344 12.8516 7.27539Q12.8516 8.0957 12.4365 8.6084Q12.0215 9.12109 11.2695 9.61914Q10.7227 9.98047 10.4736 10.2979Q10.2246 10.6152 10.2246 11.0645Q10.2246 11.1035 10.2246 11.1572Q10.2246 11.2109 10.2246 11.2598Q10.2246 11.5039 10.0635 11.665Q9.90234 11.8262 9.60938 11.8262ZM9.58984 14.6777Q9.20898 14.6777 8.93555 14.4092Q8.66211 14.1406 8.66211 13.7695Q8.66211 13.3984 8.93555 13.1299Q9.20898 12.8613 9.58984 12.8613Q9.9707 12.8613 10.2441 13.1299Q10.5176 13.3984 10.5176 13.7695Q10.5176 14.1406 10.2393 14.4092Q9.96094 14.6777 9.58984 14.6777Z"
                     fill="#ffffff" />
       </g>
</svg>