<svg width="17.6855" height="17.7051">
       <g>
              <rect height="17.7051" opacity="0" width="17.6855" x="0" y="0" />
              <path d="M2.88086 17.7051L14.8047 17.7051Q16.2305 17.7051 16.958 16.9873Q17.6855 16.2695 17.6855 14.8535L17.6855 2.88086Q17.6855 1.46484 16.958 0.742188Q16.2305 0.0195312 14.8047 0.0195312L2.88086 0.0195312Q1.44531 0.0195312 0.722656 0.737305Q0 1.45508 0 2.88086L0 14.8535Q0 16.2695 0.722656 16.9873Q1.44531 17.7051 2.88086 17.7051Z"
                     fill="#ff9f0a" />
              <path d="M8.66211 10.8789Q8.03711 10.8789 8.03711 10.2637Q8.03711 10.2051 8.03711 10.1514Q8.03711 10.0977 8.03711 10.0391Q8.03711 9.35547 8.35938 8.91602Q8.68164 8.47656 9.25781 8.07617Q9.94141 7.59766 10.249 7.25098Q10.5566 6.9043 10.5566 6.38672Q10.5566 5.77148 10.1025 5.39062Q9.64844 5.00977 8.87695 5.00977Q8.45703 5.00977 8.11523 5.16602Q7.77344 5.32227 7.53418 5.59082Q7.29492 5.85938 7.16797 6.20117L7.05078 6.39648Q6.96289 6.55273 6.82129 6.64551Q6.67969 6.73828 6.47461 6.73828Q6.26953 6.73828 6.09863 6.59668Q5.92773 6.45508 5.92773 6.19141Q5.92773 6.07422 5.94238 5.9668Q5.95703 5.85938 5.98633 5.75195Q6.15234 5.01953 6.91895 4.47754Q7.68555 3.93555 8.93555 3.93555Q9.75586 3.93555 10.4248 4.22363Q11.0938 4.51172 11.499 5.04395Q11.9043 5.57617 11.9043 6.32812Q11.9043 7.14844 11.4893 7.66113Q11.0742 8.17383 10.3223 8.67188Q9.77539 9.0332 9.52637 9.35059Q9.27734 9.66797 9.27734 10.1172Q9.27734 10.1562 9.27734 10.21Q9.27734 10.2637 9.27734 10.3125Q9.27734 10.5566 9.11621 10.7178Q8.95508 10.8789 8.66211 10.8789ZM8.64258 13.7305Q8.26172 13.7305 7.98828 13.4619Q7.71484 13.1934 7.71484 12.8223Q7.71484 12.4512 7.98828 12.1826Q8.26172 11.9141 8.64258 11.9141Q9.02344 11.9141 9.29688 12.1826Q9.57031 12.4512 9.57031 12.8223Q9.57031 13.1934 9.29199 13.4619Q9.01367 13.7305 8.64258 13.7305Z"
                     fill="#ffffff" />
       </g>
</svg>