<svg width="23.8281" height="15.8105">
       <g>
              <rect height="15.8105" opacity="0" width="23.8281" x="0" y="0" />
              <path d="M3.1543 15.8008L13.8086 15.8008Q15.3027 15.8008 16.1328 14.9854Q16.9629 14.1699 16.9629 12.6758L16.9629 3.11523Q16.9629 1.63086 16.167 0.81543Q15.3711 0 13.8672 0L3.1543 0Q1.69922 0 0.849609 0.81543Q0 1.63086 0 3.11523L0 12.6758Q0 14.1699 0.825195 14.9854Q1.65039 15.8008 3.1543 15.8008ZM18.0859 10.7715L21.6211 13.75Q21.8848 13.9648 22.1484 14.0918Q22.4121 14.2188 22.6758 14.2188Q23.1934 14.2188 23.5107 13.8721Q23.8281 13.5254 23.8281 12.959L23.8281 2.8418Q23.8281 2.27539 23.5107 1.92871Q23.1934 1.58203 22.6758 1.58203Q22.4121 1.58203 22.1484 1.70898Q21.8848 1.83594 21.6211 2.05078L18.0859 5.00977Z"
                     fill="rgba(255,255,255,0.55)" />
              <path d="M8.26172 9.76562Q7.69531 9.76562 7.69531 9.19922Q7.69531 9.16016 7.69531 9.10645Q7.69531 9.05273 7.69531 9.00391Q7.69531 8.37891 7.98828 7.9834Q8.28125 7.58789 8.79883 7.2168Q9.41406 6.79688 9.69727 6.47461Q9.98047 6.15234 9.98047 5.69336Q9.98047 5.13672 9.57031 4.79004Q9.16016 4.44336 8.45703 4.44336Q7.88086 4.44336 7.50488 4.74609Q7.12891 5.04883 6.95312 5.51758Q6.80664 5.73242 6.68457 5.87402Q6.5625 6.01562 6.26953 6.01562Q6.09375 6.01562 5.93262 5.88867Q5.77148 5.76172 5.77148 5.51758Q5.77148 5.41016 5.79102 5.30762Q5.81055 5.20508 5.83984 5.10742Q5.99609 4.45312 6.68945 3.95996Q7.38281 3.4668 8.50586 3.4668Q9.24805 3.4668 9.86328 3.72559Q10.4785 3.98438 10.8398 4.46777Q11.2012 4.95117 11.2012 5.63477Q11.2012 6.37695 10.8252 6.84082Q10.4492 7.30469 9.77539 7.76367Q9.27734 8.0957 9.05273 8.37891Q8.82812 8.66211 8.82812 9.0625Q8.82812 9.12109 8.82812 9.16504Q8.82812 9.20898 8.82812 9.24805Q8.82812 9.47266 8.67676 9.61914Q8.52539 9.76562 8.26172 9.76562ZM8.24219 12.3535Q7.90039 12.3535 7.65137 12.1094Q7.40234 11.8652 7.40234 11.5332Q7.40234 11.1914 7.64648 10.9473Q7.89062 10.7031 8.24219 10.7031Q8.58398 10.7031 8.83301 10.9473Q9.08203 11.1914 9.08203 11.5332Q9.08203 11.875 8.83301 12.1143Q8.58398 12.3535 8.24219 12.3535Z"
                     fill="#ffffff" />
       </g>
</svg>