<svg width="10.2248" height="18.5196">
       <g>
              <rect height="18.5196" opacity="0" width="10.2248" x="0" y="0" />
              <path d="M4.6524 13.3412Q5.02701 13.3412 5.21057 13.109Q5.39413 12.8767 5.39413 12.5259Q5.39413 12.3746 5.39413 12.225Q5.39413 12.0753 5.39413 11.9336Q5.40085 11.2497 5.58945 10.7626Q5.77805 10.2756 6.2326 9.8291Q6.68716 9.38263 7.50183 8.81226Q8.83118 7.88696 9.52797 6.88698Q10.2248 5.88699 10.2248 4.54056Q10.2248 3.1514 9.54025 2.13623Q8.85574 1.12106 7.69142 0.568542Q6.5271 0.0160217 5.08804 0.0160217Q3.97858 0.0160217 3.01559 0.389557Q2.05261 0.763092 1.334 1.45523Q0.615387 2.14737 0.247498 3.09708Q0.112457 3.42972 0.0562286 3.72658Q0 4.02344 0 4.26422Q0 4.5813 0.175323 4.77684Q0.350647 4.97238 0.681763 4.97238Q0.96817 4.97238 1.15364 4.81422Q1.33911 4.65607 1.41617 4.37042Q1.62781 3.37616 2.13928 2.71172Q2.65076 2.04727 3.39615 1.71463Q4.14154 1.38199 5.04395 1.38199Q6.07361 1.38199 6.90376 1.77338Q7.73392 2.16476 8.22586 2.87758Q8.7178 3.59039 8.7178 4.5369Q8.7178 5.23392 8.45535 5.78667Q8.1929 6.33942 7.68867 6.83304Q7.18445 7.32666 6.46545 7.84775Q5.6395 8.43643 5.06615 9.0126Q4.4928 9.58878 4.19495 10.253Q3.89709 10.9172 3.89709 11.7645Q3.89709 11.9601 3.89709 12.1539Q3.89709 12.3476 3.89709 12.5432Q3.89709 12.8938 4.08745 13.1175Q4.2778 13.3412 4.6524 13.3412ZM4.67056 18.5196Q4.98245 18.5196 5.23773 18.3688Q5.49301 18.2181 5.64377 17.9628Q5.79453 17.7075 5.79453 17.3993Q5.79453 17.0941 5.64377 16.8372Q5.49301 16.5804 5.23773 16.4311Q4.98245 16.2819 4.67056 16.2819Q4.36234 16.2819 4.11034 16.4311Q3.85834 16.5804 3.7043 16.8372Q3.55026 17.0941 3.55026 17.3993Q3.55026 17.7075 3.7043 17.9628Q3.85834 18.2181 4.11034 18.3688Q4.36234 18.5196 4.67056 18.5196Z"
                     fill="#ff9f0a" />
       </g>
</svg>