<svg width="17.6855" height="17.7051">
       <g>
              <rect height="17.7051" opacity="0" width="17.6855" x="0" y="0" />
              <path d="M2.88086 17.7051L14.8047 17.7051Q16.2305 17.7051 16.958 16.9873Q17.6855 16.2695 17.6855 14.8535L17.6855 2.88086Q17.6855 1.46484 16.958 0.742188Q16.2305 0.0195312 14.8047 0.0195312L2.88086 0.0195312Q1.44531 0.0195312 0.722656 0.737305Q0 1.45508 0 2.88086L0 14.8535Q0 16.2695 0.722656 16.9873Q1.44531 17.7051 2.88086 17.7051ZM2.90039 16.4941Q2.07031 16.4941 1.64062 16.0645Q1.21094 15.6348 1.21094 14.7949L1.21094 2.93945Q1.21094 2.08984 1.64062 1.66016Q2.07031 1.23047 2.90039 1.23047L14.7852 1.23047Q15.5859 1.23047 16.0303 1.66016Q16.4746 2.08984 16.4746 2.93945L16.4746 14.7949Q16.4746 15.6348 16.0303 16.0645Q15.5859 16.4941 14.7852 16.4941Z"
                     fill="#ff9f0a" />
              <path d="M8.67188 10.8398Q8.94531 10.8398 9.10645 10.6787Q9.26758 10.5176 9.26758 10.2832Q9.26758 10.2344 9.26758 10.1855Q9.26758 10.1367 9.26758 10.0879Q9.26758 9.6582 9.50684 9.3457Q9.74609 9.0332 10.293 8.67188Q11.0156 8.17383 11.4258 7.67578Q11.8359 7.17773 11.8359 6.37695Q11.8359 5.64453 11.4404 5.12207Q11.0449 4.59961 10.3906 4.32129Q9.73633 4.04297 8.93555 4.04297Q7.72461 4.04297 6.96777 4.5752Q6.21094 5.10742 6.04492 5.82031Q6.02539 5.92773 6.01074 6.03027Q5.99609 6.13281 5.99609 6.25Q5.99609 6.51367 6.16211 6.65039Q6.32812 6.78711 6.52344 6.78711Q6.71875 6.78711 6.86035 6.69434Q7.00195 6.60156 7.08008 6.45508L7.19727 6.25977Q7.31445 5.92773 7.54883 5.65918Q7.7832 5.39062 8.125 5.23438Q8.4668 5.07812 8.87695 5.07812Q9.63867 5.07812 10.083 5.45898Q10.5273 5.83984 10.5273 6.43555Q10.5273 6.94336 10.2295 7.28516Q9.93164 7.62695 9.25781 8.0957Q8.69141 8.47656 8.37891 8.91113Q8.06641 9.3457 8.06641 10.0195Q8.06641 10.0684 8.06641 10.1221Q8.06641 10.1758 8.06641 10.2344Q8.06641 10.8398 8.67188 10.8398ZM8.64258 13.623Q9.01367 13.623 9.28223 13.3643Q9.55078 13.1055 9.55078 12.7441Q9.55078 12.373 9.28223 12.1143Q9.01367 11.8555 8.64258 11.8555Q8.27148 11.8555 8.00781 12.1143Q7.74414 12.373 7.74414 12.7441Q7.74414 13.1055 8.0127 13.3643Q8.28125 13.623 8.64258 13.623Z"
                     fill="#ff9f0a" />
       </g>
</svg>