<svg width="19.5898" height="19.5996">
       <g>
              <rect height="19.5996" opacity="0" width="19.5898" x="0" y="0" />
              <path d="M9.79492 19.5898Q11.8066 19.5898 13.5791 18.8232Q15.3516 18.0566 16.7041 16.7041Q18.0566 15.3516 18.8232 13.5791Q19.5898 11.8066 19.5898 9.79492Q19.5898 7.7832 18.8232 6.01074Q18.0566 4.23828 16.7041 2.88574Q15.3516 1.5332 13.5742 0.766602Q11.7969 0 9.78516 0Q7.77344 0 6.00098 0.766602Q4.22852 1.5332 2.88086 2.88574Q1.5332 4.23828 0.766602 6.01074Q0 7.7832 0 9.79492Q0 11.8066 0.766602 13.5791Q1.5332 15.3516 2.88574 16.7041Q4.23828 18.0566 6.01074 18.8232Q7.7832 19.5898 9.79492 19.5898ZM9.79492 18.3203Q8.02734 18.3203 6.47949 17.6611Q4.93164 17.002 3.75977 15.8301Q2.58789 14.6582 1.92871 13.1104Q1.26953 11.5625 1.26953 9.79492Q1.26953 8.02734 1.92871 6.47949Q2.58789 4.93164 3.75977 3.75488Q4.93164 2.57812 6.47461 1.91895Q8.01758 1.25977 9.78516 1.25977Q11.5625 1.25977 13.1104 1.91895Q14.6582 2.57812 15.8301 3.75488Q17.002 4.93164 17.666 6.47949Q18.3301 8.02734 18.3301 9.79492Q18.3301 11.5625 17.666 13.1104Q17.002 14.6582 15.8301 15.8301Q14.6582 17.002 13.1152 17.6611Q11.5723 18.3203 9.79492 18.3203Z"
                     fill="#ff9f0a" />
              <path d="M9.61914 11.7871Q9.89258 11.7871 10.0537 11.626Q10.2148 11.4648 10.2148 11.2305Q10.2148 11.1816 10.2148 11.1328Q10.2148 11.084 10.2148 11.0352Q10.2148 10.6055 10.4541 10.293Q10.6934 9.98047 11.2402 9.61914Q11.9629 9.12109 12.373 8.62305Q12.7832 8.125 12.7832 7.32422Q12.7832 6.5918 12.3877 6.06934Q11.9922 5.54688 11.3379 5.26855Q10.6836 4.99023 9.88281 4.99023Q8.67188 4.99023 7.91504 5.52246Q7.1582 6.05469 6.99219 6.76758Q6.97266 6.875 6.95801 6.97754Q6.94336 7.08008 6.94336 7.19727Q6.94336 7.46094 7.10938 7.59766Q7.27539 7.73438 7.4707 7.73438Q7.66602 7.73438 7.80762 7.6416Q7.94922 7.54883 8.02734 7.40234L8.14453 7.20703Q8.26172 6.875 8.49609 6.60645Q8.73047 6.33789 9.07227 6.18164Q9.41406 6.02539 9.82422 6.02539Q10.5859 6.02539 11.0303 6.40625Q11.4746 6.78711 11.4746 7.38281Q11.4746 7.89062 11.1768 8.23242Q10.8789 8.57422 10.2051 9.04297Q9.63867 9.42383 9.32617 9.8584Q9.01367 10.293 9.01367 10.9668Q9.01367 11.0156 9.01367 11.0693Q9.01367 11.123 9.01367 11.1816Q9.01367 11.7871 9.61914 11.7871ZM9.58984 14.5703Q9.96094 14.5703 10.2295 14.3115Q10.498 14.0527 10.498 13.6914Q10.498 13.3203 10.2295 13.0615Q9.96094 12.8027 9.58984 12.8027Q9.21875 12.8027 8.95508 13.0615Q8.69141 13.3203 8.69141 13.6914Q8.69141 14.0527 8.95996 14.3115Q9.22852 14.5703 9.58984 14.5703Z"
                     fill="#ff9f0a" />
       </g>
</svg>