<svg width="21.2012" height="21.0449">
       <g>
              <rect height="21.0449" opacity="0" width="21.2012" x="0" y="0" />
              <path d="M5.46875 21.0449Q5.70312 21.0449 5.89844 20.9229Q6.09375 20.8008 6.35742 20.5566L9.89258 17.4023L17.0508 17.4023Q18.3789 17.4023 19.3018 16.9092Q20.2246 16.416 20.7129 15.4932Q21.2012 14.5703 21.2012 13.2617L21.2012 5.41016Q21.2012 4.10156 20.7129 3.17383Q20.2246 2.24609 19.3018 1.75293Q18.3789 1.25977 17.0508 1.25977L4.15039 1.25977Q2.82227 1.25977 1.89453 1.75293Q0.966797 2.24609 0.483398 3.16895Q0 4.0918 0 5.41016L0 13.2617Q0 14.5703 0.483398 15.498Q0.966797 16.4258 1.89453 16.9141Q2.82227 17.4023 4.15039 17.4023L4.76562 17.4023L4.76562 20.2344Q4.76562 20.6055 4.95117 20.8252Q5.13672 21.0449 5.46875 21.0449Z"
                     fill="rgba(255,255,255,0.55)" />
              <path d="M10.4199 11.3574Q9.79492 11.3574 9.79492 10.7422Q9.79492 10.6836 9.79492 10.6299Q9.79492 10.5762 9.79492 10.5176Q9.79492 9.83398 10.1172 9.39453Q10.4395 8.95508 11.0156 8.55469Q11.6992 8.07617 12.0068 7.72949Q12.3145 7.38281 12.3145 6.86523Q12.3145 6.25 11.8604 5.86914Q11.4062 5.48828 10.6348 5.48828Q10.2148 5.48828 9.87305 5.64453Q9.53125 5.80078 9.29199 6.06934Q9.05273 6.33789 8.92578 6.67969L8.80859 6.875Q8.7207 7.03125 8.5791 7.12402Q8.4375 7.2168 8.23242 7.2168Q8.02734 7.2168 7.85645 7.0752Q7.68555 6.93359 7.68555 6.66992Q7.68555 6.55273 7.7002 6.44531Q7.71484 6.33789 7.74414 6.23047Q7.91016 5.49805 8.67676 4.95605Q9.44336 4.41406 10.6934 4.41406Q11.5137 4.41406 12.1826 4.70215Q12.8516 4.99023 13.2568 5.52246Q13.6621 6.05469 13.6621 6.80664Q13.6621 7.62695 13.2471 8.13965Q12.832 8.65234 12.0801 9.15039Q11.5332 9.51172 11.2842 9.8291Q11.0352 10.1465 11.0352 10.5957Q11.0352 10.6348 11.0352 10.6885Q11.0352 10.7422 11.0352 10.791Q11.0352 11.0352 10.874 11.1963Q10.7129 11.3574 10.4199 11.3574ZM10.4004 14.209Q10.0195 14.209 9.74609 13.9404Q9.47266 13.6719 9.47266 13.3008Q9.47266 12.9297 9.74609 12.6611Q10.0195 12.3926 10.4004 12.3926Q10.7812 12.3926 11.0547 12.6611Q11.3281 12.9297 11.3281 13.3008Q11.3281 13.6719 11.0498 13.9404Q10.7715 14.209 10.4004 14.209Z"
                     fill="#ffffff" />
       </g>
</svg>