<svg width="21.2012" height="21.0449">
       <g>
              <rect height="21.0449" opacity="0" width="21.2012" x="0" y="0" />
              <path d="M5.46875 21.0449Q5.70312 21.0449 5.89844 20.9229Q6.09375 20.8008 6.35742 20.5566L9.89258 17.4023L17.0508 17.4023Q18.3789 17.4023 19.3018 16.9092Q20.2246 16.416 20.7129 15.4932Q21.2012 14.5703 21.2012 13.2617L21.2012 5.41016Q21.2012 4.10156 20.7129 3.17383Q20.2246 2.24609 19.3018 1.75293Q18.3789 1.25977 17.0508 1.25977L4.15039 1.25977Q2.82227 1.25977 1.89453 1.75293Q0.966797 2.24609 0.483398 3.16895Q0 4.0918 0 5.41016L0 13.2617Q0 14.5703 0.483398 15.498Q0.966797 16.4258 1.89453 16.9141Q2.82227 17.4023 4.15039 17.4023L4.76562 17.4023L4.76562 20.2344Q4.76562 20.6055 4.95117 20.8252Q5.13672 21.0449 5.46875 21.0449Z"
                     fill="rgba(255,255,255,0.55)" />
              <path d="M5.78125 8.31055Q5.78125 7.44141 6.37695 6.875Q6.97266 6.30859 7.85156 6.30859Q8.4668 6.30859 8.95508 6.61621Q9.44336 6.92383 9.72656 7.45605Q10.0098 7.98828 10.0098 8.68164Q10.0098 9.61914 9.68262 10.3076Q9.35547 10.9961 8.8623 11.4502Q8.36914 11.9043 7.87109 12.124Q7.37305 12.3438 7.02148 12.3438Q6.82617 12.3438 6.69922 12.2168Q6.57227 12.0898 6.57227 11.9141Q6.57227 11.748 6.66504 11.6357Q6.75781 11.5234 7.01172 11.4648Q7.31445 11.377 7.6709 11.167Q8.02734 10.957 8.33984 10.625Q8.65234 10.293 8.83789 9.83398L8.75 9.83398Q8.54492 10.0977 8.24707 10.1904Q7.94922 10.2832 7.62695 10.2832Q6.78711 10.2832 6.28418 9.7168Q5.78125 9.15039 5.78125 8.31055ZM11.2109 8.31055Q11.2109 7.44141 11.8018 6.875Q12.3926 6.30859 13.2812 6.30859Q13.8867 6.30859 14.3799 6.61621Q14.873 6.92383 15.1562 7.45605Q15.4395 7.98828 15.4395 8.68164Q15.4395 9.61914 15.1074 10.3076Q14.7754 10.9961 14.2871 11.4502Q13.7988 11.9043 13.3008 12.124Q12.8027 12.3438 12.4512 12.3438Q12.2461 12.3438 12.124 12.2168Q12.002 12.0898 12.002 11.9141Q12.002 11.748 12.0947 11.6357Q12.1875 11.5234 12.4414 11.4648Q12.7441 11.377 13.1006 11.167Q13.457 10.957 13.7695 10.625Q14.082 10.293 14.2578 9.83398L14.1797 9.83398Q13.9746 10.0977 13.6719 10.1904Q13.3691 10.2832 13.0469 10.2832Q12.207 10.2832 11.709 9.7168Q11.2109 9.15039 11.2109 8.31055Z"
                     fill="#ffffff" />
       </g>
</svg>