<svg width="23.1336" height="18.0899">
       <g>
              <rect height="18.0899" opacity="0" width="23.1336" x="0" y="0" />
              <path d="M9.08481 18.0525Q9.33078 18.0525 9.4923 17.8842Q9.65381 17.7159 9.65381 17.4701L9.65381 0.575714Q9.65381 0.329742 9.4923 0.164871Q9.33078 0 9.08481 0Q8.84204 0 8.67557 0.164871Q8.5091 0.329742 8.5091 0.575714L8.5091 17.4701Q8.5091 17.7159 8.67557 17.8842Q8.84204 18.0525 9.08481 18.0525ZM14.0486 18.0525Q14.2916 18.0525 14.4531 17.8842Q14.6146 17.7159 14.6146 17.4701L14.6146 0.575714Q14.6146 0.329742 14.4531 0.164871Q14.2916 0 14.0486 0Q13.8028 0 13.638 0.164871Q13.4731 0.329742 13.4731 0.575714L13.4731 17.4701Q13.4731 17.7159 13.638 17.8842Q13.8028 18.0525 14.0486 18.0525Z"
                     fill="rgba(255,255,255,0.55)" />
              <path d="M3.40229 11.8091Q3.73645 12.0282 4.06566 12.0233Q4.39487 12.0184 4.61254 11.809Q4.8302 11.5996 4.82349 11.1934L4.82349 6.88538Q4.8302 6.46637 4.61742 6.24535Q4.40464 6.02432 4.07878 6.02432Q3.75293 6.02432 3.40229 6.25992L0.400729 8.30292Q0.138583 8.48602 0.0470305 8.76762Q-0.0445222 9.04922 0.0421477 9.33411Q0.128818 9.61899 0.400729 9.79919ZM19.7245 11.8091L22.7329 9.79919Q23.0046 9.61899 23.0914 9.33411Q23.1781 9.04922 23.0865 8.76762Q22.9949 8.48602 22.7329 8.30292L19.7245 6.25992Q19.2072 5.90637 18.7587 6.0817Q18.3101 6.25702 18.3101 6.88538L18.3101 11.1934Q18.3101 11.5996 18.5244 11.8124Q18.7387 12.0253 19.068 12.0267Q19.3972 12.0282 19.7245 11.8091Z"
                     fill="rgba(255,255,255,0.85)" />
       </g>
</svg>