<svg width="19.5898" height="19.5996">
       <g>
              <rect height="19.5996" opacity="0" width="19.5898" x="0" y="0" />
              <path d="M9.79492 19.5898Q11.8066 19.5898 13.5791 18.8232Q15.3516 18.0566 16.7041 16.7041Q18.0566 15.3516 18.8232 13.5791Q19.5898 11.8066 19.5898 9.79492Q19.5898 7.7832 18.8232 6.01074Q18.0566 4.23828 16.7041 2.88574Q15.3516 1.5332 13.5742 0.766602Q11.7969 0 9.78516 0Q7.77344 0 6.00098 0.766602Q4.22852 1.5332 2.88086 2.88574Q1.5332 4.23828 0.766602 6.01074Q0 7.7832 0 9.79492Q0 11.8066 0.766602 13.5791Q1.5332 15.3516 2.88574 16.7041Q4.23828 18.0566 6.01074 18.8232Q7.7832 19.5898 9.79492 19.5898Z"
                     fill="rgba(255,255,255,0.55)" />
              <path d="M7.26562 14.3262Q6.97266 14.3262 6.81152 14.1406Q6.65039 13.9551 6.65039 13.6426L6.65039 5.94727Q6.65039 5.63477 6.80664 5.43945Q6.96289 5.24414 7.24609 5.24414L10.0684 5.24414Q11.4746 5.24414 12.3193 6.01074Q13.1641 6.77734 13.1641 8.04688Q13.1641 8.99414 12.627 9.70215Q12.0898 10.4102 11.1914 10.6641L12.832 13.3203Q12.9785 13.5742 12.9785 13.7988Q12.9785 14.0332 12.8271 14.1797Q12.6758 14.3262 12.4219 14.3262Q12.207 14.3262 12.0703 14.2334Q11.9336 14.1406 11.7969 13.9062L9.96094 10.8301L7.89062 10.8301L7.89062 13.6426Q7.89062 13.9551 7.72949 14.1406Q7.56836 14.3262 7.26562 14.3262ZM7.89062 9.88281L9.92188 9.88281Q10.8398 9.88281 11.3818 9.39941Q11.9238 8.91602 11.9238 8.07617Q11.9238 7.20703 11.377 6.71875Q10.8301 6.23047 9.95117 6.23047L7.89062 6.23047Z"
                     fill="#ffffff" />
       </g>
</svg>