<svg width="19.7266" height="24.1309">
       <g>
              <rect height="24.1309" opacity="0" width="19.7266" x="0" y="0" />
              <path d="M9.86328 17.207Q12.1777 17.207 14.0039 16.7236Q15.8301 16.2402 17.1045 15.3809Q18.3789 14.5215 19.0527 13.3984Q19.7266 12.2754 19.7266 10.9863Q19.7266 9.69727 19.0527 8.57422Q18.3789 7.45117 17.0996 6.59668Q15.8203 5.74219 13.9941 5.25879Q12.168 4.77539 9.85352 4.77539Q7.54883 4.77539 5.72266 5.25879Q3.89648 5.74219 2.61719 6.59668Q1.33789 7.45117 0.668945 8.57422Q0 9.69727 0 10.9863Q0 12.2754 0.668945 13.3984Q1.33789 14.5215 2.61719 15.3809Q3.89648 16.2402 5.72266 16.7236Q7.54883 17.207 9.86328 17.207ZM9.86328 21.3086Q11.6211 21.3086 12.6025 20.5664Q13.584 19.8242 13.584 18.4961L13.584 17.9688Q12.7246 18.1445 11.792 18.2373Q10.8594 18.3301 9.86328 18.3301Q8.87695 18.3301 7.93945 18.2373Q7.00195 18.1445 6.14258 17.9688L6.14258 18.4961Q6.14258 19.8242 7.12402 20.5664Q8.10547 21.3086 9.86328 21.3086Z"
                     fill="rgba(255,255,255,0.55)" />
              <path d="M8.24219 13.9648Q7.76367 13.9648 7.76367 13.4375L7.76367 8.4082Q7.76367 7.87109 8.24219 7.87109L10.0684 7.87109Q11.0156 7.87109 11.5869 8.39355Q12.1582 8.91602 12.1582 9.78516Q12.1582 10.3906 11.8262 10.8594Q11.4941 11.3281 10.918 11.5234L11.9434 13.1836Q12.002 13.2812 12.0361 13.3643Q12.0703 13.4473 12.0703 13.5449Q12.0703 13.7305 11.9336 13.8525Q11.7969 13.9746 11.6113 13.9746Q11.4551 13.9746 11.3477 13.8965Q11.2402 13.8184 11.1426 13.6621L9.95117 11.6797L8.74023 11.6797L8.74023 13.4375Q8.74023 13.6719 8.60352 13.8184Q8.4668 13.9648 8.24219 13.9648ZM8.74023 10.8887L9.98047 10.8887Q10.5469 10.8887 10.8643 10.5957Q11.1816 10.3027 11.1816 9.79492Q11.1816 9.28711 10.8643 8.98438Q10.5469 8.68164 9.99023 8.68164L8.74023 8.68164Z"
                     fill="#ffffff" />
              <path d="M7.59766 1.01562L9.44336 3.47656Q9.61914 3.7207 9.90723 3.7207Q10.1953 3.7207 10.3711 3.47656L12.2168 1.01562Q12.4707 0.683594 12.3486 0.341797Q12.2266 0 11.7969 0L8.02734 0Q7.60742 0 7.47559 0.336914Q7.34375 0.673828 7.59766 1.01562Z"
                     fill="rgba(255,255,255,0.55)" />
       </g>
</svg>