<svg width="19.7266" height="18.4863">
       <g>
              <rect height="18.4863" opacity="0" width="19.7266" x="0" y="0" />
              <path d="M9.86328 14.3848Q12.1777 14.3848 14.0039 13.9014Q15.8301 13.418 17.1045 12.5586Q18.3789 11.6992 19.0527 10.5762Q19.7266 9.45312 19.7266 8.16406Q19.7266 6.875 19.0527 5.75195Q18.3789 4.62891 17.0996 3.77441Q15.8203 2.91992 13.9941 2.43652Q12.168 1.95312 9.85352 1.95312Q7.54883 1.95312 5.72266 2.43652Q3.89648 2.91992 2.61719 3.77441Q1.33789 4.62891 0.668945 5.75195Q0 6.875 0 8.16406Q0 9.45312 0.668945 10.5762Q1.33789 11.6992 2.61719 12.5586Q3.89648 13.418 5.72266 13.9014Q7.54883 14.3848 9.86328 14.3848ZM9.86328 18.4863Q11.6211 18.4863 12.6025 17.7441Q13.584 17.002 13.584 15.6738L13.584 15.1465Q12.7246 15.3223 11.792 15.415Q10.8594 15.5078 9.86328 15.5078Q8.87695 15.5078 7.93945 15.415Q7.00195 15.3223 6.14258 15.1465L6.14258 15.6738Q6.14258 17.002 7.12402 17.7441Q8.10547 18.4863 9.86328 18.4863Z"
                     fill="rgba(255,255,255,0.55)" />
              <path d="M8.24219 11.1426Q7.76367 11.1426 7.76367 10.6152L7.76367 5.58594Q7.76367 5.04883 8.24219 5.04883L10.0684 5.04883Q11.0156 5.04883 11.5869 5.57129Q12.1582 6.09375 12.1582 6.96289Q12.1582 7.56836 11.8262 8.03711Q11.4941 8.50586 10.918 8.70117L11.9434 10.3613Q12.002 10.459 12.0361 10.542Q12.0703 10.625 12.0703 10.7227Q12.0703 10.9082 11.9336 11.0303Q11.7969 11.1523 11.6113 11.1523Q11.4551 11.1523 11.3477 11.0742Q11.2402 10.9961 11.1426 10.8398L9.95117 8.85742L8.74023 8.85742L8.74023 10.6152Q8.74023 10.8496 8.60352 10.9961Q8.4668 11.1426 8.24219 11.1426ZM8.74023 8.06641L9.98047 8.06641Q10.5469 8.06641 10.8643 7.77344Q11.1816 7.48047 11.1816 6.97266Q11.1816 6.46484 10.8643 6.16211Q10.5469 5.85938 9.99023 5.85938L8.74023 5.85938Z"
                     fill="#ffffff" />
       </g>
</svg>