<svg width="23.252" height="17.7051">
       <g>
              <rect height="17.7051" opacity="0" width="23.252" x="0" y="0" />
              <path d="M8.05664 17.7051L15.2051 17.7051Q18.0371 17.7051 19.8145 16.8311Q21.5918 15.957 22.4219 14.209Q23.252 12.4609 23.252 9.82422L23.252 2.88086Q23.252 1.46484 22.5293 0.742188Q21.8066 0.0195312 20.3711 0.0195312L2.88086 0.0195312Q1.44531 0.0195312 0.722656 0.737305Q0 1.45508 0 2.88086L0 9.82422Q0 12.4609 0.834961 14.209Q1.66992 15.957 3.44727 16.8311Q5.22461 17.7051 8.05664 17.7051Z"
                     fill="rgba(255,255,255,0.55)" />
              <path d="M9.10156 13.4473Q8.80859 13.4473 8.64746 13.2617Q8.48633 13.0762 8.48633 12.7637L8.48633 5.06836Q8.48633 4.75586 8.64258 4.56055Q8.79883 4.36523 9.08203 4.36523L11.9043 4.36523Q13.3105 4.36523 14.1553 5.13184Q15 5.89844 15 7.16797Q15 8.11523 14.4629 8.82324Q13.9258 9.53125 13.0273 9.78516L14.668 12.4414Q14.8145 12.6953 14.8145 12.9199Q14.8145 13.1543 14.6631 13.3008Q14.5117 13.4473 14.2578 13.4473Q14.043 13.4473 13.9062 13.3545Q13.7695 13.2617 13.6328 13.0273L11.7969 9.95117L9.72656 9.95117L9.72656 12.7637Q9.72656 13.0762 9.56543 13.2617Q9.4043 13.4473 9.10156 13.4473ZM9.72656 9.00391L11.7578 9.00391Q12.6758 9.00391 13.2178 8.52051Q13.7598 8.03711 13.7598 7.19727Q13.7598 6.32812 13.2129 5.83984Q12.666 5.35156 11.7871 5.35156L9.72656 5.35156Z"
                     fill="#ffffff" />
       </g>
</svg>