<svg width="20.3027" height="19.8145">
       <g>
              <rect height="19.8145" opacity="0" width="20.3027" x="0" y="0" />
              <path d="M7.61719 19.8145L17.4316 19.8145Q18.8574 19.8145 19.5801 19.1016Q20.3027 18.3887 20.3027 16.9629L20.3027 7.09961Q20.3027 5.69336 19.5801 4.97559Q18.8574 4.25781 17.4316 4.25781L15 4.25781L15 5.45898L17.4023 5.45898Q18.2227 5.45898 18.6572 5.88867Q19.0918 6.31836 19.0918 7.16797L19.0918 16.9043Q19.0918 17.7539 18.6572 18.1836Q18.2227 18.6133 17.4023 18.6133L7.63672 18.6133Q6.82617 18.6133 6.38672 18.1836Q5.94727 17.7539 5.94727 16.9043L5.94727 15.0098L4.73633 15.0098L4.73633 16.9629Q4.73633 18.3789 5.45898 19.0967Q6.18164 19.8145 7.61719 19.8145Z"
                     fill="rgba(255,255,255,0.55)" />
              <path d="M2.88086 15.5664L12.6855 15.5664Q14.1211 15.5664 14.8438 14.8438Q15.5664 14.1211 15.5664 12.7051L15.5664 2.85156Q15.5664 1.43555 14.8438 0.717773Q14.1211 0 12.6855 0L2.88086 0Q1.44531 0 0.722656 0.717773Q0 1.43555 0 2.85156L0 12.7051Q0 14.1211 0.722656 14.8438Q1.44531 15.5664 2.88086 15.5664ZM2.90039 14.3555Q2.08984 14.3555 1.65039 13.9258Q1.21094 13.4961 1.21094 12.6465L1.21094 2.91016Q1.21094 2.07031 1.65039 1.63574Q2.08984 1.20117 2.90039 1.20117L12.666 1.20117Q13.4863 1.20117 13.9209 1.63574Q14.3555 2.07031 14.3555 2.91016L14.3555 12.6465Q14.3555 13.4961 13.9209 13.9258Q13.4863 14.3555 12.666 14.3555ZM5.3125 12.2266Q5.60547 12.2266 5.76172 12.0459Q5.91797 11.8652 5.91797 11.5625L5.91797 8.79883L7.94922 8.79883L9.74609 11.8164Q9.88281 12.041 10.0146 12.1338Q10.1465 12.2266 10.3613 12.2266Q10.5957 12.2266 10.7471 12.0801Q10.8984 11.9336 10.8984 11.709Q10.8984 11.4844 10.752 11.2402L9.14062 8.62305Q10.0195 8.37891 10.5469 7.68555Q11.0742 6.99219 11.0742 6.07422Q11.0742 4.82422 10.249 4.07715Q9.42383 3.33008 8.04688 3.33008L5.29297 3.33008Q5.00977 3.33008 4.8584 3.51562Q4.70703 3.70117 4.70703 4.00391L4.70703 11.5625Q4.70703 11.8555 4.86328 12.041Q5.01953 12.2266 5.3125 12.2266ZM5.91797 7.87109L5.91797 4.28711L7.93945 4.28711Q8.79883 4.28711 9.33594 4.77051Q9.87305 5.25391 9.87305 6.09375Q9.87305 6.92383 9.34082 7.39746Q8.80859 7.87109 7.91016 7.87109Z"
                     fill="rgba(255,255,255,0.55)" />
       </g>
</svg>