<svg width="20.3027" height="19.8145">
       <g>
              <rect height="19.8145" opacity="0" width="20.3027" x="0" y="0" />
              <path d="M12.6855 0L2.88086 0Q1.44531 0 0.722656 0.717773Q0 1.43555 0 2.85156L0 12.7051Q0 14.1211 0.722656 14.8438Q1.44531 15.5664 2.88086 15.5664L12.6855 15.5664Q14.1211 15.5664 14.8438 14.8438Q15.5664 14.1211 15.5664 12.7051L15.5664 2.85156Q15.5664 1.43555 14.8438 0.717773Q14.1211 0 12.6855 0ZM20.3027 7.09961Q20.3027 5.69336 19.5801 4.97559Q18.8574 4.25781 17.4316 4.25781L16.6992 4.25781L16.6992 12.7051Q16.6992 13.9746 16.2256 14.8633Q15.752 15.752 14.8535 16.2256Q13.9551 16.6992 12.6855 16.6992L4.73633 16.6992L4.73633 16.9629Q4.73633 18.3789 5.45898 19.0967Q6.18164 19.8145 7.61719 19.8145L17.4316 19.8145Q18.8574 19.8145 19.5801 19.1016Q20.3027 18.3887 20.3027 16.9629Z"
                     fill="rgba(255,255,255,0.55)" />
              <path d="M5.25391 12.3145Q4.96094 12.3145 4.7998 12.1289Q4.63867 11.9434 4.63867 11.6309L4.63867 3.93555Q4.63867 3.62305 4.79492 3.42773Q4.95117 3.23242 5.23438 3.23242L8.05664 3.23242Q9.46289 3.23242 10.3076 3.99902Q11.1523 4.76562 11.1523 6.03516Q11.1523 6.98242 10.6152 7.69043Q10.0781 8.39844 9.17969 8.65234L10.8203 11.3086Q10.9668 11.5625 10.9668 11.7871Q10.9668 12.0215 10.8154 12.168Q10.6641 12.3145 10.4102 12.3145Q10.1953 12.3145 10.0586 12.2217Q9.92188 12.1289 9.78516 11.8945L7.94922 8.81836L5.87891 8.81836L5.87891 11.6309Q5.87891 11.9434 5.71777 12.1289Q5.55664 12.3145 5.25391 12.3145ZM5.87891 7.87109L7.91016 7.87109Q8.82812 7.87109 9.37012 7.3877Q9.91211 6.9043 9.91211 6.06445Q9.91211 5.19531 9.36523 4.70703Q8.81836 4.21875 7.93945 4.21875L5.87891 4.21875Z"
                     fill="#ffffff" />
       </g>
</svg>