<svg width="17.6855" height="17.7051">
       <g>
              <rect height="17.7051" opacity="0" width="17.6855" x="0" y="0" />
              <path d="M2.88086 17.7051L14.8047 17.7051Q16.2305 17.7051 16.958 16.9873Q17.6855 16.2695 17.6855 14.8535L17.6855 2.88086Q17.6855 1.46484 16.958 0.742188Q16.2305 0.0195312 14.8047 0.0195312L2.88086 0.0195312Q1.44531 0.0195312 0.722656 0.737305Q0 1.45508 0 2.88086L0 14.8535Q0 16.2695 0.722656 16.9873Q1.44531 17.7051 2.88086 17.7051Z"
                     fill="rgba(255,255,255,0.55)" />
              <path d="M6.30859 13.3789Q6.01562 13.3789 5.85449 13.1934Q5.69336 13.0078 5.69336 12.6953L5.69336 5Q5.69336 4.6875 5.84961 4.49219Q6.00586 4.29688 6.28906 4.29688L9.11133 4.29688Q10.5176 4.29688 11.3623 5.06348Q12.207 5.83008 12.207 7.09961Q12.207 8.04688 11.6699 8.75488Q11.1328 9.46289 10.2344 9.7168L11.875 12.373Q12.0215 12.627 12.0215 12.8516Q12.0215 13.0859 11.8701 13.2324Q11.7188 13.3789 11.4648 13.3789Q11.25 13.3789 11.1133 13.2861Q10.9766 13.1934 10.8398 12.959L9.00391 9.88281L6.93359 9.88281L6.93359 12.6953Q6.93359 13.0078 6.77246 13.1934Q6.61133 13.3789 6.30859 13.3789ZM6.93359 8.93555L8.96484 8.93555Q9.88281 8.93555 10.4248 8.45215Q10.9668 7.96875 10.9668 7.12891Q10.9668 6.25977 10.4199 5.77148Q9.87305 5.2832 8.99414 5.2832L6.93359 5.2832Z"
                     fill="#ffffff" />
       </g>
</svg>