<svg width="23.252" height="17.7051">
       <g>
              <rect height="17.7051" opacity="0" width="23.252" x="0" y="0" />
              <path d="M8.05664 17.7051L15.2051 17.7051Q18.0371 17.7051 19.8145 16.8311Q21.5918 15.957 22.4219 14.209Q23.252 12.4609 23.252 9.82422L23.252 2.88086Q23.252 1.46484 22.5293 0.742188Q21.8066 0.0195312 20.3711 0.0195312L2.88086 0.0195312Q1.44531 0.0195312 0.722656 0.737305Q0 1.45508 0 2.88086L0 9.82422Q0 12.4609 0.834961 14.209Q1.66992 15.957 3.44727 16.8311Q5.22461 17.7051 8.05664 17.7051Z"
                     fill="rgba(255,255,255,0.55)" />
              <path d="M6.43555 13.4473Q6.14258 13.4473 5.98145 13.2617Q5.82031 13.0762 5.82031 12.7637L5.82031 5.06836Q5.82031 4.75586 5.97168 4.56055Q6.12305 4.36523 6.42578 4.36523L9.23828 4.36523Q10.6445 4.36523 11.4893 5.13184Q12.334 5.89844 12.334 7.16797Q12.334 8.11523 11.7969 8.82324Q11.2598 9.53125 10.3613 9.78516L11.9922 12.4414Q12.1582 12.6855 12.1582 12.9199Q12.1582 13.1543 11.9971 13.3008Q11.8359 13.4473 11.5918 13.4473Q11.3867 13.4473 11.2451 13.3545Q11.1035 13.2617 10.957 13.0273L9.13086 9.95117L7.07031 9.95117L7.07031 12.7637Q7.07031 13.0762 6.9043 13.2617Q6.73828 13.4473 6.43555 13.4473ZM7.07031 9.00391L9.0918 9.00391Q10.0098 9.00391 10.5566 8.52051Q11.1035 8.03711 11.1035 7.19727Q11.1035 6.32812 10.5518 5.83984Q10 5.35156 9.12109 5.35156L7.07031 5.35156ZM16.9043 13.5352Q16.6211 13.5352 16.4502 13.3545Q16.2793 13.1738 16.2793 12.8418L16.2793 5.67383L16.2207 5.67383L14.6875 6.67969Q14.5703 6.75781 14.4873 6.78223Q14.4043 6.80664 14.3164 6.80664Q14.1211 6.80664 13.9941 6.66504Q13.8672 6.52344 13.8672 6.32812Q13.8672 6.17188 13.9209 6.06934Q13.9746 5.9668 14.1113 5.86914L16.0156 4.58984Q16.2793 4.41406 16.4648 4.35059Q16.6504 4.28711 16.8555 4.28711Q17.168 4.28711 17.3486 4.46777Q17.5293 4.64844 17.5293 4.98047L17.5293 12.8418Q17.5293 13.1738 17.3633 13.3545Q17.1973 13.5352 16.9043 13.5352Z"
                     fill="#ffffff" />
       </g>
</svg>