<svg width="23.252" height="17.7051">
       <g>
              <rect height="17.7051" opacity="0" width="23.252" x="0" y="0" />
              <path d="M8.05664 0.0195312Q5.22461 0.0195312 3.44727 0.893555Q1.66992 1.76758 0.834961 3.52051Q0 5.27344 0 7.90039L0 14.8535Q0 16.2695 0.722656 16.9873Q1.44531 17.7051 2.88086 17.7051L20.3711 17.7051Q21.8066 17.7051 22.5293 16.9873Q23.252 16.2695 23.252 14.8535L23.252 7.90039Q23.252 5.27344 22.4219 3.52051Q21.5918 1.76758 19.8145 0.893555Q18.0371 0.0195312 15.2051 0.0195312Z"
                     fill="rgba(255,255,255,0.55)" />
              <path d="M5.625 13.457Q5.33203 13.457 5.1709 13.2715Q5.00977 13.0859 5.00977 12.7734L5.00977 5.07812Q5.00977 4.76562 5.16113 4.5752Q5.3125 4.38477 5.61523 4.38477L8.42773 4.38477Q9.83398 4.38477 10.6787 5.14648Q11.5234 5.9082 11.5234 7.17773Q11.5234 8.125 10.9863 8.83301Q10.4492 9.54102 9.55078 9.79492L11.1914 12.4512Q11.3477 12.7051 11.3477 12.9297Q11.3477 13.1641 11.1914 13.3105Q11.0352 13.457 10.791 13.457Q10.5762 13.457 10.4395 13.3643Q10.3027 13.2715 10.1562 13.0371L8.33008 9.9707L6.25977 9.9707L6.25977 12.7734Q6.25977 13.0957 6.09375 13.2764Q5.92773 13.457 5.625 13.457ZM6.25977 9.01367L8.28125 9.01367Q9.19922 9.01367 9.74609 8.53516Q10.293 8.05664 10.293 7.20703Q10.293 6.33789 9.74121 5.84961Q9.18945 5.36133 8.31055 5.36133L6.25977 5.36133ZM13.584 13.3594Q13.3203 13.3594 13.1689 13.2178Q13.0176 13.0762 13.0176 12.832Q13.0176 12.6953 13.0664 12.583Q13.1152 12.4707 13.2227 12.3535L16.5137 8.84766Q16.9922 8.33008 17.3291 7.8418Q17.666 7.35352 17.666 6.80664Q17.666 6.12305 17.1924 5.70801Q16.7188 5.29297 15.9375 5.29297Q15.1465 5.29297 14.6729 5.72754Q14.1992 6.16211 14.043 6.71875Q13.9453 6.9043 13.8184 7.02637Q13.6914 7.14844 13.4668 7.14844Q13.2324 7.14844 13.0908 7.00195Q12.9492 6.85547 12.9492 6.63086Q12.9492 6.5332 12.959 6.4502Q12.9688 6.36719 12.998 6.26953Q13.1934 5.41016 14.0186 4.84375Q14.8438 4.27734 15.8984 4.27734Q17.207 4.27734 18.0029 4.95117Q18.7988 5.625 18.7988 6.73828Q18.7988 7.5 18.418 8.13965Q18.0371 8.7793 17.3242 9.52148L14.7461 12.2461L14.7461 12.3145L18.623 12.3145Q18.8477 12.3145 18.999 12.4561Q19.1504 12.5977 19.1504 12.8418Q19.1504 13.0762 18.999 13.2178Q18.8477 13.3594 18.623 13.3594Z"
                     fill="#ffffff" />
       </g>
</svg>