<svg width="21.0286" height="21.1096">
       <g>
              <rect height="21.1096" opacity="0" width="21.0286" x="0" y="0" />
              <path d="M11.1766 0.658875Q11.1766 0.388947 10.9787 0.194473Q10.7808 0 10.5109 0Q10.2478 0 10.0499 0.194473Q9.85199 0.388947 9.85199 0.658875L9.85199 3.67874Q9.85199 3.94852 10.0499 4.1449Q10.2478 4.34128 10.5109 4.34128Q10.7808 4.34128 10.9787 4.1449Q11.1766 3.94852 11.1766 3.67874Z"
                     fill="rgba(255,255,255,0.55)" />
              <path d="M14.8575 5.24246Q14.6678 5.43213 14.6678 5.70679Q14.6678 5.98145 14.8575 6.17111Q15.047 6.36078 15.3217 6.36078Q15.5965 6.36078 15.7928 6.17111L17.9242 4.0332Q18.1137 3.84354 18.1137 3.56544Q18.1137 3.28735 17.9242 3.09769Q17.7345 2.90802 17.4632 2.90802Q17.1918 2.90802 17.0021 3.09769Z"
                     fill="rgba(255,255,255,0.55)" />
              <path d="M20.363 11.1697Q20.6328 11.1697 20.8307 10.9752Q21.0286 10.7806 21.0286 10.5109Q21.0286 10.2478 20.8307 10.0499Q20.6328 9.85199 20.363 9.85199L17.3431 9.85199Q17.0799 9.85199 16.882 10.0499Q16.6841 10.2478 16.6841 10.5109Q16.6841 10.7806 16.882 10.9752Q17.0799 11.1697 17.3431 11.1697Z"
                     fill="rgba(255,255,255,0.55)" />
              <path d="M15.7928 14.8506Q15.5965 14.6609 15.3217 14.6609Q15.047 14.6609 14.8575 14.8506Q14.6678 15.0403 14.6678 15.3149Q14.6678 15.5896 14.8575 15.7793L17.0021 17.924Q17.1918 18.1137 17.4632 18.1104Q17.7345 18.107 17.9242 17.924Q18.1137 17.7344 18.1137 17.4563Q18.1137 17.1782 17.9242 16.9885Z"
                     fill="rgba(255,255,255,0.55)" />
              <path d="M11.1766 17.343Q11.1766 17.0732 10.9787 16.8768Q10.7808 16.6805 10.5109 16.6805Q10.2478 16.6805 10.0499 16.8768Q9.85199 17.0732 9.85199 17.343L9.85199 20.3629Q9.85199 20.6328 10.0499 20.8273Q10.2478 21.0217 10.5109 21.0217Q10.7808 21.0217 10.9787 20.8273Q11.1766 20.6328 11.1766 20.3629Z"
                     fill="rgba(255,255,255,0.55)" />
              <path d="M3.09174 16.9885Q2.90207 17.1753 2.90207 17.4515Q2.90207 17.7277 3.08502 17.9173Q3.27164 18.11 3.55118 18.1119Q3.83072 18.1137 4.02039 17.924L6.15845 15.7921Q6.34811 15.6122 6.34811 15.336Q6.34811 15.0598 6.15845 14.8701Q5.97855 14.6805 5.69893 14.6805Q5.41931 14.6805 5.22964 14.8701Z"
                     fill="rgba(255,255,255,0.55)" />
              <path d="M0.658875 9.85199Q0.395813 9.85199 0.197906 10.0499Q0 10.2478 0 10.5109Q0 10.7806 0.197906 10.9752Q0.395813 11.1697 0.658875 11.1697L3.68927 11.1697Q3.95538 11.1697 4.15176 10.9752Q4.34814 10.7806 4.34814 10.5109Q4.34814 10.2478 4.15176 10.0499Q3.95538 9.85199 3.68927 9.85199Z"
                     fill="rgba(255,255,255,0.165)" />
              <path d="M5.16541 6.10672Q5.35202 6.29639 5.6282 6.29639Q5.90439 6.29639 6.09406 6.10672Q6.28372 5.9201 6.28372 5.64392Q6.28372 5.36774 6.09406 5.17807L3.96576 3.04001Q3.77914 2.84744 3.50632 2.84554Q3.23349 2.84363 3.03711 3.03329Q2.84744 3.21991 2.84744 3.49617Q2.84744 3.77243 3.03711 3.9621Z"
                     fill="rgba(255,255,255,0.165)" />
       </g>
</svg>