<svg width="23.252" height="17.7051">
       <g>
              <rect height="17.7051" opacity="0" width="23.252" x="0" y="0" />
              <path d="M8.05664 17.7051L15.2051 17.7051Q18.0371 17.7051 19.8145 16.8311Q21.5918 15.957 22.4219 14.209Q23.252 12.4609 23.252 9.82422L23.252 2.88086Q23.252 1.46484 22.5293 0.742188Q21.8066 0.0195312 20.3711 0.0195312L2.88086 0.0195312Q1.44531 0.0195312 0.722656 0.737305Q0 1.45508 0 2.88086L0 9.82422Q0 12.4609 0.834961 14.209Q1.66992 15.957 3.44727 16.8311Q5.22461 17.7051 8.05664 17.7051Z"
                     fill="rgba(255,255,255,0.55)" />
              <path d="M5.17578 13.4473Q4.88281 13.4473 4.72168 13.2617Q4.56055 13.0762 4.56055 12.7637L4.56055 5.06836Q4.56055 4.75586 4.71191 4.56055Q4.86328 4.36523 5.15625 4.36523L7.97852 4.36523Q9.38477 4.36523 10.2295 5.13184Q11.0742 5.89844 11.0742 7.16797Q11.0742 8.11523 10.5371 8.82324Q10 9.53125 9.10156 9.78516L10.7324 12.4414Q10.8984 12.7051 10.8984 12.9199Q10.8984 13.1543 10.7373 13.3008Q10.5762 13.4473 10.332 13.4473Q10.127 13.4473 9.98535 13.3545Q9.84375 13.2617 9.69727 13.0273L7.87109 9.95117L5.80078 9.95117L5.80078 12.7637Q5.80078 13.0762 5.63965 13.2617Q5.47852 13.4473 5.17578 13.4473ZM5.80078 9.00391L7.83203 9.00391Q8.74023 9.00391 9.29199 8.52051Q9.84375 8.03711 9.84375 7.19727Q9.84375 6.32812 9.29199 5.83984Q8.74023 5.35156 7.86133 5.35156L5.80078 5.35156ZM13.4473 13.3789Q12.7734 13.3789 12.7734 12.6855L12.7734 5.0293Q12.7734 4.32617 13.4473 4.32617L16.3672 4.32617Q17.5977 4.32617 18.3545 4.94629Q19.1113 5.56641 19.1113 6.5625Q19.1113 7.31445 18.6914 7.86133Q18.2715 8.4082 17.5586 8.58398L17.5586 8.63281Q18.5254 8.75977 19.082 9.35547Q19.6387 9.95117 19.6387 10.8594Q19.6387 12.0215 18.7549 12.7002Q17.8711 13.3789 16.377 13.3789ZM13.9844 8.27148L15.791 8.27148Q16.7773 8.27148 17.3389 7.86133Q17.9004 7.45117 17.9004 6.75781Q17.9004 6.07422 17.4268 5.68359Q16.9531 5.29297 16.123 5.29297L13.9844 5.29297ZM13.9844 12.4219L15.8691 12.4219Q18.3887 12.4219 18.3887 10.8203Q18.3887 10.0488 17.8467 9.60938Q17.3047 9.16992 16.3574 9.16992L13.9844 9.16992Z"
                     fill="#ffffff" />
       </g>
</svg>