<svg width="19.5898" height="19.5996">
       <g>
              <rect height="19.5996" opacity="0" width="19.5898" x="0" y="0" />
              <path d="M9.79492 19.5898Q11.8066 19.5898 13.5791 18.8232Q15.3516 18.0566 16.7041 16.7041Q18.0566 15.3516 18.8232 13.5791Q19.5898 11.8066 19.5898 9.79492Q19.5898 7.7832 18.8232 6.01074Q18.0566 4.23828 16.7041 2.88574Q15.3516 1.5332 13.5742 0.766602Q11.7969 0 9.78516 0Q7.77344 0 6.00098 0.766602Q4.22852 1.5332 2.88086 2.88574Q1.5332 4.23828 0.766602 6.01074Q0 7.7832 0 9.79492Q0 11.8066 0.766602 13.5791Q1.5332 15.3516 2.88574 16.7041Q4.23828 18.0566 6.01074 18.8232Q7.7832 19.5898 9.79492 19.5898Z"
                     fill="rgba(255,255,255,0.55)" />
              <path d="M9.81445 13.623Q8.74023 13.623 7.86621 13.1006Q6.99219 12.5781 6.46973 11.709Q5.94727 10.8398 5.94727 9.76562Q5.94727 8.69141 6.46973 7.82227Q6.99219 6.95312 7.86621 6.43066Q8.74023 5.9082 9.81445 5.9082Q10.8789 5.9082 11.748 6.43066Q12.6172 6.95312 13.1396 7.82227Q13.6621 8.69141 13.6621 9.76562Q13.6621 10.8398 13.1396 11.709Q12.6172 12.5781 11.748 13.1006Q10.8789 13.623 9.81445 13.623Z"
                     fill="#ffffff" />
       </g>
</svg>