<svg width="19.5898" height="19.5996">
       <g>
              <rect height="19.5996" opacity="0" width="19.5898" x="0" y="0" />
              <path d="M9.79492 19.5898Q11.8066 19.5898 13.5791 18.8232Q15.3516 18.0566 16.7041 16.7041Q18.0566 15.3516 18.8232 13.5791Q19.5898 11.8066 19.5898 9.79492Q19.5898 7.7832 18.8232 6.01074Q18.0566 4.23828 16.7041 2.88574Q15.3516 1.5332 13.5742 0.766602Q11.7969 0 9.78516 0Q7.77344 0 6.00098 0.766602Q4.22852 1.5332 2.88086 2.88574Q1.5332 4.23828 0.766602 6.01074Q0 7.7832 0 9.79492Q0 11.8066 0.766602 13.5791Q1.5332 15.3516 2.88574 16.7041Q4.23828 18.0566 6.01074 18.8232Q7.7832 19.5898 9.79492 19.5898Z"
                     fill="rgba(255,255,255,0.55)" />
              <path d="M3.48633 9.79492Q3.48633 9.00391 3.87207 8.35449Q4.25781 7.70508 4.90234 7.31934Q5.54688 6.93359 6.33789 6.93359Q7.12891 6.93359 7.77832 7.31934Q8.42773 7.70508 8.81348 8.35449Q9.19922 9.00391 9.19922 9.79492Q9.19922 10.3613 8.98438 10.8691Q8.76953 11.377 8.36914 11.748L11.2207 11.748Q10.8301 11.377 10.6201 10.8691Q10.4102 10.3613 10.4102 9.79492Q10.4102 9.00391 10.791 8.35449Q11.1719 7.70508 11.8213 7.31934Q12.4707 6.93359 13.252 6.93359Q14.043 6.93359 14.6973 7.31934Q15.3516 7.70508 15.7324 8.35449Q16.1133 9.00391 16.1133 9.79492Q16.1133 10.5859 15.7324 11.2354Q15.3516 11.8848 14.6973 12.2705Q14.043 12.6562 13.252 12.6562L6.33789 12.6562Q5.54688 12.6562 4.90234 12.2705Q4.25781 11.8848 3.87207 11.2354Q3.48633 10.5859 3.48633 9.79492ZM4.39453 9.78516Q4.39453 10.3223 4.6582 10.7666Q4.92188 11.2109 5.36133 11.4795Q5.80078 11.748 6.34766 11.748Q6.88477 11.748 7.32422 11.4844Q7.76367 11.2207 8.02734 10.7764Q8.29102 10.332 8.29102 9.78516Q8.29102 9.24805 8.02734 8.80859Q7.76367 8.36914 7.32422 8.10547Q6.88477 7.8418 6.34766 7.8418Q5.81055 7.8418 5.36621 8.10547Q4.92188 8.36914 4.6582 8.80859Q4.39453 9.24805 4.39453 9.78516ZM11.3184 9.78516Q11.3184 10.332 11.5771 10.7764Q11.8359 11.2207 12.2754 11.4844Q12.7148 11.748 13.252 11.748Q13.7891 11.748 14.2334 11.4795Q14.6777 11.2109 14.9463 10.7666Q15.2148 10.3223 15.2148 9.78516Q15.2148 9.24805 14.9463 8.80859Q14.6777 8.36914 14.2334 8.10547Q13.7891 7.8418 13.252 7.8418Q12.7148 7.8418 12.2754 8.10547Q11.8359 8.36914 11.5771 8.80859Q11.3184 9.24805 11.3184 9.78516Z"
                     fill="#ffffff" />
       </g>
</svg>