<svg width="23.6279" height="21.4334">
       <g>
              <rect height="21.4334" opacity="0" width="23.6279" x="0" y="0" />
              <path d="M2.81738 15.7033L9.20471 15.7033L7.76642 13.8657Q7.49161 13.5053 7.49802 13.1363Q7.50443 12.7674 7.80182 12.5054L8.14011 12.2017Q8.48328 11.8871 8.90663 11.9183Q9.32999 11.9495 9.69406 12.3061L11.7502 14.3762L12.2836 13.9206L9.13879 5.1108Q8.97583 4.66707 9.11026 4.38532Q9.24469 4.10356 9.56177 3.98638L10.3705 3.67128Q10.7999 3.50313 11.0718 3.66953Q11.3437 3.83592 11.5022 4.23189L13.0563 8.20864L14.1246 7.74156Q14.5255 7.56807 14.8946 7.62583Q15.2638 7.68358 15.5442 7.88248Q15.8246 8.08138 15.9521 8.32826Q16.2169 8.11876 16.5073 8.00646Q16.7978 7.89415 17.1101 7.89415L18.3435 7.89415L18.3435 3.14943Q18.3435 1.76943 17.6395 1.06424Q16.9354 0.359057 15.5359 0.359057L2.81738 0.359057Q1.41098 0.359057 0.70549 1.05783Q0 1.75661 0 3.14943L0 12.9195Q0 14.3125 0.70549 15.0079Q1.41098 15.7033 2.81738 15.7033Z"
                     fill="rgba(255,255,255,0.55)" />
              <path d="M19.2281 20.9575Q21.0594 20.2937 22.1834 19.0087Q23.3073 17.7236 23.5639 15.9505Q23.8205 14.1774 23.0484 12.0532L22.3643 10.1814Q21.7882 8.60247 20.8045 7.98654Q19.8209 7.37062 18.5869 7.80474Q18.2632 7.36757 17.7691 7.22299Q17.2749 7.07842 16.7108 7.2835Q16.3141 7.42998 15.9377 7.73134Q15.5902 7.26717 15.069 7.10726Q14.5479 6.94734 13.9703 7.1628Q13.6232 7.28609 13.3006 7.53725L12.1449 4.36861Q11.85 3.56295 11.1931 3.25601Q10.5362 2.94908 9.81644 3.21855Q9.07776 3.48421 8.76846 4.14026Q8.45917 4.79631 8.75717 5.60488L11.6705 13.6124Q11.6998 13.6905 11.6315 13.7198Q11.5834 13.7325 11.5248 13.6777L10.0243 12.0227Q9.61349 11.5727 9.14154 11.4421Q8.66959 11.3115 8.21457 11.472Q7.58987 11.7011 7.26219 12.2601Q6.93451 12.8192 7.19284 13.5234Q7.26486 13.7042 7.38152 13.9211Q7.49817 14.138 7.65289 14.3158L11.0182 18.3951Q12.7525 20.5019 14.8309 21.151Q16.9092 21.8001 19.2281 20.9575ZM18.9058 19.9689Q16.9728 20.6684 15.1711 20.17Q13.3693 19.6716 11.7889 17.7577L8.42651 13.6823Q8.26126 13.4914 8.18375 13.2681Q8.0838 12.9936 8.20267 12.729Q8.32153 12.4643 8.6319 12.3546Q8.87848 12.2606 9.1037 12.3493Q9.32892 12.4381 9.54163 12.6668L11.7831 15.0461Q12.0239 15.2997 12.2491 15.3489Q12.4742 15.3981 12.6971 15.3162Q12.963 15.2277 13.0704 14.9845Q13.1778 14.7414 13.0696 14.4501L9.70337 5.19869Q9.57474 4.84514 9.69765 4.55187Q9.82056 4.25859 10.1523 4.14278Q10.4808 4.0172 10.7568 4.16498Q11.0327 4.31276 11.1613 4.66631L13.5472 11.2203Q13.62 11.4221 13.8059 11.5122Q13.9919 11.6023 14.1937 11.5296Q14.3947 11.4568 14.4704 11.2718Q14.5461 11.0869 14.4733 10.8852L13.6028 8.49214Q13.869 8.24037 14.1862 8.13066Q14.5764 7.98845 14.8813 8.14638Q15.1862 8.30431 15.3441 8.72927L16.058 10.6984Q16.1436 10.9311 16.3311 11.0073Q16.5186 11.0834 16.7075 11.0137Q16.8837 10.9506 16.9781 10.7699Q17.0726 10.5892 16.9908 10.3632L16.3499 8.61284Q16.6164 8.36092 16.9267 8.25121Q17.3238 8.1061 17.6286 8.26403Q17.9335 8.42195 18.0914 8.84981L18.5757 10.1825Q18.6612 10.4152 18.8486 10.4879Q19.0361 10.5606 19.2252 10.4976Q19.4012 10.428 19.4958 10.2506Q19.5903 10.0733 19.5016 9.84056L19.0965 8.72606Q19.8027 8.46804 20.4089 8.96623Q21.0152 9.46443 21.4519 10.652L22.0512 12.3105Q22.7312 14.1805 22.5492 15.6975Q22.3672 17.2145 21.4274 18.3029Q20.4875 19.3913 18.9058 19.9689Z"
                     fill="rgba(255,255,255,0.55)" />
       </g>
</svg>