<svg width="21.2012" height="21.0449">
       <g>
              <rect height="21.0449" opacity="0" width="21.2012" x="0" y="0" />
              <path d="M5.46875 21.0449Q5.70312 21.0449 5.89844 20.9229Q6.09375 20.8008 6.35742 20.5566L9.89258 17.4023L17.0508 17.4023Q18.3789 17.4023 19.3018 16.9092Q20.2246 16.416 20.7129 15.4932Q21.2012 14.5703 21.2012 13.2617L21.2012 5.41016Q21.2012 4.10156 20.7129 3.17383Q20.2246 2.24609 19.3018 1.75293Q18.3789 1.25977 17.0508 1.25977L4.15039 1.25977Q2.82227 1.25977 1.89453 1.75293Q0.966797 2.24609 0.483398 3.16895Q0 4.0918 0 5.41016L0 13.2617Q0 14.5703 0.483398 15.498Q0.966797 16.4258 1.89453 16.9141Q2.82227 17.4023 4.15039 17.4023L4.76562 17.4023L4.76562 20.2344Q4.76562 20.6055 4.95117 20.8252Q5.13672 21.0449 5.46875 21.0449Z"
                     fill="rgba(255,255,255,0.55)" />
              <path d="M4.56055 9.02344Q3.61328 9.02344 3.61328 8.08594L3.61328 5.86914Q3.61328 4.94141 4.56055 4.94141L9.19922 4.94141Q10.1562 4.94141 10.1562 5.86914L10.1562 8.08594Q10.1562 9.02344 9.19922 9.02344ZM5.80078 13.7305Q4.86328 13.7305 4.86328 12.793L4.86328 11.2207Q4.86328 10.2734 5.80078 10.2734L9.82422 10.2734Q10.7617 10.2734 10.7617 11.2207L10.7617 12.793Q10.7617 13.7305 9.82422 13.7305ZM13.0176 13.0957Q12.0703 13.0957 12.0703 12.1582L12.0703 6.5918Q12.0703 5.64453 13.0176 5.64453L16.3672 5.64453Q17.3047 5.64453 17.3047 6.5918L17.3047 12.1582Q17.3047 13.0957 16.3672 13.0957Z"
                     fill="#ffffff" />
       </g>
</svg>