<svg width="28.233" height="18.7138">
       <g>
              <rect height="18.7138" opacity="0" width="28.233" x="0" y="0" />
              <path d="M2.5943 18.1479L21.5746 18.1479Q22.8152 18.1479 23.492 17.4832Q24.1687 16.8184 24.1687 15.5806L24.1687 7.69002L22.9628 8.89898L22.9628 15.6286Q22.9628 16.2946 22.6005 16.6554Q22.2382 17.0162 21.5721 17.0162L2.59659 17.0162Q1.93054 17.0162 1.56975 16.6554Q1.20895 16.2946 1.20895 15.6286L1.20895 7.65188Q1.20895 6.26119 2.59659 6.26119L18.3208 6.26119L19.4533 5.1354L2.5943 5.1354Q1.35345 5.1354 0.676727 5.79534Q0 6.45528 0 7.70269L0 15.5806Q0 16.8184 0.676727 17.4832Q1.35345 18.1479 2.5943 18.1479Z"
                     fill="rgba(255,255,255,0.55)" />
              <path d="M16.3275 12.1128L18.1955 11.2279L26.6113 2.82781L25.4039 1.62786L17.0015 10.0278L16.0732 11.8488Q16.0109 11.9637 16.1114 12.0694Q16.2119 12.1752 16.3275 12.1128ZM27.2795 2.15291L27.9695 1.45925Q28.2265 1.19863 28.2329 0.909323Q28.2393 0.620016 27.9915 0.372061L27.8267 0.204367Q27.6044-0.017954 27.3075 0.00157729Q27.0107 0.0211085 26.7726 0.256246L26.0825 0.936483Z"
                     fill="rgba(255,255,255,0.55)" />
              <path d="M4.9736 12.9107Q5.5014 12.9107 5.87372 12.5368Q6.24603 12.163 6.24603 11.6323Q6.24603 11.1075 5.87372 10.7337Q5.5014 10.3599 4.9736 10.3599Q4.4429 10.3599 4.06754 10.7337Q3.69217 11.1075 3.69217 11.6323Q3.69217 12.163 4.06754 12.5368Q4.4429 12.9107 4.9736 12.9107Z"
                     fill="rgba(255,255,255,0.55)" />
              <path d="M9.02222 12.9107Q9.54987 12.9107 9.92371 12.5368Q10.2975 12.163 10.2975 11.6323Q10.2975 11.1075 9.92371 10.7337Q9.54987 10.3599 9.02222 10.3599Q8.49442 10.3599 8.12057 10.7337Q7.74673 11.1075 7.74673 11.6323Q7.74673 12.163 8.12057 12.5368Q8.49442 12.9107 9.02222 12.9107Z"
                     fill="rgba(255,255,255,0.55)" />
              <path d="M13.0737 12.9107Q13.5985 12.9107 13.9753 12.5368Q14.3521 12.163 14.3521 11.6323Q14.3521 11.1075 13.9753 10.7337Q13.5985 10.3599 13.0737 10.3599Q12.543 10.3599 12.1692 10.7337Q11.7953 11.1075 11.7953 11.6323Q11.7953 12.163 12.1692 12.5368Q12.543 12.9107 13.0737 12.9107Z"
                     fill="rgba(255,255,255,0.55)" />
       </g>
</svg>