<svg width="17.6855" height="17.7051">
       <g>
              <rect height="17.7051" opacity="0" width="17.6855" x="0" y="0" />
              <path d="M2.88086 17.7051L14.8047 17.7051Q16.2305 17.7051 16.958 16.9873Q17.6855 16.2695 17.6855 14.8535L17.6855 2.88086Q17.6855 1.46484 16.958 0.742188Q16.2305 0.0195312 14.8047 0.0195312L2.88086 0.0195312Q1.44531 0.0195312 0.722656 0.737305Q0 1.45508 0 2.88086L0 14.8535Q0 16.2695 0.722656 16.9873Q1.44531 17.7051 2.88086 17.7051Z"
                     fill="rgba(255,255,255,0.55)" />
              <path d="M6.49414 13.4473Q5.83984 13.4473 5.5127 13.1201Q5.18555 12.793 5.18555 12.1484L5.18555 7.40234Q5.18555 6.76758 5.5127 6.44043Q5.83984 6.11328 6.49414 6.11328L13.3301 6.11328Q13.9844 6.11328 14.3115 6.44043Q14.6387 6.76758 14.6387 7.40234L14.6387 12.1484Q14.6387 12.793 14.3115 13.1201Q13.9844 13.4473 13.3301 13.4473ZM4.67773 7.35352L4.67773 11.3965L4.33594 11.3965Q3.69141 11.3965 3.36426 11.0742Q3.03711 10.752 3.03711 10.1172L3.03711 5.39062Q3.03711 4.74609 3.36426 4.42383Q3.69141 4.10156 4.33594 4.10156L11.1816 4.10156Q11.8359 4.10156 12.1582 4.42383Q12.4805 4.74609 12.4805 5.39062L12.4805 5.60547L6.44531 5.5957Q5.56641 5.5957 5.12207 6.04492Q4.67773 6.49414 4.67773 7.35352Z"
                     fill="#ffffff" />
       </g>
</svg>