<svg width="19.5898" height="19.5996">
       <g>
              <rect height="19.5996" opacity="0" width="19.5898" x="0" y="0" />
              <path d="M9.79492 19.5898Q11.8066 19.5898 13.5791 18.8232Q15.3516 18.0566 16.7041 16.7041Q18.0566 15.3516 18.8232 13.5791Q19.5898 11.8066 19.5898 9.79492Q19.5898 7.7832 18.8232 6.01074Q18.0566 4.23828 16.7041 2.88574Q15.3516 1.5332 13.5742 0.766602Q11.7969 0 9.78516 0Q7.77344 0 6.00098 0.766602Q4.22852 1.5332 2.88086 2.88574Q1.5332 4.23828 0.766602 6.01074Q0 7.7832 0 9.79492Q0 11.8066 0.766602 13.5791Q1.5332 15.3516 2.88574 16.7041Q4.23828 18.0566 6.01074 18.8232Q7.7832 19.5898 9.79492 19.5898Z"
                     fill="rgba(255,255,255,0.55)" />
              <path d="M14.7949 15.0098L4.73633 4.95117Q4.61914 4.84375 4.61914 4.68262Q4.61914 4.52148 4.73633 4.4043Q4.85352 4.28711 5.01465 4.28711Q5.17578 4.28711 5.2832 4.4043L15.3418 14.4629Q15.459 14.5801 15.459 14.7412Q15.459 14.9023 15.3418 15.0098Q15.2344 15.1367 15.0732 15.1367Q14.9121 15.1367 14.7949 15.0098ZM7.4707 14.4238Q6.81641 14.4238 6.48926 14.1016Q6.16211 13.7793 6.16211 13.1348L6.16211 8.37891Q6.16211 7.87109 6.40625 7.55859L13.2812 14.4238ZM15.4004 13.5938L8.90625 7.09961L14.3066 7.09961Q14.9609 7.09961 15.2881 7.42676Q15.6152 7.75391 15.6152 8.37891L15.6152 12.8711Q15.6152 13.1055 15.5615 13.2861Q15.5078 13.4668 15.4004 13.5938ZM4.01367 11.0938L4.01367 6.37695Q4.01367 5.77148 4.31641 5.46875L6.01562 7.1582Q5.6543 7.56836 5.6543 8.33984L5.6543 12.3828L5.3125 12.3828Q4.66797 12.3828 4.34082 12.0557Q4.01367 11.7285 4.01367 11.0938ZM8.38867 6.57227L6.89453 5.06836L12.1582 5.06836Q12.8125 5.06836 13.1348 5.40039Q13.457 5.73242 13.457 6.37695L13.457 6.58203Z"
                     fill="#ffffff" />
       </g>
</svg>