<svg width="19.2493" height="23.9493">
       <g>
              <rect height="23.9493" opacity="0" width="19.2493" x="0" y="0" />
              <path d="M14.9942 2.88162Q14.9942 1.44836 14.2767 0.724182Q13.5593 0 12.1394 0L2.85477 0Q1.43494 0 0.717468 0.724182Q0 1.44836 0 2.88162L0 16.1989Q0 17.6321 0.72052 18.3564Q1.44104 19.0807 2.85477 19.0807L4.74762 19.0807L4.74762 17.8716L2.91473 17.8716Q2.06833 17.8716 1.63864 17.4291Q1.20895 16.9867 1.20895 16.1794L1.20895 2.90787Q1.20895 2.0816 1.63864 1.64528Q2.06833 1.20895 2.91473 1.20895L12.0795 1.20895Q12.9193 1.20895 13.3538 1.64528Q13.7883 2.0816 13.7883 2.90787L13.7883 5.14618L14.9942 5.14618Z"
                     fill="rgba(255,255,255,0.55)" />
              <path d="M19.2493 7.5061Q19.2493 6.07574 18.5318 5.35156Q17.8143 4.62738 16.3976 4.62738L7.10983 4.62738Q5.69305 4.62738 4.97406 5.35156Q4.25507 6.07574 4.25507 7.5061L4.25507 21.0669Q4.25507 22.4973 4.97711 23.2214Q5.69916 23.9456 7.10983 23.9456L16.3976 23.9456Q17.8015 23.9456 18.5254 23.2214Q19.2493 22.4973 19.2493 21.0669ZM18.0434 7.5354L18.0434 21.0443Q18.0434 21.8518 17.6089 22.2942Q17.1744 22.7367 16.3309 22.7367L7.1698 22.7367Q6.32339 22.7367 5.89371 22.2942Q5.46402 21.8518 5.46402 21.0443L5.46402 7.5354Q5.46402 6.70914 5.89371 6.27121Q6.32339 5.83328 7.1698 5.83328L16.3309 5.83328Q17.1744 5.83328 17.6089 6.27121Q18.0434 6.70914 18.0434 7.5354Z"
                     fill="rgba(255,255,255,0.55)" />
       </g>
</svg>