<svg width="20.292" height="24.7206">
       <g>
              <rect height="24.7206" opacity="0" width="20.292" x="0" y="0" />
              <path d="M6.34711 19.1276L5.54603 19.2677Q4.71595 19.4196 4.21348 19.0546Q3.71101 18.6897 3.56879 17.8919L1.26548 4.82567Q1.12037 4.01223 1.46918 3.51151Q1.818 3.01079 2.65174 2.85897L11.6761 1.2716Q12.5098 1.12648 13.0056 1.47866Q13.5014 1.83083 13.6465 2.64733L14.2277 5.88417L15.4067 5.67437L14.8359 2.41494Q14.5904 0.997395 13.7569 0.413975Q12.9235-0.169445 11.5263 0.0693555L2.38807 1.67626Q0.98777 1.92482 0.407631 2.76352Q-0.172509 3.60222 0.0730053 5.0129L2.38609 18.1312Q2.6316 19.5351 3.47152 20.1253Q4.31144 20.7154 5.69587 20.4701L6.34711 20.353Z"
                     fill="rgba(255,255,255,0.55)" />
              <path d="M20.292 7.89177Q20.292 6.46141 19.573 5.73723Q18.854 5.01305 17.4372 5.01305L8.14948 5.01305Q6.7327 5.01305 6.01524 5.73723Q5.29777 6.46141 5.29777 7.89177L5.29777 21.4526Q5.29777 22.8829 6.02164 23.6071Q6.74552 24.3313 8.14948 24.3313L17.4372 24.3313Q18.848 24.3313 19.57 23.6071Q20.292 22.8829 20.292 21.4526ZM19.083 7.92107L19.083 21.43Q19.083 22.2375 18.6534 22.6799Q18.2238 23.1223 17.3772 23.1223L8.21616 23.1223Q7.37281 23.1223 6.93824 22.6799Q6.50367 22.2375 6.50367 21.43L6.50367 7.92107Q6.50367 7.09481 6.93824 6.65688Q7.37281 6.21895 8.21616 6.21895L17.3772 6.21895Q18.2238 6.21895 18.6534 6.65688Q19.083 7.09481 19.083 7.92107Z"
                     fill="rgba(255,255,255,0.55)" />
       </g>
</svg>