<svg width="19.5898" height="19.5996">
       <g>
              <rect height="19.5996" opacity="0" width="19.5898" x="0" y="0" />
              <path d="M9.79492 19.5898Q11.8066 19.5898 13.5791 18.8232Q15.3516 18.0566 16.7041 16.7041Q18.0566 15.3516 18.8232 13.5791Q19.5898 11.8066 19.5898 9.79492Q19.5898 7.7832 18.8232 6.01074Q18.0566 4.23828 16.7041 2.88574Q15.3516 1.5332 13.5742 0.766602Q11.7969 0 9.78516 0Q7.77344 0 6.00098 0.766602Q4.22852 1.5332 2.88086 2.88574Q1.5332 4.23828 0.766602 6.01074Q0 7.7832 0 9.79492Q0 11.8066 0.766602 13.5791Q1.5332 15.3516 2.88574 16.7041Q4.23828 18.0566 6.01074 18.8232Q7.7832 19.5898 9.79492 19.5898Z"
                     fill="rgba(255,255,255,0.55)" />
              <path d="M3.76953 8.98438Q3.76953 7.76367 4.56055 7.02148Q5.35156 6.2793 6.66992 6.2793L10.5469 6.2793L10.5469 4.94141Q10.5469 4.74609 10.6592 4.62402Q10.7715 4.50195 10.9863 4.50195Q11.1719 4.50195 11.3379 4.63867L13.5547 6.43555Q13.7402 6.58203 13.7402 6.79688Q13.7402 7.01172 13.5547 7.16797L11.3379 8.95508Q11.1816 9.08203 10.9863 9.08203Q10.7715 9.08203 10.6592 8.96484Q10.5469 8.84766 10.5469 8.64258L10.5469 7.35352L6.60156 7.35352Q5.82031 7.35352 5.3418 7.8125Q4.86328 8.27148 4.86328 9.02344L4.86328 9.52148Q4.86328 9.74609 4.70215 9.90234Q4.54102 10.0586 4.30664 10.0586Q4.08203 10.0586 3.92578 9.90234Q3.76953 9.74609 3.76953 9.52148ZM15.8594 10.6445Q15.8594 11.875 15.0635 12.6123Q14.2676 13.3496 12.9492 13.3496L9.08203 13.3496L9.08203 14.6875Q9.08203 14.8926 8.96484 15.0146Q8.84766 15.1367 8.65234 15.1367Q8.4668 15.1367 8.30078 15L6.07422 13.2031Q5.88867 13.0566 5.88867 12.8369Q5.88867 12.6172 6.07422 12.4609L8.30078 10.6738Q8.45703 10.5566 8.65234 10.5566Q8.84766 10.5566 8.96484 10.6738Q9.08203 10.791 9.08203 10.9961L9.08203 12.2852L13.0176 12.2852Q13.8086 12.2852 14.2871 11.8262Q14.7656 11.3672 14.7656 10.5957L14.7656 10.1074Q14.7656 9.87305 14.9268 9.72168Q15.0879 9.57031 15.3223 9.57031Q15.5469 9.57031 15.7031 9.72168Q15.8594 9.87305 15.8594 10.1074Z"
                     fill="#ffffff" />
       </g>
</svg>