<svg width="19.5898" height="19.5996">
       <g>
              <rect height="19.5996" opacity="0" width="19.5898" x="0" y="0" />
              <path d="M9.79492 19.5898Q11.8066 19.5898 13.5791 18.8232Q15.3516 18.0566 16.7041 16.7041Q18.0566 15.3516 18.8232 13.5791Q19.5898 11.8066 19.5898 9.79492Q19.5898 7.7832 18.8232 6.01074Q18.0566 4.23828 16.7041 2.88574Q15.3516 1.5332 13.5742 0.766602Q11.7969 0 9.78516 0Q7.77344 0 6.00098 0.766602Q4.22852 1.5332 2.88086 2.88574Q1.5332 4.23828 0.766602 6.01074Q0 7.7832 0 9.79492Q0 11.8066 0.766602 13.5791Q1.5332 15.3516 2.88574 16.7041Q4.23828 18.0566 6.01074 18.8232Q7.7832 19.5898 9.79492 19.5898Z"
                     fill="rgba(255,255,255,0.55)" />
              <path d="M3.53516 9.70703L3.53516 9.18945Q3.53516 7.99805 4.29199 7.30957Q5.04883 6.62109 6.35742 6.62109L8.81836 6.62109L8.81836 5.3125Q8.81836 5.13672 8.92578 5.0293Q9.0332 4.92188 9.21875 4.92188Q9.39453 4.92188 9.52148 5.0293L11.6699 6.75781Q11.8359 6.89453 11.8359 7.08984Q11.8359 7.28516 11.6699 7.41211L9.52148 9.15039Q9.39453 9.25781 9.21875 9.25781Q9.0332 9.25781 8.92578 9.15527Q8.81836 9.05273 8.81836 8.86719L8.81836 7.58789L6.23047 7.58789Q5.44922 7.58789 4.98047 8.05176Q4.51172 8.51562 4.51172 9.27734L4.51172 9.70703Q4.51172 9.91211 4.37012 10.0537Q4.22852 10.1953 4.02344 10.1953Q3.81836 10.1953 3.67676 10.0537Q3.53516 9.91211 3.53516 9.70703ZM15.0781 10.2637L15.0781 10.791Q15.0781 11.9727 14.3213 12.666Q13.5645 13.3594 12.2559 13.3594L8.58398 13.3594L8.58398 14.6777Q8.58398 14.8535 8.47656 14.9561Q8.36914 15.0586 8.18359 15.0586Q8.00781 15.0586 7.87109 14.9512L5.73242 13.2227Q5.55664 13.0859 5.55664 12.8906Q5.55664 12.6953 5.72266 12.5684L7.87109 10.8398Q8.00781 10.7324 8.18359 10.7324Q8.36914 10.7324 8.47656 10.835Q8.58398 10.9375 8.58398 11.123L8.58398 12.3926L12.3828 12.3926Q13.1641 12.3926 13.6328 11.9287Q14.1016 11.4648 14.1016 10.6934L14.1016 10.2637Q14.1016 10.0586 14.2432 9.92188Q14.3848 9.78516 14.5898 9.78516Q14.7949 9.78516 14.9365 9.92188Q15.0781 10.0586 15.0781 10.2637ZM14.5703 8.57422Q14.3359 8.57422 14.1895 8.42773Q14.043 8.28125 14.043 8.04688L14.043 5.88867L14.1016 5.88867L13.4766 6.34766Q13.3496 6.44531 13.2227 6.44531Q13.0566 6.44531 12.959 6.34277Q12.8613 6.24023 12.8613 6.09375Q12.8613 5.88867 13.0176 5.76172L13.7988 5.18555Q14.1309 4.94141 14.4629 4.94141Q14.7461 4.94141 14.917 5.10742Q15.0879 5.27344 15.0879 5.55664L15.0879 8.04688Q15.0879 8.29102 14.9463 8.43262Q14.8047 8.57422 14.5703 8.57422Z"
                     fill="#ffffff" />
       </g>
</svg>