<svg width="19.5898" height="19.5996">
       <g>
              <rect height="19.5996" opacity="0" width="19.5898" x="0" y="0" />
              <path d="M9.79492 19.5996Q11.8066 19.5996 13.5791 18.833Q15.3516 18.0664 16.7041 16.7139Q18.0566 15.3613 18.8232 13.5889Q19.5898 11.8164 19.5898 9.80469Q19.5898 7.79297 18.8232 6.02051Q18.0566 4.24805 16.7041 2.89551Q15.3516 1.54297 13.5742 0.776367Q11.7969 0.00976562 9.78516 0.00976562Q7.77344 0.00976562 6.00098 0.776367Q4.22852 1.54297 2.88086 2.89551Q1.5332 4.24805 0.766602 6.02051Q0 7.79297 0 9.80469Q0 11.8164 0.766602 13.5889Q1.5332 15.3613 2.88574 16.7139Q4.23828 18.0664 6.01074 18.833Q7.7832 19.5996 9.79492 19.5996Z"
                     fill="rgba(255,255,255,0.55)" />
              <path d="M5.35156 8.89648L11.2402 5.36133Q11.5625 5.16602 11.9287 5.19531Q12.2949 5.22461 12.5439 5.46387Q12.793 5.70312 12.793 6.15234L12.793 13.4375Q12.793 13.877 12.5439 14.1211Q12.2949 14.3652 11.9287 14.3945Q11.5625 14.4238 11.2402 14.2285L5.3418 10.7129Q5 10.5078 4.8877 10.1611Q4.77539 9.81445 4.8877 9.46289Q5 9.11133 5.35156 8.89648ZM6.47461 9.6875Q6.40625 9.72656 6.40137 9.80469Q6.39648 9.88281 6.48438 9.94141L11.3086 12.8125Q11.416 12.8809 11.4795 12.8467Q11.543 12.8125 11.543 12.7344L11.543 6.85547Q11.543 6.77734 11.4795 6.74316Q11.416 6.70898 11.3086 6.77734Z"
                     fill="#ffffff" />
       </g>
</svg>