<svg width="23.252" height="17.7051">
       <g>
              <rect height="17.7051" opacity="0" width="23.252" x="0" y="0" />
              <path d="M8.05664 0.0195312Q5.22461 0.0195312 3.44727 0.893555Q1.66992 1.76758 0.834961 3.52051Q0 5.27344 0 7.90039L0 14.8535Q0 16.2695 0.722656 16.9873Q1.44531 17.7051 2.88086 17.7051L20.3711 17.7051Q21.8066 17.7051 22.5293 16.9873Q23.252 16.2695 23.252 14.8535L23.252 7.90039Q23.252 5.27344 22.4219 3.52051Q21.5918 1.76758 19.8145 0.893555Q18.0371 0.0195312 15.2051 0.0195312Z"
                     fill="rgba(255,255,255,0.55)" />
              <path d="M5.23438 13.457Q4.94141 13.457 4.78027 13.2715Q4.61914 13.0859 4.61914 12.7734L4.61914 5.07812Q4.61914 4.76562 4.77051 4.57031Q4.92188 4.375 5.22461 4.375L8.03711 4.375Q9.44336 4.375 10.2881 5.1416Q11.1328 5.9082 11.1328 7.17773Q11.1328 8.125 10.5957 8.83301Q10.0586 9.54102 9.16016 9.79492L10.8008 12.4512Q10.957 12.7051 10.957 12.9297Q10.957 13.1641 10.8008 13.3105Q10.6445 13.457 10.4004 13.457Q10.1855 13.457 10.0488 13.3643Q9.91211 13.2715 9.76562 13.0371L7.93945 9.96094L5.86914 9.96094L5.86914 12.7734Q5.86914 13.0859 5.70312 13.2715Q5.53711 13.457 5.23438 13.457ZM5.86914 9.01367L7.89062 9.01367Q8.80859 9.01367 9.35547 8.53027Q9.90234 8.04688 9.90234 7.20703Q9.90234 6.33789 9.35059 5.84961Q8.79883 5.36133 7.91992 5.36133L5.86914 5.36133ZM15.9277 13.457Q15.6348 13.457 15.4736 13.2666Q15.3125 13.0762 15.3125 12.7637L15.3125 5.41992L12.7539 5.41992Q12.5293 5.41992 12.373 5.27832Q12.2168 5.13672 12.2168 4.89258Q12.2168 4.6582 12.373 4.5166Q12.5293 4.375 12.7539 4.375L19.1699 4.375Q19.4043 4.375 19.5508 4.5166Q19.6973 4.6582 19.6973 4.89258Q19.6973 5.13672 19.5508 5.27832Q19.4043 5.41992 19.1699 5.41992L16.5625 5.41992L16.5625 12.7637Q16.5625 13.0859 16.3965 13.2715Q16.2305 13.457 15.9277 13.457Z"
                     fill="#ffffff" />
       </g>
</svg>