<svg width="19.5898" height="19.5996">
       <g>
              <rect height="19.5996" opacity="0" width="19.5898" x="0" y="0" />
              <path d="M9.79492 19.5898Q11.8066 19.5898 13.5791 18.8232Q15.3516 18.0566 16.7041 16.7041Q18.0566 15.3516 18.8232 13.5791Q19.5898 11.8066 19.5898 9.79492Q19.5898 7.7832 18.8232 6.01074Q18.0566 4.23828 16.7041 2.88574Q15.3516 1.5332 13.5742 0.766602Q11.7969 0 9.78516 0Q7.77344 0 6.00098 0.766602Q4.22852 1.5332 2.88086 2.88574Q1.5332 4.23828 0.766602 6.01074Q0 7.7832 0 9.79492Q0 11.8066 0.766602 13.5791Q1.5332 15.3516 2.88574 16.7041Q4.23828 18.0566 6.01074 18.8232Q7.7832 19.5898 9.79492 19.5898Z"
                     fill="rgba(255,255,255,0.55)" />
              <path d="M9.7168 14.4238Q8.41797 14.4238 7.54883 13.8672Q6.67969 13.3105 6.43555 12.5391Q6.34766 12.3145 6.34766 12.1094Q6.34766 11.8457 6.50391 11.6895Q6.66016 11.5332 6.92383 11.5332Q7.32422 11.5332 7.51953 11.9922Q7.73438 12.6562 8.33984 13.0176Q8.94531 13.3789 9.81445 13.3789Q10.4004 13.3789 10.8936 13.1836Q11.3867 12.9883 11.6748 12.6416Q11.9629 12.2949 11.9629 11.8262Q11.9629 11.2598 11.5723 10.9424Q11.1816 10.625 10.2148 10.3711L8.78906 9.9707Q7.65625 9.66797 7.08984 9.12598Q6.52344 8.58398 6.52344 7.67578Q6.52344 6.52344 7.44629 5.79102Q8.36914 5.05859 9.82422 5.05859Q11.0449 5.05859 11.8848 5.57617Q12.7246 6.09375 12.959 6.91406Q13.0469 7.13867 13.0469 7.33398Q13.0469 7.60742 12.8906 7.74414Q12.7344 7.88086 12.4805 7.88086Q12.2559 7.88086 12.1191 7.76855Q11.9824 7.65625 11.8945 7.45117Q11.6895 6.77734 11.1475 6.42578Q10.6055 6.07422 9.78516 6.07422Q9.20898 6.07422 8.76465 6.27441Q8.32031 6.47461 8.06641 6.82617Q7.8125 7.17773 7.8125 7.62695Q7.8125 8.125 8.16406 8.4375Q8.51562 8.75 9.30664 8.96484L10.6543 9.32617Q11.9629 9.67773 12.6074 10.2344Q13.252 10.791 13.252 11.7188Q13.252 12.959 12.2852 13.6914Q11.3184 14.4238 9.7168 14.4238Z"
                     fill="#ffffff" />
       </g>
</svg>