<svg width="17.6855" height="17.7051">
       <g>
              <rect height="17.7051" opacity="0" width="17.6855" x="0" y="0" />
              <path d="M2.88086 17.7051L14.8047 17.7051Q16.2305 17.7051 16.958 16.9873Q17.6855 16.2695 17.6855 14.8535L17.6855 2.88086Q17.6855 1.46484 16.958 0.742188Q16.2305 0.0195312 14.8047 0.0195312L2.88086 0.0195312Q1.44531 0.0195312 0.722656 0.737305Q0 1.45508 0 2.88086L0 14.8535Q0 16.2695 0.722656 16.9873Q1.44531 17.7051 2.88086 17.7051Z"
                     fill="rgba(255,255,255,0.55)" />
              <path d="M8.75977 13.4766Q7.46094 13.4766 6.5918 12.9199Q5.72266 12.3633 5.47852 11.5918Q5.39062 11.3672 5.39062 11.1621Q5.39062 10.8984 5.54688 10.7422Q5.70312 10.5859 5.9668 10.5859Q6.36719 10.5859 6.5625 11.0449Q6.77734 11.709 7.38281 12.0703Q7.98828 12.4316 8.85742 12.4316Q9.44336 12.4316 9.93652 12.2363Q10.4297 12.041 10.7178 11.6943Q11.0059 11.3477 11.0059 10.8789Q11.0059 10.3125 10.6152 9.99512Q10.2246 9.67773 9.25781 9.42383L7.83203 9.02344Q6.69922 8.7207 6.13281 8.17871Q5.56641 7.63672 5.56641 6.72852Q5.56641 5.57617 6.48926 4.84375Q7.41211 4.11133 8.86719 4.11133Q10.0879 4.11133 10.9277 4.62891Q11.7676 5.14648 12.002 5.9668Q12.0898 6.19141 12.0898 6.38672Q12.0898 6.66016 11.9336 6.79688Q11.7773 6.93359 11.5234 6.93359Q11.2988 6.93359 11.1621 6.82129Q11.0254 6.70898 10.9375 6.50391Q10.7324 5.83008 10.1904 5.47852Q9.64844 5.12695 8.82812 5.12695Q8.25195 5.12695 7.80762 5.32715Q7.36328 5.52734 7.10938 5.87891Q6.85547 6.23047 6.85547 6.67969Q6.85547 7.17773 7.20703 7.49023Q7.55859 7.80273 8.34961 8.01758L9.69727 8.37891Q11.0059 8.73047 11.6504 9.28711Q12.2949 9.84375 12.2949 10.7715Q12.2949 12.0117 11.3281 12.7441Q10.3613 13.4766 8.75977 13.4766Z"
                     fill="#ffffff" />
       </g>
</svg>