<svg width="19.5898" height="19.5996">
       <g>
              <rect height="19.5996" opacity="0" width="19.5898" x="0" y="0" />
              <path d="M9.79492 19.5898Q11.8066 19.5898 13.5791 18.8232Q15.3516 18.0566 16.7041 16.7041Q18.0566 15.3516 18.8232 13.5791Q19.5898 11.8066 19.5898 9.79492Q19.5898 7.7832 18.8232 6.01074Q18.0566 4.23828 16.7041 2.88574Q15.3516 1.5332 13.5742 0.766602Q11.7969 0 9.78516 0Q7.77344 0 6.00098 0.766602Q4.22852 1.5332 2.88086 2.88574Q1.5332 4.23828 0.766602 6.01074Q0 7.7832 0 9.79492Q0 11.8066 0.766602 13.5791Q1.5332 15.3516 2.88574 16.7041Q4.23828 18.0566 6.01074 18.8232Q7.7832 19.5898 9.79492 19.5898Z"
                     fill="rgba(255,255,255,0.55)" />
              <path d="M5.45898 14.8633Q5.16602 15.0098 4.94629 14.9365Q4.72656 14.8633 4.6582 14.6436Q4.58984 14.4238 4.72656 14.1406L7.65625 8.29102Q7.77344 8.04688 7.92969 7.89551Q8.08594 7.74414 8.29102 7.64648L14.1211 4.73633Q14.4336 4.58008 14.6533 4.65332Q14.873 4.72656 14.9365 4.94629Q15 5.16602 14.8633 5.45898L11.9434 11.3086Q11.7285 11.7383 11.3086 11.9336ZM9.80469 11.0254Q10.3027 11.0254 10.6641 10.6689Q11.0254 10.3125 11.0254 9.80469Q11.0254 9.30664 10.6641 8.94531Q10.3027 8.58398 9.80469 8.58398Q9.29688 8.58398 8.93555 8.94531Q8.57422 9.30664 8.57422 9.80469Q8.57422 10.3125 8.93555 10.6689Q9.29688 11.0254 9.80469 11.0254Z"
                     fill="#ffffff" />
       </g>
</svg>