<svg width="19.5898" height="19.5996">
       <g>
              <rect height="19.5996" opacity="0" width="19.5898" x="0" y="0" />
              <path d="M9.79492 19.5996Q11.8066 19.5996 13.5791 18.833Q15.3516 18.0664 16.7041 16.7139Q18.0566 15.3613 18.8232 13.5889Q19.5898 11.8164 19.5898 9.80469Q19.5898 7.79297 18.8232 6.02051Q18.0566 4.24805 16.7041 2.89551Q15.3516 1.54297 13.5742 0.776367Q11.7969 0.00976562 9.78516 0.00976562Q7.77344 0.00976562 6.00098 0.776367Q4.22852 1.54297 2.88086 2.89551Q1.5332 4.24805 0.766602 6.02051Q0 7.79297 0 9.80469Q0 11.8164 0.766602 13.5889Q1.5332 15.3613 2.88574 16.7139Q4.23828 18.0664 6.01074 18.833Q7.7832 19.5996 9.79492 19.5996Z"
                     fill="rgba(255,255,255,0.55)" />
              <path d="M5.85938 14.4727Q5.05859 14.4727 4.50195 13.9062Q3.94531 13.3398 3.94531 12.5391Q3.94531 11.748 4.50195 11.1914Q5.05859 10.6348 5.85938 10.6348Q6.30859 10.6348 6.5625 10.7373Q6.81641 10.8398 6.98242 10.9424Q7.14844 11.0449 7.34375 11.0449Q7.4707 11.0449 7.57812 10.9863L8.55469 10.459Q8.7793 10.3418 8.86719 10.2344Q8.95508 10.127 9.00391 9.96094L9.0918 9.60938Q9.19922 9.22852 9.4043 9.00879Q9.60938 8.78906 10.0098 8.63281L14.1309 7.12891Q14.9414 6.82617 15.459 6.90918Q15.9766 6.99219 16.1426 7.44141L8.02734 11.7676Q7.8125 11.8945 7.79297 12.0459Q7.77344 12.1973 7.77344 12.5391Q7.77344 13.3398 7.2168 13.9062Q6.66016 14.4727 5.85938 14.4727ZM5.85938 13.7793Q6.36719 13.7793 6.72852 13.418Q7.08984 13.0566 7.08984 12.5391Q7.08984 12.0215 6.72852 11.665Q6.36719 11.3086 5.85938 11.3086Q5.36133 11.3086 5 11.665Q4.63867 12.0215 4.63867 12.5391Q4.63867 13.0566 4.99512 13.418Q5.35156 13.7793 5.85938 13.7793ZM10.1074 9.91211Q10.2441 9.91211 10.3418 9.81934Q10.4395 9.72656 10.4395 9.58008Q10.4395 9.43359 10.3467 9.33594Q10.2539 9.23828 10.1074 9.23828Q9.9707 9.23828 9.86816 9.33594Q9.76562 9.43359 9.76562 9.58008Q9.76562 9.7168 9.86816 9.81445Q9.9707 9.91211 10.1074 9.91211ZM9.17969 8.4375Q8.99414 8.58398 8.8623 8.76465Q8.73047 8.94531 8.63281 9.17969L7.57812 8.62305Q7.44141 8.55469 7.34375 8.55469Q7.1582 8.55469 6.9873 8.66211Q6.81641 8.76953 6.5625 8.87207Q6.30859 8.97461 5.85938 8.97461Q5.05859 8.97461 4.50195 8.41797Q3.94531 7.86133 3.94531 7.07031Q3.94531 6.26953 4.50195 5.70312Q5.05859 5.13672 5.85938 5.13672Q6.66016 5.13672 7.2168 5.69824Q7.77344 6.25977 7.77344 7.07031Q7.77344 7.41211 7.80273 7.56836Q7.83203 7.72461 8.06641 7.85156ZM5.85938 8.30078Q6.36719 8.30078 6.72852 7.94434Q7.08984 7.58789 7.08984 7.07031Q7.08984 6.55273 6.72852 6.19141Q6.36719 5.83008 5.85938 5.83008Q5.35156 5.83008 4.99512 6.19141Q4.63867 6.55273 4.63867 7.07031Q4.63867 7.58789 5 7.94434Q5.36133 8.30078 5.85938 8.30078ZM10.5371 11.0938L12.3047 10.1465L16.1426 12.1582Q15.9863 12.627 15.4541 12.7148Q14.9219 12.8027 14.1211 12.4902Z"
                     fill="#ffffff" />
       </g>
</svg>