<svg width="22.91" height="16.5802">
       <g>
              <rect height="16.5802" opacity="0" width="22.91" x="0" y="0" />
              <path d="M2.87872 16.5674L13.2584 16.5674Q14.6918 16.5674 15.416 15.8435Q16.1401 15.1196 16.1401 13.7155L16.1401 2.85492Q16.1401 1.44409 15.416 0.722046Q14.6918 0 13.2584 0L2.87872 0Q1.44836 0 0.724182 0.718994Q0 1.43799 0 2.85492L0 13.7155Q0 15.1324 0.724182 15.8499Q1.44836 16.5674 2.87872 16.5674ZM2.90131 15.3613Q2.07504 15.3613 1.642 14.9268Q1.20895 14.4923 1.20895 13.6488L1.20895 2.91473Q1.20895 2.07504 1.642 1.64207Q2.07504 1.20911 2.90131 1.20911L13.2388 1.20911Q14.0463 1.20911 14.4888 1.64207Q14.9312 2.07504 14.9312 2.91473L14.9312 13.6488Q14.9312 14.4923 14.4888 14.9268Q14.0463 15.3613 13.2388 15.3613ZM7.9657 8.38623Q8.16803 8.38623 8.30566 8.24867Q8.4433 8.11111 8.4433 7.91534L8.4433 3.32657Q8.4433 3.1308 8.30566 2.99324Q8.16803 2.85568 7.9657 2.85568Q7.76688 2.85568 7.62932 2.99324Q7.49176 3.1308 7.49176 3.32657L7.49176 7.91534Q7.49176 8.11111 7.62932 8.24867Q7.76688 8.38623 7.9657 8.38623ZM10.2795 8.38623Q10.482 8.38623 10.6197 8.24867Q10.7573 8.11111 10.7573 7.91534L10.7573 3.32657Q10.7573 3.1308 10.6197 2.99324Q10.482 2.85568 10.2795 2.85568Q10.0839 2.85568 9.94629 2.99324Q9.80865 3.1308 9.80865 3.32657L9.80865 7.91534Q9.80865 8.11111 9.94629 8.24867Q10.0839 8.38623 10.2795 8.38623ZM12.6033 8.38623Q12.7991 8.38623 12.9366 8.24867Q13.0742 8.11111 13.0742 7.91534L13.0742 3.32657Q13.0742 3.1308 12.9366 2.99324Q12.7991 2.85568 12.6033 2.85568Q12.3979 2.85568 12.2603 2.99324Q12.1227 3.1308 12.1227 3.32657L12.1227 7.91534Q12.1227 8.11111 12.2603 8.24867Q12.3979 8.38623 12.6033 8.38623Z"
                     fill="rgba(255,255,255,0.55)" />
              <path d="M18.0983 8.45673Q18.2512 8.63358 18.4989 8.62869Q18.7466 8.62381 18.929 8.38531Q19.3765 7.80029 19.6265 7.09564Q19.8766 6.39099 19.8766 5.60699Q19.8766 4.82605 19.6265 4.11644Q19.3765 3.40683 18.929 2.83173Q18.7595 2.59933 18.5147 2.58987Q18.27 2.58041 18.1171 2.74445Q17.9514 2.90176 17.976 3.11249Q18.0006 3.32321 18.1499 3.53546Q18.4956 4.02023 18.6594 4.53865Q18.8232 5.05707 18.8232 5.60699Q18.8232 6.15997 18.6594 6.67496Q18.4956 7.18994 18.1499 7.67853Q18.0037 7.88101 17.9711 8.0838Q17.9385 8.28659 18.0983 8.45673Z"
                     fill="rgba(255,255,255,0.55)" />
              <path d="M20.2861 10.4874Q20.4428 10.6703 20.682 10.6699Q20.9212 10.6696 21.107 10.4604Q21.9856 9.47739 22.4478 8.23914Q22.91 7.00089 22.91 5.60699Q22.91 4.20944 22.4478 2.97119Q21.9856 1.73294 21.107 0.746765Q20.9338 0.550385 20.7038 0.542145Q20.4738 0.533905 20.3238 0.695038Q20.1521 0.862122 20.1651 1.08406Q20.1781 1.306 20.3664 1.51459Q21.8567 3.21915 21.8567 5.60699Q21.8567 7.98813 20.3664 9.69269Q20.1909 9.89822 20.1669 10.1077Q20.143 10.3172 20.2861 10.4874Z"
                     fill="rgba(255,255,255,0.55)" />
       </g>
</svg>