<svg width="22.91" height="16.5802">
       <g>
              <rect height="16.5802" opacity="0" width="22.91" x="0" y="0" />
              <path d="M2.87872 16.5674L13.2584 16.5674Q14.6918 16.5674 15.416 15.8435Q16.1401 15.1196 16.1401 13.7155L16.1401 2.85492Q16.1401 1.44409 15.416 0.722046Q14.6918 0 13.2584 0L2.87872 0Q1.44836 0 0.724182 0.718994Q0 1.43799 0 2.85492L0 13.7155Q0 15.1324 0.724182 15.8499Q1.44836 16.5674 2.87872 16.5674ZM7.91168 8.45062Q7.70248 8.45062 7.56157 8.30963Q7.42065 8.16864 7.42065 7.95959L7.42065 3.28232Q7.42065 3.07327 7.56157 2.93228Q7.70248 2.79129 7.91168 2.79129Q8.12088 2.79129 8.26187 2.93228Q8.40286 3.07327 8.40286 3.28232L8.40286 7.95959Q8.40286 8.16864 8.26187 8.30963Q8.12088 8.45062 7.91168 8.45062ZM10.2795 8.45062Q10.0772 8.45062 9.93622 8.30963Q9.79523 8.16864 9.79523 7.95959L9.79523 3.28232Q9.79523 3.07327 9.93622 2.93228Q10.0772 2.79129 10.2795 2.79129Q10.4887 2.79129 10.6297 2.93228Q10.7707 3.07327 10.7707 3.28232L10.7707 7.95959Q10.7707 8.16864 10.6297 8.30963Q10.4887 8.45062 10.2795 8.45062ZM12.6543 8.45062Q12.4451 8.45062 12.3041 8.30963Q12.1631 8.16864 12.1631 7.95959L12.1631 3.28232Q12.1631 3.07327 12.3041 2.93228Q12.4451 2.79129 12.6543 2.79129Q12.8633 2.79129 13.0043 2.93228Q13.1453 3.07327 13.1453 3.28232L13.1453 7.95959Q13.1453 8.16864 13.0043 8.30963Q12.8633 8.45062 12.6543 8.45062Z"
                     fill="rgba(255,255,255,0.55)" />
              <path d="M18.0983 8.45673Q18.2512 8.63358 18.4989 8.62869Q18.7466 8.62381 18.929 8.38531Q19.3765 7.80029 19.6265 7.09564Q19.8766 6.39099 19.8766 5.60699Q19.8766 4.82605 19.6265 4.11644Q19.3765 3.40683 18.929 2.83173Q18.7595 2.59933 18.5147 2.58987Q18.27 2.58041 18.1171 2.74445Q17.9514 2.90176 17.976 3.11249Q18.0006 3.32321 18.1499 3.53546Q18.4956 4.02023 18.6594 4.53865Q18.8232 5.05707 18.8232 5.60699Q18.8232 6.15997 18.6594 6.67496Q18.4956 7.18994 18.1499 7.67853Q18.0037 7.88101 17.9711 8.0838Q17.9385 8.28659 18.0983 8.45673Z"
                     fill="rgba(255,255,255,0.55)" />
              <path d="M20.2861 10.4874Q20.4428 10.6703 20.682 10.6699Q20.9212 10.6696 21.107 10.4604Q21.9856 9.47739 22.4478 8.23914Q22.91 7.00089 22.91 5.60699Q22.91 4.20944 22.4478 2.97119Q21.9856 1.73294 21.107 0.746765Q20.9338 0.550385 20.7038 0.542145Q20.4738 0.533905 20.3238 0.695038Q20.1521 0.862122 20.1651 1.08406Q20.1781 1.306 20.3664 1.51459Q21.8567 3.21915 21.8567 5.60699Q21.8567 7.98813 20.3664 9.69269Q20.1909 9.89822 20.1669 10.1077Q20.143 10.3172 20.2861 10.4874Z"
                     fill="rgba(255,255,255,0.55)" />
       </g>
</svg>