<svg width="25.1004" height="16.6013">
       <g>
              <rect height="16.6013" opacity="0" width="25.1004" x="0" y="0" />
              <path d="M8.29269 16.5787Q9.98322 16.5787 11.4796 15.9275Q12.9759 15.2763 14.1232 14.1325Q15.2704 12.9887 15.923 11.4875Q16.5756 9.98627 16.5756 8.29575Q16.5756 6.59546 15.923 5.09758Q15.2704 3.5997 14.1232 2.45255Q12.9759 1.30539 11.4747 0.652695Q9.97345 0 8.27316 0Q6.58264 0 5.08621 0.652695Q3.58978 1.30539 2.44598 2.45255Q1.30219 3.5997 0.651093 5.09758Q0 6.59546 0 8.29575Q0 9.98627 0.652618 11.4875Q1.30524 12.9887 2.45239 14.1325Q3.59955 15.2763 5.09598 15.9275Q6.59241 16.5787 8.29269 16.5787ZM8.30246 5.7338Q7.88727 5.7338 7.54707 5.53596Q7.20688 5.33813 7.00417 5.0029Q6.80145 4.66766 6.80145 4.25537Q6.80145 3.84323 7.00417 3.50311Q7.20688 3.16299 7.54707 2.96509Q7.88727 2.76718 8.30246 2.76718Q8.70789 2.76718 9.04312 2.96509Q9.37836 3.16299 9.57962 3.49823Q9.78088 3.83347 9.78088 4.25537Q9.78088 4.66095 9.57962 4.99954Q9.37836 5.33813 9.04312 5.53596Q8.70789 5.7338 8.30246 5.7338Z"
                     fill="rgba(255,255,255,0.55)" />
              <path d="M18.9227 12.05Q19.1093 12.2598 19.3961 12.2534Q19.6828 12.247 19.8859 11.9998Q20.5327 11.248 20.8904 10.2984Q21.248 9.34875 21.248 8.29575Q21.248 7.24274 20.8904 6.29158Q20.5327 5.34042 19.8859 4.59167Q19.6828 4.34143 19.3961 4.33655Q19.1093 4.33167 18.9227 4.54147Q18.7459 4.74167 18.7961 4.98299Q18.8463 5.2243 19.0225 5.46494Q19.5285 6.01486 19.777 6.74873Q20.0255 7.4826 20.0255 8.29575Q20.0255 9.10889 19.777 9.84276Q19.5285 10.5766 19.0225 11.1266Q18.8463 11.3574 18.7961 11.6036Q18.7459 11.8498 18.9227 12.05Z"
                     fill="rgba(255,255,255,0.55)" />
              <path d="M21.6026 14.7908Q21.7923 14.9976 22.0655 14.9893Q22.3387 14.9811 22.5552 14.754Q23.7639 13.4714 24.4321 11.8142Q25.1004 10.157 25.1004 8.29575Q25.1004 6.43448 24.4321 4.77242Q23.7639 3.11035 22.5552 1.83746Q22.3387 1.6037 22.0655 1.59729Q21.7923 1.59088 21.6026 1.80069Q21.4258 2.00089 21.4689 2.24892Q21.512 2.49695 21.7189 2.724Q22.7438 3.8269 23.3109 5.2491Q23.8779 6.6713 23.8779 8.29575Q23.8779 9.91043 23.3109 11.3375Q22.7438 12.7646 21.7189 13.8675Q21.512 14.0915 21.4689 14.341Q21.4258 14.5906 21.6026 14.7908Z"
                     fill="rgba(255,255,255,0.55)" />
       </g>
</svg>