<svg width="13.0269" height="15.8269">
       <g>
              <rect height="15.8269" opacity="0" width="13.0269" x="0" y="0" />
              <path d="M0 15.1661L2.20963 15.7568Q2.87582 15.9317 3.2563 15.6706Q3.63678 15.4095 3.63678 14.7781L3.63678 10.9605L8.72849 10.9605L8.72849 8.33888L0.700073 8.33888L0.700073 14.4789Q0.700073 14.7921 0.513077 14.9791Q0.32608 15.1661 0 15.1661ZM0.700073 7.11436L3.63678 7.11436L3.63678 2.67085Q3.63678 2.09865 3.36967 1.79065Q3.10257 1.48265 2.57446 1.34074L0.406952 0.761213Q0.53421 0.848188 0.617142 0.988645Q0.700073 1.1291 0.700073 1.34425ZM9.39011 15.1661L11.5997 15.7568Q12.2661 15.9317 12.6465 15.6706Q13.0269 15.4095 13.0269 14.7781L13.0269 2.67085Q13.0269 2.09865 12.7579 1.78729Q12.489 1.47593 11.9579 1.33403L9.79706 0.761213Q9.92447 0.848188 10.0073 0.988645Q10.0902 1.1291 10.0902 1.34425L10.0902 14.4789Q10.0902 14.7921 9.90318 14.9791Q9.71619 15.1661 9.39011 15.1661Z"
                     fill="rgba(255,255,255,0.85)" />
       </g>
</svg>