<svg width="28.4528" height="16.6946">
       <g>
              <rect height="16.6946" opacity="0" width="28.4528" x="0" y="0" />
              <path d="M14.238 9.48929Q15.0357 9.48929 15.706 9.05891Q16.3763 8.62854 16.7796 7.89169Q17.1829 7.15485 17.1829 6.2355Q17.1829 5.34103 16.7781 4.62227Q16.3733 3.9035 15.703 3.48022Q15.0327 3.05695 14.238 3.05695Q13.4395 3.05695 12.7677 3.48358Q12.0959 3.91022 11.693 4.63577Q11.29 5.36133 11.293 6.24588Q11.293 7.16156 11.693 7.89505Q12.0929 8.62854 12.7632 9.05891Q13.4335 9.48929 14.238 9.48929ZM9.28818 16.174L19.1621 16.174Q19.726 16.174 20.057 15.9109Q20.388 15.6477 20.388 15.1988Q20.388 14.4785 19.9611 13.6913Q19.5341 12.9042 18.7308 12.2166Q17.9274 11.5289 16.7883 11.1019Q15.6493 10.6749 14.2349 10.6749Q12.8108 10.6749 11.6718 11.1019Q10.5327 11.5289 9.72939 12.2166Q8.92609 12.9042 8.49754 13.6913Q8.069 14.4785 8.069 15.1988Q8.069 15.6477 8.39638 15.9109Q8.72375 16.174 9.28818 16.174Z"
                     fill="rgba(255,255,255,0.55)" />
              <path d="M5.0824 15.9155Q5.33203 15.9155 5.52017 15.7408Q5.70831 15.5661 5.70831 15.3166Q5.70831 13.6275 6.27922 12.1159Q6.85013 10.6042 7.88773 9.40422Q8.92532 8.20419 10.3088 7.43912Q10.222 7.10556 10.1976 6.77917Q10.1732 6.45279 10.2075 6.11923Q8.49716 6.92108 7.20779 8.31749Q5.91843 9.7139 5.1976 11.5107Q4.47678 13.3075 4.47678 15.3166Q4.47678 15.5661 4.65477 15.7408Q4.83276 15.9155 5.0824 15.9155ZM23.3704 15.9155Q23.62 15.9155 23.8013 15.7408Q23.9827 15.5661 23.9827 15.3166Q23.9827 13.3142 23.2653 11.5208Q22.5479 9.72733 21.2652 8.33588Q19.9825 6.94443 18.282 6.13281Q18.3058 6.45889 18.278 6.79054Q18.2503 7.12219 18.1702 7.4556Q19.5506 8.21106 20.5815 9.41437Q21.6124 10.6177 22.1818 12.1259Q22.7512 13.6342 22.7512 15.3166Q22.7512 15.5661 22.9375 15.7408Q23.1238 15.9155 23.3704 15.9155Z"
                     fill="rgba(255,255,255,0.55)" />
              <path d="M0.612335 15.9155Q0.861969 15.9155 1.03851 15.7408Q1.21506 15.5661 1.21506 15.3098Q1.21506 12.9788 1.87088 10.8694Q2.5267 8.76007 3.72452 7.00073Q4.92233 5.24139 6.5464 3.94257Q8.17047 2.64374 10.1202 1.9294Q12.07 1.21506 14.2215 1.21506Q16.373 1.21506 18.3193 1.9294Q20.2657 2.64374 21.8947 3.94257Q23.5237 5.24139 24.7215 7.00073Q25.9193 8.76007 26.5785 10.8694Q27.2377 12.9788 27.2377 15.3098Q27.2377 15.5661 27.4108 15.7408Q27.5839 15.9155 27.8366 15.9155Q28.0899 15.9155 28.2713 15.7408Q28.4528 15.5661 28.4528 15.3098Q28.4528 12.7794 27.7336 10.4887Q27.0145 8.19794 25.7035 6.2838Q24.3925 4.36966 22.6136 2.95769Q20.8347 1.54572 18.702 0.772858Q16.5694 0 14.2215 0Q11.8669 0 9.73915 0.772858Q7.61139 1.54572 5.83244 2.95769Q4.0535 4.36966 2.74742 6.2838Q1.44135 8.19794 0.720673 10.4887Q0 12.7794 0 15.3098Q0 15.5661 0.177994 15.7408Q0.355988 15.9155 0.612335 15.9155Z"
                     fill="rgba(255,255,255,0.55)" />
       </g>
</svg>