<svg width="19.5898" height="19.5996">
       <g>
              <rect height="19.5996" opacity="0" width="19.5898" x="0" y="0" />
              <path d="M9.79492 19.5898Q11.8066 19.5898 13.5791 18.8232Q15.3516 18.0566 16.7041 16.7041Q18.0566 15.3516 18.8232 13.5791Q19.5898 11.8066 19.5898 9.79492Q19.5898 7.7832 18.8232 6.01074Q18.0566 4.23828 16.7041 2.88574Q15.3516 1.5332 13.5742 0.766602Q11.7969 0 9.78516 0Q7.77344 0 6.00098 0.766602Q4.22852 1.5332 2.88086 2.88574Q1.5332 4.23828 0.766602 6.01074Q0 7.7832 0 9.79492Q0 11.8066 0.766602 13.5791Q1.5332 15.3516 2.88574 16.7041Q4.23828 18.0566 6.01074 18.8232Q7.7832 19.5898 9.79492 19.5898Z"
                     fill="rgba(255,255,255,0.55)" />
              <path d="M10.1074 15.4883L10.1074 10.1172L15.0781 7.32422Q15.127 7.44141 15.127 7.66602L15.127 11.9043Q15.127 12.373 14.9561 12.6172Q14.7852 12.8613 14.4629 13.0469L10.2148 15.4297Q10.1953 15.4395 10.166 15.459Q10.1367 15.4785 10.1074 15.4883ZM9.49219 15.4883Q9.46289 15.4785 9.43359 15.459Q9.4043 15.4395 9.375 15.4297L5.13672 13.0469Q4.80469 12.8613 4.64355 12.6172Q4.48242 12.373 4.48242 11.9043L4.48242 7.66602Q4.48242 7.56836 4.4873 7.48047Q4.49219 7.39258 4.51172 7.32422L9.49219 10.1172ZM9.79492 9.58008L4.78516 6.76758Q4.83398 6.71875 4.89746 6.6748Q4.96094 6.63086 5.04883 6.58203L7.06055 5.44922L12.1094 8.28125ZM12.7539 7.92969L7.68555 5.08789L8.99414 4.35547Q9.41406 4.11133 9.79492 4.11133Q10.1855 4.11133 10.6055 4.35547L14.5508 6.58203Q14.7363 6.68945 14.8047 6.76758Z"
                     fill="#ffffff" />
       </g>
</svg>