<svg width="21.6097" height="20.4694">
       <g>
              <rect height="20.4694" opacity="0" width="21.6097" x="0" y="0" />
              <path d="M13.5194 0.508881L9.879 10.5301Q9.80255 10.7362 9.89738 10.9406Q9.99222 11.1449 10.2014 11.2213Q10.4143 11.3045 10.6122 11.2048Q10.8101 11.105 10.8896 10.9056L14.5435 0.884552Q14.6199 0.668488 14.5235 0.465775Q14.4272 0.263062 14.2143 0.186462Q14.0112 0.110016 13.8036 0.206375Q13.5959 0.302734 13.5194 0.508881ZM9.37988 10.1833L12.9001 0.472107Q11.5355 0.13504 10.2608 0.446701Q8.98621 0.758362 8.02643 1.64322L7.79251 1.5567Q6.94183 1.23978 6.23444 1.62666Q5.52704 2.01355 5.17273 2.98477L1.03836 14.3507Q0.819092 14.9565 1.05934 15.4664Q1.29959 15.9763 1.90186 16.212Q2.52045 16.4215 3.04039 16.1895Q3.56033 15.9575 3.77289 15.3583L6.91559 6.70151L6.5625 6.91803Q6.86356 7.95761 7.58255 8.80455Q8.30154 9.65149 9.37988 10.1833ZM2.435 16.0538L1.61011 15.7553L0 20.1648L0.830994 20.4694Z"
                     fill="rgba(255,255,255,0.55)" />
              <path d="M13.813 10.1083Q14.0201 9.92065 14.0378 9.65797Q14.0555 9.39529 13.8783 9.19495Q13.6938 8.98483 13.4244 8.96675Q13.1549 8.94867 12.9582 9.1333Q12.7548 9.33746 12.7435 9.59526Q12.7322 9.85306 12.9169 10.0534Q13.1007 10.2434 13.3601 10.2663Q13.6194 10.2892 13.813 10.1083ZM15.1581 6.65451Q15.2533 6.40839 15.1366 6.16852Q15.02 5.92865 14.767 5.8371Q14.5171 5.75165 14.2743 5.85335Q14.0315 5.95505 13.9392 6.21765Q13.8477 6.47064 13.9591 6.7205Q14.0706 6.97037 14.3234 7.06573Q14.5764 7.15424 14.8211 7.03758Q15.0658 6.92093 15.1581 6.65451ZM16.3492 3.18558Q16.2965 2.92282 16.0883 2.77351Q15.88 2.62421 15.6076 2.66022Q15.3381 2.70294 15.1768 2.90268Q15.0154 3.10242 15.0583 3.37479Q15.0974 3.63754 15.3075 3.79395Q15.5176 3.95035 15.787 3.92105Q16.0625 3.87833 16.2189 3.66669Q16.3754 3.45505 16.3492 3.18558Z"
                     fill="rgba(255,255,255,0.55)" />
              <path d="M15.587 12.0961Q15.7904 11.9115 15.8047 11.6421Q15.8191 11.3727 15.6285 11.1626Q15.4611 10.9824 15.1981 10.9695Q14.935 10.9567 14.7316 11.1346Q14.5416 11.3118 14.5206 11.5778Q14.4995 11.8439 14.6736 12.0338Q14.868 12.2342 15.1307 12.2537Q15.3934 12.2733 15.587 12.0961ZM17.652 7.58286Q17.7473 7.33368 17.6306 7.09389Q17.5139 6.8541 17.2609 6.75873Q17.0081 6.66351 16.7768 6.77345Q16.5456 6.88339 16.4503 7.14615Q16.3647 7.38922 16.4698 7.62718Q16.5749 7.86514 16.8309 7.96051Q17.0839 8.04596 17.3218 7.9409Q17.5597 7.83585 17.652 7.58286ZM18.9708 2.80441Q18.9384 2.53189 18.72 2.37396Q18.5016 2.21603 18.2388 2.25204Q17.9793 2.29477 17.8179 2.50801Q17.6566 2.72125 17.6895 2.99744Q17.7286 3.24966 17.9485 3.40759Q18.1685 3.56552 18.4282 3.53317Q18.6908 3.4874 18.8522 3.27728Q19.0135 3.06717 18.9708 2.80441Z"
                     fill="rgba(255,255,255,0.55)" />
              <path d="M17.3537 14.0765Q17.5436 13.8925 17.5632 13.6381Q17.5827 13.3836 17.4086 13.1699Q17.2246 12.9665 16.9585 12.9589Q16.6925 12.9514 16.4989 13.1358Q16.3089 13.313 16.2875 13.5738Q16.2662 13.8347 16.4403 14.035Q16.6211 14.2453 16.8906 14.2529Q17.16 14.2604 17.3537 14.0765ZM20.1625 8.47839Q20.2547 8.22845 20.138 7.99049Q20.0214 7.75253 19.7781 7.65717Q19.5155 7.57172 19.2742 7.67677Q19.0329 7.78183 18.9375 8.03787Q18.8519 8.29071 18.9619 8.54065Q19.072 8.79059 19.3217 8.8858Q19.5778 8.97446 19.8243 8.85437Q20.0708 8.73428 20.1625 8.47839ZM21.602 2.4202Q21.5495 2.15073 21.3461 1.98944Q21.1427 1.82816 20.8769 1.86722Q20.6105 1.89957 20.4544 2.11647Q20.2983 2.33337 20.3314 2.58926Q20.3705 2.85202 20.5803 3.01147Q20.7901 3.17093 21.0527 3.13187Q21.3222 3.09952 21.4816 2.88597Q21.6411 2.67242 21.602 2.4202Z"
                     fill="rgba(255,255,255,0.55)" />
       </g>
</svg>