<svg width="21.4167" height="20.5386">
       <g>
              <rect height="20.5386" opacity="0" width="21.4167" x="0" y="0" />
              <path d="M13.2983 0.569153L9.65805 10.5904Q9.57855 10.8122 9.67789 11.0275Q9.77722 11.2428 9.99924 11.3222Q10.2213 11.4114 10.4365 11.3057Q10.6517 11.2 10.7281 10.9877L14.3782 0.966644Q14.4577 0.734863 14.3568 0.521164Q14.256 0.307465 14.037 0.227966Q13.815 0.141602 13.5949 0.245895Q13.3748 0.350189 13.2983 0.569153ZM1.84418 16.4542Q2.51678 16.6907 3.10631 16.4163Q3.69583 16.142 3.93524 15.4889L6.97311 7.17041L6.57974 7.41089Q6.96701 8.46527 7.80708 9.30199Q8.64716 10.1387 9.85199 10.531L10.1871 9.59152Q8.80402 9.09149 8.00797 8.09708Q7.21191 7.10266 7.13043 5.80276L6.75552 5.66605Q6.65588 5.62622 6.558 5.67574Q6.46011 5.72525 6.42349 5.82504L3.04367 15.0827Q2.92953 15.3787 2.67967 15.479Q2.42981 15.5794 2.16522 15.4794Q1.91696 15.3854 1.80046 15.164Q1.68396 14.9426 1.78467 14.6602L5.89508 3.37341Q6.06796 2.87094 6.54106 2.64755Q7.01416 2.42416 7.51968 2.60361L8.09814 2.81479Q8.98758 1.76605 10.304 1.46233Q11.6205 1.1586 13.0753 1.68365L13.4074 0.747986Q11.8523 0.179443 10.3817 0.449829Q8.91113 0.720215 7.8334 1.71265L7.6062 1.62308Q6.79245 1.32492 6.05713 1.72272Q5.32181 2.12051 4.97955 3.05405L0.862427 14.3623Q0.626068 15.0191 0.905228 15.612Q1.18439 16.205 1.84418 16.4542ZM2.435 16.123L1.61011 15.8215L0 20.2409L0.830994 20.5386Z"
                     fill="rgba(255,255,255,0.55)" />
              <path d="M13.62 10.1776Q13.8271 9.9968 13.8448 9.73412Q13.8625 9.47144 13.6853 9.26117Q13.4976 9.05411 13.2349 9.04129Q12.9723 9.02847 12.7652 9.20929Q12.5618 9.40674 12.5505 9.66789Q12.5392 9.92905 12.7237 10.1227Q12.9077 10.3194 13.167 10.3374Q13.4264 10.3554 13.62 10.1776ZM14.9649 6.72073Q15.0603 6.47766 14.9435 6.23634Q14.8268 5.99503 14.574 5.90637Q14.321 5.82092 14.0797 5.92598Q13.8383 6.03104 13.7431 6.28403Q13.6545 6.54663 13.7659 6.79657Q13.8774 7.04651 14.1304 7.13196Q14.3834 7.23038 14.6281 7.11029Q14.8727 6.9902 14.9649 6.72073ZM16.1531 3.26157Q16.1035 2.99896 15.8952 2.84622Q15.687 2.69348 15.4144 2.72644Q15.1451 2.77222 14.9837 2.97043Q14.8224 3.16864 14.8651 3.44406Q14.9042 3.70682 15.1144 3.8633Q15.3246 4.01978 15.594 3.99048Q15.8694 3.95142 16.0259 3.73787Q16.1824 3.52432 16.1531 3.26157Z"
                     fill="rgba(255,255,255,0.55)" />
              <path d="M15.394 12.1654Q15.5974 11.9846 15.6102 11.7151Q15.623 11.4456 15.4353 11.2386Q15.2679 11.0516 15.0034 11.0374Q14.7389 11.0231 14.5386 11.2039Q14.3486 11.3878 14.3275 11.6505Q14.3065 11.9131 14.4806 12.1031Q14.6719 12.3035 14.9346 12.3264Q15.1973 12.3492 15.394 12.1654ZM17.459 7.65594Q17.5542 7.40295 17.4375 7.16164Q17.3209 6.92032 17.0648 6.83487Q16.815 6.7395 16.5838 6.84608Q16.3525 6.95267 16.2573 7.21237Q16.1717 7.45865 16.2768 7.69844Q16.3818 7.93823 16.6348 8.02979Q16.8907 8.1221 17.1272 8.01361Q17.3636 7.90512 17.459 7.65594ZM18.7746 2.87369Q18.7424 2.59827 18.5255 2.44514Q18.3086 2.29202 18.0458 2.31827Q17.7861 2.37091 17.6248 2.58408Q17.4635 2.79724 17.4965 3.06671Q17.5356 3.31894 17.7555 3.47687Q17.9755 3.6348 18.235 3.60245Q18.4978 3.55667 18.6591 3.34656Q18.8205 3.13644 18.7746 2.87369Z"
                     fill="rgba(255,255,255,0.55)" />
              <path d="M17.1606 14.1458Q17.3505 13.9619 17.3685 13.7075Q17.3866 13.4531 17.2154 13.2428Q17.0316 13.0424 16.7655 13.0315Q16.4995 13.0206 16.3058 13.2051Q16.1128 13.389 16.093 13.6483Q16.0732 13.9076 16.2473 14.1112Q16.4281 14.3146 16.696 14.3221Q16.964 14.3297 17.1606 14.1458ZM19.9693 8.54767Q20.0616 8.30444 19.9449 8.06313Q19.8282 7.82181 19.5821 7.72659Q19.3224 7.64099 19.081 7.7494Q18.8397 7.85782 18.7445 8.1041Q18.6559 8.35999 18.7673 8.61328Q18.8788 8.86658 19.1287 8.95218Q19.3817 9.05045 19.6297 8.92891Q19.8778 8.80737 19.9693 8.54767ZM21.409 2.48947Q21.3565 2.22015 21.1516 2.05879Q20.9467 1.89743 20.6839 1.93649Q20.4175 1.96579 20.2599 2.18422Q20.1022 2.40265 20.1382 2.65854Q20.1773 2.92801 20.3872 3.08746Q20.5971 3.24692 20.8597 3.20786Q21.1292 3.17551 21.2886 2.96051Q21.4481 2.74551 21.409 2.48947Z"
                     fill="rgba(255,255,255,0.55)" />
       </g>
</svg>