<svg width="14.856" height="20.289">
       <g>
              <rect height="20.289" opacity="0" width="14.856" x="0" y="0" />
              <path d="M10.3262 0L7.67975 0Q6.57806 0 5.94017 0.626678Q5.30228 1.25336 5.30228 2.31888L5.30228 3.9801L6.44699 3.9801L6.44699 2.31888Q6.44699 1.77872 6.77864 1.46507Q7.11029 1.15143 7.67975 1.15143L10.3262 1.15143Q11.3446 1.15143 12.1043 1.60591Q12.8641 2.06039 13.2877 2.88055Q13.7114 3.70071 13.7114 4.79416L13.7114 19.687Q13.7114 19.9336 13.871 20.1015Q14.0306 20.2695 14.2802 20.2695Q14.5268 20.2695 14.6914 20.1015Q14.856 19.9336 14.856 19.687L14.856 4.79416Q14.856 3.34763 14.2944 2.27142Q13.7328 1.19522 12.7119 0.59761Q11.691 0 10.3262 0ZM5.87128 4.30679Q6.36795 4.30679 6.69006 4.62738Q7.01218 4.94797 7.01218 5.43793L7.01218 6.95938Q7.91931 7.20657 8.62144 7.77077Q9.32358 8.33496 9.72382 9.14474Q10.1241 9.95453 10.1241 10.9412L11.1536 10.9412Q11.1536 9.9147 10.7533 8.9888Q10.3531 8.0629 9.64943 7.34756Q8.94577 6.63223 8.02811 6.23215L8.02811 5.43793Q8.02811 4.82758 7.74651 4.34074Q7.4649 3.85391 6.98151 3.57391Q6.49811 3.29391 5.87128 3.29391Q5.25436 3.29391 4.76601 3.57391Q4.27765 3.85391 3.99765 4.34074Q3.71765 4.82758 3.71765 5.43793L3.71765 6.23215Q2.8067 6.63223 2.09961 7.34756Q1.39252 8.0629 0.990753 8.9888Q0.588989 9.9147 0.588989 10.9412L1.62827 10.9412Q1.62827 9.95453 2.02515 9.1433Q2.42203 8.33206 3.12569 7.76779Q3.82935 7.20352 4.73053 6.95938L4.73053 5.43793Q4.73053 4.94797 5.05592 4.62738Q5.38132 4.30679 5.87128 4.30679ZM0.511322 10.7896Q0.305176 10.7896 0.152588 10.9422Q0 11.0948 0 11.301Q0 11.5102 0.152588 11.6579Q0.305176 11.8056 0.511322 11.8056L11.241 11.8056Q11.4471 11.8056 11.5948 11.6579Q11.7426 11.5102 11.7426 11.301Q11.7426 11.0948 11.5948 10.9422Q11.4471 10.7896 11.241 10.7896Z"
                     fill="rgba(255,255,255,0.55)" />
              <path d="M2.733 14.3286Q3.00247 14.3286 3.18787 14.1399Q3.37326 13.9511 3.37326 13.6816Q3.37326 13.4189 3.18787 13.2301Q3.00247 13.0414 2.733 13.0414Q2.47025 13.0414 2.27814 13.2301Q2.08603 13.4189 2.08603 13.6816Q2.08603 13.9511 2.27814 14.1399Q2.47025 14.3286 2.733 14.3286ZM5.86151 14.3286Q6.13098 14.3286 6.31638 14.1399Q6.50177 13.9511 6.50177 13.6816Q6.50177 13.4189 6.31638 13.2301Q6.13098 13.0414 5.86151 13.0414Q5.59204 13.0414 5.40329 13.2301Q5.21454 13.4189 5.21454 13.6816Q5.21454 13.9511 5.40329 14.1399Q5.59204 14.3286 5.86151 14.3286ZM8.98331 14.3286Q9.25278 14.3286 9.43817 14.1399Q9.62357 13.9511 9.62357 13.6816Q9.62357 13.4189 9.43817 13.2301Q9.25278 13.0414 8.98331 13.0414Q8.72055 13.0414 8.52844 13.2301Q8.33633 13.4189 8.33633 13.6816Q8.33633 13.9511 8.52844 14.1399Q8.72055 14.3286 8.98331 14.3286Z"
                     fill="rgba(255,255,255,0.55)" />
              <path d="M2.733 16.9922Q3.00247 16.9922 3.18787 16.805Q3.37326 16.6177 3.37326 16.3452Q3.37326 16.0759 3.18787 15.892Q3.00247 15.708 2.733 15.708Q2.47025 15.708 2.27814 15.892Q2.08603 16.0759 2.08603 16.3452Q2.08603 16.6177 2.27814 16.805Q2.47025 16.9922 2.733 16.9922ZM5.86151 16.9922Q6.13098 16.9922 6.31638 16.805Q6.50177 16.6177 6.50177 16.3452Q6.50177 16.0759 6.31638 15.892Q6.13098 15.708 5.86151 15.708Q5.59204 15.708 5.40329 15.892Q5.21454 16.0759 5.21454 16.3452Q5.21454 16.6177 5.40329 16.805Q5.59204 16.9922 5.86151 16.9922ZM8.98331 16.9922Q9.25278 16.9922 9.43817 16.805Q9.62357 16.6177 9.62357 16.3452Q9.62357 16.0759 9.43817 15.892Q9.25278 15.708 8.98331 15.708Q8.72055 15.708 8.52844 15.892Q8.33633 16.0759 8.33633 16.3452Q8.33633 16.6177 8.52844 16.805Q8.72055 16.9922 8.98331 16.9922Z"
                     fill="rgba(255,255,255,0.55)" />
              <path d="M2.733 19.659Q3.00247 19.659 3.18787 19.4669Q3.37326 19.2747 3.37326 19.012Q3.37326 18.7425 3.18787 18.5571Q3.00247 18.3717 2.733 18.3717Q2.47025 18.3717 2.27814 18.5571Q2.08603 18.7425 2.08603 19.012Q2.08603 19.2747 2.27814 19.4669Q2.47025 19.659 2.733 19.659ZM5.86151 19.659Q6.13098 19.659 6.31638 19.4669Q6.50177 19.2747 6.50177 19.012Q6.50177 18.7425 6.31638 18.5571Q6.13098 18.3717 5.86151 18.3717Q5.59204 18.3717 5.40329 18.5571Q5.21454 18.7425 5.21454 19.012Q5.21454 19.2747 5.40329 19.4669Q5.59204 19.659 5.86151 19.659ZM8.98331 19.659Q9.25278 19.659 9.43817 19.4669Q9.62357 19.2747 9.62357 19.012Q9.62357 18.7425 9.43817 18.5571Q9.25278 18.3717 8.98331 18.3717Q8.72055 18.3717 8.52844 18.5571Q8.33633 18.7425 8.33633 19.012Q8.33633 19.2747 8.52844 19.4669Q8.72055 19.659 8.98331 19.659Z"
                     fill="rgba(255,255,255,0.55)" />
       </g>
</svg>