<svg width="21.9331" height="13.3563">
       <g>
              <rect height="13.3563" opacity="0" width="21.9331" x="0" y="0" />
              <path d="M1.61285 10.4643Q2.64282 10.4643 3.19527 9.84857Q3.74771 9.2328 3.74771 8.08976L3.74771 5.26597Q3.74771 4.11988 3.19527 3.50251Q2.64282 2.88514 1.61285 2.88514L0.759888 2.88514Q0.402832 2.88514 0.201416 3.08511Q0 3.28508 0 3.64198L0 9.7136Q0 10.0676 0.201416 10.266Q0.402832 10.4643 0.759888 10.4643ZM10.5846 12.3183Q11.1542 12.3183 11.4975 11.9704Q11.8408 11.6225 11.8408 11.0468L11.8408 2.30882Q11.8408 1.73021 11.4975 1.38383Q11.1542 1.03746 10.5846 1.03746L9.02298 1.03746Q7.82608 1.03746 6.95473 1.51162Q6.08337 1.98579 5.61256 2.85714Q5.14175 3.7285 5.14175 4.9254L5.14175 8.434Q5.14175 9.62709 5.61256 10.4985Q6.08337 11.3699 6.95473 11.8441Q7.82608 12.3183 9.02298 12.3183ZM5.78918 8.45491L5.78918 4.83339L3.36502 4.83339L3.36502 8.45491ZM12.5963 10.7135Q13.315 10.6728 13.7359 10.1685Q14.1568 9.66417 14.1568 8.80326L14.1568 4.56514Q14.1568 3.69462 13.7359 3.18383Q13.315 2.67305 12.5963 2.63231Z"
                     fill="rgba(255,255,255,0.55)" />
              <path d="M16.5344 10.4701Q16.6589 10.2338 16.5832 9.98086Q16.5074 9.72795 16.2711 9.59657Q16.0309 9.46885 15.7798 9.54469Q15.5287 9.62053 15.3973 9.86055Q15.2728 10.1068 15.3471 10.3545Q15.4213 10.6021 15.6615 10.7335Q15.9009 10.8582 16.1553 10.7809Q16.4098 10.7036 16.5344 10.4701ZM16.6125 6.66658Q16.6125 6.39711 16.4204 6.21171Q16.2282 6.02632 15.9656 6.02632Q15.6961 6.02632 15.5107 6.21171Q15.3253 6.39711 15.3253 6.66658Q15.3253 6.93605 15.5107 7.1248Q15.6961 7.31355 15.9656 7.31355Q16.2282 7.31355 16.4204 7.1248Q16.6125 6.93605 16.6125 6.66658ZM16.5344 2.86973Q16.4098 2.64299 16.1553 2.5657Q15.9009 2.48841 15.6615 2.61308Q15.4213 2.73759 15.3471 2.98867Q15.2728 3.23976 15.3973 3.47932Q15.5287 3.71934 15.7798 3.79701Q16.0309 3.87468 16.2711 3.7433Q16.5074 3.61863 16.5832 3.36419Q16.6589 3.10975 16.5344 2.86973Z"
                     fill="rgba(255,255,255,0.55)" />
              <path d="M18.8771 11.7377Q19.0018 11.5012 18.9227 11.2449Q18.8435 10.9886 18.6101 10.864Q18.3766 10.7395 18.1222 10.817Q17.8677 10.8946 17.7432 11.1281Q17.6186 11.3675 17.6928 11.6219Q17.767 11.8764 18.0035 12.001Q18.237 12.1256 18.4899 12.0498Q18.7428 11.974 18.8771 11.7377ZM19.2694 6.66658Q19.2694 6.39711 19.0807 6.21171Q18.8919 6.02632 18.6224 6.02632Q18.353 6.02632 18.1676 6.21171Q17.9822 6.39711 17.9822 6.66658Q17.9822 6.93605 18.1676 7.1248Q18.353 7.31355 18.6224 7.31355Q18.8919 7.31355 19.0807 7.1248Q19.2694 6.93605 19.2694 6.66658ZM18.8771 1.6089Q18.7428 1.37254 18.4899 1.29678Q18.237 1.22102 18.0035 1.34553Q17.767 1.4702 17.6928 1.72464Q17.6186 1.97908 17.7432 2.21543Q17.8677 2.45195 18.1222 2.52618Q18.3766 2.60041 18.6101 2.48262Q18.8435 2.35795 18.9227 2.10015Q19.0018 1.84236 18.8771 1.6089Z"
                     fill="rgba(255,255,255,0.55)" />
              <path d="M21.2094 13.0051Q21.3408 12.7687 21.2632 12.5124Q21.1856 12.2562 20.9491 12.1315Q20.706 12.0068 20.4583 12.0845Q20.2106 12.1622 20.0792 12.3955Q19.9545 12.6351 20.0304 12.8895Q20.1062 13.1439 20.3493 13.2684Q20.5827 13.3931 20.8338 13.3173Q21.0849 13.2416 21.2094 13.0051ZM21.9331 6.66658Q21.9331 6.39711 21.7444 6.21171Q21.5556 6.02632 21.2862 6.02632Q21.0167 6.02632 20.8313 6.21171Q20.6459 6.39711 20.6459 6.66658Q20.6459 6.93605 20.8313 7.1248Q21.0167 7.31355 21.2862 7.31355Q21.5556 7.31355 21.7444 7.1248Q21.9331 6.93605 21.9331 6.66658ZM21.2094 0.341503Q21.0849 0.10194 20.8338 0.0277061Q20.5827-0.046528 20.3493 0.0781364Q20.1062 0.202648 20.0304 0.453731Q19.9545 0.704815 20.0792 0.94804Q20.2106 1.1844 20.4583 1.26207Q20.706 1.33973 20.9491 1.21507Q21.1856 1.08369 21.2632 0.82925Q21.3408 0.57481 21.2094 0.341503Z"
                     fill="rgba(255,255,255,0.55)" />
       </g>
</svg>