<svg width="19.5898" height="19.5996">
       <g>
              <rect height="19.5996" opacity="0" width="19.5898" x="0" y="0" />
              <path d="M9.79492 19.5898Q11.8066 19.5898 13.5791 18.8232Q15.3516 18.0566 16.7041 16.7041Q18.0566 15.3516 18.8232 13.5791Q19.5898 11.8066 19.5898 9.79492Q19.5898 7.7832 18.8232 6.01074Q18.0566 4.23828 16.7041 2.88574Q15.3516 1.5332 13.5742 0.766602Q11.7969 0 9.78516 0Q7.77344 0 6.00098 0.766602Q4.22852 1.5332 2.88086 2.88574Q1.5332 4.23828 0.766602 6.01074Q0 7.7832 0 9.79492Q0 11.8066 0.766602 13.5791Q1.5332 15.3516 2.88574 16.7041Q4.23828 18.0566 6.01074 18.8232Q7.7832 19.5898 9.79492 19.5898Z"
                     fill="rgba(255,255,255,0.55)" />
              <path d="M3.73047 12.5Q3.73047 12.3047 3.87207 12.1582Q4.01367 12.0117 4.22852 12.0117L5.45898 12.0117Q5.86914 12.0117 6.16699 11.8555Q6.46484 11.6992 6.81641 11.2891L8.06641 9.79492L6.81641 8.31055Q6.47461 7.90039 6.17188 7.73926Q5.86914 7.57812 5.45898 7.57812L4.22852 7.57812Q4.01367 7.57812 3.87207 7.43652Q3.73047 7.29492 3.73047 7.09961Q3.73047 6.88477 3.87207 6.74805Q4.01367 6.61133 4.22852 6.61133L5.44922 6.61133Q6.10352 6.61133 6.55273 6.83105Q7.00195 7.05078 7.5 7.60742L8.71094 9.05273L9.93164 7.60742Q10.4102 7.05078 10.8691 6.83105Q11.3281 6.61133 11.9824 6.61133L12.9004 6.61133L12.9004 5.40039Q12.9004 5.21484 13.0078 5.10254Q13.1152 4.99023 13.291 4.99023Q13.4766 4.99023 13.623 5.09766L15.625 6.70898Q15.791 6.8457 15.7861 7.05078Q15.7812 7.25586 15.6152 7.38281L13.623 8.97461Q13.4961 9.10156 13.291 9.10156Q13.1152 9.10156 13.0078 8.98438Q12.9004 8.86719 12.9004 8.68164L12.9004 7.57812L12.0117 7.57812Q11.5527 7.57812 11.2549 7.73926Q10.957 7.90039 10.625 8.31055L9.3457 9.79492L10.625 11.2891Q10.957 11.6992 11.2549 11.8555Q11.5527 12.0117 12.0117 12.0117L12.9004 12.0117L12.9004 10.9277Q12.9004 10.7422 13.0078 10.625Q13.1152 10.5078 13.291 10.5078Q13.4961 10.5078 13.623 10.6348L15.625 12.2461Q15.791 12.373 15.7861 12.5732Q15.7812 12.7734 15.6152 12.9102L13.623 14.5117Q13.4766 14.6191 13.291 14.6191Q13.1152 14.6191 13.0078 14.5117Q12.9004 14.4043 12.9004 14.209L12.9004 12.9785L11.9824 12.9785Q11.3281 12.9785 10.8691 12.7588Q10.4102 12.5391 9.93164 11.9824L8.71094 10.5469L7.5 11.9824Q7.00195 12.5391 6.55273 12.7588Q6.10352 12.9785 5.44922 12.9785L4.22852 12.9785Q4.01367 12.9785 3.87207 12.8418Q3.73047 12.7051 3.73047 12.5Z"
                     fill="#ffffff" />
       </g>
</svg>