<svg width="28.4467" height="24.8282">
       <g>
              <rect height="24.8282" opacity="0" width="28.4467" x="0" y="0" />
              <path d="M0.60257 21.1116L27.8403 21.1116Q28.0899 21.1116 28.2683 20.9318Q28.4467 20.752 28.4467 20.5054Q28.4467 20.2557 28.2683 20.0807Q28.0899 19.9057 27.8403 19.9057L0.60257 19.9057Q0.353088 19.9057 0.176544 20.0807Q0 20.2557 0 20.5054Q0 20.752 0.176544 20.9318Q0.353088 21.1116 0.60257 21.1116ZM0.362549 17.5423Q0.508728 17.6982 0.714493 17.6949Q0.920258 17.6915 1.06644 17.5423L4.40628 14.2122Q4.56238 14.066 4.56238 13.8617Q4.56238 13.6574 4.40628 13.5081Q4.2601 13.3522 4.05434 13.3556Q3.84857 13.3589 3.70239 13.5081L0.362549 16.8315Q0.206604 16.9844 0.206604 17.1868Q0.206604 17.3892 0.362549 17.5423ZM3.70239 17.5423Q3.84857 17.6982 4.05434 17.6982Q4.2601 17.6982 4.40628 17.5423Q4.56238 17.3892 4.56238 17.1835Q4.56238 16.9777 4.40628 16.8315L1.06644 13.5081Q0.920258 13.3522 0.714493 13.3522Q0.508728 13.3522 0.362549 13.5081Q0.206604 13.6574 0.206604 13.8617Q0.206604 14.066 0.362549 14.2122Z"
                     fill="rgba(255,255,255,0.55)" />
              <path d="M9.56116 24.8282Q11.0294 24.8282 12.2295 23.9561Q13.4297 23.0841 14.2953 21.5308Q15.161 19.9776 15.6255 17.9098Q16.0901 15.842 16.0901 13.4467Q16.0901 11.38 15.653 9.59641Q15.2159 7.81281 14.3958 6.47621Q13.5756 5.13962 12.4276 4.39087Q11.2796 3.64212 9.85107 3.64212Q8.64273 3.64212 7.67174 4.26735Q6.70074 4.89258 6.13106 5.95634Q5.56137 7.02011 5.56137 8.34198Q5.56137 9.44626 5.89165 10.4914Q6.22192 11.5366 6.82739 12.4915Q7.43286 13.4464 8.28018 14.282Q9.1275 15.1176 10.1686 15.8115Q11.2097 16.5053 12.3932 17.0268Q12.5418 17.0996 12.6947 17.0996Q12.9271 17.0996 13.0785 16.9418Q13.23 16.7841 13.23 16.5846Q13.23 16.4452 13.152 16.3173Q13.074 16.1894 12.8955 16.1002Q11.8861 15.6235 10.8085 14.8913Q9.73083 14.1591 8.80424 13.1784Q7.87766 12.1977 7.30614 10.9859Q6.73462 9.77417 6.73462 8.34198Q6.73462 7.34558 7.14645 6.54755Q7.55829 5.74951 8.26355 5.27908Q8.96881 4.80865 9.85107 4.80865Q11.0135 4.80865 11.952 5.48485Q12.8905 6.16104 13.5547 7.35039Q14.2189 8.53973 14.5713 10.1028Q14.9237 11.666 14.9237 13.4467Q14.9237 15.5388 14.5386 17.3862Q14.1534 19.2336 13.4502 20.6464Q12.747 22.0592 11.7912 22.8604Q10.8354 23.6617 9.70367 23.6617Q8.92487 23.6617 8.55614 23.2163Q8.18741 22.771 8.18741 22.0857Q8.18741 21.2231 8.65646 20.1321Q9.12552 19.041 9.99954 17.9366Q10.8736 16.8321 12.0937 15.8945Q13.3138 14.9568 14.829 14.3832Q16.3443 13.8095 18.089 13.8095Q18.8107 13.8095 18.8107 14.2946Q18.8107 14.7002 18.6814 15.1003Q18.5521 15.5005 18.4262 15.9101Q18.3003 16.3197 18.3003 16.7397Q18.3003 17.2539 18.6223 17.5198Q18.9442 17.7858 19.3936 17.7858Q19.959 17.7858 20.5564 17.4364Q21.1539 17.0871 21.7426 16.5687Q22.3314 16.0503 22.8542 15.5367Q23.3771 15.0232 23.7963 14.6738Q24.2155 14.3245 24.4778 14.3245Q24.726 14.3245 24.8004 14.6366Q24.8749 14.9487 24.9152 15.4119Q24.9556 15.8751 25.0786 16.3367Q25.2016 16.7984 25.537 17.1106Q25.8725 17.4228 26.5564 17.4228Q26.841 17.4228 27.166 17.3409Q27.491 17.2591 27.7907 17.076Q27.9332 16.9829 28.0213 16.8435Q28.1094 16.7041 28.1094 16.534Q28.1094 16.3142 27.9749 16.1583Q27.8403 16.0023 27.6146 16.0023Q27.4001 16.0023 27.1678 16.144Q26.9356 16.2856 26.6635 16.2856Q26.3141 16.2856 26.1923 15.9584Q26.0706 15.6313 26.0339 15.1494Q25.9972 14.6675 25.9174 14.1841Q25.8376 13.7007 25.5898 13.3736Q25.3421 13.0464 24.7835 13.0464Q24.3028 13.0464 23.7295 13.3906Q23.1561 13.7347 22.5703 14.243Q21.9846 14.7513 21.4456 15.2596Q20.9067 15.768 20.4735 16.1121Q20.0403 16.4561 19.7867 16.4561Q19.5949 16.4561 19.5949 16.2387Q19.5949 15.9903 19.7174 15.6387Q19.8399 15.2872 19.9625 14.8916Q20.085 14.496 20.085 14.1083Q20.085 13.4244 19.5765 13.0337Q19.068 12.643 18.1721 12.643Q16.2282 12.643 14.525 13.2912Q12.8218 13.9395 11.4373 15.005Q10.0528 16.0704 9.06219 17.3495Q8.07159 18.6287 7.53426 19.9213Q6.99692 21.214 6.99692 22.2842Q6.99692 23.4023 7.64809 24.1152Q8.29926 24.8282 9.56116 24.8282Z"
                     fill="rgba(255,255,255,0.55)" />
       </g>
</svg>