<svg width="19.2773" height="20.6934">
       <g>
              <rect height="20.6934" opacity="0" width="19.2773" x="0" y="0" />
              <path d="M5.54688 17.7246L5.54688 16.5234L2.60742 16.5234Q1.9043 16.5234 1.55762 16.1719Q1.21094 15.8203 1.21094 15.1367L1.21094 2.59766Q1.21094 1.91406 1.5625 1.55762Q1.91406 1.20117 2.60742 1.20117L8.13477 1.20117Q8.42773 1.20117 8.66211 1.29395Q8.89648 1.38672 9.08203 1.58203L10.4297 2.92969L12.0605 2.92969L9.76562 0.634766Q9.44336 0.3125 9.05273 0.15625Q8.66211 0 8.16406 0L2.55859 0Q1.29883 0 0.649414 0.65918Q0 1.31836 0 2.58789L0 15.1465Q0 16.416 0.649414 17.0703Q1.29883 17.7246 2.55859 17.7246ZM5.06836 15.0391L5.06836 10.957L3.01758 10.957L3.01758 13.7305Q3.01758 14.3457 3.35938 14.6924Q3.70117 15.0391 4.31641 15.0391ZM5.06836 10.1367L5.06836 7.71484L4.31641 7.71484Q3.70117 7.71484 3.35938 8.05664Q3.01758 8.39844 3.01758 9.02344L3.01758 10.1367Z"
                     fill="rgba(255,255,255,0.55)" />
              <path d="M7.62695 20.5957L16.7188 20.5957Q17.9688 20.5957 18.623 19.9365Q19.2773 19.2773 19.2773 18.0078L19.2773 8.4082Q19.2773 7.85156 19.1406 7.48535Q19.0039 7.11914 18.6816 6.79688L14.834 2.95898Q14.5117 2.64648 14.126 2.48535Q13.7402 2.32422 13.2324 2.32422L7.62695 2.32422Q6.36719 2.32422 5.71777 2.9834Q5.06836 3.64258 5.06836 4.92188L5.06836 18.0078Q5.06836 19.2773 5.71777 19.9365Q6.36719 20.5957 7.62695 20.5957ZM7.66602 19.3945Q6.97266 19.3945 6.62109 19.043Q6.26953 18.6914 6.26953 17.998L6.26953 4.93164Q6.26953 4.24805 6.62598 3.8916Q6.98242 3.53516 7.67578 3.53516L13.2031 3.53516Q13.7793 3.53516 14.1602 3.90625L17.7246 7.48047Q17.9004 7.66602 17.9834 7.89062Q18.0664 8.11523 18.0664 8.4668L18.0664 17.998Q18.0664 18.6914 17.71 19.043Q17.3535 19.3945 16.6602 19.3945ZM8.02734 16.6016Q8.02734 17.2168 8.36914 17.5635Q8.71094 17.9102 9.32617 17.9102L10.4883 17.9102L10.4883 13.6035Q10.4883 13.4668 10.3418 13.4668L8.02734 13.4668ZM8.02734 12.6367L10.7715 12.6367Q11.0352 12.6367 11.1719 12.7783Q11.3086 12.9199 11.3086 13.1738L11.3086 17.9102L13.0566 17.9102L13.0566 10.2148L9.32617 10.2148Q8.71094 10.2148 8.36914 10.5566Q8.02734 10.8984 8.02734 11.5234ZM13.877 17.9102L14.9512 17.9102Q15.5664 17.9102 15.9082 17.5635Q16.25 17.2168 16.25 16.6016L16.25 11.5234Q16.25 10.8984 15.9082 10.5566Q15.5664 10.2148 14.9512 10.2148L13.877 10.2148Z"
                     fill="rgba(255,255,255,0.55)" />
       </g>
</svg>