<svg width="16.1426" height="20.8301">
       <g>
              <rect height="20.8301" opacity="0" width="16.1426" x="0" y="0" />
              <path d="M2.85156 20.8301L13.291 20.8301Q14.7168 20.8301 15.4297 20.1074Q16.1426 19.3848 16.1426 17.959L16.1426 6.91406Q16.1426 6.28906 15.9961 5.89355Q15.8496 5.49805 15.498 5.12695L11.0742 0.722656Q10.7227 0.361328 10.293 0.19043Q9.86328 0.0195312 9.28711 0.0195312L2.85156 0.0195312Q1.44531 0.0195312 0.722656 0.74707Q0 1.47461 0 2.90039L0 17.959Q0 19.3848 0.717773 20.1074Q1.43555 20.8301 2.85156 20.8301Z"
                     fill="rgba(255,255,255,0.55)" />
              <path d="M3.41797 16.2793L3.41797 12.627L6.07422 12.627Q6.23047 12.627 6.23047 12.7734L6.23047 17.7344L4.87305 17.7344Q4.17969 17.7344 3.79883 17.3486Q3.41797 16.9629 3.41797 16.2793ZM3.41797 11.7383L3.41797 10.5566Q3.41797 9.86328 3.79883 9.47754Q4.17969 9.0918 4.87305 9.0918L9.04297 9.0918L9.04297 17.7344L7.11914 17.7344L7.11914 12.3047Q7.11914 12.041 6.96777 11.8896Q6.81641 11.7383 6.54297 11.7383ZM9.93164 17.7344L9.93164 9.0918L11.2891 9.0918Q11.9727 9.0918 12.3584 9.47754Q12.7441 9.86328 12.7441 10.5566L12.7441 16.2793Q12.7441 16.9629 12.3584 17.3486Q11.9727 17.7344 11.2891 17.7344Z"
                     fill="#ffffff" />
       </g>
</svg>