<svg width="19.5898" height="19.5996">
       <g>
              <rect height="19.5996" opacity="0" width="19.5898" x="0" y="0" />
              <path d="M9.79492 19.5898Q11.8066 19.5898 13.5791 18.8232Q15.3516 18.0566 16.7041 16.7041Q18.0566 15.3516 18.8232 13.5791Q19.5898 11.8066 19.5898 9.79492Q19.5898 7.7832 18.8232 6.01074Q18.0566 4.23828 16.7041 2.88574Q15.3516 1.5332 13.5742 0.766602Q11.7969 0 9.78516 0Q7.77344 0 6.00098 0.766602Q4.22852 1.5332 2.88086 2.88574Q1.5332 4.23828 0.766602 6.01074Q0 7.7832 0 9.79492Q0 11.8066 0.766602 13.5791Q1.5332 15.3516 2.88574 16.7041Q4.23828 18.0566 6.01074 18.8232Q7.7832 19.5898 9.79492 19.5898Z"
                     fill="rgba(255,255,255,0.55)" />
              <path d="M6.12305 14.1309Q5.83984 14.1309 5.66895 13.9307Q5.49805 13.7305 5.49805 13.4766Q5.49805 13.2031 5.75195 12.9492L12.9297 5.70312Q13.1738 5.43945 13.457 5.43945Q13.7207 5.43945 13.9111 5.62988Q14.1016 5.82031 14.1016 6.09375Q14.1016 6.36719 13.8574 6.62109L6.66016 13.8672Q6.54297 14.0039 6.41602 14.0674Q6.28906 14.1309 6.12305 14.1309Z"
                     fill="#ffffff" />
       </g>
</svg>