<svg width="19.5898" height="19.5996">
       <g>
              <rect height="19.5996" opacity="0" width="19.5898" x="0" y="0" />
              <path d="M9.79492 19.5996Q11.8066 19.5996 13.5791 18.833Q15.3516 18.0664 16.7041 16.7139Q18.0566 15.3613 18.8232 13.5889Q19.5898 11.8164 19.5898 9.80469Q19.5898 7.79297 18.8232 6.02051Q18.0566 4.24805 16.7041 2.89551Q15.3516 1.54297 13.5742 0.776367Q11.7969 0.00976562 9.78516 0.00976562Q7.77344 0.00976562 6.00098 0.776367Q4.22852 1.54297 2.88086 2.89551Q1.5332 4.24805 0.766602 6.02051Q0 7.79297 0 9.80469Q0 11.8164 0.766602 13.5889Q1.5332 15.3613 2.88574 16.7139Q4.23828 18.0664 6.01074 18.833Q7.7832 19.5996 9.79492 19.5996Z"
                     fill="rgba(255,255,255,0.55)" />
              <path d="M3.73047 9.80469Q3.73047 8.55469 4.20898 7.45605Q4.6875 6.35742 5.52246 5.52246Q6.35742 4.6875 7.45605 4.20898Q8.55469 3.73047 9.79492 3.73047Q11.0449 3.73047 12.1436 4.20898Q13.2422 4.6875 14.082 5.52246Q14.9219 6.35742 15.4004 7.45605Q15.8789 8.55469 15.8789 9.80469Q15.8789 11.0547 15.4053 12.1533Q14.9316 13.252 14.0918 14.0869Q13.252 14.9219 12.1533 15.4004Q11.0547 15.8789 9.80469 15.8789Q8.56445 15.8789 7.46094 15.4004Q6.35742 14.9219 5.52246 14.0869Q4.6875 13.252 4.20898 12.1533Q3.73047 11.0547 3.73047 9.80469ZM4.87305 9.80469Q4.87305 10.7715 5.24414 11.6504L14.375 11.6504Q14.7461 10.7715 14.7461 9.80469Q14.7461 8.7793 14.3604 7.88086Q13.9746 6.98242 13.2959 6.30371Q12.6172 5.625 11.7236 5.24414Q10.8301 4.86328 9.79492 4.86328Q8.76953 4.86328 7.87598 5.24414Q6.98242 5.625 6.30859 6.30371Q5.63477 6.98242 5.25391 7.88086Q4.87305 8.7793 4.87305 9.80469ZM5.81055 12.6953Q6.47461 13.6328 7.51953 14.1895Q8.56445 14.7461 9.80469 14.7461Q11.0352 14.7461 12.085 14.1895Q13.1348 13.6328 13.8086 12.6953Z"
                     fill="#ffffff" />
       </g>
</svg>