<svg width="20.3008" height="19.8547">
       <g>
              <rect height="19.8547" opacity="0" width="20.3008" x="0" y="0" />
              <path d="M2.87872 15.5968L5.30396 15.5968L5.30396 14.3907L2.90131 14.3907Q2.07504 14.3907 1.642 13.9562Q1.20895 13.5217 1.20895 12.6752L1.20895 2.94693Q1.20895 2.10052 1.642 1.66748Q2.07504 1.23444 2.90131 1.23444L12.6631 1.23444Q13.4706 1.23444 13.913 1.66748Q14.3555 2.10052 14.3555 2.94693L14.3555 4.83749L15.5644 4.83749L15.5644 2.88025Q15.5644 1.47629 14.8402 0.750885Q14.1161 0.0254822 12.6895 0.0254822L2.87872 0.0254822Q1.44836 0.0254822 0.724182 0.744476Q0 1.46347 0 2.88025L0 12.7419Q0 14.1617 0.724182 14.8792Q1.44836 15.5968 2.87872 15.5968Z"
                     fill="rgba(255,255,255,0.55)" />
              <path d="M7.95013 10.0433L12.7591 10.0433L12.7591 9.02069L7.95013 9.02069Q7.73727 9.02069 7.58614 9.1684Q7.435 9.3161 7.435 9.52515Q7.435 9.74121 7.58614 9.89227Q7.73727 10.0433 7.95013 10.0433ZM14.2383 11.4743Q15.0397 11.4743 15.6132 10.8994Q16.1867 10.3244 16.1867 9.51614Q16.1867 8.70789 15.6132 8.13782Q15.0397 7.56775 14.2383 7.56775Q13.43 7.56775 12.8551 8.13782Q12.2801 8.70789 12.2801 9.51614Q12.2801 10.3244 12.8551 10.8994Q13.43 11.4743 14.2383 11.4743ZM14.2383 10.6047Q13.7729 10.6047 13.4631 10.2882Q13.1534 9.97177 13.1534 9.51309Q13.1534 9.04785 13.4631 8.73802Q13.7729 8.42819 14.2383 8.42819Q14.6901 8.42819 15.0051 8.73802Q15.3201 9.04785 15.3201 9.51309Q15.3201 9.97177 15.0051 10.2882Q14.6901 10.6047 14.2383 10.6047ZM15.6416 10.0433L17.1268 10.0433Q17.3224 10.0433 17.4701 9.89227Q17.6178 9.74121 17.6178 9.52515Q17.6178 9.3161 17.4701 9.1684Q17.3224 9.02069 17.1268 9.02069L15.6416 9.02069ZM7.92618 15.271L9.41116 15.271L9.41116 14.2482L7.92618 14.2482Q7.73041 14.2482 7.5827 14.3959Q7.435 14.5436 7.435 14.7528Q7.435 14.9687 7.5827 15.1199Q7.73041 15.271 7.92618 15.271ZM10.8147 16.702Q11.6296 16.702 12.2046 16.1269Q12.7795 15.5519 12.7795 14.7438Q12.7795 13.9423 12.2046 13.3688Q11.6296 12.7954 10.8147 12.7954Q10.0131 12.7954 9.4397 13.3688Q8.86627 13.9423 8.86627 14.7438Q8.86627 15.5519 9.4397 16.1269Q10.0131 16.702 10.8147 16.702ZM10.8147 15.8354Q10.3629 15.8354 10.0478 15.5173Q9.73282 15.1993 9.73282 14.7408Q9.73282 14.2754 10.0478 13.9671Q10.3629 13.6589 10.8147 13.6589Q11.2801 13.6589 11.5916 13.9671Q11.9032 14.2754 11.9032 14.7408Q11.9032 15.1993 11.5916 15.5173Q11.2801 15.8354 10.8147 15.8354ZM12.2939 15.271L17.0998 15.271Q17.3157 15.271 17.4667 15.1199Q17.6178 14.9687 17.6178 14.7528Q17.6178 14.5436 17.4667 14.3959Q17.3157 14.2482 17.0998 14.2482L12.2939 14.2482ZM7.6181 19.8547L17.4287 19.8547Q18.8524 19.8547 19.5766 19.1294Q20.3008 18.4041 20.3008 17L20.3008 7.13837Q20.3008 5.73135 19.5766 5.00748Q18.8524 4.2836 17.4287 4.2836L7.6181 4.2836Q6.18469 4.2836 5.46051 5.00107Q4.73633 5.71854 4.73633 7.13837L4.73633 17Q4.73633 18.4167 5.46051 19.1357Q6.18469 19.8547 7.6181 19.8547ZM7.63763 18.6458Q6.81137 18.6458 6.37833 18.2128Q5.94528 17.7798 5.94528 16.9333L5.94528 7.20505Q5.94528 6.35864 6.37833 5.92407Q6.81137 5.4895 7.63763 5.4895L17.3994 5.4895Q18.2069 5.4895 18.6494 5.92407Q19.0918 6.35864 19.0918 7.20505L19.0918 16.9333Q19.0918 17.7798 18.6494 18.2128Q18.2069 18.6458 17.3994 18.6458Z"
                     fill="rgba(255,255,255,0.55)" />
       </g>
</svg>