<svg width="21.7308" height="21.7566">
       <g>
              <rect height="21.7566" opacity="0" width="21.7308" x="0" y="0" />
              <path d="M10.8575 0.0256348Q10.6281 0.0256348 10.4733 0.18837Q10.3186 0.351105 10.3186 0.580444L10.3186 4.18045Q10.3186 4.40979 10.4733 4.57253Q10.6281 4.73526 10.8575 4.73526Q11.0997 4.73526 11.256 4.57253Q11.4124 4.40979 11.4124 4.18045L11.4124 0.580444Q11.4124 0.351105 11.256 0.18837Q11.0997 0.0256348 10.8575 0.0256348Z"
                     fill="rgba(255,255,255,0.55)" />
              <path d="M16.3055 1.48209Q16.0963 1.36597 15.8834 1.42555Q15.6705 1.48514 15.5475 1.68457L13.7494 4.8111Q13.6333 5.01053 13.6864 5.22644Q13.7396 5.44235 13.9488 5.56534Q14.155 5.67474 14.363 5.61363Q14.5711 5.55252 14.6939 5.35309L16.4989 2.23328Q16.6083 2.03384 16.5565 1.8161Q16.5048 1.59836 16.3055 1.48209Z"
                     fill="rgba(255,255,255,0.55)" />
              <path d="M20.2841 5.46082Q20.168 5.24857 19.9453 5.19836Q19.7226 5.14816 19.5233 5.25772L16.4034 7.05948Q16.2041 7.1727 16.1395 7.39197Q16.075 7.61124 16.2077 7.82043Q16.3239 8.01682 16.535 8.07007Q16.7461 8.12332 16.9453 8.01392L20.072 6.20895Q20.2715 6.08597 20.3344 5.87311Q20.3973 5.66025 20.2841 5.46082Z"
                     fill="rgba(255,255,255,0.55)" />
              <path d="M21.7308 10.8832Q21.7308 10.6538 21.5715 10.499Q21.4122 10.3442 21.1761 10.3442L17.5761 10.3442Q17.3466 10.3442 17.184 10.499Q17.0213 10.6538 17.0213 10.8832Q17.0213 11.1253 17.184 11.2817Q17.3466 11.438 17.5761 11.438L21.1761 11.438Q21.4122 11.438 21.5715 11.2817Q21.7308 11.1253 21.7308 10.8832Z"
                     fill="rgba(255,255,255,0.55)" />
              <path d="M20.2774 16.3214Q20.4004 16.125 20.3359 15.9106Q20.2715 15.6961 20.072 15.5733L16.9453 13.7683Q16.7461 13.662 16.5301 13.7121Q16.3141 13.7622 16.201 13.9616Q16.0847 14.1739 16.1444 14.3853Q16.2041 14.5967 16.4034 14.7195L19.5233 16.5245Q19.7226 16.6339 19.9404 16.5823Q20.1582 16.5306 20.2774 16.3214Z"
                     fill="rgba(255,255,255,0.55)" />
              <path d="M16.2987 20.3001Q16.5048 20.1839 16.5565 19.9661Q16.6083 19.7484 16.4989 19.549L14.697 16.4291Q14.5837 16.2297 14.3694 16.1652Q14.155 16.1006 13.9488 16.2169Q13.7396 16.3399 13.6894 16.5558Q13.6392 16.7717 13.7494 16.9681L15.5475 20.0909Q15.6705 20.2904 15.8834 20.3533Q16.0963 20.4163 16.2987 20.3001Z"
                     fill="rgba(255,255,255,0.55)" />
              <path d="M10.8575 21.7566Q11.0997 21.7566 11.256 21.5939Q11.4124 21.4311 11.4124 21.2018L11.4124 17.6018Q11.4124 17.3723 11.256 17.2096Q11.0997 17.047 10.8575 17.047Q10.6281 17.047 10.4733 17.2096Q10.3186 17.3723 10.3186 17.6018L10.3186 21.2018Q10.3186 21.4311 10.4733 21.5939Q10.6281 21.7566 10.8575 21.7566Z"
                     fill="rgba(255,255,255,0.55)" />
              <path d="M5.43518 20.3001Q5.64133 20.4163 5.85083 20.3533Q6.06033 20.2904 6.18332 20.0909L7.98813 16.9711Q8.09464 16.7717 8.04443 16.5558Q7.99423 16.3399 7.7948 16.2267Q7.58255 16.1104 7.37122 16.17Q7.15988 16.2297 7.0369 16.4291L5.2388 19.549Q5.12253 19.7484 5.17426 19.9661Q5.22598 20.1839 5.43518 20.3001Z"
                     fill="rgba(255,255,255,0.55)" />
              <path d="M1.46317 16.3245Q1.57272 16.5306 1.79047 16.5823Q2.00821 16.6339 2.20764 16.5245L5.32745 14.7195Q5.52689 14.5967 5.59135 14.3853Q5.65582 14.1739 5.5397 13.9745Q5.41672 13.7653 5.20081 13.7136Q4.98489 13.662 4.78546 13.7683L1.66565 15.5733Q1.46622 15.6961 1.4032 15.909Q1.34018 16.122 1.46317 16.3245Z"
                     fill="rgba(255,255,255,0.55)" />
              <path d="M0 10.8832Q0 11.1253 0.162659 11.2817Q0.325317 11.438 0.55481 11.438L4.15482 11.438Q4.39087 11.438 4.55025 11.2817Q4.70963 11.1253 4.70963 10.8832Q4.70963 10.6538 4.55025 10.499Q4.39087 10.3442 4.15482 10.3442L0.55481 10.3442Q0.325317 10.3442 0.162659 10.499Q0 10.6538 0 10.8832Z"
                     fill="rgba(255,255,255,0.165)" />
              <path d="M1.46317 5.45105Q1.34018 5.66025 1.4032 5.87311Q1.46622 6.08597 1.66565 6.20895L4.78546 8.01392Q4.98489 8.12332 5.20081 8.07007Q5.41672 8.01682 5.5397 7.81448Q5.65582 7.60834 5.59135 7.39693Q5.52689 7.18552 5.32745 7.06253L2.20764 5.25772Q2.00821 5.14816 1.79047 5.19989Q1.57272 5.25162 1.46317 5.45105Z"
                     fill="rgba(255,255,255,0.165)" />
              <path d="M5.43518 1.47232Q5.22293 1.58859 5.17273 1.81122Q5.12253 2.03384 5.2388 2.23328L7.0369 5.35309Q7.15988 5.55252 7.37274 5.61699Q7.5856 5.68146 7.78809 5.55557Q7.99118 5.4393 8.04291 5.22491Q8.09464 5.01053 7.98813 4.8111L6.18332 1.68457Q6.06033 1.48514 5.85083 1.42212Q5.64133 1.3591 5.43518 1.47232Z"
                     fill="rgba(255,255,255,0.165)" />
       </g>
</svg>