<svg width="19.5898" height="19.5996">
       <g>
              <rect height="19.5996" opacity="0" width="19.5898" x="0" y="0" />
              <path d="M9.79492 19.5898Q11.8066 19.5898 13.5791 18.8232Q15.3516 18.0566 16.7041 16.7041Q18.0566 15.3516 18.8232 13.5791Q19.5898 11.8066 19.5898 9.79492Q19.5898 7.7832 18.8232 6.01074Q18.0566 4.23828 16.7041 2.88574Q15.3516 1.5332 13.5742 0.766602Q11.7969 0 9.78516 0Q7.77344 0 6.00098 0.766602Q4.22852 1.5332 2.88086 2.88574Q1.5332 4.23828 0.766602 6.01074Q0 7.7832 0 9.79492Q0 11.8066 0.766602 13.5791Q1.5332 15.3516 2.88574 16.7041Q4.23828 18.0566 6.01074 18.8232Q7.7832 19.5898 9.79492 19.5898Z"
                     fill="rgba(255,255,255,0.55)" />
              <path d="M9.79492 13.3691Q8.80859 13.3691 7.99316 12.8857Q7.17773 12.4023 6.68945 11.5869Q6.20117 10.7715 6.20117 9.77539Q6.20117 8.78906 6.68945 7.97852Q7.17773 7.16797 7.99316 6.68457Q8.80859 6.20117 9.79492 6.20117Q10.7812 6.20117 11.5918 6.68457Q12.4023 7.16797 12.8906 7.97852Q13.3789 8.78906 13.3789 9.77539Q13.3789 10.7715 12.8906 11.5869Q12.4023 12.4023 11.5918 12.8857Q10.7812 13.3691 9.79492 13.3691ZM9.80469 12.1484Q10.4492 12.1484 10.9814 11.8262Q11.5137 11.5039 11.8311 10.9668Q12.1484 10.4297 12.1484 9.77539Q12.1484 9.13086 11.8311 8.59863Q11.5137 8.06641 10.9814 7.74414Q10.4492 7.42188 9.80469 7.42188Q9.15039 7.42188 8.61328 7.74414Q8.07617 8.06641 7.75879 8.59863Q7.44141 9.13086 7.44141 9.77539Q7.44141 10.4297 7.75879 10.9668Q8.07617 11.5039 8.61328 11.8262Q9.15039 12.1484 9.80469 12.1484Z"
                     fill="#ffffff" />
       </g>
</svg>