<svg width="19.5898" height="19.5996">
       <g>
              <rect height="19.5996" opacity="0" width="19.5898" x="0" y="0" />
              <path d="M9.79492 19.5898Q11.8066 19.5898 13.5791 18.8232Q15.3516 18.0566 16.7041 16.7041Q18.0566 15.3516 18.8232 13.5791Q19.5898 11.8066 19.5898 9.79492Q19.5898 7.7832 18.8232 6.01074Q18.0566 4.23828 16.7041 2.88574Q15.3516 1.5332 13.5742 0.766602Q11.7969 0 9.78516 0Q7.77344 0 6.00098 0.766602Q4.22852 1.5332 2.88086 2.88574Q1.5332 4.23828 0.766602 6.01074Q0 7.7832 0 9.79492Q0 11.8066 0.766602 13.5791Q1.5332 15.3516 2.88574 16.7041Q4.23828 18.0566 6.01074 18.8232Q7.7832 19.5898 9.79492 19.5898Z"
                     fill="rgba(255,255,255,0.55)" />
              <path d="M9.81445 12.9004Q8.95508 12.9004 8.24219 12.4756Q7.5293 12.0508 7.10449 11.3428Q6.67969 10.6348 6.67969 9.76562Q6.67969 8.91602 7.10449 8.20801Q7.5293 7.5 8.24219 7.08008Q8.95508 6.66016 9.81445 6.66016Q10.6738 6.66016 11.3818 7.08008Q12.0898 7.5 12.5146 8.20801Q12.9395 8.91602 12.9395 9.76562Q12.9395 10.6348 12.5146 11.3428Q12.0898 12.0508 11.3818 12.4756Q10.6738 12.9004 9.81445 12.9004Z"
                     fill="#ffffff" />
       </g>
</svg>