<svg width="23.3965" height="17.9767">
       <g>
              <rect height="17.9767" opacity="0" width="23.3965" x="0" y="0" />
              <path d="M7.11929 16.9708L19.3185 16.9708Q20.5211 16.9708 21.4412 16.4586Q22.3613 15.9464 22.8789 15.0694Q23.3965 14.1925 23.3965 13.089Q23.3965 12.1411 22.9751 11.3332Q22.5537 10.5254 21.825 9.97932Q21.0962 9.43329 20.1759 9.2659Q20.1221 8.07449 19.528 7.08549Q18.9339 6.0965 17.9496 5.50934Q16.9653 4.92218 15.7513 4.92218Q14.5418 4.92218 13.5472 5.46906Q12.5526 6.01593 11.9246 6.9838Q11.2639 6.75751 10.6358 6.75751Q9.70139 6.75751 8.92281 7.17255Q8.14423 7.58759 7.63084 8.31329Q7.11746 9.039 6.98685 9.96902Q6.01028 9.99222 5.2211 10.4745Q4.43192 10.9567 3.9666 11.7435Q3.50128 12.5304 3.50128 13.4662Q3.50128 14.4562 3.95569 15.2501Q4.4101 16.044 5.22652 16.5074Q6.04294 16.9708 7.11929 16.9708ZM2.84088 11.8405Q3.12271 11.0201 3.60413 10.414Q4.08554 9.80804 4.74739 9.43283Q5.40924 9.05762 6.23917 8.92181Q6.53381 7.84042 7.19376 7.09335Q7.8537 6.34628 8.7616 5.95856Q9.66949 5.57083 10.7231 5.57083Q10.9868 5.57083 11.2077 5.60249Q11.4285 5.63416 11.618 5.66879Q12.2989 4.66476 13.352 4.19518Q14.4051 3.72559 15.764 3.77396Q15.495 2.96768 14.7243 2.41631Q13.9537 1.86493 12.7667 1.86493Q12.3886 1.86493 12.0908 1.91895Q11.7929 1.97296 11.472 2.06467Q10.8002 1.0878 9.83391 0.5439Q8.86765 0 7.70782 0Q6.51276 0 5.50804 0.582581Q4.50333 1.16516 3.88252 2.14478Q3.26172 3.12439 3.21457 4.3219Q2.27844 4.50806 1.55273 5.0605Q0.827026 5.61295 0.413513 6.41747Q0 7.22198 0 8.17291Q0 9.46808 0.735321 10.4689Q1.47064 11.4697 2.84088 11.8405Z"
                     fill="#ffffff" />
       </g>
</svg>