<svg width="17.0193" height="19.4955">
       <g>
              <rect height="19.4955" opacity="0" width="17.0193" x="0" y="0" />
              <path d="M8.51175 19.4766Q8.75528 19.4766 8.89505 19.3204Q9.03482 19.1641 9.03482 18.9084L9.03482 16.4351L11.0021 17.5706Q11.2113 17.6869 11.4126 17.6554Q11.6139 17.6239 11.7368 17.4208Q11.8365 17.2447 11.775 17.0498Q11.7135 16.8549 11.4976 16.732L9.03482 15.3227L9.03482 13.801L8.89398 10.4297L11.7729 12.2281L13.0961 12.9765L13.0825 15.818Q13.0758 16.0707 13.2157 16.227Q13.3555 16.3834 13.5548 16.3834Q13.7916 16.3834 13.9164 16.2237Q14.0412 16.064 14.0412 15.818L14.0479 13.532L16.1935 14.7787Q16.4192 14.9084 16.6189 14.8601Q16.8186 14.8117 16.9288 14.6117Q17.0487 14.4017 16.9891 14.1968Q16.9294 13.9919 16.7166 13.8756L14.5651 12.6385L16.5475 11.4767Q16.7567 11.347 16.8302 11.1656Q16.9036 10.9842 16.7806 10.7872Q16.6613 10.6012 16.4691 10.5611Q16.2769 10.5211 16.0679 10.6409L13.6004 12.0734L12.2863 11.3249L9.21976 9.74289L12.2961 8.16391L13.6057 7.39655L16.052 8.82904Q16.2679 8.94897 16.4759 8.90884Q16.6839 8.86871 16.7935 8.68958Q16.9036 8.49243 16.8286 8.3062Q16.7536 8.11996 16.5444 7.99026L14.5712 6.84418L16.7196 5.60715Q16.9422 5.4805 17.0004 5.28259Q17.0585 5.08469 16.9386 4.86511Q16.8217 4.66797 16.6189 4.62112Q16.4161 4.57428 16.2032 4.70398L14.0479 5.9433L14.0284 3.64883Q14.0284 3.39996 13.907 3.24966Q13.7856 3.09937 13.5525 3.10242Q13.3396 3.10242 13.2077 3.25272Q13.0758 3.40302 13.0825 3.64883L13.0833 6.49582L11.7729 7.25403L8.89398 9.05914L9.03482 5.66895L9.03482 4.14719L11.4976 2.74475Q11.7135 2.61505 11.775 2.42355Q11.8365 2.23206 11.7368 2.0491Q11.6139 1.84601 11.4126 1.8145Q11.2113 1.78299 11.0021 1.90598L9.03482 3.04169L9.03482 0.561523Q9.03482 0.312653 8.89505 0.156326Q8.75528 0 8.51175 0Q8.27859 0 8.13844 0.156326Q7.99829 0.312653 7.99829 0.561523L7.99829 3.04459L5.98962 1.90598Q5.77676 1.78299 5.59015 1.8145Q5.40353 1.84601 5.27383 2.0491Q5.17709 2.23206 5.24194 2.42203Q5.30679 2.612 5.51965 2.73499L7.99829 4.15024L7.99829 5.66895L8.13241 9.05914L5.24744 7.25403L3.92724 6.49582L3.94083 3.64883Q3.94754 3.40302 3.8141 3.25272Q3.68066 3.10242 3.47146 3.10242Q3.22488 3.10242 3.10502 3.25272Q2.98517 3.40302 2.98517 3.64883L2.9754 5.9433L0.823149 4.70398Q0.611052 4.58405 0.402999 4.62601Q0.194945 4.66797 0.0817248 4.86511Q-0.0418714 5.08469 0.0214526 5.28595Q0.0847766 5.48721 0.300688 5.60715L2.44546 6.84418L0.478911 7.99026Q0.266661 8.11996 0.191741 8.29796Q0.11682 8.47595 0.229888 8.69568Q0.332732 8.87848 0.540709 8.91373Q0.748686 8.94897 0.974364 8.82904L3.41089 7.40341L4.72421 8.16391L7.79382 9.74289L4.73031 11.3249L3.41394 12.0862L0.955596 10.6409Q0.739531 10.5211 0.544371 10.5611Q0.349211 10.6012 0.246367 10.7744Q0.126586 10.997 0.196624 11.172Q0.266661 11.347 0.475859 11.4767L2.45523 12.6385L0.306792 13.8756Q0.0908801 14.0016 0.0278613 14.2017Q-0.0351575 14.4017 0.0817248 14.5988Q0.204711 14.8184 0.409331 14.8601Q0.613951 14.9017 0.823149 14.7787L2.9754 13.5454L2.98212 15.818Q2.98212 16.064 3.1035 16.2237Q3.22488 16.3834 3.4617 16.3834Q3.668 16.3834 3.80777 16.227Q3.94754 16.0707 3.94083 15.818L3.93411 12.9765L5.24744 12.2348L8.13241 10.4297L7.99829 13.801L7.99829 15.3197L5.51965 16.7349Q5.30679 16.8579 5.24194 17.0513Q5.17709 17.2447 5.27383 17.4208Q5.40353 17.6239 5.59015 17.6554Q5.77676 17.6869 5.98962 17.5706L7.99829 16.4253L7.99829 18.9084Q7.99829 19.1641 8.13844 19.3204Q8.27859 19.4766 8.51175 19.4766Z"
                     fill="#ffffff" />
       </g>
</svg>