<svg width="19.5898" height="19.5996">
       <g>
              <rect height="19.5996" opacity="0" width="19.5898" x="0" y="0" />
              <path d="M9.79492 19.5996Q11.8066 19.5996 13.5791 18.833Q15.3516 18.0664 16.7041 16.7139Q18.0566 15.3613 18.8232 13.5889Q19.5898 11.8164 19.5898 9.80469Q19.5898 7.79297 18.8232 6.02051Q18.0566 4.24805 16.7041 2.89551Q15.3516 1.54297 13.5742 0.776367Q11.7969 0.00976562 9.78516 0.00976562Q7.77344 0.00976562 6.00098 0.776367Q4.22852 1.54297 2.88086 2.89551Q1.5332 4.24805 0.766602 6.02051Q0 7.79297 0 9.80469Q0 11.8164 0.766602 13.5889Q1.5332 15.3613 2.88574 16.7139Q4.23828 18.0664 6.01074 18.833Q7.7832 19.5996 9.79492 19.5996Z"
                     fill="rgba(255,255,255,0.55)" />
              <path d="M9.77539 16.0254Q9.58984 16.0254 9.46289 15.8887Q9.33594 15.752 9.33594 15.5469L9.33594 14.1992L8.27148 14.8145Q8.08594 14.9121 7.91992 14.873Q7.75391 14.834 7.65625 14.668Q7.57812 14.5117 7.62695 14.3408Q7.67578 14.1699 7.85156 14.0723L9.33594 13.2324L9.33594 12.3535L9.42383 10.4688L7.80273 11.4648L7.05078 11.9043L7.06055 13.6133Q7.06055 13.8184 6.93848 13.9502Q6.81641 14.082 6.63086 14.082Q6.43555 14.082 6.32324 13.9551Q6.21094 13.8281 6.21094 13.6133L6.20117 12.3926L5.04883 13.0566Q4.87305 13.1641 4.69727 13.125Q4.52148 13.0859 4.41406 12.9199Q4.31641 12.7246 4.37012 12.5537Q4.42383 12.3828 4.58984 12.2754L5.75195 11.6113L4.70703 11.0059Q4.51172 10.8984 4.46289 10.7324Q4.41406 10.5664 4.50195 10.3906Q4.59961 10.2344 4.77539 10.2002Q4.95117 10.166 5.14648 10.2637L6.60156 11.1328L7.34375 10.6836L9.07227 9.80469L7.34375 8.92578L6.60156 8.47656L5.14648 9.33594Q4.95117 9.44336 4.77539 9.40918Q4.59961 9.375 4.50195 9.20898Q4.4043 9.0332 4.46289 8.87207Q4.52148 8.71094 4.70703 8.59375L5.75195 7.98828L4.58984 7.33398Q4.42383 7.22656 4.36523 7.05078Q4.30664 6.875 4.41406 6.68945Q4.51172 6.52344 4.69238 6.48438Q4.87305 6.44531 5.04883 6.54297L6.20117 7.2168L6.21094 5.98633Q6.21094 5.78125 6.32324 5.64941Q6.43555 5.51758 6.63086 5.51758Q6.81641 5.51758 6.93848 5.6543Q7.06055 5.79102 7.06055 5.98633L7.05078 7.70508L7.80273 8.14453L9.42383 9.14062L9.33594 7.25586L9.33594 6.37695L7.85156 5.52734Q7.67578 5.42969 7.62695 5.26367Q7.57812 5.09766 7.65625 4.94141Q7.75391 4.77539 7.91992 4.73145Q8.08594 4.6875 8.27148 4.79492L9.33594 5.41016L9.33594 4.0625Q9.33594 3.85742 9.46289 3.7207Q9.58984 3.58398 9.77539 3.58398Q9.98047 3.58398 10.1074 3.71582Q10.2344 3.84766 10.2344 4.0625L10.2344 5.39062L11.2695 4.79492Q11.4648 4.6875 11.6406 4.73145Q11.8164 4.77539 11.9043 4.94141Q11.9922 5.08789 11.9434 5.26367Q11.8945 5.43945 11.7188 5.53711L10.2344 6.37695L10.2344 7.25586L10.1465 9.14062L11.7969 8.125L12.5195 7.70508L12.5098 5.98633Q12.5098 5.79102 12.627 5.6543Q12.7441 5.51758 12.9297 5.51758Q13.125 5.51758 13.2422 5.64941Q13.3594 5.78125 13.3594 5.98633L13.3691 7.2168L14.5215 6.54297Q14.6973 6.44531 14.8779 6.48438Q15.0586 6.52344 15.1562 6.68945Q15.2539 6.875 15.2002 7.05078Q15.1465 7.22656 14.9707 7.33398L13.8184 7.98828L14.8633 8.59375Q15.0391 8.71094 15.0977 8.87207Q15.1562 9.0332 15.0684 9.20898Q14.9707 9.36523 14.7852 9.39941Q14.5996 9.43359 14.4238 9.33594L12.9688 8.47656L12.2168 8.92578L10.498 9.80469L12.2168 10.6836L12.9688 11.1328L14.4238 10.2637Q14.5996 10.1758 14.7803 10.2051Q14.9609 10.2344 15.0684 10.4102Q15.1562 10.5664 15.0977 10.7324Q15.0391 10.8984 14.8633 11.0059L13.8184 11.6113L14.9707 12.2754Q15.1465 12.3828 15.2002 12.5537Q15.2539 12.7246 15.1562 12.9199Q15.0391 13.0859 14.8682 13.125Q14.6973 13.1641 14.5215 13.0566L13.3691 12.373L13.3594 13.6133Q13.3594 13.8281 13.2422 13.9551Q13.125 14.082 12.9199 14.082Q12.7441 14.082 12.627 13.9502Q12.5098 13.8184 12.5098 13.6133L12.5195 11.9043L11.8066 11.4746L10.1465 10.4688L10.2344 12.3535L10.2344 13.2324L11.7188 14.0723Q11.8945 14.1699 11.9434 14.3408Q11.9922 14.5117 11.9043 14.668Q11.8164 14.834 11.6406 14.8779Q11.4648 14.9219 11.2695 14.8145L10.2344 14.2188L10.2344 15.5469Q10.2344 15.7617 10.1074 15.8936Q9.98047 16.0254 9.77539 16.0254Z"
                     fill="#ffffff" />
       </g>
</svg>