<svg width="20.1562" height="20.7715">
       <g>
              <rect height="20.7715" opacity="0" width="20.1562" x="0" y="0" />
              <path d="M2.8125 20.7617L17.334 20.7617Q18.7305 20.7617 19.4434 20.0488Q20.1562 19.3359 20.1562 17.959L20.1562 7.96875Q20.1562 6.60156 19.4434 5.89355Q18.7305 5.18555 17.334 5.18555L2.8125 5.18555Q1.41602 5.18555 0.708008 5.88867Q0 6.5918 0 7.96875L0 17.959Q0 19.3555 0.708008 20.0586Q1.41602 20.7617 2.8125 20.7617ZM1.96289 3.50586L18.1934 3.50586Q18.1152 2.99805 17.8467 2.71484Q17.5781 2.43164 17.0215 2.43164L3.13477 2.43164Q2.58789 2.43164 2.31445 2.71484Q2.04102 2.99805 1.96289 3.50586ZM3.90625 1.00586L16.25 1.00586Q16.2207 0.517578 15.9473 0.258789Q15.6738 0 15.1465 0L5.00977 0Q4.49219 0 4.21387 0.258789Q3.93555 0.517578 3.90625 1.00586Z"
                     fill="rgba(255,255,255,0.55)" />
              <path d="M10.5762 17.207Q10.3027 17.207 10.2539 16.9238Q10.0879 15.7031 9.8877 14.9316Q9.6875 14.1602 9.28711 13.7305Q8.88672 13.3008 8.14941 13.1006Q7.41211 12.9004 6.17188 12.832Q5.89844 12.793 5.89844 12.5195Q5.89844 12.2656 6.17188 12.2266Q7.1582 12.0996 7.8125 11.9434Q8.4668 11.7871 8.87695 11.5381Q9.28711 11.2891 9.52637 10.8691Q9.76562 10.4492 9.92676 9.78027Q10.0879 9.11133 10.2539 8.125Q10.3125 7.86133 10.5762 7.86133Q10.8301 7.86133 10.8789 8.13477Q11.0156 9.10156 11.1719 9.76562Q11.3281 10.4297 11.5723 10.8496Q11.8164 11.2695 12.2363 11.5283Q12.6562 11.7871 13.3154 11.9434Q13.9746 12.0996 14.9707 12.2266Q15.2441 12.2656 15.2441 12.5195Q15.2441 12.793 14.9707 12.832Q13.9746 12.959 13.3203 13.1104Q12.666 13.2617 12.2559 13.5156Q11.8457 13.7695 11.5967 14.1943Q11.3477 14.6191 11.1914 15.2832Q11.0352 15.9473 10.8789 16.9336Q10.8203 17.207 10.5762 17.207ZM6.5918 18.7598Q6.42578 18.7598 6.37695 18.5645Q6.28906 18.0273 6.2207 17.7051Q6.15234 17.3828 6.00098 17.2021Q5.84961 17.0215 5.5127 16.9238Q5.17578 16.8262 4.55078 16.748Q4.36523 16.7188 4.36523 16.5332Q4.36523 16.3477 4.54102 16.3281Q5.17578 16.2305 5.5127 16.1328Q5.84961 16.0352 6.00098 15.8545Q6.15234 15.6738 6.2207 15.3516Q6.28906 15.0293 6.37695 14.4922Q6.42578 14.3066 6.5918 14.3066Q6.75781 14.3066 6.80664 14.4922Q6.89453 15.0293 6.96289 15.3516Q7.03125 15.6738 7.1875 15.8545Q7.34375 16.0352 7.68555 16.1328Q8.02734 16.2305 8.64258 16.3281Q8.82812 16.3477 8.82812 16.5332Q8.82812 16.709 8.64258 16.748Q8.01758 16.8262 7.68066 16.9238Q7.34375 17.0215 7.1875 17.207Q7.03125 17.3926 6.96289 17.7148Q6.89453 18.0371 6.80664 18.584Q6.76758 18.7598 6.5918 18.7598Z"
                     fill="#ffffff" />
       </g>
</svg>