<svg width="17.8485" height="24.0118">
       <g>
              <rect height="24.0118" opacity="0" width="17.8485" x="0" y="0" />
              <path d="M10.2295 22.2119Q10.4036 22.2119 10.5124 22.1065Q10.6212 22.001 10.6482 21.8292Q10.8411 20.155 11.0847 19.0197Q11.3284 17.8844 11.7472 17.1685Q12.166 16.4526 12.8767 16.0414Q13.5873 15.6302 14.7001 15.4042Q15.8128 15.1782 17.4622 15.0116Q17.6338 14.9951 17.7412 14.8811Q17.8485 14.767 17.8485 14.599Q17.8485 14.4406 17.7412 14.3266Q17.6338 14.2126 17.4622 14.1962Q15.8128 14.0294 14.7001 13.8035Q13.5873 13.5776 12.8767 13.163Q12.166 12.7484 11.7472 12.0325Q11.3284 11.3165 11.0847 10.1846Q10.8411 9.05273 10.6482 7.37167Q10.6212 7.20673 10.5124 7.10129Q10.4036 6.99585 10.2295 6.99585Q10.0621 6.99585 9.94995 7.10129Q9.8378 7.20673 9.81461 7.37167Q9.62463 9.05273 9.38095 10.1846Q9.13727 11.3165 8.71513 12.0325Q8.293 12.7484 7.58232 13.163Q6.87164 13.5776 5.75737 13.8035Q4.6431 14.0294 3.00354 14.1962Q2.82516 14.2126 2.71782 14.3266Q2.61047 14.4406 2.61047 14.599Q2.61047 14.767 2.71782 14.8811Q2.82516 14.9951 3.00354 15.0116Q4.6431 15.2167 5.74951 15.4588Q6.85593 15.701 7.5602 16.1073Q8.26447 16.5135 8.6866 17.2166Q9.10873 17.9198 9.35539 19.0374Q9.60205 20.155 9.81461 21.8292Q9.8378 22.001 9.94995 22.1065Q10.0621 22.2119 10.2295 22.2119ZM3.60535 11.3232Q3.71185 11.3232 3.78159 11.2566Q3.85132 11.1899 3.8678 11.0872Q4.00681 10.1076 4.142 9.56375Q4.27719 9.01993 4.55772 8.74763Q4.83826 8.47534 5.40352 8.32703Q5.96878 8.17871 6.9783 7.98035Q7.21069 7.93381 7.21069 7.7179Q7.21069 7.60849 7.14439 7.54181Q7.07809 7.47513 6.9783 7.46536Q5.96878 7.29767 5.40016 7.15942Q4.83154 7.02118 4.55101 6.74217Q4.27048 6.46317 4.13864 5.90736Q4.00681 5.35156 3.8678 4.36523Q3.83484 4.12231 3.60535 4.12231Q3.37601 4.12231 3.3429 4.37195Q3.2106 5.35156 3.07693 5.8905Q2.94327 6.42944 2.65938 6.69838Q2.37549 6.96732 1.8084 7.11716Q1.2413 7.267 0.232391 7.46536Q0 7.50504 0 7.7179Q0 7.94052 0.256348 7.98035Q1.25854 8.15842 1.82373 8.3049Q2.38892 8.45139 2.66945 8.72368Q2.94998 8.99597 3.08029 9.54506Q3.2106 10.0941 3.3429 11.0738Q3.37601 11.3232 3.60535 11.3232ZM8.38943 4.68018Q8.55011 4.68018 8.58307 4.50607Q8.67538 3.92548 8.75725 3.57918Q8.83911 3.23288 9.01154 3.04314Q9.18396 2.85339 9.54308 2.74292Q9.90219 2.63245 10.5521 2.53723Q10.7262 2.50412 10.7262 2.33673Q10.7262 2.17621 10.5521 2.14615Q9.90219 2.04102 9.54308 1.9355Q9.18396 1.82999 9.01154 1.63872Q8.83911 1.44745 8.75725 1.10107Q8.67538 0.7547 8.58307 0.174255Q8.55011 0 8.38943 0Q8.22205 0 8.1958 0.174255Q8.09677 0.7547 8.01834 1.10107Q7.93991 1.44745 7.76749 1.63872Q7.59506 1.82999 7.23595 1.9355Q6.87683 2.04102 6.22681 2.14615Q6.0527 2.17621 6.0527 2.33673Q6.0527 2.50412 6.22681 2.53723Q6.87683 2.63245 7.23595 2.74292Q7.59506 2.85339 7.76749 3.04314Q7.93991 3.23288 8.01834 3.57918Q8.09677 3.92548 8.1958 4.50607Q8.22205 4.68018 8.38943 4.68018Z"
                     fill="#ffd60a" />
       </g>
</svg>