<svg width="19.0234" height="19.0015">
       <g>
              <rect height="19.0015" opacity="0" width="19.0234" x="0" y="0" />
              <path d="M9.51172 18.9917Q9.76395 18.9917 9.9411 18.8307Q10.1183 18.6697 10.155 18.4071Q10.3908 16.3631 10.6836 14.9847Q10.9764 13.6063 11.48 12.7397Q11.9836 11.8732 12.8419 11.3744Q13.7003 10.8757 15.0573 10.6027Q16.4143 10.3297 18.4186 10.127Q18.6783 10.1038 18.8509 9.9263Q19.0234 9.74884 19.0234 9.49585Q19.0234 9.24286 18.8509 9.06387Q18.6783 8.88489 18.4186 8.85803Q16.4143 8.65891 15.0573 8.38745Q13.7003 8.116 12.8419 7.61726Q11.9836 7.11853 11.48 6.25198Q10.9764 5.38544 10.6836 4.0036Q10.3908 2.62177 10.155 0.57785Q10.1183 0.312195 9.9411 0.156097Q9.76395 0 9.51172 0Q9.26559 0 9.08691 0.156097Q8.90823 0.312195 8.86841 0.57785Q8.62976 2.62177 8.33839 4.0036Q8.04703 5.38544 7.54005 6.25198Q7.03308 7.11853 6.17477 7.61726Q5.31647 8.116 3.96278 8.38745Q2.6091 8.65891 0.604858 8.85803Q0.33844 8.88489 0.16922 9.06387Q0 9.24286 0 9.49585Q0 9.74884 0.16922 9.92325Q0.33844 10.0977 0.604858 10.127Q2.27234 10.3418 3.47839 10.569Q4.68445 10.7962 5.52292 11.1356Q6.36139 11.4751 6.9146 12.0222Q7.4678 12.5694 7.82158 13.4098Q8.17535 14.2502 8.41415 15.4757Q8.65295 16.7012 8.86841 18.4071Q8.90823 18.6697 9.08691 18.8307Q9.26559 18.9917 9.51172 18.9917Z"
                     fill="#ffd60a" />
       </g>
</svg>