<svg width="23.7891" height="19.4043">
       <g>
              <rect height="19.4043" opacity="0" width="23.7891" x="0" y="0" />
              <path d="M2.28516 16.4258L21.5039 16.4258Q22.6465 16.4258 23.2178 15.8643Q23.7891 15.3027 23.7891 14.1406L23.7891 2.89062Q23.7891 1.72852 23.2178 1.16699Q22.6465 0.605469 21.5039 0.605469L2.28516 0.605469Q1.15234 0.605469 0.576172 1.16699Q0 1.72852 0 2.89062L0 14.1406Q0 15.3027 0.576172 15.8643Q1.15234 16.4258 2.28516 16.4258ZM7.08984 19.4043L16.6992 19.4043Q16.9434 19.4043 17.1289 19.2285Q17.3145 19.0527 17.3145 18.7891Q17.3145 18.5449 17.1289 18.3643Q16.9434 18.1836 16.6992 18.1836L7.08984 18.1836Q6.83594 18.1836 6.65527 18.3643Q6.47461 18.5449 6.47461 18.7891Q6.47461 19.0527 6.65527 19.2285Q6.83594 19.4043 7.08984 19.4043Z"
                     fill="rgba(255,255,255,0.55)" />
              <path d="M12.3926 12.7539Q12.1191 12.7539 12.0703 12.4707Q11.9043 11.25 11.7041 10.4785Q11.5039 9.70703 11.1035 9.27734Q10.7031 8.84766 9.96582 8.64746Q9.22852 8.44727 7.98828 8.37891Q7.71484 8.33984 7.71484 8.06641Q7.71484 7.8125 7.98828 7.77344Q8.97461 7.64648 9.62891 7.49023Q10.2832 7.33398 10.6934 7.08496Q11.1035 6.83594 11.3428 6.41602Q11.582 5.99609 11.7432 5.32715Q11.9043 4.6582 12.0703 3.67188Q12.1289 3.4082 12.3926 3.4082Q12.6465 3.4082 12.6953 3.68164Q12.832 4.64844 12.9883 5.3125Q13.1445 5.97656 13.3887 6.39648Q13.6328 6.81641 14.0527 7.0752Q14.4727 7.33398 15.1318 7.49023Q15.791 7.64648 16.7871 7.77344Q17.0605 7.8125 17.0605 8.06641Q17.0605 8.33984 16.7871 8.37891Q15.791 8.50586 15.1367 8.65723Q14.4824 8.80859 14.0723 9.0625Q13.6621 9.31641 13.4131 9.74121Q13.1641 10.166 13.0078 10.8301Q12.8516 11.4941 12.6953 12.4805Q12.6367 12.7539 12.3926 12.7539ZM8.4082 14.3066Q8.24219 14.3066 8.19336 14.1113Q8.10547 13.5742 8.03711 13.252Q7.96875 12.9297 7.81738 12.749Q7.66602 12.5684 7.3291 12.4707Q6.99219 12.373 6.36719 12.2949Q6.18164 12.2656 6.18164 12.0801Q6.18164 11.8945 6.35742 11.875Q6.99219 11.7773 7.3291 11.6797Q7.66602 11.582 7.81738 11.4014Q7.96875 11.2207 8.03711 10.8984Q8.10547 10.5762 8.19336 10.0391Q8.24219 9.85352 8.4082 9.85352Q8.57422 9.85352 8.62305 10.0391Q8.71094 10.5762 8.7793 10.8984Q8.84766 11.2207 9.00391 11.4014Q9.16016 11.582 9.50195 11.6797Q9.84375 11.7773 10.459 11.875Q10.6445 11.8945 10.6445 12.0801Q10.6445 12.2559 10.459 12.2949Q9.83398 12.373 9.49707 12.4707Q9.16016 12.5684 9.00391 12.7539Q8.84766 12.9395 8.7793 13.2617Q8.71094 13.584 8.62305 14.1309Q8.58398 14.3066 8.4082 14.3066Z"
                     fill="#ffffff" />
       </g>
</svg>