<svg width="20.3027" height="19.8535">
       <g>
              <rect height="19.8535" opacity="0" width="20.3027" x="0" y="0" />
              <path d="M2.88086 15.5957L5.30273 15.5957L5.30273 14.3945L2.90039 14.3945Q2.07031 14.3945 1.64062 13.96Q1.21094 13.5254 1.21094 12.6758L1.21094 2.94922Q1.21094 2.09961 1.64062 1.66504Q2.07031 1.23047 2.90039 1.23047L12.666 1.23047Q13.4668 1.23047 13.9111 1.66504Q14.3555 2.09961 14.3555 2.94922L14.3555 4.83398L15.5664 4.83398L15.5664 2.88086Q15.5664 1.47461 14.8389 0.751953Q14.1113 0.0292969 12.6855 0.0292969L2.88086 0.0292969Q1.44531 0.0292969 0.722656 0.74707Q0 1.46484 0 2.88086L0 12.7441Q0 14.1602 0.722656 14.8779Q1.44531 15.5957 2.88086 15.5957Z"
                     fill="rgba(255,255,255,0.55)" />
              <path d="M7.61719 19.8535L17.4316 19.8535Q18.8477 19.8535 19.5752 19.1309Q20.3027 18.4082 20.3027 17.002L20.3027 7.13867Q20.3027 5.73242 19.5752 5.00977Q18.8477 4.28711 17.4316 4.28711L7.61719 4.28711Q6.18164 4.28711 5.45898 5.00488Q4.73633 5.72266 4.73633 7.13867L4.73633 17.002Q4.73633 18.418 5.45898 19.1357Q6.18164 19.8535 7.61719 19.8535Z"
                     fill="rgba(255,255,255,0.55)" />
              <path d="M13.0176 16.3086Q12.7441 16.3086 12.6953 16.0254Q12.5293 14.8047 12.3291 14.0332Q12.1289 13.2617 11.7285 12.832Q11.3281 12.4023 10.5908 12.2021Q9.85352 12.002 8.61328 11.9336Q8.33984 11.8945 8.33984 11.6211Q8.33984 11.3672 8.61328 11.3281Q9.59961 11.2012 10.2539 11.0449Q10.9082 10.8887 11.3184 10.6396Q11.7285 10.3906 11.9678 9.9707Q12.207 9.55078 12.3682 8.88184Q12.5293 8.21289 12.6953 7.22656Q12.7539 6.96289 13.0176 6.96289Q13.2715 6.96289 13.3203 7.23633Q13.457 8.20312 13.6133 8.86719Q13.7695 9.53125 14.0137 9.95117Q14.2578 10.3711 14.6777 10.6299Q15.0977 10.8887 15.7568 11.0449Q16.416 11.2012 17.4121 11.3281Q17.6855 11.3672 17.6855 11.6211Q17.6855 11.8945 17.4121 11.9336Q16.416 12.0605 15.7617 12.2119Q15.1074 12.3633 14.6973 12.6172Q14.2871 12.8711 14.0381 13.2959Q13.7891 13.7207 13.6328 14.3848Q13.4766 15.0488 13.3203 16.0352Q13.2617 16.3086 13.0176 16.3086ZM9.0332 17.8613Q8.86719 17.8613 8.81836 17.666Q8.73047 17.1289 8.66211 16.8066Q8.59375 16.4844 8.44238 16.3037Q8.29102 16.123 7.9541 16.0254Q7.61719 15.9277 6.99219 15.8496Q6.80664 15.8203 6.80664 15.6348Q6.80664 15.4492 6.98242 15.4297Q7.61719 15.332 7.9541 15.2344Q8.29102 15.1367 8.44238 14.9561Q8.59375 14.7754 8.66211 14.4531Q8.73047 14.1309 8.81836 13.5938Q8.86719 13.4082 9.0332 13.4082Q9.19922 13.4082 9.24805 13.5938Q9.33594 14.1309 9.4043 14.4531Q9.47266 14.7754 9.62891 14.9561Q9.78516 15.1367 10.127 15.2344Q10.4688 15.332 11.084 15.4297Q11.2695 15.4492 11.2695 15.6348Q11.2695 15.8105 11.084 15.8496Q10.459 15.9277 10.1221 16.0254Q9.78516 16.123 9.62891 16.3086Q9.47266 16.4941 9.4043 16.8164Q9.33594 17.1387 9.24805 17.6855Q9.20898 17.8613 9.0332 17.8613Z"
                     fill="#ffffff" />
       </g>
</svg>