<svg width="17.0312" height="16.8652">
       <g>
              <rect height="16.8652" opacity="0" width="17.0312" x="0" y="0" />
              <path d="M1.71875 12.207L4.60938 12.207Q4.78516 12.207 4.90234 12.3145L9.43359 16.3574Q9.70703 16.6016 9.96094 16.7334Q10.2148 16.8652 10.5078 16.8652Q10.918 16.8652 11.1768 16.5918Q11.4355 16.3184 11.4355 15.9277L11.4355 0.986328Q11.4355 0.576172 11.1768 0.288086Q10.918 0 10.4883 0Q10.1953 0 9.96582 0.141602Q9.73633 0.283203 9.43359 0.556641L4.90234 4.60938Q4.79492 4.70703 4.60938 4.70703L1.71875 4.70703Q0.859375 4.70703 0.429688 5.15137Q0 5.5957 0 6.50391L0 10.4199Q0 11.3281 0.429688 11.7676Q0.859375 12.207 1.71875 12.207ZM1.76758 11.0938Q1.45508 11.0938 1.31836 10.957Q1.18164 10.8203 1.18164 10.5078L1.18164 6.42578Q1.18164 6.10352 1.31836 5.96191Q1.45508 5.82031 1.76758 5.82031L4.87305 5.82031Q5.07812 5.82031 5.23926 5.77148Q5.40039 5.72266 5.56641 5.56641L9.92188 1.60156Q9.9707 1.55273 10.0146 1.52344Q10.0586 1.49414 10.1172 1.49414Q10.2637 1.49414 10.2637 1.65039L10.2637 15.2051Q10.2637 15.3711 10.127 15.3711Q10.0391 15.3711 9.93164 15.2734L5.56641 11.3574Q5.40039 11.2012 5.23926 11.1475Q5.07812 11.0938 4.87305 11.0938Z"
                     fill="rgba(255,255,255,0.55)" />
              <path d="M14.9902 12.5391Q15.1855 12.666 15.415 12.627Q15.6445 12.5879 15.8008 12.373Q16.3672 11.6406 16.6992 10.6152Q17.0312 9.58984 17.0312 8.4375Q17.0312 7.27539 16.6992 6.25488Q16.3672 5.23438 15.8008 4.50195Q15.6445 4.28711 15.415 4.24316Q15.1855 4.19922 14.9902 4.33594Q14.7656 4.49219 14.7314 4.74121Q14.6973 4.99023 14.873 5.23438Q15.3613 5.89844 15.6104 6.7041Q15.8594 7.50977 15.8594 8.4375Q15.8594 9.36523 15.6104 10.1709Q15.3613 10.9766 14.873 11.6406Q14.707 11.8848 14.7363 12.1338Q14.7656 12.3828 14.9902 12.5391Z"
                     fill="rgba(255,255,255,0.55)" />
       </g>
</svg>