<svg width="19.5898" height="19.5996">
       <g>
              <rect height="19.5996" opacity="0" width="19.5898" x="0" y="0" />
              <path d="M9.79492 19.5996Q11.8066 19.5996 13.5791 18.833Q15.3516 18.0664 16.7041 16.7139Q18.0566 15.3613 18.8232 13.5889Q19.5898 11.8164 19.5898 9.80469Q19.5898 7.79297 18.8232 6.02051Q18.0566 4.24805 16.7041 2.89551Q15.3516 1.54297 13.5742 0.776367Q11.7969 0.00976562 9.78516 0.00976562Q7.77344 0.00976562 6.00098 0.776367Q4.22852 1.54297 2.88086 2.89551Q1.5332 4.24805 0.766602 6.02051Q0 7.79297 0 9.80469Q0 11.8164 0.766602 13.5889Q1.5332 15.3613 2.88574 16.7139Q4.23828 18.0664 6.01074 18.833Q7.7832 19.5996 9.79492 19.5996Z"
                     fill="#ff375f" />
              <path d="M9.52148 14.2969Q9.35547 14.2969 9.22363 14.2285Q9.0918 14.1602 8.94531 14.0234L6.66992 11.8652Q6.61133 11.8066 6.51367 11.8066L4.95117 11.8066Q4.51172 11.8066 4.24316 11.5381Q3.97461 11.2695 3.97461 10.791L3.97461 8.81836Q3.97461 8.34961 4.24316 8.08105Q4.51172 7.8125 4.95117 7.8125L6.51367 7.8125Q6.61133 7.8125 6.66992 7.76367L8.94531 5.5957Q9.11133 5.44922 9.2334 5.37598Q9.35547 5.30273 9.50195 5.30273Q9.73633 5.30273 9.86816 5.4541Q10 5.60547 10 5.82031L10 13.7891Q10 14.0039 9.86816 14.1504Q9.73633 14.2969 9.52148 14.2969Z"
                     fill="#ffffff" />
              <path d="M11.8164 12.0312Q11.4844 11.7676 11.709 11.416Q12.207 10.7422 12.207 9.79492Q12.207 8.7793 11.7285 8.18359Q11.6113 8.01758 11.6406 7.8418Q11.6699 7.66602 11.8164 7.54883Q11.9531 7.44141 12.1289 7.47559Q12.3047 7.50977 12.4219 7.65625Q12.7344 8.07617 12.9053 8.6377Q13.0762 9.19922 13.0762 9.79492Q13.0762 10.4004 12.9102 10.9619Q12.7441 11.5234 12.4219 11.9336Q12.3047 12.0801 12.1289 12.1094Q11.9531 12.1387 11.8164 12.0312Z"
                     fill="#ffffff" />
              <path d="M13.6719 13.3789Q13.5059 13.2812 13.4863 13.1055Q13.4668 12.9297 13.5742 12.7637Q14.0234 12.1973 14.2578 11.4209Q14.4922 10.6445 14.4922 9.79492Q14.4922 8.10547 13.584 6.81641Q13.4766 6.65039 13.501 6.47949Q13.5254 6.30859 13.6719 6.20117Q13.8281 6.09375 13.999 6.12305Q14.1699 6.15234 14.2676 6.30859Q14.8047 7.08008 15.0781 7.96875Q15.3516 8.85742 15.3516 9.79492Q15.3516 10.8301 15.0635 11.7188Q14.7754 12.6074 14.2578 13.2812Q14.1504 13.418 13.9893 13.4473Q13.8281 13.4766 13.6719 13.3789Z"
                     fill="#ffffff" />
       </g>
</svg>