<svg width="25.498" height="18.7593">
       <g>
              <rect height="18.7593" opacity="0" width="25.498" x="0" y="0" />
              <path d="M1.71875 13.1541L4.60938 13.1541Q4.78516 13.1541 4.90234 13.2615L9.43359 17.3044Q9.70703 17.5486 9.96094 17.6804Q10.2148 17.8123 10.5078 17.8123Q10.9277 17.8123 11.1816 17.5388Q11.4355 17.2654 11.4355 16.8748L11.4355 1.93336Q11.4355 1.5232 11.1768 1.23511Q10.918 0.947027 10.498 0.947027Q10.1953 0.947027 9.96582 1.08863Q9.73633 1.23023 9.43359 1.50367L4.90234 5.5564Q4.79492 5.65406 4.60938 5.65406L1.71875 5.65406Q0.859375 5.65406 0.429688 6.09839Q0 6.54273 0 7.45093L0 11.3669Q0 12.2752 0.429688 12.7146Q0.859375 13.1541 1.71875 13.1541ZM1.76758 12.0408Q1.45508 12.0408 1.31836 11.9041Q1.18164 11.7673 1.18164 11.4548L1.18164 7.37281Q1.18164 7.05054 1.31836 6.90894Q1.45508 6.76734 1.76758 6.76734L4.87305 6.76734Q5.07812 6.76734 5.23926 6.71851Q5.40039 6.66968 5.56641 6.51343L9.92188 2.54859Q9.9707 2.49976 10.0146 2.47046Q10.0586 2.44117 10.1172 2.44117Q10.2637 2.44117 10.2637 2.59742L10.2637 16.1521Q10.2637 16.3181 10.127 16.3181Q10.0391 16.3181 9.93164 16.2205L5.56641 12.3044Q5.40039 12.1482 5.23926 12.0945Q5.07812 12.0408 4.87305 12.0408Z"
                     fill="rgba(255,255,255,0.55)" />
              <path d="M15 13.4763Q15.1953 13.6033 15.4248 13.5642Q15.6543 13.5252 15.8105 13.3103Q16.377 12.5779 16.709 11.5525Q17.041 10.5271 17.041 9.37476Q17.041 8.21265 16.709 7.19214Q16.377 6.17164 15.8105 5.43921Q15.6543 5.22437 15.4248 5.18043Q15.1953 5.13648 15 5.2732Q14.7754 5.42945 14.7412 5.67847Q14.707 5.9275 14.8828 6.17164Q15.3711 6.8357 15.6201 7.64136Q15.8691 8.44703 15.8691 9.37476Q15.8691 10.3025 15.6201 11.1082Q15.3711 11.9138 14.8828 12.5779Q14.7168 12.822 14.7461 13.0711Q14.7754 13.3201 15 13.4763Z"
                     fill="rgba(255,255,255,0.55)" />
              <path d="M18.4277 16.0447Q18.6328 16.1814 18.8672 16.1375Q19.1016 16.0935 19.248 15.8787Q20.1855 14.6189 20.7275 12.9099Q21.2695 11.2009 21.2695 9.37476Q21.2695 7.54859 20.7324 5.82984Q20.1953 4.11109 19.248 2.87086Q19.1016 2.65601 18.8672 2.61207Q18.6328 2.56812 18.4277 2.70484Q18.2129 2.85132 18.1836 3.0857Q18.1543 3.32007 18.3203 3.56421Q19.1699 4.73609 19.6338 6.24Q20.0977 7.7439 20.0977 9.37476Q20.0977 11.0056 19.6338 12.5046Q19.1699 14.0037 18.3203 15.1853Q18.1543 15.4197 18.1836 15.6589Q18.2129 15.8982 18.4277 16.0447Z"
                     fill="rgba(255,255,255,0.55)" />
              <path d="M21.9043 18.6423Q22.0996 18.7791 22.3389 18.7253Q22.5781 18.6716 22.7246 18.447Q23.5645 17.197 24.1846 15.781Q24.8047 14.365 25.1514 12.7683Q25.498 11.1716 25.498 9.37476Q25.498 7.57789 25.1465 5.98121Q24.7949 4.38453 24.1699 2.96363Q23.5449 1.54273 22.7246 0.302496Q22.5781 0.0681212 22.3389 0.0144103Q22.0996-0.0393007 21.9043 0.107184Q21.6895 0.253668 21.6602 0.497809Q21.6309 0.741949 21.7871 0.976324Q22.5391 2.12867 23.1152 3.43726Q23.6914 4.74586 24.0137 6.22046Q24.3359 7.69507 24.3359 9.37476Q24.3359 11.0447 24.0137 12.5242Q23.6914 14.0037 23.1152 15.3123Q22.5391 16.6209 21.7871 17.7732Q21.6309 17.9978 21.6602 18.2468Q21.6895 18.4959 21.9043 18.6423Z"
                     fill="rgba(255,255,255,0.55)" />
       </g>
</svg>