<svg width="17.6855" height="17.7051">
       <g>
              <rect height="17.7051" opacity="0" width="17.6855" x="0" y="0" />
              <path d="M2.88086 17.7051L14.8047 17.7051Q16.2305 17.7051 16.958 16.9873Q17.6855 16.2695 17.6855 14.8535L17.6855 2.88086Q17.6855 1.46484 16.958 0.742188Q16.2305 0.0195312 14.8047 0.0195312L2.88086 0.0195312Q1.44531 0.0195312 0.722656 0.737305Q0 1.45508 0 2.88086L0 14.8535Q0 16.2695 0.722656 16.9873Q1.44531 17.7051 2.88086 17.7051Z"
                     fill="rgba(255,255,255,0.55)" />
              <path d="M10.7422 13.6133Q10.4199 13.6133 10.127 13.3301L7.73438 11.0449Q7.65625 10.9863 7.54883 10.9863L5.89844 10.9863Q5.41992 10.9863 5.1416 10.7031Q4.86328 10.4199 4.86328 9.91211L4.86328 7.82227Q4.86328 7.31445 5.1416 7.03613Q5.41992 6.75781 5.89844 6.75781L7.54883 6.75781Q7.66602 6.75781 7.73438 6.68945L10.127 4.38477Q10.459 4.08203 10.7324 4.08203Q10.9668 4.08203 11.1133 4.24316Q11.2598 4.4043 11.2598 4.63867L11.2598 13.0859Q11.2598 13.3203 11.1133 13.4668Q10.9668 13.6133 10.7422 13.6133Z"
                     fill="#ffffff" />
       </g>
</svg>