<svg width="19.5898" height="19.5996">
       <g>
              <rect height="19.5996" opacity="0" width="19.5898" x="0" y="0" />
              <path d="M9.79492 19.5996Q11.8066 19.5996 13.5791 18.833Q15.3516 18.0664 16.7041 16.7139Q18.0566 15.3613 18.8232 13.5889Q19.5898 11.8164 19.5898 9.80469Q19.5898 7.79297 18.8232 6.02051Q18.0566 4.24805 16.7041 2.89551Q15.3516 1.54297 13.5742 0.776367Q11.7969 0.00976562 9.78516 0.00976562Q7.77344 0.00976562 6.00098 0.776367Q4.22852 1.54297 2.88086 2.89551Q1.5332 4.24805 0.766602 6.02051Q0 7.79297 0 9.80469Q0 11.8164 0.766602 13.5889Q1.5332 15.3613 2.88574 16.7139Q4.23828 18.0664 6.01074 18.833Q7.7832 19.5996 9.79492 19.5996Z"
                     fill="rgba(255,255,255,0.55)" />
              <path d="M6.99219 11.8066Q6.55273 11.8066 6.28906 11.5381Q6.02539 11.2695 6.02539 10.791L6.02539 8.81836Q6.02539 8.55469 6.15723 8.35449Q6.28906 8.1543 6.47461 8.08594L6.64062 8.08594L11.9922 13.4082L11.9238 14.0527Q11.8262 14.2969 11.5625 14.2969Q11.4062 14.2969 11.2695 14.2285Q11.1328 14.1602 10.9961 14.0234L8.7207 11.8652Q8.65234 11.8066 8.55469 11.8066ZM8.99414 7.5L10.9961 5.5957Q11.1523 5.44922 11.2744 5.37598Q11.3965 5.30273 11.5625 5.30273Q11.7773 5.30273 11.9141 5.4541Q12.0508 5.60547 12.0508 5.82031L12.0508 10.5664ZM14.6387 15.1953L4.39453 4.94141Q4.28711 4.83398 4.28711 4.67285Q4.28711 4.51172 4.39453 4.39453Q4.51172 4.27734 4.67773 4.27734Q4.84375 4.27734 4.96094 4.39453L15.1953 14.6387Q15.3125 14.7559 15.3125 14.9121Q15.3125 15.0684 15.1953 15.1953Q15.0879 15.3027 14.9219 15.2979Q14.7559 15.293 14.6387 15.1953Z"
                     fill="#ffffff" />
       </g>
</svg>