<svg width="19.5898" height="19.5996">
       <g>
              <rect height="19.5996" opacity="0" width="19.5898" x="0" y="0" />
              <path d="M9.79492 19.5996Q11.8066 19.5996 13.5791 18.833Q15.3516 18.0664 16.7041 16.7139Q18.0566 15.3613 18.8232 13.5889Q19.5898 11.8164 19.5898 9.80469Q19.5898 7.79297 18.8232 6.02051Q18.0566 4.24805 16.7041 2.89551Q15.3516 1.54297 13.5742 0.776367Q11.7969 0.00976562 9.78516 0.00976562Q7.77344 0.00976562 6.00098 0.776367Q4.22852 1.54297 2.88086 2.89551Q1.5332 4.24805 0.766602 6.02051Q0 7.79297 0 9.80469Q0 11.8164 0.766602 13.5889Q1.5332 15.3613 2.88574 16.7139Q4.23828 18.0664 6.01074 18.833Q7.7832 19.5996 9.79492 19.5996Z"
                     fill="rgba(255,255,255,0.55)" />
              <path d="M11.6992 14.5703Q11.377 14.5703 11.084 14.2871L8.69141 12.002Q8.61328 11.9434 8.50586 11.9434L6.85547 11.9434Q6.37695 11.9434 6.09863 11.6602Q5.82031 11.377 5.82031 10.8691L5.82031 8.7793Q5.82031 8.27148 6.09863 7.99316Q6.37695 7.71484 6.85547 7.71484L8.50586 7.71484Q8.62305 7.71484 8.69141 7.64648L11.084 5.3418Q11.416 5.03906 11.6895 5.03906Q11.9238 5.03906 12.0703 5.2002Q12.2168 5.36133 12.2168 5.5957L12.2168 14.043Q12.2168 14.2773 12.0703 14.4238Q11.9238 14.5703 11.6992 14.5703Z"
                     fill="#ffffff" />
       </g>
</svg>