<svg width="21.2012" height="21.0449">
       <g>
              <rect height="21.0449" opacity="0" width="21.2012" x="0" y="0" />
              <path d="M5.46875 21.0449Q5.70312 21.0449 5.89844 20.9229Q6.09375 20.8008 6.35742 20.5566L9.89258 17.4023L17.0508 17.4023Q18.3789 17.4023 19.3018 16.9092Q20.2246 16.416 20.7129 15.4932Q21.2012 14.5703 21.2012 13.2617L21.2012 5.41016Q21.2012 4.10156 20.7129 3.17383Q20.2246 2.24609 19.3018 1.75293Q18.3789 1.25977 17.0508 1.25977L4.15039 1.25977Q2.82227 1.25977 1.89453 1.75293Q0.966797 2.24609 0.483398 3.16895Q0 4.0918 0 5.41016L0 13.2617Q0 14.5703 0.483398 15.498Q0.966797 16.4258 1.89453 16.9141Q2.82227 17.4023 4.15039 17.4023L4.76562 17.4023L4.76562 20.2344Q4.76562 20.6055 4.95117 20.8252Q5.13672 21.0449 5.46875 21.0449Z"
                     fill="rgba(255,255,255,0.55)" />
              <path d="M10.332 13.8184Q10.166 13.8184 10.0342 13.75Q9.90234 13.6816 9.75586 13.5449L7.48047 11.3867Q7.42188 11.3281 7.32422 11.3281L5.76172 11.3281Q5.32227 11.3281 5.05371 11.0596Q4.78516 10.791 4.78516 10.3125L4.78516 8.33984Q4.78516 7.87109 5.05371 7.60254Q5.32227 7.33398 5.76172 7.33398L7.32422 7.33398Q7.42188 7.33398 7.48047 7.28516L9.75586 5.11719Q9.92188 4.9707 10.0439 4.89746Q10.166 4.82422 10.3125 4.82422Q10.5469 4.82422 10.6787 4.97559Q10.8105 5.12695 10.8105 5.3418L10.8105 13.3105Q10.8105 13.5254 10.6787 13.6719Q10.5469 13.8184 10.332 13.8184Z"
                     fill="#ffffff" />
              <path d="M12.627 11.5527Q12.2949 11.2891 12.5195 10.9375Q13.0176 10.2637 13.0176 9.31641Q13.0176 8.30078 12.5391 7.70508Q12.4219 7.53906 12.4512 7.36328Q12.4805 7.1875 12.627 7.07031Q12.7637 6.96289 12.9395 6.99707Q13.1152 7.03125 13.2324 7.17773Q13.5449 7.59766 13.7158 8.15918Q13.8867 8.7207 13.8867 9.31641Q13.8867 9.92188 13.7207 10.4834Q13.5547 11.0449 13.2324 11.4551Q13.1152 11.6016 12.9395 11.6309Q12.7637 11.6602 12.627 11.5527Z"
                     fill="#ffffff" />
              <path d="M14.4824 12.9004Q14.3164 12.8027 14.2969 12.627Q14.2773 12.4512 14.3848 12.2852Q14.834 11.7188 15.0684 10.9424Q15.3027 10.166 15.3027 9.31641Q15.3027 7.62695 14.3945 6.33789Q14.2871 6.17188 14.3115 6.00098Q14.3359 5.83008 14.4824 5.72266Q14.6387 5.61523 14.8096 5.64453Q14.9805 5.67383 15.0781 5.83008Q15.6152 6.60156 15.8887 7.49023Q16.1621 8.37891 16.1621 9.31641Q16.1621 10.3516 15.874 11.2402Q15.5859 12.1289 15.0684 12.8027Q14.9609 12.9395 14.7998 12.9688Q14.6387 12.998 14.4824 12.9004Z"
                     fill="#ffffff" />
       </g>
</svg>