<svg width="21.2695" height="16.8652">
       <g>
              <rect height="16.8652" opacity="0" width="21.2695" x="0" y="0" />
              <path d="M10.3906 16.8652Q10.8105 16.8652 11.0596 16.5918Q11.3086 16.3184 11.3086 15.9277L11.3086 0.986328Q11.3086 0.576172 11.0547 0.288086Q10.8008 0 10.3711 0Q10.0781 0 9.84375 0.136719Q9.60938 0.273438 9.31641 0.556641L5.04883 4.60938Q4.94141 4.7168 4.75586 4.7168L1.83594 4.7168Q0.986328 4.7168 0.493164 5.21973Q0 5.72266 0 6.62109L0 10.3027Q0 11.2109 0.493164 11.709Q0.986328 12.207 1.83594 12.207L4.75586 12.207Q4.93164 12.207 5.04883 12.3145L9.31641 16.3574Q9.58008 16.6113 9.83887 16.7383Q10.0977 16.8652 10.3906 16.8652Z"
                     fill="rgba(255,255,255,0.55)" />
              <path d="M15 12.5293Q15.1953 12.6562 15.4248 12.6172Q15.6543 12.5781 15.8105 12.3633Q16.377 11.6309 16.709 10.6055Q17.041 9.58008 17.041 8.42773Q17.041 7.26562 16.709 6.24512Q16.377 5.22461 15.8105 4.49219Q15.6543 4.27734 15.4248 4.2334Q15.1953 4.18945 15 4.32617Q14.7754 4.48242 14.7412 4.73145Q14.707 4.98047 14.8828 5.22461Q15.3711 5.88867 15.6201 6.69434Q15.8691 7.5 15.8691 8.42773Q15.8691 9.35547 15.6201 10.1611Q15.3711 10.9668 14.8828 11.6309Q14.7168 11.875 14.7461 12.124Q14.7754 12.373 15 12.5293Z"
                     fill="rgba(255,255,255,0.55)" />
              <path d="M18.4277 15.0977Q18.6328 15.2344 18.8672 15.1904Q19.1016 15.1465 19.248 14.9316Q20.1855 13.6719 20.7275 11.9629Q21.2695 10.2539 21.2695 8.42773Q21.2695 6.60156 20.7324 4.88281Q20.1953 3.16406 19.248 1.92383Q19.1016 1.70898 18.8672 1.66504Q18.6328 1.62109 18.4277 1.75781Q18.2129 1.9043 18.1836 2.13867Q18.1543 2.37305 18.3203 2.61719Q19.1699 3.78906 19.6338 5.29297Q20.0977 6.79688 20.0977 8.42773Q20.0977 10.0586 19.6338 11.5576Q19.1699 13.0566 18.3203 14.2383Q18.1543 14.4727 18.1836 14.7119Q18.2129 14.9512 18.4277 15.0977Z"
                     fill="rgba(255,255,255,0.55)" />
       </g>
</svg>