<svg width="25.498" height="18.7593">
       <g>
              <rect height="18.7593" opacity="0" width="25.498" x="0" y="0" />
              <path d="M10.3906 17.8123Q10.8105 17.8123 11.0596 17.5388Q11.3086 17.2654 11.3086 16.8748L11.3086 1.93336Q11.3086 1.5232 11.0547 1.23511Q10.8008 0.947027 10.3711 0.947027Q10.0781 0.947027 9.84375 1.08375Q9.60938 1.22046 9.31641 1.50367L5.04883 5.5564Q4.94141 5.66382 4.75586 5.66382L1.83594 5.66382Q0.986328 5.66382 0.493164 6.16675Q0 6.66968 0 7.56812L0 11.2498Q0 12.158 0.493164 12.656Q0.986328 13.1541 1.83594 13.1541L4.75586 13.1541Q4.93164 13.1541 5.04883 13.2615L9.31641 17.3044Q9.58008 17.5584 9.83887 17.6853Q10.0977 17.8123 10.3906 17.8123Z"
                     fill="rgba(255,255,255,0.55)" />
              <path d="M14.9902 13.4763Q15.1855 13.6033 15.415 13.5642Q15.6445 13.5252 15.8008 13.3103Q16.3672 12.5779 16.6992 11.5525Q17.0312 10.5271 17.0312 9.37476Q17.0312 8.21265 16.6992 7.19214Q16.3672 6.17164 15.8008 5.43921Q15.6445 5.22437 15.415 5.18043Q15.1855 5.13648 14.9902 5.2732Q14.7656 5.42945 14.7314 5.67847Q14.6973 5.9275 14.873 6.17164Q15.3613 6.8357 15.6104 7.64136Q15.8594 8.44703 15.8594 9.37476Q15.8594 10.3025 15.6104 11.1082Q15.3613 11.9138 14.873 12.5779Q14.707 12.822 14.7363 13.0711Q14.7656 13.3201 14.9902 13.4763Z"
                     fill="rgba(255,255,255,0.55)" />
              <path d="M18.4277 16.0447Q18.6328 16.1814 18.8672 16.1375Q19.1016 16.0935 19.248 15.8787Q20.1855 14.6189 20.7275 12.9099Q21.2695 11.2009 21.2695 9.37476Q21.2695 7.54859 20.7324 5.82984Q20.1953 4.11109 19.248 2.87086Q19.1016 2.65601 18.8672 2.61207Q18.6328 2.56812 18.4277 2.70484Q18.2129 2.85132 18.1836 3.0857Q18.1543 3.32007 18.3203 3.56421Q19.1699 4.73609 19.6338 6.24Q20.0977 7.7439 20.0977 9.37476Q20.0977 11.0056 19.6338 12.5046Q19.1699 14.0037 18.3203 15.1853Q18.1543 15.4197 18.1836 15.6589Q18.2129 15.8982 18.4277 16.0447Z"
                     fill="rgba(255,255,255,0.55)" />
              <path d="M21.9043 18.6423Q22.0996 18.7791 22.3389 18.7253Q22.5781 18.6716 22.7246 18.447Q23.5645 17.197 24.1846 15.781Q24.8047 14.365 25.1514 12.7683Q25.498 11.1716 25.498 9.37476Q25.498 7.57789 25.1465 5.98121Q24.7949 4.38453 24.1699 2.96363Q23.5449 1.54273 22.7246 0.302496Q22.5781 0.0681212 22.3389 0.0144103Q22.0996-0.0393007 21.9043 0.107184Q21.6895 0.253668 21.6602 0.497809Q21.6309 0.741949 21.7871 0.976324Q22.5391 2.12867 23.1152 3.43726Q23.6914 4.74586 24.0137 6.22046Q24.3359 7.69507 24.3359 9.37476Q24.3359 11.0447 24.0137 12.5242Q23.6914 14.0037 23.1152 15.3123Q22.5391 16.6209 21.7871 17.7732Q21.6309 17.9978 21.6602 18.2468Q21.6895 18.4959 21.9043 18.6423Z"
                     fill="rgba(255,255,255,0.55)" />
       </g>
</svg>