<svg width="21.2012" height="20.9668">
       <g>
              <rect height="20.9668" opacity="0" width="21.2012" x="0" y="0" />
              <path d="M5.60547 20.9668Q5.88867 20.9668 6.12305 20.8154Q6.35742 20.6641 6.67969 20.3809L10.1074 17.3633L17.0508 17.3633Q18.3789 17.3633 19.3018 16.8701Q20.2246 16.377 20.7129 15.4541Q21.2012 14.5312 21.2012 13.2227L21.2012 5.37109Q21.2012 4.0625 20.7129 3.13477Q20.2246 2.20703 19.3018 1.71387Q18.3789 1.2207 17.0508 1.2207L4.15039 1.2207Q2.82227 1.2207 1.89453 1.71387Q0.966797 2.20703 0.483398 3.12988Q0 4.05273 0 5.37109L0 13.2227Q0 14.5312 0.483398 15.459Q0.966797 16.3867 1.89453 16.875Q2.82227 17.3633 4.15039 17.3633L4.77539 17.3633L4.77539 20Q4.77539 20.4395 4.99512 20.7031Q5.21484 20.9668 5.60547 20.9668ZM5.9082 19.5996L5.9082 16.7285Q5.9082 16.4258 5.77637 16.2939Q5.64453 16.1621 5.33203 16.1621L4.15039 16.1621Q2.70508 16.1621 1.95801 15.3906Q1.21094 14.6191 1.21094 13.2031L1.21094 5.37109Q1.21094 3.96484 1.95801 3.19824Q2.70508 2.43164 4.15039 2.43164L17.041 2.43164Q18.4766 2.43164 19.2334 3.19824Q19.9902 3.96484 19.9902 5.37109L19.9902 13.2031Q19.9902 14.6191 19.2334 15.3906Q18.4766 16.1621 17.041 16.1621L10.1074 16.1621Q9.77539 16.1621 9.56543 16.2354Q9.35547 16.3086 9.12109 16.5527Z"
                     fill="rgba(255,255,255,0.55)" />
              <path d="M10.3418 13.7012Q10.5566 13.7012 10.6836 13.5596Q10.8105 13.418 10.8105 13.2031L10.8105 5.39062Q10.8105 5.17578 10.6836 5.0293Q10.5566 4.88281 10.332 4.88281Q10.1758 4.88281 10.0586 4.95605Q9.94141 5.0293 9.78516 5.16602L7.54883 7.29492Q7.49023 7.34375 7.40234 7.34375L5.85938 7.34375Q5.42969 7.34375 5.1709 7.60742Q4.91211 7.87109 4.91211 8.33008L4.91211 10.2637Q4.91211 10.7324 5.1709 10.9912Q5.42969 11.25 5.85938 11.25L7.40234 11.25Q7.48047 11.25 7.54883 11.3086L9.78516 13.4375Q9.92188 13.5645 10.0537 13.6328Q10.1855 13.7012 10.3418 13.7012Z"
                     fill="rgba(255,255,255,0.55)" />
              <path d="M12.5977 11.4746Q12.7344 11.582 12.9004 11.5527Q13.0664 11.5234 13.1836 11.377Q13.4961 10.9863 13.6621 10.4297Q13.8281 9.87305 13.8281 9.28711Q13.8281 8.69141 13.6572 8.14453Q13.4863 7.59766 13.1836 7.19727Q13.0762 7.05078 12.9053 7.02148Q12.7344 6.99219 12.5977 7.08984Q12.4512 7.20703 12.4268 7.37305Q12.4023 7.53906 12.5098 7.69531Q12.9883 8.28125 12.9883 9.28711Q12.9883 10.2148 12.4902 10.8789Q12.2754 11.2305 12.5977 11.4746Z"
                     fill="rgba(255,255,255,0.55)" />
              <path d="M14.4141 12.8027Q14.5703 12.8906 14.7266 12.8662Q14.8828 12.8418 14.9902 12.7051Q15.498 12.041 15.7764 11.1719Q16.0547 10.3027 16.0547 9.28711Q16.0547 8.36914 15.7861 7.5Q15.5176 6.63086 15 5.87891Q14.8926 5.72266 14.7266 5.68848Q14.5605 5.6543 14.4141 5.76172Q14.2773 5.86914 14.2578 6.03516Q14.2383 6.20117 14.3359 6.36719Q15.2246 7.62695 15.2246 9.28711Q15.2246 10.127 14.9951 10.8887Q14.7656 11.6504 14.3262 12.207Q14.2188 12.3535 14.2383 12.5293Q14.2578 12.7051 14.4141 12.8027Z"
                     fill="rgba(255,255,255,0.55)" />
       </g>
</svg>