<svg width="17.0312" height="16.8652">
       <g>
              <rect height="16.8652" opacity="0" width="17.0312" x="0" y="0" />
              <path d="M10.3906 16.8652Q10.8105 16.8652 11.0596 16.5918Q11.3086 16.3184 11.3086 15.9277L11.3086 0.986328Q11.3086 0.576172 11.0547 0.288086Q10.8008 0 10.3711 0Q10.0781 0 9.84375 0.136719Q9.60938 0.273438 9.31641 0.556641L5.04883 4.60938Q4.94141 4.7168 4.75586 4.7168L1.83594 4.7168Q0.986328 4.7168 0.493164 5.21973Q0 5.72266 0 6.62109L0 10.3027Q0 11.2109 0.493164 11.709Q0.986328 12.207 1.83594 12.207L4.75586 12.207Q4.93164 12.207 5.04883 12.3145L9.31641 16.3574Q9.58008 16.6113 9.83887 16.7383Q10.0977 16.8652 10.3906 16.8652Z"
                     fill="rgba(255,255,255,0.55)" />
              <path d="M14.9902 12.5293Q15.1855 12.6562 15.415 12.6172Q15.6445 12.5781 15.8008 12.3633Q16.3672 11.6309 16.6992 10.6055Q17.0312 9.58008 17.0312 8.42773Q17.0312 7.26562 16.6992 6.24512Q16.3672 5.22461 15.8008 4.49219Q15.6445 4.27734 15.415 4.2334Q15.1855 4.18945 14.9902 4.32617Q14.7656 4.48242 14.7314 4.73145Q14.6973 4.98047 14.873 5.22461Q15.3613 5.88867 15.6104 6.69434Q15.8594 7.5 15.8594 8.42773Q15.8594 9.35547 15.6104 10.1611Q15.3613 10.9668 14.873 11.6309Q14.707 11.875 14.7363 12.124Q14.7656 12.373 14.9902 12.5293Z"
                     fill="rgba(255,255,255,0.55)" />
       </g>
</svg>