<svg width="19.5898" height="19.5996">
       <g>
              <rect height="19.5996" opacity="0" width="19.5898" x="0" y="0" />
              <path d="M9.79492 19.5898Q11.8066 19.5898 13.5791 18.8232Q15.3516 18.0566 16.7041 16.7041Q18.0566 15.3516 18.8232 13.5791Q19.5898 11.8066 19.5898 9.79492Q19.5898 7.7832 18.8232 6.01074Q18.0566 4.23828 16.7041 2.88574Q15.3516 1.5332 13.5742 0.766602Q11.7969 0 9.78516 0Q7.77344 0 6.00098 0.766602Q4.22852 1.5332 2.88086 2.88574Q1.5332 4.23828 0.766602 6.01074Q0 7.7832 0 9.79492Q0 11.8066 0.766602 13.5791Q1.5332 15.3516 2.88574 16.7041Q4.23828 18.0566 6.01074 18.8232Q7.7832 19.5898 9.79492 19.5898ZM9.79492 18.3203Q8.02734 18.3203 6.47949 17.6611Q4.93164 17.002 3.75977 15.8301Q2.58789 14.6582 1.92871 13.1104Q1.26953 11.5625 1.26953 9.79492Q1.26953 8.02734 1.92871 6.47949Q2.58789 4.93164 3.75977 3.75488Q4.93164 2.57812 6.47461 1.91895Q8.01758 1.25977 9.78516 1.25977Q11.5625 1.25977 13.1104 1.91895Q14.6582 2.57812 15.8301 3.75488Q17.002 4.93164 17.666 6.47949Q18.3301 8.02734 18.3301 9.79492Q18.3301 11.5625 17.666 13.1104Q17.002 14.6582 15.8301 15.8301Q14.6582 17.002 13.1152 17.6611Q11.5723 18.3203 9.79492 18.3203Z"
                     fill="rgba(255,255,255,0.55)" />
              <path d="M9.52148 14.1895Q9.73633 14.1895 9.86328 14.0479Q9.99023 13.9062 9.99023 13.6914L9.99023 5.87891Q9.99023 5.66406 9.86328 5.51758Q9.73633 5.37109 9.51172 5.37109Q9.35547 5.37109 9.23828 5.44434Q9.12109 5.51758 8.96484 5.6543L6.72852 7.7832Q6.66992 7.83203 6.58203 7.83203L5.03906 7.83203Q4.60938 7.83203 4.35059 8.0957Q4.0918 8.35938 4.0918 8.81836L4.0918 10.752Q4.0918 11.2207 4.35059 11.4795Q4.60938 11.7383 5.03906 11.7383L6.58203 11.7383Q6.66016 11.7383 6.72852 11.7969L8.96484 13.9258Q9.10156 14.0527 9.2334 14.1211Q9.36523 14.1895 9.52148 14.1895Z"
                     fill="rgba(255,255,255,0.55)" />
              <path d="M11.7773 11.9629Q11.9141 12.0703 12.0801 12.041Q12.2461 12.0117 12.3633 11.8652Q12.6758 11.4746 12.8418 10.918Q13.0078 10.3613 13.0078 9.77539Q13.0078 9.17969 12.8369 8.63281Q12.666 8.08594 12.3633 7.68555Q12.2559 7.53906 12.085 7.50977Q11.9141 7.48047 11.7773 7.57812Q11.6309 7.69531 11.6064 7.86133Q11.582 8.02734 11.6895 8.18359Q12.168 8.76953 12.168 9.77539Q12.168 10.7031 11.6699 11.3672Q11.4551 11.7188 11.7773 11.9629Z"
                     fill="rgba(255,255,255,0.55)" />
              <path d="M13.5938 13.291Q13.75 13.3789 13.9062 13.3545Q14.0625 13.3301 14.1699 13.1934Q14.6777 12.5293 14.9561 11.6602Q15.2344 10.791 15.2344 9.77539Q15.2344 8.85742 14.9658 7.98828Q14.6973 7.11914 14.1797 6.36719Q14.0723 6.21094 13.9062 6.17676Q13.7402 6.14258 13.5938 6.25Q13.457 6.35742 13.4375 6.52344Q13.418 6.68945 13.5156 6.85547Q14.4043 8.11523 14.4043 9.77539Q14.4043 10.6152 14.1748 11.377Q13.9453 12.1387 13.5059 12.6953Q13.3984 12.8418 13.418 13.0176Q13.4375 13.1934 13.5938 13.291Z"
                     fill="rgba(255,255,255,0.55)" />
       </g>
</svg>