<svg width="21.2695" height="16.8652">
       <g>
              <rect height="16.8652" opacity="0" width="21.2695" x="0" y="0" />
              <path d="M1.71875 12.207L4.60938 12.207Q4.78516 12.207 4.90234 12.3145L9.43359 16.3574Q9.70703 16.6016 9.96094 16.7334Q10.2148 16.8652 10.5078 16.8652Q10.9277 16.8652 11.1816 16.5918Q11.4355 16.3184 11.4355 15.9277L11.4355 0.986328Q11.4355 0.576172 11.1768 0.288086Q10.918 0 10.498 0Q10.1953 0 9.96582 0.141602Q9.73633 0.283203 9.43359 0.556641L4.90234 4.60938Q4.79492 4.70703 4.60938 4.70703L1.71875 4.70703Q0.859375 4.70703 0.429688 5.15137Q0 5.5957 0 6.50391L0 10.4199Q0 11.3281 0.429688 11.7676Q0.859375 12.207 1.71875 12.207ZM1.76758 11.0938Q1.45508 11.0938 1.31836 10.957Q1.18164 10.8203 1.18164 10.5078L1.18164 6.42578Q1.18164 6.10352 1.31836 5.96191Q1.45508 5.82031 1.76758 5.82031L4.87305 5.82031Q5.07812 5.82031 5.23926 5.77148Q5.40039 5.72266 5.56641 5.56641L9.92188 1.60156Q9.9707 1.55273 10.0146 1.52344Q10.0586 1.49414 10.1172 1.49414Q10.2637 1.49414 10.2637 1.65039L10.2637 15.2051Q10.2637 15.3711 10.127 15.3711Q10.0391 15.3711 9.93164 15.2734L5.56641 11.3574Q5.40039 11.2012 5.23926 11.1475Q5.07812 11.0938 4.87305 11.0938Z"
                     fill="rgba(255,255,255,0.55)" />
              <path d="M15 12.5293Q15.1953 12.6562 15.4248 12.6172Q15.6543 12.5781 15.8105 12.3633Q16.377 11.6309 16.709 10.6055Q17.041 9.58008 17.041 8.42773Q17.041 7.26562 16.709 6.24512Q16.377 5.22461 15.8105 4.49219Q15.6543 4.27734 15.4248 4.2334Q15.1953 4.18945 15 4.32617Q14.7754 4.48242 14.7412 4.73145Q14.707 4.98047 14.8828 5.22461Q15.3711 5.88867 15.6201 6.69434Q15.8691 7.5 15.8691 8.42773Q15.8691 9.35547 15.6201 10.1611Q15.3711 10.9668 14.8828 11.6309Q14.7168 11.875 14.7461 12.124Q14.7754 12.373 15 12.5293Z"
                     fill="rgba(255,255,255,0.55)" />
              <path d="M18.4277 15.0977Q18.6328 15.2344 18.8672 15.1904Q19.1016 15.1465 19.248 14.9316Q20.1855 13.6719 20.7275 11.9629Q21.2695 10.2539 21.2695 8.42773Q21.2695 6.60156 20.7324 4.88281Q20.1953 3.16406 19.248 1.92383Q19.1016 1.70898 18.8672 1.66504Q18.6328 1.62109 18.4277 1.75781Q18.2129 1.9043 18.1836 2.13867Q18.1543 2.37305 18.3203 2.61719Q19.1699 3.78906 19.6338 5.29297Q20.0977 6.79688 20.0977 8.42773Q20.0977 10.0586 19.6338 11.5576Q19.1699 13.0566 18.3203 14.2383Q18.1543 14.4727 18.1836 14.7119Q18.2129 14.9512 18.4277 15.0977Z"
                     fill="rgba(255,255,255,0.55)" />
       </g>
</svg>