<svg width="16.8233" height="19.0305">
       <g>
              <rect height="19.0305" opacity="0" width="16.8233" x="0" y="0" />
              <path d="M6.64246 9.04938L10.1741 9.04938Q10.5988 9.04938 10.8656 8.78075Q11.1324 8.51212 11.1324 8.09113L11.1324 7.35901Q11.1324 6.64368 10.6659 6.1953Q10.1994 5.74692 9.44122 5.74692L7.36923 5.74692Q6.62079 5.74692 6.15738 6.1953Q5.69397 6.64368 5.69397 7.35901L5.69397 8.09113Q5.69397 8.51212 5.96077 8.78075Q6.22757 9.04938 6.64246 9.04938ZM7.18567 10.8557L9.64371 10.8557L9.64371 8.51547L7.18567 8.51547ZM6.65222 13.5878L10.1741 13.5878Q10.5988 13.5878 10.8656 13.3211Q11.1324 13.0544 11.1324 12.6198L11.1324 11.1859Q11.1324 10.7649 10.8656 10.4982Q10.5988 10.2315 10.1741 10.2315L6.65222 10.2315Q6.22757 10.2315 5.96382 10.4982Q5.70007 10.7649 5.70007 11.1859L5.70007 12.6198Q5.70007 13.0544 5.96382 13.3211Q6.22757 13.5878 6.65222 13.5878ZM7.18567 17.8029L9.64371 17.8029L9.64371 13.1367L7.18567 13.1367ZM0.837402 18.4317L15.9859 18.4317Q16.2256 18.4317 16.407 18.2537Q16.5884 18.0757 16.5884 17.8389Q16.5884 17.5862 16.407 17.4112Q16.2256 17.2362 15.9859 17.2362L0.837402 17.2362Q0.600586 17.2362 0.419235 17.4112Q0.237885 17.5862 0.237885 17.8389Q0.237885 18.0757 0.419235 18.2537Q0.600586 18.4317 0.837402 18.4317Z"
                     fill="rgba(255,255,255,0.55)" />
              <path d="M4.37561 7.73941Q4.37561 7.34833 4.09828 7.071Q3.82095 6.79367 3.43674 6.79367Q3.05603 6.79367 2.7787 7.071Q2.50137 7.34833 2.50137 7.73941Q2.50137 8.11691 2.7787 8.39088Q3.05603 8.66486 3.43674 8.66486Q3.82095 8.66486 4.09828 8.39088Q4.37561 8.11691 4.37561 7.73941ZM5.34378 4.89365Q5.62302 4.62112 5.61966 4.22897Q5.6163 3.83682 5.34378 3.56735Q5.08118 3.29498 4.69048 3.29498Q4.29977 3.29498 4.0242 3.57407Q3.75183 3.83682 3.75183 4.22562Q3.75183 4.61441 4.0242 4.88022Q4.29977 5.1593 4.69048 5.16273Q5.08118 5.16617 5.34378 4.89365ZM8.41309 4.37561Q8.79074 4.37561 9.06471 4.09828Q9.33868 3.82095 9.33868 3.43674Q9.33868 3.04947 9.06471 2.77206Q8.79074 2.49466 8.41309 2.49466Q8.02216 2.49466 7.74818 2.77206Q7.47421 3.04947 7.47421 3.43674Q7.47421 3.82095 7.74818 4.09828Q8.02216 4.37561 8.41309 4.37561ZM11.4825 4.89365Q11.7451 5.16617 12.1358 5.16273Q12.5266 5.1593 12.7989 4.88022Q13.0745 4.61441 13.0745 4.22562Q13.0745 3.83682 12.7989 3.57407Q12.5266 3.29498 12.1358 3.29498Q11.7451 3.29498 11.4825 3.56735Q11.21 3.83682 11.2067 4.22897Q11.2033 4.62112 11.4825 4.89365ZM12.4507 7.73941Q12.4507 8.11691 12.728 8.39088Q13.0054 8.66486 13.3896 8.66486Q13.7701 8.66486 14.0475 8.39088Q14.3248 8.11691 14.3248 7.73941Q14.3248 7.34833 14.0475 7.071Q13.7701 6.79367 13.3896 6.79367Q13.0054 6.79367 12.728 7.071Q12.4507 7.34833 12.4507 7.73941Z"
                     fill="rgba(255,255,255,0.55)" />
              <path d="M1.46896 7.73941Q1.46896 7.42111 1.25092 7.21283Q1.03287 7.00455 0.734863 7.00455Q0.426331 7.00455 0.213165 7.21619Q0 7.42783 0 7.73941Q0 8.04413 0.213165 8.25394Q0.426331 8.46375 0.734863 8.46375Q1.03287 8.46375 1.25092 8.25394Q1.46896 8.04413 1.46896 7.73941ZM3.2872 2.83707Q3.51013 2.61398 3.50861 2.31377Q3.50708 2.01355 3.29086 1.80405Q3.0777 1.59088 2.77405 1.586Q2.4704 1.58112 2.25723 1.80405Q2.04102 2.02026 2.04102 2.31712Q2.04102 2.61398 2.258 2.8302Q2.4675 3.04642 2.77077 3.05168Q3.07404 3.05695 3.2872 2.83707ZM8.41309 1.46606Q8.72467 1.46606 8.93112 1.24947Q9.13757 1.03287 9.13757 0.728149Q9.13757 0.426331 8.92776 0.213165Q8.71796 0 8.41309 0Q8.10165 0 7.88994 0.213165Q7.67822 0.426331 7.67822 0.728149Q7.67822 1.03287 7.88658 1.24947Q8.09494 1.46606 8.41309 1.46606ZM13.5391 2.83707Q13.7523 3.05695 14.0522 3.05168Q14.3521 3.04642 14.5683 2.8302Q14.7852 2.61398 14.7852 2.31712Q14.7852 2.02026 14.5689 1.80405Q14.3491 1.58112 14.0488 1.586Q13.7486 1.59088 13.5355 1.80405Q13.3162 2.01355 13.3128 2.31377Q13.3095 2.61398 13.5391 2.83707ZM15.3572 7.73941Q15.3572 8.04413 15.5738 8.25394Q15.7904 8.46375 16.0915 8.46375Q16.4 8.46375 16.6116 8.25394Q16.8233 8.04413 16.8233 7.73941Q16.8233 7.42783 16.6116 7.21619Q16.4 7.00455 16.0915 7.00455Q15.7904 7.00455 15.5738 7.21283Q15.3572 7.42111 15.3572 7.73941Z"
                     fill="rgba(255,255,255,0.55)" />
       </g>
</svg>