<svg width="19.5898" height="19.5996">
       <g>
              <rect height="19.5996" opacity="0" width="19.5898" x="0" y="0" />
              <path d="M9.79492 19.5996Q11.8066 19.5996 13.5791 18.833Q15.3516 18.0664 16.7041 16.7139Q18.0566 15.3613 18.8232 13.5889Q19.5898 11.8164 19.5898 9.80469Q19.5898 7.79297 18.8232 6.02051Q18.0566 4.24805 16.7041 2.89551Q15.3516 1.54297 13.5742 0.776367Q11.7969 0.00976562 9.78516 0.00976562Q7.77344 0.00976562 6.00098 0.776367Q4.22852 1.54297 2.88086 2.89551Q1.5332 4.24805 0.766602 6.02051Q0 7.79297 0 9.80469Q0 11.8164 0.766602 13.5889Q1.5332 15.3613 2.88574 16.7139Q4.23828 18.0664 6.01074 18.833Q7.7832 19.5996 9.79492 19.5996Z"
                     fill="rgba(255,255,255,0.55)" />
              <path d="M6.66992 14.5508Q5.89844 14.5508 5.47852 14.1357Q5.05859 13.7207 5.05859 12.9492L5.05859 7.06055Q5.05859 6.2793 5.47852 5.85938Q5.89844 5.43945 6.66992 5.43945L12.1289 5.43945L11.2598 6.30859L6.69922 6.30859Q6.32812 6.30859 6.12305 6.50879Q5.91797 6.70898 5.91797 7.08984L5.91797 12.9102Q5.91797 13.291 6.12305 13.4912Q6.32812 13.6914 6.69922 13.6914L12.627 13.6914Q12.9199 13.6914 13.1104 13.4912Q13.3008 13.291 13.3008 12.9102L13.3008 8.37891L14.1602 7.51953L14.1602 12.9492Q14.1602 13.7207 13.75 14.1357Q13.3398 14.5508 12.6367 14.5508ZM8.73047 11.1523Q8.59375 11.2012 8.49121 11.1035Q8.38867 11.0059 8.45703 10.8594L8.87695 10L13.5254 5.35156L14.2871 6.09375L9.61914 10.752ZM14.6875 5.68359L13.9355 4.94141L14.3262 4.55078Q14.4824 4.38477 14.6777 4.38965Q14.873 4.39453 14.9902 4.52148L15.1074 4.62891Q15.2246 4.74609 15.2246 4.92676Q15.2246 5.10742 15.0781 5.26367Z"
                     fill="#ffffff" />
       </g>
</svg>