<svg width="19.4864" height="21.5683">
       <g>
              <rect height="21.5683" opacity="0" width="19.4864" x="0" y="0" />
              <path d="M9.74808 21.5683Q9.97238 21.5683 10.1787 21.4742Q10.385 21.38 10.652 21.2216L19.0376 16.3159Q19.265 16.1809 19.3757 15.9922Q19.4864 15.8035 19.4864 15.6146Q19.4864 15.3853 19.3571 15.2087Q19.2279 15.0322 19.0834 14.9521L10.0888 20.1471Q9.99054 20.1996 9.90685 20.2341Q9.82315 20.2686 9.74808 20.2686Q9.66324 20.2686 9.58099 20.2341Q9.49875 20.1996 9.39743 20.1471L0.402985 14.9521Q0.258331 15.0322 0.129166 15.2087Q0 15.3853 0 15.6146Q0 15.8035 0.110626 15.9922Q0.221252 16.1809 0.455322 16.3159L8.83423 21.2216Q9.10141 21.38 9.30916 21.4742Q9.51691 21.5683 9.74808 21.5683Z"
                     fill="rgba(255,255,255,0.55)" />
              <path d="M9.74808 16.9701Q9.97238 16.9701 10.1787 16.871Q10.385 16.772 10.652 16.6235L19.0376 11.7148Q19.2717 11.5729 19.379 11.3843Q19.4864 11.1957 19.4864 11.0135Q19.4864 10.7773 19.3571 10.6023Q19.2279 10.4272 19.0834 10.3539L10.0888 15.5391Q9.99054 15.5917 9.90685 15.6277Q9.82315 15.6638 9.74808 15.6638Q9.66324 15.6638 9.58099 15.6277Q9.49875 15.5917 9.39743 15.5391L0.402985 10.3539Q0.258331 10.4272 0.129166 10.6023Q0 10.7773 0 11.0135Q0 11.1957 0.110626 11.3843Q0.221252 11.5729 0.455322 11.7148L8.83423 16.6235Q9.10141 16.772 9.30916 16.871Q9.51691 16.9701 9.74808 16.9701Z"
                     fill="rgba(255,255,255,0.55)" />
              <path d="M9.74808 12.1011Q9.99252 12.1011 10.2344 12.0156Q10.4762 11.9301 10.7703 11.7613L18.5583 7.24899Q19.0421 6.96701 19.2548 6.71608Q19.4675 6.46515 19.4675 6.11557Q19.4675 5.77271 19.2548 5.52177Q19.0421 5.27084 18.5583 4.98886L10.7703 0.476685Q10.4762 0.307922 10.2344 0.222321Q9.99252 0.136719 9.74808 0.136719Q9.49677 0.136719 9.25674 0.222321Q9.01672 0.307922 8.71902 0.476685L0.927887 4.98886Q0.444183 5.27084 0.231476 5.52177Q0.0187683 5.77271 0.0187683 6.11557Q0.0187683 6.46515 0.231476 6.71608Q0.444183 6.96701 0.927887 7.24899L8.71902 11.7613Q9.01672 11.9301 9.25674 12.0156Q9.49677 12.1011 9.74808 12.1011Z"
                     fill="rgba(255,255,255,0.55)" />
       </g>
</svg>