<svg width="18.9012" height="21.8501">
       <g>
              <rect height="21.8501" opacity="0" width="18.9012" x="0" y="0" />
              <path d="M4.54453 15.1972L4.54453 13.7507L1.4447 15.5437Q1.33987 15.604 1.27968 15.566Q1.21948 15.528 1.21948 15.4264L1.21948 6.5447Q1.21948 6.27156 1.30501 6.14018Q1.39053 6.00881 1.60065 5.88414L9.28421 1.442Q9.38293 1.37807 9.46503 1.42438Q9.54712 1.47069 9.54712 1.59047L9.54712 5.16347L10.7666 4.55403L10.7666 1.19267Q10.7666 0.638476 10.4835 0.338412Q10.2003 0.0383475 9.77127 0.0041678Q9.34219-0.0300119 8.90533 0.216112L0.995331 4.78917Q0.625458 5.00371 0.407181 5.23915Q0.188904 5.4746 0.0944519 5.77939Q0 6.08418 0 6.50426L0 15.5457Q0 16.2267 0.260315 16.5874Q0.52063 16.9481 0.966644 16.9766Q1.41266 17.0051 1.96899 16.6834Z"
                     fill="rgba(255,255,255,0.55)" />
              <path d="M8.79425 17.3449L8.79425 15.905L5.3775 17.8716Q5.26978 17.9349 5.21103 17.8953Q5.15228 17.8557 5.15228 17.7572L5.15228 8.87548Q5.15228 8.60234 5.23628 8.47104Q5.32028 8.33974 5.53345 8.21507L13.2172 3.77294Q13.3157 3.71572 13.3978 3.75859Q13.4799 3.80147 13.4799 3.91835L13.4799 7.72573L14.6994 7.08638L14.6994 3.52345Q14.6994 2.96636 14.4148 2.66774Q14.1302 2.36913 13.7026 2.33342Q13.275 2.29772 12.8381 2.55071L4.92813 7.11995Q4.55826 7.33144 4.33998 7.56841Q4.1217 7.80538 4.02725 8.10872Q3.9328 8.41207 3.9328 8.83504L3.9328 17.8801Q3.9328 18.5575 4.19319 18.9183Q4.45358 19.2791 4.89952 19.3075Q5.34546 19.336 5.90179 19.018Z"
                     fill="rgba(255,255,255,0.55)" />
              <path d="M8.13461 11.2946L8.13461 20.3397Q8.13461 21.0239 8.395 21.3846Q8.6554 21.7453 9.10133 21.7704Q9.54727 21.7955 10.1038 21.4776L17.8925 16.9719Q18.2922 16.744 18.5105 16.5085Q18.7288 16.2731 18.815 15.9664Q18.9012 15.6597 18.9012 15.2359L18.9012 5.97997Q18.9012 5.43263 18.6166 5.13066Q18.3321 4.82869 17.9044 4.79642Q17.4768 4.76415 17.0401 5.01027L9.12994 9.58318Q8.76694 9.79772 8.5453 10.0347Q8.32367 10.2717 8.22914 10.575Q8.13461 10.8783 8.13461 11.2946ZM9.73541 10.6746L17.419 6.2325Q17.5243 6.17528 17.6015 6.21816Q17.6788 6.26103 17.6788 6.37792L17.6788 15.2158Q17.6788 15.4815 17.6019 15.6131Q17.5249 15.7448 17.308 15.8762L9.57626 20.3379Q9.47159 20.3914 9.41284 20.3568Q9.3541 20.3222 9.3541 20.2167L9.3541 11.3321Q9.3541 11.0589 9.43817 10.9291Q9.52225 10.7993 9.73541 10.6746Z"
                     fill="rgba(255,255,255,0.55)" />
       </g>
</svg>