<svg width="19.5898" height="19.6777">
       <g>
              <rect height="19.6777" opacity="0" width="19.5898" x="0" y="0" />
              <path d="M9.79492 19.6777Q11.8066 19.6777 13.5791 18.9111Q15.3516 18.1445 16.7041 16.792Q18.0566 15.4395 18.8232 13.667Q19.5898 11.8945 19.5898 9.88281Q19.5898 7.87109 18.8232 6.09863Q18.0566 4.32617 16.7041 2.97363Q15.3516 1.62109 13.5742 0.854492Q11.7969 0.0878906 9.78516 0.0878906Q7.77344 0.0878906 6.00098 0.854492Q4.22852 1.62109 2.88086 2.97363Q1.5332 4.32617 0.766602 6.09863Q0 7.87109 0 9.88281Q0 11.8945 0.766602 13.667Q1.5332 15.4395 2.88574 16.792Q4.23828 18.1445 6.01074 18.9111Q7.7832 19.6777 9.79492 19.6777Z"
                     fill="rgba(255,255,255,0.55)" />
              <path d="M6.14258 14.8926Q5.53711 14.8926 5.16602 14.4873Q4.79492 14.082 4.79492 13.418L4.79492 6.21094Q4.79492 5.61523 5.16602 5.24414Q5.53711 4.87305 6.14258 4.87305L13.457 4.87305Q14.1309 4.87305 14.4727 5.21484Q14.8145 5.55664 14.8145 6.21094L14.8145 13.418Q14.8145 14.1406 14.4727 14.5166Q14.1309 14.8926 13.457 14.8926ZM6.5625 13.75L13.0371 13.75Q13.3203 13.75 13.4912 13.5742Q13.6621 13.3984 13.6621 13.1152L13.6621 6.66016Q13.6621 6.36719 13.4912 6.19141Q13.3203 6.01562 13.0371 6.01562L6.5625 6.01562Q6.28906 6.01562 6.11816 6.19141Q5.94727 6.36719 5.94727 6.66016L5.94727 13.1152Q5.94727 13.3984 6.11816 13.5742Q6.28906 13.75 6.5625 13.75Z"
                     fill="#ffffff" />
       </g>
</svg>