<svg width="18.9012" height="21.8501">
       <g>
              <rect height="21.8501" opacity="0" width="18.9012" x="0" y="0" />
              <path d="M14.3536 15.1972L16.9322 16.6834Q17.4857 17.0051 17.9331 16.9766Q18.3806 16.9481 18.6409 16.5874Q18.9012 16.2267 18.9012 15.5457L18.9012 6.50426Q18.9012 6.08418 18.8068 5.77939Q18.7123 5.4746 18.494 5.23915Q18.2758 5.00371 17.903 4.78917L9.99588 0.216112Q9.55902-0.0300119 9.12994 0.0041678Q8.70087 0.0383475 8.41774 0.338412Q8.13461 0.638476 8.13461 1.19267L8.13461 4.55403L9.3541 5.16347L9.3541 1.59047Q9.3541 1.47069 9.43626 1.42438Q9.51843 1.37807 9.617 1.442L17.2975 5.88414Q17.5107 6.00881 17.5948 6.14018Q17.6788 6.27156 17.6788 6.5447L17.6788 15.4264Q17.6788 15.528 17.6201 15.566Q17.5613 15.604 17.4567 15.5437L14.3536 13.7507Z"
                     fill="rgba(255,255,255,0.55)" />
              <path d="M10.107 17.3449L12.9994 19.018Q13.5596 19.336 14.007 19.3075Q14.4545 19.2791 14.7115 18.9183Q14.9684 18.5575 14.9684 17.8801L14.9684 8.83504Q14.9684 8.41207 14.874 8.10872Q14.7795 7.80538 14.5612 7.56841Q14.343 7.33144 13.9731 7.11995L6.06308 2.55071Q5.63293 2.29772 5.20386 2.33342Q4.77478 2.36913 4.4883 2.66774Q4.20181 2.96636 4.20181 3.52345L4.20181 7.08638L5.4213 7.72573L5.4213 3.91835Q5.4213 3.80147 5.50339 3.75859Q5.58548 3.71572 5.6842 3.77294L13.3678 8.21507Q13.5779 8.33974 13.6635 8.47104Q13.7491 8.60234 13.7491 8.87548L13.7491 17.7572Q13.7491 17.8557 13.6888 17.8953Q13.6285 17.9349 13.5239 17.8716L10.107 15.905Z"
                     fill="rgba(255,255,255,0.55)" />
              <path d="M10.7666 11.2946Q10.7666 10.8783 10.6721 10.575Q10.5777 10.2717 10.3594 10.0347Q10.1411 9.79772 9.77127 9.58318L1.86127 5.01027Q1.42441 4.76415 0.996857 4.79642Q0.569305 4.82869 0.284653 5.13066Q0 5.43263 0 5.97997L0 15.2359Q0 15.6597 0.0862122 15.9664Q0.172424 16.2731 0.390701 16.5085Q0.608978 16.744 1.00876 16.9719L8.79761 21.4776Q9.35394 21.7955 9.79996 21.7704Q10.246 21.7453 10.5063 21.3846Q10.7666 21.0239 10.7666 20.3397ZM9.16595 10.6746Q9.37607 10.7993 9.46159 10.9291Q9.54712 11.0589 9.54712 11.3321L9.54712 20.2167Q9.54712 20.3222 9.48837 20.3568Q9.42963 20.3914 9.3219 20.3379L1.60004 15.8762Q1.37329 15.7448 1.29639 15.6131Q1.21948 15.4815 1.21948 15.2158L1.21948 6.37792Q1.21948 6.26103 1.30157 6.21816Q1.38367 6.17528 1.48239 6.2325Z"
                     fill="rgba(255,255,255,0.55)" />
       </g>
</svg>