<svg width="21.0599" height="21.0629">
       <g>
              <rect height="21.0629" opacity="0" width="21.0599" x="0" y="0" />
              <path d="M7.0871 7.71301L18.9699 7.71301L18.9699 6.50406L7.0871 6.50406ZM18.3702 18.9796L19.5761 18.9796L19.5761 7.10663L18.3702 7.10663ZM7.0871 19.5822L18.9699 19.5822L18.9699 18.3733L7.0871 18.3733ZM6.48071 18.9796L7.68982 18.9796L7.68982 7.10663L6.48071 7.10663ZM2.09 14.5686L7.02545 14.5686L7.02545 13.3597L2.09 13.3597ZM1.48071 13.9691L2.68967 13.9691L2.68967 2.09305L1.48071 2.09305ZM2.09 2.69943L13.9697 2.69943L13.9697 1.49353L2.09 1.49353ZM13.3701 7.11624L14.5761 7.11624L14.5761 2.09305L13.3701 2.09305Z"
                     fill="rgba(255,255,255,0.55)" />
              <path d="M7.0871 9.19373Q7.66373 9.19373 8.13705 8.91365Q8.61038 8.63358 8.89038 8.15689Q9.17038 7.68021 9.17038 7.10663Q9.17038 6.53015 8.89038 6.05675Q8.61038 5.58334 8.13705 5.30334Q7.66373 5.02335 7.0871 5.02335Q6.50681 5.02335 6.03348 5.30334Q5.56015 5.58334 5.28015 6.05675Q5.00015 6.53015 5.00015 7.10663Q5.00015 7.68021 5.28015 8.15689Q5.56015 8.63358 6.03348 8.91365Q6.50681 9.19373 7.0871 9.19373ZM18.9699 9.19373Q19.5464 9.19373 20.0182 8.91365Q20.4901 8.63358 20.775 8.15689Q21.0599 7.68021 21.0599 7.10663Q21.0599 6.53015 20.775 6.05675Q20.4901 5.58334 20.0182 5.30334Q19.5464 5.02335 18.9699 5.02335Q18.3932 5.02335 17.9199 5.30334Q17.4466 5.58334 17.1632 6.05675Q16.8797 6.53015 16.8797 7.10663Q16.8797 7.68021 17.1632 8.15689Q17.4466 8.63358 17.9199 8.91365Q18.3932 9.19373 18.9699 9.19373ZM18.9699 21.0629Q19.5464 21.0629 20.0182 20.7829Q20.4901 20.5029 20.775 20.0295Q21.0599 19.5561 21.0599 18.9796Q21.0599 18.4061 20.775 17.9327Q20.4901 17.4594 20.0182 17.176Q19.5464 16.8925 18.9699 16.8925Q18.3932 16.8925 17.9199 17.176Q17.4466 17.4594 17.1632 17.9327Q16.8797 18.4061 16.8797 18.9796Q16.8797 19.5561 17.1632 20.0295Q17.4466 20.5029 17.9199 20.7829Q18.3932 21.0629 18.9699 21.0629ZM7.0871 21.0629Q7.66373 21.0629 8.13705 20.7829Q8.61038 20.5029 8.89038 20.0295Q9.17038 19.5561 9.17038 18.9796Q9.17038 18.4061 8.89038 17.9327Q8.61038 17.4594 8.13705 17.176Q7.66373 16.8925 7.0871 16.8925Q6.50681 16.8925 6.03348 17.176Q5.56015 17.4594 5.28015 17.9327Q5.00015 18.4061 5.00015 18.9796Q5.00015 19.5561 5.28015 20.0295Q5.56015 20.5029 6.03348 20.7829Q6.50681 21.0629 7.0871 21.0629ZM2.09 16.0561Q2.72614 16.0561 3.19313 15.7727Q3.66013 15.4893 3.91525 15.0159Q4.17038 14.5425 4.17038 13.9691Q4.17038 13.3925 3.8903 12.9192Q3.61023 12.4458 3.1369 12.1624Q2.66357 11.879 2.09 11.879Q1.51352 11.879 1.03676 12.1624Q0.559998 12.4458 0.279999 12.9192Q0 13.3925 0 13.9691Q0 14.5425 0.279999 15.0159Q0.559998 15.4893 1.03676 15.7727Q1.51352 16.0561 2.09 16.0561ZM2.09 4.1832Q2.66357 4.1832 3.1369 3.90312Q3.61023 3.62305 3.8903 3.14972Q4.17038 2.67639 4.17038 2.09305Q4.17038 1.51657 3.8903 1.04317Q3.61023 0.569763 3.1369 0.289764Q2.66357 0.00976562 2.09 0.00976562Q1.51352 0.00976562 1.03676 0.289764Q0.559998 0.569763 0.279999 1.04317Q0 1.51657 0 2.09305Q0 2.67639 0.279999 3.14972Q0.559998 3.62305 1.03676 3.90312Q1.51352 4.1832 2.09 4.1832ZM13.9697 4.1832Q14.5464 4.1832 15.0197 3.90312Q15.493 3.62305 15.7764 3.14972Q16.0597 2.67639 16.0597 2.09305Q16.0597 1.51657 15.7764 1.04317Q15.493 0.569763 15.0197 0.289764Q14.5464 0.00976562 13.9697 0.00976562Q13.3931 0.00976562 12.9213 0.289764Q12.4495 0.569763 12.1661 1.04317Q11.8828 1.51657 11.8828 2.09305Q11.8828 2.67639 12.1661 3.14972Q12.4495 3.62305 12.9213 3.90312Q13.3931 4.1832 13.9697 4.1832Z"
                     fill="rgba(255,255,255,0.55)" />
       </g>
</svg>