<svg width="19.4554" height="21.5683">
       <g>
              <rect height="21.5683" opacity="0" width="19.4554" x="0" y="0" />
              <path d="M14.7676 13.7012L17.7904 15.4373Q17.9079 15.5005 17.9079 15.5858Q17.9079 15.6746 17.7904 15.7379L10.1074 20.1471Q9.88754 20.2686 9.72916 20.2686Q9.56116 20.2686 9.34128 20.1471L1.65833 15.7379Q1.54755 15.6746 1.54755 15.5858Q1.54755 15.5005 1.65833 15.4373L4.87 13.6014L3.60779 12.8947L0.909119 14.456Q0.432129 14.7411 0.216064 14.9905Q0 15.2399 0 15.5858Q0 15.9354 0.216064 16.1848Q0.432129 16.4342 0.909119 16.7191L8.70697 21.2283Q8.99796 21.4001 9.23798 21.4842Q9.478 21.5683 9.72916 21.5683Q9.9707 21.5683 10.2141 21.4842Q10.4575 21.4001 10.7515 21.2283L18.5396 16.7191Q19.0233 16.4342 19.2393 16.1848Q19.4554 15.9354 19.4554 15.5858Q19.4554 15.2399 19.2393 14.9905Q19.0233 14.7411 18.5396 14.456L15.9428 12.9472Z"
                     fill="rgba(255,255,255,0.55)" />
              <path d="M14.5497 8.97598L17.7904 10.8293Q17.9079 10.8926 17.9079 10.9845Q17.9079 11.0735 17.7904 11.1366L10.1074 15.5391Q9.88754 15.6638 9.72916 15.6638Q9.56116 15.6638 9.34128 15.5391L1.65833 11.1366Q1.54755 11.0735 1.54755 10.9845Q1.54755 10.8926 1.65833 10.8293L5.07339 8.86887L3.87726 8.14194L0.909119 9.85107Q0.432129 10.1331 0.216064 10.3858Q0 10.6386 0 10.9845Q0 11.3274 0.216064 11.5802Q0.432129 11.833 0.909119 12.1112L8.70697 16.6272Q8.99796 16.799 9.23798 16.8845Q9.478 16.9701 9.72916 16.9701Q9.9707 16.9701 10.2141 16.8845Q10.4575 16.799 10.7515 16.6272L18.5396 12.1112Q19.0233 11.833 19.2393 11.5802Q19.4554 11.3274 19.4554 10.9845Q19.4554 10.6386 19.2393 10.3858Q19.0233 10.1331 18.5396 9.85107L15.7182 8.21243Z"
                     fill="rgba(255,255,255,0.55)" />
              <path d="M9.72916 12.1011Q9.9707 12.1011 10.2141 12.0156Q10.4575 11.9301 10.7515 11.7613L18.5396 7.24899Q19.0233 6.96701 19.2393 6.71608Q19.4554 6.46515 19.4554 6.11557Q19.4554 5.77271 19.2393 5.52177Q19.0233 5.27084 18.5396 4.98886L10.7515 0.476685Q10.4575 0.307922 10.2141 0.222321Q9.9707 0.136719 9.72916 0.136719Q9.478 0.136719 9.23798 0.222321Q8.99796 0.307922 8.70697 0.476685L0.909119 4.98886Q0.432129 5.27084 0.216064 5.52177Q0 5.77271 0 6.11557Q0 6.46515 0.216064 6.71608Q0.432129 6.96701 0.909119 7.24899L8.70697 11.7613Q8.99796 11.9301 9.23798 12.0156Q9.478 12.1011 9.72916 12.1011ZM9.72916 10.8015Q9.56116 10.8015 9.34128 10.6769L1.65833 6.2677Q1.54755 6.20453 1.54755 6.11557Q1.54755 6.03043 1.65833 5.9671L9.34128 1.56097Q9.56116 1.43646 9.72916 1.43646Q9.88754 1.43646 10.1074 1.56097L17.7904 5.9671Q17.9079 6.03043 17.9079 6.11557Q17.9079 6.20453 17.7904 6.2677L10.1074 10.6769Q9.88754 10.8015 9.72916 10.8015Z"
                     fill="rgba(255,255,255,0.55)" />
       </g>
</svg>