<svg width="21.7506" height="22.1902">
       <g>
              <rect height="22.1902" opacity="0" width="21.7506" x="0" y="0" />
              <path d="M0 7.89276Q0 9.35669 0.494156 10.6609Q0.988312 11.9652 1.87721 13.0066Q2.76611 14.048 3.95988 14.7421Q5.15366 15.4361 6.55289 15.6728L6.55289 14.5012Q5.00366 14.1931 3.78571 13.2449Q2.56775 12.2966 1.85806 10.9114Q1.14838 9.52621 1.14838 7.89276Q1.14838 6.49673 1.67282 5.27573Q2.19727 4.05472 3.12263 3.12599Q4.048 2.19727 5.27237 1.67435Q6.49673 1.15143 7.89276 1.15143Q9.44382 1.15143 10.7727 1.79504Q12.1016 2.43866 13.0499 3.55392Q13.9981 4.66919 14.3887 6.09619L15.5804 6.09619Q15.2771 4.78317 14.5665 3.67378Q13.8559 2.56439 12.831 1.74004Q11.8062 0.91568 10.5484 0.45784Q9.29062 0 7.89276 0Q6.25687 0 4.82635 0.615921Q3.39584 1.23184 2.30896 2.31384Q1.22208 3.39584 0.611038 4.82635Q0 6.25687 0 7.89276Z"
                     fill="rgba(255,255,255,0.55)" />
              <path d="M9.05807 21.2631L18.8689 21.2631Q20.3021 21.2631 21.0264 20.5441Q21.7506 19.8251 21.7506 18.4084L21.7506 8.5437Q21.7506 7.12692 21.0264 6.40945Q20.3021 5.69199 18.8689 5.69199L9.05807 5.69199Q7.62787 5.69199 6.90697 6.40945Q6.18607 7.12692 6.18607 8.5437L6.18607 18.4084Q6.18607 19.8251 6.90697 20.5441Q7.62787 21.2631 9.05807 21.2631ZM9.08737 20.0542Q8.26111 20.0542 7.82661 19.6197Q7.39212 19.1852 7.39212 18.3417L7.39212 8.61038Q7.39212 7.76703 7.82661 7.33246Q8.26111 6.89789 9.08737 6.89789L18.8493 6.89789Q19.6756 6.89789 20.1086 7.33246Q20.5415 7.76703 20.5415 8.61038L20.5415 18.3417Q20.5415 19.1852 20.1086 19.6197Q19.6756 20.0542 18.8493 20.0542Z"
                     fill="rgba(255,255,255,0.55)" />
       </g>
</svg>