<svg width="18.8965" height="21.8443">
       <g>
              <rect height="21.8443" opacity="0" width="18.8965" x="0" y="0" />
              <path d="M4.54102 15.1946L4.54102 13.7493L1.44531 15.5364Q1.33789 15.6048 1.2793 15.5657Q1.2207 15.5267 1.2207 15.4192L1.2207 6.54228Q1.2207 6.26885 1.30371 6.13701Q1.38672 6.00517 1.60156 5.87822L9.28711 1.43486Q9.38477 1.37627 9.46777 1.42021Q9.55078 1.46416 9.55078 1.59111L9.55078 5.16533L10.7715 4.5501L10.7715 1.19072Q10.7715 0.63408 10.4883 0.336229Q10.2051 0.0383772 9.77539 0.00419751Q9.3457-0.0299822 8.90625 0.214158L0.996094 4.78447Q0.625 4.99931 0.405273 5.23369Q0.185547 5.46806 0.0927734 5.77568Q0 6.0833 0 6.50322L0 15.5462Q0 16.22 0.258789 16.5813Q0.517578 16.9427 0.966797 16.972Q1.41602 17.0013 1.97266 16.679Z"
                     fill="rgba(255,255,255,0.55)" />
              <path d="M8.79883 17.3431L8.79883 15.8978L5.38086 17.8704Q5.27344 17.929 5.21484 17.8899Q5.15625 17.8509 5.15625 17.7532L5.15625 8.87627Q5.15625 8.60283 5.23926 8.47099Q5.32227 8.33916 5.53711 8.21221L13.2129 3.76885Q13.3203 3.71025 13.3984 3.7542Q13.4766 3.79814 13.4766 3.91533L13.4766 7.72392L14.6973 7.07939L14.6973 3.52471Q14.6973 2.96806 14.4141 2.66533Q14.1309 2.3626 13.7012 2.32842Q13.2715 2.29424 12.8418 2.54814L4.93164 7.11846Q4.56055 7.3333 4.34082 7.56767Q4.12109 7.80205 4.02832 8.10478Q3.93555 8.40752 3.93555 8.82744L3.93555 17.8802Q3.93555 18.554 4.19434 18.9153Q4.45312 19.2767 4.89746 19.306Q5.3418 19.3353 5.89844 19.013Z"
                     fill="rgba(255,255,255,0.55)" />
              <path d="M8.13477 11.2884L8.13477 20.3411Q8.13477 21.0247 8.39355 21.386Q8.65234 21.7474 9.10156 21.7718Q9.55078 21.7962 10.1074 21.4739L17.8906 16.972Q18.291 16.7376 18.5107 16.5032Q18.7305 16.2688 18.8135 15.9612Q18.8965 15.6536 18.8965 15.2337L18.8965 5.97588Q18.8965 5.429 18.6133 5.12627Q18.3301 4.82353 17.9053 4.79424Q17.4805 4.76494 17.041 5.00908L9.13086 9.57939Q8.76953 9.79424 8.54492 10.0335Q8.32031 10.2728 8.22754 10.5755Q8.13477 10.8782 8.13477 11.2884ZM9.73633 10.6731L17.4219 6.22978Q17.5195 6.17119 17.5977 6.21514Q17.6758 6.25908 17.6758 6.37627L17.6758 15.2142Q17.6758 15.4778 17.6025 15.6097Q17.5293 15.7415 17.3047 15.8685L9.58008 20.3313Q9.47266 20.3899 9.41406 20.3558Q9.35547 20.3216 9.35547 20.2142L9.35547 11.3274Q9.35547 11.054 9.43848 10.927Q9.52148 10.8001 9.73633 10.6731Z"
                     fill="rgba(255,255,255,0.55)" />
       </g>
</svg>