<svg width="18.8965" height="21.8443">
       <g>
              <rect height="21.8443" opacity="0" width="18.8965" x="0" y="0" />
              <path d="M14.3555 15.1946L16.9336 16.679Q17.4902 17.0013 17.9346 16.972Q18.3789 16.9427 18.6377 16.5813Q18.8965 16.22 18.8965 15.5462L18.8965 6.50322Q18.8965 6.0833 18.8037 5.77568Q18.7109 5.46806 18.4912 5.23369Q18.2715 4.99931 17.9004 4.78447L10 0.214158Q9.56055-0.0299822 9.13086 0.00419751Q8.70117 0.0383772 8.41797 0.336229Q8.13477 0.63408 8.13477 1.19072L8.13477 4.5501L9.35547 5.16533L9.35547 1.59111Q9.35547 1.46416 9.43848 1.42021Q9.52148 1.37627 9.61914 1.43486L17.2949 5.87822Q17.5098 6.00517 17.5928 6.13701Q17.6758 6.26885 17.6758 6.54228L17.6758 15.4192Q17.6758 15.5267 17.6172 15.5657Q17.5586 15.6048 17.4609 15.5364L14.3555 13.7493Z"
                     fill="rgba(255,255,255,0.55)" />
              <path d="M10.1074 17.3431L12.998 19.013Q13.5645 19.3353 14.0088 19.306Q14.4531 19.2767 14.7119 18.9153Q14.9707 18.554 14.9707 17.8802L14.9707 8.82744Q14.9707 8.40752 14.873 8.10478Q14.7754 7.80205 14.5605 7.56767Q14.3457 7.3333 13.9746 7.11846L6.06445 2.54814Q5.63477 2.29424 5.20508 2.32842Q4.77539 2.3626 4.4873 2.66533Q4.19922 2.96806 4.19922 3.52471L4.19922 7.07939L5.41992 7.72392L5.41992 3.91533Q5.41992 3.79814 5.50293 3.7542Q5.58594 3.71025 5.68359 3.76885L13.3691 8.21221Q13.5742 8.33916 13.6621 8.47099Q13.75 8.60283 13.75 8.87627L13.75 17.7532Q13.75 17.8509 13.6914 17.8899Q13.6328 17.929 13.5254 17.8704L10.1074 15.8978Z"
                     fill="rgba(255,255,255,0.55)" />
              <path d="M10.7715 11.2884Q10.7715 10.8782 10.6738 10.5755Q10.5762 10.2728 10.3564 10.0335Q10.1367 9.79424 9.77539 9.57939L1.86523 5.00908Q1.42578 4.76494 0.996094 4.79424Q0.566406 4.82353 0.283203 5.12627Q0 5.429 0 5.97588L0 15.2337Q0 15.6536 0.0878906 15.9612Q0.175781 16.2688 0.390625 16.5032Q0.605469 16.7376 1.00586 16.972L8.79883 21.4739Q9.35547 21.7962 9.7998 21.7718Q10.2441 21.7474 10.5078 21.386Q10.7715 21.0247 10.7715 20.3411ZM9.16992 10.6731Q9.375 10.8001 9.46289 10.927Q9.55078 11.054 9.55078 11.3274L9.55078 20.2142Q9.55078 20.3216 9.49219 20.3558Q9.43359 20.3899 9.32617 20.3313L1.60156 15.8685Q1.37695 15.7415 1.29883 15.6097Q1.2207 15.4778 1.2207 15.2142L1.2207 6.37627Q1.2207 6.25908 1.30371 6.21514Q1.38672 6.17119 1.48438 6.22978Z"
                     fill="rgba(255,255,255,0.55)" />
       </g>
</svg>