<svg width="19.5898" height="20.1074">
       <g>
              <rect height="20.1074" opacity="0" width="19.5898" x="0" y="0" />
              <path d="M9.79492 20.1074Q11.8066 20.1074 13.5791 19.3408Q15.3516 18.5742 16.7041 17.2217Q18.0566 15.8691 18.8232 14.0967Q19.5898 12.3242 19.5898 10.3125Q19.5898 8.30078 18.8232 6.52832Q18.0566 4.75586 16.7041 3.40332Q15.3516 2.05078 13.5742 1.28418Q11.7969 0.517578 9.78516 0.517578Q7.77344 0.517578 6.00098 1.28418Q4.22852 2.05078 2.88086 3.40332Q1.5332 4.75586 0.766602 6.52832Q0 8.30078 0 10.3125Q0 12.3242 0.766602 14.0967Q1.5332 15.8691 2.88574 17.2217Q4.23828 18.5742 6.01074 19.3408Q7.7832 20.1074 9.79492 20.1074Z"
                     fill="rgba(255,255,255,0.55)" />
              <path d="M6.82617 15.2148Q6.06445 15.2148 5.65918 14.8096Q5.25391 14.4043 5.25391 13.6328L5.25391 8.54492Q5.25391 7.77344 5.65918 7.37305Q6.06445 6.97266 6.82617 6.97266L8.36914 6.97266L8.36914 7.82227L6.83594 7.82227Q6.09375 7.82227 6.09375 8.58398L6.09375 13.6133Q6.09375 14.3652 6.83594 14.3652L12.5488 14.3652Q13.3105 14.3652 13.3105 13.6133L13.3105 8.58398Q13.3105 7.82227 12.5488 7.82227L11.0352 7.82227L11.0352 6.97266L12.5684 6.97266Q13.3398 6.97266 13.75 7.36816Q14.1602 7.76367 14.1602 8.54492L14.1602 13.6328Q14.1602 14.4043 13.75 14.8096Q13.3398 15.2148 12.5684 15.2148ZM9.69727 11.25Q9.53125 11.25 9.40918 11.1328Q9.28711 11.0156 9.28711 10.8398L9.28711 5.50781L9.30664 5.0293L8.84766 5.50781L8.19336 6.16211Q8.08594 6.2793 7.90039 6.2793Q7.74414 6.2793 7.63184 6.17676Q7.51953 6.07422 7.51953 5.9082Q7.51953 5.74219 7.65625 5.625L9.4043 3.91602Q9.52148 3.76953 9.69727 3.76953Q9.84375 3.76953 9.98047 3.91602L11.748 5.64453Q11.8066 5.69336 11.8408 5.76172Q11.875 5.83008 11.875 5.9082Q11.875 6.07422 11.7676 6.18164Q11.6602 6.28906 11.4844 6.28906Q11.2988 6.28906 11.1914 6.17188L10.5371 5.50781L10.0977 5.0293L10.1172 5.50781L10.1172 10.8398Q10.1172 11.0156 9.99512 11.1328Q9.87305 11.25 9.69727 11.25Z"
                     fill="#ffffff" />
       </g>
</svg>