<svg width="20.1649" height="20.1816">
       <g>
              <rect height="20.1816" opacity="0" width="20.1649" x="0" y="0" />
              <path d="M2.09 2.70615L18.0817 2.70615L18.0817 1.50024L2.09 1.50024ZM17.4753 18.0914L18.6812 18.0914L18.6812 2.09991L17.4753 2.09991ZM2.09 18.7009L18.0817 18.7009L18.0817 17.4919L2.09 17.4919ZM1.48071 18.0914L2.68967 18.0914L2.68967 2.09991L1.48071 2.09991Z"
                     fill="rgba(255,255,255,0.55)" />
              <path d="M2.09 4.18991Q2.66357 4.18991 3.1369 3.90648Q3.61023 3.62305 3.8903 3.14972Q4.17038 2.67639 4.17038 2.09991Q4.17038 1.52328 3.8903 1.04996Q3.61023 0.57663 3.1369 0.293198Q2.66357 0.00976562 2.09 0.00976562Q1.51352 0.00976562 1.03676 0.293198Q0.559998 0.57663 0.279999 1.04996Q0 1.52328 0 2.09991Q0 2.67639 0.279999 3.14972Q0.559998 3.62305 1.03676 3.90648Q1.51352 4.18991 2.09 4.18991ZM18.0817 4.18991Q18.6581 4.18991 19.1315 3.90648Q19.6049 3.62305 19.8849 3.14972Q20.1649 2.67639 20.1649 2.09991Q20.1649 1.52328 19.8849 1.04996Q19.6049 0.57663 19.1315 0.293198Q18.6581 0.00976562 18.0817 0.00976562Q17.505 0.00976562 17.0284 0.293198Q16.5517 0.57663 16.2717 1.04996Q15.9917 1.52328 15.9917 2.09991Q15.9917 2.67639 16.2717 3.14972Q16.5517 3.62305 17.0284 3.90648Q17.505 4.18991 18.0817 4.18991ZM18.0817 20.1816Q18.6581 20.1816 19.1315 19.8981Q19.6049 19.6147 19.8849 19.1414Q20.1649 18.6681 20.1649 18.0914Q20.1649 17.518 19.8849 17.0446Q19.6049 16.5712 19.1315 16.2878Q18.6581 16.0045 18.0817 16.0045Q17.505 16.0045 17.0284 16.2878Q16.5517 16.5712 16.2717 17.0446Q15.9917 17.518 15.9917 18.0914Q15.9917 18.6681 16.2717 19.1414Q16.5517 19.6147 17.0284 19.8981Q17.505 20.1816 18.0817 20.1816ZM2.09 20.1816Q2.66357 20.1816 3.1369 19.8981Q3.61023 19.6147 3.8903 19.1414Q4.17038 18.6681 4.17038 18.0914Q4.17038 17.518 3.8903 17.0446Q3.61023 16.5712 3.1369 16.2878Q2.66357 16.0045 2.09 16.0045Q1.51352 16.0045 1.03676 16.2878Q0.559998 16.5712 0.279999 17.0446Q0 17.518 0 18.0914Q0 18.6681 0.279999 19.1414Q0.559998 19.6147 1.03676 19.8981Q1.51352 20.1816 2.09 20.1816ZM8.41919 15.3822L14.1844 15.3822Q14.7787 15.3822 15.101 15.0634Q15.4233 14.7446 15.4233 14.1434L15.4233 8.45596Q15.4233 7.86469 15.0871 7.54578Q14.7508 7.22687 14.1249 7.22687L8.41919 7.22687Q7.82776 7.22687 7.50549 7.54578Q7.18323 7.86469 7.18323 8.45596L7.18323 14.1434Q7.18323 14.7446 7.50549 15.0634Q7.82776 15.3822 8.41919 15.3822ZM8.68561 14.3694Q8.19626 14.3694 8.19626 13.8837L8.19626 8.72238Q8.19626 8.23975 8.68561 8.23975L13.8583 8.23975Q14.4104 8.23975 14.4104 8.72238L14.4104 13.8837Q14.4104 14.3694 13.918 14.3694ZM6.02692 12.9803L7.6265 12.9803L7.6265 11.9675L6.29349 11.9675Q5.80093 11.9675 5.80093 11.478L5.80093 6.32355Q5.80093 5.83099 6.29349 5.83099L11.5257 5.83099Q12.0152 5.83099 12.0152 6.32355L12.0152 7.7533L13.0281 7.7533L13.0281 6.05698Q13.0281 5.46265 12.7058 5.14038Q12.3836 4.81812 11.7856 4.81812L6.02692 4.81812Q5.43259 4.81812 5.11032 5.14038Q4.78806 5.46265 4.78806 6.05698L4.78806 11.7445Q4.78806 12.3425 5.11032 12.6614Q5.43259 12.9803 6.02692 12.9803Z"
                     fill="rgba(255,255,255,0.55)" />
       </g>
</svg>