<svg width="19.4554" height="20.2124">
       <g>
              <rect height="20.2124" opacity="0" width="19.4554" x="0" y="0" />
              <path d="M12.8374 9.79767L9.73297 11.5082L6.59546 9.80743L0.909119 13.0936Q0.432129 13.3754 0.216064 13.6297Q0 13.884 0 14.2268Q0 14.5697 0.216064 14.8241Q0.432129 15.0784 0.909119 15.3535L8.70697 19.8726Q8.99796 20.0414 9.23798 20.1269Q9.478 20.2124 9.72916 20.2124Q9.9707 20.2124 10.2141 20.1269Q10.4575 20.0414 10.7515 19.8726L18.5396 15.3535Q19.0233 15.0784 19.2393 14.8241Q19.4554 14.5697 19.4554 14.2268Q19.4554 13.884 19.2393 13.6297Q19.0233 13.3754 18.5396 13.0936Z"
                     fill="rgba(255,255,255,0.55)" />
              <path d="M9.72916 12.1077Q9.9707 12.1077 10.2141 12.0237Q10.4575 11.9397 10.7515 11.7679L18.5396 7.25555Q19.0233 6.97372 19.2393 6.72089Q19.4554 6.46805 19.4554 6.12228Q19.4554 5.77942 19.2393 5.52658Q19.0233 5.27374 18.5396 4.99557L10.7515 0.479584Q10.4575 0.30777 10.2141 0.222244Q9.9707 0.136719 9.72916 0.136719Q9.478 0.136719 9.23798 0.222244Q8.99796 0.30777 8.70697 0.479584L0.909119 4.99557Q0.432129 5.27374 0.216064 5.52658Q0 5.77942 0 6.12228Q0 6.46805 0.216064 6.72089Q0.432129 6.97372 0.909119 7.25555L8.70697 11.7679Q8.99796 11.9397 9.23798 12.0237Q9.478 12.1077 9.72916 12.1077ZM9.72916 10.8014Q9.56116 10.8014 9.34128 10.6769L1.65833 6.27747Q1.54755 6.21414 1.54755 6.12228Q1.54755 6.03333 1.65833 5.97L9.34128 1.56769Q9.56116 1.44608 9.72916 1.44608Q9.88754 1.44608 10.1074 1.56769L17.7904 5.97Q17.9079 6.03333 17.9079 6.12228Q17.9079 6.21414 17.7904 6.27747L10.1074 10.6769Q9.88754 10.8014 9.72916 10.8014Z"
                     fill="rgba(255,255,255,0.55)" />
       </g>
</svg>