<svg width="20.3008" height="19.8547">
       <g>
              <rect height="19.8547" opacity="0" width="20.3008" x="0" y="0" />
              <path d="M0 11.0362L0 12.7419Q0 14.1617 0.724182 14.8792Q1.44836 15.5968 2.87872 15.5968L5.30396 15.5968L5.30396 14.3907L2.90131 14.3907Q2.07504 14.3907 1.642 13.9562Q1.20895 13.5217 1.20895 12.6752L1.20895 11.0362ZM1.20895 9.89807L1.20895 5.44632L0 5.44632L0 9.89807ZM1.20895 4.31503L1.20895 2.94693Q1.20895 2.10052 1.642 1.66748Q2.07504 1.23444 2.90131 1.23444L4.45358 1.23444L4.45358 0.0254822L2.87872 0.0254822Q1.44836 0.0254822 0.724182 0.744476Q0 1.46347 0 2.88025L0 4.31503ZM10.0366 0.0254822L5.58487 0.0254822L5.58487 1.23444L10.0366 1.23444ZM11.1679 1.23444L12.6631 1.23444Q13.4706 1.23444 13.913 1.66748Q14.3555 2.10052 14.3555 2.94693L14.3555 4.83749L15.5644 4.83749L15.5644 2.88025Q15.5644 1.47629 14.8402 0.750885Q14.1161 0.0254822 12.6895 0.0254822L11.1679 0.0254822Z"
                     fill="rgba(255,255,255,0.55)" />
              <path d="M7.6181 19.8547L17.4287 19.8547Q18.8524 19.8547 19.5766 19.1294Q20.3008 18.4041 20.3008 17L20.3008 7.13837Q20.3008 5.73135 19.5766 5.00748Q18.8524 4.2836 17.4287 4.2836L7.6181 4.2836Q6.18469 4.2836 5.46051 5.00107Q4.73633 5.71854 4.73633 7.13837L4.73633 17Q4.73633 18.4167 5.46051 19.1357Q6.18469 19.8547 7.6181 19.8547ZM7.63763 18.6458Q6.81137 18.6458 6.37833 18.2128Q5.94528 17.7798 5.94528 16.9333L5.94528 7.20505Q5.94528 6.35864 6.37833 5.92407Q6.81137 5.4895 7.63763 5.4895L17.3994 5.4895Q18.2069 5.4895 18.6494 5.92407Q19.0918 6.35864 19.0918 7.20505L19.0918 16.9333Q19.0918 17.7798 18.6494 18.2128Q18.2069 18.6458 17.3994 18.6458Z"
                     fill="rgba(255,255,255,0.55)" />
       </g>
</svg>