<svg width="17.6855" height="17.7051">
       <g>
              <rect height="17.7051" opacity="0" width="17.6855" x="0" y="0" />
              <path d="M2.88086 17.7051L14.8047 17.7051Q16.2305 17.7051 16.958 16.9873Q17.6855 16.2695 17.6855 14.8535L17.6855 2.88086Q17.6855 1.46484 16.958 0.742188Q16.2305 0.0195312 14.8047 0.0195312L2.88086 0.0195312Q1.44531 0.0195312 0.722656 0.737305Q0 1.45508 0 2.88086L0 14.8535Q0 16.2695 0.722656 16.9873Q1.44531 17.7051 2.88086 17.7051Z"
                     fill="rgba(255,255,255,0.55)" />
              <path d="M3.49609 11.4453Q3.28125 11.4453 3.13965 11.3037Q2.99805 11.1621 2.99805 10.9668Q2.99805 10.7617 3.13965 10.625Q3.28125 10.4883 3.49609 10.4883L13.4082 10.4883Q13.6133 10.4883 13.75 10.625Q13.8867 10.7617 13.8867 10.9668Q13.8867 11.1621 13.75 11.3037Q13.6133 11.4453 13.4082 11.4453ZM3.49609 14.7168Q3.28125 14.7168 3.13965 14.5801Q2.99805 14.4434 2.99805 14.2383Q2.99805 14.0332 3.13965 13.8916Q3.28125 13.75 3.49609 13.75L10.7031 13.75Q10.918 13.75 11.0547 13.8916Q11.1914 14.0332 11.1914 14.2383Q11.1914 14.4434 11.0547 14.5801Q10.918 14.7168 10.7031 14.7168ZM3.10547 3.59375Q3.10547 3.17383 3.35449 2.91992Q3.60352 2.66602 4.0332 2.66602L6.68945 2.66602Q7.10938 2.66602 7.36328 2.91992Q7.61719 3.17383 7.61719 3.59375L7.61719 6.25977Q7.61719 6.67969 7.36328 6.92871Q7.10938 7.17773 6.68945 7.17773L4.0332 7.17773Q3.60352 7.17773 3.35449 6.92871Q3.10547 6.67969 3.10547 6.25977Z"
                     fill="#ffffff" />
       </g>
</svg>