<svg width="22.8699" height="17.688">
       <g>
              <rect height="17.688" opacity="0" width="22.8699" x="0" y="0" />
              <path d="M2.87872 17.6819L19.9883 17.6819Q21.4282 17.6819 22.149 16.9614Q22.8699 16.2408 22.8699 14.8338L22.8699 2.85477Q22.8699 1.45081 22.149 0.725403Q21.4282 0 19.9883 0L2.87872 0Q1.44836 0 0.724182 0.718994Q0 1.43799 0 2.85477L0 14.8338Q0 16.2469 0.724182 16.9644Q1.44836 17.6819 2.87872 17.6819Z"
                     fill="rgba(255,255,255,0.55)" />
              <path d="M3.81851 13.1107Q3.12927 13.1107 2.78336 12.7663Q2.43744 12.422 2.43744 11.7432L2.43744 5.97046Q2.43744 5.2916 2.78336 4.9472Q3.12927 4.60281 3.81851 4.60281L9.56055 4.60281Q10.2567 4.60281 10.601 4.94873Q10.9453 5.29465 10.9453 5.97046L10.9453 11.7432Q10.9453 12.419 10.601 12.7648Q10.2567 13.1107 9.56055 13.1107ZM3.88962 12.1996L9.49615 12.1996Q10.0372 12.1996 10.0372 11.6788L10.0372 6.03485Q10.0372 5.51407 9.49615 5.51407L3.88962 5.51407Q3.60519 5.51407 3.47694 5.6356Q3.34869 5.75714 3.34869 6.03485L3.34869 11.6788Q3.34869 11.9498 3.47694 12.0747Q3.60519 12.1996 3.88962 12.1996ZM16.5311 13.0396Q15.3006 13.0396 14.3702 12.5117Q13.4398 11.9839 12.9147 11.0396Q12.3895 10.0952 12.3895 8.85254Q12.3895 7.62512 12.9192 6.6819Q13.4488 5.73868 14.3804 5.20561Q15.312 4.67255 16.526 4.67255Q17.71 4.67255 18.6205 5.15343Q19.5311 5.63431 20.0431 6.49078Q20.5551 7.34726 20.5551 8.46893Q20.5551 9.68536 20.0666 10.3974Q19.5781 11.1095 18.7527 11.1095Q17.9095 11.1095 17.5829 10.4381Q17.1336 11.1064 16.328 11.1064Q15.5038 11.1064 14.9911 10.4912Q14.4785 9.87595 14.4785 8.88657Q14.4785 7.92343 14.9911 7.29843Q15.5038 6.67343 16.3077 6.67343Q16.6743 6.67343 16.9604 6.80428Q17.2466 6.93512 17.4344 7.17041L17.4344 6.99539Q17.5055 6.67343 17.8378 6.67343Q18.0202 6.67343 18.136 6.79604Q18.2518 6.91864 18.2518 7.11075L18.2518 9.67422Q18.2518 10.3024 18.8171 10.3024Q19.2511 10.3024 19.4898 9.83337Q19.7285 9.36432 19.7285 8.50647Q19.7285 7.60605 19.3238 6.92802Q18.9191 6.25 18.1986 5.86967Q17.4782 5.48935 16.526 5.48935Q15.5707 5.48935 14.8344 5.92003Q14.0982 6.35071 13.6807 7.10899Q13.2632 7.86728 13.2632 8.85925Q13.2632 9.87686 13.6762 10.6293Q14.0892 11.3817 14.8396 11.7921Q15.5899 12.2026 16.6089 12.2026Q17.0534 12.2026 17.3122 12.1527Q17.571 12.1028 17.7774 12.0699Q17.9182 12.0442 18.0051 12.0235Q18.0919 12.0029 18.1821 12.0029Q18.3533 12.0029 18.4544 12.112Q18.5556 12.2211 18.5556 12.3831Q18.5556 12.6741 18.1912 12.8271Q17.9315 12.9321 17.4982 12.9858Q17.0648 13.0396 16.5311 13.0396ZM16.4297 10.2718Q16.9003 10.2718 17.1774 9.88373Q17.4545 9.4957 17.4545 8.83469Q17.4545 8.20984 17.179 7.84889Q16.9034 7.48795 16.4365 7.48795Q15.959 7.48795 15.6713 7.864Q15.3836 8.24005 15.3836 8.87619Q15.3836 9.51523 15.6683 9.89349Q15.9529 10.2718 16.4297 10.2718Z"
                     fill="#ffffff" />
       </g>
</svg>