<svg width="21.3126" height="19.5059">
       <g>
              <rect height="19.5059" opacity="0" width="21.3126" x="0" y="0" />
              <path d="M5.58334 19.3318Q5.82886 19.3318 6.0038 19.1569Q6.17874 18.9819 6.17874 18.7297Q6.17874 18.4744 6.0038 18.2995Q5.82886 18.1245 5.58334 18.1245Q5.32806 18.1245 5.15312 18.2995Q4.97818 18.4744 4.97818 18.7297Q4.97818 18.9819 5.15312 19.1569Q5.32806 19.3318 5.58334 19.3318ZM4.58588 17.5185Q4.83826 17.5185 5.0132 17.3435Q5.18814 17.1686 5.18814 16.9133Q5.18814 16.6678 5.0132 16.4928Q4.83826 16.3179 4.58588 16.3179Q4.33746 16.3179 4.16245 16.4928Q3.98743 16.6678 3.98743 16.9133Q3.98743 17.1686 4.16245 17.3435Q4.33746 17.5185 4.58588 17.5185ZM3.58841 15.7088Q3.83698 15.7088 4.01535 15.5305Q4.19373 15.3522 4.19373 15.1036Q4.19373 14.8581 4.01535 14.6798Q3.83698 14.5015 3.58841 14.5015Q3.3429 14.5015 3.16795 14.6798Q2.99301 14.8581 2.99301 15.1036Q2.99301 15.3522 3.16795 15.5305Q3.3429 15.7088 3.58841 15.7088ZM2.59033 13.9059Q2.83585 13.9059 3.01414 13.7276Q3.19244 13.5492 3.19244 13.3037Q3.19244 13.0553 3.01414 12.8769Q2.83585 12.6985 2.59033 12.6985Q2.34177 12.6985 2.16835 12.8769Q1.99493 13.0553 1.99493 13.3037Q1.99493 13.5492 2.16835 13.7276Q2.34177 13.9059 2.59033 13.9059ZM1.59958 12.0827Q1.84814 12.0827 2.02309 11.9077Q2.19803 11.7328 2.19803 11.4873Q2.19803 11.232 2.02309 11.0571Q1.84814 10.8821 1.59958 10.8821Q1.35406 10.8821 1.17577 11.0571Q0.997467 11.232 0.997467 11.4873Q0.997467 11.7328 1.17577 11.9077Q1.35406 12.0827 1.59958 12.0827ZM0.602112 10.276Q0.850677 10.276 1.02562 10.1011Q1.20056 9.92615 1.20056 9.67773Q1.20056 9.42535 1.02562 9.25041Q0.850677 9.07547 0.602112 9.07547Q0.349884 9.07547 0.174942 9.25041Q0 9.42535 0 9.67773Q0 9.92615 0.174942 10.1011Q0.349884 10.276 0.602112 10.276ZM1.59958 8.46939Q1.84814 8.46939 2.02309 8.29445Q2.19803 8.11951 2.19803 7.87109Q2.19803 7.61871 2.02309 7.44377Q1.84814 7.26883 1.59958 7.26883Q1.35406 7.26883 1.17577 7.44377Q0.997467 7.61871 0.997467 7.87109Q0.997467 8.11951 1.17577 8.29445Q1.35406 8.46939 1.59958 8.46939ZM2.59033 6.65009Q2.83585 6.65009 3.01414 6.47324Q3.19244 6.29639 3.19244 6.04782Q3.19244 5.79941 3.01414 5.62592Q2.83585 5.45242 2.59033 5.45242Q2.34177 5.45242 2.16835 5.62592Q1.99493 5.79941 1.99493 6.04782Q1.99493 6.29639 2.16835 6.47324Q2.34177 6.65009 2.59033 6.65009ZM3.58841 4.85016Q3.83698 4.85016 4.01535 4.67186Q4.19373 4.49356 4.19373 4.24805Q4.19373 3.99948 4.01535 3.82111Q3.83698 3.64273 3.58841 3.64273Q3.3429 3.64273 3.16795 3.82111Q2.99301 3.99948 2.99301 4.24805Q2.99301 4.49356 3.16795 4.67186Q3.3429 4.85016 3.58841 4.85016ZM4.58588 3.02704Q4.83826 3.02704 5.0132 2.8521Q5.18814 2.67715 5.18814 2.42859Q5.18814 2.17636 5.0132 2.00134Q4.83826 1.82632 4.58588 1.82632Q4.33746 1.82632 4.16245 2.00134Q3.98743 2.17636 3.98743 2.42859Q3.98743 2.67715 4.16245 2.8521Q4.33746 3.02704 4.58588 3.02704ZM5.58334 1.2204Q5.82886 1.2204 6.0038 1.04546Q6.17874 0.870514 6.17874 0.621948Q6.17874 0.36972 6.0038 0.194702Q5.82886 0.0196838 5.58334 0.0196838Q5.32806 0.0196838 5.15312 0.194702Q4.97818 0.36972 4.97818 0.621948Q4.97818 0.870514 5.15312 1.04546Q5.32806 1.2204 5.58334 1.2204Z"
                     fill="rgba(255,255,255,0.55)" />
              <path d="M10.4375 19.4992Q10.6737 19.4992 10.8486 19.3684Q11.0236 19.2377 11.1002 19.0901L5.97107 10.089Q5.91843 9.99054 5.88242 9.90685Q5.84641 9.82315 5.84641 9.74808Q5.84641 9.66324 5.88242 9.58107Q5.91843 9.4989 5.97107 9.4043L11.0941 0.402985Q11.0138 0.258484 10.8373 0.129242Q10.6609 0 10.4344 0Q10.2425 0 10.0539 0.110626Q9.86526 0.221252 9.72641 0.458374L4.89334 8.84109Q4.73816 9.10141 4.6376 9.31259Q4.53705 9.52377 4.53705 9.74808Q4.53705 9.97238 4.6376 10.1802Q4.73816 10.388 4.89334 10.6551L9.73618 19.0378Q9.87808 19.2719 10.0667 19.3855Q10.2553 19.4992 10.4375 19.4992Z"
                     fill="rgba(255,255,255,0.55)" />
              <path d="M15.3929 19.4803Q15.7388 19.4803 15.9917 19.2612Q16.2445 19.0421 16.5196 18.5683L20.9727 10.7704Q21.1446 10.4762 21.2286 10.2345Q21.3126 9.99268 21.3126 9.74808Q21.3126 9.50348 21.2286 9.26018Q21.1446 9.01688 20.9727 8.72574L16.5196 0.927887Q16.2445 0.454102 15.9917 0.236511Q15.7388 0.0189209 15.3929 0.0189209Q15.05 0.0189209 14.7973 0.236511Q14.5445 0.454102 14.2596 0.927887L9.81018 8.72574Q9.6347 9.01688 9.55254 9.26018Q9.47037 9.50348 9.47327 9.74808Q9.47632 9.99268 9.56039 10.2345Q9.64447 10.4762 9.81628 10.7704L14.2596 18.5683Q14.5445 19.0421 14.7973 19.2612Q15.05 19.4803 15.3929 19.4803Z"
                     fill="rgba(255,255,255,0.55)" />
       </g>
</svg>