<svg width="18.9244" height="21.9446">
       <g>
              <rect height="21.9446" opacity="0" width="18.9244" x="0" y="0" />
              <path d="M0.818176 17.2031Q1.02036 17.2031 1.21277 17.0743L1.21277 6.68259Q1.21277 6.52496 1.24352 6.42029Q1.27426 6.31561 1.35124 6.23558Q1.42822 6.15555 1.55655 6.07986L10.5518 0.898285Q10.5629 0.540161 10.3424 0.32692Q10.1219 0.113678 9.81476 0.113678Q9.65881 0.113678 9.4976 0.160141Q9.3364 0.206604 9.16092 0.309448L0.906982 5.05875Q0.498199 5.29968 0.306854 5.47447Q0.115509 5.64926 0.0577545 5.90324Q0 6.15723 0 6.63208L0 16.0867Q0 16.5695 0.216293 16.8863Q0.432587 17.2031 0.818176 17.2031Z"
                     fill="rgba(255,255,255,0.55)" />
              <path d="M4.8024 19.5103Q5.00763 19.5103 5.20004 19.3817L5.20004 8.99002Q5.20004 8.81882 5.22934 8.7175Q5.25864 8.61618 5.33218 8.54103Q5.40573 8.46588 5.55054 8.38715L14.5457 3.19885Q14.5532 2.85355 14.3407 2.6339Q14.1281 2.41425 13.7953 2.41425Q13.4901 2.41425 13.1482 2.6033L4.89441 7.35947Q4.48547 7.59354 4.29077 7.77168Q4.09607 7.94983 4.03831 8.20717Q3.98056 8.46451 3.98056 8.9296L3.98056 18.394Q3.98056 18.8858 4.21112 19.1981Q4.44168 19.5103 4.8024 19.5103Z"
                     fill="rgba(255,255,255,0.55)" />
              <path d="M9.08264 21.9446Q9.50348 21.9446 10.1111 21.6011L17.9156 17.1158Q18.3043 16.8884 18.5244 16.6594Q18.7445 16.4304 18.8345 16.1221Q18.9244 15.8139 18.9244 15.3458L18.9244 6.32858Q18.9244 5.59799 18.675 5.22629Q18.4256 4.85458 17.9665 4.85458Q17.5404 4.85458 16.9719 5.18173L9.1568 9.68719Q8.76755 9.91821 8.54248 10.1522Q8.31741 10.3862 8.22601 10.6959Q8.13461 11.0056 8.13461 11.4572L8.13461 20.4744Q8.13461 21.1848 8.37578 21.5647Q8.61694 21.9446 9.08264 21.9446Z"
                     fill="rgba(255,255,255,0.55)" />
       </g>
</svg>