<svg width="18.9258" height="21.9434">
       <g>
              <rect height="21.9434" opacity="0" width="18.9258" x="0" y="0" />
              <path d="M0.820312 17.207Q1.01562 17.207 1.21094 17.0703L1.21094 6.67969Q1.21094 6.52344 1.24023 6.4209Q1.26953 6.31836 1.34766 6.23535Q1.42578 6.15234 1.55273 6.08398L10.5566 0.898438Q10.5664 0.537109 10.3418 0.327148Q10.1172 0.117188 9.81445 0.117188Q9.6582 0.117188 9.49707 0.161133Q9.33594 0.205078 9.16016 0.3125L0.908203 5.05859Q0.498047 5.30273 0.307617 5.47363Q0.117188 5.64453 0.0585938 5.89844Q0 6.15234 0 6.63086L0 16.084Q0 16.5723 0.214844 16.8896Q0.429688 17.207 0.820312 17.207Z"
                     fill="rgba(255,255,255,0.55)" />
              <path d="M4.80469 19.5117Q5.00977 19.5117 5.19531 19.3848L5.19531 8.99414Q5.19531 8.81836 5.22461 8.71582Q5.25391 8.61328 5.33203 8.54004Q5.41016 8.4668 5.54688 8.38867L14.541 3.20312Q14.5508 2.85156 14.3408 2.63184Q14.1309 2.41211 13.7988 2.41211Q13.4863 2.41211 13.1445 2.60742L4.89258 7.36328Q4.48242 7.59766 4.28711 7.77344Q4.0918 7.94922 4.03809 8.20801Q3.98438 8.4668 3.98438 8.92578L3.98438 18.3887Q3.98438 18.8867 4.21387 19.1992Q4.44336 19.5117 4.80469 19.5117Z"
                     fill="rgba(255,255,255,0.55)" />
              <path d="M9.08203 21.9434Q9.50195 21.9434 10.1074 21.6016L17.9199 17.1191Q18.3008 16.8848 18.5205 16.6553Q18.7402 16.4258 18.833 16.1182Q18.9258 15.8105 18.9258 15.3418L18.9258 6.32812Q18.9258 5.5957 18.6768 5.22461Q18.4277 4.85352 17.9688 4.85352Q17.5391 4.85352 16.9727 5.18555L9.16016 9.6875Q8.76953 9.92188 8.54492 10.1514Q8.32031 10.3809 8.22754 10.6934Q8.13477 11.0059 8.13477 11.4551L8.13477 20.4785Q8.13477 21.1816 8.37402 21.5625Q8.61328 21.9434 9.08203 21.9434ZM9.47266 20.498Q9.35547 20.4883 9.35547 20.3125L9.4043 11.4551Q9.4043 11.0059 9.78516 10.791L17.4316 6.31836Q17.5098 6.26953 17.5781 6.28906Q17.6953 6.28906 17.6953 6.47461L17.6758 15.3516Q17.6758 15.5762 17.5928 15.7373Q17.5098 15.8984 17.2949 16.0254L9.61914 20.459Q9.53125 20.5078 9.47266 20.498Z"
                     fill="rgba(255,255,255,0.55)" />
       </g>
</svg>