<svg width="20.3027" height="19.8535">
       <g>
              <rect height="19.8535" opacity="0" width="20.3027" x="0" y="0" />
              <path d="M7.61719 19.8535L17.4316 19.8535Q18.8477 19.8535 19.5752 19.1309Q20.3027 18.4082 20.3027 17.002L20.3027 7.13867Q20.3027 5.73242 19.5752 5.00977Q18.8477 4.28711 17.4316 4.28711L7.61719 4.28711Q6.18164 4.28711 5.45898 5.00488Q4.73633 5.72266 4.73633 7.13867L4.73633 17.002Q4.73633 18.418 5.45898 19.1357Q6.18164 19.8535 7.61719 19.8535ZM0 12.7441Q0 14.1602 0.722656 14.8779Q1.44531 15.5957 2.88086 15.5957L3.59375 15.5957L3.59375 7.13867Q3.59375 5.87891 4.07227 4.98535Q4.55078 4.0918 5.44922 3.62305Q6.34766 3.1543 7.61719 3.1543L15.5664 3.1543L15.5664 2.88086Q15.5664 1.47461 14.8389 0.751953Q14.1113 0.0292969 12.6855 0.0292969L2.88086 0.0292969Q1.44531 0.0292969 0.722656 0.74707Q0 1.46484 0 2.88086Z"
                     fill="rgba(255,255,255,0.55)" />
              <path d="M9.79492 16.6406Q9.59961 16.7969 9.41895 16.7676Q9.23828 16.7383 9.14551 16.5674Q9.05273 16.3965 9.14062 16.1719L10.0977 13.252L7.59766 11.4648Q7.41211 11.3281 7.3877 11.1328Q7.36328 10.9375 7.48535 10.7959Q7.60742 10.6543 7.86133 10.6543L10.9375 10.6738L11.8652 7.74414Q11.9336 7.50977 12.1045 7.43652Q12.2754 7.36328 12.4463 7.43652Q12.6172 7.50977 12.6855 7.74414L13.623 10.6738L16.6992 10.6543Q16.9531 10.6543 17.0654 10.8008Q17.1777 10.9473 17.1533 11.1426Q17.1289 11.3379 16.9531 11.4551L14.4531 13.252L15.4199 16.1719Q15.5078 16.3965 15.415 16.5674Q15.3223 16.7383 15.1367 16.7676Q14.9512 16.7969 14.7461 16.6406L12.2754 14.8438Z"
                     fill="#ffffff" />
       </g>
</svg>