<svg width="21.2766" height="21.665">
       <g>
              <rect height="21.665" opacity="0" width="21.2766" x="0" y="0" />
              <path d="M4.08245 20.1746Q4.32766 20.3604 4.63589 20.3069Q4.94412 20.2533 5.31765 19.9855L10.635 16.0838L15.9591 19.9855Q16.3327 20.2533 16.6408 20.3069Q16.949 20.3604 17.1942 20.1746Q17.4395 19.9922 17.4954 19.6856Q17.5512 19.379 17.3991 18.9333L15.3187 12.6805L20.6758 8.82141Q21.0591 8.55072 21.1955 8.27095Q21.3319 7.99118 21.239 7.70248Q21.1461 7.42065 20.8709 7.27211Q20.5957 7.12357 20.1201 7.13028L13.5389 7.16019L11.5319 0.887146Q11.3835 0.434875 11.1618 0.217438Q10.9402 0 10.635 0Q10.3366 0 10.1149 0.217438Q9.8933 0.434875 9.74468 0.887146L7.73785 7.16019L1.15658 7.13028Q0.681116 7.12357 0.405924 7.27211Q0.130731 7.42065 0.0376527 7.70248Q-0.0552734 7.99118 0.0811402 8.27095Q0.217554 8.55072 0.600855 8.82141L5.95806 12.6805L3.87768 18.9333Q3.7254 19.379 3.78132 19.6856Q3.83724 19.9922 4.08245 20.1746Z"
                     fill="#ffd60a" />
       </g>
</svg>