<svg width="19.5898" height="19.5996">
       <g>
              <rect height="19.5996" opacity="0" width="19.5898" x="0" y="0" />
              <path d="M9.79492 19.5898Q11.8066 19.5898 13.5791 18.8232Q15.3516 18.0566 16.7041 16.7041Q18.0566 15.3516 18.8232 13.5791Q19.5898 11.8066 19.5898 9.79492Q19.5898 7.7832 18.8232 6.01074Q18.0566 4.23828 16.7041 2.88574Q15.3516 1.5332 13.5742 0.766602Q11.7969 0 9.78516 0Q7.77344 0 6.00098 0.766602Q4.22852 1.5332 2.88086 2.88574Q1.5332 4.23828 0.766602 6.01074Q0 7.7832 0 9.79492Q0 11.8066 0.766602 13.5791Q1.5332 15.3516 2.88574 16.7041Q4.23828 18.0566 6.01074 18.8232Q7.7832 19.5898 9.79492 19.5898Z"
                     fill="#ffd60a" />
              <path d="M6.83594 14.9219Q6.60156 15.1074 6.38672 15.0684Q6.17188 15.0293 6.06445 14.8291Q5.95703 14.6289 6.05469 14.3555L7.19727 10.8789L4.22852 8.75977Q4.00391 8.59375 3.97461 8.36426Q3.94531 8.13477 4.0918 7.96387Q4.23828 7.79297 4.54102 7.79297L8.19336 7.8125L9.29688 4.32617Q9.38477 4.05273 9.58496 3.96484Q9.78516 3.87695 9.99023 3.96484Q10.1953 4.05273 10.2734 4.32617L11.3965 7.8125L15.0488 7.79297Q15.3516 7.79297 15.4883 7.96875Q15.625 8.14453 15.5957 8.37402Q15.5664 8.60352 15.3613 8.75L12.3828 10.8789L13.5352 14.3555Q13.6328 14.6289 13.5254 14.8291Q13.418 15.0293 13.1982 15.0684Q12.9785 15.1074 12.7344 14.9219L9.78516 12.7734Z"
                     fill="#ffffff" />
       </g>
</svg>