<svg width="19.5898" height="19.5996">
       <g>
              <rect height="19.5996" opacity="0" width="19.5898" x="0" y="0" />
              <path d="M9.79492 19.5996Q11.8066 19.5996 13.5791 18.833Q15.3516 18.0664 16.7041 16.7139Q18.0566 15.3613 18.8232 13.5889Q19.5898 11.8164 19.5898 9.80469Q19.5898 7.79297 18.8232 6.02051Q18.0566 4.24805 16.7041 2.89551Q15.3516 1.54297 13.5742 0.776367Q11.7969 0.00976562 9.78516 0.00976562Q7.77344 0.00976562 6.00098 0.776367Q4.22852 1.54297 2.88086 2.89551Q1.5332 4.24805 0.766602 6.02051Q0 7.79297 0 9.80469Q0 11.8164 0.766602 13.5889Q1.5332 15.3613 2.88574 16.7139Q4.23828 18.0664 6.01074 18.833Q7.7832 19.5996 9.79492 19.5996Z"
                     fill="rgba(255,255,255,0.55)" />
              <path d="M5.2832 7.24609L5.3125 7.17773Q5.53711 6.73828 5.77637 6.6748Q6.01562 6.61133 6.44531 6.85547L8.90625 8.29102L8.90625 5.42969Q8.90625 4.9707 9.0918 4.79492Q9.27734 4.61914 9.76562 4.61914L9.83398 4.61914Q10.3125 4.61914 10.4932 4.79492Q10.6738 4.9707 10.6738 5.42969L10.6738 8.29102L13.1348 6.85547Q13.584 6.60156 13.8232 6.66992Q14.0625 6.73828 14.2676 7.17773L14.3066 7.24609Q14.5215 7.66602 14.458 7.90527Q14.3945 8.14453 13.9941 8.35938L11.4355 9.75586L14.0137 11.2402Q14.3945 11.4648 14.4531 11.6992Q14.5117 11.9336 14.2969 12.373L14.2676 12.4121Q14.0527 12.8516 13.8135 12.9199Q13.5742 12.9883 13.1543 12.7246L10.6738 11.2988L10.6738 14.1602Q10.6738 14.6289 10.4932 14.8047Q10.3125 14.9805 9.83398 14.9805L9.76562 14.9805Q9.27734 14.9805 9.0918 14.8047Q8.90625 14.6289 8.90625 14.1602L8.90625 11.2988L6.43555 12.7246Q6.02539 12.9785 5.78613 12.9102Q5.54688 12.8418 5.3125 12.4121L5.29297 12.373Q5.05859 11.9434 5.12207 11.7041Q5.18555 11.4648 5.58594 11.2402L8.1543 9.75586L5.5957 8.35938Q5.19531 8.1543 5.13184 7.91504Q5.06836 7.67578 5.2832 7.24609Z"
                     fill="#ffffff" />
       </g>
</svg>