<svg width="21.2766" height="21.665">
       <g>
              <rect height="21.665" opacity="0" width="21.2766" x="0" y="0" />
              <path d="M4.08245 20.1746Q4.32766 20.3604 4.63589 20.3069Q4.94412 20.2533 5.31765 19.9855L10.635 16.0838L15.9591 19.9855Q16.3327 20.2533 16.6408 20.3069Q16.949 20.3604 17.1942 20.1746Q17.4395 19.9922 17.4954 19.6856Q17.5512 19.379 17.3991 18.9333L15.3187 12.6805L20.6758 8.82141Q21.0591 8.55072 21.1955 8.27095Q21.3319 7.99118 21.239 7.70248Q21.1461 7.42065 20.8709 7.27211Q20.5957 7.12357 20.1201 7.13028L13.5389 7.16019L11.5319 0.887146Q11.3835 0.434875 11.1618 0.217438Q10.9402 0 10.635 0Q10.3366 0 10.1149 0.217438Q9.8933 0.434875 9.74468 0.887146L7.73785 7.16019L1.15658 7.13028Q0.681116 7.12357 0.405924 7.27211Q0.130731 7.42065 0.0376527 7.70248Q-0.0552734 7.99118 0.0811402 8.27095Q0.217554 8.55072 0.600855 8.82141L5.95806 12.6805L3.87768 18.9333Q3.7254 19.379 3.78132 19.6856Q3.83724 19.9922 4.08245 20.1746ZM5.12539 18.7344Q5.10281 18.7178 5.12844 18.6253L7.14138 12.7185Q7.19769 12.5601 7.1928 12.4168Q7.18792 12.2736 7.11064 12.1501Q7.03335 12.0267 6.89144 11.9276L1.786 8.34427Q1.70254 8.293 1.71902 8.25104Q1.73184 8.21869 1.82812 8.21869L8.07232 8.2988Q8.32974 8.30551 8.49629 8.19038Q8.66284 8.07526 8.73852 7.81784L10.574 1.86081Q10.5996 1.76147 10.635 1.76147Q10.677 1.76147 10.7026 1.86081L12.5381 7.81784Q12.6139 8.07526 12.7805 8.19038Q12.947 8.30551 13.2043 8.2988L19.4485 8.21869Q19.5448 8.21869 19.5576 8.25104Q19.5741 8.293 19.4906 8.34427L14.3852 11.9276Q14.2434 12.0267 14.1661 12.1501Q14.0887 12.2736 14.0838 12.4168Q14.0789 12.5601 14.1352 12.7185L16.1482 18.6253Q16.1671 18.7178 16.1512 18.7344Q16.1258 18.7637 16.0421 18.7057L11.0603 14.9583Q10.8593 14.8 10.6384 14.8Q10.4174 14.8 10.2163 14.9583L5.23449 18.7057Q5.15103 18.7637 5.12539 18.7344Z"
                     fill="#ffd60a" />
       </g>
</svg>