<svg width="19.5898" height="19.5996">
       <g>
              <rect height="19.5996" opacity="0" width="19.5898" x="0" y="0" />
              <path d="M9.79492 19.5898Q11.8066 19.5898 13.5791 18.8232Q15.3516 18.0566 16.7041 16.7041Q18.0566 15.3516 18.8232 13.5791Q19.5898 11.8066 19.5898 9.79492Q19.5898 7.7832 18.8232 6.01074Q18.0566 4.23828 16.7041 2.88574Q15.3516 1.5332 13.5742 0.766602Q11.7969 0 9.78516 0Q7.77344 0 6.00098 0.766602Q4.22852 1.5332 2.88086 2.88574Q1.5332 4.23828 0.766602 6.01074Q0 7.7832 0 9.79492Q0 11.8066 0.766602 13.5791Q1.5332 15.3516 2.88574 16.7041Q4.23828 18.0566 6.01074 18.8232Q7.7832 19.5898 9.79492 19.5898ZM9.79492 18.3203Q8.02734 18.3203 6.47949 17.6611Q4.93164 17.002 3.75977 15.8301Q2.58789 14.6582 1.92871 13.1104Q1.26953 11.5625 1.26953 9.79492Q1.26953 8.02734 1.92871 6.47949Q2.58789 4.93164 3.75977 3.75488Q4.93164 2.57812 6.47461 1.91895Q8.01758 1.25977 9.78516 1.25977Q11.5625 1.25977 13.1104 1.91895Q14.6582 2.57812 15.8301 3.75488Q17.002 4.93164 17.666 6.47949Q18.3301 8.02734 18.3301 9.79492Q18.3301 11.5625 17.666 13.1104Q17.002 14.6582 15.8301 15.8301Q14.6582 17.002 13.1152 17.6611Q11.5723 18.3203 9.79492 18.3203Z"
                     fill="#ffd60a" />
              <path d="M6.9043 14.7949L9.79492 12.6855L12.6855 14.7949Q12.9199 14.9707 13.1348 14.9316Q13.3496 14.8926 13.4521 14.7021Q13.5547 14.5117 13.4668 14.2383L12.334 10.8203L15.2539 8.74023Q15.4492 8.59375 15.4785 8.37402Q15.5078 8.1543 15.376 7.9834Q15.2441 7.8125 14.9414 7.82227L11.3672 7.83203L10.2637 4.41406Q10.1855 4.16016 9.99023 4.07227Q9.79492 3.98438 9.59961 4.07227Q9.4043 4.16016 9.31641 4.41406L8.23242 7.83203L4.64844 7.82227Q4.35547 7.8125 4.21387 7.97852Q4.07227 8.14453 4.10156 8.36914Q4.13086 8.59375 4.3457 8.75L7.26562 10.8203L6.13281 14.2383Q6.04492 14.5117 6.14746 14.7021Q6.25 14.8926 6.45996 14.9316Q6.66992 14.9707 6.9043 14.7949Z"
                     fill="#ffd60a" />
       </g>
</svg>