<svg width="17.6855" height="17.7051">
       <g>
              <rect height="17.7051" opacity="0" width="17.6855" x="0" y="0" />
              <path d="M2.88086 17.7051L14.8047 17.7051Q16.2305 17.7051 16.958 16.9873Q17.6855 16.2695 17.6855 14.8535L17.6855 2.88086Q17.6855 1.46484 16.958 0.742188Q16.2305 0.0195312 14.8047 0.0195312L2.88086 0.0195312Q1.44531 0.0195312 0.722656 0.737305Q0 1.45508 0 2.88086L0 14.8535Q0 16.2695 0.722656 16.9873Q1.44531 17.7051 2.88086 17.7051Z"
                     fill="#ffd60a" />
              <path d="M5.88867 13.9746Q5.6543 14.1602 5.43945 14.1211Q5.22461 14.082 5.11719 13.8818Q5.00977 13.6816 5.10742 13.4082L6.25 9.93164L3.28125 7.8125Q3.05664 7.64648 3.02734 7.41699Q2.99805 7.1875 3.14453 7.0166Q3.29102 6.8457 3.59375 6.8457L7.24609 6.86523L8.34961 3.37891Q8.4375 3.10547 8.6377 3.01758Q8.83789 2.92969 9.04297 3.01758Q9.24805 3.10547 9.32617 3.37891L10.4492 6.86523L14.1016 6.8457Q14.4043 6.8457 14.541 7.02148Q14.6777 7.19727 14.6484 7.42676Q14.6191 7.65625 14.4141 7.80273L11.4355 9.93164L12.5879 13.4082Q12.6855 13.6816 12.5781 13.8818Q12.4707 14.082 12.251 14.1211Q12.0312 14.1602 11.7871 13.9746L8.83789 11.8262Z"
                     fill="#ffffff" />
       </g>
</svg>