<svg width="20.3027" height="19.8535">
       <g>
              <rect height="19.8535" opacity="0" width="20.3027" x="0" y="0" />
              <path d="M2.88086 15.5957L5.30273 15.5957L5.30273 14.3945L2.90039 14.3945Q2.07031 14.3945 1.64062 13.96Q1.21094 13.5254 1.21094 12.6758L1.21094 2.94922Q1.21094 2.09961 1.64062 1.66504Q2.07031 1.23047 2.90039 1.23047L12.666 1.23047Q13.4668 1.23047 13.9111 1.66504Q14.3555 2.09961 14.3555 2.94922L14.3555 4.83398L15.5664 4.83398L15.5664 2.88086Q15.5664 1.47461 14.8389 0.751953Q14.1113 0.0292969 12.6855 0.0292969L2.88086 0.0292969Q1.44531 0.0292969 0.722656 0.74707Q0 1.46484 0 2.88086L0 12.7441Q0 14.1602 0.722656 14.8779Q1.44531 15.5957 2.88086 15.5957Z"
                     fill="rgba(255,255,255,0.55)" />
              <path d="M7.61719 19.8535L17.4316 19.8535Q18.8477 19.8535 19.5752 19.1309Q20.3027 18.4082 20.3027 17.002L20.3027 7.13867Q20.3027 5.73242 19.5752 5.00977Q18.8477 4.28711 17.4316 4.28711L7.61719 4.28711Q6.18164 4.28711 5.45898 5.00488Q4.73633 5.72266 4.73633 7.13867L4.73633 17.002Q4.73633 18.418 5.45898 19.1357Q6.18164 19.8535 7.61719 19.8535ZM7.63672 18.6426Q6.80664 18.6426 6.37695 18.2129Q5.94727 17.7832 5.94727 16.9336L5.94727 7.20703Q5.94727 6.35742 6.37695 5.92285Q6.80664 5.48828 7.63672 5.48828L17.4023 5.48828Q18.2031 5.48828 18.6475 5.92285Q19.0918 6.35742 19.0918 7.20703L19.0918 16.9336Q19.0918 17.7832 18.6475 18.2129Q18.2031 18.6426 17.4023 18.6426ZM9.84375 16.5332L12.2754 14.7656L14.6973 16.5332Q14.8926 16.6797 15.0732 16.6504Q15.2539 16.6211 15.3418 16.46Q15.4297 16.2988 15.3613 16.0645L14.4043 13.1934L16.8555 11.4453Q17.0215 11.3281 17.0459 11.1426Q17.0703 10.957 16.958 10.8105Q16.8457 10.6641 16.5918 10.6738L13.5938 10.6836L12.666 7.8125Q12.5977 7.59766 12.4365 7.52441Q12.2754 7.45117 12.1094 7.52441Q11.9434 7.59766 11.8652 7.8125L10.957 10.6836L7.94922 10.6738Q7.69531 10.6641 7.57812 10.8057Q7.46094 10.9473 7.48535 11.1377Q7.50977 11.3281 7.69531 11.4551L10.1465 13.1934L9.18945 16.0645Q9.12109 16.2988 9.2041 16.46Q9.28711 16.6211 9.46777 16.6504Q9.64844 16.6797 9.84375 16.5332Z"
                     fill="rgba(255,255,255,0.55)" />
       </g>
</svg>