<svg width="21.2012" height="21.0449">
       <g>
              <rect height="21.0449" opacity="0" width="21.2012" x="0" y="0" />
              <path d="M5.46875 21.0449Q5.70312 21.0449 5.89844 20.9229Q6.09375 20.8008 6.35742 20.5566L9.89258 17.4023L17.0508 17.4023Q18.3789 17.4023 19.3018 16.9092Q20.2246 16.416 20.7129 15.4932Q21.2012 14.5703 21.2012 13.2617L21.2012 5.41016Q21.2012 4.10156 20.7129 3.17383Q20.2246 2.24609 19.3018 1.75293Q18.3789 1.25977 17.0508 1.25977L4.15039 1.25977Q2.82227 1.25977 1.89453 1.75293Q0.966797 2.24609 0.483398 3.16895Q0 4.0918 0 5.41016L0 13.2617Q0 14.5703 0.483398 15.498Q0.966797 16.4258 1.89453 16.9141Q2.82227 17.4023 4.15039 17.4023L4.76562 17.4023L4.76562 20.2344Q4.76562 20.6055 4.95117 20.8252Q5.13672 21.0449 5.46875 21.0449Z"
                     fill="rgba(255,255,255,0.55)" />
              <path d="M8.45703 13.0078Q8.29102 13.125 8.12012 13.1055Q7.94922 13.0859 7.87109 12.9395Q7.79297 12.793 7.87109 12.5684L8.73047 9.98047L6.47461 8.34961Q6.29883 8.23242 6.2793 8.07129Q6.25977 7.91016 6.37207 7.7832Q6.48438 7.65625 6.69922 7.65625L9.47266 7.65625L10.3125 5.08789Q10.4004 4.78516 10.6738 4.78027Q10.9473 4.77539 11.0449 5.08789L11.875 7.65625L14.6387 7.65625Q14.8633 7.65625 14.9756 7.7832Q15.0879 7.91016 15.0684 8.07129Q15.0488 8.23242 14.8633 8.34961L12.6172 9.98047L13.4766 12.5684Q13.5547 12.793 13.4717 12.9395Q13.3887 13.0859 13.2227 13.1055Q13.0566 13.125 12.8809 13.0078L10.6738 11.3867Z"
                     fill="#ffffff" />
       </g>
</svg>