<svg width="17.6855" height="17.7051">
       <g>
              <rect height="17.7051" opacity="0" width="17.6855" x="0" y="0" />
              <path d="M2.88086 17.7051L14.8047 17.7051Q16.2305 17.7051 16.958 16.9873Q17.6855 16.2695 17.6855 14.8535L17.6855 2.88086Q17.6855 1.46484 16.958 0.742188Q16.2305 0.0195312 14.8047 0.0195312L2.88086 0.0195312Q1.44531 0.0195312 0.722656 0.737305Q0 1.45508 0 2.88086L0 14.8535Q0 16.2695 0.722656 16.9873Q1.44531 17.7051 2.88086 17.7051ZM2.90039 16.4941Q2.07031 16.4941 1.64062 16.0645Q1.21094 15.6348 1.21094 14.7949L1.21094 2.93945Q1.21094 2.08984 1.64062 1.66016Q2.07031 1.23047 2.90039 1.23047L14.7852 1.23047Q15.5859 1.23047 16.0303 1.66016Q16.4746 2.08984 16.4746 2.93945L16.4746 14.7949Q16.4746 15.6348 16.0303 16.0645Q15.5859 16.4941 14.7852 16.4941Z"
                     fill="#ffd60a" />
              <path d="M5.95703 13.8477L8.84766 11.7383L11.7383 13.8477Q11.9727 14.0234 12.1875 13.9844Q12.4023 13.9453 12.5049 13.7549Q12.6074 13.5645 12.5195 13.291L11.3867 9.87305L14.3066 7.79297Q14.502 7.64648 14.5312 7.42676Q14.5605 7.20703 14.4287 7.03613Q14.2969 6.86523 13.9941 6.875L10.4199 6.88477L9.31641 3.4668Q9.23828 3.21289 9.04297 3.125Q8.84766 3.03711 8.65234 3.125Q8.45703 3.21289 8.36914 3.4668L7.28516 6.88477L3.70117 6.875Q3.4082 6.86523 3.2666 7.03125Q3.125 7.19727 3.1543 7.42188Q3.18359 7.64648 3.39844 7.80273L6.31836 9.87305L5.18555 13.291Q5.09766 13.5645 5.2002 13.7549Q5.30273 13.9453 5.5127 13.9844Q5.72266 14.0234 5.95703 13.8477Z"
                     fill="#ffd60a" />
       </g>
</svg>