<svg width="25.4305" height="20.6921">
       <g>
              <rect height="20.6921" opacity="0" width="25.4305" x="0" y="0" />
              <path d="M0 3.90564Q0 5.11292 0.395813 6.44875Q0.791626 7.78458 1.47255 9.06105Q2.15347 10.3375 3.0304 11.3718Q3.90732 12.406 4.89082 13.0211Q5.87433 13.6362 6.85059 13.6362L7.22641 13.6362Q8.20572 13.6362 9.18434 13.0211Q10.163 12.406 11.0448 11.3718Q11.9266 10.3375 12.606 9.06105Q13.2854 7.78458 13.6812 6.44875Q14.077 5.11292 14.077 3.90564Q14.077 2.36023 13.3439 1.59286Q12.6108 0.8255 11.1368 0.8255L10.2832 0.8255L10.2832 2.03461L11.2814 2.03461Q12.0993 2.03461 12.4852 2.51724Q12.8711 2.99988 12.8711 3.88611Q12.8711 4.89868 12.5356 6.06071Q12.2 7.22275 11.621 8.34961Q11.042 9.47647 10.2937 10.3979Q9.54529 11.3193 8.71017 11.8732Q7.87506 12.4271 7.03522 12.4271Q6.20209 12.4271 5.3685 11.8732Q4.53491 11.3193 3.78502 10.3979Q3.03513 9.47647 2.45605 8.34961Q1.87698 7.22275 1.54297 6.06071Q1.20895 4.89868 1.20895 3.88611Q1.20895 2.99988 1.59332 2.51724Q1.97769 2.03461 2.78885 2.03461L3.78708 2.03461L3.78708 0.8255L2.93365 0.8255Q1.46637 0.8255 0.733185 1.59286Q0 2.36023 0 3.90564ZM11.0954 20.6921Q12.5737 20.6921 13.5774 19.948Q14.5811 19.2039 15.2114 17.6643Q15.8417 16.1247 16.2125 13.7268Q16.4827 12.0251 16.8758 11.0076Q17.269 9.99008 17.8242 9.54262Q18.3795 9.09515 19.1377 9.09515Q19.9429 9.09515 20.4944 9.63966Q21.0458 10.1842 21.3573 11.292Q21.6687 12.3999 21.7493 14.0871L22.9582 14.0871Q22.8207 12.0042 22.3744 10.628Q21.9281 9.25171 21.127 8.5704Q20.3259 7.8891 19.1377 7.8891Q18.0038 7.8891 17.2148 8.45238Q16.4258 9.01566 15.8989 10.2339Q15.372 11.4522 15.0328 13.4145Q14.7842 14.8773 14.4884 16.0081Q14.1925 17.1388 13.7546 17.9116Q13.3167 18.6844 12.6569 19.0838Q11.9971 19.4832 11.031 19.4832Q9.36127 19.4832 8.48824 17.8634Q7.6152 16.2436 7.62497 13.1648L6.41907 13.1648Q6.4093 16.897 7.62756 18.7946Q8.84583 20.6921 11.0954 20.6921Z"
                     fill="#5e5ce6" />
              <path d="M4.3541 2.65991Q4.86572 2.65991 5.23033 2.29347Q5.59494 1.92703 5.59494 1.41541Q5.59494 0.903778 5.23033 0.537338Q4.86572 0.170898 4.3541 0.170898Q3.84552 0.170898 3.47755 0.537338Q3.10959 0.903778 3.10959 1.41541Q3.10959 1.92703 3.47755 2.29347Q3.84552 2.65991 4.3541 2.65991ZM9.70947 2.65991Q10.2211 2.65991 10.5875 2.29347Q10.954 1.92703 10.954 1.41541Q10.954 0.903778 10.5875 0.537338Q10.2211 0.170898 9.70947 0.170898Q9.19785 0.170898 8.83476 0.537338Q8.47168 0.903778 8.47168 1.41541Q8.47168 1.92703 8.83476 2.29347Q9.19785 2.65991 9.70947 2.65991ZM22.3869 19.581Q23.2274 19.581 23.9151 19.1705Q24.6028 18.7601 25.0166 18.0676Q25.4305 17.375 25.4305 16.5277Q25.4305 15.6902 25.0166 15.001Q24.6028 14.3118 23.9151 13.9029Q23.2274 13.494 22.3869 13.4872Q21.5396 13.4872 20.8504 13.8962Q20.1613 14.3051 19.749 14.9976Q19.3367 15.6902 19.3367 16.5277Q19.3367 17.375 19.749 18.0676Q20.1613 18.7601 20.8504 19.1705Q21.5396 19.581 22.3869 19.581ZM22.3869 18.5008Q21.8388 18.5008 21.3907 18.238Q20.9425 17.9752 20.6748 17.5237Q20.4071 17.0721 20.4071 16.5277Q20.4071 15.9827 20.6748 15.5345Q20.9425 15.0864 21.3907 14.8235Q21.8388 14.5607 22.3869 14.5607Q22.935 14.5607 23.3783 14.8235Q23.8216 15.0864 24.0893 15.5345Q24.357 15.9827 24.357 16.5277Q24.357 17.0721 24.0893 17.5237Q23.8216 17.9752 23.3783 18.238Q22.935 18.5008 22.3869 18.5008Z"
                     fill="#98989d" />
       </g>
</svg>