<svg width="19.5898" height="19.5996">
       <g>
              <rect height="19.5996" opacity="0" width="19.5898" x="0" y="0" />
              <path d="M9.79492 19.5996Q11.8066 19.5996 13.5791 18.833Q15.3516 18.0664 16.7041 16.7139Q18.0566 15.3613 18.8232 13.5889Q19.5898 11.8164 19.5898 9.80469Q19.5898 7.79297 18.8232 6.02051Q18.0566 4.24805 16.7041 2.89551Q15.3516 1.54297 13.5742 0.776367Q11.7969 0.00976562 9.78516 0.00976562Q7.77344 0.00976562 6.00098 0.776367Q4.22852 1.54297 2.88086 2.89551Q1.5332 4.24805 0.766602 6.02051Q0 7.79297 0 9.80469Q0 11.8164 0.766602 13.5889Q1.5332 15.3613 2.88574 16.7139Q4.23828 18.0664 6.01074 18.833Q7.7832 19.5996 9.79492 19.5996Z"
                     fill="rgba(255,255,255,0.55)" />
              <path d="M3.31055 6.69922Q3.31055 5.86914 3.72559 5.44434Q4.14062 5.01953 4.94141 5.01953L5.01953 5.01953Q5.25391 4.6875 5.64453 4.6875Q5.9668 4.6875 6.19141 4.91211Q6.41602 5.13672 6.41602 5.44922Q6.41602 5.76172 6.19141 5.99609Q5.9668 6.23047 5.64453 6.23047Q5.26367 6.23047 5.0293 5.9082L4.86328 5.9082Q4.21875 5.9082 4.21875 6.68945Q4.21875 7.36328 4.47754 8.09082Q4.73633 8.81836 5.15625 9.44336Q5.57617 10.0684 6.06445 10.459Q6.55273 10.8496 7.00195 10.8496Q7.45117 10.8496 7.93945 10.459Q8.42773 10.0684 8.84766 9.44336Q9.26758 8.81836 9.53125 8.0957Q9.79492 7.37305 9.79492 6.68945Q9.79492 5.9082 9.14062 5.9082L8.96484 5.9082Q8.73047 6.23047 8.34961 6.23047Q8.03711 6.23047 7.8125 5.99609Q7.58789 5.76172 7.58789 5.44922Q7.58789 5.13672 7.8125 4.91211Q8.03711 4.6875 8.34961 4.6875Q8.75 4.6875 8.97461 5.01953L9.0625 5.01953Q9.87305 5.01953 10.2783 5.44434Q10.6836 5.86914 10.6836 6.69922Q10.6836 7.49023 10.4004 8.32031Q10.1172 9.15039 9.64355 9.86816Q9.16992 10.5859 8.59375 11.0791Q8.01758 11.5723 7.44141 11.6992Q7.49023 13.0273 7.88574 13.7061Q8.28125 14.3848 9.01367 14.3848Q9.58984 14.3848 9.93652 14.0723Q10.2832 13.7598 10.4932 13.1104Q10.7031 12.4609 10.8691 11.4648Q11.1426 9.92188 11.6504 9.24316Q12.1582 8.56445 13.0762 8.56445Q14.8145 8.56445 15.0977 11.4258Q15.6543 11.5625 16.0205 12.0117Q16.3867 12.4609 16.3867 13.0469Q16.3867 13.75 15.8887 14.2432Q15.3906 14.7363 14.6875 14.7363Q13.9844 14.7363 13.4961 14.2432Q13.0078 13.75 13.0078 13.0469Q13.0078 12.4805 13.3496 12.041Q13.6914 11.6016 14.2188 11.4551Q14.1309 10.4297 13.8428 9.94629Q13.5547 9.46289 13.0762 9.46289Q12.5586 9.46289 12.251 9.9707Q11.9434 10.4785 11.7578 11.6602Q11.4648 13.5742 10.8252 14.4287Q10.1855 15.2832 9.04297 15.2832Q7.87109 15.2832 7.23633 14.3604Q6.60156 13.4375 6.55273 11.6992Q5.97656 11.5723 5.40039 11.0742Q4.82422 10.5762 4.35059 9.85352Q3.87695 9.13086 3.59375 8.30566Q3.31055 7.48047 3.31055 6.69922ZM13.8477 13.0469Q13.8477 13.4082 14.0918 13.6572Q14.3359 13.9062 14.6875 13.9062Q15.0488 13.9062 15.2979 13.6572Q15.5469 13.4082 15.5469 13.0469Q15.5469 12.6953 15.2979 12.4463Q15.0488 12.1973 14.6875 12.1973Q14.3359 12.1973 14.0918 12.4463Q13.8477 12.6953 13.8477 13.0469Z"
                     fill="#ffffff" />
       </g>
</svg>