<svg width="19.5898" height="19.5996">
       <g>
              <rect height="19.5996" opacity="0" width="19.5898" x="0" y="0" />
              <path d="M9.79492 19.5898Q11.8066 19.5898 13.5791 18.8232Q15.3516 18.0566 16.7041 16.7041Q18.0566 15.3516 18.8232 13.5791Q19.5898 11.8066 19.5898 9.79492Q19.5898 7.7832 18.8232 6.01074Q18.0566 4.23828 16.7041 2.88574Q15.3516 1.5332 13.5742 0.766602Q11.7969 0 9.78516 0Q7.77344 0 6.00098 0.766602Q4.22852 1.5332 2.88086 2.88574Q1.5332 4.23828 0.766602 6.01074Q0 7.7832 0 9.79492Q0 11.8066 0.766602 13.5791Q1.5332 15.3516 2.88574 16.7041Q4.23828 18.0566 6.01074 18.8232Q7.7832 19.5898 9.79492 19.5898Z"
                     fill="rgba(255,255,255,0.55)" />
              <path d="M7.11914 13.3887Q6.68945 13.3887 6.44043 13.1445Q6.19141 12.9004 6.19141 12.4707L6.19141 7.09961Q6.19141 6.66992 6.44043 6.42578Q6.68945 6.18164 7.11914 6.18164L12.4609 6.18164Q12.8906 6.18164 13.1396 6.42578Q13.3887 6.66992 13.3887 7.09961L13.3887 12.4707Q13.3887 12.9004 13.1396 13.1445Q12.8906 13.3887 12.4609 13.3887Z"
                     fill="#ffffff" />
       </g>
</svg>