<svg width="19.5918" height="23.7497">
       <g>
              <rect height="23.7497" opacity="0" width="19.5918" x="0" y="0" />
              <path d="M9.79446 21.6644Q11.8082 21.6644 13.5796 20.8983Q15.3511 20.1321 16.7039 18.7794Q18.0566 17.4268 18.8242 15.6538Q19.5918 13.8808 19.5918 11.87Q19.5918 9.85916 18.8242 8.08617Q18.0566 6.31317 16.7039 4.96048Q15.3511 3.60779 13.5763 2.84164Q11.8015 2.0755 9.78775 2.0755Q7.77695 2.0755 6.00395 2.84164Q4.23096 3.60779 2.88307 4.96048Q1.53519 6.31317 0.767593 8.08617Q0 9.85916 0 11.87Q0 13.8808 0.766144 15.6538Q1.53229 17.4268 2.88498 18.7794Q4.23767 20.1321 6.01067 20.8983Q7.78366 21.6644 9.79446 21.6644ZM9.79446 20.3978Q8.02353 20.3978 6.47873 19.7351Q4.93393 19.0724 3.76297 17.9029Q2.59201 16.7334 1.93268 15.1871Q1.27335 13.6409 1.27335 11.87Q1.27335 10.099 1.93268 8.55278Q2.59201 7.00653 3.75961 5.83214Q4.92722 4.65775 6.47202 3.99841Q8.01682 3.33908 9.78775 3.33908Q11.5616 3.33908 13.1064 3.99841Q14.6512 4.65775 15.8256 5.83214Q17 7.00653 17.6627 8.55278Q18.3253 10.099 18.3253 11.87Q18.3253 13.6409 17.666 15.1871Q17.0067 16.7334 15.8356 17.9029Q14.6646 19.0724 13.1165 19.7351Q11.5683 20.3978 9.79446 20.3978ZM8.95462 2.61749L10.6238 2.61749L10.6238 0.859222Q10.6238 0.504608 10.3831 0.252304Q10.1424 0 9.78775 0Q9.44275 0 9.19868 0.252304Q8.95462 0.504608 8.95462 0.859222ZM15.9299 4.86603L17.0973 6.06049L18.3774 4.76089Q18.6624 4.47891 18.6624 4.1243Q18.6624 3.80188 18.4303 3.56979Q18.1982 3.33771 17.8534 3.33771Q17.4814 3.33771 17.216 3.5994Z"
                     fill="#ff9f0a" />
              <path d="M9.79446 13.2582Q10.367 13.2582 10.7655 12.8583Q11.1639 12.4583 11.1639 11.8797Q11.1639 11.4716 10.944 11.1425Q10.724 10.8134 10.329 10.6332L10.329 5.34073Q10.329 5.1181 10.1746 4.96666Q10.0201 4.81522 9.78775 4.81522Q9.57108 4.81522 9.41666 4.96666Q9.26224 5.1181 9.26224 5.34073L9.26224 10.6174Q8.8739 10.8141 8.65097 11.1446Q8.42804 11.4752 8.42804 11.8797Q8.42804 12.4486 8.82309 12.8534Q9.21814 13.2582 9.79446 13.2582Z"
                     fill="rgba(255,255,255,0.85)" />
       </g>
</svg>