<svg width="15.5327" height="14.5126">
       <g>
              <rect height="14.5126" opacity="0" width="15.5327" x="0" y="0" />
              <path d="M7.77512 14.509Q9.35379 14.509 10.521 13.988Q11.6882 13.4671 12.3338 12.5331Q12.9793 11.5991 12.9793 10.378Q12.9793 8.9061 12.0039 8.04535Q11.0286 7.1846 8.90594 6.68274L7.29599 6.29593Q5.6929 5.90729 4.96376 5.34416Q4.23462 4.78104 4.23462 3.86459Q4.23462 3.09006 4.69658 2.48856Q5.15854 1.88705 5.95078 1.54381Q6.74301 1.20056 7.74414 1.20056Q8.68988 1.20056 9.44664 1.49467Q10.2034 1.78879 10.7085 2.33353Q11.2135 2.87827 11.4093 3.62167Q11.571 4.06876 12.0119 4.06876Q12.3019 4.06876 12.4672 3.90572Q12.6324 3.74268 12.6324 3.46298Q12.6324 3.37677 12.6193 3.25844Q12.6062 3.14011 12.5769 3.02292Q12.3613 2.14035 11.6943 1.46042Q11.0274 0.780487 10.0108 0.390244Q8.99414 0 7.74414 0Q6.34521 0 5.2359 0.508499Q4.12659 1.017 3.48328 1.90887Q2.83997 2.80075 2.83997 3.94913Q2.83997 5.33997 3.77899 6.19766Q4.71802 7.05536 6.71326 7.53021L8.46161 7.95074Q10.1152 8.3551 10.853 8.95126Q11.5907 9.54742 11.5907 10.5232Q11.5907 11.3232 11.1086 11.9534Q10.6264 12.5835 9.76761 12.9493Q8.90884 13.3151 7.78412 13.3151Q6.78818 13.3151 5.97252 12.9984Q5.15686 12.6817 4.59839 12.1066Q4.03992 11.5314 3.81927 10.7623Q3.71902 10.4794 3.58223 10.3499Q3.44543 10.2203 3.20023 10.2203Q2.90039 10.2203 2.7269 10.392Q2.55341 10.5637 2.55341 10.8597Q2.55341 11.1006 2.61642 11.3309Q2.85828 12.3041 3.57704 13.0142Q4.29581 13.7244 5.37254 14.1167Q6.44928 14.509 7.77512 14.509Z"
                     fill="rgba(255,255,255,0.85)" />
              <path d="M0.357971 7.509L15.1808 7.509Q15.3346 7.509 15.4337 7.40852Q15.5327 7.30804 15.5327 7.16614Q15.5327 7.02133 15.4337 6.92078Q15.3346 6.82022 15.1808 6.82022L0.357971 6.82022Q0.204163 6.82022 0.102081 6.92078Q0 7.02133 0 7.16614Q0 7.30804 0.102081 7.40852Q0.204163 7.509 0.357971 7.509Z"
                     fill="rgba(255,255,255,0.85)" />
       </g>
</svg>