<svg width="19.0332" height="17.9785">
       <g>
              <rect height="17.9785" opacity="0" width="19.0332" x="0" y="0" />
              <path d="M0 6.2207Q0 8.25195 1.1084 10.2441Q2.2168 12.2363 4.22852 14.1309Q6.24023 16.0254 8.91602 17.7637Q9.05273 17.8516 9.21875 17.915Q9.38477 17.9785 9.51172 17.9785Q9.64844 17.9785 9.81445 17.915Q9.98047 17.8516 10.1172 17.7637Q12.8027 16.0254 14.8047 14.1309Q16.8066 12.2363 17.9199 10.2441Q19.0332 8.25195 19.0332 6.2207Q19.0332 4.96094 18.6279 3.91602Q18.2227 2.87109 17.5 2.10449Q16.7773 1.33789 15.7959 0.922852Q14.8145 0.507812 13.6523 0.507812Q12.334 0.507812 11.2402 1.13281Q10.1465 1.75781 9.51172 2.8125Q8.89648 1.75781 7.79785 1.13281Q6.69922 0.507812 5.38086 0.507812Q4.22852 0.507812 3.24707 0.922852Q2.26562 1.33789 1.53809 2.10449Q0.810547 2.87109 0.405273 3.91602Q0 4.96094 0 6.2207ZM1.21094 6.2207Q1.21094 4.87305 1.74805 3.8623Q2.28516 2.85156 3.22754 2.28027Q4.16992 1.70898 5.36133 1.70898Q6.26953 1.70898 6.95801 2.03613Q7.64648 2.36328 8.14453 2.87598Q8.64258 3.38867 8.96484 3.95508Q9.13086 4.19922 9.24805 4.28223Q9.36523 4.36523 9.51172 4.36523Q9.66797 4.36523 9.78027 4.27734Q9.89258 4.18945 10.0586 3.95508Q10.4102 3.39844 10.9082 2.88086Q11.4062 2.36328 12.085 2.03613Q12.7637 1.70898 13.6719 1.70898Q14.8633 1.70898 15.8008 2.28027Q16.7383 2.85156 17.2803 3.8623Q17.8223 4.87305 17.8223 6.2207Q17.8223 7.58789 17.168 8.97949Q16.5137 10.3711 15.376 11.7188Q14.2383 13.0664 12.7734 14.3066Q11.3086 15.5469 9.6875 16.6211Q9.55078 16.7188 9.51172 16.7188Q9.47266 16.7188 9.3457 16.6211Q7.73438 15.5469 6.26953 14.3066Q4.80469 13.0664 3.66211 11.7188Q2.51953 10.3711 1.86523 8.97949Q1.21094 7.58789 1.21094 6.2207Z"
                     fill="#ff453a" />
       </g>
</svg>