<svg width="18.0304" height="19.115">
       <g>
              <rect height="19.115" opacity="0" width="18.0304" x="0" y="0" />
              <path d="M0 11.2335Q0 12.4525 0.510025 13.37Q1.02005 14.2874 1.93748 14.7959Q2.85492 15.3044 4.08386 15.3044Q5.09598 15.3044 5.94864 14.8917Q6.8013 14.4789 7.26974 13.8634L7.13867 13.6079Q6.98746 14.3057 6.6671 14.9049Q6.34674 15.5042 5.96268 15.9909Q5.57861 16.4777 5.24292 16.8379Q5.01831 17.0999 4.95186 17.3833Q4.88541 17.6666 4.97398 17.9137Q5.06256 18.1607 5.29831 18.3112Q5.53406 18.4618 5.89737 18.4618L12.133 18.4618Q12.4963 18.4618 12.7321 18.3112Q12.9678 18.1607 13.0564 17.9137Q13.145 17.6666 13.0785 17.3833Q13.0121 17.0999 12.7837 16.8379Q12.4451 16.4777 12.0659 15.9909Q11.6867 15.5042 11.3663 14.9049Q11.0458 14.3057 10.8917 13.6079L10.7607 13.8634Q11.2291 14.4789 12.0818 14.8917Q12.9344 15.3044 13.9496 15.3044Q15.1753 15.3044 16.0944 14.7959Q17.0134 14.2874 17.5219 13.37Q18.0304 12.4525 18.0304 11.2335Q18.0304 10.2043 17.5898 9.33449Q17.1492 8.46466 16.4125 7.67296Q15.6758 6.88126 14.7762 6.10085Q13.8766 5.32043 12.9493 4.48479Q12.0219 3.64914 11.1979 2.69974Q10.3738 1.75034 9.7963 0.600891Q9.66431 0.34729 9.4989 0.173645Q9.3335 0 9.01184 0Q8.6969 0 8.53149 0.173645Q8.36609 0.34729 8.2341 0.600891Q7.65961 1.75034 6.83403 2.69974Q6.00845 3.64914 5.07919 4.48479Q4.14993 5.32043 3.25218 6.10085Q2.35443 6.88126 1.61781 7.67296Q0.881195 8.46466 0.440598 9.33449Q0 10.2043 0 11.2335ZM1.11771 11.2199Q1.11771 10.3633 1.53656 9.62318Q1.95541 8.88306 2.65381 8.18802Q3.3522 7.49298 4.2099 6.77139Q5.0676 6.0498 5.95642 5.23315Q6.84525 4.4165 7.64687 3.4317Q8.44849 2.4469 9.01184 1.22559Q9.58496 2.4469 10.3851 3.4317Q11.1852 4.4165 12.074 5.23315Q12.9628 6.0498 13.8205 6.77139Q14.6782 7.49298 15.378 8.18802Q16.0779 8.88306 16.4953 9.62318Q16.9127 10.3633 16.9127 11.2199Q16.9127 12.5797 16.0806 13.4087Q15.2486 14.2377 13.8852 14.2377Q13.0063 14.2377 12.3074 13.8969Q11.6084 13.5561 11.1209 13.0621Q10.8575 12.8137 10.5664 12.8133Q10.2753 12.813 10.0854 13.0225Q9.89563 13.232 9.94232 13.6229Q10.0548 14.2125 10.3093 14.8338Q10.5638 15.455 10.9115 16.0262Q11.2592 16.5973 11.6524 17.0294Q11.7841 17.1715 11.7416 17.2881Q11.6992 17.4048 11.5434 17.4048L6.48697 17.4048Q6.32751 17.4048 6.28693 17.2881Q6.24634 17.1715 6.37787 17.0294Q6.77124 16.5973 7.11891 16.0262Q7.46658 15.455 7.7211 14.8338Q7.97562 14.2125 8.09097 13.6229Q8.13477 13.232 7.94647 13.0225Q7.75818 12.813 7.46552 12.8133Q7.17285 12.8137 6.90948 13.0621Q6.42181 13.5561 5.72441 13.8969Q5.02701 14.2377 4.1481 14.2377Q2.78168 14.2377 1.94969 13.4087Q1.11771 12.5797 1.11771 11.2199Z"
                     fill="rgba(255,255,255,0.85)" />
       </g>
</svg>