<svg width="19.0332" height="17.9785">
       <g>
              <rect height="17.9785" opacity="0" width="19.0332" x="0" y="0" />
              <path d="M9.51172 17.9785Q9.64844 17.9785 9.81445 17.915Q9.98047 17.8516 10.1172 17.7637Q12.8027 16.0254 14.8047 14.1309Q16.8066 12.2363 17.9199 10.2441Q19.0332 8.25195 19.0332 6.2207Q19.0332 4.96094 18.6279 3.91602Q18.2227 2.87109 17.5049 2.10449Q16.7871 1.33789 15.8203 0.922852Q14.8535 0.507812 13.7207 0.507812Q12.3535 0.507812 11.25 1.2207Q10.1465 1.93359 9.51172 3.13477Q8.89648 1.94336 7.79297 1.22559Q6.68945 0.507812 5.3125 0.507812Q4.17969 0.507812 3.21289 0.922852Q2.24609 1.33789 1.52832 2.10449Q0.810547 2.87109 0.405273 3.91602Q0 4.96094 0 6.2207Q0 8.25195 1.1084 10.2441Q2.2168 12.2363 4.22852 14.1309Q6.24023 16.0254 8.91602 17.7637Q9.05273 17.8516 9.21875 17.915Q9.38477 17.9785 9.51172 17.9785Z"
                     fill="#ff453a" />
       </g>
</svg>