<svg width="18.0843" height="18.139">
       <g>
              <rect height="18.139" opacity="0" width="18.0843" x="0" y="0" />
              <path d="M0 10.7486Q0 11.9167 0.532455 12.836Q1.06491 13.7553 1.98944 14.2859Q2.91397 14.8164 4.07913 14.8164Q5.09506 14.8164 5.98137 14.4312Q6.86768 14.046 7.30347 13.214L7.40112 13.214Q7.37076 13.7173 7.14165 14.1674Q6.91254 14.6175 6.58051 15.0134Q6.24847 15.4094 5.89943 15.7462Q5.55038 16.0829 5.28412 16.3499Q5.03555 16.6022 4.97513 16.8822Q4.9147 17.1622 5.01114 17.4126Q5.10757 17.663 5.33623 17.8184Q5.56488 17.9738 5.89767 17.9738L12.1866 17.9738Q12.5163 17.9738 12.7431 17.8184Q12.97 17.663 13.0698 17.4126Q13.1696 17.1622 13.1076 16.8822Q13.0457 16.6022 12.8001 16.3499Q12.5272 16.0829 12.1815 15.7462Q11.8358 15.4094 11.5038 15.0134Q11.1717 14.6175 10.9426 14.1674Q10.7135 13.7173 10.6802 13.214L10.7808 13.214Q11.2166 14.046 12.1029 14.4312Q12.9892 14.8164 13.9984 14.8164Q15.1703 14.8164 16.0934 14.2859Q17.0164 13.7553 17.5504 12.836Q18.0843 11.9167 18.0843 10.7486Q18.0843 9.60083 17.5453 8.64662Q17.0064 7.69241 16.0892 7.11945Q15.1721 6.54648 14.0372 6.54648Q13.3907 6.54648 12.739 6.75865Q12.0874 6.97083 11.5533 7.40646Q12.4858 6.63101 12.8229 5.76118Q13.1599 4.89136 13.1599 4.12125Q13.1599 2.97653 12.6041 2.04254Q12.0483 1.10855 11.1125 0.554276Q10.1767 0 9.0387 0Q7.90756 0 6.97021 0.554276Q6.03287 1.10855 5.47859 2.04254Q4.92432 2.97653 4.92432 4.12125Q4.92432 4.89136 5.25993 5.76118Q5.59555 6.63101 6.52786 7.40646Q5.99686 6.97083 5.3437 6.75865Q4.69055 6.54648 4.04709 6.54648Q2.90924 6.54648 1.99356 7.11945Q1.07788 7.69241 0.53894 8.64662Q0 9.60083 0 10.7486Z"
                     fill="rgba(255,255,255,0.85)" />
       </g>
</svg>