<svg width="14.7055" height="19.4952">
       <g>
              <rect height="19.4952" opacity="0" width="14.7055" x="0" y="0" />
              <path d="M7.3494 19.4824Q7.69226 19.4824 7.92183 19.2498Q8.1514 19.0172 8.48282 18.5666L14.3523 10.6804Q14.5233 10.4433 14.6144 10.2153Q14.7055 9.98734 14.7055 9.74274Q14.7055 9.49814 14.6144 9.26674Q14.5233 9.03534 14.3523 8.80508L8.48282 0.909119Q8.1514 0.46524 7.92183 0.23262Q7.69226 0 7.3494 0Q7.00653 0 6.7804 0.23262Q6.55426 0.46524 6.22269 0.909119L0.353394 8.80508Q0.175476 9.03534 0.087738 9.26674Q0 9.49814 0 9.74274Q0 9.98734 0.087738 10.2153Q0.175476 10.4433 0.353394 10.6804L6.22269 18.5666Q6.55426 19.0172 6.7804 19.2498Q7.00653 19.4824 7.3494 19.4824ZM7.3494 17.9243Q7.29889 17.9243 7.26387 17.8864Q7.22885 17.8484 7.19727 17.8038L1.43768 10.0125Q1.34003 9.88556 1.34003 9.74274Q1.34003 9.59991 1.43768 9.46991L7.19727 1.6748Q7.22885 1.6304 7.26387 1.59576Q7.29889 1.56113 7.3494 1.56113Q7.40662 1.56113 7.43828 1.59576Q7.46994 1.6304 7.50458 1.6748L13.2678 9.46991Q13.3685 9.59991 13.3685 9.74274Q13.3685 9.88556 13.2678 10.0125L7.50458 17.8038Q7.46994 17.8484 7.43828 17.8864Q7.40662 17.9243 7.3494 17.9243Z"
                     fill="#ff453a" />
       </g>
</svg>