<svg width="18.2265" height="18.2004">
       <g>
              <rect height="18.2004" opacity="0" width="18.2265" x="0" y="0" />
              <path d="M0 10.7155Q0 11.9579 0.516739 12.8839Q1.03348 13.81 1.96106 14.3252Q2.88864 14.8404 4.12796 14.8404Q5.14008 14.8404 6.01967 14.4344Q6.89926 14.0283 7.34756 13.4061L7.23679 13.1506Q7.07581 13.8484 6.75537 14.4476Q6.43494 15.0468 6.05583 15.5336Q5.67673 16.0204 5.33798 16.3806Q5.11642 16.6426 5.0499 16.926Q4.98337 17.2093 5.07195 17.4564Q5.16052 17.7034 5.39291 17.8539Q5.62531 18.0045 5.99548 18.0045L12.231 18.0045Q12.5945 18.0045 12.8302 17.8539Q13.0659 17.7034 13.1545 17.4564Q13.2431 17.2093 13.1766 16.926Q13.11 16.6426 12.8787 16.3806Q12.543 16.0204 12.1624 15.5336Q11.7818 15.0468 11.4647 14.4476Q11.1476 13.8484 10.9897 13.1506L10.8759 13.4061Q11.3272 14.0283 12.2053 14.4344Q13.0833 14.8404 14.0955 14.8404Q15.3378 14.8404 16.2654 14.3252Q17.193 13.81 17.7097 12.8839Q18.2265 11.9579 18.2265 10.7155Q18.2265 9.57092 17.6673 8.63358Q17.1082 7.69623 16.1723 7.14005Q15.2364 6.58386 14.1083 6.58386Q13.3553 6.58386 12.5957 6.85905Q11.8361 7.13425 11.2212 7.6683L11.2711 7.7478Q12.0163 7.2261 12.4462 6.60385Q12.8761 5.9816 13.0569 5.3437Q13.2378 4.70581 13.2378 4.13467Q13.2378 2.98706 12.6786 2.05116Q12.1194 1.11526 11.1836 0.557632Q10.2478 0 9.1098 0Q7.97867 0 7.04132 0.557632Q6.10397 1.11526 5.54634 2.05116Q4.98871 2.98706 4.98871 4.13467Q4.98871 4.70581 5.168 5.34027Q5.34729 5.97473 5.77385 6.59706Q6.20041 7.21939 6.94183 7.7478L6.9783 7.65106Q6.3739 7.12738 5.62103 6.85562Q4.86816 6.58386 4.11819 6.58386Q2.98706 6.58386 2.05116 7.14005Q1.11526 7.69623 0.557632 8.63358Q0 9.57092 0 10.7155ZM1.08398 10.7358Q1.08398 9.89395 1.49361 9.2025Q1.90323 8.51105 2.59468 8.10295Q3.28613 7.69485 4.11819 7.69485Q4.97726 7.69485 5.57365 7.92702Q6.17004 8.15918 6.63483 8.37631Q6.82007 8.44849 6.96815 8.48671Q7.11624 8.52493 7.27448 8.52493Q7.50488 8.52493 7.68188 8.37669Q7.85889 8.22845 7.85889 7.94724Q7.85889 7.789 7.80113 7.63824Q7.74338 7.48749 7.63382 7.36145Q7.19742 6.8689 6.84448 6.40244Q6.49155 5.93597 6.28212 5.39902Q6.07269 4.86206 6.07269 4.15192Q6.07269 3.30338 6.48232 2.61528Q6.89194 1.92719 7.58003 1.51909Q8.26813 1.11099 9.1098 1.11099Q9.95544 1.11099 10.6435 1.51909Q11.3315 1.92719 11.7411 2.61528Q12.1507 3.30338 12.1507 4.15192Q12.1507 4.86206 11.9428 5.39902Q11.7349 5.93597 11.3771 6.40244Q11.0193 6.8689 10.5927 7.36145Q10.4831 7.48749 10.4238 7.63824Q10.3645 7.789 10.3645 7.94724Q10.3645 8.22845 10.5415 8.37669Q10.7185 8.52493 10.9489 8.52493Q11.1072 8.52493 11.2534 8.48671Q11.3995 8.44849 11.5849 8.37631Q12.0465 8.16589 12.6445 7.93037Q13.2425 7.69485 14.1083 7.69485Q14.9403 7.69485 15.6269 8.10295Q16.3135 8.51105 16.7265 9.2025Q17.1394 9.89395 17.1394 10.7358Q17.1394 12.0953 16.304 12.9259Q15.4686 13.7564 14.0955 13.7564Q13.2196 13.7564 12.4631 13.4276Q11.7065 13.0988 11.2122 12.6048Q10.9555 12.3564 10.6628 12.356Q10.3702 12.3557 10.1819 12.5652Q9.99359 12.7747 10.0374 13.1656Q10.1529 13.7552 10.4074 14.3764Q10.6619 14.9977 11.0096 15.5688Q11.3573 16.14 11.7505 16.5721Q11.8822 16.7142 11.8382 16.8308Q11.7943 16.9475 11.6414 16.9475L6.58508 16.9475Q6.42242 16.9475 6.38336 16.8308Q6.3443 16.7142 6.47598 16.5721Q6.8692 16.14 7.21535 15.5688Q7.56149 14.9977 7.81754 14.3764Q8.07358 13.7552 8.18604 13.1656Q8.23288 12.7747 8.04306 12.5652Q7.85324 12.3557 7.5621 12.356Q7.27097 12.3564 7.00745 12.6048Q6.51993 13.0988 5.7634 13.4276Q5.00687 13.7564 4.12796 13.7564Q2.75482 13.7564 1.9194 12.9259Q1.08398 12.0953 1.08398 10.7358Z"
                     fill="rgba(255,255,255,0.85)" />
       </g>
</svg>