<svg width="18.0304" height="19.3454">
       <g>
              <rect height="19.3454" opacity="0" width="18.0304" x="0" y="0" />
              <path d="M0 11.3675Q0 12.5327 0.527191 13.4489Q1.05438 14.3652 1.97067 14.8924Q2.88696 15.4196 4.05212 15.4196Q5.06805 15.4196 5.95436 15.0344Q6.84067 14.6492 7.27646 13.8171L7.37717 13.8171Q7.3439 14.3205 7.11472 14.7706Q6.88553 15.2206 6.5535 15.6166Q6.22147 16.0126 5.87242 16.3493Q5.52338 16.6861 5.25711 16.9531Q5.0116 17.2054 4.94965 17.4854Q4.8877 17.7654 4.98421 18.0157Q5.08072 18.2661 5.3109 18.4216Q5.54108 18.577 5.87067 18.577L12.1597 18.577Q12.4924 18.577 12.7177 18.4216Q12.943 18.2661 13.0428 18.0157Q13.1427 17.7654 13.0823 17.4854Q13.0219 17.2054 12.7733 16.9531Q12.5002 16.6861 12.1545 16.3493Q11.8089 16.0126 11.4769 15.6166Q11.1449 15.2206 10.9157 14.7706Q10.6865 14.3205 10.6563 13.8171L10.7539 13.8171Q11.1896 14.6492 12.076 15.0344Q12.9623 15.4196 13.9716 15.4196Q15.1434 15.4196 16.0612 14.8924Q16.9791 14.3652 17.5047 13.4489Q18.0304 12.5327 18.0304 11.3675Q18.0304 10.2859 17.5912 9.3895Q17.1521 8.49304 16.4219 7.69577Q15.6917 6.8985 14.797 6.12411Q13.9023 5.34973 12.9782 4.52202Q12.0541 3.69431 11.2338 2.73506Q10.4135 1.77582 9.83673 0.594177Q9.71146 0.340576 9.51912 0.170288Q9.32678 0 9.01184 0Q8.70361 0 8.5128 0.170288Q8.32199 0.340576 8.19672 0.594177Q7.61978 1.77582 6.79794 2.73506Q5.9761 3.69431 5.05028 4.52202Q4.12445 5.34973 3.23158 6.12411Q2.33871 6.8985 1.60851 7.69577Q0.878296 8.49304 0.439148 9.3895Q0 10.2859 0 11.3675Z"
                     fill="rgba(255,255,255,0.85)" />
       </g>
</svg>