<svg width="19.5898" height="19.5996">
       <g>
              <rect height="19.5996" opacity="0" width="19.5898" x="0" y="0" />
              <path d="M9.79492 19.5996Q11.8066 19.5996 13.5791 18.833Q15.3516 18.0664 16.7041 16.7139Q18.0566 15.3613 18.8232 13.5889Q19.5898 11.8164 19.5898 9.80469Q19.5898 7.79297 18.8232 6.02051Q18.0566 4.24805 16.7041 2.89551Q15.3516 1.54297 13.5742 0.776367Q11.7969 0.00976562 9.78516 0.00976562Q7.77344 0.00976562 6.00098 0.776367Q4.22852 1.54297 2.88086 2.89551Q1.5332 4.24805 0.766602 6.02051Q0 7.79297 0 9.80469Q0 11.8164 0.766602 13.5889Q1.5332 15.3613 2.88574 16.7139Q4.23828 18.0664 6.01074 18.833Q7.7832 19.5996 9.79492 19.5996Z"
                     fill="rgba(255,255,255,0.55)" />
              <path d="M9.79492 12.7539Q8.98438 12.7539 8.31543 12.3535Q7.64648 11.9531 7.24121 11.2744Q6.83594 10.5957 6.83594 9.79492Q6.83594 8.98438 7.24121 8.31055Q7.64648 7.63672 8.31543 7.23633Q8.98438 6.83594 9.79492 6.83594Q10.6055 6.83594 11.2744 7.23633Q11.9434 7.63672 12.3486 8.31055Q12.7539 8.98438 12.7539 9.79492Q12.7539 10.5957 12.3486 11.2744Q11.9434 11.9531 11.2744 12.3535Q10.6055 12.7539 9.79492 12.7539ZM9.80469 3.44727Q10 3.44727 10.1465 3.59863Q10.293 3.75 10.293 3.94531L10.293 5.21484Q10.293 5.41016 10.1465 5.55664Q10 5.70312 9.80469 5.70312Q9.59961 5.70312 9.45312 5.55664Q9.30664 5.41016 9.30664 5.21484L9.30664 3.94531Q9.30664 3.75 9.45312 3.59863Q9.59961 3.44727 9.80469 3.44727ZM14.2871 5.30273Q14.4238 5.44922 14.4238 5.65918Q14.4238 5.86914 14.2871 6.00586L13.3789 6.91406Q13.2324 7.05078 13.0322 7.05566Q12.832 7.06055 12.6855 6.91406Q12.5488 6.76758 12.5439 6.57227Q12.5391 6.37695 12.6855 6.2207L13.584 5.30273Q13.7305 5.16602 13.9355 5.1709Q14.1406 5.17578 14.2871 5.30273ZM16.1328 9.79492Q16.1328 9.99023 15.9863 10.1367Q15.8398 10.2832 15.6445 10.2832L14.375 10.2832Q14.1699 10.2832 14.0234 10.1367Q13.877 9.99023 13.877 9.79492Q13.877 9.59961 14.0234 9.44824Q14.1699 9.29688 14.375 9.29688L15.6445 9.29688Q15.8398 9.29688 15.9863 9.44824Q16.1328 9.59961 16.1328 9.79492ZM14.2871 14.2773Q14.1406 14.4141 13.9355 14.4141Q13.7305 14.4141 13.584 14.2773L12.6855 13.3691Q12.5391 13.2324 12.5391 13.0273Q12.5391 12.8223 12.6855 12.6758Q12.832 12.5391 13.0322 12.5391Q13.2324 12.5391 13.3691 12.6758L14.2871 13.584Q14.4238 13.7207 14.4238 13.9258Q14.4238 14.1309 14.2871 14.2773ZM9.80469 16.1426Q9.59961 16.1426 9.45312 15.9912Q9.30664 15.8398 9.30664 15.6445L9.30664 14.375Q9.30664 14.1797 9.45312 14.0332Q9.59961 13.8867 9.80469 13.8867Q10 13.8867 10.1465 14.0332Q10.293 14.1797 10.293 14.375L10.293 15.6445Q10.293 15.8398 10.1465 15.9912Q10 16.1426 9.80469 16.1426ZM5.3125 14.2676Q5.17578 14.1309 5.1709 13.9258Q5.16602 13.7207 5.3125 13.584L6.2207 12.6758Q6.35742 12.5391 6.5625 12.5391Q6.76758 12.5391 6.91406 12.6758Q7.06055 12.832 7.05566 13.0371Q7.05078 13.2422 6.91406 13.3789L6.00586 14.2773Q5.85938 14.4141 5.65918 14.4141Q5.45898 14.4141 5.3125 14.2676ZM3.4668 9.79492Q3.4668 9.59961 3.61328 9.44824Q3.75977 9.29688 3.96484 9.29688L5.22461 9.29688Q5.42969 9.29688 5.57129 9.44824Q5.71289 9.59961 5.71289 9.79492Q5.71289 9.99023 5.57129 10.1367Q5.42969 10.2832 5.22461 10.2832L3.96484 10.2832Q3.75977 10.2832 3.61328 10.1367Q3.4668 9.99023 3.4668 9.79492ZM5.32227 5.30273Q5.46875 5.17578 5.66895 5.17578Q5.86914 5.17578 6.01562 5.30273L6.91406 6.2207Q7.05078 6.36719 7.05078 6.57227Q7.05078 6.77734 6.91406 6.91406Q6.76758 7.05078 6.56738 7.05566Q6.36719 7.06055 6.2207 6.91406L5.3125 6.00586Q5.17578 5.86914 5.18066 5.65918Q5.18555 5.44922 5.32227 5.30273Z"
                     fill="#ffffff" />
       </g>
</svg>