<svg width="20.9882" height="21.0452">
       <g>
              <rect height="21.0452" opacity="0" width="20.9882" x="0" y="0" />
              <path d="M10.4816 5.69702Q9.49265 5.69702 8.62442 6.07399Q7.7562 6.45096 7.09045 7.11678Q6.42471 7.78259 6.04774 8.65562Q5.67078 9.52866 5.67078 10.5177Q5.67078 11.5068 6.04774 12.3765Q6.42471 13.2462 7.09045 13.9104Q7.7562 14.5747 8.62442 14.9532Q9.49265 15.3317 10.4816 15.3317Q11.467 15.3317 12.3385 14.9532Q13.21 14.5747 13.8725 13.9104Q14.5349 13.2462 14.9119 12.3765Q15.2888 11.5068 15.2888 10.5177Q15.2888 9.52866 14.9119 8.65562Q14.5349 7.78259 13.8725 7.11678Q13.21 6.45096 12.3385 6.07399Q11.467 5.69702 10.4816 5.69702ZM11.1563 0.665741Q11.1563 0.395813 10.9584 0.197906Q10.7605 0 10.4907 0Q10.2277 0 10.0298 0.197906Q9.83185 0.395813 9.83185 0.665741L9.83185 2.80121Q9.83185 3.06732 10.0298 3.2637Q10.2277 3.46008 10.4907 3.46008Q10.7605 3.46008 10.9584 3.2637Q11.1563 3.06732 11.1563 2.80121ZM15.4694 4.61349Q15.2766 4.80301 15.2766 5.07774Q15.2766 5.35248 15.4694 5.54214Q15.659 5.73181 15.9322 5.73517Q16.2054 5.73853 16.4018 5.54214L17.9173 4.02649Q18.107 3.83682 18.107 3.55881Q18.107 3.28079 17.9173 3.09113Q17.7277 2.90146 17.4564 2.90146Q17.1851 2.90146 16.9954 3.09113ZM20.3256 11.1766Q20.5954 11.1766 20.7918 10.9787Q20.9882 10.7808 20.9882 10.5177Q20.9882 10.248 20.7918 10.0534Q20.5954 9.85886 20.3256 9.85886L18.1938 9.85886Q17.9306 9.85886 17.7327 10.0534Q17.5348 10.248 17.5348 10.5177Q17.5348 10.7808 17.7327 10.9787Q17.9306 11.1766 18.1938 11.1766ZM16.398 15.5Q16.2083 15.3104 15.9337 15.3104Q15.659 15.3104 15.4694 15.5Q15.2766 15.6897 15.2766 15.9611Q15.2766 16.2325 15.4694 16.4288L16.9954 17.9512Q17.1851 18.1407 17.4564 18.1374Q17.7277 18.134 17.9173 17.9443Q18.107 17.7547 18.107 17.48Q18.107 17.2054 17.9173 17.0157ZM11.1563 18.2312Q11.1563 17.9614 10.9584 17.765Q10.7605 17.5687 10.4907 17.5687Q10.2277 17.5687 10.0298 17.765Q9.83185 17.9614 9.83185 18.2312L9.83185 20.3697Q9.83185 20.6329 10.0298 20.8308Q10.2277 21.0286 10.4907 21.0286Q10.7605 21.0286 10.9584 20.8308Q11.1563 20.6329 11.1563 20.3697ZM3.06107 17.009Q2.8714 17.1956 2.8714 17.4718Q2.8714 17.748 3.05435 17.9376Q3.24097 18.1273 3.52051 18.1306Q3.80005 18.134 3.98972 17.9443L5.50537 16.4317Q5.69504 16.2451 5.69839 15.9689Q5.70175 15.6927 5.51208 15.5031Q5.32547 15.3134 5.04585 15.3134Q4.76624 15.3134 4.57672 15.5031ZM0.658875 9.85886Q0.395813 9.85886 0.197906 10.0534Q0 10.248 0 10.5177Q0 10.7808 0.197906 10.9787Q0.395813 11.1766 0.658875 11.1766L2.79068 11.1766Q3.06061 11.1766 3.25699 10.9787Q3.45337 10.7808 3.45337 10.5177Q3.45337 10.248 3.25699 10.0534Q3.06061 9.85886 2.79068 9.85886ZM4.57672 5.54214Q4.76334 5.73181 5.03952 5.73181Q5.3157 5.73181 5.50537 5.54214Q5.69504 5.35919 5.69839 5.07774Q5.70175 4.7963 5.51208 4.61349L3.99948 3.09113Q3.81958 2.90817 3.5434 2.90482Q3.26721 2.90146 3.07083 3.09113Q2.88116 3.27774 2.88116 3.55392Q2.88116 3.83011 3.06412 4.01978Z"
                     fill="#ffd60a" />
       </g>
</svg>