<svg width="22.5391" height="25.6253">
       <g>
              <rect height="25.6253" opacity="0" width="22.5391" x="0" y="0" />
              <path d="M7.42432 14.7905L9.3782 14.7905Q8.42438 14.3077 7.82745 13.3648Q7.23053 12.4219 7.23053 11.2695Q7.23053 10.1587 7.77466 9.2437Q8.31879 8.3287 9.23874 7.77969Q10.1587 7.23068 11.2695 7.23068Q12.3804 7.23068 13.2969 7.77969Q14.2134 8.3287 14.761 9.2437Q15.3085 10.1587 15.3085 11.2695Q15.3085 12.4219 14.7067 13.3648Q14.1049 14.3077 13.161 14.7905L15.108 14.7905Q15.7582 14.1039 16.1348 13.1962Q16.5114 12.2885 16.5114 11.2695Q16.5114 10.1939 16.1005 9.24194Q15.6897 8.28995 14.966 7.5663Q14.2424 6.84265 13.2938 6.43181Q12.3451 6.02097 11.2695 6.02097Q10.1939 6.02097 9.24377 6.43181Q8.29361 6.84265 7.57149 7.5663Q6.84937 8.28995 6.43852 9.24194Q6.02768 10.1939 6.02768 11.2695Q6.02768 12.2885 6.40091 13.1962Q6.77414 14.1039 7.42432 14.7905ZM0.651245 11.6287L3.49243 11.6287Q3.7764 11.6287 3.96675 11.4503Q4.1571 11.272 4.15039 11.0254Q4.14368 10.7782 3.96004 10.5968Q3.7764 10.4153 3.49243 10.4153L0.651245 10.4153Q0.370178 10.4153 0.185089 10.5937Q0 10.7721 0 11.0254Q0 11.2691 0.185089 11.4489Q0.370178 11.6287 0.651245 11.6287ZM6.23047 6.23352Q6.4006 6.05667 6.39877 5.79849Q6.39694 5.54031 6.19614 5.34256L4.18503 3.33145Q3.97827 3.13446 3.72643 3.13408Q3.47458 3.1337 3.30078 3.30383Q3.12088 3.48068 3.12271 3.73589Q3.12454 3.99109 3.3284 4.19495L5.33951 6.2059Q5.54016 6.39694 5.80025 6.40366Q6.06033 6.41037 6.23047 6.23352ZM11.2695 4.15039Q11.5131 4.15344 11.693 3.965Q11.8729 3.77655 11.8729 3.49564L11.8729 0.651245Q11.8729 0.367279 11.693 0.18364Q11.5131 0 11.2695 0Q11.0193 0 10.8427 0.18364Q10.6662 0.367279 10.6662 0.651245L10.6662 3.49564Q10.6662 3.77655 10.8427 3.9669Q11.0193 4.15726 11.2695 4.15039ZM16.3086 6.23352Q16.4787 6.41037 16.7388 6.40366Q16.9989 6.39694 17.1967 6.2059L19.2076 4.19495Q19.4145 3.99109 19.413 3.73589Q19.4115 3.48068 19.2285 3.30383Q19.0681 3.1337 18.8096 3.13408Q18.551 3.13446 18.3473 3.33145L16.3362 5.34256Q16.1421 5.54031 16.1354 5.80032Q16.1287 6.06033 16.3086 6.23352ZM19.0436 11.6287L21.8878 11.6287Q22.1719 11.6318 22.3555 11.4519Q22.5391 11.272 22.5391 11.0254Q22.5391 10.7782 22.3555 10.6017Q22.1719 10.4251 21.8878 10.4153L19.0436 10.4153Q18.7656 10.4153 18.5738 10.5937Q18.382 10.7721 18.3887 11.0254Q18.3887 11.2691 18.5771 11.4489Q18.7656 11.6287 19.0436 11.6287Z"
                     fill="rgba(255,255,255,0.55)" />
              <path d="M1.21918 15.4753L21.2862 15.4753Q21.4984 15.4753 21.6425 15.334Q21.7865 15.1927 21.7865 14.9835Q21.7865 14.7743 21.6425 14.6349Q21.4984 14.4954 21.2862 14.4954L1.21918 14.4954Q1.01364 14.4954 0.866318 14.6349Q0.718994 14.7743 0.718994 14.9835Q0.718994 15.1927 0.866318 15.334Q1.01364 15.4753 1.21918 15.4753ZM2.20703 18.7077Q2.38724 18.7077 2.52159 18.5748Q2.65594 18.4419 2.65594 18.252Q2.65594 18.065 2.52159 17.934Q2.38724 17.803 2.20703 17.803Q2.01035 17.803 1.88087 17.934Q1.7514 18.065 1.7514 18.252Q1.7514 18.4419 1.88087 18.5748Q2.01035 18.7077 2.20703 18.7077ZM6.32812 18.7077Q6.51505 18.7077 6.65092 18.5748Q6.7868 18.4419 6.7868 18.252Q6.7868 18.065 6.65092 17.934Q6.51505 17.803 6.32812 17.803Q6.1412 17.803 6.00685 17.934Q5.8725 18.065 5.8725 18.252Q5.8725 18.4419 6.00685 18.5748Q6.1412 18.7077 6.32812 18.7077ZM10.459 18.7077Q10.6392 18.7077 10.7735 18.5748Q10.9079 18.4419 10.9079 18.252Q10.9079 18.065 10.7735 17.934Q10.6392 17.803 10.459 17.803Q10.2623 17.803 10.1328 17.934Q10.0034 18.065 10.0034 18.252Q10.0034 18.4419 10.1328 18.5748Q10.2623 18.7077 10.459 18.7077ZM14.5801 18.7077Q14.767 18.7077 14.9029 18.5748Q15.0388 18.4419 15.0388 18.252Q15.0388 18.065 14.9029 17.934Q14.767 17.803 14.5801 17.803Q14.3932 17.803 14.2588 17.934Q14.1245 18.065 14.1245 18.252Q14.1245 18.4419 14.2588 18.5748Q14.3932 18.7077 14.5801 18.7077ZM18.7109 18.7077Q18.8911 18.7077 19.0255 18.5748Q19.1599 18.4419 19.1599 18.252Q19.1599 18.065 19.0255 17.934Q18.8911 17.803 18.7109 17.803Q18.5143 17.803 18.3848 17.934Q18.2553 18.065 18.2553 18.252Q18.2553 18.4419 18.3848 18.5748Q18.5143 18.7077 18.7109 18.7077ZM0.957031 21.0837Q1.14395 21.0837 1.27831 20.9478Q1.41266 20.8119 1.41266 20.6183Q1.41266 20.4381 1.27831 20.3022Q1.14395 20.1663 0.957031 20.1663Q0.770111 20.1663 0.635757 20.3022Q0.501404 20.4381 0.501404 20.6183Q0.501404 20.8119 0.635757 20.9478Q0.770111 21.0837 0.957031 21.0837ZM5.08789 21.0837Q5.2681 21.0837 5.40245 20.9478Q5.5368 20.8119 5.5368 20.6183Q5.5368 20.4381 5.40245 20.3022Q5.2681 20.1663 5.08789 20.1663Q4.8912 20.1663 4.75838 20.3022Q4.62555 20.4381 4.62555 20.6183Q4.62555 20.8119 4.75838 20.9478Q4.8912 21.0837 5.08789 21.0837ZM9.20898 21.0837Q9.3959 21.0837 9.53026 20.9478Q9.66461 20.8119 9.66461 20.6183Q9.66461 20.4381 9.53026 20.3022Q9.3959 20.1663 9.20898 20.1663Q9.01901 20.1663 8.88618 20.3022Q8.75336 20.4381 8.75336 20.6183Q8.75336 20.8119 8.88618 20.9478Q9.01901 21.0837 9.20898 21.0837ZM13.3398 21.0837Q13.5201 21.0837 13.6544 20.9478Q13.7888 20.8119 13.7888 20.6183Q13.7888 20.4381 13.6544 20.3022Q13.5201 20.1663 13.3398 20.1663Q13.1432 20.1663 13.0103 20.3022Q12.8775 20.4381 12.8775 20.6183Q12.8775 20.8119 13.0103 20.9478Q13.1432 21.0837 13.3398 21.0837ZM17.4609 21.0837Q17.6479 21.0837 17.7822 20.9478Q17.9166 20.8119 17.9166 20.6183Q17.9166 20.4381 17.7822 20.3022Q17.6479 20.1663 17.4609 20.1663Q17.271 20.1663 17.1381 20.3022Q17.0053 20.4381 17.0053 20.6183Q17.0053 20.8119 17.1381 20.9478Q17.271 21.0837 17.4609 21.0837ZM21.5918 21.0837Q21.772 21.0837 21.9064 20.9478Q22.0407 20.8119 22.0407 20.6183Q22.0407 20.4381 21.9064 20.3022Q21.772 20.1663 21.5918 20.1663Q21.3951 20.1663 21.2623 20.3022Q21.1295 20.4381 21.1295 20.6183Q21.1295 20.8119 21.2623 20.9478Q21.3951 21.0837 21.5918 21.0837ZM3.83789 23.4372Q4.02481 23.4372 4.15581 23.3028Q4.2868 23.1685 4.2868 22.9785Q4.2868 22.7916 4.15581 22.6621Q4.02481 22.5327 3.83789 22.5327Q3.64792 22.5327 3.51509 22.6621Q3.38226 22.7916 3.38226 22.9785Q3.38226 23.1685 3.51509 23.3028Q3.64792 23.4372 3.83789 23.4372ZM7.96875 23.4372Q8.1459 23.4372 8.28178 23.3028Q8.41766 23.1685 8.41766 22.9785Q8.41766 22.7916 8.28178 22.6621Q8.1459 22.5327 7.96875 22.5327Q7.77206 22.5327 7.63924 22.6621Q7.50641 22.7916 7.50641 22.9785Q7.50641 23.1685 7.63924 23.3028Q7.77206 23.4372 7.96875 23.4372ZM12.0898 23.4372Q12.2768 23.4372 12.4078 23.3028Q12.5388 23.1685 12.5388 22.9785Q12.5388 22.7916 12.4078 22.6621Q12.2768 22.5327 12.0898 22.5327Q11.8999 22.5327 11.767 22.6621Q11.6342 22.7916 11.6342 22.9785Q11.6342 23.1685 11.767 23.3028Q11.8999 23.4372 12.0898 23.4372ZM16.2207 23.4372Q16.3979 23.4372 16.5337 23.3028Q16.6696 23.1685 16.6696 22.9785Q16.6696 22.7916 16.5337 22.6621Q16.3979 22.5327 16.2207 22.5327Q16.024 22.5327 15.8912 22.6621Q15.7584 22.7916 15.7584 22.9785Q15.7584 23.1685 15.8912 23.3028Q16.024 23.4372 16.2207 23.4372ZM20.3418 23.4372Q20.5287 23.4372 20.6597 23.3028Q20.7907 23.1685 20.7907 22.9785Q20.7907 22.7916 20.6597 22.6621Q20.5287 22.5327 20.3418 22.5327Q20.1518 22.5327 20.019 22.6621Q19.8862 22.7916 19.8862 22.9785Q19.8862 23.1685 20.019 23.3028Q20.1518 23.4372 20.3418 23.4372Z"
                     fill="rgba(255,255,255,0.55)" />
       </g>
</svg>