<svg width="22.5391" height="25.437">
       <g>
              <rect height="25.437" opacity="0" width="22.5391" x="0" y="0" />
              <path d="M7.42432 14.7874L9.3782 14.7874Q8.42438 14.301 7.82745 13.3614Q7.23053 12.4219 7.23053 11.2695Q7.23053 10.1587 7.77466 9.23882Q8.31879 8.31894 9.23874 7.77481Q10.1587 7.23068 11.2695 7.23068Q12.3804 7.23068 13.2969 7.77481Q14.2134 8.31894 14.761 9.23882Q15.3085 10.1587 15.3085 11.2695Q15.3085 12.4219 14.7067 13.3614Q14.1049 14.301 13.161 14.7874L15.108 14.7874Q15.7582 14.0941 16.1348 13.1913Q16.5114 12.2885 16.5114 11.2695Q16.5114 10.1872 16.1005 9.23706Q15.6897 8.2869 14.966 7.56477Q14.2424 6.84265 13.2938 6.43181Q12.3451 6.02097 11.2695 6.02097Q10.1939 6.02097 9.24377 6.43181Q8.29361 6.84265 7.57149 7.56477Q6.84937 8.2869 6.43852 9.23706Q6.02768 10.1872 6.02768 11.2695Q6.02768 12.2885 6.40091 13.1913Q6.77414 14.0941 7.42432 14.7874ZM0.651245 11.6257L3.49243 11.6257Q3.7764 11.6257 3.96675 11.4488Q4.1571 11.272 4.15039 11.0156Q4.14368 10.7751 3.96004 10.5937Q3.7764 10.4123 3.49243 10.4123L0.651245 10.4123Q0.370178 10.4123 0.185089 10.5922Q0 10.7721 0 11.0156Q0 11.2689 0.185089 11.4473Q0.370178 11.6257 0.651245 11.6257ZM6.23047 6.23047Q6.4006 6.05362 6.39877 5.79697Q6.39694 5.54031 6.19614 5.33951L4.18503 3.3284Q3.97827 3.12775 3.72643 3.1292Q3.47458 3.13065 3.30078 3.30078Q3.12088 3.47092 3.12271 3.72948Q3.12454 3.98804 3.3284 4.18518L5.33951 6.19614Q5.54016 6.39694 5.80025 6.40213Q6.06033 6.40732 6.23047 6.23047ZM11.2695 4.15039Q11.5131 4.14368 11.693 3.95859Q11.8729 3.7735 11.8729 3.49258L11.8729 0.651245Q11.8729 0.367279 11.693 0.18364Q11.5131 0 11.2695 0Q11.0193 0 10.8427 0.18364Q10.6662 0.367279 10.6662 0.651245L10.6662 3.49258Q10.6662 3.7735 10.8427 3.9653Q11.0193 4.1571 11.2695 4.15039ZM16.3086 6.23047Q16.4787 6.4006 16.7388 6.39877Q16.9989 6.39694 17.1967 6.19614L19.2076 4.18518Q19.4145 3.98804 19.413 3.73283Q19.4115 3.47763 19.2285 3.30078Q19.0681 3.12393 18.8096 3.12584Q18.551 3.12775 18.3473 3.3284L16.3362 5.33951Q16.1421 5.54031 16.1354 5.80032Q16.1287 6.06033 16.3086 6.23047ZM19.0436 11.6257L21.8878 11.6257Q22.1719 11.6287 22.3555 11.4503Q22.5391 11.272 22.5391 11.0156Q22.5391 10.7751 22.3555 10.5968Q22.1719 10.4184 21.8878 10.4123L19.0436 10.4123Q18.7656 10.4123 18.5738 10.5922Q18.382 10.7721 18.3887 11.0156Q18.3887 11.2689 18.5771 11.4473Q18.7656 11.6257 19.0436 11.6257Z"
                     fill="rgba(255,255,255,0.55)" />
              <path d="M1.97174 15.4686L22.0389 15.4686Q22.2443 15.4686 22.3917 15.3291Q22.5391 15.1897 22.5391 14.9805Q22.5391 14.7713 22.3917 14.6333Q22.2443 14.4954 22.0389 14.4954L1.97174 14.4954Q1.75964 14.4954 1.61713 14.6333Q1.47461 14.7713 1.47461 14.9805Q1.47461 15.1897 1.61713 15.3291Q1.75964 15.4686 1.97174 15.4686ZM0.500183 19.2253L20.5643 19.2253Q20.7765 19.2253 20.9205 19.0825Q21.0645 18.9397 21.0645 18.7305Q21.0645 18.5213 20.9205 18.3833Q20.7765 18.2454 20.5643 18.2454L0.500183 18.2454Q0.2948 18.2454 0.1474 18.3833Q0 18.5213 0 18.7305Q0 18.9397 0.1474 19.0825Q0.2948 19.2253 0.500183 19.2253ZM1.97174 22.9753L22.0389 22.9753Q22.2443 22.9753 22.3917 22.8374Q22.5391 22.6994 22.5391 22.4902Q22.5391 22.281 22.3917 22.1382Q22.2443 21.9954 22.0389 21.9954L1.97174 21.9954Q1.75964 21.9954 1.61713 22.1382Q1.47461 22.281 1.47461 22.4902Q1.47461 22.6994 1.61713 22.8374Q1.75964 22.9753 1.97174 22.9753Z"
                     fill="rgba(255,255,255,0.55)" />
       </g>
</svg>