<svg width="25.0293" height="19.7809">
       <g>
              <rect height="19.7809" opacity="0" width="25.0293" x="0" y="0" />
              <path d="M8.67432 14.7942L10.6282 14.7942Q9.67438 14.3076 9.0741 13.3647Q8.47382 12.4219 8.47382 11.2695Q8.47382 10.1587 9.0213 9.24362Q9.56879 8.32855 10.4872 7.77954Q11.4056 7.23053 12.5195 7.23053Q13.6237 7.23053 14.5421 7.77954Q15.4605 8.32855 16.008 9.24362Q16.5555 10.1587 16.5555 11.2695Q16.5555 12.4219 15.9552 13.3647Q15.3549 14.3076 14.4012 14.7942L16.355 14.7942Q17.0082 14.1039 17.3814 13.1962Q17.7547 12.2885 17.7547 11.2695Q17.7547 10.1939 17.3472 9.2453Q16.9397 8.29666 16.2127 7.56966Q15.4857 6.84265 14.537 6.43181Q13.5884 6.02097 12.5195 6.02097Q11.4409 6.02097 10.4922 6.43181Q9.54361 6.84265 8.8166 7.56966Q8.0896 8.29666 7.68211 9.2453Q7.27463 10.1939 7.27463 11.2695Q7.27463 12.2885 7.64786 13.1962Q8.02109 14.1039 8.67432 14.7942ZM1.89819 11.6287L4.74243 11.6287Q5.02945 11.6287 5.21492 11.4488Q5.40039 11.2689 5.40039 11.0254Q5.39368 10.7721 5.21004 10.5937Q5.0264 10.4153 4.74243 10.4153L1.89819 10.4153Q1.62018 10.4153 1.43509 10.5937Q1.25 10.7721 1.25 11.0254Q1.25 11.2689 1.43509 11.4488Q1.62018 11.6287 1.89819 11.6287ZM7.48047 6.24023Q7.6506 6.06339 7.64725 5.80185Q7.64389 5.54031 7.44614 5.34256L5.43503 3.33145Q5.22827 3.13446 4.97643 3.13408Q4.72458 3.1337 4.55078 3.31055Q4.37088 3.48068 4.37126 3.73589Q4.37164 3.99109 4.5784 4.19479L6.58951 6.2059Q6.78345 6.39694 7.04689 6.40366Q7.31033 6.41037 7.48047 6.24023ZM17.5488 6.24023Q17.7257 6.41037 17.9858 6.40366Q18.2458 6.39694 18.4398 6.2059L20.4509 4.19479Q20.6577 3.99109 20.658 3.73924Q20.6584 3.4874 20.4785 3.31055Q20.3114 3.1337 20.0562 3.13408Q19.801 3.13446 19.5943 3.33145L17.5832 5.34256Q17.3854 5.54031 17.3787 5.80032Q17.372 6.06033 17.5488 6.24023ZM20.2869 11.6287L23.1311 11.6287Q23.4122 11.6287 23.5957 11.4488Q23.7793 11.2689 23.7793 11.0254Q23.7793 10.7721 23.5957 10.5937Q23.4122 10.4153 23.1311 10.4153L20.2869 10.4153Q20.0127 10.4153 19.8208 10.5937Q19.6289 10.7721 19.6289 11.0254Q19.6356 11.2689 19.8241 11.4488Q20.0127 11.6287 20.2869 11.6287ZM12.5195 4.15039Q12.7631 4.15039 12.9414 3.96347Q13.1198 3.77655 13.1198 3.49548L13.1198 0.651245Q13.1198 0.367126 12.9414 0.183563Q12.7631 0 12.5195 0Q12.2662 0 12.0879 0.183563Q11.9095 0.367126 11.9095 0.651245L11.9095 3.49548Q11.9095 3.77655 12.0879 3.96683Q12.2662 4.1571 12.5195 4.15039Z"
                     fill="rgba(255,255,255,0.55)" />
              <path d="M0.652771 15.6953L24.3765 15.6953Q24.6396 15.6953 24.8344 15.5203Q25.0293 15.3453 25.0293 15.0987Q25.0293 14.8521 24.8344 14.6738Q24.6396 14.4954 24.3765 14.4954L0.652771 14.4954Q0.389709 14.4954 0.194855 14.6738Q0 14.8521 0 15.0987Q0 15.3453 0.194855 15.5203Q0.389709 15.6953 0.652771 15.6953Z"
                     fill="rgba(255,255,255,0.55)" />
       </g>
</svg>