<svg width="25.0293" height="19.8154">
       <g>
              <rect height="19.8154" opacity="0" width="25.0293" x="0" y="0" />
              <path d="M17.7028 11.2569Q17.7028 10.191 17.2968 9.25217Q16.8909 8.31329 16.177 7.59598Q15.4631 6.87866 14.5242 6.46782Q13.5854 6.05698 12.5195 6.05698Q11.4439 6.05698 10.5051 6.46782Q9.56619 6.87866 8.85231 7.59598Q8.13843 8.31329 7.73247 9.25217Q7.32651 10.191 7.32651 11.2569Q7.32651 11.8628 7.47025 12.4327Q7.61398 13.0026 7.88269 13.5069L17.1466 13.5069Q17.4153 13.0026 17.5591 12.4327Q17.7028 11.8628 17.7028 11.2569ZM1.89819 11.6258L4.74243 11.6258Q5.02945 11.6258 5.21492 11.4459Q5.40039 11.266 5.40039 11.0225Q5.39368 10.7721 5.21004 10.5923Q5.0264 10.4124 4.74243 10.4124L1.89819 10.4124Q1.62018 10.4124 1.43509 10.5923Q1.25 10.7721 1.25 11.0225Q1.25 11.266 1.43509 11.4459Q1.62018 11.6258 1.89819 11.6258ZM6.58951 6.20285Q6.78345 6.39389 7.04689 6.4006Q7.31033 6.40732 7.48047 6.23734Q7.6506 6.06049 7.64725 5.8004Q7.64389 5.54031 7.44614 5.33951L5.43503 3.32855Q5.22827 3.12164 4.97643 3.12622Q4.72458 3.1308 4.55078 3.30765Q4.37088 3.47763 4.37126 3.73131Q4.37164 3.98499 4.5784 4.19189ZM17.5488 6.23734Q17.7257 6.40732 17.9858 6.4006Q18.2458 6.39389 18.4398 6.20285L20.4509 4.19189Q20.6577 3.98499 20.658 3.73474Q20.6584 3.4845 20.4785 3.30765Q20.3114 3.1308 20.0562 3.12622Q19.801 3.12164 19.5943 3.32855L17.5832 5.33951Q17.3854 5.54031 17.3787 5.8004Q17.372 6.06049 17.5488 6.23734ZM20.2869 11.6258L23.1311 11.6258Q23.4122 11.6258 23.5957 11.4459Q23.7793 11.266 23.7793 11.0225Q23.7793 10.7721 23.5957 10.5923Q23.4122 10.4124 23.1311 10.4124L20.2869 10.4124Q20.0127 10.4124 19.8208 10.5923Q19.6289 10.7721 19.6289 11.0225Q19.6356 11.266 19.8241 11.4459Q20.0127 11.6258 20.2869 11.6258ZM12.5195 4.15039Q12.7631 4.15039 12.9414 3.96194Q13.1198 3.7735 13.1198 3.49258L13.1198 0.648193Q13.1198 0.367279 12.9414 0.18364Q12.7631 0 12.5195 0Q12.2662 0 12.0879 0.18364Q11.9095 0.367279 11.9095 0.648193L11.9095 3.49258Q11.9095 3.7735 12.0879 3.96538Q12.2662 4.15726 12.5195 4.15039Z"
                     fill="#ffd60a" />
              <path d="M0.652771 15.7126L24.3765 15.7126Q24.6396 15.7126 24.8344 15.5376Q25.0293 15.3625 25.0293 15.116Q25.0293 14.8694 24.8344 14.691Q24.6396 14.5126 24.3765 14.5126L0.652771 14.5126Q0.389709 14.5126 0.194855 14.691Q0 14.8694 0 15.116Q0 15.3625 0.194855 15.5376Q0.389709 15.7126 0.652771 15.7126Z"
                     fill="#ffffff" />
       </g>
</svg>