<svg width="22.5391" height="25.6628">
       <g>
              <rect height="25.6628" opacity="0" width="22.5391" x="0" y="0" />
              <path d="M16.4626 11.2598Q16.4626 10.1939 16.0566 9.25507Q15.6506 8.31619 14.9334 7.59888Q14.2162 6.88156 13.2758 6.47072Q12.3354 6.05988 11.2695 6.05988Q10.2037 6.05988 9.26331 6.47072Q8.32291 6.88156 7.60567 7.59888Q6.88843 8.31619 6.48247 9.25507Q6.07651 10.1939 6.07651 11.2598Q6.07651 11.8658 6.22513 12.4319Q6.37375 12.998 6.62582 13.4927L15.9064 13.4927Q16.1653 12.998 16.3139 12.4319Q16.4626 11.8658 16.4626 11.2598ZM0.651245 11.6257L3.49243 11.6257Q3.7764 11.6257 3.96675 11.4488Q4.1571 11.272 4.15039 11.0254Q4.14368 10.7751 3.96004 10.5986Q3.7764 10.4221 3.49243 10.4221L0.651245 10.4221Q0.370178 10.4221 0.185089 10.5971Q0 10.7721 0 11.0254Q0 11.2689 0.185089 11.4473Q0.370178 11.6257 0.651245 11.6257ZM6.23047 6.24023Q6.4006 6.06033 6.39877 5.80025Q6.39694 5.54016 6.19614 5.34241L4.18503 3.33145Q3.97827 3.13431 3.72643 3.13248Q3.47458 3.13065 3.30078 3.31055Q3.12088 3.48068 3.12271 3.73581Q3.12454 3.99094 3.3284 4.19174L5.33951 6.20285Q5.54016 6.39679 5.80025 6.40694Q6.06033 6.41708 6.23047 6.24023ZM11.2695 4.15039Q11.5131 4.15039 11.693 3.96339Q11.8729 3.7764 11.8729 3.49548L11.8729 0.651093Q11.8729 0.37384 11.693 0.18692Q11.5131 0 11.2695 0Q11.0193 0 10.8427 0.18692Q10.6662 0.37384 10.6662 0.651093L10.6662 3.49548Q10.6662 3.7764 10.8427 3.96675Q11.0193 4.1571 11.2695 4.15039ZM16.3086 6.24023Q16.4787 6.41037 16.7388 6.40358Q16.9989 6.39679 17.1967 6.20285L19.2076 4.19174Q19.4145 3.99094 19.413 3.73917Q19.4115 3.4874 19.2285 3.31055Q19.0681 3.13065 18.8096 3.13248Q18.551 3.13431 18.3473 3.33145L16.3362 5.34241Q16.1421 5.54016 16.1354 5.80025Q16.1287 6.06033 16.3086 6.24023ZM19.0436 11.6257L21.8878 11.6257Q22.1719 11.6287 22.3555 11.4503Q22.5391 11.272 22.5391 11.0254Q22.5391 10.7751 22.3555 10.6001Q22.1719 10.4251 21.8878 10.4221L19.0436 10.4221Q18.7656 10.4221 18.5738 10.5971Q18.382 10.7721 18.3887 11.0254Q18.3887 11.2689 18.5771 11.4473Q18.7656 11.6257 19.0436 11.6257Z"
                     fill="#ffd60a" />
              <path d="M1.21918 15.4753L21.2862 15.4753Q21.4984 15.4753 21.6425 15.3358Q21.7865 15.1964 21.7865 14.9902Q21.7865 14.781 21.6425 14.6382Q21.4984 14.4954 21.2862 14.4954L1.21918 14.4954Q1.01364 14.4954 0.866318 14.6382Q0.718994 14.781 0.718994 14.9902Q0.718994 15.1964 0.866318 15.3358Q1.01364 15.4753 1.21918 15.4753ZM2.20703 18.7076Q2.38724 18.7076 2.52159 18.5781Q2.65594 18.4486 2.65594 18.252Q2.65594 18.065 2.52159 17.934Q2.38724 17.803 2.20703 17.803Q2.01035 17.803 1.88087 17.934Q1.7514 18.065 1.7514 18.252Q1.7514 18.4486 1.88087 18.5781Q2.01035 18.7076 2.20703 18.7076ZM6.32812 18.7076Q6.51505 18.7076 6.65092 18.5781Q6.7868 18.4486 6.7868 18.252Q6.7868 18.065 6.65092 17.934Q6.51505 17.803 6.32812 17.803Q6.1412 17.803 6.00685 17.934Q5.8725 18.065 5.8725 18.252Q5.8725 18.4486 6.00685 18.5781Q6.1412 18.7076 6.32812 18.7076ZM10.459 18.7076Q10.6392 18.7076 10.7735 18.5781Q10.9079 18.4486 10.9079 18.252Q10.9079 18.065 10.7735 17.934Q10.6392 17.803 10.459 17.803Q10.2623 17.803 10.1328 17.934Q10.0034 18.065 10.0034 18.252Q10.0034 18.4486 10.1328 18.5781Q10.2623 18.7076 10.459 18.7076ZM14.5801 18.7076Q14.767 18.7076 14.9029 18.5781Q15.0388 18.4486 15.0388 18.252Q15.0388 18.065 14.9029 17.934Q14.767 17.803 14.5801 17.803Q14.3932 17.803 14.2588 17.934Q14.1245 18.065 14.1245 18.252Q14.1245 18.4486 14.2588 18.5781Q14.3932 18.7076 14.5801 18.7076ZM18.7109 18.7076Q18.8911 18.7076 19.0255 18.5781Q19.1599 18.4486 19.1599 18.252Q19.1599 18.065 19.0255 17.934Q18.8911 17.803 18.7109 17.803Q18.5143 17.803 18.3848 17.934Q18.2553 18.065 18.2553 18.252Q18.2553 18.4486 18.3848 18.5781Q18.5143 18.7076 18.7109 18.7076ZM0.957031 21.0837Q1.14395 21.0837 1.27831 20.9478Q1.41266 20.8119 1.41266 20.6219Q1.41266 20.4381 1.27831 20.3022Q1.14395 20.1663 0.957031 20.1663Q0.770111 20.1663 0.635757 20.3022Q0.501404 20.4381 0.501404 20.6219Q0.501404 20.8119 0.635757 20.9478Q0.770111 21.0837 0.957031 21.0837ZM5.08789 21.0837Q5.2681 21.0837 5.40245 20.9478Q5.5368 20.8119 5.5368 20.6219Q5.5368 20.4381 5.40245 20.3022Q5.2681 20.1663 5.08789 20.1663Q4.8912 20.1663 4.75838 20.3022Q4.62555 20.4381 4.62555 20.6219Q4.62555 20.8119 4.75838 20.9478Q4.8912 21.0837 5.08789 21.0837ZM9.20898 21.0837Q9.3959 21.0837 9.53026 20.9478Q9.66461 20.8119 9.66461 20.6219Q9.66461 20.4381 9.53026 20.3022Q9.3959 20.1663 9.20898 20.1663Q9.01901 20.1663 8.88618 20.3022Q8.75336 20.4381 8.75336 20.6219Q8.75336 20.8119 8.88618 20.9478Q9.01901 21.0837 9.20898 21.0837ZM13.3398 21.0837Q13.5201 21.0837 13.6544 20.9478Q13.7888 20.8119 13.7888 20.6219Q13.7888 20.4381 13.6544 20.3022Q13.5201 20.1663 13.3398 20.1663Q13.1432 20.1663 13.0103 20.3022Q12.8775 20.4381 12.8775 20.6219Q12.8775 20.8119 13.0103 20.9478Q13.1432 21.0837 13.3398 21.0837ZM17.4609 21.0837Q17.6479 21.0837 17.7822 20.9478Q17.9166 20.8119 17.9166 20.6219Q17.9166 20.4381 17.7822 20.3022Q17.6479 20.1663 17.4609 20.1663Q17.271 20.1663 17.1381 20.3022Q17.0053 20.4381 17.0053 20.6219Q17.0053 20.8119 17.1381 20.9478Q17.271 21.0837 17.4609 21.0837ZM21.5918 21.0837Q21.772 21.0837 21.9064 20.9478Q22.0407 20.8119 22.0407 20.6219Q22.0407 20.4381 21.9064 20.3022Q21.772 20.1663 21.5918 20.1663Q21.3951 20.1663 21.2623 20.3022Q21.1295 20.4381 21.1295 20.6219Q21.1295 20.8119 21.2623 20.9478Q21.3951 21.0837 21.5918 21.0837ZM3.83789 23.4372Q4.02481 23.4372 4.15581 23.3013Q4.2868 23.1654 4.2868 22.9785Q4.2868 22.7916 4.15581 22.6621Q4.02481 22.5327 3.83789 22.5327Q3.64792 22.5327 3.51509 22.6621Q3.38226 22.7916 3.38226 22.9785Q3.38226 23.1654 3.51509 23.3013Q3.64792 23.4372 3.83789 23.4372ZM7.96875 23.4372Q8.1459 23.4372 8.28178 23.3013Q8.41766 23.1654 8.41766 22.9785Q8.41766 22.7916 8.28178 22.6621Q8.1459 22.5327 7.96875 22.5327Q7.77206 22.5327 7.63924 22.6621Q7.50641 22.7916 7.50641 22.9785Q7.50641 23.1654 7.63924 23.3013Q7.77206 23.4372 7.96875 23.4372ZM12.0898 23.4372Q12.2768 23.4372 12.4078 23.3013Q12.5388 23.1654 12.5388 22.9785Q12.5388 22.7916 12.4078 22.6621Q12.2768 22.5327 12.0898 22.5327Q11.8999 22.5327 11.767 22.6621Q11.6342 22.7916 11.6342 22.9785Q11.6342 23.1654 11.767 23.3013Q11.8999 23.4372 12.0898 23.4372ZM16.2207 23.4372Q16.3979 23.4372 16.5337 23.3013Q16.6696 23.1654 16.6696 22.9785Q16.6696 22.7916 16.5337 22.6621Q16.3979 22.5327 16.2207 22.5327Q16.024 22.5327 15.8912 22.6621Q15.7584 22.7916 15.7584 22.9785Q15.7584 23.1654 15.8912 23.3013Q16.024 23.4372 16.2207 23.4372ZM20.3418 23.4372Q20.5287 23.4372 20.6597 23.3013Q20.7907 23.1654 20.7907 22.9785Q20.7907 22.7916 20.6597 22.6621Q20.5287 22.5327 20.3418 22.5327Q20.1518 22.5327 20.019 22.6621Q19.8862 22.7916 19.8862 22.9785Q19.8862 23.1654 20.019 23.3013Q20.1518 23.4372 20.3418 23.4372Z"
                     fill="#ffffff" />
       </g>
</svg>