<svg width="22.5391" height="25.5151">
       <g>
              <rect height="25.5151" opacity="0" width="22.5391" x="0" y="0" />
              <path d="M16.4626 11.2598Q16.4626 10.1939 16.0566 9.25171Q15.6506 8.30948 14.9334 7.59071Q14.2162 6.87195 13.2758 6.46599Q12.3354 6.06003 11.2695 6.06003Q10.2037 6.06003 9.26331 6.46599Q8.32291 6.87195 7.60567 7.59071Q6.88843 8.30948 6.48247 9.25171Q6.07651 10.1939 6.07651 11.2598Q6.07651 11.8591 6.22513 12.4271Q6.37375 12.9951 6.62582 13.4929L15.9064 13.4929Q16.1653 12.9951 16.3139 12.4271Q16.4626 11.8591 16.4626 11.2598ZM0.651245 11.6257L3.49243 11.6257Q3.7764 11.6257 3.96675 11.4488Q4.1571 11.272 4.15039 11.0156Q4.14368 10.7751 3.96004 10.5952Q3.7764 10.4153 3.49243 10.4153L0.651245 10.4153Q0.370178 10.4153 0.185089 10.5937Q0 10.7721 0 11.0156Q0 11.2689 0.185089 11.4473Q0.370178 11.6257 0.651245 11.6257ZM6.23047 6.23047Q6.4006 6.05362 6.39877 5.79697Q6.39694 5.54031 6.19614 5.34256L4.18503 3.33145Q3.97827 3.12775 3.72643 3.1292Q3.47458 3.13065 3.30078 3.30078Q3.12088 3.48068 3.12271 3.73589Q3.12454 3.99109 3.3284 4.19189L5.33951 6.20285Q5.54016 6.39694 5.80025 6.40213Q6.06033 6.40732 6.23047 6.23047ZM11.2695 4.15039Q11.5131 4.14368 11.693 3.95859Q11.8729 3.7735 11.8729 3.49548L11.8729 0.651245Q11.8729 0.367279 11.693 0.18364Q11.5131 0 11.2695 0Q11.0193 0 10.8427 0.18364Q10.6662 0.367279 10.6662 0.651245L10.6662 3.49548Q10.6662 3.7735 10.8427 3.9653Q11.0193 4.1571 11.2695 4.15039ZM16.3086 6.23047Q16.4787 6.40732 16.7388 6.40213Q16.9989 6.39694 17.1967 6.20285L19.2076 4.19189Q19.4145 3.99109 19.413 3.73436Q19.4115 3.47763 19.2285 3.30078Q19.0681 3.12393 18.8096 3.12584Q18.551 3.12775 18.3473 3.33145L16.3362 5.34256Q16.1421 5.54031 16.1354 5.80032Q16.1287 6.06033 16.3086 6.23047ZM19.0436 11.6257L21.8878 11.6257Q22.1719 11.6287 22.3555 11.4503Q22.5391 11.272 22.5391 11.0156Q22.5391 10.7751 22.3555 10.5968Q22.1719 10.4184 21.8878 10.4153L19.0436 10.4153Q18.7656 10.4153 18.5738 10.5937Q18.382 10.7721 18.3887 11.0156Q18.3887 11.2689 18.5771 11.4473Q18.7656 11.6257 19.0436 11.6257Z"
                     fill="#ffd60a" />
              <path d="M1.97174 15.4753L22.0389 15.4753Q22.2443 15.4753 22.3917 15.3325Q22.5391 15.1897 22.5391 14.9805Q22.5391 14.7713 22.3917 14.6333Q22.2443 14.4954 22.0389 14.4954L1.97174 14.4954Q1.75964 14.4954 1.61713 14.6333Q1.47461 14.7713 1.47461 14.9805Q1.47461 15.1897 1.61713 15.3325Q1.75964 15.4753 1.97174 15.4753ZM0.500183 19.2253L20.5643 19.2253Q20.7765 19.2253 20.9205 19.0874Q21.0645 18.9494 21.0645 18.7402Q21.0645 18.531 20.9205 18.3882Q20.7765 18.2454 20.5643 18.2454L0.500183 18.2454Q0.2948 18.2454 0.1474 18.3882Q0 18.531 0 18.7402Q0 18.9494 0.1474 19.0874Q0.2948 19.2253 0.500183 19.2253ZM1.97174 22.9753L22.0389 22.9753Q22.2443 22.9753 22.3917 22.8374Q22.5391 22.6994 22.5391 22.4902Q22.5391 22.281 22.3917 22.1416Q22.2443 22.0023 22.0389 22.0023L1.97174 22.0023Q1.75964 22.0023 1.61713 22.1416Q1.47461 22.281 1.47461 22.4902Q1.47461 22.6994 1.61713 22.8374Q1.75964 22.9753 1.97174 22.9753Z"
                     fill="#ffffff" />
       </g>
</svg>