<svg width="25.0293" height="24.2346">
       <g>
              <rect height="24.2346" opacity="0" width="25.0293" x="0" y="0" />
              <path d="M17.7028 15.3923Q17.7028 14.3265 17.2968 13.3876Q16.8909 12.4487 16.177 11.73Q15.4631 11.0112 14.5242 10.6052Q13.5854 10.1993 12.5195 10.1993Q11.4439 10.1993 10.5051 10.6052Q9.56619 11.0112 8.85231 11.73Q8.13843 12.4487 7.73247 13.3876Q7.32651 14.3265 7.32651 15.3923Q7.32651 16.0051 7.47025 16.5716Q7.61398 17.1381 7.88269 17.6425L17.1466 17.6425Q17.4153 17.1381 17.5591 16.5716Q17.7028 16.0051 17.7028 15.3923ZM1.89819 15.7582L4.74243 15.7582Q5.02945 15.7582 5.21492 15.5832Q5.40039 15.4082 5.40039 15.1579Q5.39368 14.9113 5.21004 14.733Q5.0264 14.5546 4.74243 14.5546L1.89819 14.5546Q1.62018 14.5546 1.43509 14.733Q1.25 14.9113 1.25 15.1579Q1.25 15.4082 1.43509 15.5832Q1.62018 15.7582 1.89819 15.7582ZM6.58951 10.3354Q6.78345 10.5362 7.04689 10.5429Q7.31033 10.5496 7.48047 10.3697Q7.6506 10.1929 7.64725 9.93286Q7.64389 9.67285 7.44614 9.48181L5.43503 7.4707Q5.22827 7.26685 4.97643 7.26837Q4.72458 7.2699 4.55078 7.44308Q4.37088 7.61322 4.37126 7.86842Q4.37164 8.12363 4.5784 8.32428ZM17.5488 10.3697Q17.7257 10.5429 17.9858 10.5396Q18.2458 10.5362 18.4398 10.3354L20.4509 8.32428Q20.6577 8.12363 20.658 7.87178Q20.6584 7.61993 20.4785 7.44308Q20.3114 7.26318 20.0562 7.26501Q19.801 7.26685 19.5943 7.4707L17.5832 9.48181Q17.3854 9.67285 17.3787 9.93622Q17.372 10.1996 17.5488 10.3697ZM20.2869 15.7582L23.1311 15.7582Q23.4122 15.7582 23.5957 15.5832Q23.7793 15.4082 23.7793 15.1579Q23.7793 14.9113 23.5957 14.733Q23.4122 14.5546 23.1311 14.5546L20.2869 14.5546Q20.0127 14.5546 19.8208 14.733Q19.6289 14.9113 19.6289 15.1579Q19.6356 15.4082 19.8241 15.5832Q20.0127 15.7582 20.2869 15.7582Z"
                     fill="#ffd60a" />
              <path d="M0.652771 19.848L24.3765 19.848Q24.6396 19.848 24.8344 19.6731Q25.0293 19.4981 25.0293 19.2516Q25.0293 19.0019 24.8344 18.8284Q24.6396 18.6549 24.3765 18.6549L0.652771 18.6549Q0.389709 18.6549 0.194855 18.8284Q0 19.0019 0 19.2516Q0 19.4981 0.194855 19.6731Q0.389709 19.848 0.652771 19.848ZM12.5195 7.6358Q12.7661 7.6358 12.946 7.44728Q13.1259 7.25876 13.1259 6.98532L13.1259 3.14758L13.0359 1.56403L13.8887 2.49695L15.2669 3.90076Q15.3531 3.98026 15.4595 4.03008Q15.5659 4.0799 15.6725 4.0799Q15.8989 4.0799 16.05 3.93219Q16.201 3.78448 16.201 3.55881Q16.201 3.42987 16.15 3.32893Q16.0989 3.228 15.9999 3.12607L12.9288 0.196381Q12.7122 0 12.5195 0Q12.317 0 12.1005 0.196381L9.02939 3.12607Q8.93036 3.228 8.87932 3.32893Q8.82828 3.42987 8.82828 3.55881Q8.82828 3.78448 8.97934 3.93219Q9.1304 4.0799 9.35684 4.0799Q9.46335 4.0799 9.56978 4.03008Q9.67621 3.98026 9.76242 3.90076L11.2048 2.43271L11.9934 1.56403L11.9034 3.14758L11.9034 6.98532Q11.9034 7.25876 12.0833 7.44728Q12.2632 7.6358 12.5195 7.6358Z"
                     fill="#ffffff" />
       </g>
</svg>