<svg width="25.0293" height="24.2346">
       <g>
              <rect height="24.2346" opacity="0" width="25.0293" x="0" y="0" />
              <path d="M8.67432 18.9468L10.6282 18.9468Q9.67438 18.4604 9.0741 17.5175Q8.47382 16.5747 8.47382 15.4291Q8.47382 14.3182 9.0213 13.3983Q9.56879 12.4783 10.4872 11.9308Q11.4056 11.3834 12.5195 11.3834Q13.6237 11.3834 14.5421 11.9308Q15.4605 12.4783 16.008 13.3983Q16.5555 14.3182 16.5555 15.4291Q16.5555 16.5747 15.9552 17.5175Q15.3549 18.4604 14.4012 18.9468L16.355 18.9468Q17.0082 18.2535 17.3814 17.3507Q17.7547 16.4479 17.7547 15.4291Q17.7547 14.3468 17.3472 13.3966Q16.9397 12.4464 16.2127 11.7242Q15.4857 11.002 14.537 10.5912Q13.5884 10.1804 12.5195 10.1804Q11.4409 10.1804 10.4922 10.5912Q9.54361 11.002 8.8166 11.7242Q8.0896 12.4464 7.68211 13.3966Q7.27463 14.3468 7.27463 15.4291Q7.27463 16.4479 7.64786 17.3507Q8.02109 18.2535 8.67432 18.9468ZM1.89819 15.7785L4.74243 15.7785Q5.02945 15.7785 5.21492 15.6035Q5.40039 15.4285 5.40039 15.1752Q5.39368 14.9316 5.21004 14.7533Q5.0264 14.5749 4.74243 14.5749L1.89819 14.5749Q1.62018 14.5749 1.43509 14.7533Q1.25 14.9316 1.25 15.1752Q1.25 15.4285 1.43509 15.6035Q1.62018 15.7785 1.89819 15.7785ZM7.48047 10.39Q7.6506 10.2132 7.64725 9.95308Q7.64389 9.69299 7.44614 9.4989L5.43503 7.48795Q5.22827 7.28714 4.97643 7.28867Q4.72458 7.29019 4.55078 7.46033Q4.37088 7.63046 4.37126 7.88559Q4.37164 8.14072 4.5784 8.34457L6.58951 10.3555Q6.78345 10.5563 7.04689 10.5616Q7.31033 10.5669 7.48047 10.39ZM17.5488 10.39Q17.7257 10.5602 17.9858 10.5582Q18.2458 10.5563 18.4398 10.3555L20.4509 8.34457Q20.6577 8.14072 20.658 7.88895Q20.6584 7.63718 20.4785 7.46033Q20.3114 7.28348 20.0562 7.28531Q19.801 7.28714 19.5943 7.48795L17.5832 9.4989Q17.3854 9.69299 17.3787 9.95644Q17.372 10.2199 17.5488 10.39ZM20.2869 15.7785L23.1311 15.7785Q23.4122 15.7785 23.5957 15.6035Q23.7793 15.4285 23.7793 15.1752Q23.7793 14.9316 23.5957 14.7533Q23.4122 14.5749 23.1311 14.5749L20.2869 14.5749Q20.0127 14.5749 19.8208 14.7533Q19.6289 14.9316 19.6289 15.1752Q19.6356 15.4285 19.8241 15.6035Q20.0127 15.7785 20.2869 15.7785Z"
                     fill="rgba(255,255,255,0.55)" />
              <path d="M0.652771 19.848L24.3765 19.848Q24.6396 19.848 24.8344 19.6731Q25.0293 19.4981 25.0293 19.2516Q25.0293 19.0019 24.8344 18.8284Q24.6396 18.6549 24.3765 18.6549L0.652771 18.6549Q0.389709 18.6549 0.194855 18.8284Q0 19.0019 0 19.2516Q0 19.4981 0.194855 19.6731Q0.389709 19.848 0.652771 19.848ZM12.5195 0Q12.2632 0 12.0833 0.191879Q11.9034 0.383759 11.9034 0.657196L11.9034 4.48822L11.9934 6.07178L11.2048 5.20309L9.76242 3.74176Q9.67621 3.65555 9.56978 3.60909Q9.46335 3.56262 9.35684 3.56262Q9.1304 3.56262 8.97934 3.70697Q8.82828 3.85132 8.82828 4.08371Q8.82828 4.21265 8.87932 4.31358Q8.93036 4.41452 9.02939 4.50974L12.1005 7.43942Q12.317 7.6358 12.5195 7.6358Q12.7122 7.6358 12.9288 7.43942L15.9999 4.50974Q16.0989 4.41452 16.15 4.31358Q16.201 4.21265 16.201 4.08371Q16.201 3.85132 16.05 3.70697Q15.8989 3.56262 15.6725 3.56262Q15.5659 3.56262 15.4595 3.60909Q15.3531 3.65555 15.2669 3.74176L13.8887 5.13885L13.0359 6.07178L13.1259 4.48822L13.1259 0.657196Q13.1259 0.383759 12.946 0.191879Q12.7661 0 12.5195 0Z"
                     fill="rgba(255,255,255,0.55)" />
       </g>
</svg>