<svg width="13.7383" height="21.2589">
       <g>
              <rect height="21.2589" opacity="0" width="13.7383" x="0" y="0" />
              <path d="M2.85477 21.2589L10.8833 21.2589Q12.3032 21.2589 13.0207 20.5379Q13.7383 19.817 13.7383 18.3838L13.7383 2.88712Q13.7383 1.46362 13.0207 0.736008Q12.3032 0.00839233 10.8833 0.00839233L2.85477 0.00839233Q1.43494 0.00839233 0.717468 0.736008Q0 1.46362 0 2.88712L0 18.3838Q0 19.817 0.717468 20.5379Q1.43494 21.2589 2.85477 21.2589Z"
                     fill="rgba(255,255,255,0.55)" />
              <path d="M3.28064 8.61343Q2.7507 8.61343 2.49985 8.36594Q2.24899 8.11844 2.24899 7.59216L2.24899 3.21793Q2.24899 2.68799 2.49985 2.4424Q2.7507 2.19681 3.28064 2.19681L10.4239 2.19681Q10.9636 2.19681 11.2144 2.4424Q11.4653 2.68799 11.4653 3.21793L11.4653 7.59216Q11.4653 8.11844 11.2144 8.36594Q10.9636 8.61343 10.4239 8.61343ZM3.28064 19.0741Q2.7507 19.0741 2.49985 18.83Q2.24899 18.586 2.24899 18.053L2.24899 13.6787Q2.24899 13.1525 2.49985 12.905Q2.7507 12.6576 3.28064 12.6576L10.4239 12.6576Q10.9636 12.6576 11.2144 12.905Q11.4653 13.1525 11.4653 13.6787L11.4653 18.053Q11.4653 18.586 11.2144 18.83Q10.9636 19.0741 10.4239 19.0741Z"
                     fill="#ffffff" />
       </g>
</svg>