<svg width="19.5898" height="19.5996">
       <g>
              <rect height="19.5996" opacity="0" width="19.5898" x="0" y="0" />
              <path d="M9.79492 19.5898Q11.8066 19.5898 13.5791 18.8232Q15.3516 18.0566 16.7041 16.7041Q18.0566 15.3516 18.8232 13.5791Q19.5898 11.8066 19.5898 9.79492Q19.5898 7.7832 18.8232 6.01074Q18.0566 4.23828 16.7041 2.88574Q15.3516 1.5332 13.5742 0.766602Q11.7969 0 9.78516 0Q7.77344 0 6.00098 0.766602Q4.22852 1.5332 2.88086 2.88574Q1.5332 4.23828 0.766602 6.01074Q0 7.7832 0 9.79492Q0 11.8066 0.766602 13.5791Q1.5332 15.3516 2.88574 16.7041Q4.23828 18.0566 6.01074 18.8232Q7.7832 19.5898 9.79492 19.5898Z"
                     fill="rgba(255,255,255,0.55)" />
              <path d="M9.75586 14.3555Q9.46289 14.3555 9.30176 14.165Q9.14062 13.9746 9.14062 13.6621L9.14062 6.31836L6.58203 6.31836Q6.35742 6.31836 6.20605 6.17676Q6.05469 6.03516 6.05469 5.79102Q6.05469 5.55664 6.20605 5.41504Q6.35742 5.27344 6.58203 5.27344L12.998 5.27344Q13.2324 5.27344 13.3838 5.41504Q13.5352 5.55664 13.5352 5.79102Q13.5352 6.03516 13.3838 6.17676Q13.2324 6.31836 12.998 6.31836L10.3809 6.31836L10.3809 13.6621Q10.3809 13.9844 10.2197 14.1699Q10.0586 14.3555 9.75586 14.3555Z"
                     fill="#ffffff" />
       </g>
</svg>