<svg width="17.6855" height="17.7051">
       <g>
              <rect height="17.7051" opacity="0" width="17.6855" x="0" y="0" />
              <path d="M2.88086 17.7051L14.8047 17.7051Q16.2305 17.7051 16.958 16.9873Q17.6855 16.2695 17.6855 14.8535L17.6855 2.88086Q17.6855 1.46484 16.958 0.742188Q16.2305 0.0195312 14.8047 0.0195312L2.88086 0.0195312Q1.44531 0.0195312 0.722656 0.737305Q0 1.45508 0 2.88086L0 14.8535Q0 16.2695 0.722656 16.9873Q1.44531 17.7051 2.88086 17.7051Z"
                     fill="rgba(255,255,255,0.55)" />
              <path d="M8.80859 13.4082Q8.51562 13.4082 8.35449 13.2178Q8.19336 13.0273 8.19336 12.7148L8.19336 5.37109L5.63477 5.37109Q5.41016 5.37109 5.25879 5.22949Q5.10742 5.08789 5.10742 4.84375Q5.10742 4.60938 5.25879 4.46777Q5.41016 4.32617 5.63477 4.32617L12.0508 4.32617Q12.2852 4.32617 12.4365 4.46777Q12.5879 4.60938 12.5879 4.84375Q12.5879 5.08789 12.4365 5.22949Q12.2852 5.37109 12.0508 5.37109L9.43359 5.37109L9.43359 12.7148Q9.43359 13.0371 9.27246 13.2227Q9.11133 13.4082 8.80859 13.4082Z"
                     fill="#ffffff" />
       </g>
</svg>