<svg width="19.5898" height="19.5996">
       <g>
              <rect height="19.5996" opacity="0" width="19.5898" x="0" y="0" />
              <path d="M9.79492 19.5996Q11.8066 19.5996 13.5791 18.833Q15.3516 18.0664 16.7041 16.7139Q18.0566 15.3613 18.8232 13.5889Q19.5898 11.8164 19.5898 9.80469Q19.5898 7.79297 18.8232 6.02051Q18.0566 4.24805 16.7041 2.89551Q15.3516 1.54297 13.5742 0.776367Q11.7969 0.00976562 9.78516 0.00976562Q7.77344 0.00976562 6.00098 0.776367Q4.22852 1.54297 2.88086 2.89551Q1.5332 4.24805 0.766602 6.02051Q0 7.79297 0 9.80469Q0 11.8164 0.766602 13.5889Q1.5332 15.3613 2.88574 16.7139Q4.23828 18.0664 6.01074 18.833Q7.7832 19.5996 9.79492 19.5996Z"
                     fill="rgba(255,255,255,0.55)" />
              <path d="M7.91992 15.0098L4.76562 11.8359Q4.375 11.4551 4.375 11.0693Q4.375 10.6836 4.77539 10.2832L9.67773 5.33203Q9.94141 5.06836 10.1855 4.89746Q10.4297 4.72656 10.8398 4.72656L12.8125 4.72656Q13.125 4.72656 13.335 4.84863Q13.5449 4.9707 13.7598 5.17578L14.6484 6.05469Q14.873 6.26953 14.9658 6.47461Q15.0586 6.67969 15.0586 7.01172L15.0586 8.91602Q15.0586 9.33594 14.8926 9.58008Q14.7266 9.82422 14.4531 10.0879L9.49219 15Q9.0918 15.4004 8.69629 15.3955Q8.30078 15.3906 7.91992 15.0098ZM11.709 8.07617Q11.8848 8.26172 12.1582 8.26172Q12.4316 8.26172 12.627 8.06641Q12.8223 7.87109 12.8271 7.59766Q12.832 7.32422 12.627 7.12891Q12.4316 6.94336 12.1582 6.94336Q11.8848 6.94336 11.709 7.12891Q11.5039 7.34375 11.5039 7.61719Q11.5039 7.89062 11.709 8.07617Z"
                     fill="#ffffff" />
       </g>
</svg>