<svg width="17.6855" height="17.7051">
       <g>
              <rect height="17.7051" opacity="0" width="17.6855" x="0" y="0" />
              <path d="M2.88086 17.7051L14.8047 17.7051Q16.2305 17.7051 16.958 16.9873Q17.6855 16.2695 17.6855 14.8535L17.6855 2.88086Q17.6855 1.46484 16.958 0.742188Q16.2305 0.0195312 14.8047 0.0195312L2.88086 0.0195312Q1.44531 0.0195312 0.722656 0.737305Q0 1.45508 0 2.88086L0 14.8535Q0 16.2695 0.722656 16.9873Q1.44531 17.7051 2.88086 17.7051Z"
                     fill="rgba(255,255,255,0.55)" />
              <path d="M6.97266 14.043L3.81836 10.8691Q3.42773 10.4883 3.42773 10.1025Q3.42773 9.7168 3.82812 9.31641L8.73047 4.36523Q8.99414 4.10156 9.23828 3.93066Q9.48242 3.75977 9.89258 3.75977L11.8652 3.75977Q12.1777 3.75977 12.3877 3.88184Q12.5977 4.00391 12.8125 4.20898L13.7012 5.08789Q13.9258 5.30273 14.0186 5.50781Q14.1113 5.71289 14.1113 6.04492L14.1113 7.94922Q14.1113 8.36914 13.9453 8.61328Q13.7793 8.85742 13.5059 9.12109L8.54492 14.0332Q8.14453 14.4336 7.74902 14.4287Q7.35352 14.4238 6.97266 14.043ZM10.7617 7.10938Q10.9375 7.29492 11.2109 7.29492Q11.4844 7.29492 11.6797 7.09961Q11.875 6.9043 11.8799 6.63086Q11.8848 6.35742 11.6797 6.16211Q11.4844 5.97656 11.2109 5.97656Q10.9375 5.97656 10.7617 6.16211Q10.5566 6.37695 10.5566 6.65039Q10.5566 6.92383 10.7617 7.10938Z"
                     fill="#ffffff" />
       </g>
</svg>