<svg width="19.5918" height="19.5987">
       <g>
              <rect height="19.5987" opacity="0" width="19.5918" x="0" y="0" />
              <path d="M9.79446 19.5889Q11.8082 19.5889 13.5796 18.8228Q15.3511 18.0566 16.7039 16.7039Q18.0566 15.3513 18.8242 13.5783Q19.5918 11.8053 19.5918 9.79446Q19.5918 7.78366 18.8242 6.01067Q18.0566 4.23767 16.7039 2.88498Q15.3511 1.53229 13.5763 0.766144Q11.8015 0 9.78775 0Q7.77695 0 6.00395 0.766144Q4.23096 1.53229 2.88307 2.88498Q1.53519 4.23767 0.767593 6.01067Q0 7.78366 0 9.79446Q0 11.8053 0.766144 13.5783Q1.53229 15.3513 2.88498 16.7039Q4.23767 18.0566 6.01067 18.8228Q7.78366 19.5889 9.79446 19.5889ZM9.79446 18.3223Q8.02353 18.3223 6.47873 17.6596Q4.93393 16.9969 3.76297 15.8274Q2.59201 14.6579 1.93268 13.1116Q1.27335 11.5654 1.27335 9.79446Q1.27335 8.02353 1.93268 6.47728Q2.59201 4.93103 3.75961 3.75664Q4.92722 2.58224 6.47202 1.92291Q8.01682 1.26358 9.78775 1.26358Q11.5616 1.26358 13.1064 1.92291Q14.6512 2.58224 15.8256 3.75664Q17 4.93103 17.6627 6.47728Q18.3253 8.02353 18.3253 9.79446Q18.3253 11.5654 17.666 13.1116Q17.0067 14.6579 15.8356 15.8274Q14.6646 16.9969 13.1165 17.6596Q11.5683 18.3223 9.79446 18.3223Z"
                     fill="rgba(255,255,255,0.55)" />
              <path d="M9.79446 15.9859Q11.064 15.9859 12.1855 15.4991Q13.307 15.0124 14.1615 14.1563Q15.016 13.3003 15.4994 12.1822Q15.9828 11.064 15.9828 9.79752Q15.9828 8.53104 15.4961 7.40799Q15.0093 6.28494 14.1533 5.43045Q13.2973 4.57596 12.1791 4.08768Q11.0609 3.5994 9.79446 3.5994Q8.52798 3.5994 7.40639 4.08768Q6.28479 4.57596 5.4303 5.43045Q4.57581 6.28494 4.09096 7.40799Q3.60611 8.53104 3.60611 9.79752Q3.60611 11.064 4.09439 12.1822Q4.58267 13.3003 5.43716 14.1563Q6.29166 15.0124 7.40982 15.4991Q8.52798 15.9859 9.79446 15.9859ZM9.79446 14.78Q8.78128 14.78 7.88124 14.385Q6.9812 13.99 6.29158 13.3004Q5.60196 12.6108 5.20851 11.7107Q4.81506 10.8107 4.81506 9.79752Q4.81506 8.77762 5.20515 7.8727Q5.59525 6.96777 6.28487 6.27815Q6.97449 5.58853 7.87453 5.19844Q8.77457 4.80835 9.79446 4.80835Q10.8076 4.80835 11.7077 5.2018Q12.6077 5.59525 13.2973 6.28487Q13.987 6.97449 14.3819 7.87605Q14.7769 8.77762 14.7769 9.79752Q14.7769 10.8174 14.3853 11.7175Q13.9937 12.6175 13.3041 13.3071Q12.6144 13.9967 11.7144 14.3884Q10.8144 14.78 9.79446 14.78Z"
                     fill="rgba(255,255,255,0.55)" />
              <path d="M9.80118 12.4478Q10.5278 12.4478 11.1312 12.0879Q11.7346 11.7279 12.0946 11.126Q12.4545 10.5241 12.4545 9.7908Q12.4545 9.06403 12.0946 8.46397Q11.7346 7.86392 11.1312 7.50549Q10.5278 7.14706 9.80118 7.14706Q9.06784 7.14706 8.46436 7.50549Q7.86087 7.86392 7.50244 8.46397Q7.14401 9.06403 7.14401 9.7908Q7.14401 10.5241 7.50397 11.126Q7.86392 11.7279 8.47076 12.0879Q9.07761 12.4478 9.80118 12.4478Z"
                     fill="rgba(255,255,255,0.55)" />
       </g>
</svg>