<svg width="22.8613" height="18.736">
       <g>
              <rect height="18.736" opacity="0" width="22.8613" x="0" y="0" />
              <path d="M11.4258 0Q9.4249 0 7.67822 0.250168Q5.93155 0.500336 4.51973 0.986481Q3.10791 1.47263 2.09885 2.1907Q1.08978 2.90878 0.544891 3.84651Q0 4.78424 0 5.93094L0 5.9436Q0 6.98532 0.553284 7.33513Q1.10657 7.68494 2.16385 7.57446L5.625 7.19666Q6.60156 7.09305 6.89453 6.61598Q7.1875 6.13892 7.1875 5.35767L7.1875 5.07126Q7.1875 4.66705 7.60643 4.40758Q8.02536 4.1481 8.95531 4.02046Q9.88525 3.89282 11.4258 3.89282Q13.0441 3.89282 13.9688 4.01039Q14.8935 4.12796 15.2788 4.38744Q15.6641 4.64691 15.6641 5.07797L15.6641 5.35767Q15.6641 6.12549 15.9619 6.60927Q16.2598 7.09305 17.2363 7.19666L20.6975 7.57446Q21.7548 7.68494 22.308 7.33513Q22.8613 6.98532 22.8613 5.93689L22.8613 5.93689Q22.8613 4.78729 22.318 3.84956Q21.7746 2.91183 20.7655 2.19368Q19.7565 1.47552 18.3465 0.989456Q16.9365 0.503387 15.188 0.251694Q13.4395 0 11.4258 0ZM2.88986 12.8728L4.60526 12.8728Q5.64926 12.8728 5.64926 11.8221L5.64926 10.0908Q5.64926 9.03717 4.60526 9.03717L2.88986 9.03717Q1.82632 9.03717 1.82632 10.0908L1.82632 11.8221Q1.82632 12.8728 2.88986 12.8728ZM8.00735 12.8728L9.7229 12.8728Q10.2216 12.8728 10.4975 12.6002Q10.7735 12.3276 10.7735 11.8221L10.7735 10.0908Q10.7735 9.58832 10.4975 9.31274Q10.2216 9.03717 9.7229 9.03717L8.00735 9.03717Q6.9281 9.03717 6.9281 10.0908L6.9281 11.8221Q6.9281 12.8728 8.00735 12.8728ZM13.0963 12.8728L14.808 12.8728Q15.3143 12.8728 15.5978 12.6002Q15.8813 12.3276 15.8813 11.8221L15.8813 10.0908Q15.8813 9.58832 15.5978 9.31274Q15.3143 9.03717 14.808 9.03717L13.0963 9.03717Q12.0457 9.03717 12.0457 10.0908L12.0457 11.8221Q12.0457 12.8728 13.0963 12.8728ZM18.1944 12.8728L19.9098 12.8728Q20.4251 12.8728 20.709 12.6002Q20.9929 12.3276 20.9929 11.8221L20.9929 10.0908Q20.9929 9.58832 20.709 9.31274Q20.4251 9.03717 19.9098 9.03717L18.1944 9.03717Q17.1504 9.03717 17.1504 10.0908L17.1504 11.8221Q17.1504 12.8728 18.1944 12.8728ZM2.86728 17.9904L4.58267 17.9904Q5.09125 17.9904 5.37025 17.7148Q5.64926 17.4391 5.64926 16.9366L5.64926 15.1956Q5.64926 14.6999 5.37025 14.4224Q5.09125 14.1449 4.58267 14.1449L2.86728 14.1449Q1.82632 14.1449 1.82632 15.1956L1.82632 16.9366Q1.82632 17.9904 2.86728 17.9904ZM7.98111 17.9904L14.8381 17.9904Q15.8911 17.9904 15.8911 16.9366L15.8911 15.1956Q15.8911 14.1449 14.8381 14.1449L7.98111 14.1449Q6.9281 14.1449 6.9281 15.1956L6.9281 16.9366Q6.9281 17.9904 7.98111 17.9904ZM18.2335 17.9904L19.9489 17.9904Q20.9929 17.9904 20.9929 16.9366L20.9929 15.1956Q20.9929 14.1449 19.9489 14.1449L18.2335 14.1449Q17.7213 14.1449 17.4422 14.4224Q17.1632 14.6999 17.1632 15.1956L17.1632 16.9366Q17.1632 17.4391 17.4422 17.7148Q17.7213 17.9904 18.2335 17.9904Z"
                     fill="#32d74b" />
       </g>
</svg>