<svg width="27.7498" height="20.5171">
       <g>
              <rect height="20.5171" opacity="0" width="27.7498" x="0" y="0" />
              <path d="M17.4082 19.2626Q18.1562 18.5245 18.0132 17.8847Q17.8702 17.2449 17.0368 16.5731L14.3387 14.3926Q13.5642 13.7706 13.0219 13.9209Q12.4796 14.0711 11.9169 14.591L11.7206 14.7843Q11.4037 15.0779 10.9501 14.9897Q10.4964 14.9015 9.76522 14.3335Q9.03402 13.7656 7.89343 12.625Q6.8038 11.5287 6.23098 10.7824Q5.65817 10.0362 5.54785 9.56052Q5.43752 9.08482 5.72759 8.79491L5.92077 8.59486Q6.48046 8.04189 6.61077 7.49318Q6.74108 6.94447 6.12585 6.1797L3.93865 3.46822Q3.27062 2.6415 2.63235 2.49852Q1.99407 2.35555 1.2528 3.09682Q0.236871 4.1129 0.0482725 5.48581Q-0.140326 6.85872 0.407922 8.47592Q0.95617 10.0931 2.16223 11.8481Q3.36828 13.6031 5.13845 15.3733Q6.56454 16.7926 7.9743 17.8534Q9.38406 18.9141 10.7268 19.5675Q12.0696 20.221 13.2917 20.4287Q14.5138 20.6363 15.5592 20.3561Q16.6047 20.0759 17.4082 19.2626ZM9.65353 6.77907L11.3691 6.77907Q12.4129 6.77907 12.4129 5.7285L12.4129 3.99724Q12.4129 2.94347 11.3691 2.94347L9.65353 2.94347Q8.58038 2.94347 8.58038 3.99724L8.58038 5.7285Q8.58038 6.77907 9.65353 6.77907ZM14.7645 6.77907L16.4799 6.77907Q16.9823 6.77907 17.2564 6.50494Q17.5306 6.23082 17.5306 5.7285L17.5306 3.99724Q17.5306 3.49477 17.2564 3.21912Q16.9823 2.94347 16.4799 2.94347L14.7645 2.94347Q13.6852 2.94347 13.6852 3.99724L13.6852 5.7285Q13.6852 6.77907 14.7645 6.77907ZM19.8504 6.77907L21.5719 6.77907Q22.0713 6.77907 22.3533 6.50494Q22.6354 6.23082 22.6354 5.7285L22.6354 3.99724Q22.6354 3.49477 22.3533 3.21912Q22.0713 2.94347 21.5719 2.94347L19.8504 2.94347Q18.8027 2.94347 18.8027 3.99724L18.8027 5.7285Q18.8027 6.77907 19.8504 6.77907ZM24.9514 6.77907L26.6736 6.77907Q27.1821 6.77907 27.466 6.50494Q27.7498 6.23082 27.7498 5.7285L27.7498 3.99724Q27.7498 3.49477 27.466 3.21912Q27.1821 2.94347 26.6736 2.94347L24.9514 2.94347Q23.9142 2.94347 23.9142 3.99724L23.9142 5.7285Q23.9142 6.77907 24.9514 6.77907ZM9.62423 11.8967L11.3398 11.8967Q11.8549 11.8967 12.1339 11.6211Q12.4129 11.3454 12.4129 10.8429L12.4129 9.10191Q12.4129 8.60631 12.1339 8.32883Q11.8549 8.05135 11.3398 8.05135L9.62423 8.05135Q8.58038 8.05135 8.58038 9.10191L8.58038 10.8429Q8.58038 11.8967 9.62423 11.8967ZM14.7352 11.8967L21.5951 11.8967Q22.6481 11.8967 22.6481 10.8429L22.6481 9.10191Q22.6481 8.05135 21.5951 8.05135L14.7352 8.05135Q13.6852 8.05135 13.6852 9.10191L13.6852 10.8429Q13.6852 11.8967 14.7352 11.8967ZM24.9904 11.8967L26.706 11.8967Q27.7498 11.8967 27.7498 10.8429L27.7498 9.10191Q27.7498 8.05135 26.706 8.05135L24.9904 8.05135Q24.4851 8.05135 24.2061 8.32883Q23.9271 8.60631 23.9271 9.10191L23.9271 10.8429Q23.9271 11.3454 24.2061 11.6211Q24.4851 11.8967 24.9904 11.8967Z"
                     fill="#32d74b" />
       </g>
</svg>