<svg width="19.5898" height="19.5996">
       <g>
              <rect height="19.5996" opacity="0" width="19.5898" x="0" y="0" />
              <path d="M9.79492 19.5996Q11.8066 19.5996 13.5791 18.833Q15.3516 18.0664 16.7041 16.7139Q18.0566 15.3613 18.8232 13.5889Q19.5898 11.8164 19.5898 9.80469Q19.5898 7.79297 18.8232 6.02051Q18.0566 4.24805 16.7041 2.89551Q15.3516 1.54297 13.5742 0.776367Q11.7969 0.00976562 9.78516 0.00976562Q7.77344 0.00976562 6.00098 0.776367Q4.22852 1.54297 2.88086 2.89551Q1.5332 4.24805 0.766602 6.02051Q0 7.79297 0 9.80469Q0 11.8164 0.766602 13.5889Q1.5332 15.3613 2.88574 16.7139Q4.23828 18.0664 6.01074 18.833Q7.7832 19.5996 9.79492 19.5996Z"
                     fill="#32d74b" />
              <path d="M9.79492 6.86523Q8.54492 6.86523 8.02734 7.02148Q7.50977 7.17773 7.50977 7.49023L7.50977 7.65625Q7.50977 8.07617 7.34863 8.33984Q7.1875 8.60352 6.66016 8.65234L4.79492 8.84766Q4.21875 8.91602 3.9209 8.7207Q3.62305 8.52539 3.62305 7.97852Q3.62305 7.97852 3.62305 7.97363Q3.62305 7.96875 3.62305 7.96875Q3.62305 6.93359 4.41406 6.2207Q5.20508 5.50781 6.59668 5.13672Q7.98828 4.76562 9.79492 4.76562Q11.6211 4.76562 13.0127 5.13672Q14.4043 5.50781 15.1953 6.22559Q15.9863 6.94336 15.9863 7.97852L15.9863 7.97852Q15.9863 8.52539 15.6885 8.7207Q15.3906 8.91602 14.8242 8.84766L12.9395 8.65234Q12.4219 8.60352 12.2607 8.33984Q12.0996 8.07617 12.0996 7.65625L12.0996 7.5Q12.0996 7.1582 11.6113 7.01172Q11.123 6.86523 9.79492 6.86523ZM5.19531 11.7188Q4.59961 11.7188 4.59961 11.1523L4.59961 10.2051Q4.59961 9.64844 5.19531 9.64844L6.11328 9.64844Q6.38672 9.64844 6.52832 9.7998Q6.66992 9.95117 6.66992 10.2051L6.66992 11.1523Q6.66992 11.7188 6.11328 11.7188ZM7.94922 11.7188Q7.37305 11.7188 7.37305 11.1523L7.37305 10.2051Q7.37305 9.64844 7.94922 9.64844L8.88672 9.64844Q9.45312 9.64844 9.45312 10.2051L9.45312 11.1523Q9.45312 11.7188 8.88672 11.7188ZM10.7129 11.7188Q10.1367 11.7188 10.1367 11.1523L10.1367 10.2051Q10.1367 9.64844 10.7129 9.64844L11.6406 9.64844Q12.207 9.64844 12.207 10.2051L12.207 11.1523Q12.207 11.7188 11.6406 11.7188ZM13.4668 11.7188Q12.9004 11.7188 12.9004 11.1523L12.9004 10.2051Q12.9004 9.64844 13.4668 9.64844L14.3945 9.64844Q14.9805 9.64844 14.9805 10.2051L14.9805 11.1523Q14.9805 11.7188 14.3945 11.7188ZM5.17578 14.4824Q4.59961 14.4824 4.59961 13.9062L4.59961 12.9785Q4.59961 12.4121 5.17578 12.4121L6.11328 12.4121Q6.37695 12.4121 6.52344 12.5586Q6.66992 12.7051 6.66992 12.9785L6.66992 13.9062Q6.66992 14.4824 6.11328 14.4824ZM7.93945 14.4824Q7.37305 14.4824 7.37305 13.9062L7.37305 12.9785Q7.37305 12.4121 7.93945 12.4121L11.6602 12.4121Q12.207 12.4121 12.207 12.9785L12.207 13.9062Q12.207 14.4824 11.6602 14.4824ZM13.4863 14.4824Q12.9004 14.4824 12.9004 13.9062L12.9004 12.9785Q12.9004 12.4121 13.4863 12.4121L14.4043 12.4121Q14.6875 12.4121 14.834 12.5586Q14.9805 12.7051 14.9805 12.9785L14.9805 13.9062Q14.9805 14.4824 14.4043 14.4824Z"
                     fill="#ffffff" />
       </g>
</svg>