<svg width="19.5898" height="19.5996">
       <g>
              <rect height="19.5996" opacity="0" width="19.5898" x="0" y="0" />
              <path d="M9.79492 19.5898Q11.8066 19.5898 13.5791 18.8232Q15.3516 18.0566 16.7041 16.7041Q18.0566 15.3516 18.8232 13.5791Q19.5898 11.8066 19.5898 9.79492Q19.5898 7.7832 18.8232 6.01074Q18.0566 4.23828 16.7041 2.88574Q15.3516 1.5332 13.5742 0.766602Q11.7969 0 9.78516 0Q7.77344 0 6.00098 0.766602Q4.22852 1.5332 2.88086 2.88574Q1.5332 4.23828 0.766602 6.01074Q0 7.7832 0 9.79492Q0 11.8066 0.766602 13.5791Q1.5332 15.3516 2.88574 16.7041Q4.23828 18.0566 6.01074 18.8232Q7.7832 19.5898 9.79492 19.5898ZM9.79492 18.3203Q8.02734 18.3203 6.47949 17.6611Q4.93164 17.002 3.75977 15.8301Q2.58789 14.6582 1.92871 13.1104Q1.26953 11.5625 1.26953 9.79492Q1.26953 8.02734 1.92871 6.47949Q2.58789 4.93164 3.75977 3.75488Q4.93164 2.57812 6.47461 1.91895Q8.01758 1.25977 9.78516 1.25977Q11.5625 1.25977 13.1104 1.91895Q14.6582 2.57812 15.8301 3.75488Q17.002 4.93164 17.666 6.47949Q18.3301 8.02734 18.3301 9.79492Q18.3301 11.5625 17.666 13.1104Q17.002 14.6582 15.8301 15.8301Q14.6582 17.002 13.1152 17.6611Q11.5723 18.3203 9.79492 18.3203Z"
                     fill="#32d74b" />
              <path d="M9.78516 6.9043Q11.084 6.9043 11.5625 7.0459Q12.041 7.1875 12.041 7.51953L12.041 7.68555Q12.041 8.08594 12.1973 8.34473Q12.3535 8.60352 12.8711 8.65234L14.7168 8.84766Q15.2734 8.91602 15.5615 8.72559Q15.8496 8.53516 15.8496 7.98828L15.8496 7.98828Q15.8496 6.98242 15.0781 6.2793Q14.3066 5.57617 12.9395 5.20996Q11.5723 4.84375 9.78516 4.84375Q8.00781 4.84375 6.64062 5.20996Q5.27344 5.57617 4.50195 6.27441Q3.73047 6.97266 3.73047 7.97852Q3.73047 7.98828 3.73047 7.98828Q3.73047 7.98828 3.73047 7.98828Q3.73047 8.53516 4.01855 8.72559Q4.30664 8.91602 4.87305 8.84766L6.70898 8.65234Q7.22656 8.60352 7.3877 8.34473Q7.54883 8.08594 7.54883 7.68555L7.54883 7.51953Q7.54883 7.19727 8.05664 7.05078Q8.56445 6.9043 9.78516 6.9043ZM5.26367 11.6504L6.17188 11.6504Q6.71875 11.6504 6.71875 11.1035L6.71875 10.1758Q6.71875 9.62891 6.17188 9.62891L5.26367 9.62891Q4.6875 9.62891 4.6875 10.1758L4.6875 11.1035Q4.6875 11.6504 5.26367 11.6504ZM7.96875 11.6504L8.88672 11.6504Q9.44336 11.6504 9.44336 11.1035L9.44336 10.1758Q9.44336 9.62891 8.88672 9.62891L7.96875 9.62891Q7.41211 9.62891 7.41211 10.1758L7.41211 11.1035Q7.41211 11.6504 7.96875 11.6504ZM10.6738 11.6504L11.582 11.6504Q12.1484 11.6504 12.1484 11.1035L12.1484 10.1758Q12.1484 9.62891 11.582 9.62891L10.6738 9.62891Q10.1172 9.62891 10.1172 10.1758L10.1172 11.1035Q10.1172 11.6504 10.6738 11.6504ZM13.3887 11.6504L14.2871 11.6504Q14.8633 11.6504 14.8633 11.1035L14.8633 10.1758Q14.8633 9.62891 14.2871 9.62891L13.3887 9.62891Q12.8223 9.62891 12.8223 10.1758L12.8223 11.1035Q12.8223 11.6504 13.3887 11.6504ZM5.25391 14.3652L6.16211 14.3652Q6.71875 14.3652 6.71875 13.8086L6.71875 12.8906Q6.71875 12.334 6.16211 12.334L5.25391 12.334Q4.6875 12.334 4.6875 12.8906L4.6875 13.8086Q4.6875 14.3652 5.25391 14.3652ZM7.95898 14.3652L11.6016 14.3652Q12.1484 14.3652 12.1484 13.8086L12.1484 12.8906Q12.1484 12.334 11.6016 12.334L7.95898 12.334Q7.41211 12.334 7.41211 12.8906L7.41211 13.8086Q7.41211 14.3652 7.95898 14.3652ZM13.3984 14.3652L14.3066 14.3652Q14.8633 14.3652 14.8633 13.8086L14.8633 12.8906Q14.8633 12.334 14.3066 12.334L13.3984 12.334Q12.8223 12.334 12.8223 12.8906L12.8223 13.8086Q12.8223 14.3652 13.3984 14.3652Z"
                     fill="#32d74b" />
       </g>
</svg>