<svg width="19.5898" height="19.5996">
       <g>
              <rect height="19.5996" opacity="0" width="19.5898" x="0" y="0" />
              <path d="M9.79492 19.5898Q11.8066 19.5898 13.5791 18.8232Q15.3516 18.0566 16.7041 16.7041Q18.0566 15.3516 18.8232 13.5791Q19.5898 11.8066 19.5898 9.79492Q19.5898 7.7832 18.8232 6.01074Q18.0566 4.23828 16.7041 2.88574Q15.3516 1.5332 13.5742 0.766602Q11.7969 0 9.78516 0Q7.77344 0 6.00098 0.766602Q4.22852 1.5332 2.88086 2.88574Q1.5332 4.23828 0.766602 6.01074Q0 7.7832 0 9.79492Q0 11.8066 0.766602 13.5791Q1.5332 15.3516 2.88574 16.7041Q4.23828 18.0566 6.01074 18.8232Q7.7832 19.5898 9.79492 19.5898ZM9.79492 18.3203Q8.02734 18.3203 6.47949 17.6611Q4.93164 17.002 3.75977 15.8301Q2.58789 14.6582 1.92871 13.1104Q1.26953 11.5625 1.26953 9.79492Q1.26953 8.02734 1.92871 6.47949Q2.58789 4.93164 3.75977 3.75488Q4.93164 2.57812 6.47461 1.91895Q8.01758 1.25977 9.78516 1.25977Q11.5625 1.25977 13.1104 1.91895Q14.6582 2.57812 15.8301 3.75488Q17.002 4.93164 17.666 6.47949Q18.3301 8.02734 18.3301 9.79492Q18.3301 11.5625 17.666 13.1104Q17.002 14.6582 15.8301 15.8301Q14.6582 17.002 13.1152 17.6611Q11.5723 18.3203 9.79492 18.3203Z"
                     fill="#32d74b" />
              <path d="M11.3281 14.8047Q11.709 14.4531 11.6357 14.1309Q11.5625 13.8086 11.1426 13.4863L9.81445 12.4023Q9.42383 12.0996 9.15527 12.1729Q8.88672 12.2461 8.62305 12.5098L8.50586 12.6074Q8.28125 12.8125 7.87598 12.5928Q7.4707 12.373 6.62109 11.5332Q5.80078 10.7227 5.57129 10.293Q5.3418 9.86328 5.55664 9.63867L5.64453 9.54102Q5.92773 9.25781 5.99121 8.98926Q6.05469 8.7207 5.75195 8.33984L4.67773 7.01172Q4.33594 6.60156 4.01855 6.52832Q3.70117 6.45508 3.33984 6.82617Q2.67578 7.49023 2.72461 8.46191Q2.77344 9.43359 3.4375 10.5762Q4.10156 11.7188 5.27344 12.8906Q6.44531 14.0625 7.58301 14.7217Q8.7207 15.3809 9.69238 15.4297Q10.6641 15.4785 11.3281 14.8047ZM7.49023 8.64258L8.33984 8.64258Q8.85742 8.64258 8.85742 8.11523L8.85742 7.26562Q8.85742 6.75781 8.33984 6.75781L7.49023 6.75781Q6.96289 6.75781 6.96289 7.26562L6.96289 8.11523Q6.96289 8.64258 7.49023 8.64258ZM10.0195 8.64258L10.8789 8.64258Q11.377 8.64258 11.377 8.11523L11.377 7.26562Q11.377 6.75781 10.8789 6.75781L10.0195 6.75781Q9.47266 6.75781 9.47266 7.26562L9.47266 8.11523Q9.47266 8.64258 10.0195 8.64258ZM12.5293 8.64258L13.3789 8.64258Q13.9062 8.64258 13.9062 8.11523L13.9062 7.26562Q13.9062 6.75781 13.3789 6.75781L12.5293 6.75781Q12.0215 6.75781 12.0215 7.26562L12.0215 8.11523Q12.0215 8.64258 12.5293 8.64258ZM15.0488 8.64258L15.8984 8.64258Q16.4355 8.64258 16.4355 8.11523L16.4355 7.26562Q16.4355 6.75781 15.8984 6.75781L15.0488 6.75781Q14.541 6.75781 14.541 7.26562L14.541 8.11523Q14.541 8.64258 15.0488 8.64258ZM7.48047 11.1621L8.32031 11.1621Q8.85742 11.1621 8.85742 10.6445L8.85742 9.79492Q8.85742 9.27734 8.32031 9.27734L7.48047 9.27734Q6.96289 9.27734 6.96289 9.79492L6.96289 10.6445Q6.96289 11.1621 7.48047 11.1621ZM10.0098 11.1621L13.3984 11.1621Q13.916 11.1621 13.916 10.6445L13.916 9.79492Q13.916 9.27734 13.3984 9.27734L10.0098 9.27734Q9.47266 9.27734 9.47266 9.79492L9.47266 10.6445Q9.47266 11.1621 10.0098 11.1621ZM15.0586 11.1621L15.918 11.1621Q16.4355 11.1621 16.4355 10.6445L16.4355 9.79492Q16.4355 9.27734 15.918 9.27734L15.0586 9.27734Q14.5508 9.27734 14.5508 9.79492L14.5508 10.6445Q14.5508 11.1621 15.0586 11.1621Z"
                     fill="#32d74b" />
       </g>
</svg>