<svg width="19.5898" height="19.5996">
       <g>
              <rect height="19.5996" opacity="0" width="19.5898" x="0" y="0" />
              <path d="M9.79492 19.5996Q11.8066 19.5996 13.5791 18.833Q15.3516 18.0664 16.7041 16.7139Q18.0566 15.3613 18.8232 13.5889Q19.5898 11.8164 19.5898 9.80469Q19.5898 7.79297 18.8232 6.02051Q18.0566 4.24805 16.7041 2.89551Q15.3516 1.54297 13.5742 0.776367Q11.7969 0.00976562 9.78516 0.00976562Q7.77344 0.00976562 6.00098 0.776367Q4.22852 1.54297 2.88086 2.89551Q1.5332 4.24805 0.766602 6.02051Q0 7.79297 0 9.80469Q0 11.8164 0.766602 13.5889Q1.5332 15.3613 2.88574 16.7139Q4.23828 18.0664 6.01074 18.833Q7.7832 19.5996 9.79492 19.5996Z"
                     fill="#32d74b" />
              <path d="M11.3086 14.9609Q10.625 15.6348 9.63379 15.5908Q8.64258 15.5469 7.47559 14.873Q6.30859 14.1992 5.11719 12.998Q3.92578 11.8066 3.24707 10.6445Q2.56836 9.48242 2.51953 8.49121Q2.4707 7.5 3.1543 6.80664Q3.53516 6.44531 3.85254 6.51855Q4.16992 6.5918 4.51172 7.01172L5.61523 8.35938Q5.92773 8.74023 5.85938 9.01855Q5.79102 9.29688 5.50781 9.58008L5.41016 9.6875Q5.19531 9.91211 5.43457 10.3516Q5.67383 10.791 6.49414 11.6211Q7.37305 12.4805 7.77832 12.7051Q8.18359 12.9297 8.42773 12.7148L8.53516 12.6074Q8.81836 12.3535 9.08691 12.2705Q9.35547 12.1875 9.75586 12.5098L11.123 13.623Q11.5332 13.9453 11.6064 14.2676Q11.6797 14.5898 11.3086 14.9609ZM7.51953 8.54492Q6.98242 8.54492 6.98242 8.00781L6.98242 7.13867Q6.98242 6.61133 7.51953 6.61133L8.37891 6.61133Q8.91602 6.61133 8.91602 7.13867L8.91602 8.00781Q8.91602 8.54492 8.37891 8.54492ZM10.0977 8.54492Q9.54102 8.54492 9.54102 8.00781L9.54102 7.13867Q9.54102 6.61133 10.0977 6.61133L10.9668 6.61133Q11.4844 6.61133 11.4844 7.13867L11.4844 8.00781Q11.4844 8.54492 10.9668 8.54492ZM12.6465 8.54492Q12.1289 8.54492 12.1289 8.00781L12.1289 7.13867Q12.1289 6.61133 12.6465 6.61133L13.5156 6.61133Q14.0625 6.61133 14.0625 7.13867L14.0625 8.00781Q14.0625 8.54492 13.5156 8.54492ZM15.2344 8.54492Q14.707 8.54492 14.707 8.00781L14.707 7.13867Q14.707 6.61133 15.2344 6.61133L16.0938 6.61133Q16.6504 6.61133 16.6504 7.13867L16.6504 8.00781Q16.6504 8.54492 16.0938 8.54492ZM7.5 11.1133Q6.98242 11.1133 6.98242 10.5859L6.98242 9.70703Q6.98242 9.18945 7.5 9.18945L8.36914 9.18945Q8.91602 9.18945 8.91602 9.70703L8.91602 10.5859Q8.91602 11.1133 8.36914 11.1133ZM10.0879 11.1133Q9.54102 11.1133 9.54102 10.5859L9.54102 9.70703Q9.54102 9.18945 10.0879 9.18945L13.5449 9.18945Q14.0723 9.18945 14.0723 9.70703L14.0723 10.5859Q14.0723 11.1133 13.5449 11.1133ZM15.2441 11.1133Q14.7168 11.1133 14.7168 10.5859L14.7168 9.70703Q14.7168 9.18945 15.2441 9.18945L16.1133 9.18945Q16.6504 9.18945 16.6504 9.70703L16.6504 10.5859Q16.6504 11.1133 16.1133 11.1133Z"
                     fill="#ffffff" />
       </g>
</svg>