<svg width="18.5922" height="19.729">
       <g>
              <rect height="19.729" opacity="0" width="18.5922" x="0" y="0" />
              <path d="M6.8074 3.77975L1.59088 3.77975L1.59088 16.2856Q1.59088 17.4438 2.31659 18.1665Q3.0423 18.8892 4.21051 18.8892Q5.36209 18.8892 6.08475 18.1665Q6.8074 17.4438 6.8074 16.2856ZM16.9832 15.5191L11.7734 15.5191L11.7734 16.2856Q11.7734 17.4438 12.4991 18.1665Q13.2248 18.8892 14.3863 18.8892Q15.5446 18.8892 16.2639 18.1665Q16.9832 17.4438 16.9832 16.2856Z"
                     fill="#0a84ff" />
              <path d="M0.626526 1.25305L7.7832 1.25305Q8.04321 1.25305 8.22983 1.06644Q8.41644 0.879822 8.41644 0.619812Q8.41644 0.366516 8.22983 0.183258Q8.04321 0 7.7832 0L0.626526 0Q0.353088 0 0.176544 0.183258Q0 0.366516 0 0.619812Q0 0.879822 0.176544 1.06644Q0.353088 1.25305 0.626526 1.25305ZM4.21051 19.7052Q5.75027 19.7052 6.68869 18.7667Q7.62711 17.8282 7.62711 16.2856L7.62711 0.662842L6.42776 0.662842L6.42776 16.2856Q6.42776 17.2856 5.81581 17.8976Q5.20386 18.5097 4.21051 18.5097Q3.20053 18.5097 2.58705 17.8976Q1.97357 17.2856 1.97357 16.2856L1.97357 0.662842L0.764618 0.662842L0.764618 16.2856Q0.764618 17.8282 1.7128 18.7667Q2.66098 19.7052 4.21051 19.7052ZM10.809 1.25305L17.9657 1.25305Q18.219 1.25305 18.4056 1.06644Q18.5922 0.879822 18.5922 0.619812Q18.5922 0.366516 18.4056 0.183258Q18.219 0 17.9657 0L10.809 0Q10.5289 0 10.3523 0.183258Q10.1758 0.366516 10.1758 0.619812Q10.1758 0.879822 10.3523 1.06644Q10.5289 1.25305 10.809 1.25305ZM14.3863 19.7052Q15.929 19.7052 16.8693 18.7667Q17.8096 17.8282 17.8096 16.2856L17.8096 0.662842L16.6104 0.662842L16.6104 16.2856Q16.6104 17.2856 15.9984 17.8976Q15.3864 18.5097 14.3863 18.5097Q13.3832 18.5097 12.7663 17.8976Q12.1494 17.2856 12.1494 16.2856L12.1494 0.662842L10.9404 0.662842L10.9404 16.2856Q10.9404 17.8282 11.8886 18.7667Q12.8368 19.7052 14.3863 19.7052ZM11.8512 6.97784L14.2758 6.97784Q14.4716 6.97784 14.604 6.84357Q14.7363 6.70929 14.7363 6.50391Q14.7363 6.32156 14.5988 6.18736Q14.4612 6.05316 14.2691 6.05316L11.8512 6.05316ZM11.8512 10.166L14.2758 10.166Q14.4716 10.166 14.604 10.0352Q14.7363 9.90433 14.7363 9.70184Q14.7363 9.51965 14.6006 9.3821Q14.4649 9.24454 14.2758 9.24454L11.8512 9.24454ZM11.8512 13.3641L14.2691 13.3641Q14.4716 13.3641 14.604 13.2299Q14.7363 13.0957 14.7296 12.8999Q14.7296 12.7147 14.5954 12.5771Q14.4612 12.4396 14.2691 12.4396L11.8512 12.4396Z"
                     fill="rgba(255,255,255,0.25)" />
              <path d="M1.97357 6.97784L1.97357 6.05316L4.08661 6.05316Q4.27567 6.05316 4.41658 6.18736Q4.5575 6.32156 4.5575 6.50391Q4.5575 6.70929 4.42329 6.84357Q4.28909 6.97784 4.09332 6.97784ZM1.97357 10.166L1.97357 9.24454L4.09332 9.24454Q4.28238 9.24454 4.41994 9.3821Q4.5575 9.51965 4.5575 9.70184Q4.5575 9.90433 4.42329 10.0352Q4.28909 10.166 4.09332 10.166ZM1.97357 13.3641L1.97357 12.4396L4.08661 12.4396Q4.27567 12.4396 4.41475 12.5771Q4.55383 12.7147 4.55383 12.8999Q4.5575 13.0957 4.42665 13.2299Q4.29581 13.3641 4.08661 13.3641Z"
                     fill="rgba(255,255,255,0.4)" />
       </g>
</svg>