<svg width="29.6939" height="20.3125">
       <g>
              <rect height="20.3125" opacity="0" width="29.6939" x="0" y="0" />
              <path d="M1.04843 20.2751Q1.33804 20.2751 1.57143 20.1337Q1.80481 19.9922 1.94778 19.7573Q2.09076 19.5224 2.09076 19.2395Q2.09076 18.8087 1.78345 18.5062Q1.47614 18.2037 1.04843 18.2037Q0.62439 18.2037 0.317078 18.5062Q0.00976562 18.8087 0.00976562 19.2395Q0.00976562 19.6635 0.317078 19.9693Q0.62439 20.2751 1.04843 20.2751ZM5.65521 20.2751Q5.94788 20.2751 6.18126 20.1337Q6.41464 19.9922 6.55609 19.7573Q6.69754 19.5224 6.69754 19.2395Q6.69754 18.8087 6.39175 18.5062Q6.08597 18.2037 5.65521 18.2037Q5.23117 18.2037 4.92538 18.5062Q4.6196 18.8087 4.6196 19.2395Q4.6196 19.6635 4.92538 19.9693Q5.23117 20.2751 5.65521 20.2751ZM10.2521 20.2751Q10.538 20.2751 10.7748 20.1337Q11.0117 19.9922 11.1513 19.7573Q11.2909 19.5224 11.2909 19.2395Q11.2909 18.8087 10.9869 18.5062Q10.683 18.2037 10.2521 18.2037Q9.82437 18.2037 9.52042 18.5062Q9.21646 18.8087 9.21646 19.2395Q9.21646 19.6635 9.52042 19.9693Q9.82437 20.2751 10.2521 20.2751ZM14.8552 20.2751Q15.1411 20.2751 15.3779 20.1337Q15.6146 19.9922 15.7527 19.7573Q15.8908 19.5224 15.8908 19.2395Q15.8908 18.8087 15.5884 18.5062Q15.2859 18.2037 14.8552 18.2037Q14.4244 18.2037 14.122 18.5062Q13.8196 18.8087 13.8196 19.2395Q13.8196 19.6635 14.122 19.9693Q14.4244 20.2751 14.8552 20.2751ZM19.4582 20.2751Q19.7441 20.2751 19.9809 20.1337Q20.2177 19.9922 20.3558 19.7573Q20.4939 19.5224 20.4939 19.2395Q20.4939 18.8087 20.1914 18.5062Q19.8889 18.2037 19.4582 18.2037Q19.0341 18.2037 18.7283 18.5062Q18.4225 18.8087 18.4225 19.2395Q18.4225 19.6635 18.7283 19.9693Q19.0341 20.2751 19.4582 20.2751ZM24.0552 20.2751Q24.3411 20.2751 24.5779 20.1337Q24.8146 19.9922 24.9542 19.7573Q25.0938 19.5224 25.0938 19.2395Q25.0938 18.8087 24.7899 18.5062Q24.4859 18.2037 24.0552 18.2037Q23.6244 18.2037 23.322 18.5062Q23.0196 18.8087 23.0196 19.2395Q23.0196 19.6635 23.322 19.9693Q23.6244 20.2751 24.0552 20.2751ZM28.6581 20.2751Q28.9441 20.2751 29.1809 20.1337Q29.4177 19.9922 29.5558 19.7573Q29.6939 19.5224 29.6939 19.2395Q29.6939 18.8087 29.3914 18.5062Q29.0889 18.2037 28.6581 18.2037Q28.2274 18.2037 27.925 18.5062Q27.6225 18.8087 27.6225 19.2395Q27.6225 19.6635 27.925 19.9693Q28.2274 20.2751 28.6581 20.2751Z"
                     fill="#ff453a" />
              <path d="M3.43414 14.399Q4.24057 14.399 4.96353 14.1254Q5.68649 13.8518 6.23726 13.3527Q6.78802 12.8537 7.06284 12.1924L7.08603 12.1924L7.08603 13.7798Q7.08603 14.0594 7.25616 14.2326Q7.4263 14.4057 7.68936 14.4057Q7.96585 14.4057 8.13416 14.2291Q8.30246 14.0526 8.30246 13.7558L8.30246 7.20322Q8.30246 6.14548 7.83539 5.3627Q7.36832 4.57993 6.49979 4.15512Q5.63126 3.73032 4.44382 3.73032Q3.03665 3.73032 2.01828 4.31419Q0.999908 4.89807 0.601196 5.89859Q0.538177 6.06888 0.492401 6.23375Q0.446625 6.39862 0.446625 6.53671Q0.446625 6.78329 0.611191 6.93321Q0.775757 7.08313 1.01547 7.08313Q1.20453 7.08313 1.33759 7.00096Q1.47064 6.91879 1.5477 6.75003Q1.90033 5.80124 2.61078 5.30548Q3.32123 4.80972 4.4072 4.80972Q5.65201 4.80972 6.3488 5.48683Q7.04559 6.16394 7.04559 7.30362L7.04559 8.17612L3.73352 8.38211Q1.90903 8.48892 0.954514 9.27979Q0 10.0706 0 11.3879Q0 12.2885 0.434875 12.9671Q0.869751 13.6456 1.6468 14.0223Q2.42386 14.399 3.43414 14.399ZM3.70743 13.3502Q2.64008 13.3502 1.96045 12.7969Q1.28082 12.2435 1.28082 11.3489Q1.28082 10.5084 1.94008 9.97208Q2.59933 9.43573 3.89633 9.34616L7.04559 9.12064L7.04559 10.3731Q7.04559 11.196 6.59454 11.8706Q6.14349 12.5452 5.38658 12.9477Q4.62967 13.3502 3.70743 13.3502ZM10.9726 14.399Q11.2393 14.399 11.4143 14.2288Q11.5894 14.0587 11.5894 13.7627L11.5894 11.8393L11.6125 11.8393Q12.0517 13.0191 13.0321 13.7135Q14.0125 14.408 15.2924 14.408Q16.6031 14.408 17.5867 13.7394Q18.5703 13.0708 19.122 11.869Q19.6738 10.6671 19.6738 9.06647Q19.6738 7.46216 19.122 6.26183Q18.5703 5.06149 17.5867 4.3959Q16.6031 3.73032 15.3029 3.73032Q14.0244 3.73032 13.0485 4.42627Q12.0726 5.12222 11.6628 6.28693L11.62 6.28693L11.62 0.666962Q11.62 0.363464 11.445 0.181732Q11.27 0 10.9935 0Q10.7101 0 10.5382 0.181732Q10.3662 0.363464 10.3662 0.666962L10.3662 13.7627Q10.3662 14.0623 10.5344 14.2307Q10.7027 14.399 10.9726 14.399ZM15.04 13.3189Q14.0337 13.3189 13.2681 12.7864Q12.5026 12.2539 12.0704 11.3001Q11.6382 10.3464 11.6382 9.07562Q11.6382 7.81158 12.0737 6.85478Q12.5093 5.89798 13.2764 5.36392Q14.0434 4.82986 15.04 4.82986Q16.0539 4.82986 16.8063 5.35416Q17.5587 5.87845 17.9695 6.83067Q18.3803 7.7829 18.3803 9.06647Q18.3803 10.3598 17.9646 11.3151Q17.549 12.2704 16.7981 12.7946Q16.0472 13.3189 15.04 13.3189ZM25.5537 14.408Q26.5048 14.408 27.3277 14.0812Q28.1505 13.7544 28.7438 13.1661Q29.3372 12.5778 29.6083 11.8024Q29.6413 11.6966 29.6627 11.593Q29.6841 11.4894 29.6841 11.3911Q29.6841 11.1574 29.5338 11.0059Q29.3835 10.8545 29.1408 10.8545Q28.9249 10.8545 28.7963 10.9538Q28.6678 11.0532 28.5503 11.3028Q28.1815 12.2789 27.4096 12.7989Q26.6377 13.3189 25.5606 13.3189Q23.9766 13.3189 23.0458 12.1773Q22.115 11.0356 22.115 9.07257Q22.115 7.11685 23.0553 5.97Q23.9955 4.82315 25.5424 4.82315Q26.5889 4.82315 27.366 5.33981Q28.143 5.85648 28.5185 6.84601Q28.6392 7.08206 28.7643 7.18483Q28.8895 7.2876 29.1054 7.2876Q29.3452 7.2876 29.497 7.14104Q29.6487 6.99448 29.6487 6.75095Q29.6487 6.66916 29.6274 6.57387Q29.606 6.47858 29.5894 6.40198Q29.3483 5.62653 28.7568 5.02022Q28.1653 4.41391 27.326 4.07211Q26.4867 3.73032 25.5185 3.73032Q24.0906 3.73032 23.0369 4.39171Q21.9832 5.0531 21.4072 6.25984Q20.8311 7.46658 20.8311 9.0921Q20.8311 10.7176 21.4136 11.9131Q21.996 13.1085 23.0576 13.7582Q24.1193 14.408 25.5537 14.408Z"
                     fill="rgba(255,255,255,0.85)" />
       </g>
</svg>