<svg width="21.2012" height="21.0449">
       <g>
              <rect height="21.0449" opacity="0" width="21.2012" x="0" y="0" />
              <path d="M5.46875 21.0449Q5.70312 21.0449 5.89844 20.9229Q6.09375 20.8008 6.35742 20.5566L9.89258 17.4023L17.0508 17.4023Q18.3789 17.4023 19.3018 16.9092Q20.2246 16.416 20.7129 15.4932Q21.2012 14.5703 21.2012 13.2617L21.2012 5.41016Q21.2012 4.10156 20.7129 3.17383Q20.2246 2.24609 19.3018 1.75293Q18.3789 1.25977 17.0508 1.25977L4.15039 1.25977Q2.82227 1.25977 1.89453 1.75293Q0.966797 2.24609 0.483398 3.16895Q0 4.0918 0 5.41016L0 13.2617Q0 14.5703 0.483398 15.498Q0.966797 16.4258 1.89453 16.9141Q2.82227 17.4023 4.15039 17.4023L4.76562 17.4023L4.76562 20.2344Q4.76562 20.6055 4.95117 20.8252Q5.13672 21.0449 5.46875 21.0449Z"
                     fill="rgba(255,255,255,0.55)" />
              <path d="M5.3125 6.44531Q5.11719 6.44531 4.98047 6.30371Q4.84375 6.16211 4.84375 5.9668Q4.84375 5.77148 4.98047 5.63477Q5.11719 5.49805 5.3125 5.49805L15.6055 5.49805Q15.8008 5.49805 15.9375 5.63477Q16.0742 5.77148 16.0742 5.9668Q16.0742 6.16211 15.9375 6.30371Q15.8008 6.44531 15.6055 6.44531ZM5.3125 9.67773Q5.11719 9.67773 4.98047 9.5459Q4.84375 9.41406 4.84375 9.20898Q4.84375 9.02344 4.98047 8.88184Q5.11719 8.74023 5.3125 8.74023L15.6055 8.74023Q15.8008 8.74023 15.9375 8.88184Q16.0742 9.02344 16.0742 9.20898Q16.0742 9.41406 15.9375 9.5459Q15.8008 9.67773 15.6055 9.67773ZM5.3125 12.9297Q5.11719 12.9297 4.98047 12.7979Q4.84375 12.666 4.84375 12.4609Q4.84375 12.2656 4.98047 12.1289Q5.11719 11.9922 5.3125 11.9922L12.0508 11.9922Q12.2559 11.9922 12.3926 12.1289Q12.5293 12.2656 12.5293 12.4609Q12.5293 12.666 12.3926 12.7979Q12.2559 12.9297 12.0508 12.9297Z"
                     fill="#ffffff" />
       </g>
</svg>