<svg width="19.5898" height="19.5996">
       <g>
              <rect height="19.5996" opacity="0" width="19.5898" x="0" y="0" />
              <path d="M9.79492 19.5996Q11.8066 19.5996 13.5791 18.833Q15.3516 18.0664 16.7041 16.7139Q18.0566 15.3613 18.8232 13.5889Q19.5898 11.8164 19.5898 9.80469Q19.5898 7.79297 18.8232 6.02051Q18.0566 4.24805 16.7041 2.89551Q15.3516 1.54297 13.5742 0.776367Q11.7969 0.00976562 9.78516 0.00976562Q7.77344 0.00976562 6.00098 0.776367Q4.22852 1.54297 2.88086 2.89551Q1.5332 4.24805 0.766602 6.02051Q0 7.79297 0 9.80469Q0 11.8164 0.766602 13.5889Q1.5332 15.3613 2.88574 16.7139Q4.23828 18.0664 6.01074 18.833Q7.7832 19.5996 9.79492 19.5996Z"
                     fill="rgba(255,255,255,0.55)" />
              <path d="M8.56445 13.4668Q6.99219 13.877 5.85938 13.1885Q4.72656 12.5 4.28711 10.8691L3.47656 7.79297Q3.17383 6.64062 4.31641 6.33789L8.70117 5.16602Q9.84375 4.87305 10.1465 5.99609L10.9766 9.0625Q11.4258 10.7129 10.7812 11.8701Q10.1367 13.0273 8.56445 13.4668ZM8.17383 11.9824Q8.87695 11.7969 9.30176 11.2891Q9.72656 10.7812 9.73633 10.1074Q9.74609 9.99023 9.66797 9.94141Q9.58984 9.89258 9.47266 9.96094Q9.04297 10.2637 8.59863 10.4443Q8.1543 10.625 7.83203 10.7129Q7.50977 10.8008 7.03613 10.8691Q6.5625 10.9375 6.03516 10.8887Q5.9082 10.8789 5.86426 10.9521Q5.82031 11.0254 5.87891 11.1426Q6.24023 11.7188 6.86523 11.9385Q7.49023 12.1582 8.17383 11.9824ZM5.97656 9.12109Q6.19141 9.04297 6.32812 9.11133Q6.46484 9.17969 6.57227 9.15039Q6.70898 9.10156 6.65039 8.88672Q6.5625 8.62305 6.31836 8.47656Q6.07422 8.33008 5.79102 8.39844Q5.50781 8.4668 5.35645 8.7207Q5.20508 8.97461 5.29297 9.25781Q5.36133 9.47266 5.47852 9.44336Q5.58594 9.42383 5.66406 9.30664Q5.74219 9.18945 5.97656 9.12109ZM8.64258 8.39844Q8.86719 8.33008 8.99902 8.39844Q9.13086 8.4668 9.24805 8.4375Q9.28711 8.41797 9.31641 8.34473Q9.3457 8.27148 9.30664 8.17383Q9.23828 7.89062 8.98926 7.74902Q8.74023 7.60742 8.45703 7.67578Q8.17383 7.74414 8.02734 8.00293Q7.88086 8.26172 7.94922 8.53516Q8.03711 8.75 8.14453 8.71094Q8.24219 8.69141 8.33008 8.57422Q8.41797 8.45703 8.64258 8.39844ZM15.4883 7.48047Q16.6602 7.77344 16.3281 8.92578L15.5176 12.002Q15.0781 13.6426 13.9453 14.3262Q12.8125 15.0098 11.2402 14.5996Q10.2734 14.3359 9.64844 13.7695Q10.7227 13.2324 11.2695 12.3145Q11.4062 12.3242 11.543 12.3535Q11.6797 12.3828 11.8066 12.4121Q12.1777 12.5195 12.5 12.6904Q12.8223 12.8613 13.1348 13.1445Q13.2227 13.2324 13.3057 13.1934Q13.3887 13.1543 13.3887 13.0273Q13.3789 12.4707 13.0127 12.0459Q12.6465 11.6211 12.0605 11.4844Q11.9629 11.4648 11.8652 11.4453Q11.7676 11.4258 11.6699 11.4258Q12.002 10.2539 11.6211 8.88672L10.9082 6.26953Q10.9668 6.26953 11.0156 6.2793Q11.0645 6.28906 11.1133 6.30859ZM13.6621 10.6836Q13.877 10.752 14.0723 10.6396Q14.2676 10.5273 14.3262 10.3027Q14.3848 10.0781 14.2773 9.88281Q14.1699 9.6875 13.9453 9.63867Q13.7305 9.58008 13.5303 9.6875Q13.3301 9.79492 13.2812 10.0098Q13.2227 10.2344 13.335 10.4346Q13.4473 10.6348 13.6621 10.6836Z"
                     fill="#ffffff" />
       </g>
</svg>