<svg width="32.3982" height="22.2161">
       <g>
              <rect height="22.2161" opacity="0" width="32.3982" x="0" y="0" />
              <path d="M20.8186 21.2777Q23.1726 21.9035 25.1028 21.419Q27.0331 20.9345 28.3959 19.4215Q29.7587 17.9086 30.4144 15.4533L32.2564 8.57858Q32.5973 7.2918 32.1187 6.47241Q31.6401 5.65301 30.3392 5.30252L20.5592 2.68731Q19.2588 2.34643 18.4414 2.81343Q17.6239 3.28042 17.2763 4.56491L16.3907 7.80938L16.9488 10.5708L18.4613 4.93142Q18.6583 4.19839 19.0972 3.94097Q19.5361 3.68356 20.2563 3.88055L30.0094 6.48828Q30.7296 6.68221 30.9807 7.12937Q31.2317 7.57653 31.0408 8.31018L29.2062 15.1345Q28.6538 17.2204 27.5073 18.5003Q26.3607 19.7802 24.7416 20.1942Q23.1224 20.6081 21.1343 20.0852Q18.9221 19.4761 17.679 18.056Q16.436 16.6358 16.3459 14.5789L15.3053 16.3523Q15.8166 18.1696 17.2242 19.4258Q18.6319 20.682 20.8186 21.2777ZM20.4879 11.0682Q21.0008 11.2086 21.4728 10.9439Q21.9449 10.6793 22.0852 10.1565Q22.2197 9.63082 21.95 9.16192Q21.6804 8.69302 21.1511 8.54272Q20.6382 8.40539 20.1696 8.67982Q19.7009 8.95425 19.5538 9.47396Q19.4163 10.0027 19.6893 10.4667Q19.9623 10.9307 20.4879 11.0682ZM26.2204 12.5984Q26.743 12.732 27.2086 12.4625Q27.6742 12.1929 27.8146 11.6732Q27.9521 11.1506 27.6825 10.6835Q27.4128 10.2165 26.8902 10.079Q26.3676 9.93859 25.902 10.2048Q25.4364 10.471 25.3088 10.9907Q25.1585 11.5164 25.4281 11.9868Q25.6978 12.4572 26.2204 12.5984ZM22.0727 16.4263Q22.9287 16.6534 23.6769 17.067Q24.425 17.4807 25.1596 18.1339Q25.4132 18.3643 25.6592 18.2491Q25.9053 18.1339 25.8918 17.7918Q25.8612 16.4452 24.9898 15.4298Q24.1185 14.4143 22.6971 14.053Q21.2666 13.6721 20.0102 14.1178Q18.7538 14.5635 18.0514 15.6959Q17.8735 15.9751 18.0321 16.2077Q18.1907 16.4402 18.5269 16.3674Q19.449 16.1709 20.3374 16.1833Q21.2259 16.1958 22.0727 16.4263Z"
                     fill="rgba(255,255,255,0.55)" />
              <path d="M11.5822 18.731Q13.9398 18.0918 15.3646 16.7095Q16.7894 15.3271 17.2149 13.3348Q17.6403 11.3426 16.9787 8.88055L15.1277 2.00524Q14.7838 0.727625 13.9579 0.263987Q13.1321-0.199652 11.835 0.150995L2.04816 2.75262Q0.750244 3.09655 0.27539 3.91252Q-0.199463 4.72848 0.14447 6.02578L1.97598 12.9072Q2.62494 15.3625 3.98961 16.8755Q5.35428 18.3885 7.28795 18.8744Q9.22162 19.3604 11.5822 18.731ZM11.2532 17.5355Q9.28159 18.0554 7.65897 17.6395Q6.03635 17.2236 4.89133 15.9388Q3.74631 14.654 3.19104 12.5811L1.35648 5.7438Q1.16254 5.01687 1.41354 4.57795Q1.66455 4.13903 2.38782 3.93533L12.1408 1.32394Q12.8579 1.13 13.3051 1.39413Q13.7523 1.65826 13.9425 2.38824L15.7643 9.21945Q16.3234 11.3021 15.9725 12.9833Q15.6216 14.6645 14.4295 15.8321Q13.2374 16.9998 11.2532 17.5355ZM10.6955 15.3912Q12.2717 14.9525 13.2085 13.8303Q14.1453 12.7081 14.179 11.1985Q14.1829 10.8637 13.9525 10.7556Q13.722 10.6475 13.4428 10.8584Q12.362 11.6311 11.3841 11.9719Q10.4062 12.3127 9.90521 12.4494Q9.40106 12.5831 8.38567 12.7815Q7.37027 12.9798 6.03375 12.8475Q5.6886 12.8047 5.54189 13.0118Q5.39517 13.2189 5.57599 13.4968Q6.35968 14.7884 7.73152 15.2931Q9.10336 15.7977 10.6955 15.3912ZM5.86865 9.08578Q6.37173 8.95516 6.66928 9.087Q6.96683 9.21884 7.18533 9.16024Q7.32037 9.12713 7.38652 8.94464Q7.45267 8.76214 7.38431 8.50152Q7.22806 7.86538 6.63808 7.52809Q6.0481 7.19079 5.41272 7.3771Q4.76743 7.54006 4.42494 8.11997Q4.08246 8.69988 4.26205 9.32916Q4.34018 9.5997 4.49116 9.7239Q4.64215 9.84811 4.77719 9.81515Q4.99203 9.75289 5.17758 9.48922Q5.36313 9.22555 5.86865 9.08578ZM11.7074 7.50741Q12.2166 7.37374 12.5111 7.50558Q12.8056 7.63742 13.0272 7.58859Q13.1591 7.54586 13.2302 7.36329Q13.3012 7.18072 13.2231 6.91705Q13.0699 6.27801 12.4833 5.94407Q11.8966 5.61013 11.2613 5.79949Q10.6093 5.95574 10.2668 6.54046Q9.92429 7.12518 10.1037 7.75094Q10.179 8.00317 10.3269 8.13836Q10.4748 8.27355 10.6221 8.22778Q10.8406 8.16247 11.0228 7.90032Q11.205 7.63818 11.7074 7.50741Z"
                     fill="rgba(255,255,255,0.55)" />
       </g>
</svg>