<svg width="12.0815" height="23.0829">
       <g>
              <rect height="23.0829" opacity="0" width="12.0815" x="0" y="0" />
              <path d="M4.95071 23.0829Q5.97504 23.0829 6.86913 22.6995Q7.76321 22.3161 8.44032 21.6357Q9.11743 20.9554 9.49928 20.0628Q9.88113 19.1702 9.88113 18.1488Q9.88113 17.0657 9.43802 16.1246Q8.9949 15.1836 8.10989 14.4199Q7.93243 14.2642 7.87605 14.1289Q7.81967 13.9935 7.81967 13.7424L7.81967 4.5903Q7.81967 3.66699 7.45659 2.96799Q7.09351 2.26898 6.44745 1.8763Q5.80139 1.48361 4.95071 1.48361Q4.09622 1.48361 3.44528 1.8763Q2.79434 2.26898 2.4279 2.96799Q2.06146 3.66699 2.06146 4.5903L2.06146 13.7424Q2.06146 13.9935 2.00661 14.1289Q1.95175 14.2642 1.77124 14.4199Q0.893097 15.1836 0.446548 16.1246Q0 17.0657 0 18.1488Q0 19.1702 0.383377 20.0628Q0.766754 20.9554 1.44569 21.6357Q2.12463 22.3161 3.02208 22.6995Q3.91953 23.0829 4.95071 23.0829ZM4.95071 21.9908Q3.88596 21.9908 3.01468 21.4701Q2.1434 20.9494 1.62598 20.0747Q1.10855 19.2 1.10855 18.1488Q1.10855 17.2247 1.52092 16.4231Q1.93329 15.6215 2.72903 15.0737Q2.96875 14.9023 3.07243 14.7076Q3.17612 14.5128 3.17612 14.1978L3.17612 4.62784Q3.17612 3.72467 3.67149 3.15994Q4.16687 2.59521 4.95071 2.59521Q5.72418 2.59521 6.21948 3.15994Q6.71478 3.72467 6.71478 4.62784L6.71478 14.1978Q6.71478 14.5128 6.81358 14.7076Q6.91238 14.9023 7.15881 15.0737Q7.95456 15.6215 8.36693 16.4231Q8.7793 17.2247 8.7793 18.1488Q8.7793 19.2 8.25851 20.0747Q7.73773 20.9494 6.86981 21.4701Q6.00189 21.9908 4.95071 21.9908Z"
                     fill="#ffffff" />
              <path d="M9.54956 4.99802L11.6083 4.99802Q11.8204 4.99802 11.9509 4.86191Q12.0815 4.7258 12.0815 4.54361Q12.0815 4.35837 11.9509 4.22379Q11.8204 4.0892 11.6083 4.0892L9.54956 4.0892Q9.34418 4.0892 9.21028 4.22379Q9.07639 4.35837 9.07639 4.54361Q9.07639 4.7258 9.21028 4.86191Q9.34418 4.99802 9.54956 4.99802ZM9.54956 7.74216L11.6083 7.74216Q11.8204 7.74216 11.9509 7.60605Q12.0815 7.46994 12.0815 7.28775Q12.0815 7.09579 11.9509 6.96457Q11.8204 6.83334 11.6083 6.83334L9.54956 6.83334Q9.34418 6.83334 9.21028 6.96457Q9.07639 7.09579 9.07639 7.28775Q9.07639 7.46994 9.21028 7.60605Q9.34418 7.74216 9.54956 7.74216ZM9.54956 10.4832L11.6083 10.4832Q11.8204 10.4832 11.9509 10.3487Q12.0815 10.2141 12.0815 10.0288Q12.0815 9.83994 11.9509 9.70383Q11.8204 9.56772 11.6083 9.56772L9.54956 9.56772Q9.34418 9.56772 9.21028 9.70383Q9.07639 9.83994 9.07639 10.0288Q9.07639 10.2141 9.21028 10.3487Q9.34418 10.4832 9.54956 10.4832ZM9.54956 13.2274L11.6083 13.2274Q11.8204 13.2274 11.9509 13.0913Q12.0815 12.9552 12.0815 12.7663Q12.0815 12.5841 11.9509 12.448Q11.8204 12.3119 11.6083 12.3119L9.54956 12.3119Q9.34418 12.3119 9.21028 12.448Q9.07639 12.5841 9.07639 12.7663Q9.07639 12.9552 9.21028 13.0913Q9.34418 13.2274 9.54956 13.2274Z"
                     fill="#ffffff" />
              <path d="M4.944 20.6755Q5.64362 20.6755 6.21216 20.3336Q6.7807 19.9916 7.12265 19.4167Q7.4646 18.8417 7.4646 18.1421Q7.4646 17.413 7.09038 16.8332Q6.71616 16.2534 6.11038 15.9227Q5.8609 15.7866 5.76202 15.6359Q5.66315 15.4852 5.66315 15.1096L5.66315 13.3929Q5.66315 13.0475 5.45723 12.8284Q5.25131 12.6094 4.944 12.6094Q4.63654 12.6094 4.43062 12.8284Q4.2247 13.0475 4.2247 13.3929L4.2247 15.1096Q4.2247 15.4852 4.1259 15.6359Q4.0271 15.7866 3.77747 15.9227Q3.17184 16.2534 2.79755 16.8332Q2.42325 17.413 2.42325 18.1421Q2.42325 18.8417 2.76184 19.4167Q3.10043 19.9916 3.67233 20.3336Q4.24423 20.6755 4.944 20.6755Z"
                     fill="#ffffff" />
       </g>
</svg>