<svg width="17.9194" height="23.0829">
       <g>
              <rect height="23.0829" opacity="0" width="17.9194" x="0" y="0" />
              <path d="M4.95071 23.0829Q5.97504 23.0829 6.86913 22.6995Q7.76321 22.3161 8.44032 21.6357Q9.11743 20.9554 9.49928 20.0628Q9.88113 19.1702 9.88113 18.1488Q9.88113 17.0657 9.43802 16.1246Q8.9949 15.1836 8.10989 14.4199Q7.93243 14.2642 7.87605 14.1289Q7.81967 13.9935 7.81967 13.7424L7.82639 4.5903Q7.82639 3.66699 7.4633 2.96799Q7.10022 2.26898 6.45081 1.8763Q5.80139 1.48361 4.95071 1.48361Q4.09622 1.48361 3.44193 1.8763Q2.78763 2.26898 2.42119 2.96799Q2.05475 3.66699 2.05475 4.5903L2.06146 13.7424Q2.06146 13.9935 2.00661 14.1289Q1.95175 14.2642 1.77124 14.4199Q0.893097 15.1836 0.446548 16.1246Q0 17.0657 0 18.1488Q0 19.1702 0.383377 20.0628Q0.766754 20.9554 1.44569 21.6357Q2.12463 22.3161 3.02208 22.6995Q3.91953 23.0829 4.95071 23.0829ZM4.95071 21.9908Q3.88596 21.9908 3.01468 21.4701Q2.1434 20.9494 1.62598 20.0747Q1.10855 19.2 1.10855 18.1488Q1.10855 17.2247 1.52092 16.4231Q1.93329 15.6215 2.72903 15.0737Q2.96875 14.9023 3.07243 14.7076Q3.17612 14.5128 3.17612 14.1978L3.17612 4.62784Q3.17612 3.72467 3.67149 3.15994Q4.16687 2.59521 4.95071 2.59521Q5.72418 2.59521 6.21948 3.15994Q6.71478 3.72467 6.71478 4.62784L6.71478 14.1978Q6.71478 14.5128 6.81358 14.7076Q6.91238 14.9023 7.15881 15.0737Q7.95456 15.6215 8.36693 16.4231Q8.7793 17.2247 8.7793 18.1488Q8.7793 19.2 8.25851 20.0747Q7.73773 20.9494 6.86981 21.4701Q6.00189 21.9908 4.95071 21.9908Z"
                     fill="#ffffff" />
              <path d="M4.944 20.6755Q5.64362 20.6755 6.21216 20.3336Q6.7807 19.9916 7.12265 19.4167Q7.4646 18.8417 7.4646 18.1421Q7.4646 17.413 7.09038 16.8332Q6.71616 16.2534 6.11038 15.9227Q5.8609 15.7866 5.76202 15.6359Q5.66315 15.4852 5.66315 15.1096L5.66315 13.298Q5.66315 12.9495 5.45723 12.7304Q5.25131 12.5113 4.944 12.5113Q4.63654 12.5113 4.43062 12.7304Q4.2247 12.9495 4.2247 13.298L4.2247 15.1096Q4.2247 15.4852 4.1259 15.6359Q4.0271 15.7866 3.77747 15.9227Q3.17184 16.2534 2.79755 16.8332Q2.42325 17.413 2.42325 18.1421Q2.42325 18.8417 2.76184 19.4167Q3.10043 19.9916 3.67233 20.3336Q4.24423 20.6755 4.944 20.6755Z"
                     fill="#5ac8f5" />
              <path d="M17.6396 10.8377L16.1964 10.0101L17.5053 9.25385Q17.6636 9.16458 17.7225 9.00261Q17.7815 8.84064 17.6929 8.6853Q17.6006 8.51715 17.4303 8.49358Q17.2601 8.47 17.0883 8.56598L15.3827 9.54361L12.294 7.78122L15.403 6.01212L17.1085 6.99326Q17.2736 7.08923 17.4404 7.06535Q17.6073 7.04147 17.7132 6.87042Q17.7956 6.71875 17.7397 6.5583Q17.6839 6.39786 17.5255 6.30554L16.2167 5.54932L17.6463 4.72763Q17.8287 4.62494 17.8943 4.45282Q17.9599 4.2807 17.8542 4.10217Q17.7649 3.93036 17.583 3.90495Q17.4011 3.87955 17.2362 3.96881L15.793 4.81064L15.793 3.31161Q15.793 3.12027 15.6835 2.99011Q15.574 2.85995 15.3961 2.85995Q15.1982 2.85995 15.0921 2.99347Q14.986 3.12698 14.986 3.33176L14.9792 5.28381L11.8904 7.08664L11.9107 3.49442L13.6095 2.51328Q13.7813 2.40753 13.8421 2.25037Q13.9029 2.0932 13.8106 1.9252Q13.7213 1.76682 13.5529 1.73988Q13.3844 1.71295 13.2262 1.80527L11.9174 2.56149L11.9241 0.925751Q11.9241 0.720978 11.8098 0.575485Q11.6954 0.429993 11.4937 0.429993Q11.292 0.429993 11.1791 0.575485Q11.0663 0.720978 11.0663 0.925751L11.073 2.56149L9.7612 1.80527Q9.60587 1.71295 9.43748 1.73988Q9.2691 1.76682 9.17679 1.9252Q9.08447 2.0932 9.1468 2.25037Q9.20914 2.40753 9.3779 2.51328L11.0797 3.49442L11.0968 7.08664L8.83575 5.75607L8.83575 6.70624L10.6897 7.78122L8.83575 8.84033L8.83575 9.79355L11.0968 8.47565L11.0797 12.0514L9.48563 12.9713Q9.46152 13.1485 9.61731 13.3621Q9.7731 13.5757 9.97375 13.6186L11.073 12.9875L11.0663 14.6367Q11.0663 14.8451 11.1776 14.9839Q11.2889 15.1227 11.4937 15.1227Q11.6954 15.1227 11.8098 14.9805Q11.9241 14.8384 11.9241 14.6367L11.9174 12.9942L13.2195 13.7437Q13.3777 13.8359 13.5461 13.809Q13.7146 13.782 13.8039 13.6238Q13.8998 13.4489 13.8372 13.2919Q13.7746 13.1348 13.6028 13.0357L11.9107 12.0514L11.8904 8.47565L14.9687 10.2748L14.9687 12.2305Q14.9687 12.4188 15.0767 12.5558Q15.1846 12.6927 15.376 12.6927Q15.5537 12.6927 15.6632 12.5592Q15.7727 12.4257 15.7727 12.2508L15.7794 10.7481L17.2122 11.5764Q17.3944 11.6859 17.5748 11.6589Q17.7551 11.6319 17.8542 11.4572Q17.9599 11.2817 17.8924 11.1111Q17.8249 10.9404 17.6396 10.8377Z"
                     fill="#ffffff" />
       </g>
</svg>