<svg width="19.5628" height="25.8084">
       <g>
              <rect height="25.8084" opacity="0" width="19.5628" x="0" y="0" />
              <path d="M9.59915 14.7316Q10.9097 14.7316 11.9857 14.0924Q13.0617 13.4532 13.6941 12.3773Q14.3265 11.3014 14.3265 9.98764Q14.3265 8.6673 13.6941 7.5914Q13.0617 6.5155 11.9857 5.87967Q10.9097 5.24384 9.59915 5.24384Q8.92899 5.24384 8.29674 5.43663Q7.66449 5.62943 7.08679 5.99167L7.68936 6.94595Q8.12698 6.66382 8.61275 6.51115Q9.09851 6.35849 9.59915 6.35849Q10.6168 6.35849 11.4348 6.83952Q12.2528 7.32056 12.7357 8.14537Q13.2185 8.97018 13.2185 9.98764Q13.2185 11.0052 12.7357 11.8282Q12.2528 12.6512 11.4348 13.1356Q10.6168 13.62 9.59915 13.62Q9.01016 13.62 8.45154 13.4352Q7.89291 13.2504 7.41333 12.9019L7.41333 14.1881Q7.91977 14.4565 8.47015 14.594Q9.02054 14.7316 9.59915 14.7316ZM9.59915 3.59726Q9.8494 3.59726 10.0327 3.41553Q10.2159 3.2338 10.2159 2.9866L10.2159 0.610809Q10.2159 0.360413 10.0327 0.180206Q9.8494 0 9.59915 0Q9.34875 0 9.16702 0.180206Q8.98529 0.360413 8.98529 0.610809L8.98529 2.9866Q8.98529 3.2338 9.16702 3.41553Q9.34875 3.59726 9.59915 3.59726ZM14.1109 5.48203Q14.281 5.65887 14.5396 5.66223Q14.7981 5.66559 14.9817 5.48203L16.6568 3.8002Q16.8434 3.6203 16.8385 3.36662Q16.8336 3.11295 16.6568 2.9361Q16.4867 2.75925 16.233 2.75436Q15.9793 2.74948 15.7994 2.9361L14.1109 4.62173Q13.934 4.79858 13.9374 5.05188Q13.9407 5.30518 14.1109 5.48203ZM16.58 10.6015L18.9528 10.6015Q19.2091 10.6015 19.386 10.4198Q19.5628 10.238 19.5628 9.98764Q19.5628 9.7374 19.386 9.55719Q19.2091 9.37698 18.9528 9.37698L16.58 9.37698Q16.3335 9.37698 16.1499 9.55719Q15.9663 9.7374 15.9663 9.98764Q15.9663 10.238 16.1499 10.4198Q16.3335 10.6015 16.58 10.6015ZM15.7994 17.0679Q15.9793 17.2478 16.233 17.2429Q16.4867 17.238 16.6568 17.0612Q16.8336 16.8843 16.8385 16.6306Q16.8434 16.377 16.6568 16.2038L14.9681 14.5152Q14.7913 14.3451 14.5395 14.3451Q14.2877 14.3451 14.1109 14.5152Q13.934 14.6921 13.934 14.9506Q13.934 15.2092 14.1109 15.386Z"
                     fill="rgba(255,255,255,0.55)" />
              <path d="M4.95071 25.2774Q5.97504 25.2774 6.86913 24.894Q7.76321 24.5105 8.44032 23.8301Q9.11743 23.1497 9.49928 22.2572Q9.88113 21.3646 9.88113 20.3432Q9.88113 19.2601 9.43802 18.3206Q8.9949 17.3811 8.10989 16.6173Q7.93243 16.4587 7.87605 16.3234Q7.81967 16.188 7.81967 15.9398L7.82639 6.78482Q7.82639 5.87112 7.4633 5.17059Q7.10022 4.47006 6.45081 4.07745Q5.80139 3.68484 4.95071 3.68484Q4.09622 3.68484 3.44193 4.07745Q2.78763 4.47006 2.42119 5.17059Q2.05475 5.87112 2.05475 6.78482L2.06146 15.9398Q2.06146 16.188 2.00661 16.3234Q1.95175 16.4587 1.77124 16.6173Q0.893097 17.3811 0.446548 18.3206Q0 19.2601 0 20.3432Q0 21.3646 0.383377 22.2572Q0.766754 23.1497 1.44569 23.8301Q2.12463 24.5105 3.02208 24.894Q3.91953 25.2774 4.95071 25.2774ZM4.95071 24.1853Q3.88596 24.1853 3.01468 23.6661Q2.1434 23.1468 1.62598 22.274Q1.10855 21.4012 1.10855 20.3432Q1.10855 19.4191 1.52092 18.6175Q1.93329 17.8159 2.72903 17.2681Q2.96875 17.0967 3.07243 16.9019Q3.17612 16.7072 3.17612 16.3953L3.17612 6.82526Q3.17612 5.91904 3.67149 5.35583Q4.16687 4.79263 4.95071 4.79263Q5.72418 4.79263 6.21948 5.35583Q6.71478 5.91904 6.71478 6.82526L6.71478 16.3953Q6.71478 16.7072 6.81358 16.9019Q6.91238 17.0967 7.15881 17.2681Q7.95456 17.8159 8.36693 18.6175Q8.7793 19.4191 8.7793 20.3432Q8.7793 21.4012 8.25851 22.274Q7.73773 23.1468 6.86981 23.6661Q6.00189 24.1853 4.95071 24.1853Z"
                     fill="rgba(255,255,255,0.55)" />
              <path d="M4.944 22.8699Q5.64362 22.8699 6.21216 22.5279Q6.7807 22.186 7.12265 21.6125Q7.4646 21.0391 7.4646 20.3365Q7.4646 19.6074 7.09038 19.0276Q6.71616 18.4477 6.11038 18.1238Q5.8609 17.9842 5.76202 17.8353Q5.66315 17.6865 5.66315 17.307L5.66315 7.74002Q5.66315 7.39456 5.45723 7.17552Q5.25131 6.95648 4.944 6.95648Q4.63654 6.95648 4.43062 7.17552Q4.2247 7.39456 4.2247 7.74002L4.2247 17.307Q4.2247 17.6865 4.1259 17.8353Q4.0271 17.9842 3.77747 18.1238Q3.17184 18.4477 2.79755 19.0276Q2.42325 19.6074 2.42325 20.3365Q2.42325 21.0391 2.76184 21.616Q3.10043 22.1928 3.67233 22.5314Q4.24423 22.8699 4.944 22.8699Z"
                     fill="rgba(255,255,255,0.55)" />
       </g>
</svg>