<svg width="19.5918" height="19.5987">
       <g>
              <rect height="19.5987" opacity="0" width="19.5918" x="0" y="0" />
              <path d="M9.79446 19.5889Q11.8082 19.5889 13.5796 18.8228Q15.3511 18.0566 16.7039 16.7039Q18.0566 15.3513 18.8242 13.5783Q19.5918 11.8053 19.5918 9.79446Q19.5918 7.78366 18.8242 6.01067Q18.0566 4.23767 16.7073 2.88498Q15.358 1.53229 13.585 0.766144Q11.812 0 9.80118 0Q9.44077 0 9.28215 0.178909Q9.12354 0.357819 9.12354 0.681152L9.12354 4.51492Q9.12354 4.76456 9.27528 4.93729Q9.42703 5.11002 9.67896 5.11002Q9.93469 5.11002 10.088 4.93729Q10.2412 4.76456 10.2412 4.51492L10.2412 0.561676L9.76044 1.26358Q11.5472 1.26358 13.0995 1.92291Q14.6518 2.58224 15.8244 3.75328Q16.9969 4.92432 17.6577 6.4724Q18.3185 8.02048 18.3185 9.79446Q18.3185 11.5654 17.6592 13.1116Q17 14.6579 15.8289 15.8274Q14.6579 16.9969 13.1131 17.6596Q11.5683 18.3223 9.79446 18.3223Q8.02353 18.3223 6.47537 17.6596Q4.92722 16.9969 3.75626 15.8274Q2.5853 14.6579 1.92596 13.1116Q1.26663 11.5654 1.26663 9.79446Q1.27335 8.1485 1.8515 6.69319Q2.42966 5.23788 3.44818 4.11224Q3.62061 3.89557 3.62885 3.64899Q3.63708 3.4024 3.45047 3.20908Q3.26385 3.01575 2.9937 3.03261Q2.72354 3.04947 2.5235 3.28995Q1.35559 4.59244 0.677795 6.26221Q0 7.93198 0 9.79446Q0 11.8053 0.766144 13.5783Q1.53229 15.3513 2.88498 16.7039Q4.23767 18.0566 6.01067 18.8228Q7.78366 19.5889 9.79446 19.5889Z"
                     fill="#ff9f0a" />
              <path d="M11.2117 11.0281Q11.5689 10.6512 11.6395 10.2283Q11.7101 9.8053 11.5265 9.40521Q11.3429 9.00513 10.9264 8.70712L5.86029 5.10284Q5.64636 4.95499 5.46333 5.01953Q5.2803 5.08408 5.22064 5.26375Q5.16098 5.44342 5.30884 5.6572L8.90335 10.7234Q9.20135 11.1467 9.60144 11.3318Q10.0015 11.5169 10.4279 11.4463Q10.8543 11.3757 11.2117 11.0281Z"
                     fill="rgba(255,255,255,0.85)" />
       </g>
</svg>