<svg width="19.5898" height="19.5996">
       <g>
              <rect height="19.5996" opacity="0" width="19.5898" x="0" y="0" />
              <path d="M9.79492 19.5898Q11.8066 19.5898 13.5791 18.8232Q15.3516 18.0566 16.7041 16.7041Q18.0566 15.3516 18.8232 13.5791Q19.5898 11.8066 19.5898 9.79492Q19.5898 7.7832 18.8232 6.01074Q18.0566 4.23828 16.7041 2.88574Q15.3516 1.5332 13.5742 0.766602Q11.7969 0 9.78516 0Q7.77344 0 6.00098 0.766602Q4.22852 1.5332 2.88086 2.88574Q1.5332 4.23828 0.766602 6.01074Q0 7.7832 0 9.79492Q0 11.8066 0.766602 13.5791Q1.5332 15.3516 2.88574 16.7041Q4.23828 18.0566 6.01074 18.8232Q7.7832 19.5898 9.79492 19.5898Z"
                     fill="rgba(255,255,255,0.55)" />
              <path d="M9.78516 15.4102Q8.63281 15.4102 7.61719 14.9707Q6.60156 14.5312 5.8252 13.7549Q5.04883 12.9785 4.60938 11.9629Q4.16992 10.9473 4.16992 9.79492Q4.16992 8.73047 4.55566 7.76855Q4.94141 6.80664 5.61523 6.06445Q5.77148 5.86914 5.99609 5.85449Q6.2207 5.83984 6.38672 6.00586Q6.54297 6.16211 6.5332 6.37207Q6.52344 6.58203 6.39648 6.73828Q5.84961 7.35352 5.53223 8.125Q5.21484 8.89648 5.21484 9.79492Q5.21484 11.0742 5.8252 12.1094Q6.43555 13.1445 7.47559 13.7549Q8.51562 14.3652 9.78516 14.3652Q11.0645 14.3652 12.1045 13.7549Q13.1445 13.1445 13.75 12.1094Q14.3555 11.0742 14.3555 9.79492Q14.3555 8.58398 13.8135 7.58789Q13.2715 6.5918 12.334 5.97168Q11.3965 5.35156 10.2148 5.24414L10.2148 6.34766Q10.2148 6.55273 10.0781 6.7041Q9.94141 6.85547 9.72656 6.85547Q9.51172 6.85547 9.37988 6.7041Q9.24805 6.55273 9.24805 6.34766L9.24805 4.7168Q9.24805 4.47266 9.37988 4.32617Q9.51172 4.17969 9.79492 4.17969Q10.9473 4.17969 11.9678 4.61426Q12.9883 5.04883 13.7598 5.8252Q14.5312 6.60156 14.9707 7.61719Q15.4102 8.63281 15.4102 9.79492Q15.4102 10.9473 14.9707 11.9629Q14.5312 12.9785 13.7598 13.7549Q12.9883 14.5312 11.9678 14.9707Q10.9473 15.4102 9.78516 15.4102ZM10.6641 10.5664Q10.3223 10.8984 9.89746 10.8398Q9.47266 10.7812 9.19922 10.3809L7.34375 7.71484Q7.22656 7.53906 7.28516 7.3877Q7.34375 7.23633 7.5 7.17773Q7.65625 7.11914 7.83203 7.23633L10.4883 9.0918Q10.8887 9.375 10.9473 9.79004Q11.0059 10.2051 10.6641 10.5664Z"
                     fill="#ffffff" />
       </g>
</svg>