<svg width="21.7308" height="21.7566">
       <g>
              <rect height="21.7566" opacity="0" width="21.7308" x="0" y="0" />
              <path d="M10.8575 0.0256348Q10.6685 0.0256348 10.5325 0.166245Q10.3964 0.306854 10.3964 0.502625L10.3964 4.20746Q10.3964 4.40979 10.5325 4.54559Q10.6685 4.6814 10.8575 4.6814Q11.066 4.6814 11.2003 4.54559Q11.3345 4.40979 11.3345 4.20746L11.3345 0.502625Q11.3345 0.306854 11.2003 0.166245Q11.066 0.0256348 10.8575 0.0256348Z"
                     fill="rgba(255,255,255,0.55)" />
              <path d="M13.7119 0.336761Q13.5107 0.273743 13.3481 0.367584Q13.1854 0.461426 13.1291 0.677338L12.7759 1.90872Q12.7167 2.10373 12.8111 2.27135Q12.9056 2.43896 13.0945 2.48535Q13.2925 2.53799 13.4647 2.4469Q13.6368 2.3558 13.6833 2.15088L14.0146 0.919495Q14.0739 0.704956 13.9858 0.549011Q13.8977 0.393066 13.7119 0.336761Z"
                     fill="rgba(255,255,255,0.55)" />
              <path d="M16.2994 1.47903Q16.127 1.38611 15.9429 1.43562Q15.7588 1.48514 15.6561 1.65085L13.8101 4.86877Q13.6975 5.0412 13.7492 5.22827Q13.801 5.41534 13.9697 5.50842Q14.1385 5.61722 14.3275 5.56282Q14.5164 5.50842 14.6094 5.33295L16.4651 2.12173Q16.5611 1.94931 16.5162 1.76704Q16.4713 1.58478 16.2994 1.47903Z"
                     fill="rgba(255,255,255,0.55)" />
              <path d="M18.6166 3.17459Q18.468 3.02307 18.2742 3.03093Q18.0804 3.03879 17.9446 3.17459L17.0197 4.06555Q16.8741 4.21783 16.8707 4.40193Q16.8674 4.58603 17.0135 4.73145Q17.1622 4.88678 17.3541 4.88678Q17.5461 4.88678 17.6849 4.74121L18.5812 3.84125Q18.7396 3.67615 18.7479 3.49358Q18.7561 3.311 18.6166 3.17459Z"
                     fill="rgba(255,255,255,0.55)" />
              <path d="M20.2812 5.45471Q20.1784 5.28229 19.9928 5.2388Q19.8073 5.19531 19.6347 5.29144L16.4236 7.14111Q16.2482 7.23709 16.1938 7.42607Q16.1394 7.61505 16.2421 7.79053Q16.338 7.95929 16.5252 8.00911Q16.7123 8.05893 16.8817 7.95319L20.1057 6.09741Q20.2715 5.99472 20.3243 5.81398Q20.3772 5.63324 20.2812 5.45471Z"
                     fill="rgba(255,255,255,0.55)" />
              <path d="M21.4453 8.08548Q21.3928 7.8746 21.2173 7.78313Q21.0419 7.69165 20.8662 7.73819L19.6063 8.06107Q19.4142 8.11737 19.3213 8.28003Q19.2284 8.44269 19.2853 8.66165Q19.3378 8.82904 19.4949 8.93181Q19.6521 9.03458 19.8642 8.97827L21.0852 8.64014Q21.2997 8.58398 21.3943 8.42278Q21.4888 8.26157 21.4453 8.08548Z"
                     fill="rgba(255,255,255,0.55)" />
              <path d="M21.7308 10.8832Q21.7308 10.6874 21.5902 10.5547Q21.4496 10.4221 21.254 10.4221L17.5491 10.4221Q17.3466 10.4221 17.2109 10.5547Q17.0752 10.6874 17.0752 10.8832Q17.0752 11.0849 17.2109 11.2225Q17.3466 11.3602 17.5491 11.3602L21.254 11.3602Q21.4496 11.3602 21.5902 11.2225Q21.7308 11.0849 21.7308 10.8832Z"
                     fill="rgba(255,255,255,0.55)" />
              <path d="M21.4392 13.7631Q21.4986 13.5522 21.4047 13.3895Q21.3109 13.2268 21.1086 13.1639L19.8642 12.7979Q19.6655 12.7544 19.5013 12.8474Q19.3372 12.9404 19.2876 13.1323Q19.2351 13.3401 19.3292 13.5126Q19.4234 13.685 19.6153 13.7346L20.8498 14.0591Q21.0643 14.1116 21.2252 14.0221Q21.3861 13.9325 21.4392 13.7631Z"
                     fill="rgba(255,255,255,0.55)" />
              <path d="M20.2774 16.3214Q20.3705 16.1526 20.321 15.9652Q20.2715 15.7777 20.1057 15.6848L16.8878 13.829Q16.7123 13.7262 16.5267 13.773Q16.3411 13.8199 16.2482 13.9886Q16.1394 14.1641 16.1938 14.3497Q16.2482 14.5354 16.4236 14.635L19.6347 16.4908Q19.8073 16.5868 19.9895 16.5385Q20.1717 16.4902 20.2774 16.3214Z"
                     fill="rgba(255,255,255,0.55)" />
              <path d="M18.5977 18.6543Q18.7561 18.4991 18.7482 18.3019Q18.7402 18.1047 18.6113 17.9726L17.7007 17.0483Q17.5552 16.9156 17.3659 16.9104Q17.1765 16.9052 17.0213 17.0514Q16.8825 17.2066 16.8858 17.3904Q16.8892 17.5742 17.0317 17.7226L17.9349 18.6258Q18.0902 18.784 18.2742 18.7874Q18.4583 18.7907 18.5977 18.6543Z"
                     fill="rgba(255,255,255,0.55)" />
              <path d="M16.2987 20.3001Q16.4713 20.204 16.5162 20.0151Q16.5611 19.8262 16.4651 19.6605L14.6094 16.4493Q14.5164 16.2671 14.329 16.216Q14.1415 16.165 13.9728 16.261Q13.804 16.3637 13.7508 16.5508Q13.6975 16.738 13.8101 16.9104L15.6561 20.1245Q15.7588 20.2971 15.9395 20.3466Q16.1201 20.3961 16.2987 20.3001Z"
                     fill="rgba(255,255,255,0.55)" />
              <path d="M13.6937 21.4899Q13.9217 21.4305 13.9963 21.2584Q14.0709 21.0863 14.0274 20.901L13.7149 19.6312Q13.6624 19.4423 13.4911 19.3508Q13.3199 19.2593 13.1248 19.3095Q12.9132 19.3658 12.8255 19.5364Q12.7377 19.707 12.7879 19.8953L13.1395 21.123Q13.1958 21.3309 13.3432 21.4272Q13.4906 21.5234 13.6937 21.4899Z"
                     fill="rgba(255,255,255,0.55)" />
              <path d="M10.8575 21.7566Q11.066 21.7566 11.2003 21.6159Q11.3345 21.4752 11.3345 21.2796L11.3345 17.5748Q11.3345 17.3723 11.2003 17.2366Q11.066 17.1008 10.8575 17.1008Q10.6685 17.1008 10.5325 17.2366Q10.3964 17.3723 10.3964 17.5748L10.3964 21.2796Q10.3964 21.4752 10.5325 21.6159Q10.6685 21.7566 10.8575 21.7566Z"
                     fill="rgba(255,255,255,0.55)" />
              <path d="M7.98233 21.474Q8.2074 21.5437 8.3783 21.4346Q8.54919 21.3255 8.59573 21.1432L8.95203 19.9088Q9.00818 19.7168 8.91525 19.5492Q8.82233 19.3816 8.63022 19.3321Q8.43216 19.2796 8.26157 19.3723Q8.09097 19.4649 8.04153 19.6666L7.71011 20.901Q7.65396 21.1125 7.72179 21.2633Q7.78961 21.414 7.98233 21.474Z"
                     fill="rgba(255,255,255,0.55)" />
              <path d="M5.43213 20.3001Q5.60394 20.3961 5.7914 20.3466Q5.97885 20.2971 6.07178 20.1245L7.92755 16.9135Q8.03024 16.741 7.98195 16.5524Q7.93365 16.3637 7.76489 16.261Q7.58942 16.165 7.40532 16.216Q7.22122 16.2671 7.12143 16.4493L5.27252 19.6605Q5.16968 19.8262 5.21805 20.0117Q5.26642 20.1973 5.43213 20.3001Z"
                     fill="rgba(255,255,255,0.55)" />
              <path d="M3.11493 18.6325Q3.27026 18.784 3.45886 18.7814Q3.64746 18.7787 3.78326 18.6459L4.70825 17.7519Q4.85367 17.5929 4.86046 17.4122Q4.86725 17.2314 4.71802 17.086Q4.57611 16.9374 4.37744 16.9341Q4.17877 16.9307 4.04297 17.0763L3.14651 17.9794Q2.98828 18.1413 2.9834 18.3172Q2.97852 18.493 3.11493 18.6325Z"
                     fill="rgba(255,255,255,0.55)" />
              <path d="M1.4534 16.3214Q1.55243 16.4902 1.74141 16.5385Q1.93039 16.5868 2.0961 16.4908L5.30716 14.635Q5.4895 14.5354 5.54047 14.3482Q5.59143 14.1611 5.4895 13.9954Q5.38971 13.8199 5.20264 13.773Q5.01556 13.7262 4.84314 13.829L1.63193 15.6848Q1.4595 15.7777 1.40846 15.9618Q1.35742 16.1459 1.4534 16.3214Z"
                     fill="rgba(255,255,255,0.55)" />
              <path d="M0.282593 13.7216Q0.335083 13.9227 0.509033 14.0123Q0.682983 14.1019 0.868225 14.0591L2.11853 13.7595Q2.32025 13.7001 2.41325 13.5408Q2.50626 13.3815 2.453 13.1828Q2.39685 12.9817 2.22961 12.8838Q2.06238 12.7859 1.86356 12.8325L0.649261 13.1639Q0.421295 13.2298 0.328674 13.3877Q0.236053 13.5455 0.282593 13.7216Z"
                     fill="rgba(255,255,255,0.55)" />
              <path d="M0 10.8832Q0 11.0849 0.139084 11.2225Q0.278168 11.3602 0.47699 11.3602L4.18167 11.3602Q4.38416 11.3602 4.51988 11.2225Q4.65561 11.0849 4.65561 10.8832Q4.65561 10.6874 4.51988 10.5547Q4.38416 10.4221 4.18167 10.4221L0.47699 10.4221Q0.278168 10.4221 0.139084 10.5547Q0 10.6874 0 10.8832Z"
                     fill="rgba(255,255,255,0.165)" />
              <path d="M0.278778 8.05756Q0.236053 8.25851 0.341797 8.42278Q0.44754 8.58704 0.626068 8.64014L1.86356 9.0062Q2.06238 9.05273 2.22839 8.95973Q2.39441 8.86673 2.44019 8.66501Q2.48978 8.46695 2.40051 8.29453Q2.31125 8.1221 2.11243 8.06946L0.877991 7.75162Q0.656738 7.69241 0.489197 7.78534Q0.321655 7.87827 0.278778 8.05756Z"
                     fill="rgba(255,255,255,0.165)" />
              <path d="M1.46317 5.45105Q1.36047 5.62958 1.40999 5.81367Q1.4595 5.99777 1.63193 6.09741L4.84314 7.95319Q5.01556 8.05893 5.20416 8.00911Q5.39276 7.95929 5.49545 7.79053Q5.59143 7.61505 5.54047 7.4276Q5.4895 7.24014 5.30716 7.14722L2.0961 5.29144Q1.93039 5.19531 1.74477 5.24033Q1.55914 5.28534 1.46317 5.45105Z"
                     fill="rgba(255,255,255,0.165)" />
              <path d="M3.12332 3.14972Q2.9718 3.29453 2.98645 3.49174Q3.0011 3.68896 3.13004 3.82767L4.02039 4.75204Q4.17267 4.89517 4.35524 4.89853Q4.53781 4.90189 4.69009 4.75266Q4.83185 4.6109 4.83368 4.41704Q4.83551 4.22318 4.68933 4.06799L3.79303 3.17459Q3.63464 3.00949 3.45055 3.01292Q3.26645 3.01636 3.12332 3.14972Z"
                     fill="rgba(255,255,255,0.165)" />
              <path d="M5.43518 1.47232Q5.26642 1.57806 5.21805 1.76369Q5.16968 1.94931 5.27252 2.12173L7.11548 5.33295Q7.21817 5.50842 7.40524 5.56282Q7.59232 5.61722 7.76108 5.50842Q7.93655 5.41534 7.9834 5.22827Q8.03024 5.0412 7.92755 4.86877L6.07178 1.65085Q5.96909 1.48514 5.78987 1.43227Q5.61066 1.37939 5.43518 1.47232Z"
                     fill="rgba(255,255,255,0.165)" />
              <path d="M8.03116 0.310516Q7.82333 0.353241 7.73674 0.520172Q7.65015 0.687103 7.70035 0.906067L8.01956 2.1759Q8.06915 2.35504 8.23372 2.44125Q8.39828 2.52747 8.62015 2.47055Q8.84155 2.40753 8.91914 2.25044Q8.99673 2.09335 8.94348 1.89835L8.60168 0.677338Q8.54248 0.456085 8.38318 0.364914Q8.22388 0.273743 8.03116 0.310516Z"
                     fill="rgba(255,255,255,0.165)" />
       </g>
</svg>