<svg width="18.1628" height="21.083">
       <g>
              <rect height="21.083" opacity="0" width="18.1628" x="0" y="0" />
              <path d="M8.89938 8.42188Q11.0365 8.42188 12.7452 8.17331Q14.4539 7.92475 15.6648 7.46561Q16.8758 7.00647 17.5193 6.38239Q18.1628 5.7583 18.1628 5.01108Q18.1628 4.12439 17.3389 3.47223Q16.515 2.82007 15.0572 2.46897Q13.5994 2.11786 11.6766 2.11786Q9.57321 2.11786 7.86163 2.4991Q6.15005 2.88034 4.83307 3.48276Q4.54819 3.62223 4.46899 3.855Q4.3898 4.08777 4.49936 4.29026Q4.60876 4.51288 4.85802 4.56491Q5.10727 4.61695 5.35187 4.5112Q6.52069 4.01377 8.05862 3.61338Q9.59656 3.21299 11.619 3.21299Q13.2838 3.21299 14.4883 3.45461Q15.6927 3.69623 16.3413 4.10219Q16.9899 4.50815 16.9899 5.00437Q16.9899 5.43299 16.4149 5.84223Q15.84 6.25147 14.7673 6.57724Q13.6946 6.90302 12.1973 7.09803Q10.7001 7.29303 8.85529 7.29303Q5.13489 7.29303 3.15056 6.54383Q1.16623 5.79462 1.16623 4.35343Q1.16623 3.46415 2.08885 2.59691Q3.01147 1.72968 5.0972 1.07035Q5.36774 0.983372 5.47905 0.783253Q5.59036 0.583134 5.51697 0.353794Q5.43381 0.114689 5.22614 0.0359535Q5.01846-0.0427819 4.72397 0.0509071Q3.16208 0.515079 2.11174 1.19577Q1.0614 1.87647 0.530701 2.69098Q0 3.5055 0 4.37738Q0 6.34531 2.26753 7.38359Q4.53506 8.42188 8.89938 8.42188ZM9.20456 11.5566Q11.4842 11.5566 13.5052 11.2127Q15.5263 10.8688 17.0023 10.2383Q17.231 10.1423 17.3221 9.9444Q17.4132 9.74649 17.3067 9.53745Q17.207 9.34168 17.0046 9.3001Q16.8022 9.25852 16.5367 9.36426Q15.1338 9.92426 13.2275 10.2404Q11.3213 10.5566 9.20456 10.5566Q8.13232 10.5566 6.99181 10.4657Q5.85129 10.3749 4.76761 10.1942Q3.68393 10.0135 2.7858 9.75214Q2.52045 9.67569 2.32285 9.74909Q2.12524 9.82248 2.06238 10.0453Q1.99936 10.2641 2.10541 10.447Q2.21146 10.63 2.47757 10.7064Q3.45016 10.9896 4.59465 11.177Q5.73914 11.3644 6.92345 11.4605Q8.10776 11.5566 9.20456 11.5566ZM9.89883 14.6617Q11.8462 14.6511 13.6324 14.3562Q15.4187 14.0612 17.0056 13.522Q17.3024 13.4254 17.3782 13.2208Q17.4539 13.0161 17.3744 12.8271Q17.298 12.6246 17.097 12.5665Q16.8961 12.5085 16.6 12.6014Q15.0485 13.1198 13.3685 13.3903Q11.6885 13.6608 9.89883 13.6608Q9.13239 13.6608 8.38181 13.6184Q7.63123 13.576 7.01065 13.482Q6.73111 13.4423 6.56349 13.5454Q6.39587 13.6485 6.3562 13.8516Q6.31638 14.0608 6.43257 14.235Q6.54877 14.4093 6.84799 14.4595Q7.42645 14.5542 8.21609 14.6079Q9.00574 14.6617 9.89883 14.6617ZM8.992 17.5991Q9.86557 17.7096 10.847 17.7208Q11.8285 17.732 12.8166 17.6216Q13.8048 17.5112 14.7046 17.2482Q14.9609 17.1754 15.0588 16.9776Q15.1567 16.7797 15.0906 16.5772Q15.0209 16.3613 14.8267 16.2879Q14.6326 16.2144 14.3567 16.2872Q13.1531 16.6088 11.7924 16.7027Q10.4317 16.7967 9.15833 16.6284Q8.8855 16.5952 8.70445 16.7069Q8.52341 16.8186 8.49716 17.0315Q8.47397 17.2407 8.59016 17.4034Q8.70636 17.566 8.992 17.5991ZM8.32794 20.6312Q8.75366 20.6996 9.3045 20.6916Q9.85535 20.6837 10.3127 20.6222Q10.5721 20.5891 10.695 20.4347Q10.818 20.2802 10.7985 20.0643Q10.7722 19.8716 10.6166 19.7569Q10.461 19.6423 10.1692 19.6752Q9.29779 19.8008 8.42621 19.6911Q8.16391 19.6513 8.00644 19.7663Q7.84897 19.8814 7.81586 20.0674Q7.78961 20.2699 7.91595 20.4325Q8.0423 20.5952 8.32794 20.6312Z"
                     fill="#ffffff" />
       </g>
</svg>