<svg width="21.0434" height="20.7336">
       <g>
              <rect height="20.7336" opacity="0" width="21.0434" x="0" y="0" />
              <path d="M8.5822 20.1877Q9.16447 19.7647 9.76674 18.9444Q10.369 18.1241 10.703 17.0866Q10.7518 16.9298 10.7012 16.7509Q10.6505 16.572 10.4645 16.512Q10.2749 16.4453 10.1114 16.5218Q9.94786 16.5982 9.88561 16.7664Q9.4933 17.8064 9.02104 18.4413Q8.54878 19.0762 8.04234 19.4632Q7.88701 19.5825 7.84764 19.7644Q7.80827 19.9463 7.91402 20.0984Q8.00999 20.2702 8.21027 20.295Q8.41054 20.3198 8.5822 20.1877ZM11.2507 14.9445Q11.3964 14.3167 11.4032 13.5614Q11.41 12.8061 11.2837 12.0279Q11.1574 11.2497 10.9108 10.5595Q10.8223 10.3195 10.6572 10.2378Q10.4921 10.1561 10.31 10.2153Q10.1314 10.2716 10.0452 10.4348Q9.959 10.598 10.0281 10.8064Q10.2678 11.4702 10.384 12.1761Q10.5001 12.8819 10.4982 13.5596Q10.4964 14.2372 10.3672 14.8222Q10.3243 15.0037 10.4023 15.1544Q10.4802 15.3052 10.6919 15.3412Q10.8869 15.3841 11.0459 15.2734Q11.2049 15.1627 11.2507 14.9445Z"
                     fill="#ff375f" />
              <path d="M6.37273 19.4034Q7.53758 18.4669 8.15907 17.0362Q8.78056 15.6055 8.7708 13.9395Q8.76408 13.1044 8.61089 12.4525Q8.45769 11.8005 8.3093 11.2698Q8.1609 10.7391 8.1609 10.2643Q8.1609 9.30634 8.76538 8.72665Q9.36986 8.14697 10.3299 8.14697Q11.2914 8.14697 11.8805 8.77464Q12.4695 9.40231 12.7462 10.5047Q13.0228 11.6071 13.043 13.0254Q13.0736 14.5578 12.7487 15.8788Q12.4238 17.1997 11.8476 18.2272Q11.2714 19.2548 10.5549 19.9048Q10.4093 20.0301 10.3872 20.1973Q10.3652 20.3645 10.4612 20.5077Q10.5706 20.6636 10.7708 20.6869Q10.9711 20.7101 11.1332 20.5646Q11.9069 19.8621 12.5345 18.6964Q13.162 17.5308 13.5293 16.0607Q13.8965 14.5906 13.8898 12.9744Q13.8868 11.2885 13.5261 9.99931Q13.1655 8.71017 12.3844 7.98309Q11.6033 7.25601 10.3299 7.25601Q9.46416 7.25601 8.77446 7.62321Q8.08476 7.99042 7.68262 8.65135Q7.28047 9.31229 7.28047 10.1999Q7.28047 10.7263 7.42696 11.3332Q7.57344 11.94 7.7184 12.6014Q7.86336 13.2628 7.87312 13.9395Q7.88289 15.4007 7.34799 16.6379Q6.8131 17.8751 5.80724 18.6984Q5.64214 18.8342 5.61559 19.0124Q5.58904 19.1905 5.69783 19.3367Q5.8109 19.5093 6.00781 19.5288Q6.20473 19.5483 6.37273 19.4034Z"
                     fill="#ff375f" />
              <path d="M4.34621 18.1386Q4.70448 17.95 5.11166 17.5185Q5.51884 17.0869 5.8463 16.545Q6.17375 16.003 6.30437 15.489Q6.35091 15.3052 6.26904 15.1392Q6.18718 14.9731 5.99828 14.9132Q5.83257 14.863 5.67509 14.9507Q5.51762 15.0385 5.45766 15.2335Q5.25624 15.9386 4.86348 16.451Q4.47072 16.9635 3.94276 17.3285Q3.72441 17.4838 3.68283 17.662Q3.64125 17.8401 3.71022 17.9759Q3.78911 18.1252 3.96306 18.1866Q4.13701 18.2481 4.34621 18.1386ZM14.1277 7.59216Q14.8278 8.62427 15.1782 10.0551Q15.5286 11.4859 15.5286 13.1569Q15.5286 14.9361 15.067 16.5552Q14.6055 18.1743 13.7926 19.2339Q13.6838 19.3825 13.6725 19.5677Q13.6612 19.753 13.797 19.8849Q13.9335 20.0269 14.148 20.0213Q14.3625 20.0157 14.4848 19.8506Q15.3826 18.6246 15.8973 16.8475Q16.4121 15.0705 16.4121 13.127Q16.4121 11.7856 16.2288 10.6931Q16.0456 9.60068 15.711 8.722Q15.3765 7.84332 14.928 7.12433Q14.7928 6.92017 14.6012 6.86699Q14.4095 6.81381 14.2469 6.90308Q14.0775 7.00211 14.0362 7.19444Q13.9949 7.38678 14.1277 7.59216Z"
                     fill="#ff375f" />
              <path d="M6.39668 13.0606Q6.18398 12.5262 5.95746 11.8514Q5.73094 11.1766 5.73094 10.3815Q5.73094 9.04022 6.33862 7.98775Q6.9463 6.93527 7.99725 6.32759Q9.0482 5.71991 10.3864 5.71991Q10.8693 5.71991 11.231 5.77904Q11.5926 5.83817 11.9252 5.97351Q12.2579 6.10886 12.6641 6.32599Q12.8524 6.42441 13.0156 6.38123Q13.1788 6.33804 13.2447 6.20239Q13.3408 6.04568 13.2966 5.85739Q13.2525 5.6691 13.0265 5.52567Q12.5019 5.20615 11.8085 5.01419Q11.1152 4.82224 10.3864 4.82224Q9.19438 4.82224 8.18158 5.23903Q7.16878 5.65582 6.41782 6.40678Q5.66686 7.15775 5.25006 8.17207Q4.83327 9.1864 4.83327 10.3815Q4.83327 11.1852 5.03117 11.9341Q5.22908 12.683 5.5193 13.4018Q5.61162 13.6066 5.78183 13.6845Q5.95204 13.7625 6.15819 13.6794Q6.33366 13.6096 6.39821 13.4311Q6.46275 13.2526 6.39668 13.0606Z"
                     fill="#ff375f" />
              <path d="M2.20204 16.3615Q2.31145 16.5266 2.51317 16.5547Q2.71489 16.5828 2.8867 16.4343Q3.39589 16.01 3.65201 15.3521Q3.90813 14.6942 3.90508 14.0096Q3.89897 13.3267 3.75249 12.8058Q3.606 12.2849 3.45952 11.7041Q3.31303 11.1234 3.31303 10.2502Q3.31303 8.84186 3.86334 7.59087Q4.41365 6.33987 5.37587 5.37422Q6.33809 4.40857 7.59549 3.85834Q8.85289 3.30811 10.2643 3.30811Q12.6241 3.30811 14.3373 4.48334Q16.0505 5.65857 16.9819 7.74796Q17.9134 9.83734 17.9293 12.5848Q17.9322 14.1129 17.7212 15.2867Q17.5103 16.4606 17.2036 17.2427Q17.121 17.4498 17.1901 17.6253Q17.2591 17.8008 17.4114 17.8772Q17.5771 17.944 17.7679 17.881Q17.9587 17.818 18.0346 17.6169Q18.348 16.7328 18.584 15.4662Q18.8201 14.1997 18.8201 12.5812Q18.8201 10.3259 18.2261 8.46481Q17.632 6.6037 16.5152 5.24879Q15.3983 3.89389 13.8195 3.15552Q12.2406 2.41714 10.2643 2.41714Q8.66765 2.41714 7.24789 3.03864Q5.82814 3.66013 4.74332 4.74503Q3.65849 5.82993 3.04036 7.24327Q2.42223 8.65662 2.42223 10.2502Q2.42223 11.0661 2.57207 11.7182Q2.72191 12.3703 2.87175 12.9282Q3.02159 13.486 3.03136 14.0028Q3.03136 14.4948 2.84161 14.9546Q2.65187 15.4144 2.30107 15.7263Q2.1555 15.8485 2.13071 16.0323Q2.10591 16.216 2.20204 16.3615Z"
                     fill="#ff375f" />
              <path d="M0.975388 13.5416Q1.15376 13.4854 1.23143 13.3231Q1.3091 13.1607 1.2505 12.9378Q1.06496 12.2258 0.974854 11.3513Q0.884751 10.4768 0.911759 9.49997Q0.918473 9.28101 0.804489 9.15871Q0.690506 9.03641 0.505875 9.02969Q0.280197 9.01932 0.156067 9.14307Q0.031937 9.26682 0.0117953 9.45572Q-0.0255887 10.2942 0.0555118 11.2856Q0.136612 12.2769 0.386551 13.1958Q0.44957 13.4132 0.619782 13.504Q0.789994 13.5948 0.975388 13.5416ZM0.606125 7.83035Q0.781601 7.89627 0.973633 7.82318Q1.16566 7.75009 1.24211 7.52136Q2.01802 5.29388 3.4438 3.82637Q4.86958 2.35886 6.67584 1.62941Q8.4821 0.899963 10.3864 0.899963Q11.7609 0.899963 12.8244 1.19514Q13.8878 1.49033 14.7115 1.99432Q14.914 2.11365 15.1127 2.08687Q15.3115 2.06009 15.3977 1.86432Q15.4876 1.65894 15.4036 1.51527Q15.3196 1.37161 15.1642 1.27258Q14.1629 0.630035 13.0032 0.315018Q11.8435 0 10.3864 0Q8.79048 0 7.27139 0.434952Q5.7523 0.869904 4.42624 1.75285Q3.10017 2.6358 2.06059 3.96614Q1.02101 5.29648 0.374497 7.08725Q0.271042 7.3735 0.354203 7.56584Q0.437363 7.75818 0.606125 7.83035ZM20.6159 11.2178Q20.808 11.2178 20.9317 11.0757Q21.0555 10.9335 21.0421 10.722Q20.8387 8.83881 20.3229 7.32491Q19.8072 5.811 18.9948 4.61441Q18.1824 3.41782 17.0926 2.48291Q16.9231 2.33368 16.7363 2.34634Q16.5496 2.35901 16.4379 2.48123Q16.3193 2.61032 16.3212 2.79671Q16.323 2.98309 16.4985 3.13599Q17.9862 4.48669 18.9555 6.3208Q19.9248 8.15491 20.1659 10.7385Q20.1893 10.9433 20.3066 11.0806Q20.4239 11.2178 20.6159 11.2178Z"
                     fill="rgba(255,55,95,0.3)" />
       </g>
</svg>