<svg width="19.5898" height="19.5996">
       <g>
              <rect height="19.5996" opacity="0" width="19.5898" x="0" y="0" />
              <path d="M9.79492 19.5996Q11.8066 19.5996 13.5791 18.833Q15.3516 18.0664 16.7041 16.7139Q18.0566 15.3613 18.8232 13.5889Q19.5898 11.8164 19.5898 9.80469Q19.5898 7.79297 18.8232 6.02051Q18.0566 4.24805 16.7041 2.89551Q15.3516 1.54297 13.5742 0.776367Q11.7969 0.00976562 9.78516 0.00976562Q7.77344 0.00976562 6.00098 0.776367Q4.22852 1.54297 2.88086 2.89551Q1.5332 4.24805 0.766602 6.02051Q0 7.79297 0 9.80469Q0 11.8164 0.766602 13.5889Q1.5332 15.3613 2.88574 16.7139Q4.23828 18.0664 6.01074 18.833Q7.7832 19.5996 9.79492 19.5996Z"
                     fill="rgba(255,255,255,0.55)" />
              <path d="M5.68359 12.3633L5.68359 8.99414Q5.68359 7.93945 5.81543 6.97754Q5.94727 6.01562 6.09375 5.41992Q6.23047 4.85352 6.63086 4.47266Q7.03125 4.0918 7.61719 4.02344Q7.91016 3.98438 8.49121 3.9502Q9.07227 3.91602 9.79492 3.91602Q10.5273 3.91602 11.1035 3.9502Q11.6797 3.98438 11.9727 4.02344Q12.5684 4.0918 12.959 4.47266Q13.3496 4.85352 13.5059 5.41992Q13.6523 6.01562 13.7793 6.97754Q13.9062 7.93945 13.9062 8.99414L13.9062 12.3633Q13.9062 13.0469 13.5303 13.4521Q13.1543 13.8574 12.3145 13.8672L13.3203 15.4883Q13.4082 15.625 13.3545 15.7373Q13.3008 15.8496 13.1641 15.8496L12.9199 15.8496Q12.7539 15.8496 12.666 15.7031L12.3828 15.2539L7.2168 15.2539L6.93359 15.7031Q6.85547 15.8496 6.68945 15.8496L6.45508 15.8496Q6.29883 15.8496 6.24512 15.7373Q6.19141 15.625 6.26953 15.4883L7.28516 13.8672Q6.51367 13.8574 6.09863 13.4912Q5.68359 13.125 5.68359 12.3633ZM6.72852 10.0781Q6.72852 10.5664 7.19727 10.6152Q7.61719 10.6543 8.2959 10.6885Q8.97461 10.7227 9.79492 10.7227Q10.4785 10.7227 11.1621 10.6982Q11.8457 10.6738 12.4023 10.6152Q12.8516 10.5664 12.8516 10.0781L12.8516 8.90625Q12.8516 8.21289 12.7881 7.65137Q12.7246 7.08984 12.6562 6.74805Q12.5781 6.35742 12.1973 6.31836Q11.7969 6.26953 11.2354 6.24023Q10.6738 6.21094 9.79492 6.21094Q8.91602 6.21094 8.34961 6.24023Q7.7832 6.26953 7.36328 6.31836Q7.01172 6.35742 6.93359 6.74805Q6.86523 7.08984 6.79688 7.65137Q6.72852 8.21289 6.72852 8.90625ZM6.88477 12.1777Q6.88477 12.4609 7.06543 12.6367Q7.24609 12.8125 7.51953 12.8125Q7.7832 12.8125 7.96875 12.6367Q8.1543 12.4609 8.1543 12.1777Q8.1543 11.9043 7.97363 11.7285Q7.79297 11.5527 7.51953 11.5527Q7.24609 11.5527 7.06543 11.7285Q6.88477 11.9043 6.88477 12.1777ZM11.4453 12.1777Q11.4453 12.4512 11.626 12.6367Q11.8066 12.8223 12.0801 12.8223Q12.3438 12.8223 12.5342 12.6367Q12.7246 12.4512 12.7246 12.1777Q12.7246 11.9043 12.5342 11.7236Q12.3438 11.543 12.0801 11.543Q11.8066 11.543 11.626 11.7236Q11.4453 11.9043 11.4453 12.1777ZM8.25195 5.16602Q8.25195 5.27344 8.3252 5.35156Q8.39844 5.42969 8.52539 5.42969L11.0742 5.42969Q11.1914 5.42969 11.2646 5.35156Q11.3379 5.27344 11.3379 5.16602Q11.3379 5.04883 11.2646 4.97559Q11.1914 4.90234 11.0742 4.90234L8.52539 4.90234Q8.39844 4.90234 8.3252 4.97559Q8.25195 5.04883 8.25195 5.16602ZM7.61719 14.6191L11.9922 14.6191L11.5234 13.8672L8.07617 13.8672Z"
                     fill="#ffffff" />
       </g>
</svg>