<svg width="17.6855" height="17.9199">
       <g>
              <rect height="17.9199" opacity="0" width="17.6855" x="0" y="0" />
              <path d="M2.88086 17.9199L14.8047 17.9199Q16.2305 17.9199 16.958 17.2021Q17.6855 16.4844 17.6855 15.0684L17.6855 3.0957Q17.6855 1.67969 16.958 0.957031Q16.2305 0.234375 14.8047 0.234375L2.88086 0.234375Q1.44531 0.234375 0.722656 0.952148Q0 1.66992 0 3.0957L0 15.0684Q0 16.4844 0.722656 17.2021Q1.44531 17.9199 2.88086 17.9199ZM2.90039 16.709Q2.07031 16.709 1.64062 16.2793Q1.21094 15.8496 1.21094 15.0098L1.21094 3.1543Q1.21094 2.30469 1.64062 1.875Q2.07031 1.44531 2.90039 1.44531L14.7852 1.44531Q15.5859 1.44531 16.0303 1.875Q16.4746 2.30469 16.4746 3.1543L16.4746 15.0098Q16.4746 15.8496 16.0303 16.2793Q15.5859 16.709 14.7852 16.709Z"
                     fill="#ff453a" />
              <path d="M6.37695 14.8242L11.3672 14.8242Q11.8262 14.8242 12.124 14.5459Q12.4219 14.2676 12.4316 13.8086L12.8027 5.84961L13.6328 5.84961Q13.7891 5.84961 13.8916 5.74219Q13.9941 5.63477 14.0039 5.49805Q14.0137 5.35156 13.9014 5.24414Q13.7891 5.13672 13.6328 5.13672L11.1914 5.13672L11.1914 4.29688Q11.1914 3.74023 10.8301 3.39844Q10.4688 3.05664 9.87305 3.05664L7.8418 3.05664Q7.24609 3.05664 6.89453 3.39844Q6.54297 3.74023 6.54297 4.29688L6.54297 5.13672L4.05273 5.13672Q3.90625 5.13672 3.79883 5.24414Q3.69141 5.35156 3.69141 5.49805Q3.69141 5.63477 3.79883 5.74219Q3.90625 5.84961 4.05273 5.84961L4.94141 5.84961L5.30273 13.8086Q5.32227 14.2676 5.61035 14.5459Q5.89844 14.8242 6.37695 14.8242ZM7.1875 13.3008Q6.88477 13.3008 6.875 13.0078L6.5918 7.1582Q6.5918 6.85547 6.92383 6.85547Q7.23633 6.85547 7.24609 7.14844L7.49023 12.998Q7.5 13.3008 7.1875 13.3008ZM8.82812 13.3008Q8.51562 13.3008 8.51562 12.998L8.51562 7.1582Q8.51562 6.85547 8.82812 6.85547Q9.16016 6.85547 9.16016 7.1582L9.16016 12.998Q9.16016 13.3008 8.82812 13.3008ZM10.4785 13.3008Q10.166 13.3008 10.1758 12.998L10.4199 7.14844Q10.4395 6.85547 10.752 6.85547Q11.0742 6.85547 11.0645 7.1582L10.791 13.0078Q10.7812 13.3008 10.4785 13.3008ZM7.34375 5.13672L7.34375 4.33594Q7.34375 4.12109 7.49023 3.98926Q7.63672 3.85742 7.87109 3.85742L9.80469 3.85742Q10.0391 3.85742 10.1904 3.98926Q10.3418 4.12109 10.3418 4.33594L10.3418 5.13672Z"
                     fill="#ff453a" />
       </g>
</svg>