<svg width="19.5898" height="19.5996">
       <g>
              <rect height="19.5996" opacity="0" width="19.5898" x="0" y="0" />
              <path d="M9.79492 19.5996Q11.8066 19.5996 13.5791 18.833Q15.3516 18.0664 16.7041 16.7139Q18.0566 15.3613 18.8232 13.5889Q19.5898 11.8164 19.5898 9.80469Q19.5898 7.79297 18.8232 6.02051Q18.0566 4.24805 16.7041 2.89551Q15.3516 1.54297 13.5742 0.776367Q11.7969 0.00976562 9.78516 0.00976562Q7.77344 0.00976562 6.00098 0.776367Q4.22852 1.54297 2.88086 2.89551Q1.5332 4.24805 0.766602 6.02051Q0 7.79297 0 9.80469Q0 11.8164 0.766602 13.5889Q1.5332 15.3613 2.88574 16.7139Q4.23828 18.0664 6.01074 18.833Q7.7832 19.5996 9.79492 19.5996Z"
                     fill="#ff453a" />
              <path d="M7.32422 15.5664Q6.8457 15.5664 6.55762 15.2881Q6.26953 15.0098 6.25 14.5508L5.91797 7.32422L7.58789 8.99414L7.83203 13.75Q7.83203 14.043 8.13477 14.043Q8.29102 14.043 8.36426 13.96Q8.4375 13.877 8.4375 13.7402L8.25195 9.66797L9.46289 10.8691L9.46289 13.7402Q9.46289 14.043 9.77539 14.043Q10.1074 14.043 10.1074 13.7402L10.1074 11.5234L11.1816 12.5977L11.123 13.7402Q11.1133 14.043 11.4258 14.043Q11.6895 14.043 11.7285 13.7988L11.7773 13.1934L13.3105 14.7168L13.291 14.8926Q13.2129 15.1758 12.9443 15.3711Q12.6758 15.5664 12.3145 15.5664ZM14.1797 14.6973L4.96094 5.46875Q4.85352 5.35156 4.84863 5.2002Q4.84375 5.04883 4.96094 4.93164Q5.06836 4.81445 5.22949 4.81445Q5.39062 4.81445 5.49805 4.93164L14.7168 14.1504Q14.834 14.2676 14.834 14.4238Q14.834 14.5801 14.7168 14.6875Q14.5996 14.8047 14.4482 14.8096Q14.2969 14.8145 14.1797 14.6973ZM13.4961 12.0312L11.8848 10.4102L12.0215 7.90039Q12.0312 7.59766 11.6992 7.59766Q11.377 7.59766 11.377 7.89062L11.2793 9.80469L10.1074 8.63281L10.1074 7.90039Q10.1074 7.59766 9.77539 7.59766Q9.63867 7.59766 9.59961 7.70508L9.59961 8.125L7.04102 5.56641L7.49023 5.56641Q7.49023 5.42969 7.49023 5.29785Q7.49023 5.16602 7.49023 5.03906Q7.49023 4.48242 7.84668 4.14062Q8.20312 3.79883 8.79883 3.79883L10.8203 3.79883Q11.416 3.79883 11.7773 4.14062Q12.1387 4.48242 12.1387 5.03906L12.1387 5.87891L14.5898 5.87891Q14.7363 5.87891 14.8486 5.98633Q14.9609 6.09375 14.9512 6.24023Q14.9512 6.37695 14.8438 6.48438Q14.7363 6.5918 14.5898 6.5918L13.75 6.5918ZM8.29102 5.87891L11.2891 5.87891L11.2891 5.07812Q11.2891 4.86328 11.1426 4.73145Q10.9961 4.59961 10.752 4.59961L8.81836 4.59961Q8.58398 4.59961 8.4375 4.73145Q8.29102 4.86328 8.29102 5.07812Z"
                     fill="#ffffff" />
       </g>
</svg>