<svg width="19.5898" height="19.5996">
       <g>
              <rect height="19.5996" opacity="0" width="19.5898" x="0" y="0" />
              <path d="M9.79492 19.5996Q11.8066 19.5996 13.5791 18.833Q15.3516 18.0664 16.7041 16.7139Q18.0566 15.3613 18.8232 13.5889Q19.5898 11.8164 19.5898 9.80469Q19.5898 7.79297 18.8232 6.02051Q18.0566 4.24805 16.7041 2.89551Q15.3516 1.54297 13.5742 0.776367Q11.7969 0.00976562 9.78516 0.00976562Q7.77344 0.00976562 6.00098 0.776367Q4.22852 1.54297 2.88086 2.89551Q1.5332 4.24805 0.766602 6.02051Q0 7.79297 0 9.80469Q0 11.8164 0.766602 13.5889Q1.5332 15.3613 2.88574 16.7139Q4.23828 18.0664 6.01074 18.833Q7.7832 19.5996 9.79492 19.5996Z"
                     fill="#ff453a" />
              <path d="M7.26562 15.6836Q6.78711 15.6836 6.48926 15.4053Q6.19141 15.127 6.17188 14.6484L5.80078 6.5332L4.90234 6.5332Q4.74609 6.5332 4.63867 6.43066Q4.53125 6.32812 4.53125 6.17188Q4.53125 6.01562 4.63867 5.9082Q4.74609 5.80078 4.90234 5.80078L7.43164 5.80078L7.43164 4.94141Q7.43164 4.375 7.79297 4.02832Q8.1543 3.68164 8.76953 3.68164L10.8301 3.68164Q11.4453 3.68164 11.8115 4.02832Q12.1777 4.375 12.1777 4.94141L12.1777 5.80078L14.6777 5.80078Q14.834 5.80078 14.9463 5.9082Q15.0586 6.01562 15.0488 6.17188Q15.0488 6.32812 14.9414 6.43066Q14.834 6.5332 14.6777 6.5332L13.8281 6.5332L13.457 14.6484Q13.4375 15.127 13.1348 15.4053Q12.832 15.6836 12.3633 15.6836ZM8.0957 14.1406Q8.25195 14.1406 8.33008 14.0527Q8.4082 13.9648 8.4082 13.8281L8.1543 7.86133Q8.14453 7.54883 7.83203 7.54883Q7.49023 7.54883 7.49023 7.87109L7.77344 13.8379Q7.7832 14.1406 8.0957 14.1406ZM9.77539 14.1309Q10.1074 14.1309 10.1074 13.8281L10.1074 7.86133Q10.1074 7.54883 9.77539 7.54883Q9.45312 7.54883 9.45312 7.86133L9.45312 13.8281Q9.45312 14.1309 9.77539 14.1309ZM11.4551 14.1406Q11.7676 14.1406 11.7773 13.8379L12.0605 7.87109Q12.0703 7.54883 11.7285 7.54883Q11.4062 7.54883 11.3965 7.86133L11.1426 13.8281Q11.1426 13.9648 11.2207 14.0527Q11.2988 14.1406 11.4551 14.1406ZM8.26172 5.80078L11.3086 5.80078L11.3086 4.99023Q11.3086 4.76562 11.1572 4.63379Q11.0059 4.50195 10.7715 4.50195L8.78906 4.50195Q8.55469 4.50195 8.4082 4.63379Q8.26172 4.76562 8.26172 4.99023Z"
                     fill="#ffffff" />
       </g>
</svg>