<svg width="18.6731" height="23.1412">
       <g>
              <rect height="23.1412" opacity="0" width="18.6731" x="0" y="0" />
              <path d="M4.91394 21.5331L13.7691 21.5331Q14.711 21.5331 15.3305 20.9444Q15.95 20.3557 15.9958 19.413L16.7151 4.84146L18.114 4.84146Q18.3501 4.84146 18.5116 4.67171Q18.6731 4.50195 18.6731 4.2688Q18.6731 4.02969 18.5067 3.86482Q18.3403 3.69995 18.114 3.69995L0.571899 3.69995Q0.345612 3.69995 0.172806 3.86971Q0 4.03946 0 4.2688Q0 4.505 0.172806 4.67323Q0.345612 4.84146 0.571899 4.84146L1.97388 4.84146L2.69318 19.4199Q2.73895 20.3625 3.35358 20.9478Q3.9682 21.5331 4.91394 21.5331ZM5.00519 20.3885Q4.54285 20.3885 4.22028 20.0719Q3.89771 19.7554 3.87512 19.2924L3.15231 4.84146L15.497 4.84146L14.798 19.2924Q14.7784 19.7621 14.4543 20.0753Q14.1302 20.3885 13.6642 20.3885ZM6.42624 18.5066Q6.64215 18.5066 6.77338 18.3758Q6.9046 18.2449 6.9046 18.0455L6.57761 7.23602Q6.57761 7.03659 6.44157 6.91216Q6.30554 6.78772 6.09924 6.78772Q5.88333 6.78772 5.7473 6.91551Q5.61127 7.0433 5.61798 7.24884L5.93811 18.0516Q5.94498 18.2578 6.07613 18.3822Q6.20728 18.5066 6.42624 18.5066ZM9.34113 18.5066Q9.56375 18.5066 9.70322 18.3773Q9.84268 18.248 9.84268 18.0455L9.84268 7.24884Q9.84268 7.04636 9.70322 6.91704Q9.56375 6.78772 9.34113 6.78772Q9.12521 6.78772 8.98727 6.91704Q8.84933 7.04636 8.84933 7.24884L8.84933 18.0455Q8.84933 18.248 8.98727 18.3773Q9.12521 18.5066 9.34113 18.5066ZM12.2597 18.5127Q12.4719 18.5127 12.6031 18.3867Q12.7342 18.2607 12.7411 18.0545L13.0612 7.25479Q13.0679 7.04941 12.9353 6.92154Q12.8026 6.79367 12.58 6.79367Q12.3737 6.79367 12.241 6.91666Q12.1083 7.03964 12.1016 7.24579L11.7813 18.0516Q11.7746 18.2509 11.9043 18.3818Q12.034 18.5127 12.2597 18.5127ZM5.16296 4.24194L6.35849 4.24194L6.35849 2.17026Q6.35849 1.69342 6.66183 1.41075Q6.96518 1.12808 7.48337 1.12808L11.1794 1.12808Q11.6974 1.12808 12.0023 1.41075Q12.3073 1.69342 12.3073 2.17026L12.3073 4.24194L13.5028 4.24194L13.5028 2.10587Q13.5028 1.12381 12.8988 0.561905Q12.2948 0 11.2413 0L7.41837 0Q6.371 0 5.76698 0.561905Q5.16296 1.12381 5.16296 2.10587Z"
                     fill="#ff453a" />
       </g>
</svg>