<svg width="17.6855" height="17.9199">
       <g>
              <rect height="17.9199" opacity="0" width="17.6855" x="0" y="0" />
              <path d="M2.88086 17.9199L14.8047 17.9199Q16.2305 17.9199 16.958 17.2021Q17.6855 16.4844 17.6855 15.0684L17.6855 3.0957Q17.6855 1.67969 16.958 0.957031Q16.2305 0.234375 14.8047 0.234375L2.88086 0.234375Q1.44531 0.234375 0.722656 0.952148Q0 1.66992 0 3.0957L0 15.0684Q0 16.4844 0.722656 17.2021Q1.44531 17.9199 2.88086 17.9199ZM2.90039 16.709Q2.07031 16.709 1.64062 16.2793Q1.21094 15.8496 1.21094 15.0098L1.21094 3.1543Q1.21094 2.30469 1.64062 1.875Q2.07031 1.44531 2.90039 1.44531L14.7852 1.44531Q15.5859 1.44531 16.0303 1.875Q16.4746 2.30469 16.4746 3.1543L16.4746 15.0098Q16.4746 15.8496 16.0303 16.2793Q15.5859 16.709 14.7852 16.709Z"
                     fill="#ff453a" />
              <path d="M6.36719 14.8242L11.3574 14.8242Q11.7188 14.8242 11.9873 14.6289Q12.2559 14.4336 12.334 14.1504L12.3535 13.9746L10.8203 12.4512L10.7715 13.0566Q10.7324 13.3008 10.4688 13.3008Q10.1562 13.3008 10.166 12.998L10.2246 11.8555L9.15039 10.7812L9.15039 12.998Q9.15039 13.3008 8.81836 13.3008Q8.50586 13.3008 8.50586 12.998L8.50586 10.127L7.29492 8.92578L7.48047 12.998Q7.49023 13.3008 7.17773 13.3008Q6.875 13.3008 6.875 13.0078L6.63086 8.25195L4.96094 6.58203L5.29297 13.8086Q5.3125 14.2676 5.60059 14.5459Q5.88867 14.8242 6.36719 14.8242ZM13.2227 13.9551Q13.3398 14.0723 13.4912 14.0674Q13.6426 14.0625 13.7598 13.9453Q13.877 13.8379 13.877 13.6816Q13.877 13.5254 13.7598 13.4082L4.54102 4.18945Q4.43359 4.07227 4.27246 4.07227Q4.11133 4.07227 4.00391 4.18945Q3.88672 4.30664 3.8916 4.45801Q3.89648 4.60938 4.00391 4.72656ZM12.5391 11.2891L12.793 5.84961L13.6328 5.84961Q13.7793 5.84961 13.8867 5.74219Q13.9941 5.63477 13.9941 5.49805Q14.0039 5.35156 13.8916 5.24414Q13.7793 5.13672 13.6328 5.13672L11.1816 5.13672L11.1816 4.29688Q11.1816 3.74023 10.8203 3.39844Q10.459 3.05664 9.86328 3.05664L7.8418 3.05664Q7.24609 3.05664 6.88965 3.39844Q6.5332 3.74023 6.5332 4.29688Q6.5332 4.42383 6.5332 4.55566Q6.5332 4.6875 6.5332 4.82422L6.08398 4.82422L8.64258 7.38281L8.64258 6.96289Q8.68164 6.85547 8.81836 6.85547Q9.15039 6.85547 9.15039 7.1582L9.15039 7.89062L10.3223 9.0625L10.4199 7.14844Q10.4199 6.85547 10.7422 6.85547Q11.0742 6.85547 11.0645 7.1582L10.9277 9.66797ZM7.33398 5.13672L7.33398 4.33594Q7.33398 4.12109 7.48047 3.98926Q7.62695 3.85742 7.86133 3.85742L9.79492 3.85742Q10.0391 3.85742 10.1855 3.98926Q10.332 4.12109 10.332 4.33594L10.332 5.13672Z"
                     fill="#ff453a" />
       </g>
</svg>