<svg width="17.6855" height="17.7051">
       <g>
              <rect height="17.7051" opacity="0" width="17.6855" x="0" y="0" />
              <path d="M2.88086 17.7051L14.8047 17.7051Q16.2305 17.7051 16.958 16.9873Q17.6855 16.2695 17.6855 14.8535L17.6855 2.88086Q17.6855 1.46484 16.958 0.742188Q16.2305 0.0195312 14.8047 0.0195312L2.88086 0.0195312Q1.44531 0.0195312 0.722656 0.737305Q0 1.45508 0 2.88086L0 14.8535Q0 16.2695 0.722656 16.9873Q1.44531 17.7051 2.88086 17.7051Z"
                     fill="#ff453a" />
              <path d="M6.31836 14.7266Q5.83984 14.7266 5.54199 14.4482Q5.24414 14.1699 5.22461 13.6914L4.85352 5.57617L3.95508 5.57617Q3.79883 5.57617 3.69141 5.47363Q3.58398 5.37109 3.58398 5.21484Q3.58398 5.05859 3.69141 4.95117Q3.79883 4.84375 3.95508 4.84375L6.48438 4.84375L6.48438 3.98438Q6.48438 3.41797 6.8457 3.07129Q7.20703 2.72461 7.82227 2.72461L9.88281 2.72461Q10.498 2.72461 10.8643 3.07129Q11.2305 3.41797 11.2305 3.98438L11.2305 4.84375L13.7305 4.84375Q13.8867 4.84375 13.999 4.95117Q14.1113 5.05859 14.1016 5.21484Q14.1016 5.37109 13.9941 5.47363Q13.8867 5.57617 13.7305 5.57617L12.8809 5.57617L12.5098 13.6914Q12.4902 14.1699 12.1875 14.4482Q11.8848 14.7266 11.416 14.7266ZM7.14844 13.1836Q7.30469 13.1836 7.38281 13.0957Q7.46094 13.0078 7.46094 12.8711L7.20703 6.9043Q7.19727 6.5918 6.88477 6.5918Q6.54297 6.5918 6.54297 6.91406L6.82617 12.8809Q6.83594 13.1836 7.14844 13.1836ZM8.82812 13.1738Q9.16016 13.1738 9.16016 12.8711L9.16016 6.9043Q9.16016 6.5918 8.82812 6.5918Q8.50586 6.5918 8.50586 6.9043L8.50586 12.8711Q8.50586 13.1738 8.82812 13.1738ZM10.5078 13.1836Q10.8203 13.1836 10.8301 12.8809L11.1133 6.91406Q11.123 6.5918 10.7812 6.5918Q10.459 6.5918 10.4492 6.9043L10.1953 12.8711Q10.1953 13.0078 10.2734 13.0957Q10.3516 13.1836 10.5078 13.1836ZM7.31445 4.84375L10.3613 4.84375L10.3613 4.0332Q10.3613 3.80859 10.21 3.67676Q10.0586 3.54492 9.82422 3.54492L7.8418 3.54492Q7.60742 3.54492 7.46094 3.67676Q7.31445 3.80859 7.31445 4.0332Z"
                     fill="#ffffff" />
       </g>
</svg>