<svg width="18.689" height="23.3017">
       <g>
              <rect height="23.3017" opacity="0" width="18.689" x="0" y="0" />
              <path d="M4.80835 21.3799L13.8837 21.3799Q14.7343 21.3799 15.2674 20.881Q15.8005 20.3821 15.8395 19.5406L16.528 4.92172L18.1201 4.92172Q18.3592 4.92172 18.5241 4.75197Q18.689 4.58221 18.689 4.34906Q18.689 4.10995 18.5226 3.94508Q18.3562 3.78021 18.1201 3.78021L0.572052 3.78021Q0.345612 3.78021 0.172806 3.94997Q0 4.11972 0 4.34906Q0 4.58527 0.172806 4.75349Q0.345612 4.92172 0.572052 4.92172L2.17682 4.92172L2.8653 19.5406Q2.90436 20.3821 3.43445 20.881Q3.96454 21.3799 4.80835 21.3799ZM6.30066 18.5869Q6.08841 18.5869 5.95383 18.4624Q5.81924 18.338 5.81924 18.1319L5.49225 7.20032Q5.49225 6.99493 5.625 6.86707Q5.75775 6.7392 5.98038 6.7392Q6.17981 6.7392 6.31744 6.86371Q6.45508 6.98822 6.45874 7.1846L6.78192 18.1258Q6.78574 18.3252 6.65604 18.456Q6.52634 18.5869 6.30066 18.5869ZM9.35089 18.5869Q9.13132 18.5869 8.99185 18.4576Q8.85239 18.3282 8.85239 18.1258L8.85239 7.20032Q8.85239 6.99799 8.99185 6.86859Q9.13132 6.7392 9.35089 6.7392Q9.5668 6.7392 9.70627 6.86859Q9.84573 6.99799 9.84573 7.20032L9.84573 18.1258Q9.84573 18.3282 9.70627 18.4576Q9.5668 18.5869 9.35089 18.5869ZM12.3944 18.593Q12.1687 18.593 12.0376 18.4621Q11.9064 18.3311 11.9131 18.1319L12.2333 7.19727Q12.24 6.99112 12.3776 6.86821Q12.5153 6.7453 12.7147 6.7453Q12.9343 6.7453 13.067 6.87164Q13.1998 6.99799 13.1998 7.20642L12.8728 18.1348Q12.8728 18.3409 12.7397 18.4669Q12.6067 18.593 12.3944 18.593ZM5.09567 4.08051L6.44852 4.08051L6.44852 2.25052Q6.44852 1.80374 6.72676 1.54274Q7.005 1.28174 7.49313 1.28174L11.1891 1.28174Q11.6803 1.28174 11.9585 1.54274Q12.2368 1.80374 12.2368 2.25052L12.2368 4.08051L13.586 4.08051L13.586 2.18613Q13.586 1.17035 12.9617 0.585175Q12.3375 0 11.2474 0L7.43118 0Q6.34109 0 5.71838 0.585175Q5.09567 1.17035 5.09567 2.18613Z"
                     fill="#ff453a" />
       </g>
</svg>