<svg width="18.6816" height="23.3105">
       <g>
              <rect height="23.3105" opacity="0" width="18.6816" x="0" y="0" />
              <path d="M16.0352 15.3809L16.5234 4.92188L18.1152 4.92188Q18.3594 4.92188 18.5205 4.75586Q18.6816 4.58984 18.6816 4.35547Q18.6816 4.11133 18.5156 3.9502Q18.3496 3.78906 18.1152 3.78906L13.584 3.78906L13.584 2.1875Q13.584 1.17188 12.959 0.585938Q12.334 0 11.2402 0L7.42188 0Q6.33789 0 5.71289 0.585938Q5.08789 1.17188 5.08789 2.1875L5.08789 3.61328L4.25781 3.61328L8.87695 8.23242L8.87695 7.06055Q8.97461 6.74805 9.3457 6.74805Q9.56055 6.74805 9.70215 6.875Q9.84375 7.00195 9.84375 7.20703L9.84375 9.19922L12.0996 11.4551L12.2266 7.19727Q12.2363 6.99219 12.373 6.87012Q12.5098 6.74805 12.7051 6.74805Q12.9297 6.74805 13.0615 6.875Q13.1934 7.00195 13.1934 7.20703L13.0371 12.3926ZM6.44531 3.78906L6.44531 2.25586Q6.44531 1.80664 6.72363 1.54785Q7.00195 1.28906 7.49023 1.28906L11.1816 1.28906Q11.6797 1.28906 11.958 1.54785Q12.2363 1.80664 12.2363 2.25586L12.2363 3.78906ZM4.80469 21.3867L13.877 21.3867Q14.5801 21.3867 15.0781 21.0205Q15.5762 20.6543 15.7129 20.0781L15.7324 19.5898L12.9102 16.7676L12.8711 18.1348Q12.8711 18.3496 12.7344 18.4717Q12.5977 18.5938 12.3926 18.5938Q12.168 18.5938 12.0361 18.4668Q11.9043 18.3398 11.9141 18.1348L11.9727 15.8203L9.84375 13.6816L9.84375 18.1348Q9.84375 18.3301 9.70215 18.4619Q9.56055 18.5938 9.3457 18.5938Q9.12109 18.5938 8.98438 18.4619Q8.84766 18.3301 8.84766 18.1348L8.84766 12.6953L6.55273 10.4004L6.77734 18.1348Q6.78711 18.3301 6.65039 18.4619Q6.51367 18.5938 6.29883 18.5938Q6.07422 18.5938 5.94727 18.4668Q5.82031 18.3398 5.81055 18.1348L5.55664 9.4043L2.22656 6.08398L2.86133 19.541Q2.90039 20.3906 3.42773 20.8887Q3.95508 21.3867 4.80469 21.3867Z"
                     fill="#ff453a" />
              <path d="M17.6855 20.0781Q17.8516 20.2539 18.0957 20.2539Q18.3398 20.2539 18.5059 20.0781Q18.6816 19.9023 18.6768 19.6631Q18.6719 19.4238 18.5059 19.2578L0.996094 1.73828Q0.830078 1.57227 0.585938 1.56738Q0.341797 1.5625 0.166016 1.73828Q0 1.9043 0 2.15332Q0 2.40234 0.166016 2.56836Z"
                     fill="#ff453a" />
       </g>
</svg>