<svg width="19.5898" height="19.5996">
       <g>
              <rect height="19.5996" opacity="0" width="19.5898" x="0" y="0" />
              <path d="M9.79492 19.5898Q11.8066 19.5898 13.5791 18.8232Q15.3516 18.0566 16.7041 16.7041Q18.0566 15.3516 18.8232 13.5791Q19.5898 11.8066 19.5898 9.79492Q19.5898 7.7832 18.8232 6.01074Q18.0566 4.23828 16.7041 2.88574Q15.3516 1.5332 13.5742 0.766602Q11.7969 0 9.78516 0Q7.77344 0 6.00098 0.766602Q4.22852 1.5332 2.88086 2.88574Q1.5332 4.23828 0.766602 6.01074Q0 7.7832 0 9.79492Q0 11.8066 0.766602 13.5791Q1.5332 15.3516 2.88574 16.7041Q4.23828 18.0566 6.01074 18.8232Q7.7832 19.5898 9.79492 19.5898ZM9.79492 18.3203Q8.02734 18.3203 6.47949 17.6611Q4.93164 17.002 3.75977 15.8301Q2.58789 14.6582 1.92871 13.1104Q1.26953 11.5625 1.26953 9.79492Q1.26953 8.02734 1.92871 6.47949Q2.58789 4.93164 3.75977 3.75488Q4.93164 2.57812 6.47461 1.91895Q8.01758 1.25977 9.78516 1.25977Q11.5625 1.25977 13.1104 1.91895Q14.6582 2.57812 15.8301 3.75488Q17.002 4.93164 17.666 6.47949Q18.3301 8.02734 18.3301 9.79492Q18.3301 11.5625 17.666 13.1104Q17.002 14.6582 15.8301 15.8301Q14.6582 17.002 13.1152 17.6611Q11.5723 18.3203 9.79492 18.3203Z"
                     fill="#ff453a" />
              <path d="M7.31445 15.5566L12.3047 15.5566Q12.7637 15.5566 13.0615 15.2783Q13.3594 15 13.3691 14.541L13.7402 6.58203L14.5703 6.58203Q14.7266 6.58203 14.8291 6.47461Q14.9316 6.36719 14.9414 6.23047Q14.9512 6.08398 14.8389 5.97656Q14.7266 5.86914 14.5703 5.86914L12.1289 5.86914L12.1289 5.0293Q12.1289 4.47266 11.7676 4.13086Q11.4062 3.78906 10.8105 3.78906L8.7793 3.78906Q8.18359 3.78906 7.83203 4.13086Q7.48047 4.47266 7.48047 5.0293L7.48047 5.86914L4.99023 5.86914Q4.84375 5.86914 4.73633 5.97656Q4.62891 6.08398 4.62891 6.23047Q4.62891 6.36719 4.73633 6.47461Q4.84375 6.58203 4.99023 6.58203L5.87891 6.58203L6.24023 14.541Q6.25977 15 6.54785 15.2783Q6.83594 15.5566 7.31445 15.5566ZM8.125 14.0332Q7.82227 14.0332 7.8125 13.7402L7.5293 7.89062Q7.5293 7.58789 7.86133 7.58789Q8.17383 7.58789 8.18359 7.88086L8.42773 13.7305Q8.4375 14.0332 8.125 14.0332ZM9.76562 14.0332Q9.45312 14.0332 9.45312 13.7305L9.45312 7.89062Q9.45312 7.58789 9.76562 7.58789Q10.0977 7.58789 10.0977 7.89062L10.0977 13.7305Q10.0977 14.0332 9.76562 14.0332ZM11.416 14.0332Q11.1035 14.0332 11.1133 13.7305L11.3574 7.88086Q11.377 7.58789 11.6895 7.58789Q12.0117 7.58789 12.002 7.89062L11.7285 13.7402Q11.7188 14.0332 11.416 14.0332ZM8.28125 5.86914L8.28125 5.06836Q8.28125 4.85352 8.42773 4.72168Q8.57422 4.58984 8.80859 4.58984L10.7422 4.58984Q10.9766 4.58984 11.1279 4.72168Q11.2793 4.85352 11.2793 5.06836L11.2793 5.86914Z"
                     fill="#ff453a" />
       </g>
</svg>