<svg width="17.6855" height="17.7051">
       <g>
              <rect height="17.7051" opacity="0" width="17.6855" x="0" y="0" />
              <path d="M2.88086 17.7051L14.8047 17.7051Q16.2305 17.7051 16.958 16.9873Q17.6855 16.2695 17.6855 14.8535L17.6855 2.88086Q17.6855 1.46484 16.958 0.742188Q16.2305 0.0195312 14.8047 0.0195312L2.88086 0.0195312Q1.44531 0.0195312 0.722656 0.737305Q0 1.45508 0 2.88086L0 14.8535Q0 16.2695 0.722656 16.9873Q1.44531 17.7051 2.88086 17.7051Z"
                     fill="#ff453a" />
              <path d="M6.36719 14.6094Q5.88867 14.6094 5.60059 14.3311Q5.3125 14.0527 5.29297 13.5938L4.96094 6.36719L6.63086 8.03711L6.875 12.793Q6.875 13.0859 7.17773 13.0859Q7.33398 13.0859 7.40723 13.0029Q7.48047 12.9199 7.48047 12.7832L7.29492 8.71094L8.50586 9.91211L8.50586 12.7832Q8.50586 13.0859 8.81836 13.0859Q9.15039 13.0859 9.15039 12.7832L9.15039 10.5664L10.2246 11.6406L10.166 12.7832Q10.1562 13.0859 10.4688 13.0859Q10.7324 13.0859 10.7715 12.8418L10.8203 12.2363L12.3535 13.7598L12.334 13.9355Q12.2559 14.2188 11.9873 14.4141Q11.7188 14.6094 11.3574 14.6094ZM13.2227 13.7402L4.00391 4.51172Q3.89648 4.39453 3.8916 4.24316Q3.88672 4.0918 4.00391 3.97461Q4.11133 3.85742 4.27246 3.85742Q4.43359 3.85742 4.54102 3.97461L13.7598 13.1934Q13.877 13.3105 13.877 13.4668Q13.877 13.623 13.7598 13.7305Q13.6426 13.8477 13.4912 13.8525Q13.3398 13.8574 13.2227 13.7402ZM12.5391 11.0742L10.9277 9.45312L11.0645 6.94336Q11.0742 6.64062 10.7422 6.64062Q10.4199 6.64062 10.4199 6.93359L10.3223 8.84766L9.15039 7.67578L9.15039 6.94336Q9.15039 6.64062 8.81836 6.64062Q8.68164 6.64062 8.64258 6.74805L8.64258 7.16797L6.08398 4.60938L6.5332 4.60938Q6.5332 4.47266 6.5332 4.34082Q6.5332 4.20898 6.5332 4.08203Q6.5332 3.52539 6.88965 3.18359Q7.24609 2.8418 7.8418 2.8418L9.86328 2.8418Q10.459 2.8418 10.8203 3.18359Q11.1816 3.52539 11.1816 4.08203L11.1816 4.92188L13.6328 4.92188Q13.7793 4.92188 13.8916 5.0293Q14.0039 5.13672 13.9941 5.2832Q13.9941 5.41992 13.8867 5.52734Q13.7793 5.63477 13.6328 5.63477L12.793 5.63477ZM7.33398 4.92188L10.332 4.92188L10.332 4.12109Q10.332 3.90625 10.1855 3.77441Q10.0391 3.64258 9.79492 3.64258L7.86133 3.64258Q7.62695 3.64258 7.48047 3.77441Q7.33398 3.90625 7.33398 4.12109Z"
                     fill="#ffffff" />
       </g>
</svg>