<svg width="18.6769" height="23.1348">
       <g>
              <rect height="23.1348" opacity="0" width="18.6769" x="0" y="0" />
              <path d="M16.1914 15.4297L16.709 4.83398L18.1152 4.83398Q18.3496 4.83398 18.5107 4.66797Q18.6719 4.50195 18.6719 4.26758Q18.6719 4.0332 18.5107 3.86719Q18.3496 3.70117 18.1152 3.70117L13.4961 3.70117L13.4961 2.16797Q13.4961 1.19141 12.8662 0.595703Q12.2363 0 11.1816 0L7.48047 0Q6.42578 0 5.80078 0.595703Q5.17578 1.19141 5.17578 2.16797L5.17578 3.56445L4.33594 3.56445L5.60547 4.83398L15.5176 4.83398L15.0488 14.2871ZM6.37695 3.70117L6.37695 2.22656Q6.37695 1.74805 6.7041 1.43555Q7.03125 1.12305 7.55859 1.12305L11.1133 1.12305Q11.6406 1.12305 11.9727 1.43555Q12.3047 1.74805 12.3047 2.22656L12.3047 3.70117ZM4.91211 21.5332L13.7695 21.5332Q14.541 21.5332 15.0879 21.123Q15.6348 20.7129 15.8301 20.0684L15.8496 19.5801L14.834 18.5742L14.8047 19.2871Q14.7949 19.7461 14.4678 20.0635Q14.1406 20.3809 13.6621 20.3809L5.00977 20.3809Q4.55078 20.3809 4.22363 20.0684Q3.89648 19.7559 3.87695 19.2871L3.26172 6.98242L2.01172 5.74219L2.69531 19.4141Q2.73438 20.3613 3.34961 20.9473Q3.96484 21.5332 4.91211 21.5332ZM9.84375 9.07227L9.84375 7.24609Q9.84375 7.04102 9.70215 6.91406Q9.56055 6.78711 9.3457 6.78711Q9.0625 6.78711 8.94531 7.00195L8.94531 8.18359ZM12.9199 12.1484L13.0664 7.25586Q13.0664 7.05078 12.9346 6.91895Q12.8027 6.78711 12.5781 6.78711Q12.373 6.78711 12.2412 6.91406Q12.1094 7.04102 12.0996 7.24609L11.9824 11.2109ZM6.42578 18.5059Q6.64062 18.5059 6.77734 18.374Q6.91406 18.2422 6.9043 18.0469L6.66992 10.4102L5.68359 9.41406L5.9375 18.0469Q5.94727 18.252 6.0791 18.3789Q6.21094 18.5059 6.42578 18.5059ZM9.3457 18.5059Q9.56055 18.5059 9.70215 18.374Q9.84375 18.2422 9.84375 18.0469L9.84375 13.5742L8.84766 12.5879L8.84766 18.0469Q8.84766 18.252 8.98438 18.3789Q9.12109 18.5059 9.3457 18.5059ZM12.2559 18.5059Q12.7344 18.5059 12.7441 18.0469L12.793 16.5332L11.8555 15.5957L11.7773 18.0469Q11.7773 18.252 11.9043 18.3789Q12.0312 18.5059 12.2559 18.5059Z"
                     fill="#ff453a" />
              <path d="M17.6855 19.9902Q17.8516 20.166 18.0957 20.166Q18.3398 20.166 18.5059 19.9902Q18.6816 19.8145 18.6768 19.5752Q18.6719 19.3359 18.5059 19.1699L0.996094 1.65039Q0.830078 1.48438 0.585938 1.47949Q0.341797 1.47461 0.166016 1.65039Q0 1.81641 0 2.06543Q0 2.31445 0.166016 2.48047Z"
                     fill="#ff453a" />
       </g>
</svg>