<svg width="19.5898" height="19.5996">
       <g>
              <rect height="19.5996" opacity="0" width="19.5898" x="0" y="0" />
              <path d="M9.79492 19.5996Q11.8066 19.5996 13.5791 18.833Q15.3516 18.0664 16.7041 16.7139Q18.0566 15.3613 18.8232 13.5889Q19.5898 11.8164 19.5898 9.80469Q19.5898 7.79297 18.8232 6.02051Q18.0566 4.24805 16.7041 2.89551Q15.3516 1.54297 13.5742 0.776367Q11.7969 0.00976562 9.78516 0.00976562Q7.77344 0.00976562 6.00098 0.776367Q4.22852 1.54297 2.88086 2.89551Q1.5332 4.24805 0.766602 6.02051Q0 7.79297 0 9.80469Q0 11.8164 0.766602 13.5889Q1.5332 15.3613 2.88574 16.7139Q4.23828 18.0664 6.01074 18.833Q7.7832 19.5996 9.79492 19.5996Z"
                     fill="rgba(255,255,255,0.55)" />
              <path d="M5.41016 13.7793Q4.67773 13.7793 4.30664 13.4033Q3.93555 13.0273 3.93555 12.3145L3.93555 9.57031Q3.93555 9.28711 3.98926 9.12109Q4.04297 8.95508 4.17969 8.76953L6.08398 6.23047Q6.33789 5.88867 6.55762 5.70312Q6.77734 5.51758 7.0459 5.44434Q7.31445 5.37109 7.70508 5.37109L11.8945 5.37109Q12.2949 5.37109 12.5586 5.44434Q12.8223 5.51758 13.042 5.70312Q13.2617 5.88867 13.5254 6.23047L15.4199 8.76953Q15.5566 8.95508 15.6152 9.12109Q15.6738 9.28711 15.6738 9.57031L15.6738 12.3145Q15.6738 13.0273 15.3027 13.4033Q14.9316 13.7793 14.1895 13.7793ZM5.10742 9.27734L8.20312 9.27734Q8.36914 9.27734 8.45215 9.37988Q8.53516 9.48242 8.53516 9.60938L8.53516 9.70703Q8.53516 10.2734 8.88672 10.6104Q9.23828 10.9473 9.80469 10.9473Q10.3711 10.9473 10.7275 10.6104Q11.084 10.2734 11.084 9.70703L11.084 9.60938Q11.084 9.48242 11.1621 9.37988Q11.2402 9.27734 11.4062 9.27734L14.5117 9.27734Q14.5996 9.27734 14.624 9.20898Q14.6484 9.14062 14.6094 9.08203L12.7539 6.5918Q12.5977 6.37695 12.4268 6.2793Q12.2559 6.18164 11.9727 6.18164L7.63672 6.18164Q7.35352 6.18164 7.18262 6.2793Q7.01172 6.37695 6.85547 6.5918L5.00977 9.08203Q4.96094 9.15039 4.98535 9.21387Q5.00977 9.27734 5.10742 9.27734Z"
                     fill="#ffffff" />
       </g>
</svg>