<svg width="19.5898" height="19.6777">
       <g>
              <rect height="19.6777" opacity="0" width="19.5898" x="0" y="0" />
              <path d="M9.79492 19.6777Q11.8066 19.6777 13.5791 18.9111Q15.3516 18.1445 16.7041 16.792Q18.0566 15.4395 18.8232 13.667Q19.5898 11.8945 19.5898 9.88281Q19.5898 7.87109 18.8232 6.09863Q18.0566 4.32617 16.7041 2.97363Q15.3516 1.62109 13.5742 0.854492Q11.7969 0.0878906 9.78516 0.0878906Q7.77344 0.0878906 6.00098 0.854492Q4.22852 1.62109 2.88086 2.97363Q1.5332 4.32617 0.766602 6.09863Q0 7.87109 0 9.88281Q0 11.8945 0.766602 13.667Q1.5332 15.4395 2.88574 16.792Q4.23828 18.1445 6.01074 18.9111Q7.7832 19.6777 9.79492 19.6777Z"
                     fill="rgba(255,255,255,0.55)" />
              <path d="M4.90234 11.9043L8.63281 5.41992Q8.92578 4.89258 9.37012 4.73145Q9.81445 4.57031 10.249 4.73633Q10.6836 4.90234 10.957 5.38086L14.707 11.9043Q15 12.4121 14.9658 12.8662Q14.9316 13.3203 14.5996 13.6182Q14.2676 13.916 13.6719 13.916L5.9375 13.916Q5.3418 13.916 5.00977 13.6182Q4.67773 13.3203 4.64355 12.8662Q4.60938 12.4121 4.90234 11.9043ZM5.92773 12.3145Q5.81055 12.5 5.85938 12.6514Q5.9082 12.8027 6.16211 12.8027L13.4473 12.8027Q13.7012 12.8027 13.7451 12.6514Q13.7891 12.5 13.6816 12.3145L10.0684 6.05469Q9.98047 5.87891 9.79492 5.87891Q9.60938 5.87891 9.51172 6.06445Z"
                     fill="#ffffff" />
       </g>
</svg>