<svg width="12.1114" height="20.0479">
       <g>
              <rect height="20.0479" opacity="0" width="12.1114" x="0" y="0" />
              <path d="M0 19.4624Q0 19.7015 0.170975 19.8698Q0.341949 20.0381 0.609741 20.0381Q2.75848 20.0381 4.62006 19.3116Q6.48163 18.5851 7.88475 17.2487Q9.28787 15.9123 10.078 14.0733Q10.8682 12.2343 10.8682 10.0191Q10.8682 9.03 10.4912 8.15697Q10.1141 7.28394 9.44839 6.61812Q8.78265 5.9523 7.91451 5.57533Q7.04636 5.19836 6.05423 5.19836Q5.17517 5.19836 4.39957 5.53116Q3.62396 5.86395 3.05283 6.43814Q3.54385 5.23315 4.37782 4.25758Q5.21179 3.28201 6.31485 2.58484Q7.41791 1.88766 8.73238 1.51466Q10.0468 1.14166 11.4987 1.14166Q11.7696 1.14166 11.9405 0.973358Q12.1114 0.805054 12.1114 0.565948Q12.1114 0.329742 11.9405 0.164871Q11.7696 0 11.4987 0Q9.35287 0 7.48985 0.726547Q5.62683 1.45309 4.22371 2.78946Q2.82059 4.12582 2.03529 5.96481Q1.25 7.8038 1.25 10.0191Q1.25 11.0081 1.62697 11.8778Q2.00394 12.7475 2.66487 13.4118Q3.32581 14.0761 4.19884 14.4546Q5.07187 14.8331 6.05423 14.8331Q6.93634 14.8331 7.71194 14.4987Q8.48755 14.1644 9.05258 13.6Q8.56155 14.8019 7.72575 15.7775Q6.88995 16.7531 5.78529 17.4503Q4.68063 18.1474 3.37112 18.522Q2.06161 18.8965 0.609741 18.8965Q0.341949 18.8965 0.170975 19.0614Q0 19.2262 0 19.4624ZM2.39838 10.0191Q2.39838 9.01657 2.89619 8.18626Q3.39401 7.35596 4.22287 6.85623Q5.05173 6.35651 6.05423 6.35651Q7.05658 6.35651 7.88696 6.85623Q8.71735 7.35596 9.2186 8.18626Q9.71985 9.01657 9.71985 10.0191Q9.71985 11.0216 9.2186 11.8519Q8.71735 12.6822 7.88696 13.1786Q7.05658 13.6749 6.05423 13.6749Q5.05173 13.6749 4.22287 13.1786Q3.39401 12.6822 2.89619 11.8519Q2.39838 11.0216 2.39838 10.0191ZM4.73816 10.0191Q4.73816 10.5626 5.12589 10.9489Q5.51361 11.3351 6.05423 11.3351Q6.6008 11.3351 6.98555 10.9455Q7.3703 10.5559 7.3703 10.0191Q7.3703 9.4725 6.98555 9.08775Q6.6008 8.703 6.05423 8.703Q5.51361 8.703 5.12589 9.08775Q4.73816 9.4725 4.73816 10.0191Z"
                     fill="#ffffff" />
       </g>
</svg>