<svg width="19.5898" height="19.5996">
       <g>
              <rect height="19.5996" opacity="0" width="19.5898" x="0" y="0" />
              <path d="M9.79492 19.5898Q11.8066 19.5898 13.5791 18.8232Q15.3516 18.0566 16.7041 16.7041Q18.0566 15.3516 18.8232 13.5791Q19.5898 11.8066 19.5898 9.79492Q19.5898 7.7832 18.8232 6.01074Q18.0566 4.23828 16.7041 2.88574Q15.3516 1.5332 13.5742 0.766602Q11.7969 0 9.78516 0Q7.77344 0 6.00098 0.766602Q4.22852 1.5332 2.88086 2.88574Q1.5332 4.23828 0.766602 6.01074Q0 7.7832 0 9.79492Q0 11.8066 0.766602 13.5791Q1.5332 15.3516 2.88574 16.7041Q4.23828 18.0566 6.01074 18.8232Q7.7832 19.5898 9.79492 19.5898Z"
                     fill="rgba(255,255,255,0.55)" />
              <path d="M5.23438 13.2031Q4.61914 13.2031 4.27246 12.8613Q3.92578 12.5195 3.92578 11.8945L3.92578 6.66016Q3.92578 6.03516 4.26758 5.69336Q4.60938 5.35156 5.23438 5.35156L14.3457 5.35156Q14.9707 5.35156 15.3125 5.69336Q15.6543 6.03516 15.6543 6.66016L15.6543 11.8945Q15.6543 12.5195 15.3076 12.8613Q14.9609 13.2031 14.3457 13.2031ZM5.32227 12.1973L14.2676 12.1973Q14.4531 12.1973 14.5508 12.0996Q14.6484 12.002 14.6484 11.8164L14.6484 6.72852Q14.6484 6.54297 14.5508 6.45508Q14.4531 6.36719 14.2676 6.36719L5.32227 6.36719Q5.12695 6.36719 5.03418 6.45508Q4.94141 6.54297 4.94141 6.72852L4.94141 11.8164Q4.94141 12.0117 5.03418 12.1045Q5.12695 12.1973 5.32227 12.1973ZM7.09961 15.1758Q6.89453 15.1758 6.74316 15.0244Q6.5918 14.873 6.5918 14.6484Q6.5918 14.4531 6.74316 14.3066Q6.89453 14.1602 7.09961 14.1602L12.5 14.1602Q12.7051 14.1602 12.8516 14.3066Q12.998 14.4531 12.998 14.6484Q12.998 14.873 12.8516 15.0244Q12.7051 15.1758 12.5 15.1758Z"
                     fill="#ffffff" />
       </g>
</svg>