<svg width="19.5898" height="19.5996">
       <g>
              <rect height="19.5996" opacity="0" width="19.5898" x="0" y="0" />
              <path d="M9.79492 19.5898Q11.8066 19.5898 13.5791 18.8232Q15.3516 18.0566 16.7041 16.7041Q18.0566 15.3516 18.8232 13.5791Q19.5898 11.8066 19.5898 9.79492Q19.5898 7.7832 18.8232 6.01074Q18.0566 4.23828 16.7041 2.88574Q15.3516 1.5332 13.5742 0.766602Q11.7969 0 9.78516 0Q7.77344 0 6.00098 0.766602Q4.22852 1.5332 2.88086 2.88574Q1.5332 4.23828 0.766602 6.01074Q0 7.7832 0 9.79492Q0 11.8066 0.766602 13.5791Q1.5332 15.3516 2.88574 16.7041Q4.23828 18.0566 6.01074 18.8232Q7.7832 19.5898 9.79492 19.5898Z"
                     fill="rgba(255,255,255,0.55)" />
              <path d="M9.79492 14.4238Q8.70117 14.4238 7.86621 14.0137Q7.03125 13.6035 6.55762 12.8564Q6.08398 12.1094 6.08398 11.1035L6.08398 5.83008Q6.08398 5.50781 6.25 5.32715Q6.41602 5.14648 6.70898 5.14648Q7.00195 5.14648 7.16797 5.32715Q7.33398 5.50781 7.33398 5.83008L7.33398 10.9961Q7.33398 12.0801 8.02246 12.7246Q8.71094 13.3691 9.79492 13.3691Q10.8887 13.3691 11.5771 12.7246Q12.2656 12.0801 12.2656 10.9961L12.2656 5.83008Q12.2656 5.50781 12.4268 5.32715Q12.5879 5.14648 12.8711 5.14648Q13.1836 5.14648 13.3447 5.32715Q13.5059 5.50781 13.5059 5.83008L13.5059 11.1035Q13.5059 12.1094 13.0371 12.8564Q12.5684 13.6035 11.7285 14.0137Q10.8887 14.4238 9.79492 14.4238Z"
                     fill="#ffffff" />
       </g>
</svg>