<svg width="17.6855" height="17.7051">
       <g>
              <rect height="17.7051" opacity="0" width="17.6855" x="0" y="0" />
              <path d="M2.88086 17.7051L14.8047 17.7051Q16.2305 17.7051 16.958 16.9873Q17.6855 16.2695 17.6855 14.8535L17.6855 2.88086Q17.6855 1.46484 16.958 0.742188Q16.2305 0.0195312 14.8047 0.0195312L2.88086 0.0195312Q1.44531 0.0195312 0.722656 0.737305Q0 1.45508 0 2.88086L0 14.8535Q0 16.2695 0.722656 16.9873Q1.44531 17.7051 2.88086 17.7051Z"
                     fill="rgba(255,255,255,0.55)" />
              <path d="M8.83789 13.4766Q7.74414 13.4766 6.90918 13.0664Q6.07422 12.6562 5.60059 11.9092Q5.12695 11.1621 5.12695 10.1562L5.12695 4.88281Q5.12695 4.56055 5.29297 4.37988Q5.45898 4.19922 5.75195 4.19922Q6.04492 4.19922 6.21094 4.37988Q6.37695 4.56055 6.37695 4.88281L6.37695 10.0488Q6.37695 11.1328 7.06543 11.7773Q7.75391 12.4219 8.83789 12.4219Q9.93164 12.4219 10.6201 11.7773Q11.3086 11.1328 11.3086 10.0488L11.3086 4.88281Q11.3086 4.56055 11.4697 4.37988Q11.6309 4.19922 11.9141 4.19922Q12.2266 4.19922 12.3877 4.37988Q12.5488 4.56055 12.5488 4.88281L12.5488 10.1562Q12.5488 11.1621 12.0801 11.9092Q11.6113 12.6562 10.7715 13.0664Q9.93164 13.4766 8.83789 13.4766Z"
                     fill="#ffffff" />
       </g>
</svg>