<svg width="11.0954" height="20.1865">
       <g>
              <rect height="20.1865" opacity="0" width="11.0954" x="0" y="0" />
              <path d="M0.473175 20.1865L10.6184 20.1865Q10.8232 20.1865 10.9593 20.0538Q11.0954 19.9211 11.0954 19.7253Q11.0954 19.5229 10.9593 19.3902Q10.8232 19.2575 10.6184 19.2575L0.473175 19.2575Q0.275269 19.2575 0.137634 19.3902Q0 19.5229 0 19.7253Q0 19.9211 0.137634 20.0538Q0.275269 20.1865 0.473175 20.1865Z"
                     fill="#ff453a" />
              <path d="M5.54428 17.3459Q7.25372 17.3459 8.49968 16.7022Q9.74564 16.0585 10.4205 14.9006Q11.0954 13.7427 11.0954 12.2064L11.0954 3.52402Q11.0954 3.21381 10.9069 3.02536Q10.7184 2.83691 10.4045 2.83691Q10.0943 2.83691 9.91257 3.02536Q9.73083 3.21381 9.73083 3.52402L9.73083 12.1054Q9.73083 13.9058 8.6161 15.0001Q7.50137 16.0944 5.54428 16.0944Q4.24194 16.0944 3.30467 15.5957Q2.3674 15.097 1.86455 14.2041Q1.36169 13.3112 1.36169 12.1054L1.36169 3.52402Q1.36169 3.21381 1.1747 3.02536Q0.987701 2.83691 0.670776 2.83691Q0.363464 2.83691 0.181732 3.02536Q0 3.21381 0 3.52402L0 12.2064Q0 13.7427 0.67337 14.9006Q1.34674 16.0585 2.59087 16.7022Q3.83499 17.3459 5.54428 17.3459Z"
                     fill="rgba(255,255,255,0.85)" />
       </g>
</svg>