<svg width="19.5898" height="19.5996">
       <g>
              <rect height="19.5996" opacity="0" width="19.5898" x="0" y="0" />
              <path d="M9.79492 19.5898Q11.8066 19.5898 13.5791 18.8232Q15.3516 18.0566 16.7041 16.7041Q18.0566 15.3516 18.8232 13.5791Q19.5898 11.8066 19.5898 9.79492Q19.5898 7.7832 18.8232 6.01074Q18.0566 4.23828 16.7041 2.88574Q15.3516 1.5332 13.5742 0.766602Q11.7969 0 9.78516 0Q7.77344 0 6.00098 0.766602Q4.22852 1.5332 2.88086 2.88574Q1.5332 4.23828 0.766602 6.01074Q0 7.7832 0 9.79492Q0 11.8066 0.766602 13.5791Q1.5332 15.3516 2.88574 16.7041Q4.23828 18.0566 6.01074 18.8232Q7.7832 19.5898 9.79492 19.5898Z"
                     fill="rgba(255,255,255,0.55)" />
              <path d="M9.79492 14.3945Q9.43359 14.3945 9.21875 14.2285Q9.00391 14.0625 8.85742 13.6719L5.94727 6.07422Q5.87891 5.89844 5.87891 5.74219Q5.87891 5.47852 6.05469 5.3125Q6.23047 5.14648 6.51367 5.14648Q6.76758 5.14648 6.92383 5.27344Q7.08008 5.40039 7.17773 5.68359L9.76562 12.9004L9.82422 12.9004L12.4023 5.68359Q12.5098 5.40039 12.6611 5.27344Q12.8125 5.14648 13.0664 5.14648Q13.3496 5.14648 13.5254 5.3125Q13.7012 5.47852 13.7012 5.74219Q13.7012 5.82031 13.6816 5.89844Q13.6621 5.97656 13.6328 6.07422L10.7324 13.6523Q10.5957 14.0234 10.3711 14.209Q10.1465 14.3945 9.79492 14.3945Z"
                     fill="#ffffff" />
       </g>
</svg>