<svg width="17.6855" height="17.7051">
       <g>
              <rect height="17.7051" opacity="0" width="17.6855" x="0" y="0" />
              <path d="M2.88086 17.7051L14.8047 17.7051Q16.2305 17.7051 16.958 16.9873Q17.6855 16.2695 17.6855 14.8535L17.6855 2.88086Q17.6855 1.46484 16.958 0.742188Q16.2305 0.0195312 14.8047 0.0195312L2.88086 0.0195312Q1.44531 0.0195312 0.722656 0.737305Q0 1.45508 0 2.88086L0 14.8535Q0 16.2695 0.722656 16.9873Q1.44531 17.7051 2.88086 17.7051Z"
                     fill="rgba(255,255,255,0.55)" />
              <path d="M8.84766 13.4473Q8.48633 13.4473 8.27148 13.2812Q8.05664 13.1152 7.91016 12.7246L5 5.12695Q4.93164 4.95117 4.93164 4.79492Q4.93164 4.53125 5.10742 4.36523Q5.2832 4.19922 5.56641 4.19922Q5.82031 4.19922 5.97656 4.32617Q6.13281 4.45312 6.23047 4.73633L8.81836 11.9531L8.87695 11.9531L11.4551 4.73633Q11.5625 4.45312 11.7139 4.32617Q11.8652 4.19922 12.1191 4.19922Q12.4023 4.19922 12.5781 4.36523Q12.7539 4.53125 12.7539 4.79492Q12.7539 4.87305 12.7344 4.95117Q12.7148 5.0293 12.6855 5.12695L9.78516 12.7051Q9.64844 13.0762 9.42383 13.2617Q9.19922 13.4473 8.84766 13.4473Z"
                     fill="#ffffff" />
       </g>
</svg>