<svg width="25.166" height="20.2637">
       <g>
              <rect height="20.2637" opacity="0" width="25.166" x="0" y="0" />
              <path d="M4.49219 18.0273L15.6836 18.0273L1.63086 3.97461Q1.49414 4.22852 1.41602 4.59473Q1.33789 4.96094 1.33789 5.37109L1.33789 14.8926Q1.33789 16.3867 2.16309 17.207Q2.98828 18.0273 4.49219 18.0273ZM15.2051 2.22656L4.49219 2.22656L18.0566 15.791Q18.1738 15.4883 18.2373 15.1123Q18.3008 14.7363 18.3008 14.3262L18.3008 5.3418Q18.3008 3.85742 17.5049 3.04199Q16.709 2.22656 15.2051 2.22656ZM19.4238 12.998L22.959 15.9766Q23.2227 16.1914 23.4863 16.3184Q23.75 16.4453 24.0137 16.4453Q24.5312 16.4453 24.8486 16.0986Q25.166 15.752 25.166 15.1855L25.166 5.06836Q25.166 4.50195 24.8486 4.15527Q24.5312 3.80859 24.0137 3.80859Q23.75 3.80859 23.4863 3.93555Q23.2227 4.0625 22.959 4.27734L19.4238 7.23633Z"
                     fill="#32d74b" />
              <path d="M19.2285 20.0977Q19.3945 20.2637 19.6387 20.2637Q19.8828 20.2637 20.0488 20.0977Q20.2148 19.9219 20.2197 19.6826Q20.2246 19.4434 20.0488 19.2676L1.00586 0.224609Q0.830078 0.0585938 0.585938 0.0537109Q0.341797 0.0488281 0.166016 0.224609Q0 0.390625 0 0.634766Q0 0.878906 0.166016 1.05469Z"
                     fill="#32d74b" />
       </g>
</svg>