<svg width="28.1641" height="22.1777">
       <g>
              <rect height="22.1777" opacity="0" width="28.1641" x="0" y="0" />
              <path d="M11.0742 19.043L18.2812 19.043Q19.9902 19.043 20.9375 18.1152Q21.8848 17.1875 21.8848 15.4785L21.8848 13.7793L25.7617 16.9922Q26.0449 17.2168 26.333 17.3584Q26.6211 17.5 26.9141 17.5Q27.4805 17.5 27.8223 17.124Q28.1641 16.748 28.1641 16.123L28.1641 6.04492Q28.1641 5.41992 27.8223 5.04395Q27.4805 4.66797 26.9141 4.66797Q26.6211 4.66797 26.333 4.80469Q26.0449 4.94141 25.7617 5.17578L21.8848 8.38867L21.8848 6.67969Q21.8848 4.98047 20.9375 4.05273Q19.9902 3.125 18.2812 3.125L7.82227 3.125Q6.16211 3.125 5.19043 4.05273Q4.21875 4.98047 4.21875 6.67969L4.21875 11.6211Q4.36523 11.5723 4.52148 11.5381Q4.67773 11.5039 4.85352 11.5039Q5 11.5039 5.14648 11.5283Q5.29297 11.5527 5.42969 11.6016L5.42969 6.875Q5.42969 5.55664 6.09863 4.90234Q6.76758 4.24805 8.04688 4.24805L18.0664 4.24805Q19.3359 4.24805 20.0049 4.90234Q20.6738 5.55664 20.6738 6.875L20.6738 15.2832Q20.6738 16.6016 20.0049 17.2559Q19.3359 17.9102 18.0664 17.9102L11.0742 17.9102ZM21.8848 12.3535L21.8848 9.81445L26.3574 6.18164Q26.4648 6.10352 26.5576 6.04492Q26.6504 5.98633 26.7383 5.98633Q27.002 5.98633 27.002 6.34766L27.002 15.8203Q27.002 16.1719 26.7383 16.1719Q26.6504 16.1719 26.5576 16.1182Q26.4648 16.0645 26.3574 15.9863Z"
                     fill="rgba(255,255,255,0.55)" />
              <path d="M0.449219 18.9062Q0.654297 18.9062 0.791016 18.7744Q0.927734 18.6426 0.927734 18.457L0.927734 16.6211Q0.927734 16.416 0.791016 16.2842Q0.654297 16.1523 0.449219 16.1523Q0.263672 16.1523 0.131836 16.2842Q0 16.416 0 16.6211L0 18.457Q0 18.6426 0.131836 18.7744Q0.263672 18.9062 0.449219 18.9062Z"
                     fill="rgba(255,255,255,0.55)" />
              <path d="M2.65625 20.5176Q2.85156 20.5176 2.9834 20.3857Q3.11523 20.2539 3.11523 20.0488L3.11523 15.0098Q3.11523 14.8145 2.9834 14.6777Q2.85156 14.541 2.65625 14.541Q2.46094 14.541 2.32422 14.6777Q2.1875 14.8145 2.1875 15.0098L2.1875 20.0488Q2.1875 20.2539 2.32422 20.3857Q2.46094 20.5176 2.65625 20.5176Z"
                     fill="rgba(255,255,255,0.55)" />
              <path d="M4.84375 22.1777Q5.03906 22.1777 5.17578 22.0508Q5.3125 21.9238 5.3125 21.7285L5.3125 13.3594Q5.3125 13.1543 5.17578 13.0225Q5.03906 12.8906 4.84375 12.8906Q4.6582 12.8906 4.52148 13.0225Q4.38477 13.1543 4.38477 13.3594L4.38477 21.7285Q4.38477 21.9238 4.5166 22.0508Q4.64844 22.1777 4.84375 22.1777Z"
                     fill="rgba(255,255,255,0.55)" />
              <path d="M7.04102 21.1816Q7.23633 21.1816 7.36816 21.0449Q7.5 20.9082 7.5 20.7129L7.5 14.3457Q7.5 14.1504 7.36816 14.0234Q7.23633 13.8965 7.04102 13.8965Q6.8457 13.8965 6.71387 14.0234Q6.58203 14.1504 6.58203 14.3457L6.58203 20.7129Q6.58203 20.9082 6.71387 21.0449Q6.8457 21.1816 7.04102 21.1816Z"
                     fill="rgba(255,255,255,0.55)" />
              <path d="M9.23828 19.4434Q9.43359 19.4434 9.56543 19.3115Q9.69727 19.1797 9.69727 18.9844L9.69727 16.084Q9.69727 15.8887 9.56543 15.7568Q9.43359 15.625 9.23828 15.625Q9.04297 15.625 8.91113 15.7568Q8.7793 15.8887 8.7793 16.084L8.7793 18.9844Q8.7793 19.1797 8.91113 19.3115Q9.04297 19.4434 9.23828 19.4434Z"
                     fill="rgba(255,255,255,0.165)" />
       </g>
</svg>