<svg width="17.6855" height="17.7051">
       <g>
              <rect height="17.7051" opacity="0" width="17.6855" x="0" y="0" />
              <path d="M2.88086 17.7051L14.8047 17.7051Q16.2305 17.7051 16.958 16.9873Q17.6855 16.2695 17.6855 14.8535L17.6855 2.88086Q17.6855 1.46484 16.958 0.742188Q16.2305 0.0195312 14.8047 0.0195312L2.88086 0.0195312Q1.44531 0.0195312 0.722656 0.737305Q0 1.45508 0 2.88086L0 14.8535Q0 16.2695 0.722656 16.9873Q1.44531 17.7051 2.88086 17.7051ZM2.90039 16.4941Q2.07031 16.4941 1.64062 16.0645Q1.21094 15.6348 1.21094 14.7949L1.21094 2.93945Q1.21094 2.08984 1.64062 1.66016Q2.07031 1.23047 2.90039 1.23047L14.7852 1.23047Q15.5859 1.23047 16.0303 1.66016Q16.4746 2.08984 16.4746 2.93945L16.4746 14.7949Q16.4746 15.6348 16.0303 16.0645Q15.5859 16.4941 14.7852 16.4941Z"
                     fill="#32d74b" />
              <path d="M4.82422 12.7344L9.99023 12.7344Q10.7227 12.7344 11.1279 12.334Q11.5332 11.9336 11.5332 11.2012L11.5332 6.51367Q11.5332 5.78125 11.1426 5.38574Q10.752 4.99023 10.0195 4.99023L4.82422 4.99023Q4.12109 4.99023 3.70117 5.38574Q3.28125 5.78125 3.28125 6.51367L3.28125 11.2012Q3.28125 11.9336 3.68652 12.334Q4.0918 12.7344 4.82422 12.7344ZM12.0605 10.2051L13.8867 11.7285Q14.0137 11.8359 14.1455 11.8994Q14.2773 11.9629 14.4043 11.9629Q14.6582 11.9629 14.8145 11.792Q14.9707 11.6211 14.9707 11.3281L14.9707 6.37695Q14.9707 6.09375 14.8145 5.92285Q14.6582 5.75195 14.4043 5.75195Q14.2773 5.75195 14.1455 5.82031Q14.0137 5.88867 13.8867 5.97656L12.0605 7.5Z"
                     fill="#32d74b" />
       </g>
</svg>