<svg width="25.2148" height="20.2441">
       <g>
              <rect height="20.2441" opacity="0" width="25.2148" x="0" y="0" />
              <path d="M4.87305 18.0762L15.7129 18.0762L14.5996 16.9434L5.09766 16.9434Q3.81836 16.9434 3.14941 16.2891Q2.48047 15.6348 2.48047 14.3164L2.48047 5.00977L1.26953 3.7793Q1.26953 4.12109 1.26953 4.46289Q1.26953 4.80469 1.26953 5.14648L1.26953 14.5117Q1.26953 16.2207 2.2168 17.1484Q3.16406 18.0762 4.87305 18.0762ZM15.332 2.1582L4.46289 2.1582L5.58594 3.28125L15.1172 3.28125Q16.3867 3.28125 17.0557 3.93555Q17.7246 4.58984 17.7246 5.9082L17.7246 14.2676Q17.7246 14.5605 17.6807 14.7949Q17.6367 15.0293 17.5391 15.2344L18.5742 16.2695Q18.9355 15.5469 18.9355 14.5996L18.9355 5.71289Q18.9355 4.01367 17.9883 3.08594Q17.041 2.1582 15.332 2.1582ZM18.7207 7.59766L18.7207 9.01367L23.4082 5.21484Q23.5156 5.13672 23.6084 5.07812Q23.7012 5.01953 23.7891 5.01953Q24.0527 5.01953 24.0527 5.38086L24.0527 14.8535Q24.0527 15.2051 23.7891 15.2051Q23.7012 15.2051 23.6084 15.1514Q23.5156 15.0977 23.4082 15.0195L18.7207 11.2207L18.7207 12.6367L22.8125 16.0254Q23.0957 16.25 23.3838 16.3916Q23.6719 16.5332 23.9648 16.5332Q24.5312 16.5332 24.873 16.1572Q25.2148 15.7812 25.2148 15.1562L25.2148 5.07812Q25.2148 4.45312 24.873 4.07715Q24.5312 3.70117 23.9648 3.70117Q23.6719 3.70117 23.3838 3.83789Q23.0957 3.97461 22.8125 4.20898Z"
                     fill="#32d74b" />
              <path d="M19.2285 20.0781Q19.3945 20.2441 19.6387 20.2441Q19.8828 20.2441 20.0488 20.0781Q20.2148 19.9023 20.2197 19.6631Q20.2246 19.4238 20.0488 19.248L1.00586 0.205078Q0.830078 0.0390625 0.585938 0.0341797Q0.341797 0.0292969 0.166016 0.205078Q0 0.371094 0 0.615234Q0 0.859375 0.166016 1.03516Z"
                     fill="#32d74b" />
       </g>
</svg>