<svg width="12.2205" height="21.5213">
       <g>
              <rect height="21.5213" opacity="0" width="12.2205" x="0" y="0" />
              <path d="M6.11328 21.5115Q7.90726 21.5115 9.28444 20.7681Q10.6616 20.0247 11.441 18.7144Q12.2205 17.404 12.2205 15.6949L12.2205 5.8136Q12.2205 4.10446 11.441 2.79411Q10.6616 1.48376 9.28444 0.741882Q7.90726 0 6.11328 0Q4.31625 0 2.93907 0.741882Q1.56189 1.48376 0.780945 2.79411Q0 4.10446 0 5.8136L0 15.6949Q0 17.404 0.780945 18.7144Q1.56189 20.0247 2.93907 20.7681Q4.31625 21.5115 6.11328 21.5115Z"
                     fill="rgba(255,255,255,0.55)" />
              <path d="M6.11328 9.80957Q5.11673 9.80957 4.30954 9.33571Q3.50235 8.86185 3.02849 8.05801Q2.55463 7.25418 2.55463 6.26068Q2.55463 5.26733 3.02849 4.45854Q3.50235 3.64975 4.30954 3.17596Q5.11673 2.70218 6.11328 2.70218Q7.10373 2.70218 7.90756 3.17596Q8.7114 3.64975 9.18526 4.45854Q9.65912 5.26733 9.65912 6.26068Q9.65912 7.25418 9.18526 8.05801Q8.7114 8.86185 7.90756 9.33571Q7.10373 9.80957 6.11328 9.80957ZM6.11328 18.7468Q5.11673 18.7468 4.30954 18.2729Q3.50235 17.7991 3.02849 16.9904Q2.55463 16.1816 2.55463 15.1881Q2.55463 14.1948 3.02849 13.3909Q3.50235 12.587 4.30954 12.1132Q5.11673 11.6394 6.11328 11.6394Q7.10373 11.6394 7.90756 12.1132Q8.7114 12.587 9.18526 13.3909Q9.65912 14.1948 9.65912 15.1881Q9.65912 16.1816 9.18526 16.9904Q8.7114 17.7991 7.90756 18.2729Q7.10373 18.7468 6.11328 18.7468ZM6.11328 7.59293Q6.66824 7.59293 7.04865 7.20772Q7.42905 6.82251 7.42905 6.26068Q7.42905 5.69595 7.04865 5.31075Q6.66824 4.92554 6.11328 4.92554Q5.55832 4.92554 5.17151 5.31075Q4.7847 5.69595 4.7847 6.26068Q4.7847 6.82251 5.17151 7.20772Q5.55832 7.59293 6.11328 7.59293ZM6.11328 17.7002Q7.19009 17.7002 7.90131 16.9841Q8.61252 16.268 8.61252 15.1881Q8.61252 14.1113 7.90131 13.3952Q7.19009 12.6791 6.11328 12.6791Q5.03342 12.6791 4.31732 13.3952Q3.60123 14.1113 3.60123 15.1881Q3.60123 16.268 4.31732 16.9841Q5.03342 17.7002 6.11328 17.7002Z"
                     fill="#ffffff" />
       </g>
</svg>