<svg width="23.9452" height="15.9372">
       <g>
              <rect height="15.9372" opacity="0" width="23.9452" x="0" y="0" />
              <path d="M3.59665 15.9274L14.0622 15.9274Q15.7706 15.9274 16.7162 14.9953Q17.6619 14.0631 17.6619 12.3578L17.6619 3.56293Q17.6619 1.86432 16.7162 0.932159Q15.7706 0 14.0622 0L3.59665 0Q1.94214 0 0.971069 0.932159Q0 1.86432 0 3.56293L0 12.3578Q0 14.0631 0.945663 14.9953Q1.89133 15.9274 3.59665 15.9274ZM3.82172 14.7919Q2.54486 14.7919 1.87538 14.1381Q1.2059 13.4843 1.2059 12.1664L1.2059 3.75793Q1.2059 2.44003 1.87538 1.78436Q2.54486 1.12869 3.82172 1.12869L13.8402 1.12869Q15.114 1.12869 15.7834 1.78436Q16.4528 2.44003 16.4528 3.75793L16.4528 12.1664Q16.4528 13.4843 15.7834 14.1381Q15.114 14.7919 13.8402 14.7919ZM17.4675 5.42908L17.4675 6.8486L22.131 3.06229Q22.2449 2.98019 22.3349 2.92328Q22.4249 2.86636 22.5137 2.86636Q22.7766 2.86636 22.7766 3.22479L22.7766 12.7026Q22.7766 13.0544 22.5137 13.0544Q22.4249 13.0544 22.3349 12.9974Q22.2449 12.9405 22.131 12.8651L17.4675 9.07578L17.4675 10.4915L21.5379 13.8693Q21.8217 14.0984 22.1085 14.2406Q22.3953 14.3829 22.692 14.3829Q23.2579 14.3829 23.6015 14.0047Q23.9452 13.6266 23.9452 13.0005L23.9452 2.92694Q23.9452 2.30087 23.6015 1.92268Q23.2579 1.54449 22.692 1.54449Q22.3953 1.54449 22.1085 1.68526Q21.8217 1.82602 21.5379 2.05811Z"
                     fill="#32d74b" />
       </g>
</svg>