<svg width="17.6855" height="17.7051">
       <g>
              <rect height="17.7051" opacity="0" width="17.6855" x="0" y="0" />
              <path d="M2.88086 17.7051L14.8047 17.7051Q16.2305 17.7051 16.958 16.9873Q17.6855 16.2695 17.6855 14.8535L17.6855 2.88086Q17.6855 1.46484 16.958 0.742188Q16.2305 0.0195312 14.8047 0.0195312L2.88086 0.0195312Q1.44531 0.0195312 0.722656 0.737305Q0 1.45508 0 2.88086L0 14.8535Q0 16.2695 0.722656 16.9873Q1.44531 17.7051 2.88086 17.7051Z"
                     fill="#32d74b" />
              <path d="M4.80469 12.8027Q4.05273 12.8027 3.6377 12.3926Q3.22266 11.9824 3.22266 11.2402L3.22266 6.43555Q3.22266 5.69336 3.64746 5.28809Q4.07227 4.88281 4.80469 4.88281L10.0977 4.88281Q10.8496 4.88281 11.2402 5.28809Q11.6309 5.69336 11.6309 6.43555L11.6309 11.2402Q11.6309 11.9824 11.2207 12.3926Q10.8105 12.8027 10.0586 12.8027ZM12.1777 10.2148L12.1777 7.46094L14.043 5.89844Q14.1699 5.80078 14.3066 5.7373Q14.4434 5.67383 14.5801 5.67383Q14.834 5.67383 14.9951 5.84473Q15.1562 6.01562 15.1562 6.30859L15.1562 11.3672Q15.1562 11.6602 14.9951 11.8359Q14.834 12.0117 14.5801 12.0117Q14.4434 12.0117 14.3115 11.9434Q14.1797 11.875 14.043 11.7773Z"
                     fill="#ffffff" />
       </g>
</svg>