<svg width="19.5898" height="19.5996">
       <g>
              <rect height="19.5996" opacity="0" width="19.5898" x="0" y="0" />
              <path d="M9.79492 19.5898Q11.8066 19.5898 13.5791 18.8232Q15.3516 18.0566 16.7041 16.7041Q18.0566 15.3516 18.8232 13.5791Q19.5898 11.8066 19.5898 9.79492Q19.5898 7.7832 18.8232 6.01074Q18.0566 4.23828 16.7041 2.88574Q15.3516 1.5332 13.5742 0.766602Q11.7969 0 9.78516 0Q7.77344 0 6.00098 0.766602Q4.22852 1.5332 2.88086 2.88574Q1.5332 4.23828 0.766602 6.01074Q0 7.7832 0 9.79492Q0 11.8066 0.766602 13.5791Q1.5332 15.3516 2.88574 16.7041Q4.23828 18.0566 6.01074 18.8232Q7.7832 19.5898 9.79492 19.5898ZM9.79492 18.3203Q8.02734 18.3203 6.47949 17.6611Q4.93164 17.002 3.75977 15.8301Q2.58789 14.6582 1.92871 13.1104Q1.26953 11.5625 1.26953 9.79492Q1.26953 8.02734 1.92871 6.47949Q2.58789 4.93164 3.75977 3.75488Q4.93164 2.57812 6.47461 1.91895Q8.01758 1.25977 9.78516 1.25977Q11.5625 1.25977 13.1104 1.91895Q14.6582 2.57812 15.8301 3.75488Q17.002 4.93164 17.666 6.47949Q18.3301 8.02734 18.3301 9.79492Q18.3301 11.5625 17.666 13.1104Q17.002 14.6582 15.8301 15.8301Q14.6582 17.002 13.1152 17.6611Q11.5723 18.3203 9.79492 18.3203Z"
                     fill="#32d74b" />
              <path d="M5.77148 13.6816L10.9375 13.6816Q11.6699 13.6816 12.0752 13.2812Q12.4805 12.8809 12.4805 12.1484L12.4805 7.46094Q12.4805 6.72852 12.0898 6.33301Q11.6992 5.9375 10.9668 5.9375L5.77148 5.9375Q5.06836 5.9375 4.64844 6.33301Q4.22852 6.72852 4.22852 7.46094L4.22852 12.1484Q4.22852 12.8809 4.63379 13.2812Q5.03906 13.6816 5.77148 13.6816ZM13.0078 11.1523L14.834 12.6758Q14.9609 12.7832 15.0928 12.8467Q15.2246 12.9102 15.3516 12.9102Q15.6055 12.9102 15.7617 12.7393Q15.918 12.5684 15.918 12.2754L15.918 7.32422Q15.918 7.04102 15.7617 6.87012Q15.6055 6.69922 15.3516 6.69922Q15.2246 6.69922 15.0928 6.76758Q14.9609 6.83594 14.834 6.92383L13.0078 8.44727Z"
                     fill="#32d74b" />
       </g>
</svg>