<svg width="23.8232" height="15.8087">
       <g>
              <rect height="15.8087" opacity="0" width="23.8232" x="0" y="0" />
              <path d="M3.15292 15.799L13.8046 15.799Q15.3065 15.799 16.132 14.9854Q16.9576 14.1718 16.9576 12.6759L16.9576 3.1163Q16.9576 1.6272 16.1642 0.813599Q15.3709 0 13.869 0L3.15292 0Q1.69815 0 0.849075 0.813599Q0 1.6272 0 3.1163L0 12.6759Q0 14.1718 0.8255 14.9854Q1.651 15.799 3.15292 15.799ZM18.089 10.7712L21.6225 13.7476Q21.8794 13.9594 22.1441 14.0866Q22.4088 14.2139 22.6785 14.2139Q23.1935 14.2139 23.5084 13.8712Q23.8232 13.5286 23.8232 12.9533L23.8232 2.84256Q23.8232 2.27036 23.5084 1.92619Q23.1935 1.58203 22.6785 1.58203Q22.4088 1.58203 22.1441 1.70746Q21.8794 1.83289 21.6225 2.05139L18.089 5.0119Z"
                     fill="#32d74b" />
       </g>
</svg>