<svg width="19.5898" height="19.5996">
       <g>
              <rect height="19.5996" opacity="0" width="19.5898" x="0" y="0" />
              <path d="M9.79492 19.5996Q11.8066 19.5996 13.5791 18.833Q15.3516 18.0664 16.7041 16.7139Q18.0566 15.3613 18.8232 13.5889Q19.5898 11.8164 19.5898 9.80469Q19.5898 7.79297 18.8232 6.02051Q18.0566 4.24805 16.7041 2.89551Q15.3516 1.54297 13.5742 0.776367Q11.7969 0.00976562 9.78516 0.00976562Q7.77344 0.00976562 6.00098 0.776367Q4.22852 1.54297 2.88086 2.89551Q1.5332 4.24805 0.766602 6.02051Q0 7.79297 0 9.80469Q0 11.8164 0.766602 13.5889Q1.5332 15.3613 2.88574 16.7139Q4.23828 18.0664 6.01074 18.833Q7.7832 19.5996 9.79492 19.5996Z"
                     fill="#32d74b" />
              <path d="M5.75195 13.7695Q5 13.7695 4.58496 13.3594Q4.16992 12.9492 4.16992 12.207L4.16992 7.40234Q4.16992 6.66016 4.59473 6.25488Q5.01953 5.84961 5.75195 5.84961L11.0449 5.84961Q11.7969 5.84961 12.1875 6.25488Q12.5781 6.66016 12.5781 7.40234L12.5781 12.207Q12.5781 12.9492 12.168 13.3594Q11.7578 13.7695 11.0059 13.7695ZM13.125 11.1816L13.125 8.42773L14.9902 6.86523Q15.1172 6.76758 15.2539 6.7041Q15.3906 6.64062 15.5273 6.64062Q15.7812 6.64062 15.9424 6.81152Q16.1035 6.98242 16.1035 7.27539L16.1035 12.334Q16.1035 12.627 15.9424 12.8027Q15.7812 12.9785 15.5273 12.9785Q15.3906 12.9785 15.2588 12.9102Q15.127 12.8418 14.9902 12.7441Z"
                     fill="#ffffff" />
       </g>
</svg>