<svg width="21.2012" height="21.0449">
       <g>
              <rect height="21.0449" opacity="0" width="21.2012" x="0" y="0" />
              <path d="M5.46875 21.0449Q5.70312 21.0449 5.89844 20.9229Q6.09375 20.8008 6.35742 20.5566L9.89258 17.4023L17.0508 17.4023Q18.3789 17.4023 19.3018 16.9092Q20.2246 16.416 20.7129 15.4932Q21.2012 14.5703 21.2012 13.2617L21.2012 5.41016Q21.2012 4.10156 20.7129 3.17383Q20.2246 2.24609 19.3018 1.75293Q18.3789 1.25977 17.0508 1.25977L4.15039 1.25977Q2.82227 1.25977 1.89453 1.75293Q0.966797 2.24609 0.483398 3.16895Q0 4.0918 0 5.41016L0 13.2617Q0 14.5703 0.483398 15.498Q0.966797 16.4258 1.89453 16.9141Q2.82227 17.4023 4.15039 17.4023L4.76562 17.4023L4.76562 20.2344Q4.76562 20.6055 4.95117 20.8252Q5.13672 21.0449 5.46875 21.0449Z"
                     fill="rgba(255,255,255,0.55)" />
              <path d="M6.5625 13.291Q5.81055 13.291 5.39551 12.8809Q4.98047 12.4707 4.98047 11.7285L4.98047 6.92383Q4.98047 6.18164 5.40527 5.77637Q5.83008 5.37109 6.5625 5.37109L11.8555 5.37109Q12.6074 5.37109 12.998 5.77637Q13.3887 6.18164 13.3887 6.92383L13.3887 11.7285Q13.3887 12.4707 12.9785 12.8809Q12.5684 13.291 11.8164 13.291ZM13.9355 10.7031L13.9355 7.94922L15.8008 6.38672Q15.9277 6.28906 16.0645 6.22559Q16.2012 6.16211 16.3379 6.16211Q16.5918 6.16211 16.7529 6.33301Q16.9141 6.50391 16.9141 6.79688L16.9141 11.8555Q16.9141 12.1484 16.7529 12.3242Q16.5918 12.5 16.3379 12.5Q16.2012 12.5 16.0693 12.4316Q15.9375 12.3633 15.8008 12.2656Z"
                     fill="#ffffff" />
       </g>
</svg>