<svg width="28.1152" height="22.1777">
       <g>
              <rect height="22.1777" opacity="0" width="28.1152" x="0" y="0" />
              <path d="M22.373 13.9551L25.9082 16.9336Q26.1719 17.1582 26.4355 17.2803Q26.6992 17.4023 26.9629 17.4023Q27.4805 17.4023 27.7979 17.0605Q28.1152 16.7188 28.1152 16.1426L28.1152 6.03516Q28.1152 5.45898 27.7979 5.11719Q27.4805 4.77539 26.9629 4.77539Q26.6992 4.77539 26.4355 4.90234Q26.1719 5.0293 25.9082 5.23438L22.373 8.20312ZM18.1543 3.18359L7.44141 3.18359Q5.98633 3.18359 5.13672 3.99902Q4.28711 4.81445 4.28711 6.31836L4.28711 11.6016Q4.41406 11.5625 4.55566 11.5332Q4.69727 11.5039 4.85352 11.5039Q5.41016 11.5039 5.84961 11.8262Q6.28906 12.1484 6.45508 12.6367Q6.73828 12.5098 7.03125 12.5098Q7.73438 12.5098 8.24219 12.959Q8.75 13.4082 8.84766 14.0625Q8.85742 14.1309 8.8623 14.2041Q8.86719 14.2773 8.86719 14.3457Q8.94531 14.2969 9.03809 14.2676Q9.13086 14.2383 9.22852 14.2383Q9.74609 14.2383 10.1611 14.4873Q10.5762 14.7363 10.8252 15.1514Q11.0742 15.5664 11.0742 16.0742L11.0742 18.9844L18.0957 18.9844Q19.5898 18.9844 20.4199 18.1738Q21.25 17.3633 21.25 15.8691L21.25 6.31836Q21.25 4.81445 20.4541 3.99902Q19.6582 3.18359 18.1543 3.18359Z"
                     fill="rgba(255,255,255,0.55)" />
              <path d="M0.449219 18.9062Q0.654297 18.9062 0.791016 18.7744Q0.927734 18.6426 0.927734 18.457L0.927734 16.6211Q0.927734 16.416 0.791016 16.2842Q0.654297 16.1523 0.449219 16.1523Q0.263672 16.1523 0.131836 16.2842Q0 16.416 0 16.6211L0 18.457Q0 18.6426 0.131836 18.7744Q0.263672 18.9062 0.449219 18.9062Z"
                     fill="rgba(255,255,255,0.55)" />
              <path d="M2.65625 20.5176Q2.85156 20.5176 2.9834 20.3857Q3.11523 20.2539 3.11523 20.0488L3.11523 15.0098Q3.11523 14.8145 2.9834 14.6777Q2.85156 14.541 2.65625 14.541Q2.46094 14.541 2.32422 14.6777Q2.1875 14.8145 2.1875 15.0098L2.1875 20.0488Q2.1875 20.2539 2.32422 20.3857Q2.46094 20.5176 2.65625 20.5176Z"
                     fill="rgba(255,255,255,0.55)" />
              <path d="M4.84375 22.1777Q5.03906 22.1777 5.17578 22.0508Q5.3125 21.9238 5.3125 21.7285L5.3125 13.3594Q5.3125 13.1543 5.17578 13.0225Q5.03906 12.8906 4.84375 12.8906Q4.6582 12.8906 4.52148 13.0225Q4.38477 13.1543 4.38477 13.3594L4.38477 21.7285Q4.38477 21.9238 4.5166 22.0508Q4.64844 22.1777 4.84375 22.1777Z"
                     fill="rgba(255,255,255,0.55)" />
              <path d="M7.04102 21.1816Q7.23633 21.1816 7.36816 21.0449Q7.5 20.9082 7.5 20.7129L7.5 14.3457Q7.5 14.1504 7.36816 14.0234Q7.23633 13.8965 7.04102 13.8965Q6.8457 13.8965 6.71387 14.0234Q6.58203 14.1504 6.58203 14.3457L6.58203 20.7129Q6.58203 20.9082 6.71387 21.0449Q6.8457 21.1816 7.04102 21.1816Z"
                     fill="rgba(255,255,255,0.55)" />
              <path d="M9.23828 19.4434Q9.43359 19.4434 9.56543 19.3115Q9.69727 19.1797 9.69727 18.9844L9.69727 16.084Q9.69727 15.8887 9.56543 15.7568Q9.43359 15.625 9.23828 15.625Q9.04297 15.625 8.91113 15.7568Q8.7793 15.8887 8.7793 16.084L8.7793 18.9844Q8.7793 19.1797 8.91113 19.3115Q9.04297 19.4434 9.23828 19.4434Z"
                     fill="rgba(255,255,255,0.165)" />
       </g>
</svg>