<svg width="19.5898" height="19.5996">
       <g>
              <rect height="19.5996" opacity="0" width="19.5898" x="0" y="0" />
              <path d="M9.79492 19.5898Q11.8066 19.5898 13.5791 18.8232Q15.3516 18.0566 16.7041 16.7041Q18.0566 15.3516 18.8232 13.5791Q19.5898 11.8066 19.5898 9.79492Q19.5898 7.7832 18.8232 6.01074Q18.0566 4.23828 16.7041 2.88574Q15.3516 1.5332 13.5742 0.766602Q11.7969 0 9.78516 0Q7.77344 0 6.00098 0.766602Q4.22852 1.5332 2.88086 2.88574Q1.5332 4.23828 0.766602 6.01074Q0 7.7832 0 9.79492Q0 11.8066 0.766602 13.5791Q1.5332 15.3516 2.88574 16.7041Q4.23828 18.0566 6.01074 18.8232Q7.7832 19.5898 9.79492 19.5898Z"
                     fill="rgba(255,255,255,0.55)" />
              <path d="M6.62109 4.89258L7.99805 4.89258Q8.25195 4.89258 8.41309 5.04883Q8.57422 5.20508 8.57422 5.45898Q8.57422 5.71289 8.41309 5.87402Q8.25195 6.03516 7.99805 6.03516L6.75781 6.03516Q5.98633 6.03516 5.98633 6.81641L5.98633 8.02734Q5.98633 8.29102 5.83008 8.45215Q5.67383 8.61328 5.41016 8.61328Q5.15625 8.61328 5 8.44727Q4.84375 8.28125 4.84375 8.02734L4.84375 6.65039Q4.84375 5.78125 5.29297 5.33691Q5.74219 4.89258 6.62109 4.89258ZM12.8711 4.89258Q13.75 4.89258 14.1943 5.33691Q14.6387 5.78125 14.6387 6.65039L14.6387 8.02734Q14.6387 8.28125 14.4824 8.44727Q14.3262 8.61328 14.0723 8.61328Q13.8184 8.61328 13.6621 8.45215Q13.5059 8.29102 13.5059 8.02734L13.5059 6.81641Q13.5059 6.03516 12.7246 6.03516L11.4941 6.03516Q11.2305 6.03516 11.0693 5.87402Q10.9082 5.71289 10.9082 5.45898Q10.9082 5.20508 11.0693 5.04883Q11.2305 4.89258 11.4941 4.89258ZM6.62109 14.6973Q5.74219 14.6973 5.29297 14.2529Q4.84375 13.8086 4.84375 12.9395L4.84375 11.5625Q4.84375 11.2988 5 11.1377Q5.15625 10.9766 5.41016 10.9766Q5.67383 10.9766 5.83008 11.1377Q5.98633 11.2988 5.98633 11.5625L5.98633 12.7734Q5.98633 13.5547 6.75781 13.5547L7.99805 13.5547Q8.25195 13.5547 8.41309 13.7158Q8.57422 13.877 8.57422 14.1211Q8.57422 14.3848 8.41309 14.541Q8.25195 14.6973 7.99805 14.6973ZM12.8711 14.6973L11.4941 14.6973Q11.2305 14.6973 11.0693 14.541Q10.9082 14.3848 10.9082 14.1211Q10.9082 13.877 11.0693 13.7158Q11.2305 13.5547 11.4941 13.5547L12.7246 13.5547Q13.5059 13.5547 13.5059 12.7734L13.5059 11.5625Q13.5059 11.2988 13.6621 11.1377Q13.8184 10.9766 14.0723 10.9766Q14.3262 10.9766 14.4824 11.1377Q14.6387 11.2988 14.6387 11.5625L14.6387 12.9395Q14.6387 13.8086 14.1943 14.2529Q13.75 14.6973 12.8711 14.6973Z"
                     fill="#ffffff" />
       </g>
</svg>