<svg width="19.5898" height="19.5996">
       <g>
              <rect height="19.5996" opacity="0" width="19.5898" x="0" y="0" />
              <path d="M9.79492 19.5898Q11.8066 19.5898 13.5791 18.8232Q15.3516 18.0566 16.7041 16.7041Q18.0566 15.3516 18.8232 13.5791Q19.5898 11.8066 19.5898 9.79492Q19.5898 7.7832 18.8232 6.01074Q18.0566 4.23828 16.7041 2.88574Q15.3516 1.5332 13.5742 0.766602Q11.7969 0 9.78516 0Q7.77344 0 6.00098 0.766602Q4.22852 1.5332 2.88086 2.88574Q1.5332 4.23828 0.766602 6.01074Q0 7.7832 0 9.79492Q0 11.8066 0.766602 13.5791Q1.5332 15.3516 2.88574 16.7041Q4.23828 18.0566 6.01074 18.8232Q7.7832 19.5898 9.79492 19.5898Z"
                     fill="rgba(255,255,255,0.55)" />
              <path d="M7.16797 14.3945Q6.52344 14.3945 6.36719 13.7402L4.36523 5.97656Q4.3457 5.9082 4.34082 5.84961Q4.33594 5.79102 4.33594 5.74219Q4.33594 5.47852 4.49707 5.3125Q4.6582 5.14648 4.93164 5.14648Q5.20508 5.14648 5.35156 5.29297Q5.49805 5.43945 5.55664 5.75195L7.20703 12.6074L7.26562 12.6074L9.0918 5.71289Q9.21875 5.18555 9.78516 5.18555Q10.3418 5.18555 10.4785 5.71289L12.3047 12.6074L12.373 12.6074L14.0137 5.75195Q14.0918 5.43945 14.2334 5.29297Q14.375 5.14648 14.6484 5.14648Q14.9219 5.14648 15.0879 5.3125Q15.2539 5.47852 15.2539 5.74219Q15.2539 5.79102 15.2441 5.84961Q15.2344 5.9082 15.2148 5.97656L13.2129 13.7402Q13.0469 14.3945 12.3926 14.3945Q11.7285 14.3945 11.5723 13.7598L9.81445 7.04102L9.75586 7.04102L7.99805 13.7598Q7.8418 14.3945 7.16797 14.3945Z"
                     fill="#ffffff" />
       </g>
</svg>