<svg width="17.6855" height="17.7051">
       <g>
              <rect height="17.7051" opacity="0" width="17.6855" x="0" y="0" />
              <path d="M2.88086 17.7051L14.8047 17.7051Q16.2305 17.7051 16.958 16.9873Q17.6855 16.2695 17.6855 14.8535L17.6855 2.88086Q17.6855 1.46484 16.958 0.742188Q16.2305 0.0195312 14.8047 0.0195312L2.88086 0.0195312Q1.44531 0.0195312 0.722656 0.737305Q0 1.45508 0 2.88086L0 14.8535Q0 16.2695 0.722656 16.9873Q1.44531 17.7051 2.88086 17.7051Z"
                     fill="rgba(255,255,255,0.55)" />
              <path d="M6.2207 13.4473Q5.57617 13.4473 5.41992 12.793L3.41797 5.0293Q3.39844 4.96094 3.39355 4.90234Q3.38867 4.84375 3.38867 4.79492Q3.38867 4.53125 3.5498 4.36523Q3.71094 4.19922 3.98438 4.19922Q4.25781 4.19922 4.4043 4.3457Q4.55078 4.49219 4.60938 4.80469L6.25977 11.6602L6.31836 11.6602L8.14453 4.76562Q8.27148 4.23828 8.83789 4.23828Q9.39453 4.23828 9.53125 4.76562L11.3574 11.6602L11.4258 11.6602L13.0664 4.80469Q13.1445 4.49219 13.2861 4.3457Q13.4277 4.19922 13.7012 4.19922Q13.9746 4.19922 14.1406 4.36523Q14.3066 4.53125 14.3066 4.79492Q14.3066 4.84375 14.2969 4.90234Q14.2871 4.96094 14.2676 5.0293L12.2656 12.793Q12.0996 13.4473 11.4453 13.4473Q10.7812 13.4473 10.625 12.8125L8.86719 6.09375L8.80859 6.09375L7.05078 12.8125Q6.89453 13.4473 6.2207 13.4473Z"
                     fill="#ffffff" />
       </g>
</svg>