<svg width="20.7715" height="20.8496">
       <g>
              <rect height="20.8496" opacity="0" width="20.7715" x="0" y="0" />
              <path d="M18.6133 19.9707Q18.877 20.2344 19.2529 20.2344Q19.6289 20.2344 19.873 19.9707Q20.127 19.6973 20.127 19.3408Q20.127 18.9844 19.873 18.7109L10.5176 9.32617Q10.2637 9.0625 9.8877 9.0625Q9.51172 9.0625 9.26758 9.32617Q9.00391 9.59961 9.00391 9.96094Q9.00391 10.3223 9.26758 10.5859ZM12.7637 13.2617L9.85352 10.3418Q9.73633 10.2246 9.71191 10.1025Q9.6875 9.98047 9.80469 9.87305Q9.90234 9.76562 10.0244 9.79004Q10.1465 9.81445 10.2734 9.93164L13.1934 12.8516Z"
                     fill="rgba(255,255,255,0.55)" />
              <path d="M11.0449 17.0898Q11.0449 16.8164 10.8496 16.6211Q10.6543 16.4258 10.3809 16.4258Q10.1172 16.4258 9.92188 16.6211Q9.72656 16.8164 9.72656 17.0898L9.72656 20.1074Q9.72656 20.3809 9.92188 20.5762Q10.1172 20.7715 10.3809 20.7715Q10.6543 20.7715 10.8496 20.5762Q11.0449 20.3809 11.0449 20.1074Z"
                     fill="rgba(255,255,255,0.55)" />
              <path d="M3.05664 16.7676Q2.87109 16.9531 2.86621 17.2314Q2.86133 17.5098 3.04688 17.6953Q3.23242 17.8809 3.51074 17.8857Q3.78906 17.8906 3.98438 17.7051L6.12305 15.5664Q6.30859 15.3906 6.30859 15.1123Q6.30859 14.834 6.12305 14.6484Q5.9375 14.4629 5.65918 14.4629Q5.38086 14.4629 5.19531 14.6484Z"
                     fill="rgba(255,255,255,0.55)" />
              <path d="M0.654297 9.72656Q0.400391 9.72656 0.200195 9.92188Q0 10.1172 0 10.3809Q0 10.6543 0.200195 10.8447Q0.400391 11.0352 0.654297 11.0352L3.69141 11.0352Q3.95508 11.0352 4.15039 10.8447Q4.3457 10.6543 4.3457 10.3809Q4.3457 10.1172 4.15039 9.92188Q3.95508 9.72656 3.69141 9.72656Z"
                     fill="rgba(255,255,255,0.55)" />
              <path d="M5.19531 6.13281Q5.38086 6.31836 5.6543 6.31836Q5.92773 6.31836 6.12305 6.13281Q6.30859 5.94727 6.30859 5.66895Q6.30859 5.39062 6.12305 5.20508L3.99414 3.06641Q3.80859 2.88086 3.53516 2.87598Q3.26172 2.87109 3.06641 3.05664Q2.87109 3.24219 2.87109 3.52051Q2.87109 3.79883 3.06641 3.98438Z"
                     fill="rgba(255,255,255,0.55)" />
              <path d="M11.0449 0.654297Q11.0449 0.390625 10.8496 0.195312Q10.6543 0 10.3809 0Q10.1172 0 9.92188 0.195312Q9.72656 0.390625 9.72656 0.654297L9.72656 3.68164Q9.72656 3.94531 9.92188 4.14551Q10.1172 4.3457 10.3809 4.3457Q10.6543 4.3457 10.8496 4.14551Q11.0449 3.94531 11.0449 3.68164Z"
                     fill="rgba(255,255,255,0.55)" />
              <path d="M14.6387 5.20508Q14.4434 5.39062 14.4434 5.66406Q14.4434 5.9375 14.6387 6.13281Q14.834 6.31836 15.1074 6.31836Q15.3809 6.31836 15.5762 6.13281L17.7051 3.99414Q17.9004 3.79883 17.9004 3.52051Q17.9004 3.24219 17.7051 3.05664Q17.5098 2.87109 17.2412 2.87109Q16.9727 2.87109 16.7773 3.05664Z"
                     fill="rgba(255,255,255,0.55)" />
              <path d="M20.1074 11.0352Q20.3711 11.0352 20.5713 10.8447Q20.7715 10.6543 20.7715 10.3809Q20.7715 10.1172 20.5713 9.92188Q20.3711 9.72656 20.1074 9.72656L17.0898 9.72656Q16.8262 9.72656 16.626 9.92188Q16.4258 10.1172 16.4258 10.3809Q16.4258 10.6543 16.626 10.8447Q16.8262 11.0352 17.0898 11.0352Z"
                     fill="rgba(255,255,255,0.165)" />
       </g>
</svg>