<svg width="20.2277" height="17.8164">
       <g>
              <rect height="17.8164" opacity="0" width="20.2277" x="0" y="0" />
              <path d="M10.1154 4.48788Q10.8798 4.48788 11.4201 4.28768Q11.9604 4.08749 12.3679 3.79116Q12.7754 3.49484 13.1281 3.20034Q13.4808 2.90585 13.8634 2.70565Q14.2459 2.50546 14.751 2.50546Q15.2621 2.50546 15.6413 2.70565Q16.0204 2.90585 16.3712 3.20034Q16.7221 3.49484 17.1476 3.79116Q17.5731 4.08749 18.1657 4.28768Q18.7582 4.48788 19.6368 4.48788L19.6857 4.48788Q19.9083 4.48788 20.068 4.33155Q20.2277 4.17522 20.2277 3.94589Q20.2277 3.72326 20.068 3.56693Q19.9083 3.41061 19.6857 3.41061L19.6368 3.41061Q18.8095 3.41061 18.2662 3.1123Q17.7229 2.81399 17.1759 2.42641Q16.6974 2.07775 16.1128 1.75297Q15.5283 1.42818 14.751 1.42818Q13.9505 1.42818 13.3561 1.77105Q12.7617 2.11391 12.2832 2.47219Q11.7754 2.85305 11.2907 3.13183Q10.806 3.41061 10.1154 3.41061Q9.42169 3.41061 8.93356 3.13183Q8.44543 2.85305 7.94449 2.47219Q7.46597 2.11391 6.87157 1.77105Q6.27716 1.42818 5.47668 1.42818Q4.6994 1.42818 4.11476 1.75297Q3.53012 2.07775 3.05161 2.42641Q2.49802 2.81399 1.95473 3.1123Q1.41144 3.41061 0.59082 3.41061L0.541992 3.41061Q0.312653 3.41061 0.156326 3.56693Q0 3.72326 0 3.94589Q0 4.17522 0.156326 4.33155Q0.312653 4.48788 0.541992 4.48788L0.59082 4.48788Q1.46271 4.48788 2.05856 4.28768Q2.65442 4.08749 3.07655 3.79116Q3.49869 3.49484 3.84956 3.20034Q4.20044 2.90585 4.57962 2.70565Q4.9588 2.50546 5.47668 2.50546Q5.98175 2.50546 6.36429 2.70565Q6.74683 2.90585 7.09953 3.20034Q7.45224 3.49484 7.85973 3.79116Q8.26721 4.08749 8.80753 4.28768Q9.34784 4.48788 10.1154 4.48788Z"
                     fill="rgba(255,255,255,0.55)" />
              <path d="M5.47668 8.43578Q5.93994 8.43578 6.28807 8.6031Q6.6362 8.77041 6.95274 9.0234Q7.26929 9.27639 7.61284 9.53686Q7.95639 9.79733 8.39417 9.99035L8.39417 9.39953Q8.39417 9.21215 8.39417 9.02332Q8.39417 8.8345 8.39417 8.64727Q8.16589 8.56136 7.97424 8.42625Q7.78259 8.29113 7.58224 8.14877Q7.15088 7.84802 6.63956 7.60326Q6.12823 7.35851 5.47668 7.35851Q4.6994 7.35851 4.11476 7.68513Q3.53012 8.01174 3.05161 8.35659Q2.49802 8.74416 1.95473 9.04255Q1.41144 9.34094 0.59082 9.34094L0.541992 9.34094Q0.312653 9.34094 0.156326 9.49719Q0 9.65344 0 9.88293Q0 10.1056 0.156326 10.2619Q0.312653 10.4182 0.541992 10.4182L0.59082 10.4182Q1.46271 10.4182 2.05856 10.218Q2.65442 10.0178 3.07655 9.72485Q3.49869 9.43188 3.84956 9.13403Q4.20044 8.83617 4.57962 8.63598Q4.9588 8.43578 5.47668 8.43578ZM14.751 8.43578Q15.2621 8.43578 15.6413 8.63598Q16.0204 8.83617 16.3712 9.13403Q16.7221 9.43188 17.1476 9.72485Q17.5731 10.0178 18.1657 10.218Q18.7582 10.4182 19.6368 10.4182L19.6857 10.4182Q19.9083 10.4182 20.068 10.2619Q20.2277 10.1056 20.2277 9.88293Q20.2277 9.65344 20.068 9.49719Q19.9083 9.34094 19.6857 9.34094L19.6368 9.34094Q18.8095 9.34094 18.2662 9.04255Q17.7229 8.74416 17.1759 8.35659Q16.6974 8.01174 16.1128 7.68513Q15.5283 7.35851 14.751 7.35851Q14.0927 7.35851 13.5847 7.60326Q13.0768 7.84802 12.6454 8.14877Q12.4451 8.29113 12.253 8.42625Q12.061 8.56136 11.8427 8.64727Q11.8427 8.8345 11.8427 9.02332Q11.8427 9.21215 11.8427 9.39953L11.8427 9.9873Q12.2772 9.79427 12.6193 9.53045Q12.9614 9.26662 13.2731 9.01852Q13.5847 8.77041 13.9362 8.6031Q14.2877 8.43578 14.751 8.43578Z"
                     fill="rgba(255,255,255,0.55)" />
              <path d="M7.55539 13.2315Q7.28531 13.2315 7.13036 13.3702Q6.9754 13.509 6.96526 13.7217Q6.95511 13.9344 7.1225 14.1505L9.61121 17.5172Q9.84818 17.8198 10.115 17.8164Q10.3818 17.8129 10.6122 17.5172L13.1007 14.1438Q13.2613 13.9344 13.2512 13.7217Q13.2411 13.509 13.0895 13.3702Q12.9379 13.2315 12.6678 13.2315ZM9.51874 13.919L10.7112 13.919L10.7112 7.04418Q10.7112 6.80813 10.5313 6.63494Q10.3514 6.46175 10.1117 6.46175Q9.87183 6.46175 9.69528 6.63494Q9.51874 6.80813 9.51874 7.04418Z"
                     fill="rgba(255,255,255,0.55)" />
       </g>
</svg>