<svg width="20.2277" height="14.7025">
       <g>
              <rect height="14.7025" opacity="0" width="20.2277" x="0" y="0" />
              <path d="M10.1154 14.6695Q10.8798 14.6695 11.4201 14.4693Q11.9604 14.2691 12.3679 13.9713Q12.7754 13.6734 13.1281 13.3804Q13.4808 13.0875 13.8634 12.8873Q14.2459 12.6871 14.751 12.6871Q15.2621 12.6871 15.6413 12.8873Q16.0204 13.0875 16.3712 13.3804Q16.7221 13.6734 17.1476 13.9713Q17.5731 14.2691 18.1657 14.4693Q18.7582 14.6695 19.6368 14.6695L19.6857 14.6695Q19.9083 14.6695 20.068 14.5083Q20.2277 14.3471 20.2277 14.1245Q20.2277 13.9049 20.068 13.747Q19.9083 13.5892 19.6857 13.5892L19.6368 13.5892Q18.8095 13.5892 18.2662 13.2924Q17.7229 12.9956 17.1759 12.605Q16.6974 12.2565 16.1128 11.9316Q15.5283 11.6068 14.751 11.6068Q13.9505 11.6068 13.3561 11.9496Q12.7617 12.2925 12.2832 12.644Q11.7754 13.0316 11.2907 13.3104Q10.806 13.5892 10.1154 13.5892Q9.42169 13.5892 8.93356 13.3104Q8.44543 13.0316 7.94449 12.644Q7.46597 12.2925 6.87157 11.9496Q6.27716 11.6068 5.47668 11.6068Q4.6994 11.6068 4.11476 11.9316Q3.53012 12.2565 3.05161 12.605Q2.49802 12.9956 1.95473 13.2924Q1.41144 13.5892 0.59082 13.5892L0.541992 13.5892Q0.312653 13.5892 0.156326 13.747Q0 13.9049 0 14.1245Q0 14.3471 0.156326 14.5083Q0.312653 14.6695 0.541992 14.6695L0.59082 14.6695Q1.46271 14.6695 2.05856 14.4693Q2.65442 14.2691 3.07655 13.9713Q3.49869 13.6734 3.84956 13.3804Q4.20044 13.0875 4.57962 12.8873Q4.9588 12.6871 5.47668 12.6871Q5.98175 12.6871 6.36429 12.8873Q6.74683 13.0875 7.09953 13.3804Q7.45224 13.6734 7.85973 13.9713Q8.26721 14.2691 8.80753 14.4693Q9.34784 14.6695 10.1154 14.6695Z"
                     fill="rgba(255,255,255,0.55)" />
              <path d="M10.1154 8.86124Q10.8798 8.86124 11.4201 8.66104Q11.9604 8.46085 12.3679 8.16788Q12.7754 7.87491 13.1281 7.57706Q13.4808 7.27921 13.8634 7.07901Q14.2459 6.87881 14.751 6.87881Q15.2621 6.87881 15.6413 7.07901Q16.0204 7.27921 16.3712 7.57706Q16.7221 7.87491 17.1476 8.16788Q17.5731 8.46085 18.1657 8.66104Q18.7582 8.86124 19.6368 8.86124L19.6857 8.86124Q19.9083 8.86124 20.068 8.70491Q20.2277 8.54858 20.2277 8.32596Q20.2277 8.09647 20.068 7.94022Q19.9083 7.78397 19.6857 7.78397L19.6368 7.78397Q18.8095 7.78397 18.2662 7.48558Q17.7229 7.18719 17.1759 6.79962Q16.6974 6.45477 16.1128 6.12816Q15.5283 5.80154 14.751 5.80154Q13.9505 5.80154 13.3561 6.14624Q12.7617 6.49094 12.2832 6.8454Q11.7754 7.22626 11.2907 7.50511Q10.806 7.78397 10.1154 7.78397Q9.42169 7.78397 8.93356 7.50511Q8.44543 7.22626 7.94449 6.8454Q7.46597 6.49094 6.87157 6.14624Q6.27716 5.80154 5.47668 5.80154Q4.6994 5.80154 4.11476 6.12816Q3.53012 6.45477 3.05161 6.79962Q2.49802 7.18719 1.95473 7.48558Q1.41144 7.78397 0.59082 7.78397L0.541992 7.78397Q0.312653 7.78397 0.156326 7.94022Q0 8.09647 0 8.32596Q0 8.54858 0.156326 8.70491Q0.312653 8.86124 0.541992 8.86124L0.59082 8.86124Q1.46271 8.86124 2.05856 8.66104Q2.65442 8.46085 3.07655 8.16788Q3.49869 7.87491 3.84956 7.57706Q4.20044 7.27921 4.57962 7.07901Q4.9588 6.87881 5.47668 6.87881Q5.98175 6.87881 6.36429 7.07901Q6.74683 7.27921 7.09953 7.57706Q7.45224 7.87491 7.85973 8.16788Q8.26721 8.46085 8.80753 8.66104Q9.34784 8.86124 10.1154 8.86124Z"
                     fill="rgba(255,255,255,0.55)" />
              <path d="M10.1154 3.06259Q10.8798 3.06259 11.4201 2.8624Q11.9604 2.6622 12.3679 2.36435Q12.7754 2.0665 13.1281 1.77353Q13.4808 1.48056 13.8634 1.28036Q14.2459 1.08017 14.751 1.08017Q15.2621 1.08017 15.6413 1.28036Q16.0204 1.48056 16.3712 1.77353Q16.7221 2.0665 17.1476 2.36435Q17.5731 2.6622 18.1657 2.8624Q18.7582 3.06259 19.6368 3.06259L19.6857 3.06259Q19.9083 3.06259 20.068 2.90482Q20.2277 2.74704 20.2277 2.5177Q20.2277 2.29797 20.068 2.1402Q19.9083 1.98242 19.6857 1.98242L19.6368 1.98242Q18.8095 1.98242 18.2662 1.68556Q17.7229 1.3887 17.1759 0.998077Q16.6974 0.649567 16.1128 0.324783Q15.5283 0 14.751 0Q13.9505 0 13.3561 0.342789Q12.7617 0.685577 12.2832 1.04385Q11.7754 1.42471 11.2907 1.70357Q10.806 1.98242 10.1154 1.98242Q9.42169 1.98242 8.93356 1.70357Q8.44543 1.42471 7.94449 1.04385Q7.46597 0.685577 6.87157 0.342789Q6.27716 0 5.47668 0Q4.6994 0 4.11476 0.324783Q3.53012 0.649567 3.05161 0.998077Q2.49802 1.3887 1.95473 1.68556Q1.41144 1.98242 0.59082 1.98242L0.541992 1.98242Q0.312653 1.98242 0.156326 2.1402Q0 2.29797 0 2.5177Q0 2.74704 0.156326 2.90482Q0.312653 3.06259 0.541992 3.06259L0.59082 3.06259Q1.46271 3.06259 2.05856 2.8624Q2.65442 2.6622 3.07655 2.36435Q3.49869 2.0665 3.84956 1.77353Q4.20044 1.48056 4.57962 1.28036Q4.9588 1.08017 5.47668 1.08017Q5.98175 1.08017 6.36429 1.28036Q6.74683 1.48056 7.09953 1.77353Q7.45224 2.0665 7.85973 2.36435Q8.26721 2.6622 8.80753 2.8624Q9.34784 3.06259 10.1154 3.06259Z"
                     fill="rgba(255,255,255,0.55)" />
       </g>
</svg>