<svg width="20.2277" height="17.8232">
       <g>
              <rect height="17.8232" opacity="0" width="20.2277" x="0" y="0" />
              <path d="M5.47668 7.36191Q4.6994 7.36191 4.11476 7.68852Q3.53012 8.01514 3.05161 8.35999Q2.49802 8.74756 1.95473 9.04594Q1.41144 9.34433 0.59082 9.34433L0.541992 9.34433Q0.312653 9.34433 0.156326 9.50058Q0 9.65683 0 9.88632Q0 10.1089 0.156326 10.2653Q0.312653 10.4216 0.541992 10.4216L0.59082 10.4216Q1.46271 10.4216 2.05856 10.2214Q2.65442 10.0212 3.07655 9.72824Q3.49869 9.43527 3.84956 9.13742Q4.20044 8.83957 4.57962 8.63937Q4.9588 8.43918 5.47668 8.43918Q5.84427 8.43918 6.1142 8.56651Q6.38412 8.69385 6.63864 8.85742L7.30499 7.98569Q6.91711 7.742 6.47583 7.55196Q6.03455 7.36191 5.47668 7.36191ZM19.6857 9.34433L19.6368 9.34433Q18.8095 9.34433 18.2662 9.04594Q17.7229 8.74756 17.1759 8.35999Q16.6974 8.01514 16.1128 7.68852Q15.5283 7.36191 14.751 7.36191Q14.1991 7.36191 13.7545 7.55043Q13.3099 7.73895 12.9152 7.98935L13.5815 8.86124Q13.833 8.6879 14.1064 8.56354Q14.3797 8.43918 14.751 8.43918Q15.2621 8.43918 15.6413 8.63937Q16.0204 8.83957 16.3712 9.13742Q16.7221 9.43527 17.1476 9.72824Q17.5731 10.0212 18.1657 10.2214Q18.7582 10.4216 19.6368 10.4216L19.6857 10.4216Q19.9083 10.4216 20.068 10.2653Q20.2277 10.1089 20.2277 9.88632Q20.2277 9.65683 20.068 9.50058Q19.9083 9.34433 19.6857 9.34433Z"
                     fill="rgba(255,255,255,0.55)" />
              <path d="M0 3.94928Q0 4.17862 0.156326 4.33495Q0.312653 4.49127 0.541992 4.49127L0.59082 4.49127Q1.46271 4.49127 2.05856 4.29108Q2.65442 4.09088 3.07655 3.79456Q3.49869 3.49823 3.84956 3.20374Q4.20044 2.90924 4.57962 2.70905Q4.9588 2.50885 5.47668 2.50885Q5.98175 2.50885 6.36429 2.70905Q6.74683 2.90924 7.09953 3.20374Q7.45224 3.49823 7.85973 3.79456Q8.26721 4.09088 8.80753 4.29108Q9.34784 4.49127 10.1154 4.49127Q10.8798 4.49127 11.4201 4.29108Q11.9604 4.09088 12.3679 3.79456Q12.7754 3.49823 13.1281 3.20374Q13.4808 2.90924 13.8634 2.70905Q14.2459 2.50885 14.751 2.50885Q15.2621 2.50885 15.6413 2.70905Q16.0204 2.90924 16.3712 3.20374Q16.7221 3.49823 17.1476 3.79456Q17.5731 4.09088 18.1657 4.29108Q18.7582 4.49127 19.6368 4.49127L19.6857 4.49127Q19.9083 4.49127 20.068 4.33495Q20.2277 4.17862 20.2277 3.94928Q20.2277 3.72665 20.068 3.57033Q19.9083 3.414 19.6857 3.414L19.6368 3.414Q18.8095 3.414 18.2662 3.11569Q17.7229 2.81738 17.1759 2.42981Q16.6974 2.08115 16.1128 1.75636Q15.5283 1.43158 14.751 1.43158Q13.9505 1.43158 13.3561 1.77444Q12.7617 2.11731 12.2832 2.47559Q11.7754 2.85645 11.2907 3.13522Q10.806 3.414 10.1154 3.414Q9.42169 3.414 8.93356 3.13522Q8.44543 2.85645 7.94449 2.47559Q7.46597 2.11731 6.87157 1.77444Q6.27716 1.43158 5.47668 1.43158Q4.6994 1.43158 4.11476 1.75636Q3.53012 2.08115 3.05161 2.42981Q2.49802 2.81738 1.95473 3.11569Q1.41144 3.414 0.59082 3.414L0.541992 3.414Q0.312653 3.414 0.156326 3.57033Q0 3.72665 0 3.94928Z"
                     fill="rgba(255,255,255,0.55)" />
              <path d="M7.55539 11.0535L12.6678 11.0535Q12.9379 11.0535 13.0895 10.9129Q13.2411 10.7722 13.2512 10.5614Q13.2613 10.3505 13.1007 10.1343L10.6122 6.76758Q10.3818 6.46515 10.115 6.46515Q9.84818 6.46515 9.61121 6.76758L7.1225 10.1276Q6.95511 10.3438 6.96526 10.558Q6.9754 10.7722 7.13036 10.9129Q7.28531 11.0535 7.55539 11.0535ZM9.51874 10.3592L9.51874 17.2369Q9.51874 17.4768 9.69528 17.65Q9.87183 17.8232 10.1117 17.8232Q10.3514 17.8232 10.5313 17.65Q10.7112 17.4768 10.7112 17.2369L10.7112 10.3592Z"
                     fill="rgba(255,255,255,0.55)" />
       </g>
</svg>