<svg width="22.8711" height="17.6855">
       <g>
              <rect height="17.6855" opacity="0" width="22.8711" x="0" y="0" />
              <path d="M2.88086 17.6855L19.9902 17.6855Q21.4258 17.6855 22.1484 16.9629Q22.8711 16.2402 22.8711 14.834L22.8711 2.85156Q22.8711 1.44531 22.1484 0.722656Q21.4258 0 19.9902 0L2.88086 0Q1.44531 0 0.722656 0.717773Q0 1.43555 0 2.85156L0 14.834Q0 16.25 0.722656 16.9678Q1.44531 17.6855 2.88086 17.6855ZM2.90039 16.4746Q2.07031 16.4746 1.64062 16.0449Q1.21094 15.6152 1.21094 14.7656L1.21094 2.91992Q1.21094 2.07031 1.64062 1.64062Q2.07031 1.21094 2.90039 1.21094L19.9707 1.21094Q20.7715 1.21094 21.2158 1.64062Q21.6602 2.07031 21.6602 2.91992L21.6602 14.7656Q21.6602 15.6152 21.2158 16.0449Q20.7715 16.4746 19.9707 16.4746Z"
                     fill="#98989d" />
              <path d="M1.21094 9.56055L3.45703 9.56055Q3.69141 9.56055 3.82812 9.45312Q3.96484 9.3457 4.0625 9.10156L5.52734 5.57617L8.06641 13.4863Q8.13477 13.7109 8.34473 13.7842Q8.55469 13.8574 8.76465 13.7744Q8.97461 13.6914 9.05273 13.4766L10.3027 9.56055L12.8125 9.56055Q13.0664 9.56055 13.1934 9.45312Q13.3203 9.3457 13.4277 9.10156L14.9219 5.57617L17.4512 13.4863Q17.5293 13.7109 17.7393 13.7842Q17.9492 13.8574 18.1592 13.7744Q18.3691 13.6914 18.4473 13.4766L19.707 9.56055L21.6699 9.56055L21.6699 8.56445L19.4629 8.56445Q19.0039 8.56445 18.8477 9.01367L17.9297 11.6699L15.4004 4.02344Q15.332 3.81836 15.1318 3.74023Q14.9316 3.66211 14.7217 3.73535Q14.5117 3.80859 14.4238 4.04297L12.5586 8.56445L10.0684 8.56445Q9.60938 8.56445 9.45312 9.01367L8.53516 11.6699L6.00586 4.02344Q5.9375 3.81836 5.7373 3.74023Q5.53711 3.66211 5.32715 3.73535Q5.11719 3.80859 5.01953 4.04297L3.17383 8.56445L1.21094 8.56445Z"
                     fill="#ff375f" />
       </g>
</svg>