<svg width="13.5304" height="22.6059">
       <g>
              <rect height="22.6059" opacity="0" width="13.5304" x="0" y="0" />
              <path d="M10.4297 11.3078Q10.4297 12.7824 10.9229 14.1252Q11.416 15.468 12.3438 16.5324Q12.5195 16.7473 12.7246 16.7961Q12.9297 16.8449 13.1055 16.7766Q13.2812 16.7082 13.3984 16.5568Q13.5156 16.4055 13.5205 16.215Q13.5254 16.0246 13.3984 15.8488Q12.5098 14.7941 12.1094 13.7053Q11.709 12.6164 11.709 11.3078Q11.709 9.98945 12.1143 8.90547Q12.5195 7.82148 13.3984 6.75703Q13.5352 6.58125 13.5303 6.39082Q13.5254 6.20039 13.4131 6.04414Q13.3008 5.88789 13.125 5.81465Q12.9492 5.74141 12.7441 5.79023Q12.5391 5.83906 12.3438 6.06367Q11.416 7.12813 10.9229 8.4709Q10.4297 9.81367 10.4297 11.3078Z"
                     fill="rgba(255,255,255,0.55)" />
              <path d="M5.22461 11.3078Q5.22461 13.5441 5.9082 15.6193Q6.5918 17.6945 7.88086 19.423Q8.05664 19.6672 8.2666 19.7307Q8.47656 19.7941 8.66699 19.7355Q8.85742 19.677 8.97949 19.5207Q9.10156 19.3645 9.10645 19.1594Q9.11133 18.9543 8.94531 18.7395Q7.74414 17.1379 7.12402 15.2482Q6.50391 13.3586 6.50391 11.3078Q6.50391 9.25703 7.12402 7.35762Q7.74414 5.4582 8.94531 3.86641Q9.11133 3.6418 9.10645 3.43672Q9.10156 3.23164 8.97949 3.08027Q8.85742 2.92891 8.66699 2.86543Q8.47656 2.80195 8.2666 2.87031Q8.05664 2.93867 7.88086 3.17305Q6.5918 4.91133 5.9082 6.98164Q5.22461 9.05195 5.22461 11.3078Z"
                     fill="rgba(255,255,255,0.55)" />
              <path d="M0 11.3078Q0 14.3156 0.908203 17.1037Q1.81641 19.8918 3.49609 22.2746Q3.67188 22.4992 3.87695 22.5676Q4.08203 22.6359 4.26758 22.5822Q4.45312 22.5285 4.5752 22.3771Q4.69727 22.2258 4.70703 22.0207Q4.7168 21.8156 4.55078 21.5813Q2.95898 19.3449 2.12402 16.7375Q1.28906 14.1301 1.28906 11.3078Q1.28906 8.47578 2.11914 5.86348Q2.94922 3.25117 4.55078 1.01484Q4.7168 0.780469 4.71191 0.575391Q4.70703 0.370313 4.58008 0.228711Q4.45312 0.0871094 4.2627 0.0285156Q4.07227-0.0300781 3.86719 0.0382813Q3.66211 0.106641 3.49609 0.33125Q1.80664 2.71406 0.90332 5.50215Q0 8.29023 0 11.3078Z"
                     fill="rgba(255,255,255,0.55)" />
       </g>
</svg>