<svg width="13.5311" height="22.6128">
       <g>
              <rect height="22.6128" opacity="0" width="13.5311" x="0" y="0" />
              <path d="M10.4343 11.3083Q10.4343 12.7819 10.9263 14.1268Q11.4183 15.4716 12.343 16.538Q12.5229 16.7547 12.7279 16.803Q12.9329 16.8513 13.1078 16.7797Q13.2828 16.7082 13.3978 16.5564Q13.5129 16.4047 13.5215 16.2181Q13.5301 16.0315 13.3937 15.8546Q12.514 14.7958 12.1124 13.7087Q11.7107 12.6216 11.7107 11.3083Q11.7107 9.99203 12.1139 8.90789Q12.5171 7.82375 13.3968 6.76205Q13.5361 6.58215 13.5309 6.39065Q13.5257 6.19915 13.4137 6.04435Q13.3017 5.88955 13.1233 5.81646Q12.9449 5.74337 12.7403 5.79472Q12.5357 5.84606 12.343 6.06869Q11.4183 7.13528 10.9263 8.47858Q10.4343 9.82189 10.4343 11.3083Z"
                     fill="rgba(255,255,255,0.55)" />
              <path d="M5.22537 11.3083Q5.22537 13.5456 5.91003 15.6205Q6.5947 17.6954 7.88513 19.4284Q8.05222 19.6719 8.26241 19.7371Q8.4726 19.8024 8.6644 19.7405Q8.8562 19.6786 8.97804 19.5235Q9.09988 19.3684 9.10477 19.1616Q9.10965 18.9547 8.94241 18.7411Q7.74506 17.1386 7.12341 15.2485Q6.50177 13.3584 6.50177 11.3083Q6.50177 9.25823 7.12341 7.36164Q7.74506 5.46505 8.94241 3.87234Q9.10965 3.64895 9.10477 3.44212Q9.09988 3.23528 8.97804 3.08506Q8.8562 2.93484 8.6644 2.87151Q8.4726 2.80819 8.26241 2.87487Q8.05222 2.94155 7.88513 3.17532Q6.5947 4.91497 5.91003 6.9865Q5.22537 9.05804 5.22537 11.3083Z"
                     fill="rgba(255,255,255,0.55)" />
              <path d="M0 11.3083Q0 14.3193 0.906906 17.1077Q1.81381 19.8962 3.49854 22.2766Q3.66867 22.5067 3.87398 22.5753Q4.07928 22.6439 4.26781 22.5872Q4.45633 22.5306 4.57809 22.3789Q4.69986 22.2271 4.7081 22.0218Q4.71634 21.8165 4.54926 21.5895Q2.9567 19.3521 2.12143 16.7417Q1.28616 14.1313 1.28616 11.3083Q1.28616 8.47561 2.1199 5.86361Q2.95364 3.25161 4.54926 1.01437Q4.71939 0.787316 4.71451 0.580483Q4.70963 0.37365 4.58298 0.230141Q4.45633 0.0866322 4.26445 0.0315479Q4.07257-0.0235363 3.86574 0.0416187Q3.65891 0.106774 3.49854 0.333825Q1.80405 2.71435 0.902023 5.50282Q0 8.29128 0 11.3083Z"
                     fill="rgba(255,255,255,0.55)" />
       </g>
</svg>