<svg width="13.5361" height="22.6128">
       <g>
              <rect height="22.6128" opacity="0" width="13.5361" x="0" y="0" />
              <path d="M3.10183 11.3083Q3.10183 9.82189 2.60981 8.47858Q2.11779 7.13528 1.19311 6.06869Q1.00039 5.84606 0.792412 5.79472Q0.584435 5.74337 0.409416 5.81646Q0.234398 5.88955 0.120873 6.04435Q0.00734717 6.19915 0.000328126 6.39065Q-0.00669092 6.58215 0.136437 6.76205Q1.01229 7.82375 1.4155 8.90789Q1.81872 9.99203 1.81872 11.3083Q1.81872 12.6216 1.4155 13.7087Q1.01229 14.7958 0.142387 15.8546Q0.00597388 16.0315 0.0145951 16.2181Q0.0232163 16.4047 0.133385 16.5564Q0.243553 16.7082 0.421928 16.7797Q0.600304 16.8513 0.801872 16.803Q1.00344 16.7547 1.19311 16.538Q2.11779 15.4716 2.60981 14.1268Q3.10183 12.7819 3.10183 11.3083Z"
                     fill="rgba(255,255,255,0.55)" />
              <path d="M8.31072 11.3083Q8.31072 9.05804 7.62614 6.9865Q6.94155 4.91497 5.65112 3.17532Q5.47427 2.94155 5.264 2.87487Q5.05373 2.80819 4.86529 2.87151Q4.67684 2.93484 4.55508 3.08506Q4.43331 3.23528 4.42995 3.44212Q4.4266 3.64895 4.58681 3.87234Q5.78432 5.46505 6.40932 7.36164Q7.03432 9.25823 7.03432 11.3083Q7.03432 13.3584 6.40932 15.2485Q5.78432 17.1386 4.58681 18.7411Q4.4266 18.9547 4.42995 19.1616Q4.43331 19.3684 4.55508 19.5235Q4.67684 19.6786 4.86529 19.7405Q5.05373 19.8024 5.264 19.7371Q5.47427 19.6719 5.65112 19.4284Q6.94155 17.6954 7.62614 15.6205Q8.31072 13.5456 8.31072 11.3083Z"
                     fill="rgba(255,255,255,0.55)" />
              <path d="M13.5361 11.3083Q13.5361 8.29128 12.6292 5.50282Q11.7223 2.71435 10.0308 0.333825Q9.87414 0.106774 9.66883 0.0416187Q9.46352-0.0235363 9.27172 0.0315479Q9.07992 0.0866322 8.95319 0.230141Q8.82647 0.37365 8.81823 0.580483Q8.80999 0.787316 8.98379 1.01437Q10.5825 3.25161 11.4147 5.86361Q12.2469 8.47561 12.2469 11.3083Q12.2469 14.1313 11.4131 16.7417Q10.5794 19.3521 8.98379 21.5895Q8.81976 21.8165 8.82464 22.0218Q8.82952 22.2271 8.95472 22.3789Q9.07992 22.5306 9.26836 22.5872Q9.45681 22.6439 9.66212 22.5753Q9.86742 22.5067 10.0308 22.2766Q11.7194 19.8962 12.6277 17.1077Q13.5361 14.3193 13.5361 11.3083Z"
                     fill="rgba(255,255,255,0.55)" />
       </g>
</svg>