<svg width="22.1191" height="20.0879">
       <g>
              <rect height="20.0879" opacity="0" width="22.1191" x="0" y="0" />
              <path d="M0.595703 12.3926Q0.859375 12.3926 1.03516 12.2168Q1.21094 12.041 1.21094 11.7871L1.21094 8.30078Q1.21094 8.04688 1.03516 7.86621Q0.859375 7.68555 0.595703 7.68555Q0.341797 7.68555 0.170898 7.86621Q0 8.04688 0 8.30078L0 11.7871Q0 12.041 0.170898 12.2168Q0.341797 12.3926 0.595703 12.3926Z"
                     fill="rgba(255,255,255,0.55)" />
              <path d="M3.7793 16.1621Q4.04297 16.1621 4.21875 15.9863Q4.39453 15.8105 4.39453 15.5469L4.39453 4.54102Q4.39453 4.27734 4.21875 4.10156Q4.04297 3.92578 3.7793 3.92578Q3.52539 3.92578 3.35449 4.10156Q3.18359 4.27734 3.18359 4.54102L3.18359 15.5469Q3.18359 15.8105 3.35449 15.9863Q3.52539 16.1621 3.7793 16.1621Z"
                     fill="rgba(255,255,255,0.55)" />
              <path d="M6.96289 20.0879Q7.23633 20.0879 7.40723 19.9121Q7.57812 19.7363 7.57812 19.4824L7.57812 0.605469Q7.57812 0.351562 7.40723 0.175781Q7.23633 0 6.96289 0Q6.70898 0 6.54297 0.175781Q6.37695 0.351562 6.37695 0.605469L6.37695 19.4824Q6.37695 19.7363 6.54297 19.9121Q6.70898 20.0879 6.96289 20.0879Z"
                     fill="rgba(255,255,255,0.55)" />
              <path d="M10.1562 15.0977Q10.4102 15.0977 10.5859 14.9219Q10.7617 14.7461 10.7617 14.4922L10.7617 5.5957Q10.7617 5.3418 10.5859 5.16602Q10.4102 4.99023 10.1562 4.99023Q9.89258 4.99023 9.72168 5.16602Q9.55078 5.3418 9.55078 5.5957L9.55078 14.4922Q9.55078 14.7461 9.72168 14.9219Q9.89258 15.0977 10.1562 15.0977Z"
                     fill="rgba(255,255,255,0.55)" />
              <path d="M12.7344 10.4688Q12.998 10.1758 13.3008 9.93652Q13.6035 9.69727 13.9453 9.52148L13.9453 2.95898Q13.9453 2.71484 13.7744 2.53418Q13.6035 2.35352 13.3398 2.35352Q13.0859 2.35352 12.9102 2.53418Q12.7344 2.71484 12.7344 2.95898Z"
                     fill="rgba(255,255,255,0.55)" />
              <path d="M15.9277 8.95508Q16.2402 8.92578 16.5332 8.93555Q16.8262 8.94531 17.1387 8.99414L17.1387 7.38281Q17.1387 7.12891 16.9629 6.94824Q16.7871 6.76758 16.5332 6.76758Q16.2598 6.76758 16.0938 6.94824Q15.9277 7.12891 15.9277 7.38281Z"
                     fill="rgba(255,255,255,0.165)" />
              <path d="M16.2793 17.6562Q17.334 17.6562 18.2031 17.1387Q19.0723 16.6211 19.5898 15.7568Q20.1074 14.8926 20.1074 13.8281Q20.1074 12.7734 19.5898 11.9043Q19.0723 11.0352 18.2031 10.5127Q17.334 9.99023 16.2793 9.99023Q15.2344 9.99023 14.3604 10.5127Q13.4863 11.0352 12.9688 11.9092Q12.4512 12.7832 12.4512 13.8281Q12.4512 14.8828 12.9688 15.752Q13.4863 16.6211 14.3604 17.1387Q15.2344 17.6562 16.2793 17.6562ZM16.2793 16.6211Q15.5273 16.6211 14.8877 16.2402Q14.248 15.8594 13.8672 15.2246Q13.4863 14.5898 13.4863 13.8184Q13.4863 13.0566 13.8672 12.4268Q14.248 11.7969 14.8877 11.416Q15.5273 11.0352 16.2793 11.0352Q17.0508 11.0352 17.6855 11.416Q18.3203 11.7969 18.6963 12.4268Q19.0723 13.0566 19.0723 13.8184Q19.0723 14.5898 18.6963 15.2246Q18.3203 15.8594 17.6855 16.2402Q17.0508 16.6211 16.2793 16.6211ZM21.4746 19.7266Q21.7578 19.7266 21.9385 19.5459Q22.1191 19.3652 22.1191 19.082Q22.1191 18.9355 22.0508 18.8184Q21.9824 18.7012 21.8848 18.584L18.9355 15.625L17.9492 16.5234L20.9277 19.4824Q21.1816 19.7266 21.4746 19.7266Z"
                     fill="rgba(255,255,255,0.55)" />
       </g>
</svg>