<svg width="19.5898" height="19.5996">
       <g>
              <rect height="19.5996" opacity="0" width="19.5898" x="0" y="0" />
              <path d="M9.79492 19.5898Q11.8066 19.5898 13.5791 18.8232Q15.3516 18.0566 16.7041 16.7041Q18.0566 15.3516 18.8232 13.5791Q19.5898 11.8066 19.5898 9.79492Q19.5898 7.7832 18.8232 6.01074Q18.0566 4.23828 16.7041 2.88574Q15.3516 1.5332 13.5742 0.766602Q11.7969 0 9.78516 0Q7.77344 0 6.00098 0.766602Q4.22852 1.5332 2.88086 2.88574Q1.5332 4.23828 0.766602 6.01074Q0 7.7832 0 9.79492Q0 11.8066 0.766602 13.5791Q1.5332 15.3516 2.88574 16.7041Q4.23828 18.0566 6.01074 18.8232Q7.7832 19.5898 9.79492 19.5898ZM9.79492 18.3203Q8.02734 18.3203 6.47949 17.6611Q4.93164 17.002 3.75977 15.8301Q2.58789 14.6582 1.92871 13.1104Q1.26953 11.5625 1.26953 9.79492Q1.26953 8.02734 1.92871 6.47949Q2.58789 4.93164 3.75977 3.75488Q4.93164 2.57812 6.47461 1.91895Q8.01758 1.25977 9.78516 1.25977Q11.5625 1.25977 13.1104 1.91895Q14.6582 2.57812 15.8301 3.75488Q17.002 4.93164 17.666 6.47949Q18.3301 8.02734 18.3301 9.79492Q18.3301 11.5625 17.666 13.1104Q17.002 14.6582 15.8301 15.8301Q14.6582 17.002 13.1152 17.6611Q11.5723 18.3203 9.79492 18.3203Z"
                     fill="rgba(255,255,255,0.55)" />
              <path d="M12.002 9.77539Q12.002 10.5469 12.2217 11.2695Q12.4414 11.9922 12.8418 12.5195Q12.9785 12.7051 13.1885 12.7441Q13.3984 12.7832 13.584 12.6562Q13.7793 12.5195 13.8037 12.2949Q13.8281 12.0703 13.6816 11.8652Q13.0469 11.0059 13.0469 9.77539Q13.0469 8.52539 13.6816 7.68555Q13.8379 7.4707 13.8135 7.25098Q13.7891 7.03125 13.584 6.88477Q13.3984 6.76758 13.1885 6.80664Q12.9785 6.8457 12.8418 7.02148Q12.002 8.17383 12.002 9.77539Z"
                     fill="rgba(255,255,255,0.55)" />
              <path d="M8.89648 9.77539Q8.89648 11.0352 9.24805 12.1924Q9.59961 13.3496 10.2832 14.2578Q10.4199 14.4434 10.625 14.4824Q10.8301 14.5215 11.0059 14.3848Q11.1816 14.2773 11.2207 14.0625Q11.2598 13.8477 11.123 13.6426Q9.94141 12.0508 9.94141 9.77539Q9.94141 7.5 11.123 5.9082Q11.2598 5.70312 11.2207 5.48828Q11.1816 5.27344 11.0059 5.15625Q10.8301 5.0293 10.625 5.06836Q10.4199 5.10742 10.2832 5.29297Q9.59961 6.19141 9.24805 7.34375Q8.89648 8.49609 8.89648 9.77539Z"
                     fill="rgba(255,255,255,0.55)" />
              <path d="M5.78125 9.77539Q5.78125 11.4746 6.26953 13.0713Q6.75781 14.668 7.68555 15.9961Q7.83203 16.1914 8.03711 16.2305Q8.24219 16.2695 8.42773 16.1523Q8.61328 16.0156 8.64746 15.8008Q8.68164 15.5859 8.53516 15.4004Q7.71484 14.2578 7.26074 12.8076Q6.80664 11.3574 6.80664 9.77539Q6.80664 8.18359 7.25586 6.73828Q7.70508 5.29297 8.53516 4.15039Q8.68164 3.96484 8.64746 3.75Q8.61328 3.53516 8.42773 3.39844Q8.24219 3.27148 8.03711 3.31055Q7.83203 3.34961 7.68555 3.54492Q6.75781 4.88281 6.26953 6.48438Q5.78125 8.08594 5.78125 9.77539Z"
                     fill="rgba(255,255,255,0.55)" />
       </g>
</svg>