<svg width="19.5898" height="19.5996">
       <g>
              <rect height="19.5996" opacity="0" width="19.5898" x="0" y="0" />
              <path d="M9.79492 19.5996Q11.8066 19.5996 13.5791 18.833Q15.3516 18.0664 16.7041 16.7139Q18.0566 15.3613 18.8232 13.5889Q19.5898 11.8164 19.5898 9.80469Q19.5898 7.79297 18.8232 6.02051Q18.0566 4.24805 16.7041 2.89551Q15.3516 1.54297 13.5742 0.776367Q11.7969 0.00976562 9.78516 0.00976562Q7.77344 0.00976562 6.00098 0.776367Q4.22852 1.54297 2.88086 2.89551Q1.5332 4.24805 0.766602 6.02051Q0 7.79297 0 9.80469Q0 11.8164 0.766602 13.5889Q1.5332 15.3613 2.88574 16.7139Q4.23828 18.0664 6.01074 18.833Q7.7832 19.5996 9.79492 19.5996Z"
                     fill="rgba(255,255,255,0.55)" />
              <path d="M12.041 9.79492Q12.041 8.16406 12.9102 6.98242Q13.0469 6.80664 13.2617 6.7627Q13.4766 6.71875 13.6621 6.8457Q13.877 6.99219 13.9014 7.22656Q13.9258 7.46094 13.7695 7.66602Q13.125 8.52539 13.125 9.79492Q13.125 11.0449 13.7695 11.9141Q13.9258 12.1289 13.8965 12.3584Q13.8672 12.5879 13.6621 12.7344Q13.4766 12.8711 13.2568 12.8271Q13.0371 12.7832 12.9102 12.5977Q12.4902 12.0605 12.2656 11.3184Q12.041 10.5762 12.041 9.79492Z"
                     fill="#ffffff" />
              <path d="M8.86719 9.79492Q8.86719 8.49609 9.2334 7.31934Q9.59961 6.14258 10.293 5.21484Q10.4395 5.0293 10.6494 4.99023Q10.8594 4.95117 11.0352 5.07812Q11.2207 5.20508 11.2598 5.4248Q11.2988 5.64453 11.1621 5.84961Q10.5762 6.64062 10.2637 7.65625Q9.95117 8.67188 9.95117 9.79492Q9.95117 10.9082 10.2637 11.9287Q10.5762 12.9492 11.1621 13.7402Q11.2988 13.9355 11.2598 14.1602Q11.2207 14.3848 11.0352 14.502Q10.8594 14.6387 10.6494 14.5996Q10.4395 14.5605 10.293 14.3652Q9.59961 13.4375 9.2334 12.2607Q8.86719 11.084 8.86719 9.79492Z"
                     fill="#ffffff" />
              <path d="M5.70312 9.79492Q5.70312 8.06641 6.20117 6.44043Q6.69922 4.81445 7.64648 3.44727Q7.7832 3.24219 8.00293 3.19824Q8.22266 3.1543 8.4082 3.29102Q8.60352 3.42773 8.63281 3.64746Q8.66211 3.86719 8.52539 4.0625Q7.67578 5.22461 7.22168 6.69922Q6.76758 8.17383 6.76758 9.79492Q6.76758 11.4062 7.22168 12.8857Q7.67578 14.3652 8.52539 15.5273Q8.66211 15.7227 8.63281 15.9424Q8.60352 16.1621 8.4082 16.2988Q8.22266 16.4258 8.00293 16.3818Q7.7832 16.3379 7.64648 16.1426Q6.69922 14.7852 6.20117 13.1543Q5.70312 11.5234 5.70312 9.79492Z"
                     fill="#ffffff" />
       </g>
</svg>