<svg width="19.5898" height="19.5996">
       <g>
              <rect height="19.5996" opacity="0" width="19.5898" x="0" y="0" />
              <path d="M9.79492 19.5898Q11.8066 19.5898 13.5791 18.8232Q15.3516 18.0566 16.7041 16.7041Q18.0566 15.3516 18.8232 13.5791Q19.5898 11.8066 19.5898 9.79492Q19.5898 7.7832 18.8232 6.01074Q18.0566 4.23828 16.7041 2.88574Q15.3516 1.5332 13.5742 0.766602Q11.7969 0 9.78516 0Q7.77344 0 6.00098 0.766602Q4.22852 1.5332 2.88086 2.88574Q1.5332 4.23828 0.766602 6.01074Q0 7.7832 0 9.79492Q0 11.8066 0.766602 13.5791Q1.5332 15.3516 2.88574 16.7041Q4.23828 18.0566 6.01074 18.8232Q7.7832 19.5898 9.79492 19.5898ZM9.79492 18.3203Q8.02734 18.3203 6.47949 17.6611Q4.93164 17.002 3.75977 15.8301Q2.58789 14.6582 1.92871 13.1104Q1.26953 11.5625 1.26953 9.79492Q1.26953 8.02734 1.92871 6.47949Q2.58789 4.93164 3.75977 3.75488Q4.93164 2.57812 6.47461 1.91895Q8.01758 1.25977 9.78516 1.25977Q11.5625 1.25977 13.1104 1.91895Q14.6582 2.57812 15.8301 3.75488Q17.002 4.93164 17.666 6.47949Q18.3301 8.02734 18.3301 9.79492Q18.3301 11.5625 17.666 13.1104Q17.002 14.6582 15.8301 15.8301Q14.6582 17.002 13.1152 17.6611Q11.5723 18.3203 9.79492 18.3203Z"
                     fill="rgba(255,255,255,0.55)" />
              <path d="M7.59766 9.77539Q7.59766 8.17383 6.74805 7.02148Q6.60156 6.8457 6.39648 6.80664Q6.19141 6.76758 6.01562 6.88477Q5.81055 7.03125 5.78613 7.25098Q5.76172 7.4707 5.9082 7.68555Q6.55273 8.52539 6.55273 9.77539Q6.55273 11.0059 5.9082 11.8652Q5.76172 12.0703 5.78613 12.2949Q5.81055 12.5195 6.01562 12.6562Q6.19141 12.7832 6.40137 12.7441Q6.61133 12.7051 6.74805 12.5195Q7.14844 11.9922 7.37305 11.2695Q7.59766 10.5469 7.59766 9.77539Z"
                     fill="rgba(255,255,255,0.55)" />
              <path d="M10.7031 9.77539Q10.7031 8.49609 10.3467 7.34375Q9.99023 6.19141 9.30664 5.29297Q9.17969 5.10742 8.97461 5.06836Q8.76953 5.0293 8.58398 5.15625Q8.4082 5.27344 8.36914 5.48828Q8.33008 5.70312 8.4668 5.9082Q9.6582 7.5 9.6582 9.77539Q9.6582 12.0508 8.4668 13.6426Q8.33008 13.8477 8.36914 14.0625Q8.4082 14.2773 8.58398 14.3848Q8.76953 14.5215 8.97461 14.4824Q9.17969 14.4434 9.30664 14.2578Q9.99023 13.3496 10.3467 12.1924Q10.7031 11.0352 10.7031 9.77539Z"
                     fill="rgba(255,255,255,0.55)" />
              <path d="M13.8086 9.77539Q13.8086 8.08594 13.3252 6.48438Q12.8418 4.88281 11.9043 3.54492Q11.7676 3.34961 11.5576 3.31055Q11.3477 3.27148 11.1621 3.39844Q10.9766 3.53516 10.9473 3.75Q10.918 3.96484 11.0547 4.15039Q11.8945 5.29297 12.334 6.73828Q12.7734 8.18359 12.7734 9.77539Q12.7734 11.3574 12.3291 12.8076Q11.8848 14.2578 11.0547 15.4004Q10.918 15.5859 10.9473 15.8008Q10.9766 16.0156 11.1621 16.1523Q11.3379 16.2695 11.5479 16.2305Q11.7578 16.1914 11.9043 15.9961Q12.8418 14.668 13.3252 13.0713Q13.8086 11.4746 13.8086 9.77539Z"
                     fill="rgba(255,255,255,0.55)" />
       </g>
</svg>