<svg width="19.5898" height="19.5996">
       <g>
              <rect height="19.5996" opacity="0" width="19.5898" x="0" y="0" />
              <path d="M9.79492 19.5996Q11.8066 19.5996 13.5791 18.833Q15.3516 18.0664 16.7041 16.7139Q18.0566 15.3613 18.8232 13.5889Q19.5898 11.8164 19.5898 9.80469Q19.5898 7.79297 18.8232 6.02051Q18.0566 4.24805 16.7041 2.89551Q15.3516 1.54297 13.5742 0.776367Q11.7969 0.00976562 9.78516 0.00976562Q7.77344 0.00976562 6.00098 0.776367Q4.22852 1.54297 2.88086 2.89551Q1.5332 4.24805 0.766602 6.02051Q0 7.79297 0 9.80469Q0 11.8164 0.766602 13.5889Q1.5332 15.3613 2.88574 16.7139Q4.23828 18.0664 6.01074 18.833Q7.7832 19.5996 9.79492 19.5996Z"
                     fill="rgba(255,255,255,0.55)" />
              <path d="M4.74609 11.25Q4.54102 11.25 4.39941 11.1133Q4.25781 10.9766 4.25781 10.7715L4.25781 8.80859Q4.25781 8.61328 4.39941 8.47168Q4.54102 8.33008 4.74609 8.33008Q4.95117 8.33008 5.08789 8.47168Q5.22461 8.61328 5.22461 8.80859L5.22461 10.7715Q5.22461 10.9766 5.08789 11.1133Q4.95117 11.25 4.74609 11.25Z"
                     fill="#ffffff" />
              <path d="M6.75781 13.5938Q6.55273 13.5938 6.41602 13.4521Q6.2793 13.3105 6.2793 13.1055L6.2793 6.47461Q6.2793 6.2793 6.41602 6.1377Q6.55273 5.99609 6.75781 5.99609Q6.97266 5.99609 7.11426 6.1377Q7.25586 6.2793 7.25586 6.47461L7.25586 13.1055Q7.25586 13.3105 7.11426 13.4521Q6.97266 13.5938 6.75781 13.5938Z"
                     fill="#ffffff" />
              <path d="M8.78906 16.3086Q8.57422 16.3086 8.4375 16.167Q8.30078 16.0254 8.30078 15.8105L8.30078 3.7793Q8.30078 3.56445 8.44238 3.42285Q8.58398 3.28125 8.78906 3.28125Q8.99414 3.28125 9.13086 3.42285Q9.26758 3.56445 9.26758 3.7793L9.26758 15.8105Q9.26758 16.0254 9.13086 16.167Q8.99414 16.3086 8.78906 16.3086Z"
                     fill="#ffffff" />
              <path d="M10.8008 12.9199Q10.5957 12.9199 10.459 12.7832Q10.3223 12.6465 10.3223 12.4414L10.3223 7.14844Q10.3223 6.94336 10.459 6.80664Q10.5957 6.66992 10.8008 6.66992Q11.0156 6.66992 11.1523 6.80664Q11.2891 6.94336 11.2891 7.14844L11.2891 12.4414Q11.2891 12.6465 11.1523 12.7832Q11.0156 12.9199 10.8008 12.9199Z"
                     fill="#ffffff" />
              <path d="M12.8223 14.7461Q12.6172 14.7461 12.4756 14.6045Q12.334 14.4629 12.334 14.2578L12.334 5.33203Q12.334 5.12695 12.4756 4.98535Q12.6172 4.84375 12.8223 4.84375Q13.0273 4.84375 13.1689 4.98535Q13.3105 5.12695 13.3105 5.33203L13.3105 14.2578Q13.3105 14.4629 13.1689 14.6045Q13.0273 14.7461 12.8223 14.7461Z"
                     fill="#ffffff" />
              <path d="M14.8535 11.8652Q14.6387 11.8652 14.502 11.7285Q14.3652 11.5918 14.3652 11.3867L14.3652 8.20312Q14.3652 7.99805 14.502 7.86133Q14.6387 7.72461 14.8535 7.72461Q15.0586 7.72461 15.1953 7.86133Q15.332 7.99805 15.332 8.20312L15.332 11.3867Q15.332 11.5918 15.1953 11.7285Q15.0586 11.8652 14.8535 11.8652Z"
                     fill="rgba(255,255,255,0.3)" />
       </g>
</svg>