<svg width="19.5898" height="19.5996">
       <g>
              <rect height="19.5996" opacity="0" width="19.5898" x="0" y="0" />
              <path d="M9.79492 19.5898Q11.8066 19.5898 13.5791 18.8232Q15.3516 18.0566 16.7041 16.7041Q18.0566 15.3516 18.8232 13.5791Q19.5898 11.8066 19.5898 9.79492Q19.5898 7.7832 18.8232 6.01074Q18.0566 4.23828 16.7041 2.88574Q15.3516 1.5332 13.5742 0.766602Q11.7969 0 9.78516 0Q7.77344 0 6.00098 0.766602Q4.22852 1.5332 2.88086 2.88574Q1.5332 4.23828 0.766602 6.01074Q0 7.7832 0 9.79492Q0 11.8066 0.766602 13.5791Q1.5332 15.3516 2.88574 16.7041Q4.23828 18.0566 6.01074 18.8232Q7.7832 19.5898 9.79492 19.5898ZM9.79492 18.3203Q8.02734 18.3203 6.47949 17.6611Q4.93164 17.002 3.75977 15.8301Q2.58789 14.6582 1.92871 13.1104Q1.26953 11.5625 1.26953 9.79492Q1.26953 8.02734 1.92871 6.47949Q2.58789 4.93164 3.75977 3.75488Q4.93164 2.57812 6.47461 1.91895Q8.01758 1.25977 9.78516 1.25977Q11.5625 1.25977 13.1104 1.91895Q14.6582 2.57812 15.8301 3.75488Q17.002 4.93164 17.666 6.47949Q18.3301 8.02734 18.3301 9.79492Q18.3301 11.5625 17.666 13.1104Q17.002 14.6582 15.8301 15.8301Q14.6582 17.002 13.1152 17.6611Q11.5723 18.3203 9.79492 18.3203Z"
                     fill="rgba(255,255,255,0.55)" />
              <path d="M4.83398 11.2012Q5.03906 11.2012 5.1709 11.0693Q5.30273 10.9375 5.30273 10.7422L5.30273 8.80859Q5.30273 8.61328 5.1709 8.48145Q5.03906 8.34961 4.83398 8.34961Q4.63867 8.34961 4.50195 8.48145Q4.36523 8.61328 4.36523 8.80859L4.36523 10.7422Q4.36523 10.9375 4.50195 11.0693Q4.63867 11.2012 4.83398 11.2012Z"
                     fill="rgba(255,255,255,0.55)" />
              <path d="M6.81641 13.4961Q7.02148 13.4961 7.15332 13.3594Q7.28516 13.2227 7.28516 13.0176L7.28516 6.52344Q7.28516 6.31836 7.15332 6.18652Q7.02148 6.05469 6.81641 6.05469Q6.62109 6.05469 6.48438 6.18652Q6.34766 6.31836 6.34766 6.52344L6.34766 13.0176Q6.34766 13.2227 6.48438 13.3594Q6.62109 13.4961 6.81641 13.4961Z"
                     fill="rgba(255,255,255,0.55)" />
              <path d="M8.79883 16.1523Q8.99414 16.1523 9.13086 16.0156Q9.26758 15.8789 9.26758 15.6738L9.26758 3.87695Q9.26758 3.67188 9.13086 3.53516Q8.99414 3.39844 8.79883 3.39844Q8.59375 3.39844 8.46191 3.53516Q8.33008 3.67188 8.33008 3.87695L8.33008 15.6738Q8.33008 15.8887 8.46191 16.0205Q8.59375 16.1523 8.79883 16.1523Z"
                     fill="rgba(255,255,255,0.55)" />
              <path d="M10.7715 12.8418Q10.9766 12.8418 11.1133 12.7051Q11.25 12.5684 11.25 12.373L11.25 7.17773Q11.25 6.98242 11.1133 6.8457Q10.9766 6.70898 10.7715 6.70898Q10.5762 6.70898 10.4395 6.8457Q10.3027 6.98242 10.3027 7.17773L10.3027 12.373Q10.3027 12.5684 10.4395 12.7051Q10.5762 12.8418 10.7715 12.8418Z"
                     fill="rgba(255,255,255,0.55)" />
              <path d="M12.7539 14.6094Q12.9492 14.6094 13.0859 14.4775Q13.2227 14.3457 13.2227 14.1504L13.2227 5.40039Q13.2227 5.19531 13.0859 5.06348Q12.9492 4.93164 12.7539 4.93164Q12.5488 4.93164 12.4121 5.06348Q12.2754 5.19531 12.2754 5.40039L12.2754 14.1504Q12.2754 14.3457 12.4121 14.4775Q12.5488 14.6094 12.7539 14.6094Z"
                     fill="rgba(255,255,255,0.55)" />
              <path d="M14.7363 11.8066Q14.9414 11.8066 15.0732 11.6748Q15.2051 11.543 15.2051 11.3379L15.2051 8.21289Q15.2051 8.00781 15.0732 7.87598Q14.9414 7.74414 14.7363 7.74414Q14.5312 7.74414 14.3945 7.87598Q14.2578 8.00781 14.2578 8.21289L14.2578 11.3379Q14.2578 11.5332 14.3945 11.6699Q14.5312 11.8066 14.7363 11.8066Z"
                     fill="rgba(255,255,255,0.165)" />
       </g>
</svg>