<svg width="17.1353" height="20.0916">
       <g>
              <rect height="20.0916" opacity="0" width="17.1353" x="0" y="0" />
              <path d="M0.592804 12.3981Q0.858917 12.3981 1.03394 12.2197Q1.20895 12.0413 1.20895 11.7917L1.20895 8.29987Q1.20895 8.05023 1.03394 7.8685Q0.858917 7.68677 0.592804 7.68677Q0.343323 7.68677 0.171661 7.8685Q0 8.05023 0 8.29987L0 11.7917Q0 12.0413 0.171661 12.2197Q0.343323 12.3981 0.592804 12.3981Z"
                     fill="rgba(255,255,255,0.55)" />
              <path d="M3.78403 16.1591Q4.04709 16.1591 4.21875 15.984Q4.39041 15.809 4.39041 15.5496L4.39041 4.54193Q4.39041 4.28253 4.21875 4.10568Q4.04709 3.92883 3.78403 3.92883Q3.52768 3.92883 3.35449 4.10568Q3.1813 4.28253 3.1813 4.54193L3.1813 15.5496Q3.1813 15.809 3.35449 15.984Q3.52768 16.1591 3.78403 16.1591Z"
                     fill="rgba(255,255,255,0.55)" />
              <path d="M6.96533 20.0916Q7.23145 20.0916 7.40646 19.9165Q7.58148 19.7415 7.58148 19.4823L7.58148 0.609283Q7.58148 0.350037 7.40646 0.175018Q7.23145 0 6.96533 0Q6.70898 0 6.54076 0.175018Q6.37253 0.350037 6.37253 0.609283L6.37253 19.4823Q6.37253 19.7415 6.54076 19.9165Q6.70898 20.0916 6.96533 20.0916Z"
                     fill="rgba(255,255,255,0.55)" />
              <path d="M10.1564 15.0948Q10.4128 15.0948 10.5878 14.9232Q10.7628 14.7516 10.7628 14.4952L10.7628 5.59631Q10.7628 5.33997 10.5878 5.16502Q10.4128 4.99008 10.1564 4.99008Q9.897 4.99008 9.72542 5.16502Q9.55383 5.33997 9.55383 5.59631L9.55383 14.4952Q9.55383 14.7516 9.72542 14.9232Q9.897 15.0948 10.1564 15.0948Z"
                     fill="rgba(255,255,255,0.55)" />
              <path d="M13.3446 17.7269Q13.604 17.7269 13.774 17.5519Q13.9441 17.3769 13.9441 17.1272L13.9441 2.96432Q13.9441 2.71469 13.774 2.53632Q13.604 2.35794 13.3446 2.35794Q13.0815 2.35794 12.9099 2.53632Q12.7382 2.71469 12.7382 2.96432L12.7382 17.1272Q12.7382 17.3769 12.9099 17.5519Q13.0815 17.7269 13.3446 17.7269Z"
                     fill="rgba(255,255,255,0.55)" />
              <path d="M16.5289 13.3136Q16.7853 13.3136 16.9603 13.1386Q17.1353 12.9636 17.1353 12.7109L17.1353 7.38068Q17.1353 7.12799 16.9603 6.94962Q16.7853 6.77124 16.5289 6.77124Q16.2628 6.77124 16.0945 6.94962Q15.9262 7.12799 15.9262 7.38068L15.9262 12.7109Q15.9262 12.9636 16.0945 13.1386Q16.2628 13.3136 16.5289 13.3136Z"
                     fill="rgba(255,255,255,0.165)" />
       </g>
</svg>