<svg width="19.5898" height="19.5996">
       <g>
              <rect height="19.5996" opacity="0" width="19.5898" x="0" y="0" />
              <path d="M9.79492 19.5996Q11.8066 19.5996 13.5791 18.833Q15.3516 18.0664 16.7041 16.7139Q18.0566 15.3613 18.8232 13.5889Q19.5898 11.8164 19.5898 9.80469Q19.5898 7.79297 18.8232 6.02051Q18.0566 4.24805 16.7041 2.89551Q15.3516 1.54297 13.5742 0.776367Q11.7969 0.00976562 9.78516 0.00976562Q7.77344 0.00976562 6.00098 0.776367Q4.22852 1.54297 2.88086 2.89551Q1.5332 4.24805 0.766602 6.02051Q0 7.79297 0 9.80469Q0 11.8164 0.766602 13.5889Q1.5332 15.3613 2.88574 16.7139Q4.23828 18.0664 6.01074 18.833Q7.7832 19.5996 9.79492 19.5996Z"
                     fill="rgba(255,255,255,0.55)" />
              <path d="M7.55859 9.79492Q7.55859 10.5762 7.33398 11.3184Q7.10938 12.0605 6.69922 12.5977Q6.57227 12.7832 6.34766 12.8271Q6.12305 12.8711 5.9375 12.7344Q5.74219 12.5879 5.71289 12.3584Q5.68359 12.1289 5.83984 11.9141Q6.48438 11.0449 6.48438 9.79492Q6.48438 8.52539 5.83984 7.66602Q5.67383 7.46094 5.70312 7.22656Q5.73242 6.99219 5.9375 6.8457Q6.12305 6.71875 6.34277 6.7627Q6.5625 6.80664 6.69922 6.98242Q7.55859 8.16406 7.55859 9.79492Z"
                     fill="#ffffff" />
              <path d="M10.7324 9.79492Q10.7324 11.084 10.3711 12.2607Q10.0098 13.4375 9.31641 14.3652Q9.16992 14.5605 8.95996 14.5996Q8.75 14.6387 8.56445 14.502Q8.38867 14.3848 8.34473 14.1602Q8.30078 13.9355 8.44727 13.7402Q9.02344 12.9492 9.34082 11.9287Q9.6582 10.9082 9.6582 9.79492Q9.6582 8.67188 9.34082 7.65625Q9.02344 6.64062 8.44727 5.84961Q8.30078 5.64453 8.34473 5.4248Q8.38867 5.20508 8.56445 5.07812Q8.75 4.95117 8.95996 4.99023Q9.16992 5.0293 9.31641 5.21484Q10.0098 6.14258 10.3711 7.31934Q10.7324 8.49609 10.7324 9.79492Z"
                     fill="#ffffff" />
              <path d="M13.9062 9.79492Q13.9062 11.5234 13.4082 13.1543Q12.9102 14.7852 11.9531 16.1426Q11.8164 16.3379 11.5967 16.3818Q11.377 16.4258 11.1914 16.2988Q11.0059 16.1621 10.9717 15.9424Q10.9375 15.7227 11.084 15.5273Q11.9238 14.3652 12.3828 12.8857Q12.8418 11.4062 12.8418 9.79492Q12.8418 8.17383 12.3877 6.69922Q11.9336 5.22461 11.084 4.0625Q10.9375 3.86719 10.9717 3.64746Q11.0059 3.42773 11.1914 3.29102Q11.3867 3.1543 11.6016 3.19824Q11.8164 3.24219 11.9531 3.44727Q12.9102 4.81445 13.4082 6.44043Q13.9062 8.06641 13.9062 9.79492Z"
                     fill="#ffffff" />
       </g>
</svg>