<svg width="20.3516" height="20.3418">
       <g>
              <rect height="20.3418" opacity="0" width="20.3516" x="0" y="0" />
              <path d="M0.605469 12.5195Q0.869141 12.5195 1.04004 12.3438Q1.21094 12.168 1.21094 11.9141L1.21094 8.42773Q1.21094 8.17383 1.04004 7.99316Q0.869141 7.8125 0.605469 7.8125Q0.341797 7.8125 0.170898 7.99316Q0 8.17383 0 8.42773L0 11.9141Q0 12.168 0.170898 12.3438Q0.341797 12.5195 0.605469 12.5195Z"
                     fill="rgba(255,255,255,0.55)" />
              <path d="M3.7793 16.2891Q4.04297 16.2891 4.21875 16.1133Q4.39453 15.9375 4.39453 15.6738L4.39453 4.66797Q4.39453 4.4043 4.21875 4.22852Q4.04297 4.05273 3.7793 4.05273Q3.52539 4.05273 3.35938 4.22852Q3.19336 4.4043 3.19336 4.66797L3.19336 15.6738Q3.19336 15.9375 3.35938 16.1133Q3.52539 16.2891 3.7793 16.2891Z"
                     fill="rgba(255,255,255,0.55)" />
              <path d="M6.97266 20.2148Q7.23633 20.2148 7.40723 20.0391Q7.57812 19.8633 7.57812 19.6094L7.57812 0.732422Q7.57812 0.478516 7.40723 0.302734Q7.23633 0.126953 6.97266 0.126953Q6.70898 0.126953 6.54297 0.302734Q6.37695 0.478516 6.37695 0.732422L6.37695 19.6094Q6.37695 19.8633 6.54297 20.0391Q6.70898 20.2148 6.97266 20.2148Z"
                     fill="rgba(255,255,255,0.55)" />
              <path d="M10.166 15.2246Q10.4199 15.2246 10.5908 15.0488Q10.7617 14.873 10.7617 14.6191L10.7617 5.72266Q10.7617 5.46875 10.5908 5.29297Q10.4199 5.11719 10.166 5.11719Q9.90234 5.11719 9.73145 5.29297Q9.56055 5.46875 9.56055 5.72266L9.56055 14.6191Q9.56055 14.873 9.73145 15.0488Q9.90234 15.2246 10.166 15.2246Z"
                     fill="rgba(255,255,255,0.55)" />
              <path d="M12.7441 12.334Q13.0078 12.1973 13.3398 12.1826Q13.6719 12.168 13.9551 12.2949L13.9551 3.08594Q13.9551 2.8418 13.7793 2.66113Q13.6035 2.48047 13.3398 2.48047Q13.0859 2.48047 12.915 2.66113Q12.7441 2.8418 12.7441 3.08594Z"
                     fill="rgba(255,255,255,0.165)" />
              <path d="M14.2383 20.3418L19.082 20.3418Q19.2676 20.3418 19.3848 20.2246Q19.502 20.1074 19.502 19.9219Q19.502 19.7266 19.3848 19.6045Q19.2676 19.4824 19.082 19.4824L17.0996 19.4824L17.0996 18.2227Q18.0664 18.125 18.7939 17.6416Q19.5215 17.1582 19.9365 16.3867Q20.3516 15.6152 20.3516 14.6387L20.3516 13.7402Q20.3516 13.5742 20.2246 13.4473Q20.0977 13.3203 19.9219 13.3203Q19.7461 13.3203 19.624 13.4473Q19.502 13.5742 19.502 13.7402L19.502 14.6387Q19.502 15.4688 19.1455 16.0938Q18.7891 16.7188 18.1494 17.0703Q17.5098 17.4219 16.6504 17.4219Q15.8008 17.4219 15.1611 17.0703Q14.5215 16.7188 14.1699 16.0938Q13.8184 15.4688 13.8184 14.6387L13.8184 13.7402Q13.8184 13.5742 13.6914 13.4473Q13.5645 13.3203 13.3887 13.3203Q13.2227 13.3203 13.0957 13.4473Q12.9688 13.5742 12.9688 13.7402L12.9688 14.6387Q12.9688 15.6152 13.3789 16.3867Q13.7891 17.1582 14.5215 17.6465Q15.2539 18.1348 16.2305 18.2227L16.2305 19.4824L14.2383 19.4824Q14.0527 19.4824 13.9307 19.6045Q13.8086 19.7266 13.8086 19.9219Q13.8086 20.1074 13.9307 20.2246Q14.0527 20.3418 14.2383 20.3418ZM16.6504 16.3086Q17.3828 16.3086 17.832 15.8105Q18.2812 15.3125 18.2812 14.5605L18.2812 10.8105Q18.2812 10.0586 17.832 9.56543Q17.3828 9.07227 16.6504 9.07227Q15.9277 9.07227 15.4785 9.56543Q15.0293 10.0586 15.0293 10.8105L15.0293 14.5605Q15.0293 15.3125 15.4785 15.8105Q15.9277 16.3086 16.6504 16.3086Z"
                     fill="rgba(255,255,255,0.55)" />
       </g>
</svg>