<svg width="15.2695" height="19.1583">
       <g>
              <rect height="19.1583" opacity="0" width="15.2695" x="0" y="0" />
              <path d="M7.63962 15.2829Q9.21829 15.2829 10.5999 14.6893Q11.9815 14.0956 13.0318 13.0453Q14.0822 11.9949 14.6758 10.6085Q15.2695 9.22211 15.2695 7.63657Q15.2695 6.05789 14.6758 4.67148Q14.0822 3.28506 13.0318 2.23625Q11.9815 1.18744 10.5999 0.593719Q9.21829 0 7.63962 0Q6.06094 0 4.67453 0.593719Q3.28812 1.18744 2.23778 2.23625Q1.18744 3.28506 0.593719 4.67148Q0 6.05789 0 7.63657Q0 9.22211 0.593719 10.6085Q1.18744 11.9949 2.23778 13.0453Q3.28812 14.0956 4.67453 14.6893Q6.06094 15.2829 7.63962 15.2829ZM7.0401 18.5422L8.246 18.5422L8.246 14.7299L7.0401 14.7299ZM4.31244 19.1418L10.9637 19.1418Q11.2134 19.1418 11.3884 18.9653Q11.5634 18.7888 11.5634 18.5422Q11.5634 18.2927 11.3884 18.1128Q11.2134 17.9329 10.9637 17.9329L4.3222 17.9329Q4.07562 17.9329 3.8958 18.1128Q3.71597 18.2927 3.71597 18.5422Q3.71597 18.7888 3.88947 18.9653Q4.06296 19.1418 4.31244 19.1418Z"
                     fill="rgba(255,255,255,0.55)" />
              <path d="M7.63962 12.159Q6.38245 12.159 5.36041 11.5548Q4.33838 10.9506 3.73421 9.92706Q3.13004 8.9035 3.13004 7.63657Q3.13004 6.37939 3.73421 5.35583Q4.33838 4.33228 5.36041 3.7281Q6.38245 3.12393 7.63962 3.12393Q8.89679 3.12393 9.91882 3.7281Q10.9409 4.33228 11.5417 5.35583Q12.1425 6.37939 12.1425 7.63657Q12.1425 8.9035 11.5417 9.92706Q10.9409 10.9506 9.91882 11.5548Q8.89679 12.159 7.63962 12.159ZM7.63962 9.73938Q8.51822 9.73938 9.12392 9.1288Q9.72961 8.51822 9.72961 7.63657Q9.72961 6.75186 9.12392 6.14288Q8.51822 5.53391 7.63962 5.53391Q6.75797 5.53391 6.14899 6.14288Q5.54001 6.75186 5.54001 7.63657Q5.54001 8.51822 6.14899 9.1288Q6.75797 9.73938 7.63962 9.73938Z"
                     fill="#ffffff" />
       </g>
</svg>