<svg width="26.8546" height="17.8433">
       <g>
              <rect height="17.8433" opacity="0" width="26.8546" x="0" y="0" />
              <path d="M2.41211 17.8171L24.4424 17.8171Q25.5533 17.8171 26.2039 17.1732Q26.8546 16.5292 26.8546 15.4349L26.8546 12.4257Q26.8546 11.3246 26.2039 10.6841Q25.5533 10.0435 24.4424 10.0435L2.41211 10.0435Q1.29837 10.0435 0.649185 10.6841Q0 11.3246 0 12.4257L0 15.4349Q0 16.5292 0.649185 17.1732Q1.29837 17.8171 2.41211 17.8171ZM2.41211 16.6081Q1.85745 16.6081 1.5332 16.2921Q1.20895 15.9761 1.20895 15.4349L1.20895 12.4257Q1.20895 11.8777 1.5332 11.5652Q1.85745 11.2526 2.41211 11.2526L24.4424 11.2526Q24.9971 11.2526 25.3214 11.5652Q25.6456 11.8777 25.6456 12.4257L25.6456 15.4349Q25.6456 15.9761 25.3214 16.2921Q24.9971 16.6081 24.4424 16.6081ZM3.58978 14.0315L6.8338 14.0315Q7.06985 14.0315 7.22435 13.8805Q7.37885 13.7294 7.37885 13.4962Q7.37885 13.2602 7.22435 13.1057Q7.06985 12.9512 6.8338 12.9512L3.58978 12.9512Q3.36349 12.9512 3.20908 13.1057Q3.05466 13.2602 3.05466 13.4962Q3.05466 13.7294 3.20908 13.8805Q3.36349 14.0315 3.58978 14.0315ZM11.8546 15.1117Q12.3322 15.1117 12.6794 14.7599Q13.0266 14.4081 13.0266 13.9142Q13.0266 13.4366 12.6794 13.0878Q12.3322 12.7391 11.8546 12.7391Q11.3576 12.7391 11.0073 13.0878Q10.657 13.4366 10.657 13.9142Q10.657 14.4081 11.0073 14.7599Q11.3576 15.1117 11.8546 15.1117ZM15.4884 15.1117Q15.9727 15.1117 16.3181 14.7599Q16.6635 14.4081 16.6635 13.9142Q16.6635 13.4366 16.3181 13.0878Q15.9727 12.7391 15.4884 12.7391Q14.9945 12.7391 14.6442 13.0878Q14.294 13.4366 14.294 13.9142Q14.294 14.4081 14.6442 14.7599Q14.9945 15.1117 15.4884 15.1117ZM19.1254 15.1117Q19.6097 15.1117 19.9551 14.7599Q20.3004 14.4081 20.3004 13.9142Q20.3004 13.4366 19.9551 13.0878Q19.6097 12.7391 19.1254 12.7391Q18.6313 12.7391 18.2796 13.0878Q17.9279 13.4366 17.9279 13.9142Q17.9279 14.4081 18.2796 14.7599Q18.6313 15.1117 19.1254 15.1117ZM22.7592 15.1117Q23.2436 15.1117 23.5923 14.7648Q23.941 14.4179 23.941 13.924Q23.941 13.4366 23.5923 13.0878Q23.2436 12.7391 22.7592 12.7391Q22.2652 12.7391 21.915 13.0878Q21.5648 13.4366 21.5648 13.924Q21.5648 14.4179 21.915 14.7648Q22.2652 15.1117 22.7592 15.1117Z"
                     fill="rgba(255,255,255,0.55)" />
              <path d="M13.4172 6.22223Q12.6494 6.22223 11.9238 6.4431Q11.1981 6.66397 10.6721 7.0668Q10.4959 7.20245 10.451 7.41653Q10.406 7.63062 10.5319 7.8038Q10.6842 7.99942 10.9035 8.0249Q11.1227 8.05038 11.3319 7.90787Q12.1808 7.26883 13.4172 7.26883Q14.6776 7.26883 15.5092 7.90787Q15.7184 8.0571 15.941 8.03169Q16.1636 8.00629 16.3159 7.8038Q16.4351 7.63062 16.3935 7.41653Q16.3519 7.20245 16.1758 7.0668Q15.0241 6.22223 13.4172 6.22223Z"
                     fill="rgba(255,255,255,0.55)" />
              <path d="M13.4239 3.11417Q12.1608 3.11417 11.0107 3.4684Q9.86053 3.82263 8.93951 4.50119Q8.75671 4.6376 8.71841 4.84375Q8.68011 5.0499 8.80981 5.23285Q8.9328 5.40894 9.14719 5.44502Q9.36157 5.48111 9.561 5.34164Q11.1467 4.16077 13.4239 4.16077Q15.6981 4.16077 17.2935 5.34164Q17.493 5.48111 17.7074 5.44502Q17.9218 5.40894 18.0447 5.23285Q18.1744 5.0499 18.1362 4.84375Q18.098 4.6376 17.9083 4.50119Q17.0045 3.82263 15.8559 3.4684Q14.7072 3.11417 13.4239 3.11417Z"
                     fill="rgba(255,255,255,0.55)" />
              <path d="M13.4172 0Q11.7163 0 10.1241 0.48912Q8.5318 0.978241 7.19421 1.90994Q7.00836 2.05612 6.96182 2.26562Q6.91528 2.47513 7.03827 2.65442Q7.18079 2.84027 7.39182 2.86842Q7.60284 2.89658 7.79251 2.76016Q8.93234 1.9342 10.3864 1.48361Q11.8404 1.03302 13.4172 1.03302Q15.0142 1.03302 16.4615 1.48026Q17.9088 1.92749 19.0456 2.76016Q19.2352 2.89658 19.4478 2.86842Q19.6603 2.84027 19.7961 2.65442Q19.9228 2.46841 19.8812 2.25891Q19.8396 2.04941 19.6469 1.90994Q18.3026 0.978241 16.7104 0.48912Q15.1181 0 13.4172 0Z"
                     fill="rgba(255,255,255,0.55)" />
       </g>
</svg>