<svg width="17.6855" height="17.7051">
       <g>
              <rect height="17.7051" opacity="0" width="17.6855" x="0" y="0" />
              <path d="M2.88086 17.7051L14.8047 17.7051Q16.2305 17.7051 16.958 16.9873Q17.6855 16.2695 17.6855 14.8535L17.6855 2.88086Q17.6855 1.46484 16.958 0.742188Q16.2305 0.0195312 14.8047 0.0195312L2.88086 0.0195312Q1.44531 0.0195312 0.722656 0.737305Q0 1.45508 0 2.88086L0 14.8535Q0 16.2695 0.722656 16.9873Q1.44531 17.7051 2.88086 17.7051Z"
                     fill="rgba(255,255,255,0.55)" />
              <path d="M8.84766 13.5449Q8.75 13.5449 8.65234 13.4912Q8.55469 13.4375 8.39844 13.2715L7.04102 11.9629Q6.88477 11.8164 6.99219 11.6406Q7.28516 11.25 7.78809 10.9961Q8.29102 10.7422 8.84766 10.7422Q9.39453 10.7422 9.90234 10.9912Q10.4102 11.2402 10.6836 11.6113Q10.8203 11.7969 10.6543 11.9629L9.30664 13.2715Q9.14062 13.4375 9.04297 13.4912Q8.94531 13.5449 8.84766 13.5449Z"
                     fill="#ffffff" />
              <path d="M5.52734 10.4492L4.70703 9.61914Q4.53125 9.43359 4.67773 9.25781Q5.35156 8.44727 6.47949 7.94922Q7.60742 7.45117 8.84766 7.45117Q10.0879 7.45117 11.2158 7.94434Q12.3438 8.4375 13.0078 9.25781Q13.0859 9.33594 13.0811 9.43848Q13.0762 9.54102 12.998 9.61914L12.168 10.4492Q12.0703 10.5566 11.9531 10.5518Q11.8359 10.5469 11.7285 10.4395Q11.2012 9.85352 10.4199 9.50684Q9.63867 9.16016 8.84766 9.16992Q8.04688 9.16016 7.27051 9.50684Q6.49414 9.85352 5.97656 10.4297Q5.75195 10.6738 5.52734 10.4492Z"
                     fill="#ffffff" />
              <path d="M3.18359 8.0957L2.45117 7.35352Q2.27539 7.16797 2.43164 6.97266Q3.11523 6.13281 4.13574 5.50293Q5.15625 4.87305 6.37207 4.52148Q7.58789 4.16992 8.84766 4.16992Q10.0977 4.16992 11.3135 4.52148Q12.5293 4.87305 13.5547 5.50293Q14.5801 6.13281 15.2637 6.97266Q15.4199 7.16797 15.2344 7.35352L14.5117 8.08594Q14.2969 8.31055 14.082 8.0957Q13.0762 7.00195 11.7285 6.44043Q10.3809 5.87891 8.84766 5.87891Q7.30469 5.87891 5.9668 6.44531Q4.62891 7.01172 3.62305 8.08594Q3.51562 8.19336 3.38867 8.19824Q3.26172 8.20312 3.18359 8.0957Z"
                     fill="#ffffff" />
       </g>
</svg>