<svg width="22.2646" height="16.0648">
       <g>
              <rect height="16.0648" opacity="0" width="22.2646" x="0" y="0" />
              <path d="M11.1283 16.0648Q11.2731 16.0648 11.4255 15.975Q11.5778 15.8852 11.8459 15.6201L14.1955 13.3592Q14.2938 13.2639 14.3151 13.1337Q14.3365 13.0035 14.2352 12.8796Q13.787 12.2946 12.9492 11.8553Q12.1113 11.416 11.1283 11.416Q10.1281 11.416 9.28384 11.8688Q8.43957 12.3216 7.99127 12.917Q7.92001 13.0373 7.93832 13.1506Q7.95663 13.2639 8.06177 13.3592L10.4106 15.6201Q10.6786 15.8784 10.831 15.9716Q10.9834 16.0648 11.1283 16.0648Z"
                     fill="#0a84ff" />
              <path d="M5.44565 10.7401Q5.58679 10.8714 5.75265 10.8598Q5.91852 10.8482 6.05585 10.701Q6.94986 9.71848 8.3127 9.09126Q9.67554 8.46405 11.1283 8.47382Q12.5944 8.46405 13.9557 9.10133Q15.317 9.73862 16.2246 10.7213Q16.3583 10.8617 16.514 10.8632Q16.6697 10.8647 16.8108 10.7333L18.2549 9.29901Q18.363 9.19098 18.3727 9.05174Q18.3825 8.91251 18.2812 8.79456Q17.5608 7.89551 16.4503 7.20078Q15.3398 6.50604 13.9745 6.10611Q12.6093 5.70618 11.1283 5.70618Q9.64715 5.70618 8.28348 6.10611Q6.9198 6.50604 5.81262 7.2023Q4.70544 7.89856 3.97531 8.79456Q3.87399 8.91251 3.8804 9.04839Q3.88681 9.18427 4.00155 9.29901Z"
                     fill="#0a84ff" />
              <path d="M1.38986 6.65497Q1.52429 6.7894 1.69168 6.78604Q1.85907 6.78268 1.98663 6.6452Q3.7774 4.7493 6.11711 3.75664Q8.45682 2.76398 11.1283 2.76398Q13.8131 2.76398 16.1622 3.75397Q18.5113 4.74396 20.2833 6.65207Q20.411 6.78268 20.5716 6.77933Q20.7322 6.77597 20.8666 6.64154L22.1417 5.36652Q22.2595 5.242 22.2643 5.10307Q22.2692 4.96414 22.1649 4.84329Q21.0284 3.44238 19.2879 2.35214Q17.5474 1.2619 15.4479 0.63736Q13.3485 0.0128174 11.1283 0.0128174Q8.90802 0.0128174 6.80704 0.634003Q4.70605 1.25519 2.96556 2.34726Q1.22507 3.43933 0.0916422 4.84329Q-0.00601402 4.96414 0.00039467 5.10307Q0.00680336 5.242 0.114836 5.36652Z"
                     fill="#0a84ff" />
       </g>
</svg>