<svg width="19.5898" height="19.5996">
       <g>
              <rect height="19.5996" opacity="0" width="19.5898" x="0" y="0" />
              <path d="M9.79492 19.5996Q11.8066 19.5996 13.5791 18.833Q15.3516 18.0664 16.7041 16.7139Q18.0566 15.3613 18.8232 13.5889Q19.5898 11.8164 19.5898 9.80469Q19.5898 7.79297 18.8232 6.02051Q18.0566 4.24805 16.7041 2.89551Q15.3516 1.54297 13.5742 0.776367Q11.7969 0.00976562 9.78516 0.00976562Q7.77344 0.00976562 6.00098 0.776367Q4.22852 1.54297 2.88086 2.89551Q1.5332 4.24805 0.766602 6.02051Q0 7.79297 0 9.80469Q0 11.8164 0.766602 13.5889Q1.5332 15.3613 2.88574 16.7139Q4.23828 18.0664 6.01074 18.833Q7.7832 19.5996 9.79492 19.5996Z"
                     fill="#0a84ff" />
              <path d="M9.80469 14.502Q9.70703 14.502 9.60938 14.4482Q9.51172 14.3945 9.35547 14.2285L7.99805 12.9199Q7.8418 12.7734 7.94922 12.5977Q8.24219 12.207 8.74512 11.9531Q9.24805 11.6992 9.80469 11.6992Q10.3516 11.6992 10.8594 11.9482Q11.3672 12.1973 11.6406 12.5684Q11.7773 12.7539 11.6113 12.9199L10.2637 14.2285Q10.0977 14.3945 10 14.4482Q9.90234 14.502 9.80469 14.502Z"
                     fill="#ffffff" />
              <path d="M6.48438 11.4062L5.66406 10.5762Q5.48828 10.3906 5.63477 10.2148Q6.30859 9.4043 7.43652 8.90625Q8.56445 8.4082 9.80469 8.4082Q11.0449 8.4082 12.1729 8.90137Q13.3008 9.39453 13.9648 10.2148Q14.043 10.293 14.0381 10.3955Q14.0332 10.498 13.9551 10.5762L13.125 11.4062Q13.0273 11.5137 12.9102 11.5088Q12.793 11.5039 12.6855 11.3965Q12.1582 10.8105 11.377 10.4639Q10.5957 10.1172 9.80469 10.127Q9.00391 10.1172 8.22754 10.4639Q7.45117 10.8105 6.93359 11.3867Q6.70898 11.6309 6.48438 11.4062Z"
                     fill="#ffffff" />
              <path d="M4.14062 9.05273L3.4082 8.31055Q3.23242 8.125 3.38867 7.92969Q4.07227 7.08984 5.09277 6.45996Q6.11328 5.83008 7.3291 5.47852Q8.54492 5.12695 9.80469 5.12695Q11.0547 5.12695 12.2705 5.47852Q13.4863 5.83008 14.5117 6.45996Q15.5371 7.08984 16.2207 7.92969Q16.377 8.125 16.1914 8.31055L15.4688 9.04297Q15.2539 9.26758 15.0391 9.05273Q14.0332 7.95898 12.6855 7.39746Q11.3379 6.83594 9.80469 6.83594Q8.26172 6.83594 6.92383 7.40234Q5.58594 7.96875 4.58008 9.04297Q4.47266 9.15039 4.3457 9.15527Q4.21875 9.16016 4.14062 9.05273Z"
                     fill="#ffffff" />
       </g>
</svg>