<svg width="26.8546" height="17.8433">
       <g>
              <rect height="17.8433" opacity="0" width="26.8546" x="0" y="0" />
              <path d="M2.41211 17.8171L24.4424 17.8171Q25.5533 17.8171 26.2039 17.1732Q26.8546 16.5292 26.8546 15.4349L26.8546 12.4257Q26.8546 11.3246 26.2039 10.6841Q25.5533 10.0435 24.4424 10.0435L2.41211 10.0435Q1.29837 10.0435 0.649185 10.6841Q0 11.3246 0 12.4257L0 15.4349Q0 16.5292 0.649185 17.1732Q1.29837 17.8171 2.41211 17.8171ZM3.38333 14.0382Q3.14346 14.0382 2.98561 13.8805Q2.82776 13.7227 2.82776 13.4895Q2.82776 13.2466 2.98561 13.087Q3.14346 12.9274 3.38333 12.9274L6.6983 12.9274Q6.94122 12.9274 7.09755 13.087Q7.25388 13.2466 7.25388 13.4895Q7.25388 13.7227 7.09755 13.8805Q6.94122 14.0382 6.6983 14.0382ZM11.8141 15.1357Q11.3066 15.1357 10.9496 14.7787Q10.5927 14.4217 10.5927 13.9142Q10.5927 13.4232 10.9496 13.0677Q11.3066 12.7122 11.8141 12.7122Q12.3119 12.7122 12.6674 13.0677Q13.0229 13.4232 13.0229 13.9142Q13.0229 14.4217 12.6674 14.7787Q12.3119 15.1357 11.8141 15.1357ZM15.5289 15.1357Q15.0214 15.1357 14.6629 14.7787Q14.3044 14.4217 14.3044 13.9142Q14.3044 13.4232 14.6629 13.0677Q15.0214 12.7122 15.5289 12.7122Q16.0237 12.7122 16.3792 13.0677Q16.7346 13.4232 16.7346 13.9142Q16.7346 14.4217 16.3792 14.7787Q16.0237 15.1357 15.5289 15.1357ZM19.2406 15.1357Q18.7398 15.1357 18.3794 14.7787Q18.0191 14.4217 18.0191 13.9142Q18.0191 13.4232 18.3794 13.0677Q18.7398 12.7122 19.2406 12.7122Q19.7383 12.7122 20.0923 13.0677Q20.4463 13.4232 20.4463 13.9142Q20.4463 14.4217 20.0923 14.7787Q19.7383 15.1357 19.2406 15.1357ZM22.9524 15.1357Q22.4516 15.1357 22.0912 14.7802Q21.7308 14.4247 21.7308 13.924Q21.7308 13.4232 22.0912 13.0677Q22.4516 12.7122 22.9524 12.7122Q23.4502 12.7122 23.809 13.0677Q24.1678 13.4232 24.1678 13.924Q24.1678 14.4247 23.809 14.7802Q23.4502 15.1357 22.9524 15.1357Z"
                     fill="rgba(255,255,255,0.55)" />
              <path d="M13.4239 6.22223Q12.6561 6.22223 11.9305 6.4431Q11.2048 6.66397 10.6789 7.0668Q10.5026 7.20245 10.4577 7.41653Q10.4128 7.63062 10.5386 7.8038Q10.6909 7.99942 10.9102 8.0249Q11.1295 8.05038 11.3387 7.90787Q12.1875 7.26883 13.4239 7.26883Q14.6843 7.26883 15.5159 7.90787Q15.7251 8.0571 15.9477 8.03169Q16.1703 8.00629 16.3226 7.8038Q16.4389 7.63062 16.3988 7.41653Q16.3586 7.20245 16.1826 7.0668Q15.0308 6.22223 13.4239 6.22223Z"
                     fill="rgba(255,255,255,0.55)" />
              <path d="M13.4239 3.11417Q12.1608 3.11417 11.0107 3.4684Q9.86053 3.82263 8.93951 4.50119Q8.75671 4.6376 8.71841 4.84375Q8.68011 5.0499 8.80981 5.23285Q8.9328 5.40894 9.14719 5.44502Q9.36157 5.48111 9.561 5.34164Q11.1467 4.16077 13.4239 4.16077Q15.6981 4.16077 17.2935 5.34164Q17.493 5.48111 17.7074 5.44502Q17.9218 5.40894 18.0447 5.23285Q18.1744 5.0499 18.1362 4.84375Q18.098 4.6376 17.9083 4.50119Q17.0045 3.82263 15.8559 3.4684Q14.7072 3.11417 13.4239 3.11417Z"
                     fill="rgba(255,255,255,0.55)" />
              <path d="M13.4239 0Q11.723 0 10.1292 0.48912Q8.53546 0.978241 7.20093 1.90994Q7.01202 2.05612 6.96709 2.26562Q6.92215 2.47513 7.04498 2.65442Q7.1875 2.84027 7.39853 2.86842Q7.60956 2.89658 7.79922 2.76016Q8.93906 1.9342 10.3931 1.48361Q11.8471 1.03302 13.4239 1.03302Q15.0211 1.03302 16.4683 1.48026Q17.9155 1.92749 19.0523 2.76016Q19.2419 2.89658 19.4545 2.86842Q19.6671 2.84027 19.8029 2.65442Q19.9295 2.46841 19.8879 2.25891Q19.8463 2.04941 19.6536 1.90994Q18.3093 0.978241 16.7155 0.48912Q15.1218 0 13.4239 0Z"
                     fill="rgba(255,255,255,0.55)" />
       </g>
</svg>