<svg width="17.6855" height="17.7051">
       <g>
              <rect height="17.7051" opacity="0" width="17.6855" x="0" y="0" />
              <path d="M2.88086 17.7051L14.8047 17.7051Q16.2305 17.7051 16.958 16.9873Q17.6855 16.2695 17.6855 14.8535L17.6855 2.88086Q17.6855 1.46484 16.958 0.742188Q16.2305 0.0195312 14.8047 0.0195312L2.88086 0.0195312Q1.44531 0.0195312 0.722656 0.737305Q0 1.45508 0 2.88086L0 14.8535Q0 16.2695 0.722656 16.9873Q1.44531 17.7051 2.88086 17.7051ZM2.90039 16.4941Q2.07031 16.4941 1.64062 16.0645Q1.21094 15.6348 1.21094 14.7949L1.21094 2.93945Q1.21094 2.08984 1.64062 1.66016Q2.07031 1.23047 2.90039 1.23047L14.7852 1.23047Q15.5859 1.23047 16.0303 1.66016Q16.4746 2.08984 16.4746 2.93945L16.4746 14.7949Q16.4746 15.6348 16.0303 16.0645Q15.5859 16.4941 14.7852 16.4941Z"
                     fill="rgba(255,255,255,0.55)" />
              <path d="M8.84766 13.4375Q8.99414 13.4375 9.28711 13.1641L10.6152 11.8945Q10.7715 11.7285 10.6348 11.543Q10.3613 11.1816 9.86816 10.9375Q9.375 10.6934 8.84766 10.6934Q8.30078 10.6934 7.80762 10.9424Q7.31445 11.1914 7.03125 11.5723Q6.91406 11.7383 7.08008 11.8945L8.4082 13.1641Q8.69141 13.4375 8.84766 13.4375Z"
                     fill="rgba(255,255,255,0.55)" />
              <path d="M5.58594 10.4004Q5.78125 10.6055 6.01562 10.3809Q6.5332 9.80469 7.29492 9.47266Q8.05664 9.14062 8.84766 9.15039Q9.62891 9.14062 10.3906 9.47754Q11.1523 9.81445 11.6797 10.3906Q11.7773 10.4883 11.8945 10.4932Q12.0117 10.498 12.0898 10.4004L12.9102 9.58984Q13.0957 9.41406 12.9199 9.22852Q12.2754 8.42773 11.167 7.94434Q10.0586 7.46094 8.84766 7.46094Q7.62695 7.46094 6.51855 7.94434Q5.41016 8.42773 4.75586 9.22852Q4.59961 9.41406 4.78516 9.58984Z"
                     fill="rgba(255,255,255,0.55)" />
              <path d="M3.28125 8.08594Q3.36914 8.19336 3.49609 8.18848Q3.62305 8.18359 3.71094 8.07617Q4.70703 7.02148 6.02051 6.46484Q7.33398 5.9082 8.84766 5.9082Q10.3516 5.9082 11.6748 6.45996Q12.998 7.01172 13.9844 8.08594Q14.0723 8.17383 14.1943 8.18359Q14.3164 8.19336 14.3945 8.08594L15.1172 7.36328Q15.2832 7.1875 15.127 6.99219Q14.4629 6.18164 13.457 5.55664Q12.4512 4.93164 11.2598 4.58984Q10.0684 4.24805 8.84766 4.24805Q7.60742 4.24805 6.41602 4.58984Q5.22461 4.93164 4.22363 5.55176Q3.22266 6.17188 2.54883 6.99219Q2.40234 7.17773 2.57812 7.36328Z"
                     fill="rgba(255,255,255,0.55)" />
       </g>
</svg>