<svg width="19.5898" height="19.5996">
       <g>
              <rect height="19.5996" opacity="0" width="19.5898" x="0" y="0" />
              <path d="M9.79492 19.5898Q11.8066 19.5898 13.5791 18.8232Q15.3516 18.0566 16.7041 16.7041Q18.0566 15.3516 18.8232 13.5791Q19.5898 11.8066 19.5898 9.79492Q19.5898 7.7832 18.8232 6.01074Q18.0566 4.23828 16.7041 2.88574Q15.3516 1.5332 13.5742 0.766602Q11.7969 0 9.78516 0Q7.77344 0 6.00098 0.766602Q4.22852 1.5332 2.88086 2.88574Q1.5332 4.23828 0.766602 6.01074Q0 7.7832 0 9.79492Q0 11.8066 0.766602 13.5791Q1.5332 15.3516 2.88574 16.7041Q4.23828 18.0566 6.01074 18.8232Q7.7832 19.5898 9.79492 19.5898ZM9.79492 18.3203Q8.02734 18.3203 6.47949 17.6611Q4.93164 17.002 3.75977 15.8301Q2.58789 14.6582 1.92871 13.1104Q1.26953 11.5625 1.26953 9.79492Q1.26953 8.02734 1.92871 6.47949Q2.58789 4.93164 3.75977 3.75488Q4.93164 2.57812 6.47461 1.91895Q8.01758 1.25977 9.78516 1.25977Q11.5625 1.25977 13.1104 1.91895Q14.6582 2.57812 15.8301 3.75488Q17.002 4.93164 17.666 6.47949Q18.3301 8.02734 18.3301 9.79492Q18.3301 11.5625 17.666 13.1104Q17.002 14.6582 15.8301 15.8301Q14.6582 17.002 13.1152 17.6611Q11.5723 18.3203 9.79492 18.3203Z"
                     fill="#0a84ff" />
              <path d="M9.79492 14.3848Q9.94141 14.3848 10.2344 14.1113L11.5625 12.8418Q11.7188 12.6758 11.582 12.4902Q11.3086 12.1289 10.8154 11.8848Q10.3223 11.6406 9.79492 11.6406Q9.24805 11.6406 8.75488 11.8896Q8.26172 12.1387 7.97852 12.5195Q7.86133 12.6855 8.02734 12.8418L9.35547 14.1113Q9.63867 14.3848 9.79492 14.3848Z"
                     fill="#0a84ff" />
              <path d="M6.5332 11.3477Q6.72852 11.5527 6.96289 11.3281Q7.48047 10.752 8.24219 10.4199Q9.00391 10.0879 9.79492 10.0977Q10.5762 10.0879 11.3379 10.4248Q12.0996 10.7617 12.627 11.3379Q12.7246 11.4355 12.8418 11.4404Q12.959 11.4453 13.0371 11.3477L13.8574 10.5371Q14.043 10.3613 13.8672 10.1758Q13.2227 9.375 12.1143 8.8916Q11.0059 8.4082 9.79492 8.4082Q8.57422 8.4082 7.46582 8.8916Q6.35742 9.375 5.70312 10.1758Q5.54688 10.3613 5.73242 10.5371Z"
                     fill="#0a84ff" />
              <path d="M4.22852 9.0332Q4.31641 9.14062 4.44336 9.13574Q4.57031 9.13086 4.6582 9.02344Q5.6543 7.96875 6.96777 7.41211Q8.28125 6.85547 9.79492 6.85547Q11.2988 6.85547 12.6221 7.40723Q13.9453 7.95898 14.9316 9.0332Q15.0195 9.12109 15.1416 9.13086Q15.2637 9.14062 15.3418 9.0332L16.0645 8.31055Q16.2305 8.13477 16.0742 7.93945Q15.4102 7.12891 14.4043 6.50391Q13.3984 5.87891 12.207 5.53711Q11.0156 5.19531 9.79492 5.19531Q8.55469 5.19531 7.36328 5.53711Q6.17188 5.87891 5.1709 6.49902Q4.16992 7.11914 3.49609 7.93945Q3.34961 8.125 3.52539 8.31055Z"
                     fill="#0a84ff" />
       </g>
</svg>