<svg width="19.9357" height="18.3228">
       <g>
              <rect height="18.3228" opacity="0" width="19.9357" x="0" y="0" />
              <path d="M0.705948 7.09167Q2.78206 6.33606 4.963 6.33606Q5.91896 6.33606 6.71959 6.41838Q7.52022 6.5007 8.29819 6.57814Q9.07616 6.65558 9.97429 6.65558Q10.8018 6.65558 11.4111 6.31546Q12.0205 5.97534 12.3566 5.38551Q12.6926 4.79568 12.6926 4.0477Q12.6926 3.30811 12.3492 2.71828Q12.0057 2.12845 11.4204 1.79237Q10.835 1.4563 10.1133 1.4563Q9.24324 1.4563 8.58002 1.95648Q7.91679 2.45667 7.66777 3.18634Q7.584 3.38806 7.64374 3.57658Q7.70348 3.76511 7.90901 3.85635Q8.09486 3.93417 8.28217 3.8588Q8.46947 3.78342 8.57735 3.56003Q8.7281 3.1012 9.14429 2.77878Q9.56047 2.45636 10.1133 2.45636Q10.7824 2.45636 11.2341 2.90337Q11.6859 3.35037 11.6859 4.0477Q11.6859 4.76929 11.2168 5.2124Q10.7478 5.65552 9.97429 5.65552Q9.10011 5.65552 8.33488 5.57472Q7.56966 5.49393 6.76201 5.41313Q5.95436 5.33234 4.963 5.33234Q3.77403 5.33234 2.603 5.55069Q1.43196 5.76904 0.3788 6.15311Q0.139084 6.22589 0.0506595 6.41037Q-0.0377652 6.59485 0.0281528 6.79413Q0.0844577 6.99051 0.267029 7.08084Q0.449601 7.17117 0.705948 7.09167ZM16.1549 11.5106Q17.2854 11.5106 18.1352 11.0844Q18.9851 10.6583 19.4604 9.9073Q19.9357 9.15634 19.9357 8.18008Q19.9357 7.23846 19.493 6.49086Q19.0504 5.74326 18.3024 5.30952Q17.5544 4.87579 16.6434 4.87579Q15.77 4.87579 15.079 5.2578Q14.3879 5.6398 13.9523 6.28738Q13.5168 6.93497 13.4177 7.73331Q13.384 7.97256 13.5081 8.14232Q13.6323 8.31207 13.8415 8.33221Q14.0543 8.35617 14.2159 8.2299Q14.3774 8.10364 14.4178 7.83676Q14.4936 7.28058 14.8014 6.83884Q15.1092 6.39709 15.5843 6.13647Q16.0593 5.87585 16.6434 5.87585Q17.2785 5.87585 17.8004 6.17836Q18.3224 6.48087 18.6272 7.00096Q18.932 7.52106 18.932 8.18008Q18.932 9.21417 18.1831 9.86237Q17.4342 10.5106 16.1549 10.5106Q15.0205 10.5106 13.835 10.2532Q12.6495 9.99588 11.3922 9.6624Q10.135 9.32892 8.78311 9.07158Q7.43126 8.81424 5.95741 8.81424Q4.41643 8.81424 3.0407 9.07021Q1.66496 9.32617 0.3788 9.80637Q0.14885 9.88281 0.0555423 10.0703Q-0.0377652 10.2577 0.0281528 10.4541Q0.0844577 10.6535 0.270386 10.7471Q0.456314 10.8408 0.699845 10.7478Q1.89735 10.2501 3.1881 10.0341Q4.47884 9.81812 5.95741 9.81812Q7.41249 9.81812 8.73131 10.0735Q10.0501 10.329 11.2823 10.6659Q12.5144 11.0028 13.7194 11.2567Q14.9244 11.5106 16.1549 11.5106ZM9.99306 18.3228Q10.7056 18.3228 11.2778 17.9945Q11.8501 17.6663 12.1835 17.0863Q12.5169 16.5062 12.5169 15.7509Q12.5169 14.0889 10.8329 13.1926Q9.14894 12.2963 5.99388 12.2963Q4.57893 12.2963 3.10806 12.5665Q1.63719 12.8368 0.384903 13.2816Q0.14885 13.358 0.0555423 13.5455Q-0.0377652 13.7329 0.0281528 13.9293Q0.0844577 14.119 0.270386 14.2191Q0.456314 14.3192 0.699845 14.2291Q1.89522 13.7857 3.26119 13.5429Q4.62715 13.3002 5.99388 13.3002Q8.6805 13.3002 10.0986 13.9569Q11.5168 14.6136 11.5168 15.7509Q11.5168 16.467 11.0748 16.8948Q10.6329 17.3225 9.99306 17.3225Q9.36852 17.3225 8.97186 16.9416Q8.57521 16.5607 8.47084 15.8939Q8.44093 15.6779 8.2898 15.5269Q8.13866 15.3758 7.89207 15.3961Q7.63283 15.4095 7.52029 15.5973Q7.40776 15.7851 7.44759 16.0146Q7.57149 17.0187 8.25714 17.6707Q8.9428 18.3228 9.99306 18.3228Z"
                     fill="#ffffff" />
       </g>
</svg>