<svg width="19.9357" height="18.8528">
       <g>
              <rect height="18.8528" opacity="0" width="19.9357" x="0" y="0" />
              <path d="M17.0409 3.49579Q17.185 3.49579 17.2724 3.38432Q17.3598 3.27286 17.3531 3.12195L17.3066 2.23572L18.0598 2.72186Q18.1739 2.80075 18.3154 2.77901Q18.457 2.75726 18.5387 2.6297Q18.6213 2.50504 18.5706 2.36473Q18.5198 2.22443 18.372 2.15607L17.5858 1.74637L18.3855 1.33286Q18.5101 1.2706 18.5623 1.13403Q18.6146 0.997467 18.5394 0.863037Q18.4771 0.745239 18.3289 0.716705Q18.1808 0.688171 18.0531 0.773773L17.3066 1.26297L17.3598 0.380554Q17.3666 0.229645 17.2758 0.114822Q17.185 0 17.0409 0Q16.8833 0 16.7941 0.108109Q16.7048 0.216217 16.7085 0.37384L16.7579 1.26984L15.998 0.773773Q15.8704 0.695038 15.7327 0.715256Q15.5949 0.735474 15.5259 0.863037Q15.447 0.997467 15.4958 1.13251Q15.5447 1.26755 15.6791 1.33286L16.469 1.74637L15.6858 2.15012Q15.5447 2.21848 15.4925 2.35504Q15.4403 2.49161 15.519 2.6297Q15.5874 2.75421 15.7289 2.77596Q15.8704 2.7977 15.998 2.71591L16.7579 2.23267L16.7152 3.12195Q16.7152 3.27957 16.8026 3.38768Q16.89 3.49579 17.0409 3.49579ZM17.0409 17.1704Q17.185 17.1704 17.2724 17.0589Q17.3598 16.9475 17.3531 16.7966L17.3066 15.9103L18.0598 16.3965Q18.1739 16.4687 18.3154 16.4469Q18.457 16.4252 18.5387 16.3043Q18.6213 16.1699 18.5706 16.0296Q18.5198 15.8893 18.372 15.8307L17.5858 15.421L18.3855 15.0075Q18.5101 14.9355 18.5623 14.8038Q18.6146 14.6721 18.5394 14.5377Q18.4771 14.4099 18.3289 14.3864Q18.1808 14.3628 18.0531 14.4484L17.3066 14.9376L17.3598 14.0485Q17.3666 13.9012 17.2758 13.7879Q17.185 13.6746 17.0409 13.6746Q16.8833 13.6746 16.7941 13.7827Q16.7048 13.8908 16.7085 14.0416L16.7579 14.9445L15.998 14.4484Q15.8704 14.3697 15.7327 14.3849Q15.5949 14.4002 15.5259 14.5377Q15.447 14.6721 15.4958 14.8022Q15.5447 14.9324 15.6791 15.0075L16.469 15.421L15.6858 15.8179Q15.5447 15.8862 15.4925 16.0262Q15.4403 16.1662 15.519 16.3043Q15.5874 16.4221 15.7289 16.4472Q15.8704 16.4723 15.998 16.3905L16.7579 15.9073L16.7152 16.7966Q16.7152 16.9542 16.8026 17.0623Q16.89 17.1704 17.0409 17.1704Z"
                     fill="#ffffff" />
              <path d="M0.705948 7.35672Q2.78206 6.6011 4.963 6.6011Q5.91896 6.6011 6.71959 6.68343Q7.52022 6.76575 8.29819 6.84319Q9.07616 6.92062 9.97429 6.92062Q10.8018 6.92062 11.4111 6.58051Q12.0205 6.24039 12.3566 5.65056Q12.6926 5.06073 12.6926 4.31274Q12.6926 3.57315 12.3492 2.98332Q12.0057 2.39349 11.4204 2.05742Q10.835 1.72134 10.1133 1.72134Q9.24324 1.72134 8.58002 2.22153Q7.91679 2.72171 7.66777 3.45139Q7.584 3.65311 7.64374 3.84163Q7.70348 4.03015 7.90901 4.1214Q8.09486 4.19922 8.28217 4.12384Q8.46947 4.04846 8.57735 3.82507Q8.7281 3.36624 9.14429 3.04382Q9.56047 2.72141 10.1133 2.72141Q10.7824 2.72141 11.2341 3.16841Q11.6859 3.61542 11.6859 4.31274Q11.6859 5.03433 11.2168 5.47745Q10.7478 5.92056 9.97429 5.92056Q9.10011 5.92056 8.33488 5.83977Q7.56966 5.75897 6.76201 5.67818Q5.95436 5.59738 4.963 5.59738Q3.77403 5.59738 2.603 5.81573Q1.43196 6.03409 0.3788 6.41815Q0.139084 6.49094 0.0506595 6.67542Q-0.0377652 6.85989 0.0281528 7.05917Q0.0844577 7.25555 0.267029 7.34589Q0.449601 7.43622 0.705948 7.35672ZM16.1549 11.7757Q17.2854 11.7757 18.1352 11.3495Q18.9851 10.9233 19.4604 10.1723Q19.9357 9.42139 19.9357 8.44513Q19.9357 7.50351 19.493 6.75591Q19.0504 6.0083 18.3024 5.57457Q17.5544 5.14084 16.6434 5.14084Q15.77 5.14084 15.079 5.52284Q14.3879 5.90485 13.9523 6.55243Q13.5168 7.20001 13.4177 7.99835Q13.384 8.23761 13.5081 8.40736Q13.6323 8.57712 13.8415 8.59726Q14.0543 8.62122 14.2159 8.49495Q14.3774 8.36868 14.4178 8.10181Q14.4936 7.54562 14.8014 7.10388Q15.1092 6.66214 15.5843 6.40152Q16.0593 6.1409 16.6434 6.1409Q17.2785 6.1409 17.8004 6.44341Q18.3224 6.74591 18.6272 7.26601Q18.932 7.7861 18.932 8.44513Q18.932 9.47922 18.1831 10.1274Q17.4342 10.7756 16.1549 10.7756Q15.0205 10.7756 13.835 10.5183Q12.6495 10.2609 11.3922 9.92744Q10.135 9.59396 8.78311 9.33662Q7.43126 9.07928 5.95741 9.07928Q4.41643 9.07928 3.0407 9.33525Q1.66496 9.59122 0.3788 10.0714Q0.14885 10.1479 0.0555423 10.3353Q-0.0377652 10.5228 0.0281528 10.7191Q0.0844577 10.9186 0.270386 11.0122Q0.456314 11.1058 0.699845 11.0129Q1.89735 10.5151 3.1881 10.2991Q4.47884 10.0832 5.95741 10.0832Q7.41249 10.0832 8.73131 10.3386Q10.0501 10.594 11.2823 10.9309Q12.5144 11.2679 13.7194 11.5218Q14.9244 11.7757 16.1549 11.7757ZM9.99306 18.5878Q10.7056 18.5878 11.2778 18.2596Q11.8501 17.9314 12.1835 17.3513Q12.5169 16.7712 12.5169 16.0159Q12.5169 14.3539 10.8329 13.4576Q9.14894 12.5613 5.99388 12.5613Q4.57893 12.5613 3.10806 12.8316Q1.63719 13.1018 0.384903 13.5466Q0.14885 13.623 0.0555423 13.8105Q-0.0377652 13.998 0.0281528 14.1943Q0.0844577 14.384 0.270386 14.4841Q0.456314 14.5842 0.699845 14.4942Q1.89522 14.0508 3.26119 13.808Q4.62715 13.5652 5.99388 13.5652Q8.6805 13.5652 10.0986 14.222Q11.5168 14.8787 11.5168 16.0159Q11.5168 16.732 11.0748 17.1598Q10.6329 17.5876 9.99306 17.5876Q9.36852 17.5876 8.97186 17.2066Q8.57521 16.8257 8.47084 16.1589Q8.44093 15.943 8.2898 15.7919Q8.13866 15.6409 7.89207 15.6612Q7.63283 15.6746 7.52029 15.8624Q7.40776 16.0501 7.44759 16.2796Q7.57149 17.2838 8.25714 17.9358Q8.9428 18.5878 9.99306 18.5878Z"
                     fill="#ffffff" />
       </g>
</svg>