<svg width="22.7088" height="23.1997">
       <g>
              <rect height="23.1997" opacity="0" width="22.7088" x="0" y="0" />
              <path d="M7.32354 13.6705L8.06435 12.9402L1.6079 6.46648Q1.07751 5.92647 1.08811 5.32657Q1.09871 4.72667 1.65017 4.1624L2.99691 2.80284Q3.54165 2.24834 4.15467 2.24109Q4.76769 2.23384 5.30419 2.77019L12.2041 9.6545L12.9658 8.96083L6.10543 2.06691Q5.18304 1.14452 4.16787 1.15779Q3.1527 1.17107 2.23153 2.09514L0.932699 3.39092Q0.0122892 4.32109 0.000158474 5.33138Q-0.0119723 6.34166 0.904471 7.2581ZM6.81588 9.66686Q6.91125 9.76207 7.04751 9.7591Q7.18377 9.75612 7.27898 9.66075Q7.37435 9.56554 7.37282 9.43416Q7.3713 9.30278 7.27593 9.20741L3.5389 5.47038Q3.45025 5.3915 3.31215 5.38509Q3.17406 5.37868 3.07274 5.47038Q2.99019 5.56636 2.98386 5.70743Q2.97753 5.8485 3.07274 5.93715ZM8.03826 8.44814Q8.13668 8.5435 8.27477 8.53862Q8.41286 8.53374 8.50136 8.44814Q8.59673 8.33339 8.59673 8.20018Q8.59673 8.06697 8.50808 7.97527L4.76494 4.24495Q4.66958 4.14958 4.53492 4.15302Q4.40026 4.15645 4.31161 4.24495Q4.21639 4.34703 4.21975 4.47498Q4.2231 4.60292 4.31161 4.69829ZM20.3161 23.0442L21.8855 21.4747Q22.0327 21.3209 22.0241 21.1269Q22.0155 20.9329 21.8841 20.7354L19.8037 17.7038Q19.511 17.2821 19.0435 17.207L18.1071 17.0642L13.3254 12.2915L12.6049 13.1004L17.6769 18.1498L18.8041 18.3354L20.8176 21.0066L19.8411 21.9801L17.1796 19.9635L16.9814 18.8424L11.943 13.8064L11.2248 14.6115L15.8958 19.2756L16.0445 20.2029Q16.0738 20.4394 16.2044 20.6337Q16.3349 20.8281 16.5414 20.9655L19.5707 23.063Q19.7839 23.2072 19.973 23.1993Q20.1621 23.1913 20.3161 23.0442Z"
                     fill="rgba(255,255,255,0.55)" />
              <path d="M1.38131 21.9615Q2.19765 22.765 3.14797 23.0379Q4.09829 23.3108 5.04716 23.0446Q5.99602 22.7784 6.79589 21.978Q7.32689 21.4469 7.68502 20.8758Q8.04314 20.3047 8.38853 19.6306Q8.73391 18.9566 9.21563 18.1071Q9.69735 17.2576 10.4628 16.1748Q11.2283 15.092 12.4213 13.7063Q13.6144 12.3207 15.3907 10.5595L14.6984 9.85759Q12.8016 11.7605 11.5624 13.1962Q10.3231 14.6319 9.56025 15.6984Q8.79738 16.7648 8.34145 17.5618Q7.88552 18.3589 7.56829 18.9763Q7.25106 19.5938 6.90835 20.1281Q6.56563 20.6623 6.01464 21.2133Q5.15877 22.073 4.09653 22.0764Q3.03429 22.0797 2.14532 21.2005Q1.26305 20.3018 1.26305 19.243Q1.26305 18.1842 2.11602 17.3281Q2.67373 16.7771 3.20801 16.4345Q3.7423 16.0919 4.3631 15.7746Q4.98391 15.4574 5.77759 15.0014Q6.57128 14.5454 7.64115 13.7825Q8.71102 13.0197 10.1433 11.7804Q11.5756 10.5412 13.4785 8.64437L12.7833 7.95223Q11.0221 9.7285 9.63647 10.9215Q8.25081 12.1145 7.16797 12.8766Q6.08513 13.6387 5.23568 14.1204Q4.38622 14.6022 3.71224 14.9509Q3.03826 15.2996 2.46712 15.6544Q1.89599 16.0092 1.36483 16.5403Q0.564352 17.3468 0.298163 18.2923Q0.031973 19.2378 0.304876 20.1915Q0.57778 21.1451 1.38131 21.9615ZM4.05556 20.4724Q4.5324 20.4724 4.87069 20.1341Q5.20898 19.7958 5.20898 19.3129Q5.20898 18.836 4.87069 18.498Q4.5324 18.1601 4.05556 18.1601Q3.57262 18.1601 3.23472 18.498Q2.89681 18.836 2.89681 19.3129Q2.89681 19.7958 3.23472 20.1341Q3.57262 20.4724 4.05556 20.4724ZM13.5238 9.80937Q14.3273 10.6098 15.3249 11.0183Q16.3226 11.4268 17.3754 11.4421Q18.4283 11.4575 19.4158 11.0759Q20.4034 10.6944 21.1868 9.911Q22.0263 9.07146 22.4045 7.98274Q22.7827 6.89403 22.6909 5.73131Q22.5991 4.56859 22.0174 3.51207L21.2669 4.27547Q21.6558 5.10616 21.6911 5.99674Q21.7263 6.88732 21.4179 7.71701Q21.1094 8.54671 20.4626 9.19353Q19.6143 10.032 18.4975 10.2996Q17.3808 10.5671 16.252 10.2607Q15.1232 9.95418 14.248 9.08885Q13.3758 8.21666 13.0708 7.08637Q12.7659 5.95607 13.0353 4.83745Q13.3047 3.71883 14.1529 2.87731Q15.1281 1.90517 16.4791 1.69803Q17.8301 1.49089 19.0539 2.08263L19.8173 1.31938Q18.7675 0.737719 17.6082 0.644411Q16.4489 0.551104 15.3619 0.930819Q14.275 1.31053 13.4354 2.15679Q12.6522 2.93331 12.2673 3.92238Q11.8824 4.91146 11.8943 5.96095Q11.9062 7.01045 12.3148 8.00815Q12.7233 9.00585 13.5238 9.80937ZM16.504 5.50624L17.8373 6.83589Q18.3689 7.36461 18.9598 7.36682Q19.5507 7.36904 20.0622 6.86046L22.1311 4.78481L21.4443 4.10472L19.4975 6.03816Q18.9823 6.56017 18.4762 6.04732L17.309 4.87331Q16.7828 4.34032 17.2843 3.83876L19.2448 1.89174L18.5409 1.20494L16.4823 3.27022Q15.9536 3.79207 15.9625 4.38297Q15.9715 4.97386 16.504 5.50624Z"
                     fill="rgba(255,255,255,0.55)" />
       </g>
</svg>