<svg width="22.7088" height="23.1524">
       <g>
              <rect height="23.1524" opacity="0" width="22.7088" x="0" y="0" />
              <path d="M7.32354 13.6468L12.9658 8.93721L6.10543 2.04329Q5.18304 1.12089 4.16787 1.13417Q3.1527 1.14744 2.23153 2.07152L0.932699 3.36729Q0.0122892 4.29747 0.000158474 5.30775Q-0.0119723 6.31804 0.904471 7.23448ZM6.85326 9.75172L2.96425 5.87614Q2.86217 5.77101 2.86858 5.62803Q2.87499 5.48506 2.96425 5.38237Q3.06939 5.2841 3.21572 5.29043Q3.36205 5.29677 3.4475 5.38237L7.34032 9.27519Q7.4424 9.37712 7.44057 9.51033Q7.43874 9.64354 7.34337 9.74867Q7.24129 9.85075 7.09832 9.85228Q6.95534 9.8538 6.85326 9.75172ZM8.12966 8.4889L4.24721 4.58632Q4.152 4.48805 4.14864 4.35148Q4.14528 4.21492 4.24721 4.11284Q4.34258 4.01457 4.4825 4.01266Q4.62243 4.01076 4.72756 4.11284L8.61657 7.99208Q8.71194 8.08745 8.71194 8.23073Q8.71194 8.37401 8.60985 8.4889Q8.5244 8.57451 8.37464 8.58275Q8.22487 8.59099 8.12966 8.4889ZM20.5158 22.8207L21.6857 21.651Q21.8194 21.5143 21.8108 21.3472Q21.8021 21.1801 21.6843 20.9761L19.7836 17.8088Q19.5178 17.3602 19.0504 17.3256L18.0091 17.2404L12.9528 12.1933L11.1201 14.1882L16.0955 19.1636L16.1868 20.1929Q16.1958 20.4024 16.3211 20.6Q16.4465 20.7977 16.67 20.9247L19.8417 22.8329Q20.0413 22.9433 20.2068 22.9522Q20.3724 22.9611 20.5158 22.8207Z"
                     fill="rgba(255,255,255,0.55)" />
              <path d="M1.38131 21.9378Q2.19765 22.7414 3.14797 23.0143Q4.09829 23.2872 5.04716 23.021Q5.99602 22.7548 6.79589 21.9543Q7.32689 21.4233 7.68502 20.8522Q8.04314 20.281 8.38853 19.607Q8.73391 18.9329 9.21563 18.0835Q9.69735 17.234 10.4628 16.1512Q11.2283 15.0683 12.4213 13.6827Q13.6144 12.297 15.3907 10.5359L14.6984 9.83397Q12.8016 11.7369 11.5624 13.1726Q10.3231 14.6083 9.56025 15.6747Q8.79738 16.7412 8.34145 17.5382Q7.88552 18.3352 7.56829 18.9527Q7.25106 19.5701 6.90835 20.1044Q6.56563 20.6387 6.01464 21.1897Q5.15877 22.0494 4.09653 22.0527Q3.03429 22.0561 2.14532 21.1769Q1.26305 20.2782 1.26305 19.2193Q1.26305 18.1605 2.11602 17.3045Q2.67373 16.7535 3.20801 16.4109Q3.7423 16.0683 4.3631 15.751Q4.98391 15.4338 5.77759 14.9778Q6.57128 14.5218 7.64115 13.7589Q8.71102 12.996 10.1433 11.7568Q11.5756 10.5176 13.4785 8.62074L12.7833 7.9286Q11.0221 9.70488 9.63647 10.8979Q8.25081 12.0909 7.16797 12.853Q6.08513 13.6151 5.23568 14.0968Q4.38622 14.5785 3.71224 14.9273Q3.03826 15.276 2.46712 15.6308Q1.89599 15.9855 1.36483 16.5167Q0.564352 17.3231 0.298163 18.2686Q0.031973 19.2142 0.304876 20.1678Q0.57778 21.1215 1.38131 21.9378ZM13.5238 9.78575Q14.3273 10.5862 15.3249 10.9947Q16.3226 11.4032 17.3754 11.4185Q18.4283 11.4339 19.4158 11.0523Q20.4034 10.6708 21.1868 9.88737Q22.0263 9.04783 22.4045 7.95912Q22.7827 6.87041 22.6909 5.70769Q22.5991 4.54497 22.0174 3.48845L21.2669 4.25184Q21.6558 5.08253 21.6911 5.97311Q21.7263 6.86369 21.4179 7.69339Q21.1094 8.52308 20.4626 9.1699Q19.6143 10.0084 18.4975 10.2759Q17.3808 10.5435 16.252 10.237Q15.1232 9.93056 14.248 9.06523Q13.3758 8.19304 13.0708 7.06274Q12.7659 5.93245 13.0353 4.81383Q13.3047 3.6952 14.1529 2.85368Q15.1281 1.88154 16.4791 1.67441Q17.8301 1.46727 19.0539 2.059L19.8173 1.29576Q18.7675 0.714094 17.6082 0.620787Q16.4489 0.527479 15.3619 0.907194Q14.275 1.28691 13.4354 2.13316Q12.6522 2.90968 12.2673 3.89876Q11.8824 4.88783 11.8943 5.93733Q11.9062 6.98683 12.3148 7.98453Q12.7233 8.98222 13.5238 9.78575ZM16.504 5.48262L17.8373 6.81227Q18.3689 7.34099 18.9598 7.3432Q19.5507 7.34541 20.0622 6.83684L22.1311 4.76118L21.4443 4.0811L19.4975 6.01454Q18.9823 6.53654 18.4762 6.02369L17.309 4.84968Q16.7828 4.31669 17.2843 3.81514L19.2448 1.86812L18.5409 1.18132L16.4823 3.2466Q15.9536 3.76845 15.9625 4.35934Q15.9715 4.95024 16.504 5.48262ZM4.05556 20.4487Q4.5324 20.4487 4.87069 20.1105Q5.20898 19.7722 5.20898 19.2892Q5.20898 18.8124 4.87069 18.4744Q4.5324 18.1364 4.05556 18.1364Q3.57262 18.1364 3.23472 18.4744Q2.89681 18.8124 2.89681 19.2892Q2.89681 19.7722 3.23472 20.1105Q3.57262 20.4487 4.05556 20.4487Z"
                     fill="rgba(255,255,255,0.55)" />
       </g>
</svg>