<svg width="19.5898" height="19.5996">
       <g>
              <rect height="19.5996" opacity="0" width="19.5898" x="0" y="0" />
              <path d="M9.79492 19.5898Q11.8066 19.5898 13.5791 18.8232Q15.3516 18.0566 16.7041 16.7041Q18.0566 15.3516 18.8232 13.5791Q19.5898 11.8066 19.5898 9.79492Q19.5898 7.7832 18.8232 6.01074Q18.0566 4.23828 16.7041 2.88574Q15.3516 1.5332 13.5742 0.766602Q11.7969 0 9.78516 0Q7.77344 0 6.00098 0.766602Q4.22852 1.5332 2.88086 2.88574Q1.5332 4.23828 0.766602 6.01074Q0 7.7832 0 9.79492Q0 11.8066 0.766602 13.5791Q1.5332 15.3516 2.88574 16.7041Q4.23828 18.0566 6.01074 18.8232Q7.7832 19.5898 9.79492 19.5898Z"
                     fill="rgba(255,255,255,0.55)" />
              <path d="M6.875 14.3262Q6.63086 14.3262 6.46484 14.1699Q6.29883 14.0137 6.29883 13.7891Q6.29883 13.584 6.43555 13.3789L9.02344 9.70703L6.54297 6.17188Q6.37695 5.9375 6.37695 5.72266Q6.37695 5.47852 6.55762 5.3125Q6.73828 5.14648 6.98242 5.14648Q7.17773 5.14648 7.30957 5.22461Q7.44141 5.30273 7.57812 5.48828L9.82422 8.81836L9.87305 8.81836L12.1191 5.49805Q12.2363 5.30273 12.3682 5.22461Q12.5 5.14648 12.6855 5.14648Q12.9297 5.14648 13.1006 5.30273Q13.2715 5.45898 13.2715 5.69336Q13.2715 5.89844 13.1152 6.10352L10.5371 9.73633L13.0957 13.3496Q13.2422 13.5449 13.2422 13.7598Q13.2422 14.0137 13.0713 14.1699Q12.9004 14.3262 12.6367 14.3262Q12.4512 14.3262 12.3242 14.248Q12.1973 14.1699 12.0508 13.9648L9.78516 10.6445L9.73633 10.6445L7.45117 13.9648Q7.31445 14.1699 7.19238 14.248Q7.07031 14.3262 6.875 14.3262Z"
                     fill="#ffffff" />
       </g>
</svg>