<svg width="17.6855" height="17.7051">
       <g>
              <rect height="17.7051" opacity="0" width="17.6855" x="0" y="0" />
              <path d="M2.88086 17.7051L14.8047 17.7051Q16.2305 17.7051 16.958 16.9873Q17.6855 16.2695 17.6855 14.8535L17.6855 2.88086Q17.6855 1.46484 16.958 0.742188Q16.2305 0.0195312 14.8047 0.0195312L2.88086 0.0195312Q1.44531 0.0195312 0.722656 0.737305Q0 1.45508 0 2.88086L0 14.8535Q0 16.2695 0.722656 16.9873Q1.44531 17.7051 2.88086 17.7051Z"
                     fill="rgba(255,255,255,0.55)" />
              <path d="M5.92773 13.3789Q5.68359 13.3789 5.51758 13.2227Q5.35156 13.0664 5.35156 12.8418Q5.35156 12.6367 5.48828 12.4316L8.07617 8.75977L5.5957 5.22461Q5.42969 4.99023 5.42969 4.77539Q5.42969 4.53125 5.61035 4.36523Q5.79102 4.19922 6.03516 4.19922Q6.23047 4.19922 6.3623 4.27734Q6.49414 4.35547 6.63086 4.54102L8.87695 7.87109L8.92578 7.87109L11.1719 4.55078Q11.2891 4.35547 11.4209 4.27734Q11.5527 4.19922 11.7383 4.19922Q11.9824 4.19922 12.1533 4.35547Q12.3242 4.51172 12.3242 4.74609Q12.3242 4.95117 12.168 5.15625L9.58984 8.78906L12.1484 12.4023Q12.2949 12.5977 12.2949 12.8125Q12.2949 13.0664 12.124 13.2227Q11.9531 13.3789 11.6895 13.3789Q11.5039 13.3789 11.377 13.3008Q11.25 13.2227 11.1035 13.0176L8.83789 9.69727L8.78906 9.69727L6.50391 13.0176Q6.36719 13.2227 6.24512 13.3008Q6.12305 13.3789 5.92773 13.3789Z"
                     fill="#ffffff" />
       </g>
</svg>