<svg width="19.5996" height="18.9941">
       <g>
              <rect height="18.9941" opacity="0" width="19.5996" x="0" y="0" />
              <path d="M7.02148 18.9844L12.5781 18.9844Q13.2812 18.9844 13.7402 18.8379Q14.1992 18.6914 14.5361 18.418Q14.873 18.1445 15.2246 17.7832L18.8379 13.8477Q19.1406 13.5156 19.3066 13.2324Q19.4727 12.9492 19.5361 12.6123Q19.5996 12.2754 19.5996 11.7969L19.5996 7.19727Q19.5996 6.70898 19.5361 6.37207Q19.4727 6.03516 19.3066 5.75195Q19.1406 5.46875 18.8379 5.13672L15.2246 1.21094Q14.873 0.839844 14.5361 0.566406Q14.1992 0.292969 13.7402 0.146484Q13.2812 0 12.5781 0L7.02148 0Q6.31836 0 5.85938 0.146484Q5.40039 0.292969 5.06348 0.566406Q4.72656 0.839844 4.38477 1.21094L0.761719 5.13672Q0.458984 5.46875 0.292969 5.75195Q0.126953 6.03516 0.0634766 6.37207Q0 6.70898 0 7.19727L0 11.7969Q0 12.2754 0.0634766 12.6123Q0.126953 12.9492 0.292969 13.2324Q0.458984 13.5156 0.761719 13.8477L4.38477 17.7832Q4.72656 18.1445 5.06348 18.418Q5.40039 18.6914 5.85938 18.8379Q6.31836 18.9844 7.02148 18.9844ZM7.37305 17.793Q6.79688 17.793 6.45996 17.6953Q6.12305 17.5977 5.86914 17.3877Q5.61523 17.1777 5.29297 16.8359L1.8457 13.1055Q1.55273 12.7832 1.45508 12.5049Q1.35742 12.2266 1.35742 11.6797L1.35742 7.31445Q1.35742 6.76758 1.45508 6.48926Q1.55273 6.21094 1.8457 5.87891L5.29297 2.1582Q5.61523 1.81641 5.86914 1.60156Q6.12305 1.38672 6.45996 1.29395Q6.79688 1.20117 7.37305 1.20117L12.2363 1.20117Q12.8027 1.20117 13.1396 1.29395Q13.4766 1.38672 13.7305 1.60156Q13.9844 1.81641 14.3066 2.1582L17.7539 5.87891Q18.0566 6.21094 18.1494 6.48926Q18.2422 6.76758 18.2422 7.31445L18.2422 11.6797Q18.2422 12.2266 18.1494 12.5049Q18.0566 12.7832 17.7539 13.1055L14.3066 16.8359Q13.9844 17.1777 13.7305 17.3877Q13.4766 17.5977 13.1396 17.6953Q12.8027 17.793 12.2363 17.793Z"
                     fill="#ff453a" />
              <path d="M6.40625 13.5254Q6.66992 13.5254 6.85547 13.3203L9.80469 10.3711L12.7734 13.3203Q12.9688 13.5254 13.2227 13.5254Q13.4766 13.5254 13.6572 13.3447Q13.8379 13.1641 13.8379 12.9102Q13.8379 12.6562 13.6426 12.4707L10.6836 9.50195L13.6523 6.52344Q13.8379 6.33789 13.8379 6.08398Q13.8379 5.83008 13.6621 5.6543Q13.4863 5.47852 13.2324 5.47852Q12.9883 5.47852 12.793 5.68359L9.80469 8.64258L6.8457 5.68359Q6.66992 5.49805 6.40625 5.49805Q6.15234 5.49805 5.97168 5.66895Q5.79102 5.83984 5.79102 6.09375Q5.79102 6.34766 5.97656 6.5332L8.94531 9.50195L5.97656 12.4805Q5.79102 12.6562 5.79102 12.9102Q5.79102 13.1641 5.97168 13.3447Q6.15234 13.5254 6.40625 13.5254Z"
                     fill="#ff453a" />
       </g>
</svg>