<svg width="17.4609" height="17.4512">
       <g>
              <rect height="17.4512" opacity="0" width="17.4609" x="0" y="0" />
              <path d="M16.3672 1.09375Q15.6836 0.419922 14.7217 0.209961Q13.7598 0 12.4316 0L4.96094 0Q3.69141 0 2.73438 0.209961Q1.77734 0.419922 1.09375 1.10352Q0.419922 1.77734 0.209961 2.72461Q0 3.67188 0 4.96094L0 12.4316Q0 13.7598 0.205078 14.7217Q0.410156 15.6836 1.08398 16.3477Q1.77734 17.0312 2.73438 17.2412Q3.69141 17.4512 5.01953 17.4512L12.4316 17.4512Q13.7598 17.4512 14.7266 17.2412Q15.6934 17.0312 16.3672 16.3477Q17.0508 15.6836 17.2559 14.7217Q17.4609 13.7598 17.4609 12.4316L17.4609 5.01953Q17.4609 3.69141 17.2559 2.72949Q17.0508 1.76758 16.3672 1.09375Z"
                     fill="rgba(255,255,255,0.55)" />
              <path d="M5.43945 12.6465Q5.17578 12.6465 4.99512 12.4609Q4.81445 12.2754 4.81445 12.0215Q4.81445 11.7578 5 11.5723L7.8418 8.73047L5 5.89844Q4.81445 5.70312 4.81445 5.43945Q4.81445 5.18555 4.99512 5.00488Q5.17578 4.82422 5.43945 4.82422Q5.69336 4.82422 5.89844 5.00977L8.74023 7.8418L11.5918 5.00977Q11.7773 4.81445 12.041 4.81445Q12.2949 4.81445 12.4805 4.99512Q12.666 5.17578 12.666 5.42969Q12.666 5.69336 12.4707 5.88867L9.62891 8.73047L12.4707 11.5625Q12.6562 11.7383 12.6562 12.0215Q12.6562 12.2754 12.4756 12.4609Q12.2949 12.6465 12.0215 12.6465Q11.748 12.6465 11.5625 12.4512L8.74023 9.61914L5.91797 12.4512Q5.71289 12.6465 5.43945 12.6465Z"
                     fill="#ffffff" />
       </g>
</svg>