<svg width="19.5996" height="18.9941">
       <g>
              <rect height="18.9941" opacity="0" width="19.5996" x="0" y="0" />
              <path d="M7.02148 18.9844L12.5781 18.9844Q13.2812 18.9844 13.7402 18.8379Q14.1992 18.6914 14.5361 18.418Q14.873 18.1445 15.2246 17.7832L18.8379 13.8477Q19.1406 13.5156 19.3066 13.2324Q19.4727 12.9492 19.5361 12.6123Q19.5996 12.2754 19.5996 11.7969L19.5996 7.19727Q19.5996 6.70898 19.5361 6.37207Q19.4727 6.03516 19.3066 5.75195Q19.1406 5.46875 18.8379 5.13672L15.2246 1.21094Q14.873 0.839844 14.5361 0.566406Q14.1992 0.292969 13.7402 0.146484Q13.2812 0 12.5781 0L7.02148 0Q6.31836 0 5.85938 0.146484Q5.40039 0.292969 5.06348 0.566406Q4.72656 0.839844 4.38477 1.21094L0.761719 5.13672Q0.458984 5.46875 0.292969 5.75195Q0.126953 6.03516 0.0634766 6.37207Q0 6.70898 0 7.19727L0 11.7969Q0 12.2754 0.0634766 12.6123Q0.126953 12.9492 0.292969 13.2324Q0.458984 13.5156 0.761719 13.8477L4.38477 17.7832Q4.72656 18.1445 5.06348 18.418Q5.40039 18.6914 5.85938 18.8379Q6.31836 18.9844 7.02148 18.9844Z"
                     fill="#ff453a" />
              <path d="M6.51367 13.418Q6.25 13.418 6.06934 13.2324Q5.88867 13.0469 5.88867 12.793Q5.88867 12.5293 6.07422 12.3438L8.91602 9.50195L6.07422 6.66992Q5.88867 6.47461 5.88867 6.21094Q5.88867 5.95703 6.06934 5.77637Q6.25 5.5957 6.51367 5.5957Q6.76758 5.5957 6.97266 5.78125L9.81445 8.61328L12.666 5.78125Q12.8516 5.58594 13.1152 5.58594Q13.3691 5.58594 13.5547 5.7666Q13.7402 5.94727 13.7402 6.20117Q13.7402 6.46484 13.5449 6.66016L10.7031 9.50195L13.5449 12.334Q13.7305 12.5098 13.7305 12.793Q13.7305 13.0469 13.5498 13.2324Q13.3691 13.418 13.0957 13.418Q12.8223 13.418 12.6367 13.2227L9.81445 10.3906L6.99219 13.2227Q6.78711 13.418 6.51367 13.418Z"
                     fill="#ffffff" />
       </g>
</svg>