<svg width="22.8711" height="17.6855">
       <g>
              <rect height="17.6855" opacity="0" width="22.8711" x="0" y="0" />
              <path d="M2.88086 17.6855L19.9902 17.6855Q21.4258 17.6855 22.1484 16.9629Q22.8711 16.2402 22.8711 14.834L22.8711 2.85156Q22.8711 1.44531 22.1484 0.722656Q21.4258 0 19.9902 0L2.88086 0Q1.44531 0 0.722656 0.717773Q0 1.43555 0 2.85156L0 14.834Q0 16.25 0.722656 16.9678Q1.44531 17.6855 2.88086 17.6855ZM2.90039 16.4746Q2.07031 16.4746 1.64062 16.0449Q1.21094 15.6152 1.21094 14.7656L1.21094 2.91992Q1.21094 2.07031 1.64062 1.64062Q2.07031 1.21094 2.90039 1.21094L19.9707 1.21094Q20.7715 1.21094 21.2158 1.64062Q21.6602 2.07031 21.6602 2.91992L21.6602 14.7656Q21.6602 15.6152 21.2158 16.0449Q20.7715 16.4746 19.9707 16.4746Z"
                     fill="#ff453a" />
              <path d="M8.03711 12.8711Q8.30078 12.8711 8.48633 12.666L11.4355 9.7168L14.4043 12.666Q14.5996 12.8711 14.8535 12.8711Q15.1074 12.8711 15.2881 12.6904Q15.4688 12.5098 15.4688 12.2559Q15.4688 12.002 15.2734 11.8164L12.3145 8.84766L15.2832 5.86914Q15.4688 5.68359 15.4688 5.42969Q15.4688 5.17578 15.293 5Q15.1172 4.82422 14.8633 4.82422Q14.6191 4.82422 14.4238 5.0293L11.4355 7.98828L8.47656 5.0293Q8.30078 4.84375 8.03711 4.84375Q7.7832 4.84375 7.60254 5.01465Q7.42188 5.18555 7.42188 5.43945Q7.42188 5.69336 7.60742 5.87891L10.5762 8.84766L7.60742 11.8262Q7.42188 12.002 7.42188 12.2559Q7.42188 12.5098 7.60254 12.6904Q7.7832 12.8711 8.03711 12.8711Z"
                     fill="#ff453a" />
       </g>
</svg>