<svg width="16.1426" height="20.8105">
       <g>
              <rect height="20.8105" opacity="0" width="16.1426" x="0" y="0" />
              <path d="M0 17.9395Q0 19.375 0.717773 20.0928Q1.43555 20.8105 2.85156 20.8105L13.291 20.8105Q14.7168 20.8105 15.4297 20.0928Q16.1426 19.375 16.1426 17.9395L16.1426 2.88086Q16.1426 1.45508 15.4297 0.727539Q14.7168 0 13.291 0L2.85156 0Q1.43555 0 0.717773 0.727539Q0 1.45508 0 2.88086Z"
                     fill="#ff453a" />
              <path d="M4.78516 14.3457Q4.52148 14.3457 4.34082 14.1602Q4.16016 13.9746 4.16016 13.7207Q4.16016 13.457 4.3457 13.2715L7.1875 10.4297L4.3457 7.59766Q4.16016 7.40234 4.16016 7.13867Q4.16016 6.88477 4.34082 6.7041Q4.52148 6.52344 4.78516 6.52344Q5.03906 6.52344 5.24414 6.70898L8.08594 9.54102L10.9375 6.70898Q11.123 6.51367 11.3867 6.51367Q11.6406 6.51367 11.8262 6.69434Q12.0117 6.875 12.0117 7.12891Q12.0117 7.39258 11.8164 7.58789L8.97461 10.4297L11.8164 13.2617Q12.002 13.4375 12.002 13.7207Q12.002 13.9746 11.8213 14.1602Q11.6406 14.3457 11.3672 14.3457Q11.0938 14.3457 10.9082 14.1504L8.08594 11.3184L5.26367 14.1504Q5.05859 14.3457 4.78516 14.3457Z"
                     fill="#ffffff" />
       </g>
</svg>