<svg width="21.7432" height="21.7579">
       <g>
              <rect height="21.7579" opacity="0" width="21.7432" x="0" y="0" />
              <path d="M1.02053 12.9053L8.85256 20.7276Q9.85842 21.7432 10.8789 21.7481Q11.8994 21.753 12.9053 20.7471L20.7471 12.8955Q21.7432 11.8994 21.7432 10.874Q21.7432 9.84866 20.7373 8.83303L12.9248 1.02053Q11.8994 0.00490618 10.8838 2.33627e-05Q9.86819-0.00485945 8.86233 1.01077L1.001 8.85256Q-0.00485922 9.86819 2.35885e-05 10.8789Q0.0049064 11.8897 1.02053 12.9053ZM1.88967 12.0752Q1.30373 11.4893 1.29885 10.874Q1.29397 10.2588 1.89944 9.67287L9.66311 1.89944Q10.2588 1.30373 10.8692 1.30373Q11.4795 1.30373 12.0752 1.88967L19.8584 9.67287Q20.4248 10.249 20.4395 10.8692Q20.4541 11.4893 19.8487 12.085L12.085 19.8487Q11.4795 20.4444 10.8643 20.4444Q10.249 20.4444 9.67288 19.8682Z"
                     fill="#ff453a" />
              <path d="M7.46584 14.9072Q7.72952 14.9072 7.91506 14.7022L10.8643 11.753L13.833 14.7022Q14.0283 14.9072 14.2823 14.9072Q14.5362 14.9072 14.7168 14.7266Q14.8975 14.5459 14.8975 14.292Q14.8975 14.0381 14.7022 13.8526L11.7432 10.8838L14.7119 7.9053Q14.8975 7.71975 14.8975 7.46584Q14.8975 7.21194 14.7217 7.03616Q14.5459 6.86037 14.292 6.86037Q14.0479 6.86037 13.8526 7.06545L10.8643 10.0244L7.9053 7.06545Q7.72952 6.87991 7.46584 6.87991Q7.21194 6.87991 7.03127 7.0508Q6.85061 7.2217 6.85061 7.47561Q6.85061 7.72952 7.03616 7.91506L10.0049 10.8838L7.03616 13.8623Q6.85061 14.0381 6.85061 14.292Q6.85061 14.5459 7.03127 14.7266Q7.21194 14.9072 7.46584 14.9072Z"
                     fill="#ff453a" />
       </g>
</svg>