<svg width="15.2091" height="15.2289">
       <g>
              <rect height="15.2289" opacity="0" width="15.2091" x="0" y="0" />
              <path d="M0.194925 15.0339Q0.328287 15.1606 0.496897 15.2056Q0.665507 15.2506 0.835642 15.2056Q1.00578 15.1606 1.13243 15.0339L7.60642 8.56296L14.0775 15.0339Q14.2042 15.1606 14.3743 15.2056Q14.5444 15.2506 14.7164 15.2089Q14.8884 15.1673 15.015 15.0339Q15.1417 14.9073 15.1833 14.7386Q15.2248 14.57 15.1833 14.3999Q15.1417 14.2298 15.015 14.1031L8.54392 7.62546L15.015 1.15146Q15.1417 1.02466 15.1866 0.854601Q15.2315 0.684542 15.1866 0.515932Q15.1417 0.347323 15.015 0.220675Q14.8815 0.0871602 14.713 0.04558Q14.5444 0.00399979 14.3743 0.04558Q14.2042 0.0871602 14.0775 0.220675L7.60642 6.69162L1.13243 0.220675Q1.00578 0.0871602 0.832285 0.04558Q0.658793 0.00399979 0.490183 0.04558Q0.321573 0.0871602 0.194925 0.220675Q0.0682775 0.347323 0.0266973 0.515932Q-0.0148829 0.684542 0.0266973 0.854601Q0.0682775 1.02466 0.194925 1.15146L6.66603 7.62546L0.194925 14.1031Q0.0682775 14.2298 0.0233404 14.3999Q-0.0215968 14.57 0.0199834 14.7386Q0.0615636 14.9073 0.194925 15.0339Z"
                     fill="#ff453a" />
       </g>
</svg>