<svg width="21.8213" height="21.8555">
       <g>
              <rect height="21.8555" opacity="0" width="21.8213" x="0" y="0" />
              <path d="M4.91211 19.1846L7.17773 19.1846Q7.49023 19.1846 7.70508 19.3994L9.30664 21.001Q10.1465 21.8311 10.9131 21.8311Q11.6797 21.8311 12.5 21.001L14.1113 19.3994Q14.3262 19.1846 14.6484 19.1846L16.9043 19.1846Q18.0859 19.1846 18.6279 18.6426Q19.1699 18.1006 19.1699 16.919L19.1699 14.6533Q19.1699 14.3506 19.3945 14.126L20.9863 12.5147Q21.8262 11.6944 21.8213 10.9229Q21.8164 10.1514 20.9863 9.32132L19.3945 7.71975Q19.1699 7.48538 19.1699 7.19241L19.1699 4.92679Q19.1699 3.75491 18.6279 3.20315Q18.0859 2.6514 16.9043 2.6514L14.6484 2.6514Q14.3262 2.6514 14.1113 2.43655L12.5 0.844754Q11.6797-0.00485491 10.9131 2.79018e-05Q10.1465 0.00491071 9.30664 0.844754L7.70508 2.43655Q7.49023 2.6514 7.17773 2.6514L4.91211 2.6514Q3.73047 2.6514 3.18359 3.19339Q2.63672 3.73538 2.63672 4.92679L2.63672 7.19241Q2.63672 7.48538 2.43164 7.71975L0.830078 9.32132Q0 10.1514 0 10.9229Q0 11.6944 0.830078 12.5147L2.43164 14.126Q2.63672 14.3506 2.63672 14.6533L2.63672 16.919Q2.63672 18.0908 3.18359 18.6377Q3.73047 19.1846 4.91211 19.1846Z"
                     fill="rgba(255,255,255,0.55)" />
              <path d="M7.61719 14.8487Q7.35352 14.8487 7.17285 14.6631Q6.99219 14.4776 6.99219 14.2237Q6.99219 13.96 7.17773 13.7744L10.0195 10.9326L7.17773 8.10061Q6.99219 7.9053 6.99219 7.64163Q6.99219 7.38772 7.17285 7.20706Q7.35352 7.0264 7.61719 7.0264Q7.87109 7.0264 8.07617 7.21194L10.918 10.044L13.7695 7.21194Q13.9551 7.01663 14.2188 7.01663Q14.4727 7.01663 14.6582 7.19729Q14.8438 7.37796 14.8438 7.63186Q14.8438 7.89554 14.6484 8.09085L11.8066 10.9326L14.6484 13.7647Q14.834 13.9405 14.834 14.2237Q14.834 14.4776 14.6533 14.6631Q14.4727 14.8487 14.1992 14.8487Q13.9258 14.8487 13.7402 14.6533L10.918 11.8213L8.0957 14.6533Q7.89062 14.8487 7.61719 14.8487Z"
                     fill="#ffffff" />
       </g>
</svg>