<svg width="22.8711" height="17.6855">
       <g>
              <rect height="17.6855" opacity="0" width="22.8711" x="0" y="0" />
              <path d="M2.88086 17.6855L19.9902 17.6855Q21.4258 17.6855 22.1484 16.9629Q22.8711 16.2402 22.8711 14.834L22.8711 2.85156Q22.8711 1.44531 22.1484 0.722656Q21.4258 0 19.9902 0L2.88086 0Q1.44531 0 0.722656 0.717773Q0 1.43555 0 2.85156L0 14.834Q0 16.25 0.722656 16.9678Q1.44531 17.6855 2.88086 17.6855Z"
                     fill="#ff453a" />
              <path d="M8.14453 12.7734Q7.88086 12.7734 7.7002 12.5879Q7.51953 12.4023 7.51953 12.1484Q7.51953 11.8848 7.70508 11.6992L10.5469 8.85742L7.70508 6.02539Q7.51953 5.83008 7.51953 5.56641Q7.51953 5.3125 7.7002 5.13184Q7.88086 4.95117 8.14453 4.95117Q8.39844 4.95117 8.60352 5.13672L11.4453 7.96875L14.2969 5.13672Q14.4824 4.94141 14.7461 4.94141Q15 4.94141 15.1855 5.12207Q15.3711 5.30273 15.3711 5.55664Q15.3711 5.82031 15.1758 6.01562L12.334 8.85742L15.1758 11.6895Q15.3613 11.8652 15.3613 12.1484Q15.3613 12.4023 15.1807 12.5879Q15 12.7734 14.7266 12.7734Q14.4531 12.7734 14.2676 12.5781L11.4453 9.74609L8.62305 12.5781Q8.41797 12.7734 8.14453 12.7734Z"
                     fill="#ffffff" />
       </g>
</svg>