<svg width="19.5898" height="19.5996">
       <g>
              <rect height="19.5996" opacity="0" width="19.5898" x="0" y="0" />
              <path d="M9.79492 19.5898Q11.8066 19.5898 13.5791 18.8232Q15.3516 18.0566 16.7041 16.7041Q18.0566 15.3516 18.8232 13.5791Q19.5898 11.8066 19.5898 9.79492Q19.5898 7.7832 18.8232 6.01074Q18.0566 4.23828 16.7041 2.88574Q15.3516 1.5332 13.5742 0.766602Q11.7969 0 9.78516 0Q7.77344 0 6.00098 0.766602Q4.22852 1.5332 2.88086 2.88574Q1.5332 4.23828 0.766602 6.01074Q0 7.7832 0 9.79492Q0 11.8066 0.766602 13.5791Q1.5332 15.3516 2.88574 16.7041Q4.23828 18.0566 6.01074 18.8232Q7.7832 19.5898 9.79492 19.5898ZM9.79492 18.3203Q8.02734 18.3203 6.47949 17.6611Q4.93164 17.002 3.75977 15.8301Q2.58789 14.6582 1.92871 13.1104Q1.26953 11.5625 1.26953 9.79492Q1.26953 8.02734 1.92871 6.47949Q2.58789 4.93164 3.75977 3.75488Q4.93164 2.57812 6.47461 1.91895Q8.01758 1.25977 9.78516 1.25977Q11.5625 1.25977 13.1104 1.91895Q14.6582 2.57812 15.8301 3.75488Q17.002 4.93164 17.666 6.47949Q18.3301 8.02734 18.3301 9.79492Q18.3301 11.5625 17.666 13.1104Q17.002 14.6582 15.8301 15.8301Q14.6582 17.002 13.1152 17.6611Q11.5723 18.3203 9.79492 18.3203Z"
                     fill="#ff453a" />
              <path d="M6.38672 13.8281Q6.65039 13.8281 6.83594 13.623L9.78516 10.6738L12.7539 13.623Q12.9492 13.8281 13.2031 13.8281Q13.457 13.8281 13.6377 13.6475Q13.8184 13.4668 13.8184 13.2129Q13.8184 12.959 13.623 12.7734L10.6641 9.80469L13.6328 6.82617Q13.8184 6.64062 13.8184 6.38672Q13.8184 6.13281 13.6426 5.95703Q13.4668 5.78125 13.2129 5.78125Q12.9688 5.78125 12.7734 5.98633L9.78516 8.94531L6.82617 5.98633Q6.65039 5.80078 6.38672 5.80078Q6.13281 5.80078 5.95215 5.97168Q5.77148 6.14258 5.77148 6.39648Q5.77148 6.65039 5.95703 6.83594L8.92578 9.80469L5.95703 12.7832Q5.77148 12.959 5.77148 13.2129Q5.77148 13.4668 5.95215 13.6475Q6.13281 13.8281 6.38672 13.8281Z"
                     fill="#ff453a" />
       </g>
</svg>