<svg width="19.5898" height="19.5996">
       <g>
              <rect height="19.5996" opacity="0" width="19.5898" x="0" y="0" />
              <path d="M9.79492 19.5898Q11.8066 19.5898 13.5791 18.8232Q15.3516 18.0566 16.7041 16.7041Q18.0566 15.3516 18.8232 13.5791Q19.5898 11.8066 19.5898 9.79492Q19.5898 7.7832 18.8232 6.01074Q18.0566 4.23828 16.7041 2.88574Q15.3516 1.5332 13.5742 0.766602Q11.7969 0 9.78516 0Q7.77344 0 6.00098 0.766602Q4.22852 1.5332 2.88086 2.88574Q1.5332 4.23828 0.766602 6.01074Q0 7.7832 0 9.79492Q0 11.8066 0.766602 13.5791Q1.5332 15.3516 2.88574 16.7041Q4.23828 18.0566 6.01074 18.8232Q7.7832 19.5898 9.79492 19.5898Z"
                     fill="#ff453a" />
              <path d="M6.50391 13.7207Q6.24023 13.7207 6.05957 13.5352Q5.87891 13.3496 5.87891 13.0957Q5.87891 12.832 6.06445 12.6465L8.90625 9.80469L6.06445 6.97266Q5.87891 6.77734 5.87891 6.51367Q5.87891 6.25977 6.05957 6.0791Q6.24023 5.89844 6.50391 5.89844Q6.75781 5.89844 6.96289 6.08398L9.80469 8.91602L12.6562 6.08398Q12.8418 5.88867 13.1055 5.88867Q13.3594 5.88867 13.5449 6.06934Q13.7305 6.25 13.7305 6.50391Q13.7305 6.76758 13.5352 6.96289L10.6934 9.80469L13.5352 12.6367Q13.7207 12.8125 13.7207 13.0957Q13.7207 13.3496 13.54 13.5352Q13.3594 13.7207 13.0859 13.7207Q12.8125 13.7207 12.627 13.5254L9.80469 10.6934L6.98242 13.5254Q6.77734 13.7207 6.50391 13.7207Z"
                     fill="#ffffff" />
       </g>
</svg>