<svg width="19.5898" height="19.5996">
       <g>
              <rect height="19.5996" opacity="0" width="19.5898" x="0" y="0" />
              <path d="M9.79492 19.5996Q11.8066 19.5996 13.5791 18.833Q15.3516 18.0664 16.7041 16.7139Q18.0566 15.3613 18.8232 13.5889Q19.5898 11.8164 19.5898 9.80469Q19.5898 7.79297 18.8232 6.02051Q18.0566 4.24805 16.7041 2.89551Q15.3516 1.54297 13.5742 0.776367Q11.7969 0.00976562 9.78516 0.00976562Q7.77344 0.00976562 6.00098 0.776367Q4.22852 1.54297 2.88086 2.89551Q1.5332 4.24805 0.766602 6.02051Q0 7.79297 0 9.80469Q0 11.8164 0.766602 13.5889Q1.5332 15.3613 2.88574 16.7139Q4.23828 18.0664 6.01074 18.833Q7.7832 19.5996 9.79492 19.5996Z"
                     fill="rgba(255,255,255,0.55)" />
              <path d="M7.04102 15.2246Q6.30859 15.2246 5.95215 14.834Q5.5957 14.4434 5.48828 13.7012L4.75586 8.68164L14.8438 8.68164L14.1113 13.7012Q13.9941 14.4434 13.6426 14.834Q13.291 15.2246 12.5488 15.2246ZM8.24219 13.7305Q8.39844 13.7305 8.50586 13.623L9.79492 12.3242L11.084 13.623Q11.1328 13.6621 11.2012 13.6963Q11.2695 13.7305 11.3477 13.7305Q11.5039 13.7305 11.6113 13.6182Q11.7188 13.5059 11.7188 13.3594Q11.7188 13.2129 11.6211 13.0957L10.332 11.7969L11.6211 10.5078Q11.7285 10.3906 11.7285 10.2441Q11.7285 10.0781 11.6211 9.9707Q11.5137 9.86328 11.3477 9.86328Q11.2109 9.86328 11.0938 9.98047L9.79492 11.2695L8.49609 9.98047Q8.38867 9.87305 8.24219 9.87305Q8.08594 9.87305 7.97363 9.98047Q7.86133 10.0879 7.86133 10.2441Q7.86133 10.3906 7.97852 10.5078L9.26758 11.7969L7.97852 13.0957Q7.86133 13.2031 7.86133 13.3594Q7.86133 13.5059 7.97363 13.6182Q8.08594 13.7305 8.24219 13.7305ZM4.32617 7.97852Q3.90625 7.97852 3.69141 7.74414Q3.47656 7.50977 3.47656 7.09961L3.47656 6.48438Q3.47656 6.07422 3.70117 5.83984Q3.92578 5.60547 4.32617 5.60547L15.2734 5.60547Q15.6934 5.60547 15.9082 5.83984Q16.123 6.07422 16.123 6.48438L16.123 7.09961Q16.123 7.50977 15.9082 7.74414Q15.6934 7.97852 15.2734 7.97852Z"
                     fill="#ffffff" />
       </g>
</svg>