<svg width="21.7432" height="21.7579">
       <g>
              <rect height="21.7579" opacity="0" width="21.7432" x="0" y="0" />
              <path d="M1.02053 12.9053L8.85256 20.7276Q9.85842 21.7432 10.8789 21.7481Q11.8994 21.753 12.9053 20.7471L20.7471 12.8955Q21.7432 11.8994 21.7432 10.874Q21.7432 9.84866 20.7373 8.83303L12.9248 1.02053Q11.8994 0.00490618 10.8838 2.33627e-05Q9.86819-0.00485945 8.86233 1.01077L1.001 8.85256Q-0.00485922 9.86819 2.35885e-05 10.8789Q0.0049064 11.8897 1.02053 12.9053Z"
                     fill="#ff453a" />
              <path d="M7.57327 14.7998Q7.30959 14.7998 7.12893 14.6143Q6.94827 14.4287 6.94827 14.1748Q6.94827 13.9112 7.13381 13.7256L9.97561 10.8838L7.13381 8.05178Q6.94827 7.85647 6.94827 7.5928Q6.94827 7.33889 7.12893 7.15823Q7.30959 6.97756 7.57327 6.97756Q7.82717 6.97756 8.03225 7.16311L10.874 9.99514L13.7256 7.16311Q13.9112 6.9678 14.1748 6.9678Q14.4287 6.9678 14.6143 7.14846Q14.7998 7.32912 14.7998 7.58303Q14.7998 7.8467 14.6045 8.04202L11.7627 10.8838L14.6045 13.7158Q14.7901 13.8916 14.7901 14.1748Q14.7901 14.4287 14.6094 14.6143Q14.4287 14.7998 14.1553 14.7998Q13.8819 14.7998 13.6963 14.6045L10.874 11.7725L8.05178 14.6045Q7.8467 14.7998 7.57327 14.7998Z"
                     fill="#ffffff" />
       </g>
</svg>