<svg width="16.1426" height="20.8105">
       <g>
              <rect height="20.8105" opacity="0" width="16.1426" x="0" y="0" />
              <path d="M0 17.9395Q0 19.375 0.717773 20.0928Q1.43555 20.8105 2.85156 20.8105L13.291 20.8105Q14.7168 20.8105 15.4297 20.0928Q16.1426 19.375 16.1426 17.9395L16.1426 2.88086Q16.1426 1.45508 15.4297 0.727539Q14.7168 0 13.291 0L2.85156 0Q1.43555 0 0.717773 0.727539Q0 1.45508 0 2.88086ZM1.21094 17.9102L1.21094 2.91016Q1.21094 2.08008 1.64062 1.64551Q2.07031 1.21094 2.91016 1.21094L13.2324 1.21094Q14.082 1.21094 14.5117 1.64551Q14.9414 2.08008 14.9414 2.91016L14.9414 17.9102Q14.9414 18.7402 14.5117 19.1748Q14.082 19.6094 13.2324 19.6094L2.91016 19.6094Q2.07031 19.6094 1.64062 19.1748Q1.21094 18.7402 1.21094 17.9102Z"
                     fill="#ff453a" />
              <path d="M4.67773 14.4336Q4.94141 14.4336 5.12695 14.2285L8.07617 11.2793L11.0449 14.2285Q11.2402 14.4336 11.4941 14.4336Q11.748 14.4336 11.9287 14.2529Q12.1094 14.0723 12.1094 13.8184Q12.1094 13.5645 11.9141 13.3789L8.95508 10.4102L11.9238 7.43164Q12.1094 7.24609 12.1094 6.99219Q12.1094 6.73828 11.9336 6.5625Q11.7578 6.38672 11.5039 6.38672Q11.2598 6.38672 11.0645 6.5918L8.07617 9.55078L5.11719 6.5918Q4.94141 6.40625 4.67773 6.40625Q4.42383 6.40625 4.24316 6.57715Q4.0625 6.74805 4.0625 7.00195Q4.0625 7.25586 4.24805 7.44141L7.2168 10.4102L4.24805 13.3887Q4.0625 13.5645 4.0625 13.8184Q4.0625 14.0723 4.24316 14.2529Q4.42383 14.4336 4.67773 14.4336Z"
                     fill="#ff453a" />
       </g>
</svg>