<svg width="23.2227" height="17.7051">
       <g>
              <rect height="17.7051" opacity="0" width="23.2227" x="0" y="0" />
              <path d="M6.55273 17.7051L16.6602 17.7051Q18.0371 17.7051 18.6816 16.9873Q19.3262 16.2695 19.5215 14.9316L20.9473 5.52734L2.27539 5.52734L3.70117 14.9316Q3.90625 16.2891 4.5459 16.9971Q5.18555 17.7051 6.55273 17.7051ZM1.54297 4.39453L21.6797 4.39453Q22.4316 4.39453 22.8271 3.96484Q23.2227 3.53516 23.2227 2.7832L23.2227 1.64062Q23.2227 0.888672 22.8271 0.454102Q22.4316 0.0195312 21.6797 0.0195312L1.54297 0.0195312Q0.820312 0.0195312 0.410156 0.454102Q0 0.888672 0 1.64062L0 2.7832Q0 3.53516 0.395508 3.96484Q0.791016 4.39453 1.54297 4.39453Z"
                     fill="rgba(255,255,255,0.55)" />
              <path d="M8.63281 14.8828Q8.38867 14.8828 8.21289 14.7021Q8.03711 14.5215 8.03711 14.2773Q8.03711 14.0527 8.22266 13.8672L10.7715 11.2988L8.22266 8.74023Q8.03711 8.55469 8.03711 8.33008Q8.03711 8.08594 8.21777 7.91504Q8.39844 7.74414 8.63281 7.74414Q8.76953 7.74414 8.8623 7.78809Q8.95508 7.83203 9.04297 7.91016L11.6113 10.4785L14.1797 7.91016Q14.3945 7.72461 14.5898 7.72461Q14.8438 7.72461 15.0195 7.90039Q15.1953 8.07617 15.1953 8.33008Q15.1953 8.44727 15.1465 8.54492Q15.0977 8.64258 15.0098 8.74023L12.4512 11.2988L15.0098 13.8574Q15.0781 13.9453 15.1367 14.0479Q15.1953 14.1504 15.1953 14.2773Q15.1953 14.5215 15.0146 14.7021Q14.834 14.8828 14.5898 14.8828Q14.4629 14.8828 14.3604 14.8291Q14.2578 14.7754 14.1699 14.6973L11.6113 12.1387L9.05273 14.6973Q8.87695 14.8828 8.63281 14.8828Z"
                     fill="#ffffff" />
       </g>
</svg>