<svg width="23.9648" height="17.8223">
       <g>
              <rect height="17.8223" opacity="0" width="23.9648" x="0" y="0" />
              <path d="M18.9062 16.4453Q19.9707 16.4453 20.8936 16.0938Q21.8164 15.7422 22.5049 15.1123Q23.1934 14.4824 23.5791 13.6426Q23.9648 12.8027 23.9648 11.8457Q23.9648 10.8496 23.6084 9.9707Q23.252 9.0918 22.5732 8.41797Q21.8945 7.74414 20.9277 7.38281Q20.9473 5.78125 20.4395 4.43359Q19.9316 3.08594 18.9893 2.08984Q18.0469 1.09375 16.792 0.546875Q15.5371 0 14.0723 0Q12.7441 0 11.6895 0.43457Q10.6348 0.869141 9.83398 1.59668Q9.0332 2.32422 8.49609 3.20312Q7.61719 2.90039 6.74316 3.05664Q5.86914 3.21289 5.14648 3.74023Q4.42383 4.26758 3.98438 5.08301Q3.54492 5.89844 3.54492 6.9043Q2.4707 7.03125 1.66992 7.65137Q0.869141 8.27148 0.43457 9.23828Q0 10.2051 0 11.377Q0 12.4219 0.424805 13.3398Q0.849609 14.2578 1.61133 14.9512Q2.37305 15.6445 3.39844 16.04Q4.42383 16.4355 5.625 16.4355Z"
                     fill="rgba(255,255,255,0.55)" />
              <path d="M9.78516 12.5Q9.58008 12.6953 9.3457 12.6758Q9.11133 12.6562 8.94531 12.4902Q8.76953 12.3438 8.75977 12.1094Q8.75 11.875 8.93555 11.6797L11.1426 9.46289L8.93555 7.24609Q8.75 7.06055 8.76953 6.82617Q8.78906 6.5918 8.94531 6.42578Q9.11133 6.25977 9.3457 6.25Q9.58008 6.24023 9.78516 6.42578L11.9824 8.62305L14.1895 6.42578Q14.3848 6.23047 14.624 6.25Q14.8633 6.26953 15.0293 6.42578Q15.1953 6.5918 15.2051 6.82617Q15.2148 7.06055 15.0293 7.24609L12.832 9.46289L15.0293 11.6797Q15.2148 11.875 15.2002 12.1045Q15.1855 12.334 15.0195 12.5098Q14.8633 12.6758 14.624 12.6855Q14.3848 12.6953 14.1895 12.5L11.9824 10.3125Z"
                     fill="#ffffff" />
       </g>
</svg>