<svg width="19.5898" height="19.5996">
       <g>
              <rect height="19.5996" opacity="0" width="19.5898" x="0" y="0" />
              <path d="M9.79492 19.5898Q11.8066 19.5898 13.5791 18.8232Q15.3516 18.0566 16.7041 16.7041Q18.0566 15.3516 18.8232 13.5791Q19.5898 11.8066 19.5898 9.79492Q19.5898 7.7832 18.8232 6.01074Q18.0566 4.23828 16.7041 2.88574Q15.3516 1.5332 13.5742 0.766602Q11.7969 0 9.78516 0Q7.77344 0 6.00098 0.766602Q4.22852 1.5332 2.88086 2.88574Q1.5332 4.23828 0.766602 6.01074Q0 7.7832 0 9.79492Q0 11.8066 0.766602 13.5791Q1.5332 15.3516 2.88574 16.7041Q4.23828 18.0566 6.01074 18.8232Q7.7832 19.5898 9.79492 19.5898Z"
                     fill="rgba(255,255,255,0.55)" />
              <path d="M9.79492 14.3262Q9.50195 14.3262 9.34082 14.1357Q9.17969 13.9453 9.17969 13.6328L9.17969 10.6934L6.24023 6.06445Q6.13281 5.87891 6.13281 5.69336Q6.13281 5.46875 6.29883 5.30762Q6.46484 5.14648 6.70898 5.14648Q6.91406 5.14648 7.0459 5.22949Q7.17773 5.3125 7.30469 5.52734L9.77539 9.48242L9.83398 9.48242L12.3242 5.52734Q12.4414 5.32227 12.5684 5.23438Q12.6953 5.14648 12.8906 5.14648Q13.1445 5.14648 13.3057 5.30273Q13.4668 5.45898 13.4668 5.70312Q13.4668 5.89844 13.3496 6.06445L10.4297 10.6836L10.4297 13.6328Q10.4297 13.9648 10.2637 14.1455Q10.0977 14.3262 9.79492 14.3262Z"
                     fill="#ffffff" />
       </g>
</svg>