<svg width="17.6855" height="17.7051">
       <g>
              <rect height="17.7051" opacity="0" width="17.6855" x="0" y="0" />
              <path d="M2.88086 17.7051L14.8047 17.7051Q16.2305 17.7051 16.958 16.9873Q17.6855 16.2695 17.6855 14.8535L17.6855 2.88086Q17.6855 1.46484 16.958 0.742188Q16.2305 0.0195312 14.8047 0.0195312L2.88086 0.0195312Q1.44531 0.0195312 0.722656 0.737305Q0 1.45508 0 2.88086L0 14.8535Q0 16.2695 0.722656 16.9873Q1.44531 17.7051 2.88086 17.7051Z"
                     fill="rgba(255,255,255,0.55)" />
              <path d="M8.84766 13.3789Q8.55469 13.3789 8.39355 13.1885Q8.23242 12.998 8.23242 12.6855L8.23242 9.74609L5.29297 5.11719Q5.18555 4.93164 5.18555 4.74609Q5.18555 4.52148 5.35156 4.36035Q5.51758 4.19922 5.76172 4.19922Q5.9668 4.19922 6.09863 4.28223Q6.23047 4.36523 6.35742 4.58008L8.82812 8.53516L8.88672 8.53516L11.377 4.58008Q11.4941 4.375 11.6211 4.28711Q11.748 4.19922 11.9434 4.19922Q12.1973 4.19922 12.3584 4.35547Q12.5195 4.51172 12.5195 4.75586Q12.5195 4.95117 12.4023 5.11719L9.48242 9.73633L9.48242 12.6855Q9.48242 13.0176 9.31641 13.1982Q9.15039 13.3789 8.84766 13.3789Z"
                     fill="#ffffff" />
       </g>
</svg>