<svg width="19.5898" height="19.5996">
       <g>
              <rect height="19.5996" opacity="0" width="19.5898" x="0" y="0" />
              <path d="M9.79492 19.5898Q11.8066 19.5898 13.5791 18.8232Q15.3516 18.0566 16.7041 16.7041Q18.0566 15.3516 18.8232 13.5791Q19.5898 11.8066 19.5898 9.79492Q19.5898 7.7832 18.8232 6.01074Q18.0566 4.23828 16.7041 2.88574Q15.3516 1.5332 13.5742 0.766602Q11.7969 0 9.78516 0Q7.77344 0 6.00098 0.766602Q4.22852 1.5332 2.88086 2.88574Q1.5332 4.23828 0.766602 6.01074Q0 7.7832 0 9.79492Q0 11.8066 0.766602 13.5791Q1.5332 15.3516 2.88574 16.7041Q4.23828 18.0566 6.01074 18.8232Q7.7832 19.5898 9.79492 19.5898Z"
                     fill="rgba(255,255,255,0.55)" />
              <path d="M6.94336 14.2285Q6.66016 14.2285 6.48926 14.0674Q6.31836 13.9062 6.31836 13.6523Q6.31836 13.4082 6.55273 13.0762L11.4258 6.36719L11.4258 6.28906L6.8457 6.28906Q6.61133 6.28906 6.46484 6.15234Q6.31836 6.01562 6.31836 5.76172Q6.31836 5.53711 6.46484 5.39551Q6.61133 5.25391 6.8457 5.25391L12.373 5.25391Q12.6562 5.25391 12.832 5.41992Q13.0078 5.58594 13.0078 5.84961Q13.0078 5.99609 12.9639 6.11328Q12.9199 6.23047 12.793 6.40625L7.93945 13.1152L7.93945 13.1836L12.7539 13.1836Q12.9883 13.1836 13.1396 13.3252Q13.291 13.4668 13.291 13.7109Q13.291 13.9453 13.1396 14.0869Q12.9883 14.2285 12.7539 14.2285Z"
                     fill="#ffffff" />
       </g>
</svg>