<svg width="17.6855" height="17.7051">
       <g>
              <rect height="17.7051" opacity="0" width="17.6855" x="0" y="0" />
              <path d="M2.88086 17.7051L14.8047 17.7051Q16.2305 17.7051 16.958 16.9873Q17.6855 16.2695 17.6855 14.8535L17.6855 2.88086Q17.6855 1.46484 16.958 0.742188Q16.2305 0.0195312 14.8047 0.0195312L2.88086 0.0195312Q1.44531 0.0195312 0.722656 0.737305Q0 1.45508 0 2.88086L0 14.8535Q0 16.2695 0.722656 16.9873Q1.44531 17.7051 2.88086 17.7051Z"
                     fill="rgba(255,255,255,0.55)" />
              <path d="M5.99609 13.2812Q5.71289 13.2812 5.54199 13.1201Q5.37109 12.959 5.37109 12.7051Q5.37109 12.4609 5.60547 12.1289L10.4785 5.41992L10.4785 5.3418L5.89844 5.3418Q5.66406 5.3418 5.51758 5.20508Q5.37109 5.06836 5.37109 4.81445Q5.37109 4.58984 5.51758 4.44824Q5.66406 4.30664 5.89844 4.30664L11.4258 4.30664Q11.709 4.30664 11.8848 4.47266Q12.0605 4.63867 12.0605 4.90234Q12.0605 5.04883 12.0166 5.16602Q11.9727 5.2832 11.8457 5.45898L6.99219 12.168L6.99219 12.2363L11.8066 12.2363Q12.041 12.2363 12.1924 12.3779Q12.3438 12.5195 12.3438 12.7637Q12.3438 12.998 12.1924 13.1396Q12.041 13.2812 11.8066 13.2812Z"
                     fill="#ffffff" />
       </g>
</svg>