<svg width="23.252" height="17.7051">
       <g>
              <rect height="17.7051" opacity="0" width="23.252" x="0" y="0" />
              <path d="M8.05664 0.0195312Q5.22461 0.0195312 3.44727 0.893555Q1.66992 1.76758 0.834961 3.52051Q0 5.27344 0 7.90039L0 14.8535Q0 16.2695 0.722656 16.9873Q1.44531 17.7051 2.88086 17.7051L20.3711 17.7051Q21.8066 17.7051 22.5293 16.9873Q23.252 16.2695 23.252 14.8535L23.252 7.90039Q23.252 5.27344 22.4219 3.52051Q21.5918 1.76758 19.8145 0.893555Q18.0371 0.0195312 15.2051 0.0195312Z"
                     fill="rgba(255,255,255,0.55)" />
              <path d="M5.38086 13.3594Q5.10742 13.3594 4.93652 13.2031Q4.76562 13.0469 4.76562 12.7832Q4.76562 12.5391 4.99023 12.207L9.87305 5.49805L9.87305 5.42969L5.29297 5.42969Q5.05859 5.42969 4.91211 5.28809Q4.76562 5.14648 4.76562 4.89258Q4.76562 4.66797 4.91211 4.52637Q5.05859 4.38477 5.29297 4.38477L10.8105 4.38477Q11.0938 4.38477 11.2695 4.55078Q11.4453 4.7168 11.4453 4.98047Q11.4453 5.12695 11.4062 5.24414Q11.3672 5.36133 11.2305 5.54688L6.37695 12.2461L6.37695 12.3145L11.2012 12.3145Q11.4258 12.3145 11.582 12.4561Q11.7383 12.5977 11.7383 12.8418Q11.7383 13.0762 11.582 13.2178Q11.4258 13.3594 11.2012 13.3594ZM14.0527 13.3594Q13.75 13.3594 13.5889 13.1689Q13.4277 12.9785 13.4277 12.6758L13.4277 4.9707Q13.4277 4.66797 13.5889 4.47266Q13.75 4.27734 14.0527 4.27734Q14.3555 4.27734 14.5166 4.46289Q14.6777 4.64844 14.6777 4.9707L14.6777 12.3145L18.7012 12.3145Q18.9355 12.3145 19.082 12.4561Q19.2285 12.5977 19.2285 12.8418Q19.2285 13.0859 19.082 13.2227Q18.9355 13.3594 18.7012 13.3594Z"
                     fill="#ffffff" />
       </g>
</svg>