<svg width="23.252" height="17.7051">
       <g>
              <rect height="17.7051" opacity="0" width="23.252" x="0" y="0" />
              <path d="M8.05664 0.0195312Q5.22461 0.0195312 3.44727 0.893555Q1.66992 1.76758 0.834961 3.52051Q0 5.27344 0 7.90039L0 14.8535Q0 16.2695 0.722656 16.9873Q1.44531 17.7051 2.88086 17.7051L20.3711 17.7051Q21.8066 17.7051 22.5293 16.9873Q23.252 16.2695 23.252 14.8535L23.252 7.90039Q23.252 5.27344 22.4219 3.52051Q21.5918 1.76758 19.8145 0.893555Q18.0371 0.0195312 15.2051 0.0195312Z"
                     fill="rgba(255,255,255,0.55)" />
              <path d="M4.79492 13.3594Q4.52148 13.3594 4.35059 13.1982Q4.17969 13.0371 4.17969 12.7832Q4.17969 12.6367 4.22363 12.5195Q4.26758 12.4023 4.4043 12.1973L9.27734 5.48828L9.27734 5.41992L4.70703 5.41992Q4.47266 5.41992 4.32617 5.27832Q4.17969 5.13672 4.17969 4.89258Q4.17969 4.66797 4.32617 4.52148Q4.47266 4.375 4.70703 4.375L10.2246 4.375Q10.5078 4.375 10.6836 4.54102Q10.8594 4.70703 10.8594 4.98047Q10.8594 5.12695 10.8203 5.24414Q10.7812 5.36133 10.6445 5.53711L5.79102 12.2461L5.79102 12.3145L10.6152 12.3145Q10.8398 12.3145 10.9912 12.4561Q11.1426 12.5977 11.1426 12.8418Q11.1426 13.0762 10.9912 13.2178Q10.8398 13.3594 10.6152 13.3594ZM13.252 13.457Q12.9492 13.457 12.7881 13.2715Q12.627 13.0859 12.627 12.7734L12.627 5.07812Q12.627 4.76562 12.7832 4.57031Q12.9395 4.375 13.2324 4.375L16.0547 4.375Q17.4609 4.375 18.3008 5.1416Q19.1406 5.9082 19.1406 7.17773Q19.1406 8.125 18.6084 8.83301Q18.0762 9.54102 17.1777 9.79492L18.8086 12.4512Q18.9648 12.7051 18.9648 12.9297Q18.9648 13.1641 18.8086 13.3105Q18.6523 13.457 18.4082 13.457Q18.1934 13.457 18.0566 13.3643Q17.9199 13.2715 17.7734 13.0371L15.9473 9.96094L13.877 9.96094L13.877 12.7734Q13.877 13.0859 13.7158 13.2715Q13.5547 13.457 13.252 13.457ZM13.877 9.01367L15.9082 9.01367Q16.8164 9.01367 17.3633 8.53027Q17.9102 8.04688 17.9102 7.20703Q17.9102 6.33789 17.3584 5.84961Q16.8066 5.36133 15.9375 5.36133L13.877 5.36133Z"
                     fill="#ffffff" />
       </g>
</svg>